<svg xmlns="http://www.w3.org/2000/svg" xmlns:xlink="http://www.w3.org/1999/xlink" width="233" height="252" preserveAspectRatio="none" style="width:233px;height:252px;background:#00000000"><a xlink:actuate="onRequest" xlink:href="#a" xlink:show="new" xlink:title="#aws_alb" xlink:type="simple" target="_top"><rect id="a" width="109" height="39.789" x="21" y="207" fill="#3D176E" rx="2.5" ry="2.5" style="stroke:#000d19;stroke-width:1.5"/><circle cx="36" cy="226.894" r="11" fill="#E98DF7" style="stroke:#000d19;stroke-width:1"/><path d="M38.969 232.535q-.578.297-1.219.438-.64.156-1.344.156-2.5 0-3.828-1.64-1.312-1.657-1.312-4.782t1.312-4.781q1.328-1.656 3.828-1.656.703 0 1.344.156.656.156 1.219.453v2.719q-.625-.579-1.219-.844-.594-.281-1.219-.281-1.343 0-2.031 1.078-.688 1.062-.688 3.156 0 2.094.688 3.172.688 1.062 2.031 1.062.625 0 1.219-.265.594-.281 1.219-.86v2.72Z"/><text x="55" y="232.78" fill="#D9B8FF" font-family="Helvetica" font-size="17" textLength="67">aws_alb</text></a><a xlink:actuate="onRequest" xlink:href="#b" xlink:show="new" xlink:title="#aws_region" xlink:type="simple" target="_top"><rect id="b" width="137" height="39.789" x="7" y="7" fill="#3D176E" rx="2.5" ry="2.5" style="stroke:#000d19;stroke-width:1.5"/><circle cx="22" cy="26.895" r="11" fill="#E98DF7" style="stroke:#000d19;stroke-width:1"/><path d="M24.969 32.535q-.578.297-1.219.438-.64.156-1.344.156-2.5 0-3.828-1.64-1.312-1.657-1.312-4.782t1.312-4.781q1.328-1.656 3.828-1.656.703 0 1.344.156.656.156 1.219.453v2.719q-.625-.578-1.219-.844-.594-.281-1.219-.281-1.343 0-2.031 1.078-.688 1.062-.688 3.156 0 2.094.688 3.172.688 1.062 2.031 1.062.625 0 1.219-.265.594-.281 1.219-.86v2.72Z"/><text x="41" y="32.78" fill="#D9B8FF" font-family="Helvetica" font-size="17" textLength="95">aws_region</text></a><a xlink:actuate="onRequest" xlink:href="#c" xlink:show="new" xlink:title="#aws_alb_quota" xlink:type="simple" target="_top"><rect id="c" width="166" height="39.789" x="60.5" y="107" fill="#3D176E" rx="2.5" ry="2.5" style="stroke:#000d19;stroke-width:1.5"/><circle cx="75.5" cy="126.894" r="11" fill="#E98DF7" style="stroke:#000d19;stroke-width:1"/><path d="M78.469 132.535q-.578.297-1.219.438-.64.156-1.344.156-2.5 0-3.828-1.64-1.312-1.657-1.312-4.782t1.312-4.781q1.328-1.657 3.828-1.657.703 0 1.344.157.656.156 1.219.453v2.719q-.625-.579-1.219-.844-.594-.281-1.219-.281-1.344 0-2.031 1.078-.688 1.062-.688 3.156 0 2.094.688 3.172.688 1.062 2.031 1.062.625 0 1.219-.265.594-.281 1.219-.86v2.72Z"/><text x="94.5" y="132.78" fill="#D9B8FF" font-family="Helvetica" font-size="17" textLength="124">aws_alb_quota</text></a><path fill="none" d="M64.98 47.12C57.04 62.71 46.79 85.58 42.5 107c-3.49 17.43-3.49 22.57 0 40 3.89 19.42 12.67 40.02 20.19 55.31" style="stroke:#1a83af;stroke-width:2"/><path fill="#1A83AF" d="m64.98 206.88-.435-9.84-1.795 5.365-5.365-1.796 7.595 6.271z" style="stroke:#1a83af;stroke-width:2"/><path fill="none" d="M88.93 47.36c10.99 15.84 26.58 38.3 38.28 55.16" style="stroke:#1a83af;stroke-width:2"/><path fill="#1A83AF" d="m130.09 106.68-1.864-9.67-.995 5.568-5.568-.995 8.427 5.097z" style="stroke:#1a83af;stroke-width:2"/><path fill="none" d="M130.07 147.36c-10.99 15.84-26.58 38.3-38.28 55.16" style="stroke:#1a83af;stroke-width:2"/><path fill="#1A83AF" d="m88.91 206.68 8.427-5.097-5.568.995-.995-5.569-1.864 9.671z" style="stroke:#1a83af;stroke-width:2"/></svg>