<svg xmlns="http://www.w3.org/2000/svg" xmlns:xlink="http://www.w3.org/1999/xlink" width="681" height="352" preserveAspectRatio="none" style="width:681px;height:352px;background:#00000000"><a xlink:actuate="onRequest" xlink:href="#a" xlink:show="new" xlink:title="#aws_alb_target_group" xlink:type="simple" target="_top"><rect id="a" width="226" height="39.789" x="7" y="307" fill="#3D176E" rx="2.5" ry="2.5" style="stroke:#000d19;stroke-width:1.5"/><circle cx="22" cy="326.894" r="11" fill="#E98DF7" style="stroke:#000d19;stroke-width:1"/><path d="M24.969 332.535q-.578.297-1.219.438-.64.156-1.344.156-2.5 0-3.828-1.64-1.312-1.657-1.312-4.782t1.312-4.781q1.328-1.656 3.828-1.656.703 0 1.344.156.656.156 1.219.453v2.719q-.625-.579-1.219-.844-.594-.281-1.219-.281-1.343 0-2.031 1.078-.688 1.062-.688 3.156 0 2.094.688 3.172.688 1.062 2.031 1.062.625 0 1.219-.265.594-.281 1.219-.86v2.72Z"/><text x="41" y="332.78" fill="#D9B8FF" font-family="Helvetica" font-size="17" textLength="184">aws_alb_target_group</text></a><a xlink:actuate="onRequest" xlink:href="#b" xlink:show="new" xlink:title="#aws_iam_server_certificate" xlink:type="simple" target="_top"><rect id="b" width="269" height="39.789" x="405.5" y="307" fill="#3D176E" rx="2.5" ry="2.5" style="stroke:#000d19;stroke-width:1.5"/><circle cx="420.5" cy="326.894" r="11" fill="#E98DF7" style="stroke:#000d19;stroke-width:1"/><path d="M423.469 332.535q-.578.297-1.219.438-.64.156-1.344.156-2.5 0-3.828-1.64-1.312-1.657-1.312-4.782t1.312-4.781q1.328-1.656 3.828-1.656.703 0 1.344.156.656.156 1.219.453v2.719q-.625-.579-1.219-.844-.594-.281-1.219-.281-1.344 0-2.031 1.078-.688 1.062-.688 3.156 0 2.094.688 3.172.688 1.062 2.031 1.062.625 0 1.219-.265.594-.281 1.219-.86v2.72Z"/><text x="439.5" y="332.78" fill="#D9B8FF" font-family="Helvetica" font-size="17" textLength="227">aws_iam_server_certificate</text></a><a xlink:actuate="onRequest" xlink:href="#c" xlink:show="new" xlink:title="#aws_alb" xlink:type="simple" target="_top"><rect id="c" width="109" height="39.789" x="347.5" y="207" fill="#3D176E" rx="2.5" ry="2.5" style="stroke:#000d19;stroke-width:1.5"/><circle cx="362.5" cy="226.894" r="11" fill="#E98DF7" style="stroke:#000d19;stroke-width:1"/><path d="M365.469 232.535q-.578.297-1.219.438-.64.156-1.344.156-2.5 0-3.828-1.64-1.312-1.657-1.312-4.782t1.312-4.781q1.328-1.656 3.828-1.656.703 0 1.344.156.656.156 1.219.453v2.719q-.625-.579-1.219-.844-.594-.281-1.219-.281-1.344 0-2.031 1.078-.688 1.062-.688 3.156 0 2.094.688 3.172.688 1.062 2.031 1.062.625 0 1.219-.265.594-.281 1.219-.86v2.72Z"/><text x="381.5" y="232.78" fill="#D9B8FF" font-family="Helvetica" font-size="17" textLength="67">aws_alb</text></a><a xlink:actuate="onRequest" xlink:href="#d" xlink:show="new" xlink:title="#aws_region" xlink:type="simple" target="_top"><rect id="d" width="137" height="39.789" x="333.5" y="7" fill="#3D176E" rx="2.5" ry="2.5" style="stroke:#000d19;stroke-width:1.5"/><circle cx="348.5" cy="26.895" r="11" fill="#E98DF7" style="stroke:#000d19;stroke-width:1"/><path d="M351.469 32.535q-.578.297-1.219.438-.64.156-1.344.156-2.5 0-3.828-1.64-1.312-1.657-1.312-4.782t1.312-4.781q1.328-1.656 3.828-1.656.703 0 1.344.156.656.156 1.219.453v2.719q-.625-.578-1.219-.844-.594-.281-1.219-.281-1.344 0-2.031 1.078-.688 1.062-.688 3.156 0 2.094.688 3.172.688 1.062 2.031 1.062.625 0 1.219-.265.594-.281 1.219-.86v2.72Z"/><text x="367.5" y="32.78" fill="#D9B8FF" font-family="Helvetica" font-size="17" textLength="95">aws_region</text></a><a xlink:actuate="onRequest" xlink:href="#e" xlink:show="new" xlink:title="#aws_ec2_subnet" xlink:type="simple" target="_top"><rect id="e" width="179" height="39.789" x="104.5" y="107" fill="#3D176E" rx="2.5" ry="2.5" style="stroke:#000d19;stroke-width:1.5"/><circle cx="119.5" cy="126.894" r="11" fill="#E98DF7" style="stroke:#000d19;stroke-width:1"/><path d="M122.469 132.535q-.578.297-1.219.438-.64.156-1.344.156-2.5 0-3.828-1.64-1.312-1.657-1.312-4.782t1.312-4.781q1.328-1.657 3.828-1.657.703 0 1.344.157.656.156 1.219.453v2.719q-.625-.579-1.219-.844-.594-.281-1.219-.281-1.344 0-2.031 1.078-.688 1.062-.688 3.156 0 2.094.688 3.172.688 1.062 2.031 1.062.625 0 1.219-.265.594-.281 1.219-.86v2.72Z"/><text x="138.5" y="132.78" fill="#D9B8FF" font-family="Helvetica" font-size="17" textLength="137">aws_ec2_subnet</text></a><a xlink:actuate="onRequest" xlink:href="#f" xlink:show="new" xlink:title="#aws_alb_quota" xlink:type="simple" target="_top"><rect id="f" width="166" height="39.789" x="319" y="107" fill="#3D176E" rx="2.5" ry="2.5" style="stroke:#000d19;stroke-width:1.5"/><circle cx="334" cy="126.894" r="11" fill="#E98DF7" style="stroke:#000d19;stroke-width:1"/><path d="M336.969 132.535q-.578.297-1.219.438-.64.156-1.344.156-2.5 0-3.828-1.64-1.312-1.657-1.312-4.782t1.312-4.781q1.328-1.657 3.828-1.657.703 0 1.344.157.656.156 1.219.453v2.719q-.625-.579-1.219-.844-.594-.281-1.219-.281-1.344 0-2.031 1.078-.688 1.062-.688 3.156 0 2.094.688 3.172.688 1.062 2.031 1.062.625 0 1.219-.265.594-.281 1.219-.86v2.72Z"/><text x="353" y="132.78" fill="#D9B8FF" font-family="Helvetica" font-size="17" textLength="124">aws_alb_quota</text></a><path fill="none" d="M347.29 247.01c-48.1 16.72-117.97 41-167.52 58.22" style="stroke:#1a83af;stroke-width:2"/><path fill="#1A83AF" d="m175.04 306.87 9.814.825-5.09-2.466 2.465-5.091-7.189 6.732z" style="stroke:#1a83af;stroke-width:2"/><path fill="none" d="M428.94 247.13c22.98 16.32 56.04 39.8 80.11 56.89" style="stroke:#1a83af;stroke-width:2"/><path fill="#1A83AF" d="m513.13 306.92-5.01-8.48.938 5.58-5.58.937 9.652 1.963z" style="stroke:#1a83af;stroke-width:2"/><path fill="none" d="M361.4 47.13c-35.07 16.52-85.71 40.38-122.09 57.52" style="stroke:#1a83af;stroke-width:2"/><path fill="#1A83AF" d="m234.5 106.92 9.846-.22-5.323-1.912 1.912-5.324-6.435 7.456z" style="stroke:#1a83af;stroke-width:2"/><path fill="none" d="M333.23 35.45C249.92 46.05 116.96 68.6 87 107c-45.3 58.06-4.35 151.82 19.15 195.37" style="stroke:#1a83af;stroke-width:2"/><path fill="#1A83AF" d="m108.65 306.93-.812-9.815-1.588 5.429-5.43-1.589 7.83 5.975z" style="stroke:#1a83af;stroke-width:2"/><path fill="none" d="M441.07 47.06C463.68 60.41 490.13 80.59 503 107c7.79 15.98 7.79 24.02 0 40-12.02 24.66-35.87 43.89-57.38 57.19" style="stroke:#1a83af;stroke-width:2"/><path fill="#1A83AF" d="m441.07 206.94 9.77-1.239-5.493-1.35 1.35-5.494-5.627 8.083z" style="stroke:#1a83af;stroke-width:2"/><path fill="none" d="M402 47.36v54.3" style="stroke:#1a83af;stroke-width:2"/><path fill="#1A83AF" d="m402 106.68 4-9-4 4-4-4 4 9z" style="stroke:#1a83af;stroke-width:2"/><path fill="none" d="M456.7 47.11C483.97 59.67 514.57 79.04 531 107c36.49 62.11 23.94 152.12 14.92 194.8" style="stroke:#1a83af;stroke-width:2"/><path fill="#1A83AF" d="m544.84 306.76 5.813-7.95-4.756 3.063-3.063-4.755 2.006 9.642z" style="stroke:#1a83af;stroke-width:2"/><path fill="none" d="M234.6 147.13c35.07 16.52 85.71 40.38 122.09 57.52" style="stroke:#1a83af;stroke-width:2"/><path fill="#1A83AF" d="m361.5 206.92-6.435-7.456 1.913 5.324-5.324 1.912 9.846.22z" style="stroke:#1a83af;stroke-width:2"/><path fill="none" d="M402 147.36v54.3" style="stroke:#1a83af;stroke-width:2"/><path fill="#1A83AF" d="m402 206.68 4-9-4 4-4-4 4 9z" style="stroke:#1a83af;stroke-width:2"/></svg>