<svg xmlns="http://www.w3.org/2000/svg" xmlns:xlink="http://www.w3.org/1999/xlink" width="3497" height="552" preserveAspectRatio="none" style="width:3497px;height:552px;background:#00000000"><a xlink:actuate="onRequest" xlink:href="#a" xlink:show="new" xlink:title="#kubernetes_secret" xlink:type="simple" target="_top"><rect id="a" width="195" height="39.789" x="240" y="507" fill="#3D176E" rx="2.5" ry="2.5" style="stroke:#000d19;stroke-width:1.5"/><circle cx="255" cy="526.894" r="11" fill="#E98DF7" style="stroke:#000d19;stroke-width:1"/><path d="M257.969 532.535q-.578.297-1.219.438-.64.156-1.344.156-2.5 0-3.828-1.64-1.312-1.657-1.312-4.782t1.312-4.781q1.328-1.657 3.828-1.657.703 0 1.344.157.656.156 1.219.453v2.719q-.625-.578-1.219-.844-.594-.281-1.219-.281-1.344 0-2.031 1.078-.688 1.062-.688 3.156 0 2.094.688 3.172.688 1.062 2.031 1.062.625 0 1.219-.265.594-.282 1.219-.86v2.72Z"/><text x="274" y="532.78" fill="#D9B8FF" font-family="Helvetica" font-size="17" textLength="153">kubernetes_secret</text></a><a xlink:actuate="onRequest" xlink:href="#b" xlink:show="new" xlink:title="#kubernetes_service" xlink:type="simple" target="_top"><rect id="b" width="203" height="39.789" x="1207" y="207" fill="#3D176E" rx="2.5" ry="2.5" style="stroke:#000d19;stroke-width:1.5"/><circle cx="1222" cy="226.894" r="11" fill="#E98DF7" style="stroke:#000d19;stroke-width:1"/><path d="M1224.969 232.535q-.578.297-1.219.438-.64.156-1.344.156-2.5 0-3.828-1.64-1.312-1.657-1.312-4.782t1.312-4.781q1.328-1.656 3.828-1.656.703 0 1.344.156.656.156 1.219.453v2.719q-.625-.579-1.219-.844-.594-.281-1.219-.281-1.343 0-2.031 1.078-.688 1.062-.688 3.156 0 2.094.688 3.172.688 1.062 2.031 1.062.625 0 1.219-.265.594-.281 1.219-.86v2.72Z"/><text x="1241" y="232.78" fill="#D9B8FF" font-family="Helvetica" font-size="17" textLength="161">kubernetes_service</text></a><a xlink:actuate="onRequest" xlink:href="#c" xlink:show="new" xlink:title="#kubernetes_pod" xlink:type="simple" target="_top"><rect id="c" width="175" height="39.789" x="1095" y="407" fill="#3D176E" rx="2.5" ry="2.5" style="stroke:#000d19;stroke-width:1.5"/><circle cx="1110" cy="426.894" r="11" fill="#E98DF7" style="stroke:#000d19;stroke-width:1"/><path d="M1112.969 432.535q-.578.297-1.219.438-.64.156-1.344.156-2.5 0-3.828-1.64-1.312-1.657-1.312-4.782t1.312-4.781q1.328-1.656 3.828-1.656.703 0 1.344.156.656.156 1.219.453v2.719q-.625-.579-1.219-.844-.594-.281-1.219-.281-1.343 0-2.031 1.078-.688 1.062-.688 3.156 0 2.094.688 3.172.688 1.062 2.031 1.062.625 0 1.219-.265.594-.281 1.219-.86v2.72Z"/><text x="1129" y="432.78" fill="#D9B8FF" font-family="Helvetica" font-size="17" textLength="133">kubernetes_pod</text></a><a xlink:actuate="onRequest" xlink:href="#d" xlink:show="new" xlink:title="#kubernetes_endpoint_slice" xlink:type="simple" target="_top"><rect id="d" width="264" height="39.789" x="1320.5" y="307" fill="#3D176E" rx="2.5" ry="2.5" style="stroke:#000d19;stroke-width:1.5"/><circle cx="1335.5" cy="326.894" r="11" fill="#E98DF7" style="stroke:#000d19;stroke-width:1"/><path d="M1338.469 332.535q-.578.297-1.219.438-.64.156-1.344.156-2.5 0-3.828-1.64-1.312-1.657-1.312-4.782t1.312-4.781q1.328-1.656 3.828-1.656.703 0 1.344.156.656.156 1.219.453v2.719q-.625-.579-1.219-.844-.594-.281-1.219-.281-1.343 0-2.031 1.078-.688 1.062-.688 3.156 0 2.094.688 3.172.688 1.062 2.031 1.062.625 0 1.219-.265.594-.281 1.219-.86v2.72Z"/><text x="1354.5" y="332.78" fill="#D9B8FF" font-family="Helvetica" font-size="17" textLength="222">kubernetes_endpoint_slice</text></a><a xlink:actuate="onRequest" xlink:href="#e" xlink:show="new" xlink:title="#kubernetes_job" xlink:type="simple" target="_top"><rect id="e" width="170" height="39.789" x="555.5" y="307" fill="#3D176E" rx="2.5" ry="2.5" style="stroke:#000d19;stroke-width:1.5"/><circle cx="570.5" cy="326.894" r="11" fill="#E98DF7" style="stroke:#000d19;stroke-width:1"/><path d="M573.469 332.535q-.578.297-1.219.438-.64.156-1.344.156-2.5 0-3.828-1.64-1.312-1.657-1.312-4.782t1.312-4.781q1.328-1.656 3.828-1.656.703 0 1.344.156.656.156 1.219.453v2.719q-.625-.579-1.219-.844-.594-.281-1.219-.281-1.343 0-2.031 1.078-.688 1.062-.688 3.156 0 2.094.688 3.172.688 1.062 2.031 1.062.625 0 1.219-.265.594-.281 1.219-.86v2.72Z"/><text x="589.5" y="332.78" fill="#D9B8FF" font-family="Helvetica" font-size="17" textLength="128">kubernetes_job</text></a><a xlink:actuate="onRequest" xlink:href="#f" xlink:show="new" xlink:title="#kubernetes_cron_job" xlink:type="simple" target="_top"><rect id="f" width="215" height="39.789" x="533" y="207" fill="#3D176E" rx="2.5" ry="2.5" style="stroke:#000d19;stroke-width:1.5"/><circle cx="548" cy="226.894" r="11" fill="#E98DF7" style="stroke:#000d19;stroke-width:1"/><path d="M550.969 232.535q-.578.297-1.219.438-.64.156-1.344.156-2.5 0-3.828-1.64-1.312-1.657-1.312-4.782t1.312-4.781q1.328-1.656 3.828-1.656.703 0 1.344.156.656.156 1.219.453v2.719q-.625-.579-1.219-.844-.594-.281-1.219-.281-1.343 0-2.031 1.078-.688 1.062-.688 3.156 0 2.094.688 3.172.688 1.062 2.031 1.062.625 0 1.219-.265.594-.281 1.219-.86v2.72Z"/><text x="567" y="232.78" fill="#D9B8FF" font-family="Helvetica" font-size="17" textLength="173">kubernetes_cron_job</text></a><a xlink:actuate="onRequest" xlink:href="#g" xlink:show="new" xlink:title="#kubernetes_service_account" xlink:type="simple" target="_top"><rect id="g" width="277" height="39.789" x="7" y="407" fill="#3D176E" rx="2.5" ry="2.5" style="stroke:#000d19;stroke-width:1.5"/><circle cx="22" cy="426.894" r="11" fill="#E98DF7" style="stroke:#000d19;stroke-width:1"/><path d="M24.969 432.535q-.578.297-1.219.438-.64.156-1.344.156-2.5 0-3.828-1.64-1.312-1.657-1.312-4.782t1.312-4.781q1.328-1.656 3.828-1.656.703 0 1.344.156.656.156 1.219.453v2.719q-.625-.579-1.219-.844-.594-.281-1.219-.281-1.343 0-2.031 1.078-.688 1.062-.688 3.156 0 2.094.688 3.172.688 1.062 2.031 1.062.625 0 1.219-.265.594-.281 1.219-.86v2.72Z"/><text x="41" y="432.78" fill="#D9B8FF" font-family="Helvetica" font-size="17" textLength="235">kubernetes_service_account</text></a><a xlink:actuate="onRequest" xlink:href="#h" xlink:show="new" xlink:title="#kubernetes_controller_revision" xlink:type="simple" target="_top"><rect id="h" width="300" height="39.789" x="1893.5" y="307" fill="#3D176E" rx="2.5" ry="2.5" style="stroke:#000d19;stroke-width:1.5"/><circle cx="1908.5" cy="326.894" r="11" fill="#E98DF7" style="stroke:#000d19;stroke-width:1"/><path d="M1911.469 332.535q-.578.297-1.219.438-.64.156-1.344.156-2.5 0-3.828-1.64-1.312-1.657-1.312-4.782t1.312-4.781q1.328-1.656 3.828-1.656.703 0 1.344.156.656.156 1.219.453v2.719q-.625-.579-1.219-.844-.594-.281-1.219-.281-1.343 0-2.031 1.078-.688 1.062-.688 3.156 0 2.094.688 3.172.688 1.062 2.031 1.062.625 0 1.219-.265.594-.281 1.219-.86v2.72Z"/><text x="1927.5" y="332.78" fill="#D9B8FF" font-family="Helvetica" font-size="17" textLength="258">kubernetes_controller_revision</text></a><a xlink:actuate="onRequest" xlink:href="#i" xlink:show="new" xlink:title="#kubernetes_stateful_set" xlink:type="simple" target="_top"><rect id="i" width="243" height="39.789" x="2125" y="207" fill="#3D176E" rx="2.5" ry="2.5" style="stroke:#000d19;stroke-width:1.5"/><circle cx="2140" cy="226.894" r="11" fill="#E98DF7" style="stroke:#000d19;stroke-width:1"/><path d="M2142.969 232.535q-.578.297-1.219.438-.64.156-1.344.156-2.5 0-3.828-1.64-1.312-1.657-1.312-4.782t1.312-4.781q1.328-1.656 3.828-1.656.703 0 1.344.156.656.156 1.219.453v2.719q-.625-.579-1.219-.844-.594-.281-1.219-.281-1.343 0-2.031 1.078-.688 1.062-.688 3.156 0 2.094.688 3.172.688 1.062 2.031 1.062.625 0 1.219-.265.594-.281 1.219-.86v2.72Z"/><text x="2159" y="232.78" fill="#D9B8FF" font-family="Helvetica" font-size="17" textLength="201">kubernetes_stateful_set</text></a><a xlink:actuate="onRequest" xlink:href="#j" xlink:show="new" xlink:title="#kubernetes_daemon_set" xlink:type="simple" target="_top"><rect id="j" width="247" height="39.789" x="1771" y="207" fill="#3D176E" rx="2.5" ry="2.5" style="stroke:#000d19;stroke-width:1.5"/><circle cx="1786" cy="226.894" r="11" fill="#E98DF7" style="stroke:#000d19;stroke-width:1"/><path d="M1788.969 232.535q-.578.297-1.219.438-.64.156-1.344.156-2.5 0-3.828-1.64-1.312-1.657-1.312-4.782t1.312-4.781q1.328-1.656 3.828-1.656.703 0 1.344.156.656.156 1.219.453v2.719q-.625-.579-1.219-.844-.594-.281-1.219-.281-1.343 0-2.031 1.078-.688 1.062-.688 3.156 0 2.094.688 3.172.688 1.062 2.031 1.062.625 0 1.219-.265.594-.281 1.219-.86v2.72Z"/><text x="1805" y="232.78" fill="#D9B8FF" font-family="Helvetica" font-size="17" textLength="205">kubernetes_daemon_set</text></a><a xlink:actuate="onRequest" xlink:href="#k" xlink:show="new" xlink:title="#kubernetes_endpoint" xlink:type="simple" target="_top"><rect id="k" width="219" height="39.789" x="1517" y="207" fill="#3D176E" rx="2.5" ry="2.5" style="stroke:#000d19;stroke-width:1.5"/><circle cx="1532" cy="226.894" r="11" fill="#E98DF7" style="stroke:#000d19;stroke-width:1"/><path d="M1534.969 232.535q-.578.297-1.219.438-.64.156-1.344.156-2.5 0-3.828-1.64-1.312-1.657-1.312-4.782t1.312-4.781q1.328-1.656 3.828-1.656.703 0 1.344.156.656.156 1.219.453v2.719q-.625-.579-1.219-.844-.594-.281-1.219-.281-1.343 0-2.031 1.078-.688 1.062-.688 3.156 0 2.094.688 3.172.688 1.062 2.031 1.062.625 0 1.219-.265.594-.281 1.219-.86v2.72Z"/><text x="1551" y="232.78" fill="#D9B8FF" font-family="Helvetica" font-size="17" textLength="177">kubernetes_endpoint</text></a><a xlink:actuate="onRequest" xlink:href="#l" xlink:show="new" xlink:title="#kubernetes_cluster" xlink:type="simple" target="_top"><rect id="l" width="201" height="39.789" x="1285" y="7" fill="#3D176E" rx="2.5" ry="2.5" style="stroke:#000d19;stroke-width:1.5"/><circle cx="1300" cy="26.895" r="11" fill="#E98DF7" style="stroke:#000d19;stroke-width:1"/><path d="M1302.969 32.535q-.578.297-1.219.438-.64.156-1.344.156-2.5 0-3.828-1.64-1.312-1.657-1.312-4.782t1.312-4.781q1.328-1.656 3.828-1.656.703 0 1.344.156.656.156 1.219.453v2.719q-.625-.578-1.219-.844-.594-.281-1.219-.281-1.343 0-2.031 1.078-.688 1.062-.688 3.156 0 2.094.688 3.172.688 1.062 2.031 1.062.625 0 1.219-.265.594-.281 1.219-.86v2.72Z"/><text x="1319" y="32.78" fill="#D9B8FF" font-family="Helvetica" font-size="17" textLength="159">kubernetes_cluster</text></a><a xlink:actuate="onRequest" xlink:href="#m" xlink:show="new" xlink:title="#kubernetes_namespace" xlink:type="simple" target="_top"><rect id="m" width="239" height="39.789" x="1266" y="107" fill="#3D176E" rx="2.5" ry="2.5" style="stroke:#000d19;stroke-width:1.5"/><circle cx="1281" cy="126.894" r="11" fill="#E98DF7" style="stroke:#000d19;stroke-width:1"/><path d="M1283.969 132.535q-.578.297-1.219.438-.64.156-1.344.156-2.5 0-3.828-1.64-1.312-1.657-1.312-4.782t1.312-4.781q1.328-1.657 3.828-1.657.703 0 1.344.157.656.156 1.219.453v2.719q-.625-.579-1.219-.844-.594-.281-1.219-.281-1.343 0-2.031 1.078-.688 1.062-.688 3.156 0 2.094.688 3.172.688 1.062 2.031 1.062.625 0 1.219-.265.594-.281 1.219-.86v2.72Z"/><text x="1300" y="132.78" fill="#D9B8FF" font-family="Helvetica" font-size="17" textLength="197">kubernetes_namespace</text></a><a xlink:actuate="onRequest" xlink:href="#n" xlink:show="new" xlink:title="#kubernetes_config_map" xlink:type="simple" target="_top"><rect id="n" width="241" height="39.789" x="814" y="507" fill="#3D176E" rx="2.5" ry="2.5" style="stroke:#000d19;stroke-width:1.5"/><circle cx="829" cy="526.894" r="11" fill="#E98DF7" style="stroke:#000d19;stroke-width:1"/><path d="M831.969 532.535q-.578.297-1.219.438-.64.156-1.344.156-2.5 0-3.828-1.64-1.312-1.657-1.312-4.782t1.312-4.781q1.328-1.657 3.828-1.657.703 0 1.344.157.656.156 1.219.453v2.719q-.625-.578-1.219-.844-.594-.281-1.219-.281-1.343 0-2.031 1.078-.688 1.062-.688 3.156 0 2.094.688 3.172.688 1.062 2.031 1.062.625 0 1.219-.265.594-.282 1.219-.86v2.72Z"/><text x="848" y="532.78" fill="#D9B8FF" font-family="Helvetica" font-size="17" textLength="199">kubernetes_config_map</text></a><a xlink:actuate="onRequest" xlink:href="#o" xlink:show="new" xlink:title="#kubernetes_deployment" xlink:type="simple" target="_top"><rect id="o" width="245" height="39.789" x="855" y="207" fill="#3D176E" rx="2.5" ry="2.5" style="stroke:#000d19;stroke-width:1.5"/><circle cx="870" cy="226.894" r="11" fill="#E98DF7" style="stroke:#000d19;stroke-width:1"/><path d="M872.969 232.535q-.578.297-1.219.438-.64.156-1.344.156-2.5 0-3.828-1.64-1.312-1.657-1.312-4.782t1.312-4.781q1.328-1.656 3.828-1.656.703 0 1.344.156.656.156 1.219.453v2.719q-.625-.579-1.219-.844-.594-.281-1.219-.281-1.343 0-2.031 1.078-.688 1.062-.688 3.156 0 2.094.688 3.172.688 1.062 2.031 1.062.625 0 1.219-.265.594-.281 1.219-.86v2.72Z"/><text x="889" y="232.78" fill="#D9B8FF" font-family="Helvetica" font-size="17" textLength="203">kubernetes_deployment</text></a><a xlink:actuate="onRequest" xlink:href="#p" xlink:show="new" xlink:title="#kubernetes_replica_set" xlink:type="simple" target="_top"><rect id="p" width="234" height="39.789" x="980.5" y="307" fill="#3D176E" rx="2.5" ry="2.5" style="stroke:#000d19;stroke-width:1.5"/><circle cx="995.5" cy="326.894" r="11" fill="#E98DF7" style="stroke:#000d19;stroke-width:1"/><path d="M998.469 332.535q-.578.297-1.219.438-.64.156-1.344.156-2.5 0-3.828-1.64-1.312-1.657-1.312-4.782t1.312-4.781q1.328-1.656 3.828-1.656.703 0 1.344.156.656.156 1.219.453v2.719q-.625-.579-1.219-.844-.594-.281-1.219-.281-1.343 0-2.031 1.078-.688 1.062-.688 3.156 0 2.094.688 3.172.688 1.062 2.031 1.062.625 0 1.219-.265.594-.281 1.219-.86v2.72Z"/><text x="1014.5" y="332.78" fill="#D9B8FF" font-family="Helvetica" font-size="17" textLength="192">kubernetes_replica_set</text></a><a xlink:actuate="onRequest" xlink:href="#q" xlink:show="new" xlink:title="#kubernetes_pod_disruption_budget" xlink:type="simple" target="_top"><rect id="q" width="335" height="39.789" x="2403" y="207" fill="#3D176E" rx="2.5" ry="2.5" style="stroke:#000d19;stroke-width:1.5"/><circle cx="2418" cy="226.894" r="11" fill="#E98DF7" style="stroke:#000d19;stroke-width:1"/><path d="M2420.969 232.535q-.578.297-1.219.438-.64.156-1.344.156-2.5 0-3.828-1.64-1.312-1.657-1.312-4.782t1.312-4.781q1.328-1.656 3.828-1.656.703 0 1.344.156.656.156 1.219.453v2.719q-.625-.579-1.219-.844-.594-.281-1.219-.281-1.343 0-2.031 1.078-.688 1.062-.688 3.156 0 2.094.688 3.172.688 1.062 2.031 1.062.625 0 1.219-.265.594-.281 1.219-.86v2.72Z"/><text x="2437" y="232.78" fill="#D9B8FF" font-family="Helvetica" font-size="17" textLength="293">kubernetes_pod_disruption_budget</text></a><a xlink:actuate="onRequest" xlink:href="#r" xlink:show="new" xlink:title="#kubernetes_role" xlink:type="simple" target="_top"><rect id="r" width="177" height="39.789" x="2773" y="207" fill="#3D176E" rx="2.5" ry="2.5" style="stroke:#000d19;stroke-width:1.5"/><circle cx="2788" cy="226.894" r="11" fill="#E98DF7" style="stroke:#000d19;stroke-width:1"/><path d="M2790.969 232.535q-.578.297-1.219.438-.64.156-1.344.156-2.5 0-3.828-1.64-1.312-1.657-1.312-4.782t1.312-4.781q1.328-1.656 3.828-1.656.703 0 1.344.156.656.156 1.219.453v2.719q-.625-.579-1.219-.844-.594-.281-1.219-.281-1.343 0-2.031 1.078-.688 1.062-.688 3.156 0 2.094.688 3.172.688 1.062 2.031 1.062.625 0 1.219-.265.594-.281 1.219-.86v2.72Z"/><text x="2807" y="232.78" fill="#D9B8FF" font-family="Helvetica" font-size="17" textLength="135">kubernetes_role</text></a><a xlink:actuate="onRequest" xlink:href="#s" xlink:show="new" xlink:title="#kubernetes_role_binding" xlink:type="simple" target="_top"><rect id="s" width="248" height="39.789" x="2984.5" y="207" fill="#3D176E" rx="2.5" ry="2.5" style="stroke:#000d19;stroke-width:1.5"/><circle cx="2999.5" cy="226.894" r="11" fill="#E98DF7" style="stroke:#000d19;stroke-width:1"/><path d="M3002.469 232.535q-.578.297-1.219.438-.64.156-1.344.156-2.5 0-3.828-1.64-1.312-1.657-1.312-4.782t1.312-4.781q1.328-1.656 3.828-1.656.703 0 1.344.156.656.156 1.219.453v2.719q-.625-.579-1.219-.844-.594-.281-1.219-.281-1.343 0-2.031 1.078-.688 1.062-.688 3.156 0 2.094.688 3.172.688 1.062 2.031 1.062.625 0 1.219-.265.594-.281 1.219-.86v2.72Z"/><text x="3018.5" y="232.78" fill="#D9B8FF" font-family="Helvetica" font-size="17" textLength="206">kubernetes_role_binding</text></a><a xlink:actuate="onRequest" xlink:href="#t" xlink:show="new" xlink:title="#kubernetes_persistent_volume_claim" xlink:type="simple" target="_top"><rect id="t" width="354" height="39.789" x="2099.5" y="507" fill="#3D176E" rx="2.5" ry="2.5" style="stroke:#000d19;stroke-width:1.5"/><circle cx="2114.5" cy="526.894" r="11" fill="#E98DF7" style="stroke:#000d19;stroke-width:1"/><path d="M2117.469 532.535q-.578.297-1.219.438-.64.156-1.344.156-2.5 0-3.828-1.64-1.312-1.657-1.312-4.782t1.312-4.781q1.328-1.657 3.828-1.657.703 0 1.344.157.656.156 1.219.453v2.719q-.625-.578-1.219-.844-.594-.281-1.219-.281-1.343 0-2.031 1.078-.688 1.062-.688 3.156 0 2.094.688 3.172.688 1.062 2.031 1.062.625 0 1.219-.265.594-.282 1.219-.86v2.72Z"/><text x="2133.5" y="532.78" fill="#D9B8FF" font-family="Helvetica" font-size="17" textLength="312">kubernetes_persistent_volume_claim</text></a><path fill="none" d="M1296.19 247.35c-23.21 36.46-73.35 115.26-98.57 154.89" style="stroke:#1a83af;stroke-width:2"/><path fill="#1A83AF" d="m1194.68 406.87 8.202-5.453-5.521 1.232-1.232-5.52-1.449 9.741z" style="stroke:#1a83af;stroke-width:2"/><path fill="none" d="m1336.61 247.13 83.59 56.89" style="stroke:#1a83af;stroke-width:2"/><path fill="#1A83AF" d="m1424.46 306.92-5.184-8.374 1.053 5.558-5.559 1.052 9.69 1.764z" style="stroke:#1a83af;stroke-width:2"/><path fill="none" d="M1270.18 435.85c178.17 15.97 585.81 52.48 824 73.82" style="stroke:#1a83af;stroke-width:2"/><path fill="#1A83AF" d="m2099.43 510.14-8.61-4.783 3.63 4.34-4.34 3.629 9.32-3.186z" style="stroke:#1a83af;stroke-width:2"/><path fill="none" d="M1134.39 447.01c-42.13 16.65-103.25 40.8-146.8 58.01" style="stroke:#1a83af;stroke-width:2"/><path fill="#1A83AF" d="m982.9 506.87 9.84.424-5.188-2.256 2.256-5.188-6.908 7.02z" style="stroke:#1a83af;stroke-width:2"/><path fill="none" d="M1094.86 438.16c-157.25 18.24-486.5 56.43-654.29 75.89" style="stroke:#1a83af;stroke-width:2"/><path fill="#1A83AF" d="m435.16 514.67 9.406 2.92-4.44-3.505 3.504-4.44-8.47 5.025z" style="stroke:#1a83af;stroke-width:2"/><path fill="none" d="M725.78 343.42c98.95 17.89 261.53 47.29 363.67 65.76" style="stroke:#1a83af;stroke-width:2"/><path fill="#1A83AF" d="m1094.57 410.1-8.148-5.533 3.227 4.646-4.646 3.227 9.567-2.34z" style="stroke:#1a83af;stroke-width:2"/><path fill="none" d="M640.5 247.36v54.3" style="stroke:#1a83af;stroke-width:2"/><path fill="#1A83AF" d="m640.5 306.68 4-9-4 4-4-4 4 9z" style="stroke:#1a83af;stroke-width:2"/><path fill="none" d="M182.98 447.13c32.24 16.46 78.73 40.19 112.29 57.31" style="stroke:#1a83af;stroke-width:2"/><path fill="#1A83AF" d="m300.12 506.92-6.203-7.65 1.748 5.38-5.38 1.747 9.835.523z" style="stroke:#1a83af;stroke-width:2"/><path fill="none" d="M2247.04 247.24c-.41 26.99-5.58 75.5-35.54 99.76-71.83 58.17-696.44 73.89-936.01 77.8" style="stroke:#1a83af;stroke-width:2"/><path fill="#1A83AF" d="m1270.25 424.89 9.067 3.845-4.068-3.93 3.931-4.069-8.93 4.154z" style="stroke:#1a83af;stroke-width:2"/><path fill="none" d="M2206.88 247.13c-34.23 16.52-83.65 40.38-119.16 57.52" style="stroke:#1a83af;stroke-width:2"/><path fill="#1A83AF" d="m2083.02 306.92 9.843-.334-5.345-1.85 1.85-5.346-6.348 7.53z" style="stroke:#1a83af;stroke-width:2"/><path fill="none" d="M1860.87 247.15C1813 273.59 1721.76 320.94 1638.5 347c-122.48 38.33-269.64 59.59-363 70.15" style="stroke:#1a83af;stroke-width:2"/><path fill="#1A83AF" d="m1270.26 417.74 9.39 2.973-4.421-3.53 3.53-4.42-8.499 4.977z" style="stroke:#1a83af;stroke-width:2"/><path fill="none" d="M1923.58 247.13c24.82 16.32 60.51 39.8 86.5 56.89" style="stroke:#1a83af;stroke-width:2"/><path fill="#1A83AF" d="m2014.49 306.92-5.303-8.3 1.132 5.543-5.543 1.131 9.714 1.626z" style="stroke:#1a83af;stroke-width:2"/><path fill="none" d="M1628.43 247.09c1.52 26.36-.09 73.62-26.93 99.91-45.22 44.3-217.05 64.67-326.12 73.31" style="stroke:#1a83af;stroke-width:2"/><path fill="#1A83AF" d="m1270.24 420.71 9.291 3.267-4.307-3.667 3.667-4.307-8.651 4.707z" style="stroke:#1a83af;stroke-width:2"/><path fill="none" d="M1592.54 247.13c-29.22 16.46-71.36 40.19-101.77 57.31" style="stroke:#1a83af;stroke-width:2"/><path fill="#1A83AF" d="m1486.38 306.92 9.804-.937-5.449-1.52 1.52-5.448-5.875 7.905z" style="stroke:#1a83af;stroke-width:2"/><path fill="none" d="M1385.5 47.36v54.3" style="stroke:#1a83af;stroke-width:2"/><path fill="#1A83AF" d="m1385.5 106.68 4-9-4 4-4-4 4 9z" style="stroke:#1a83af;stroke-width:2"/><path fill="none" d="M1265.6 131.28c-262.65 7.97-871.96 31.08-954.1 75.72-81.66 44.38-135.17 148.04-156.08 195.05" style="stroke:#1a83af;stroke-width:2"/><path fill="#1A83AF" d="m153.38 406.69 7.282-6.631-5.271 2.053-2.054-5.27.043 9.848z" style="stroke:#1a83af;stroke-width:2"/><path fill="none" d="M1505.25 140.68c141.54 15.13 384.16 41.51 592.25 66.32 7.26.87 14.71 1.77 22.24 2.69" style="stroke:#1a83af;stroke-width:2"/><path fill="#1A83AF" d="m2124.95 210.33-8.454-5.053 3.49 4.452-4.451 3.49 9.415-2.889z" style="stroke:#1a83af;stroke-width:2"/><path fill="none" d="M1265.86 130.1c-226.71 5.22-700.76 22.59-750.36 76.9-32.98 36.11 26.92 74.56 74.66 97.67" style="stroke:#1a83af;stroke-width:2"/><path fill="#1A83AF" d="m594.74 306.86-6.387-7.497 1.878 5.336-5.336 1.878 9.845.283z" style="stroke:#1a83af;stroke-width:2"/><path fill="none" d="M1484.24 147.01c88.1 16.96 216.67 41.72 306.32 58.98" style="stroke:#1a83af;stroke-width:2"/><path fill="#1A83AF" d="m1795.6 206.96-8.085-5.624 3.175 4.682-4.683 3.174 9.593-2.232z" style="stroke:#1a83af;stroke-width:2"/><path fill="none" d="M1265.71 131.43c-233.95 7.7-734.35 29.4-797.21 75.57-98.83 72.59-123.37 233.22-129.24 294.55" style="stroke:#1a83af;stroke-width:2"/><path fill="#1A83AF" d="m338.78 506.83 4.805-8.597-4.349 3.618-3.618-4.349 3.162 9.328z" style="stroke:#1a83af;stroke-width:2"/><path fill="none" d="M1505.26 136.55c187.71 13.6 562.63 41.6 880.24 70.45 3.96.36 7.96.73 12 1.1" style="stroke:#1a83af;stroke-width:2"/><path fill="#1A83AF" d="m2402.63 208.59-8.596-4.807 3.617 4.35-4.35 3.616 9.329-3.159z" style="stroke:#1a83af;stroke-width:2"/><path fill="none" d="M1505.03 130.08c238.54 5.22 790.28 22.61 1250.47 76.92 3.98.47 8.04.99 12.13 1.56" style="stroke:#1a83af;stroke-width:2"/><path fill="#1A83AF" d="m2772.84 209.3-8.352-5.22 3.401 4.52-4.52 3.402 9.471-2.702z" style="stroke:#1a83af;stroke-width:2"/><path fill="none" d="M1265.95 127.73c-144.22 2.52-374.17 16.6-428.45 79.27-84.21 97.22 123.88 166.57 252.49 198.77" style="stroke:#1a83af;stroke-width:2"/><path fill="#1A83AF" d="m1094.92 407-7.761-6.063 2.91 4.85-4.85 2.91 9.701-1.697z" style="stroke:#1a83af;stroke-width:2"/><path fill="none" d="M1306.35 147.01c-70.27 16.88-172.65 41.47-244.46 58.72" style="stroke:#1a83af;stroke-width:2"/><path fill="#1A83AF" d="m1056.78 206.96 9.687 1.778-4.826-2.95 2.95-4.827-7.811 5.999z" style="stroke:#1a83af;stroke-width:2"/><path fill="none" d="M1265.94 143.09C1142.92 158.71 945.75 184 775.5 207c-7.24.98-14.7 2-22.22 3.03" style="stroke:#1a83af;stroke-width:2"/><path fill="#1A83AF" d="m748.07 210.75 9.463 2.73-4.51-3.415 3.414-4.51-8.367 5.195z" style="stroke:#1a83af;stroke-width:2"/><path fill="none" d="M1265.75 129.87C1035.52 134.73 549.28 151.5 498.5 207 373.08 344.08 702.85 460.03 858.43 505.46" style="stroke:#1a83af;stroke-width:2"/><path fill="#1A83AF" d="m863.44 506.92-7.537-6.34 2.733 4.953-4.952 2.734 9.756-1.347z" style="stroke:#1a83af;stroke-width:2"/><path fill="none" d="M1432.25 147.01c40.86 16.62 100.1 40.71 142.4 57.91" style="stroke:#1a83af;stroke-width:2"/><path fill="#1A83AF" d="m1579.47 206.87-6.844-7.082 2.209 5.208-5.208 2.209 9.843-.335z" style="stroke:#1a83af;stroke-width:2"/><path fill="none" d="M1370.29 147.36c-12.45 15.84-30.09 38.3-43.34 55.16" style="stroke:#1a83af;stroke-width:2"/><path fill="#1A83AF" d="m1323.68 206.68 8.697-4.622-5.615.685-.685-5.616-2.397 9.553z" style="stroke:#1a83af;stroke-width:2"/><path fill="none" d="M1505.19 134.4c177.76 10.7 494.54 34.85 530.31 72.6 23.63 24.94 19.99 67.55 14.5 94.44" style="stroke:#1a83af;stroke-width:2"/><path fill="#1A83AF" d="m2048.89 306.6 5.813-7.95-4.756 3.063-3.063-4.755 2.006 9.642z" style="stroke:#1a83af;stroke-width:2"/><path fill="none" d="M1505.31 130.55c264.4 6.37 917.6 26.25 1462.19 76.45 3.89.36 7.84.75 11.82 1.16" style="stroke:#1a83af;stroke-width:2"/><path fill="#1A83AF" d="m2984.39 208.69-8.528-4.927 3.556 4.4-4.4 3.556 9.372-3.029z" style="stroke:#1a83af;stroke-width:2"/><path fill="none" d="M1505.18 128.57c402.4 2.49 1684.86 15.35 1745.32 78.43 239.69 250.06-448.37 304.28-791.81 315.9" style="stroke:#1a83af;stroke-width:2"/><path fill="#1A83AF" d="m2453.66 523.07 9.132 3.69-4.135-3.861 3.86-4.135-8.857 4.306z" style="stroke:#1a83af;stroke-width:2"/><path fill="none" d="M1397.63 147.09c9.39 15.58 22.09 38.44 29.87 59.91 11.56 31.87 18.45 70.58 21.99 95.01" style="stroke:#1a83af;stroke-width:2"/><path fill="#1A83AF" d="m1450.19 307 2.698-9.472-3.4 4.521-4.52-3.4 5.222 8.351z" style="stroke:#1a83af;stroke-width:2"/><path fill="none" d="M1312.78 147.15c-39.13 12.69-86.71 32.17-123.28 59.85-34.84 26.37-63.44 69.1-79.07 95.55" style="stroke:#1a83af;stroke-width:2"/><path fill="#1A83AF" d="m1107.85 306.97 7.988-5.762-5.47 1.442-1.442-5.47-1.076 9.79z" style="stroke:#1a83af;stroke-width:2"/><path fill="none" d="M1000.92 247.13c19.82 16.19 48.26 39.41 69.15 56.47" style="stroke:#1a83af;stroke-width:2"/><path fill="#1A83AF" d="m1074.14 306.92-4.447-8.788.572 5.628-5.628.572 9.503 2.588z" style="stroke:#1a83af;stroke-width:2"/><path fill="none" d="M1114.29 347.36c13.74 15.84 33.22 38.3 47.84 55.16" style="stroke:#1a83af;stroke-width:2"/><path fill="#1A83AF" d="m1165.74 406.68-2.878-9.419-.4 5.643-5.642-.4 8.92 4.176z" style="stroke:#1a83af;stroke-width:2"/></svg>