<svg xmlns="http://www.w3.org/2000/svg" xmlns:xlink="http://www.w3.org/1999/xlink" width="4612" height="252" preserveAspectRatio="none" style="width:4612px;height:252px;background:#00000000"><a xlink:actuate="onRequest" xlink:href="#a" xlink:show="new" xlink:title="#kubernetes_storage_class" xlink:type="simple" target="_top"><rect id="a" width="255" height="39.789" x="7" y="107" fill="#3D176E" rx="2.5" ry="2.5" style="stroke:#000d19;stroke-width:1.5"/><circle cx="22" cy="126.894" r="11" fill="#E98DF7" style="stroke:#000d19;stroke-width:1"/><path d="M24.969 132.535q-.578.297-1.219.438-.64.156-1.344.156-2.5 0-3.828-1.64-1.312-1.657-1.312-4.782t1.312-4.781q1.328-1.657 3.828-1.657.703 0 1.344.157.656.156 1.219.453v2.719q-.625-.579-1.219-.844-.594-.281-1.219-.281-1.343 0-2.031 1.078-.688 1.062-.688 3.156 0 2.094.688 3.172.688 1.062 2.031 1.062.625 0 1.219-.265.594-.281 1.219-.86v2.72Z"/><text x="41" y="132.78" fill="#D9B8FF" font-family="Helvetica" font-size="17" textLength="213">kubernetes_storage_class</text></a><a xlink:actuate="onRequest" xlink:href="#b" xlink:show="new" xlink:title="#kubernetes_cluster_role_binding" xlink:type="simple" target="_top"><rect id="b" width="313" height="39.789" x="297" y="107" fill="#3D176E" rx="2.5" ry="2.5" style="stroke:#000d19;stroke-width:1.5"/><circle cx="312" cy="126.894" r="11" fill="#E98DF7" style="stroke:#000d19;stroke-width:1"/><path d="M314.969 132.535q-.578.297-1.219.438-.64.156-1.344.156-2.5 0-3.828-1.64-1.312-1.657-1.312-4.782t1.312-4.781q1.328-1.657 3.828-1.657.703 0 1.344.157.656.156 1.219.453v2.719q-.625-.579-1.219-.844-.594-.281-1.219-.281-1.344 0-2.031 1.078-.688 1.062-.688 3.156 0 2.094.688 3.172.688 1.062 2.031 1.062.625 0 1.219-.265.594-.281 1.219-.86v2.72Z"/><text x="331" y="132.78" fill="#D9B8FF" font-family="Helvetica" font-size="17" textLength="271">kubernetes_cluster_role_binding</text></a><a xlink:actuate="onRequest" xlink:href="#c" xlink:show="new" xlink:title="#kubernetes_ingress_class" xlink:type="simple" target="_top"><rect id="c" width="252" height="39.789" x="645.5" y="107" fill="#3D176E" rx="2.5" ry="2.5" style="stroke:#000d19;stroke-width:1.5"/><circle cx="660.5" cy="126.894" r="11" fill="#E98DF7" style="stroke:#000d19;stroke-width:1"/><path d="M663.469 132.535q-.578.297-1.219.438-.64.156-1.344.156-2.5 0-3.828-1.64-1.312-1.657-1.312-4.782t1.312-4.781q1.328-1.657 3.828-1.657.703 0 1.344.157.656.156 1.219.453v2.719q-.625-.579-1.219-.844-.594-.281-1.219-.281-1.343 0-2.031 1.078-.688 1.062-.688 3.156 0 2.094.688 3.172.688 1.062 2.031 1.062.625 0 1.219-.265.594-.281 1.219-.86v2.72Z"/><text x="679.5" y="132.78" fill="#D9B8FF" font-family="Helvetica" font-size="17" textLength="210">kubernetes_ingress_class</text></a><a xlink:actuate="onRequest" xlink:href="#d" xlink:show="new" xlink:title="#kubernetes_priority_level_configuration" xlink:type="simple" target="_top"><rect id="d" width="375" height="39.789" x="933" y="107" fill="#3D176E" rx="2.5" ry="2.5" style="stroke:#000d19;stroke-width:1.5"/><circle cx="948" cy="126.894" r="11" fill="#E98DF7" style="stroke:#000d19;stroke-width:1"/><path d="M950.969 132.535q-.578.297-1.219.438-.64.156-1.344.156-2.5 0-3.828-1.64-1.312-1.657-1.312-4.782t1.312-4.781q1.328-1.657 3.828-1.657.703 0 1.344.157.656.156 1.219.453v2.719q-.625-.579-1.219-.844-.594-.281-1.219-.281-1.343 0-2.031 1.078-.688 1.062-.688 3.156 0 2.094.688 3.172.688 1.062 2.031 1.062.625 0 1.219-.265.594-.281 1.219-.86v2.72Z"/><text x="967" y="132.78" fill="#D9B8FF" font-family="Helvetica" font-size="17" textLength="333">kubernetes_priority_level_configuration</text></a><a xlink:actuate="onRequest" xlink:href="#e" xlink:show="new" xlink:title="#kubernetes_node" xlink:type="simple" target="_top"><rect id="e" width="186" height="39.789" x="1343.5" y="107" fill="#3D176E" rx="2.5" ry="2.5" style="stroke:#000d19;stroke-width:1.5"/><circle cx="1358.5" cy="126.894" r="11" fill="#E98DF7" style="stroke:#000d19;stroke-width:1"/><path d="M1361.469 132.535q-.578.297-1.219.438-.64.156-1.344.156-2.5 0-3.828-1.64-1.312-1.657-1.312-4.782t1.312-4.781q1.328-1.657 3.828-1.657.703 0 1.344.157.656.156 1.219.453v2.719q-.625-.579-1.219-.844-.594-.281-1.219-.281-1.343 0-2.031 1.078-.688 1.062-.688 3.156 0 2.094.688 3.172.688 1.062 2.031 1.062.625 0 1.219-.265.594-.281 1.219-.86v2.72Z"/><text x="1377.5" y="132.78" fill="#D9B8FF" font-family="Helvetica" font-size="17" textLength="144">kubernetes_node</text></a><a xlink:actuate="onRequest" xlink:href="#f" xlink:show="new" xlink:title="#kubernetes_csi_node" xlink:type="simple" target="_top"><rect id="f" width="216" height="39.789" x="1401.5" y="207" fill="#3D176E" rx="2.5" ry="2.5" style="stroke:#000d19;stroke-width:1.5"/><circle cx="1416.5" cy="226.894" r="11" fill="#E98DF7" style="stroke:#000d19;stroke-width:1"/><path d="M1419.469 232.535q-.578.297-1.219.438-.64.156-1.344.156-2.5 0-3.828-1.64-1.312-1.657-1.312-4.782t1.312-4.781q1.328-1.656 3.828-1.656.703 0 1.344.156.656.156 1.219.453v2.719q-.625-.579-1.219-.844-.594-.281-1.219-.281-1.343 0-2.031 1.078-.688 1.062-.688 3.156 0 2.094.688 3.172.688 1.062 2.031 1.062.625 0 1.219-.265.594-.281 1.219-.86v2.72Z"/><text x="1435.5" y="232.78" fill="#D9B8FF" font-family="Helvetica" font-size="17" textLength="174">kubernetes_csi_node</text></a><a xlink:actuate="onRequest" xlink:href="#g" xlink:show="new" xlink:title="#kubernetes_csi_driver" xlink:type="simple" target="_top"><rect id="g" width="224" height="39.789" x="1635.5" y="107" fill="#3D176E" rx="2.5" ry="2.5" style="stroke:#000d19;stroke-width:1.5"/><circle cx="1650.5" cy="126.894" r="11" fill="#E98DF7" style="stroke:#000d19;stroke-width:1"/><path d="M1653.469 132.535q-.578.297-1.219.438-.64.156-1.344.156-2.5 0-3.828-1.64-1.312-1.657-1.312-4.782t1.312-4.781q1.328-1.657 3.828-1.657.703 0 1.344.157.656.156 1.219.453v2.719q-.625-.579-1.219-.844-.594-.281-1.219-.281-1.343 0-2.031 1.078-.688 1.062-.688 3.156 0 2.094.688 3.172.688 1.062 2.031 1.062.625 0 1.219-.265.594-.281 1.219-.86v2.72Z"/><text x="1669.5" y="132.78" fill="#D9B8FF" font-family="Helvetica" font-size="17" textLength="182">kubernetes_csi_driver</text></a><a xlink:actuate="onRequest" xlink:href="#h" xlink:show="new" xlink:title="#kubernetes_mutating_webhook_configuration" xlink:type="simple" target="_top"><rect id="h" width="428" height="39.789" x="1894.5" y="107" fill="#3D176E" rx="2.5" ry="2.5" style="stroke:#000d19;stroke-width:1.5"/><circle cx="1909.5" cy="126.894" r="11" fill="#E98DF7" style="stroke:#000d19;stroke-width:1"/><path d="M1912.469 132.535q-.578.297-1.219.438-.64.156-1.344.156-2.5 0-3.828-1.64-1.312-1.657-1.312-4.782t1.312-4.781q1.328-1.657 3.828-1.657.703 0 1.344.157.656.156 1.219.453v2.719q-.625-.579-1.219-.844-.594-.281-1.219-.281-1.343 0-2.031 1.078-.688 1.062-.688 3.156 0 2.094.688 3.172.688 1.062 2.031 1.062.625 0 1.219-.265.594-.281 1.219-.86v2.72Z"/><text x="1928.5" y="132.78" fill="#D9B8FF" font-family="Helvetica" font-size="17" textLength="386">kubernetes_mutating_webhook_configuration</text></a><a xlink:actuate="onRequest" xlink:href="#i" xlink:show="new" xlink:title="#kubernetes_persistent_volume" xlink:type="simple" target="_top"><rect id="i" width="300" height="39.789" x="2357.5" y="107" fill="#3D176E" rx="2.5" ry="2.5" style="stroke:#000d19;stroke-width:1.5"/><circle cx="2372.5" cy="126.894" r="11" fill="#E98DF7" style="stroke:#000d19;stroke-width:1"/><path d="M2375.469 132.535q-.578.297-1.219.438-.64.156-1.344.156-2.5 0-3.828-1.64-1.312-1.657-1.312-4.782t1.312-4.781q1.328-1.657 3.828-1.657.703 0 1.344.157.656.156 1.219.453v2.719q-.625-.579-1.219-.844-.594-.281-1.219-.281-1.343 0-2.031 1.078-.688 1.062-.688 3.156 0 2.094.688 3.172.688 1.062 2.031 1.062.625 0 1.219-.265.594-.281 1.219-.86v2.72Z"/><text x="2391.5" y="132.78" fill="#D9B8FF" font-family="Helvetica" font-size="17" textLength="258">kubernetes_persistent_volume</text></a><a xlink:actuate="onRequest" xlink:href="#j" xlink:show="new" xlink:title="#kubernetes_cluster" xlink:type="simple" target="_top"><rect id="j" width="201" height="39.789" x="2008" y="7" fill="#3D176E" rx="2.5" ry="2.5" style="stroke:#000d19;stroke-width:1.5"/><circle cx="2023" cy="26.895" r="11" fill="#E98DF7" style="stroke:#000d19;stroke-width:1"/><path d="M2025.969 32.535q-.578.297-1.219.438-.64.156-1.344.156-2.5 0-3.828-1.64-1.312-1.657-1.312-4.782t1.312-4.781q1.328-1.656 3.828-1.656.703 0 1.344.156.656.156 1.219.453v2.719q-.625-.578-1.219-.844-.594-.281-1.219-.281-1.343 0-2.031 1.078-.688 1.062-.688 3.156 0 2.094.688 3.172.688 1.062 2.031 1.062.625 0 1.219-.265.594-.281 1.219-.86v2.72Z"/><text x="2042" y="32.78" fill="#D9B8FF" font-family="Helvetica" font-size="17" textLength="159">kubernetes_cluster</text></a><a xlink:actuate="onRequest" xlink:href="#k" xlink:show="new" xlink:title="#kubernetes_flow_schema" xlink:type="simple" target="_top"><rect id="k" width="254" height="39.789" x="2692.5" y="107" fill="#3D176E" rx="2.5" ry="2.5" style="stroke:#000d19;stroke-width:1.5"/><circle cx="2707.5" cy="126.894" r="11" fill="#E98DF7" style="stroke:#000d19;stroke-width:1"/><path d="M2710.469 132.535q-.578.297-1.219.438-.64.156-1.344.156-2.5 0-3.828-1.64-1.312-1.657-1.312-4.782t1.312-4.781q1.328-1.657 3.828-1.657.703 0 1.344.157.656.156 1.219.453v2.719q-.625-.579-1.219-.844-.594-.281-1.219-.281-1.343 0-2.031 1.078-.688 1.062-.688 3.156 0 2.094.688 3.172.688 1.062 2.031 1.062.625 0 1.219-.265.594-.281 1.219-.86v2.72Z"/><text x="2726.5" y="132.78" fill="#D9B8FF" font-family="Helvetica" font-size="17" textLength="212">kubernetes_flow_schema</text></a><a xlink:actuate="onRequest" xlink:href="#l" xlink:show="new" xlink:title="#kubernetes_volume_attachment" xlink:type="simple" target="_top"><rect id="l" width="315" height="39.789" x="2982" y="107" fill="#3D176E" rx="2.5" ry="2.5" style="stroke:#000d19;stroke-width:1.5"/><circle cx="2997" cy="126.894" r="11" fill="#E98DF7" style="stroke:#000d19;stroke-width:1"/><path d="M2999.969 132.535q-.578.297-1.219.438-.64.156-1.344.156-2.5 0-3.828-1.64-1.312-1.657-1.312-4.782t1.312-4.781q1.328-1.657 3.828-1.657.703 0 1.344.157.656.156 1.219.453v2.719q-.625-.579-1.219-.844-.594-.281-1.219-.281-1.343 0-2.031 1.078-.688 1.062-.688 3.156 0 2.094.688 3.172.688 1.062 2.031 1.062.625 0 1.219-.265.594-.281 1.219-.86v2.72Z"/><text x="3016" y="132.78" fill="#D9B8FF" font-family="Helvetica" font-size="17" textLength="273">kubernetes_volume_attachment</text></a><a xlink:actuate="onRequest" xlink:href="#m" xlink:show="new" xlink:title="#kubernetes_validating_webhook_configuration" xlink:type="simple" target="_top"><rect id="m" width="433" height="39.789" x="3332" y="107" fill="#3D176E" rx="2.5" ry="2.5" style="stroke:#000d19;stroke-width:1.5"/><circle cx="3347" cy="126.894" r="11" fill="#E98DF7" style="stroke:#000d19;stroke-width:1"/><path d="M3349.969 132.535q-.578.297-1.219.438-.64.156-1.344.156-2.5 0-3.828-1.64-1.312-1.657-1.312-4.782t1.312-4.781q1.328-1.657 3.828-1.657.703 0 1.344.157.656.156 1.219.453v2.719q-.625-.579-1.219-.844-.594-.281-1.219-.281-1.343 0-2.031 1.078-.688 1.062-.688 3.156 0 2.094.688 3.172.688 1.062 2.031 1.062.625 0 1.219-.265.594-.281 1.219-.86v2.72Z"/><text x="3366" y="132.78" fill="#D9B8FF" font-family="Helvetica" font-size="17" textLength="391">kubernetes_validating_webhook_configuration</text></a><a xlink:actuate="onRequest" xlink:href="#n" xlink:show="new" xlink:title="#kubernetes_cluster_role" xlink:type="simple" target="_top"><rect id="n" width="242" height="39.789" x="3799.5" y="107" fill="#3D176E" rx="2.5" ry="2.5" style="stroke:#000d19;stroke-width:1.5"/><circle cx="3814.5" cy="126.894" r="11" fill="#E98DF7" style="stroke:#000d19;stroke-width:1"/><path d="M3817.469 132.535q-.578.297-1.219.438-.64.156-1.344.156-2.5 0-3.828-1.64-1.312-1.657-1.312-4.782t1.312-4.781q1.328-1.657 3.828-1.657.703 0 1.344.157.656.156 1.219.453v2.719q-.625-.579-1.219-.844-.594-.281-1.219-.281-1.343 0-2.031 1.078-.688 1.062-.688 3.156 0 2.094.688 3.172.688 1.062 2.031 1.062.625 0 1.219-.265.594-.281 1.219-.86v2.72Z"/><text x="3833.5" y="132.78" fill="#D9B8FF" font-family="Helvetica" font-size="17" textLength="200">kubernetes_cluster_role</text></a><a xlink:actuate="onRequest" xlink:href="#o" xlink:show="new" xlink:title="#kubernetes_namespace" xlink:type="simple" target="_top"><rect id="o" width="239" height="39.789" x="4077" y="107" fill="#3D176E" rx="2.5" ry="2.5" style="stroke:#000d19;stroke-width:1.5"/><circle cx="4092" cy="126.894" r="11" fill="#E98DF7" style="stroke:#000d19;stroke-width:1"/><path d="M4094.969 132.535q-.578.297-1.219.438-.64.156-1.344.156-2.5 0-3.828-1.64-1.312-1.657-1.312-4.782t1.312-4.781q1.328-1.657 3.828-1.657.703 0 1.344.157.656.156 1.219.453v2.719q-.625-.579-1.219-.844-.594-.281-1.219-.281-1.343 0-2.031 1.078-.688 1.062-.688 3.156 0 2.094.688 3.172.688 1.062 2.031 1.062.625 0 1.219-.265.594-.281 1.219-.86v2.72Z"/><text x="4111" y="132.78" fill="#D9B8FF" font-family="Helvetica" font-size="17" textLength="197">kubernetes_namespace</text></a><a xlink:actuate="onRequest" xlink:href="#p" xlink:show="new" xlink:title="#kubernetes_priority_class" xlink:type="simple" target="_top"><rect id="p" width="254" height="39.789" x="4351.5" y="107" fill="#3D176E" rx="2.5" ry="2.5" style="stroke:#000d19;stroke-width:1.5"/><circle cx="4366.5" cy="126.894" r="11" fill="#E98DF7" style="stroke:#000d19;stroke-width:1"/><path d="M4369.469 132.535q-.578.297-1.219.438-.64.156-1.344.156-2.5 0-3.828-1.64-1.312-1.657-1.312-4.782t1.312-4.781q1.328-1.657 3.828-1.657.703 0 1.344.157.656.156 1.219.453v2.719q-.625-.579-1.219-.844-.594-.281-1.219-.281-1.343 0-2.031 1.078-.688 1.062-.688 3.156 0 2.094.688 3.172.688 1.062 2.031 1.062.625 0 1.219-.265.594-.281 1.219-.86v2.72Z"/><text x="4385.5" y="132.78" fill="#D9B8FF" font-family="Helvetica" font-size="17" textLength="212">kubernetes_priority_class</text></a><path fill="none" d="m1450.92 147.36 41.09 55.16" style="stroke:#1a83af;stroke-width:2"/><path fill="#1A83AF" d="m1495.11 206.68-2.178-9.605-.813 5.598-5.598-.813 8.589 4.82z" style="stroke:#1a83af;stroke-width:2"/><path fill="none" d="M2209.24 41.89c125.28 17.26 339.51 46.79 477.94 65.87" style="stroke:#1a83af;stroke-width:2"/><path fill="#1A83AF" d="m2692.48 108.49-8.365-5.199 3.412 4.512-4.511 3.412 9.464-2.725z" style="stroke:#1a83af;stroke-width:2"/><path fill="none" d="M2209.03 36.75c160 14.04 482.42 42.83 755.47 70.25 3.96.4 7.96.8 12 1.22" style="stroke:#1a83af;stroke-width:2"/><path fill="#1A83AF" d="m2981.63 108.74-8.54-4.905 3.566 4.39-4.39 3.568 9.364-3.053z" style="stroke:#1a83af;stroke-width:2"/><path fill="none" d="M2108.5 47.36v54.3" style="stroke:#1a83af;stroke-width:2"/><path fill="#1A83AF" d="m2108.5 106.68 4-9-4 4-4-4 4 9z" style="stroke:#1a83af;stroke-width:2"/><path fill="none" d="M2038.47 47.01c-62.05 16.85-152.4 41.37-215.92 58.62" style="stroke:#1a83af;stroke-width:2"/><path fill="#1A83AF" d="m1817.65 106.96 9.735 1.496-4.91-2.81 2.809-4.91-7.634 6.224z" style="stroke:#1a83af;stroke-width:2"/><path fill="none" d="M2209.39 34.08C2416.55 46.67 2904.87 76.96 3314.5 107c4 .29 8.04.59 12.11.9" style="stroke:#1a83af;stroke-width:2"/><path fill="#1A83AF" d="m3331.78 108.28-8.678-4.658 3.692 4.287-4.286 3.691 9.272-3.32z" style="stroke:#1a83af;stroke-width:2"/><path fill="none" d="M2007.87 37.98c-162.7 16.14-486.27 48.23-694.47 68.89" style="stroke:#1a83af;stroke-width:2"/><path fill="#1A83AF" d="m1308.19 107.38 9.346 3.106-4.37-3.592 3.592-4.37-8.568 4.856z" style="stroke:#1a83af;stroke-width:2"/><path fill="none" d="M2007.88 31.47C1768.54 40.13 1146.57 65.08 628.5 107c-4.27.35-8.6.71-12.96 1.09" style="stroke:#1a83af;stroke-width:2"/><path fill="#1A83AF" d="m610.4 108.54 9.31 3.214-4.328-3.642 3.642-4.328-8.624 4.756z" style="stroke:#1a83af;stroke-width:2"/><path fill="none" d="M2185.9 47.01c68.72 16.88 168.84 41.47 239.07 58.72" style="stroke:#1a83af;stroke-width:2"/><path fill="#1A83AF" d="m2429.97 106.96-7.79-6.026 2.933 4.837-4.836 2.934 9.693-1.745z" style="stroke:#1a83af;stroke-width:2"/><path fill="none" d="M2007.8 36.4c-123.28 11.62-323.74 35.25-389.3 70.6-41.9 22.59-76.2 67.62-94.53 95.34" style="stroke:#1a83af;stroke-width:2"/><path fill="#1A83AF" d="m1521.17 206.64 8.266-5.355-5.535 1.166-1.167-5.535-1.564 9.724z" style="stroke:#1a83af;stroke-width:2"/><path fill="none" d="M2209.2 29.61c260.58 4.84 978.29 22.5 1573.3 77.39 3.89.36 7.85.75 11.84 1.16" style="stroke:#1a83af;stroke-width:2"/><path fill="#1A83AF" d="m3799.41 108.7-8.527-4.93 3.555 4.401-4.4 3.555 9.372-3.026z" style="stroke:#1a83af;stroke-width:2"/><path fill="none" d="M2007.96 41.93C1897.27 57.38 1714.09 83.25 1556.5 107c-7.12 1.07-14.47 2.2-21.87 3.34" style="stroke:#1a83af;stroke-width:2"/><path fill="#1A83AF" d="m1529.51 111.13 9.502 2.591-4.56-3.348 3.349-4.56-8.291 5.317z" style="stroke:#1a83af;stroke-width:2"/><path fill="none" d="M2007.77 32.45C1802.12 42.04 1319.33 67.03 915.5 107c-4.15.41-8.36.85-12.61 1.31" style="stroke:#1a83af;stroke-width:2"/><path fill="#1A83AF" d="m897.88 108.85 9.381 3-4.41-3.543 3.542-4.41-8.513 4.953z" style="stroke:#1a83af;stroke-width:2"/><path fill="none" d="M2209.24 28.62C2497.96 31.16 3352.97 43.85 4059.5 107c3.95.35 7.96.74 12.01 1.15" style="stroke:#1a83af;stroke-width:2"/><path fill="#1A83AF" d="m4076.66 108.69-8.527-4.93 3.555 4.401-4.4 3.555 9.372-3.026z" style="stroke:#1a83af;stroke-width:2"/><path fill="none" d="M2209.05 28.18C2523.4 29.47 3515.43 39.03 4333.5 107c4.18.35 8.43.73 12.72 1.14" style="stroke:#1a83af;stroke-width:2"/><path fill="#1A83AF" d="m4351.26 108.63-8.57-4.854 3.594 4.37-4.37 3.593 9.346-3.109z" style="stroke:#1a83af;stroke-width:2"/><path fill="none" d="M2007.68 29.27C1731.03 33.43 936.92 49.84 279.5 107c-4 .35-8.06.73-12.16 1.13" style="stroke:#1a83af;stroke-width:2"/><path fill="#1A83AF" d="m262.13 108.65 9.355 3.08-4.38-3.58 3.58-4.38-8.555 4.88z" style="stroke:#1a83af;stroke-width:2"/></svg>