<svg xmlns="http://www.w3.org/2000/svg" xmlns:xlink="http://www.w3.org/1999/xlink" width="642" height="352" preserveAspectRatio="none" style="width:642px;height:352px;background:#00000000"><a xlink:actuate="onRequest" xlink:href="#a" xlink:show="new" xlink:title="#kubernetes_pod" xlink:type="simple" target="_top"><rect id="a" width="175" height="39.789" x="309.41" y="307" fill="#3D176E" rx="2.5" ry="2.5" style="stroke:#000d19;stroke-width:1.5"/><circle cx="324.41" cy="326.894" r="11" fill="#E98DF7" style="stroke:#000d19;stroke-width:1"/><path d="M327.379 332.535q-.578.297-1.219.438-.64.156-1.344.156-2.5 0-3.828-1.64-1.312-1.657-1.312-4.782t1.312-4.781q1.328-1.656 3.828-1.656.703 0 1.344.156.656.156 1.219.453v2.719q-.625-.579-1.219-.844-.594-.281-1.219-.281-1.343 0-2.031 1.078-.688 1.062-.688 3.156 0 2.094.688 3.172.688 1.062 2.031 1.062.625 0 1.219-.265.594-.281 1.219-.86v2.72Z"/><text x="343.41" y="332.78" fill="#D9B8FF" font-family="Helvetica" font-size="17" textLength="133">kubernetes_pod</text></a><a xlink:actuate="onRequest" xlink:href="#b" xlink:show="new" xlink:title="#kubernetes_endpoint_slice" xlink:type="simple" target="_top"><rect id="b" width="264" height="39.789" x="79.91" y="207" fill="#3D176E" rx="2.5" ry="2.5" style="stroke:#000d19;stroke-width:1.5"/><circle cx="94.91" cy="226.894" r="11" fill="#E98DF7" style="stroke:#000d19;stroke-width:1"/><path d="M97.879 232.535q-.578.297-1.219.438-.64.156-1.344.156-2.5 0-3.828-1.64-1.312-1.657-1.312-4.782t1.312-4.781q1.328-1.656 3.828-1.656.703 0 1.344.156.656.156 1.219.453v2.719q-.625-.579-1.219-.844-.594-.281-1.219-.281-1.344 0-2.031 1.078-.688 1.062-.688 3.156 0 2.094.688 3.172.688 1.062 2.031 1.062.625 0 1.219-.265.594-.281 1.219-.86v2.72Z"/><text x="113.91" y="232.78" fill="#D9B8FF" font-family="Helvetica" font-size="17" textLength="222">kubernetes_endpoint_slice</text></a><a xlink:actuate="onRequest" xlink:href="#c" xlink:show="new" xlink:title="#kubernetes_namespace" xlink:type="simple" target="_top"><rect id="c" width="239" height="39.789" x="92.41" y="7" fill="#3D176E" rx="2.5" ry="2.5" style="stroke:#000d19;stroke-width:1.5"/><circle cx="107.41" cy="26.895" r="11" fill="#E98DF7" style="stroke:#000d19;stroke-width:1"/><path d="M110.379 32.535q-.578.297-1.219.438-.64.156-1.344.156-2.5 0-3.828-1.64-1.312-1.657-1.312-4.782t1.312-4.781q1.328-1.656 3.828-1.656.703 0 1.344.156.656.156 1.219.453v2.719q-.625-.578-1.219-.844-.594-.281-1.219-.281-1.344 0-2.031 1.078-.688 1.062-.688 3.156 0 2.094.688 3.172.688 1.062 2.031 1.062.625 0 1.219-.265.594-.281 1.219-.86v2.72Z"/><text x="126.41" y="32.78" fill="#D9B8FF" font-family="Helvetica" font-size="17" textLength="197">kubernetes_namespace</text></a><a xlink:actuate="onRequest" xlink:href="#d" xlink:show="new" xlink:title="#kubernetes_endpoint" xlink:type="simple" target="_top"><rect id="d" width="219" height="39.789" x="276.41" y="107" fill="#3D176E" rx="2.5" ry="2.5" style="stroke:#000d19;stroke-width:1.5"/><circle cx="291.41" cy="126.894" r="11" fill="#E98DF7" style="stroke:#000d19;stroke-width:1"/><path d="M294.379 132.535q-.578.297-1.219.438-.64.156-1.344.156-2.5 0-3.828-1.64-1.312-1.657-1.312-4.782t1.312-4.781q1.328-1.657 3.828-1.657.703 0 1.344.157.656.156 1.219.453v2.719q-.625-.579-1.219-.844-.594-.281-1.219-.281-1.343 0-2.031 1.078-.688 1.062-.688 3.156 0 2.094.688 3.172.688 1.062 2.031 1.062.625 0 1.219-.265.594-.281 1.219-.86v2.72Z"/><text x="310.41" y="132.78" fill="#D9B8FF" font-family="Helvetica" font-size="17" textLength="177">kubernetes_endpoint</text></a><a xlink:actuate="onRequest" xlink:href="#e" xlink:show="new" xlink:title="#kubernetes_node" xlink:type="simple" target="_top"><rect id="e" width="186" height="39.789" x="449.91" y="207" fill="#3D176E" rx="2.5" ry="2.5" style="stroke:#000d19;stroke-width:1.5"/><circle cx="464.91" cy="226.894" r="11" fill="#E98DF7" style="stroke:#000d19;stroke-width:1"/><path d="M467.879 232.535q-.578.297-1.219.438-.64.156-1.344.156-2.5 0-3.828-1.64-1.312-1.657-1.312-4.782t1.312-4.781q1.328-1.656 3.828-1.656.703 0 1.344.156.656.156 1.219.453v2.719q-.625-.579-1.219-.844-.594-.281-1.219-.281-1.343 0-2.031 1.078-.688 1.062-.688 3.156 0 2.094.688 3.172.688 1.062 2.031 1.062.625 0 1.219-.265.594-.281 1.219-.86v2.72Z"/><text x="483.91" y="232.78" fill="#D9B8FF" font-family="Helvetica" font-size="17" textLength="144">kubernetes_node</text></a><path fill="none" d="M211.91 47.35v154.4" style="stroke:#1a83af;stroke-width:2"/><path fill="#1A83AF" d="m211.91 206.87 4-9-4 4-4-4 4 9z" style="stroke:#1a83af;stroke-width:2"/><path fill="none" d="M181.37 47.08C122.96 85.89 6 176.36 61.91 247c29.76 37.59 153.84 59.1 242.3 69.91" style="stroke:#1a83af;stroke-width:2"/><path fill="#1A83AF" d="m309.19 317.51-8.454-5.053 3.49 4.452-4.451 3.49 9.415-2.889z" style="stroke:#1a83af;stroke-width:2"/><path fill="none" d="M245.88 47.13c29.22 16.46 71.35 40.19 101.76 57.31" style="stroke:#1a83af;stroke-width:2"/><path fill="#1A83AF" d="m352.04 106.92-5.875-7.905 1.52 5.449-5.45 1.52 9.805.936z" style="stroke:#1a83af;stroke-width:2"/><path fill="none" d="M351.95 147.13c-29.22 16.46-71.35 40.19-101.76 57.31" style="stroke:#1a83af;stroke-width:2"/><path fill="#1A83AF" d="m245.79 206.92 9.804-.937-5.449-1.52 1.52-5.448-5.875 7.905z" style="stroke:#1a83af;stroke-width:2"/><path fill="none" d="M416.56 147.13c26.26 16.39 64.07 39.99 91.48 57.1" style="stroke:#1a83af;stroke-width:2"/><path fill="#1A83AF" d="m512.35 206.92-5.524-8.154 1.28 5.51-5.51 1.28 9.754 1.364z" style="stroke:#1a83af;stroke-width:2"/><path fill="none" d="M386.99 147.35c2.02 36.32 6.37 114.62 8.58 154.4" style="stroke:#1a83af;stroke-width:2"/><path fill="#1A83AF" d="m395.85 306.87 3.505-9.204-3.777 4.211-4.211-3.776 4.483 8.769z" style="stroke:#1a83af;stroke-width:2"/><path fill="none" d="M514.42 247.13c-24.32 16.32-59.29 39.8-84.76 56.89" style="stroke:#1a83af;stroke-width:2"/><path fill="#1A83AF" d="m425.34 306.92 9.703-1.687-5.55-1.096 1.097-5.55-5.25 8.333z" style="stroke:#1a83af;stroke-width:2"/></svg>