<?xml version="1.0" encoding="UTF-8" standalone="no"?><svg xmlns="http://www.w3.org/2000/svg" xmlns:xlink="http://www.w3.org/1999/xlink" contentScriptType="application/ecmascript" contentStyleType="text/css" height="618px" preserveAspectRatio="none" style="width:389px;height:618px;background:#00000000;" version="1.1" viewBox="0 0 389 618" width="389px" zoomAndPan="magnify"><defs/><g><!--MD5=[7f0ecf5f554433d3f2e1213379ac821c]
class resource--><rect codeLine="17" fill="#3D176E" height="253.0313" id="resource" rx="2.5" ry="2.5" style="stroke:#000D19;stroke-width:1.5;" width="256" x="7" y="7"/><ellipse cx="90.25" cy="26.8945" fill="#E98DF7" rx="11" ry="11" style="stroke:#000D19;stroke-width:1.0;"/><path d="M93.2188,32.5352 Q92.6406,32.832 92,32.9727 Q91.3594,33.1289 90.6563,33.1289 Q88.1563,33.1289 86.8281,31.4883 Q85.5156,29.832 85.5156,26.707 Q85.5156,23.582 86.8281,21.9258 Q88.1563,20.2695 90.6563,20.2695 Q91.3594,20.2695 92,20.4258 Q92.6563,20.582 93.2188,20.8789 L93.2188,23.5977 Q92.5938,23.0195 92,22.7539 Q91.4063,22.4727 90.7813,22.4727 Q89.4375,22.4727 88.75,23.5508 Q88.0625,24.6133 88.0625,26.707 Q88.0625,28.8008 88.75,29.8789 Q89.4375,30.9414 90.7813,30.9414 Q91.4063,30.9414 92,30.6758 Q92.5938,30.3945 93.2188,29.8164 L93.2188,32.5352 Z " fill="#000000"/><text fill="#D9B8FF" font-family="Helvetica" font-size="17" lengthAdjust="spacing" textLength="71" x="115.75" y="32.7798">resource</text><line style="stroke:#000D19;stroke-width:1.5;" x1="8" x2="262" y1="46.7891" y2="46.7891"/><text fill="#D9B8FF" font-family="sans-serif" font-size="11" font-weight="bold" lengthAdjust="spacing" textLength="12" x="18" y="65.9995">id</text><text fill="#D9B8FF" font-family="sans-serif" font-size="11" lengthAdjust="spacing" textLength="41" x="30" y="65.9995">: string</text><text fill="#D9B8FF" font-family="sans-serif" font-size="11" font-weight="bold" lengthAdjust="spacing" textLength="28" x="18" y="88.8042">tags</text><text fill="#D9B8FF" font-family="sans-serif" font-size="11" lengthAdjust="spacing" textLength="145" x="46" y="88.8042">: dictionary[string, string]</text><text fill="#D9B8FF" font-family="sans-serif" font-size="11" font-weight="bold" lengthAdjust="spacing" textLength="35" x="18" y="111.6089">name</text><text fill="#D9B8FF" font-family="sans-serif" font-size="11" lengthAdjust="spacing" textLength="41" x="53" y="111.6089">: string</text><text fill="#D9B8FF" font-family="sans-serif" font-size="11" font-weight="bold" lengthAdjust="spacing" textLength="35" x="18" y="134.4136">ctime</text><text fill="#D9B8FF" font-family="sans-serif" font-size="11" lengthAdjust="spacing" textLength="58" x="53" y="134.4136">: datetime</text><text fill="#D9B8FF" font-family="sans-serif" font-size="11" font-weight="bold" lengthAdjust="spacing" textLength="24" x="18" y="157.2183">age</text><text fill="#D9B8FF" font-family="sans-serif" font-size="11" lengthAdjust="spacing" textLength="159" x="42" y="157.2183">: trafo.duration_to_datetime</text><text fill="#D9B8FF" font-family="sans-serif" font-size="11" font-weight="bold" lengthAdjust="spacing" textLength="39" x="18" y="180.0229">mtime</text><text fill="#D9B8FF" font-family="sans-serif" font-size="11" lengthAdjust="spacing" textLength="58" x="57" y="180.0229">: datetime</text><text fill="#D9B8FF" font-family="sans-serif" font-size="11" font-weight="bold" lengthAdjust="spacing" textLength="75" x="18" y="202.8276">last_update</text><text fill="#D9B8FF" font-family="sans-serif" font-size="11" lengthAdjust="spacing" textLength="159" x="93" y="202.8276">: trafo.duration_to_datetime</text><text fill="#D9B8FF" font-family="sans-serif" font-size="11" font-weight="bold" lengthAdjust="spacing" textLength="36" x="18" y="225.6323">atime</text><text fill="#D9B8FF" font-family="sans-serif" font-size="11" lengthAdjust="spacing" textLength="58" x="54" y="225.6323">: datetime</text><text fill="#D9B8FF" font-family="sans-serif" font-size="11" font-weight="bold" lengthAdjust="spacing" textLength="74" x="18" y="248.437">last_access</text><text fill="#D9B8FF" font-family="sans-serif" font-size="11" lengthAdjust="spacing" textLength="159" x="92" y="248.437">: trafo.duration_to_datetime</text><!--MD5=[c069b88079f3e36515859a1683f3923c]
class aws_resource--><rect codeLine="28" fill="#3D176E" height="70.5938" id="aws_resource" rx="2.5" ry="2.5" style="stroke:#000D19;stroke-width:1.5;" width="155" x="227.5" y="381"/><ellipse cx="242.5" cy="400.8945" fill="#E98DF7" rx="11" ry="11" style="stroke:#000D19;stroke-width:1.0;"/><path d="M245.4688,406.5352 Q244.8906,406.832 244.25,406.9727 Q243.6094,407.1289 242.9063,407.1289 Q240.4063,407.1289 239.0781,405.4883 Q237.7656,403.832 237.7656,400.707 Q237.7656,397.582 239.0781,395.9258 Q240.4063,394.2695 242.9063,394.2695 Q243.6094,394.2695 244.25,394.4258 Q244.9063,394.582 245.4688,394.8789 L245.4688,397.5977 Q244.8438,397.0195 244.25,396.7539 Q243.6563,396.4727 243.0313,396.4727 Q241.6875,396.4727 241,397.5508 Q240.3125,398.6133 240.3125,400.707 Q240.3125,402.8008 241,403.8789 Q241.6875,404.9414 243.0313,404.9414 Q243.6563,404.9414 244.25,404.6758 Q244.8438,404.3945 245.4688,403.8164 L245.4688,406.5352 Z " fill="#000000"/><text fill="#D9B8FF" font-family="Helvetica" font-size="17" lengthAdjust="spacing" textLength="113" x="261.5" y="406.7798">aws_resource</text><line style="stroke:#000D19;stroke-width:1.5;" x1="228.5" x2="381.5" y1="420.7891" y2="420.7891"/><text fill="#D9B8FF" font-family="sans-serif" font-size="11" font-weight="bold" lengthAdjust="spacing" textLength="21" x="238.5" y="439.9995">arn</text><text fill="#D9B8FF" font-family="sans-serif" font-size="11" lengthAdjust="spacing" textLength="41" x="259.5" y="439.9995">: string</text><!--MD5=[ac3459bb810f61169c23e72ed3fa4a86]
class gateway--><rect codeLine="31" fill="#3D176E" height="39.7891" id="gateway" rx="2.5" ry="2.5" style="stroke:#000D19;stroke-width:1.5;" width="114" x="78" y="396.5"/><ellipse cx="93" cy="416.3945" fill="#E98DF7" rx="11" ry="11" style="stroke:#000D19;stroke-width:1.0;"/><path d="M95.9688,422.0352 Q95.3906,422.332 94.75,422.4727 Q94.1094,422.6289 93.4063,422.6289 Q90.9063,422.6289 89.5781,420.9883 Q88.2656,419.332 88.2656,416.207 Q88.2656,413.082 89.5781,411.4258 Q90.9063,409.7695 93.4063,409.7695 Q94.1094,409.7695 94.75,409.9258 Q95.4063,410.082 95.9688,410.3789 L95.9688,413.0977 Q95.3438,412.5195 94.75,412.2539 Q94.1563,411.9727 93.5313,411.9727 Q92.1875,411.9727 91.5,413.0508 Q90.8125,414.1133 90.8125,416.207 Q90.8125,418.3008 91.5,419.3789 Q92.1875,420.4414 93.5313,420.4414 Q94.1563,420.4414 94.75,420.1758 Q95.3438,419.8945 95.9688,419.3164 L95.9688,422.0352 Z " fill="#000000"/><text fill="#D9B8FF" font-family="Helvetica" font-size="17" lengthAdjust="spacing" textLength="72" x="112" y="422.2798">gateway</text><!--MD5=[b389cb7ee512a58725cb799ae896d9ee]
class aws_ec2_internet_gateway--><rect codeLine="34" fill="#3D176E" height="39.7891" id="aws_ec2_internet_gateway" rx="2.5" ry="2.5" style="stroke:#000D19;stroke-width:1.5;" width="271" x="84.5" y="573"/><ellipse cx="99.5" cy="592.8945" fill="#E98DF7" rx="11" ry="11" style="stroke:#000D19;stroke-width:1.0;"/><path d="M102.4688,598.5352 Q101.8906,598.832 101.25,598.9727 Q100.6094,599.1289 99.9063,599.1289 Q97.4063,599.1289 96.0781,597.4883 Q94.7656,595.832 94.7656,592.707 Q94.7656,589.582 96.0781,587.9258 Q97.4063,586.2695 99.9063,586.2695 Q100.6094,586.2695 101.25,586.4258 Q101.9063,586.582 102.4688,586.8789 L102.4688,589.5977 Q101.8438,589.0195 101.25,588.7539 Q100.6563,588.4727 100.0313,588.4727 Q98.6875,588.4727 98,589.5508 Q97.3125,590.6133 97.3125,592.707 Q97.3125,594.8008 98,595.8789 Q98.6875,596.9414 100.0313,596.9414 Q100.6563,596.9414 101.25,596.6758 Q101.8438,596.3945 102.4688,595.8164 L102.4688,598.5352 Z " fill="#000000"/><text fill="#D9B8FF" font-family="Helvetica" font-size="17" lengthAdjust="spacing" textLength="229" x="118.5" y="598.7798">aws_ec2_internet_gateway</text><!--MD5=[7a6ca6b323d3c1a06faf4f592dace119]
reverse link resource to gateway--><path codeLine="37" d="M135,280.32 C135,326.44 135,371.8 135,396.48 " fill="none" id="resource-backto-gateway" style="stroke:#FFAF37;stroke-width:2.0;"/><polygon fill="none" points="128,280.21,135,260.21,142,280.21,128,280.21" style="stroke:#FFAF37;stroke-width:2.0;"/><!--MD5=[f190fc0302c75094f3b79ce7db400ee1]
reverse link aws_resource to aws_ec2_internet_gateway--><path codeLine="38" d="M279.14,470.59 C262.27,505.23 241.23,548.41 229.34,572.82 " fill="none" id="aws_resource-backto-aws_ec2_internet_gateway" style="stroke:#FFAF37;stroke-width:2.0;"/><polygon fill="none" points="272.95,467.31,288,452.39,285.54,473.44,272.95,467.31" style="stroke:#FFAF37;stroke-width:2.0;"/><!--MD5=[7cd21efa5c099bc6c862cd460e7be0ea]
reverse link gateway to aws_ec2_internet_gateway--><path codeLine="39" d="M153.04,454.54 C170.66,490.72 196.79,544.36 210.62,572.75 " fill="none" id="gateway-backto-aws_ec2_internet_gateway" style="stroke:#FFAF37;stroke-width:2.0;"/><polygon fill="none" points="146.72,457.55,144.26,436.51,159.31,451.42,146.72,457.55" style="stroke:#FFAF37;stroke-width:2.0;"/><!--MD5=[49bcd2fa60bc2257e4640cafd0c2108b]
@startuml
hide empty members
skinparam ArrowColor #ffaf37
skinparam ArrowThickness 2
skinparam BackgroundColor transparent
skinparam ClassAttributeFontColor #d9b8ff
skinparam ClassBackgroundColor #3d176e
skinparam ClassBorderColor #000d19
skinparam ClassFontColor #d9b8ff
skinparam ClassFontName Helvetica
skinparam ClassFontSize 17
skinparam Padding 5
skinparam RoundCorner 5
skinparam Shadowing false
skinparam stereotypeCBackgroundColor #e98df7
skinparam stereotypeIBackgroundColor #e98df7

class resource {
**id**: string
**tags**: dictionary[string, string]
**name**: string
**ctime**: datetime
**age**: trafo.duration_to_datetime
**mtime**: datetime
**last_update**: trafo.duration_to_datetime
**atime**: datetime
**last_access**: trafo.duration_to_datetime
}
class aws_resource {
**arn**: string
}
class gateway {

}
class aws_ec2_internet_gateway {

}
resource <|- - - gateway
aws_resource <|- - - aws_ec2_internet_gateway
gateway <|- - - aws_ec2_internet_gateway
@enduml

PlantUML version 1.2021.16(Wed Dec 08 17:25:22 UTC 2021)
(GPL source distribution)
Java Runtime: OpenJDK Runtime Environment
JVM: OpenJDK 64-Bit Server VM
Default Encoding: UTF-8
Language: en
Country: null
--></g></svg>