<?xml version="1.0" encoding="UTF-8" standalone="no"?><svg xmlns="http://www.w3.org/2000/svg" xmlns:xlink="http://www.w3.org/1999/xlink" contentScriptType="application/ecmascript" contentStyleType="text/css" height="1016px" preserveAspectRatio="none" style="width:436px;height:1016px;background:#00000000;" version="1.1" viewBox="0 0 436 1016" width="436px" zoomAndPan="magnify"><defs/><g><!--MD5=[7f0ecf5f554433d3f2e1213379ac821c]
class resource--><a href="#resource" target="_top" title="#resource" xlink:actuate="onRequest" xlink:href="#resource" xlink:show="new" xlink:title="#resource" xlink:type="simple"><rect codeLine="17" fill="#3D176E" height="253.0313" id="resource" rx="2.5" ry="2.5" style="stroke:#000D19;stroke-width:1.5;" width="256" x="7" y="7"/><ellipse cx="90.25" cy="26.8945" fill="#E98DF7" rx="11" ry="11" style="stroke:#000D19;stroke-width:1.0;"/><path d="M93.2188,32.5352 Q92.6406,32.832 92,32.9727 Q91.3594,33.1289 90.6563,33.1289 Q88.1563,33.1289 86.8281,31.4883 Q85.5156,29.832 85.5156,26.707 Q85.5156,23.582 86.8281,21.9258 Q88.1563,20.2695 90.6563,20.2695 Q91.3594,20.2695 92,20.4258 Q92.6563,20.582 93.2188,20.8789 L93.2188,23.5977 Q92.5938,23.0195 92,22.7539 Q91.4063,22.4727 90.7813,22.4727 Q89.4375,22.4727 88.75,23.5508 Q88.0625,24.6133 88.0625,26.707 Q88.0625,28.8008 88.75,29.8789 Q89.4375,30.9414 90.7813,30.9414 Q91.4063,30.9414 92,30.6758 Q92.5938,30.3945 93.2188,29.8164 L93.2188,32.5352 Z " fill="#000000"/><text fill="#D9B8FF" font-family="Helvetica" font-size="17" lengthAdjust="spacing" textLength="71" x="115.75" y="32.7798">resource</text><line style="stroke:#000D19;stroke-width:1.5;" x1="8" x2="262" y1="46.7891" y2="46.7891"/><text fill="#D9B8FF" font-family="sans-serif" font-size="11" font-weight="bold" lengthAdjust="spacing" textLength="12" x="18" y="65.9995">id</text><text fill="#D9B8FF" font-family="sans-serif" font-size="11" lengthAdjust="spacing" textLength="41" x="30" y="65.9995">: string</text><text fill="#D9B8FF" font-family="sans-serif" font-size="11" font-weight="bold" lengthAdjust="spacing" textLength="28" x="18" y="88.8042">tags</text><text fill="#D9B8FF" font-family="sans-serif" font-size="11" lengthAdjust="spacing" textLength="145" x="46" y="88.8042">: dictionary[string, string]</text><text fill="#D9B8FF" font-family="sans-serif" font-size="11" font-weight="bold" lengthAdjust="spacing" textLength="35" x="18" y="111.6089">name</text><text fill="#D9B8FF" font-family="sans-serif" font-size="11" lengthAdjust="spacing" textLength="41" x="53" y="111.6089">: string</text><text fill="#D9B8FF" font-family="sans-serif" font-size="11" font-weight="bold" lengthAdjust="spacing" textLength="35" x="18" y="134.4136">ctime</text><text fill="#D9B8FF" font-family="sans-serif" font-size="11" lengthAdjust="spacing" textLength="58" x="53" y="134.4136">: datetime</text><text fill="#D9B8FF" font-family="sans-serif" font-size="11" font-weight="bold" lengthAdjust="spacing" textLength="24" x="18" y="157.2183">age</text><text fill="#D9B8FF" font-family="sans-serif" font-size="11" lengthAdjust="spacing" textLength="159" x="42" y="157.2183">: trafo.duration_to_datetime</text><text fill="#D9B8FF" font-family="sans-serif" font-size="11" font-weight="bold" lengthAdjust="spacing" textLength="39" x="18" y="180.0229">mtime</text><text fill="#D9B8FF" font-family="sans-serif" font-size="11" lengthAdjust="spacing" textLength="58" x="57" y="180.0229">: datetime</text><text fill="#D9B8FF" font-family="sans-serif" font-size="11" font-weight="bold" lengthAdjust="spacing" textLength="75" x="18" y="202.8276">last_update</text><text fill="#D9B8FF" font-family="sans-serif" font-size="11" lengthAdjust="spacing" textLength="159" x="93" y="202.8276">: trafo.duration_to_datetime</text><text fill="#D9B8FF" font-family="sans-serif" font-size="11" font-weight="bold" lengthAdjust="spacing" textLength="36" x="18" y="225.6323">atime</text><text fill="#D9B8FF" font-family="sans-serif" font-size="11" lengthAdjust="spacing" textLength="58" x="54" y="225.6323">: datetime</text><text fill="#D9B8FF" font-family="sans-serif" font-size="11" font-weight="bold" lengthAdjust="spacing" textLength="74" x="18" y="248.437">last_access</text><text fill="#D9B8FF" font-family="sans-serif" font-size="11" lengthAdjust="spacing" textLength="159" x="92" y="248.437">: trafo.duration_to_datetime</text></a><!--MD5=[c069b88079f3e36515859a1683f3923c]
class aws_resource--><a href="#aws_resource" target="_top" title="#aws_resource" xlink:actuate="onRequest" xlink:href="#aws_resource" xlink:show="new" xlink:title="#aws_resource" xlink:type="simple"><rect codeLine="28" fill="#3D176E" height="70.5938" id="aws_resource" rx="2.5" ry="2.5" style="stroke:#000D19;stroke-width:1.5;" width="155" x="255.5" y="779"/><ellipse cx="270.5" cy="798.8945" fill="#E98DF7" rx="11" ry="11" style="stroke:#000D19;stroke-width:1.0;"/><path d="M273.4688,804.5352 Q272.8906,804.832 272.25,804.9727 Q271.6094,805.1289 270.9063,805.1289 Q268.4063,805.1289 267.0781,803.4883 Q265.7656,801.832 265.7656,798.707 Q265.7656,795.582 267.0781,793.9258 Q268.4063,792.2695 270.9063,792.2695 Q271.6094,792.2695 272.25,792.4258 Q272.9063,792.582 273.4688,792.8789 L273.4688,795.5977 Q272.8438,795.0195 272.25,794.7539 Q271.6563,794.4727 271.0313,794.4727 Q269.6875,794.4727 269,795.5508 Q268.3125,796.6133 268.3125,798.707 Q268.3125,800.8008 269,801.8789 Q269.6875,802.9414 271.0313,802.9414 Q271.6563,802.9414 272.25,802.6758 Q272.8438,802.3945 273.4688,801.8164 L273.4688,804.5352 Z " fill="#000000"/><text fill="#D9B8FF" font-family="Helvetica" font-size="17" lengthAdjust="spacing" textLength="113" x="289.5" y="804.7798">aws_resource</text><line style="stroke:#000D19;stroke-width:1.5;" x1="256.5" x2="409.5" y1="818.7891" y2="818.7891"/><text fill="#D9B8FF" font-family="sans-serif" font-size="11" font-weight="bold" lengthAdjust="spacing" textLength="21" x="266.5" y="837.9995">arn</text><text fill="#D9B8FF" font-family="sans-serif" font-size="11" lengthAdjust="spacing" textLength="41" x="287.5" y="837.9995">: string</text></a><!--MD5=[205bc3e74ea7d385e2b6aa1bb29a5024]
class quota--><a href="#quota" target="_top" title="#quota" xlink:actuate="onRequest" xlink:href="#quota" xlink:show="new" xlink:title="#quota" xlink:type="simple"><rect codeLine="31" fill="#3D176E" height="116.2031" id="quota" rx="2.5" ry="2.5" style="stroke:#000D19;stroke-width:1.5;" width="134" x="68" y="542"/><ellipse cx="102.8" cy="561.8945" fill="#E98DF7" rx="11" ry="11" style="stroke:#000D19;stroke-width:1.0;"/><path d="M105.7688,567.5352 Q105.1906,567.832 104.55,567.9727 Q103.9094,568.1289 103.2063,568.1289 Q100.7063,568.1289 99.3781,566.4883 Q98.0656,564.832 98.0656,561.707 Q98.0656,558.582 99.3781,556.9258 Q100.7063,555.2695 103.2063,555.2695 Q103.9094,555.2695 104.55,555.4258 Q105.2063,555.582 105.7688,555.8789 L105.7688,558.5977 Q105.1438,558.0195 104.55,557.7539 Q103.9563,557.4727 103.3313,557.4727 Q101.9875,557.4727 101.3,558.5508 Q100.6125,559.6133 100.6125,561.707 Q100.6125,563.8008 101.3,564.8789 Q101.9875,565.9414 103.3313,565.9414 Q103.9563,565.9414 104.55,565.6758 Q105.1438,565.3945 105.7688,564.8164 L105.7688,567.5352 Z " fill="#000000"/><text fill="#D9B8FF" font-family="Helvetica" font-size="17" lengthAdjust="spacing" textLength="48" x="126.2" y="567.7798">quota</text><line style="stroke:#000D19;stroke-width:1.5;" x1="69" x2="201" y1="581.7891" y2="581.7891"/><text fill="#D9B8FF" font-family="sans-serif" font-size="11" font-weight="bold" lengthAdjust="spacing" textLength="37" x="79" y="600.9995">quota</text><text fill="#D9B8FF" font-family="sans-serif" font-size="11" lengthAdjust="spacing" textLength="46" x="116" y="600.9995">: double</text><text fill="#D9B8FF" font-family="sans-serif" font-size="11" font-weight="bold" lengthAdjust="spacing" textLength="39" x="79" y="623.8042">usage</text><text fill="#D9B8FF" font-family="sans-serif" font-size="11" lengthAdjust="spacing" textLength="46" x="118" y="623.8042">: double</text><text fill="#D9B8FF" font-family="sans-serif" font-size="11" font-weight="bold" lengthAdjust="spacing" textLength="71" x="79" y="646.6089">quota_type</text><text fill="#D9B8FF" font-family="sans-serif" font-size="11" lengthAdjust="spacing" textLength="41" x="150" y="646.6089">: string</text></a><!--MD5=[156df1ec125634b672185ad659f2920c]
class phantom_resource--><a href="#phantom_resource" target="_top" title="#phantom_resource" xlink:actuate="onRequest" xlink:href="#phantom_resource" xlink:show="new" xlink:title="#phantom_resource" xlink:type="simple"><rect codeLine="36" fill="#3D176E" height="39.7891" id="phantom_resource" rx="2.5" ry="2.5" style="stroke:#000D19;stroke-width:1.5;" width="198" x="36" y="381"/><ellipse cx="51" cy="400.8945" fill="#E98DF7" rx="11" ry="11" style="stroke:#000D19;stroke-width:1.0;"/><path d="M53.9688,406.5352 Q53.3906,406.832 52.75,406.9727 Q52.1094,407.1289 51.4063,407.1289 Q48.9063,407.1289 47.5781,405.4883 Q46.2656,403.832 46.2656,400.707 Q46.2656,397.582 47.5781,395.9258 Q48.9063,394.2695 51.4063,394.2695 Q52.1094,394.2695 52.75,394.4258 Q53.4063,394.582 53.9688,394.8789 L53.9688,397.5977 Q53.3438,397.0195 52.75,396.7539 Q52.1563,396.4727 51.5313,396.4727 Q50.1875,396.4727 49.5,397.5508 Q48.8125,398.6133 48.8125,400.707 Q48.8125,402.8008 49.5,403.8789 Q50.1875,404.9414 51.5313,404.9414 Q52.1563,404.9414 52.75,404.6758 Q53.3438,404.3945 53.9688,403.8164 L53.9688,406.5352 Z " fill="#000000"/><text fill="#D9B8FF" font-family="Helvetica" font-size="17" lengthAdjust="spacing" textLength="156" x="70" y="406.7798">phantom_resource</text></a><!--MD5=[3107a7fb4084887497fde5fae5a9255c]
class gateway_quota--><a href="#gateway_quota" target="_top" title="#gateway_quota" xlink:actuate="onRequest" xlink:href="#gateway_quota" xlink:show="new" xlink:title="#gateway_quota" xlink:type="simple"><rect codeLine="39" fill="#3D176E" height="39.7891" id="gateway_quota" rx="2.5" ry="2.5" style="stroke:#000D19;stroke-width:1.5;" width="171" x="49.5" y="794.5"/><ellipse cx="64.5" cy="814.3945" fill="#E98DF7" rx="11" ry="11" style="stroke:#000D19;stroke-width:1.0;"/><path d="M67.4688,820.0352 Q66.8906,820.332 66.25,820.4727 Q65.6094,820.6289 64.9063,820.6289 Q62.4063,820.6289 61.0781,818.9883 Q59.7656,817.332 59.7656,814.207 Q59.7656,811.082 61.0781,809.4258 Q62.4063,807.7695 64.9063,807.7695 Q65.6094,807.7695 66.25,807.9258 Q66.9063,808.082 67.4688,808.3789 L67.4688,811.0977 Q66.8438,810.5195 66.25,810.2539 Q65.6563,809.9727 65.0313,809.9727 Q63.6875,809.9727 63,811.0508 Q62.3125,812.1133 62.3125,814.207 Q62.3125,816.3008 63,817.3789 Q63.6875,818.4414 65.0313,818.4414 Q65.6563,818.4414 66.25,818.1758 Q66.8438,817.8945 67.4688,817.3164 L67.4688,820.0352 Z " fill="#000000"/><text fill="#D9B8FF" font-family="Helvetica" font-size="17" lengthAdjust="spacing" textLength="129" x="83.5" y="820.2798">gateway_quota</text></a><!--MD5=[a48046ba9f2fe7bcd9d7d922a5b7e24b]
class aws_ec2_internet_gateway_quota--><a href="#aws_ec2_internet_gateway_quota" target="_top" title="#aws_ec2_internet_gateway_quota" xlink:actuate="onRequest" xlink:href="#aws_ec2_internet_gateway_quota" xlink:show="new" xlink:title="#aws_ec2_internet_gateway_quota" xlink:type="simple"><rect codeLine="42" fill="#3D176E" height="39.7891" id="aws_ec2_internet_gateway_quota" rx="2.5" ry="2.5" style="stroke:#000D19;stroke-width:1.5;" width="328" x="101" y="971"/><ellipse cx="116" cy="990.8945" fill="#E98DF7" rx="11" ry="11" style="stroke:#000D19;stroke-width:1.0;"/><path d="M118.9688,996.5352 Q118.3906,996.832 117.75,996.9727 Q117.1094,997.1289 116.4063,997.1289 Q113.9063,997.1289 112.5781,995.4883 Q111.2656,993.832 111.2656,990.707 Q111.2656,987.582 112.5781,985.9258 Q113.9063,984.2695 116.4063,984.2695 Q117.1094,984.2695 117.75,984.4258 Q118.4063,984.582 118.9688,984.8789 L118.9688,987.5977 Q118.3438,987.0195 117.75,986.7539 Q117.1563,986.4727 116.5313,986.4727 Q115.1875,986.4727 114.5,987.5508 Q113.8125,988.6133 113.8125,990.707 Q113.8125,992.8008 114.5,993.8789 Q115.1875,994.9414 116.5313,994.9414 Q117.1563,994.9414 117.75,994.6758 Q118.3438,994.3945 118.9688,993.8164 L118.9688,996.5352 Z " fill="#000000"/><text fill="#D9B8FF" font-family="Helvetica" font-size="17" lengthAdjust="spacing" textLength="286" x="135" y="996.7798">aws_ec2_internet_gateway_quota</text></a><!--MD5=[8c556d10106c40540c768b31155cb09d]
reverse link phantom_resource to quota--><path codeLine="45" d="M135,441.28 C135,470.07 135,509.58 135,541.86 " fill="none" id="phantom_resource-backto-quota" style="stroke:#FFAF37;stroke-width:2.0;"/><polygon fill="none" points="128,441.25,135,421.25,142,441.25,128,441.25" style="stroke:#FFAF37;stroke-width:2.0;"/><!--MD5=[e134558fd6f7e839ecb28ecbda576c0a]
reverse link resource to phantom_resource--><path codeLine="46" d="M135,280.32 C135,320.42 135,358.91 135,380.97 " fill="none" id="resource-backto-phantom_resource" style="stroke:#FFAF37;stroke-width:2.0;"/><polygon fill="none" points="128,280.25,135,260.25,142,280.25,128,280.25" style="stroke:#FFAF37;stroke-width:2.0;"/><!--MD5=[e41fd0073bf4cfe315587136da3212b3]
reverse link quota to gateway_quota--><path codeLine="47" d="M135,678.37 C135,720.08 135,768.22 135,794.3 " fill="none" id="quota-backto-gateway_quota" style="stroke:#FFAF37;stroke-width:2.0;"/><polygon fill="none" points="128,678.23,135,658.23,142,678.23,128,678.23" style="stroke:#FFAF37;stroke-width:2.0;"/><!--MD5=[0fdb2eb05eb2bda254465a3a05e902f9]
reverse link aws_resource to aws_ec2_internet_gateway_quota--><path codeLine="48" d="M312.12,869.07 C298.66,903.63 281.94,946.52 272.47,970.82 " fill="none" id="aws_resource-backto-aws_ec2_internet_gateway_quota" style="stroke:#FFAF37;stroke-width:2.0;"/><polygon fill="none" points="305.62,866.49,319.4,850.39,318.66,871.57,305.62,866.49" style="stroke:#FFAF37;stroke-width:2.0;"/><!--MD5=[a3c4e220864bcd6da8fe68e71bfc5d54]
reverse link gateway_quota to aws_ec2_internet_gateway_quota--><path codeLine="49" d="M161.11,850.55 C188.06,886.72 229.12,941.83 250.66,970.75 " fill="none" id="gateway_quota-backto-aws_ec2_internet_gateway_quota" style="stroke:#FFAF37;stroke-width:2.0;"/><polygon fill="none" points="155.49,854.73,149.16,834.51,166.72,846.36,155.49,854.73" style="stroke:#FFAF37;stroke-width:2.0;"/><!--MD5=[3fa95add9492e99b633f31c729c5f843]
@startuml
hide empty members
skinparam ArrowColor #ffaf37
skinparam ArrowThickness 2
skinparam BackgroundColor transparent
skinparam ClassAttributeFontColor #d9b8ff
skinparam ClassBackgroundColor #3d176e
skinparam ClassBorderColor #000d19
skinparam ClassFontColor #d9b8ff
skinparam ClassFontName Helvetica
skinparam ClassFontSize 17
skinparam Padding 5
skinparam RoundCorner 5
skinparam Shadowing false
skinparam stereotypeCBackgroundColor #e98df7
skinparam stereotypeIBackgroundColor #e98df7

class resource [[#resource]] {
**id**: string
**tags**: dictionary[string, string]
**name**: string
**ctime**: datetime
**age**: trafo.duration_to_datetime
**mtime**: datetime
**last_update**: trafo.duration_to_datetime
**atime**: datetime
**last_access**: trafo.duration_to_datetime
}
class aws_resource [[#aws_resource]] {
**arn**: string
}
class quota [[#quota]] {
**quota**: double
**usage**: double
**quota_type**: string
}
class phantom_resource [[#phantom_resource]] {

}
class gateway_quota [[#gateway_quota]] {

}
class aws_ec2_internet_gateway_quota [[#aws_ec2_internet_gateway_quota]] {

}
phantom_resource <|- - - quota
resource <|- - - phantom_resource
quota <|- - - gateway_quota
aws_resource <|- - - aws_ec2_internet_gateway_quota
gateway_quota <|- - - aws_ec2_internet_gateway_quota
@enduml

PlantUML version 1.2021.16(Wed Dec 08 17:25:22 UTC 2021)
(GPL source distribution)
Java Runtime: OpenJDK Runtime Environment
JVM: OpenJDK 64-Bit Server VM
Default Encoding: UTF-8
Language: en
Country: null
--></g></svg>