<svg xmlns="http://www.w3.org/2000/svg" xmlns:xlink="http://www.w3.org/1999/xlink" width="276" height="252" contentScriptType="application/ecmascript" contentStyleType="text/css" style="width:276px;height:252px;background:#00000000" preserveAspectRatio="none" version="1.1" viewBox="0 0 276 252" zoomAndPan="magnify"><g><a href="#aws_ec2_instance" target="_top" title="#aws_ec2_instance" xlink:actuate="onRequest" xlink:href="#aws_ec2_instance" xlink:show="new" xlink:title="#aws_ec2_instance" xlink:type="simple"><rect id="aws_ec2_instance" width="192" height="39.789" x="7" y="107" fill="#3D176E" codeLine="17" rx="2.5" ry="2.5" style="stroke:#000d19;stroke-width:1.5"/><ellipse cx="22" cy="126.894" fill="#E98DF7" rx="11" ry="11" style="stroke:#000d19;stroke-width:1"/><path fill="#000" d="M24.9688,132.5352 Q24.3906,132.832 23.75,132.9727 Q23.1094,133.1289 22.4063,133.1289 Q19.9063,133.1289 18.5781,131.4883 Q17.2656,129.832 17.2656,126.707 Q17.2656,123.582 18.5781,121.9258 Q19.9063,120.2695 22.4063,120.2695 Q23.1094,120.2695 23.75,120.4258 Q24.4063,120.582 24.9688,120.8789 L24.9688,123.5977 Q24.3438,123.0195 23.75,122.7539 Q23.1563,122.4727 22.5313,122.4727 Q21.1875,122.4727 20.5,123.5508 Q19.8125,124.6133 19.8125,126.707 Q19.8125,128.8008 20.5,129.8789 Q21.1875,130.9414 22.5313,130.9414 Q23.1563,130.9414 23.75,130.6758 Q24.3438,130.3945 24.9688,129.8164 L24.9688,132.5352 Z"/><text x="41" y="132.78" fill="#D9B8FF" font-family="Helvetica" font-size="17" lengthAdjust="spacing" textLength="150">aws_ec2_instance</text></a><a href="#aws_ec2_keypair" target="_top" title="#aws_ec2_keypair" xlink:actuate="onRequest" xlink:href="#aws_ec2_keypair" xlink:show="new" xlink:title="#aws_ec2_keypair" xlink:type="simple"><rect id="aws_ec2_keypair" width="184" height="39.789" x="85" y="207" fill="#3D176E" codeLine="20" rx="2.5" ry="2.5" style="stroke:#000d19;stroke-width:1.5"/><ellipse cx="100" cy="226.894" fill="#E98DF7" rx="11" ry="11" style="stroke:#000d19;stroke-width:1"/><path fill="#000" d="M102.9688,232.5352 Q102.3906,232.832 101.75,232.9727 Q101.1094,233.1289 100.4063,233.1289 Q97.9063,233.1289 96.5781,231.4883 Q95.2656,229.832 95.2656,226.707 Q95.2656,223.582 96.5781,221.9258 Q97.9063,220.2695 100.4063,220.2695 Q101.1094,220.2695 101.75,220.4258 Q102.4063,220.582 102.9688,220.8789 L102.9688,223.5977 Q102.3438,223.0195 101.75,222.7539 Q101.1563,222.4727 100.5313,222.4727 Q99.1875,222.4727 98.5,223.5508 Q97.8125,224.6133 97.8125,226.707 Q97.8125,228.8008 98.5,229.8789 Q99.1875,230.9414 100.5313,230.9414 Q101.1563,230.9414 101.75,230.6758 Q102.3438,230.3945 102.9688,229.8164 L102.9688,232.5352 Z"/><text x="119" y="232.78" fill="#D9B8FF" font-family="Helvetica" font-size="17" lengthAdjust="spacing" textLength="142">aws_ec2_keypair</text></a><a href="#aws_region" target="_top" title="#aws_region" xlink:actuate="onRequest" xlink:href="#aws_region" xlink:show="new" xlink:title="#aws_region" xlink:type="simple"><rect id="aws_region" width="137" height="39.789" x="108.5" y="7" fill="#3D176E" codeLine="23" rx="2.5" ry="2.5" style="stroke:#000d19;stroke-width:1.5"/><ellipse cx="123.5" cy="26.895" fill="#E98DF7" rx="11" ry="11" style="stroke:#000d19;stroke-width:1"/><path fill="#000" d="M126.4688,32.5352 Q125.8906,32.832 125.25,32.9727 Q124.6094,33.1289 123.9063,33.1289 Q121.4063,33.1289 120.0781,31.4883 Q118.7656,29.832 118.7656,26.707 Q118.7656,23.582 120.0781,21.9258 Q121.4063,20.2695 123.9063,20.2695 Q124.6094,20.2695 125.25,20.4258 Q125.9063,20.582 126.4688,20.8789 L126.4688,23.5977 Q125.8438,23.0195 125.25,22.7539 Q124.6563,22.4727 124.0313,22.4727 Q122.6875,22.4727 122,23.5508 Q121.3125,24.6133 121.3125,26.707 Q121.3125,28.8008 122,29.8789 Q122.6875,30.9414 124.0313,30.9414 Q124.6563,30.9414 125.25,30.6758 Q125.8438,30.3945 126.4688,29.8164 L126.4688,32.5352 Z"/><text x="142.5" y="32.78" fill="#D9B8FF" font-family="Helvetica" font-size="17" lengthAdjust="spacing" textLength="95">aws_region</text></a><path id="aws_ec2_instance-to-aws_ec2_keypair" fill="none" d="M117.62,147.36 C129.58,163.2 146.54,185.66 159.27,202.52" codeLine="26" style="stroke:#1a83af;stroke-width:2"/><polygon fill="#1A83AF" points="162.41 206.68 160.172 197.089 159.394 202.692 153.791 201.915 162.41 206.68" style="stroke:#1a83af;stroke-width:2"/><path id="aws_region-to-aws_ec2_keypair" fill="none" d="M189.92,47.13 C199.51,62.54 211.79,85.17 217,107 C221.13,124.29 221.13,129.71 217,147 C212.28,166.78 201.75,187.22 192.68,202.35" codeLine="27" style="stroke:#1a83af;stroke-width:2"/><polygon fill="#1A83AF" points="189.92 206.87 198.016 201.262 192.52 202.599 191.183 197.102 189.92 206.87" style="stroke:#1a83af;stroke-width:2"/><path id="aws_region-to-aws_ec2_instance" fill="none" d="M162.38,47.36 C150.42,63.2 133.46,85.66 120.73,102.52" codeLine="28" style="stroke:#1a83af;stroke-width:2"/><polygon fill="#1A83AF" points="117.59 106.68 126.209 101.915 120.606 102.692 119.828 97.089 117.59 106.68" style="stroke:#1a83af;stroke-width:2"/></g></svg>