<?xml version="1.0" encoding="UTF-8" standalone="no"?><svg xmlns="http://www.w3.org/2000/svg" xmlns:xlink="http://www.w3.org/1999/xlink" contentScriptType="application/ecmascript" contentStyleType="text/css" height="850px" preserveAspectRatio="none" style="width:385px;height:850px;background:#00000000;" version="1.1" viewBox="0 0 385 850" width="385px" zoomAndPan="magnify"><defs/><g><!--MD5=[c069b88079f3e36515859a1683f3923c]
class aws_resource--><a href="#aws_resource" target="_top" title="#aws_resource" xlink:actuate="onRequest" xlink:href="#aws_resource" xlink:show="new" xlink:title="#aws_resource" xlink:type="simple"><rect codeLine="23" fill="#3D176E" height="70.5938" id="aws_resource" rx="2.5" ry="2.5" style="stroke:#000D19;stroke-width:1.5;" width="155" x="7" y="404"/><ellipse cx="22" cy="423.8945" fill="#E98DF7" rx="11" ry="11" style="stroke:#000D19;stroke-width:1.0;"/><path d="M24.9688,429.5352 Q24.3906,429.832 23.75,429.9727 Q23.1094,430.1289 22.4063,430.1289 Q19.9063,430.1289 18.5781,428.4883 Q17.2656,426.832 17.2656,423.707 Q17.2656,420.582 18.5781,418.9258 Q19.9063,417.2695 22.4063,417.2695 Q23.1094,417.2695 23.75,417.4258 Q24.4063,417.582 24.9688,417.8789 L24.9688,420.5977 Q24.3438,420.0195 23.75,419.7539 Q23.1563,419.4727 22.5313,419.4727 Q21.1875,419.4727 20.5,420.5508 Q19.8125,421.6133 19.8125,423.707 Q19.8125,425.8008 20.5,426.8789 Q21.1875,427.9414 22.5313,427.9414 Q23.1563,427.9414 23.75,427.6758 Q24.3438,427.3945 24.9688,426.8164 L24.9688,429.5352 Z " fill="#000000"/><text fill="#D9B8FF" font-family="Helvetica" font-size="17" lengthAdjust="spacing" textLength="113" x="41" y="429.7798">aws_resource</text><line style="stroke:#000D19;stroke-width:1.5;" x1="8" x2="161" y1="443.7891" y2="443.7891"/><text fill="#D9B8FF" font-family="sans-serif" font-size="11" font-weight="bold" lengthAdjust="spacing" textLength="21" x="18" y="462.9995">arn</text><text fill="#D9B8FF" font-family="sans-serif" font-size="11" lengthAdjust="spacing" textLength="41" x="39" y="462.9995">: string</text></a><!--MD5=[7f0ecf5f554433d3f2e1213379ac821c]
class resource--><a href="#resource" target="_top" title="#resource" xlink:actuate="onRequest" xlink:href="#resource" xlink:show="new" xlink:title="#resource" xlink:type="simple"><rect codeLine="26" fill="#3D176E" height="275.8359" id="resource" rx="2.5" ry="2.5" style="stroke:#000D19;stroke-width:1.5;" width="195" x="88" y="7"/><ellipse cx="140.75" cy="26.8945" fill="#E98DF7" rx="11" ry="11" style="stroke:#000D19;stroke-width:1.0;"/><path d="M143.7188,32.5352 Q143.1406,32.832 142.5,32.9727 Q141.8594,33.1289 141.1563,33.1289 Q138.6563,33.1289 137.3281,31.4883 Q136.0156,29.832 136.0156,26.707 Q136.0156,23.582 137.3281,21.9258 Q138.6563,20.2695 141.1563,20.2695 Q141.8594,20.2695 142.5,20.4258 Q143.1563,20.582 143.7188,20.8789 L143.7188,23.5977 Q143.0938,23.0195 142.5,22.7539 Q141.9063,22.4727 141.2813,22.4727 Q139.9375,22.4727 139.25,23.5508 Q138.5625,24.6133 138.5625,26.707 Q138.5625,28.8008 139.25,29.8789 Q139.9375,30.9414 141.2813,30.9414 Q141.9063,30.9414 142.5,30.6758 Q143.0938,30.3945 143.7188,29.8164 L143.7188,32.5352 Z " fill="#000000"/><text fill="#D9B8FF" font-family="Helvetica" font-size="17" lengthAdjust="spacing" textLength="71" x="166.25" y="32.7798">resource</text><line style="stroke:#000D19;stroke-width:1.5;" x1="89" x2="282" y1="46.7891" y2="46.7891"/><text fill="#D9B8FF" font-family="sans-serif" font-size="11" font-weight="bold" lengthAdjust="spacing" textLength="12" x="99" y="65.9995">id</text><text fill="#D9B8FF" font-family="sans-serif" font-size="11" lengthAdjust="spacing" textLength="41" x="111" y="65.9995">: string</text><text fill="#D9B8FF" font-family="sans-serif" font-size="11" font-weight="bold" lengthAdjust="spacing" textLength="28" x="99" y="88.8042">tags</text><text fill="#D9B8FF" font-family="sans-serif" font-size="11" lengthAdjust="spacing" textLength="145" x="127" y="88.8042">: dictionary[string, string]</text><text fill="#D9B8FF" font-family="sans-serif" font-size="11" font-weight="bold" lengthAdjust="spacing" textLength="35" x="99" y="111.6089">name</text><text fill="#D9B8FF" font-family="sans-serif" font-size="11" lengthAdjust="spacing" textLength="41" x="134" y="111.6089">: string</text><text fill="#D9B8FF" font-family="sans-serif" font-size="11" font-weight="bold" lengthAdjust="spacing" textLength="35" x="99" y="134.4136">ctime</text><text fill="#D9B8FF" font-family="sans-serif" font-size="11" lengthAdjust="spacing" textLength="58" x="134" y="134.4136">: datetime</text><text fill="#D9B8FF" font-family="sans-serif" font-size="11" font-weight="bold" lengthAdjust="spacing" textLength="24" x="99" y="157.2183">age</text><text fill="#D9B8FF" font-family="sans-serif" font-size="11" lengthAdjust="spacing" textLength="55" x="123" y="157.2183">: duration</text><text fill="#D9B8FF" font-family="sans-serif" font-size="11" font-weight="bold" lengthAdjust="spacing" textLength="39" x="99" y="180.0229">mtime</text><text fill="#D9B8FF" font-family="sans-serif" font-size="11" lengthAdjust="spacing" textLength="58" x="138" y="180.0229">: datetime</text><text fill="#D9B8FF" font-family="sans-serif" font-size="11" font-weight="bold" lengthAdjust="spacing" textLength="75" x="99" y="202.8276">last_update</text><text fill="#D9B8FF" font-family="sans-serif" font-size="11" lengthAdjust="spacing" textLength="55" x="174" y="202.8276">: duration</text><text fill="#D9B8FF" font-family="sans-serif" font-size="11" font-weight="bold" lengthAdjust="spacing" textLength="36" x="99" y="225.6323">atime</text><text fill="#D9B8FF" font-family="sans-serif" font-size="11" lengthAdjust="spacing" textLength="58" x="135" y="225.6323">: datetime</text><text fill="#D9B8FF" font-family="sans-serif" font-size="11" font-weight="bold" lengthAdjust="spacing" textLength="74" x="99" y="248.437">last_access</text><text fill="#D9B8FF" font-family="sans-serif" font-size="11" lengthAdjust="spacing" textLength="55" x="173" y="248.437">: duration</text><text fill="#D9B8FF" font-family="sans-serif" font-size="11" font-weight="bold" lengthAdjust="spacing" textLength="27" x="99" y="271.2417">kind</text><text fill="#D9B8FF" font-family="sans-serif" font-size="11" lengthAdjust="spacing" textLength="41" x="126" y="271.2417">: string</text></a><!--MD5=[65cedb31e1443b9ee83a1505d59de4ad]
class access_key--><a href="#access_key" target="_top" title="#access_key" xlink:actuate="onRequest" xlink:href="#access_key" xlink:show="new" xlink:title="#access_key" xlink:type="simple"><rect codeLine="38" fill="#3D176E" height="70.5938" id="access_key" rx="2.5" ry="2.5" style="stroke:#000D19;stroke-width:1.5;" width="181" x="197" y="404"/><ellipse cx="233.6" cy="423.8945" fill="#E98DF7" rx="11" ry="11" style="stroke:#000D19;stroke-width:1.0;"/><path d="M236.5688,429.5352 Q235.9906,429.832 235.35,429.9727 Q234.7094,430.1289 234.0063,430.1289 Q231.5063,430.1289 230.1781,428.4883 Q228.8656,426.832 228.8656,423.707 Q228.8656,420.582 230.1781,418.9258 Q231.5063,417.2695 234.0063,417.2695 Q234.7094,417.2695 235.35,417.4258 Q236.0063,417.582 236.5688,417.8789 L236.5688,420.5977 Q235.9438,420.0195 235.35,419.7539 Q234.7563,419.4727 234.1313,419.4727 Q232.7875,419.4727 232.1,420.5508 Q231.4125,421.6133 231.4125,423.707 Q231.4125,425.8008 232.1,426.8789 Q232.7875,427.9414 234.1313,427.9414 Q234.7563,427.9414 235.35,427.6758 Q235.9438,427.3945 236.5688,426.8164 L236.5688,429.5352 Z " fill="#000000"/><text fill="#D9B8FF" font-family="Helvetica" font-size="17" lengthAdjust="spacing" textLength="91" x="257.4" y="429.7798">access_key</text><line style="stroke:#000D19;stroke-width:1.5;" x1="198" x2="377" y1="443.7891" y2="443.7891"/><text fill="#D9B8FF" font-family="sans-serif" font-size="11" font-weight="bold" lengthAdjust="spacing" textLength="118" x="208" y="462.9995">access_key_status</text><text fill="#D9B8FF" font-family="sans-serif" font-size="11" lengthAdjust="spacing" textLength="41" x="326" y="462.9995">: string</text></a><!--MD5=[c98d2da64550afd52c93b762bfc64fcd]
class aws_iam_access_key_last_used--><a href="#aws_iam_access_key_last_used" target="_top" title="#aws_iam_access_key_last_used" xlink:actuate="onRequest" xlink:href="#aws_iam_access_key_last_used" xlink:show="new" xlink:title="#aws_iam_access_key_last_used" xlink:type="simple"><rect codeLine="41" fill="#3D176E" height="116.2031" id="aws_iam_access_key_last_used" rx="2.5" ry="2.5" style="stroke:#000D19;stroke-width:1.5;" width="303" x="34" y="727"/><ellipse cx="49" cy="746.8945" fill="#E98DF7" rx="11" ry="11" style="stroke:#000D19;stroke-width:1.0;"/><path d="M51.9688,752.5352 Q51.3906,752.832 50.75,752.9727 Q50.1094,753.1289 49.4063,753.1289 Q46.9063,753.1289 45.5781,751.4883 Q44.2656,749.832 44.2656,746.707 Q44.2656,743.582 45.5781,741.9258 Q46.9063,740.2695 49.4063,740.2695 Q50.1094,740.2695 50.75,740.4258 Q51.4063,740.582 51.9688,740.8789 L51.9688,743.5977 Q51.3438,743.0195 50.75,742.7539 Q50.1563,742.4727 49.5313,742.4727 Q48.1875,742.4727 47.5,743.5508 Q46.8125,744.6133 46.8125,746.707 Q46.8125,748.8008 47.5,749.8789 Q48.1875,750.9414 49.5313,750.9414 Q50.1563,750.9414 50.75,750.6758 Q51.3438,750.3945 51.9688,749.8164 L51.9688,752.5352 Z " fill="#000000"/><text fill="#D9B8FF" font-family="Helvetica" font-size="17" lengthAdjust="spacing" textLength="261" x="68" y="752.7798">aws_iam_access_key_last_used</text><line style="stroke:#000D19;stroke-width:1.5;" x1="35" x2="336" y1="766.7891" y2="766.7891"/><text fill="#D9B8FF" font-family="sans-serif" font-size="11" font-weight="bold" lengthAdjust="spacing" textLength="96" x="45" y="785.9995">last_used_date</text><text fill="#D9B8FF" font-family="sans-serif" font-size="11" lengthAdjust="spacing" textLength="58" x="141" y="785.9995">: datetime</text><text fill="#D9B8FF" font-family="sans-serif" font-size="11" font-weight="bold" lengthAdjust="spacing" textLength="87" x="45" y="808.8042">service_name</text><text fill="#D9B8FF" font-family="sans-serif" font-size="11" lengthAdjust="spacing" textLength="41" x="132" y="808.8042">: string</text><text fill="#D9B8FF" font-family="sans-serif" font-size="11" font-weight="bold" lengthAdjust="spacing" textLength="41" x="45" y="831.6089">region</text><text fill="#D9B8FF" font-family="sans-serif" font-size="11" lengthAdjust="spacing" textLength="41" x="86" y="831.6089">: string</text></a><!--MD5=[847cc46ceddcbf32901b6f51be94db3e]
class aws_iam_access_key--><a href="#aws_iam_access_key" target="_top" title="#aws_iam_access_key" xlink:actuate="onRequest" xlink:href="#aws_iam_access_key" xlink:show="new" xlink:title="#aws_iam_access_key" xlink:type="simple"><rect codeLine="46" fill="#3D176E" height="70.5938" id="aws_iam_access_key" rx="2.5" ry="2.5" style="stroke:#000D19;stroke-width:1.5;" width="351" x="10" y="596"/><ellipse cx="89.25" cy="615.8945" fill="#E98DF7" rx="11" ry="11" style="stroke:#000D19;stroke-width:1.0;"/><path d="M92.2188,621.5352 Q91.6406,621.832 91,621.9727 Q90.3594,622.1289 89.6563,622.1289 Q87.1563,622.1289 85.8281,620.4883 Q84.5156,618.832 84.5156,615.707 Q84.5156,612.582 85.8281,610.9258 Q87.1563,609.2695 89.6563,609.2695 Q90.3594,609.2695 91,609.4258 Q91.6563,609.582 92.2188,609.8789 L92.2188,612.5977 Q91.5938,612.0195 91,611.7539 Q90.4063,611.4727 89.7813,611.4727 Q88.4375,611.4727 87.75,612.5508 Q87.0625,613.6133 87.0625,615.707 Q87.0625,617.8008 87.75,618.8789 Q88.4375,619.9414 89.7813,619.9414 Q90.4063,619.9414 91,619.6758 Q91.5938,619.3945 92.2188,618.8164 L92.2188,621.5352 Z " fill="#000000"/><text fill="#D9B8FF" font-family="Helvetica" font-size="17" lengthAdjust="spacing" textLength="174" x="114.75" y="621.7798">aws_iam_access_key</text><line style="stroke:#000D19;stroke-width:1.5;" x1="11" x2="360" y1="635.7891" y2="635.7891"/><text fill="#D9B8FF" font-family="sans-serif" font-size="11" font-weight="bold" lengthAdjust="spacing" textLength="139" x="21" y="654.9995">access_key_last_used</text><text fill="#D9B8FF" font-family="sans-serif" font-size="11" lengthAdjust="spacing" textLength="190" x="160" y="654.9995">: aws_iam_access_key_last_used</text></a><!--MD5=[8b1f63dc1854e41195795ccdf7ec5e00]
reverse link resource to aws_resource--><path codeLine="49" d="M131.5,302.39 C118.28,340.68 105.38,378.04 96.45,403.9 " fill="none" id="resource-backto-aws_resource" style="stroke:#FFAF37;stroke-width:2.0;"/><polygon fill="none" points="124.96,299.88,138.11,283.26,138.19,304.45,124.96,299.88" style="stroke:#FFAF37;stroke-width:2.0;"/><!--MD5=[02edae6d4523833be279748cc04dc205]
reverse link resource to access_key--><path codeLine="50" d="M240.04,302.39 C253.39,340.68 266.42,378.04 275.43,403.9 " fill="none" id="resource-backto-access_key" style="stroke:#FFAF37;stroke-width:2.0;"/><polygon fill="none" points="233.34,304.45,233.36,283.26,246.56,299.84,233.34,304.45" style="stroke:#FFAF37;stroke-width:2.0;"/><!--MD5=[03d0d701b25b10e530d8025053e001e5]
reverse link aws_resource to aws_iam_access_key--><path codeLine="51" d="M112.43,493.04 C129.87,525.84 151.82,567.14 167.09,595.87 " fill="none" id="aws_resource-backto-aws_iam_access_key" style="stroke:#FFAF37;stroke-width:2.0;"/><polygon fill="none" points="106.23,496.29,103.02,475.35,118.59,489.72,106.23,496.29" style="stroke:#FFAF37;stroke-width:2.0;"/><!--MD5=[f5961bd3521094dc64729f8c41ba6fe0]
reverse link access_key to aws_iam_access_key--><path codeLine="52" d="M259.29,493.04 C241.69,525.84 219.51,567.14 204.09,595.87 " fill="none" id="access_key-backto-aws_iam_access_key" style="stroke:#FFAF37;stroke-width:2.0;"/><polygon fill="none" points="253.16,489.66,268.79,475.35,265.5,496.28,253.16,489.66" style="stroke:#FFAF37;stroke-width:2.0;"/><!--MD5=[495dacf97e003a324ae2e633c8b88242]
link aws_iam_access_key to aws_iam_access_key_last_used--><path codeLine="53" d="M185.5,667.26 C185.5,683.39 185.5,703.07 185.5,721.64 " fill="none" id="aws_iam_access_key-to-aws_iam_access_key_last_used" style="stroke:#FFAF37;stroke-width:2.0;"/><polygon fill="#FFAF37" points="185.5,726.84,189.5,717.84,185.5,721.84,181.5,717.84,185.5,726.84" style="stroke:#FFAF37;stroke-width:2.0;"/><!--MD5=[96c82f57cc89bfb3ec355bd809bd204c]
@startuml
hide empty members
skinparam ArrowColor #ffaf37
skinparam ArrowFontColor #ffaf37
skinparam ArrowFontName Helvetica
skinparam ArrowThickness 2
skinparam BackgroundColor transparent
skinparam ClassAttributeFontColor #d9b8ff
skinparam ClassBackgroundColor #3d176e
skinparam ClassBorderColor #000d19
skinparam ClassFontColor #d9b8ff
skinparam ClassFontName Helvetica
skinparam ClassFontSize 17
skinparam NoteBackgroundColor #d9b8ff
skinparam NoteBorderColor #000d19
skinparam NoteFontColor #3d176e
skinparam NoteFontName Helvetica
skinparam Padding 5
skinparam RoundCorner 5
skinparam Shadowing false
skinparam stereotypeCBackgroundColor #e98df7
skinparam stereotypeIBackgroundColor #e98df7

class aws_resource [[#aws_resource]] {
**arn**: string
}
class resource [[#resource]] {
**id**: string
**tags**: dictionary[string, string]
**name**: string
**ctime**: datetime
**age**: duration
**mtime**: datetime
**last_update**: duration
**atime**: datetime
**last_access**: duration
**kind**: string
}
class access_key [[#access_key]] {
**access_key_status**: string
}
class aws_iam_access_key_last_used [[#aws_iam_access_key_last_used]] {
**last_used_date**: datetime
**service_name**: string
**region**: string
}
class aws_iam_access_key [[#aws_iam_access_key]] {
**access_key_last_used**: aws_iam_access_key_last_used
}
resource <|- - - aws_resource
resource <|- - - access_key
aws_resource <|- - - aws_iam_access_key
access_key <|- - - aws_iam_access_key
aws_iam_access_key - -> aws_iam_access_key_last_used
@enduml

PlantUML version 1.2021.16(Wed Dec 08 17:25:22 UTC 2021)
(GPL source distribution)
Java Runtime: OpenJDK Runtime Environment
JVM: OpenJDK 64-Bit Server VM
Default Encoding: UTF-8
Language: en
Country: null
--></g></svg>