<?xml version="1.0" encoding="UTF-8" standalone="no"?><svg xmlns="http://www.w3.org/2000/svg" xmlns:xlink="http://www.w3.org/1999/xlink" contentScriptType="application/ecmascript" contentStyleType="text/css" height="1185px" preserveAspectRatio="none" style="width:883px;height:1185px;background:#00000000;" version="1.1" viewBox="0 0 883 1185" width="883px" zoomAndPan="magnify"><defs/><g><!--MD5=[c069b88079f3e36515859a1683f3923c]
class aws_resource--><a href="#aws_resource" target="_top" title="#aws_resource" xlink:actuate="onRequest" xlink:href="#aws_resource" xlink:show="new" xlink:title="#aws_resource" xlink:type="simple"><rect codeLine="23" fill="#3D176E" height="70.5938" id="aws_resource" rx="2.5" ry="2.5" style="stroke:#000D19;stroke-width:1.5;" width="155" x="243.5" y="404"/><ellipse cx="258.5" cy="423.8945" fill="#E98DF7" rx="11" ry="11" style="stroke:#000D19;stroke-width:1.0;"/><path d="M261.4688,429.5352 Q260.8906,429.832 260.25,429.9727 Q259.6094,430.1289 258.9063,430.1289 Q256.4063,430.1289 255.0781,428.4883 Q253.7656,426.832 253.7656,423.707 Q253.7656,420.582 255.0781,418.9258 Q256.4063,417.2695 258.9063,417.2695 Q259.6094,417.2695 260.25,417.4258 Q260.9063,417.582 261.4688,417.8789 L261.4688,420.5977 Q260.8438,420.0195 260.25,419.7539 Q259.6563,419.4727 259.0313,419.4727 Q257.6875,419.4727 257,420.5508 Q256.3125,421.6133 256.3125,423.707 Q256.3125,425.8008 257,426.8789 Q257.6875,427.9414 259.0313,427.9414 Q259.6563,427.9414 260.25,427.6758 Q260.8438,427.3945 261.4688,426.8164 L261.4688,429.5352 Z " fill="#000000"/><text fill="#D9B8FF" font-family="Helvetica" font-size="17" lengthAdjust="spacing" textLength="113" x="277.5" y="429.7798">aws_resource</text><line style="stroke:#000D19;stroke-width:1.5;" x1="244.5" x2="397.5" y1="443.7891" y2="443.7891"/><text fill="#D9B8FF" font-family="sans-serif" font-size="11" font-weight="bold" lengthAdjust="spacing" textLength="21" x="254.5" y="462.9995">arn</text><text fill="#D9B8FF" font-family="sans-serif" font-size="11" lengthAdjust="spacing" textLength="41" x="275.5" y="462.9995">: string</text></a><!--MD5=[271b250036fb1b8237259e3240e1df5a]
class aws_vpc_peering_connection_state_reason--><a href="#aws_vpc_peering_connection_state_reason" target="_top" title="#aws_vpc_peering_connection_state_reason" xlink:actuate="onRequest" xlink:href="#aws_vpc_peering_connection_state_reason" xlink:show="new" xlink:title="#aws_vpc_peering_connection_state_reason" xlink:type="simple"><rect codeLine="26" fill="#3D176E" height="93.3984" id="aws_vpc_peering_connection_state_reason" rx="2.5" ry="2.5" style="stroke:#000D19;stroke-width:1.5;" width="400" x="7" y="852"/><ellipse cx="22" cy="871.8945" fill="#E98DF7" rx="11" ry="11" style="stroke:#000D19;stroke-width:1.0;"/><path d="M24.9688,877.5352 Q24.3906,877.832 23.75,877.9727 Q23.1094,878.1289 22.4063,878.1289 Q19.9063,878.1289 18.5781,876.4883 Q17.2656,874.832 17.2656,871.707 Q17.2656,868.582 18.5781,866.9258 Q19.9063,865.2695 22.4063,865.2695 Q23.1094,865.2695 23.75,865.4258 Q24.4063,865.582 24.9688,865.8789 L24.9688,868.5977 Q24.3438,868.0195 23.75,867.7539 Q23.1563,867.4727 22.5313,867.4727 Q21.1875,867.4727 20.5,868.5508 Q19.8125,869.6133 19.8125,871.707 Q19.8125,873.8008 20.5,874.8789 Q21.1875,875.9414 22.5313,875.9414 Q23.1563,875.9414 23.75,875.6758 Q24.3438,875.3945 24.9688,874.8164 L24.9688,877.5352 Z " fill="#000000"/><text fill="#D9B8FF" font-family="Helvetica" font-size="17" lengthAdjust="spacing" textLength="358" x="41" y="877.7798">aws_vpc_peering_connection_state_reason</text><line style="stroke:#000D19;stroke-width:1.5;" x1="8" x2="406" y1="891.7891" y2="891.7891"/><text fill="#D9B8FF" font-family="sans-serif" font-size="11" font-weight="bold" lengthAdjust="spacing" textLength="31" x="18" y="910.9995">code</text><text fill="#D9B8FF" font-family="sans-serif" font-size="11" lengthAdjust="spacing" textLength="41" x="49" y="910.9995">: string</text><text fill="#D9B8FF" font-family="sans-serif" font-size="11" font-weight="bold" lengthAdjust="spacing" textLength="57" x="18" y="933.8042">message</text><text fill="#D9B8FF" font-family="sans-serif" font-size="11" lengthAdjust="spacing" textLength="41" x="75" y="933.8042">: string</text></a><!--MD5=[7f0ecf5f554433d3f2e1213379ac821c]
class resource--><a href="#resource" target="_top" title="#resource" xlink:actuate="onRequest" xlink:href="#resource" xlink:show="new" xlink:title="#resource" xlink:type="simple"><rect codeLine="30" fill="#3D176E" height="275.8359" id="resource" rx="2.5" ry="2.5" style="stroke:#000D19;stroke-width:1.5;" width="195" x="330.5" y="7"/><ellipse cx="383.25" cy="26.8945" fill="#E98DF7" rx="11" ry="11" style="stroke:#000D19;stroke-width:1.0;"/><path d="M386.2188,32.5352 Q385.6406,32.832 385,32.9727 Q384.3594,33.1289 383.6563,33.1289 Q381.1563,33.1289 379.8281,31.4883 Q378.5156,29.832 378.5156,26.707 Q378.5156,23.582 379.8281,21.9258 Q381.1563,20.2695 383.6563,20.2695 Q384.3594,20.2695 385,20.4258 Q385.6563,20.582 386.2188,20.8789 L386.2188,23.5977 Q385.5938,23.0195 385,22.7539 Q384.4063,22.4727 383.7813,22.4727 Q382.4375,22.4727 381.75,23.5508 Q381.0625,24.6133 381.0625,26.707 Q381.0625,28.8008 381.75,29.8789 Q382.4375,30.9414 383.7813,30.9414 Q384.4063,30.9414 385,30.6758 Q385.5938,30.3945 386.2188,29.8164 L386.2188,32.5352 Z " fill="#000000"/><text fill="#D9B8FF" font-family="Helvetica" font-size="17" lengthAdjust="spacing" textLength="71" x="408.75" y="32.7798">resource</text><line style="stroke:#000D19;stroke-width:1.5;" x1="331.5" x2="524.5" y1="46.7891" y2="46.7891"/><text fill="#D9B8FF" font-family="sans-serif" font-size="11" font-weight="bold" lengthAdjust="spacing" textLength="12" x="341.5" y="65.9995">id</text><text fill="#D9B8FF" font-family="sans-serif" font-size="11" lengthAdjust="spacing" textLength="41" x="353.5" y="65.9995">: string</text><text fill="#D9B8FF" font-family="sans-serif" font-size="11" font-weight="bold" lengthAdjust="spacing" textLength="28" x="341.5" y="88.8042">tags</text><text fill="#D9B8FF" font-family="sans-serif" font-size="11" lengthAdjust="spacing" textLength="145" x="369.5" y="88.8042">: dictionary[string, string]</text><text fill="#D9B8FF" font-family="sans-serif" font-size="11" font-weight="bold" lengthAdjust="spacing" textLength="35" x="341.5" y="111.6089">name</text><text fill="#D9B8FF" font-family="sans-serif" font-size="11" lengthAdjust="spacing" textLength="41" x="376.5" y="111.6089">: string</text><text fill="#D9B8FF" font-family="sans-serif" font-size="11" font-weight="bold" lengthAdjust="spacing" textLength="35" x="341.5" y="134.4136">ctime</text><text fill="#D9B8FF" font-family="sans-serif" font-size="11" lengthAdjust="spacing" textLength="58" x="376.5" y="134.4136">: datetime</text><text fill="#D9B8FF" font-family="sans-serif" font-size="11" font-weight="bold" lengthAdjust="spacing" textLength="24" x="341.5" y="157.2183">age</text><text fill="#D9B8FF" font-family="sans-serif" font-size="11" lengthAdjust="spacing" textLength="55" x="365.5" y="157.2183">: duration</text><text fill="#D9B8FF" font-family="sans-serif" font-size="11" font-weight="bold" lengthAdjust="spacing" textLength="39" x="341.5" y="180.0229">mtime</text><text fill="#D9B8FF" font-family="sans-serif" font-size="11" lengthAdjust="spacing" textLength="58" x="380.5" y="180.0229">: datetime</text><text fill="#D9B8FF" font-family="sans-serif" font-size="11" font-weight="bold" lengthAdjust="spacing" textLength="75" x="341.5" y="202.8276">last_update</text><text fill="#D9B8FF" font-family="sans-serif" font-size="11" lengthAdjust="spacing" textLength="55" x="416.5" y="202.8276">: duration</text><text fill="#D9B8FF" font-family="sans-serif" font-size="11" font-weight="bold" lengthAdjust="spacing" textLength="36" x="341.5" y="225.6323">atime</text><text fill="#D9B8FF" font-family="sans-serif" font-size="11" lengthAdjust="spacing" textLength="58" x="377.5" y="225.6323">: datetime</text><text fill="#D9B8FF" font-family="sans-serif" font-size="11" font-weight="bold" lengthAdjust="spacing" textLength="74" x="341.5" y="248.437">last_access</text><text fill="#D9B8FF" font-family="sans-serif" font-size="11" lengthAdjust="spacing" textLength="55" x="415.5" y="248.437">: duration</text><text fill="#D9B8FF" font-family="sans-serif" font-size="11" font-weight="bold" lengthAdjust="spacing" textLength="27" x="341.5" y="271.2417">kind</text><text fill="#D9B8FF" font-family="sans-serif" font-size="11" lengthAdjust="spacing" textLength="41" x="368.5" y="271.2417">: string</text></a><!--MD5=[ebd6617bd15e73c021fa6286e3295249]
class aws_vpc_peering_connection--><a href="#aws_vpc_peering_connection" target="_top" title="#aws_vpc_peering_connection" xlink:actuate="onRequest" xlink:href="#aws_vpc_peering_connection" xlink:show="new" xlink:title="#aws_vpc_peering_connection" xlink:type="simple"><rect codeLine="42" fill="#3D176E" height="139.0078" id="aws_vpc_peering_connection" rx="2.5" ry="2.5" style="stroke:#000D19;stroke-width:1.5;" width="444" x="206" y="596"/><ellipse cx="297.75" cy="615.8945" fill="#E98DF7" rx="11" ry="11" style="stroke:#000D19;stroke-width:1.0;"/><path d="M300.7188,621.5352 Q300.1406,621.832 299.5,621.9727 Q298.8594,622.1289 298.1563,622.1289 Q295.6563,622.1289 294.3281,620.4883 Q293.0156,618.832 293.0156,615.707 Q293.0156,612.582 294.3281,610.9258 Q295.6563,609.2695 298.1563,609.2695 Q298.8594,609.2695 299.5,609.4258 Q300.1563,609.582 300.7188,609.8789 L300.7188,612.5977 Q300.0938,612.0195 299.5,611.7539 Q298.9063,611.4727 298.2813,611.4727 Q296.9375,611.4727 296.25,612.5508 Q295.5625,613.6133 295.5625,615.707 Q295.5625,617.8008 296.25,618.8789 Q296.9375,619.9414 298.2813,619.9414 Q298.9063,619.9414 299.5,619.6758 Q300.0938,619.3945 300.7188,618.8164 L300.7188,621.5352 Z " fill="#000000"/><text fill="#D9B8FF" font-family="Helvetica" font-size="17" lengthAdjust="spacing" textLength="242" x="323.25" y="621.7798">aws_vpc_peering_connection</text><line style="stroke:#000D19;stroke-width:1.5;" x1="207" x2="649" y1="635.7891" y2="635.7891"/><text fill="#D9B8FF" font-family="sans-serif" font-size="11" font-weight="bold" lengthAdjust="spacing" textLength="192" x="217" y="654.9995">connection_accepter_vpc_info</text><text fill="#D9B8FF" font-family="sans-serif" font-size="11" lengthAdjust="spacing" textLength="224" x="409" y="654.9995">: aws_vpc_peering_connection_vpc_info</text><text fill="#D9B8FF" font-family="sans-serif" font-size="11" font-weight="bold" lengthAdjust="spacing" textLength="176" x="217" y="677.8042">connection_expiration_time</text><text fill="#D9B8FF" font-family="sans-serif" font-size="11" lengthAdjust="spacing" textLength="58" x="393" y="677.8042">: datetime</text><text fill="#D9B8FF" font-family="sans-serif" font-size="11" font-weight="bold" lengthAdjust="spacing" textLength="198" x="217" y="700.6089">connection_requester_vpc_info</text><text fill="#D9B8FF" font-family="sans-serif" font-size="11" lengthAdjust="spacing" textLength="224" x="415" y="700.6089">: aws_vpc_peering_connection_vpc_info</text><text fill="#D9B8FF" font-family="sans-serif" font-size="11" font-weight="bold" lengthAdjust="spacing" textLength="117" x="217" y="723.4136">connection_status</text><text fill="#D9B8FF" font-family="sans-serif" font-size="11" lengthAdjust="spacing" textLength="253" x="334" y="723.4136">: aws_vpc_peering_connection_state_reason</text></a><!--MD5=[4e9d2e37369f8f94d3e034385d06dd33]
class peering_connection--><a href="#peering_connection" target="_top" title="#peering_connection" xlink:actuate="onRequest" xlink:href="#peering_connection" xlink:show="new" xlink:title="#peering_connection" xlink:type="simple"><rect codeLine="48" fill="#3D176E" height="39.7891" id="peering_connection" rx="2.5" ry="2.5" style="stroke:#000D19;stroke-width:1.5;" width="205" x="433.5" y="419.5"/><ellipse cx="448.5" cy="439.3945" fill="#E98DF7" rx="11" ry="11" style="stroke:#000D19;stroke-width:1.0;"/><path d="M451.4688,445.0352 Q450.8906,445.332 450.25,445.4727 Q449.6094,445.6289 448.9063,445.6289 Q446.4063,445.6289 445.0781,443.9883 Q443.7656,442.332 443.7656,439.207 Q443.7656,436.082 445.0781,434.4258 Q446.4063,432.7695 448.9063,432.7695 Q449.6094,432.7695 450.25,432.9258 Q450.9063,433.082 451.4688,433.3789 L451.4688,436.0977 Q450.8438,435.5195 450.25,435.2539 Q449.6563,434.9727 449.0313,434.9727 Q447.6875,434.9727 447,436.0508 Q446.3125,437.1133 446.3125,439.207 Q446.3125,441.3008 447,442.3789 Q447.6875,443.4414 449.0313,443.4414 Q449.6563,443.4414 450.25,443.1758 Q450.8438,442.8945 451.4688,442.3164 L451.4688,445.0352 Z " fill="#000000"/><text fill="#D9B8FF" font-family="Helvetica" font-size="17" lengthAdjust="spacing" textLength="163" x="467.5" y="445.2798">peering_connection</text></a><!--MD5=[d4d9813f2a7a8584619e086d6f834f1a]
class aws_vpc_peering_connection_vpc_info--><a href="#aws_vpc_peering_connection_vpc_info" target="_top" title="#aws_vpc_peering_connection_vpc_info" xlink:actuate="onRequest" xlink:href="#aws_vpc_peering_connection_vpc_info" xlink:show="new" xlink:title="#aws_vpc_peering_connection_vpc_info" xlink:type="simple"><rect codeLine="51" fill="#3D176E" height="207.4219" id="aws_vpc_peering_connection_vpc_info" rx="2.5" ry="2.5" style="stroke:#000D19;stroke-width:1.5;" width="414" x="442" y="795"/><ellipse cx="480.4" cy="814.8945" fill="#E98DF7" rx="11" ry="11" style="stroke:#000D19;stroke-width:1.0;"/><path d="M483.3688,820.5352 Q482.7906,820.832 482.15,820.9727 Q481.5094,821.1289 480.8063,821.1289 Q478.3063,821.1289 476.9781,819.4883 Q475.6656,817.832 475.6656,814.707 Q475.6656,811.582 476.9781,809.9258 Q478.3063,808.2695 480.8063,808.2695 Q481.5094,808.2695 482.15,808.4258 Q482.8063,808.582 483.3688,808.8789 L483.3688,811.5977 Q482.7438,811.0195 482.15,810.7539 Q481.5563,810.4727 480.9313,810.4727 Q479.5875,810.4727 478.9,811.5508 Q478.2125,812.6133 478.2125,814.707 Q478.2125,816.8008 478.9,817.8789 Q479.5875,818.9414 480.9313,818.9414 Q481.5563,818.9414 482.15,818.6758 Q482.7438,818.3945 483.3688,817.8164 L483.3688,820.5352 Z " fill="#000000"/><text fill="#D9B8FF" font-family="Helvetica" font-size="17" lengthAdjust="spacing" textLength="320" x="504.6" y="820.7798">aws_vpc_peering_connection_vpc_info</text><line style="stroke:#000D19;stroke-width:1.5;" x1="443" x2="855" y1="834.7891" y2="834.7891"/><text fill="#D9B8FF" font-family="sans-serif" font-size="11" font-weight="bold" lengthAdjust="spacing" textLength="64" x="453" y="853.9995">cidr_block</text><text fill="#D9B8FF" font-family="sans-serif" font-size="11" lengthAdjust="spacing" textLength="41" x="517" y="853.9995">: string</text><text fill="#D9B8FF" font-family="sans-serif" font-size="11" font-weight="bold" lengthAdjust="spacing" textLength="123" x="453" y="876.8042">ipv6_cidr_block_set</text><text fill="#D9B8FF" font-family="sans-serif" font-size="11" lengthAdjust="spacing" textLength="49" x="576" y="876.8042">: string[]</text><text fill="#D9B8FF" font-family="sans-serif" font-size="11" font-weight="bold" lengthAdjust="spacing" textLength="90" x="453" y="899.6089">cidr_block_set</text><text fill="#D9B8FF" font-family="sans-serif" font-size="11" lengthAdjust="spacing" textLength="49" x="543" y="899.6089">: string[]</text><text fill="#D9B8FF" font-family="sans-serif" font-size="11" font-weight="bold" lengthAdjust="spacing" textLength="58" x="453" y="922.4136">owner_id</text><text fill="#D9B8FF" font-family="sans-serif" font-size="11" lengthAdjust="spacing" textLength="41" x="511" y="922.4136">: string</text><text fill="#D9B8FF" font-family="sans-serif" font-size="11" font-weight="bold" lengthAdjust="spacing" textLength="103" x="453" y="945.2183">peering_options</text><text fill="#D9B8FF" font-family="sans-serif" font-size="11" lengthAdjust="spacing" textLength="289" x="556" y="945.2183">: aws_vpc_peering_connection_options_description</text><text fill="#D9B8FF" font-family="sans-serif" font-size="11" font-weight="bold" lengthAdjust="spacing" textLength="40" x="453" y="968.0229">vpc_id</text><text fill="#D9B8FF" font-family="sans-serif" font-size="11" lengthAdjust="spacing" textLength="41" x="493" y="968.0229">: string</text><text fill="#D9B8FF" font-family="sans-serif" font-size="11" font-weight="bold" lengthAdjust="spacing" textLength="41" x="453" y="990.8276">region</text><text fill="#D9B8FF" font-family="sans-serif" font-size="11" lengthAdjust="spacing" textLength="41" x="494" y="990.8276">: string</text></a><!--MD5=[3b3eff02bc1ab0fc5e32188324f48cbb]
class aws_vpc_peering_connection_options_description--><a href="#aws_vpc_peering_connection_options_description" target="_top" title="#aws_vpc_peering_connection_options_description" xlink:actuate="onRequest" xlink:href="#aws_vpc_peering_connection_options_description" xlink:show="new" xlink:title="#aws_vpc_peering_connection_options_description" xlink:type="simple"><rect codeLine="60" fill="#3D176E" height="116.2031" id="aws_vpc_peering_connection_options_description" rx="2.5" ry="2.5" style="stroke:#000D19;stroke-width:1.5;" width="454" x="422" y="1062"/><ellipse cx="437" cy="1081.8945" fill="#E98DF7" rx="11" ry="11" style="stroke:#000D19;stroke-width:1.0;"/><path d="M439.9688,1087.5352 Q439.3906,1087.832 438.75,1087.9727 Q438.1094,1088.1289 437.4063,1088.1289 Q434.9063,1088.1289 433.5781,1086.4883 Q432.2656,1084.832 432.2656,1081.707 Q432.2656,1078.582 433.5781,1076.9258 Q434.9063,1075.2695 437.4063,1075.2695 Q438.1094,1075.2695 438.75,1075.4258 Q439.4063,1075.582 439.9688,1075.8789 L439.9688,1078.5977 Q439.3438,1078.0195 438.75,1077.7539 Q438.1563,1077.4727 437.5313,1077.4727 Q436.1875,1077.4727 435.5,1078.5508 Q434.8125,1079.6133 434.8125,1081.707 Q434.8125,1083.8008 435.5,1084.8789 Q436.1875,1085.9414 437.5313,1085.9414 Q438.1563,1085.9414 438.75,1085.6758 Q439.3438,1085.3945 439.9688,1084.8164 L439.9688,1087.5352 Z " fill="#000000"/><text fill="#D9B8FF" font-family="Helvetica" font-size="17" lengthAdjust="spacing" textLength="412" x="456" y="1087.7798">aws_vpc_peering_connection_options_description</text><line style="stroke:#000D19;stroke-width:1.5;" x1="423" x2="875" y1="1101.7891" y2="1101.7891"/><text fill="#D9B8FF" font-family="sans-serif" font-size="11" font-weight="bold" lengthAdjust="spacing" textLength="249" x="433" y="1120.9995">allow_dns_resolution_from_remote_vpc</text><text fill="#D9B8FF" font-family="sans-serif" font-size="11" lengthAdjust="spacing" textLength="53" x="682" y="1120.9995">: boolean</text><text fill="#D9B8FF" font-family="sans-serif" font-size="11" font-weight="bold" lengthAdjust="spacing" textLength="333" x="433" y="1143.8042">allow_egress_from_local_classic_link_to_remote_vpc</text><text fill="#D9B8FF" font-family="sans-serif" font-size="11" lengthAdjust="spacing" textLength="53" x="766" y="1143.8042">: boolean</text><text fill="#D9B8FF" font-family="sans-serif" font-size="11" font-weight="bold" lengthAdjust="spacing" textLength="333" x="433" y="1166.6089">allow_egress_from_local_vpc_to_remote_classic_link</text><text fill="#D9B8FF" font-family="sans-serif" font-size="11" lengthAdjust="spacing" textLength="53" x="766" y="1166.6089">: boolean</text></a><!--MD5=[8b1f63dc1854e41195795ccdf7ec5e00]
reverse link resource to aws_resource--><path codeLine="65" d="M370.89,302.13 C356.85,340.51 343.14,377.98 333.66,403.9 " fill="none" id="resource-backto-aws_resource" style="stroke:#FFAF37;stroke-width:2.0;"/><polygon fill="none" points="364.34,299.64,377.79,283.26,377.49,304.44,364.34,299.64" style="stroke:#FFAF37;stroke-width:2.0;"/><!--MD5=[68273dec79fb1b0c61eb79e66405e3cf]
reverse link aws_resource to aws_vpc_peering_connection--><path codeLine="66" d="M346.22,493.3 C360.82,523.86 379.36,562.68 395.1,595.62 " fill="none" id="aws_resource-backto-aws_vpc_peering_connection" style="stroke:#FFAF37;stroke-width:2.0;"/><polygon fill="none" points="339.79,496.07,337.48,475.01,352.42,490.04,339.79,496.07" style="stroke:#FFAF37;stroke-width:2.0;"/><!--MD5=[932804c3a395af4877d0d81d3ab8c012]
reverse link peering_connection to aws_vpc_peering_connection--><path codeLine="67" d="M517.99,477.86 C502.51,509.95 479.8,557.06 461.07,595.92 " fill="none" id="peering_connection-backto-aws_vpc_peering_connection" style="stroke:#FFAF37;stroke-width:2.0;"/><polygon fill="none" points="511.8,474.57,526.79,459.6,524.41,480.65,511.8,474.57" style="stroke:#FFAF37;stroke-width:2.0;"/><!--MD5=[d2ae95ffb59c3f137f79c2251fbd4861]
link aws_vpc_peering_connection to aws_vpc_peering_connection_vpc_info--><path codeLine="68" d="M493.71,735.18 C510.53,752.76 529.01,772.08 547.18,791.08 " fill="none" id="aws_vpc_peering_connection-to-aws_vpc_peering_connection_vpc_info" style="stroke:#FFAF37;stroke-width:2.0;"/><polygon fill="#FFAF37" points="550.81,794.87,547.4796,785.6013,547.3539,791.2568,541.6984,791.1311,550.81,794.87" style="stroke:#FFAF37;stroke-width:2.0;"/><!--MD5=[a315a4d8e6e2f6a34d14693ca9cad399]
link aws_vpc_peering_connection to aws_vpc_peering_connection_state_reason--><path codeLine="69" d="M362.29,735.18 C327.69,771.35 286.04,814.89 254.58,847.77 " fill="none" id="aws_vpc_peering_connection-to-aws_vpc_peering_connection_state_reason" style="stroke:#FFAF37;stroke-width:2.0;"/><polygon fill="#FFAF37" points="250.8,851.72,259.9116,847.9811,254.2561,848.1068,254.1304,842.4513,250.8,851.72" style="stroke:#FFAF37;stroke-width:2.0;"/><!--MD5=[5073960f4af5fa4df5ecc168e07f50d9]
reverse link resource to peering_connection--><path codeLine="70" d="M485.7,302.27 C502.98,349.06 519.74,394.47 528.89,419.24 " fill="none" id="resource-backto-peering_connection" style="stroke:#FFAF37;stroke-width:2.0;"/><polygon fill="none" points="479.04,304.44,478.68,283.26,492.17,299.59,479.04,304.44" style="stroke:#FFAF37;stroke-width:2.0;"/><!--MD5=[d8c0013353542d7eb99ebd218544f2c3]
link aws_vpc_peering_connection_vpc_info to aws_vpc_peering_connection_options_description--><path codeLine="71" d="M649,1002.18 C649,1020.79 649,1039.66 649,1056.66 " fill="none" id="aws_vpc_peering_connection_vpc_info-to-aws_vpc_peering_connection_options_description" style="stroke:#FFAF37;stroke-width:2.0;"/><polygon fill="#FFAF37" points="649,1061.88,653,1052.88,649,1056.88,645,1052.88,649,1061.88" style="stroke:#FFAF37;stroke-width:2.0;"/><!--MD5=[702d51461c2f9a708a6d53335fcc224b]
@startuml
hide empty members
skinparam ArrowColor #ffaf37
skinparam ArrowFontColor #ffaf37
skinparam ArrowFontName Helvetica
skinparam ArrowThickness 2
skinparam BackgroundColor transparent
skinparam ClassAttributeFontColor #d9b8ff
skinparam ClassBackgroundColor #3d176e
skinparam ClassBorderColor #000d19
skinparam ClassFontColor #d9b8ff
skinparam ClassFontName Helvetica
skinparam ClassFontSize 17
skinparam NoteBackgroundColor #d9b8ff
skinparam NoteBorderColor #000d19
skinparam NoteFontColor #3d176e
skinparam NoteFontName Helvetica
skinparam Padding 5
skinparam RoundCorner 5
skinparam Shadowing false
skinparam stereotypeCBackgroundColor #e98df7
skinparam stereotypeIBackgroundColor #e98df7

class aws_resource [[#aws_resource]] {
**arn**: string
}
class aws_vpc_peering_connection_state_reason [[#aws_vpc_peering_connection_state_reason]] {
**code**: string
**message**: string
}
class resource [[#resource]] {
**id**: string
**tags**: dictionary[string, string]
**name**: string
**ctime**: datetime
**age**: duration
**mtime**: datetime
**last_update**: duration
**atime**: datetime
**last_access**: duration
**kind**: string
}
class aws_vpc_peering_connection [[#aws_vpc_peering_connection]] {
**connection_accepter_vpc_info**: aws_vpc_peering_connection_vpc_info
**connection_expiration_time**: datetime
**connection_requester_vpc_info**: aws_vpc_peering_connection_vpc_info
**connection_status**: aws_vpc_peering_connection_state_reason
}
class peering_connection [[#peering_connection]] {

}
class aws_vpc_peering_connection_vpc_info [[#aws_vpc_peering_connection_vpc_info]] {
**cidr_block**: string
**ipv6_cidr_block_set**: string[]
**cidr_block_set**: string[]
**owner_id**: string
**peering_options**: aws_vpc_peering_connection_options_description
**vpc_id**: string
**region**: string
}
class aws_vpc_peering_connection_options_description [[#aws_vpc_peering_connection_options_description]] {
**allow_dns_resolution_from_remote_vpc**: boolean
**allow_egress_from_local_classic_link_to_remote_vpc**: boolean
**allow_egress_from_local_vpc_to_remote_classic_link**: boolean
}
resource <|- - - aws_resource
aws_resource <|- - - aws_vpc_peering_connection
peering_connection <|- - - aws_vpc_peering_connection
aws_vpc_peering_connection - -> aws_vpc_peering_connection_vpc_info
aws_vpc_peering_connection - -> aws_vpc_peering_connection_state_reason
resource <|- - - peering_connection
aws_vpc_peering_connection_vpc_info - -> aws_vpc_peering_connection_options_description
@enduml

PlantUML version 1.2021.16(Wed Dec 08 17:25:22 UTC 2021)
(GPL source distribution)
Java Runtime: OpenJDK Runtime Environment
JVM: OpenJDK 64-Bit Server VM
Default Encoding: UTF-8
Language: en
Country: null
--></g></svg>