<?xml version="1.0" encoding="UTF-8" standalone="no"?><svg xmlns="http://www.w3.org/2000/svg" xmlns:xlink="http://www.w3.org/1999/xlink" contentScriptType="application/ecmascript" contentStyleType="text/css" height="878px" preserveAspectRatio="none" style="width:383px;height:878px;background:#00000000;" version="1.1" viewBox="0 0 383 878" width="383px" zoomAndPan="magnify"><defs/><g><!--MD5=[c069b88079f3e36515859a1683f3923c]
class aws_resource--><a href="#aws_resource" target="_top" title="#aws_resource" xlink:actuate="onRequest" xlink:href="#aws_resource" xlink:show="new" xlink:title="#aws_resource" xlink:type="simple"><rect codeLine="23" fill="#3D176E" height="70.5938" id="aws_resource" rx="2.5" ry="2.5" style="stroke:#000D19;stroke-width:1.5;" width="155" x="114" y="404"/><ellipse cx="129" cy="423.8945" fill="#E98DF7" rx="11" ry="11" style="stroke:#000D19;stroke-width:1.0;"/><path d="M131.9688,429.5352 Q131.3906,429.832 130.75,429.9727 Q130.1094,430.1289 129.4063,430.1289 Q126.9063,430.1289 125.5781,428.4883 Q124.2656,426.832 124.2656,423.707 Q124.2656,420.582 125.5781,418.9258 Q126.9063,417.2695 129.4063,417.2695 Q130.1094,417.2695 130.75,417.4258 Q131.4063,417.582 131.9688,417.8789 L131.9688,420.5977 Q131.3438,420.0195 130.75,419.7539 Q130.1563,419.4727 129.5313,419.4727 Q128.1875,419.4727 127.5,420.5508 Q126.8125,421.6133 126.8125,423.707 Q126.8125,425.8008 127.5,426.8789 Q128.1875,427.9414 129.5313,427.9414 Q130.1563,427.9414 130.75,427.6758 Q131.3438,427.3945 131.9688,426.8164 L131.9688,429.5352 Z " fill="#000000"/><text fill="#D9B8FF" font-family="Helvetica" font-size="17" lengthAdjust="spacing" textLength="113" x="148" y="429.7798">aws_resource</text><line style="stroke:#000D19;stroke-width:1.5;" x1="115" x2="268" y1="443.7891" y2="443.7891"/><text fill="#D9B8FF" font-family="sans-serif" font-size="11" font-weight="bold" lengthAdjust="spacing" textLength="21" x="125" y="462.9995">arn</text><text fill="#D9B8FF" font-family="sans-serif" font-size="11" lengthAdjust="spacing" textLength="41" x="146" y="462.9995">: string</text></a><!--MD5=[7f0ecf5f554433d3f2e1213379ac821c]
class resource--><a href="#resource" target="_top" title="#resource" xlink:actuate="onRequest" xlink:href="#resource" xlink:show="new" xlink:title="#resource" xlink:type="simple"><rect codeLine="26" fill="#3D176E" height="275.8359" id="resource" rx="2.5" ry="2.5" style="stroke:#000D19;stroke-width:1.5;" width="195" x="94" y="7"/><ellipse cx="146.75" cy="26.8945" fill="#E98DF7" rx="11" ry="11" style="stroke:#000D19;stroke-width:1.0;"/><path d="M149.7188,32.5352 Q149.1406,32.832 148.5,32.9727 Q147.8594,33.1289 147.1563,33.1289 Q144.6563,33.1289 143.3281,31.4883 Q142.0156,29.832 142.0156,26.707 Q142.0156,23.582 143.3281,21.9258 Q144.6563,20.2695 147.1563,20.2695 Q147.8594,20.2695 148.5,20.4258 Q149.1563,20.582 149.7188,20.8789 L149.7188,23.5977 Q149.0938,23.0195 148.5,22.7539 Q147.9063,22.4727 147.2813,22.4727 Q145.9375,22.4727 145.25,23.5508 Q144.5625,24.6133 144.5625,26.707 Q144.5625,28.8008 145.25,29.8789 Q145.9375,30.9414 147.2813,30.9414 Q147.9063,30.9414 148.5,30.6758 Q149.0938,30.3945 149.7188,29.8164 L149.7188,32.5352 Z " fill="#000000"/><text fill="#D9B8FF" font-family="Helvetica" font-size="17" lengthAdjust="spacing" textLength="71" x="172.25" y="32.7798">resource</text><line style="stroke:#000D19;stroke-width:1.5;" x1="95" x2="288" y1="46.7891" y2="46.7891"/><text fill="#D9B8FF" font-family="sans-serif" font-size="11" font-weight="bold" lengthAdjust="spacing" textLength="12" x="105" y="65.9995">id</text><text fill="#D9B8FF" font-family="sans-serif" font-size="11" lengthAdjust="spacing" textLength="41" x="117" y="65.9995">: string</text><text fill="#D9B8FF" font-family="sans-serif" font-size="11" font-weight="bold" lengthAdjust="spacing" textLength="28" x="105" y="88.8042">tags</text><text fill="#D9B8FF" font-family="sans-serif" font-size="11" lengthAdjust="spacing" textLength="145" x="133" y="88.8042">: dictionary[string, string]</text><text fill="#D9B8FF" font-family="sans-serif" font-size="11" font-weight="bold" lengthAdjust="spacing" textLength="35" x="105" y="111.6089">name</text><text fill="#D9B8FF" font-family="sans-serif" font-size="11" lengthAdjust="spacing" textLength="41" x="140" y="111.6089">: string</text><text fill="#D9B8FF" font-family="sans-serif" font-size="11" font-weight="bold" lengthAdjust="spacing" textLength="35" x="105" y="134.4136">ctime</text><text fill="#D9B8FF" font-family="sans-serif" font-size="11" lengthAdjust="spacing" textLength="58" x="140" y="134.4136">: datetime</text><text fill="#D9B8FF" font-family="sans-serif" font-size="11" font-weight="bold" lengthAdjust="spacing" textLength="24" x="105" y="157.2183">age</text><text fill="#D9B8FF" font-family="sans-serif" font-size="11" lengthAdjust="spacing" textLength="55" x="129" y="157.2183">: duration</text><text fill="#D9B8FF" font-family="sans-serif" font-size="11" font-weight="bold" lengthAdjust="spacing" textLength="39" x="105" y="180.0229">mtime</text><text fill="#D9B8FF" font-family="sans-serif" font-size="11" lengthAdjust="spacing" textLength="58" x="144" y="180.0229">: datetime</text><text fill="#D9B8FF" font-family="sans-serif" font-size="11" font-weight="bold" lengthAdjust="spacing" textLength="75" x="105" y="202.8276">last_update</text><text fill="#D9B8FF" font-family="sans-serif" font-size="11" lengthAdjust="spacing" textLength="55" x="180" y="202.8276">: duration</text><text fill="#D9B8FF" font-family="sans-serif" font-size="11" font-weight="bold" lengthAdjust="spacing" textLength="36" x="105" y="225.6323">atime</text><text fill="#D9B8FF" font-family="sans-serif" font-size="11" lengthAdjust="spacing" textLength="58" x="141" y="225.6323">: datetime</text><text fill="#D9B8FF" font-family="sans-serif" font-size="11" font-weight="bold" lengthAdjust="spacing" textLength="74" x="105" y="248.437">last_access</text><text fill="#D9B8FF" font-family="sans-serif" font-size="11" lengthAdjust="spacing" textLength="55" x="179" y="248.437">: duration</text><text fill="#D9B8FF" font-family="sans-serif" font-size="11" font-weight="bold" lengthAdjust="spacing" textLength="27" x="105" y="271.2417">kind</text><text fill="#D9B8FF" font-family="sans-serif" font-size="11" lengthAdjust="spacing" textLength="41" x="132" y="271.2417">: string</text></a><!--MD5=[6fd4edb2fbab47fb0da171e5cceae27d]
class aws_sns_subscription--><a href="#aws_sns_subscription" target="_top" title="#aws_sns_subscription" xlink:actuate="onRequest" xlink:href="#aws_sns_subscription" xlink:show="new" xlink:title="#aws_sns_subscription" xlink:type="simple"><rect codeLine="38" fill="#3D176E" height="275.8359" id="aws_sns_subscription" rx="2.5" ry="2.5" style="stroke:#000D19;stroke-width:1.5;" width="369" x="7" y="596"/><ellipse cx="93.25" cy="615.8945" fill="#E98DF7" rx="11" ry="11" style="stroke:#000D19;stroke-width:1.0;"/><path d="M96.2188,621.5352 Q95.6406,621.832 95,621.9727 Q94.3594,622.1289 93.6563,622.1289 Q91.1563,622.1289 89.8281,620.4883 Q88.5156,618.832 88.5156,615.707 Q88.5156,612.582 89.8281,610.9258 Q91.1563,609.2695 93.6563,609.2695 Q94.3594,609.2695 95,609.4258 Q95.6563,609.582 96.2188,609.8789 L96.2188,612.5977 Q95.5938,612.0195 95,611.7539 Q94.4063,611.4727 93.7813,611.4727 Q92.4375,611.4727 91.75,612.5508 Q91.0625,613.6133 91.0625,615.707 Q91.0625,617.8008 91.75,618.8789 Q92.4375,619.9414 93.7813,619.9414 Q94.4063,619.9414 95,619.6758 Q95.5938,619.3945 96.2188,618.8164 L96.2188,621.5352 Z " fill="#000000"/><text fill="#D9B8FF" font-family="Helvetica" font-size="17" lengthAdjust="spacing" textLength="178" x="118.75" y="621.7798">aws_sns_subscription</text><line style="stroke:#000D19;stroke-width:1.5;" x1="8" x2="375" y1="635.7891" y2="635.7891"/><text fill="#D9B8FF" font-family="sans-serif" font-size="11" font-weight="bold" lengthAdjust="spacing" textLength="294" x="18" y="654.9995">subscription_confirmation_was_authenticated</text><text fill="#D9B8FF" font-family="sans-serif" font-size="11" lengthAdjust="spacing" textLength="53" x="312" y="654.9995">: boolean</text><text fill="#D9B8FF" font-family="sans-serif" font-size="11" font-weight="bold" lengthAdjust="spacing" textLength="180" x="18" y="677.8042">subscription_delivery_policy</text><text fill="#D9B8FF" font-family="sans-serif" font-size="11" lengthAdjust="spacing" textLength="41" x="198" y="677.8042">: string</text><text fill="#D9B8FF" font-family="sans-serif" font-size="11" font-weight="bold" lengthAdjust="spacing" textLength="243" x="18" y="700.6089">subscription_effective_delivery_policy</text><text fill="#D9B8FF" font-family="sans-serif" font-size="11" lengthAdjust="spacing" textLength="41" x="261" y="700.6089">: string</text><text fill="#D9B8FF" font-family="sans-serif" font-size="11" font-weight="bold" lengthAdjust="spacing" textLength="160" x="18" y="723.4136">subscription_filter_policy</text><text fill="#D9B8FF" font-family="sans-serif" font-size="11" lengthAdjust="spacing" textLength="41" x="178" y="723.4136">: string</text><text fill="#D9B8FF" font-family="sans-serif" font-size="11" font-weight="bold" lengthAdjust="spacing" textLength="125" x="18" y="746.2183">subscription_owner</text><text fill="#D9B8FF" font-family="sans-serif" font-size="11" lengthAdjust="spacing" textLength="41" x="143" y="746.2183">: string</text><text fill="#D9B8FF" font-family="sans-serif" font-size="11" font-weight="bold" lengthAdjust="spacing" textLength="224" x="18" y="769.0229">subscription_pending_confirmation</text><text fill="#D9B8FF" font-family="sans-serif" font-size="11" lengthAdjust="spacing" textLength="53" x="242" y="769.0229">: boolean</text><text fill="#D9B8FF" font-family="sans-serif" font-size="11" font-weight="bold" lengthAdjust="spacing" textLength="229" x="18" y="791.8276">subscription_raw_message_delivery</text><text fill="#D9B8FF" font-family="sans-serif" font-size="11" lengthAdjust="spacing" textLength="53" x="247" y="791.8276">: boolean</text><text fill="#D9B8FF" font-family="sans-serif" font-size="11" font-weight="bold" lengthAdjust="spacing" textLength="174" x="18" y="814.6323">subscription_redrive_policy</text><text fill="#D9B8FF" font-family="sans-serif" font-size="11" lengthAdjust="spacing" textLength="41" x="192" y="814.6323">: string</text><text fill="#D9B8FF" font-family="sans-serif" font-size="11" font-weight="bold" lengthAdjust="spacing" textLength="144" x="18" y="837.437">subscription_topic_arn</text><text fill="#D9B8FF" font-family="sans-serif" font-size="11" lengthAdjust="spacing" textLength="41" x="162" y="837.437">: string</text><text fill="#D9B8FF" font-family="sans-serif" font-size="11" font-weight="bold" lengthAdjust="spacing" textLength="137" x="18" y="860.2417">subscription_role_arn</text><text fill="#D9B8FF" font-family="sans-serif" font-size="11" lengthAdjust="spacing" textLength="41" x="155" y="860.2417">: string</text></a><!--MD5=[8b1f63dc1854e41195795ccdf7ec5e00]
reverse link resource to aws_resource--><path codeLine="50" d="M191.5,303.43 C191.5,341.36 191.5,378.27 191.5,403.9 " fill="none" id="resource-backto-aws_resource" style="stroke:#FFAF37;stroke-width:2.0;"/><polygon fill="none" points="184.5,303.26,191.5,283.26,198.5,303.26,184.5,303.26" style="stroke:#FFAF37;stroke-width:2.0;"/><!--MD5=[cfe6b65eef5da0fa669e149c3f33513c]
reverse link aws_resource to aws_sns_subscription--><path codeLine="51" d="M191.5,495.39 C191.5,523.95 191.5,560.27 191.5,595.86 " fill="none" id="aws_resource-backto-aws_sns_subscription" style="stroke:#FFAF37;stroke-width:2.0;"/><polygon fill="none" points="184.5,495.2,191.5,475.2,198.5,495.2,184.5,495.2" style="stroke:#FFAF37;stroke-width:2.0;"/><!--MD5=[cf050d5fbe740e38f70c32a6acce17e8]
@startuml
hide empty members
skinparam ArrowColor #ffaf37
skinparam ArrowFontColor #ffaf37
skinparam ArrowFontName Helvetica
skinparam ArrowThickness 2
skinparam BackgroundColor transparent
skinparam ClassAttributeFontColor #d9b8ff
skinparam ClassBackgroundColor #3d176e
skinparam ClassBorderColor #000d19
skinparam ClassFontColor #d9b8ff
skinparam ClassFontName Helvetica
skinparam ClassFontSize 17
skinparam NoteBackgroundColor #d9b8ff
skinparam NoteBorderColor #000d19
skinparam NoteFontColor #3d176e
skinparam NoteFontName Helvetica
skinparam Padding 5
skinparam RoundCorner 5
skinparam Shadowing false
skinparam stereotypeCBackgroundColor #e98df7
skinparam stereotypeIBackgroundColor #e98df7

class aws_resource [[#aws_resource]] {
**arn**: string
}
class resource [[#resource]] {
**id**: string
**tags**: dictionary[string, string]
**name**: string
**ctime**: datetime
**age**: duration
**mtime**: datetime
**last_update**: duration
**atime**: datetime
**last_access**: duration
**kind**: string
}
class aws_sns_subscription [[#aws_sns_subscription]] {
**subscription_confirmation_was_authenticated**: boolean
**subscription_delivery_policy**: string
**subscription_effective_delivery_policy**: string
**subscription_filter_policy**: string
**subscription_owner**: string
**subscription_pending_confirmation**: boolean
**subscription_raw_message_delivery**: boolean
**subscription_redrive_policy**: string
**subscription_topic_arn**: string
**subscription_role_arn**: string
}
resource <|- - - aws_resource
aws_resource <|- - - aws_sns_subscription
@enduml

PlantUML version 1.2021.16(Wed Dec 08 17:25:22 UTC 2021)
(GPL source distribution)
Java Runtime: OpenJDK Runtime Environment
JVM: OpenJDK 64-Bit Server VM
Default Encoding: UTF-8
Language: en
Country: null
--></g></svg>