<?xml version="1.0" encoding="UTF-8" standalone="no"?><svg xmlns="http://www.w3.org/2000/svg" xmlns:xlink="http://www.w3.org/1999/xlink" contentScriptType="application/ecmascript" contentStyleType="text/css" height="252px" preserveAspectRatio="none" style="width:205px;height:252px;background:#00000000;" version="1.1" viewBox="0 0 205 252" width="205px" zoomAndPan="magnify"><defs/><g><!--MD5=[f250f102843f04823a5b58db07d1b5df]
class aws_kms_key--><a href="#aws_kms_key" target="_top" title="#aws_kms_key" xlink:actuate="onRequest" xlink:href="#aws_kms_key" xlink:show="new" xlink:title="#aws_kms_key" xlink:type="simple"><rect codeLine="23" fill="#3D176E" height="39.7891" id="aws_kms_key" rx="2.5" ry="2.5" style="stroke:#000D19;stroke-width:1.5;" width="158" x="23.5" y="207"/><ellipse cx="38.5" cy="226.8945" fill="#E98DF7" rx="11" ry="11" style="stroke:#000D19;stroke-width:1.0;"/><path d="M41.4688,232.5352 Q40.8906,232.832 40.25,232.9727 Q39.6094,233.1289 38.9063,233.1289 Q36.4063,233.1289 35.0781,231.4883 Q33.7656,229.832 33.7656,226.707 Q33.7656,223.582 35.0781,221.9258 Q36.4063,220.2695 38.9063,220.2695 Q39.6094,220.2695 40.25,220.4258 Q40.9063,220.582 41.4688,220.8789 L41.4688,223.5977 Q40.8438,223.0195 40.25,222.7539 Q39.6563,222.4727 39.0313,222.4727 Q37.6875,222.4727 37,223.5508 Q36.3125,224.6133 36.3125,226.707 Q36.3125,228.8008 37,229.8789 Q37.6875,230.9414 39.0313,230.9414 Q39.6563,230.9414 40.25,230.6758 Q40.8438,230.3945 41.4688,229.8164 L41.4688,232.5352 Z " fill="#000000"/><text fill="#D9B8FF" font-family="Helvetica" font-size="17" lengthAdjust="spacing" textLength="116" x="57.5" y="232.7798">aws_kms_key</text></a><!--MD5=[0cdc53216c3f7e000e36c9f7bbbd4e68]
class aws_glacier_job--><a href="#aws_glacier_job" target="_top" title="#aws_glacier_job" xlink:actuate="onRequest" xlink:href="#aws_glacier_job" xlink:show="new" xlink:title="#aws_glacier_job" xlink:type="simple"><rect codeLine="26" fill="#3D176E" height="39.7891" id="aws_glacier_job" rx="2.5" ry="2.5" style="stroke:#000D19;stroke-width:1.5;" width="173" x="16" y="107"/><ellipse cx="31" cy="126.8945" fill="#E98DF7" rx="11" ry="11" style="stroke:#000D19;stroke-width:1.0;"/><path d="M33.9688,132.5352 Q33.3906,132.832 32.75,132.9727 Q32.1094,133.1289 31.4063,133.1289 Q28.9063,133.1289 27.5781,131.4883 Q26.2656,129.832 26.2656,126.707 Q26.2656,123.582 27.5781,121.9258 Q28.9063,120.2695 31.4063,120.2695 Q32.1094,120.2695 32.75,120.4258 Q33.4063,120.582 33.9688,120.8789 L33.9688,123.5977 Q33.3438,123.0195 32.75,122.7539 Q32.1563,122.4727 31.5313,122.4727 Q30.1875,122.4727 29.5,123.5508 Q28.8125,124.6133 28.8125,126.707 Q28.8125,128.8008 29.5,129.8789 Q30.1875,130.9414 31.5313,130.9414 Q32.1563,130.9414 32.75,130.6758 Q33.3438,130.3945 33.9688,129.8164 L33.9688,132.5352 Z " fill="#000000"/><text fill="#D9B8FF" font-family="Helvetica" font-size="17" lengthAdjust="spacing" textLength="131" x="50" y="132.7798">aws_glacier_job</text></a><!--MD5=[2ab334d45eb88255465f28b1c1851add]
class aws_glacier_vault--><a href="#aws_glacier_vault" target="_top" title="#aws_glacier_vault" xlink:actuate="onRequest" xlink:href="#aws_glacier_vault" xlink:show="new" xlink:title="#aws_glacier_vault" xlink:type="simple"><rect codeLine="29" fill="#3D176E" height="39.7891" id="aws_glacier_vault" rx="2.5" ry="2.5" style="stroke:#000D19;stroke-width:1.5;" width="191" x="7" y="7"/><ellipse cx="22" cy="26.8945" fill="#E98DF7" rx="11" ry="11" style="stroke:#000D19;stroke-width:1.0;"/><path d="M24.9688,32.5352 Q24.3906,32.832 23.75,32.9727 Q23.1094,33.1289 22.4063,33.1289 Q19.9063,33.1289 18.5781,31.4883 Q17.2656,29.832 17.2656,26.707 Q17.2656,23.582 18.5781,21.9258 Q19.9063,20.2695 22.4063,20.2695 Q23.1094,20.2695 23.75,20.4258 Q24.4063,20.582 24.9688,20.8789 L24.9688,23.5977 Q24.3438,23.0195 23.75,22.7539 Q23.1563,22.4727 22.5313,22.4727 Q21.1875,22.4727 20.5,23.5508 Q19.8125,24.6133 19.8125,26.707 Q19.8125,28.8008 20.5,29.8789 Q21.1875,30.9414 22.5313,30.9414 Q23.1563,30.9414 23.75,30.6758 Q24.3438,30.3945 24.9688,29.8164 L24.9688,32.5352 Z " fill="#000000"/><text fill="#D9B8FF" font-family="Helvetica" font-size="17" lengthAdjust="spacing" textLength="149" x="41" y="32.7798">aws_glacier_vault</text></a><!--MD5=[dda770c9f26bed9d1cf6c0c2d9c1559d]
link aws_glacier_job to aws_kms_key--><path codeLine="32" d="M102.5,147.36 C102.5,162.93 102.5,184.9 102.5,201.66 " fill="none" id="aws_glacier_job-to-aws_kms_key" style="stroke:#1A83AF;stroke-width:2.0;"/><polygon fill="#1A83AF" points="102.5,206.68,106.5,197.68,102.5,201.68,98.5,197.68,102.5,206.68" style="stroke:#1A83AF;stroke-width:2.0;"/><!--MD5=[12871ef51a1f851d4e524825fb2a26fe]
link aws_glacier_vault to aws_glacier_job--><path codeLine="33" d="M102.5,47.36 C102.5,62.93 102.5,84.9 102.5,101.66 " fill="none" id="aws_glacier_vault-to-aws_glacier_job" style="stroke:#1A83AF;stroke-width:2.0;"/><polygon fill="#1A83AF" points="102.5,106.68,106.5,97.68,102.5,101.68,98.5,97.68,102.5,106.68" style="stroke:#1A83AF;stroke-width:2.0;"/><!--MD5=[026132561b4a3e6951819a52511221b9]
@startuml
hide empty members
skinparam ArrowColor #ffaf37
skinparam ArrowFontColor #ffaf37
skinparam ArrowFontName Helvetica
skinparam ArrowThickness 2
skinparam BackgroundColor transparent
skinparam ClassAttributeFontColor #d9b8ff
skinparam ClassBackgroundColor #3d176e
skinparam ClassBorderColor #000d19
skinparam ClassFontColor #d9b8ff
skinparam ClassFontName Helvetica
skinparam ClassFontSize 17
skinparam NoteBackgroundColor #d9b8ff
skinparam NoteBorderColor #000d19
skinparam NoteFontColor #3d176e
skinparam NoteFontName Helvetica
skinparam Padding 5
skinparam RoundCorner 5
skinparam Shadowing false
skinparam stereotypeCBackgroundColor #e98df7
skinparam stereotypeIBackgroundColor #e98df7

class aws_kms_key [[#aws_kms_key]] {

}
class aws_glacier_job [[#aws_glacier_job]] {

}
class aws_glacier_vault [[#aws_glacier_vault]] {

}
aws_glacier_job -[#1A83AF]-> aws_kms_key
aws_glacier_vault -[#1A83AF]-> aws_glacier_job
@enduml

PlantUML version 1.2021.16(Wed Dec 08 17:25:22 UTC 2021)
(GPL source distribution)
Java Runtime: OpenJDK Runtime Environment
JVM: OpenJDK 64-Bit Server VM
Default Encoding: UTF-8
Language: en
Country: null
--></g></svg>