<svg xmlns="http://www.w3.org/2000/svg" fill-rule="evenodd" stroke-linejoin="round" stroke-miterlimit="2" clip-rule="evenodd" viewBox="0 0 1756 1276"><path fill="#ffe797" fill-rule="nonzero" d="M391.81 266.3s22.395 15.667 12.52 34-8.476 19-27.175 29c-18.7 10-46.033 16.667-40.7 32s6.959 28.667 36.813 46.667 53.187 28.666 62.854 50.333c9.666 21.667-7.764 37.667-16.882 52s-18.452 51.51-12.452 70.922c6 19.411 23.667 42.078 27.334 56.078 3.666 14-9.667 74.667-13.334 107-3.666 32.333 8 93.667 8 93.667l22.667 2.333s129.33 58.667 197.33 76.333c68 17.667 193.67 42.334 285.67 30.334s218.67-40.334 281.67-64c63-23.667 101.33-49.547 101.33-49.547s17.334-46.297 15.334-81.875-14.667-80.912-14-98.245c.666-17.333 3.654-26.667 14.16-43.667s20.138-39.565 15.156-75.783c-4.983-36.217-20.983-47.376-19.983-67.55 1-20.175 25.333-46.333 32.667-54 7.333-7.667 62.331-47 62.331-47s-6.33-21.333-21-27.333c-14.665-6-35.831-17.334-38.581-26-2.75-8.667-5.417-20.667-5.084-27.334.334-6.666 3.334 7.667 11.334 13 8 5.334 47.661 13 55.661 11.667s25.34-3.333 32.67 2 7.67 15 6.33 28c-1.33 13-3.77 36.333.62 47.667 4.38 11.333 11.72 21.333-7.95 32.666-19.67 11.334-50.33 31.667-52 37.667s-1.75 24.167-1.75 24.167 83.65-39.834 112.03-39.834c28.39 0 54.72 12 60.39 28.667 5.66 16.667 1.33 63.763-3.34 85.381-4.66 21.619-12.66 86.952-7.66 111.95s13.69 50 13.69 50 84.97-10.666 112.97 12c28 22.667 41.67 41 39 70-2.66 29-19 71.667-27 103.67s-17.33 81.667-13.66 113.33c3.66 31.667 17 61.334 14.33 75-2.67 13.667.33 34.667-14.33 35.667-14.67 1-99-44-132-38.667-33 5.334-150 56-196.34 70-46.333 14-128.33 41.667-138 40.667-9.666-1-22.333-10.667-22.333-10.667s-5 20.667-23.333 22c-18.334 1.334-149 32.334-291.67 34-142.67 1.667-285.67-29.333-285.67-29.333l-25-30-21.667 16.333s-199-59-258-84.333-91.333-27-91.333-27-126 43.667-142 29.667 3.333-84.667 3.667-103c.333-18.334 14-65.334-3.667-117-17.667-51.667-54.333-123.33-25.667-146.67 28.667-23.333 47.667-37 95-35 47.334 2 37.334-17 37.334-17s15-50.333 6.333-91-22.667-71.102-14-105.55 21-49.782 38.333-55.116c17.334-5.333 28.334-4 50.334 1s60.673 30.554 85 30.869l23 5.227s-6.334-33.762-21-44.096c-14.667-10.333-42.327-16.448-48-30.502-5.674-14.054 3.333-16.831 3.666-32.164.334-15.334-5.666-49 3-64.667 8.667-15.667 16-19.333 43.334-19.667 27.333-.333 41.5-3 43.417-9 1.916-6 9.271-20.333 9.271-20.333"/><path fill="#ffaf37" fill-rule="nonzero" d="M1398.1 308.863c12.889 4 40 12.667 44 24.889s-21.111 33.778-21.111 33.778l-6.445-20.223-41.777-24.666-15.556-26.667 2.889-5.111 38 18zm-41.3 170.227c-20.223-31.556 4-48.444 48.666-79.333 27.308-18.884 40-37.334 40-37.334s-8.222 27.778-.666 41.111c7.556 13.334.666 17.778.666 17.778l-38 38.222-9.333 25.334-34-1.556-7.333-4.222z"/><path fill="#ffaf37" fill-rule="nonzero" d="M1529.5 518.2c-14.771 17.39-79.98 40.13-115.03 52.12l-.31.55s-62.89 29.55-51.11 9.55-13.111-87.33-13.111-87.33c2.311 3.01 5.05 5.61 8.71 7.64.021.02.04.03.061.04 6.89 3.82 17.029 5.62 33.68 4.32 25.549-2 66.88-25.22 66.88-25.22 50-24.67 78.89-10.56 87.339-.11 8.441 10.44-.889 19.33-17.109 38.44m-137.1 66.44c-15.333 6-26.666 32 1.667 20s101.95-39.026 121.33-51.333c21-13.334 28.334-21.667 36-34.667 0 0-11 40.667-91.333 80.667s-97 67.666-40.333 43.666c0 0-46 31 4.333 11.334 0 0 15.667-5.667 31.667-8.334 0 0-121.33 79.334-28.667 36.334 0 0-46.333 35 4.667 14 0 0-53.667 44.333 15.666 18.666 69.334-25.666 74-31 80.334-44.333 6.333-13.333 7.653-65.959 16.333-101 9-36.333 17.667-55.667 17.667-55.667s-39 132-13 202.33l-24 36.333-48-7.333-126.67 66s13.667-52.667 9.667-87c-4-34.334-38.334-91-32.667-102s65.333-37.667 65.333-37.667M324.45 314.98c6.333-3 14-2.333 33.667-3.667 19.666-1.333 32.333-13.333 27.333-30-5-16.666 9-16.333 9-16.333s21.333 34 2.667 51c-18.667 17-55.667 23-54.667 38s1 31.333 1 31.333-28-21-29-43.333 10-27 10-27m-23.33 104.667c9.333-16 12-42.667 12-42.667s20.333 27.334 56 45c20.454 10.131 46.542 45.23 18.604 56.448-27.937 11.219-30.937 3.552-30.937 3.552s-2.334-29.333-15.667-38.333-40-24-40-24m97 174.323c23.969 17.249-52.333-19.333-75.333-26s-64.334-19.333-81.667-29.667c-17.333-10.333-28-20.666-30-30-2-9.333-3-21.666 1.333-27.333 4.334-5.667 15-10.333 20.334-10.667 5.333-.333 24-3.333 58.666 13.334 34.667 16.666 41.334 18.666 62.667 19.666s45-8.333 45-8.333-36.667 73.333-1 99"/><path fill="#ffaf37" fill-rule="nonzero" d="M397.23 746.2c-1.77 24.89-4 54.22 1.34 64.45 5.33 10.22-86.22-33.78-86.22-33.78L183.9 723.54s21.78-25.78 23.11-61.34c1.34-35.55-2.62-76.01-13.33-106.22-16.97-47.87-.71-76.14-.02-77.29-3.99 11.55-6.39 31.01 12.91 60.4 12.804 19.5 20.654 66.835 27.791 107.16 1.658 9.367 7.795 17.277 16.378 21.379 13.418 6.413 24.721 15.907 24.721 15.907-93.34-5.78 56.89 48 56.89 48 71.64 29.44-12.34-37.17-14.2-38.65 126.62 64.85.42-32.47 38.2-13.8 37.77 18.67 15.55-12.89 15.55-12.89 19.56 7.11-13.33-37.33-31.11-44.89-17.78-7.55-48.89-15.55 14.67-.89 63.15 14.58-70.29-45.01-71.98-45.76 39.04 12.13 70.33 24.75 91.54 35 .22-.31.52-.43.88-.35 13.78 3.11 10.22-18.22-7.11-24-17.33-5.77 10.22-.89 29.33 10.67s20.89 14.67 24.89 28.44c4 13.78-1.33 40.89-5.33 53.34-4 12.44-18.67 43.55-20.45 68.44m43.56 122.454s98 60.667 246 86.667 304.67 27.333 423.33-10c118.67-37.333 206.67-77.333 206.67-77.333s-126 52.666-200 63.333-64.667-2.667-64.667-2.667l-371.33-.666s-108.67-5.334-240-59.334M74.786 762.63s-32.222 12-24.222 34.667c8 22.666 53.222 118 46.889 184.67-6.605 69.519-56.334 137.33-3.667 131 46.56-5.599 110.67-22.666 110.67-22.666l196.33 65.666s95.333 8 138.67 21.334l-186-61.334-109.33-42.666-57.333-18.667s-55.333-3.333-58.667-6c-3.333-2.667-36.888-13.556-9.555-36.222 0 0 12.222-70.445-11.111-132.44-23.334-62-19.334-63.333-9.334-66.666 10-3.334 0 0 0 0s-51.333 8-23.333-50.667M1650.1 815.33c24.667 2 20.522 27.533 18.667 65.111-1.778 36-39.111 136-39.111 136 69.777 14.222-12.889 26.889-55.556 36.889s-208 78-208 78c66.667-24.667 174.67-41.333 174.67-41.333s79.333 8 120 28.666c40.666 20.667-3-69.333 5.666-142 8.667-72.666 47.667-157.33 40.334-180-7.334-22.666-46-44.666-86.667-46.666 60.75 17.489 75.146 38.895 30 65.333M604.79 1190.666s147.33 27.334 264 26.667 291.33-32.667 392-62c0 0-175.33 48-170 64.667 0 0-78.667 21.333-208.67 23.333s-190-13.333-190-13.333 38-14-87.333-39.334"/><path fill-rule="nonzero" d="M1561.5 559.38c-6.35 34.83-12.359 78.59-7.699 113.93 1.12 8.46 4.54 28.71 7.649 38.01a287.174 287.174 0 0 0-15.179 3.76c-9.831 2.71-23.47 29.23-23.47 29.23s-20.141-14.66-27.08-11.87c-48.84 19.61-99.58 47.13-149.07 73.97-4.17 2.26-8.36 4.531-12.57 6.81.96-3.09 1.75-6.199 2.551-9.09a221.37 221.37 0 0 0 5.609-26.11c2.691-17.58 3.51-35.41 2.13-53.15s-4.71-35.27-10.359-52.14c-2.49-7.46-5.16-14.92-6.571-22.68-1.08-5.99-.86-13.01.68-17.14 3.11-8.32 10.74-14.39 17.58-20.03 15.441-12.74 35.221-19.28 53.95-25.45 20.821-6.86 41.481-14.08 61.861-22.17 17.38-6.89 34.5-14.68 50.8-24 7.019-4.01 20.719-12.41 31.66-28.61 9.33-13.84 11.25-28.68 4.389-37.47-14.45-18.53-64.38-7.44-74.769-1.9 28.189-7.16 70.25-11.14 71.21 11.81.179 4.18-.601 8.28-2.841 12.24-3.489-8.68-14.159-13.77-29.239-12.77 15.75 2.34 23.58 8.75 25.679 17.93-4.37 5.4-10.29 10.3-15.75 14.18-2.519-10.19-13.519-11.52-13.519-11.52s10.25 5.66 10.329 13.72a134.45 134.45 0 0 1-9.1 5.55c-.679.38-1.219.74-1.65 1.1l-.01.01c-28.689 16.31-60.49 26.68-92.21 35.3-17.179 4.67-34.58 8.76-50.849 16.18a112.638 112.638 0 0 0-15.63 8.7c3.75-14.73 4.689-30.51 3.939-45.04-.599-11.52-2.37-23.08-5.559-34.18-1.521-5.28-3.401-10.43-5.571-15.48-2.509-5.88-6.349-11.82-6.979-18.31-1.061-11.06 5.01-23.19 10.779-32.24 6.261-9.81 14.41-18.3 23.16-25.92 19.391-16.89 42.18-29.64 60.76-47.49 7.96-7.64 16.08-18.41 14.261-30.09-1.75-11.24-17.58-16.7-18.08-16.86.529.43 16.939 13.98 9.019 26.49-2.16 3.41-4.479 6.77-7.45 9.7-2.869-8.08-11.35-15.81-16.85-19.89-10.71-7.95-23.639-11.84-34.639-19.31-7.851-5.33-12.821-12.69-14.7-21.1 4.359 5.01 10.939 8.12 17.21 10.25 11.379 3.89 23.66 6.33 35.639 6.63 11.96.3 23.33-1.8 34.181.11 3.89.69 8.199 3.3 10.449 6.78 3.181 4.94.45 11.71-.51 17.06-2.189 12.09-2.63 24.04-.92 36.23.84 6.04 2.22 11.9 4.01 17.72 1.67 5.41 3.771 12.11.941 17.49-3.891 7.41-19.861 11.55-35.8 22.39-15.54 10.56-23.49 18.7-27.83 25-3.87 5.6-8.061 14.71-8.21 21.8-6.141 1.27-12.051 1.98-17.38 1.8.14-4.27 1.42-10.72 2.989-14.27 2.941-6.69 7.931-12.74 12.971-17.96.189-.2-.091-.46-.301-.3-6.699 5.24-13.08 10.15-17.189 17.8-2.021 3.77-3.941 8.24-4.951 14-3.92-.8-7.339-2.29-10.07-4.63.12-3.87.341-7.01 1.301-11.08 1.069-4.49 3.349-9.54 5.84-13.42 4.939-7.74 12.34-14.3 19.439-20.02.181-.15-.059-.46-.26-.33-9.04 5.79-17.83 11.27-24.12 20.22-2.269 3.24-5.889 11.23-7.509 16.76-4.63-12.73 4.78-25.01 5.259-25.63-.5.41-8.45 7.08-9.42 17.09-1 10.33.771 16.39 7.33 23.33 6.55 6.95 27.991 16.45 57.661 7.2.019-.01.04-.01.07-.02 17.88-5.79 46.529-19 60.989-26.23 26.28-13.14 59.99-19.92 83.111-4.67 30 19.78 7.62 85.04 4.479 102.29m-1148.3 223.28c.55 11.36 1.31 20.6 3.37 29.79-12.21-5.849-24.48-11.77-36.66-17.65-63.62-30.69-123.71-59.68-161.47-72.66-13.42-4.61-27.87-8.29-42.65-10.87 12.22-26.61 16.01-65.81 10.11-96.32-7.47-38.6-26.54-76.43-17-116.08 4.06-16.88 16.24-34.98 32.29-43.28 17.98-9.29 40.49-.14 58.03 6.02 19.13 6.73 37.84 14.65 57.27 20.54 18.32 5.54 39.16 10.64 58.35 7.35 18.54-3.17 36.24-21.31 26.95-40.85-4.05-8.51-12.24-13.78-19.56-19.2-9.8-7.25-33.4-18.33-31.83-17.23 8.67 6.06 18.21 12.47 26.48 19.09 6.64 5.3 13.02 11.74 16.5 19.76 3.42 7.87-.31 16.12-6.76 21.15-6.49 5.07-14.92 6.4-22.99 6.37-1.5-11.91-7.84-25.16-13.63-32.07-8.7-10.37-21.75-17.85-34.5-23.35-5.06-2.18-10.4-4.19-14.94-7.38-5.26-3.69-11.25-10.34-9.39-16.54 1.83-6.08 4.65-11.66 5.71-17.98 1.3-7.74.97-15.52.14-23.29-1.38-12.93-3.26-22.93.22-35.78 3.53-13.04 17.2-20.17 30.25-20.91 21.53-1.22 53.84 5.61 63.34-21.01 1.06-2.96 1.52-6.01 1.49-9.07 1.46 1.19 10.56 6.69 10.04 23.1-.23 7.04-5.48 14.58-10.34 19.56-11.19 11.45-29.62 13.5-43.51 20.38-11.97 5.93-18.3 17.19-17.31 30.08-3.97-4.79-7.34-9.76-9.67-14.78-15.28-32.89 14.94-37.74 14.94-37.74s-22.94-2.58-26.34 20c-1.65 11.02 3.2 25.87 9.33 35.16 7.31 11.08 17.35 20.2 27.45 28.69 10.8 9.08 22.26 17.43 34.29 24.83 17.23 10.6 50.05 23.41 52.93 45.93 2.45 19.12-3.9 21.07-12.04 31.82-15.96 21.07-26.4 42.18-23.37 76.38.44 4.98.79 10.23 1.94 15.39-9.02-5.27-18.67-9.53-28.13-13.1-33.05-12.46-67.94-19.34-100.68-32.73-16.42-6.72-61.51-23.82-58.83-52.98 2.62-28.46 49.97-18.71 51.73-18.34-1.77-.6-55.33-18.22-58.17 21.12-1.65 22.83 15.89 36.67 27.98 45.07 14.31 9.95 31.16 16.57 47.48 22.41 17.41 6.22 35.23 11.18 52.94 16.43 28.93 8.59 61.9 17.63 82.24 41.59 24.47 28.82 8.26 67.96 1.28 100.11-4.49 20.66-6.32 41.95-5.3 63.07m1318.6-28.5c-10.731-21.86-35.75-37.89-70.45-45.15-23.411-4.9-49.951-5.43-77.201-1.73-3.509-13.92-8.519-34.69-9.96-59.6-1.389-24.11.84-48.28 3.43-72.26 2.59-24.09 6.99-48.26 8.08-72.47.971-21.53-4.3-42.53-22.889-55.18-24.18-16.46-55.701-11.94-68.441-8.8-27.05 6.67-61.399 26.68-82.769 32.76-1.361-15.08 26.87-33.6 35.889-38.49 8.071-4.38 16.981-8.5 22.95-15.75 7.241-8.78 6.731-18.62 3.26-28.96-4.059-12.06-6.08-24.19-5.309-36.94.67-11.13 5.689-23.26 1.49-34.17-7.971-20.69-37.04-14.17-53.99-15.21-12.981-.79-27.771-2.17-39.821-7.45-5.219-2.29-15.269-6.67-12.979-18.86 3.979-18.84 20.84-36.35 21.369-36.9-.539.34-17.819 11.36-27.67 35.38-5.489 13.38-4.869 29.49 4.03 41.23 8.451 11.16 21.59 17.06 33.451 23.81 5.99 3.4 11.849 7.01 16.469 12.18 5.5 6.16 6.42 11.34 7.231 13.22-4.75 3.99-7.92 6.41-17.821 13.33-19.24 13.43-29.299 17.62-46.16 34.09-15.099 14.74-29.649 34.98-30.7 56.84-.56 11.67 6.19 21.27 10.07 31.8a131.6 131.6 0 0 1 7.281 30.88c1.359 12.32 1.28 24.97-.54 37.24-1.651 11.13-5 21.64-8.701 32.18-1.62 1.66-3.17 3.36-4.67 5.12-10.309 12.07-20.86 27.48-18.809 44.11 1.13 9.13 10.5 44.15 11.76 52.91 5.969 41.48 1.25 82.53-9.5 122.76-12.67 6.771-25.311 13.401-37.641 19.64-84.859 42.94-267.44 90.1-387.71 90.1-1.38 0-2.76-.009-4.119-.02-116.01-1.069-206.05-17.12-310.78-55.41-34.911-12.76-77.901-32.159-122.87-53.409-2.77-1.301-7.42 2.04-10.66 4.87-5.35-12.061-9.97-29.261-10.69-45.511-.81-18.16.22-36.36 3.62-54.23 6.48-33.98 23.37-69.67 8.31-103.81-4.1-9.3-10.12-17.19-17.34-23.92-4.11-12.18-14.93-45.71-1.94-80.84 8.3-22.46 23.98-25.03 26.01-49.45 1.96-23.44-15.18-39.75-33.54-51.02-10.17-6.23-20.74-11.72-30.7-18.3-5.03-3.32-15.48-10.1-26.39-18.87-5.56-6.44-10.64-13.06-11.16-22.42-.39-6.9 1.9-13.1 7.86-16.94 6.23-4.02 13.71-6.09 20.49-9.01 13.51-5.84 27.06-14.38 34.23-27.72 6.56-12.19 5.79-24.81-.77-36.75-3.66-6.68-22.48-33.19-61.17-44.46-1.38-.4 42.14 20.5 40.14 42.38-2 21.89-28.16 18.65-38.21 18.27-12.55-.48-25.72-1.39-37.36 4.28-23.88 11.64-21.71 40.94-19.08 63 .85 7.17 1.67 14.52.93 21.74-.73 7.12-4.03 13.12-6.18 19.82-3.96 12.35 1.07 22.87 11.6 29.77 5.24 3.43 26.57 10.95 36.05 18.78 14.05 11.61 16.29 23.47 17.5 30.81-34.53-4.63-66.8-21.87-99.74-32.1-18.04-5.6-37.79-9.18-55.28.39-35.79 19.57-43.96 60.37-44.78 83.24-1.56 43.36 21.72 77.82 22.32 121 .14 10.21-4.58 41.13-16.87 58.35-57.71-5.67-115.13 6.52-131.06 47.07-8.5 21.63-7.51 48.73 5.82 74.161 56.67 108.2 31.34 169.98 23.22 210.67-5.52 27.719-13.94 53.639-6.7 72.469 1.56 4.05 14.11 31.34 63.44 16.16 54.22-16.68 96.92-30.14 123.48-27.56l2.03-14.899c-29.72-2.88-74.02 4.649-131.69 22.389-30.8 9.47-37.12-2.439-37.61-3.49l-.05-.13c-4.97-12.91.45-35.899 5.6-60.37 19.84-94.149 4.28-151.49-24.44-223.56-8.51-21.35-10.89-41.81-3.71-57.78 20.65-45.92 103.31-44.04 169.03-21.46 36.58 12.57 96.12 41.3 159.16 71.72 12.07 5.82 24.2 11.67 36.3 17.471 7.58 3.639 19.94 37.679 19.94 37.679s21.91-17.83 25.06-16.32c39.16 18.761 78.67 35.88 110.64 47.57 105.74 38.651 200.78 55.6 317.8 56.68 56.979.52 132.37-9.63 212.37-28.58 75.42-17.869 144.35-41.11 189.13-63.76 24.479-12.38 49.979-26.21 74.639-39.59 45.67-24.76 91.941-51.3 137.24-68.98 4.901-1.91 32.571 17.42 32.571 17.42s15.519-35.26 25.389-37.99c80.111-22.15 145.99-2.66 161.09 28.09 16.58 33.79-6 99.25-6 99.25-15.729 45.6-34.149 106.65-24.069 169.77 5.25 32.85 16.519 71.5 4.84 82.051-7.84 7.08-25.531-.121-35.38-5.051-77.82-38.909-133.27-20-135.59-19.18 0 0 56.881 3.311 126.2 37.97 13.651 6.82 25.59 10.24 35.75 10.24 9.181 0 16.901-2.8 23.09-8.39 10.83-9.78 20.71-28.129 13.24-51.29-27.12-84.129-21.559-133.47 8.441-208.58 10.7-26.799 28.759-74.41 8.33-116.04"/><path fill-rule="nonzero" d="M855.92 1254.77c-63.002.001-115.87-4.865-156.34-10.514-35.84-5.003-73.109-10.64-109.88-19.67-5.172-1.269-14.724-21.663-14.724-21.663s-17.103 13.507-25.198 11.296c-101.88-27.834-194.22-63.101-233.9-77.926-70.771-26.442-118.42-42.96-165.31-51.848-27.111-4-58.208.651-82 10.444 14.292-18.67 37.174-28.517 69.984-28.171 64.905 1.504 112.24 22.835 184.68 49.904 38.893 14.531 126.67 48.267 224.55 75.226 5.241 1.443 33.452-18.07 33.452-18.07s18 31.333 25.056 33.065c32.002 7.853 64.691 13.025 96.756 17.685 80.558 11.706 211.24 18.129 374.25-7.167 36.526-5.668 70.442-11.919 102-18.577 8.009-1.689 20.818-28.118 20.818-28.118s17.051 19.703 24.008 18.039c105.25-25.18 181.84-54.472 241.77-79.672 202.22-85.033 213.78-8.811 213.78-8.811-41.778-37.111-146.15 4.872-206.12 28.364-62.424 24.455-141.48 55.423-251.14 81.728-5.471 1.312-18.743-12.092-18.743-12.092s-8.446 18.38-13.822 19.556c-33.631 7.355-69.961 14.224-109.34 20.335-84.111 13.052-159.76 16.656-224.6 16.657M387.72 478.426c5.039-14.447-14.458-37.356-14.458-37.356 17.239 12.94 23.405 25.445 14.458 37.356m-168.88 36.686c-8.468-12.763 22.09-24.441 25.941-25.803-12.222-1.389-27.456 7.43-31.333 14.778-2.327 4.408 3.18 5.895 5.392 11.025"/><path fill="#0054a3" fill-rule="nonzero" d="m700.57 1170.05 2.297-4.235a16.795 16.795 0 0 0 2.026-7.986v-167.3c0-2.261-.448-4.464-1.332-6.546l-2.297-5.408 30.313 5.761a16.826 16.826 0 0 0-4.197 9.958l-1.82-6.08v173.4c0 2.772.697 5.526 2.014 7.964l2.702 4.998-29.706-4.527zm78.151 9.683a16.792 16.792 0 0 0 .705-11.522l-30.049-100.41 32.85 106.68v-169.72c0-2.653-.641-5.303-1.855-7.661l-2.516-4.893 29.519 2.818-2.386 3.935a16.734 16.734 0 0 0-2.429 8.686v162.77c0 2.855.736 5.68 2.129 8.171l2.259 4.043-28.227-2.898z"/><path fill-rule="nonzero" d="M695.89 972.45c-1.216 0-2.11 1.261-1.607 2.446l4.668 10.993a11.75 11.75 0 0 1 .935 4.592v167.3c0 1.956-.489 3.882-1.421 5.602l-4.498 8.292a1.758 1.758 0 0 0 1.28 2.575l40.705 6.203c.094.014.187.021.276.021 1.29 0 2.18-1.402 1.535-2.595l-5.797-10.725a11.743 11.743 0 0 1-1.413-5.586v-139.25l44.076 147.28a11.75 11.75 0 0 1-1.16 9.378l-1.508 2.532a1.757 1.757 0 0 0 1.331 2.647l39.342 4.04c.064.007.127.01.189.01 1.313 0 2.188-1.43 1.525-2.615l-5.303-9.489a11.745 11.745 0 0 1-1.492-5.731V1007.6c0-2.148.588-4.255 1.703-6.092l5.066-8.353a1.757 1.757 0 0 0-1.336-2.661l-40.566-3.873a1.74 1.74 0 0 0-.176-.008c-1.289 0-2.163 1.379-1.555 2.562l5.229 10.167a11.75 11.75 0 0 1 1.301 5.374v136.49l-44.889-145.78c0-3.26 1.354-6.373 3.74-8.596l3.5-3.262c1.053-.981.545-2.743-.87-3.012l-42.471-8.072a1.894 1.894 0 0 0-.339-.032m90.257 25.524 13.082 1.249a21.744 21.744 0 0 0-1.676 8.374v162.77c0 2.145.32 4.277.94 6.32l-11.274-1.157v-170.81c0-2.284-.366-4.568-1.072-6.739M709.22 985.14l11.333 2.153v174.28c0 2.233.348 4.455 1.02 6.578l-13.347-2.034a21.829 21.829 0 0 0 1.66-8.331v-167.3c0-1.819-.224-3.609-.666-5.35"/><path fill="#0054a3" fill-rule="nonzero" d="m980.08 1180.29 2.306-4.77c1.33-2.748 2.032-5.649 2.032-8.388l-.026-163.7c0-2.241-.451-4.302-1.338-6.131a2382.69 2382.69 0 0 1-2.303-4.764 690.234 690.234 0 0 0 30.524-2.89c-2.475 3.474-3.974 7.395-4.24 11.115l-1.835-5.473-.032 170.44c-.001 2.739.697 5.288 2.02 7.374l2.708 4.277c-9.941.945-19.881 1.908-29.816 2.917m78.308-9.93c1.583-4.012 1.856-8.178.724-11.69-9.882-30.653-19.825-61.286-29.951-91.86 11.075 32.41 21.93 64.892 32.735 97.393.097-56.933.192-113.86.288-170.8.005-2.659-.629-5.091-1.835-7.031-1-1.61-1.501-2.415-2.503-4.022a1283.197 1283.197 0 0 0 29.196-7.673c-.935 1.934-1.402 2.901-2.339 4.834-1.56 3.217-2.39 6.55-2.393 9.647-.055 55.16-.11 110.32-.167 165.48-.002 2.869.726 5.502 2.106 7.613.896 1.371 1.346 2.056 2.242 3.424a1242.133 1242.133 0 0 1-28.103 4.681"/><path fill-rule="nonzero" d="M975.38 987.89c-1.215.307-2.107 1.79-1.604 2.848 1.864 3.923 2.797 5.871 4.667 9.747.618 1.281.936 2.745.937 4.307l.02 163.63c0 1.929-.49 3.952-1.426 5.887-1.805 3.73-2.707 5.6-4.513 9.351-.582 1.21.077 2.354 1.285 2.228 13.61-1.41 27.229-2.72 40.849-4.01.095-.008.187-.025.277-.048 1.294-.317 2.187-1.926 1.54-2.95-2.322-3.68-3.484-5.519-5.809-9.188-.93-1.469-1.417-3.246-1.416-5.174l.048-136.98a11953.488 11953.488 0 0 1 44.092 133.84c.937 2.901.511 6.405-1.174 9.652l-1.51 2.91c-.659 1.266.049 2.492 1.325 2.297 13.086-1.999 26.152-4.138 39.174-6.522.063-.012.126-.026.187-.044 1.303-.374 2.171-2.056 1.514-3.053a2317.92 2317.92 0 0 1-5.258-8.008c-.971-1.483-1.478-3.323-1.477-5.342l.107-165.87c.002-2.176.58-4.521 1.67-6.783 1.981-4.115 2.969-6.174 4.937-10.293.654-1.367-.043-2.544-1.297-2.193-13.318 3.725-26.692 7.21-40.099 10.595a2.212 2.212 0 0 0-.176.052c-1.291.442-2.169 2.115-1.561 3.087 2.089 3.34 3.132 5.011 5.216 8.361.852 1.369 1.294 3.059 1.29 4.931l-.232 137.13c-14.67-44.048-29.712-87.962-44.924-131.83.002-3.223 1.37-6.715 3.78-9.651 1.415-1.725 2.123-2.589 3.538-4.32 1.064-1.302.551-2.889-.877-2.715-14.243 1.645-28.462 3.018-42.761 4.056a1.915 1.915 0 0 0-.339.053m90.725-2.573c5.2-1.332 7.792-2.01 12.945-3.382-1.089 3.058-1.659 6.129-1.663 9.041l-.212 165.08c-.003 2.154.312 4.206.927 6.085-4.485.768-6.729 1.143-11.223 1.875.02-11.487.038-22.975.057-34.462l.223-137.85c.004-2.294-.356-4.458-1.054-6.388m-77.36 11.664c4.557-.393 6.841-.609 11.412-1.07l-.002 34.538-.007 136.55c0 2.204.349 4.314 1.024 6.246-5.359.518-8.039.778-13.399 1.309 1.094-2.875 1.666-5.82 1.665-8.636l-.022-163.82c-.001-1.8-.225-3.511-.671-5.115"/><path fill="#0054a3" fill-rule="nonzero" d="M885.44 1201.5v-8.765c0-3.54-2.825-6.42-6.299-6.42-.321 0-.644.026-.962.077-4.305.679-8.376 1.024-12.095 1.024-11.22 0-19.599-3.014-25.616-9.213-8.894-9.164-12.866-25.416-12.141-49.686l.002-85.483c0-32.007 18.538-46.585 35.762-46.585 17.561 0 36.46 14.578 36.46 46.585v10.112h-22.28l2.307-2.751a14.798 14.798 0 0 0 3.457-9.796l-.803-32.492c-.049-1.942-.94-3.722-2.446-4.885-4.746-3.663-12.059-4.209-15.996-4.209-2.72 0-9.497.293-13.669 3.01a6.373 6.373 0 0 0-2.895 5.436l1.65 171.81a6.423 6.423 0 0 0 3.87 5.836c3.51 1.516 7.497 2.285 11.849 2.285 4.424 0 9.23-.768 14.694-2.347 2.994-.864 4.929-3.307 4.929-6.221v-43.223c0-5.93-4.84-10.754-10.788-10.754-.511 0-1.016.036-1.512.106l.221-14.488 27.19 1.139v90.292l-14.889-.398z"/><path fill-rule="nonzero" d="M864.1 991.45c-20.437 0-40.762 17.007-40.762 51.585v85.333c-1.173 39.284 9.67 64.048 42.754 64.048 3.966 0 8.254-.356 12.877-1.086.061-.009.121-.014.181-.014.716 0 1.299.676 1.299 1.42v12.255c0 .767.61 1.394 1.377 1.414l22.059.591a1.414 1.414 0 0 0 1.452-1.414v-97.413c0-.758-.597-1.381-1.354-1.413l-34.305-1.438-.06-.002c-.769 0-1.402.618-1.414 1.394l-.366 23.989c-.013.866.693 1.438 1.426 1.438.362 0 .731-.139 1.022-.452h.001c1.183-1.268 2.681-1.836 4.152-1.836 2.947 0 5.788 2.278 5.788 5.754v43.224c0 .743-.605 1.211-1.318 1.417-4.195 1.213-8.787 2.15-13.305 2.15-3.399 0-6.756-.531-9.868-1.875a1.423 1.423 0 0 1-.852-1.293l-1.65-171.82c-.005-.48.224-.934.626-1.196 2.142-1.395 6.437-2.2 10.937-2.2 4.92 0 10.084.962 12.94 3.166.322.249.495.645.506 1.052l.801 32.465a9.794 9.794 0 0 1-2.289 6.486l-5.597 6.674c-1.425 1.699-.217 4.29 2.001 4.29h30.987c.781 0 1.414-.633 1.414-1.414v-13.697c0-34.195-20.787-51.585-41.46-51.585m13.969 124.23 17.268.723v80.361l-4.888-.13v-3.897c0-2.701-.933-5.187-2.491-7.144a11.186 11.186 0 0 0 2.269-6.765v-43.224c0-7.466-5.231-13.734-12.228-15.349l.07-4.575m10.353-100.3c4.347 6.675 7.138 15.832 7.138 27.654v5.111h-7.893a19.776 19.776 0 0 0 1.375-7.643v-.028l-.001-.026-.619-25.068m-45.152-4.166 1.578 164.28c-.267-.25-.528-.506-.784-.769-7.793-8.03-11.403-23.524-10.731-46.054l.005-.15v-85.482c0-13.352 3.433-24.344 9.932-31.82"/><path fill="#0054a3" fill-rule="nonzero" d="M928.56 1182.8a14.079 14.079 0 0 0 3.334-9.092v-164.61c0-3.734-1.447-7.25-4.075-9.901l-2.141-2.16 29.5-1.435-1.613 2.599a14.033 14.033 0 0 0-2.115 7.416v166.08c0 4.219 1.945 8.283 5.216 10.933l-29.493 1.806 1.387-1.636z"/><path fill-rule="nonzero" d="m961.24 990.3-.09.002-43.083 2.097c-1.482.072-2.179 1.865-1.134 2.919l7.332 7.396a9.06 9.06 0 0 1 2.626 6.381v164.61c0 2.147-.76 4.223-2.148 5.86l-6.338 7.478c-.961 1.135-.14 2.853 1.314 2.853l.114-.003 45.798-2.805c1.595-.098 2.218-2.12.955-3.099l-6.624-5.128a9.06 9.06 0 0 1-3.515-7.166v-166.08c0-1.689.473-3.344 1.363-4.779l4.897-7.889c.721-1.161-.123-2.646-1.467-2.646m-14.227 10.702a19.022 19.022 0 0 0-.566 4.612v166.08c0 2.225.399 4.418 1.148 6.479l-11.418.699c.47-1.671.714-3.409.714-5.168v-164.61c0-2.629-.529-5.179-1.538-7.525l11.66-.568"/><path fill="#0054a3" fill-rule="nonzero" d="M1181.6 946.73a24.066 24.066 0 0 0-7.825-1.416l7.825-2.914v4.33zm-19.501 77.848a23.983 23.983 0 0 0-7.61-2.285 24.48 24.48 0 0 0 7.61-4.722v7.007zm9.324 122.34a24.72 24.72 0 0 0 8.615-7.275l1.836-2.466v7.418l-10.451 2.323zm-59.289 8.979a25.634 25.634 0 0 0 2.136-10.285v-159.53c0-5.979-2.077-11.78-5.848-16.335l-.057-.07 25.674-9.562v195.1l-23.922 5.314 2.017-4.639z"/><path fill-rule="nonzero" d="m1186.6 935.21-84.708 31.55c-.904.325-1.208 1.489-.586 2.24l3.265 3.942c3.032 3.664 4.698 8.326 4.698 13.147v159.53a20.79 20.79 0 0 1-1.72 8.291l-4.833 11.112c-.415.952.281 1.982 1.231 1.982.092 0 .187-.011.284-.031l81.56-18.119c.631-.135 1.083-.709 1.083-1.375v-21.248c0-.861-.677-1.408-1.372-1.408-.387 0-.78.17-1.063.551l-8.411 11.289c-2.8 3.759-6.79 6.38-11.271 7.404l-25.718 5.667v-120.4l8.162-1.724a18.917 18.917 0 0 1 4.295-.494c3.773 0 7.5 1.13 10.708 3.302l2.792 1.889c.236.16.492.232.741.232.707 0 1.362-.582 1.362-1.407v-22.143a1.38 1.38 0 0 0-1.367-1.407 1.31 1.31 0 0 0-.925.386l-5.579 5.448a19.364 19.364 0 0 1-8.723 4.925l-11.466 2.945v-58.889l27.999-10.944a18.969 18.969 0 0 1 6.45-1.132c3.228 0 6.442.828 9.339 2.455l1.765.993c.21.118.432.171.648.171.711 0 1.36-.588 1.36-1.406v-17.323zm-57.561 32.109v183.9l-10.821 2.404a30.7 30.7 0 0 0 1.051-8.003V986.09c0-4.863-1.151-9.63-3.312-13.897l13.082-4.873"/><path fill="#0054a3" fill-rule="nonzero" d="M1271.7 906.46a25.855 25.855 0 0 0-8.122.02 957.392 957.392 0 0 0 8.107-4.116l.015 4.096m-18.599 82.223a19.013 19.013 0 0 0-7.058-1.409c2.571-1.514 4.971-3.582 7.06-6.078l-.002 7.487m9.029 129.93c3.066-2.231 5.82-5.195 8.003-8.687l1.811-2.9-.006 7.716a722.833 722.833 0 0 1-9.808 3.871m-58.16 15.302a28.429 28.429 0 0 0 2.048-10.645c.012-56.876.035-113.75.032-170.63 0-6.286-1.974-12.204-5.656-16.749l-.017-.023c10.01-4.325 14.735-6.415 24.155-10.704.05 68.946-.028 137.89-.05 206.84-8.797 2.83-13.209 4.163-22.486 6.785.792-1.944 1.186-2.92 1.974-4.877"/><path fill-rule="nonzero" d="M1276.6 894.97c-27.18 13.616-54.735 26.205-82.704 38.111-.904.381-1.211 1.608-.587 2.36a633.72 633.72 0 0 1 3.253 3.945c3.003 3.667 4.614 8.45 4.614 13.53.001 56.877-.014 113.75-.02 170.63a22.807 22.807 0 0 1-1.677 8.586 877.615 877.615 0 0 1-4.765 11.496c-.412.978.282 1.97 1.221 1.918.092-.005.186-.02.282-.046 27.078-7.613 53.424-16.701 79.575-27.051.633-.255 1.09-.934 1.091-1.624.005-8.796.01-13.274.019-22.319.001-.916-.682-1.367-1.379-1.234-.388.073-.781.329-1.065.787-3.366 5.435-5.018 8.112-8.28 13.389-2.715 4.391-6.534 7.712-10.738 9.373-10.778 3.884-15.915 5.617-26.421 8.905.017-42.97.055-85.939.07-128.91a485.746 485.746 0 0 0 10.211-2.998 16.524 16.524 0 0 1 3.94-1.032c3.467-.456 6.914.255 9.911 2.121 1.043.65 1.565.972 2.615 1.615a.994.994 0 0 0 .696.134c.666-.11 1.285-.841 1.286-1.73.004-9.531.005-14.269.005-23.615 0-.891-.632-1.379-1.291-1.272-.302.049-.612.225-.869.548a2694.788 2694.788 0 0 0-5.211 6.568c-2.274 2.874-5.049 5.073-8.05 6.352a505.276 505.276 0 0 1-13.241 4.657c.003-20.474.001-40.95-.018-61.426a947.722 947.722 0 0 0 28.554-13.619 20.749 20.749 0 0 1 6.136-1.978c3.103-.485 6.244-.245 9.126.753.702.244 1.055.364 1.763.602.211.072.432.079.648.036.713-.141 1.366-.833 1.364-1.604-.022-6.543-.034-9.742-.064-15.961m-56.719 37.667c.009 18.608.011 37.216.009 55.824l-.002 9.228c-.013 42.938-.042 85.878-.056 128.82v1.736a536.018 536.018 0 0 1-10.142 3.105 34.606 34.606 0 0 0 1.029-8.405c.015-56.871.045-113.74.04-170.62 0-5.053-1.066-9.902-3.09-14.181 4.964-2.207 7.393-3.303 12.212-5.509"/><path fill="#0054a3" fill-rule="nonzero" d="M1390.6 1073.91c1.982-3.25 3.066-6.99 3.06-10.552-.118-65.164-.227-130.33-.344-195.49-.008-4.016-1.377-7.216-3.82-9.058a329.591 329.591 0 0 1-3.266-2.487c10.441-5.064 20.826-10.223 31.211-15.403a1990.57 1990.57 0 0 0-2.403 5.418c-1.318 2.981-2.014 6.045-2.015 8.866-.037 66.981-.07 133.96-.107 200.94-.002 4.776 1.878 8.723 5.234 10.835.53.334.796.501 1.328.833-10.445 3.333-20.887 6.667-31.309 10.075.975-1.592 1.46-2.387 2.431-3.979"/><path fill-rule="nonzero" d="M1423 833.11c-.03.013-.061.027-.091.042-14.338 7.075-28.563 14.381-43.075 21.098-1.401.639-2.053 2.942-1.069 3.76 2.761 2.295 4.172 3.413 7.021 5.633 1.635 1.275 2.567 3.527 2.571 6.292.121 64.896.234 129.79.355 194.68.004 2.478-.74 5.064-2.109 7.309-2.503 4.103-3.76 6.153-6.314 10.282-.968 1.565-.135 3.289 1.324 2.885.038-.01.076-.022.115-.036 15.142-5.177 30.457-9.816 45.667-14.789 1.684-.553 2.351-3.052 1.01-3.828a220.952 220.952 0 0 1-6.908-4.146c-2.277-1.412-3.584-4.162-3.581-7.449.06-67.302.114-134.6.174-201.91.002-1.973.485-4.11 1.397-6.175a3019.85 3019.85 0 0 1 5.005-11.283c.736-1.649-.122-2.973-1.492-2.373m-14.028 17.049c-.709 2.482-1.075 4.94-1.075 7.268l.013 199.95c0 3.143.632 6.013 1.818 8.449-5.026 1.606-7.492 2.388-12.451 3.996.818-2.554 1.247-5.183 1.244-7.738-.089-65.463-.172-130.93-.261-196.39-.005-3.585-.854-6.67-2.429-9.02 5.195-2.551 7.838-3.876 13.141-6.52"/><path fill="#0054a3" fill-rule="nonzero" d="M1440.4 1060.62c1.139-3.289 1.701-4.932 2.815-8.217 1.147-3.378 1.737-6.772 1.728-9.825-.189-66.973-.373-133.94-.562-200.92-.006-2.472-.378-4.612-1.11-6.357a935.35 935.35 0 0 0-2.574-6.111c8.905-4.384 17.92-8.67 27.055-12.559-.08.164-.119.246-.197.41-2.392 4.991-3.846 10.553-4.036 15.425-.613-2.479-.921-3.714-1.535-6.177.389 70.059.765 140.12 1.152 210.18.017 3.064.579 5.801 1.616 7.934 1.182 2.432 1.771 3.652 2.942 6.096-9.19 3.055-18.322 6.483-27.294 10.125m65.622-23.228c1.632-5.067 2.009-10.405 1.005-14.762-9.749-42.612-19.008-85.333-28.726-127.95 10.49 44.583 20.441 89.29 31.061 133.84-.208-70.214-.405-140.43-.61-210.64-.009-2.988-.536-5.746-1.514-7.963l-2.805-6.341c8.951-3.205 18.686-5.656 28.077-7.102a592.098 592.098 0 0 0-3.122 7.322c-1.427 3.4-2.165 7.038-2.162 10.497.063 67.497.121 134.99.185 202.49.003 3.176.642 6.086 1.869 8.415a441.13 441.13 0 0 0 2.934 5.499c-11.341 2.619-16.388 3.888-26.192 6.698"/><path fill-rule="nonzero" d="M1436.3 826.24c-1.112.817-1.941 2.908-1.477 3.967a966.558 966.558 0 0 1 4.282 9.871c.561 1.312.851 2.955.854 4.827l.335 200.45c.004 2.329-.456 4.897-1.351 7.475a1139.327 1139.327 0 0 1-4.395 12.446c-.578 1.609.08 2.784 1.269 2.301 11.929-4.748 23.872-9.381 36.102-13.313.076-.024.152-.056.226-.096 1.051-.572 1.762-2.636 1.229-3.78a1221.92 1221.92 0 0 0-4.817-10.254c-.777-1.634-1.193-3.715-1.206-6.063-.327-56.596-.647-113.19-.971-169.79 12.851 53.644 24.469 107.56 36.665 161.36.793 3.476.457 7.741-.913 11.765l-1.224 3.605c-.532 1.57.054 3 1.103 2.686 11.616-3.461 23.379-6.411 35.197-9.094.063-.014.126-.033.188-.054 1.311-.458 2.2-2.449 1.531-3.621a395.687 395.687 0 0 1-5.261-9.476c-.955-1.767-1.451-3.966-1.452-6.386-.034-67.428-.066-134.86-.101-202.28 0-2.629.574-5.372 1.679-7.915 2.01-4.625 3.03-6.916 5.105-11.441.688-1.502-.052-3.048-1.363-2.873-12.701 1.686-25.2 4.786-37.186 9.316-.05.018-.099.041-.148.066-1.085.559-1.808 2.615-1.293 3.78 1.773 4.005 2.664 6.03 4.458 10.12.735 1.672 1.123 3.741 1.131 6.031.195 56.684.383 113.37.576 170.05-12.321-53.086-24.213-106.26-37.424-159.14-.024-3.92 1.062-8.434 2.985-12.442 1.129-2.354 1.692-3.527 2.817-5.865.847-1.758.422-3.588-.726-3.122-12.281 5.043-24.186 10.891-36.114 16.703a2.076 2.076 0 0 0-.31.189m75.165-19.75c5.263-1.574 7.964-2.269 13.608-3.457-1.662 4.19-2.517 8.631-2.511 12.827.093 67.535.182 135.07.277 202.6.005 3.283.545 6.339 1.586 8.942a404.19 404.19 0 0 0-10.73 2.709c-.037-14.6-.073-29.199-.108-43.799-.136-56.791-.267-113.58-.405-170.37-.009-3.501-.605-6.762-1.717-9.455m-63.835 24.513a549.392 549.392 0 0 1 10.226-4.789l.224 43.835c.287 56.279.57 112.56.859 168.84.017 3.374.585 6.423 1.636 8.904-5.165 1.846-7.812 2.841-13.363 5.005l.261-.785c1.386-4.179 2.096-8.381 2.081-12.166-.251-67.138-.497-134.28-.749-201.42-.011-2.84-.404-5.338-1.175-7.426"/><path fill="#0054a3" fill-rule="nonzero" d="M1343.3 1082.87c.318-1.89.366-3.824.142-5.741-4.665-40.118-9.006-80.272-13.459-120.41 16.431-11.171 19.554-37.4 17.296-55.151-1.339-10.54-7.587-23.997-20.309-23.124 1.821-.506 3.705-.821 5.497-1.053 18.132-2.353 33.269 13.753 33.108 31.339v5.887c.003 11.325-6.362 23.45-13.626 31.868l-1.918 2.144.293 2.893c4.003 38.644 7.901 77.297 12.036 115.93.329 3.058 1.197 5.927 2.582 8.535 1.476 2.786 2.215 4.173 3.694 6.933a2536.588 2536.588 0 0 0-26.85 8.967c.606-3.572.909-5.374 1.514-9.01m-50.213 20.45c1.409-3.395 2.127-7.029 2.129-10.79.027-60.076.052-120.15.078-180.23.003-6.415-2.066-12.32-5.835-16.666l-.017-.021a6105.859 6105.859 0 0 1 26.002-12.313c-.018 26.543-.034 53.086-.049 79.629l.229-.092c-.024 41.013-.048 82.026-.074 123.04-.002 3.278.828 6.412 2.403 9.071l.162.275a910.398 910.398 0 0 0 2.942 3.718c-9.98 3.046-19.954 6.104-29.936 9.141a1488.27 1488.27 0 0 0 1.966-4.762"/><path fill-rule="nonzero" d="M1320.4 955.051c.013-23.128.026-46.255.041-69.383l3.662-1.633c.84-.241 1.655-.401 2.441-.483 28.034-1.475 16.783 60.43-.485 69.223l-5.659 2.276m12.08-82.7c-4.258.451-8.618 1.631-12.94 3.643a5832.244 5832.244 0 0 0-36.616 17.19c-.913.425-1.213 1.667-.591 2.383a975.759 975.759 0 0 1 3.278 3.771c3.036 3.521 4.695 8.288 4.693 13.449l-.054 180.04a22.904 22.904 0 0 1-1.715 8.715c-1.923 4.7-2.884 7.025-4.805 11.611-.407.979.283 1.967 1.231 1.909.09-.006.184-.022.28-.048 13.847-4.169 27.684-8.367 41.528-12.546 1.419-.422 2.021-2.199 1.121-3.33a1000.738 1000.738 0 0 1-5.633-7.145c-1.117-1.897-1.705-4.132-1.704-6.451.025-39.834.047-79.667.07-119.5 2.04-.815 3.06-1.222 5.101-2.039 4.206 38.024 8.34 76.054 12.761 114.05a14.705 14.705 0 0 1-.102 4.134c-.927 5.572-1.391 8.325-2.318 13.748-.201 1.402.851 2.513 2.118 2.444.188-.011.38-.047.574-.112a2548.062 2548.062 0 0 1 34.414-11.325c1.458-.461 2.203-2.196 1.569-3.628a1660.796 1660.796 0 0 1-5.401-10.181 18.297 18.297 0 0 1-1.98-6.574c-4.14-38.717-8.038-77.458-12.052-116.19 8.484-10.079 15.001-22.936 15.3-36.313v-5.898c.218-21.196-16.629-38.135-38.127-35.813m12.331 74.938c.223 2.129.334 3.197.556 5.335 3.994 38.561 7.887 77.131 12.018 115.68.406 3.765 1.476 7.285 3.182 10.479l.567 1.061a2549.49 2549.49 0 0 0-13.011 4.406l.118-.709c.408-2.428.47-4.907.182-7.371-4.428-38.14-8.57-76.312-12.79-114.48l-.268-2.416c3.741-3.129 6.89-7.245 9.446-11.986m-34.35-56.176-.041 64.865-.008 14.805.228-.091-.069 115.49c-.002 3.548.752 6.957 2.195 9.977-5.423 1.674-8.133 2.511-13.546 4.179.656-2.636.987-5.358.989-8.142.032-60.138.061-120.28.093-180.41.003-5.169-1.121-10.057-3.238-14.273a6680.47 6680.47 0 0 1 13.397-6.393m37.09-5.733c7.975 4.057 13.547 15.13 13.021 23.867v5.878c-.037 9.998-5.798 19.916-11.94 27.433l-3.195 3.535c6.593-13.887 9.345-30.665 6.789-45.934-.9-5.837-2.499-10.785-4.675-14.779"/><path fill="#0054a3" fill-rule="nonzero" d="M1576.7 1021.42c-3.767-1.729-7.734-4.455-11.402-8.708-8.268-9.585-12.638-24.531-12.638-43.222V829.16c0-32.007 18.538-46.585 35.763-46.585 17.56 0 36.46 14.578 36.46 46.585v30.112h-22.282l2.308-2.751a14.8 14.8 0 0 0 3.457-9.796l-.802-52.445c-.047-1.987-.94-3.77-2.451-4.935-4.742-3.66-12.056-4.207-15.993-4.207-2.72 0-9.496.294-13.667 3.011a6.374 6.374 0 0 0-2.897 5.437l1.651 222.8a6.448 6.448 0 0 0 2.493 5.034m33.071 15.203v-8.765c0-3.51-2.823-6.476-6.166-6.476-.828 0-1.633.176-2.39.522-2.37 1.083-5.009 1.812-7.773 2.155 3.941-.639 8.009-2.072 12.146-4.284 2.652-1.414 3.962-3.361 3.962-5.827v-57.222c0-5.93-4.84-10.754-10.788-10.754-.511 0-1.016.036-1.513.106l.222-14.488 27.189 1.14v104.29l-14.889-.399z"/><path fill-rule="nonzero" d="M1588.4 777.55c-20.437 0-40.763 17.006-40.763 51.585v140.33c0 44.236 22.907 59.796 42.09 59.796 4.905 0 9.569-1.018 13.542-2.834a.747.747 0 0 1 .314-.069c.618 0 1.166.785 1.166 1.475v12.255c0 .767.61 1.394 1.377 1.414l22.059.591.039.001c.779 0 1.413-.632 1.413-1.415v-111.41c0-.758-.597-1.381-1.354-1.413l-34.305-1.438a1.415 1.415 0 0 0-1.474 1.392l-.366 23.988c-.013.867.693 1.439 1.426 1.439.361 0 .731-.139 1.023-.452 1.183-1.268 2.68-1.836 4.152-1.836 2.947 0 5.788 2.278 5.788 5.754v57.223c0 .743-.663 1.067-1.318 1.418-4.955 2.647-9.793 4.077-14.461 4.077-2.978 0-5.888-.582-8.712-1.802a1.425 1.425 0 0 1-.852-1.294l-1.65-222.82a1.4 1.4 0 0 1 .626-1.196c2.142-1.395 6.437-2.2 10.937-2.2 4.92 0 10.084.962 12.94 3.166.322.249.496.645.506 1.052l.801 52.465a9.796 9.796 0 0 1-2.289 6.486l-5.596 6.674c-1.426 1.699-.218 4.29 2.001 4.29h30.986c.78 0 1.414-.633 1.414-1.415v-33.696c0-34.195-20.787-51.585-41.46-51.585m13.969 159.23 17.268.723v94.361l-4.888-.13v-3.897c0-2.728-.932-5.238-2.486-7.21 1.893-2.446 2.264-5.043 2.264-6.7V956.7c0-7.466-5.231-13.735-12.229-15.35l.071-4.574m10.282-135.41c4.387 6.684 7.209 15.878 7.209 27.763v25.111h-7.892a19.656 19.656 0 0 0 1.375-7.603l-.692-45.271m-45.09-4.049 1.572 212.18-.072-.084c-7.473-8.664-11.424-22.48-11.424-39.955v-140.33c0-13.347 3.43-24.335 9.924-31.812"/><path fill="#0054a3" fill-rule="nonzero" d="M679.71 976.79c-2.634-2.153-5.455-4.062-8.331-5.618l8.337 1.94-.006 3.678m-21.199 61.52a48.707 48.707 0 0 0-8.402-5.905c3.096.304 5.955 0 8.418-.884l-.016 6.789m9.808 125.69c3.56-.412 6.635-1.788 9.002-4.03a464.52 464.52 0 0 0 1.885-1.795c-.006 2.973-.009 4.461-.013 7.434a623.545 623.545 0 0 1-10.874-1.609m-64.529-15.054c1.485-2.721 2.243-5.928 2.239-9.543-.057-54.721-.069-109.44-.105-164.16-.004-6.054-2.22-13.057-6.099-19.858l-.059-.105a1245.197 1245.197 0 0 1 27.571 5.832c.072 65.342.003 130.68.121 196.02-10.53-1.82-15.789-2.735-25.777-4.311.841-1.549 1.262-2.324 2.109-3.875"/><path fill-rule="nonzero" d="M684.92 969.88c-30.481-7.473-60.957-15.062-91.708-21.361-.898-.194-1.198.824-.581 1.954a586.412 586.412 0 0 0 3.267 5.912c3.062 5.478 4.802 11.146 4.805 16.068.026 54.989.037 109.98.077 164.96.003 2.9-.607 5.529-1.777 7.724a1371.4 1371.4 0 0 0-4.942 9.341c-.42.799.284 2.086 1.251 2.442.095.035.191.06.291.076 29.208 4.595 58.261 10.085 87.534 14.268.632.089 1.082-.327 1.083-.995.016-8.515.028-12.777.057-21.281.003-.861-.671-1.649-1.369-1.899-.39-.14-.786-.111-1.073.167a440.633 440.633 0 0 1-8.669 8.195c-2.929 2.709-7.148 3.8-11.981 3.045-9.421-1.543-18.828-3.177-28.229-4.833-.063-40.644-.053-81.288-.045-121.93 3.626.922 5.446 1.385 9.082 2.304 1.582.369 3.186.914 4.779 1.612 4.195 1.838 8.319 4.739 11.836 8.365l3.05 3.142c.257.265.535.453.807.569.77.326 1.484.061 1.487-.74.027-8.596.04-12.862.064-21.294.002-.804-.724-1.667-1.489-2.01-.352-.158-.711-.206-1.011-.086-2.449.98-3.68 1.476-6.15 2.478-2.709 1.1-6.046 1.271-9.686.461-5.106-1.133-7.672-1.706-12.768-2.842.001-19.149-.004-38.297-.02-57.446a3178.304 3178.304 0 0 1 31.155 6.403c2.297.537 4.672 1.457 7.016 2.683 3.482 1.822 6.895 4.317 9.916 7.274l1.833 1.795c.218.213.447.377.67.492.734.376 1.402.213 1.404-.485.019-5.908.026-8.816.034-14.53m-63.096-4.821c.019 17.841.03 35.68.037 53.52l.003 8.202c.013 40.917.023 81.834.089 122.75l.003 1.494c-4.735-.812-7.088-1.213-11.72-1.98.745-2.333 1.12-4.893 1.116-7.653-.07-54.462-.077-108.92-.118-163.39-.004-4.882-1.249-10.287-3.542-15.808 5.543 1.09 8.388 1.668 14.132 2.86"/><path fill="#0054a3" fill-rule="nonzero" d="m522.1 1046.258 32.343-23.782a1.014 1.014 0 0 1 1.432.238l22.145 31.845a.163.163 0 0 1-.04.229l-31.234 24.479a.165.165 0 0 1-.228-.037l-24.632-31.553a1.013 1.013 0 0 1 .214-1.419"/><path fill-rule="nonzero" d="M525.06 1050.261c1.371-.975 1.992-2.853 1.446-4.458a3.923 3.923 0 0 0-.599-1.161l.169.209.398.495 1.59 1.977 3.181 3.956 6.232 8.008a2112.758 2112.758 0 0 0 12.39 16.076l.392.498.197.249.044.056a4.828 4.828 0 0 0-1.735-1.42 4.858 4.858 0 0 0-4.468.122c-.551.329-.625.421-.528.339l.031-.024.062-.05.124-.098.249-.197.497-.393 1.99-1.576 3.979-3.15 7.959-6.298 7.989-6.257 8.054-6.171.254-.19.032-.023c.084-.06-.008-.008-.331.272a4.825 4.825 0 0 0-1.287 1.899c-.546 1.423-.334 3.143.547 4.399l-.334-.505-.7-1.058-1.402-2.115-2.776-4.25c-1.85-2.834-3.655-5.699-5.469-8.557l-5.46-8.564-2.743-4.273-1.372-2.136-.696-1.062-.044-.065c-.016-.025-.009-.014.018.025l.06.079a2.653 2.653 0 0 0 .957.744 2.583 2.583 0 0 0 2.329-.104l.169-.103c.051-.034.134-.099.081-.06l-.13.092-.519.365-1.038.729-2.072 1.464-4.109 2.978a154.502 154.502 0 0 0-8.045 6.19c-5.205 4.342-10.191 8.982-15.563 13.097m-5.924-8.057c5.53-3.9 11.445-7.277 17.141-10.95a154.517 154.517 0 0 0 8.307-5.834l4.067-3.034 2.016-1.542 1.006-.772.503-.387.126-.097.211-.148a4.59 4.59 0 0 1 1.654-.685 4.612 4.612 0 0 1 4.015 1.129c.176.165.345.341.49.529l.221.295.752 1.023 1.526 2.029 3.051 4.059 6.128 8.099c2.048 2.696 4.106 5.385 6.119 8.106l3.018 4.082 1.495 2.05.748 1.025.391.537c.941 1.343 1.168 3.179.584 4.701a5.17 5.17 0 0 1-1.375 2.03l-.424.347-.245.201-7.921 6.349-7.986 6.263-8.016 6.221-4.008 3.111-2.004 1.554-.502.389-.25.194-.125.098-.063.048-.032.024c.077-.065-.018.044-.592.385a5.19 5.19 0 0 1-5.819-.544 5.162 5.162 0 0 1-.811-.846l-.053-.068-.193-.251-.388-.502a2160.346 2160.346 0 0 0-12.589-15.923l-6.258-7.989-4.596-6.066-.383-.506-.22-.291a6.028 6.028 0 0 1 1.284-8.443"/><path fill="#0054a3" fill-rule="nonzero" d="M515.48 931.82a63.614 63.614 0 0 0-5.916-5.797c2.403 1.094 3.589 1.636 5.922 2.704l-.006 3.093m-19.118 61.515a56.052 56.052 0 0 0-6.386-6.293c2.329.483 4.494.491 6.41.03l-.024 6.263m10.562 135.28c2.631-.314 4.913-1.372 6.732-3.129.51-.492.764-.738 1.27-1.233l-.013 6.619a555.488 555.488 0 0 1-7.989-2.257m-59.987-22.609c1.343-2.618 2.035-5.847 2.037-9.617.022-58.871.084-117.74.126-176.61.005-6.408-1.962-14.029-5.412-21.615 9.324 3.456 14.354 5.475 24.457 9.686-.097 69.571-.301 139.14-.349 208.71-9.291-2.971-13.913-4.474-22.557-7.246l1.698-3.306"/><path fill-rule="nonzero" d="M520.31 926.23c-27.304-12.979-54.708-25.578-82.94-36.422-.81-.31-1.081.718-.524 1.975a897.913 897.913 0 0 0 2.945 6.596c2.763 6.132 4.335 12.344 4.333 17.584-.025 59.201-.063 118.4-.077 177.6-.001 2.994-.546 5.62-1.585 7.718a7256.383 7256.383 0 0 0-4.369 8.83c-.369.747.249 2.13 1.1 2.614.083.048.169.086.256.115 26.305 8.5 52.548 17.331 79.249 24.53.566.157.97-.22.971-.901.014-8.685.025-13.077.051-21.899.003-.894-.6-1.781-1.225-2.113-.349-.184-.704-.195-.962.065-3.06 3.081-4.629 4.601-7.816 7.594-2.653 2.491-6.485 3.167-10.887 1.878-10.108-3.046-15.409-4.728-25.758-8.033.041-43.431.148-86.862.252-130.29 3.306 1.432 4.966 2.153 8.279 3.589 1.442.593 2.902 1.378 4.353 2.328 3.816 2.501 7.559 6.14 10.74 10.475l2.758 3.757c.232.315.484.553.729.71.697.445 1.342.25 1.346-.611.039-9.229.058-13.803.094-22.804.003-.858-.651-1.875-1.341-2.345-.318-.216-.643-.315-.914-.227-2.216.72-3.333 1.087-5.576 1.839-2.461.825-5.496.58-8.81-.753a4148.58 4148.58 0 0 0-11.638-4.658c.048-20.376.093-40.753.125-61.129 9.476 3.74 18.903 7.635 28.276 11.625 2.065.932 4.194 2.27 6.287 3.912 3.11 2.443 6.14 5.553 8.806 9.067l1.617 2.133c.191.253.393.458.589.61.646.503 1.233.442 1.235-.27.016-6.032.023-8.976.031-14.689m-57.465-14.922a174160.58 174160.58 0 0 1-.099 65.35c-.076 43.847-.153 87.694-.184 131.54l-.001 1.106-9.389-3.007c.552-2.146.832-4.528.833-7.128.032-58.539.117-117.08.176-175.62.004-5.069-1.052-10.782-3.011-16.726 4.58 1.707 6.93 2.612 11.675 4.481"/><path fill="#0054a3" fill-rule="nonzero" d="m322.81 1064.42 3.645-4.42a17.503 17.503 0 0 0 3.988-11.108v-188.32c0-1.121-.108-2.245-.322-3.341l-2.949-15.134 29.571 12.891-1.107 1.357 25.576 98.253-10.692 20.641-21.077-79.577v163.11c0 1.486.191 2.969.566 4.408l3.196 12.251-30.395-11.008zm67.534 26.429 3.446-4.175a17.503 17.503 0 0 0 3.994-11.114V893.24c0-1.118-.109-2.241-.323-3.339l-2.863-14.704 29.386 14.147-2.809 3.172a17.439 17.439 0 0 0-4.391 11.578v179.35c0 1.487.19 2.97.565 4.408l3.305 12.668-30.31-9.666z"/><path fill-rule="nonzero" d="M322.83 834.86c-1.056 0-1.963.969-1.739 2.118l4.123 21.162c.154.785.231 1.583.231 2.384v188.32a12.46 12.46 0 0 1-2.847 7.928l-6.553 7.946a1.776 1.776 0 0 0 .765 2.799l40.46 14.654c.206.074.412.108.611.108 1.103 0 2.017-1.055 1.711-2.226l-4.744-18.186a12.463 12.463 0 0 1-.403-3.146v-124.7l14.558 54.97 23.782-45.91v132.43c0 2.895-1.008 5.699-2.851 7.931l-6.479 7.853c-.8.969-.368 2.439.83 2.821l40.429 12.893c.184.06.368.087.547.087 1.108 0 2.014-1.06 1.71-2.226l-4.783-18.334a12.463 12.463 0 0 1-.403-3.146V904.05c0-3.045 1.114-5.985 3.133-8.263l5.639-6.365a1.776 1.776 0 0 0-.559-2.777l-39.024-18.786a1.78 1.78 0 0 0-.772-.18c-1.052 0-1.966.964-1.741 2.119l4.094 21.016c.152.784.23 1.582.23 2.382v29.878l-9.5 19.59-22.17-85.17 2.19-2.687a1.775 1.775 0 0 0-.666-2.749l-39.096-17.044a1.79 1.79 0 0 0-.713-.151m78.582 49.119 14.559 7.009a22.433 22.433 0 0 0-4.186 13.059v179.34c0 1.912.244 3.82.727 5.67l1.013 3.885-14.706-4.691a22.52 22.52 0 0 0 3.966-12.743v-182.32c0-1.437-.14-2.883-.415-4.294l-.958-4.92m-67.511-33.543 16.97 7.399.566 2.175 22.17 85.17 2.284 8.774-3.853 7.436-7.927-29.929-19.666-74.256v201.52c0 1.912.244 3.82.727 5.67l.796 3.05-14.83-5.371a22.52 22.52 0 0 0 4.307-13.226v-188.32c0-1.438-.14-2.884-.415-4.297l-1.129-5.791"/><path fill="#0054a3" fill-rule="nonzero" d="M285.42 820.2a21.976 21.976 0 0 0-4.205-1.331 17.225 17.225 0 0 0-3.536-.376c-2.38 0-4.664.518-6.82 1.542 2.052-1.143 4.214-1.729 6.475-1.729.854 0 1.745.077 2.65.227 1.93.321 3.74.883 5.436 1.667m-19.084 218.73c-21.42-17.318-20.016-80.852-18.957-128.8l.066-2.977c.928-42.095 7.899-71.94 18.891-83.518v215.29zm11.878 4.466a14.24 14.24 0 0 1-1.755-.112 19.498 19.498 0 0 1-7.107-2.311 20.014 20.014 0 0 0 6.565 2.048c.607.08 1.217.121 1.817.121 30.964 0 32.271-101.65 32.312-105.98.161-17.561.115-34.632-.755-50.099.995 16.102 1.025 33.543.826 50.593-.309 26.566-3.174 52.384-7.861 70.835-4.044 15.923-11.499 34.905-24.041 34.905h-.001z"/><path fill-rule="nonzero" d="M277.73 1038.14c-.383 0-.767-.024-1.158-.077-1.88-.25-3.63-.819-5.24-1.699v-210.85c1.935-1.314 4.045-2.019 6.341-2.019.813 0 1.649.088 2.509.269 24.12 5.07 25.34 60.99 24.86 113.35-.382 40.867-8.754 101.03-27.312 101.03m-.401-224.83c-24.737 0-33.854 46.874-34.887 93.735-1.33 60.67-3.62 136.55 33.39 141.2.807.1 1.601.151 2.377.151 28.35 0 36.387-66.239 36.903-110.68.67-57.34-1.02-118.57-34.31-124.11a21.144 21.144 0 0 0-3.473-.295m-15.997 29.869v180.26c-2.779-6.379-4.956-14.742-6.49-24.951-3.852-25.617-3.117-58.89-2.468-88.245l.065-2.974c.556-25.188 3.356-46.515 8.101-61.675.238-.761.503-1.571.792-2.412"/><path fill="#0054a3" fill-rule="nonzero" d="m196.42 864.8 2.447-2.618c3.863-4.134 5.843-8.27 5.885-12.293l-.417-56.984c19.65 14.861 19.571 42.734 19.457 46.656-.169 5.809-.069 18.711-.018 23.987.013 1.395.185 2.789.51 4.145l1.494 5.445-29.358-8.338zm-30.893 30.744c-13.471-12.192-20.411-27.893-20.411-62.172 0-7.068 1.124-38.242 20.411-47.135v109.31zm38.384 28.173c11.059 9.362 19.238 22.934 19.238 49.322 0 27.869-8.643 40.475-19.25 46.033l.012-95.355zm-38.731 96.376c-13.778-5.943-20.371-20.518-20.075-44.145.01-.811.018-1.48.01-1.983-.046-3.102-.028-10.601-.013-14.794.01-3.097-.76-6.16-2.228-8.86l-2.984-5.49 31.608 5.734-2.942 4.14c-2.208 3.106-3.376 6.784-3.376 10.634v54.764z"/><path fill-rule="nonzero" d="M177 778.82c-30.982-.001-36.876 35.771-36.876 54.51 0 51.89 16.646 64.334 43.376 81.171 9.058 5.705 15.419 10.858 15.419 10.858l-.012 93.396a37.382 37.382 0 0 1-14.445 2.865c-4.685 0-9.445-.831-14.274-2.373v-53.96c0-2.786.859-5.499 2.451-7.738l5.69-8.005c.831-1.17.189-2.841-1.188-3.091l-42.706-7.746a1.962 1.962 0 0 0-.337-.03c-1.389 0-2.345 1.589-1.621 2.921l6.012 11.058a13.429 13.429 0 0 1 1.62 6.456c-.015 4.384-.032 11.763.015 14.885.106 7.223-3.293 51.194 37.774 54 1.952.134 3.881.204 5.776.204 24.946 0 44.483-12.246 44.483-55.204 0-39.77-18.215-52.786-34.786-62.667-11.856-7.067-22.836-16-22.836-16V787.66c2.243-.509 4.673-.779 7.218-.779 6.826 0 14.48 1.944 21.593 6.446l.414 56.464c-.035 3.34-2.302 6.537-4.538 8.931l-5.819 6.226c-.997 1.069-.528 2.86.853 3.251l39.485 11.214c.171.048.339.07.503.07 1.196 0 2.152-1.207 1.798-2.496l-2.888-10.508a13.516 13.516 0 0 1-.373-3.025c-.044-4.547-.154-17.962.016-23.794.32-11-2.641-54.049-45.137-60.333a45.523 45.523 0 0 0-6.66-.511m-28.146 172.67 14.19 2.574a23.263 23.263 0 0 0-2.856 11.227v45.628c-2.656-2.528-4.765-5.745-6.386-9.691-3.888-9.462-3.749-20.529-3.69-25.256.011-.867.018-1.581.011-2.118-.046-3.07-.028-10.53-.014-14.703a23.54 23.54 0 0 0-1.255-7.661m60.064-15.056c5.677 8.163 9.239 19.378 9.239 36.567 0 16.565-3.11 28.609-9.248 35.834l.009-72.401m.516-131.15a45.626 45.626 0 0 1 3.784 6.666c5.716 12.287 5.654 25.002 5.583 27.426-.172 5.902-.071 18.877-.019 24.182.008.801.056 1.6.146 2.395l-13.552-3.847c2.869-3.996 4.34-8.086 4.383-12.203l.001-.089-.001-.089-.325-44.441m-48.899-9.167v86.054c-.111-.167-.22-.336-.329-.505-6.879-10.729-10.082-26.087-10.082-48.333 0-5.302.57-18.843 5.856-30.002 1.403-2.961 2.943-5.327 4.555-7.214M1363.7 481.47a.473.473 0 0 1-.171-.03c.051 0 .101-.01.16-.02.011.01.011.03.011.05"/><path fill-rule="nonzero" d="M1363.7 481.47a.473.473 0 0 1-.171-.03c.051 0 .101-.01.16-.02.011.01.011.03.011.05"/><path fill="#1a83af" fill-rule="nonzero" d="M1271.3 420.83v251.4c0 318.02-773.78 318.02-773.78 0V388.02c0-155.71 91.99-289.94 224.59-351.3v293.59c0 114.59 331.3 114.59 331.3 0V122.72c128.13 35.718 217.89 145.04 217.89 298.11"/><path fill="#35b0e6" fill-rule="nonzero" d="m756.78 391.485 131.67 28.503 124.89-32.017 35.778-49.333 6.638-11.333 1.029 59.666c-1.383 105.66-348.05 100.99-346.67-4.666l-.611-53.015 47.27 62.195zm465.52 57.227s8.5-203.74-169-267.34l1-53.645s127.67 56.626 160 112.16c31.5 54.097 49 143.76 49 191.25v303.63s-66.415 108.39-56 86.836c17-35.177 18-79.148 18-131.04 0-20.669-2.221-217.86-3-241.84m-682.51-42.748s-5-207 169-304l-1-61s-130 84-161 148-48 143-48 197v340s66.415 118.5 56 94c-17-40-18-80-18-139 0-23.503 2.221-247.73 3-275"/><path fill="#0054a3" fill-rule="nonzero" d="M546.79 741.98c133 210 544.52 208 669.33.333 8.399 39.329-9.87 56.004-30.333 98.667 0 0-96.333 100.67-308.33 91.333-212-9.333-299.67-92.333-299.67-92.333-27.381-46.303-32-50-31-98"/><path fill-rule="nonzero" d="M1251.6 419.83c-.016-31.94-4.03-63.804-12.903-94.227-8.826-30.415-22.584-59.296-40.893-84.968-18.284-25.685-41.16-48.052-67.232-65.909-26.038-17.924-55.225-31.334-85.842-40.002l17.125-13.004v.006c-1.284 37.908-2.128 75.816-2.851 113.72l-.935 56.861-.383 28.431-.079 7.108c-.014.614.001 1.134-.034 1.827l-.107 2.058c-.089 1.371-.12 2.743-.271 4.11-.42 2.729-.699 5.478-1.454 8.148l-.497 2.011c-.16.673-.331 1.341-.574 1.988l-1.353 3.91c-.209.659-.491 1.285-.776 1.91l-.844 1.878c-.566 1.251-1.11 2.514-1.811 3.682l-2 3.564c-.723 1.144-1.493 2.252-2.243 3.375l-1.136 1.676-1.242 1.574c-.833 1.046-1.656 2.102-2.504 3.131l-2.685 2.923c-.452.482-.893.978-1.354 1.448l-1.423 1.354c-7.561 7.282-16.075 13.106-24.916 17.893-8.846 4.807-18.035 8.663-27.362 11.864-9.334 3.185-18.8 5.767-28.344 7.822-9.542 2.063-19.158 3.608-28.8 4.771a353.31 353.31 0 0 1-29.005 2.286c-19.369.724-38.783-.014-58.064-2.389-19.266-2.421-38.458-6.336-57.089-12.829-9.305-3.26-18.462-7.178-27.282-12.023-8.816-4.827-17.236-10.795-24.727-18.111-.965-.874-1.832-1.879-2.728-2.845-.878-.987-1.809-1.915-2.637-2.957-1.646-2.096-3.353-4.133-4.795-6.421l-1.122-1.677-.558-.841-.499-.886-1.978-3.557c-.659-1.186-1.153-2.471-1.73-3.706l-.832-1.874c-.281-.622-.466-1.287-.703-1.93l-1.327-3.897-.981-4.003c-.152-.67-.337-1.334-.457-2.009l-.304-2.035c-.184-1.357-.425-2.714-.545-4.075l-.217-4.09-.049-1.023c-.019-.35-.032-.683-.029-.963l-.013-1.777-.051-7.108-.544-56.861c-.401-37.908-.917-75.815-1.578-113.72-.673-37.908-1.39-75.816-2.478-113.72l19.169 12.252-.004.002c-36.136 17.676-69.53 40.778-98.393 68.59-14.4 13.929-27.769 28.908-39.841 44.865-12.096 15.939-22.828 32.886-32.197 50.534l-3.496 6.628-3.255 6.749-1.629 3.373-.815 1.686-.752 1.716-3.015 6.857-1.519 3.423-1.392 3.477-2.786 6.952c-.972 2.3-1.729 4.683-2.599 7.022l-2.536 7.046c-6.414 18.914-11.238 38.35-14.557 58.036a375.397 375.397 0 0 0-5.189 59.634c-.068 2.45-.041 5.119-.046 7.711l.001 7.817v15.634l.003 31.268.009 125.07.005 62.536.002 15.634v9.771c0 .651-.004 1.319.015 1.894l.077 3.589c.223 9.566 1.2 19.086 2.949 28.462 3.478 18.76 10.108 36.903 19.307 53.837 9.185 16.952 20.911 32.685 34.333 47.029 13.428 14.353 28.535 27.34 44.679 39.049 16.167 11.693 33.386 22.103 51.249 31.376 17.867 9.274 36.401 17.395 55.369 24.395a531.202 531.202 0 0 0 58.004 17.738c19.652 4.782 39.571 8.427 59.566 10.761 9.997 1.166 20.013 1.995 30.009 2.434 2.499.121 4.994.166 7.491.254l7.479.1 7.562-.051 7.565-.171c40.352-1.259 80.696-7.383 119.7-18.08 19.502-5.34 38.673-11.844 57.279-19.59 18.606-7.736 36.671-16.681 53.856-26.955 17.184-10.27 33.46-21.916 48.355-34.976 14.884-13.058 28.359-27.57 39.712-43.471 11.355-15.887 20.553-33.172 26.963-51.422 6.41-18.246 10.044-37.42 10.809-56.827.082-2.426.104-4.858.163-7.286.017-.592.023-1.229.02-1.892l.004-1.954.006-3.909.023-15.633.049-31.268.097-62.536.192-125.07zm29.289 0 .193 125.07.097 62.536.048 31.268.024 15.633.006 3.909.003 1.954c.004.64.001 1.306-.014 2.017-.053 2.78-.074 5.562-.163 8.343-.804 22.255-4.934 44.514-12.286 65.627-7.343 21.125-17.886 41.031-30.713 59.089-12.825 18.08-27.88 34.344-44.277 48.822-16.414 14.48-34.156 27.23-52.718 38.403-18.566 11.179-37.934 20.834-57.792 29.162-19.859 8.338-40.228 15.315-60.916 21.048-41.373 11.48-84.02 18.099-127 19.577l-8.063.208-8.072.08-8.154-.083c-2.711-.085-5.427-.129-8.133-.251-10.831-.442-21.605-1.302-32.316-2.518-21.422-2.446-42.594-6.297-63.458-11.328a563.126 563.126 0 0 1-61.568-18.7c-20.156-7.397-39.901-15.997-59.057-25.894-19.151-9.895-37.733-21.067-55.376-33.776-17.619-12.73-34.318-26.989-49.411-43.057-15.078-16.055-28.543-33.963-39.266-53.661-10.731-19.666-18.587-41.158-22.71-63.4a210.432 210.432 0 0 1-3.486-33.664l-.084-4.227c-.02-.728-.016-1.362-.016-2.014v-1.954l.001-7.817.001-15.634.005-62.536.01-125.07.003-46.902.001-7.817c.006-2.619-.023-5.161.048-7.922a407.764 407.764 0 0 1 5.65-64.822c3.611-21.419 9.001-42.539 16.038-63.088l2.783-7.655c.955-2.541 1.797-5.125 2.858-7.626l3.057-7.549 1.531-3.773 1.661-3.718 3.342-7.426.837-1.855.9-1.826 1.801-3.651 3.607-7.299 3.858-7.168c20.574-38.239 47.66-72.854 79.382-102.32 1.941-1.887 3.997-3.651 6.023-5.444l6.091-5.367c2.059-1.755 4.172-3.448 6.256-5.174 2.104-1.699 4.15-3.471 6.303-5.109 8.568-6.608 17.284-13.026 26.345-18.927a392.785 392.785 0 0 1 56.783-31.079l.004-.002 19.777-8.894-.607 21.146c-1.089 37.907-1.806 75.815-2.478 113.72-.662 37.908-1.178 75.815-1.579 113.72l-.543 56.861-.052 7.108-.012 1.777c-.007.313.001.571.015.813l.032.752.106 3.011c.072.998.252 1.978.364 2.97l.185 1.486c.079.492.217.97.321 1.457l.655 2.914.934 2.841c.165.471.276.96.483 1.417l.599 1.38c.42.913.739 1.865 1.227 2.752l1.44 2.676.356.672.421.642.84 1.286c1.043 1.757 2.39 3.355 3.64 5.009.631.824 1.387 1.57 2.071 2.363.708.778 1.371 1.589 2.163 2.308 6.013 5.987 13.107 11.215 20.868 15.557 7.745 4.377 16.046 8.006 24.605 11.059 17.146 6.092 35.274 9.989 53.596 12.29 18.337 2.281 36.927 3.098 55.434 2.318 18.5-.754 36.956-2.93 54.9-6.95 17.906-4.007 35.432-9.863 50.984-18.537 7.779-4.3 14.908-9.489 20.908-15.463l1.137-1.11c.361-.383.696-.782 1.047-1.172l2.088-2.342 1.887-2.46.945-1.225.827-1.287c.546-.86 1.122-1.704 1.653-2.568l1.418-2.668c.516-.871.872-1.803 1.259-2.721l.587-1.375c.201-.456.402-.912.531-1.392l.908-2.828c.173-.464.279-.948.376-1.433l.316-1.447c.526-1.907.629-3.902.92-5.855.087-.988.068-1.992.116-2.984l.056-1.492c.021-.491-.006-1.157-.006-1.726l-.079-7.108-.383-28.431-.936-56.861c-.722-37.908-1.566-75.816-2.85-113.72v-17.698l17.125 4.688c33.333 9.123 65.423 23.489 94.263 42.972 28.83 19.468 54.299 44.065 74.691 72.347 20.456 28.25 35.689 60.138 45.501 93.42 9.852 33.308 14.312 67.95 14.454 102.38"/><path fill="#0054a3" fill-rule="nonzero" d="M943.34 626.419c-7.773-12.639-11.282-29.425-7.925-52.89-.683-6.913 4.755-12.904 11.702-12.888l245.77-2.411c7.417.017 12.673 4.633 15.117 12.411 4.348 16.276 1.402 35.792-2 55.111l-247.78-30.666-14.889 31.333z"/><path fill="#ffe797" fill-rule="nonzero" d="M961.2 592.61c-4.599 14.156-5.37 16.494-9.969 30.676l41.749 32.243a81.367 81.367 0 0 0 10.328 33.143l-15.029 48.634c12.049 8.761 14.027 10.2 26.103 18.961l41.544-28.364c5.909 1.362 12.075 2.081 18.395 2.081s12.485-.719 18.396-2.081l41.568 28.364 26.077-18.961-15.029-48.66a81.25 81.25 0 0 0 10.328-33.117l41.749-32.243c-4.599-14.182-5.344-16.52-9.968-30.676h-226.24z"/><path fill="#ffaf37" fill-rule="nonzero" d="M959.79 617.312h231.11l-7.11-22.222-221.556.222-2.444 22Z"/><path fill-rule="nonzero" d="M953.28 594.35a12.677 12.677 0 0 1 10.184-8.669c.334-.044.669-.093 1.004-.111l.503-.024.408-.011 7.163-.08 42.981-.48 57.308-.639 114.62-1.378 7.952-.095 1.228 6.753.003.019c1.218 6.986 2.933 13.808 4.738 20.601l1.403 5.078.743 2.526.187.659c.078.279.138.563.19.849a11.951 11.951 0 0 1-.173 5.163 11.89 11.89 0 0 1-3.517 5.85c-.211.195-.436.375-.659.556l-.362.278-.525.396-1.051.791-4.203 3.164-8.404 6.329-8.362 6.387c-5.585 4.24-11.105 8.568-16.648 12.866l2.721-4.974a88.844 88.844 0 0 1-11.124 36.047l.619-5.67 3.779 12.094 3.705 12.118c1.248 4.035 2.428 8.091 3.644 12.136 1.195 4.052 2.443 8.087 3.589 12.154l1.374 4.877-3.881 2.746-6.597 4.669-6.656 4.587c-2.211 1.541-4.461 3.028-6.695 4.536l-6.712 4.513-3.643 2.449-3.103-2.324-10.081-7.548c-3.363-2.512-6.749-4.99-10.135-7.467-3.422-2.427-6.797-4.921-10.255-7.293-3.453-2.38-6.872-4.81-10.371-7.122l3.576.673c-3.177.761-6.399 1.317-9.64 1.729a87.268 87.268 0 0 1-9.774.758c-3.272.081-6.556.025-9.833-.242-3.275-.269-6.554-.671-9.801-1.29l4.349-.82-10.089 7.526c-3.37 2.498-6.71 5.041-10.106 7.501-3.398 2.457-6.768 4.956-10.205 7.356-3.425 2.416-6.835 4.857-10.293 7.227l-4.053 2.776-4.035-2.892-26.225-18.804-4.151-2.976 1.498-5a2447.523 2447.523 0 0 1 7.453-24.336l7.524-24.314.627 5.745c-6.259-11.051-10.072-23.482-11.133-36.111l2.756 5.039-31.651-24.555-3.957-3.067-1.979-1.535-.989-.766-.495-.384-.329-.259a11.379 11.379 0 0 1-3.936-6.108 11.415 11.415 0 0 1-.158-4.878c.054-.268.103-.538.178-.799l.205-.7 1.571-4.755c2.093-6.341 4.207-12.675 6.211-19.045m13.314 4.328c-2.122 6.329-4.135 12.693-6.17 19.051l-1.525 4.769c-.027.084-.004.021.005-.005l.025-.093.044-.189a2.634 2.634 0 0 0-.035-1.155 2.735 2.735 0 0 0-.789-1.329l7.455 5.724 31.758 24.416 2.47 1.9.286 3.14a74.404 74.404 0 0 0 9.522 30.172l1.561 2.721-.934 3.026-7.505 24.319a2482.81 2482.81 0 0 1-7.576 24.299l-2.654-7.976 25.98 19.117-8.086-.116c3.465-2.358 6.98-4.643 10.478-6.954 3.487-2.328 7.041-4.557 10.567-6.827 3.528-2.267 7.112-4.451 10.665-6.681l10.684-6.655 2.248-1.4 2.101.58c2.778.768 5.607 1.408 8.476 1.832 2.867.426 5.767.716 8.681.798a77.976 77.976 0 0 0 8.738-.282c2.905-.282 5.788-.766 8.638-1.393l1.996-.439 1.58 1.112c3.43 2.415 6.939 4.712 10.414 7.059 3.47 2.356 7.023 4.589 10.529 6.89 3.542 2.249 7.084 4.499 10.65 6.714l10.704 6.634-6.745.125 6.29-5.084c2.099-1.69 4.183-3.402 6.307-5.061l6.346-5.008 6.406-4.928-2.506 7.623c-1.348-4.004-2.593-8.04-3.891-12.06-1.276-4.027-2.59-8.042-3.835-12.078l-3.774-12.096-3.7-12.119-.916-3.003 1.535-2.668a73.99 73.99 0 0 0 9.533-30.186l.279-3.095 2.441-1.879c5.56-4.277 11.142-8.523 16.658-12.856l8.292-6.475 12.372-9.798 1.03-.817.645-.51.064-.051-.038.024c-.059.038-.107.086-.161.129-.422.364-.738.85-.89 1.379a2.893 2.893 0 0 0-.08 1.252l.041.208c.009.054.063.208 0 .029l-.883-2.477-1.848-4.927c-2.532-6.547-5.154-13.065-8.271-19.419l-.009-.018 9.179 6.658-114.62-1.378-57.308-.639-28.654-.32-14.327-.159-7.163-.08a.491.491 0 0 0-.041.001.357.357 0 0 0 .056-.007c.036-.009.076-.003.114-.017a1.367 1.367 0 0 0 .612-.279 1.39 1.39 0 0 0 .474-.715"/><path fill="#fff" fill-rule="nonzero" d="M1046.6 613.298c-14.322 8.174-19.312 26.418-11.135 40.747 8.175 14.321 26.422 19.303 40.743 11.128l14.004-18.068c2.02-7.373 1.222-15.512-2.866-22.673-8.178-14.328-26.418-19.312-40.746-11.134"/><path fill-rule="nonzero" d="M1105.8 648.18c0 16.491-13.371 29.869-29.869 29.869-16.49 0-29.861-13.378-29.861-29.869h29.861l-21.111-21.118a29.735 29.735 0 0 1 21.111-8.751c16.498 0 29.869 13.371 29.869 29.869"/><path fill="#0054a3" fill-rule="nonzero" d="m559.28 624.37 4.847-44.111a12.256 12.256 0 0 1 11.907-10.914l42.846-.963 21.071-13.847 15.589-44.754a13.01 13.01 0 0 1 12.419-8.73l49.653.506 15.652 55.988 17.459 10.837 54.49.99a12.494 12.494 0 0 1 12.196 11.277l1.343 44.323-259.47-.602z"/><path fill="#ffe797" fill-rule="nonzero" d="m759.19 688.523 14.998 48.559-26.022 18.921-41.483-28.305c-5.897 1.359-12.051 2.077-18.358 2.077s-12.46-.718-18.357-2.077l-41.457 28.305a23517.053 23517.053 0 0 1-26.049-18.921l14.999-48.534a81.169 81.169 0 0 1-10.307-33.073l-41.662-32.176c4.589-14.152 5.358-16.485 9.948-30.612l53.609-.257a81.29 81.29 0 0 1 25.562-18.331l17.614-51.739h32.201l17.614 51.739a81.298 81.298 0 0 1 25.561 18.331l53.61.257c4.615 14.127 5.358 16.46 9.948 30.612l-41.662 32.176a81.091 81.091 0 0 1-10.307 33.048"/><path fill="#fff" fill-rule="nonzero" d="M660.41 613.298c-14.322 8.174-19.312 26.418-11.134 40.747 8.175 14.321 26.421 19.303 40.743 11.128l14.003-18.068c2.02-7.373 1.222-15.512-2.865-22.673-8.178-14.328-26.419-19.312-40.747-11.134"/><path fill="#ffaf37" fill-rule="nonzero" d="M576.69 608.461h57.658c7.835-10.556 18.4-19.318 31.933-23.063l14.193-45.683h15.079l12.863 44.796c12.399 3.408 23.545 10.336 31.933 23.507h63.424l-6.653-13.75-47.901-.887-30.159-21.732-14.636-51.449-32.193 2.159-15.708 55.943-27.468 14.127-51.478 2.283-.887 13.749z"/><path fill-rule="nonzero" d="M752.23 687.762a22.825 22.825 0 0 1 1.835-4.447l.915-1.771a87.642 87.642 0 0 0 1.686-3.611 74.379 74.379 0 0 0 2.776-7.464 74.405 74.405 0 0 0 3.08-15.609l.27-3.054 2.425-1.873 41.662-32.176-2.379 7.699-9.944-30.597 6.621 4.826-53.61-.256-3.01-.015-2.057-2.192a74.364 74.364 0 0 0-23.36-16.753l-2.752-1.251-.976-2.865-17.613-51.738 6.626 4.744-.019.001c-5.364.48-10.728.646-16.092.697-2.681.025-5.363.023-8.045-.08-2.682-.111-5.364-.259-8.045-.618l6.626-4.744-.006.018-17.556 51.737-.962 2.834-2.795 1.314-.016.007a74.333 74.333 0 0 0-23.366 16.697l-2.066 2.193-3.001.014h-.018l-53.592.256 6.624-4.837-9.947 30.608-2.379-7.699 41.662 32.176 2.428 1.875.266 3.052a74.363 74.363 0 0 0 9.419 30.228l1.497 2.63-.895 2.896-14.998 48.533-2.571-7.728.01.009c5.183 4.817 10.663 9.228 16.214 13.539 2.767 2.167 5.605 4.237 8.426 6.331l.264.196.132.099c.005.003-1.201-.774-1.828-.851a5.327 5.327 0 0 0-2.408-.036c-.582-.001-2.161.958-1.787.75l.034-.023.549-.364 1.097-.729 2.194-1.459 4.389-2.916 17.556-11.667c2.934-1.934 5.837-3.913 8.747-5.882l4.364-2.955.272-.185.494-.316c.375-.224.761-.431 1.159-.612a11.562 11.562 0 0 1 6.395-.932l.683.095c2.977.411 6.216.441 9.638.391l5.27-.104a79.39 79.39 0 0 0 4.88-.252 75.14 75.14 0 0 0 9.633-1.435l1.186-.266.296-.068.457-.093a8.302 8.302 0 0 1 3.358.111 8.28 8.28 0 0 1 2.511 1.07l.69.453 1.101.724 4.403 2.898 35.153 23.279-8.102.15 25.951-19.153-2.532 7.698a2506.855 2506.855 0 0 1-15.197-51.152m13.917 1.519c5.082 15.188 9.96 30.276 14.657 45.502l1.465 4.748-3.997 2.95-25.951 19.153-4.056 2.993-4.046-2.844-34.495-24.242-4.304-3.044-1.076-.76-.268-.19-.135-.096c-.024-.018-.161-.11.003-.001.401.252.848.442 1.307.55a4.23 4.23 0 0 0 1.725.051l.165-.032c.083-.019-.031.005-.031.005l-.348.068-1.395.264a87.61 87.61 0 0 1-11.254 1.291c-1.884.093-3.77.126-5.653.101l-5.269-.055c-3.599-.045-7.411-.144-11.386-.792l-.62-.102c-.002-.007-.005-.005-.008-.01-.006-.008-.01-.009-.016-.015-.007-.008-.011-.008-.017-.012l-.01-.006h-.003c.005-.004.003-.006-.06.036l-.278.178-4.438 2.842c-2.958 1.895-5.923 3.781-8.857 5.712l-17.652 11.522-4.413 2.881-2.207 1.44-1.103.72-.552.36-.034.023c.352-.193-1.252.78-1.861.784a5.488 5.488 0 0 1-2.49-.037c-.654-.083-1.9-.844-1.901-.887l-.135-.095-.268-.192c-2.865-2.034-5.712-4.093-8.63-6.056-5.818-3.948-11.708-7.797-17.895-11.237l-.012-.008-4.147-2.631 1.575-5.098 14.999-48.533.602 5.526c-6.254-10.979-10.098-23.338-11.194-35.919l2.695 4.926-41.663-32.176-3.902-3.013 1.522-4.686 9.949-30.616 1.564-4.813 5.06-.024 53.593-.256h.017l-5.068 2.206a88.398 88.398 0 0 1 27.722-19.95l.019-.008-3.756 4.147 17.659-51.703.006-.018 1.287-4.031 5.34-.714c2.681-.358 5.363-.506 8.045-.618 2.682-.103 5.364-.105 8.045-.08 5.364.052 10.728.218 16.092.697l.019.002 5.156.424 1.471 4.32 17.614 51.738-3.728-4.115a88.36 88.36 0 0 1 27.763 19.909l-5.067-2.206 53.61.256 5.06.024 1.56 4.803 9.952 30.626 1.523 4.686-3.902 3.013-41.663 32.176 2.695-4.926a88.407 88.407 0 0 1-3.662 18.55 88.265 88.265 0 0 1-3.302 8.876 98.92 98.92 0 0 1-2.003 4.291l-1.086 2.104c.028-.047.001-.403-.269-.627"/><path fill-rule="nonzero" d="M719.52 648.18c0 16.491-13.371 29.869-29.869 29.869-16.49 0-29.861-13.378-29.861-29.869h29.861l-21.111-21.118a29.735 29.735 0 0 1 21.111-8.751c16.498 0 29.869 13.371 29.869 29.869"/><path fill="#0054a3" fill-rule="nonzero" d="M870.33 900.338c-9.919-15.119-26.852-40.207-37.22-55.019a118.325 118.325 0 0 0-2.937-4.178c-1.6-2.175-4.806-1.007-4.955 1.113a36.771 36.771 0 0 0-1.451-1.498c-.644-.625-1.786-.002-1.527.89 2.43 8.391 7.922 16.08 11.865 23.859 4.609 9.088 8.027 18.374 9.495 28.566 3.397 23.601 28.157 8.442 26.73 6.267m68.18-61.37c-1.143-.535-2.657-.38-3.644.948-6.953 9.365-13.679 18.875-20.051 28.648-6.007 9.214-12.706 18.667-16.653 28.991-.498 1.302 1.46 2.409 2.35 1.368.392-.458.76-.937 1.142-1.405.468 2.537 3.891 4.012 5.583 1.288.624.486 1.419.762 2.245.86l.322.038c.587.071 1.176-.112 1.697-.434.322.028.613.034.797-.004a3.971 3.971 0 0 0 1.263-.474l.053.198c.938 3.545 6.566 2.878 6.459-.875-.577-20.328 10.462-38.653 21.457-54.936 1.627-2.41-.764-4.515-3.02-4.211"/><path fill="#ffaf37" fill-rule="nonzero" d="m881.454 913.641-51.667-76.666 51.667-30 52 30.333-52 76.333z"/><path fill="#ffe797" fill-rule="nonzero" d="m881.454 913.644-51.667-76.665 51.667-30 .667 33.888-.667 72.777z"/><path fill-rule="nonzero" d="m838.45 837.307 43.035 63.857 45.73-63.542a2.862 2.862 0 0 0-.965-4.193l-42.17-22.743a5.143 5.143 0 0 0-5.295-.042l-39.58 23.326a2.35 2.35 0 0 0-.755 3.337m42.972 88.816-59.381-88.114a3.751 3.751 0 0 1 1.227-5.342l55.685-32.334a4.986 4.986 0 0 1 5.013.005l55.87 32.591a3.918 3.918 0 0 1 1.264 5.589l-59.678 87.605z"/><path fill-rule="nonzero" d="M881.62 818.643c5.704 22.04 4.714 47.619 0 75.167 0 0-4.167-25-4.333-42.167-.167-17.166 4.333-33 4.333-33m327.165-28.228c-6.035 12.857-13.548 24.917-20.303 37.392-.324.6.526 1.35.994.766 9.027-11.247 15.226-24.06 20.827-37.271.431-1.017-1.03-1.926-1.518-.887M952.39 829.934c-1.704.874-3.031 2.165-4.895 2.714-2.037.599-4.555.364-6.679.308-3.604-.093-7.212-2.766-10.659-1.703-1.71.528-2.789 2.295-2.308 4.065 1.471 5.419 9.918 5.945 14.548 4.885 4.221-.966 9.841-5.12 11.439-9.157.341-.862-.759-1.465-1.446-1.112m-144.21.892c1.316 4.88 8.55 8.854 13.323 9.34 5.515.561 14.867-3.307 18.203-7.584 1.668-2.139.956-6.653-2.585-6.242-5.332.62-8.655 4.919-13.575 6.672-5.889 2.098-9.254-3.04-14.552-3.253-.554-.023-.952.556-.814 1.067m107.38 66.534c.064 0 .064-.1 0-.1s-.064.1 0 .1"/></svg>