<svg xmlns="http://www.w3.org/2000/svg" fill="none" stroke="currentColor" stroke-linecap="round" stroke-linejoin="round" stroke-width="5" viewBox="0 0 90 90"><path d="m52.115 72.972 5.778-8.681a1.06 1.06 0 0 0 0-1.193l-5.778-8.681a1.072 1.072 0 0 0-.908-.488H30.089l6.103 9.169a1.054 1.054 0 0 1 0 1.193l-6.103 9.169h21.118a1.062 1.062 0 0 0 .908-.488"/><path d="m30.282 72.972 5.778-8.681a1.06 1.06 0 0 0 0-1.193l-5.778-8.681a1.079 1.079 0 0 0-.909-.488H8.255l6.104 9.169a1.054 1.054 0 0 1 0 1.193L8.255 73.46h21.118a1.067 1.067 0 0 0 .909-.488m42.667 0 5.778-8.681a1.06 1.06 0 0 0 0-1.193l-5.778-8.681a1.079 1.079 0 0 0-.909-.488H50.922l6.103 9.169a1.047 1.047 0 0 1 0 1.193l-6.103 9.169H72.04a1.067 1.067 0 0 0 .909-.488M61 51V14m0 15c8-6 14 6 22 0V14c-8 6-14-6-22 0"/><circle cx="20" cy="37" r="6.5"/><circle cx="43" cy="29" r="6.5"/><path stroke-linecap="butt" d="M20.5 44v10m23-17v17"/></svg>