<svg xmlns="http://www.w3.org/2000/svg" fill="none" stroke="currentColor" stroke-width="5" viewBox="0 0 90 90"><path d="M58.361 10.189h9.802a2.444 2.444 0 0 1 2.45 2.437v48.747a2.444 2.444 0 0 1-2.45 2.438h-9.802a2.444 2.444 0 0 1-2.45-2.438V12.626a2.444 2.444 0 0 1 2.45-2.437Zm12.252 12.108H55.911M43.658 10.189h9.802a2.444 2.444 0 0 1 2.45 2.437v48.747a2.444 2.444 0 0 1-2.45 2.438h-9.802a2.444 2.444 0 0 1-2.45-2.438V12.626a2.444 2.444 0 0 1 2.45-2.437ZM55.91 52.567H41.207M70.613 31H55.911M29.349 9.447l9.438 2.53a2.443 2.443 0 0 1 1.727 2.992L27.865 62.158a2.442 2.442 0 0 1-2.991 1.727l-9.438-2.53a2.442 2.442 0 0 1-1.727-2.992l12.648-47.189a2.444 2.444 0 0 1 2.992-1.727Zm8.4 15.445-13.838-3.459M66.803 79V64m-9 15V64m23 3.5v10c0 1.381-1.465 2.5-3.273 2.5H12.076c-1.808 0-3.273-1.119-3.273-2.5v-10c0-1.381 1.465-2.5 3.273-2.5H77.53c1.808 0 3.273 1.119 3.273 2.5Z"/></svg>