<?xml version="1.0" encoding="UTF-8" standalone="no"?><svg xmlns="http://www.w3.org/2000/svg" xmlns:xlink="http://www.w3.org/1999/xlink" contentScriptType="application/ecmascript" contentStyleType="text/css" height="252px" preserveAspectRatio="none" style="width:611px;height:252px;background:#00000000;" version="1.1" viewBox="0 0 611 252" width="611px" zoomAndPan="magnify"><defs/><g><!--MD5=[25f71a7d97811b16906e41fff6b222ff]
class kubernetes_stateful_set--><a href="#kubernetes_stateful_set" target="_top" title="#kubernetes_stateful_set" xlink:actuate="onRequest" xlink:href="#kubernetes_stateful_set" xlink:show="new" xlink:title="#kubernetes_stateful_set" xlink:type="simple"><rect codeLine="23" fill="#3D176E" height="39.7891" id="kubernetes_stateful_set" rx="2.5" ry="2.5" style="stroke:#000D19;stroke-width:1.5;" width="243" x="7" y="107"/><ellipse cx="22" cy="126.8945" fill="#E98DF7" rx="11" ry="11" style="stroke:#000D19;stroke-width:1.0;"/><path d="M24.9688,132.5352 Q24.3906,132.832 23.75,132.9727 Q23.1094,133.1289 22.4063,133.1289 Q19.9063,133.1289 18.5781,131.4883 Q17.2656,129.832 17.2656,126.707 Q17.2656,123.582 18.5781,121.9258 Q19.9063,120.2695 22.4063,120.2695 Q23.1094,120.2695 23.75,120.4258 Q24.4063,120.582 24.9688,120.8789 L24.9688,123.5977 Q24.3438,123.0195 23.75,122.7539 Q23.1563,122.4727 22.5313,122.4727 Q21.1875,122.4727 20.5,123.5508 Q19.8125,124.6133 19.8125,126.707 Q19.8125,128.8008 20.5,129.8789 Q21.1875,130.9414 22.5313,130.9414 Q23.1563,130.9414 23.75,130.6758 Q24.3438,130.3945 24.9688,129.8164 L24.9688,132.5352 Z " fill="#000000"/><text fill="#D9B8FF" font-family="Helvetica" font-size="17" lengthAdjust="spacing" textLength="201" x="41" y="132.7798">kubernetes_stateful_set</text></a><!--MD5=[ee4732d59776a52dfa830b9820afac28]
class kubernetes_controller_revision--><a href="#kubernetes_controller_revision" target="_top" title="#kubernetes_controller_revision" xlink:actuate="onRequest" xlink:href="#kubernetes_controller_revision" xlink:show="new" xlink:title="#kubernetes_controller_revision" xlink:type="simple"><rect codeLine="26" fill="#3D176E" height="39.7891" id="kubernetes_controller_revision" rx="2.5" ry="2.5" style="stroke:#000D19;stroke-width:1.5;" width="300" x="153.5" y="207"/><ellipse cx="168.5" cy="226.8945" fill="#E98DF7" rx="11" ry="11" style="stroke:#000D19;stroke-width:1.0;"/><path d="M171.4688,232.5352 Q170.8906,232.832 170.25,232.9727 Q169.6094,233.1289 168.9063,233.1289 Q166.4063,233.1289 165.0781,231.4883 Q163.7656,229.832 163.7656,226.707 Q163.7656,223.582 165.0781,221.9258 Q166.4063,220.2695 168.9063,220.2695 Q169.6094,220.2695 170.25,220.4258 Q170.9063,220.582 171.4688,220.8789 L171.4688,223.5977 Q170.8438,223.0195 170.25,222.7539 Q169.6563,222.4727 169.0313,222.4727 Q167.6875,222.4727 167,223.5508 Q166.3125,224.6133 166.3125,226.707 Q166.3125,228.8008 167,229.8789 Q167.6875,230.9414 169.0313,230.9414 Q169.6563,230.9414 170.25,230.6758 Q170.8438,230.3945 171.4688,229.8164 L171.4688,232.5352 Z " fill="#000000"/><text fill="#D9B8FF" font-family="Helvetica" font-size="17" lengthAdjust="spacing" textLength="258" x="187.5" y="232.7798">kubernetes_controller_revision</text></a><!--MD5=[2df68a099d33914b88d0cafc7c70360d]
class kubernetes_daemon_set--><a href="#kubernetes_daemon_set" target="_top" title="#kubernetes_daemon_set" xlink:actuate="onRequest" xlink:href="#kubernetes_daemon_set" xlink:show="new" xlink:title="#kubernetes_daemon_set" xlink:type="simple"><rect codeLine="29" fill="#3D176E" height="39.7891" id="kubernetes_daemon_set" rx="2.5" ry="2.5" style="stroke:#000D19;stroke-width:1.5;" width="247" x="357" y="107"/><ellipse cx="372" cy="126.8945" fill="#E98DF7" rx="11" ry="11" style="stroke:#000D19;stroke-width:1.0;"/><path d="M374.9688,132.5352 Q374.3906,132.832 373.75,132.9727 Q373.1094,133.1289 372.4063,133.1289 Q369.9063,133.1289 368.5781,131.4883 Q367.2656,129.832 367.2656,126.707 Q367.2656,123.582 368.5781,121.9258 Q369.9063,120.2695 372.4063,120.2695 Q373.1094,120.2695 373.75,120.4258 Q374.4063,120.582 374.9688,120.8789 L374.9688,123.5977 Q374.3438,123.0195 373.75,122.7539 Q373.1563,122.4727 372.5313,122.4727 Q371.1875,122.4727 370.5,123.5508 Q369.8125,124.6133 369.8125,126.707 Q369.8125,128.8008 370.5,129.8789 Q371.1875,130.9414 372.5313,130.9414 Q373.1563,130.9414 373.75,130.6758 Q374.3438,130.3945 374.9688,129.8164 L374.9688,132.5352 Z " fill="#000000"/><text fill="#D9B8FF" font-family="Helvetica" font-size="17" lengthAdjust="spacing" textLength="205" x="391" y="132.7798">kubernetes_daemon_set</text></a><!--MD5=[8c64e07c6674772649ac4806bcd31052]
class kubernetes_namespace--><a href="#kubernetes_namespace" target="_top" title="#kubernetes_namespace" xlink:actuate="onRequest" xlink:href="#kubernetes_namespace" xlink:show="new" xlink:title="#kubernetes_namespace" xlink:type="simple"><rect codeLine="32" fill="#3D176E" height="39.7891" id="kubernetes_namespace" rx="2.5" ry="2.5" style="stroke:#000D19;stroke-width:1.5;" width="239" x="184" y="7"/><ellipse cx="199" cy="26.8945" fill="#E98DF7" rx="11" ry="11" style="stroke:#000D19;stroke-width:1.0;"/><path d="M201.9688,32.5352 Q201.3906,32.832 200.75,32.9727 Q200.1094,33.1289 199.4063,33.1289 Q196.9063,33.1289 195.5781,31.4883 Q194.2656,29.832 194.2656,26.707 Q194.2656,23.582 195.5781,21.9258 Q196.9063,20.2695 199.4063,20.2695 Q200.1094,20.2695 200.75,20.4258 Q201.4063,20.582 201.9688,20.8789 L201.9688,23.5977 Q201.3438,23.0195 200.75,22.7539 Q200.1563,22.4727 199.5313,22.4727 Q198.1875,22.4727 197.5,23.5508 Q196.8125,24.6133 196.8125,26.707 Q196.8125,28.8008 197.5,29.8789 Q198.1875,30.9414 199.5313,30.9414 Q200.1563,30.9414 200.75,30.6758 Q201.3438,30.3945 201.9688,29.8164 L201.9688,32.5352 Z " fill="#000000"/><text fill="#D9B8FF" font-family="Helvetica" font-size="17" lengthAdjust="spacing" textLength="197" x="218" y="32.7798">kubernetes_namespace</text></a><!--MD5=[2e97fcc798826b3bc6c8855d5bd641fe]
link kubernetes_stateful_set to kubernetes_controller_revision--><path codeLine="35" d="M162.66,147.13 C192.05,163.59 234.42,187.32 265.01,204.44 " fill="none" id="kubernetes_stateful_set-to-kubernetes_controller_revision" style="stroke:#1A83AF;stroke-width:2.0;"/><polygon fill="#1A83AF" points="269.43,206.92,263.5358,199.0296,265.0687,204.4748,259.6235,206.0077,269.43,206.92" style="stroke:#1A83AF;stroke-width:2.0;"/><!--MD5=[00c54842c2c774bf87a263a9cc4b02e3]
link kubernetes_daemon_set to kubernetes_controller_revision--><path codeLine="36" d="M445.95,147.13 C416.23,163.59 373.37,187.32 342.43,204.44 " fill="none" id="kubernetes_daemon_set-to-kubernetes_controller_revision" style="stroke:#1A83AF;stroke-width:2.0;"/><polygon fill="#1A83AF" points="337.96,206.92,347.7721,206.0704,342.3368,204.5027,343.9045,199.0674,337.96,206.92" style="stroke:#1A83AF;stroke-width:2.0;"/><!--MD5=[66278b1e84cdd0bba17d86985cdfbbcc]
link kubernetes_namespace to kubernetes_daemon_set--><path codeLine="37" d="M338.05,47.13 C367.77,63.59 410.63,87.32 441.57,104.44 " fill="none" id="kubernetes_namespace-to-kubernetes_daemon_set" style="stroke:#1A83AF;stroke-width:2.0;"/><polygon fill="#1A83AF" points="446.04,106.92,440.0955,99.0674,441.6632,104.5027,436.2279,106.0704,446.04,106.92" style="stroke:#1A83AF;stroke-width:2.0;"/><!--MD5=[0d660a4d8e3384eb07a82e9d8a1d0a34]
link kubernetes_namespace to kubernetes_stateful_set--><path codeLine="38" d="M269.34,47.13 C239.95,63.59 197.58,87.32 166.99,104.44 " fill="none" id="kubernetes_namespace-to-kubernetes_stateful_set" style="stroke:#1A83AF;stroke-width:2.0;"/><polygon fill="#1A83AF" points="162.57,106.92,172.3765,106.0077,166.9313,104.4748,168.4642,99.0296,162.57,106.92" style="stroke:#1A83AF;stroke-width:2.0;"/><!--MD5=[7bd4645b9356e1f70ec5a9201b3d3866]
link kubernetes_namespace to kubernetes_controller_revision--><path codeLine="39" d="M303.5,47.35 C303.5,83.67 303.5,161.97 303.5,201.75 " fill="none" id="kubernetes_namespace-to-kubernetes_controller_revision" style="stroke:#1A83AF;stroke-width:2.0;"/><polygon fill="#1A83AF" points="303.5,206.87,307.5,197.87,303.5,201.87,299.5,197.87,303.5,206.87" style="stroke:#1A83AF;stroke-width:2.0;"/><!--MD5=[16f0931eedbb3cea14cdaa64d1e82f21]
@startuml
hide empty members
skinparam ArrowColor #ffaf37
skinparam ArrowFontColor #ffaf37
skinparam ArrowFontName Helvetica
skinparam ArrowThickness 2
skinparam BackgroundColor transparent
skinparam ClassAttributeFontColor #d9b8ff
skinparam ClassBackgroundColor #3d176e
skinparam ClassBorderColor #000d19
skinparam ClassFontColor #d9b8ff
skinparam ClassFontName Helvetica
skinparam ClassFontSize 17
skinparam NoteBackgroundColor #d9b8ff
skinparam NoteBorderColor #000d19
skinparam NoteFontColor #3d176e
skinparam NoteFontName Helvetica
skinparam Padding 5
skinparam RoundCorner 5
skinparam Shadowing false
skinparam stereotypeCBackgroundColor #e98df7
skinparam stereotypeIBackgroundColor #e98df7

class kubernetes_stateful_set [[#kubernetes_stateful_set]] {

}
class kubernetes_controller_revision [[#kubernetes_controller_revision]] {

}
class kubernetes_daemon_set [[#kubernetes_daemon_set]] {

}
class kubernetes_namespace [[#kubernetes_namespace]] {

}
kubernetes_stateful_set -[#1A83AF]-> kubernetes_controller_revision
kubernetes_daemon_set -[#1A83AF]-> kubernetes_controller_revision
kubernetes_namespace -[#1A83AF]-> kubernetes_daemon_set
kubernetes_namespace -[#1A83AF]-> kubernetes_stateful_set
kubernetes_namespace -[#1A83AF]-> kubernetes_controller_revision
@enduml

PlantUML version 1.2021.16(Wed Dec 08 17:25:22 UTC 2021)
(GPL source distribution)
Java Runtime: OpenJDK Runtime Environment
JVM: OpenJDK 64-Bit Server VM
Default Encoding: UTF-8
Language: en
Country: null
--></g></svg>