<?xml version="1.0" encoding="UTF-8" standalone="no"?><svg xmlns="http://www.w3.org/2000/svg" xmlns:xlink="http://www.w3.org/1999/xlink" contentScriptType="application/ecmascript" contentStyleType="text/css" height="1071px" preserveAspectRatio="none" style="width:422px;height:1071px;background:#00000000;" version="1.1" viewBox="0 0 422 1071" width="422px" zoomAndPan="magnify"><defs/><g><!--MD5=[7f0ecf5f554433d3f2e1213379ac821c]
class resource--><a href="#resource" target="_top" title="#resource" xlink:actuate="onRequest" xlink:href="#resource" xlink:show="new" xlink:title="#resource" xlink:type="simple"><rect codeLine="23" fill="#3D176E" height="275.8359" id="resource" rx="2.5" ry="2.5" style="stroke:#000D19;stroke-width:1.5;" width="195" x="113.5" y="7"/><ellipse cx="166.25" cy="26.8945" fill="#E98DF7" rx="11" ry="11" style="stroke:#000D19;stroke-width:1.0;"/><path d="M169.2188,32.5352 Q168.6406,32.832 168,32.9727 Q167.3594,33.1289 166.6563,33.1289 Q164.1563,33.1289 162.8281,31.4883 Q161.5156,29.832 161.5156,26.707 Q161.5156,23.582 162.8281,21.9258 Q164.1563,20.2695 166.6563,20.2695 Q167.3594,20.2695 168,20.4258 Q168.6563,20.582 169.2188,20.8789 L169.2188,23.5977 Q168.5938,23.0195 168,22.7539 Q167.4063,22.4727 166.7813,22.4727 Q165.4375,22.4727 164.75,23.5508 Q164.0625,24.6133 164.0625,26.707 Q164.0625,28.8008 164.75,29.8789 Q165.4375,30.9414 166.7813,30.9414 Q167.4063,30.9414 168,30.6758 Q168.5938,30.3945 169.2188,29.8164 L169.2188,32.5352 Z " fill="#000000"/><text fill="#D9B8FF" font-family="Helvetica" font-size="17" lengthAdjust="spacing" textLength="71" x="191.75" y="32.7798">resource</text><line style="stroke:#000D19;stroke-width:1.5;" x1="114.5" x2="307.5" y1="46.7891" y2="46.7891"/><text fill="#D9B8FF" font-family="sans-serif" font-size="11" font-weight="bold" lengthAdjust="spacing" textLength="12" x="124.5" y="65.9995">id</text><text fill="#D9B8FF" font-family="sans-serif" font-size="11" lengthAdjust="spacing" textLength="41" x="136.5" y="65.9995">: string</text><text fill="#D9B8FF" font-family="sans-serif" font-size="11" font-weight="bold" lengthAdjust="spacing" textLength="28" x="124.5" y="88.8042">tags</text><text fill="#D9B8FF" font-family="sans-serif" font-size="11" lengthAdjust="spacing" textLength="145" x="152.5" y="88.8042">: dictionary[string, string]</text><text fill="#D9B8FF" font-family="sans-serif" font-size="11" font-weight="bold" lengthAdjust="spacing" textLength="35" x="124.5" y="111.6089">name</text><text fill="#D9B8FF" font-family="sans-serif" font-size="11" lengthAdjust="spacing" textLength="41" x="159.5" y="111.6089">: string</text><text fill="#D9B8FF" font-family="sans-serif" font-size="11" font-weight="bold" lengthAdjust="spacing" textLength="35" x="124.5" y="134.4136">ctime</text><text fill="#D9B8FF" font-family="sans-serif" font-size="11" lengthAdjust="spacing" textLength="58" x="159.5" y="134.4136">: datetime</text><text fill="#D9B8FF" font-family="sans-serif" font-size="11" font-weight="bold" lengthAdjust="spacing" textLength="24" x="124.5" y="157.2183">age</text><text fill="#D9B8FF" font-family="sans-serif" font-size="11" lengthAdjust="spacing" textLength="55" x="148.5" y="157.2183">: duration</text><text fill="#D9B8FF" font-family="sans-serif" font-size="11" font-weight="bold" lengthAdjust="spacing" textLength="39" x="124.5" y="180.0229">mtime</text><text fill="#D9B8FF" font-family="sans-serif" font-size="11" lengthAdjust="spacing" textLength="58" x="163.5" y="180.0229">: datetime</text><text fill="#D9B8FF" font-family="sans-serif" font-size="11" font-weight="bold" lengthAdjust="spacing" textLength="75" x="124.5" y="202.8276">last_update</text><text fill="#D9B8FF" font-family="sans-serif" font-size="11" lengthAdjust="spacing" textLength="55" x="199.5" y="202.8276">: duration</text><text fill="#D9B8FF" font-family="sans-serif" font-size="11" font-weight="bold" lengthAdjust="spacing" textLength="36" x="124.5" y="225.6323">atime</text><text fill="#D9B8FF" font-family="sans-serif" font-size="11" lengthAdjust="spacing" textLength="58" x="160.5" y="225.6323">: datetime</text><text fill="#D9B8FF" font-family="sans-serif" font-size="11" font-weight="bold" lengthAdjust="spacing" textLength="74" x="124.5" y="248.437">last_access</text><text fill="#D9B8FF" font-family="sans-serif" font-size="11" lengthAdjust="spacing" textLength="55" x="198.5" y="248.437">: duration</text><text fill="#D9B8FF" font-family="sans-serif" font-size="11" font-weight="bold" lengthAdjust="spacing" textLength="27" x="124.5" y="271.2417">kind</text><text fill="#D9B8FF" font-family="sans-serif" font-size="11" lengthAdjust="spacing" textLength="41" x="151.5" y="271.2417">: string</text></a><!--MD5=[45e941211880643daf501521e190bacb]
class kubernetes_resource--><a href="#kubernetes_resource" target="_top" title="#kubernetes_resource" xlink:actuate="onRequest" xlink:href="#kubernetes_resource" xlink:show="new" xlink:title="#kubernetes_resource" xlink:type="simple"><rect codeLine="35" fill="#3D176E" height="116.2031" id="kubernetes_resource" rx="2.5" ry="2.5" style="stroke:#000D19;stroke-width:1.5;" width="216" x="103" y="404"/><ellipse cx="118" cy="423.8945" fill="#E98DF7" rx="11" ry="11" style="stroke:#000D19;stroke-width:1.0;"/><path d="M120.9688,429.5352 Q120.3906,429.832 119.75,429.9727 Q119.1094,430.1289 118.4063,430.1289 Q115.9063,430.1289 114.5781,428.4883 Q113.2656,426.832 113.2656,423.707 Q113.2656,420.582 114.5781,418.9258 Q115.9063,417.2695 118.4063,417.2695 Q119.1094,417.2695 119.75,417.4258 Q120.4063,417.582 120.9688,417.8789 L120.9688,420.5977 Q120.3438,420.0195 119.75,419.7539 Q119.1563,419.4727 118.5313,419.4727 Q117.1875,419.4727 116.5,420.5508 Q115.8125,421.6133 115.8125,423.707 Q115.8125,425.8008 116.5,426.8789 Q117.1875,427.9414 118.5313,427.9414 Q119.1563,427.9414 119.75,427.6758 Q120.3438,427.3945 120.9688,426.8164 L120.9688,429.5352 Z " fill="#000000"/><text fill="#D9B8FF" font-family="Helvetica" font-size="17" lengthAdjust="spacing" textLength="174" x="137" y="429.7798">kubernetes_resource</text><line style="stroke:#000D19;stroke-width:1.5;" x1="104" x2="318" y1="443.7891" y2="443.7891"/><text fill="#D9B8FF" font-family="sans-serif" font-size="11" font-weight="bold" lengthAdjust="spacing" textLength="109" x="114" y="462.9995">resource_version</text><text fill="#D9B8FF" font-family="sans-serif" font-size="11" lengthAdjust="spacing" textLength="41" x="223" y="462.9995">: string</text><text fill="#D9B8FF" font-family="sans-serif" font-size="11" font-weight="bold" lengthAdjust="spacing" textLength="73" x="114" y="485.8042">namespace</text><text fill="#D9B8FF" font-family="sans-serif" font-size="11" lengthAdjust="spacing" textLength="41" x="187" y="485.8042">: string</text><text fill="#D9B8FF" font-family="sans-serif" font-size="11" font-weight="bold" lengthAdjust="spacing" textLength="39" x="114" y="508.6089">labels</text><text fill="#D9B8FF" font-family="sans-serif" font-size="11" lengthAdjust="spacing" textLength="145" x="153" y="508.6089">: dictionary[string, string]</text></a><!--MD5=[4be5609d9cac45096c2b7dc597927b8e]
class kubernetes_flow_schema_status_conditions--><a href="#kubernetes_flow_schema_status_conditions" target="_top" title="#kubernetes_flow_schema_status_conditions" xlink:actuate="onRequest" xlink:href="#kubernetes_flow_schema_status_conditions" xlink:show="new" xlink:title="#kubernetes_flow_schema_status_conditions" xlink:type="simple"><rect codeLine="40" fill="#3D176E" height="161.8125" id="kubernetes_flow_schema_status_conditions" rx="2.5" ry="2.5" style="stroke:#000D19;stroke-width:1.5;" width="408" x="7" y="903"/><ellipse cx="22" cy="922.8945" fill="#E98DF7" rx="11" ry="11" style="stroke:#000D19;stroke-width:1.0;"/><path d="M24.9688,928.5352 Q24.3906,928.832 23.75,928.9727 Q23.1094,929.1289 22.4063,929.1289 Q19.9063,929.1289 18.5781,927.4883 Q17.2656,925.832 17.2656,922.707 Q17.2656,919.582 18.5781,917.9258 Q19.9063,916.2695 22.4063,916.2695 Q23.1094,916.2695 23.75,916.4258 Q24.4063,916.582 24.9688,916.8789 L24.9688,919.5977 Q24.3438,919.0195 23.75,918.7539 Q23.1563,918.4727 22.5313,918.4727 Q21.1875,918.4727 20.5,919.5508 Q19.8125,920.6133 19.8125,922.707 Q19.8125,924.8008 20.5,925.8789 Q21.1875,926.9414 22.5313,926.9414 Q23.1563,926.9414 23.75,926.6758 Q24.3438,926.3945 24.9688,925.8164 L24.9688,928.5352 Z " fill="#000000"/><text fill="#D9B8FF" font-family="Helvetica" font-size="17" lengthAdjust="spacing" textLength="366" x="41" y="928.7798">kubernetes_flow_schema_status_conditions</text><line style="stroke:#000D19;stroke-width:1.5;" x1="8" x2="414" y1="942.7891" y2="942.7891"/><text fill="#D9B8FF" font-family="sans-serif" font-size="11" font-weight="bold" lengthAdjust="spacing" textLength="126" x="18" y="961.9995">last_transition_time</text><text fill="#D9B8FF" font-family="sans-serif" font-size="11" lengthAdjust="spacing" textLength="58" x="144" y="961.9995">: datetime</text><text fill="#D9B8FF" font-family="sans-serif" font-size="11" font-weight="bold" lengthAdjust="spacing" textLength="57" x="18" y="984.8042">message</text><text fill="#D9B8FF" font-family="sans-serif" font-size="11" lengthAdjust="spacing" textLength="41" x="75" y="984.8042">: string</text><text fill="#D9B8FF" font-family="sans-serif" font-size="11" font-weight="bold" lengthAdjust="spacing" textLength="44" x="18" y="1007.6089">reason</text><text fill="#D9B8FF" font-family="sans-serif" font-size="11" lengthAdjust="spacing" textLength="41" x="62" y="1007.6089">: string</text><text fill="#D9B8FF" font-family="sans-serif" font-size="11" font-weight="bold" lengthAdjust="spacing" textLength="40" x="18" y="1030.4136">status</text><text fill="#D9B8FF" font-family="sans-serif" font-size="11" lengthAdjust="spacing" textLength="41" x="58" y="1030.4136">: string</text><text fill="#D9B8FF" font-family="sans-serif" font-size="11" font-weight="bold" lengthAdjust="spacing" textLength="28" x="18" y="1053.2183">type</text><text fill="#D9B8FF" font-family="sans-serif" font-size="11" lengthAdjust="spacing" textLength="41" x="46" y="1053.2183">: string</text></a><!--MD5=[5e7779edcbeeebdc8d2a65b2de337592]
class kubernetes_flow_schema_status--><a href="#kubernetes_flow_schema_status" target="_top" title="#kubernetes_flow_schema_status" xlink:actuate="onRequest" xlink:href="#kubernetes_flow_schema_status" xlink:show="new" xlink:title="#kubernetes_flow_schema_status" xlink:type="simple"><rect codeLine="47" fill="#3D176E" height="70.5938" id="kubernetes_flow_schema_status" rx="2.5" ry="2.5" style="stroke:#000D19;stroke-width:1.5;" width="355" x="33.5" y="772"/><ellipse cx="66.95" cy="791.8945" fill="#E98DF7" rx="11" ry="11" style="stroke:#000D19;stroke-width:1.0;"/><path d="M69.9188,797.5352 Q69.3406,797.832 68.7,797.9727 Q68.0594,798.1289 67.3563,798.1289 Q64.8563,798.1289 63.5281,796.4883 Q62.2156,794.832 62.2156,791.707 Q62.2156,788.582 63.5281,786.9258 Q64.8563,785.2695 67.3563,785.2695 Q68.0594,785.2695 68.7,785.4258 Q69.3563,785.582 69.9188,785.8789 L69.9188,788.5977 Q69.2938,788.0195 68.7,787.7539 Q68.1063,787.4727 67.4813,787.4727 Q66.1375,787.4727 65.45,788.5508 Q64.7625,789.6133 64.7625,791.707 Q64.7625,793.8008 65.45,794.8789 Q66.1375,795.9414 67.4813,795.9414 Q68.1063,795.9414 68.7,795.6758 Q69.2938,795.3945 69.9188,794.8164 L69.9188,797.5352 Z " fill="#000000"/><text fill="#D9B8FF" font-family="Helvetica" font-size="17" lengthAdjust="spacing" textLength="272" x="90.05" y="797.7798">kubernetes_flow_schema_status</text><line style="stroke:#000D19;stroke-width:1.5;" x1="34.5" x2="387.5" y1="811.7891" y2="811.7891"/><text fill="#D9B8FF" font-family="sans-serif" font-size="11" font-weight="bold" lengthAdjust="spacing" textLength="67" x="44.5" y="830.9995">conditions</text><text fill="#D9B8FF" font-family="sans-serif" font-size="11" lengthAdjust="spacing" textLength="266" x="111.5" y="830.9995">: kubernetes_flow_schema_status_conditions[]</text></a><!--MD5=[9e565a48001312fb288f4647de66e3a0]
class kubernetes_flow_schema--><a href="#kubernetes_flow_schema" target="_top" title="#kubernetes_flow_schema" xlink:actuate="onRequest" xlink:href="#kubernetes_flow_schema" xlink:show="new" xlink:title="#kubernetes_flow_schema" xlink:type="simple"><rect codeLine="50" fill="#3D176E" height="70.5938" id="kubernetes_flow_schema" rx="2.5" ry="2.5" style="stroke:#000D19;stroke-width:1.5;" width="345" x="38.5" y="641"/><ellipse cx="95.75" cy="660.8945" fill="#E98DF7" rx="11" ry="11" style="stroke:#000D19;stroke-width:1.0;"/><path d="M98.7188,666.5352 Q98.1406,666.832 97.5,666.9727 Q96.8594,667.1289 96.1563,667.1289 Q93.6563,667.1289 92.3281,665.4883 Q91.0156,663.832 91.0156,660.707 Q91.0156,657.582 92.3281,655.9258 Q93.6563,654.2695 96.1563,654.2695 Q96.8594,654.2695 97.5,654.4258 Q98.1563,654.582 98.7188,654.8789 L98.7188,657.5977 Q98.0938,657.0195 97.5,656.7539 Q96.9063,656.4727 96.2813,656.4727 Q94.9375,656.4727 94.25,657.5508 Q93.5625,658.6133 93.5625,660.707 Q93.5625,662.8008 94.25,663.8789 Q94.9375,664.9414 96.2813,664.9414 Q96.9063,664.9414 97.5,664.6758 Q98.0938,664.3945 98.7188,663.8164 L98.7188,666.5352 Z " fill="#000000"/><text fill="#D9B8FF" font-family="Helvetica" font-size="17" lengthAdjust="spacing" textLength="212" x="121.25" y="666.7798">kubernetes_flow_schema</text><line style="stroke:#000D19;stroke-width:1.5;" x1="39.5" x2="382.5" y1="680.7891" y2="680.7891"/><text fill="#D9B8FF" font-family="sans-serif" font-size="11" font-weight="bold" lengthAdjust="spacing" textLength="129" x="49.5" y="699.9995">flow_schema_status</text><text fill="#D9B8FF" font-family="sans-serif" font-size="11" lengthAdjust="spacing" textLength="194" x="178.5" y="699.9995">: kubernetes_flow_schema_status</text></a><!--MD5=[f335455e3a70255320822ab81ad962b7]
reverse link resource to kubernetes_resource--><path codeLine="53" d="M211,303.49 C211,339.49 211,375.48 211,403.96 " fill="none" id="resource-backto-kubernetes_resource" style="stroke:#FFAF37;stroke-width:2.0;"/><polygon fill="none" points="204,303.25,211,283.25,218,303.25,204,303.25" style="stroke:#FFAF37;stroke-width:2.0;"/><!--MD5=[7e46e8e3bace563eeef8ecf29bd9a8b1]
link kubernetes_flow_schema_status to kubernetes_flow_schema_status_conditions--><path codeLine="54" d="M211,843.39 C211,859.03 211,878.23 211,897.32 " fill="none" id="kubernetes_flow_schema_status-to-kubernetes_flow_schema_status_conditions" style="stroke:#FFAF37;stroke-width:2.0;"/><polygon fill="#FFAF37" points="211,902.7,215,893.7,211,897.7,207,893.7,211,902.7" style="stroke:#FFAF37;stroke-width:2.0;"/><!--MD5=[2745e34e7ab5186366d10e4fb92da38b]
reverse link kubernetes_resource to kubernetes_flow_schema--><path codeLine="55" d="M211,540.41 C211,574.84 211,613.65 211,640.8 " fill="none" id="kubernetes_resource-backto-kubernetes_flow_schema" style="stroke:#FFAF37;stroke-width:2.0;"/><polygon fill="none" points="204,540.23,211,520.23,218,540.23,204,540.23" style="stroke:#FFAF37;stroke-width:2.0;"/><!--MD5=[19255f7a05b6a35ef85b0b5fb986c83e]
link kubernetes_flow_schema to kubernetes_flow_schema_status--><path codeLine="56" d="M211,712.07 C211,728.84 211,749.09 211,766.52 " fill="none" id="kubernetes_flow_schema-to-kubernetes_flow_schema_status" style="stroke:#FFAF37;stroke-width:2.0;"/><polygon fill="#FFAF37" points="211,771.83,215,762.83,211,766.83,207,762.83,211,771.83" style="stroke:#FFAF37;stroke-width:2.0;"/><!--MD5=[be65562f53a0cfd1118231a49aad02f8]
@startuml
hide empty members
skinparam ArrowColor #ffaf37
skinparam ArrowFontColor #ffaf37
skinparam ArrowFontName Helvetica
skinparam ArrowThickness 2
skinparam BackgroundColor transparent
skinparam ClassAttributeFontColor #d9b8ff
skinparam ClassBackgroundColor #3d176e
skinparam ClassBorderColor #000d19
skinparam ClassFontColor #d9b8ff
skinparam ClassFontName Helvetica
skinparam ClassFontSize 17
skinparam NoteBackgroundColor #d9b8ff
skinparam NoteBorderColor #000d19
skinparam NoteFontColor #3d176e
skinparam NoteFontName Helvetica
skinparam Padding 5
skinparam RoundCorner 5
skinparam Shadowing false
skinparam stereotypeCBackgroundColor #e98df7
skinparam stereotypeIBackgroundColor #e98df7

class resource [[#resource]] {
**id**: string
**tags**: dictionary[string, string]
**name**: string
**ctime**: datetime
**age**: duration
**mtime**: datetime
**last_update**: duration
**atime**: datetime
**last_access**: duration
**kind**: string
}
class kubernetes_resource [[#kubernetes_resource]] {
**resource_version**: string
**namespace**: string
**labels**: dictionary[string, string]
}
class kubernetes_flow_schema_status_conditions [[#kubernetes_flow_schema_status_conditions]] {
**last_transition_time**: datetime
**message**: string
**reason**: string
**status**: string
**type**: string
}
class kubernetes_flow_schema_status [[#kubernetes_flow_schema_status]] {
**conditions**: kubernetes_flow_schema_status_conditions[]
}
class kubernetes_flow_schema [[#kubernetes_flow_schema]] {
**flow_schema_status**: kubernetes_flow_schema_status
}
resource <|- - - kubernetes_resource
kubernetes_flow_schema_status - -> kubernetes_flow_schema_status_conditions
kubernetes_resource <|- - - kubernetes_flow_schema
kubernetes_flow_schema - -> kubernetes_flow_schema_status
@enduml

PlantUML version 1.2021.16(Wed Dec 08 17:25:22 UTC 2021)
(GPL source distribution)
Java Runtime: OpenJDK Runtime Environment
JVM: OpenJDK 64-Bit Server VM
Default Encoding: UTF-8
Language: en
Country: null
--></g></svg>