<?xml version="1.0" encoding="UTF-8" standalone="no"?><svg xmlns="http://www.w3.org/2000/svg" xmlns:xlink="http://www.w3.org/1999/xlink" contentScriptType="application/ecmascript" contentStyleType="text/css" height="449px" preserveAspectRatio="none" style="width:521px;height:449px;background:#00000000;" version="1.1" viewBox="0 0 521 449" width="521px" zoomAndPan="magnify"><defs/><g><!--MD5=[45e941211880643daf501521e190bacb]
class kubernetes_resource--><rect codeLine="17" fill="#3D176E" height="70.5938" id="kubernetes_resource" rx="2.5" ry="2.5" style="stroke:#000D19;stroke-width:1.5;" width="216" x="7" y="109.5"/><ellipse cx="22" cy="129.3945" fill="#E98DF7" rx="11" ry="11" style="stroke:#000D19;stroke-width:1.0;"/><path d="M24.9688,135.0352 Q24.3906,135.332 23.75,135.4727 Q23.1094,135.6289 22.4063,135.6289 Q19.9063,135.6289 18.5781,133.9883 Q17.2656,132.332 17.2656,129.207 Q17.2656,126.082 18.5781,124.4258 Q19.9063,122.7695 22.4063,122.7695 Q23.1094,122.7695 23.75,122.9258 Q24.4063,123.082 24.9688,123.3789 L24.9688,126.0977 Q24.3438,125.5195 23.75,125.2539 Q23.1563,124.9727 22.5313,124.9727 Q21.1875,124.9727 20.5,126.0508 Q19.8125,127.1133 19.8125,129.207 Q19.8125,131.3008 20.5,132.3789 Q21.1875,133.4414 22.5313,133.4414 Q23.1563,133.4414 23.75,133.1758 Q24.3438,132.8945 24.9688,132.3164 L24.9688,135.0352 Z " fill="#000000"/><text fill="#D9B8FF" font-family="Helvetica" font-size="17" lengthAdjust="spacing" textLength="174" x="41" y="135.2798">kubernetes_resource</text><line style="stroke:#000D19;stroke-width:1.5;" x1="8" x2="222" y1="149.2891" y2="149.2891"/><text fill="#D9B8FF" font-family="sans-serif" font-size="11" font-weight="bold" lengthAdjust="spacing" textLength="53" x="18" y="168.4995">self_link</text><text fill="#D9B8FF" font-family="sans-serif" font-size="11" lengthAdjust="spacing" textLength="41" x="71" y="168.4995">: string</text><!--MD5=[7f0ecf5f554433d3f2e1213379ac821c]
class resource--><rect codeLine="20" fill="#3D176E" height="275.8359" id="resource" rx="2.5" ry="2.5" style="stroke:#000D19;stroke-width:1.5;" width="256" x="258" y="7"/><ellipse cx="341.25" cy="26.8945" fill="#E98DF7" rx="11" ry="11" style="stroke:#000D19;stroke-width:1.0;"/><path d="M344.2188,32.5352 Q343.6406,32.832 343,32.9727 Q342.3594,33.1289 341.6563,33.1289 Q339.1563,33.1289 337.8281,31.4883 Q336.5156,29.832 336.5156,26.707 Q336.5156,23.582 337.8281,21.9258 Q339.1563,20.2695 341.6563,20.2695 Q342.3594,20.2695 343,20.4258 Q343.6563,20.582 344.2188,20.8789 L344.2188,23.5977 Q343.5938,23.0195 343,22.7539 Q342.4063,22.4727 341.7813,22.4727 Q340.4375,22.4727 339.75,23.5508 Q339.0625,24.6133 339.0625,26.707 Q339.0625,28.8008 339.75,29.8789 Q340.4375,30.9414 341.7813,30.9414 Q342.4063,30.9414 343,30.6758 Q343.5938,30.3945 344.2188,29.8164 L344.2188,32.5352 Z " fill="#000000"/><text fill="#D9B8FF" font-family="Helvetica" font-size="17" lengthAdjust="spacing" textLength="71" x="366.75" y="32.7798">resource</text><line style="stroke:#000D19;stroke-width:1.5;" x1="259" x2="513" y1="46.7891" y2="46.7891"/><text fill="#D9B8FF" font-family="sans-serif" font-size="11" font-weight="bold" lengthAdjust="spacing" textLength="12" x="269" y="65.9995">id</text><text fill="#D9B8FF" font-family="sans-serif" font-size="11" lengthAdjust="spacing" textLength="41" x="281" y="65.9995">: string</text><text fill="#D9B8FF" font-family="sans-serif" font-size="11" font-weight="bold" lengthAdjust="spacing" textLength="28" x="269" y="88.8042">tags</text><text fill="#D9B8FF" font-family="sans-serif" font-size="11" lengthAdjust="spacing" textLength="145" x="297" y="88.8042">: dictionary[string, string]</text><text fill="#D9B8FF" font-family="sans-serif" font-size="11" font-weight="bold" lengthAdjust="spacing" textLength="35" x="269" y="111.6089">name</text><text fill="#D9B8FF" font-family="sans-serif" font-size="11" lengthAdjust="spacing" textLength="41" x="304" y="111.6089">: string</text><text fill="#D9B8FF" font-family="sans-serif" font-size="11" font-weight="bold" lengthAdjust="spacing" textLength="35" x="269" y="134.4136">ctime</text><text fill="#D9B8FF" font-family="sans-serif" font-size="11" lengthAdjust="spacing" textLength="58" x="304" y="134.4136">: datetime</text><text fill="#D9B8FF" font-family="sans-serif" font-size="11" font-weight="bold" lengthAdjust="spacing" textLength="24" x="269" y="157.2183">age</text><text fill="#D9B8FF" font-family="sans-serif" font-size="11" lengthAdjust="spacing" textLength="159" x="293" y="157.2183">: trafo.duration_to_datetime</text><text fill="#D9B8FF" font-family="sans-serif" font-size="11" font-weight="bold" lengthAdjust="spacing" textLength="39" x="269" y="180.0229">mtime</text><text fill="#D9B8FF" font-family="sans-serif" font-size="11" lengthAdjust="spacing" textLength="58" x="308" y="180.0229">: datetime</text><text fill="#D9B8FF" font-family="sans-serif" font-size="11" font-weight="bold" lengthAdjust="spacing" textLength="75" x="269" y="202.8276">last_update</text><text fill="#D9B8FF" font-family="sans-serif" font-size="11" lengthAdjust="spacing" textLength="159" x="344" y="202.8276">: trafo.duration_to_datetime</text><text fill="#D9B8FF" font-family="sans-serif" font-size="11" font-weight="bold" lengthAdjust="spacing" textLength="36" x="269" y="225.6323">atime</text><text fill="#D9B8FF" font-family="sans-serif" font-size="11" lengthAdjust="spacing" textLength="58" x="305" y="225.6323">: datetime</text><text fill="#D9B8FF" font-family="sans-serif" font-size="11" font-weight="bold" lengthAdjust="spacing" textLength="74" x="269" y="248.437">last_access</text><text fill="#D9B8FF" font-family="sans-serif" font-size="11" lengthAdjust="spacing" textLength="159" x="343" y="248.437">: trafo.duration_to_datetime</text><text fill="#D9B8FF" font-family="sans-serif" font-size="11" font-weight="bold" lengthAdjust="spacing" textLength="27" x="269" y="271.2417">kind</text><text fill="#D9B8FF" font-family="sans-serif" font-size="11" lengthAdjust="spacing" textLength="41" x="296" y="271.2417">: string</text><!--MD5=[14ba4ad51abad400433b9e9ac6042d40]
class kubernetes_deployment--><rect codeLine="32" fill="#3D176E" height="39.7891" id="kubernetes_deployment" rx="2.5" ry="2.5" style="stroke:#000D19;stroke-width:1.5;" width="245" x="127.5" y="404"/><ellipse cx="142.5" cy="423.8945" fill="#E98DF7" rx="11" ry="11" style="stroke:#000D19;stroke-width:1.0;"/><path d="M145.4688,429.5352 Q144.8906,429.832 144.25,429.9727 Q143.6094,430.1289 142.9063,430.1289 Q140.4063,430.1289 139.0781,428.4883 Q137.7656,426.832 137.7656,423.707 Q137.7656,420.582 139.0781,418.9258 Q140.4063,417.2695 142.9063,417.2695 Q143.6094,417.2695 144.25,417.4258 Q144.9063,417.582 145.4688,417.8789 L145.4688,420.5977 Q144.8438,420.0195 144.25,419.7539 Q143.6563,419.4727 143.0313,419.4727 Q141.6875,419.4727 141,420.5508 Q140.3125,421.6133 140.3125,423.707 Q140.3125,425.8008 141,426.8789 Q141.6875,427.9414 143.0313,427.9414 Q143.6563,427.9414 144.25,427.6758 Q144.8438,427.3945 145.4688,426.8164 L145.4688,429.5352 Z " fill="#000000"/><text fill="#D9B8FF" font-family="Helvetica" font-size="17" lengthAdjust="spacing" textLength="203" x="161.5" y="429.7798">kubernetes_deployment</text><!--MD5=[4bdc92bb0b8a986e1b953c180d930334]
reverse link kubernetes_resource to kubernetes_deployment--><path codeLine="35" d="M140.6,198.53 C170.99,260.89 220.13,361.72 240.59,403.7 " fill="none" id="kubernetes_resource-backto-kubernetes_deployment" style="stroke:#FFAF37;stroke-width:2.0;"/><polygon fill="none" points="134.29,201.57,131.82,180.52,146.88,195.43,134.29,201.57" style="stroke:#FFAF37;stroke-width:2.0;"/><!--MD5=[6497cffa1437fce8adc3d320e22ff85a]
reverse link resource to kubernetes_deployment--><path codeLine="36" d="M309.76,301.28 C289.6,342.34 270.42,381.41 259.45,403.75 " fill="none" id="resource-backto-kubernetes_deployment" style="stroke:#FFAF37;stroke-width:2.0;"/><polygon fill="none" points="303.5,298.15,318.6,283.28,316.07,304.32,303.5,298.15" style="stroke:#FFAF37;stroke-width:2.0;"/><!--MD5=[42cf1213e948540637cf8f20f22a21c9]
@startuml
hide empty members
skinparam ArrowColor #ffaf37
skinparam ArrowThickness 2
skinparam BackgroundColor transparent
skinparam ClassAttributeFontColor #d9b8ff
skinparam ClassBackgroundColor #3d176e
skinparam ClassBorderColor #000d19
skinparam ClassFontColor #d9b8ff
skinparam ClassFontName Helvetica
skinparam ClassFontSize 17
skinparam Padding 5
skinparam RoundCorner 5
skinparam Shadowing false
skinparam stereotypeCBackgroundColor #e98df7
skinparam stereotypeIBackgroundColor #e98df7

class kubernetes_resource {
**self_link**: string
}
class resource {
**id**: string
**tags**: dictionary[string, string]
**name**: string
**ctime**: datetime
**age**: trafo.duration_to_datetime
**mtime**: datetime
**last_update**: trafo.duration_to_datetime
**atime**: datetime
**last_access**: trafo.duration_to_datetime
**kind**: string
}
class kubernetes_deployment {

}
kubernetes_resource <|- - - kubernetes_deployment
resource <|- - - kubernetes_deployment
@enduml

PlantUML version 1.2021.16(Wed Dec 08 17:25:22 UTC 2021)
(GPL source distribution)
Java Runtime: OpenJDK Runtime Environment
JVM: OpenJDK 64-Bit Server VM
Default Encoding: UTF-8
Language: en
Country: null
--></g></svg>