<?xml version="1.0" encoding="UTF-8" standalone="no"?><svg xmlns="http://www.w3.org/2000/svg" xmlns:xlink="http://www.w3.org/1999/xlink" contentScriptType="application/ecmascript" contentStyleType="text/css" height="686px" preserveAspectRatio="none" style="width:238px;height:686px;background:#00000000;" version="1.1" viewBox="0 0 238 686" width="238px" zoomAndPan="magnify"><defs/><g><!--MD5=[7f0ecf5f554433d3f2e1213379ac821c]
class resource--><a href="#resource" target="_top" title="#resource" xlink:actuate="onRequest" xlink:href="#resource" xlink:show="new" xlink:title="#resource" xlink:type="simple"><rect codeLine="23" fill="#3D176E" height="275.8359" id="resource" rx="2.5" ry="2.5" style="stroke:#000D19;stroke-width:1.5;" width="195" x="21.5" y="7"/><ellipse cx="74.25" cy="26.8945" fill="#E98DF7" rx="11" ry="11" style="stroke:#000D19;stroke-width:1.0;"/><path d="M77.2188,32.5352 Q76.6406,32.832 76,32.9727 Q75.3594,33.1289 74.6563,33.1289 Q72.1563,33.1289 70.8281,31.4883 Q69.5156,29.832 69.5156,26.707 Q69.5156,23.582 70.8281,21.9258 Q72.1563,20.2695 74.6563,20.2695 Q75.3594,20.2695 76,20.4258 Q76.6563,20.582 77.2188,20.8789 L77.2188,23.5977 Q76.5938,23.0195 76,22.7539 Q75.4063,22.4727 74.7813,22.4727 Q73.4375,22.4727 72.75,23.5508 Q72.0625,24.6133 72.0625,26.707 Q72.0625,28.8008 72.75,29.8789 Q73.4375,30.9414 74.7813,30.9414 Q75.4063,30.9414 76,30.6758 Q76.5938,30.3945 77.2188,29.8164 L77.2188,32.5352 Z " fill="#000000"/><text fill="#D9B8FF" font-family="Helvetica" font-size="17" lengthAdjust="spacing" textLength="71" x="99.75" y="32.7798">resource</text><line style="stroke:#000D19;stroke-width:1.5;" x1="22.5" x2="215.5" y1="46.7891" y2="46.7891"/><text fill="#D9B8FF" font-family="sans-serif" font-size="11" font-weight="bold" lengthAdjust="spacing" textLength="12" x="32.5" y="65.9995">id</text><text fill="#D9B8FF" font-family="sans-serif" font-size="11" lengthAdjust="spacing" textLength="41" x="44.5" y="65.9995">: string</text><text fill="#D9B8FF" font-family="sans-serif" font-size="11" font-weight="bold" lengthAdjust="spacing" textLength="28" x="32.5" y="88.8042">tags</text><text fill="#D9B8FF" font-family="sans-serif" font-size="11" lengthAdjust="spacing" textLength="145" x="60.5" y="88.8042">: dictionary[string, string]</text><text fill="#D9B8FF" font-family="sans-serif" font-size="11" font-weight="bold" lengthAdjust="spacing" textLength="35" x="32.5" y="111.6089">name</text><text fill="#D9B8FF" font-family="sans-serif" font-size="11" lengthAdjust="spacing" textLength="41" x="67.5" y="111.6089">: string</text><text fill="#D9B8FF" font-family="sans-serif" font-size="11" font-weight="bold" lengthAdjust="spacing" textLength="35" x="32.5" y="134.4136">ctime</text><text fill="#D9B8FF" font-family="sans-serif" font-size="11" lengthAdjust="spacing" textLength="58" x="67.5" y="134.4136">: datetime</text><text fill="#D9B8FF" font-family="sans-serif" font-size="11" font-weight="bold" lengthAdjust="spacing" textLength="24" x="32.5" y="157.2183">age</text><text fill="#D9B8FF" font-family="sans-serif" font-size="11" lengthAdjust="spacing" textLength="55" x="56.5" y="157.2183">: duration</text><text fill="#D9B8FF" font-family="sans-serif" font-size="11" font-weight="bold" lengthAdjust="spacing" textLength="39" x="32.5" y="180.0229">mtime</text><text fill="#D9B8FF" font-family="sans-serif" font-size="11" lengthAdjust="spacing" textLength="58" x="71.5" y="180.0229">: datetime</text><text fill="#D9B8FF" font-family="sans-serif" font-size="11" font-weight="bold" lengthAdjust="spacing" textLength="75" x="32.5" y="202.8276">last_update</text><text fill="#D9B8FF" font-family="sans-serif" font-size="11" lengthAdjust="spacing" textLength="55" x="107.5" y="202.8276">: duration</text><text fill="#D9B8FF" font-family="sans-serif" font-size="11" font-weight="bold" lengthAdjust="spacing" textLength="36" x="32.5" y="225.6323">atime</text><text fill="#D9B8FF" font-family="sans-serif" font-size="11" lengthAdjust="spacing" textLength="58" x="68.5" y="225.6323">: datetime</text><text fill="#D9B8FF" font-family="sans-serif" font-size="11" font-weight="bold" lengthAdjust="spacing" textLength="74" x="32.5" y="248.437">last_access</text><text fill="#D9B8FF" font-family="sans-serif" font-size="11" lengthAdjust="spacing" textLength="55" x="106.5" y="248.437">: duration</text><text fill="#D9B8FF" font-family="sans-serif" font-size="11" font-weight="bold" lengthAdjust="spacing" textLength="27" x="32.5" y="271.2417">kind</text><text fill="#D9B8FF" font-family="sans-serif" font-size="11" lengthAdjust="spacing" textLength="41" x="59.5" y="271.2417">: string</text></a><!--MD5=[45e941211880643daf501521e190bacb]
class kubernetes_resource--><a href="#kubernetes_resource" target="_top" title="#kubernetes_resource" xlink:actuate="onRequest" xlink:href="#kubernetes_resource" xlink:show="new" xlink:title="#kubernetes_resource" xlink:type="simple"><rect codeLine="35" fill="#3D176E" height="116.2031" id="kubernetes_resource" rx="2.5" ry="2.5" style="stroke:#000D19;stroke-width:1.5;" width="216" x="11" y="404"/><ellipse cx="26" cy="423.8945" fill="#E98DF7" rx="11" ry="11" style="stroke:#000D19;stroke-width:1.0;"/><path d="M28.9688,429.5352 Q28.3906,429.832 27.75,429.9727 Q27.1094,430.1289 26.4063,430.1289 Q23.9063,430.1289 22.5781,428.4883 Q21.2656,426.832 21.2656,423.707 Q21.2656,420.582 22.5781,418.9258 Q23.9063,417.2695 26.4063,417.2695 Q27.1094,417.2695 27.75,417.4258 Q28.4063,417.582 28.9688,417.8789 L28.9688,420.5977 Q28.3438,420.0195 27.75,419.7539 Q27.1563,419.4727 26.5313,419.4727 Q25.1875,419.4727 24.5,420.5508 Q23.8125,421.6133 23.8125,423.707 Q23.8125,425.8008 24.5,426.8789 Q25.1875,427.9414 26.5313,427.9414 Q27.1563,427.9414 27.75,427.6758 Q28.3438,427.3945 28.9688,426.8164 L28.9688,429.5352 Z " fill="#000000"/><text fill="#D9B8FF" font-family="Helvetica" font-size="17" lengthAdjust="spacing" textLength="174" x="45" y="429.7798">kubernetes_resource</text><line style="stroke:#000D19;stroke-width:1.5;" x1="12" x2="226" y1="443.7891" y2="443.7891"/><text fill="#D9B8FF" font-family="sans-serif" font-size="11" font-weight="bold" lengthAdjust="spacing" textLength="109" x="22" y="462.9995">resource_version</text><text fill="#D9B8FF" font-family="sans-serif" font-size="11" lengthAdjust="spacing" textLength="41" x="131" y="462.9995">: string</text><text fill="#D9B8FF" font-family="sans-serif" font-size="11" font-weight="bold" lengthAdjust="spacing" textLength="73" x="22" y="485.8042">namespace</text><text fill="#D9B8FF" font-family="sans-serif" font-size="11" lengthAdjust="spacing" textLength="41" x="95" y="485.8042">: string</text><text fill="#D9B8FF" font-family="sans-serif" font-size="11" font-weight="bold" lengthAdjust="spacing" textLength="39" x="22" y="508.6089">labels</text><text fill="#D9B8FF" font-family="sans-serif" font-size="11" lengthAdjust="spacing" textLength="145" x="61" y="508.6089">: dictionary[string, string]</text></a><!--MD5=[77b728550248205553d38146cacb5da8]
class kubernetes_csi_driver--><a href="#kubernetes_csi_driver" target="_top" title="#kubernetes_csi_driver" xlink:actuate="onRequest" xlink:href="#kubernetes_csi_driver" xlink:show="new" xlink:title="#kubernetes_csi_driver" xlink:type="simple"><rect codeLine="40" fill="#3D176E" height="39.7891" id="kubernetes_csi_driver" rx="2.5" ry="2.5" style="stroke:#000D19;stroke-width:1.5;" width="224" x="7" y="641"/><ellipse cx="22" cy="660.8945" fill="#E98DF7" rx="11" ry="11" style="stroke:#000D19;stroke-width:1.0;"/><path d="M24.9688,666.5352 Q24.3906,666.832 23.75,666.9727 Q23.1094,667.1289 22.4063,667.1289 Q19.9063,667.1289 18.5781,665.4883 Q17.2656,663.832 17.2656,660.707 Q17.2656,657.582 18.5781,655.9258 Q19.9063,654.2695 22.4063,654.2695 Q23.1094,654.2695 23.75,654.4258 Q24.4063,654.582 24.9688,654.8789 L24.9688,657.5977 Q24.3438,657.0195 23.75,656.7539 Q23.1563,656.4727 22.5313,656.4727 Q21.1875,656.4727 20.5,657.5508 Q19.8125,658.6133 19.8125,660.707 Q19.8125,662.8008 20.5,663.8789 Q21.1875,664.9414 22.5313,664.9414 Q23.1563,664.9414 23.75,664.6758 Q24.3438,664.3945 24.9688,663.8164 L24.9688,666.5352 Z " fill="#000000"/><text fill="#D9B8FF" font-family="Helvetica" font-size="17" lengthAdjust="spacing" textLength="182" x="41" y="666.7798">kubernetes_csi_driver</text></a><!--MD5=[f335455e3a70255320822ab81ad962b7]
reverse link resource to kubernetes_resource--><path codeLine="43" d="M119,303.49 C119,339.49 119,375.48 119,403.96 " fill="none" id="resource-backto-kubernetes_resource" style="stroke:#FFAF37;stroke-width:2.0;"/><polygon fill="none" points="112,303.25,119,283.25,126,303.25,112,303.25" style="stroke:#FFAF37;stroke-width:2.0;"/><!--MD5=[302bc0d4aa0f72199f5e9ac46ae02f9e]
reverse link kubernetes_resource to kubernetes_csi_driver--><path codeLine="44" d="M119,540.27 C119,576.8 119,617.42 119,640.71 " fill="none" id="kubernetes_resource-backto-kubernetes_csi_driver" style="stroke:#FFAF37;stroke-width:2.0;"/><polygon fill="none" points="112,540.25,119,520.25,126,540.25,112,540.25" style="stroke:#FFAF37;stroke-width:2.0;"/><!--MD5=[039774aa236c8d45b32dbf7f507cb593]
@startuml
hide empty members
skinparam ArrowColor #ffaf37
skinparam ArrowFontColor #ffaf37
skinparam ArrowFontName Helvetica
skinparam ArrowThickness 2
skinparam BackgroundColor transparent
skinparam ClassAttributeFontColor #d9b8ff
skinparam ClassBackgroundColor #3d176e
skinparam ClassBorderColor #000d19
skinparam ClassFontColor #d9b8ff
skinparam ClassFontName Helvetica
skinparam ClassFontSize 17
skinparam NoteBackgroundColor #d9b8ff
skinparam NoteBorderColor #000d19
skinparam NoteFontColor #3d176e
skinparam NoteFontName Helvetica
skinparam Padding 5
skinparam RoundCorner 5
skinparam Shadowing false
skinparam stereotypeCBackgroundColor #e98df7
skinparam stereotypeIBackgroundColor #e98df7

class resource [[#resource]] {
**id**: string
**tags**: dictionary[string, string]
**name**: string
**ctime**: datetime
**age**: duration
**mtime**: datetime
**last_update**: duration
**atime**: datetime
**last_access**: duration
**kind**: string
}
class kubernetes_resource [[#kubernetes_resource]] {
**resource_version**: string
**namespace**: string
**labels**: dictionary[string, string]
}
class kubernetes_csi_driver [[#kubernetes_csi_driver]] {

}
resource <|- - - kubernetes_resource
kubernetes_resource <|- - - kubernetes_csi_driver
@enduml

PlantUML version 1.2021.16(Wed Dec 08 17:25:22 UTC 2021)
(GPL source distribution)
Java Runtime: OpenJDK Runtime Environment
JVM: OpenJDK 64-Bit Server VM
Default Encoding: UTF-8
Language: en
Country: null
--></g></svg>