<svg xmlns="http://www.w3.org/2000/svg" xmlns:xlink="http://www.w3.org/1999/xlink" width="2154" height="552" preserveAspectRatio="none" style="width:2154px;height:552px;background:#00000000"><a xlink:actuate="onRequest" xlink:href="#a" xlink:show="new" xlink:title="#gcp_route" xlink:type="simple" target="_top"><rect id="a" width="124" height="39.789" x="532.5" y="207" fill="#3D176E" rx="2.5" ry="2.5" style="stroke:#000d19;stroke-width:1.5"/><circle cx="547.5" cy="226.894" r="11" fill="#E98DF7" style="stroke:#000d19;stroke-width:1"/><path d="M550.469 232.535q-.578.297-1.219.438-.64.156-1.344.156-2.5 0-3.828-1.64-1.312-1.657-1.312-4.782t1.312-4.781q1.328-1.656 3.828-1.656.703 0 1.344.156.656.156 1.219.453v2.719q-.625-.579-1.219-.844-.594-.281-1.219-.281-1.343 0-2.031 1.078-.688 1.062-.688 3.156 0 2.094.688 3.172.688 1.062 2.031 1.062.625 0 1.219-.265.594-.281 1.219-.86v2.72Z"/><text x="566.5" y="232.78" fill="#D9B8FF" font-family="Helvetica" font-size="17" textLength="82">gcp_route</text></a><a xlink:actuate="onRequest" xlink:href="#b" xlink:show="new" xlink:title="#gcp_snapshot" xlink:type="simple" target="_top"><rect id="b" width="154" height="39.789" x="130.5" y="107" fill="#3D176E" rx="2.5" ry="2.5" style="stroke:#000d19;stroke-width:1.5"/><circle cx="145.5" cy="126.894" r="11" fill="#E98DF7" style="stroke:#000d19;stroke-width:1"/><path d="M148.469 132.535q-.578.297-1.219.438-.64.156-1.344.156-2.5 0-3.828-1.64-1.312-1.657-1.312-4.782t1.312-4.781q1.328-1.657 3.828-1.657.703 0 1.344.157.656.156 1.219.453v2.719q-.625-.579-1.219-.844-.594-.281-1.219-.281-1.344 0-2.031 1.078-.688 1.062-.688 3.156 0 2.094.688 3.172.688 1.062 2.031 1.062.625 0 1.219-.265.594-.281 1.219-.86v2.72Z"/><text x="164.5" y="132.78" fill="#D9B8FF" font-family="Helvetica" font-size="17" textLength="112">gcp_snapshot</text></a><a xlink:actuate="onRequest" xlink:href="#c" xlink:show="new" xlink:title="#gcp_https_health_check" xlink:type="simple" target="_top"><rect id="c" width="241" height="39.789" x="7" y="507" fill="#3D176E" rx="2.5" ry="2.5" style="stroke:#000d19;stroke-width:1.5"/><circle cx="22" cy="526.894" r="11" fill="#E98DF7" style="stroke:#000d19;stroke-width:1"/><path d="M24.969 532.535q-.578.297-1.219.438-.64.156-1.344.156-2.5 0-3.828-1.64-1.312-1.657-1.312-4.782t1.312-4.781q1.328-1.657 3.828-1.657.703 0 1.344.157.656.156 1.219.453v2.719q-.625-.578-1.219-.844-.594-.281-1.219-.281-1.343 0-2.031 1.078-.688 1.062-.688 3.156 0 2.094.688 3.172.688 1.062 2.031 1.062.625 0 1.219-.265.594-.282 1.219-.86v2.72Z"/><text x="41" y="532.78" fill="#D9B8FF" font-family="Helvetica" font-size="17" textLength="199">gcp_https_health_check</text></a><a xlink:actuate="onRequest" xlink:href="#d" xlink:show="new" xlink:title="#gcp_http_health_check" xlink:type="simple" target="_top"><rect id="d" width="233" height="39.789" x="383" y="507" fill="#3D176E" rx="2.5" ry="2.5" style="stroke:#000d19;stroke-width:1.5"/><circle cx="398" cy="526.894" r="11" fill="#E98DF7" style="stroke:#000d19;stroke-width:1"/><path d="M400.969 532.535q-.578.297-1.219.438-.64.156-1.344.156-2.5 0-3.828-1.64-1.312-1.657-1.312-4.782t1.312-4.781q1.328-1.657 3.828-1.657.703 0 1.344.157.656.156 1.219.453v2.719q-.625-.578-1.219-.844-.594-.281-1.219-.281-1.344 0-2.031 1.078-.688 1.062-.688 3.156 0 2.094.688 3.172.688 1.062 2.031 1.062.625 0 1.219-.265.594-.282 1.219-.86v2.72Z"/><text x="417" y="532.78" fill="#D9B8FF" font-family="Helvetica" font-size="17" textLength="191">gcp_http_health_check</text></a><a xlink:actuate="onRequest" xlink:href="#e" xlink:show="new" xlink:title="#gcp_forwarding_rule" xlink:type="simple" target="_top"><rect id="e" width="212" height="39.789" x="1259.5" y="207" fill="#3D176E" rx="2.5" ry="2.5" style="stroke:#000d19;stroke-width:1.5"/><circle cx="1274.5" cy="226.894" r="11" fill="#E98DF7" style="stroke:#000d19;stroke-width:1"/><path d="M1277.469 232.535q-.578.297-1.219.438-.64.156-1.344.156-2.5 0-3.828-1.64-1.312-1.657-1.312-4.782t1.312-4.781q1.328-1.656 3.828-1.656.703 0 1.344.156.656.156 1.219.453v2.719q-.625-.579-1.219-.844-.594-.281-1.219-.281-1.343 0-2.031 1.078-.688 1.062-.688 3.156 0 2.094.688 3.172.688 1.062 2.031 1.062.625 0 1.219-.265.594-.281 1.219-.86v2.72Z"/><text x="1293.5" y="232.78" fill="#D9B8FF" font-family="Helvetica" font-size="17" textLength="170">gcp_forwarding_rule</text></a><a xlink:actuate="onRequest" xlink:href="#f" xlink:show="new" xlink:title="#gcp_backend_service" xlink:type="simple" target="_top"><rect id="f" width="215" height="39.789" x="442" y="407" fill="#3D176E" rx="2.5" ry="2.5" style="stroke:#000d19;stroke-width:1.5"/><circle cx="457" cy="426.894" r="11" fill="#E98DF7" style="stroke:#000d19;stroke-width:1"/><path d="M459.969 432.535q-.578.297-1.219.438-.64.156-1.344.156-2.5 0-3.828-1.64-1.312-1.657-1.312-4.782t1.312-4.781q1.328-1.656 3.828-1.656.703 0 1.344.156.656.156 1.219.453v2.719q-.625-.579-1.219-.844-.594-.281-1.219-.281-1.344 0-2.031 1.078-.688 1.062-.688 3.156 0 2.094.688 3.172.688 1.062 2.031 1.062.625 0 1.219-.265.594-.281 1.219-.86v2.72Z"/><text x="476" y="432.78" fill="#D9B8FF" font-family="Helvetica" font-size="17" textLength="173">gcp_backend_service</text></a><a xlink:actuate="onRequest" xlink:href="#g" xlink:show="new" xlink:title="#gcp_ssl_certificate" xlink:type="simple" target="_top"><rect id="g" width="192" height="39.789" x="1534.5" y="407" fill="#3D176E" rx="2.5" ry="2.5" style="stroke:#000d19;stroke-width:1.5"/><circle cx="1549.5" cy="426.894" r="11" fill="#E98DF7" style="stroke:#000d19;stroke-width:1"/><path d="M1552.469 432.535q-.578.297-1.219.438-.64.156-1.344.156-2.5 0-3.828-1.64-1.312-1.657-1.312-4.782t1.312-4.781q1.328-1.656 3.828-1.656.703 0 1.344.156.656.156 1.219.453v2.719q-.625-.579-1.219-.844-.594-.281-1.219-.281-1.343 0-2.031 1.078-.688 1.062-.688 3.156 0 2.094.688 3.172.688 1.062 2.031 1.062.625 0 1.219-.265.594-.281 1.219-.86v2.72Z"/><text x="1568.5" y="432.78" fill="#D9B8FF" font-family="Helvetica" font-size="17" textLength="150">gcp_ssl_certificate</text></a><a xlink:actuate="onRequest" xlink:href="#h" xlink:show="new" xlink:title="#gcp_target_https_proxy" xlink:type="simple" target="_top"><rect id="h" width="238" height="39.789" x="1780.5" y="307" fill="#3D176E" rx="2.5" ry="2.5" style="stroke:#000d19;stroke-width:1.5"/><circle cx="1795.5" cy="326.894" r="11" fill="#E98DF7" style="stroke:#000d19;stroke-width:1"/><path d="M1798.469 332.535q-.578.297-1.219.438-.64.156-1.344.156-2.5 0-3.828-1.64-1.312-1.657-1.312-4.782t1.312-4.781q1.328-1.656 3.828-1.656.703 0 1.344.156.656.156 1.219.453v2.719q-.625-.579-1.219-.844-.594-.281-1.219-.281-1.343 0-2.031 1.078-.688 1.062-.688 3.156 0 2.094.688 3.172.688 1.062 2.031 1.062.625 0 1.219-.265.594-.281 1.219-.86v2.72Z"/><text x="1814.5" y="332.78" fill="#D9B8FF" font-family="Helvetica" font-size="17" textLength="196">gcp_target_https_proxy</text></a><a xlink:actuate="onRequest" xlink:href="#i" xlink:show="new" xlink:title="#gcp_target_ssl_proxy" xlink:type="simple" target="_top"><rect id="i" width="216" height="39.789" x="928.5" y="307" fill="#3D176E" rx="2.5" ry="2.5" style="stroke:#000d19;stroke-width:1.5"/><circle cx="943.5" cy="326.894" r="11" fill="#E98DF7" style="stroke:#000d19;stroke-width:1"/><path d="M946.469 332.535q-.578.297-1.219.438-.64.156-1.344.156-2.5 0-3.828-1.64-1.312-1.657-1.312-4.782t1.312-4.781q1.328-1.656 3.828-1.656.703 0 1.344.156.656.156 1.219.453v2.719q-.625-.579-1.219-.844-.594-.281-1.219-.281-1.343 0-2.031 1.078-.688 1.062-.688 3.156 0 2.094.688 3.172.688 1.062 2.031 1.062.625 0 1.219-.265.594-.281 1.219-.86v2.72Z"/><text x="962.5" y="332.78" fill="#D9B8FF" font-family="Helvetica" font-size="17" textLength="174">gcp_target_ssl_proxy</text></a><a xlink:actuate="onRequest" xlink:href="#j" xlink:show="new" xlink:title="#gcp_target_grpc_proxy" xlink:type="simple" target="_top"><rect id="j" width="230" height="39.789" x="1515.5" y="307" fill="#3D176E" rx="2.5" ry="2.5" style="stroke:#000d19;stroke-width:1.5"/><circle cx="1530.5" cy="326.894" r="11" fill="#E98DF7" style="stroke:#000d19;stroke-width:1"/><path d="M1533.469 332.535q-.578.297-1.219.438-.64.156-1.344.156-2.5 0-3.828-1.64-1.312-1.657-1.312-4.782t1.312-4.781q1.328-1.656 3.828-1.656.703 0 1.344.156.656.156 1.219.453v2.719q-.625-.579-1.219-.844-.594-.281-1.219-.281-1.343 0-2.031 1.078-.688 1.062-.688 3.156 0 2.094.688 3.172.688 1.062 2.031 1.062.625 0 1.219-.265.594-.281 1.219-.86v2.72Z"/><text x="1549.5" y="332.78" fill="#D9B8FF" font-family="Helvetica" font-size="17" textLength="188">gcp_target_grpc_proxy</text></a><a xlink:actuate="onRequest" xlink:href="#k" xlink:show="new" xlink:title="#gcp_health_check" xlink:type="simple" target="_top"><rect id="k" width="189" height="39.789" x="781" y="507" fill="#3D176E" rx="2.5" ry="2.5" style="stroke:#000d19;stroke-width:1.5"/><circle cx="796" cy="526.894" r="11" fill="#E98DF7" style="stroke:#000d19;stroke-width:1"/><path d="M798.969 532.535q-.578.297-1.219.438-.64.156-1.344.156-2.5 0-3.828-1.64-1.312-1.657-1.312-4.782t1.312-4.781q1.328-1.657 3.828-1.657.703 0 1.344.157.656.156 1.219.453v2.719q-.625-.578-1.219-.844-.594-.281-1.219-.281-1.343 0-2.031 1.078-.688 1.062-.688 3.156 0 2.094.688 3.172.688 1.062 2.031 1.062.625 0 1.219-.265.594-.282 1.219-.86v2.72Z"/><text x="815" y="532.78" fill="#D9B8FF" font-family="Helvetica" font-size="17" textLength="147">gcp_health_check</text></a><a xlink:actuate="onRequest" xlink:href="#l" xlink:show="new" xlink:title="#gcp_target_tcp_proxy" xlink:type="simple" target="_top"><rect id="l" width="220" height="39.789" x="602.5" y="307" fill="#3D176E" rx="2.5" ry="2.5" style="stroke:#000d19;stroke-width:1.5"/><circle cx="617.5" cy="326.894" r="11" fill="#E98DF7" style="stroke:#000d19;stroke-width:1"/><path d="M620.469 332.535q-.578.297-1.219.438-.64.156-1.344.156-2.5 0-3.828-1.64-1.312-1.657-1.312-4.782t1.312-4.781q1.328-1.656 3.828-1.656.703 0 1.344.156.656.156 1.219.453v2.719q-.625-.579-1.219-.844-.594-.281-1.219-.281-1.343 0-2.031 1.078-.688 1.062-.688 3.156 0 2.094.688 3.172.688 1.062 2.031 1.062.625 0 1.219-.265.594-.281 1.219-.86v2.72Z"/><text x="636.5" y="332.78" fill="#D9B8FF" font-family="Helvetica" font-size="17" textLength="178">gcp_target_tcp_proxy</text></a><a xlink:actuate="onRequest" xlink:href="#m" xlink:show="new" xlink:title="#gcp_target_http_proxy" xlink:type="simple" target="_top"><rect id="m" width="230" height="39.789" x="1250.5" y="307" fill="#3D176E" rx="2.5" ry="2.5" style="stroke:#000d19;stroke-width:1.5"/><circle cx="1265.5" cy="326.894" r="11" fill="#E98DF7" style="stroke:#000d19;stroke-width:1"/><path d="M1268.469 332.535q-.578.297-1.219.438-.64.156-1.344.156-2.5 0-3.828-1.64-1.312-1.657-1.312-4.782t1.312-4.781q1.328-1.656 3.828-1.656.703 0 1.344.156.656.156 1.219.453v2.719q-.625-.579-1.219-.844-.594-.281-1.219-.281-1.343 0-2.031 1.078-.688 1.062-.688 3.156 0 2.094.688 3.172.688 1.062 2.031 1.062.625 0 1.219-.265.594-.281 1.219-.86v2.72Z"/><text x="1284.5" y="332.78" fill="#D9B8FF" font-family="Helvetica" font-size="17" textLength="188">gcp_target_http_proxy</text></a><a xlink:actuate="onRequest" xlink:href="#n" xlink:show="new" xlink:title="#gcp_bucket" xlink:type="simple" target="_top"><rect id="n" width="135" height="39.789" x="1644" y="107" fill="#3D176E" rx="2.5" ry="2.5" style="stroke:#000d19;stroke-width:1.5"/><circle cx="1659" cy="126.894" r="11" fill="#E98DF7" style="stroke:#000d19;stroke-width:1"/><path d="M1661.969 132.535q-.578.297-1.219.438-.64.156-1.344.156-2.5 0-3.828-1.64-1.312-1.657-1.312-4.782t1.312-4.781q1.328-1.657 3.828-1.657.703 0 1.344.157.656.156 1.219.453v2.719q-.625-.579-1.219-.844-.594-.281-1.219-.281-1.343 0-2.031 1.078-.688 1.062-.688 3.156 0 2.094.688 3.172.688 1.062 2.031 1.062.625 0 1.219-.265.594-.281 1.219-.86v2.72Z"/><text x="1678" y="132.78" fill="#D9B8FF" font-family="Helvetica" font-size="17" textLength="93">gcp_bucket</text></a><a xlink:actuate="onRequest" xlink:href="#o" xlink:show="new" xlink:title="#gcp_subnetwork" xlink:type="simple" target="_top"><rect id="o" width="178" height="39.789" x="691.5" y="207" fill="#3D176E" rx="2.5" ry="2.5" style="stroke:#000d19;stroke-width:1.5"/><circle cx="706.5" cy="226.894" r="11" fill="#E98DF7" style="stroke:#000d19;stroke-width:1"/><path d="M709.469 232.535q-.578.297-1.219.438-.64.156-1.344.156-2.5 0-3.828-1.64-1.312-1.657-1.312-4.782t1.312-4.781q1.328-1.656 3.828-1.656.703 0 1.344.156.656.156 1.219.453v2.719q-.625-.579-1.219-.844-.594-.281-1.219-.281-1.343 0-2.031 1.078-.688 1.062-.688 3.156 0 2.094.688 3.172.688 1.062 2.031 1.062.625 0 1.219-.265.594-.281 1.219-.86v2.72Z"/><text x="725.5" y="232.78" fill="#D9B8FF" font-family="Helvetica" font-size="17" textLength="136">gcp_subnetwork</text></a><a xlink:actuate="onRequest" xlink:href="#p" xlink:show="new" xlink:title="#gcp_service" xlink:type="simple" target="_top"><rect id="p" width="137" height="39.789" x="1886" y="107" fill="#3D176E" rx="2.5" ry="2.5" style="stroke:#000d19;stroke-width:1.5"/><circle cx="1901" cy="126.894" r="11" fill="#E98DF7" style="stroke:#000d19;stroke-width:1"/><path d="M1903.969 132.535q-.578.297-1.219.438-.64.156-1.344.156-2.5 0-3.828-1.64-1.312-1.657-1.312-4.782t1.312-4.781q1.328-1.657 3.828-1.657.703 0 1.344.157.656.156 1.219.453v2.719q-.625-.579-1.219-.844-.594-.281-1.219-.281-1.343 0-2.031 1.078-.688 1.062-.688 3.156 0 2.094.688 3.172.688 1.062 2.031 1.062.625 0 1.219-.265.594-.281 1.219-.86v2.72Z"/><text x="1920" y="132.78" fill="#D9B8FF" font-family="Helvetica" font-size="17" textLength="95">gcp_service</text></a><a xlink:actuate="onRequest" xlink:href="#q" xlink:show="new" xlink:title="#gcp_project" xlink:type="simple" target="_top"><rect id="q" width="136" height="39.789" x="996.5" y="7" fill="#3D176E" rx="2.5" ry="2.5" style="stroke:#000d19;stroke-width:1.5"/><circle cx="1011.5" cy="26.895" r="11" fill="#E98DF7" style="stroke:#000d19;stroke-width:1"/><path d="M1014.469 32.535q-.578.297-1.219.438-.64.156-1.344.156-2.5 0-3.828-1.64-1.312-1.657-1.312-4.782t1.312-4.781q1.328-1.656 3.828-1.656.703 0 1.344.156.656.156 1.219.453v2.719q-.625-.578-1.219-.844-.594-.281-1.219-.281-1.343 0-2.031 1.078-.688 1.062-.688 3.156 0 2.094.688 3.172.688 1.062 2.031 1.062.625 0 1.219-.265.594-.281 1.219-.86v2.72Z"/><text x="1030.5" y="32.78" fill="#D9B8FF" font-family="Helvetica" font-size="17" textLength="94">gcp_project</text></a><a xlink:actuate="onRequest" xlink:href="#r" xlink:show="new" xlink:title="#gcp_network" xlink:type="simple" target="_top"><rect id="r" width="149" height="39.789" x="706" y="107" fill="#3D176E" rx="2.5" ry="2.5" style="stroke:#000d19;stroke-width:1.5"/><circle cx="721" cy="126.894" r="11" fill="#E98DF7" style="stroke:#000d19;stroke-width:1"/><path d="M723.969 132.535q-.578.297-1.219.438-.64.156-1.344.156-2.5 0-3.828-1.64-1.312-1.657-1.312-4.782t1.312-4.781q1.328-1.657 3.828-1.657.703 0 1.344.157.656.156 1.219.453v2.719q-.625-.579-1.219-.844-.594-.281-1.219-.281-1.343 0-2.031 1.078-.688 1.062-.688 3.156 0 2.094.688 3.172.688 1.062 2.031 1.062.625 0 1.219-.265.594-.281 1.219-.86v2.72Z"/><text x="740" y="132.78" fill="#D9B8FF" font-family="Helvetica" font-size="17" textLength="107">gcp_network</text></a><a xlink:actuate="onRequest" xlink:href="#s" xlink:show="new" xlink:title="#gcp_region" xlink:type="simple" target="_top"><rect id="s" width="132" height="39.789" x="1058.5" y="107" fill="#3D176E" rx="2.5" ry="2.5" style="stroke:#000d19;stroke-width:1.5"/><circle cx="1073.5" cy="126.894" r="11" fill="#E98DF7" style="stroke:#000d19;stroke-width:1"/><path d="M1076.469 132.535q-.578.297-1.219.438-.64.156-1.344.156-2.5 0-3.828-1.64-1.312-1.657-1.312-4.782t1.312-4.781q1.328-1.657 3.828-1.657.703 0 1.344.157.656.156 1.219.453v2.719q-.625-.579-1.219-.844-.594-.281-1.219-.281-1.343 0-2.031 1.078-.688 1.062-.688 3.156 0 2.094.688 3.172.688 1.062 2.031 1.062.625 0 1.219-.265.594-.281 1.219-.86v2.72Z"/><text x="1092.5" y="132.78" fill="#D9B8FF" font-family="Helvetica" font-size="17" textLength="90">gcp_region</text></a><path fill="none" d="M1259.49 243.91c-118.45 17.78-309.58 46.46-431.68 64.78" style="stroke:#1a83af;stroke-width:2"/><path fill="#1A83AF" d="m822.77 309.45 9.495 2.618-4.55-3.361 3.36-4.55-8.305 5.293z" style="stroke:#1a83af;stroke-width:2"/><path fill="none" d="M1416.91 247.01c45.11 16.68 110.59 40.9 157.14 58.12" style="stroke:#1a83af;stroke-width:2"/><path fill="#1A83AF" d="m1578.78 306.87-7.06-6.868 2.369 5.137-5.137 2.369 9.828-.638z" style="stroke:#1a83af;stroke-width:2"/><path fill="none" d="M1469.09 247.01c92.52 16.98 227.58 41.77 321.64 59.03" style="stroke:#1a83af;stroke-width:2"/><path fill="#1A83AF" d="m1795.74 306.96-8.135-5.552 3.216 4.654-4.653 3.216 9.572-2.318z" style="stroke:#1a83af;stroke-width:2"/><path fill="none" d="M1301.68 247.01c-56.44 16.81-138.56 41.27-196.43 58.51" style="stroke:#1a83af;stroke-width:2"/><path fill="#1A83AF" d="m1100.43 306.96 9.767 1.267-4.975-2.693 2.693-4.975-7.485 6.401z" style="stroke:#1a83af;stroke-width:2"/><path fill="none" d="M1365.5 247.36v54.3" style="stroke:#1a83af;stroke-width:2"/><path fill="#1A83AF" d="m1365.5 306.68 4-9-4 4-4-4 4 9z" style="stroke:#1a83af;stroke-width:2"/><path fill="none" d="M467.63 447.01c-72.67 16.88-178.57 41.47-252.84 58.72" style="stroke:#1a83af;stroke-width:2"/><path fill="#1A83AF" d="m209.5 506.96 9.67 1.865-4.799-2.993 2.994-4.8-7.865 5.928z" style="stroke:#1a83af;stroke-width:2"/><path fill="none" d="M539.62 447.36c-8.01 15.71-19.34 37.92-27.92 54.73" style="stroke:#1a83af;stroke-width:2"/><path fill="#1A83AF" d="m509.36 506.68 7.65-6.203-5.38 1.748-1.747-5.38-.523 9.835z" style="stroke:#1a83af;stroke-width:2"/><path fill="none" d="M612.74 447.01c55.81 16.78 136.97 41.18 194.29 58.41" style="stroke:#1a83af;stroke-width:2"/><path fill="#1A83AF" d="m812.16 506.96-7.462-6.428 2.675 4.985-4.985 2.675 9.772-1.232z" style="stroke:#1a83af;stroke-width:2"/><path fill="none" d="M1847.32 347.01c-45.8 16.68-112.27 40.9-159.52 58.12" style="stroke:#1a83af;stroke-width:2"/><path fill="#1A83AF" d="m1683 406.87 9.826.674-5.129-2.387 2.388-5.129-7.085 6.842z" style="stroke:#1a83af;stroke-width:2"/><path fill="none" d="M1144.76 345.86c109.52 18.07 277.52 45.79 384.47 63.43" style="stroke:#1a83af;stroke-width:2"/><path fill="#1A83AF" d="m1534.28 410.13-8.23-5.41 3.297 4.597-4.598 3.297 9.531-2.484z" style="stroke:#1a83af;stroke-width:2"/><path fill="none" d="M942.02 347.01c-84.2 16.95-207.05 41.67-292.81 58.93" style="stroke:#1a83af;stroke-width:2"/><path fill="#1A83AF" d="m644.13 406.96 9.612 2.147-4.71-3.133 3.132-4.71-8.034 5.696z" style="stroke:#1a83af;stroke-width:2"/><path fill="none" d="M1630.5 347.36v54.3" style="stroke:#1a83af;stroke-width:2"/><path fill="#1A83AF" d="m1630.5 406.68 4-9-4 4-4-4 4 9z" style="stroke:#1a83af;stroke-width:2"/><path fill="none" d="M680.69 347.13c-27.27 16.39-66.52 39.99-94.98 57.1" style="stroke:#1a83af;stroke-width:2"/><path fill="#1A83AF" d="m581.23 406.92 9.775-1.2-5.487-1.373 1.371-5.487-5.659 8.06z" style="stroke:#1a83af;stroke-width:2"/><path fill="none" d="M1132.67 30.42c77.02 5.4 203.85 22.57 297.83 76.58 86.53 49.74 156.69 149.72 185.66 195.33" style="stroke:#1a83af;stroke-width:2"/><path fill="#1A83AF" d="m1619 306.84-1.425-9.745-1.245 5.518-5.519-1.245 8.189 5.472z" style="stroke:#1a83af;stroke-width:2"/><path fill="none" d="M996.25 30.2C909.21 35.3 755.79 52.06 637.5 107c-63.59 29.53-92.01 36.63-122 100-23.69 50.06 36.02 80.79 95.76 98.46" style="stroke:#1a83af;stroke-width:2"/><path fill="#1A83AF" d="m616.3 306.92-7.542-6.333 2.737 4.95-4.95 2.738 9.755-1.355z" style="stroke:#1a83af;stroke-width:2"/><path fill="none" d="M996.2 29.27C789.51 33.71 180.68 51.44 112.5 107c-42.74 34.83-35 63.87-35 119v102c0 64.47 25.23 137.25 39.84 174.01" style="stroke:#1a83af;stroke-width:2"/><path fill="#1A83AF" d="m119.24 506.74.345-9.843-2.214 5.206-5.206-2.215 7.075 6.852z" style="stroke:#1a83af;stroke-width:2"/><path fill="none" d="M1132.75 32.57c137.72 9.7 458.55 34.79 725.75 74.43 7.24 1.07 14.76 2.32 22.26 3.66" style="stroke:#1a83af;stroke-width:2"/><path fill="#1A83AF" d="m1885.94 111.6-8.148-5.533 3.227 4.646-4.646 3.227 9.567-2.34z" style="stroke:#1a83af;stroke-width:2"/><path fill="none" d="M996.23 28.63C916.71 32.31 784.04 47.81 688.5 107c-37.87 23.46-66.75 67.9-81.97 95.33" style="stroke:#1a83af;stroke-width:2"/><path fill="#1A83AF" d="m604.02 206.92 7.83-5.975-5.43 1.589-1.588-5.43-.812 9.816z" style="stroke:#1a83af;stroke-width:2"/><path fill="none" d="M1132.84 29.67c214.67 5.74 865.93 27.17 945.66 77.33 51.75 32.55 69 57.86 69 119v102c0 118.45-872.33 176.5-1172.19 192.96" style="stroke:#1a83af;stroke-width:2"/><path fill="#1A83AF" d="m970.07 521.25 9.214 3.479-4.222-3.765 3.764-4.222-8.756 4.508z" style="stroke:#1a83af;stroke-width:2"/><path fill="none" d="M1132.66 28.31c211.56 1.65 846.47 12.15 907.84 78.69 19.07 20.68 88.55 129.97-4 240-38.33 45.58-197.43 65.26-304.71 73.47" style="stroke:#1a83af;stroke-width:2"/><path fill="#1A83AF" d="m1726.72 420.85 9.272 3.32-4.286-3.692 3.692-4.286-8.678 4.658z" style="stroke:#1a83af;stroke-width:2"/><path fill="none" d="M1132.67 36.52C1237.1 49.86 1442.84 77.23 1616.5 107c7.21 1.24 14.7 2.6 22.19 4.01" style="stroke:#1a83af;stroke-width:2"/><path fill="#1A83AF" d="m1643.86 112-8.085-5.624 3.175 4.682-4.683 3.174 9.593-2.232z" style="stroke:#1a83af;stroke-width:2"/><path fill="none" d="M996.43 31.99C815.7 44.44 337.5 90.2 337.5 226v102c0 79.11 78.43 143.99 126.15 176.14" style="stroke:#1a83af;stroke-width:2"/><path fill="#1A83AF" d="m467.88 506.96-5.283-8.312 1.118 5.545-5.545 1.118 9.71 1.649z" style="stroke:#1a83af;stroke-width:2"/><path fill="none" d="M1009.41 47.01c-48.45 16.72-118.81 41-168.72 58.22" style="stroke:#1a83af;stroke-width:2"/><path fill="#1A83AF" d="m835.93 106.87 9.812.851-5.084-2.48 2.479-5.084-7.207 6.713z" style="stroke:#1a83af;stroke-width:2"/><path fill="none" d="M1102.98 47.15c29.52 15.15 70.95 37.44 105.52 59.85 47.65 30.89 99.54 71.77 130.12 96.69" style="stroke:#1a83af;stroke-width:2"/><path fill="#1A83AF" d="m1342.61 206.95-4.447-8.788.572 5.628-5.628.572 9.503 2.588z" style="stroke:#1a83af;stroke-width:2"/><path fill="none" d="M1037.01 47.16 812.27 203.85" style="stroke:#1a83af;stroke-width:2"/><path fill="#1A83AF" d="m808 206.82 9.67-1.864-5.568-.995.995-5.568L808 206.82z" style="stroke:#1a83af;stroke-width:2"/><path fill="none" d="M996.18 30.93C873.51 37.41 622.19 56.6 552.5 107c-40.43 29.24-39.34 51.49-51 100-17 70.74 16.41 154.92 35.68 195.21" style="stroke:#1a83af;stroke-width:2"/><path fill="#1A83AF" d="m539.46 406.9-.334-9.843-1.85 5.345-5.346-1.85 7.53 6.348z" style="stroke:#1a83af;stroke-width:2"/><path fill="none" d="M1132.79 31.58c171.46 9.51 610.27 37.32 663.71 75.42 66.21 47.21 91.18 148.21 99.42 194.68" style="stroke:#1a83af;stroke-width:2"/><path fill="#1A83AF" d="m1896.8 306.81 2.426-9.546-3.269 4.618-4.617-3.269 5.46 8.197z" style="stroke:#1a83af;stroke-width:2"/><path fill="none" d="M1076.35 47.36c9.62 15.71 23.22 37.92 33.51 54.73" style="stroke:#1a83af;stroke-width:2"/><path fill="#1A83AF" d="m1112.67 106.68-1.301-9.763-1.315 5.502-5.502-1.315 8.118 5.576z" style="stroke:#1a83af;stroke-width:2"/><path fill="none" d="M1057.39 47.16c-5.48 15.81-12.67 38.95-15.89 59.84-10.79 69.96-8.53 153.97-6.5 194.61" style="stroke:#1a83af;stroke-width:2"/><path fill="#1A83AF" d="m1035.27 306.81 3.531-9.194-3.788 4.2-4.201-3.788 4.458 8.782z" style="stroke:#1a83af;stroke-width:2"/><path fill="none" d="M996.27 33.4C863.86 44.28 562.94 70.9 311.5 107c-7.09 1.02-14.43 2.17-21.78 3.38" style="stroke:#1a83af;stroke-width:2"/><path fill="#1A83AF" d="m284.63 111.23 9.539 2.453-4.608-3.282 3.281-4.608-8.212 5.437z" style="stroke:#1a83af;stroke-width:2"/><path fill="none" d="M1132.53 33.92c98.51 12.66 277.72 52 356.97 173.08 25.99 39.7-28.17 76-72.93 97.81" style="stroke:#1a83af;stroke-width:2"/><path fill="#1A83AF" d="m1412 307 9.844-.309-5.34-1.864 1.863-5.34L1412 307z" style="stroke:#1a83af;stroke-width:2"/><path fill="none" d="M744.2 147.13c-31.24 16.46-76.28 40.19-108.79 57.31" style="stroke:#1a83af;stroke-width:2"/><path fill="#1A83AF" d="m630.71 206.92 9.827-.648-5.402-1.679 1.68-5.402-6.105 7.729z" style="stroke:#1a83af;stroke-width:2"/><path fill="none" d="M780.5 147.36v54.3" style="stroke:#1a83af;stroke-width:2"/><path fill="#1A83AF" d="m780.5 206.68 4-9-4 4-4-4 4 9z" style="stroke:#1a83af;stroke-width:2"/><path fill="none" d="M1128.11 147.12c9.2 43.12 37.74 148.16 105.39 199.88 45.43 34.73 193.56 57.23 295.44 69.02" style="stroke:#1a83af;stroke-width:2"/><path fill="#1A83AF" d="m1534.06 416.6-8.484-5.002 3.517 4.431-4.43 3.517 9.397-2.946z" style="stroke:#1a83af;stroke-width:2"/><path fill="none" d="M1171.25 147.01c40.86 16.62 100.1 40.71 142.4 57.91" style="stroke:#1a83af;stroke-width:2"/><path fill="#1A83AF" d="m1318.47 206.87-6.844-7.082 2.209 5.208-5.208 2.209 9.843-.335z" style="stroke:#1a83af;stroke-width:2"/><path fill="none" d="M1190.76 140.9c73.38 14.63 195.03 39.86 298.74 66.1 122.34 30.95 263.31 73.37 344.01 98.31" style="stroke:#1a83af;stroke-width:2"/><path fill="#1A83AF" d="m1838.73 306.93-7.422-6.475 2.644 5.002-5.001 2.643 9.779-1.17z" style="stroke:#1a83af;stroke-width:2"/><path fill="none" d="M1140.95 147.01c21.82 24.62 62.19 68.15 101.55 99.99 26.65 21.57 59.43 42.37 84.44 57.21" style="stroke:#1a83af;stroke-width:2"/><path fill="#1A83AF" d="m1331.52 306.91-5.722-8.016 1.415 5.477-5.477 1.415 9.784 1.124z" style="stroke:#1a83af;stroke-width:2"/><path fill="none" d="M1097.15 147.25C1045.05 184.48 934.68 266.28 911.5 307c-36.01 63.26-38.48 152.42-37.3 194.8" style="stroke:#1a83af;stroke-width:2"/><path fill="#1A83AF" d="m874.37 506.98 3.69-9.132-3.861 4.135-4.135-3.86 4.306 8.857z" style="stroke:#1a83af;stroke-width:2"/><path fill="none" d="M1093.12 147.22c-44.28 26.3-128.33 73.24-205.62 99.78-129.43 44.44-200.63-31.93-302 60-26.68 24.2-33.88 67.41-35.65 94.57" style="stroke:#1a83af;stroke-width:2"/><path fill="#1A83AF" d="m549.56 406.78 4.482-8.77-4.211 3.777-3.777-4.21 3.506 9.203z" style="stroke:#1a83af;stroke-width:2"/><path fill="none" d="M1058.17 146.9c-59.06 16.82-145.25 41.38-205.91 58.66" style="stroke:#1a83af;stroke-width:2"/><path fill="#1A83AF" d="m847.21 207 9.751 1.381-4.942-2.75 2.75-4.944L847.21 207z" style="stroke:#1a83af;stroke-width:2"/></svg>