<svg xmlns="http://www.w3.org/2000/svg" xmlns:xlink="http://www.w3.org/1999/xlink" width="1125" height="452" preserveAspectRatio="none" style="width:1125px;height:452px;background:#00000000"><a xlink:actuate="onRequest" xlink:href="#a" xlink:show="new" xlink:title="#gcp_target_pool" xlink:type="simple" target="_top"><rect id="a" width="174" height="39.789" x="867.5" y="207" fill="#3D176E" rx="2.5" ry="2.5" style="stroke:#000d19;stroke-width:1.5"/><circle cx="882.5" cy="226.894" r="11" fill="#E98DF7" style="stroke:#000d19;stroke-width:1"/><path d="M885.469 232.535q-.578.297-1.219.438-.64.156-1.344.156-2.5 0-3.828-1.64-1.312-1.657-1.312-4.782t1.312-4.781q1.328-1.656 3.828-1.656.703 0 1.344.156.656.156 1.219.453v2.719q-.625-.579-1.219-.844-.594-.281-1.219-.281-1.343 0-2.031 1.078-.688 1.062-.688 3.156 0 2.094.688 3.172.688 1.062 2.031 1.062.625 0 1.219-.265.594-.281 1.219-.86v2.72Z"/><text x="901.5" y="232.78" fill="#D9B8FF" font-family="Helvetica" font-size="17" textLength="132">gcp_target_pool</text></a><a xlink:actuate="onRequest" xlink:href="#b" xlink:show="new" xlink:title="#gcp_instance" xlink:type="simple" target="_top"><rect id="b" width="149" height="39.789" x="541" y="307" fill="#3D176E" rx="2.5" ry="2.5" style="stroke:#000d19;stroke-width:1.5"/><circle cx="556" cy="326.894" r="11" fill="#E98DF7" style="stroke:#000d19;stroke-width:1"/><path d="M558.969 332.535q-.578.297-1.219.438-.64.156-1.344.156-2.5 0-3.828-1.64-1.312-1.657-1.312-4.782t1.312-4.781q1.328-1.656 3.828-1.656.703 0 1.344.156.656.156 1.219.453v2.719q-.625-.579-1.219-.844-.594-.281-1.219-.281-1.343 0-2.031 1.078-.688 1.062-.688 3.156 0 2.094.688 3.172.688 1.062 2.031 1.062.625 0 1.219-.265.594-.281 1.219-.86v2.72Z"/><text x="575" y="332.78" fill="#D9B8FF" font-family="Helvetica" font-size="17" textLength="107">gcp_instance</text></a><a xlink:actuate="onRequest" xlink:href="#c" xlink:show="new" xlink:title="#gcp_target_instance" xlink:type="simple" target="_top"><rect id="c" width="209" height="39.789" x="7" y="207" fill="#3D176E" rx="2.5" ry="2.5" style="stroke:#000d19;stroke-width:1.5"/><circle cx="22" cy="226.894" r="11" fill="#E98DF7" style="stroke:#000d19;stroke-width:1"/><path d="M24.969 232.535q-.578.297-1.219.438-.64.156-1.344.156-2.5 0-3.828-1.64-1.312-1.657-1.312-4.782t1.312-4.781q1.328-1.656 3.828-1.656.703 0 1.344.156.656.156 1.219.453v2.719q-.625-.579-1.219-.844-.594-.281-1.219-.281-1.343 0-2.031 1.078-.688 1.062-.688 3.156 0 2.094.688 3.172.688 1.062 2.031 1.062.625 0 1.219-.265.594-.281 1.219-.86v2.72Z"/><text x="41" y="232.78" fill="#D9B8FF" font-family="Helvetica" font-size="17" textLength="167">gcp_target_instance</text></a><a xlink:actuate="onRequest" xlink:href="#d" xlink:show="new" xlink:title="#gcp_network" xlink:type="simple" target="_top"><rect id="d" width="149" height="39.789" x="337" y="7" fill="#3D176E" rx="2.5" ry="2.5" style="stroke:#000d19;stroke-width:1.5"/><circle cx="352" cy="26.895" r="11" fill="#E98DF7" style="stroke:#000d19;stroke-width:1"/><path d="M354.969 32.535q-.578.297-1.219.438-.64.156-1.344.156-2.5 0-3.828-1.64-1.312-1.657-1.312-4.782t1.312-4.781q1.328-1.656 3.828-1.656.703 0 1.344.156.656.156 1.219.453v2.719q-.625-.578-1.219-.844-.594-.281-1.219-.281-1.344 0-2.031 1.078-.688 1.062-.688 3.156 0 2.094.688 3.172.688 1.062 2.031 1.062.625 0 1.219-.265.594-.281 1.219-.86v2.72Z"/><text x="371" y="32.78" fill="#D9B8FF" font-family="Helvetica" font-size="17" textLength="107">gcp_network</text></a><a xlink:actuate="onRequest" xlink:href="#e" xlink:show="new" xlink:title="#gcp_instance_group" xlink:type="simple" target="_top"><rect id="e" width="206" height="39.789" x="393.5" y="207" fill="#3D176E" rx="2.5" ry="2.5" style="stroke:#000d19;stroke-width:1.5"/><circle cx="408.5" cy="226.894" r="11" fill="#E98DF7" style="stroke:#000d19;stroke-width:1"/><path d="M411.469 232.535q-.578.297-1.219.438-.64.156-1.344.156-2.5 0-3.828-1.64-1.312-1.657-1.312-4.782t1.312-4.781q1.328-1.656 3.828-1.656.703 0 1.344.156.656.156 1.219.453v2.719q-.625-.579-1.219-.844-.594-.281-1.219-.281-1.344 0-2.031 1.078-.688 1.062-.688 3.156 0 2.094.688 3.172.688 1.062 2.031 1.062.625 0 1.219-.265.594-.281 1.219-.86v2.72Z"/><text x="427.5" y="232.78" fill="#D9B8FF" font-family="Helvetica" font-size="17" textLength="164">gcp_instance_group</text></a><a xlink:actuate="onRequest" xlink:href="#f" xlink:show="new" xlink:title="#gcp_subnetwork" xlink:type="simple" target="_top"><rect id="f" width="178" height="39.789" x="322.5" y="107" fill="#3D176E" rx="2.5" ry="2.5" style="stroke:#000d19;stroke-width:1.5"/><circle cx="337.5" cy="126.894" r="11" fill="#E98DF7" style="stroke:#000d19;stroke-width:1"/><path d="M340.469 132.535q-.578.297-1.219.438-.64.156-1.344.156-2.5 0-3.828-1.64-1.312-1.657-1.312-4.782t1.312-4.781q1.328-1.657 3.828-1.657.703 0 1.344.157.656.156 1.219.453v2.719q-.625-.579-1.219-.844-.594-.281-1.219-.281-1.344 0-2.031 1.078-.688 1.062-.688 3.156 0 2.094.688 3.172.688 1.062 2.031 1.062.625 0 1.219-.265.594-.281 1.219-.86v2.72Z"/><text x="356.5" y="132.78" fill="#D9B8FF" font-family="Helvetica" font-size="17" textLength="136">gcp_subnetwork</text></a><a xlink:actuate="onRequest" xlink:href="#g" xlink:show="new" xlink:title="#gcp_machine_type" xlink:type="simple" target="_top"><rect id="g" width="197" height="39.789" x="635" y="207" fill="#3D176E" rx="2.5" ry="2.5" style="stroke:#000d19;stroke-width:1.5"/><circle cx="650" cy="226.894" r="11" fill="#E98DF7" style="stroke:#000d19;stroke-width:1"/><path d="M652.969 232.535q-.578.297-1.219.438-.64.156-1.344.156-2.5 0-3.828-1.64-1.312-1.657-1.312-4.782t1.312-4.781q1.328-1.656 3.828-1.656.703 0 1.344.156.656.156 1.219.453v2.719q-.625-.579-1.219-.844-.594-.281-1.219-.281-1.343 0-2.031 1.078-.688 1.062-.688 3.156 0 2.094.688 3.172.688 1.062 2.031 1.062.625 0 1.219-.265.594-.281 1.219-.86v2.72Z"/><text x="669" y="232.78" fill="#D9B8FF" font-family="Helvetica" font-size="17" textLength="155">gcp_machine_type</text></a><a xlink:actuate="onRequest" xlink:href="#h" xlink:show="new" xlink:title="#gcp_disk" xlink:type="simple" target="_top"><rect id="h" width="112" height="39.789" x="775.5" y="407" fill="#3D176E" rx="2.5" ry="2.5" style="stroke:#000d19;stroke-width:1.5"/><circle cx="790.5" cy="426.894" r="11" fill="#E98DF7" style="stroke:#000d19;stroke-width:1"/><path d="M793.469 432.535q-.578.297-1.219.438-.64.156-1.344.156-2.5 0-3.828-1.64-1.312-1.657-1.312-4.782t1.312-4.781q1.328-1.656 3.828-1.656.703 0 1.344.156.656.156 1.219.453v2.719q-.625-.579-1.219-.844-.594-.281-1.219-.281-1.343 0-2.031 1.078-.688 1.062-.688 3.156 0 2.094.688 3.172.688 1.062 2.031 1.062.625 0 1.219-.265.594-.281 1.219-.86v2.72Z"/><text x="809.5" y="432.78" fill="#D9B8FF" font-family="Helvetica" font-size="17" textLength="70">gcp_disk</text></a><a xlink:actuate="onRequest" xlink:href="#i" xlink:show="new" xlink:title="#gcp_zone" xlink:type="simple" target="_top"><rect id="i" width="118" height="39.789" x="854.5" y="107" fill="#3D176E" rx="2.5" ry="2.5" style="stroke:#000d19;stroke-width:1.5"/><circle cx="869.5" cy="126.894" r="11" fill="#E98DF7" style="stroke:#000d19;stroke-width:1"/><path d="M872.469 132.535q-.578.297-1.219.438-.64.156-1.344.156-2.5 0-3.828-1.64-1.312-1.657-1.312-4.782t1.312-4.781q1.328-1.657 3.828-1.657.703 0 1.344.157.656.156 1.219.453v2.719q-.625-.579-1.219-.844-.594-.281-1.219-.281-1.343 0-2.031 1.078-.688 1.062-.688 3.156 0 2.094.688 3.172.688 1.062 2.031 1.062.625 0 1.219-.265.594-.281 1.219-.86v2.72Z"/><text x="888.5" y="132.78" fill="#D9B8FF" font-family="Helvetica" font-size="17" textLength="76">gcp_zone</text></a><path fill="none" d="M888.74 247.01c-58.16 16.81-142.77 41.27-202.4 58.51" style="stroke:#1a83af;stroke-width:2"/><path fill="#1A83AF" d="m681.37 306.96 9.756 1.347-4.952-2.734 2.733-4.952-7.537 6.339z" style="stroke:#1a83af;stroke-width:2"/><path fill="none" d="M657.4 347.01c36.4 16.52 89.07 40.41 126.94 57.59" style="stroke:#1a83af;stroke-width:2"/><path fill="#1A83AF" d="m789.35 406.87-6.538-7.366 1.986 5.297-5.297 1.986 9.849.083z" style="stroke:#1a83af;stroke-width:2"/><path fill="none" d="M209.27 247.01c95.25 18.52 238.24 46.33 326.71 63.53" style="stroke:#1a83af;stroke-width:2"/><path fill="#1A83AF" d="m540.94 311.5-8.07-5.647 3.162 4.691-4.69 3.162 9.598-2.206z" style="stroke:#1a83af;stroke-width:2"/><path fill="none" d="M453.26 47.04c23.52 13.18 50.8 33.19 64.24 59.96 15.26 30.41 2.76 70.05-8.46 95.02" style="stroke:#1a83af;stroke-width:2"/><path fill="#1A83AF" d="m506.82 206.81 7.415-6.482-5.312 1.946-1.946-5.312-.157 9.848z" style="stroke:#1a83af;stroke-width:2"/><path fill="none" d="M411.5 47.36v54.3" style="stroke:#1a83af;stroke-width:2"/><path fill="#1A83AF" d="m411.5 106.68 4-9-4 4-4-4 4 9z" style="stroke:#1a83af;stroke-width:2"/><path fill="none" d="M369.74 47.04c-23.52 13.18-50.8 33.19-64.24 59.96-29.92 59.6 2.46 97.68 54 140 50.06 41.1 121.41 60.87 176.07 70.34" style="stroke:#1a83af;stroke-width:2"/><path fill="#1A83AF" d="m540.81 318.23-8.212-5.437 3.281 4.608-4.608 3.281 9.539-2.452z" style="stroke:#1a83af;stroke-width:2"/><path fill="none" d="M519.73 247.13c19.65 16.19 47.85 39.41 68.56 56.47" style="stroke:#1a83af;stroke-width:2"/><path fill="#1A83AF" d="m592.33 306.92-4.411-8.806.549 5.63-5.63.55 9.492 2.626z" style="stroke:#1a83af;stroke-width:2"/><path fill="none" d="M428.29 147.36c13.74 15.84 33.22 38.3 47.84 55.16" style="stroke:#1a83af;stroke-width:2"/><path fill="#1A83AF" d="m479.74 206.68-2.878-9.419-.4 5.643-5.642-.4 8.92 4.176z" style="stroke:#1a83af;stroke-width:2"/><path fill="none" d="M396.32 147.01c-18.01 25.02-42.96 69.39-20.82 99.99 36.25 50.09 105.34 68.97 160.11 75.83" style="stroke:#1a83af;stroke-width:2"/><path fill="#1A83AF" d="m540.87 323.45-8.47-5.026 3.504 4.441-4.44 3.505 9.406-2.92z" style="stroke:#1a83af;stroke-width:2"/><path fill="none" d="M710.47 247.13c-19.49 16.19-47.46 39.41-67.99 56.47" style="stroke:#1a83af;stroke-width:2"/><path fill="#1A83AF" d="m638.47 306.92 9.476-2.685-5.634-.514.514-5.634-4.356 8.833z" style="stroke:#1a83af;stroke-width:2"/><path fill="none" d="M854.2 141.94c-70.96 16.67-190.33 44.73-271.48 63.8" style="stroke:#1a83af;stroke-width:2"/><path fill="#1A83AF" d="m577.43 206.98 9.676 1.839-4.808-2.981 2.98-4.808-7.848 5.95z" style="stroke:#1a83af;stroke-width:2"/><path fill="none" d="M878.37 147.13c-30.23 16.46-73.82 40.19-105.28 57.31" style="stroke:#1a83af;stroke-width:2"/><path fill="#1A83AF" d="m768.54 206.92 9.818-.773-5.422-1.61 1.61-5.423-6.006 7.806z" style="stroke:#1a83af;stroke-width:2"/><path fill="none" d="M969.86 147.13c54.48 21.49 124.08 58.76 89.64 99.87-45.58 54.41-249.3 71.37-364.3 76.64" style="stroke:#1a83af;stroke-width:2"/><path fill="#1A83AF" d="m690.13 323.87 9.163 3.61-4.168-3.825 3.825-4.168-8.82 4.383z" style="stroke:#1a83af;stroke-width:2"/><path fill="none" d="M972.61 141.28c61.6 17.03 145.49 51.06 116.89 105.72-42 80.26-138.18 131.75-200.51 158" style="stroke:#1a83af;stroke-width:2"/><path fill="#1A83AF" d="m884.19 407 9.846.22-5.233-2.148 2.148-5.233L884.19 407z" style="stroke:#1a83af;stroke-width:2"/></svg>