<svg xmlns="http://www.w3.org/2000/svg" xmlns:xlink="http://www.w3.org/1999/xlink" width="722" height="352" preserveAspectRatio="none" style="width:722px;height:352px;background:#00000000"><a xlink:actuate="onRequest" xlink:href="#a" xlink:show="new" xlink:title="#gcp_target_ssl_proxy" xlink:type="simple" target="_top"><rect id="a" width="216" height="39.789" x="121.5" y="207" fill="#3D176E" rx="2.5" ry="2.5" style="stroke:#000d19;stroke-width:1.5"/><circle cx="136.5" cy="226.894" r="11" fill="#E98DF7" style="stroke:#000d19;stroke-width:1"/><path d="M139.469 232.535q-.578.297-1.219.438-.64.156-1.344.156-2.5 0-3.828-1.64-1.312-1.657-1.312-4.782t1.312-4.781q1.328-1.656 3.828-1.656.703 0 1.344.156.656.156 1.219.453v2.719q-.625-.579-1.219-.844-.594-.281-1.219-.281-1.344 0-2.031 1.078-.688 1.062-.688 3.156 0 2.094.688 3.172.688 1.062 2.031 1.062.625 0 1.219-.265.594-.281 1.219-.86v2.72Z"/><text x="155.5" y="232.78" fill="#D9B8FF" font-family="Helvetica" font-size="17" textLength="174">gcp_target_ssl_proxy</text></a><a xlink:actuate="onRequest" xlink:href="#b" xlink:show="new" xlink:title="#gcp_backend_service" xlink:type="simple" target="_top"><rect id="b" width="215" height="39.789" x="7" y="307" fill="#3D176E" rx="2.5" ry="2.5" style="stroke:#000d19;stroke-width:1.5"/><circle cx="22" cy="326.894" r="11" fill="#E98DF7" style="stroke:#000d19;stroke-width:1"/><path d="M24.969 332.535q-.578.297-1.219.438-.64.156-1.344.156-2.5 0-3.828-1.64-1.312-1.657-1.312-4.782t1.312-4.781q1.328-1.656 3.828-1.656.703 0 1.344.156.656.156 1.219.453v2.719q-.625-.579-1.219-.844-.594-.281-1.219-.281-1.343 0-2.031 1.078-.688 1.062-.688 3.156 0 2.094.688 3.172.688 1.062 2.031 1.062.625 0 1.219-.265.594-.281 1.219-.86v2.72Z"/><text x="41" y="332.78" fill="#D9B8FF" font-family="Helvetica" font-size="17" textLength="173">gcp_backend_service</text></a><a xlink:actuate="onRequest" xlink:href="#c" xlink:show="new" xlink:title="#gcp_ssl_certificate" xlink:type="simple" target="_top"><rect id="c" width="192" height="39.789" x="428.5" y="307" fill="#3D176E" rx="2.5" ry="2.5" style="stroke:#000d19;stroke-width:1.5"/><circle cx="443.5" cy="326.894" r="11" fill="#E98DF7" style="stroke:#000d19;stroke-width:1"/><path d="M446.469 332.535q-.578.297-1.219.438-.64.156-1.344.156-2.5 0-3.828-1.64-1.312-1.657-1.312-4.782t1.312-4.781q1.328-1.656 3.828-1.656.703 0 1.344.156.656.156 1.219.453v2.719q-.625-.579-1.219-.844-.594-.281-1.219-.281-1.344 0-2.031 1.078-.688 1.062-.688 3.156 0 2.094.688 3.172.688 1.062 2.031 1.062.625 0 1.219-.265.594-.281 1.219-.86v2.72Z"/><text x="462.5" y="332.78" fill="#D9B8FF" font-family="Helvetica" font-size="17" textLength="150">gcp_ssl_certificate</text></a><a xlink:actuate="onRequest" xlink:href="#d" xlink:show="new" xlink:title="#gcp_forwarding_rule" xlink:type="simple" target="_top"><rect id="d" width="212" height="39.789" x="123.5" y="107" fill="#3D176E" rx="2.5" ry="2.5" style="stroke:#000d19;stroke-width:1.5"/><circle cx="138.5" cy="126.894" r="11" fill="#E98DF7" style="stroke:#000d19;stroke-width:1"/><path d="M141.469 132.535q-.578.297-1.219.438-.64.156-1.344.156-2.5 0-3.828-1.64-1.312-1.657-1.312-4.782t1.312-4.781q1.328-1.657 3.828-1.657.703 0 1.344.157.656.156 1.219.453v2.719q-.625-.579-1.219-.844-.594-.281-1.219-.281-1.344 0-2.031 1.078-.688 1.062-.688 3.156 0 2.094.688 3.172.688 1.062 2.031 1.062.625 0 1.219-.265.594-.281 1.219-.86v2.72Z"/><text x="157.5" y="132.78" fill="#D9B8FF" font-family="Helvetica" font-size="17" textLength="170">gcp_forwarding_rule</text></a><a xlink:actuate="onRequest" xlink:href="#e" xlink:show="new" xlink:title="#gcp_global_forwarding_rule" xlink:type="simple" target="_top"><rect id="e" width="271" height="39.789" x="371" y="107" fill="#3D176E" rx="2.5" ry="2.5" style="stroke:#000d19;stroke-width:1.5"/><circle cx="386" cy="126.894" r="11" fill="#E98DF7" style="stroke:#000d19;stroke-width:1"/><path d="M388.969 132.535q-.578.297-1.219.438-.64.156-1.344.156-2.5 0-3.828-1.64-1.312-1.657-1.312-4.782t1.312-4.781q1.328-1.657 3.828-1.657.703 0 1.344.157.656.156 1.219.453v2.719q-.625-.579-1.219-.844-.594-.281-1.219-.281-1.344 0-2.031 1.078-.688 1.062-.688 3.156 0 2.094.688 3.172.688 1.062 2.031 1.062.625 0 1.219-.265.594-.281 1.219-.86v2.72Z"/><text x="405" y="132.78" fill="#D9B8FF" font-family="Helvetica" font-size="17" textLength="229">gcp_global_forwarding_rule</text></a><a xlink:actuate="onRequest" xlink:href="#f" xlink:show="new" xlink:title="#gcp_project" xlink:type="simple" target="_top"><rect id="f" width="136" height="39.789" x="81.5" y="7" fill="#3D176E" rx="2.5" ry="2.5" style="stroke:#000d19;stroke-width:1.5"/><circle cx="96.5" cy="26.895" r="11" fill="#E98DF7" style="stroke:#000d19;stroke-width:1"/><path d="M99.469 32.535q-.578.297-1.219.438-.64.156-1.344.156-2.5 0-3.828-1.64-1.312-1.657-1.312-4.782t1.312-4.781q1.328-1.656 3.828-1.656.703 0 1.344.156.656.156 1.219.453v2.719q-.625-.578-1.219-.844-.594-.281-1.219-.281-1.344 0-2.031 1.078-.688 1.062-.688 3.156 0 2.094.688 3.172.688 1.062 2.031 1.062.625 0 1.219-.265.594-.281 1.219-.86v2.72Z"/><text x="115.5" y="32.78" fill="#D9B8FF" font-family="Helvetica" font-size="17" textLength="94">gcp_project</text></a><path fill="none" d="M207.05 247.13c-18.99 16.19-46.24 39.41-66.26 56.47" style="stroke:#1a83af;stroke-width:2"/><path fill="#1A83AF" d="m136.89 306.92 9.443-2.8-5.64-.446.446-5.639-4.249 8.885z" style="stroke:#1a83af;stroke-width:2"/><path fill="none" d="M286.73 247.01c50.4 16.74 123.65 41.08 175.5 58.3" style="stroke:#1a83af;stroke-width:2"/><path fill="#1A83AF" d="m467.18 306.96-7.267-6.647 2.525 5.062-5.062 2.525 9.804-.94z" style="stroke:#1a83af;stroke-width:2"/><path fill="none" d="M229.5 147.36v54.3" style="stroke:#1a83af;stroke-width:2"/><path fill="#1A83AF" d="m229.5 206.68 4-9-4 4-4-4 4 9z" style="stroke:#1a83af;stroke-width:2"/><path fill="none" d="M452.76 147.01c-47.15 16.68-115.6 40.9-164.26 58.12" style="stroke:#1a83af;stroke-width:2"/><path fill="#1A83AF" d="m283.56 206.87 9.82.763-5.107-2.434 2.433-5.107-7.146 6.778z" style="stroke:#1a83af;stroke-width:2"/><path fill="none" d="M165.31 47.36c12.92 15.84 31.26 38.3 45.02 55.16" style="stroke:#1a83af;stroke-width:2"/><path fill="#1A83AF" d="m213.73 106.68-2.588-9.503-.572 5.628-5.628-.572 8.788 4.447z" style="stroke:#1a83af;stroke-width:2"/><path fill="none" d="M132.8 47.32c-18.78 24.2-44.41 66.52-26.3 99.68 14.32 26.21 41.46 45.02 66.61 57.69" style="stroke:#1a83af;stroke-width:2"/><path fill="#1A83AF" d="m177.78 206.98-6.32-7.554 1.83 5.352-5.352 1.83 9.842.372z" style="stroke:#1a83af;stroke-width:2"/><path fill="none" d="M130.33 47.14C116.85 62.03 99.94 83.99 92.5 107c-22.07 68.31.1 154.3 13.46 195.23" style="stroke:#1a83af;stroke-width:2"/><path fill="#1A83AF" d="m107.55 307 .966-9.801-2.539 5.055-5.055-2.54L107.55 307z" style="stroke:#1a83af;stroke-width:2"/><path fill="none" d="M217.71 28.08C343.29 29.85 603.38 41.52 659.5 107c55.66 64.95-47.51 155.28-103.02 196.67" style="stroke:#1a83af;stroke-width:2"/><path fill="#1A83AF" d="m552.24 306.81 9.614-2.14-5.595-.835.835-5.595-4.854 8.57z" style="stroke:#1a83af;stroke-width:2"/></svg>