<svg xmlns="http://www.w3.org/2000/svg" xmlns:xlink="http://www.w3.org/1999/xlink" width="2150" height="552" preserveAspectRatio="none" style="width:2150px;height:552px;background:#00000000"><a xlink:actuate="onRequest" xlink:href="#a" xlink:show="new" xlink:title="#gcp_health_check" xlink:type="simple" target="_top"><rect id="a" width="189" height="39.789" x="913.5" y="507" fill="#3D176E" rx="2.5" ry="2.5" style="stroke:#000d19;stroke-width:1.5"/><circle cx="928.5" cy="526.894" r="11" fill="#E98DF7" style="stroke:#000d19;stroke-width:1"/><path d="M931.469 532.535q-.578.297-1.219.438-.64.156-1.344.156-2.5 0-3.828-1.64-1.312-1.657-1.312-4.782t1.312-4.781q1.328-1.657 3.828-1.657.703 0 1.344.157.656.156 1.219.453v2.719q-.625-.578-1.219-.844-.594-.281-1.219-.281-1.343 0-2.031 1.078-.688 1.062-.688 3.156 0 2.094.688 3.172.688 1.062 2.031 1.062.625 0 1.219-.265.594-.282 1.219-.86v2.72Z"/><text x="947.5" y="532.78" fill="#D9B8FF" font-family="Helvetica" font-size="17" textLength="147">gcp_health_check</text></a><a xlink:actuate="onRequest" xlink:href="#b" xlink:show="new" xlink:title="#gcp_backend_service" xlink:type="simple" target="_top"><rect id="b" width="215" height="39.789" x="1474.5" y="407" fill="#3D176E" rx="2.5" ry="2.5" style="stroke:#000d19;stroke-width:1.5"/><circle cx="1489.5" cy="426.894" r="11" fill="#E98DF7" style="stroke:#000d19;stroke-width:1"/><path d="M1492.469 432.535q-.578.297-1.219.438-.64.156-1.344.156-2.5 0-3.828-1.64-1.312-1.657-1.312-4.782t1.312-4.781q1.328-1.656 3.828-1.656.703 0 1.344.156.656.156 1.219.453v2.719q-.625-.579-1.219-.844-.594-.281-1.219-.281-1.343 0-2.031 1.078-.688 1.062-.688 3.156 0 2.094.688 3.172.688 1.062 2.031 1.062.625 0 1.219-.265.594-.281 1.219-.86v2.72Z"/><text x="1508.5" y="432.78" fill="#D9B8FF" font-family="Helvetica" font-size="17" textLength="173">gcp_backend_service</text></a><a xlink:actuate="onRequest" xlink:href="#c" xlink:show="new" xlink:title="#gcp_target_tcp_proxy" xlink:type="simple" target="_top"><rect id="c" width="220" height="39.789" x="1472" y="307" fill="#3D176E" rx="2.5" ry="2.5" style="stroke:#000d19;stroke-width:1.5"/><circle cx="1487" cy="326.894" r="11" fill="#E98DF7" style="stroke:#000d19;stroke-width:1"/><path d="M1489.969 332.535q-.578.297-1.219.438-.64.156-1.344.156-2.5 0-3.828-1.64-1.312-1.657-1.312-4.782t1.312-4.781q1.328-1.656 3.828-1.656.703 0 1.344.156.656.156 1.219.453v2.719q-.625-.579-1.219-.844-.594-.281-1.219-.281-1.343 0-2.031 1.078-.688 1.062-.688 3.156 0 2.094.688 3.172.688 1.062 2.031 1.062.625 0 1.219-.265.594-.281 1.219-.86v2.72Z"/><text x="1506" y="332.78" fill="#D9B8FF" font-family="Helvetica" font-size="17" textLength="178">gcp_target_tcp_proxy</text></a><a xlink:actuate="onRequest" xlink:href="#d" xlink:show="new" xlink:title="#gcp_forwarding_rule" xlink:type="simple" target="_top"><rect id="d" width="212" height="39.789" x="672" y="207" fill="#3D176E" rx="2.5" ry="2.5" style="stroke:#000d19;stroke-width:1.5"/><circle cx="687" cy="226.894" r="11" fill="#E98DF7" style="stroke:#000d19;stroke-width:1"/><path d="M689.969 232.535q-.578.297-1.219.438-.64.156-1.344.156-2.5 0-3.828-1.64-1.312-1.657-1.312-4.782t1.312-4.781q1.328-1.656 3.828-1.656.703 0 1.344.156.656.156 1.219.453v2.719q-.625-.579-1.219-.844-.594-.281-1.219-.281-1.343 0-2.031 1.078-.688 1.062-.688 3.156 0 2.094.688 3.172.688 1.062 2.031 1.062.625 0 1.219-.265.594-.281 1.219-.86v2.72Z"/><text x="706" y="232.78" fill="#D9B8FF" font-family="Helvetica" font-size="17" textLength="170">gcp_forwarding_rule</text></a><a xlink:actuate="onRequest" xlink:href="#e" xlink:show="new" xlink:title="#gcp_target_grpc_proxy" xlink:type="simple" target="_top"><rect id="e" width="230" height="39.789" x="130" y="307" fill="#3D176E" rx="2.5" ry="2.5" style="stroke:#000d19;stroke-width:1.5"/><circle cx="145" cy="326.894" r="11" fill="#E98DF7" style="stroke:#000d19;stroke-width:1"/><path d="M147.969 332.535q-.578.297-1.219.438-.64.156-1.344.156-2.5 0-3.828-1.64-1.312-1.657-1.312-4.782t1.312-4.781q1.328-1.656 3.828-1.656.703 0 1.344.156.656.156 1.219.453v2.719q-.625-.579-1.219-.844-.594-.281-1.219-.281-1.344 0-2.031 1.078-.688 1.062-.688 3.156 0 2.094.688 3.172.688 1.062 2.031 1.062.625 0 1.219-.265.594-.281 1.219-.86v2.72Z"/><text x="164" y="332.78" fill="#D9B8FF" font-family="Helvetica" font-size="17" textLength="188">gcp_target_grpc_proxy</text></a><a xlink:actuate="onRequest" xlink:href="#f" xlink:show="new" xlink:title="#gcp_ssl_certificate" xlink:type="simple" target="_top"><rect id="f" width="192" height="39.789" x="418" y="407" fill="#3D176E" rx="2.5" ry="2.5" style="stroke:#000d19;stroke-width:1.5"/><circle cx="433" cy="426.894" r="11" fill="#E98DF7" style="stroke:#000d19;stroke-width:1"/><path d="M435.969 432.535q-.578.297-1.219.438-.64.156-1.344.156-2.5 0-3.828-1.64-1.312-1.657-1.312-4.782t1.312-4.781q1.328-1.656 3.828-1.656.703 0 1.344.156.656.156 1.219.453v2.719q-.625-.579-1.219-.844-.594-.281-1.219-.281-1.344 0-2.031 1.078-.688 1.062-.688 3.156 0 2.094.688 3.172.688 1.062 2.031 1.062.625 0 1.219-.265.594-.281 1.219-.86v2.72Z"/><text x="452" y="432.78" fill="#D9B8FF" font-family="Helvetica" font-size="17" textLength="150">gcp_ssl_certificate</text></a><a xlink:actuate="onRequest" xlink:href="#g" xlink:show="new" xlink:title="#gcp_subnetwork" xlink:type="simple" target="_top"><rect id="g" width="178" height="39.789" x="1274" y="207" fill="#3D176E" rx="2.5" ry="2.5" style="stroke:#000d19;stroke-width:1.5"/><circle cx="1289" cy="226.894" r="11" fill="#E98DF7" style="stroke:#000d19;stroke-width:1"/><path d="M1291.969 232.535q-.578.297-1.219.438-.64.156-1.344.156-2.5 0-3.828-1.64-1.312-1.657-1.312-4.782t1.312-4.781q1.328-1.656 3.828-1.656.703 0 1.344.156.656.156 1.219.453v2.719q-.625-.579-1.219-.844-.594-.281-1.219-.281-1.343 0-2.031 1.078-.688 1.062-.688 3.156 0 2.094.688 3.172.688 1.062 2.031 1.062.625 0 1.219-.265.594-.281 1.219-.86v2.72Z"/><text x="1308" y="232.78" fill="#D9B8FF" font-family="Helvetica" font-size="17" textLength="136">gcp_subnetwork</text></a><a xlink:actuate="onRequest" xlink:href="#h" xlink:show="new" xlink:title="#gcp_service" xlink:type="simple" target="_top"><rect id="h" width="137" height="39.789" x="966.5" y="107" fill="#3D176E" rx="2.5" ry="2.5" style="stroke:#000d19;stroke-width:1.5"/><circle cx="981.5" cy="126.894" r="11" fill="#E98DF7" style="stroke:#000d19;stroke-width:1"/><path d="M984.469 132.535q-.578.297-1.219.438-.64.156-1.344.156-2.5 0-3.828-1.64-1.312-1.657-1.312-4.782t1.312-4.781q1.328-1.657 3.828-1.657.703 0 1.344.157.656.156 1.219.453v2.719q-.625-.579-1.219-.844-.594-.281-1.219-.281-1.343 0-2.031 1.078-.688 1.062-.688 3.156 0 2.094.688 3.172.688 1.062 2.031 1.062.625 0 1.219-.265.594-.281 1.219-.86v2.72Z"/><text x="1000.5" y="132.78" fill="#D9B8FF" font-family="Helvetica" font-size="17" textLength="95">gcp_service</text></a><a xlink:actuate="onRequest" xlink:href="#i" xlink:show="new" xlink:title="#gcp_target_ssl_proxy" xlink:type="simple" target="_top"><rect id="i" width="216" height="39.789" x="668" y="307" fill="#3D176E" rx="2.5" ry="2.5" style="stroke:#000d19;stroke-width:1.5"/><circle cx="683" cy="326.894" r="11" fill="#E98DF7" style="stroke:#000d19;stroke-width:1"/><path d="M685.969 332.535q-.578.297-1.219.438-.64.156-1.344.156-2.5 0-3.828-1.64-1.312-1.657-1.312-4.782t1.312-4.781q1.328-1.656 3.828-1.656.703 0 1.344.156.656.156 1.219.453v2.719q-.625-.579-1.219-.844-.594-.281-1.219-.281-1.343 0-2.031 1.078-.688 1.062-.688 3.156 0 2.094.688 3.172.688 1.062 2.031 1.062.625 0 1.219-.265.594-.281 1.219-.86v2.72Z"/><text x="702" y="332.78" fill="#D9B8FF" font-family="Helvetica" font-size="17" textLength="174">gcp_target_ssl_proxy</text></a><a xlink:actuate="onRequest" xlink:href="#j" xlink:show="new" xlink:title="#gcp_target_https_proxy" xlink:type="simple" target="_top"><rect id="j" width="238" height="39.789" x="395" y="307" fill="#3D176E" rx="2.5" ry="2.5" style="stroke:#000d19;stroke-width:1.5"/><circle cx="410" cy="326.894" r="11" fill="#E98DF7" style="stroke:#000d19;stroke-width:1"/><path d="M412.969 332.535q-.578.297-1.219.438-.64.156-1.344.156-2.5 0-3.828-1.64-1.312-1.657-1.312-4.782t1.312-4.781q1.328-1.656 3.828-1.656.703 0 1.344.156.656.156 1.219.453v2.719q-.625-.579-1.219-.844-.594-.281-1.219-.281-1.344 0-2.031 1.078-.688 1.062-.688 3.156 0 2.094.688 3.172.688 1.062 2.031 1.062.625 0 1.219-.265.594-.281 1.219-.86v2.72Z"/><text x="429" y="332.78" fill="#D9B8FF" font-family="Helvetica" font-size="17" textLength="196">gcp_target_https_proxy</text></a><a xlink:actuate="onRequest" xlink:href="#k" xlink:show="new" xlink:title="#gcp_target_http_proxy" xlink:type="simple" target="_top"><rect id="k" width="230" height="39.789" x="1061" y="307" fill="#3D176E" rx="2.5" ry="2.5" style="stroke:#000d19;stroke-width:1.5"/><circle cx="1076" cy="326.894" r="11" fill="#E98DF7" style="stroke:#000d19;stroke-width:1"/><path d="M1078.969 332.535q-.578.297-1.219.438-.64.156-1.344.156-2.5 0-3.828-1.64-1.312-1.657-1.312-4.782t1.312-4.781q1.328-1.656 3.828-1.656.703 0 1.344.156.656.156 1.219.453v2.719q-.625-.579-1.219-.844-.594-.281-1.219-.281-1.343 0-2.031 1.078-.688 1.062-.688 3.156 0 2.094.688 3.172.688 1.062 2.031 1.062.625 0 1.219-.265.594-.281 1.219-.86v2.72Z"/><text x="1095" y="332.78" fill="#D9B8FF" font-family="Helvetica" font-size="17" textLength="188">gcp_target_http_proxy</text></a><a xlink:actuate="onRequest" xlink:href="#l" xlink:show="new" xlink:title="#gcp_http_health_check" xlink:type="simple" target="_top"><rect id="l" width="233" height="39.789" x="1490.5" y="507" fill="#3D176E" rx="2.5" ry="2.5" style="stroke:#000d19;stroke-width:1.5"/><circle cx="1505.5" cy="526.894" r="11" fill="#E98DF7" style="stroke:#000d19;stroke-width:1"/><path d="M1508.469 532.535q-.578.297-1.219.438-.64.156-1.344.156-2.5 0-3.828-1.64-1.312-1.657-1.312-4.782t1.312-4.781q1.328-1.657 3.828-1.657.703 0 1.344.157.656.156 1.219.453v2.719q-.625-.578-1.219-.844-.594-.281-1.219-.281-1.343 0-2.031 1.078-.688 1.062-.688 3.156 0 2.094.688 3.172.688 1.062 2.031 1.062.625 0 1.219-.265.594-.282 1.219-.86v2.72Z"/><text x="1524.5" y="532.78" fill="#D9B8FF" font-family="Helvetica" font-size="17" textLength="191">gcp_http_health_check</text></a><a xlink:actuate="onRequest" xlink:href="#m" xlink:show="new" xlink:title="#gcp_https_health_check" xlink:type="simple" target="_top"><rect id="m" width="241" height="39.789" x="1808.5" y="507" fill="#3D176E" rx="2.5" ry="2.5" style="stroke:#000d19;stroke-width:1.5"/><circle cx="1823.5" cy="526.894" r="11" fill="#E98DF7" style="stroke:#000d19;stroke-width:1"/><path d="M1826.469 532.535q-.578.297-1.219.438-.64.156-1.344.156-2.5 0-3.828-1.64-1.312-1.657-1.312-4.782t1.312-4.781q1.328-1.657 3.828-1.657.703 0 1.344.157.656.156 1.219.453v2.719q-.625-.578-1.219-.844-.594-.281-1.219-.281-1.343 0-2.031 1.078-.688 1.062-.688 3.156 0 2.094.688 3.172.688 1.062 2.031 1.062.625 0 1.219-.265.594-.282 1.219-.86v2.72Z"/><text x="1842.5" y="532.78" fill="#D9B8FF" font-family="Helvetica" font-size="17" textLength="199">gcp_https_health_check</text></a><a xlink:actuate="onRequest" xlink:href="#n" xlink:show="new" xlink:title="#gcp_snapshot" xlink:type="simple" target="_top"><rect id="n" width="154" height="39.789" x="1606" y="107" fill="#3D176E" rx="2.5" ry="2.5" style="stroke:#000d19;stroke-width:1.5"/><circle cx="1621" cy="126.894" r="11" fill="#E98DF7" style="stroke:#000d19;stroke-width:1"/><path d="M1623.969 132.535q-.578.297-1.219.438-.64.156-1.344.156-2.5 0-3.828-1.64-1.312-1.657-1.312-4.782t1.312-4.781q1.328-1.657 3.828-1.657.703 0 1.344.157.656.156 1.219.453v2.719q-.625-.579-1.219-.844-.594-.281-1.219-.281-1.343 0-2.031 1.078-.688 1.062-.688 3.156 0 2.094.688 3.172.688 1.062 2.031 1.062.625 0 1.219-.265.594-.281 1.219-.86v2.72Z"/><text x="1640" y="132.78" fill="#D9B8FF" font-family="Helvetica" font-size="17" textLength="112">gcp_snapshot</text></a><a xlink:actuate="onRequest" xlink:href="#o" xlink:show="new" xlink:title="#gcp_route" xlink:type="simple" target="_top"><rect id="o" width="124" height="39.789" x="1487" y="207" fill="#3D176E" rx="2.5" ry="2.5" style="stroke:#000d19;stroke-width:1.5"/><circle cx="1502" cy="226.894" r="11" fill="#E98DF7" style="stroke:#000d19;stroke-width:1"/><path d="M1504.969 232.535q-.578.297-1.219.438-.64.156-1.344.156-2.5 0-3.828-1.64-1.312-1.657-1.312-4.782t1.312-4.781q1.328-1.656 3.828-1.656.703 0 1.344.156.656.156 1.219.453v2.719q-.625-.579-1.219-.844-.594-.281-1.219-.281-1.343 0-2.031 1.078-.688 1.062-.688 3.156 0 2.094.688 3.172.688 1.062 2.031 1.062.625 0 1.219-.265.594-.281 1.219-.86v2.72Z"/><text x="1521" y="232.78" fill="#D9B8FF" font-family="Helvetica" font-size="17" textLength="82">gcp_route</text></a><a xlink:actuate="onRequest" xlink:href="#p" xlink:show="new" xlink:title="#gcp_network" xlink:type="simple" target="_top"><rect id="p" width="149" height="39.789" x="1280.5" y="107" fill="#3D176E" rx="2.5" ry="2.5" style="stroke:#000d19;stroke-width:1.5"/><circle cx="1295.5" cy="126.894" r="11" fill="#E98DF7" style="stroke:#000d19;stroke-width:1"/><path d="M1298.469 132.535q-.578.297-1.219.438-.64.156-1.344.156-2.5 0-3.828-1.64-1.312-1.657-1.312-4.782t1.312-4.781q1.328-1.657 3.828-1.657.703 0 1.344.157.656.156 1.219.453v2.719q-.625-.579-1.219-.844-.594-.281-1.219-.281-1.343 0-2.031 1.078-.688 1.062-.688 3.156 0 2.094.688 3.172.688 1.062 2.031 1.062.625 0 1.219-.265.594-.281 1.219-.86v2.72Z"/><text x="1314.5" y="132.78" fill="#D9B8FF" font-family="Helvetica" font-size="17" textLength="107">gcp_network</text></a><a xlink:actuate="onRequest" xlink:href="#q" xlink:show="new" xlink:title="#gcp_region" xlink:type="simple" target="_top"><rect id="q" width="132" height="39.789" x="799" y="107" fill="#3D176E" rx="2.5" ry="2.5" style="stroke:#000d19;stroke-width:1.5"/><circle cx="814" cy="126.894" r="11" fill="#E98DF7" style="stroke:#000d19;stroke-width:1"/><path d="M816.969 132.535q-.578.297-1.219.438-.64.156-1.344.156-2.5 0-3.828-1.64-1.312-1.657-1.312-4.782t1.312-4.781q1.328-1.657 3.828-1.657.703 0 1.344.157.656.156 1.219.453v2.719q-.625-.579-1.219-.844-.594-.281-1.219-.281-1.343 0-2.031 1.078-.688 1.062-.688 3.156 0 2.094.688 3.172.688 1.062 2.031 1.062.625 0 1.219-.265.594-.281 1.219-.86v2.72Z"/><text x="833" y="132.78" fill="#D9B8FF" font-family="Helvetica" font-size="17" textLength="90">gcp_region</text></a><a xlink:actuate="onRequest" xlink:href="#r" xlink:show="new" xlink:title="#gcp_project" xlink:type="simple" target="_top"><rect id="r" width="136" height="39.789" x="1124" y="7" fill="#3D176E" rx="2.5" ry="2.5" style="stroke:#000d19;stroke-width:1.5"/><circle cx="1139" cy="26.895" r="11" fill="#E98DF7" style="stroke:#000d19;stroke-width:1"/><path d="M1141.969 32.535q-.578.297-1.219.438-.64.156-1.344.156-2.5 0-3.828-1.64-1.312-1.657-1.312-4.782t1.312-4.781q1.328-1.656 3.828-1.656.703 0 1.344.156.656.156 1.219.453v2.719q-.625-.578-1.219-.844-.594-.281-1.219-.281-1.343 0-2.031 1.078-.688 1.062-.688 3.156 0 2.094.688 3.172.688 1.062 2.031 1.062.625 0 1.219-.265.594-.281 1.219-.86v2.72Z"/><text x="1158" y="32.78" fill="#D9B8FF" font-family="Helvetica" font-size="17" textLength="94">gcp_project</text></a><a xlink:actuate="onRequest" xlink:href="#s" xlink:show="new" xlink:title="#gcp_bucket" xlink:type="simple" target="_top"><rect id="s" width="135" height="39.789" x="2008.5" y="107" fill="#3D176E" rx="2.5" ry="2.5" style="stroke:#000d19;stroke-width:1.5"/><circle cx="2023.5" cy="126.894" r="11" fill="#E98DF7" style="stroke:#000d19;stroke-width:1"/><path d="M2026.469 132.535q-.578.297-1.219.438-.64.156-1.344.156-2.5 0-3.828-1.64-1.312-1.657-1.312-4.782t1.312-4.781q1.328-1.657 3.828-1.657.703 0 1.344.157.656.156 1.219.453v2.719q-.625-.579-1.219-.844-.594-.281-1.219-.281-1.343 0-2.031 1.078-.688 1.062-.688 3.156 0 2.094.688 3.172.688 1.062 2.031 1.062.625 0 1.219-.265.594-.281 1.219-.86v2.72Z"/><text x="2042.5" y="132.78" fill="#D9B8FF" font-family="Helvetica" font-size="17" textLength="93">gcp_bucket</text></a><path fill="none" d="M1586.94 447.36c3.97 15.57 9.57 37.54 13.85 54.3" style="stroke:#1a83af;stroke-width:2"/><path fill="#1A83AF" d="m1602.07 506.68 1.637-9.712-2.88 4.869-4.869-2.88 6.112 7.723z" style="stroke:#1a83af;stroke-width:2"/><path fill="none" d="M1474.37 446.38c-105.18 17.95-264.03 45.07-366.48 62.57" style="stroke:#1a83af;stroke-width:2"/><path fill="#1A83AF" d="m1102.75 509.82 9.545 2.426-4.617-3.269 3.269-4.617-8.197 5.46z" style="stroke:#1a83af;stroke-width:2"/><path fill="none" d="m1649.32 447.01 207.17 58.51" style="stroke:#1a83af;stroke-width:2"/><path fill="#1A83AF" d="m1861.58 506.96-7.577-6.292 2.765 4.935-4.936 2.765 9.748-1.408z" style="stroke:#1a83af;stroke-width:2"/><path fill="none" d="M1582 347.36v54.3" style="stroke:#1a83af;stroke-width:2"/><path fill="#1A83AF" d="m1582 406.68 4-9-4 4-4-4 4 9z" style="stroke:#1a83af;stroke-width:2"/><path fill="none" d="M674.6 247.01c-92.35 16.98-227.15 41.77-321.03 59.03" style="stroke:#1a83af;stroke-width:2"/><path fill="#1A83AF" d="m348.57 306.96 9.573 2.313-4.655-3.214 3.214-4.655-8.132 5.556z" style="stroke:#1a83af;stroke-width:2"/><path fill="none" d="M777.6 247.36c-.31 15.57-.76 37.54-1.1 54.3" style="stroke:#1a83af;stroke-width:2"/><path fill="#1A83AF" d="m776.39 306.68 4.205-8.906-4.09 3.907-3.908-4.09 3.793 9.089z" style="stroke:#1a83af;stroke-width:2"/><path fill="none" d="M726.79 247.01c-44.94 16.68-110.18 40.9-156.56 58.12" style="stroke:#1a83af;stroke-width:2"/><path fill="#1A83AF" d="m565.52 306.87 9.83.611-5.144-2.354 2.355-5.144-7.041 6.887z" style="stroke:#1a83af;stroke-width:2"/><path fill="none" d="M884.35 240.96c151.04 18.41 426.61 52 582.38 70.99" style="stroke:#1a83af;stroke-width:2"/><path fill="#1A83AF" d="m1471.76 312.56-8.456-5.05 3.492 4.45-4.45 3.493 9.414-2.893z" style="stroke:#1a83af;stroke-width:2"/><path fill="none" d="m855.21 247.01 238.46 58.72" style="stroke:#1a83af;stroke-width:2"/><path fill="#1A83AF" d="m1098.67 306.96-7.778-6.042 2.924 4.843-4.843 2.924 9.697-1.725z" style="stroke:#1a83af;stroke-width:2"/><path fill="none" d="M297.18 347.01c45.8 16.68 112.27 40.9 159.52 58.12" style="stroke:#1a83af;stroke-width:2"/><path fill="#1A83AF" d="m461.5 406.87-7.084-6.842 2.387 5.129-5.129 2.387 9.826-.674z" style="stroke:#1a83af;stroke-width:2"/><path fill="none" d="M884.28 341.17c152.69 18.56 429.89 52.27 584.97 71.12" style="stroke:#1a83af;stroke-width:2"/><path fill="#1A83AF" d="m1474.26 412.9-8.454-5.052 3.49 4.451-4.451 3.49 9.415-2.889z" style="stroke:#1a83af;stroke-width:2"/><path fill="none" d="M725.17 347.01c-44.51 16.65-109.08 40.8-155.08 58.01" style="stroke:#1a83af;stroke-width:2"/><path fill="#1A83AF" d="m565.13 406.87 9.832.585-5.15-2.34 2.34-5.15-7.022 6.905z" style="stroke:#1a83af;stroke-width:2"/><path fill="none" d="M514 347.36v54.3" style="stroke:#1a83af;stroke-width:2"/><path fill="#1A83AF" d="m514 406.68 4-9-4 4-4-4 4 9z" style="stroke:#1a83af;stroke-width:2"/><path fill="none" d="M1356.58 147.36c1.27 15.57 3.06 37.54 4.43 54.3" style="stroke:#1a83af;stroke-width:2"/><path fill="#1A83AF" d="m1361.42 206.68 3.241-9.3-3.655 4.317-4.318-3.655 4.732 8.638z" style="stroke:#1a83af;stroke-width:2"/><path fill="none" d="M1392.87 147.13c32.71 16.52 79.94 40.38 113.87 57.52" style="stroke:#1a83af;stroke-width:2"/><path fill="#1A83AF" d="m1511.23 206.92-6.232-7.626 1.768 5.373-5.373 1.768 9.837.485z" style="stroke:#1a83af;stroke-width:2"/><path fill="none" d="M931.44 143.25c5.93 1.29 11.85 2.56 17.56 3.75 109.56 22.84 235.99 46.59 320.02 62.01" style="stroke:#1a83af;stroke-width:2"/><path fill="#1A83AF" d="m1273.99 209.92-8.135-5.552 3.216 4.654-4.653 3.216 9.572-2.318z" style="stroke:#1a83af;stroke-width:2"/><path fill="none" d="M798.66 146.33C755.71 159.74 699.52 180.24 654 207c-46.13 27.12-91.92 69.79-118.01 95.99" style="stroke:#1a83af;stroke-width:2"/><path fill="#1A83AF" d="m532.29 306.73 9.17-3.591-5.656.034-.034-5.657-3.48 9.214z" style="stroke:#1a83af;stroke-width:2"/><path fill="none" d="M847.81 147.36c-14.06 15.84-33.99 38.3-48.96 55.16" style="stroke:#1a83af;stroke-width:2"/><path fill="#1A83AF" d="m795.15 206.68 8.961-4.086-5.646.343-.343-5.647-2.972 9.39z" style="stroke:#1a83af;stroke-width:2"/><path fill="none" d="M888.24 147.06c16.37 14.7 37.49 36.43 49.76 59.94 52.6 100.8 65.75 239.42 68.97 294.76" style="stroke:#1a83af;stroke-width:2"/><path fill="#1A83AF" d="m1007.26 506.85 3.506-9.204-3.777 4.211-4.211-3.777 4.482 8.77z" style="stroke:#1a83af;stroke-width:2"/><path fill="none" d="M876.95 147.22C901.09 188.72 949.37 287.76 901 347c-35.45 43.42-183.46 63.6-285.8 72.52" style="stroke:#1a83af;stroke-width:2"/><path fill="#1A83AF" d="m610.05 419.96 9.31 3.212-4.328-3.641 3.641-4.33-8.623 4.759z" style="stroke:#1a83af;stroke-width:2"/><path fill="none" d="M914.47 147.11C949.14 161.44 995.9 182.72 1034 207c45.24 28.83 91.81 70.61 118.77 96.23" style="stroke:#1a83af;stroke-width:2"/><path fill="#1A83AF" d="m1156.6 306.88-3.739-9.112.126 5.656-5.656.126 9.269 3.33z" style="stroke:#1a83af;stroke-width:2"/><path fill="none" d="M922.47 147.13c45.08 15.33 109.24 37.84 164.53 59.87 168.31 67.07 363.87 157.33 450.16 197.81" style="stroke:#1a83af;stroke-width:2"/><path fill="#1A83AF" d="m1541.69 406.94-6.444-7.449 1.919 5.322-5.322 1.919 9.847.208z" style="stroke:#1a83af;stroke-width:2"/><path fill="none" d="M1200.69 47.12c11.83 24.75 34.71 68.41 62.31 99.88 19.21 21.89 45.1 42.16 65.73 56.68" style="stroke:#1a83af;stroke-width:2"/><path fill="#1A83AF" d="m1333.05 206.69-5.097-8.427.995 5.568-5.569.995 9.671 1.864z" style="stroke:#1a83af;stroke-width:2"/><path fill="none" d="M1123.91 29.04C1015.14 32.55 796.75 47.19 623 107c-140.77 48.46-287.9 151.36-348.87 196.72" style="stroke:#1a83af;stroke-width:2"/><path fill="#1A83AF" d="m269.89 306.89 9.605-2.178-5.598-.813.813-5.598-4.82 8.589z" style="stroke:#1a83af;stroke-width:2"/><path fill="none" d="M1260.02 28.72C1403.7 31.48 1732.29 44.62 1822 107c48.96 34.05 62 59.36 62 119v102c0 97.22-114.34 151.25-196.1 177.45" style="stroke:#1a83af;stroke-width:2"/><path fill="#1A83AF" d="m1683.06 506.99 9.785 1.117-5.015-2.617 2.616-5.015-7.386 6.515z" style="stroke:#1a83af;stroke-width:2"/><path fill="none" d="M1123.84 28.43C1034.95 31.58 876.8 46.21 758 107c-69 35.31-141.03 71.91-104 140 14.19 26.09 41.11 44.88 66.06 57.58" style="stroke:#1a83af;stroke-width:2"/><path fill="#1A83AF" d="m724.69 306.88-6.29-7.579 1.81 5.36-5.36 1.81 9.84.409z" style="stroke:#1a83af;stroke-width:2"/><path fill="none" d="M1260.09 32.57C1397.1 42.26 1715.68 67.28 1981 107c7.23 1.08 14.74 2.35 22.24 3.7" style="stroke:#1a83af;stroke-width:2"/><path fill="#1A83AF" d="m2008.42 111.64-8.132-5.556 3.214 4.655-4.655 3.214 9.573-2.313z" style="stroke:#1a83af;stroke-width:2"/><path fill="none" d="M1161.36 47.13c-26.26 16.39-64.07 39.99-91.49 57.1" style="stroke:#1a83af;stroke-width:2"/><path fill="#1A83AF" d="m1065.57 106.92 9.754-1.363-5.51-1.28 1.28-5.51-5.524 8.153z" style="stroke:#1a83af;stroke-width:2"/><path fill="none" d="M1123.87 31.08C1018.69 37.4 824.34 55.87 781 107c-22.17 26.16-16.86 68.41-10.38 94.89" style="stroke:#1a83af;stroke-width:2"/><path fill="#1A83AF" d="m771.92 206.97 1.637-9.712-2.88 4.869-4.869-2.88 6.112 7.723z" style="stroke:#1a83af;stroke-width:2"/><path fill="none" d="M1123.89 28.73C978.91 31.52 629.77 44.73 345 107 189.01 141.11 6 66.32 6 226v102c0 91.3 648.55 163.85 902.1 188.73" style="stroke:#1a83af;stroke-width:2"/><path fill="#1A83AF" d="m913.28 517.23-8.57-4.854 3.594 4.37-4.37 3.592 9.346-3.108z" style="stroke:#1a83af;stroke-width:2"/><path fill="none" d="M1260.27 32.24C1407.3 42.07 1743.38 68.54 1777 107c48.48 55.47 91.63 38.94-68 240-19.91 25.08-50.11 44.33-76.07 57.55" style="stroke:#1a83af;stroke-width:2"/><path fill="#1A83AF" d="m1628.14 406.94 9.84-.435-5.365-1.795 1.796-5.365-6.271 7.595z" style="stroke:#1a83af;stroke-width:2"/><path fill="none" d="M1260.2 29.03c150.89 3.38 507.69 17.69 609.8 77.97 55.97 33.04 85 54 85 119v102c0 63.12-13.15 136.59-20.74 173.78" style="stroke:#1a83af;stroke-width:2"/><path fill="#1A83AF" d="m1933.18 507 5.746-7.999-4.73 3.103-3.103-4.73 2.087 9.626z" style="stroke:#1a83af;stroke-width:2"/><path fill="none" d="M1223.81 47.13c27.27 16.39 66.52 39.99 94.98 57.1" style="stroke:#1a83af;stroke-width:2"/><path fill="#1A83AF" d="m1323.27 106.92-5.66-8.06 1.373 5.487-5.488 1.373 9.775 1.2z" style="stroke:#1a83af;stroke-width:2"/><path fill="none" d="M1260.08 38.37C1314.17 49.02 1389.96 69.53 1447 107c38.27 25.14 70.29 68.64 87.75 95.51" style="stroke:#1a83af;stroke-width:2"/><path fill="#1A83AF" d="m1537.64 207-1.51-9.732-1.197 5.528-5.53-1.196 8.237 5.4z" style="stroke:#1a83af;stroke-width:2"/><path fill="none" d="M1128.56 47.01c-56.09 16.81-137.71 41.27-195.23 58.51" style="stroke:#1a83af;stroke-width:2"/><path fill="#1A83AF" d="m928.54 106.96 9.768 1.259-4.977-2.69 2.689-4.976-7.48 6.407z" style="stroke:#1a83af;stroke-width:2"/><path fill="none" d="M1123.67 32.25C1002.22 40.84 754.6 63.25 681 107c-79.87 47.48-134.71 149.07-156.5 195.26" style="stroke:#1a83af;stroke-width:2"/><path fill="#1A83AF" d="m522.37 306.82 7.432-6.463-5.317 1.932-1.932-5.316-.183 9.847z" style="stroke:#1a83af;stroke-width:2"/><path fill="none" d="M1260.18 37.82C1323.62 48.75 1419.57 69.96 1496 107c66.23 32.1 99.24 34.09 132 100 16.03 32.25-6.86 71.54-25.7 95.91" style="stroke:#1a83af;stroke-width:2"/><path fill="#1A83AF" d="m1599.08 306.99 8.715-4.587-5.618.662-.662-5.618-2.435 9.543z" style="stroke:#1a83af;stroke-width:2"/><path fill="none" d="M1123.83 28.51C1000.86 31.06 734.81 44.13 521 107c-194.13 57.09-301.86 28.35-409 200-9.41 15.08-11.29 26.27 0 40 37.36 45.42 194.21 65.13 300.58 73.38" style="stroke:#1a83af;stroke-width:2"/><path fill="#1A83AF" d="m417.61 420.77-8.678-4.658 3.692 4.286-4.286 3.692 9.272-3.32z" style="stroke:#1a83af;stroke-width:2"/><path fill="none" d="M1260.01 41.57c89.11 17.79 245.24 48.95 340.85 68.04" style="stroke:#1a83af;stroke-width:2"/><path fill="#1A83AF" d="m1605.93 110.62-8.053-5.67 3.148 4.7-4.7 3.149 9.605-2.179z" style="stroke:#1a83af;stroke-width:2"/><path fill="none" d="M1190.97 47.09c-2.79 52.02-10.53 196.22-13.65 254.25" style="stroke:#1a83af;stroke-width:2"/><path fill="#1A83AF" d="m1177.04 306.68 4.483-8.77-4.211 3.777-3.777-4.211 3.505 9.204z" style="stroke:#1a83af;stroke-width:2"/></svg>