<svg xmlns="http://www.w3.org/2000/svg" xmlns:xlink="http://www.w3.org/1999/xlink" width="435" height="352" preserveAspectRatio="none" style="width:435px;height:352px;background:#00000000"><a xlink:actuate="onRequest" xlink:href="#a" xlink:show="new" xlink:title="#gcp_zone" xlink:type="simple" target="_top"><rect id="a" width="118" height="39.789" x="263.64" y="107" fill="#3D176E" rx="2.5" ry="2.5" style="stroke:#000d19;stroke-width:1.5"/><circle cx="278.64" cy="126.894" r="11" fill="#E98DF7" style="stroke:#000d19;stroke-width:1"/><path d="M281.609 132.535q-.578.297-1.219.438-.64.156-1.344.156-2.5 0-3.828-1.64-1.312-1.657-1.312-4.782t1.312-4.781q1.328-1.657 3.828-1.657.703 0 1.344.157.656.156 1.219.453v2.719q-.625-.579-1.219-.844-.594-.281-1.219-.281-1.344 0-2.031 1.078-.688 1.062-.688 3.156 0 2.094.688 3.172.688 1.062 2.031 1.062.625 0 1.219-.265.594-.281 1.219-.86v2.72Z"/><text x="297.64" y="132.78" fill="#D9B8FF" font-family="Helvetica" font-size="17" textLength="76">gcp_zone</text></a><a xlink:actuate="onRequest" xlink:href="#b" xlink:show="new" xlink:title="#gcp_disk_type" xlink:type="simple" target="_top"><rect id="b" width="158" height="39.789" x="86.64" y="207" fill="#3D176E" rx="2.5" ry="2.5" style="stroke:#000d19;stroke-width:1.5"/><circle cx="101.64" cy="226.894" r="11" fill="#E98DF7" style="stroke:#000d19;stroke-width:1"/><path d="M104.609 232.535q-.578.297-1.219.438-.64.156-1.344.156-2.5 0-3.828-1.64-1.312-1.657-1.312-4.782t1.312-4.781q1.328-1.656 3.828-1.656.703 0 1.344.156.656.156 1.219.453v2.719q-.625-.579-1.219-.844-.594-.281-1.219-.281-1.344 0-2.031 1.078-.688 1.062-.688 3.156 0 2.094.688 3.172.688 1.062 2.031 1.062.625 0 1.219-.265.594-.281 1.219-.86v2.72Z"/><text x="120.64" y="232.78" fill="#D9B8FF" font-family="Helvetica" font-size="17" textLength="116">gcp_disk_type</text></a><a xlink:actuate="onRequest" xlink:href="#c" xlink:show="new" xlink:title="#gcp_disk" xlink:type="simple" target="_top"><rect id="c" width="112" height="39.789" x="266.64" y="307" fill="#3D176E" rx="2.5" ry="2.5" style="stroke:#000d19;stroke-width:1.5"/><circle cx="281.64" cy="326.894" r="11" fill="#E98DF7" style="stroke:#000d19;stroke-width:1"/><path d="M284.609 332.535q-.578.297-1.219.438-.64.156-1.344.156-2.5 0-3.828-1.64-1.312-1.657-1.312-4.782t1.312-4.781q1.328-1.656 3.828-1.656.703 0 1.344.156.656.156 1.219.453v2.719q-.625-.579-1.219-.844-.594-.281-1.219-.281-1.344 0-2.031 1.078-.688 1.062-.688 3.156 0 2.094.688 3.172.688 1.062 2.031 1.062.625 0 1.219-.265.594-.281 1.219-.86v2.72Z"/><text x="300.64" y="332.78" fill="#D9B8FF" font-family="Helvetica" font-size="17" textLength="70">gcp_disk</text></a><a xlink:actuate="onRequest" xlink:href="#d" xlink:show="new" xlink:title="#gcp_service_sku" xlink:type="simple" target="_top"><rect id="d" width="175" height="39.789" x="53.14" y="107" fill="#3D176E" rx="2.5" ry="2.5" style="stroke:#000d19;stroke-width:1.5"/><circle cx="68.14" cy="126.894" r="11" fill="#E98DF7" style="stroke:#000d19;stroke-width:1"/><path d="M71.109 132.535q-.578.297-1.219.438-.64.156-1.344.156-2.5 0-3.828-1.64-1.312-1.657-1.312-4.782t1.312-4.781q1.328-1.657 3.828-1.657.703 0 1.344.157.656.156 1.219.453v2.719q-.625-.579-1.219-.844-.594-.281-1.219-.281-1.344 0-2.031 1.078-.688 1.062-.688 3.156 0 2.094.688 3.172.688 1.062 2.031 1.062.625 0 1.219-.265.594-.281 1.219-.86v2.72Z"/><text x="87.14" y="132.78" fill="#D9B8FF" font-family="Helvetica" font-size="17" textLength="133">gcp_service_sku</text></a><a xlink:actuate="onRequest" xlink:href="#e" xlink:show="new" xlink:title="#gcp_region" xlink:type="simple" target="_top"><rect id="e" width="132" height="39.789" x="256.64" y="7" fill="#3D176E" rx="2.5" ry="2.5" style="stroke:#000d19;stroke-width:1.5"/><circle cx="271.64" cy="26.895" r="11" fill="#E98DF7" style="stroke:#000d19;stroke-width:1"/><path d="M274.609 32.535q-.578.297-1.219.438-.64.156-1.344.156-2.5 0-3.828-1.64-1.312-1.657-1.312-4.782t1.312-4.781q1.328-1.656 3.828-1.656.703 0 1.344.156.656.156 1.219.453v2.719q-.625-.578-1.219-.844-.594-.281-1.219-.281-1.344 0-2.031 1.078-.688 1.062-.688 3.156 0 2.094.688 3.172.688 1.062 2.031 1.062.625 0 1.219-.265.594-.281 1.219-.86v2.72Z"/><text x="290.64" y="32.78" fill="#D9B8FF" font-family="Helvetica" font-size="17" textLength="90">gcp_region</text></a><path fill="none" d="M292 147.13c-26.26 16.39-64.07 39.99-91.48 57.1" style="stroke:#1a83af;stroke-width:2"/><path fill="#1A83AF" d="m196.21 206.92 9.75-1.387-5.512-1.267 1.267-5.513-5.505 8.167z" style="stroke:#1a83af;stroke-width:2"/><path fill="none" d="M322.64 147.35v154.4" style="stroke:#1a83af;stroke-width:2"/><path fill="#1A83AF" d="m322.64 306.87 4-9-4 4-4-4 4 9z" style="stroke:#1a83af;stroke-width:2"/><path fill="none" d="M196.29 247.13c26.25 16.39 64.07 39.99 91.48 57.1" style="stroke:#1a83af;stroke-width:2"/><path fill="#1A83AF" d="m292.08 306.92-5.524-8.154 1.28 5.51-5.51 1.28 9.754 1.364z" style="stroke:#1a83af;stroke-width:2"/><path fill="none" d="M145.58 147.36c3.97 15.57 9.58 37.54 13.85 54.3" style="stroke:#1a83af;stroke-width:2"/><path fill="#1A83AF" d="m160.71 206.68 1.637-9.712-2.88 4.869-4.869-2.88 6.112 7.723z" style="stroke:#1a83af;stroke-width:2"/><path fill="none" d="M350.29 47.28c17.8 14.19 39.39 35.24 49.35 59.72 28.5 70.06-26.16 155.09-57.38 195.49" style="stroke:#1a83af;stroke-width:2"/><path fill="#1A83AF" d="m338.95 306.73 8.697-4.622-5.615.685-.685-5.616-2.397 9.553z" style="stroke:#1a83af;stroke-width:2"/><path fill="none" d="M256.59 36.87C180.44 48.62 62.3 72.01 35.64 107 6 145.9 64.06 182.62 111.85 204.71" style="stroke:#1a83af;stroke-width:2"/><path fill="#1A83AF" d="m116.44 206.8-6.53-7.373 1.98 5.299-5.298 1.98 9.848.094z" style="stroke:#1a83af;stroke-width:2"/><path fill="none" d="M322.64 47.36v54.3" style="stroke:#1a83af;stroke-width:2"/><path fill="#1A83AF" d="m322.64 106.68 4-9-4 4-4-4 4 9z" style="stroke:#1a83af;stroke-width:2"/></svg>