<svg xmlns="http://www.w3.org/2000/svg" xmlns:xlink="http://www.w3.org/1999/xlink" width="452" height="452" preserveAspectRatio="none" style="width:452px;height:452px;background:#00000000"><a xlink:actuate="onRequest" xlink:href="#a" xlink:show="new" xlink:title="#gcp_instance" xlink:type="simple" target="_top"><rect id="a" width="149" height="39.789" x="32.78" y="207" fill="#3D176E" rx="2.5" ry="2.5" style="stroke:#000d19;stroke-width:1.5"/><circle cx="47.78" cy="226.894" r="11" fill="#E98DF7" style="stroke:#000d19;stroke-width:1"/><path d="M50.749 232.535q-.578.297-1.219.438-.64.156-1.344.156-2.5 0-3.828-1.64-1.312-1.657-1.312-4.782t1.312-4.781q1.328-1.656 3.828-1.656.703 0 1.344.156.656.156 1.219.453v2.719q-.625-.579-1.219-.844-.594-.281-1.219-.281-1.343 0-2.031 1.078-.688 1.062-.688 3.156 0 2.094.688 3.172.688 1.062 2.031 1.062.625 0 1.219-.265.594-.281 1.219-.86v2.72Z"/><text x="66.78" y="232.78" fill="#D9B8FF" font-family="Helvetica" font-size="17" textLength="107">gcp_instance</text></a><a xlink:actuate="onRequest" xlink:href="#b" xlink:show="new" xlink:title="#gcp_disk" xlink:type="simple" target="_top"><rect id="b" width="112" height="39.789" x="114.28" y="307" fill="#3D176E" rx="2.5" ry="2.5" style="stroke:#000d19;stroke-width:1.5"/><circle cx="129.28" cy="326.894" r="11" fill="#E98DF7" style="stroke:#000d19;stroke-width:1"/><path d="M132.249 332.535q-.578.297-1.219.438-.64.156-1.344.156-2.5 0-3.828-1.64-1.312-1.657-1.312-4.782t1.312-4.781q1.328-1.656 3.828-1.656.703 0 1.344.156.656.156 1.219.453v2.719q-.625-.579-1.219-.844-.594-.281-1.219-.281-1.344 0-2.031 1.078-.688 1.062-.688 3.156 0 2.094.688 3.172.688 1.062 2.031 1.062.625 0 1.219-.265.594-.281 1.219-.86v2.72Z"/><text x="148.28" y="332.78" fill="#D9B8FF" font-family="Helvetica" font-size="17" textLength="70">gcp_disk</text></a><a xlink:actuate="onRequest" xlink:href="#c" xlink:show="new" xlink:title="#gcp_snapshot" xlink:type="simple" target="_top"><rect id="c" width="154" height="39.789" x="93.28" y="407" fill="#3D176E" rx="2.5" ry="2.5" style="stroke:#000d19;stroke-width:1.5"/><circle cx="108.28" cy="426.894" r="11" fill="#E98DF7" style="stroke:#000d19;stroke-width:1"/><path d="M111.249 432.535q-.578.297-1.219.438-.64.156-1.344.156-2.5 0-3.828-1.64-1.312-1.657-1.312-4.782t1.312-4.781q1.328-1.656 3.828-1.656.703 0 1.344.156.656.156 1.219.453v2.719q-.625-.579-1.219-.844-.594-.281-1.219-.281-1.344 0-2.031 1.078-.688 1.062-.688 3.156 0 2.094.688 3.172.688 1.062 2.031 1.062.625 0 1.219-.265.594-.281 1.219-.86v2.72Z"/><text x="127.28" y="432.78" fill="#D9B8FF" font-family="Helvetica" font-size="17" textLength="112">gcp_snapshot</text></a><a xlink:actuate="onRequest" xlink:href="#d" xlink:show="new" xlink:title="#gcp_region" xlink:type="simple" target="_top"><rect id="d" width="132" height="39.789" x="168.28" y="7" fill="#3D176E" rx="2.5" ry="2.5" style="stroke:#000d19;stroke-width:1.5"/><circle cx="183.28" cy="26.895" r="11" fill="#E98DF7" style="stroke:#000d19;stroke-width:1"/><path d="M186.249 32.535q-.578.297-1.219.438-.64.156-1.344.156-2.5 0-3.828-1.64-1.312-1.657-1.312-4.782t1.312-4.781q1.328-1.656 3.828-1.656.703 0 1.344.156.656.156 1.219.453v2.719q-.625-.578-1.219-.844-.594-.281-1.219-.281-1.344 0-2.031 1.078-.688 1.062-.688 3.156 0 2.094.688 3.172.688 1.062 2.031 1.062.625 0 1.219-.265.594-.281 1.219-.86v2.72Z"/><text x="202.28" y="32.78" fill="#D9B8FF" font-family="Helvetica" font-size="17" textLength="90">gcp_region</text></a><a xlink:actuate="onRequest" xlink:href="#e" xlink:show="new" xlink:title="#gcp_zone" xlink:type="simple" target="_top"><rect id="e" width="118" height="39.789" x="175.28" y="107" fill="#3D176E" rx="2.5" ry="2.5" style="stroke:#000d19;stroke-width:1.5"/><circle cx="190.28" cy="126.894" r="11" fill="#E98DF7" style="stroke:#000d19;stroke-width:1"/><path d="M193.249 132.535q-.578.297-1.219.438-.64.156-1.344.156-2.5 0-3.828-1.64-1.312-1.657-1.312-4.782t1.312-4.781q1.328-1.657 3.828-1.657.703 0 1.344.157.656.156 1.219.453v2.719q-.625-.579-1.219-.844-.594-.281-1.219-.281-1.344 0-2.031 1.078-.688 1.062-.688 3.156 0 2.094.688 3.172.688 1.062 2.031 1.062.625 0 1.219-.265.594-.281 1.219-.86v2.72Z"/><text x="209.28" y="132.78" fill="#D9B8FF" font-family="Helvetica" font-size="17" textLength="76">gcp_zone</text></a><a xlink:actuate="onRequest" xlink:href="#f" xlink:show="new" xlink:title="#gcp_disk_type" xlink:type="simple" target="_top"><rect id="f" width="158" height="39.789" x="287.28" y="207" fill="#3D176E" rx="2.5" ry="2.5" style="stroke:#000d19;stroke-width:1.5"/><circle cx="302.28" cy="226.894" r="11" fill="#E98DF7" style="stroke:#000d19;stroke-width:1"/><path d="M305.249 232.535q-.578.297-1.219.438-.64.156-1.344.156-2.5 0-3.828-1.64-1.312-1.657-1.312-4.782t1.312-4.781q1.328-1.656 3.828-1.656.703 0 1.344.156.656.156 1.219.453v2.719q-.625-.579-1.219-.844-.594-.281-1.219-.281-1.344 0-2.031 1.078-.688 1.062-.688 3.156 0 2.094.688 3.172.688 1.062 2.031 1.062.625 0 1.219-.265.594-.281 1.219-.86v2.72Z"/><text x="321.28" y="232.78" fill="#D9B8FF" font-family="Helvetica" font-size="17" textLength="116">gcp_disk_type</text></a><path fill="none" d="M119.73 247.36c10.1 15.71 24.37 37.92 35.18 54.73" style="stroke:#1a83af;stroke-width:2"/><path fill="#1A83AF" d="m157.86 306.68-1.502-9.734-1.202 5.528-5.528-1.202 8.232 5.408z" style="stroke:#1a83af;stroke-width:2"/><path fill="none" d="M170.28 347.36v54.3" style="stroke:#1a83af;stroke-width:2"/><path fill="#1A83AF" d="m170.28 406.68 4-9-4 4-4-4 4 9z" style="stroke:#1a83af;stroke-width:2"/><path fill="none" d="M193.44 47.1C140.92 74.22 52.1 129.35 15.28 207c-7.61 16.06-9.28 24.84 0 40 20.46 33.38 59.94 53.21 93.93 64.66" style="stroke:#1a83af;stroke-width:2"/><path fill="#1A83AF" d="m114.19 313.29-7.303-6.608 2.552 5.048-5.048 2.553 9.799-.993z" style="stroke:#1a83af;stroke-width:2"/><path fill="none" d="M234.28 47.36v54.3" style="stroke:#1a83af;stroke-width:2"/><path fill="#1A83AF" d="m234.28 106.68 4-9-4 4-4-4 4 9z" style="stroke:#1a83af;stroke-width:2"/><path fill="none" d="M256.62 47.09c16.62 15.03 39.03 37.19 54.66 59.91 20.93 30.41 37.42 70.05 46.69 95.02" style="stroke:#1a83af;stroke-width:2"/><path fill="#1A83AF" d="m359.73 206.81.674-9.826-2.387 5.129-5.129-2.387 6.842 7.084z" style="stroke:#1a83af;stroke-width:2"/><path fill="none" d="M260.05 147.13c21.89 16.25 53.34 39.6 76.34 56.68" style="stroke:#1a83af;stroke-width:2"/><path fill="#1A83AF" d="m340.58 206.92-4.854-8.57.835 5.595-5.595.835 9.614 2.14z" style="stroke:#1a83af;stroke-width:2"/><path fill="none" d="M209.5 147.13c-21.07 16.25-51.33 39.6-73.46 56.68" style="stroke:#1a83af;stroke-width:2"/><path fill="#1A83AF" d="m132.01 206.92 9.568-2.337-5.611-.72.72-5.61-4.677 8.667z" style="stroke:#1a83af;stroke-width:2"/><path fill="none" d="M229.09 147.08c-6.52 23.6-18.26 64.95-29.81 99.92-6.13 18.57-13.78 39.32-19.68 54.9" style="stroke:#1a83af;stroke-width:2"/><path fill="#1A83AF" d="m177.67 306.97 6.95-6.979-5.165 2.309-2.308-5.165.523 9.835z" style="stroke:#1a83af;stroke-width:2"/><path fill="none" d="M328.03 247.13c-33.05 16.52-80.77 40.38-115.05 57.52" style="stroke:#1a83af;stroke-width:2"/><path fill="#1A83AF" d="m208.44 306.92 9.838-.46-5.369-1.782 1.782-5.369-6.251 7.611z" style="stroke:#1a83af;stroke-width:2"/></svg>