<svg xmlns="http://www.w3.org/2000/svg" xmlns:xlink="http://www.w3.org/1999/xlink" width="2618" height="552" preserveAspectRatio="none" style="width:2618px;height:552px;background:#00000000"><a xlink:actuate="onRequest" xlink:href="#a" xlink:show="new" xlink:title="#gcp_target_https_proxy" xlink:type="simple" target="_top"><rect id="a" width="238" height="39.789" x="395" y="307" fill="#3D176E" rx="2.5" ry="2.5" style="stroke:#000d19;stroke-width:1.5"/><circle cx="410" cy="326.894" r="11" fill="#E98DF7" style="stroke:#000d19;stroke-width:1"/><path d="M412.969 332.535q-.578.297-1.219.438-.64.156-1.344.156-2.5 0-3.828-1.64-1.312-1.657-1.312-4.782t1.312-4.781q1.328-1.656 3.828-1.656.703 0 1.344.156.656.156 1.219.453v2.719q-.625-.579-1.219-.844-.594-.281-1.219-.281-1.344 0-2.031 1.078-.688 1.062-.688 3.156 0 2.094.688 3.172.688 1.062 2.031 1.062.625 0 1.219-.265.594-.281 1.219-.86v2.72Z"/><text x="429" y="332.78" fill="#D9B8FF" font-family="Helvetica" font-size="17" textLength="196">gcp_target_https_proxy</text></a><a xlink:actuate="onRequest" xlink:href="#b" xlink:show="new" xlink:title="#gcp_ssl_certificate" xlink:type="simple" target="_top"><rect id="b" width="192" height="39.789" x="418" y="407" fill="#3D176E" rx="2.5" ry="2.5" style="stroke:#000d19;stroke-width:1.5"/><circle cx="433" cy="426.894" r="11" fill="#E98DF7" style="stroke:#000d19;stroke-width:1"/><path d="M435.969 432.535q-.578.297-1.219.438-.64.156-1.344.156-2.5 0-3.828-1.64-1.312-1.657-1.312-4.782t1.312-4.781q1.328-1.656 3.828-1.656.703 0 1.344.156.656.156 1.219.453v2.719q-.625-.579-1.219-.844-.594-.281-1.219-.281-1.344 0-2.031 1.078-.688 1.062-.688 3.156 0 2.094.688 3.172.688 1.062 2.031 1.062.625 0 1.219-.265.594-.281 1.219-.86v2.72Z"/><text x="452" y="432.78" fill="#D9B8FF" font-family="Helvetica" font-size="17" textLength="150">gcp_ssl_certificate</text></a><a xlink:actuate="onRequest" xlink:href="#c" xlink:show="new" xlink:title="#gcp_forwarding_rule" xlink:type="simple" target="_top"><rect id="c" width="212" height="39.789" x="672" y="207" fill="#3D176E" rx="2.5" ry="2.5" style="stroke:#000d19;stroke-width:1.5"/><circle cx="687" cy="226.894" r="11" fill="#E98DF7" style="stroke:#000d19;stroke-width:1"/><path d="M689.969 232.535q-.578.297-1.219.438-.64.156-1.344.156-2.5 0-3.828-1.64-1.312-1.657-1.312-4.782t1.312-4.781q1.328-1.656 3.828-1.656.703 0 1.344.156.656.156 1.219.453v2.719q-.625-.579-1.219-.844-.594-.281-1.219-.281-1.343 0-2.031 1.078-.688 1.062-.688 3.156 0 2.094.688 3.172.688 1.062 2.031 1.062.625 0 1.219-.265.594-.281 1.219-.86v2.72Z"/><text x="706" y="232.78" fill="#D9B8FF" font-family="Helvetica" font-size="17" textLength="170">gcp_forwarding_rule</text></a><a xlink:actuate="onRequest" xlink:href="#d" xlink:show="new" xlink:title="#gcp_backend_service" xlink:type="simple" target="_top"><rect id="d" width="215" height="39.789" x="1226.5" y="407" fill="#3D176E" rx="2.5" ry="2.5" style="stroke:#000d19;stroke-width:1.5"/><circle cx="1241.5" cy="426.894" r="11" fill="#E98DF7" style="stroke:#000d19;stroke-width:1"/><path d="M1244.469 432.535q-.578.297-1.219.438-.64.156-1.344.156-2.5 0-3.828-1.64-1.312-1.657-1.312-4.782t1.312-4.781q1.328-1.656 3.828-1.656.703 0 1.344.156.656.156 1.219.453v2.719q-.625-.579-1.219-.844-.594-.281-1.219-.281-1.343 0-2.031 1.078-.688 1.062-.688 3.156 0 2.094.688 3.172.688 1.062 2.031 1.062.625 0 1.219-.265.594-.281 1.219-.86v2.72Z"/><text x="1260.5" y="432.78" fill="#D9B8FF" font-family="Helvetica" font-size="17" textLength="173">gcp_backend_service</text></a><a xlink:actuate="onRequest" xlink:href="#e" xlink:show="new" xlink:title="#gcp_target_ssl_proxy" xlink:type="simple" target="_top"><rect id="e" width="216" height="39.789" x="668" y="307" fill="#3D176E" rx="2.5" ry="2.5" style="stroke:#000d19;stroke-width:1.5"/><circle cx="683" cy="326.894" r="11" fill="#E98DF7" style="stroke:#000d19;stroke-width:1"/><path d="M685.969 332.535q-.578.297-1.219.438-.64.156-1.344.156-2.5 0-3.828-1.64-1.312-1.657-1.312-4.782t1.312-4.781q1.328-1.656 3.828-1.656.703 0 1.344.156.656.156 1.219.453v2.719q-.625-.579-1.219-.844-.594-.281-1.219-.281-1.343 0-2.031 1.078-.688 1.062-.688 3.156 0 2.094.688 3.172.688 1.062 2.031 1.062.625 0 1.219-.265.594-.281 1.219-.86v2.72Z"/><text x="702" y="332.78" fill="#D9B8FF" font-family="Helvetica" font-size="17" textLength="174">gcp_target_ssl_proxy</text></a><a xlink:actuate="onRequest" xlink:href="#f" xlink:show="new" xlink:title="#gcp_target_grpc_proxy" xlink:type="simple" target="_top"><rect id="f" width="230" height="39.789" x="130" y="307" fill="#3D176E" rx="2.5" ry="2.5" style="stroke:#000d19;stroke-width:1.5"/><circle cx="145" cy="326.894" r="11" fill="#E98DF7" style="stroke:#000d19;stroke-width:1"/><path d="M147.969 332.535q-.578.297-1.219.438-.64.156-1.344.156-2.5 0-3.828-1.64-1.312-1.657-1.312-4.782t1.312-4.781q1.328-1.656 3.828-1.656.703 0 1.344.156.656.156 1.219.453v2.719q-.625-.579-1.219-.844-.594-.281-1.219-.281-1.344 0-2.031 1.078-.688 1.062-.688 3.156 0 2.094.688 3.172.688 1.062 2.031 1.062.625 0 1.219-.265.594-.281 1.219-.86v2.72Z"/><text x="164" y="332.78" fill="#D9B8FF" font-family="Helvetica" font-size="17" textLength="188">gcp_target_grpc_proxy</text></a><a xlink:actuate="onRequest" xlink:href="#g" xlink:show="new" xlink:title="#gcp_health_check" xlink:type="simple" target="_top"><rect id="g" width="189" height="39.789" x="913.5" y="507" fill="#3D176E" rx="2.5" ry="2.5" style="stroke:#000d19;stroke-width:1.5"/><circle cx="928.5" cy="526.894" r="11" fill="#E98DF7" style="stroke:#000d19;stroke-width:1"/><path d="M931.469 532.535q-.578.297-1.219.438-.64.156-1.344.156-2.5 0-3.828-1.64-1.312-1.657-1.312-4.782t1.312-4.781q1.328-1.657 3.828-1.657.703 0 1.344.157.656.156 1.219.453v2.719q-.625-.578-1.219-.844-.594-.281-1.219-.281-1.343 0-2.031 1.078-.688 1.062-.688 3.156 0 2.094.688 3.172.688 1.062 2.031 1.062.625 0 1.219-.265.594-.282 1.219-.86v2.72Z"/><text x="947.5" y="532.78" fill="#D9B8FF" font-family="Helvetica" font-size="17" textLength="147">gcp_health_check</text></a><a xlink:actuate="onRequest" xlink:href="#h" xlink:show="new" xlink:title="#gcp_https_health_check" xlink:type="simple" target="_top"><rect id="h" width="241" height="39.789" x="1369.5" y="507" fill="#3D176E" rx="2.5" ry="2.5" style="stroke:#000d19;stroke-width:1.5"/><circle cx="1384.5" cy="526.894" r="11" fill="#E98DF7" style="stroke:#000d19;stroke-width:1"/><path d="M1387.469 532.535q-.578.297-1.219.438-.64.156-1.344.156-2.5 0-3.828-1.64-1.312-1.657-1.312-4.782t1.312-4.781q1.328-1.657 3.828-1.657.703 0 1.344.157.656.156 1.219.453v2.719q-.625-.578-1.219-.844-.594-.281-1.219-.281-1.343 0-2.031 1.078-.688 1.062-.688 3.156 0 2.094.688 3.172.688 1.062 2.031 1.062.625 0 1.219-.265.594-.282 1.219-.86v2.72Z"/><text x="1403.5" y="532.78" fill="#D9B8FF" font-family="Helvetica" font-size="17" textLength="199">gcp_https_health_check</text></a><a xlink:actuate="onRequest" xlink:href="#i" xlink:show="new" xlink:title="#gcp_http_health_check" xlink:type="simple" target="_top"><rect id="i" width="233" height="39.789" x="1956.5" y="507" fill="#3D176E" rx="2.5" ry="2.5" style="stroke:#000d19;stroke-width:1.5"/><circle cx="1971.5" cy="526.894" r="11" fill="#E98DF7" style="stroke:#000d19;stroke-width:1"/><path d="M1974.469 532.535q-.578.297-1.219.438-.64.156-1.344.156-2.5 0-3.828-1.64-1.312-1.657-1.312-4.782t1.312-4.781q1.328-1.657 3.828-1.657.703 0 1.344.157.656.156 1.219.453v2.719q-.625-.578-1.219-.844-.594-.281-1.219-.281-1.343 0-2.031 1.078-.688 1.062-.688 3.156 0 2.094.688 3.172.688 1.062 2.031 1.062.625 0 1.219-.265.594-.282 1.219-.86v2.72Z"/><text x="1990.5" y="532.78" fill="#D9B8FF" font-family="Helvetica" font-size="17" textLength="191">gcp_http_health_check</text></a><a xlink:actuate="onRequest" xlink:href="#j" xlink:show="new" xlink:title="#gcp_subnetwork" xlink:type="simple" target="_top"><rect id="j" width="178" height="39.789" x="1719" y="207" fill="#3D176E" rx="2.5" ry="2.5" style="stroke:#000d19;stroke-width:1.5"/><circle cx="1734" cy="226.894" r="11" fill="#E98DF7" style="stroke:#000d19;stroke-width:1"/><path d="M1736.969 232.535q-.578.297-1.219.438-.64.156-1.344.156-2.5 0-3.828-1.64-1.312-1.657-1.312-4.782t1.312-4.781q1.328-1.656 3.828-1.656.703 0 1.344.156.656.156 1.219.453v2.719q-.625-.579-1.219-.844-.594-.281-1.219-.281-1.343 0-2.031 1.078-.688 1.062-.688 3.156 0 2.094.688 3.172.688 1.062 2.031 1.062.625 0 1.219-.265.594-.281 1.219-.86v2.72Z"/><text x="1753" y="232.78" fill="#D9B8FF" font-family="Helvetica" font-size="17" textLength="136">gcp_subnetwork</text></a><a xlink:actuate="onRequest" xlink:href="#k" xlink:show="new" xlink:title="#gcp_snapshot" xlink:type="simple" target="_top"><rect id="k" width="154" height="39.789" x="2044" y="107" fill="#3D176E" rx="2.5" ry="2.5" style="stroke:#000d19;stroke-width:1.5"/><circle cx="2059" cy="126.894" r="11" fill="#E98DF7" style="stroke:#000d19;stroke-width:1"/><path d="M2061.969 132.535q-.578.297-1.219.438-.64.156-1.344.156-2.5 0-3.828-1.64-1.312-1.657-1.312-4.782t1.312-4.781q1.328-1.657 3.828-1.657.703 0 1.344.157.656.156 1.219.453v2.719q-.625-.579-1.219-.844-.594-.281-1.219-.281-1.343 0-2.031 1.078-.688 1.062-.688 3.156 0 2.094.688 3.172.688 1.062 2.031 1.062.625 0 1.219-.265.594-.281 1.219-.86v2.72Z"/><text x="2078" y="132.78" fill="#D9B8FF" font-family="Helvetica" font-size="17" textLength="112">gcp_snapshot</text></a><a xlink:actuate="onRequest" xlink:href="#l" xlink:show="new" xlink:title="#gcp_route" xlink:type="simple" target="_top"><rect id="l" width="124" height="39.789" x="1932" y="207" fill="#3D176E" rx="2.5" ry="2.5" style="stroke:#000d19;stroke-width:1.5"/><circle cx="1947" cy="226.894" r="11" fill="#E98DF7" style="stroke:#000d19;stroke-width:1"/><path d="M1949.969 232.535q-.578.297-1.219.438-.64.156-1.344.156-2.5 0-3.828-1.64-1.312-1.657-1.312-4.782t1.312-4.781q1.328-1.656 3.828-1.656.703 0 1.344.156.656.156 1.219.453v2.719q-.625-.579-1.219-.844-.594-.281-1.219-.281-1.343 0-2.031 1.078-.688 1.062-.688 3.156 0 2.094.688 3.172.688 1.062 2.031 1.062.625 0 1.219-.265.594-.281 1.219-.86v2.72Z"/><text x="1966" y="232.78" fill="#D9B8FF" font-family="Helvetica" font-size="17" textLength="82">gcp_route</text></a><a xlink:actuate="onRequest" xlink:href="#m" xlink:show="new" xlink:title="#gcp_target_http_proxy" xlink:type="simple" target="_top"><rect id="m" width="230" height="39.789" x="1387" y="307" fill="#3D176E" rx="2.5" ry="2.5" style="stroke:#000d19;stroke-width:1.5"/><circle cx="1402" cy="326.894" r="11" fill="#E98DF7" style="stroke:#000d19;stroke-width:1"/><path d="M1404.969 332.535q-.578.297-1.219.438-.64.156-1.344.156-2.5 0-3.828-1.64-1.312-1.657-1.312-4.782t1.312-4.781q1.328-1.656 3.828-1.656.703 0 1.344.156.656.156 1.219.453v2.719q-.625-.579-1.219-.844-.594-.281-1.219-.281-1.343 0-2.031 1.078-.688 1.062-.688 3.156 0 2.094.688 3.172.688 1.062 2.031 1.062.625 0 1.219-.265.594-.281 1.219-.86v2.72Z"/><text x="1421" y="332.78" fill="#D9B8FF" font-family="Helvetica" font-size="17" textLength="188">gcp_target_http_proxy</text></a><a xlink:actuate="onRequest" xlink:href="#n" xlink:show="new" xlink:title="#gcp_region" xlink:type="simple" target="_top"><rect id="n" width="132" height="39.789" x="1081" y="107" fill="#3D176E" rx="2.5" ry="2.5" style="stroke:#000d19;stroke-width:1.5"/><circle cx="1096" cy="126.894" r="11" fill="#E98DF7" style="stroke:#000d19;stroke-width:1"/><path d="M1098.969 132.535q-.578.297-1.219.438-.64.156-1.344.156-2.5 0-3.828-1.64-1.312-1.657-1.312-4.782t1.312-4.781q1.328-1.657 3.828-1.657.703 0 1.344.157.656.156 1.219.453v2.719q-.625-.579-1.219-.844-.594-.281-1.219-.281-1.343 0-2.031 1.078-.688 1.062-.688 3.156 0 2.094.688 3.172.688 1.062 2.031 1.062.625 0 1.219-.265.594-.281 1.219-.86v2.72Z"/><text x="1115" y="132.78" fill="#D9B8FF" font-family="Helvetica" font-size="17" textLength="90">gcp_region</text></a><a xlink:actuate="onRequest" xlink:href="#o" xlink:show="new" xlink:title="#gcp_target_tcp_proxy" xlink:type="simple" target="_top"><rect id="o" width="220" height="39.789" x="1061" y="307" fill="#3D176E" rx="2.5" ry="2.5" style="stroke:#000d19;stroke-width:1.5"/><circle cx="1076" cy="326.894" r="11" fill="#E98DF7" style="stroke:#000d19;stroke-width:1"/><path d="M1078.969 332.535q-.578.297-1.219.438-.64.156-1.344.156-2.5 0-3.828-1.64-1.312-1.657-1.312-4.782t1.312-4.781q1.328-1.656 3.828-1.656.703 0 1.344.156.656.156 1.219.453v2.719q-.625-.579-1.219-.844-.594-.281-1.219-.281-1.343 0-2.031 1.078-.688 1.062-.688 3.156 0 2.094.688 3.172.688 1.062 2.031 1.062.625 0 1.219-.265.594-.281 1.219-.86v2.72Z"/><text x="1095" y="332.78" fill="#D9B8FF" font-family="Helvetica" font-size="17" textLength="178">gcp_target_tcp_proxy</text></a><a xlink:actuate="onRequest" xlink:href="#p" xlink:show="new" xlink:title="#gcp_service" xlink:type="simple" target="_top"><rect id="p" width="137" height="39.789" x="2304.5" y="107" fill="#3D176E" rx="2.5" ry="2.5" style="stroke:#000d19;stroke-width:1.5"/><circle cx="2319.5" cy="126.894" r="11" fill="#E98DF7" style="stroke:#000d19;stroke-width:1"/><path d="M2322.469 132.535q-.578.297-1.219.438-.64.156-1.344.156-2.5 0-3.828-1.64-1.312-1.657-1.312-4.782t1.312-4.781q1.328-1.657 3.828-1.657.703 0 1.344.157.656.156 1.219.453v2.719q-.625-.579-1.219-.844-.594-.281-1.219-.281-1.343 0-2.031 1.078-.688 1.062-.688 3.156 0 2.094.688 3.172.688 1.062 2.031 1.062.625 0 1.219-.265.594-.281 1.219-.86v2.72Z"/><text x="2338.5" y="132.78" fill="#D9B8FF" font-family="Helvetica" font-size="17" textLength="95">gcp_service</text></a><a xlink:actuate="onRequest" xlink:href="#q" xlink:show="new" xlink:title="#gcp_project" xlink:type="simple" target="_top"><rect id="q" width="136" height="39.789" x="1491" y="7" fill="#3D176E" rx="2.5" ry="2.5" style="stroke:#000d19;stroke-width:1.5"/><circle cx="1506" cy="26.895" r="11" fill="#E98DF7" style="stroke:#000d19;stroke-width:1"/><path d="M1508.969 32.535q-.578.297-1.219.438-.64.156-1.344.156-2.5 0-3.828-1.64-1.312-1.657-1.312-4.782t1.312-4.781q1.328-1.656 3.828-1.656.703 0 1.344.156.656.156 1.219.453v2.719q-.625-.578-1.219-.844-.594-.281-1.219-.281-1.343 0-2.031 1.078-.688 1.062-.688 3.156 0 2.094.688 3.172.688 1.062 2.031 1.062.625 0 1.219-.265.594-.281 1.219-.86v2.72Z"/><text x="1525" y="32.78" fill="#D9B8FF" font-family="Helvetica" font-size="17" textLength="94">gcp_project</text></a><a xlink:actuate="onRequest" xlink:href="#r" xlink:show="new" xlink:title="#gcp_network" xlink:type="simple" target="_top"><rect id="r" width="149" height="39.789" x="1789.5" y="107" fill="#3D176E" rx="2.5" ry="2.5" style="stroke:#000d19;stroke-width:1.5"/><circle cx="1804.5" cy="126.894" r="11" fill="#E98DF7" style="stroke:#000d19;stroke-width:1"/><path d="M1807.469 132.535q-.578.297-1.219.438-.64.156-1.344.156-2.5 0-3.828-1.64-1.312-1.657-1.312-4.782t1.312-4.781q1.328-1.657 3.828-1.657.703 0 1.344.157.656.156 1.219.453v2.719q-.625-.579-1.219-.844-.594-.281-1.219-.281-1.343 0-2.031 1.078-.688 1.062-.688 3.156 0 2.094.688 3.172.688 1.062 2.031 1.062.625 0 1.219-.265.594-.281 1.219-.86v2.72Z"/><text x="1823.5" y="132.78" fill="#D9B8FF" font-family="Helvetica" font-size="17" textLength="107">gcp_network</text></a><a xlink:actuate="onRequest" xlink:href="#s" xlink:show="new" xlink:title="#gcp_bucket" xlink:type="simple" target="_top"><rect id="s" width="135" height="39.789" x="2476.5" y="107" fill="#3D176E" rx="2.5" ry="2.5" style="stroke:#000d19;stroke-width:1.5"/><circle cx="2491.5" cy="126.894" r="11" fill="#E98DF7" style="stroke:#000d19;stroke-width:1"/><path d="M2494.469 132.535q-.578.297-1.219.438-.64.156-1.344.156-2.5 0-3.828-1.64-1.312-1.657-1.312-4.782t1.312-4.781q1.328-1.657 3.828-1.657.703 0 1.344.157.656.156 1.219.453v2.719q-.625-.579-1.219-.844-.594-.281-1.219-.281-1.343 0-2.031 1.078-.688 1.062-.688 3.156 0 2.094.688 3.172.688 1.062 2.031 1.062.625 0 1.219-.265.594-.281 1.219-.86v2.72Z"/><text x="2510.5" y="132.78" fill="#D9B8FF" font-family="Helvetica" font-size="17" textLength="93">gcp_bucket</text></a><path fill="none" d="M514 347.36v54.3" style="stroke:#1a83af;stroke-width:2"/><path fill="#1A83AF" d="m514 406.68 4-9-4 4-4-4 4 9z" style="stroke:#1a83af;stroke-width:2"/><path fill="none" d="M674.6 247.01c-92.35 16.98-227.15 41.77-321.03 59.03" style="stroke:#1a83af;stroke-width:2"/><path fill="#1A83AF" d="m348.57 306.96 9.573 2.313-4.655-3.214 3.214-4.655-8.132 5.556z" style="stroke:#1a83af;stroke-width:2"/><path fill="none" d="M884.05 242.35c132.53 17.94 358.75 48.56 497.62 67.36" style="stroke:#1a83af;stroke-width:2"/><path fill="#1A83AF" d="m1386.99 310.43-8.382-5.172 3.427 4.5-4.5 3.428 9.455-2.756z" style="stroke:#1a83af;stroke-width:2"/><path fill="none" d="M726.79 247.01c-44.94 16.68-110.18 40.9-156.56 58.12" style="stroke:#1a83af;stroke-width:2"/><path fill="#1A83AF" d="m565.52 306.87 9.83.611-5.144-2.354 2.355-5.144-7.041 6.887z" style="stroke:#1a83af;stroke-width:2"/><path fill="none" d="M777.6 247.36c-.31 15.57-.76 37.54-1.1 54.3" style="stroke:#1a83af;stroke-width:2"/><path fill="#1A83AF" d="m776.39 306.68 4.205-8.906-4.09 3.907-3.908-4.09 3.793 9.089z" style="stroke:#1a83af;stroke-width:2"/><path fill="none" d="M854.24 247.01c67.68 16.88 166.3 41.47 235.47 58.72" style="stroke:#1a83af;stroke-width:2"/><path fill="#1A83AF" d="m1094.64 306.96-7.761-6.063 2.91 4.85-4.85 2.91 9.701-1.697z" style="stroke:#1a83af;stroke-width:2"/><path fill="none" d="M1270.76 447.01c-55.81 16.78-136.97 41.18-194.29 58.41" style="stroke:#1a83af;stroke-width:2"/><path fill="#1A83AF" d="m1071.34 506.96 9.772 1.232-4.985-2.675 2.675-4.985-7.462 6.428z" style="stroke:#1a83af;stroke-width:2"/><path fill="none" d="M1364.45 447.13c26.09 16.39 63.66 39.99 90.9 57.1" style="stroke:#1a83af;stroke-width:2"/><path fill="#1A83AF" d="m1459.63 506.92-5.472-8.189 1.245 5.519-5.518 1.245 9.745 1.425z" style="stroke:#1a83af;stroke-width:2"/><path fill="none" d="M1441.85 442.3c135.6 17.98 367.76 48.77 509.54 67.57" style="stroke:#1a83af;stroke-width:2"/><path fill="#1A83AF" d="m1956.4 510.54-8.396-5.148 3.44 4.49-4.492 3.44 9.448-2.782z" style="stroke:#1a83af;stroke-width:2"/><path fill="none" d="M725.17 347.01c-44.51 16.65-109.08 40.8-155.08 58.01" style="stroke:#1a83af;stroke-width:2"/><path fill="#1A83AF" d="m565.13 406.87 9.832.585-5.15-2.34 2.34-5.15-7.022 6.905z" style="stroke:#1a83af;stroke-width:2"/><path fill="none" d="M884.25 347.01c96.93 17.03 238.54 41.9 336.86 59.16" style="stroke:#1a83af;stroke-width:2"/><path fill="#1A83AF" d="m1226.05 407.04-8.166-5.506 3.242 4.635-4.635 3.243 9.559-2.372z" style="stroke:#1a83af;stroke-width:2"/><path fill="none" d="M297.18 347.01c45.8 16.68 112.27 40.9 159.52 58.12" style="stroke:#1a83af;stroke-width:2"/><path fill="#1A83AF" d="m461.5 406.87-7.084-6.842 2.387 5.129-5.129 2.387 9.826-.674z" style="stroke:#1a83af;stroke-width:2"/><path fill="none" d="M1202.2 147.09c38.78 14.33 91.29 35.61 134.8 59.91 51.64 28.85 106.33 70.88 137.98 96.5" style="stroke:#1a83af;stroke-width:2"/><path fill="#1A83AF" d="m1479.1 306.85-4.463-8.78.582 5.627-5.626.582 9.507 2.571z" style="stroke:#1a83af;stroke-width:2"/><path fill="none" d="M1132.59 147.22c-22.89 31.56-67.27 97.15-89.59 159.78-24.24 68-31.75 153.86-34.03 194.95" style="stroke:#1a83af;stroke-width:2"/><path fill="#1A83AF" d="m1008.71 506.97 4.482-8.77-4.211 3.777-3.777-4.21 3.506 9.203z" style="stroke:#1a83af;stroke-width:2"/><path fill="none" d="M1080.73 127.48C982.91 129.11 796.11 141.54 654 207c-49.43 22.77-95.16 68.04-120.16 95.71" style="stroke:#1a83af;stroke-width:2"/><path fill="#1A83AF" d="m530.3 306.66 8.986-4.03-5.648.307-.308-5.648-3.03 9.371z" style="stroke:#1a83af;stroke-width:2"/><path fill="none" d="m1213.1 137.8 500.55 74.21" style="stroke:#1a83af;stroke-width:2"/><path fill="#1A83AF" d="m1718.83 212.78-8.32-5.27 3.373 4.54-4.54 3.375 9.487-2.645z" style="stroke:#1a83af;stroke-width:2"/><path fill="none" d="M1080.6 145.63c-63.39 16.84-158.89 42.2-225.6 59.92" style="stroke:#1a83af;stroke-width:2"/><path fill="#1A83AF" d="m849.85 206.92 9.725 1.557-4.892-2.84 2.84-4.893-7.673 6.176z" style="stroke:#1a83af;stroke-width:2"/><path fill="none" d="M1167.91 147.16c32.35 30.73 94.5 94.27 130.09 159.84 16.63 30.64 26.61 69.98 31.7 94.85" style="stroke:#1a83af;stroke-width:2"/><path fill="#1A83AF" d="m1330.72 406.93 2.173-9.606-3.145 4.702-4.702-3.146 5.674 8.05z" style="stroke:#1a83af;stroke-width:2"/><path fill="none" d="M1086.09 147.1c-33.64 12.86-74.48 32.51-104.09 59.9-52.77 48.81-22.65 98.01-81 140-44.88 32.3-186.81 55.26-285.69 67.82" style="stroke:#1a83af;stroke-width:2"/><path fill="#1A83AF" d="m610.34 415.45 9.432 2.836-4.472-3.465 3.465-4.471-8.425 5.1z" style="stroke:#1a83af;stroke-width:2"/><path fill="none" d="M1202.81 347.13c27.27 16.39 66.52 39.99 94.98 57.1" style="stroke:#1a83af;stroke-width:2"/><path fill="#1A83AF" d="m1302.27 406.92-5.66-8.06 1.373 5.488-5.488 1.371 9.775 1.201z" style="stroke:#1a83af;stroke-width:2"/><path fill="none" d="M1490.97 44.18c-75.37 17.93-196.34 46.7-272.9 64.92" style="stroke:#1a83af;stroke-width:2"/><path fill="#1A83AF" d="m1213.09 110.28 9.68 1.812-4.815-2.968 2.967-4.816-7.832 5.972z" style="stroke:#1a83af;stroke-width:2"/><path fill="none" d="M1490.95 30.57C1309.96 37.97 819.98 61.7 665 107c-155.63 45.49-320.67 150.82-388.31 196.83" style="stroke:#1a83af;stroke-width:2"/><path fill="#1A83AF" d="m272.38 306.77 9.69-1.764-5.559-1.052 1.053-5.558-5.184 8.374z" style="stroke:#1a83af;stroke-width:2"/><path fill="none" d="M1618.17 47.01c52.21 16.78 128.14 41.18 181.77 58.41" style="stroke:#1a83af;stroke-width:2"/><path fill="#1A83AF" d="m1804.74 106.96-7.345-6.561 2.585 5.031-5.032 2.585 9.792-1.055z" style="stroke:#1a83af;stroke-width:2"/><path fill="none" d="M1555.35 47.09c-9.97 52.13-37.64 196.8-48.7 254.6" style="stroke:#1a83af;stroke-width:2"/><path fill="#1A83AF" d="m1505.7 306.68 5.629-8.082-4.684 3.172-3.172-4.684 2.227 9.594z" style="stroke:#1a83af;stroke-width:2"/><path fill="none" d="M1627.38 33.31C1727.77 42.44 1908.31 64.4 1956 107c26.99 24.11 34.94 67.35 37.2 94.54" style="stroke:#1a83af;stroke-width:2"/><path fill="#1A83AF" d="m1993.58 206.75 3.347-9.263-3.704 4.276-4.276-3.704 4.633 8.691z" style="stroke:#1a83af;stroke-width:2"/><path fill="none" d="M1627.27 31.99C1786.35 41.87 2171.6 69.43 2216 107c42.09 35.61 35 63.87 35 119v102c0 81.6-84.65 144.82-137.2 176.2" style="stroke:#1a83af;stroke-width:2"/><path fill="#1A83AF" d="m2109.45 506.77 9.783-1.138-5.48-1.407 1.408-5.48-5.711 8.025z" style="stroke:#1a83af;stroke-width:2"/><path fill="none" d="M1490.77 29.41C1191.04 36.48 6 74.05 6 226v102c0 91.3 648.55 163.85 902.1 188.73" style="stroke:#1a83af;stroke-width:2"/><path fill="#1A83AF" d="m913.28 517.23-8.57-4.854 3.594 4.37-4.37 3.592 9.346-3.108z" style="stroke:#1a83af;stroke-width:2"/><path fill="none" d="M1490.91 33.68C1394.29 42.9 1212.51 64.53 1063 107c-89.3 25.36-188.17 70.85-242.82 97.64" style="stroke:#1a83af;stroke-width:2"/><path fill="#1A83AF" d="m815.68 206.85 9.842-.372-5.353-1.83 1.83-5.352-6.319 7.554z" style="stroke:#1a83af;stroke-width:2"/><path fill="none" d="M1580.13 47.04c15.13 14.85 34.73 36.78 45.87 59.96 46.81 97.4 79.79 139.93 39 240-28.47 69.84-98.76 127.25-141.09 156.99" style="stroke:#1a83af;stroke-width:2"/><path fill="#1A83AF" d="m1519.65 506.95 9.67-1.864-5.568-.995.995-5.568-5.097 8.427z" style="stroke:#1a83af;stroke-width:2"/><path fill="none" d="M1490.97 28.67C1318.41 31.29 867.8 44.12 734 107c-95.21 44.74-173.14 148.58-204.78 195.38" style="stroke:#1a83af;stroke-width:2"/><path fill="#1A83AF" d="m526.3 306.73 8.341-5.237-5.551 1.088-1.087-5.552-1.703 9.701z" style="stroke:#1a83af;stroke-width:2"/><path fill="none" d="M1627.32 39.57C1716.86 54.78 1878.77 82.45 2017 107c7.05 1.25 14.36 2.56 21.7 3.89" style="stroke:#1a83af;stroke-width:2"/><path fill="#1A83AF" d="m2043.78 111.8-8.15-5.529 3.229 4.645-4.645 3.229 9.566-2.345z" style="stroke:#1a83af;stroke-width:2"/><path fill="none" d="M1627.06 33.53C1754.87 44.34 2039.33 70.47 2277 107c7.23 1.11 14.75 2.39 22.24 3.74" style="stroke:#1a83af;stroke-width:2"/><path fill="#1A83AF" d="m2304.43 111.69-8.132-5.556 3.214 4.655-4.655 3.214 9.573-2.313z" style="stroke:#1a83af;stroke-width:2"/><path fill="none" d="M1627.11 30.9c150.7 7.08 523.44 28.3 831.89 76.1 4.08.63 8.26 1.35 12.47 2.12" style="stroke:#1a83af;stroke-width:2"/><path fill="#1A83AF" d="m2476.42 110.05-8.117-5.579 3.201 4.664-4.664 3.201 9.58-2.286z" style="stroke:#1a83af;stroke-width:2"/><path fill="none" d="M1596.81 47.01c27.58 14.67 65.23 36.4 95.19 59.99 37.44 29.48 74.85 70.46 96.69 95.82" style="stroke:#1a83af;stroke-width:2"/><path fill="#1A83AF" d="m1792.06 206.75-2.8-9.443-.446 5.64-5.639-.446 8.885 4.249z" style="stroke:#1a83af;stroke-width:2"/><path fill="none" d="M1490.94 30.01C1297.39 37.36 751.5 70.1 654 207c-27.46 38.56 27.06 75.41 71.82 97.62" style="stroke:#1a83af;stroke-width:2"/><path fill="#1A83AF" d="m730.39 306.85-6.32-7.554 1.83 5.352-5.352 1.83 9.842.372z" style="stroke:#1a83af;stroke-width:2"/><path fill="none" d="M1534.14 47.09c-68.63 52.72-260.49 200.07-333.99 256.52" style="stroke:#1a83af;stroke-width:2"/><path fill="#1A83AF" d="m1195.9 306.87 9.568-2.337-5.611-.72.72-5.61-4.677 8.667z" style="stroke:#1a83af;stroke-width:2"/><path fill="none" d="M1490.83 30.28C1294.64 37.32 731.24 61.09 553 107c-208.41 53.68-324.41 19.1-441 200-9.63 14.94-11.29 26.27 0 40 37.36 45.42 194.21 65.13 300.58 73.38" style="stroke:#1a83af;stroke-width:2"/><path fill="#1A83AF" d="m417.61 420.77-8.678-4.658 3.692 4.286-4.286 3.692 9.272-3.32z" style="stroke:#1a83af;stroke-width:2"/><path fill="none" d="M1567.39 47.05c26.39 61.21 103.77 251.74 66.61 299.95-23.2 30.1-111.98 51.02-186.99 63.73" style="stroke:#1a83af;stroke-width:2"/><path fill="#1A83AF" d="m1441.64 411.64 9.539 2.452-4.608-3.28 3.281-4.609-8.212 5.437z" style="stroke:#1a83af;stroke-width:2"/><path fill="none" d="M1889.37 147.13c21.57 16.25 52.54 39.6 75.19 56.68" style="stroke:#1a83af;stroke-width:2"/><path fill="#1A83AF" d="m1968.69 206.92-4.78-8.61.787 5.6-5.602.788 9.595 2.222z" style="stroke:#1a83af;stroke-width:2"/><path fill="none" d="M1852.94 147.36c-8.98 15.71-21.67 37.92-31.28 54.73" style="stroke:#1a83af;stroke-width:2"/><path fill="#1A83AF" d="m1819.04 206.68 7.942-5.824-5.458 1.484-1.485-5.458-.999 9.798z" style="stroke:#1a83af;stroke-width:2"/></svg>