<svg xmlns="http://www.w3.org/2000/svg" xmlns:xlink="http://www.w3.org/1999/xlink" width="4425" height="1750" preserveAspectRatio="none" style="width:4425px;height:1750px;background:#00000000"><a xlink:actuate="onRequest" xlink:href="#a" xlink:show="new" xlink:title="#aws_sagemaker_vpc_config" xlink:type="simple" target="_top"><rect id="a" width="272" height="93.398" x="437.5" y="1417" fill="#3D176E" rx="2.5" ry="2.5" style="stroke:#000d19;stroke-width:1.5"/><circle cx="452.5" cy="1436.895" r="11" fill="#E98DF7" style="stroke:#000d19;stroke-width:1"/><path d="M455.469 1442.535q-.578.297-1.219.438-.64.156-1.344.156-2.5 0-3.828-1.64-1.312-1.657-1.312-4.782t1.312-4.781q1.328-1.656 3.828-1.656.703 0 1.344.156.656.156 1.219.453v2.719q-.625-.578-1.219-.844-.594-.281-1.219-.281-1.344 0-2.031 1.078-.688 1.062-.688 3.156 0 2.094.688 3.172.688 1.062 2.031 1.062.625 0 1.219-.265.594-.281 1.219-.86v2.72Z"/><text x="471.5" y="1442.78" fill="#D9B8FF" font-family="Helvetica" font-size="17" textLength="230">aws_sagemaker_vpc_config</text><path d="M438.5 1456.789h270" style="stroke:#000d19;stroke-width:1.5"/><text x="448.5" y="1475.999" fill="#D9B8FF" font-family="sans-serif" font-size="11" font-weight="bold" textLength="119">security_group_ids</text><text x="567.5" y="1475.999" fill="#D9B8FF" font-family="sans-serif" font-size="11" textLength="49">: string[]</text><text x="448.5" y="1498.804" fill="#D9B8FF" font-family="sans-serif" font-size="11" font-weight="bold" textLength="51">subnets</text><text x="499.5" y="1498.804" fill="#D9B8FF" font-family="sans-serif" font-size="11" textLength="49">: string[]</text></a><a xlink:actuate="onRequest" xlink:href="#b" xlink:show="new" xlink:title="#resource" xlink:type="simple" target="_top"><rect id="b" width="195" height="275.836" x="2287" y="7" fill="#3D176E" rx="2.5" ry="2.5" style="stroke:#000d19;stroke-width:1.5"/><circle cx="2339.75" cy="26.895" r="11" fill="#E98DF7" style="stroke:#000d19;stroke-width:1"/><path d="M2342.719 32.535q-.578.297-1.219.438-.64.156-1.344.156-2.5 0-3.828-1.64-1.312-1.657-1.312-4.782t1.312-4.781q1.328-1.656 3.828-1.656.703 0 1.344.156.656.156 1.219.453v2.719q-.625-.578-1.219-.844-.594-.281-1.219-.281-1.343 0-2.031 1.078-.688 1.062-.688 3.156 0 2.094.688 3.172.688 1.062 2.031 1.062.625 0 1.219-.265.594-.281 1.219-.86v2.72Z"/><text x="2365.25" y="32.78" fill="#D9B8FF" font-family="Helvetica" font-size="17" textLength="71">resource</text><path d="M2288 46.789h193" style="stroke:#000d19;stroke-width:1.5"/><text x="2298" y="65.999" fill="#D9B8FF" font-family="sans-serif" font-size="11" font-weight="bold" textLength="12">id</text><text x="2310" y="65.999" fill="#D9B8FF" font-family="sans-serif" font-size="11" textLength="41">: string</text><text x="2298" y="88.804" fill="#D9B8FF" font-family="sans-serif" font-size="11" font-weight="bold" textLength="28">tags</text><text x="2326" y="88.804" fill="#D9B8FF" font-family="sans-serif" font-size="11" textLength="145">: dictionary[string, string]</text><text x="2298" y="111.609" fill="#D9B8FF" font-family="sans-serif" font-size="11" font-weight="bold" textLength="35">name</text><text x="2333" y="111.609" fill="#D9B8FF" font-family="sans-serif" font-size="11" textLength="41">: string</text><text x="2298" y="134.414" fill="#D9B8FF" font-family="sans-serif" font-size="11" font-weight="bold" textLength="35">ctime</text><text x="2333" y="134.414" fill="#D9B8FF" font-family="sans-serif" font-size="11" textLength="58">: datetime</text><text x="2298" y="157.218" fill="#D9B8FF" font-family="sans-serif" font-size="11" font-weight="bold" textLength="24">age</text><text x="2322" y="157.218" fill="#D9B8FF" font-family="sans-serif" font-size="11" textLength="55">: duration</text><text x="2298" y="180.023" fill="#D9B8FF" font-family="sans-serif" font-size="11" font-weight="bold" textLength="39">mtime</text><text x="2337" y="180.023" fill="#D9B8FF" font-family="sans-serif" font-size="11" textLength="58">: datetime</text><text x="2298" y="202.828" fill="#D9B8FF" font-family="sans-serif" font-size="11" font-weight="bold" textLength="75">last_update</text><text x="2373" y="202.828" fill="#D9B8FF" font-family="sans-serif" font-size="11" textLength="55">: duration</text><text x="2298" y="225.632" fill="#D9B8FF" font-family="sans-serif" font-size="11" font-weight="bold" textLength="36">atime</text><text x="2334" y="225.632" fill="#D9B8FF" font-family="sans-serif" font-size="11" textLength="58">: datetime</text><text x="2298" y="248.437" fill="#D9B8FF" font-family="sans-serif" font-size="11" font-weight="bold" textLength="74">last_access</text><text x="2372" y="248.437" fill="#D9B8FF" font-family="sans-serif" font-size="11" textLength="55">: duration</text><text x="2298" y="271.242" fill="#D9B8FF" font-family="sans-serif" font-size="11" font-weight="bold" textLength="27">kind</text><text x="2325" y="271.242" fill="#D9B8FF" font-family="sans-serif" font-size="11" textLength="41">: string</text></a><a xlink:actuate="onRequest" xlink:href="#c" xlink:show="new" xlink:title="#aws_resource" xlink:type="simple" target="_top"><rect id="c" width="155" height="70.594" x="2307" y="404" fill="#3D176E" rx="2.5" ry="2.5" style="stroke:#000d19;stroke-width:1.5"/><circle cx="2322" cy="423.894" r="11" fill="#E98DF7" style="stroke:#000d19;stroke-width:1"/><path d="M2324.969 429.535q-.578.297-1.219.438-.64.156-1.344.156-2.5 0-3.828-1.64-1.312-1.657-1.312-4.782t1.312-4.781q1.328-1.656 3.828-1.656.703 0 1.344.156.656.156 1.219.453v2.719q-.625-.579-1.219-.844-.594-.281-1.219-.281-1.343 0-2.031 1.078-.688 1.062-.688 3.156 0 2.094.688 3.172.688 1.062 2.031 1.062.625 0 1.219-.265.594-.281 1.219-.86v2.72Z"/><text x="2341" y="429.78" fill="#D9B8FF" font-family="Helvetica" font-size="17" textLength="113">aws_resource</text><path d="M2308 443.789h153" style="stroke:#000d19;stroke-width:1.5"/><text x="2318" y="463" fill="#D9B8FF" font-family="sans-serif" font-size="11" font-weight="bold" textLength="21">arn</text><text x="2339" y="463" fill="#D9B8FF" font-family="sans-serif" font-size="11" textLength="41">: string</text></a><a xlink:actuate="onRequest" xlink:href="#d" xlink:show="new" xlink:title="#aws_sagemaker_recommendation_job_stopping_conditions" xlink:type="simple" target="_top"><rect id="d" width="536" height="93.398" x="497.5" y="1138.5" fill="#3D176E" rx="2.5" ry="2.5" style="stroke:#000d19;stroke-width:1.5"/><circle cx="512.5" cy="1158.395" r="11" fill="#E98DF7" style="stroke:#000d19;stroke-width:1"/><path d="M515.469 1164.035q-.578.297-1.219.438-.64.156-1.344.156-2.5 0-3.828-1.64-1.312-1.657-1.312-4.782t1.312-4.781q1.328-1.656 3.828-1.656.703 0 1.344.156.656.156 1.219.453v2.719q-.625-.578-1.219-.844-.594-.281-1.219-.281-1.343 0-2.031 1.078-.688 1.062-.688 3.156 0 2.094.688 3.172.688 1.062 2.031 1.062.625 0 1.219-.265.594-.281 1.219-.86v2.72Z"/><text x="531.5" y="1164.28" fill="#D9B8FF" font-family="Helvetica" font-size="17" textLength="494">aws_sagemaker_recommendation_job_stopping_conditions</text><path d="M498.5 1178.289h534" style="stroke:#000d19;stroke-width:1.5"/><text x="508.5" y="1197.499" fill="#D9B8FF" font-family="sans-serif" font-size="11" font-weight="bold" textLength="106">max_invocations</text><text x="614.5" y="1197.499" fill="#D9B8FF" font-family="sans-serif" font-size="11" textLength="36">: int64</text><text x="508.5" y="1220.304" fill="#D9B8FF" font-family="sans-serif" font-size="11" font-weight="bold" textLength="166">model_latency_thresholds</text><text x="674.5" y="1220.304" fill="#D9B8FF" font-family="sans-serif" font-size="11" textLength="256">: aws_sagemaker_model_latency_threshold[]</text></a><a xlink:actuate="onRequest" xlink:href="#e" xlink:show="new" xlink:title="#aws_sagemaker_model_latency_threshold" xlink:type="simple" target="_top"><rect id="e" width="395" height="93.398" x="7" y="1417" fill="#3D176E" rx="2.5" ry="2.5" style="stroke:#000d19;stroke-width:1.5"/><circle cx="22" cy="1436.895" r="11" fill="#E98DF7" style="stroke:#000d19;stroke-width:1"/><path d="M24.969 1442.535q-.578.297-1.219.438-.64.156-1.344.156-2.5 0-3.828-1.64-1.312-1.657-1.312-4.782t1.312-4.781q1.328-1.656 3.828-1.656.703 0 1.344.156.656.156 1.219.453v2.719q-.625-.578-1.219-.844-.594-.281-1.219-.281-1.343 0-2.031 1.078-.688 1.062-.688 3.156 0 2.094.688 3.172.688 1.062 2.031 1.062.625 0 1.219-.265.594-.281 1.219-.86v2.72Z"/><text x="41" y="1442.78" fill="#D9B8FF" font-family="Helvetica" font-size="17" textLength="353">aws_sagemaker_model_latency_threshold</text><path d="M8 1456.789h393" style="stroke:#000d19;stroke-width:1.5"/><text x="18" y="1475.999" fill="#D9B8FF" font-family="sans-serif" font-size="11" font-weight="bold" textLength="65">percentile</text><text x="83" y="1475.999" fill="#D9B8FF" font-family="sans-serif" font-size="11" textLength="41">: string</text><text x="18" y="1498.804" fill="#D9B8FF" font-family="sans-serif" font-size="11" font-weight="bold" textLength="139">value_in_milliseconds</text><text x="157" y="1498.804" fill="#D9B8FF" font-family="sans-serif" font-size="11" textLength="36">: int64</text></a><a xlink:actuate="onRequest" xlink:href="#f" xlink:show="new" xlink:title="#aws_sagemaker_inference_recommendations_job" xlink:type="simple" target="_top"><rect id="f" width="709" height="253.031" x="2030" y="757" fill="#3D176E" rx="2.5" ry="2.5" style="stroke:#000d19;stroke-width:1.5"/><circle cx="2167.75" cy="776.894" r="11" fill="#E98DF7" style="stroke:#000d19;stroke-width:1"/><path d="M2170.719 782.535q-.578.297-1.219.438-.64.156-1.344.156-2.5 0-3.828-1.64-1.312-1.657-1.312-4.782t1.312-4.781q1.328-1.657 3.828-1.657.703 0 1.344.157.656.156 1.219.453v2.719q-.625-.578-1.219-.844-.594-.281-1.219-.281-1.343 0-2.031 1.078-.688 1.062-.688 3.156 0 2.094.688 3.172.688 1.062 2.031 1.062.625 0 1.219-.265.594-.282 1.219-.86v2.72Z"/><text x="2193.25" y="782.78" fill="#D9B8FF" font-family="Helvetica" font-size="17" textLength="415">aws_sagemaker_inference_recommendations_job</text><path d="M2031 796.789h707" style="stroke:#000d19;stroke-width:1.5"/><text x="2041" y="816" fill="#D9B8FF" font-family="sans-serif" font-size="11" font-weight="bold" textLength="285">inference_recommendations_job_description</text><text x="2326" y="816" fill="#D9B8FF" font-family="sans-serif" font-size="11" textLength="41">: string</text><text x="2041" y="838.804" fill="#D9B8FF" font-family="sans-serif" font-size="11" font-weight="bold" textLength="241">inference_recommendations_job_type</text><text x="2282" y="838.804" fill="#D9B8FF" font-family="sans-serif" font-size="11" textLength="41">: string</text><text x="2041" y="861.609" fill="#D9B8FF" font-family="sans-serif" font-size="11" font-weight="bold" textLength="253">inference_recommendations_job_status</text><text x="2294" y="861.609" fill="#D9B8FF" font-family="sans-serif" font-size="11" textLength="41">: string</text><text x="2041" y="884.414" fill="#D9B8FF" font-family="sans-serif" font-size="11" font-weight="bold" textLength="318">inference_recommendations_job_completion_time</text><text x="2359" y="884.414" fill="#D9B8FF" font-family="sans-serif" font-size="11" textLength="58">: datetime</text><text x="2041" y="907.218" fill="#D9B8FF" font-family="sans-serif" font-size="11" font-weight="bold" textLength="305">inference_recommendations_job_failure_reason</text><text x="2346" y="907.218" fill="#D9B8FF" font-family="sans-serif" font-size="11" textLength="41">: string</text><text x="2041" y="930.023" fill="#D9B8FF" font-family="sans-serif" font-size="11" font-weight="bold" textLength="292">inference_recommendations_job_input_config</text><text x="2333" y="930.023" fill="#D9B8FF" font-family="sans-serif" font-size="11" textLength="300">: aws_sagemaker_recommendation_job_input_config</text><text x="2041" y="952.828" fill="#D9B8FF" font-family="sans-serif" font-size="11" font-weight="bold" textLength="342">inference_recommendations_job_stopping_conditions</text><text x="2383" y="952.828" fill="#D9B8FF" font-family="sans-serif" font-size="11" textLength="345">: aws_sagemaker_recommendation_job_stopping_conditions</text><text x="2041" y="975.632" fill="#D9B8FF" font-family="sans-serif" font-size="11" font-weight="bold" textLength="394">inference_recommendations_job_inference_recommendations</text><text x="2435" y="975.632" fill="#D9B8FF" font-family="sans-serif" font-size="11" textLength="270">: aws_sagemaker_inference_recommendation[]</text><text x="2041" y="998.437" fill="#D9B8FF" font-family="sans-serif" font-size="11" font-weight="bold" textLength="364">inference_recommendations_job_endpoint_performances</text><text x="2405" y="998.437" fill="#D9B8FF" font-family="sans-serif" font-size="11" textLength="243">: aws_sagemaker_endpoint_performance[]</text></a><a xlink:actuate="onRequest" xlink:href="#g" xlink:show="new" xlink:title="#aws_sagemaker_job" xlink:type="simple" target="_top"><rect id="g" width="210" height="39.789" x="2279.5" y="596" fill="#3D176E" rx="2.5" ry="2.5" style="stroke:#000d19;stroke-width:1.5"/><circle cx="2294.5" cy="615.894" r="11" fill="#E98DF7" style="stroke:#000d19;stroke-width:1"/><path d="M2297.469 621.535q-.578.297-1.219.438-.64.156-1.344.156-2.5 0-3.828-1.64-1.312-1.657-1.312-4.782t1.312-4.781q1.328-1.657 3.828-1.657.703 0 1.344.157.656.156 1.219.453v2.719q-.625-.578-1.219-.844-.594-.281-1.219-.281-1.343 0-2.031 1.078-.688 1.062-.688 3.156 0 2.094.688 3.172.688 1.062 2.031 1.062.625 0 1.219-.265.594-.282 1.219-.86v2.72Z"/><text x="2313.5" y="621.78" fill="#D9B8FF" font-family="Helvetica" font-size="17" textLength="168">aws_sagemaker_job</text></a><a xlink:actuate="onRequest" xlink:href="#h" xlink:show="new" xlink:title="#aws_sagemaker_recommendation_job_input_config" xlink:type="simple" target="_top"><rect id="h" width="474" height="230.227" x="1361.5" y="1070" fill="#3D176E" rx="2.5" ry="2.5" style="stroke:#000d19;stroke-width:1.5"/><circle cx="1376.5" cy="1089.895" r="11" fill="#E98DF7" style="stroke:#000d19;stroke-width:1"/><path d="M1379.469 1095.535q-.578.297-1.219.438-.64.156-1.344.156-2.5 0-3.828-1.64-1.312-1.657-1.312-4.782t1.312-4.781q1.328-1.656 3.828-1.656.703 0 1.344.156.656.156 1.219.453v2.719q-.625-.578-1.219-.844-.594-.281-1.219-.281-1.343 0-2.031 1.078-.688 1.062-.688 3.156 0 2.094.688 3.172.688 1.062 2.031 1.062.625 0 1.219-.265.594-.281 1.219-.86v2.72Z"/><text x="1395.5" y="1095.78" fill="#D9B8FF" font-family="Helvetica" font-size="17" textLength="432">aws_sagemaker_recommendation_job_input_config</text><path d="M1362.5 1109.789h472" style="stroke:#000d19;stroke-width:1.5"/><text x="1372.5" y="1128.999" fill="#D9B8FF" font-family="sans-serif" font-size="11" font-weight="bold" textLength="179">model_package_version_arn</text><text x="1551.5" y="1128.999" fill="#D9B8FF" font-family="sans-serif" font-size="11" textLength="41">: string</text><text x="1372.5" y="1151.804" fill="#D9B8FF" font-family="sans-serif" font-size="11" font-weight="bold" textLength="157">job_duration_in_seconds</text><text x="1529.5" y="1151.804" fill="#D9B8FF" font-family="sans-serif" font-size="11" textLength="36">: int64</text><text x="1372.5" y="1174.609" fill="#D9B8FF" font-family="sans-serif" font-size="11" font-weight="bold" textLength="92">traffic_pattern</text><text x="1464.5" y="1174.609" fill="#D9B8FF" font-family="sans-serif" font-size="11" textLength="187">: aws_sagemaker_traffic_pattern</text><text x="1372.5" y="1197.414" fill="#D9B8FF" font-family="sans-serif" font-size="11" font-weight="bold" textLength="90">resource_limit</text><text x="1462.5" y="1197.414" fill="#D9B8FF" font-family="sans-serif" font-size="11" textLength="313">: aws_sagemaker_recommendation_job_resource_limit</text><text x="1372.5" y="1220.218" fill="#D9B8FF" font-family="sans-serif" font-size="11" font-weight="bold" textLength="156">endpoint_configurations</text><text x="1528.5" y="1220.218" fill="#D9B8FF" font-family="sans-serif" font-size="11" textLength="278">: aws_sagemaker_endpoint_input_configuration[]</text><text x="1372.5" y="1243.023" fill="#D9B8FF" font-family="sans-serif" font-size="11" font-weight="bold" textLength="107">container_config</text><text x="1479.5" y="1243.023" fill="#D9B8FF" font-family="sans-serif" font-size="11" textLength="325">: aws_sagemaker_recommendation_job_container_config</text><text x="1372.5" y="1265.828" fill="#D9B8FF" font-family="sans-serif" font-size="11" font-weight="bold" textLength="64">endpoints</text><text x="1436.5" y="1265.828" fill="#D9B8FF" font-family="sans-serif" font-size="11" textLength="49">: string[]</text><text x="1372.5" y="1288.632" fill="#D9B8FF" font-family="sans-serif" font-size="11" font-weight="bold" textLength="68">vpc_config</text><text x="1440.5" y="1288.632" fill="#D9B8FF" font-family="sans-serif" font-size="11" textLength="166">: aws_sagemaker_vpc_config</text></a><a xlink:actuate="onRequest" xlink:href="#i" xlink:show="new" xlink:title="#aws_sagemaker_traffic_pattern" xlink:type="simple" target="_top"><rect id="i" width="305" height="93.398" x="745" y="1417" fill="#3D176E" rx="2.5" ry="2.5" style="stroke:#000d19;stroke-width:1.5"/><circle cx="760" cy="1436.895" r="11" fill="#E98DF7" style="stroke:#000d19;stroke-width:1"/><path d="M762.969 1442.535q-.578.297-1.219.438-.64.156-1.344.156-2.5 0-3.828-1.64-1.312-1.657-1.312-4.782t1.312-4.781q1.328-1.656 3.828-1.656.703 0 1.344.156.656.156 1.219.453v2.719q-.625-.578-1.219-.844-.594-.281-1.219-.281-1.343 0-2.031 1.078-.688 1.062-.688 3.156 0 2.094.688 3.172.688 1.062 2.031 1.062.625 0 1.219-.265.594-.281 1.219-.86v2.72Z"/><text x="779" y="1442.78" fill="#D9B8FF" font-family="Helvetica" font-size="17" textLength="263">aws_sagemaker_traffic_pattern</text><path d="M746 1456.789h303" style="stroke:#000d19;stroke-width:1.5"/><text x="756" y="1475.999" fill="#D9B8FF" font-family="sans-serif" font-size="11" font-weight="bold" textLength="73">traffic_type</text><text x="829" y="1475.999" fill="#D9B8FF" font-family="sans-serif" font-size="11" textLength="41">: string</text><text x="756" y="1498.804" fill="#D9B8FF" font-family="sans-serif" font-size="11" font-weight="bold" textLength="46">phases</text><text x="802" y="1498.804" fill="#D9B8FF" font-family="sans-serif" font-size="11" textLength="150">: aws_sagemaker_phase[]</text></a><a xlink:actuate="onRequest" xlink:href="#j" xlink:show="new" xlink:title="#aws_sagemaker_phase" xlink:type="simple" target="_top"><rect id="j" width="234" height="116.203" x="780.5" y="1627" fill="#3D176E" rx="2.5" ry="2.5" style="stroke:#000d19;stroke-width:1.5"/><circle cx="795.5" cy="1646.895" r="11" fill="#E98DF7" style="stroke:#000d19;stroke-width:1"/><path d="M798.469 1652.535q-.578.297-1.219.438-.64.156-1.344.156-2.5 0-3.828-1.64-1.312-1.657-1.312-4.782t1.312-4.781q1.328-1.656 3.828-1.656.703 0 1.344.156.656.156 1.219.453v2.719q-.625-.578-1.219-.844-.594-.281-1.219-.281-1.343 0-2.031 1.078-.688 1.062-.688 3.156 0 2.094.688 3.172.688 1.062 2.031 1.062.625 0 1.219-.265.594-.281 1.219-.86v2.72Z"/><text x="814.5" y="1652.78" fill="#D9B8FF" font-family="Helvetica" font-size="17" textLength="192">aws_sagemaker_phase</text><path d="M781.5 1666.789h232" style="stroke:#000d19;stroke-width:1.5"/><text x="791.5" y="1685.999" fill="#D9B8FF" font-family="sans-serif" font-size="11" font-weight="bold" textLength="151">initial_number_of_users</text><text x="942.5" y="1685.999" fill="#D9B8FF" font-family="sans-serif" font-size="11" textLength="36">: int64</text><text x="791.5" y="1708.804" fill="#D9B8FF" font-family="sans-serif" font-size="11" font-weight="bold" textLength="74">spawn_rate</text><text x="865.5" y="1708.804" fill="#D9B8FF" font-family="sans-serif" font-size="11" textLength="36">: int64</text><text x="791.5" y="1731.609" fill="#D9B8FF" font-family="sans-serif" font-size="11" font-weight="bold" textLength="131">duration_in_seconds</text><text x="922.5" y="1731.609" fill="#D9B8FF" font-family="sans-serif" font-size="11" textLength="36">: int64</text></a><a xlink:actuate="onRequest" xlink:href="#k" xlink:show="new" xlink:title="#aws_sagemaker_recommendation_job_resource_limit" xlink:type="simple" target="_top"><rect id="k" width="490" height="93.398" x="1085.5" y="1417" fill="#3D176E" rx="2.5" ry="2.5" style="stroke:#000d19;stroke-width:1.5"/><circle cx="1100.5" cy="1436.895" r="11" fill="#E98DF7" style="stroke:#000d19;stroke-width:1"/><path d="M1103.469 1442.535q-.578.297-1.219.438-.64.156-1.344.156-2.5 0-3.828-1.64-1.312-1.657-1.312-4.782t1.312-4.781q1.328-1.656 3.828-1.656.703 0 1.344.156.656.156 1.219.453v2.719q-.625-.578-1.219-.844-.594-.281-1.219-.281-1.343 0-2.031 1.078-.688 1.062-.688 3.156 0 2.094.688 3.172.688 1.062 2.031 1.062.625 0 1.219-.265.594-.281 1.219-.86v2.72Z"/><text x="1119.5" y="1442.78" fill="#D9B8FF" font-family="Helvetica" font-size="17" textLength="448">aws_sagemaker_recommendation_job_resource_limit</text><path d="M1086.5 1456.789h488" style="stroke:#000d19;stroke-width:1.5"/><text x="1096.5" y="1475.999" fill="#D9B8FF" font-family="sans-serif" font-size="11" font-weight="bold" textLength="137">max_number_of_tests</text><text x="1233.5" y="1475.999" fill="#D9B8FF" font-family="sans-serif" font-size="11" textLength="36">: int64</text><text x="1096.5" y="1498.804" fill="#D9B8FF" font-family="sans-serif" font-size="11" font-weight="bold" textLength="138">max_parallel_of_tests</text><text x="1234.5" y="1498.804" fill="#D9B8FF" font-family="sans-serif" font-size="11" textLength="36">: int64</text></a><a xlink:actuate="onRequest" xlink:href="#l" xlink:show="new" xlink:title="#aws_sagemaker_endpoint_input_configuration" xlink:type="simple" target="_top"><rect id="l" width="514" height="116.203" x="1610.5" y="1405.5" fill="#3D176E" rx="2.5" ry="2.5" style="stroke:#000d19;stroke-width:1.5"/><circle cx="1663.25" cy="1425.395" r="11" fill="#E98DF7" style="stroke:#000d19;stroke-width:1"/><path d="M1666.219 1431.035q-.578.297-1.219.438-.64.156-1.344.156-2.5 0-3.828-1.64-1.312-1.657-1.312-4.782t1.312-4.781q1.328-1.656 3.828-1.656.703 0 1.344.156.656.156 1.219.453v2.719q-.625-.578-1.219-.844-.594-.281-1.219-.281-1.343 0-2.031 1.078-.688 1.062-.688 3.156 0 2.094.688 3.172.688 1.062 2.031 1.062.625 0 1.219-.265.594-.281 1.219-.86v2.72Z"/><text x="1688.75" y="1431.28" fill="#D9B8FF" font-family="Helvetica" font-size="17" textLength="390">aws_sagemaker_endpoint_input_configuration</text><path d="M1611.5 1445.289h512" style="stroke:#000d19;stroke-width:1.5"/><text x="1621.5" y="1464.499" fill="#D9B8FF" font-family="sans-serif" font-size="11" font-weight="bold" textLength="89">instance_type</text><text x="1710.5" y="1464.499" fill="#D9B8FF" font-family="sans-serif" font-size="11" textLength="41">: string</text><text x="1621.5" y="1487.304" fill="#D9B8FF" font-family="sans-serif" font-size="11" font-weight="bold" textLength="191">inference_specification_name</text><text x="1812.5" y="1487.304" fill="#D9B8FF" font-family="sans-serif" font-size="11" textLength="41">: string</text><text x="1621.5" y="1510.109" fill="#D9B8FF" font-family="sans-serif" font-size="11" font-weight="bold" textLength="202">environment_parameter_ranges</text><text x="1823.5" y="1510.109" fill="#D9B8FF" font-family="sans-serif" font-size="11" textLength="290">: aws_sagemaker_environment_parameter_ranges</text></a><a xlink:actuate="onRequest" xlink:href="#m" xlink:show="new" xlink:title="#aws_sagemaker_environment_parameter_ranges" xlink:type="simple" target="_top"><rect id="m" width="456" height="70.594" x="1639.5" y="1649.5" fill="#3D176E" rx="2.5" ry="2.5" style="stroke:#000d19;stroke-width:1.5"/><circle cx="1654.5" cy="1669.395" r="11" fill="#E98DF7" style="stroke:#000d19;stroke-width:1"/><path d="M1657.469 1675.035q-.578.297-1.219.438-.64.156-1.344.156-2.5 0-3.828-1.64-1.312-1.657-1.312-4.782t1.312-4.781q1.328-1.656 3.828-1.656.703 0 1.344.156.656.156 1.219.453v2.719q-.625-.578-1.219-.844-.594-.281-1.219-.281-1.343 0-2.031 1.078-.688 1.062-.688 3.156 0 2.094.688 3.172.688 1.062 2.031 1.062.625 0 1.219-.265.594-.281 1.219-.86v2.72Z"/><text x="1673.5" y="1675.28" fill="#D9B8FF" font-family="Helvetica" font-size="17" textLength="414">aws_sagemaker_environment_parameter_ranges</text><path d="M1640.5 1689.289h454" style="stroke:#000d19;stroke-width:1.5"/><text x="1650.5" y="1708.499" fill="#D9B8FF" font-family="sans-serif" font-size="11" font-weight="bold" textLength="194">categorical_parameter_ranges</text><text x="1844.5" y="1708.499" fill="#D9B8FF" font-family="sans-serif" font-size="11" textLength="49">: string[]</text></a><a xlink:actuate="onRequest" xlink:href="#n" xlink:show="new" xlink:title="#aws_sagemaker_recommendation_job_container_config" xlink:type="simple" target="_top"><rect id="n" width="509" height="207.422" x="2160" y="1360" fill="#3D176E" rx="2.5" ry="2.5" style="stroke:#000d19;stroke-width:1.5"/><circle cx="2175" cy="1379.895" r="11" fill="#E98DF7" style="stroke:#000d19;stroke-width:1"/><path d="M2177.969 1385.535q-.578.297-1.219.438-.64.156-1.344.156-2.5 0-3.828-1.64-1.312-1.657-1.312-4.782t1.312-4.781q1.328-1.656 3.828-1.656.703 0 1.344.156.656.156 1.219.453v2.719q-.625-.578-1.219-.844-.594-.281-1.219-.281-1.343 0-2.031 1.078-.688 1.062-.688 3.156 0 2.094.688 3.172.688 1.062 2.031 1.062.625 0 1.219-.265.594-.281 1.219-.86v2.72Z"/><text x="2194" y="1385.78" fill="#D9B8FF" font-family="Helvetica" font-size="17" textLength="467">aws_sagemaker_recommendation_job_container_config</text><path d="M2161 1399.789h507" style="stroke:#000d19;stroke-width:1.5"/><text x="2171" y="1418.999" fill="#D9B8FF" font-family="sans-serif" font-size="11" font-weight="bold" textLength="47">domain</text><text x="2218" y="1418.999" fill="#D9B8FF" font-family="sans-serif" font-size="11" textLength="41">: string</text><text x="2171" y="1441.804" fill="#D9B8FF" font-family="sans-serif" font-size="11" font-weight="bold" textLength="27">task</text><text x="2198" y="1441.804" fill="#D9B8FF" font-family="sans-serif" font-size="11" textLength="41">: string</text><text x="2171" y="1464.609" fill="#D9B8FF" font-family="sans-serif" font-size="11" font-weight="bold" textLength="68">framework</text><text x="2239" y="1464.609" fill="#D9B8FF" font-family="sans-serif" font-size="11" textLength="41">: string</text><text x="2171" y="1487.414" fill="#D9B8FF" font-family="sans-serif" font-size="11" font-weight="bold" textLength="121">framework_version</text><text x="2292" y="1487.414" fill="#D9B8FF" font-family="sans-serif" font-size="11" textLength="41">: string</text><text x="2171" y="1510.218" fill="#D9B8FF" font-family="sans-serif" font-size="11" font-weight="bold" textLength="97">payload_config</text><text x="2268" y="1510.218" fill="#D9B8FF" font-family="sans-serif" font-size="11" textLength="316">: aws_sagemaker_recommendation_job_payload_config</text><text x="2171" y="1533.023" fill="#D9B8FF" font-family="sans-serif" font-size="11" font-weight="bold" textLength="135">nearest_model_name</text><text x="2306" y="1533.023" fill="#D9B8FF" font-family="sans-serif" font-size="11" textLength="41">: string</text><text x="2171" y="1555.828" fill="#D9B8FF" font-family="sans-serif" font-size="11" font-weight="bold" textLength="167">supported_instance_types</text><text x="2338" y="1555.828" fill="#D9B8FF" font-family="sans-serif" font-size="11" textLength="49">: string[]</text></a><a xlink:actuate="onRequest" xlink:href="#o" xlink:show="new" xlink:title="#aws_sagemaker_recommendation_job_payload_config" xlink:type="simple" target="_top"><rect id="o" width="495" height="93.398" x="2167" y="1638.5" fill="#3D176E" rx="2.5" ry="2.5" style="stroke:#000d19;stroke-width:1.5"/><circle cx="2182" cy="1658.395" r="11" fill="#E98DF7" style="stroke:#000d19;stroke-width:1"/><path d="M2184.969 1664.035q-.578.297-1.219.438-.64.156-1.344.156-2.5 0-3.828-1.64-1.312-1.657-1.312-4.782t1.312-4.781q1.328-1.656 3.828-1.656.703 0 1.344.156.656.156 1.219.453v2.719q-.625-.578-1.219-.844-.594-.281-1.219-.281-1.343 0-2.031 1.078-.688 1.062-.688 3.156 0 2.094.688 3.172.688 1.062 2.031 1.062.625 0 1.219-.265.594-.281 1.219-.86v2.72Z"/><text x="2201" y="1664.28" fill="#D9B8FF" font-family="Helvetica" font-size="17" textLength="453">aws_sagemaker_recommendation_job_payload_config</text><path d="M2168 1678.289h493" style="stroke:#000d19;stroke-width:1.5"/><text x="2178" y="1697.499" fill="#D9B8FF" font-family="sans-serif" font-size="11" font-weight="bold" textLength="126">sample_payload_url</text><text x="2304" y="1697.499" fill="#D9B8FF" font-family="sans-serif" font-size="11" textLength="41">: string</text><text x="2178" y="1720.304" fill="#D9B8FF" font-family="sans-serif" font-size="11" font-weight="bold" textLength="161">supported_content_types</text><text x="2339" y="1720.304" fill="#D9B8FF" font-family="sans-serif" font-size="11" textLength="49">: string[]</text></a><a xlink:actuate="onRequest" xlink:href="#p" xlink:show="new" xlink:title="#aws_sagemaker_inference_recommendation" xlink:type="simple" target="_top"><rect id="p" width="449" height="116.203" x="2904" y="1127" fill="#3D176E" rx="2.5" ry="2.5" style="stroke:#000d19;stroke-width:1.5"/><circle cx="2934.3" cy="1146.895" r="11" fill="#E98DF7" style="stroke:#000d19;stroke-width:1"/><path d="M2937.269 1152.535q-.578.297-1.219.438-.64.156-1.344.156-2.5 0-3.828-1.64-1.312-1.657-1.312-4.782t1.312-4.781q1.328-1.656 3.828-1.656.703 0 1.344.156.656.156 1.219.453v2.719q-.625-.578-1.219-.844-.594-.281-1.219-.281-1.343 0-2.031 1.078-.688 1.062-.688 3.156 0 2.094.688 3.172.688 1.062 2.031 1.062.625 0 1.219-.265.594-.281 1.219-.86v2.72Z"/><text x="2956.7" y="1152.78" fill="#D9B8FF" font-family="Helvetica" font-size="17" textLength="373">aws_sagemaker_inference_recommendation</text><path d="M2905 1166.789h447" style="stroke:#000d19;stroke-width:1.5"/><text x="2915" y="1185.999" fill="#D9B8FF" font-family="sans-serif" font-size="11" font-weight="bold" textLength="47">metrics</text><text x="2962" y="1185.999" fill="#D9B8FF" font-family="sans-serif" font-size="11" textLength="252">: aws_sagemaker_recommendation_metrics</text><text x="2915" y="1208.804" fill="#D9B8FF" font-family="sans-serif" font-size="11" font-weight="bold" textLength="149">endpoint_configuration</text><text x="3064" y="1208.804" fill="#D9B8FF" font-family="sans-serif" font-size="11" textLength="278">: aws_sagemaker_endpoint_output_configuration</text><text x="2915" y="1231.609" fill="#D9B8FF" font-family="sans-serif" font-size="11" font-weight="bold" textLength="131">model_configuration</text><text x="3046" y="1231.609" fill="#D9B8FF" font-family="sans-serif" font-size="11" textLength="222">: aws_sagemaker_model_configuration</text></a><a xlink:actuate="onRequest" xlink:href="#q" xlink:show="new" xlink:title="#aws_sagemaker_recommendation_metrics" xlink:type="simple" target="_top"><rect id="q" width="399" height="139.008" x="2704" y="1394" fill="#3D176E" rx="2.5" ry="2.5" style="stroke:#000d19;stroke-width:1.5"/><circle cx="2719" cy="1413.895" r="11" fill="#E98DF7" style="stroke:#000d19;stroke-width:1"/><path d="M2721.969 1419.535q-.578.297-1.219.438-.64.156-1.344.156-2.5 0-3.828-1.64-1.312-1.657-1.312-4.782t1.312-4.781q1.328-1.656 3.828-1.656.703 0 1.344.156.656.156 1.219.453v2.719q-.625-.578-1.219-.844-.594-.281-1.219-.281-1.343 0-2.031 1.078-.688 1.062-.688 3.156 0 2.094.688 3.172.688 1.062 2.031 1.062.625 0 1.219-.265.594-.281 1.219-.86v2.72Z"/><text x="2738" y="1419.78" fill="#D9B8FF" font-family="Helvetica" font-size="17" textLength="357">aws_sagemaker_recommendation_metrics</text><path d="M2705 1433.789h397" style="stroke:#000d19;stroke-width:1.5"/><text x="2715" y="1452.999" fill="#D9B8FF" font-family="sans-serif" font-size="11" font-weight="bold" textLength="89">cost_per_hour</text><text x="2804" y="1452.999" fill="#D9B8FF" font-family="sans-serif" font-size="11" textLength="46">: double</text><text x="2715" y="1475.804" fill="#D9B8FF" font-family="sans-serif" font-size="11" font-weight="bold" textLength="121">cost_per_inference</text><text x="2836" y="1475.804" fill="#D9B8FF" font-family="sans-serif" font-size="11" textLength="46">: double</text><text x="2715" y="1498.609" fill="#D9B8FF" font-family="sans-serif" font-size="11" font-weight="bold" textLength="106">max_invocations</text><text x="2821" y="1498.609" fill="#D9B8FF" font-family="sans-serif" font-size="11" textLength="36">: int64</text><text x="2715" y="1521.414" fill="#D9B8FF" font-family="sans-serif" font-size="11" font-weight="bold" textLength="92">model_latency</text><text x="2807" y="1521.414" fill="#D9B8FF" font-family="sans-serif" font-size="11" textLength="36">: int64</text></a><a xlink:actuate="onRequest" xlink:href="#r" xlink:show="new" xlink:title="#aws_sagemaker_endpoint_output_configuration" xlink:type="simple" target="_top"><rect id="r" width="444" height="139.008" x="3137.5" y="1394" fill="#3D176E" rx="2.5" ry="2.5" style="stroke:#000d19;stroke-width:1.5"/><circle cx="3152.5" cy="1413.895" r="11" fill="#E98DF7" style="stroke:#000d19;stroke-width:1"/><path d="M3155.469 1419.535q-.578.297-1.219.438-.64.156-1.344.156-2.5 0-3.828-1.64-1.312-1.657-1.312-4.782t1.312-4.781q1.328-1.656 3.828-1.656.703 0 1.344.156.656.156 1.219.453v2.719q-.625-.578-1.219-.844-.594-.281-1.219-.281-1.343 0-2.031 1.078-.688 1.062-.688 3.156 0 2.094.688 3.172.688 1.062 2.031 1.062.625 0 1.219-.265.594-.281 1.219-.86v2.72Z"/><text x="3171.5" y="1419.78" fill="#D9B8FF" font-family="Helvetica" font-size="17" textLength="402">aws_sagemaker_endpoint_output_configuration</text><path d="M3138.5 1433.789h442" style="stroke:#000d19;stroke-width:1.5"/><text x="3148.5" y="1452.999" fill="#D9B8FF" font-family="sans-serif" font-size="11" font-weight="bold" textLength="98">endpoint_name</text><text x="3246.5" y="1452.999" fill="#D9B8FF" font-family="sans-serif" font-size="11" textLength="41">: string</text><text x="3148.5" y="1475.804" fill="#D9B8FF" font-family="sans-serif" font-size="11" font-weight="bold" textLength="86">variant_name</text><text x="3234.5" y="1475.804" fill="#D9B8FF" font-family="sans-serif" font-size="11" textLength="41">: string</text><text x="3148.5" y="1498.609" fill="#D9B8FF" font-family="sans-serif" font-size="11" font-weight="bold" textLength="89">instance_type</text><text x="3237.5" y="1498.609" fill="#D9B8FF" font-family="sans-serif" font-size="11" textLength="41">: string</text><text x="3148.5" y="1521.414" fill="#D9B8FF" font-family="sans-serif" font-size="11" font-weight="bold" textLength="140">initial_instance_count</text><text x="3288.5" y="1521.414" fill="#D9B8FF" font-family="sans-serif" font-size="11" textLength="36">: int64</text></a><a xlink:actuate="onRequest" xlink:href="#s" xlink:show="new" xlink:title="#aws_sagemaker_model_configuration" xlink:type="simple" target="_top"><rect id="s" width="433" height="93.398" x="3617" y="1417" fill="#3D176E" rx="2.5" ry="2.5" style="stroke:#000d19;stroke-width:1.5"/><circle cx="3666.75" cy="1436.895" r="11" fill="#E98DF7" style="stroke:#000d19;stroke-width:1"/><path d="M3669.719 1442.535q-.578.297-1.219.438-.64.156-1.344.156-2.5 0-3.828-1.64-1.312-1.657-1.312-4.782t1.312-4.781q1.328-1.656 3.828-1.656.703 0 1.344.156.656.156 1.219.453v2.719q-.625-.578-1.219-.844-.594-.281-1.219-.281-1.343 0-2.031 1.078-.688 1.062-.688 3.156 0 2.094.688 3.172.688 1.062 2.031 1.062.625 0 1.219-.265.594-.281 1.219-.86v2.72Z"/><text x="3692.25" y="1442.78" fill="#D9B8FF" font-family="Helvetica" font-size="17" textLength="315">aws_sagemaker_model_configuration</text><path d="M3618 1456.789h431" style="stroke:#000d19;stroke-width:1.5"/><text x="3628" y="1475.999" fill="#D9B8FF" font-family="sans-serif" font-size="11" font-weight="bold" textLength="191">inference_specification_name</text><text x="3819" y="1475.999" fill="#D9B8FF" font-family="sans-serif" font-size="11" textLength="41">: string</text><text x="3628" y="1498.804" fill="#D9B8FF" font-family="sans-serif" font-size="11" font-weight="bold" textLength="159">environment_parameters</text><text x="3787" y="1498.804" fill="#D9B8FF" font-family="sans-serif" font-size="11" textLength="252">: aws_sagemaker_environment_parameter[]</text></a><a xlink:actuate="onRequest" xlink:href="#t" xlink:show="new" xlink:title="#aws_sagemaker_environment_parameter" xlink:type="simple" target="_top"><rect id="t" width="391" height="116.203" x="3638" y="1627" fill="#3D176E" rx="2.5" ry="2.5" style="stroke:#000d19;stroke-width:1.5"/><circle cx="3653" cy="1646.895" r="11" fill="#E98DF7" style="stroke:#000d19;stroke-width:1"/><path d="M3655.969 1652.535q-.578.297-1.219.438-.64.156-1.344.156-2.5 0-3.828-1.64-1.312-1.657-1.312-4.782t1.312-4.781q1.328-1.656 3.828-1.656.703 0 1.344.156.656.156 1.219.453v2.719q-.625-.578-1.219-.844-.594-.281-1.219-.281-1.343 0-2.031 1.078-.688 1.062-.688 3.156 0 2.094.688 3.172.688 1.062 2.031 1.062.625 0 1.219-.265.594-.281 1.219-.86v2.72Z"/><text x="3672" y="1652.78" fill="#D9B8FF" font-family="Helvetica" font-size="17" textLength="349">aws_sagemaker_environment_parameter</text><path d="M3639 1666.789h389" style="stroke:#000d19;stroke-width:1.5"/><text x="3649" y="1685.999" fill="#D9B8FF" font-family="sans-serif" font-size="11" font-weight="bold" textLength="22">key</text><text x="3671" y="1685.999" fill="#D9B8FF" font-family="sans-serif" font-size="11" textLength="41">: string</text><text x="3649" y="1708.804" fill="#D9B8FF" font-family="sans-serif" font-size="11" font-weight="bold" textLength="69">value_type</text><text x="3718" y="1708.804" fill="#D9B8FF" font-family="sans-serif" font-size="11" textLength="41">: string</text><text x="3649" y="1731.609" fill="#D9B8FF" font-family="sans-serif" font-size="11" font-weight="bold" textLength="35">value</text><text x="3684" y="1731.609" fill="#D9B8FF" font-family="sans-serif" font-size="11" textLength="41">: string</text></a><a xlink:actuate="onRequest" xlink:href="#u" xlink:show="new" xlink:title="#aws_sagemaker_endpoint_performance" xlink:type="simple" target="_top"><rect id="u" width="374" height="93.398" x="3838.5" y="1138.5" fill="#3D176E" rx="2.5" ry="2.5" style="stroke:#000d19;stroke-width:1.5"/><circle cx="3853.5" cy="1158.395" r="11" fill="#E98DF7" style="stroke:#000d19;stroke-width:1"/><path d="M3856.469 1164.035q-.578.297-1.219.438-.64.156-1.344.156-2.5 0-3.828-1.64-1.312-1.657-1.312-4.782t1.312-4.781q1.328-1.656 3.828-1.656.703 0 1.344.156.656.156 1.219.453v2.719q-.625-.578-1.219-.844-.594-.281-1.219-.281-1.343 0-2.031 1.078-.688 1.062-.688 3.156 0 2.094.688 3.172.688 1.062 2.031 1.062.625 0 1.219-.265.594-.281 1.219-.86v2.72Z"/><text x="3872.5" y="1164.28" fill="#D9B8FF" font-family="Helvetica" font-size="17" textLength="332">aws_sagemaker_endpoint_performance</text><path d="M3839.5 1178.289h372" style="stroke:#000d19;stroke-width:1.5"/><text x="3849.5" y="1197.499" fill="#D9B8FF" font-family="sans-serif" font-size="11" font-weight="bold" textLength="47">metrics</text><text x="3896.5" y="1197.499" fill="#D9B8FF" font-family="sans-serif" font-size="11" textLength="209">: aws_sagemaker_inference_metrics</text><text x="3849.5" y="1220.304" fill="#D9B8FF" font-family="sans-serif" font-size="11" font-weight="bold" textLength="88">endpoint_info</text><text x="3937.5" y="1220.304" fill="#D9B8FF" font-family="sans-serif" font-size="11" textLength="41">: string</text></a><a xlink:actuate="onRequest" xlink:href="#v" xlink:show="new" xlink:title="#aws_sagemaker_inference_metrics" xlink:type="simple" target="_top"><rect id="v" width="334" height="93.398" x="4084.5" y="1417" fill="#3D176E" rx="2.5" ry="2.5" style="stroke:#000d19;stroke-width:1.5"/><circle cx="4099.5" cy="1436.895" r="11" fill="#E98DF7" style="stroke:#000d19;stroke-width:1"/><path d="M4102.469 1442.535q-.578.297-1.219.438-.64.156-1.344.156-2.5 0-3.828-1.64-1.312-1.657-1.312-4.782t1.312-4.781q1.328-1.656 3.828-1.656.703 0 1.344.156.656.156 1.219.453v2.719q-.625-.578-1.219-.844-.594-.281-1.219-.281-1.343 0-2.031 1.078-.688 1.062-.688 3.156 0 2.094.688 3.172.688 1.062 2.031 1.062.625 0 1.219-.265.594-.281 1.219-.86v2.72Z"/><text x="4118.5" y="1442.78" fill="#D9B8FF" font-family="Helvetica" font-size="17" textLength="292">aws_sagemaker_inference_metrics</text><path d="M4085.5 1456.789h332" style="stroke:#000d19;stroke-width:1.5"/><text x="4095.5" y="1475.999" fill="#D9B8FF" font-family="sans-serif" font-size="11" font-weight="bold" textLength="106">max_invocations</text><text x="4201.5" y="1475.999" fill="#D9B8FF" font-family="sans-serif" font-size="11" textLength="36">: int64</text><text x="4095.5" y="1498.804" fill="#D9B8FF" font-family="sans-serif" font-size="11" font-weight="bold" textLength="92">model_latency</text><text x="4187.5" y="1498.804" fill="#D9B8FF" font-family="sans-serif" font-size="11" textLength="36">: int64</text></a><path fill="none" d="M2384.5 303.43V403.9m-7-100.64 7-20 7 20h-14zM673.18 1231.5c-102.52 50.53-267.27 131.73-371.65 183.18" style="stroke:#ffaf37;stroke-width:2"/><path fill="#FFAF37" d="m296.92 1416.95 9.84-.397-5.356-1.816 1.816-5.358-6.3 7.571z" style="stroke:#ffaf37;stroke-width:2"/><path fill="none" d="M2384.5 656.34v100.39m-7-100.64 7-20 7 20h-14zm-322.63 354.01c-71.82 27.37-146.54 55.84-214.23 81.63" style="stroke:#ffaf37;stroke-width:2"/><path fill="#FFAF37" d="m1835.78 1093.59 9.835.523-5.165-2.308 2.308-5.165-6.978 6.95z" style="stroke:#ffaf37;stroke-width:2"/><path fill="none" d="M2029.77 946.05c-201.42 35.36-458.14 81.13-686.27 123.95-114.42 21.48-241.35 46.39-347.05 67.44" style="stroke:#ffaf37;stroke-width:2"/><path fill="#FFAF37" d="m991.44 1138.44 9.606 2.173-4.702-3.145 3.146-4.702-8.05 5.674z" style="stroke:#ffaf37;stroke-width:2"/><path fill="none" d="M2696.52 1010.1c98.87 39.81 203.55 81.94 285.1 114.77" style="stroke:#ffaf37;stroke-width:2"/><path fill="#FFAF37" d="m2986.46 1126.82-6.852-7.075 2.215 5.206-5.206 2.214 9.843-.345z" style="stroke:#ffaf37;stroke-width:2"/><path fill="none" d="M2739.06 949.21c335.44 61.22 826.3 150.81 1094.31 199.72" style="stroke:#ffaf37;stroke-width:2"/><path fill="#FFAF37" d="m3838.48 1149.87-8.148-5.533 3.227 4.646-4.646 3.227 9.567-2.34z" style="stroke:#ffaf37;stroke-width:2"/><path fill="none" d="M2384.5 495.52v100.3m-7-100.43 7-20 7 20h-14zM1361.18 1251.2c-93.34 28.86-200.3 66.02-293.68 108.8-33.45 15.32-68.56 35.69-98.13 54.23" style="stroke:#ffaf37;stroke-width:2"/><path fill="#FFAF37" d="m965.05 1416.95 9.745-1.425-5.518-1.245 1.245-5.519-5.472 8.189z" style="stroke:#ffaf37;stroke-width:2"/><path fill="none" d="M1487.95 1300.06c-38.24 39.45-79.11 81.62-109.63 113.1" style="stroke:#ffaf37;stroke-width:2"/><path fill="#FFAF37" d="m1374.65 1416.95 9.134-3.683-5.656.09-.091-5.655-3.387 9.248z" style="stroke:#ffaf37;stroke-width:2"/><path fill="none" d="M1709.47 1300.06c33.93 34.88 69.93 71.88 98.98 101.74" style="stroke:#ffaf37;stroke-width:2"/><path fill="#FFAF37" d="m1811.96 1405.41-3.424-9.235-.068 5.657-5.657-.069 9.149 3.647z" style="stroke:#ffaf37;stroke-width:2"/><path fill="none" d="M1835.55 1259.18c95.41 30.18 206.25 66.15 305.95 100.82 4.48 1.56 8.99 3.14 13.54 4.74" style="stroke:#ffaf37;stroke-width:2"/><path fill="#FFAF37" d="m2159.98 1366.48-7.164-6.758 2.447 5.1-5.1 2.447 9.817-.789z" style="stroke:#ffaf37;stroke-width:2"/><path fill="none" d="M1361.36 1236.49c-96.37 20.21-208.84 43.43-310.86 63.51-143.26 28.2-187.7 5.1-323 60-32.91 13.35-66.12 34.3-93.24 53.78" style="stroke:#ffaf37;stroke-width:2"/><path fill="#FFAF37" d="m629.96 1416.89 9.639-2.024-5.585-.902.902-5.585-4.956 8.511z" style="stroke:#ffaf37;stroke-width:2"/><path fill="none" d="M897.5 1510.25v111.55" style="stroke:#ffaf37;stroke-width:2"/><path fill="#FFAF37" d="m897.5 1626.98 4-9-4 4-4-4 4 9z" style="stroke:#ffaf37;stroke-width:2"/><path fill="none" d="M1867.5 1521.6v122.48" style="stroke:#ffaf37;stroke-width:2"/><path fill="#FFAF37" d="m1867.5 1649.44 4-9-4 4-4-4 4 9z" style="stroke:#ffaf37;stroke-width:2"/><path fill="none" d="M2414.5 1567.18v66.04" style="stroke:#ffaf37;stroke-width:2"/><path fill="#FFAF37" d="m2414.5 1638.42 4-9-4 4-4-4 4 9z" style="stroke:#ffaf37;stroke-width:2"/><path fill="none" d="M3081.88 1243.29c-34.55 42.46-81.89 100.64-119.13 146.39" style="stroke:#ffaf37;stroke-width:2"/><path fill="#FFAF37" d="m2959.41 1393.79 8.788-4.447-5.628.572-.572-5.628-2.588 9.503z" style="stroke:#ffaf37;stroke-width:2"/><path fill="none" d="M3176.36 1243.29c35.47 42.46 84.08 100.64 122.31 146.39" style="stroke:#ffaf37;stroke-width:2"/><path fill="#FFAF37" d="m3302.1 1393.79-2.706-9.47-.502 5.635-5.634-.502 8.842 4.337z" style="stroke:#ffaf37;stroke-width:2"/><path fill="none" d="M3289.52 1243.06c91.16 32.93 206.99 75.86 308.98 116.94 42.55 17.14 88.93 37.09 129.15 54.81" style="stroke:#ffaf37;stroke-width:2"/><path fill="#FFAF37" d="m3732.53 1416.96-6.631-7.282 2.053 5.271-5.27 2.054 9.848-.043z" style="stroke:#ffaf37;stroke-width:2"/><path fill="none" d="M3833.5 1510.25v111.55" style="stroke:#ffaf37;stroke-width:2"/><path fill="#FFAF37" d="m3833.5 1626.98 4-9-4 4-4-4 4 9z" style="stroke:#ffaf37;stroke-width:2"/><path fill="none" d="M4062.82 1231.66c40.81 49.93 106 129.68 148.07 181.15" style="stroke:#ffaf37;stroke-width:2"/><path fill="#FFAF37" d="m4214.13 1416.77-2.609-9.497-.56 5.63-5.629-.56 8.798 4.427z" style="stroke:#ffaf37;stroke-width:2"/></svg>