<svg xmlns="http://www.w3.org/2000/svg" xmlns:xlink="http://www.w3.org/1999/xlink" width="3754" height="1911" preserveAspectRatio="none" style="width:3754px;height:1911px;background:#00000000"><a xlink:actuate="onRequest" xlink:href="#a" xlink:show="new" xlink:title="#resource" xlink:type="simple" target="_top"><rect id="a" width="195" height="275.836" x="1375.5" y="7" fill="#3D176E" rx="2.5" ry="2.5" style="stroke:#000d19;stroke-width:1.5"/><circle cx="1428.25" cy="26.895" r="11" fill="#E98DF7" style="stroke:#000d19;stroke-width:1"/><path d="M1431.219 32.535q-.578.297-1.219.438-.64.156-1.344.156-2.5 0-3.828-1.64-1.312-1.657-1.312-4.782t1.312-4.781q1.328-1.656 3.828-1.656.703 0 1.344.156.656.156 1.219.453v2.719q-.625-.578-1.219-.844-.594-.281-1.219-.281-1.343 0-2.031 1.078-.688 1.062-.688 3.156 0 2.094.688 3.172.688 1.062 2.031 1.062.625 0 1.219-.265.594-.281 1.219-.86v2.72Z"/><text x="1453.75" y="32.78" fill="#D9B8FF" font-family="Helvetica" font-size="17" textLength="71">resource</text><path d="M1376.5 46.789h193" style="stroke:#000d19;stroke-width:1.5"/><text x="1386.5" y="65.999" fill="#D9B8FF" font-family="sans-serif" font-size="11" font-weight="bold" textLength="12">id</text><text x="1398.5" y="65.999" fill="#D9B8FF" font-family="sans-serif" font-size="11" textLength="41">: string</text><text x="1386.5" y="88.804" fill="#D9B8FF" font-family="sans-serif" font-size="11" font-weight="bold" textLength="28">tags</text><text x="1414.5" y="88.804" fill="#D9B8FF" font-family="sans-serif" font-size="11" textLength="145">: dictionary[string, string]</text><text x="1386.5" y="111.609" fill="#D9B8FF" font-family="sans-serif" font-size="11" font-weight="bold" textLength="35">name</text><text x="1421.5" y="111.609" fill="#D9B8FF" font-family="sans-serif" font-size="11" textLength="41">: string</text><text x="1386.5" y="134.414" fill="#D9B8FF" font-family="sans-serif" font-size="11" font-weight="bold" textLength="35">ctime</text><text x="1421.5" y="134.414" fill="#D9B8FF" font-family="sans-serif" font-size="11" textLength="58">: datetime</text><text x="1386.5" y="157.218" fill="#D9B8FF" font-family="sans-serif" font-size="11" font-weight="bold" textLength="24">age</text><text x="1410.5" y="157.218" fill="#D9B8FF" font-family="sans-serif" font-size="11" textLength="55">: duration</text><text x="1386.5" y="180.023" fill="#D9B8FF" font-family="sans-serif" font-size="11" font-weight="bold" textLength="39">mtime</text><text x="1425.5" y="180.023" fill="#D9B8FF" font-family="sans-serif" font-size="11" textLength="58">: datetime</text><text x="1386.5" y="202.828" fill="#D9B8FF" font-family="sans-serif" font-size="11" font-weight="bold" textLength="75">last_update</text><text x="1461.5" y="202.828" fill="#D9B8FF" font-family="sans-serif" font-size="11" textLength="55">: duration</text><text x="1386.5" y="225.632" fill="#D9B8FF" font-family="sans-serif" font-size="11" font-weight="bold" textLength="36">atime</text><text x="1422.5" y="225.632" fill="#D9B8FF" font-family="sans-serif" font-size="11" textLength="58">: datetime</text><text x="1386.5" y="248.437" fill="#D9B8FF" font-family="sans-serif" font-size="11" font-weight="bold" textLength="74">last_access</text><text x="1460.5" y="248.437" fill="#D9B8FF" font-family="sans-serif" font-size="11" textLength="55">: duration</text><text x="1386.5" y="271.242" fill="#D9B8FF" font-family="sans-serif" font-size="11" font-weight="bold" textLength="27">kind</text><text x="1413.5" y="271.242" fill="#D9B8FF" font-family="sans-serif" font-size="11" textLength="41">: string</text></a><a xlink:actuate="onRequest" xlink:href="#b" xlink:show="new" xlink:title="#aws_resource" xlink:type="simple" target="_top"><rect id="b" width="155" height="70.594" x="1395.5" y="404" fill="#3D176E" rx="2.5" ry="2.5" style="stroke:#000d19;stroke-width:1.5"/><circle cx="1410.5" cy="423.894" r="11" fill="#E98DF7" style="stroke:#000d19;stroke-width:1"/><path d="M1413.469 429.535q-.578.297-1.219.438-.64.156-1.344.156-2.5 0-3.828-1.64-1.312-1.657-1.312-4.782t1.312-4.781q1.328-1.656 3.828-1.656.703 0 1.344.156.656.156 1.219.453v2.719q-.625-.579-1.219-.844-.594-.281-1.219-.281-1.343 0-2.031 1.078-.688 1.062-.688 3.156 0 2.094.688 3.172.688 1.062 2.031 1.062.625 0 1.219-.265.594-.281 1.219-.86v2.72Z"/><text x="1429.5" y="429.78" fill="#D9B8FF" font-family="Helvetica" font-size="17" textLength="113">aws_resource</text><path d="M1396.5 443.789h153" style="stroke:#000d19;stroke-width:1.5"/><text x="1406.5" y="463" fill="#D9B8FF" font-family="sans-serif" font-size="11" font-weight="bold" textLength="21">arn</text><text x="1427.5" y="463" fill="#D9B8FF" font-family="sans-serif" font-size="11" textLength="41">: string</text></a><a xlink:actuate="onRequest" xlink:href="#c" xlink:show="new" xlink:title="#aws_sagemaker_auto_ml_job" xlink:type="simple" target="_top"><rect id="c" width="492" height="412.664" x="1227" y="757" fill="#3D176E" rx="2.5" ry="2.5" style="stroke:#000d19;stroke-width:1.5"/><circle cx="1340.75" cy="776.894" r="11" fill="#E98DF7" style="stroke:#000d19;stroke-width:1"/><path d="M1343.719 782.535q-.578.297-1.219.438-.64.156-1.344.156-2.5 0-3.828-1.64-1.312-1.657-1.312-4.782t1.312-4.781q1.328-1.657 3.828-1.657.703 0 1.344.157.656.156 1.219.453v2.719q-.625-.578-1.219-.844-.594-.281-1.219-.281-1.343 0-2.031 1.078-.688 1.062-.688 3.156 0 2.094.688 3.172.688 1.062 2.031 1.062.625 0 1.219-.265.594-.282 1.219-.86v2.72Z"/><text x="1366.25" y="782.78" fill="#D9B8FF" font-family="Helvetica" font-size="17" textLength="246">aws_sagemaker_auto_ml_job</text><path d="M1228 796.789h490" style="stroke:#000d19;stroke-width:1.5"/><text x="1238" y="816" fill="#D9B8FF" font-family="sans-serif" font-size="11" font-weight="bold" textLength="196">auto_ml_job_input_data_config</text><text x="1434" y="816" fill="#D9B8FF" font-family="sans-serif" font-size="11" textLength="210">: aws_sagemaker_auto_ml_channel[]</text><text x="1238" y="838.804" fill="#D9B8FF" font-family="sans-serif" font-size="11" font-weight="bold" textLength="205">auto_ml_job_output_data_config</text><text x="1443" y="838.804" fill="#D9B8FF" font-family="sans-serif" font-size="11" textLength="265">: aws_sagemaker_auto_ml_output_data_config</text><text x="1238" y="861.609" fill="#D9B8FF" font-family="sans-serif" font-size="11" font-weight="bold" textLength="141">auto_ml_job_objective</text><text x="1379" y="861.609" fill="#D9B8FF" font-family="sans-serif" font-size="11" textLength="41">: string</text><text x="1238" y="884.414" fill="#D9B8FF" font-family="sans-serif" font-size="11" font-weight="bold" textLength="168">auto_ml_job_problem_type</text><text x="1406" y="884.414" fill="#D9B8FF" font-family="sans-serif" font-size="11" textLength="41">: string</text><text x="1238" y="907.218" fill="#D9B8FF" font-family="sans-serif" font-size="11" font-weight="bold" textLength="122">auto_ml_job_config</text><text x="1360" y="907.218" fill="#D9B8FF" font-family="sans-serif" font-size="11" textLength="215">: aws_sagemaker_auto_ml_job_config</text><text x="1238" y="930.023" fill="#D9B8FF" font-family="sans-serif" font-size="11" font-weight="bold" textLength="140">auto_ml_job_end_time</text><text x="1378" y="930.023" fill="#D9B8FF" font-family="sans-serif" font-size="11" textLength="58">: datetime</text><text x="1238" y="952.828" fill="#D9B8FF" font-family="sans-serif" font-size="11" font-weight="bold" textLength="174">auto_ml_job_failure_reason</text><text x="1412" y="952.828" fill="#D9B8FF" font-family="sans-serif" font-size="11" textLength="41">: string</text><text x="1238" y="975.632" fill="#D9B8FF" font-family="sans-serif" font-size="11" font-weight="bold" textLength="229">auto_ml_job_partial_failure_reasons</text><text x="1467" y="975.632" fill="#D9B8FF" font-family="sans-serif" font-size="11" textLength="49">: string[]</text><text x="1238" y="998.437" fill="#D9B8FF" font-family="sans-serif" font-size="11" font-weight="bold" textLength="180">auto_ml_job_best_candidate</text><text x="1418" y="998.437" fill="#D9B8FF" font-family="sans-serif" font-size="11" textLength="213">: aws_sagemaker_auto_ml_candidate</text><text x="1238" y="1021.242" fill="#D9B8FF" font-family="sans-serif" font-size="11" font-weight="bold" textLength="122">auto_ml_job_status</text><text x="1360" y="1021.242" fill="#D9B8FF" font-family="sans-serif" font-size="11" textLength="41">: string</text><text x="1238" y="1044.046" fill="#D9B8FF" font-family="sans-serif" font-size="11" font-weight="bold" textLength="194">auto_ml_job_secondary_status</text><text x="1432" y="1044.046" fill="#D9B8FF" font-family="sans-serif" font-size="11" textLength="41">: string</text><text x="1238" y="1066.851" fill="#D9B8FF" font-family="sans-serif" font-size="11" font-weight="bold" textLength="318">auto_ml_job_generate_candidate_definitions_only</text><text x="1556" y="1066.851" fill="#D9B8FF" font-family="sans-serif" font-size="11" textLength="53">: boolean</text><text x="1238" y="1089.656" fill="#D9B8FF" font-family="sans-serif" font-size="11" font-weight="bold" textLength="136">auto_ml_job_artifacts</text><text x="1374" y="1089.656" fill="#D9B8FF" font-family="sans-serif" font-size="11" textLength="228">: aws_sagemaker_auto_ml_job_artifacts</text><text x="1238" y="1112.46" fill="#D9B8FF" font-family="sans-serif" font-size="11" font-weight="bold" textLength="206">auto_ml_job_resolved_attributes</text><text x="1444" y="1112.46" fill="#D9B8FF" font-family="sans-serif" font-size="11" textLength="217">: aws_sagemaker_resolved_attributes</text><text x="1238" y="1135.265" fill="#D9B8FF" font-family="sans-serif" font-size="11" font-weight="bold" textLength="216">auto_ml_job_model_deploy_config</text><text x="1454" y="1135.265" fill="#D9B8FF" font-family="sans-serif" font-size="11" textLength="225">: aws_sagemaker_model_deploy_config</text><text x="1238" y="1158.07" fill="#D9B8FF" font-family="sans-serif" font-size="11" font-weight="bold" textLength="213">auto_ml_job_model_deploy_result</text><text x="1451" y="1158.07" fill="#D9B8FF" font-family="sans-serif" font-size="11" textLength="41">: string</text></a><a xlink:actuate="onRequest" xlink:href="#d" xlink:show="new" xlink:title="#aws_sagemaker_job" xlink:type="simple" target="_top"><rect id="d" width="210" height="39.789" x="1368" y="596" fill="#3D176E" rx="2.5" ry="2.5" style="stroke:#000d19;stroke-width:1.5"/><circle cx="1383" cy="615.894" r="11" fill="#E98DF7" style="stroke:#000d19;stroke-width:1"/><path d="M1385.969 621.535q-.578.297-1.219.438-.64.156-1.344.156-2.5 0-3.828-1.64-1.312-1.657-1.312-4.782t1.312-4.781q1.328-1.657 3.828-1.657.703 0 1.344.157.656.156 1.219.453v2.719q-.625-.578-1.219-.844-.594-.281-1.219-.281-1.343 0-2.031 1.078-.688 1.062-.688 3.156 0 2.094.688 3.172.688 1.062 2.031 1.062.625 0 1.219-.265.594-.282 1.219-.86v2.72Z"/><text x="1402" y="621.78" fill="#D9B8FF" font-family="Helvetica" font-size="17" textLength="168">aws_sagemaker_job</text></a><a xlink:actuate="onRequest" xlink:href="#e" xlink:show="new" xlink:title="#aws_sagemaker_auto_ml_data_source" xlink:type="simple" target="_top"><rect id="e" width="363" height="70.594" x="16.5" y="1611.5" fill="#3D176E" rx="2.5" ry="2.5" style="stroke:#000d19;stroke-width:1.5"/><circle cx="31.5" cy="1631.395" r="11" fill="#E98DF7" style="stroke:#000d19;stroke-width:1"/><path d="M34.469 1637.035q-.578.297-1.219.438-.64.156-1.344.156-2.5 0-3.828-1.64-1.312-1.657-1.312-4.782t1.312-4.781q1.328-1.656 3.828-1.656.703 0 1.344.156.656.156 1.219.453v2.719q-.625-.578-1.219-.844-.594-.281-1.219-.281-1.343 0-2.031 1.078-.688 1.062-.688 3.156 0 2.094.688 3.172.688 1.062 2.031 1.062.625 0 1.219-.265.594-.281 1.219-.86v2.72Z"/><text x="50.5" y="1637.28" fill="#D9B8FF" font-family="Helvetica" font-size="17" textLength="321">aws_sagemaker_auto_ml_data_source</text><path d="M17.5 1651.289h361" style="stroke:#000d19;stroke-width:1.5"/><text x="27.5" y="1670.499" fill="#D9B8FF" font-family="sans-serif" font-size="11" font-weight="bold" textLength="99">s3_data_source</text><text x="126.5" y="1670.499" fill="#D9B8FF" font-family="sans-serif" font-size="11" textLength="242">: aws_sagemaker_auto_mls3_data_source</text></a><a xlink:actuate="onRequest" xlink:href="#f" xlink:show="new" xlink:title="#aws_sagemaker_auto_mls3_data_source" xlink:type="simple" target="_top"><rect id="f" width="382" height="93.398" x="7" y="1788" fill="#3D176E" rx="2.5" ry="2.5" style="stroke:#000d19;stroke-width:1.5"/><circle cx="22" cy="1807.895" r="11" fill="#E98DF7" style="stroke:#000d19;stroke-width:1"/><path d="M24.969 1813.535q-.578.297-1.219.438-.64.156-1.344.156-2.5 0-3.828-1.64-1.312-1.657-1.312-4.782t1.312-4.781q1.328-1.656 3.828-1.656.703 0 1.344.156.656.156 1.219.453v2.719q-.625-.578-1.219-.844-.594-.281-1.219-.281-1.343 0-2.031 1.078-.688 1.062-.688 3.156 0 2.094.688 3.172.688 1.062 2.031 1.062.625 0 1.219-.265.594-.281 1.219-.86v2.72Z"/><text x="41" y="1813.78" fill="#D9B8FF" font-family="Helvetica" font-size="17" textLength="340">aws_sagemaker_auto_mls3_data_source</text><path d="M8 1827.789h380" style="stroke:#000d19;stroke-width:1.5"/><text x="18" y="1846.999" fill="#D9B8FF" font-family="sans-serif" font-size="11" font-weight="bold" textLength="84">s3_data_type</text><text x="102" y="1846.999" fill="#D9B8FF" font-family="sans-serif" font-size="11" textLength="41">: string</text><text x="18" y="1869.804" fill="#D9B8FF" font-family="sans-serif" font-size="11" font-weight="bold" textLength="38">s3_uri</text><text x="56" y="1869.804" fill="#D9B8FF" font-family="sans-serif" font-size="11" textLength="41">: string</text></a><a xlink:actuate="onRequest" xlink:href="#g" xlink:show="new" xlink:title="#aws_sagemaker_vpc_config" xlink:type="simple" target="_top"><rect id="g" width="272" height="93.398" x="899" y="1788" fill="#3D176E" rx="2.5" ry="2.5" style="stroke:#000d19;stroke-width:1.5"/><circle cx="914" cy="1807.895" r="11" fill="#E98DF7" style="stroke:#000d19;stroke-width:1"/><path d="M916.969 1813.535q-.578.297-1.219.438-.64.156-1.344.156-2.5 0-3.828-1.64-1.312-1.657-1.312-4.782t1.312-4.781q1.328-1.656 3.828-1.656.703 0 1.344.156.656.156 1.219.453v2.719q-.625-.578-1.219-.844-.594-.281-1.219-.281-1.343 0-2.031 1.078-.688 1.062-.688 3.156 0 2.094.688 3.172.688 1.062 2.031 1.062.625 0 1.219-.265.594-.281 1.219-.86v2.72Z"/><text x="933" y="1813.78" fill="#D9B8FF" font-family="Helvetica" font-size="17" textLength="230">aws_sagemaker_vpc_config</text><path d="M900 1827.789h270" style="stroke:#000d19;stroke-width:1.5"/><text x="910" y="1846.999" fill="#D9B8FF" font-family="sans-serif" font-size="11" font-weight="bold" textLength="119">security_group_ids</text><text x="1029" y="1846.999" fill="#D9B8FF" font-family="sans-serif" font-size="11" textLength="49">: string[]</text><text x="910" y="1869.804" fill="#D9B8FF" font-family="sans-serif" font-size="11" font-weight="bold" textLength="51">subnets</text><text x="961" y="1869.804" fill="#D9B8FF" font-family="sans-serif" font-size="11" textLength="49">: string[]</text></a><a xlink:actuate="onRequest" xlink:href="#h" xlink:show="new" xlink:title="#aws_sagemaker_auto_ml_channel" xlink:type="simple" target="_top"><rect id="h" width="329" height="161.813" x="33.5" y="1298.5" fill="#3D176E" rx="2.5" ry="2.5" style="stroke:#000d19;stroke-width:1.5"/><circle cx="48.5" cy="1318.395" r="11" fill="#E98DF7" style="stroke:#000d19;stroke-width:1"/><path d="M51.469 1324.035q-.578.297-1.219.438-.64.156-1.344.156-2.5 0-3.828-1.64-1.312-1.657-1.312-4.782t1.312-4.781q1.328-1.656 3.828-1.656.703 0 1.344.156.656.156 1.219.453v2.719q-.625-.578-1.219-.844-.594-.281-1.219-.281-1.343 0-2.031 1.078-.688 1.062-.688 3.156 0 2.094.688 3.172.688 1.062 2.031 1.062.625 0 1.219-.265.594-.281 1.219-.86v2.72Z"/><text x="67.5" y="1324.28" fill="#D9B8FF" font-family="Helvetica" font-size="17" textLength="287">aws_sagemaker_auto_ml_channel</text><path d="M34.5 1338.289h327" style="stroke:#000d19;stroke-width:1.5"/><text x="44.5" y="1357.499" fill="#D9B8FF" font-family="sans-serif" font-size="11" font-weight="bold" textLength="78">data_source</text><text x="122.5" y="1357.499" fill="#D9B8FF" font-family="sans-serif" font-size="11" textLength="228">: aws_sagemaker_auto_ml_data_source</text><text x="44.5" y="1380.304" fill="#D9B8FF" font-family="sans-serif" font-size="11" font-weight="bold" textLength="115">compression_type</text><text x="159.5" y="1380.304" fill="#D9B8FF" font-family="sans-serif" font-size="11" textLength="41">: string</text><text x="44.5" y="1403.109" fill="#D9B8FF" font-family="sans-serif" font-size="11" font-weight="bold" textLength="142">target_attribute_name</text><text x="186.5" y="1403.109" fill="#D9B8FF" font-family="sans-serif" font-size="11" textLength="41">: string</text><text x="44.5" y="1425.914" fill="#D9B8FF" font-family="sans-serif" font-size="11" font-weight="bold" textLength="83">content_type</text><text x="127.5" y="1425.914" fill="#D9B8FF" font-family="sans-serif" font-size="11" textLength="41">: string</text><text x="44.5" y="1448.718" fill="#D9B8FF" font-family="sans-serif" font-size="11" font-weight="bold" textLength="85">channel_type</text><text x="129.5" y="1448.718" fill="#D9B8FF" font-family="sans-serif" font-size="11" textLength="41">: string</text></a><a xlink:actuate="onRequest" xlink:href="#i" xlink:show="new" xlink:title="#aws_sagemaker_auto_ml_output_data_config" xlink:type="simple" target="_top"><rect id="i" width="424" height="93.398" x="397" y="1333" fill="#3D176E" rx="2.5" ry="2.5" style="stroke:#000d19;stroke-width:1.5"/><circle cx="412" cy="1352.895" r="11" fill="#E98DF7" style="stroke:#000d19;stroke-width:1"/><path d="M414.969 1358.535q-.578.297-1.219.438-.64.156-1.344.156-2.5 0-3.828-1.64-1.312-1.657-1.312-4.782t1.312-4.781q1.328-1.656 3.828-1.656.703 0 1.344.156.656.156 1.219.453v2.719q-.625-.578-1.219-.844-.594-.281-1.219-.281-1.344 0-2.031 1.078-.688 1.062-.688 3.156 0 2.094.688 3.172.688 1.062 2.031 1.062.625 0 1.219-.265.594-.281 1.219-.86v2.72Z"/><text x="431" y="1358.78" fill="#D9B8FF" font-family="Helvetica" font-size="17" textLength="382">aws_sagemaker_auto_ml_output_data_config</text><path d="M398 1372.789h422" style="stroke:#000d19;stroke-width:1.5"/><text x="408" y="1391.999" fill="#D9B8FF" font-family="sans-serif" font-size="11" font-weight="bold" textLength="71">kms_key_id</text><text x="479" y="1391.999" fill="#D9B8FF" font-family="sans-serif" font-size="11" textLength="41">: string</text><text x="408" y="1414.804" fill="#D9B8FF" font-family="sans-serif" font-size="11" font-weight="bold" textLength="98">s3_output_path</text><text x="506" y="1414.804" fill="#D9B8FF" font-family="sans-serif" font-size="11" textLength="41">: string</text></a><a xlink:actuate="onRequest" xlink:href="#j" xlink:show="new" xlink:title="#aws_sagemaker_auto_ml_job_artifacts" xlink:type="simple" target="_top"><rect id="j" width="365" height="93.398" x="855.5" y="1333" fill="#3D176E" rx="2.5" ry="2.5" style="stroke:#000d19;stroke-width:1.5"/><circle cx="870.5" cy="1352.895" r="11" fill="#E98DF7" style="stroke:#000d19;stroke-width:1"/><path d="M873.469 1358.535q-.578.297-1.219.438-.64.156-1.344.156-2.5 0-3.828-1.64-1.312-1.657-1.312-4.782t1.312-4.781q1.328-1.656 3.828-1.656.703 0 1.344.156.656.156 1.219.453v2.719q-.625-.578-1.219-.844-.594-.281-1.219-.281-1.343 0-2.031 1.078-.688 1.062-.688 3.156 0 2.094.688 3.172.688 1.062 2.031 1.062.625 0 1.219-.265.594-.281 1.219-.86v2.72Z"/><text x="889.5" y="1358.78" fill="#D9B8FF" font-family="Helvetica" font-size="17" textLength="323">aws_sagemaker_auto_ml_job_artifacts</text><path d="M856.5 1372.789h363" style="stroke:#000d19;stroke-width:1.5"/><text x="866.5" y="1391.999" fill="#D9B8FF" font-family="sans-serif" font-size="11" font-weight="bold" textLength="256">candidate_definition_notebook_location</text><text x="1122.5" y="1391.999" fill="#D9B8FF" font-family="sans-serif" font-size="11" textLength="41">: string</text><text x="866.5" y="1414.804" fill="#D9B8FF" font-family="sans-serif" font-size="11" font-weight="bold" textLength="232">data_exploration_notebook_location</text><text x="1098.5" y="1414.804" fill="#D9B8FF" font-family="sans-serif" font-size="11" textLength="41">: string</text></a><a xlink:actuate="onRequest" xlink:href="#k" xlink:show="new" xlink:title="#aws_sagemaker_auto_ml_job_config" xlink:type="simple" target="_top"><rect id="k" width="434" height="161.813" x="1256" y="1298.5" fill="#3D176E" rx="2.5" ry="2.5" style="stroke:#000d19;stroke-width:1.5"/><circle cx="1311.25" cy="1318.395" r="11" fill="#E98DF7" style="stroke:#000d19;stroke-width:1"/><path d="M1314.219 1324.035q-.578.297-1.219.438-.64.156-1.344.156-2.5 0-3.828-1.64-1.312-1.657-1.312-4.782t1.312-4.781q1.328-1.656 3.828-1.656.703 0 1.344.156.656.156 1.219.453v2.719q-.625-.578-1.219-.844-.594-.281-1.219-.281-1.343 0-2.031 1.078-.688 1.062-.688 3.156 0 2.094.688 3.172.688 1.062 2.031 1.062.625 0 1.219-.265.594-.281 1.219-.86v2.72Z"/><text x="1336.75" y="1324.28" fill="#D9B8FF" font-family="Helvetica" font-size="17" textLength="305">aws_sagemaker_auto_ml_job_config</text><path d="M1257 1338.289h432" style="stroke:#000d19;stroke-width:1.5"/><text x="1267" y="1357.499" fill="#D9B8FF" font-family="sans-serif" font-size="11" font-weight="bold" textLength="123">completion_criteria</text><text x="1390" y="1357.499" fill="#D9B8FF" font-family="sans-serif" font-size="11" textLength="289">: aws_sagemaker_auto_ml_job_completion_criteria</text><text x="1267" y="1380.304" fill="#D9B8FF" font-family="sans-serif" font-size="11" font-weight="bold" textLength="97">security_config</text><text x="1364" y="1380.304" fill="#D9B8FF" font-family="sans-serif" font-size="11" textLength="243">: aws_sagemaker_auto_ml_security_config</text><text x="1267" y="1403.109" fill="#D9B8FF" font-family="sans-serif" font-size="11" font-weight="bold" textLength="109">data_split_config</text><text x="1376" y="1403.109" fill="#D9B8FF" font-family="sans-serif" font-size="11" textLength="46">: double</text><text x="1267" y="1425.914" fill="#D9B8FF" font-family="sans-serif" font-size="11" font-weight="bold" textLength="186">candidate_generation_config</text><text x="1453" y="1425.914" fill="#D9B8FF" font-family="sans-serif" font-size="11" textLength="41">: string</text><text x="1267" y="1448.718" fill="#D9B8FF" font-family="sans-serif" font-size="11" font-weight="bold" textLength="35">mode</text><text x="1302" y="1448.718" fill="#D9B8FF" font-family="sans-serif" font-size="11" textLength="41">: string</text></a><a xlink:actuate="onRequest" xlink:href="#l" xlink:show="new" xlink:title="#aws_sagemaker_auto_ml_job_completion_criteria" xlink:type="simple" target="_top"><rect id="l" width="458" height="116.203" x="1264" y="1589" fill="#3D176E" rx="2.5" ry="2.5" style="stroke:#000d19;stroke-width:1.5"/><circle cx="1279" cy="1608.895" r="11" fill="#E98DF7" style="stroke:#000d19;stroke-width:1"/><path d="M1281.969 1614.535q-.578.297-1.219.438-.64.156-1.344.156-2.5 0-3.828-1.64-1.312-1.657-1.312-4.782t1.312-4.781q1.328-1.656 3.828-1.656.703 0 1.344.156.656.156 1.219.453v2.719q-.625-.578-1.219-.844-.594-.281-1.219-.281-1.343 0-2.031 1.078-.688 1.062-.688 3.156 0 2.094.688 3.172.688 1.062 2.031 1.062.625 0 1.219-.265.594-.281 1.219-.86v2.72Z"/><text x="1298" y="1614.78" fill="#D9B8FF" font-family="Helvetica" font-size="17" textLength="416">aws_sagemaker_auto_ml_job_completion_criteria</text><path d="M1265 1628.789h456" style="stroke:#000d19;stroke-width:1.5"/><text x="1275" y="1647.999" fill="#D9B8FF" font-family="sans-serif" font-size="11" font-weight="bold" textLength="103">max_candidates</text><text x="1378" y="1647.999" fill="#D9B8FF" font-family="sans-serif" font-size="11" textLength="36">: int64</text><text x="1275" y="1670.804" fill="#D9B8FF" font-family="sans-serif" font-size="11" font-weight="bold" textLength="267">max_runtime_per_training_job_in_seconds</text><text x="1542" y="1670.804" fill="#D9B8FF" font-family="sans-serif" font-size="11" textLength="36">: int64</text><text x="1275" y="1693.609" fill="#D9B8FF" font-family="sans-serif" font-size="11" font-weight="bold" textLength="240">max_auto_ml_job_runtime_in_seconds</text><text x="1515" y="1693.609" fill="#D9B8FF" font-family="sans-serif" font-size="11" textLength="36">: int64</text></a><a xlink:actuate="onRequest" xlink:href="#m" xlink:show="new" xlink:title="#aws_sagemaker_auto_ml_security_config" xlink:type="simple" target="_top"><rect id="m" width="388" height="116.203" x="841" y="1589" fill="#3D176E" rx="2.5" ry="2.5" style="stroke:#000d19;stroke-width:1.5"/><circle cx="856" cy="1608.895" r="11" fill="#E98DF7" style="stroke:#000d19;stroke-width:1"/><path d="M858.969 1614.535q-.578.297-1.219.438-.64.156-1.344.156-2.5 0-3.828-1.64-1.312-1.657-1.312-4.782t1.312-4.781q1.328-1.656 3.828-1.656.703 0 1.344.156.656.156 1.219.453v2.719q-.625-.578-1.219-.844-.594-.281-1.219-.281-1.343 0-2.031 1.078-.688 1.062-.688 3.156 0 2.094.688 3.172.688 1.062 2.031 1.062.625 0 1.219-.265.594-.281 1.219-.86v2.72Z"/><text x="875" y="1614.78" fill="#D9B8FF" font-family="Helvetica" font-size="17" textLength="346">aws_sagemaker_auto_ml_security_config</text><path d="M842 1628.789h386" style="stroke:#000d19;stroke-width:1.5"/><text x="852" y="1647.999" fill="#D9B8FF" font-family="sans-serif" font-size="11" font-weight="bold" textLength="123">volume_kms_key_id</text><text x="975" y="1647.999" fill="#D9B8FF" font-family="sans-serif" font-size="11" textLength="41">: string</text><text x="852" y="1670.804" fill="#D9B8FF" font-family="sans-serif" font-size="11" font-weight="bold" textLength="266">enable_inter_container_traffic_encryption</text><text x="1118" y="1670.804" fill="#D9B8FF" font-family="sans-serif" font-size="11" textLength="53">: boolean</text><text x="852" y="1693.609" fill="#D9B8FF" font-family="sans-serif" font-size="11" font-weight="bold" textLength="68">vpc_config</text><text x="920" y="1693.609" fill="#D9B8FF" font-family="sans-serif" font-size="11" textLength="166">: aws_sagemaker_vpc_config</text></a><a xlink:actuate="onRequest" xlink:href="#n" xlink:show="new" xlink:title="#aws_sagemaker_auto_ml_candidate" xlink:type="simple" target="_top"><rect id="n" width="547" height="298.641" x="2194.5" y="1230" fill="#3D176E" rx="2.5" ry="2.5" style="stroke:#000d19;stroke-width:1.5"/><circle cx="2307.75" cy="1249.895" r="11" fill="#E98DF7" style="stroke:#000d19;stroke-width:1"/><path d="M2310.719 1255.535q-.578.297-1.219.438-.64.156-1.344.156-2.5 0-3.828-1.64-1.312-1.657-1.312-4.782t1.312-4.781q1.328-1.656 3.828-1.656.703 0 1.344.156.656.156 1.219.453v2.719q-.625-.578-1.219-.844-.594-.281-1.219-.281-1.343 0-2.031 1.078-.688 1.062-.688 3.156 0 2.094.688 3.172.688 1.062 2.031 1.062.625 0 1.219-.265.594-.281 1.219-.86v2.72Z"/><text x="2333.25" y="1255.78" fill="#D9B8FF" font-family="Helvetica" font-size="17" textLength="302">aws_sagemaker_auto_ml_candidate</text><path d="M2195.5 1269.789h545" style="stroke:#000d19;stroke-width:1.5"/><text x="2205.5" y="1288.999" fill="#D9B8FF" font-family="sans-serif" font-size="11" font-weight="bold" textLength="105">candidate_name</text><text x="2310.5" y="1288.999" fill="#D9B8FF" font-family="sans-serif" font-size="11" textLength="41">: string</text><text x="2205.5" y="1311.804" fill="#D9B8FF" font-family="sans-serif" font-size="11" font-weight="bold" textLength="222">final_auto_ml_job_objective_metric</text><text x="2427.5" y="1311.804" fill="#D9B8FF" font-family="sans-serif" font-size="11" textLength="303">: aws_sagemaker_final_auto_ml_job_objective_metric</text><text x="2205.5" y="1334.609" fill="#D9B8FF" font-family="sans-serif" font-size="11" font-weight="bold" textLength="105">objective_status</text><text x="2310.5" y="1334.609" fill="#D9B8FF" font-family="sans-serif" font-size="11" textLength="41">: string</text><text x="2205.5" y="1357.414" fill="#D9B8FF" font-family="sans-serif" font-size="11" font-weight="bold" textLength="105">candidate_steps</text><text x="2310.5" y="1357.414" fill="#D9B8FF" font-family="sans-serif" font-size="11" textLength="252">: aws_sagemaker_auto_ml_candidate_step[]</text><text x="2205.5" y="1380.218" fill="#D9B8FF" font-family="sans-serif" font-size="11" font-weight="bold" textLength="110">candidate_status</text><text x="2315.5" y="1380.218" fill="#D9B8FF" font-family="sans-serif" font-size="11" textLength="41">: string</text><text x="2205.5" y="1403.023" fill="#D9B8FF" font-family="sans-serif" font-size="11" font-weight="bold" textLength="135">inference_containers</text><text x="2340.5" y="1403.023" fill="#D9B8FF" font-family="sans-serif" font-size="11" textLength="277">: aws_sagemaker_auto_ml_container_definition[]</text><text x="2205.5" y="1425.828" fill="#D9B8FF" font-family="sans-serif" font-size="11" font-weight="bold" textLength="87">creation_time</text><text x="2292.5" y="1425.828" fill="#D9B8FF" font-family="sans-serif" font-size="11" textLength="58">: datetime</text><text x="2205.5" y="1448.632" fill="#D9B8FF" font-family="sans-serif" font-size="11" font-weight="bold" textLength="58">end_time</text><text x="2263.5" y="1448.632" fill="#D9B8FF" font-family="sans-serif" font-size="11" textLength="58">: datetime</text><text x="2205.5" y="1471.437" fill="#D9B8FF" font-family="sans-serif" font-size="11" font-weight="bold" textLength="120">last_modified_time</text><text x="2325.5" y="1471.437" fill="#D9B8FF" font-family="sans-serif" font-size="11" textLength="58">: datetime</text><text x="2205.5" y="1494.242" fill="#D9B8FF" font-family="sans-serif" font-size="11" font-weight="bold" textLength="92">failure_reason</text><text x="2297.5" y="1494.242" fill="#D9B8FF" font-family="sans-serif" font-size="11" textLength="41">: string</text><text x="2205.5" y="1517.046" fill="#D9B8FF" font-family="sans-serif" font-size="11" font-weight="bold" textLength="136">candidate_properties</text><text x="2341.5" y="1517.046" fill="#D9B8FF" font-family="sans-serif" font-size="11" textLength="227">: aws_sagemaker_candidate_properties</text></a><a xlink:actuate="onRequest" xlink:href="#o" xlink:show="new" xlink:title="#aws_sagemaker_final_auto_ml_job_objective_metric" xlink:type="simple" target="_top"><rect id="o" width="481" height="116.203" x="1757.5" y="1589" fill="#3D176E" rx="2.5" ry="2.5" style="stroke:#000d19;stroke-width:1.5"/><circle cx="1772.5" cy="1608.895" r="11" fill="#E98DF7" style="stroke:#000d19;stroke-width:1"/><path d="M1775.469 1614.535q-.578.297-1.219.438-.64.156-1.344.156-2.5 0-3.828-1.64-1.312-1.657-1.312-4.782t1.312-4.781q1.328-1.656 3.828-1.656.703 0 1.344.156.656.156 1.219.453v2.719q-.625-.578-1.219-.844-.594-.281-1.219-.281-1.343 0-2.031 1.078-.688 1.062-.688 3.156 0 2.094.688 3.172.688 1.062 2.031 1.062.625 0 1.219-.265.594-.281 1.219-.86v2.72Z"/><text x="1791.5" y="1614.78" fill="#D9B8FF" font-family="Helvetica" font-size="17" textLength="439">aws_sagemaker_final_auto_ml_job_objective_metric</text><path d="M1758.5 1628.789h479" style="stroke:#000d19;stroke-width:1.5"/><text x="1768.5" y="1647.999" fill="#D9B8FF" font-family="sans-serif" font-size="11" font-weight="bold" textLength="28">type</text><text x="1796.5" y="1647.999" fill="#D9B8FF" font-family="sans-serif" font-size="11" textLength="41">: string</text><text x="1768.5" y="1670.804" fill="#D9B8FF" font-family="sans-serif" font-size="11" font-weight="bold" textLength="81">metric_name</text><text x="1849.5" y="1670.804" fill="#D9B8FF" font-family="sans-serif" font-size="11" textLength="41">: string</text><text x="1768.5" y="1693.609" fill="#D9B8FF" font-family="sans-serif" font-size="11" font-weight="bold" textLength="35">value</text><text x="1803.5" y="1693.609" fill="#D9B8FF" font-family="sans-serif" font-size="11" textLength="46">: double</text></a><a xlink:actuate="onRequest" xlink:href="#p" xlink:show="new" xlink:title="#aws_sagemaker_auto_ml_candidate_step" xlink:type="simple" target="_top"><rect id="p" width="388" height="116.203" x="2274" y="1589" fill="#3D176E" rx="2.5" ry="2.5" style="stroke:#000d19;stroke-width:1.5"/><circle cx="2289" cy="1608.895" r="11" fill="#E98DF7" style="stroke:#000d19;stroke-width:1"/><path d="M2291.969 1614.535q-.578.297-1.219.438-.64.156-1.344.156-2.5 0-3.828-1.64-1.312-1.657-1.312-4.782t1.312-4.781q1.328-1.656 3.828-1.656.703 0 1.344.156.656.156 1.219.453v2.719q-.625-.578-1.219-.844-.594-.281-1.219-.281-1.343 0-2.031 1.078-.688 1.062-.688 3.156 0 2.094.688 3.172.688 1.062 2.031 1.062.625 0 1.219-.265.594-.281 1.219-.86v2.72Z"/><text x="2308" y="1614.78" fill="#D9B8FF" font-family="Helvetica" font-size="17" textLength="346">aws_sagemaker_auto_ml_candidate_step</text><path d="M2275 1628.789h386" style="stroke:#000d19;stroke-width:1.5"/><text x="2285" y="1647.999" fill="#D9B8FF" font-family="sans-serif" font-size="11" font-weight="bold" textLength="132">candidate_step_type</text><text x="2417" y="1647.999" fill="#D9B8FF" font-family="sans-serif" font-size="11" textLength="41">: string</text><text x="2285" y="1670.804" fill="#D9B8FF" font-family="sans-serif" font-size="11" font-weight="bold" textLength="125">candidate_step_arn</text><text x="2410" y="1670.804" fill="#D9B8FF" font-family="sans-serif" font-size="11" textLength="41">: string</text><text x="2285" y="1693.609" fill="#D9B8FF" font-family="sans-serif" font-size="11" font-weight="bold" textLength="139">candidate_step_name</text><text x="2424" y="1693.609" fill="#D9B8FF" font-family="sans-serif" font-size="11" textLength="41">: string</text></a><a xlink:actuate="onRequest" xlink:href="#q" xlink:show="new" xlink:title="#aws_sagemaker_auto_ml_container_definition" xlink:type="simple" target="_top"><rect id="q" width="431" height="116.203" x="2697.5" y="1589" fill="#3D176E" rx="2.5" ry="2.5" style="stroke:#000d19;stroke-width:1.5"/><circle cx="2712.5" cy="1608.895" r="11" fill="#E98DF7" style="stroke:#000d19;stroke-width:1"/><path d="M2715.469 1614.535q-.578.297-1.219.438-.64.156-1.344.156-2.5 0-3.828-1.64-1.312-1.657-1.312-4.782t1.312-4.781q1.328-1.656 3.828-1.656.703 0 1.344.156.656.156 1.219.453v2.719q-.625-.578-1.219-.844-.594-.281-1.219-.281-1.343 0-2.031 1.078-.688 1.062-.688 3.156 0 2.094.688 3.172.688 1.062 2.031 1.062.625 0 1.219-.265.594-.281 1.219-.86v2.72Z"/><text x="2731.5" y="1614.78" fill="#D9B8FF" font-family="Helvetica" font-size="17" textLength="389">aws_sagemaker_auto_ml_container_definition</text><path d="M2698.5 1628.789h429" style="stroke:#000d19;stroke-width:1.5"/><text x="2708.5" y="1647.999" fill="#D9B8FF" font-family="sans-serif" font-size="11" font-weight="bold" textLength="39">image</text><text x="2747.5" y="1647.999" fill="#D9B8FF" font-family="sans-serif" font-size="11" textLength="41">: string</text><text x="2708.5" y="1670.804" fill="#D9B8FF" font-family="sans-serif" font-size="11" font-weight="bold" textLength="97">model_data_url</text><text x="2805.5" y="1670.804" fill="#D9B8FF" font-family="sans-serif" font-size="11" textLength="41">: string</text><text x="2708.5" y="1693.609" fill="#D9B8FF" font-family="sans-serif" font-size="11" font-weight="bold" textLength="80">environment</text><text x="2788.5" y="1693.609" fill="#D9B8FF" font-family="sans-serif" font-size="11" textLength="145">: dictionary[string, string]</text></a><a xlink:actuate="onRequest" xlink:href="#r" xlink:show="new" xlink:title="#aws_sagemaker_candidate_properties" xlink:type="simple" target="_top"><rect id="r" width="469" height="93.398" x="3163.5" y="1600.5" fill="#3D176E" rx="2.5" ry="2.5" style="stroke:#000d19;stroke-width:1.5"/><circle cx="3230.25" cy="1620.395" r="11" fill="#E98DF7" style="stroke:#000d19;stroke-width:1"/><path d="M3233.219 1626.035q-.578.297-1.219.438-.64.156-1.344.156-2.5 0-3.828-1.64-1.312-1.657-1.312-4.782t1.312-4.781q1.328-1.656 3.828-1.656.703 0 1.344.156.656.156 1.219.453v2.719q-.625-.578-1.219-.844-.594-.281-1.219-.281-1.343 0-2.031 1.078-.688 1.062-.688 3.156 0 2.094.688 3.172.688 1.062 2.031 1.062.625 0 1.219-.265.594-.281 1.219-.86v2.72Z"/><text x="3255.75" y="1626.28" fill="#D9B8FF" font-family="Helvetica" font-size="17" textLength="317">aws_sagemaker_candidate_properties</text><path d="M3164.5 1640.289h467" style="stroke:#000d19;stroke-width:1.5"/><text x="3174.5" y="1659.499" fill="#D9B8FF" font-family="sans-serif" font-size="11" font-weight="bold" textLength="182">candidate_artifact_locations</text><text x="3356.5" y="1659.499" fill="#D9B8FF" font-family="sans-serif" font-size="11" textLength="265">: aws_sagemaker_candidate_artifact_locations</text><text x="3174.5" y="1682.304" fill="#D9B8FF" font-family="sans-serif" font-size="11" font-weight="bold" textLength="117">candidate_metrics</text><text x="3291.5" y="1682.304" fill="#D9B8FF" font-family="sans-serif" font-size="11" textLength="193">: aws_sagemaker_metric_datum[]</text></a><a xlink:actuate="onRequest" xlink:href="#s" xlink:show="new" xlink:title="#aws_sagemaker_candidate_artifact_locations" xlink:type="simple" target="_top"><rect id="s" width="418" height="93.398" x="2991" y="1788" fill="#3D176E" rx="2.5" ry="2.5" style="stroke:#000d19;stroke-width:1.5"/><circle cx="3006" cy="1807.895" r="11" fill="#E98DF7" style="stroke:#000d19;stroke-width:1"/><path d="M3008.969 1813.535q-.578.297-1.219.438-.64.156-1.344.156-2.5 0-3.828-1.64-1.312-1.657-1.312-4.782t1.312-4.781q1.328-1.656 3.828-1.656.703 0 1.344.156.656.156 1.219.453v2.719q-.625-.578-1.219-.844-.594-.281-1.219-.281-1.343 0-2.031 1.078-.688 1.062-.688 3.156 0 2.094.688 3.172.688 1.062 2.031 1.062.625 0 1.219-.265.594-.281 1.219-.86v2.72Z"/><text x="3025" y="1813.78" fill="#D9B8FF" font-family="Helvetica" font-size="17" textLength="376">aws_sagemaker_candidate_artifact_locations</text><path d="M2992 1827.789h416" style="stroke:#000d19;stroke-width:1.5"/><text x="3002" y="1846.999" fill="#D9B8FF" font-family="sans-serif" font-size="11" font-weight="bold" textLength="87">explainability</text><text x="3089" y="1846.999" fill="#D9B8FF" font-family="sans-serif" font-size="11" textLength="41">: string</text><text x="3002" y="1869.804" fill="#D9B8FF" font-family="sans-serif" font-size="11" font-weight="bold" textLength="96">model_insights</text><text x="3098" y="1869.804" fill="#D9B8FF" font-family="sans-serif" font-size="11" textLength="41">: string</text></a><a xlink:actuate="onRequest" xlink:href="#t" xlink:show="new" xlink:title="#aws_sagemaker_metric_datum" xlink:type="simple" target="_top"><rect id="t" width="303" height="139.008" x="3444.5" y="1765" fill="#3D176E" rx="2.5" ry="2.5" style="stroke:#000d19;stroke-width:1.5"/><circle cx="3459.5" cy="1784.895" r="11" fill="#E98DF7" style="stroke:#000d19;stroke-width:1"/><path d="M3462.469 1790.535q-.578.297-1.219.438-.64.156-1.344.156-2.5 0-3.828-1.64-1.312-1.657-1.312-4.782t1.312-4.781q1.328-1.656 3.828-1.656.703 0 1.344.156.656.156 1.219.453v2.719q-.625-.578-1.219-.844-.594-.281-1.219-.281-1.343 0-2.031 1.078-.688 1.062-.688 3.156 0 2.094.688 3.172.688 1.062 2.031 1.062.625 0 1.219-.265.594-.281 1.219-.86v2.72Z"/><text x="3478.5" y="1790.78" fill="#D9B8FF" font-family="Helvetica" font-size="17" textLength="261">aws_sagemaker_metric_datum</text><path d="M3445.5 1804.789h301" style="stroke:#000d19;stroke-width:1.5"/><text x="3455.5" y="1823.999" fill="#D9B8FF" font-family="sans-serif" font-size="11" font-weight="bold" textLength="81">metric_name</text><text x="3536.5" y="1823.999" fill="#D9B8FF" font-family="sans-serif" font-size="11" textLength="41">: string</text><text x="3455.5" y="1846.804" fill="#D9B8FF" font-family="sans-serif" font-size="11" font-weight="bold" textLength="35">value</text><text x="3490.5" y="1846.804" fill="#D9B8FF" font-family="sans-serif" font-size="11" textLength="46">: double</text><text x="3455.5" y="1869.609" fill="#D9B8FF" font-family="sans-serif" font-size="11" font-weight="bold" textLength="20">set</text><text x="3475.5" y="1869.609" fill="#D9B8FF" font-family="sans-serif" font-size="11" textLength="41">: string</text><text x="3455.5" y="1892.414" fill="#D9B8FF" font-family="sans-serif" font-size="11" font-weight="bold" textLength="144">standard_metric_name</text><text x="3599.5" y="1892.414" fill="#D9B8FF" font-family="sans-serif" font-size="11" textLength="41">: string</text></a><a xlink:actuate="onRequest" xlink:href="#u" xlink:show="new" xlink:title="#aws_sagemaker_resolved_attributes" xlink:type="simple" target="_top"><rect id="u" width="434" height="116.203" x="1725" y="1321.5" fill="#3D176E" rx="2.5" ry="2.5" style="stroke:#000d19;stroke-width:1.5"/><circle cx="1780.75" cy="1341.395" r="11" fill="#E98DF7" style="stroke:#000d19;stroke-width:1"/><path d="M1783.719 1347.035q-.578.297-1.219.438-.64.156-1.344.156-2.5 0-3.828-1.64-1.312-1.657-1.312-4.782t1.312-4.781q1.328-1.656 3.828-1.656.703 0 1.344.156.656.156 1.219.453v2.719q-.625-.578-1.219-.844-.594-.281-1.219-.281-1.343 0-2.031 1.078-.688 1.062-.688 3.156 0 2.094.688 3.172.688 1.062 2.031 1.062.625 0 1.219-.265.594-.281 1.219-.86v2.72Z"/><text x="1806.25" y="1347.28" fill="#D9B8FF" font-family="Helvetica" font-size="17" textLength="304">aws_sagemaker_resolved_attributes</text><path d="M1726 1361.289h432" style="stroke:#000d19;stroke-width:1.5"/><text x="1736" y="1380.499" fill="#D9B8FF" font-family="sans-serif" font-size="11" font-weight="bold" textLength="141">auto_ml_job_objective</text><text x="1877" y="1380.499" fill="#D9B8FF" font-family="sans-serif" font-size="11" textLength="41">: string</text><text x="1736" y="1403.304" fill="#D9B8FF" font-family="sans-serif" font-size="11" font-weight="bold" textLength="86">problem_type</text><text x="1822" y="1403.304" fill="#D9B8FF" font-family="sans-serif" font-size="11" textLength="41">: string</text><text x="1736" y="1426.109" fill="#D9B8FF" font-family="sans-serif" font-size="11" font-weight="bold" textLength="123">completion_criteria</text><text x="1859" y="1426.109" fill="#D9B8FF" font-family="sans-serif" font-size="11" textLength="289">: aws_sagemaker_auto_ml_job_completion_criteria</text></a><a xlink:actuate="onRequest" xlink:href="#v" xlink:show="new" xlink:title="#aws_sagemaker_model_deploy_config" xlink:type="simple" target="_top"><rect id="v" width="360" height="93.398" x="2777" y="1333" fill="#3D176E" rx="2.5" ry="2.5" style="stroke:#000d19;stroke-width:1.5"/><circle cx="2792" cy="1352.895" r="11" fill="#E98DF7" style="stroke:#000d19;stroke-width:1"/><path d="M2794.969 1358.535q-.578.297-1.219.438-.64.156-1.344.156-2.5 0-3.828-1.64-1.312-1.657-1.312-4.782t1.312-4.781q1.328-1.656 3.828-1.656.703 0 1.344.156.656.156 1.219.453v2.719q-.625-.578-1.219-.844-.594-.281-1.219-.281-1.343 0-2.031 1.078-.688 1.062-.688 3.156 0 2.094.688 3.172.688 1.062 2.031 1.062.625 0 1.219-.265.594-.281 1.219-.86v2.72Z"/><text x="2811" y="1358.78" fill="#D9B8FF" font-family="Helvetica" font-size="17" textLength="318">aws_sagemaker_model_deploy_config</text><path d="M2778 1372.789h358" style="stroke:#000d19;stroke-width:1.5"/><text x="2788" y="1391.999" fill="#D9B8FF" font-family="sans-serif" font-size="11" font-weight="bold" textLength="197">auto_generate_endpoint_name</text><text x="2985" y="1391.999" fill="#D9B8FF" font-family="sans-serif" font-size="11" textLength="53">: boolean</text><text x="2788" y="1414.804" fill="#D9B8FF" font-family="sans-serif" font-size="11" font-weight="bold" textLength="98">endpoint_name</text><text x="2886" y="1414.804" fill="#D9B8FF" font-family="sans-serif" font-size="11" textLength="41">: string</text></a><path fill="none" d="M1473 303.43V403.9m-7-100.64 7-20 7 20h-14zm7 353.09v100.23m-7-100.51 7-20 7 20h-14zm-239.03 336.11C997.85 1025.22 651.63 1094.05 379 1230c-33.63 16.77-66.58 40.8-94.95 64.65" style="stroke:#ffaf37;stroke-width:2"/><path fill="#FFAF37" d="m279.9 1298.17 9.454-2.762-5.638-.468.47-5.638-4.286 8.868z" style="stroke:#ffaf37;stroke-width:2"/><path fill="none" d="M1226.69 1055.55C1107.05 1102.76 962.56 1164.25 838 1230c-56.23 29.68-116.42 69.04-160.98 99.78" style="stroke:#ffaf37;stroke-width:2"/><path fill="#FFAF37" d="m672.76 1332.73 9.678-1.825-5.564-1.017 1.016-5.565-5.13 8.407z" style="stroke:#ffaf37;stroke-width:2"/><path fill="none" d="M1473 1170.29v122.6" style="stroke:#ffaf37;stroke-width:2"/><path fill="#FFAF37" d="m1473 1298.12 4-9-4 4-4-4 4 9z" style="stroke:#ffaf37;stroke-width:2"/><path fill="none" d="M1719.25 1050.02c136.12 49.14 307.42 114.04 456.75 179.98 4.58 2.02 9.2 4.09 13.84 6.18" style="stroke:#ffaf37;stroke-width:2"/><path fill="#FFAF37" d="m2194.48 1238.28-6.557-7.349 2 5.292-5.292 2 9.849.057z" style="stroke:#ffaf37;stroke-width:2"/><path fill="none" d="M1256.77 1170.29c-62.3 59.29-124.74 118.72-166.87 158.82" style="stroke:#ffaf37;stroke-width:2"/><path fill="#FFAF37" d="m1086.14 1332.68 9.275-3.311-5.655-.138.138-5.655-3.758 9.104z" style="stroke:#ffaf37;stroke-width:2"/><path fill="none" d="M1706.13 1170.29c61.14 53.97 122.41 108.06 167.18 147.57" style="stroke:#ffaf37;stroke-width:2"/><path fill="#FFAF37" d="m1877.31 1321.4-4.105-8.952.355 5.645-5.646.355 9.396 2.952z" style="stroke:#ffaf37;stroke-width:2"/><path fill="none" d="M1719.22 983.12c266.37 27.37 698.68 93.1 1039.78 246.88 54.42 24.54 108.09 66.18 145.8 99.14" style="stroke:#ffaf37;stroke-width:2"/><path fill="#FFAF37" d="m2908.86 1332.7-4.122-8.945.365 5.645-5.645.366 9.402 2.934z" style="stroke:#ffaf37;stroke-width:2"/><path fill="none" d="M1473 495.52v100.3m-7-100.43 7-20 7 20h-14zM198 1682.89v99.98" style="stroke:#ffaf37;stroke-width:2"/><path fill="#FFAF37" d="m198 1787.89 4-9-4 4-4-4 4 9z" style="stroke:#ffaf37;stroke-width:2"/><path fill="none" d="M198 1460.52v145.89" style="stroke:#ffaf37;stroke-width:2"/><path fill="#FFAF37" d="m198 1611.45 4-9-4 4-4-4 4 9z" style="stroke:#ffaf37;stroke-width:2"/><path fill="none" d="M1479.03 1460.52c2.97 39.44 6.5 86.29 9.27 123.04" style="stroke:#ffaf37;stroke-width:2"/><path fill="#FFAF37" d="m1488.7 1588.9 3.32-9.272-3.691 4.286-4.287-3.692 4.658 8.678z" style="stroke:#ffaf37;stroke-width:2"/><path fill="none" d="M1348.27 1460.64c-35.45 22.42-74.22 46.59-110.27 68.36-31.45 18.99-65.97 39.14-97.48 57.27" style="stroke:#ffaf37;stroke-width:2"/><path fill="#FFAF37" d="m1135.89 1588.93 9.795-1.024-5.462-1.47 1.471-5.463-5.804 7.957z" style="stroke:#ffaf37;stroke-width:2"/><path fill="none" d="M1035 1705.17v77.76" style="stroke:#ffaf37;stroke-width:2"/><path fill="#FFAF37" d="m1035 1787.99 4-9-4 4-4-4 4 9z" style="stroke:#ffaf37;stroke-width:2"/><path fill="none" d="M2204.83 1529.16c-35.78 20.22-70.69 39.93-101.32 57.24" style="stroke:#ffaf37;stroke-width:2"/><path fill="#FFAF37" d="m2099.02 1588.93 9.804-.937-5.449-1.52 1.52-5.448-5.875 7.905z" style="stroke:#ffaf37;stroke-width:2"/><path fill="none" d="M2468 1529.16v54.67" style="stroke:#ffaf37;stroke-width:2"/><path fill="#FFAF37" d="m2468 1588.93 4-9-4 4-4-4 4 9z" style="stroke:#ffaf37;stroke-width:2"/><path fill="none" d="M2717.17 1529.16c33.74 20.13 66.66 39.77 95.58 57.03" style="stroke:#ffaf37;stroke-width:2"/><path fill="#FFAF37" d="m2817.35 1588.93-5.671-8.052 1.38 5.486-5.486 1.38 9.777 1.186z" style="stroke:#ffaf37;stroke-width:2"/><path fill="none" d="M2741.53 1523.07c5.84 2.07 11.67 4.05 17.47 5.93 165.61 53.57 216.02 27.45 387 60 16.92 3.22 34.43 6.76 51.97 10.44" style="stroke:#ffaf37;stroke-width:2"/><path fill="#FFAF37" d="m3202.92 1600.49-7.986-5.764 3.093 4.737-4.737 3.093 9.63-2.066z" style="stroke:#ffaf37;stroke-width:2"/><path fill="none" d="M3349.31 1693.62c-29.26 27.41-66.5 62.3-96.47 90.38" style="stroke:#ffaf37;stroke-width:2"/><path fill="#FFAF37" d="m3248.85 1787.74 9.308-3.218-5.653-.194.194-5.654-3.849 9.066z" style="stroke:#ffaf37;stroke-width:2"/><path fill="none" d="M3446.69 1693.62c21.74 20.36 47.88 44.86 72.18 67.62" style="stroke:#ffaf37;stroke-width:2"/><path fill="#FFAF37" d="m3522.75 1764.88-3.831-9.073.183 5.654-5.654.183 9.302 3.236z" style="stroke:#ffaf37;stroke-width:2"/><path fill="none" d="M1854.65 1437.54c-43.9 28.19-98.15 62.33-147.65 91.46-32.83 19.32-69.01 39.51-102.14 57.57" style="stroke:#ffaf37;stroke-width:2"/><path fill="#FFAF37" d="m1600.42 1588.99 9.816-.798-5.427-1.596 1.597-5.427-5.986 7.821z" style="stroke:#ffaf37;stroke-width:2"/></svg>