<svg xmlns="http://www.w3.org/2000/svg" xmlns:xlink="http://www.w3.org/1999/xlink" width="3021" height="1407" preserveAspectRatio="none" style="width:3021px;height:1407px;background:#00000000"><a xlink:actuate="onRequest" xlink:href="#a" xlink:show="new" xlink:title="#aws_resource" xlink:type="simple" target="_top"><rect id="a" width="155" height="70.594" x="1137" y="404" fill="#3D176E" rx="2.5" ry="2.5" style="stroke:#000d19;stroke-width:1.5"/><circle cx="1152" cy="423.894" r="11" fill="#E98DF7" style="stroke:#000d19;stroke-width:1"/><path d="M1154.969 429.535q-.578.297-1.219.438-.64.156-1.344.156-2.5 0-3.828-1.64-1.312-1.657-1.312-4.782t1.312-4.781q1.328-1.656 3.828-1.656.703 0 1.344.156.656.156 1.219.453v2.719q-.625-.579-1.219-.844-.594-.281-1.219-.281-1.343 0-2.031 1.078-.688 1.062-.688 3.156 0 2.094.688 3.172.688 1.062 2.031 1.062.625 0 1.219-.265.594-.281 1.219-.86v2.72Z"/><text x="1171" y="429.78" fill="#D9B8FF" font-family="Helvetica" font-size="17" textLength="113">aws_resource</text><path d="M1138 443.789h153" style="stroke:#000d19;stroke-width:1.5"/><text x="1148" y="463" fill="#D9B8FF" font-family="sans-serif" font-size="11" font-weight="bold" textLength="21">arn</text><text x="1169" y="463" fill="#D9B8FF" font-family="sans-serif" font-size="11" textLength="41">: string</text></a><a xlink:actuate="onRequest" xlink:href="#b" xlink:show="new" xlink:title="#resource" xlink:type="simple" target="_top"><rect id="b" width="195" height="275.836" x="1117" y="7" fill="#3D176E" rx="2.5" ry="2.5" style="stroke:#000d19;stroke-width:1.5"/><circle cx="1169.75" cy="26.895" r="11" fill="#E98DF7" style="stroke:#000d19;stroke-width:1"/><path d="M1172.719 32.535q-.578.297-1.219.438-.64.156-1.344.156-2.5 0-3.828-1.64-1.312-1.657-1.312-4.782t1.312-4.781q1.328-1.656 3.828-1.656.703 0 1.344.156.656.156 1.219.453v2.719q-.625-.578-1.219-.844-.594-.281-1.219-.281-1.343 0-2.031 1.078-.688 1.062-.688 3.156 0 2.094.688 3.172.688 1.062 2.031 1.062.625 0 1.219-.265.594-.281 1.219-.86v2.72Z"/><text x="1195.25" y="32.78" fill="#D9B8FF" font-family="Helvetica" font-size="17" textLength="71">resource</text><path d="M1118 46.789h193" style="stroke:#000d19;stroke-width:1.5"/><text x="1128" y="65.999" fill="#D9B8FF" font-family="sans-serif" font-size="11" font-weight="bold" textLength="12">id</text><text x="1140" y="65.999" fill="#D9B8FF" font-family="sans-serif" font-size="11" textLength="41">: string</text><text x="1128" y="88.804" fill="#D9B8FF" font-family="sans-serif" font-size="11" font-weight="bold" textLength="28">tags</text><text x="1156" y="88.804" fill="#D9B8FF" font-family="sans-serif" font-size="11" textLength="145">: dictionary[string, string]</text><text x="1128" y="111.609" fill="#D9B8FF" font-family="sans-serif" font-size="11" font-weight="bold" textLength="35">name</text><text x="1163" y="111.609" fill="#D9B8FF" font-family="sans-serif" font-size="11" textLength="41">: string</text><text x="1128" y="134.414" fill="#D9B8FF" font-family="sans-serif" font-size="11" font-weight="bold" textLength="35">ctime</text><text x="1163" y="134.414" fill="#D9B8FF" font-family="sans-serif" font-size="11" textLength="58">: datetime</text><text x="1128" y="157.218" fill="#D9B8FF" font-family="sans-serif" font-size="11" font-weight="bold" textLength="24">age</text><text x="1152" y="157.218" fill="#D9B8FF" font-family="sans-serif" font-size="11" textLength="55">: duration</text><text x="1128" y="180.023" fill="#D9B8FF" font-family="sans-serif" font-size="11" font-weight="bold" textLength="39">mtime</text><text x="1167" y="180.023" fill="#D9B8FF" font-family="sans-serif" font-size="11" textLength="58">: datetime</text><text x="1128" y="202.828" fill="#D9B8FF" font-family="sans-serif" font-size="11" font-weight="bold" textLength="75">last_update</text><text x="1203" y="202.828" fill="#D9B8FF" font-family="sans-serif" font-size="11" textLength="55">: duration</text><text x="1128" y="225.632" fill="#D9B8FF" font-family="sans-serif" font-size="11" font-weight="bold" textLength="36">atime</text><text x="1164" y="225.632" fill="#D9B8FF" font-family="sans-serif" font-size="11" textLength="58">: datetime</text><text x="1128" y="248.437" fill="#D9B8FF" font-family="sans-serif" font-size="11" font-weight="bold" textLength="74">last_access</text><text x="1202" y="248.437" fill="#D9B8FF" font-family="sans-serif" font-size="11" textLength="55">: duration</text><text x="1128" y="271.242" fill="#D9B8FF" font-family="sans-serif" font-size="11" font-weight="bold" textLength="27">kind</text><text x="1155" y="271.242" fill="#D9B8FF" font-family="sans-serif" font-size="11" textLength="41">: string</text></a><a xlink:actuate="onRequest" xlink:href="#c" xlink:show="new" xlink:title="#aws_cloudfront_response_headers_policy" xlink:type="simple" target="_top"><rect id="c" width="514" height="93.398" x="957.5" y="596" fill="#3D176E" rx="2.5" ry="2.5" style="stroke:#000d19;stroke-width:1.5"/><circle cx="1034.25" cy="615.894" r="11" fill="#E98DF7" style="stroke:#000d19;stroke-width:1"/><path d="M1037.219 621.535q-.578.297-1.219.438-.64.156-1.344.156-2.5 0-3.828-1.64-1.312-1.657-1.312-4.782t1.312-4.781q1.328-1.657 3.828-1.657.703 0 1.344.157.656.156 1.219.453v2.719q-.625-.578-1.219-.844-.594-.281-1.219-.281-1.343 0-2.031 1.078-.688 1.062-.688 3.156 0 2.094.688 3.172.688 1.062 2.031 1.062.625 0 1.219-.265.594-.282 1.219-.86v2.72Z"/><text x="1059.75" y="621.78" fill="#D9B8FF" font-family="Helvetica" font-size="17" textLength="342">aws_cloudfront_response_headers_policy</text><path d="M958.5 635.789h512" style="stroke:#000d19;stroke-width:1.5"/><text x="968.5" y="655" fill="#D9B8FF" font-family="sans-serif" font-size="11" font-weight="bold" textLength="195">response_headers_policy_type</text><text x="1163.5" y="655" fill="#D9B8FF" font-family="sans-serif" font-size="11" textLength="41">: string</text><text x="968.5" y="677.804" fill="#D9B8FF" font-family="sans-serif" font-size="11" font-weight="bold" textLength="207">response_headers_policy_config</text><text x="1175.5" y="677.804" fill="#D9B8FF" font-family="sans-serif" font-size="11" textLength="285">: aws_cloudfront_response_headers_policy_config</text></a><a xlink:actuate="onRequest" xlink:href="#d" xlink:show="new" xlink:title="#aws_cloudfront_response_headers_policy_server_timing_headers_config" xlink:type="simple" target="_top"><rect id="d" width="643" height="93.398" x="7" y="1051" fill="#3D176E" rx="2.5" ry="2.5" style="stroke:#000d19;stroke-width:1.5"/><circle cx="22" cy="1070.895" r="11" fill="#E98DF7" style="stroke:#000d19;stroke-width:1"/><path d="M24.969 1076.535q-.578.297-1.219.438-.64.156-1.344.156-2.5 0-3.828-1.64-1.312-1.657-1.312-4.782t1.312-4.781q1.328-1.656 3.828-1.656.703 0 1.344.156.656.156 1.219.453v2.719q-.625-.578-1.219-.844-.594-.281-1.219-.281-1.343 0-2.031 1.078-.688 1.062-.688 3.156 0 2.094.688 3.172.688 1.062 2.031 1.062.625 0 1.219-.265.594-.281 1.219-.86v2.72Z"/><text x="41" y="1076.78" fill="#D9B8FF" font-family="Helvetica" font-size="17" textLength="601">aws_cloudfront_response_headers_policy_server_timing_headers_config</text><path d="M8 1090.789h641" style="stroke:#000d19;stroke-width:1.5"/><text x="18" y="1109.999" fill="#D9B8FF" font-family="sans-serif" font-size="11" font-weight="bold" textLength="52">enabled</text><text x="70" y="1109.999" fill="#D9B8FF" font-family="sans-serif" font-size="11" textLength="53">: boolean</text><text x="18" y="1132.804" fill="#D9B8FF" font-family="sans-serif" font-size="11" font-weight="bold" textLength="90">sampling_rate</text><text x="108" y="1132.804" fill="#D9B8FF" font-family="sans-serif" font-size="11" textLength="46">: double</text></a><a xlink:actuate="onRequest" xlink:href="#e" xlink:show="new" xlink:title="#aws_cloudfront_response_headers_policy_config" xlink:type="simple" target="_top"><rect id="e" width="634" height="184.617" x="897.5" y="749" fill="#3D176E" rx="2.5" ry="2.5" style="stroke:#000d19;stroke-width:1.5"/><circle cx="1004.75" cy="768.894" r="11" fill="#E98DF7" style="stroke:#000d19;stroke-width:1"/><path d="M1007.719 774.535q-.578.297-1.219.438-.64.156-1.344.156-2.5 0-3.828-1.64-1.312-1.657-1.312-4.782t1.312-4.781q1.328-1.657 3.828-1.657.703 0 1.344.157.656.156 1.219.453v2.719q-.625-.578-1.219-.844-.594-.281-1.219-.281-1.343 0-2.031 1.078-.688 1.062-.688 3.156 0 2.094.688 3.172.688 1.062 2.031 1.062.625 0 1.219-.265.594-.282 1.219-.86v2.72Z"/><text x="1030.25" y="774.78" fill="#D9B8FF" font-family="Helvetica" font-size="17" textLength="401">aws_cloudfront_response_headers_policy_config</text><path d="M898.5 788.789h632" style="stroke:#000d19;stroke-width:1.5"/><text x="908.5" y="808" fill="#D9B8FF" font-family="sans-serif" font-size="11" font-weight="bold" textLength="58">comment</text><text x="966.5" y="808" fill="#D9B8FF" font-family="sans-serif" font-size="11" textLength="41">: string</text><text x="908.5" y="830.804" fill="#D9B8FF" font-family="sans-serif" font-size="11" font-weight="bold" textLength="35">name</text><text x="943.5" y="830.804" fill="#D9B8FF" font-family="sans-serif" font-size="11" textLength="41">: string</text><text x="908.5" y="853.609" fill="#D9B8FF" font-family="sans-serif" font-size="11" font-weight="bold" textLength="73">cors_config</text><text x="981.5" y="853.609" fill="#D9B8FF" font-family="sans-serif" font-size="11" textLength="316">: aws_cloudfront_response_headers_policy_cors_config</text><text x="908.5" y="876.414" fill="#D9B8FF" font-family="sans-serif" font-size="11" font-weight="bold" textLength="155">security_headers_config</text><text x="1063.5" y="876.414" fill="#D9B8FF" font-family="sans-serif" font-size="11" textLength="389">: aws_cloudfront_response_headers_policy_security_headers_config</text><text x="908.5" y="899.218" fill="#D9B8FF" font-family="sans-serif" font-size="11" font-weight="bold" textLength="190">server_timing_headers_config</text><text x="1098.5" y="899.218" fill="#D9B8FF" font-family="sans-serif" font-size="11" textLength="422">: aws_cloudfront_response_headers_policy_server_timing_headers_config</text><text x="908.5" y="922.023" fill="#D9B8FF" font-family="sans-serif" font-size="11" font-weight="bold" textLength="150">custom_headers_config</text><text x="1058.5" y="922.023" fill="#D9B8FF" font-family="sans-serif" font-size="11" textLength="347">: aws_cloudfront_response_headers_policy_custom_header[]</text></a><a xlink:actuate="onRequest" xlink:href="#f" xlink:show="new" xlink:title="#aws_cloudfront_response_headers_policy_cors_config" xlink:type="simple" target="_top"><rect id="f" width="485" height="207.422" x="685" y="994" fill="#3D176E" rx="2.5" ry="2.5" style="stroke:#000d19;stroke-width:1.5"/><circle cx="700" cy="1013.894" r="11" fill="#E98DF7" style="stroke:#000d19;stroke-width:1"/><path d="M702.969 1019.535q-.578.297-1.219.438-.64.156-1.344.156-2.5 0-3.828-1.64-1.312-1.657-1.312-4.782t1.312-4.781q1.328-1.657 3.828-1.657.703 0 1.344.157.656.156 1.219.453v2.719q-.625-.578-1.219-.844-.594-.281-1.219-.281-1.343 0-2.031 1.078-.688 1.062-.688 3.156 0 2.094.688 3.172.688 1.062 2.031 1.062.625 0 1.219-.265.594-.282 1.219-.86v2.72Z"/><text x="719" y="1019.78" fill="#D9B8FF" font-family="Helvetica" font-size="17" textLength="443">aws_cloudfront_response_headers_policy_cors_config</text><path d="M686 1033.789h483" style="stroke:#000d19;stroke-width:1.5"/><text x="696" y="1052.999" fill="#D9B8FF" font-family="sans-serif" font-size="11" font-weight="bold" textLength="186">access_control_allow_origins</text><text x="882" y="1052.999" fill="#D9B8FF" font-family="sans-serif" font-size="11" textLength="49">: string[]</text><text x="696" y="1075.804" fill="#D9B8FF" font-family="sans-serif" font-size="11" font-weight="bold" textLength="194">access_control_allow_headers</text><text x="890" y="1075.804" fill="#D9B8FF" font-family="sans-serif" font-size="11" textLength="49">: string[]</text><text x="696" y="1098.609" fill="#D9B8FF" font-family="sans-serif" font-size="11" font-weight="bold" textLength="197">access_control_allow_methods</text><text x="893" y="1098.609" fill="#D9B8FF" font-family="sans-serif" font-size="11" textLength="49">: string[]</text><text x="696" y="1121.414" fill="#D9B8FF" font-family="sans-serif" font-size="11" font-weight="bold" textLength="214">access_control_allow_credentials</text><text x="910" y="1121.414" fill="#D9B8FF" font-family="sans-serif" font-size="11" textLength="53">: boolean</text><text x="696" y="1144.218" fill="#D9B8FF" font-family="sans-serif" font-size="11" font-weight="bold" textLength="205">access_control_expose_headers</text><text x="901" y="1144.218" fill="#D9B8FF" font-family="sans-serif" font-size="11" textLength="49">: string[]</text><text x="696" y="1167.023" fill="#D9B8FF" font-family="sans-serif" font-size="11" font-weight="bold" textLength="185">access_control_max_age_sec</text><text x="881" y="1167.023" fill="#D9B8FF" font-family="sans-serif" font-size="11" textLength="36">: int64</text><text x="696" y="1189.828" fill="#D9B8FF" font-family="sans-serif" font-size="11" font-weight="bold" textLength="96">origin_override</text><text x="792" y="1189.828" fill="#D9B8FF" font-family="sans-serif" font-size="11" textLength="53">: boolean</text></a><a xlink:actuate="onRequest" xlink:href="#g" xlink:show="new" xlink:title="#aws_cloudfront_response_headers_policy_security_headers_config" xlink:type="simple" target="_top"><rect id="g" width="593" height="184.617" x="1205" y="1005" fill="#3D176E" rx="2.5" ry="2.5" style="stroke:#000d19;stroke-width:1.5"/><circle cx="1220" cy="1024.895" r="11" fill="#E98DF7" style="stroke:#000d19;stroke-width:1"/><path d="M1222.969 1030.535q-.578.297-1.219.438-.64.156-1.344.156-2.5 0-3.828-1.64-1.312-1.657-1.312-4.782t1.312-4.781q1.328-1.657 3.828-1.657.703 0 1.344.157.656.156 1.219.453v2.719q-.625-.578-1.219-.844-.594-.281-1.219-.281-1.343 0-2.031 1.078-.688 1.062-.688 3.156 0 2.094.688 3.172.688 1.062 2.031 1.062.625 0 1.219-.265.594-.281 1.219-.86v2.72Z"/><text x="1239" y="1030.78" fill="#D9B8FF" font-family="Helvetica" font-size="17" textLength="551">aws_cloudfront_response_headers_policy_security_headers_config</text><path d="M1206 1044.789h591" style="stroke:#000d19;stroke-width:1.5"/><text x="1216" y="1063.999" fill="#D9B8FF" font-family="sans-serif" font-size="11" font-weight="bold" textLength="93">xss_protection</text><text x="1309" y="1063.999" fill="#D9B8FF" font-family="sans-serif" font-size="11" textLength="334">: aws_cloudfront_response_headers_policy_xss_protection</text><text x="1216" y="1086.804" fill="#D9B8FF" font-family="sans-serif" font-size="11" font-weight="bold" textLength="91">frame_options</text><text x="1307" y="1086.804" fill="#D9B8FF" font-family="sans-serif" font-size="11" textLength="333">: aws_cloudfront_response_headers_policy_frame_options</text><text x="1216" y="1109.609" fill="#D9B8FF" font-family="sans-serif" font-size="11" font-weight="bold" textLength="93">referrer_policy</text><text x="1309" y="1109.609" fill="#D9B8FF" font-family="sans-serif" font-size="11" textLength="334">: aws_cloudfront_response_headers_policy_referrer_policy</text><text x="1216" y="1132.414" fill="#D9B8FF" font-family="sans-serif" font-size="11" font-weight="bold" textLength="150">content_security_policy</text><text x="1366" y="1132.414" fill="#D9B8FF" font-family="sans-serif" font-size="11" textLength="382">: aws_cloudfront_response_headers_policy_content_security_policy</text><text x="1216" y="1155.218" fill="#D9B8FF" font-family="sans-serif" font-size="11" font-weight="bold" textLength="137">content_type_options</text><text x="1353" y="1155.218" fill="#D9B8FF" font-family="sans-serif" font-size="11" textLength="53">: boolean</text><text x="1216" y="1178.023" fill="#D9B8FF" font-family="sans-serif" font-size="11" font-weight="bold" textLength="155">strict_transport_security</text><text x="1371" y="1178.023" fill="#D9B8FF" font-family="sans-serif" font-size="11" textLength="390">: aws_cloudfront_response_headers_policy_strict_transport_security</text></a><a xlink:actuate="onRequest" xlink:href="#h" xlink:show="new" xlink:title="#aws_cloudfront_response_headers_policy_xss_protection" xlink:type="simple" target="_top"><rect id="h" width="513" height="139.008" x="148" y="1261" fill="#3D176E" rx="2.5" ry="2.5" style="stroke:#000d19;stroke-width:1.5"/><circle cx="163" cy="1280.895" r="11" fill="#E98DF7" style="stroke:#000d19;stroke-width:1"/><path d="M165.969 1286.535q-.578.297-1.219.438-.64.156-1.344.156-2.5 0-3.828-1.64-1.312-1.657-1.312-4.782t1.312-4.781q1.328-1.656 3.828-1.656.703 0 1.344.156.656.156 1.219.453v2.719q-.625-.578-1.219-.844-.594-.281-1.219-.281-1.344 0-2.031 1.078-.688 1.062-.688 3.156 0 2.094.688 3.172.688 1.062 2.031 1.062.625 0 1.219-.265.594-.281 1.219-.86v2.72Z"/><text x="182" y="1286.78" fill="#D9B8FF" font-family="Helvetica" font-size="17" textLength="471">aws_cloudfront_response_headers_policy_xss_protection</text><path d="M149 1300.789h511" style="stroke:#000d19;stroke-width:1.5"/><text x="159" y="1319.999" fill="#D9B8FF" font-family="sans-serif" font-size="11" font-weight="bold" textLength="53">override</text><text x="212" y="1319.999" fill="#D9B8FF" font-family="sans-serif" font-size="11" textLength="53">: boolean</text><text x="159" y="1342.804" fill="#D9B8FF" font-family="sans-serif" font-size="11" font-weight="bold" textLength="66">protection</text><text x="225" y="1342.804" fill="#D9B8FF" font-family="sans-serif" font-size="11" textLength="53">: boolean</text><text x="159" y="1365.609" fill="#D9B8FF" font-family="sans-serif" font-size="11" font-weight="bold" textLength="75">mode_block</text><text x="234" y="1365.609" fill="#D9B8FF" font-family="sans-serif" font-size="11" textLength="53">: boolean</text><text x="159" y="1388.414" fill="#D9B8FF" font-family="sans-serif" font-size="11" font-weight="bold" textLength="62">report_uri</text><text x="221" y="1388.414" fill="#D9B8FF" font-family="sans-serif" font-size="11" textLength="41">: string</text></a><a xlink:actuate="onRequest" xlink:href="#i" xlink:show="new" xlink:title="#aws_cloudfront_response_headers_policy_frame_options" xlink:type="simple" target="_top"><rect id="i" width="513" height="93.398" x="696" y="1284" fill="#3D176E" rx="2.5" ry="2.5" style="stroke:#000d19;stroke-width:1.5"/><circle cx="711" cy="1303.895" r="11" fill="#E98DF7" style="stroke:#000d19;stroke-width:1"/><path d="M713.969 1309.535q-.578.297-1.219.438-.64.156-1.344.156-2.5 0-3.828-1.64-1.312-1.657-1.312-4.782t1.312-4.781q1.328-1.656 3.828-1.656.703 0 1.344.156.656.156 1.219.453v2.719q-.625-.578-1.219-.844-.594-.281-1.219-.281-1.343 0-2.031 1.078-.688 1.062-.688 3.156 0 2.094.688 3.172.688 1.062 2.031 1.062.625 0 1.219-.265.594-.281 1.219-.86v2.72Z"/><text x="730" y="1309.78" fill="#D9B8FF" font-family="Helvetica" font-size="17" textLength="471">aws_cloudfront_response_headers_policy_frame_options</text><path d="M697 1323.789h511" style="stroke:#000d19;stroke-width:1.5"/><text x="707" y="1342.999" fill="#D9B8FF" font-family="sans-serif" font-size="11" font-weight="bold" textLength="53">override</text><text x="760" y="1342.999" fill="#D9B8FF" font-family="sans-serif" font-size="11" textLength="53">: boolean</text><text x="707" y="1365.804" fill="#D9B8FF" font-family="sans-serif" font-size="11" font-weight="bold" textLength="84">frame_option</text><text x="791" y="1365.804" fill="#D9B8FF" font-family="sans-serif" font-size="11" textLength="41">: string</text></a><a xlink:actuate="onRequest" xlink:href="#j" xlink:show="new" xlink:title="#aws_cloudfront_response_headers_policy_referrer_policy" xlink:type="simple" target="_top"><rect id="j" width="514" height="93.398" x="1244.5" y="1284" fill="#3D176E" rx="2.5" ry="2.5" style="stroke:#000d19;stroke-width:1.5"/><circle cx="1259.5" cy="1303.895" r="11" fill="#E98DF7" style="stroke:#000d19;stroke-width:1"/><path d="M1262.469 1309.535q-.578.297-1.219.438-.64.156-1.344.156-2.5 0-3.828-1.64-1.312-1.657-1.312-4.782t1.312-4.781q1.328-1.656 3.828-1.656.703 0 1.344.156.656.156 1.219.453v2.719q-.625-.578-1.219-.844-.594-.281-1.219-.281-1.343 0-2.031 1.078-.688 1.062-.688 3.156 0 2.094.688 3.172.688 1.062 2.031 1.062.625 0 1.219-.265.594-.281 1.219-.86v2.72Z"/><text x="1278.5" y="1309.78" fill="#D9B8FF" font-family="Helvetica" font-size="17" textLength="472">aws_cloudfront_response_headers_policy_referrer_policy</text><path d="M1245.5 1323.789h512" style="stroke:#000d19;stroke-width:1.5"/><text x="1255.5" y="1342.999" fill="#D9B8FF" font-family="sans-serif" font-size="11" font-weight="bold" textLength="53">override</text><text x="1308.5" y="1342.999" fill="#D9B8FF" font-family="sans-serif" font-size="11" textLength="53">: boolean</text><text x="1255.5" y="1365.804" fill="#D9B8FF" font-family="sans-serif" font-size="11" font-weight="bold" textLength="93">referrer_policy</text><text x="1348.5" y="1365.804" fill="#D9B8FF" font-family="sans-serif" font-size="11" textLength="41">: string</text></a><a xlink:actuate="onRequest" xlink:href="#k" xlink:show="new" xlink:title="#aws_cloudfront_response_headers_policy_content_security_policy" xlink:type="simple" target="_top"><rect id="k" width="589" height="93.398" x="1794" y="1284" fill="#3D176E" rx="2.5" ry="2.5" style="stroke:#000d19;stroke-width:1.5"/><circle cx="1809" cy="1303.895" r="11" fill="#E98DF7" style="stroke:#000d19;stroke-width:1"/><path d="M1811.969 1309.535q-.578.297-1.219.438-.64.156-1.344.156-2.5 0-3.828-1.64-1.312-1.657-1.312-4.782t1.312-4.781q1.328-1.656 3.828-1.656.703 0 1.344.156.656.156 1.219.453v2.719q-.625-.578-1.219-.844-.594-.281-1.219-.281-1.343 0-2.031 1.078-.688 1.062-.688 3.156 0 2.094.688 3.172.688 1.062 2.031 1.062.625 0 1.219-.265.594-.281 1.219-.86v2.72Z"/><text x="1828" y="1309.78" fill="#D9B8FF" font-family="Helvetica" font-size="17" textLength="547">aws_cloudfront_response_headers_policy_content_security_policy</text><path d="M1795 1323.789h587" style="stroke:#000d19;stroke-width:1.5"/><text x="1805" y="1342.999" fill="#D9B8FF" font-family="sans-serif" font-size="11" font-weight="bold" textLength="53">override</text><text x="1858" y="1342.999" fill="#D9B8FF" font-family="sans-serif" font-size="11" textLength="53">: boolean</text><text x="1805" y="1365.804" fill="#D9B8FF" font-family="sans-serif" font-size="11" font-weight="bold" textLength="150">content_security_policy</text><text x="1955" y="1365.804" fill="#D9B8FF" font-family="sans-serif" font-size="11" textLength="41">: string</text></a><a xlink:actuate="onRequest" xlink:href="#l" xlink:show="new" xlink:title="#aws_cloudfront_response_headers_policy_strict_transport_security" xlink:type="simple" target="_top"><rect id="l" width="596" height="139.008" x="2418.5" y="1261" fill="#3D176E" rx="2.5" ry="2.5" style="stroke:#000d19;stroke-width:1.5"/><circle cx="2433.5" cy="1280.895" r="11" fill="#E98DF7" style="stroke:#000d19;stroke-width:1"/><path d="M2436.469 1286.535q-.578.297-1.219.438-.64.156-1.344.156-2.5 0-3.828-1.64-1.312-1.657-1.312-4.782t1.312-4.781q1.328-1.656 3.828-1.656.703 0 1.344.156.656.156 1.219.453v2.719q-.625-.578-1.219-.844-.594-.281-1.219-.281-1.343 0-2.031 1.078-.688 1.062-.688 3.156 0 2.094.688 3.172.688 1.062 2.031 1.062.625 0 1.219-.265.594-.281 1.219-.86v2.72Z"/><text x="2452.5" y="1286.78" fill="#D9B8FF" font-family="Helvetica" font-size="17" textLength="554">aws_cloudfront_response_headers_policy_strict_transport_security</text><path d="M2419.5 1300.789h594" style="stroke:#000d19;stroke-width:1.5"/><text x="2429.5" y="1319.999" fill="#D9B8FF" font-family="sans-serif" font-size="11" font-weight="bold" textLength="53">override</text><text x="2482.5" y="1319.999" fill="#D9B8FF" font-family="sans-serif" font-size="11" textLength="53">: boolean</text><text x="2429.5" y="1342.804" fill="#D9B8FF" font-family="sans-serif" font-size="11" font-weight="bold" textLength="130">include_subdomains</text><text x="2559.5" y="1342.804" fill="#D9B8FF" font-family="sans-serif" font-size="11" textLength="53">: boolean</text><text x="2429.5" y="1365.609" fill="#D9B8FF" font-family="sans-serif" font-size="11" font-weight="bold" textLength="49">preload</text><text x="2478.5" y="1365.609" fill="#D9B8FF" font-family="sans-serif" font-size="11" textLength="53">: boolean</text><text x="2429.5" y="1388.414" fill="#D9B8FF" font-family="sans-serif" font-size="11" font-weight="bold" textLength="185">access_control_max_age_sec</text><text x="2614.5" y="1388.414" fill="#D9B8FF" font-family="sans-serif" font-size="11" textLength="36">: int64</text></a><a xlink:actuate="onRequest" xlink:href="#m" xlink:show="new" xlink:title="#aws_cloudfront_response_headers_policy_custom_header" xlink:type="simple" target="_top"><rect id="m" width="521" height="116.203" x="1833" y="1039.5" fill="#3D176E" rx="2.5" ry="2.5" style="stroke:#000d19;stroke-width:1.5"/><circle cx="1848" cy="1059.395" r="11" fill="#E98DF7" style="stroke:#000d19;stroke-width:1"/><path d="M1850.969 1065.035q-.578.297-1.219.438-.64.156-1.344.156-2.5 0-3.828-1.64-1.312-1.657-1.312-4.782t1.312-4.781q1.328-1.656 3.828-1.656.703 0 1.344.156.656.156 1.219.453v2.719q-.625-.578-1.219-.844-.594-.281-1.219-.281-1.343 0-2.031 1.078-.688 1.062-.688 3.156 0 2.094.688 3.172.688 1.062 2.031 1.062.625 0 1.219-.265.594-.281 1.219-.86v2.72Z"/><text x="1867" y="1065.28" fill="#D9B8FF" font-family="Helvetica" font-size="17" textLength="479">aws_cloudfront_response_headers_policy_custom_header</text><path d="M1834 1079.289h519" style="stroke:#000d19;stroke-width:1.5"/><text x="1844" y="1098.499" fill="#D9B8FF" font-family="sans-serif" font-size="11" font-weight="bold" textLength="45">header</text><text x="1889" y="1098.499" fill="#D9B8FF" font-family="sans-serif" font-size="11" textLength="41">: string</text><text x="1844" y="1121.304" fill="#D9B8FF" font-family="sans-serif" font-size="11" font-weight="bold" textLength="35">value</text><text x="1879" y="1121.304" fill="#D9B8FF" font-family="sans-serif" font-size="11" textLength="41">: string</text><text x="1844" y="1144.109" fill="#D9B8FF" font-family="sans-serif" font-size="11" font-weight="bold" textLength="53">override</text><text x="1897" y="1144.109" fill="#D9B8FF" font-family="sans-serif" font-size="11" textLength="53">: boolean</text></a><path fill="none" d="M1214.5 303.43V403.9m-7-100.64 7-20 7 20h-14zm7 192.17v100.3m-7-100.68 7-20 7 20h-14zm7 194.14v54.35" style="stroke:#ffaf37;stroke-width:2"/><path fill="#FFAF37" d="m1214.5 748.88 4-9-4 4-4-4 4 9z" style="stroke:#ffaf37;stroke-width:2"/><path fill="none" d="M1110.89 934.2c-20.56 18.19-42.3 37.44-63.35 56.07" style="stroke:#ffaf37;stroke-width:2"/><path fill="#FFAF37" d="m1043.61 993.74 9.39-2.972-5.647-.343.343-5.646-4.086 8.961z" style="stroke:#ffaf37;stroke-width:2"/><path fill="none" d="M1318.11 934.2c24.69 21.85 51.1 45.22 75.95 67.22" style="stroke:#ffaf37;stroke-width:2"/><path fill="#FFAF37" d="m1398.04 1004.93-4.086-8.961.343 5.646-5.647.343 9.39 2.972z" style="stroke:#ffaf37;stroke-width:2"/><path fill="none" d="M897.42 928.96C821.97 949.91 741.8 972.48 667.5 994c-61.03 17.68-128.04 37.79-186.24 55.48" style="stroke:#ffaf37;stroke-width:2"/><path fill="#FFAF37" d="m476.37 1050.97 9.772 1.232-4.985-2.675 2.675-4.985-7.462 6.428z" style="stroke:#ffaf37;stroke-width:2"/><path fill="none" d="M1531.68 915.75c92.1 23.08 192.46 49.98 283.82 78.25 41.67 12.89 86.24 28.49 127.22 43.59" style="stroke:#ffaf37;stroke-width:2"/><path fill="#FFAF37" d="m1947.7 1039.43-7.06-6.868 2.369 5.138-5.137 2.368 9.828-.638z" style="stroke:#ffaf37;stroke-width:2"/><path fill="none" d="M1232.68 1190.06c-15.2 3.99-30.34 7.68-45.18 10.94-222.47 48.92-284.94 18.96-509 60-3.98.73-8 1.48-12.03 2.26" style="stroke:#ffaf37;stroke-width:2"/><path fill="#FFAF37" d="m661.34 1264.25 9.599 2.206-4.691-3.162 3.161-4.69-8.069 5.646z" style="stroke:#ffaf37;stroke-width:2"/><path fill="none" d="M1283.73 1190.13c-74.69 31.43-155.24 65.32-218.21 91.81" style="stroke:#ffaf37;stroke-width:2"/><path fill="#FFAF37" d="m1060.64 1284 9.847.21-5.236-2.143 2.142-5.236-6.753 7.169z" style="stroke:#ffaf37;stroke-width:2"/><path fill="none" d="M1501.5 1190.13v88.76" style="stroke:#ffaf37;stroke-width:2"/><path fill="#FFAF37" d="m1501.5 1284 4-9-4 4-4-4 4 9z" style="stroke:#ffaf37;stroke-width:2"/><path fill="none" d="M1734.34 1190.13c80.02 31.49 166.34 65.46 233.72 91.97" style="stroke:#ffaf37;stroke-width:2"/><path fill="#FFAF37" d="m1972.88 1284-6.897-7.03 2.248 5.19-5.191 2.248 9.84-.408z" style="stroke:#ffaf37;stroke-width:2"/><path fill="none" d="M1768.97 1190c15.65 4.05 31.24 7.76 46.53 11 255.68 54.19 326.88 18.92 585 60 4.18.67 8.4 1.35 12.63 2.06" style="stroke:#ffaf37;stroke-width:2"/><path fill="#FFAF37" d="m2418.11 1263.89-8.212-5.437 3.281 4.608-4.608 3.282 9.539-2.453z" style="stroke:#ffaf37;stroke-width:2"/></svg>