<svg xmlns="http://www.w3.org/2000/svg" xmlns:xlink="http://www.w3.org/1999/xlink" width="810" height="1263" preserveAspectRatio="none" style="width:810px;height:1263px;background:#00000000"><a xlink:actuate="onRequest" xlink:href="#a" xlink:show="new" xlink:title="#aws_resource" xlink:type="simple" target="_top"><rect id="a" width="155" height="70.594" x="241" y="504" fill="#3D176E" rx="2.5" ry="2.5" style="stroke:#000d19;stroke-width:1.5"/><circle cx="256" cy="523.894" r="11" fill="#E98DF7" style="stroke:#000d19;stroke-width:1"/><path d="M258.969 529.535q-.578.297-1.219.438-.64.156-1.344.156-2.5 0-3.828-1.64-1.312-1.657-1.312-4.782t1.312-4.781q1.328-1.657 3.828-1.657.703 0 1.344.157.656.156 1.219.453v2.719q-.625-.578-1.219-.844-.594-.281-1.219-.281-1.344 0-2.031 1.078-.688 1.062-.688 3.156 0 2.094.688 3.172.688 1.062 2.031 1.062.625 0 1.219-.265.594-.282 1.219-.86v2.72Z"/><text x="275" y="529.78" fill="#D9B8FF" font-family="Helvetica" font-size="17" textLength="113">aws_resource</text><path d="M242 543.789h153" style="stroke:#000d19;stroke-width:1.5"/><text x="252" y="563" fill="#D9B8FF" font-family="sans-serif" font-size="11" font-weight="bold" textLength="21">arn</text><text x="273" y="563" fill="#D9B8FF" font-family="sans-serif" font-size="11" textLength="41">: string</text></a><a xlink:actuate="onRequest" xlink:href="#b" xlink:show="new" xlink:title="#resource" xlink:type="simple" target="_top"><rect id="b" width="195" height="275.836" x="246" y="7" fill="#3D176E" rx="2.5" ry="2.5" style="stroke:#000d19;stroke-width:1.5"/><circle cx="298.75" cy="26.895" r="11" fill="#E98DF7" style="stroke:#000d19;stroke-width:1"/><path d="M301.719 32.535q-.578.297-1.219.438-.64.156-1.344.156-2.5 0-3.828-1.64-1.312-1.657-1.312-4.782t1.312-4.781q1.328-1.656 3.828-1.656.703 0 1.344.156.656.156 1.219.453v2.719q-.625-.578-1.219-.844-.594-.281-1.219-.281-1.344 0-2.031 1.078-.688 1.062-.688 3.156 0 2.094.688 3.172.688 1.062 2.031 1.062.625 0 1.219-.265.594-.281 1.219-.86v2.72Z"/><text x="324.25" y="32.78" fill="#D9B8FF" font-family="Helvetica" font-size="17" textLength="71">resource</text><path d="M247 46.789h193" style="stroke:#000d19;stroke-width:1.5"/><text x="257" y="65.999" fill="#D9B8FF" font-family="sans-serif" font-size="11" font-weight="bold" textLength="12">id</text><text x="269" y="65.999" fill="#D9B8FF" font-family="sans-serif" font-size="11" textLength="41">: string</text><text x="257" y="88.804" fill="#D9B8FF" font-family="sans-serif" font-size="11" font-weight="bold" textLength="28">tags</text><text x="285" y="88.804" fill="#D9B8FF" font-family="sans-serif" font-size="11" textLength="145">: dictionary[string, string]</text><text x="257" y="111.609" fill="#D9B8FF" font-family="sans-serif" font-size="11" font-weight="bold" textLength="35">name</text><text x="292" y="111.609" fill="#D9B8FF" font-family="sans-serif" font-size="11" textLength="41">: string</text><text x="257" y="134.414" fill="#D9B8FF" font-family="sans-serif" font-size="11" font-weight="bold" textLength="35">ctime</text><text x="292" y="134.414" fill="#D9B8FF" font-family="sans-serif" font-size="11" textLength="58">: datetime</text><text x="257" y="157.218" fill="#D9B8FF" font-family="sans-serif" font-size="11" font-weight="bold" textLength="24">age</text><text x="281" y="157.218" fill="#D9B8FF" font-family="sans-serif" font-size="11" textLength="55">: duration</text><text x="257" y="180.023" fill="#D9B8FF" font-family="sans-serif" font-size="11" font-weight="bold" textLength="39">mtime</text><text x="296" y="180.023" fill="#D9B8FF" font-family="sans-serif" font-size="11" textLength="58">: datetime</text><text x="257" y="202.828" fill="#D9B8FF" font-family="sans-serif" font-size="11" font-weight="bold" textLength="75">last_update</text><text x="332" y="202.828" fill="#D9B8FF" font-family="sans-serif" font-size="11" textLength="55">: duration</text><text x="257" y="225.632" fill="#D9B8FF" font-family="sans-serif" font-size="11" font-weight="bold" textLength="36">atime</text><text x="293" y="225.632" fill="#D9B8FF" font-family="sans-serif" font-size="11" textLength="58">: datetime</text><text x="257" y="248.437" fill="#D9B8FF" font-family="sans-serif" font-size="11" font-weight="bold" textLength="74">last_access</text><text x="331" y="248.437" fill="#D9B8FF" font-family="sans-serif" font-size="11" textLength="55">: duration</text><text x="257" y="271.242" fill="#D9B8FF" font-family="sans-serif" font-size="11" font-weight="bold" textLength="27">kind</text><text x="284" y="271.242" fill="#D9B8FF" font-family="sans-serif" font-size="11" textLength="41">: string</text></a><a xlink:actuate="onRequest" xlink:href="#c" xlink:show="new" xlink:title="#quota" xlink:type="simple" target="_top"><rect id="c" width="134" height="116.203" x="379.5" y="635" fill="#3D176E" rx="2.5" ry="2.5" style="stroke:#000d19;stroke-width:1.5"/><circle cx="414.3" cy="654.894" r="11" fill="#E98DF7" style="stroke:#000d19;stroke-width:1"/><path d="M417.269 660.535q-.578.297-1.219.438-.64.156-1.344.156-2.5 0-3.828-1.64-1.312-1.657-1.312-4.782t1.312-4.781q1.328-1.657 3.828-1.657.703 0 1.344.157.656.156 1.219.453v2.719q-.625-.578-1.219-.844-.594-.281-1.219-.281-1.344 0-2.031 1.078-.688 1.062-.688 3.156 0 2.094.688 3.172.688 1.062 2.031 1.062.625 0 1.219-.265.594-.282 1.219-.86v2.72Z"/><text x="437.7" y="660.78" fill="#D9B8FF" font-family="Helvetica" font-size="17" textLength="48">quota</text><path d="M380.5 674.789h132" style="stroke:#000d19;stroke-width:1.5"/><text x="390.5" y="694" fill="#D9B8FF" font-family="sans-serif" font-size="11" font-weight="bold" textLength="37">quota</text><text x="427.5" y="694" fill="#D9B8FF" font-family="sans-serif" font-size="11" textLength="46">: double</text><text x="390.5" y="716.804" fill="#D9B8FF" font-family="sans-serif" font-size="11" font-weight="bold" textLength="39">usage</text><text x="429.5" y="716.804" fill="#D9B8FF" font-family="sans-serif" font-size="11" textLength="46">: double</text><text x="390.5" y="739.609" fill="#D9B8FF" font-family="sans-serif" font-size="11" font-weight="bold" textLength="71">quota_type</text><text x="461.5" y="739.609" fill="#D9B8FF" font-family="sans-serif" font-size="11" textLength="41">: string</text></a><a xlink:actuate="onRequest" xlink:href="#d" xlink:show="new" xlink:title="#aws_quota_period" xlink:type="simple" target="_top"><rect id="d" width="193" height="93.398" x="7" y="1140" fill="#3D176E" rx="2.5" ry="2.5" style="stroke:#000d19;stroke-width:1.5"/><circle cx="22" cy="1159.895" r="11" fill="#E98DF7" style="stroke:#000d19;stroke-width:1"/><path d="M24.969 1165.535q-.578.297-1.219.438-.64.156-1.344.156-2.5 0-3.828-1.64-1.312-1.657-1.312-4.782t1.312-4.781q1.328-1.656 3.828-1.656.703 0 1.344.156.656.156 1.219.453v2.719q-.625-.578-1.219-.844-.594-.281-1.219-.281-1.343 0-2.031 1.078-.688 1.062-.688 3.156 0 2.094.688 3.172.688 1.062 2.031 1.062.625 0 1.219-.265.594-.281 1.219-.86v2.72Z"/><text x="41" y="1165.78" fill="#D9B8FF" font-family="Helvetica" font-size="17" textLength="151">aws_quota_period</text><path d="M8 1179.789h191" style="stroke:#000d19;stroke-width:1.5"/><text x="18" y="1198.999" fill="#D9B8FF" font-family="sans-serif" font-size="11" font-weight="bold" textLength="82">period_value</text><text x="100" y="1198.999" fill="#D9B8FF" font-family="sans-serif" font-size="11" textLength="36">: int64</text><text x="18" y="1221.804" fill="#D9B8FF" font-family="sans-serif" font-size="11" font-weight="bold" textLength="72">period_unit</text><text x="90" y="1221.804" fill="#D9B8FF" font-family="sans-serif" font-size="11" textLength="41">: string</text></a><a xlink:actuate="onRequest" xlink:href="#e" xlink:show="new" xlink:title="#phantom_resource" xlink:type="simple" target="_top"><rect id="e" width="198" height="39.789" x="361.5" y="404" fill="#3D176E" rx="2.5" ry="2.5" style="stroke:#000d19;stroke-width:1.5"/><circle cx="376.5" cy="423.894" r="11" fill="#E98DF7" style="stroke:#000d19;stroke-width:1"/><path d="M379.469 429.535q-.578.297-1.219.438-.64.156-1.344.156-2.5 0-3.828-1.64-1.312-1.657-1.312-4.782t1.312-4.781q1.328-1.656 3.828-1.656.703 0 1.344.156.656.156 1.219.453v2.719q-.625-.579-1.219-.844-.594-.281-1.219-.281-1.344 0-2.031 1.078-.688 1.062-.688 3.156 0 2.094.688 3.172.688 1.062 2.031 1.062.625 0 1.219-.265.594-.281 1.219-.86v2.72Z"/><text x="395.5" y="429.78" fill="#D9B8FF" font-family="Helvetica" font-size="17" textLength="156">phantom_resource</text></a><a xlink:actuate="onRequest" xlink:href="#f" xlink:show="new" xlink:title="#aws_service_quota" xlink:type="simple" target="_top"><rect id="f" width="296" height="184.617" x="210.5" y="872" fill="#3D176E" rx="2.5" ry="2.5" style="stroke:#000d19;stroke-width:1.5"/><circle cx="270.75" cy="891.894" r="11" fill="#E98DF7" style="stroke:#000d19;stroke-width:1"/><path d="M273.719 897.535q-.578.297-1.219.438-.64.156-1.344.156-2.5 0-3.828-1.64-1.312-1.657-1.312-4.782t1.312-4.781q1.328-1.657 3.828-1.657.703 0 1.344.157.656.156 1.219.453v2.719q-.625-.578-1.219-.844-.594-.281-1.219-.281-1.344 0-2.031 1.078-.688 1.062-.688 3.156 0 2.094.688 3.172.688 1.062 2.031 1.062.625 0 1.219-.265.594-.282 1.219-.86v2.72Z"/><text x="296.25" y="897.78" fill="#D9B8FF" font-family="Helvetica" font-size="17" textLength="157">aws_service_quota</text><path d="M211.5 911.789h294" style="stroke:#000d19;stroke-width:1.5"/><text x="221.5" y="931" fill="#D9B8FF" font-family="sans-serif" font-size="11" font-weight="bold" textLength="68">quota_unit</text><text x="289.5" y="931" fill="#D9B8FF" font-family="sans-serif" font-size="11" textLength="41">: string</text><text x="221.5" y="953.804" fill="#D9B8FF" font-family="sans-serif" font-size="11" font-weight="bold" textLength="111">quota_adjustable</text><text x="332.5" y="953.804" fill="#D9B8FF" font-family="sans-serif" font-size="11" textLength="53">: boolean</text><text x="221.5" y="976.609" fill="#D9B8FF" font-family="sans-serif" font-size="11" font-weight="bold" textLength="83">quota_global</text><text x="304.5" y="976.609" fill="#D9B8FF" font-family="sans-serif" font-size="11" textLength="53">: boolean</text><text x="221.5" y="999.414" fill="#D9B8FF" font-family="sans-serif" font-size="11" font-weight="bold" textLength="128">quota_usage_metric</text><text x="349.5" y="999.414" fill="#D9B8FF" font-family="sans-serif" font-size="11" textLength="138">: aws_quota_metric_info</text><text x="221.5" y="1022.218" fill="#D9B8FF" font-family="sans-serif" font-size="11" font-weight="bold" textLength="84">quota_period</text><text x="305.5" y="1022.218" fill="#D9B8FF" font-family="sans-serif" font-size="11" textLength="111">: aws_quota_period</text><text x="221.5" y="1045.023" fill="#D9B8FF" font-family="sans-serif" font-size="11" font-weight="bold" textLength="124">quota_error_reason</text><text x="345.5" y="1045.023" fill="#D9B8FF" font-family="sans-serif" font-size="11" textLength="150">: aws_quota_error_reason</text></a><a xlink:actuate="onRequest" xlink:href="#g" xlink:show="new" xlink:title="#aws_quota_error_reason" xlink:type="simple" target="_top"><rect id="g" width="247" height="93.398" x="235" y="1140" fill="#3D176E" rx="2.5" ry="2.5" style="stroke:#000d19;stroke-width:1.5"/><circle cx="250" cy="1159.895" r="11" fill="#E98DF7" style="stroke:#000d19;stroke-width:1"/><path d="M252.969 1165.535q-.578.297-1.219.438-.64.156-1.344.156-2.5 0-3.828-1.64-1.312-1.657-1.312-4.782t1.312-4.781q1.328-1.656 3.828-1.656.703 0 1.344.156.656.156 1.219.453v2.719q-.625-.578-1.219-.844-.594-.281-1.219-.281-1.344 0-2.031 1.078-.688 1.062-.688 3.156 0 2.094.688 3.172.688 1.062 2.031 1.062.625 0 1.219-.265.594-.281 1.219-.86v2.72Z"/><text x="269" y="1165.78" fill="#D9B8FF" font-family="Helvetica" font-size="17" textLength="205">aws_quota_error_reason</text><path d="M236 1179.789h245" style="stroke:#000d19;stroke-width:1.5"/><text x="246" y="1198.999" fill="#D9B8FF" font-family="sans-serif" font-size="11" font-weight="bold" textLength="68">error_code</text><text x="314" y="1198.999" fill="#D9B8FF" font-family="sans-serif" font-size="11" textLength="41">: string</text><text x="246" y="1221.804" fill="#D9B8FF" font-family="sans-serif" font-size="11" font-weight="bold" textLength="94">error_message</text><text x="340" y="1221.804" fill="#D9B8FF" font-family="sans-serif" font-size="11" textLength="41">: string</text></a><a xlink:actuate="onRequest" xlink:href="#h" xlink:show="new" xlink:title="#aws_quota_metric_info" xlink:type="simple" target="_top"><rect id="h" width="286" height="139.008" x="517.5" y="1117" fill="#3D176E" rx="2.5" ry="2.5" style="stroke:#000d19;stroke-width:1.5"/><circle cx="555" cy="1136.895" r="11" fill="#E98DF7" style="stroke:#000d19;stroke-width:1"/><path d="M557.969 1142.535q-.578.297-1.219.438-.64.156-1.344.156-2.5 0-3.828-1.64-1.312-1.657-1.312-4.782t1.312-4.781q1.328-1.656 3.828-1.656.703 0 1.344.156.656.156 1.219.453v2.719q-.625-.578-1.219-.844-.594-.281-1.219-.281-1.343 0-2.031 1.078-.688 1.062-.688 3.156 0 2.094.688 3.172.688 1.062 2.031 1.062.625 0 1.219-.265.594-.281 1.219-.86v2.72Z"/><text x="579" y="1142.78" fill="#D9B8FF" font-family="Helvetica" font-size="17" textLength="194">aws_quota_metric_info</text><path d="M518.5 1156.789h284" style="stroke:#000d19;stroke-width:1.5"/><text x="528.5" y="1175.999" fill="#D9B8FF" font-family="sans-serif" font-size="11" font-weight="bold" textLength="119">metric_namespace</text><text x="647.5" y="1175.999" fill="#D9B8FF" font-family="sans-serif" font-size="11" textLength="41">: string</text><text x="528.5" y="1198.804" fill="#D9B8FF" font-family="sans-serif" font-size="11" font-weight="bold" textLength="81">metric_name</text><text x="609.5" y="1198.804" fill="#D9B8FF" font-family="sans-serif" font-size="11" textLength="41">: string</text><text x="528.5" y="1221.609" fill="#D9B8FF" font-family="sans-serif" font-size="11" font-weight="bold" textLength="119">metric_dimensions</text><text x="647.5" y="1221.609" fill="#D9B8FF" font-family="sans-serif" font-size="11" textLength="145">: dictionary[string, string]</text><text x="528.5" y="1244.414" fill="#D9B8FF" font-family="sans-serif" font-size="11" font-weight="bold" textLength="211">metric_statistic_recommendation</text><text x="739.5" y="1244.414" fill="#D9B8FF" font-family="sans-serif" font-size="11" textLength="41">: string</text></a><path fill="none" d="M333.49 303.1c-4.7 73.91-9.9 155.54-12.77 200.62m5.8-201.2 8.25-19.52 5.72 20.41-13.97-.89zm131.92 161.73c-2.36 44.98-6.24 119.08-8.94 170.49m1.96-170.93 8.03-19.61 5.95 20.34-13.98-.73zm-42.14-161.98c17.26 40.86 33.65 79.68 43.05 101.92m-49.55-99.32-1.33-21.15 14.23 15.7-12.9 5.45zm-79.16 290.6 26.15 276.55m-33.12-275.89 5.08-20.57 8.86 19.25-13.94 1.32zM421.5 770.55c-10.31 31.57-22.34 68.43-33.11 101.42m26.59-103.98 12.86-16.84.44 21.19-13.3-4.35zm69.41 289.22c25.85 18.83 52.72 38.4 77.45 56.42" style="stroke:#ffaf37;stroke-width:2"/><path fill="#FFAF37" d="m566.11 1116.74-4.922-8.53.88 5.587-5.588.88 9.63 2.063z" style="stroke:#ffaf37;stroke-width:2"/><path fill="none" d="M252.2 1057.21c-31.52 27.19-64.82 55.92-91.9 79.28" style="stroke:#ffaf37;stroke-width:2"/><path fill="#FFAF37" d="m156.35 1139.9 9.431-2.838-5.64-.423.423-5.641-4.214 8.902z" style="stroke:#ffaf37;stroke-width:2"/><path fill="none" d="M358.5 1057.21v77.55" style="stroke:#ffaf37;stroke-width:2"/><path fill="#FFAF37" d="m358.5 1139.9 4-9-4 4-4-4 4 9z" style="stroke:#ffaf37;stroke-width:2"/></svg>