<svg xmlns="http://www.w3.org/2000/svg" xmlns:xlink="http://www.w3.org/1999/xlink" width="2986" height="152" preserveAspectRatio="none" style="width:2986px;height:152px;background:#00000000"><a xlink:actuate="onRequest" xlink:href="#a" xlink:show="new" xlink:title="#aws_s3_bucket" xlink:type="simple" target="_top"><rect id="a" width="168" height="39.789" x="7" y="107" fill="#3D176E" rx="2.5" ry="2.5" style="stroke:#000d19;stroke-width:1.5"/><circle cx="22" cy="126.894" r="11" fill="#E98DF7" style="stroke:#000d19;stroke-width:1"/><path d="M24.969 132.535q-.578.297-1.219.438-.64.156-1.344.156-2.5 0-3.828-1.64-1.312-1.657-1.312-4.782t1.312-4.781q1.328-1.657 3.828-1.657.703 0 1.344.157.656.156 1.219.453v2.719q-.625-.579-1.219-.844-.594-.281-1.219-.281-1.343 0-2.031 1.078-.688 1.062-.688 3.156 0 2.094.688 3.172.688 1.062 2.031 1.062.625 0 1.219-.265.594-.281 1.219-.86v2.72Z"/><text x="41" y="132.78" fill="#D9B8FF" font-family="Helvetica" font-size="17" textLength="126">aws_s3_bucket</text></a><a xlink:actuate="onRequest" xlink:href="#b" xlink:show="new" xlink:title="#aws_lambda_function" xlink:type="simple" target="_top"><rect id="b" width="224" height="39.789" x="210" y="107" fill="#3D176E" rx="2.5" ry="2.5" style="stroke:#000d19;stroke-width:1.5"/><circle cx="225" cy="126.894" r="11" fill="#E98DF7" style="stroke:#000d19;stroke-width:1"/><path d="M227.969 132.535q-.578.297-1.219.438-.64.156-1.344.156-2.5 0-3.828-1.64-1.312-1.657-1.312-4.782t1.312-4.781q1.328-1.657 3.828-1.657.703 0 1.344.157.656.156 1.219.453v2.719q-.625-.579-1.219-.844-.594-.281-1.219-.281-1.344 0-2.031 1.078-.688 1.062-.688 3.156 0 2.094.688 3.172.688 1.062 2.031 1.062.625 0 1.219-.265.594-.281 1.219-.86v2.72Z"/><text x="244" y="132.78" fill="#D9B8FF" font-family="Helvetica" font-size="17" textLength="182">aws_lambda_function</text></a><a xlink:actuate="onRequest" xlink:href="#c" xlink:show="new" xlink:title="#aws_cloudfront_distribution" xlink:type="simple" target="_top"><rect id="c" width="274" height="39.789" x="1169" y="7" fill="#3D176E" rx="2.5" ry="2.5" style="stroke:#000d19;stroke-width:1.5"/><circle cx="1184" cy="26.895" r="11" fill="#E98DF7" style="stroke:#000d19;stroke-width:1"/><path d="M1186.969 32.535q-.578.297-1.219.438-.64.156-1.344.156-2.5 0-3.828-1.64-1.312-1.657-1.312-4.782t1.312-4.781q1.328-1.656 3.828-1.656.703 0 1.344.156.656.156 1.219.453v2.719q-.625-.578-1.219-.844-.594-.281-1.219-.281-1.343 0-2.031 1.078-.688 1.062-.688 3.156 0 2.094.688 3.172.688 1.062 2.031 1.062.625 0 1.219-.265.594-.281 1.219-.86v2.72Z"/><text x="1203" y="32.78" fill="#D9B8FF" font-family="Helvetica" font-size="17" textLength="232">aws_cloudfront_distribution</text></a><a xlink:actuate="onRequest" xlink:href="#d" xlink:show="new" xlink:title="#aws_cloudfront_realtime_log_config" xlink:type="simple" target="_top"><rect id="d" width="342" height="39.789" x="469" y="107" fill="#3D176E" rx="2.5" ry="2.5" style="stroke:#000d19;stroke-width:1.5"/><circle cx="484" cy="126.894" r="11" fill="#E98DF7" style="stroke:#000d19;stroke-width:1"/><path d="M486.969 132.535q-.578.297-1.219.438-.64.156-1.344.156-2.5 0-3.828-1.64-1.312-1.657-1.312-4.782t1.312-4.781q1.328-1.657 3.828-1.657.703 0 1.344.157.656.156 1.219.453v2.719q-.625-.579-1.219-.844-.594-.281-1.219-.281-1.344 0-2.031 1.078-.688 1.062-.688 3.156 0 2.094.688 3.172.688 1.062 2.031 1.062.625 0 1.219-.265.594-.281 1.219-.86v2.72Z"/><text x="503" y="132.78" fill="#D9B8FF" font-family="Helvetica" font-size="17" textLength="300">aws_cloudfront_realtime_log_config</text></a><a xlink:actuate="onRequest" xlink:href="#e" xlink:show="new" xlink:title="#aws_cloudfront_function" xlink:type="simple" target="_top"><rect id="e" width="247" height="39.789" x="846.5" y="107" fill="#3D176E" rx="2.5" ry="2.5" style="stroke:#000d19;stroke-width:1.5"/><circle cx="861.5" cy="126.894" r="11" fill="#E98DF7" style="stroke:#000d19;stroke-width:1"/><path d="M864.469 132.535q-.578.297-1.219.438-.64.156-1.344.156-2.5 0-3.828-1.64-1.312-1.657-1.312-4.782t1.312-4.781q1.328-1.657 3.828-1.657.703 0 1.344.157.656.156 1.219.453v2.719q-.625-.579-1.219-.844-.594-.281-1.219-.281-1.343 0-2.031 1.078-.688 1.062-.688 3.156 0 2.094.688 3.172.688 1.062 2.031 1.062.625 0 1.219-.265.594-.281 1.219-.86v2.72Z"/><text x="880.5" y="132.78" fill="#D9B8FF" font-family="Helvetica" font-size="17" textLength="205">aws_cloudfront_function</text></a><a xlink:actuate="onRequest" xlink:href="#f" xlink:show="new" xlink:title="#aws_cloudfront_origin_access_control" xlink:type="simple" target="_top"><rect id="f" width="354" height="39.789" x="1129" y="107" fill="#3D176E" rx="2.5" ry="2.5" style="stroke:#000d19;stroke-width:1.5"/><circle cx="1144" cy="126.894" r="11" fill="#E98DF7" style="stroke:#000d19;stroke-width:1"/><path d="M1146.969 132.535q-.578.297-1.219.438-.64.156-1.344.156-2.5 0-3.828-1.64-1.312-1.657-1.312-4.782t1.312-4.781q1.328-1.657 3.828-1.657.703 0 1.344.157.656.156 1.219.453v2.719q-.625-.579-1.219-.844-.594-.281-1.219-.281-1.343 0-2.031 1.078-.688 1.062-.688 3.156 0 2.094.688 3.172.688 1.062 2.031 1.062.625 0 1.219-.265.594-.281 1.219-.86v2.72Z"/><text x="1163" y="132.78" fill="#D9B8FF" font-family="Helvetica" font-size="17" textLength="312">aws_cloudfront_origin_access_control</text></a><a xlink:actuate="onRequest" xlink:href="#g" xlink:show="new" xlink:title="#aws_iam_server_certificate" xlink:type="simple" target="_top"><rect id="g" width="269" height="39.789" x="1518.5" y="107" fill="#3D176E" rx="2.5" ry="2.5" style="stroke:#000d19;stroke-width:1.5"/><circle cx="1533.5" cy="126.894" r="11" fill="#E98DF7" style="stroke:#000d19;stroke-width:1"/><path d="M1536.469 132.535q-.578.297-1.219.438-.64.156-1.344.156-2.5 0-3.828-1.64-1.312-1.657-1.312-4.782t1.312-4.781q1.328-1.657 3.828-1.657.703 0 1.344.157.656.156 1.219.453v2.719q-.625-.579-1.219-.844-.594-.281-1.219-.281-1.343 0-2.031 1.078-.688 1.062-.688 3.156 0 2.094.688 3.172.688 1.062 2.031 1.062.625 0 1.219-.265.594-.281 1.219-.86v2.72Z"/><text x="1552.5" y="132.78" fill="#D9B8FF" font-family="Helvetica" font-size="17" textLength="227">aws_iam_server_certificate</text></a><a xlink:actuate="onRequest" xlink:href="#h" xlink:show="new" xlink:title="#aws_cloudfront_response_headers_policy" xlink:type="simple" target="_top"><rect id="h" width="384" height="39.789" x="1823" y="107" fill="#3D176E" rx="2.5" ry="2.5" style="stroke:#000d19;stroke-width:1.5"/><circle cx="1838" cy="126.894" r="11" fill="#E98DF7" style="stroke:#000d19;stroke-width:1"/><path d="M1840.969 132.535q-.578.297-1.219.438-.64.156-1.344.156-2.5 0-3.828-1.64-1.312-1.657-1.312-4.782t1.312-4.781q1.328-1.657 3.828-1.657.703 0 1.344.157.656.156 1.219.453v2.719q-.625-.579-1.219-.844-.594-.281-1.219-.281-1.343 0-2.031 1.078-.688 1.062-.688 3.156 0 2.094.688 3.172.688 1.062 2.031 1.062.625 0 1.219-.265.594-.281 1.219-.86v2.72Z"/><text x="1857" y="132.78" fill="#D9B8FF" font-family="Helvetica" font-size="17" textLength="342">aws_cloudfront_response_headers_policy</text></a><a xlink:actuate="onRequest" xlink:href="#i" xlink:show="new" xlink:title="#aws_cloudfront_field_level_encryption_config" xlink:type="simple" target="_top"><rect id="i" width="420" height="39.789" x="2242" y="107" fill="#3D176E" rx="2.5" ry="2.5" style="stroke:#000d19;stroke-width:1.5"/><circle cx="2257" cy="126.894" r="11" fill="#E98DF7" style="stroke:#000d19;stroke-width:1"/><path d="M2259.969 132.535q-.578.297-1.219.438-.64.156-1.344.156-2.5 0-3.828-1.64-1.312-1.657-1.312-4.782t1.312-4.781q1.328-1.657 3.828-1.657.703 0 1.344.157.656.156 1.219.453v2.719q-.625-.579-1.219-.844-.594-.281-1.219-.281-1.343 0-2.031 1.078-.688 1.062-.688 3.156 0 2.094.688 3.172.688 1.062 2.031 1.062.625 0 1.219-.265.594-.281 1.219-.86v2.72Z"/><text x="2276" y="132.78" fill="#D9B8FF" font-family="Helvetica" font-size="17" textLength="378">aws_cloudfront_field_level_encryption_config</text></a><a xlink:actuate="onRequest" xlink:href="#j" xlink:show="new" xlink:title="#aws_cloudfront_cache_policy" xlink:type="simple" target="_top"><rect id="j" width="282" height="39.789" x="2697" y="107" fill="#3D176E" rx="2.5" ry="2.5" style="stroke:#000d19;stroke-width:1.5"/><circle cx="2712" cy="126.894" r="11" fill="#E98DF7" style="stroke:#000d19;stroke-width:1"/><path d="M2714.969 132.535q-.578.297-1.219.438-.64.156-1.344.156-2.5 0-3.828-1.64-1.312-1.657-1.312-4.782t1.312-4.781q1.328-1.657 3.828-1.657.703 0 1.344.157.656.156 1.219.453v2.719q-.625-.579-1.219-.844-.594-.281-1.219-.281-1.343 0-2.031 1.078-.688 1.062-.688 3.156 0 2.094.688 3.172.688 1.062 2.031 1.062.625 0 1.219-.265.594-.281 1.219-.86v2.72Z"/><text x="2731" y="132.78" fill="#D9B8FF" font-family="Helvetica" font-size="17" textLength="240">aws_cloudfront_cache_policy</text></a><path fill="none" d="M1176.8 47.01c-115.83 17.05-285.11 41.95-402.48 59.22" style="stroke:#1a83af;stroke-width:2"/><path fill="#1A83AF" d="m769.13 107 9.487 2.645-4.54-3.374 3.374-4.54L769.13 107z" style="stroke:#1a83af;stroke-width:2"/><path fill="none" d="M1168.78 38.38C999.69 51.7 703.73 76.73 451 107c-3.87.46-7.81.95-11.78 1.46" style="stroke:#1a83af;stroke-width:2"/><path fill="#1A83AF" d="m434.17 109.11 9.432 2.836-4.472-3.465 3.465-4.471-8.425 5.1z" style="stroke:#1a83af;stroke-width:2"/><path fill="none" d="M1168.73 32.65C957.95 40.93 542.21 61.79 192 107c-3.86.5-7.79 1.05-11.76 1.64" style="stroke:#1a83af;stroke-width:2"/><path fill="#1A83AF" d="m175.2 109.41 9.502 2.591-4.56-3.348 3.349-4.56-8.291 5.317z" style="stroke:#1a83af;stroke-width:2"/><path fill="none" d="M1240.82 47.01c-57.64 16.81-141.51 41.27-200.61 58.51" style="stroke:#1a83af;stroke-width:2"/><path fill="#1A83AF" d="m1035.29 106.96 9.76 1.32-4.96-2.72 2.72-4.96-7.52 6.36z" style="stroke:#1a83af;stroke-width:2"/><path fill="none" d="M1306 47.36v54.3" style="stroke:#1a83af;stroke-width:2"/><path fill="#1A83AF" d="m1306 106.68 4-9-4 4-4-4 4 9z" style="stroke:#1a83af;stroke-width:2"/><path fill="none" d="m1373.32 47.01 207.17 58.51" style="stroke:#1a83af;stroke-width:2"/><path fill="#1A83AF" d="m1585.58 106.96-7.577-6.292 2.765 4.935-4.936 2.765 9.748-1.408z" style="stroke:#1a83af;stroke-width:2"/><path fill="none" d="M1443.12 46.95c123.38 17.06 303.99 42.02 429.08 59.31" style="stroke:#1a83af;stroke-width:2"/><path fill="#1A83AF" d="m1877.37 106.98-8.367-5.196 3.414 4.51-4.51 3.415 9.463-2.729z" style="stroke:#1a83af;stroke-width:2"/><path fill="none" d="m1443.1 39.72 793.64 67.87" style="stroke:#1a83af;stroke-width:2"/><path fill="#1A83AF" d="m2241.87 108.03-8.624-4.756 3.642 4.328-4.327 3.642 9.309-3.214z" style="stroke:#1a83af;stroke-width:2"/><path fill="none" d="M1443.21 33.06C1690.69 42.81 2228.1 66.88 2680 107c3.87.34 7.79.71 11.75 1.09" style="stroke:#1a83af;stroke-width:2"/><path fill="#1A83AF" d="m2696.78 108.58-8.568-4.856 3.592 4.37-4.37 3.592 9.346-3.106z" style="stroke:#1a83af;stroke-width:2"/></svg>