<svg xmlns="http://www.w3.org/2000/svg" xmlns:xlink="http://www.w3.org/1999/xlink" width="2043" height="1934" preserveAspectRatio="none" style="width:2043px;height:1934px;background:#00000000"><a xlink:actuate="onRequest" xlink:href="#a" xlink:show="new" xlink:title="#resource" xlink:type="simple" target="_top"><rect id="a" width="195" height="275.836" x="962.5" y="7" fill="#3D176E" rx="2.5" ry="2.5" style="stroke:#000d19;stroke-width:1.5"/><circle cx="1015.25" cy="26.895" r="11" fill="#E98DF7" style="stroke:#000d19;stroke-width:1"/><path d="M1018.219 32.535q-.578.297-1.219.438-.64.156-1.344.156-2.5 0-3.828-1.64-1.312-1.657-1.312-4.782t1.312-4.781q1.328-1.656 3.828-1.656.703 0 1.344.156.656.156 1.219.453v2.719q-.625-.578-1.219-.844-.594-.281-1.219-.281-1.343 0-2.031 1.078-.688 1.062-.688 3.156 0 2.094.688 3.172.688 1.062 2.031 1.062.625 0 1.219-.265.594-.281 1.219-.86v2.72Z"/><text x="1040.75" y="32.78" fill="#D9B8FF" font-family="Helvetica" font-size="17" textLength="71">resource</text><path d="M963.5 46.789h193" style="stroke:#000d19;stroke-width:1.5"/><text x="973.5" y="65.999" fill="#D9B8FF" font-family="sans-serif" font-size="11" font-weight="bold" textLength="12">id</text><text x="985.5" y="65.999" fill="#D9B8FF" font-family="sans-serif" font-size="11" textLength="41">: string</text><text x="973.5" y="88.804" fill="#D9B8FF" font-family="sans-serif" font-size="11" font-weight="bold" textLength="28">tags</text><text x="1001.5" y="88.804" fill="#D9B8FF" font-family="sans-serif" font-size="11" textLength="145">: dictionary[string, string]</text><text x="973.5" y="111.609" fill="#D9B8FF" font-family="sans-serif" font-size="11" font-weight="bold" textLength="35">name</text><text x="1008.5" y="111.609" fill="#D9B8FF" font-family="sans-serif" font-size="11" textLength="41">: string</text><text x="973.5" y="134.414" fill="#D9B8FF" font-family="sans-serif" font-size="11" font-weight="bold" textLength="35">ctime</text><text x="1008.5" y="134.414" fill="#D9B8FF" font-family="sans-serif" font-size="11" textLength="58">: datetime</text><text x="973.5" y="157.218" fill="#D9B8FF" font-family="sans-serif" font-size="11" font-weight="bold" textLength="24">age</text><text x="997.5" y="157.218" fill="#D9B8FF" font-family="sans-serif" font-size="11" textLength="55">: duration</text><text x="973.5" y="180.023" fill="#D9B8FF" font-family="sans-serif" font-size="11" font-weight="bold" textLength="39">mtime</text><text x="1012.5" y="180.023" fill="#D9B8FF" font-family="sans-serif" font-size="11" textLength="58">: datetime</text><text x="973.5" y="202.828" fill="#D9B8FF" font-family="sans-serif" font-size="11" font-weight="bold" textLength="75">last_update</text><text x="1048.5" y="202.828" fill="#D9B8FF" font-family="sans-serif" font-size="11" textLength="55">: duration</text><text x="973.5" y="225.632" fill="#D9B8FF" font-family="sans-serif" font-size="11" font-weight="bold" textLength="36">atime</text><text x="1009.5" y="225.632" fill="#D9B8FF" font-family="sans-serif" font-size="11" textLength="58">: datetime</text><text x="973.5" y="248.437" fill="#D9B8FF" font-family="sans-serif" font-size="11" font-weight="bold" textLength="74">last_access</text><text x="1047.5" y="248.437" fill="#D9B8FF" font-family="sans-serif" font-size="11" textLength="55">: duration</text><text x="973.5" y="271.242" fill="#D9B8FF" font-family="sans-serif" font-size="11" font-weight="bold" textLength="27">kind</text><text x="1000.5" y="271.242" fill="#D9B8FF" font-family="sans-serif" font-size="11" textLength="41">: string</text></a><a xlink:actuate="onRequest" xlink:href="#b" xlink:show="new" xlink:title="#aws_resource" xlink:type="simple" target="_top"><rect id="b" width="155" height="70.594" x="982.5" y="404" fill="#3D176E" rx="2.5" ry="2.5" style="stroke:#000d19;stroke-width:1.5"/><circle cx="997.5" cy="423.894" r="11" fill="#E98DF7" style="stroke:#000d19;stroke-width:1"/><path d="M1000.469 429.535q-.578.297-1.219.438-.64.156-1.344.156-2.5 0-3.828-1.64-1.312-1.657-1.312-4.782t1.312-4.781q1.328-1.656 3.828-1.656.703 0 1.344.156.656.156 1.219.453v2.719q-.625-.579-1.219-.844-.594-.281-1.219-.281-1.343 0-2.031 1.078-.688 1.062-.688 3.156 0 2.094.688 3.172.688 1.062 2.031 1.062.625 0 1.219-.265.594-.281 1.219-.86v2.72Z"/><text x="1016.5" y="429.78" fill="#D9B8FF" font-family="Helvetica" font-size="17" textLength="113">aws_resource</text><path d="M983.5 443.789h153" style="stroke:#000d19;stroke-width:1.5"/><text x="993.5" y="463" fill="#D9B8FF" font-family="sans-serif" font-size="11" font-weight="bold" textLength="21">arn</text><text x="1014.5" y="463" fill="#D9B8FF" font-family="sans-serif" font-size="11" textLength="41">: string</text></a><a xlink:actuate="onRequest" xlink:href="#c" xlink:show="new" xlink:title="#aws_sagemaker_vpc_config" xlink:type="simple" target="_top"><rect id="c" width="272" height="93.398" x="1730" y="1475" fill="#3D176E" rx="2.5" ry="2.5" style="stroke:#000d19;stroke-width:1.5"/><circle cx="1745" cy="1494.895" r="11" fill="#E98DF7" style="stroke:#000d19;stroke-width:1"/><path d="M1747.969 1500.535q-.578.297-1.219.438-.64.156-1.344.156-2.5 0-3.828-1.64-1.312-1.657-1.312-4.782t1.312-4.781q1.328-1.656 3.828-1.656.703 0 1.344.156.656.156 1.219.453v2.719q-.625-.578-1.219-.844-.594-.281-1.219-.281-1.343 0-2.031 1.078-.688 1.062-.688 3.156 0 2.094.688 3.172.688 1.062 2.031 1.062.625 0 1.219-.265.594-.281 1.219-.86v2.72Z"/><text x="1764" y="1500.78" fill="#D9B8FF" font-family="Helvetica" font-size="17" textLength="230">aws_sagemaker_vpc_config</text><path d="M1731 1514.789h270" style="stroke:#000d19;stroke-width:1.5"/><text x="1741" y="1533.999" fill="#D9B8FF" font-family="sans-serif" font-size="11" font-weight="bold" textLength="119">security_group_ids</text><text x="1860" y="1533.999" fill="#D9B8FF" font-family="sans-serif" font-size="11" textLength="49">: string[]</text><text x="1741" y="1556.804" fill="#D9B8FF" font-family="sans-serif" font-size="11" font-weight="bold" textLength="51">subnets</text><text x="1792" y="1556.804" fill="#D9B8FF" font-family="sans-serif" font-size="11" textLength="49">: string[]</text></a><a xlink:actuate="onRequest" xlink:href="#d" xlink:show="new" xlink:title="#aws_sagemaker_app_specification" xlink:type="simple" target="_top"><rect id="d" width="327" height="116.203" x="113.5" y="1241.5" fill="#3D176E" rx="2.5" ry="2.5" style="stroke:#000d19;stroke-width:1.5"/><circle cx="128.5" cy="1261.395" r="11" fill="#E98DF7" style="stroke:#000d19;stroke-width:1"/><path d="M131.469 1267.035q-.578.297-1.219.438-.64.156-1.344.156-2.5 0-3.828-1.64-1.312-1.657-1.312-4.782t1.312-4.781q1.328-1.656 3.828-1.656.703 0 1.344.156.656.156 1.219.453v2.719q-.625-.578-1.219-.844-.594-.281-1.219-.281-1.344 0-2.031 1.078-.688 1.062-.688 3.156 0 2.094.688 3.172.688 1.062 2.031 1.062.625 0 1.219-.265.594-.281 1.219-.86v2.72Z"/><text x="147.5" y="1267.28" fill="#D9B8FF" font-family="Helvetica" font-size="17" textLength="285">aws_sagemaker_app_specification</text><path d="M114.5 1281.289h325" style="stroke:#000d19;stroke-width:1.5"/><text x="124.5" y="1300.499" fill="#D9B8FF" font-family="sans-serif" font-size="11" font-weight="bold" textLength="62">image_uri</text><text x="186.5" y="1300.499" fill="#D9B8FF" font-family="sans-serif" font-size="11" textLength="41">: string</text><text x="124.5" y="1323.304" fill="#D9B8FF" font-family="sans-serif" font-size="11" font-weight="bold" textLength="133">container_entrypoint</text><text x="257.5" y="1323.304" fill="#D9B8FF" font-family="sans-serif" font-size="11" textLength="49">: string[]</text><text x="124.5" y="1346.109" fill="#D9B8FF" font-family="sans-serif" font-size="11" font-weight="bold" textLength="135">container_arguments</text><text x="259.5" y="1346.109" fill="#D9B8FF" font-family="sans-serif" font-size="11" textLength="49">: string[]</text></a><a xlink:actuate="onRequest" xlink:href="#e" xlink:show="new" xlink:title="#aws_sagemaker_processing_job" xlink:type="simple" target="_top"><rect id="e" width="540" height="412.664" x="790" y="757" fill="#3D176E" rx="2.5" ry="2.5" style="stroke:#000d19;stroke-width:1.5"/><circle cx="918.75" cy="776.894" r="11" fill="#E98DF7" style="stroke:#000d19;stroke-width:1"/><path d="M921.719 782.535q-.578.297-1.219.438-.64.156-1.344.156-2.5 0-3.828-1.64-1.312-1.657-1.312-4.782t1.312-4.781q1.328-1.657 3.828-1.657.703 0 1.344.157.656.156 1.219.453v2.719q-.625-.578-1.219-.844-.594-.281-1.219-.281-1.343 0-2.031 1.078-.688 1.062-.688 3.156 0 2.094.688 3.172.688 1.062 2.031 1.062.625 0 1.219-.265.594-.282 1.219-.86v2.72Z"/><text x="944.25" y="782.78" fill="#D9B8FF" font-family="Helvetica" font-size="17" textLength="264">aws_sagemaker_processing_job</text><path d="M791 796.789h538" style="stroke:#000d19;stroke-width:1.5"/><text x="801" y="816" fill="#D9B8FF" font-family="sans-serif" font-size="11" font-weight="bold" textLength="218">processing_job_processing_inputs</text><text x="1019" y="816" fill="#D9B8FF" font-family="sans-serif" font-size="11" textLength="212">: aws_sagemaker_processing_input[]</text><text x="801" y="838.804" fill="#D9B8FF" font-family="sans-serif" font-size="11" font-weight="bold" textLength="266">processing_job_processing_output_config</text><text x="1067" y="838.804" fill="#D9B8FF" font-family="sans-serif" font-size="11" textLength="252">: aws_sagemaker_processing_output_config</text><text x="801" y="861.609" fill="#D9B8FF" font-family="sans-serif" font-size="11" font-weight="bold" textLength="241">processing_job_processing_resources</text><text x="1042" y="861.609" fill="#D9B8FF" font-family="sans-serif" font-size="11" textLength="234">: aws_sagemaker_processing_resources</text><text x="801" y="884.414" fill="#D9B8FF" font-family="sans-serif" font-size="11" font-weight="bold" textLength="224">processing_job_stopping_condition</text><text x="1025" y="884.414" fill="#D9B8FF" font-family="sans-serif" font-size="11" textLength="36">: int64</text><text x="801" y="907.218" fill="#D9B8FF" font-family="sans-serif" font-size="11" font-weight="bold" textLength="215">processing_job_app_specification</text><text x="1016" y="907.218" fill="#D9B8FF" font-family="sans-serif" font-size="11" textLength="205">: aws_sagemaker_app_specification</text><text x="801" y="930.023" fill="#D9B8FF" font-family="sans-serif" font-size="11" font-weight="bold" textLength="182">processing_job_environment</text><text x="983" y="930.023" fill="#D9B8FF" font-family="sans-serif" font-size="11" textLength="145">: dictionary[string, string]</text><text x="801" y="952.828" fill="#D9B8FF" font-family="sans-serif" font-size="11" font-weight="bold" textLength="200">processing_job_network_config</text><text x="1001" y="952.828" fill="#D9B8FF" font-family="sans-serif" font-size="11" textLength="192">: aws_sagemaker_network_config</text><text x="801" y="975.632" fill="#D9B8FF" font-family="sans-serif" font-size="11" font-weight="bold" textLength="154">processing_job_role_arn</text><text x="955" y="975.632" fill="#D9B8FF" font-family="sans-serif" font-size="11" textLength="41">: string</text><text x="801" y="998.437" fill="#D9B8FF" font-family="sans-serif" font-size="11" font-weight="bold" textLength="298">processing_job_trial_component_display_name</text><text x="1099" y="998.437" fill="#D9B8FF" font-family="sans-serif" font-size="11" textLength="41">: string</text><text x="801" y="1021.242" fill="#D9B8FF" font-family="sans-serif" font-size="11" font-weight="bold" textLength="142">processing_job_status</text><text x="943" y="1021.242" fill="#D9B8FF" font-family="sans-serif" font-size="11" textLength="41">: string</text><text x="801" y="1044.046" fill="#D9B8FF" font-family="sans-serif" font-size="11" font-weight="bold" textLength="189">processing_job_exit_message</text><text x="990" y="1044.046" fill="#D9B8FF" font-family="sans-serif" font-size="11" textLength="41">: string</text><text x="801" y="1066.851" fill="#D9B8FF" font-family="sans-serif" font-size="11" font-weight="bold" textLength="194">processing_job_failure_reason</text><text x="995" y="1066.851" fill="#D9B8FF" font-family="sans-serif" font-size="11" textLength="41">: string</text><text x="801" y="1089.656" fill="#D9B8FF" font-family="sans-serif" font-size="11" font-weight="bold" textLength="236">processing_job_processing_end_time</text><text x="1037" y="1089.656" fill="#D9B8FF" font-family="sans-serif" font-size="11" textLength="58">: datetime</text><text x="801" y="1112.46" fill="#D9B8FF" font-family="sans-serif" font-size="11" font-weight="bold" textLength="242">processing_job_processing_start_time</text><text x="1043" y="1112.46" fill="#D9B8FF" font-family="sans-serif" font-size="11" textLength="58">: datetime</text><text x="801" y="1135.265" fill="#D9B8FF" font-family="sans-serif" font-size="11" font-weight="bold" textLength="262">processing_job_monitoring_schedule_arn</text><text x="1063" y="1135.265" fill="#D9B8FF" font-family="sans-serif" font-size="11" textLength="41">: string</text><text x="801" y="1158.07" fill="#D9B8FF" font-family="sans-serif" font-size="11" font-weight="bold" textLength="205">processing_job_auto_ml_job_arn</text><text x="1006" y="1158.07" fill="#D9B8FF" font-family="sans-serif" font-size="11" textLength="41">: string</text></a><a xlink:actuate="onRequest" xlink:href="#f" xlink:show="new" xlink:title="#aws_sagemaker_job" xlink:type="simple" target="_top"><rect id="f" width="210" height="39.789" x="955" y="596" fill="#3D176E" rx="2.5" ry="2.5" style="stroke:#000d19;stroke-width:1.5"/><circle cx="970" cy="615.894" r="11" fill="#E98DF7" style="stroke:#000d19;stroke-width:1"/><path d="M972.969 621.535q-.578.297-1.219.438-.64.156-1.344.156-2.5 0-3.828-1.64-1.312-1.657-1.312-4.782t1.312-4.781q1.328-1.657 3.828-1.657.703 0 1.344.157.656.156 1.219.453v2.719q-.625-.578-1.219-.844-.594-.281-1.219-.281-1.343 0-2.031 1.078-.688 1.062-.688 3.156 0 2.094.688 3.172.688 1.062 2.031 1.062.625 0 1.219-.265.594-.282 1.219-.86v2.72Z"/><text x="989" y="621.78" fill="#D9B8FF" font-family="Helvetica" font-size="17" textLength="168">aws_sagemaker_job</text></a><a xlink:actuate="onRequest" xlink:href="#g" xlink:show="new" xlink:title="#aws_sagemaker_processing_input" xlink:type="simple" target="_top"><rect id="g" width="347" height="139.008" x="475.5" y="1230" fill="#3D176E" rx="2.5" ry="2.5" style="stroke:#000d19;stroke-width:1.5"/><circle cx="500.4" cy="1249.895" r="11" fill="#E98DF7" style="stroke:#000d19;stroke-width:1"/><path d="M503.369 1255.535q-.578.297-1.219.438-.64.156-1.344.156-2.5 0-3.828-1.64-1.312-1.657-1.312-4.782t1.312-4.781q1.328-1.656 3.828-1.656.703 0 1.344.156.656.156 1.219.453v2.719q-.625-.578-1.219-.844-.594-.281-1.219-.281-1.344 0-2.031 1.078-.688 1.062-.688 3.156 0 2.094.688 3.172.688 1.062 2.031 1.062.625 0 1.219-.265.594-.281 1.219-.86v2.72Z"/><text x="521.6" y="1255.78" fill="#D9B8FF" font-family="Helvetica" font-size="17" textLength="283">aws_sagemaker_processing_input</text><path d="M476.5 1269.789h345" style="stroke:#000d19;stroke-width:1.5"/><text x="486.5" y="1288.999" fill="#D9B8FF" font-family="sans-serif" font-size="11" font-weight="bold" textLength="74">input_name</text><text x="560.5" y="1288.999" fill="#D9B8FF" font-family="sans-serif" font-size="11" textLength="41">: string</text><text x="486.5" y="1311.804" fill="#D9B8FF" font-family="sans-serif" font-size="11" font-weight="bold" textLength="89">app_managed</text><text x="575.5" y="1311.804" fill="#D9B8FF" font-family="sans-serif" font-size="11" textLength="53">: boolean</text><text x="486.5" y="1334.609" fill="#D9B8FF" font-family="sans-serif" font-size="11" font-weight="bold" textLength="54">s3_input</text><text x="540.5" y="1334.609" fill="#D9B8FF" font-family="sans-serif" font-size="11" textLength="224">: aws_sagemaker_processing_s3_input</text><text x="486.5" y="1357.414" fill="#D9B8FF" font-family="sans-serif" font-size="11" font-weight="bold" textLength="117">dataset_definition</text><text x="603.5" y="1357.414" fill="#D9B8FF" font-family="sans-serif" font-size="11" textLength="208">: aws_sagemaker_dataset_definition</text></a><a xlink:actuate="onRequest" xlink:href="#h" xlink:show="new" xlink:title="#aws_sagemaker_processing_s3_input" xlink:type="simple" target="_top"><rect id="h" width="353" height="184.617" x="32.5" y="1429" fill="#3D176E" rx="2.5" ry="2.5" style="stroke:#000d19;stroke-width:1.5"/><circle cx="47.5" cy="1448.895" r="11" fill="#E98DF7" style="stroke:#000d19;stroke-width:1"/><path d="M50.469 1454.535q-.578.297-1.219.438-.64.156-1.344.156-2.5 0-3.828-1.64-1.312-1.657-1.312-4.782t1.312-4.781q1.328-1.656 3.828-1.656.703 0 1.344.156.656.156 1.219.453v2.719q-.625-.578-1.219-.844-.594-.281-1.219-.281-1.343 0-2.031 1.078-.688 1.062-.688 3.156 0 2.094.688 3.172.688 1.062 2.031 1.062.625 0 1.219-.265.594-.281 1.219-.86v2.72Z"/><text x="66.5" y="1454.78" fill="#D9B8FF" font-family="Helvetica" font-size="17" textLength="311">aws_sagemaker_processing_s3_input</text><path d="M33.5 1468.789h351" style="stroke:#000d19;stroke-width:1.5"/><text x="43.5" y="1487.999" fill="#D9B8FF" font-family="sans-serif" font-size="11" font-weight="bold" textLength="38">s3_uri</text><text x="81.5" y="1487.999" fill="#D9B8FF" font-family="sans-serif" font-size="11" textLength="41">: string</text><text x="43.5" y="1510.804" fill="#D9B8FF" font-family="sans-serif" font-size="11" font-weight="bold" textLength="66">local_path</text><text x="109.5" y="1510.804" fill="#D9B8FF" font-family="sans-serif" font-size="11" textLength="41">: string</text><text x="43.5" y="1533.609" fill="#D9B8FF" font-family="sans-serif" font-size="11" font-weight="bold" textLength="84">s3_data_type</text><text x="127.5" y="1533.609" fill="#D9B8FF" font-family="sans-serif" font-size="11" textLength="41">: string</text><text x="43.5" y="1556.414" fill="#D9B8FF" font-family="sans-serif" font-size="11" font-weight="bold" textLength="95">s3_input_mode</text><text x="138.5" y="1556.414" fill="#D9B8FF" font-family="sans-serif" font-size="11" textLength="41">: string</text><text x="43.5" y="1579.218" fill="#D9B8FF" font-family="sans-serif" font-size="11" font-weight="bold" textLength="164">s3_data_distribution_type</text><text x="207.5" y="1579.218" fill="#D9B8FF" font-family="sans-serif" font-size="11" textLength="41">: string</text><text x="43.5" y="1602.023" fill="#D9B8FF" font-family="sans-serif" font-size="11" font-weight="bold" textLength="136">s3_compression_type</text><text x="179.5" y="1602.023" fill="#D9B8FF" font-family="sans-serif" font-size="11" textLength="41">: string</text></a><a xlink:actuate="onRequest" xlink:href="#i" xlink:show="new" xlink:title="#aws_sagemaker_dataset_definition" xlink:type="simple" target="_top"><rect id="i" width="453" height="161.813" x="420.5" y="1440.5" fill="#3D176E" rx="2.5" ry="2.5" style="stroke:#000d19;stroke-width:1.5"/><circle cx="490.75" cy="1460.395" r="11" fill="#E98DF7" style="stroke:#000d19;stroke-width:1"/><path d="M493.719 1466.035q-.578.297-1.219.438-.64.156-1.344.156-2.5 0-3.828-1.64-1.312-1.657-1.312-4.782t1.312-4.781q1.328-1.656 3.828-1.656.703 0 1.344.156.656.156 1.219.453v2.719q-.625-.578-1.219-.844-.594-.281-1.219-.281-1.344 0-2.031 1.078-.688 1.062-.688 3.156 0 2.094.688 3.172.688 1.062 2.031 1.062.625 0 1.219-.265.594-.281 1.219-.86v2.72Z"/><text x="516.25" y="1466.28" fill="#D9B8FF" font-family="Helvetica" font-size="17" textLength="294">aws_sagemaker_dataset_definition</text><path d="M421.5 1480.289h451" style="stroke:#000d19;stroke-width:1.5"/><text x="431.5" y="1499.499" fill="#D9B8FF" font-family="sans-serif" font-size="11" font-weight="bold" textLength="168">athena_dataset_definition</text><text x="599.5" y="1499.499" fill="#D9B8FF" font-family="sans-serif" font-size="11" textLength="253">: aws_sagemaker_athena_dataset_definition</text><text x="431.5" y="1522.304" fill="#D9B8FF" font-family="sans-serif" font-size="11" font-weight="bold" textLength="173">redshift_dataset_definition</text><text x="604.5" y="1522.304" fill="#D9B8FF" font-family="sans-serif" font-size="11" textLength="258">: aws_sagemaker_redshift_dataset_definition</text><text x="431.5" y="1545.109" fill="#D9B8FF" font-family="sans-serif" font-size="11" font-weight="bold" textLength="66">local_path</text><text x="497.5" y="1545.109" fill="#D9B8FF" font-family="sans-serif" font-size="11" textLength="41">: string</text><text x="431.5" y="1567.914" fill="#D9B8FF" font-family="sans-serif" font-size="11" font-weight="bold" textLength="143">data_distribution_type</text><text x="574.5" y="1567.914" fill="#D9B8FF" font-family="sans-serif" font-size="11" textLength="41">: string</text><text x="431.5" y="1590.718" fill="#D9B8FF" font-family="sans-serif" font-size="11" font-weight="bold" textLength="74">input_mode</text><text x="505.5" y="1590.718" fill="#D9B8FF" font-family="sans-serif" font-size="11" textLength="41">: string</text></a><a xlink:actuate="onRequest" xlink:href="#j" xlink:show="new" xlink:title="#aws_sagemaker_athena_dataset_definition" xlink:type="simple" target="_top"><rect id="j" width="404" height="230.227" x="7" y="1685.5" fill="#3D176E" rx="2.5" ry="2.5" style="stroke:#000d19;stroke-width:1.5"/><circle cx="22" cy="1705.395" r="11" fill="#E98DF7" style="stroke:#000d19;stroke-width:1"/><path d="M24.969 1711.035q-.578.297-1.219.438-.64.156-1.344.156-2.5 0-3.828-1.64-1.312-1.657-1.312-4.782t1.312-4.781q1.328-1.656 3.828-1.656.703 0 1.344.156.656.156 1.219.453v2.719q-.625-.578-1.219-.844-.594-.281-1.219-.281-1.343 0-2.031 1.078-.688 1.062-.688 3.156 0 2.094.688 3.172.688 1.062 2.031 1.062.625 0 1.219-.265.594-.281 1.219-.86v2.72Z"/><text x="41" y="1711.28" fill="#D9B8FF" font-family="Helvetica" font-size="17" textLength="362">aws_sagemaker_athena_dataset_definition</text><path d="M8 1725.289h402" style="stroke:#000d19;stroke-width:1.5"/><text x="18" y="1744.499" fill="#D9B8FF" font-family="sans-serif" font-size="11" font-weight="bold" textLength="48">catalog</text><text x="66" y="1744.499" fill="#D9B8FF" font-family="sans-serif" font-size="11" textLength="41">: string</text><text x="18" y="1767.304" fill="#D9B8FF" font-family="sans-serif" font-size="11" font-weight="bold" textLength="60">database</text><text x="78" y="1767.304" fill="#D9B8FF" font-family="sans-serif" font-size="11" textLength="41">: string</text><text x="18" y="1790.109" fill="#D9B8FF" font-family="sans-serif" font-size="11" font-weight="bold" textLength="79">query_string</text><text x="97" y="1790.109" fill="#D9B8FF" font-family="sans-serif" font-size="11" textLength="41">: string</text><text x="18" y="1812.914" fill="#D9B8FF" font-family="sans-serif" font-size="11" font-weight="bold" textLength="74">work_group</text><text x="92" y="1812.914" fill="#D9B8FF" font-family="sans-serif" font-size="11" textLength="41">: string</text><text x="18" y="1835.718" fill="#D9B8FF" font-family="sans-serif" font-size="11" font-weight="bold" textLength="86">output_s3_uri</text><text x="104" y="1835.718" fill="#D9B8FF" font-family="sans-serif" font-size="11" textLength="41">: string</text><text x="18" y="1858.523" fill="#D9B8FF" font-family="sans-serif" font-size="11" font-weight="bold" textLength="71">kms_key_id</text><text x="89" y="1858.523" fill="#D9B8FF" font-family="sans-serif" font-size="11" textLength="41">: string</text><text x="18" y="1881.328" fill="#D9B8FF" font-family="sans-serif" font-size="11" font-weight="bold" textLength="90">output_format</text><text x="108" y="1881.328" fill="#D9B8FF" font-family="sans-serif" font-size="11" textLength="41">: string</text><text x="18" y="1904.132" fill="#D9B8FF" font-family="sans-serif" font-size="11" font-weight="bold" textLength="129">output_compression</text><text x="147" y="1904.132" fill="#D9B8FF" font-family="sans-serif" font-size="11" textLength="41">: string</text></a><a xlink:actuate="onRequest" xlink:href="#k" xlink:show="new" xlink:title="#aws_sagemaker_redshift_dataset_definition" xlink:type="simple" target="_top"><rect id="k" width="409" height="253.031" x="446.5" y="1674" fill="#3D176E" rx="2.5" ry="2.5" style="stroke:#000d19;stroke-width:1.5"/><circle cx="461.5" cy="1693.895" r="11" fill="#E98DF7" style="stroke:#000d19;stroke-width:1"/><path d="M464.469 1699.535q-.578.297-1.219.438-.64.156-1.344.156-2.5 0-3.828-1.64-1.312-1.657-1.312-4.782t1.312-4.781q1.328-1.656 3.828-1.656.703 0 1.344.156.656.156 1.219.453v2.719q-.625-.578-1.219-.844-.594-.281-1.219-.281-1.344 0-2.031 1.078-.688 1.062-.688 3.156 0 2.094.688 3.172.688 1.062 2.031 1.062.625 0 1.219-.265.594-.281 1.219-.86v2.72Z"/><text x="480.5" y="1699.78" fill="#D9B8FF" font-family="Helvetica" font-size="17" textLength="367">aws_sagemaker_redshift_dataset_definition</text><path d="M447.5 1713.789h407" style="stroke:#000d19;stroke-width:1.5"/><text x="457.5" y="1732.999" fill="#D9B8FF" font-family="sans-serif" font-size="11" font-weight="bold" textLength="62">cluster_id</text><text x="519.5" y="1732.999" fill="#D9B8FF" font-family="sans-serif" font-size="11" textLength="41">: string</text><text x="457.5" y="1755.804" fill="#D9B8FF" font-family="sans-serif" font-size="11" font-weight="bold" textLength="60">database</text><text x="517.5" y="1755.804" fill="#D9B8FF" font-family="sans-serif" font-size="11" textLength="41">: string</text><text x="457.5" y="1778.609" fill="#D9B8FF" font-family="sans-serif" font-size="11" font-weight="bold" textLength="50">db_user</text><text x="507.5" y="1778.609" fill="#D9B8FF" font-family="sans-serif" font-size="11" textLength="41">: string</text><text x="457.5" y="1801.414" fill="#D9B8FF" font-family="sans-serif" font-size="11" font-weight="bold" textLength="79">query_string</text><text x="536.5" y="1801.414" fill="#D9B8FF" font-family="sans-serif" font-size="11" textLength="41">: string</text><text x="457.5" y="1824.218" fill="#D9B8FF" font-family="sans-serif" font-size="11" font-weight="bold" textLength="102">cluster_role_arn</text><text x="559.5" y="1824.218" fill="#D9B8FF" font-family="sans-serif" font-size="11" textLength="41">: string</text><text x="457.5" y="1847.023" fill="#D9B8FF" font-family="sans-serif" font-size="11" font-weight="bold" textLength="86">output_s3_uri</text><text x="543.5" y="1847.023" fill="#D9B8FF" font-family="sans-serif" font-size="11" textLength="41">: string</text><text x="457.5" y="1869.828" fill="#D9B8FF" font-family="sans-serif" font-size="11" font-weight="bold" textLength="71">kms_key_id</text><text x="528.5" y="1869.828" fill="#D9B8FF" font-family="sans-serif" font-size="11" textLength="41">: string</text><text x="457.5" y="1892.632" fill="#D9B8FF" font-family="sans-serif" font-size="11" font-weight="bold" textLength="90">output_format</text><text x="547.5" y="1892.632" fill="#D9B8FF" font-family="sans-serif" font-size="11" textLength="41">: string</text><text x="457.5" y="1915.437" fill="#D9B8FF" font-family="sans-serif" font-size="11" font-weight="bold" textLength="129">output_compression</text><text x="586.5" y="1915.437" fill="#D9B8FF" font-family="sans-serif" font-size="11" textLength="41">: string</text></a><a xlink:actuate="onRequest" xlink:href="#l" xlink:show="new" xlink:title="#aws_sagemaker_processing_output_config" xlink:type="simple" target="_top"><rect id="l" width="396" height="93.398" x="862" y="1253" fill="#3D176E" rx="2.5" ry="2.5" style="stroke:#000d19;stroke-width:1.5"/><circle cx="877" cy="1272.895" r="11" fill="#E98DF7" style="stroke:#000d19;stroke-width:1"/><path d="M879.969 1278.535q-.578.297-1.219.438-.64.156-1.344.156-2.5 0-3.828-1.64-1.312-1.657-1.312-4.782t1.312-4.781q1.328-1.656 3.828-1.656.703 0 1.344.156.656.156 1.219.453v2.719q-.625-.578-1.219-.844-.594-.281-1.219-.281-1.343 0-2.031 1.078-.688 1.062-.688 3.156 0 2.094.688 3.172.688 1.062 2.031 1.062.625 0 1.219-.265.594-.281 1.219-.86v2.72Z"/><text x="896" y="1278.78" fill="#D9B8FF" font-family="Helvetica" font-size="17" textLength="354">aws_sagemaker_processing_output_config</text><path d="M863 1292.789h394" style="stroke:#000d19;stroke-width:1.5"/><text x="873" y="1311.999" fill="#D9B8FF" font-family="sans-serif" font-size="11" font-weight="bold" textLength="49">outputs</text><text x="922" y="1311.999" fill="#D9B8FF" font-family="sans-serif" font-size="11" textLength="220">: aws_sagemaker_processing_output[]</text><text x="873" y="1334.804" fill="#D9B8FF" font-family="sans-serif" font-size="11" font-weight="bold" textLength="71">kms_key_id</text><text x="944" y="1334.804" fill="#D9B8FF" font-family="sans-serif" font-size="11" textLength="41">: string</text></a><a xlink:actuate="onRequest" xlink:href="#m" xlink:show="new" xlink:title="#aws_sagemaker_processing_output" xlink:type="simple" target="_top"><rect id="m" width="337" height="139.008" x="908.5" y="1452" fill="#3D176E" rx="2.5" ry="2.5" style="stroke:#000d19;stroke-width:1.5"/><circle cx="923.5" cy="1471.895" r="11" fill="#E98DF7" style="stroke:#000d19;stroke-width:1"/><path d="M926.469 1477.535q-.578.297-1.219.438-.64.156-1.344.156-2.5 0-3.828-1.64-1.312-1.657-1.312-4.782t1.312-4.781q1.328-1.656 3.828-1.656.703 0 1.344.156.656.156 1.219.453v2.719q-.625-.578-1.219-.844-.594-.281-1.219-.281-1.343 0-2.031 1.078-.688 1.062-.688 3.156 0 2.094.688 3.172.688 1.062 2.031 1.062.625 0 1.219-.265.594-.281 1.219-.86v2.72Z"/><text x="942.5" y="1477.78" fill="#D9B8FF" font-family="Helvetica" font-size="17" textLength="295">aws_sagemaker_processing_output</text><path d="M909.5 1491.789h335" style="stroke:#000d19;stroke-width:1.5"/><text x="919.5" y="1510.999" fill="#D9B8FF" font-family="sans-serif" font-size="11" font-weight="bold" textLength="83">output_name</text><text x="1002.5" y="1510.999" fill="#D9B8FF" font-family="sans-serif" font-size="11" textLength="41">: string</text><text x="919.5" y="1533.804" fill="#D9B8FF" font-family="sans-serif" font-size="11" font-weight="bold" textLength="63">s3_output</text><text x="982.5" y="1533.804" fill="#D9B8FF" font-family="sans-serif" font-size="11" textLength="232">: aws_sagemaker_processing_s3_output</text><text x="919.5" y="1556.609" fill="#D9B8FF" font-family="sans-serif" font-size="11" font-weight="bold" textLength="134">feature_store_output</text><text x="1053.5" y="1556.609" fill="#D9B8FF" font-family="sans-serif" font-size="11" textLength="41">: string</text><text x="919.5" y="1579.414" fill="#D9B8FF" font-family="sans-serif" font-size="11" font-weight="bold" textLength="89">app_managed</text><text x="1008.5" y="1579.414" fill="#D9B8FF" font-family="sans-serif" font-size="11" textLength="53">: boolean</text></a><a xlink:actuate="onRequest" xlink:href="#n" xlink:show="new" xlink:title="#aws_sagemaker_processing_s3_output" xlink:type="simple" target="_top"><rect id="n" width="365" height="116.203" x="894.5" y="1742.5" fill="#3D176E" rx="2.5" ry="2.5" style="stroke:#000d19;stroke-width:1.5"/><circle cx="909.5" cy="1762.395" r="11" fill="#E98DF7" style="stroke:#000d19;stroke-width:1"/><path d="M912.469 1768.035q-.578.297-1.219.438-.64.156-1.344.156-2.5 0-3.828-1.64-1.312-1.657-1.312-4.782t1.312-4.781q1.328-1.656 3.828-1.656.703 0 1.344.156.656.156 1.219.453v2.719q-.625-.578-1.219-.844-.594-.281-1.219-.281-1.343 0-2.031 1.078-.688 1.062-.688 3.156 0 2.094.688 3.172.688 1.062 2.031 1.062.625 0 1.219-.265.594-.281 1.219-.86v2.72Z"/><text x="928.5" y="1768.28" fill="#D9B8FF" font-family="Helvetica" font-size="17" textLength="323">aws_sagemaker_processing_s3_output</text><path d="M895.5 1782.289h363" style="stroke:#000d19;stroke-width:1.5"/><text x="905.5" y="1801.499" fill="#D9B8FF" font-family="sans-serif" font-size="11" font-weight="bold" textLength="38">s3_uri</text><text x="943.5" y="1801.499" fill="#D9B8FF" font-family="sans-serif" font-size="11" textLength="41">: string</text><text x="905.5" y="1824.304" fill="#D9B8FF" font-family="sans-serif" font-size="11" font-weight="bold" textLength="66">local_path</text><text x="971.5" y="1824.304" fill="#D9B8FF" font-family="sans-serif" font-size="11" textLength="41">: string</text><text x="905.5" y="1847.109" fill="#D9B8FF" font-family="sans-serif" font-size="11" font-weight="bold" textLength="106">s3_upload_mode</text><text x="1011.5" y="1847.109" fill="#D9B8FF" font-family="sans-serif" font-size="11" textLength="41">: string</text></a><a xlink:actuate="onRequest" xlink:href="#o" xlink:show="new" xlink:title="#aws_sagemaker_processing_resources" xlink:type="simple" target="_top"><rect id="o" width="367" height="70.594" x="1293.5" y="1264" fill="#3D176E" rx="2.5" ry="2.5" style="stroke:#000d19;stroke-width:1.5"/><circle cx="1311.65" cy="1283.895" r="11" fill="#E98DF7" style="stroke:#000d19;stroke-width:1"/><path d="M1314.619 1289.535q-.578.297-1.219.438-.64.156-1.344.156-2.5 0-3.828-1.64-1.312-1.657-1.312-4.782t1.312-4.781q1.328-1.656 3.828-1.656.703 0 1.344.156.656.156 1.219.453v2.719q-.625-.578-1.219-.844-.594-.281-1.219-.281-1.343 0-2.031 1.078-.688 1.062-.688 3.156 0 2.094.688 3.172.688 1.062 2.031 1.062.625 0 1.219-.265.594-.281 1.219-.86v2.72Z"/><text x="1331.35" y="1289.78" fill="#D9B8FF" font-family="Helvetica" font-size="17" textLength="318">aws_sagemaker_processing_resources</text><path d="M1294.5 1303.789h365" style="stroke:#000d19;stroke-width:1.5"/><text x="1304.5" y="1322.999" fill="#D9B8FF" font-family="sans-serif" font-size="11" font-weight="bold" textLength="90">cluster_config</text><text x="1394.5" y="1322.999" fill="#D9B8FF" font-family="sans-serif" font-size="11" textLength="255">: aws_sagemaker_processing_cluster_config</text></a><a xlink:actuate="onRequest" xlink:href="#p" xlink:show="new" xlink:title="#aws_sagemaker_processing_cluster_config" xlink:type="simple" target="_top"><rect id="p" width="396" height="139.008" x="1281" y="1452" fill="#3D176E" rx="2.5" ry="2.5" style="stroke:#000d19;stroke-width:1.5"/><circle cx="1296" cy="1471.895" r="11" fill="#E98DF7" style="stroke:#000d19;stroke-width:1"/><path d="M1298.969 1477.535q-.578.297-1.219.438-.64.156-1.344.156-2.5 0-3.828-1.64-1.312-1.657-1.312-4.782t1.312-4.781q1.328-1.656 3.828-1.656.703 0 1.344.156.656.156 1.219.453v2.719q-.625-.578-1.219-.844-.594-.281-1.219-.281-1.343 0-2.031 1.078-.688 1.062-.688 3.156 0 2.094.688 3.172.688 1.062 2.031 1.062.625 0 1.219-.265.594-.281 1.219-.86v2.72Z"/><text x="1315" y="1477.78" fill="#D9B8FF" font-family="Helvetica" font-size="17" textLength="354">aws_sagemaker_processing_cluster_config</text><path d="M1282 1491.789h394" style="stroke:#000d19;stroke-width:1.5"/><text x="1292" y="1510.999" fill="#D9B8FF" font-family="sans-serif" font-size="11" font-weight="bold" textLength="97">instance_count</text><text x="1389" y="1510.999" fill="#D9B8FF" font-family="sans-serif" font-size="11" textLength="36">: int64</text><text x="1292" y="1533.804" fill="#D9B8FF" font-family="sans-serif" font-size="11" font-weight="bold" textLength="89">instance_type</text><text x="1381" y="1533.804" fill="#D9B8FF" font-family="sans-serif" font-size="11" textLength="41">: string</text><text x="1292" y="1556.609" fill="#D9B8FF" font-family="sans-serif" font-size="11" font-weight="bold" textLength="118">volume_size_in_gb</text><text x="1410" y="1556.609" fill="#D9B8FF" font-family="sans-serif" font-size="11" textLength="36">: int64</text><text x="1292" y="1579.414" fill="#D9B8FF" font-family="sans-serif" font-size="11" font-weight="bold" textLength="123">volume_kms_key_id</text><text x="1415" y="1579.414" fill="#D9B8FF" font-family="sans-serif" font-size="11" textLength="41">: string</text></a><a xlink:actuate="onRequest" xlink:href="#q" xlink:show="new" xlink:title="#aws_sagemaker_network_config" xlink:type="simple" target="_top"><rect id="q" width="341" height="116.203" x="1695.5" y="1241.5" fill="#3D176E" rx="2.5" ry="2.5" style="stroke:#000d19;stroke-width:1.5"/><circle cx="1722.65" cy="1261.395" r="11" fill="#E98DF7" style="stroke:#000d19;stroke-width:1"/><path d="M1725.619 1267.035q-.578.297-1.219.438-.64.156-1.344.156-2.5 0-3.828-1.64-1.312-1.657-1.312-4.782t1.312-4.781q1.328-1.656 3.828-1.656.703 0 1.344.156.656.156 1.219.453v2.719q-.625-.578-1.219-.844-.594-.281-1.219-.281-1.343 0-2.031 1.078-.688 1.062-.688 3.156 0 2.094.688 3.172.688 1.062 2.031 1.062.625 0 1.219-.265.594-.281 1.219-.86v2.72Z"/><text x="1744.35" y="1267.28" fill="#D9B8FF" font-family="Helvetica" font-size="17" textLength="272">aws_sagemaker_network_config</text><path d="M1696.5 1281.289h339" style="stroke:#000d19;stroke-width:1.5"/><text x="1706.5" y="1300.499" fill="#D9B8FF" font-family="sans-serif" font-size="11" font-weight="bold" textLength="266">enable_inter_container_traffic_encryption</text><text x="1972.5" y="1300.499" fill="#D9B8FF" font-family="sans-serif" font-size="11" textLength="53">: boolean</text><text x="1706.5" y="1323.304" fill="#D9B8FF" font-family="sans-serif" font-size="11" font-weight="bold" textLength="164">enable_network_isolation</text><text x="1870.5" y="1323.304" fill="#D9B8FF" font-family="sans-serif" font-size="11" textLength="53">: boolean</text><text x="1706.5" y="1346.109" fill="#D9B8FF" font-family="sans-serif" font-size="11" font-weight="bold" textLength="68">vpc_config</text><text x="1774.5" y="1346.109" fill="#D9B8FF" font-family="sans-serif" font-size="11" textLength="166">: aws_sagemaker_vpc_config</text></a><path fill="none" d="M1060 303.43V403.9m-7-100.64 7-20 7 20h-14zm7 353.09v100.23m-7-100.51 7-20 7 20h-14zm-245.98 514.01c-24.61 20-48.25 39.22-69.42 56.42" style="stroke:#ffaf37;stroke-width:2"/><path fill="#FFAF37" d="m733.68 1229.69 9.503-2.588-5.628-.572.572-5.628-4.447 8.788z" style="stroke:#ffaf37;stroke-width:2"/><path fill="none" d="M1060 1170.32v77.33" style="stroke:#ffaf37;stroke-width:2"/><path fill="#FFAF37" d="m1060 1252.78 4-9-4 4-4-4 4 9z" style="stroke:#ffaf37;stroke-width:2"/><path fill="none" d="M1316.67 1170.08c43.2 34.6 83.47 66.86 112.85 90.39" style="stroke:#ffaf37;stroke-width:2"/><path fill="#FFAF37" d="m1433.78 1263.88-4.517-8.752.617 5.623-5.623.618 9.523 2.511z" style="stroke:#ffaf37;stroke-width:2"/><path fill="none" d="M789.99 1079.68c-126.13 53.8-270.93 115.57-374.46 159.73" style="stroke:#ffaf37;stroke-width:2"/><path fill="#FFAF37" d="m410.64 1241.5 9.848.157-5.247-2.114 2.115-5.247-6.716 7.204z" style="stroke:#ffaf37;stroke-width:2"/><path fill="none" d="M1330.07 1076.41c131.63 54.55 284.56 117.92 393.29 162.98" style="stroke:#ffaf37;stroke-width:2"/><path fill="#FFAF37" d="m1728.18 1241.39-6.78-7.143 2.162 5.227-5.228 2.162 9.846-.246z" style="stroke:#ffaf37;stroke-width:2"/><path fill="none" d="M1060 495.52v100.3m-7-100.43 7-20 7 20h-14zm-541.11 873.66c-38.41 19.21-80.77 40.39-121.34 60.67" style="stroke:#ffaf37;stroke-width:2"/><path fill="#FFAF37" d="m385.61 1432.19 9.838-.46-5.369-1.782 1.782-5.369-6.251 7.611z" style="stroke:#ffaf37;stroke-width:2"/><path fill="none" d="M648.38 1369.2c-.19 20.9-.41 44.11-.6 65.96" style="stroke:#ffaf37;stroke-width:2"/><path fill="#FFAF37" d="m647.73 1440.39 4.103-8.954-4.046 3.954-3.954-4.045 3.897 9.045z" style="stroke:#ffaf37;stroke-width:2"/><path fill="none" d="M520.31 1602.62c-39.45 24.95-83.79 52.99-126.37 79.92" style="stroke:#ffaf37;stroke-width:2"/><path fill="#FFAF37" d="m389.56 1685.31 9.74-1.464-5.524-1.223L395 1677.1l-5.44 8.21z" style="stroke:#ffaf37;stroke-width:2"/><path fill="none" d="M648.16 1602.62c.3 20.72.63 43.58.95 66.16" style="stroke:#ffaf37;stroke-width:2"/><path fill="#FFAF37" d="m649.19 1673.9 3.871-9.056-3.942 4.056-4.057-3.942 4.128 8.942z" style="stroke:#ffaf37;stroke-width:2"/><path fill="none" d="M1063.52 1346.08c2.25 29.03 5.2 67.31 7.78 100.6" style="stroke:#ffaf37;stroke-width:2"/><path fill="#FFAF37" d="m1071.71 1451.98 3.292-9.282-3.679 4.297-4.297-3.679 4.684 8.664z" style="stroke:#ffaf37;stroke-width:2"/><path fill="none" d="M1077 1591.33v145.69" style="stroke:#ffaf37;stroke-width:2"/><path fill="#FFAF37" d="m1077 1742.24 4-9-4 4-4-4 4 9z" style="stroke:#ffaf37;stroke-width:2"/><path fill="none" d="M1477.32 1335.36c.27 29.8.67 73.69 1.01 111.26" style="stroke:#ffaf37;stroke-width:2"/><path fill="#FFAF37" d="m1478.37 1451.64 3.923-9.034-3.966 4.034-4.034-3.965 4.077 8.965z" style="stroke:#ffaf37;stroke-width:2"/><path fill="none" d="M1866 1357.73v111.99" style="stroke:#ffaf37;stroke-width:2"/><path fill="#FFAF37" d="m1866 1474.99 4-9-4 4-4-4 4 9z" style="stroke:#ffaf37;stroke-width:2"/></svg>