<svg xmlns="http://www.w3.org/2000/svg" xmlns:xlink="http://www.w3.org/1999/xlink" width="977" height="352" preserveAspectRatio="none" style="width:977px;height:352px;background:#00000000"><a xlink:actuate="onRequest" xlink:href="#a" xlink:show="new" xlink:title="#aws_lambda_function" xlink:type="simple" target="_top"><rect id="a" width="224" height="39.789" x="520.43" y="307" fill="#3D176E" rx="2.5" ry="2.5" style="stroke:#000d19;stroke-width:1.5"/><circle cx="535.43" cy="326.894" r="11" fill="#E98DF7" style="stroke:#000d19;stroke-width:1"/><path d="M538.399 332.535q-.578.297-1.219.438-.64.156-1.344.156-2.5 0-3.828-1.64-1.312-1.657-1.312-4.782t1.312-4.781q1.328-1.656 3.828-1.656.703 0 1.344.156.656.156 1.219.453v2.719q-.625-.579-1.219-.844-.594-.281-1.219-.281-1.344 0-2.031 1.078-.688 1.062-.688 3.156 0 2.094.688 3.172.688 1.062 2.031 1.062.625 0 1.219-.265.594-.281 1.219-.86v2.72Z"/><text x="554.43" y="332.78" fill="#D9B8FF" font-family="Helvetica" font-size="17" textLength="182">aws_lambda_function</text></a><a xlink:actuate="onRequest" xlink:href="#b" xlink:show="new" xlink:title="#aws_api_gateway_deployment" xlink:type="simple" target="_top"><rect id="b" width="299" height="39.789" x="34.93" y="107" fill="#3D176E" rx="2.5" ry="2.5" style="stroke:#000d19;stroke-width:1.5"/><circle cx="49.93" cy="126.894" r="11" fill="#E98DF7" style="stroke:#000d19;stroke-width:1"/><path d="M52.899 132.535q-.578.297-1.219.438-.64.156-1.344.156-2.5 0-3.828-1.64-1.312-1.657-1.312-4.782t1.312-4.781q1.328-1.657 3.828-1.657.703 0 1.344.157.656.156 1.219.453v2.719q-.625-.579-1.219-.844-.594-.281-1.219-.281-1.343 0-2.031 1.078-.688 1.062-.688 3.156 0 2.094.688 3.172.688 1.062 2.031 1.062.625 0 1.219-.265.594-.281 1.219-.86v2.72Z"/><text x="68.93" y="132.78" fill="#D9B8FF" font-family="Helvetica" font-size="17" textLength="257">aws_api_gateway_deployment</text></a><a xlink:actuate="onRequest" xlink:href="#c" xlink:show="new" xlink:title="#aws_vpc_endpoint" xlink:type="simple" target="_top"><rect id="c" width="195" height="39.789" x="368.93" y="107" fill="#3D176E" rx="2.5" ry="2.5" style="stroke:#000d19;stroke-width:1.5"/><circle cx="383.93" cy="126.894" r="11" fill="#E98DF7" style="stroke:#000d19;stroke-width:1"/><path d="M386.899 132.535q-.578.297-1.219.438-.64.156-1.344.156-2.5 0-3.828-1.64-1.312-1.657-1.312-4.782t1.312-4.781q1.328-1.657 3.828-1.657.703 0 1.344.157.656.156 1.219.453v2.719q-.625-.579-1.219-.844-.594-.281-1.219-.281-1.344 0-2.031 1.078-.688 1.062-.688 3.156 0 2.094.688 3.172.688 1.062 2.031 1.062.625 0 1.219-.265.594-.281 1.219-.86v2.72Z"/><text x="402.93" y="132.78" fill="#D9B8FF" font-family="Helvetica" font-size="17" textLength="153">aws_vpc_endpoint</text></a><a xlink:actuate="onRequest" xlink:href="#d" xlink:show="new" xlink:title="#aws_api_gateway_resource" xlink:type="simple" target="_top"><rect id="d" width="270" height="39.789" x="599.43" y="107" fill="#3D176E" rx="2.5" ry="2.5" style="stroke:#000d19;stroke-width:1.5"/><circle cx="614.43" cy="126.894" r="11" fill="#E98DF7" style="stroke:#000d19;stroke-width:1"/><path d="M617.399 132.535q-.578.297-1.219.438-.64.156-1.344.156-2.5 0-3.828-1.64-1.312-1.657-1.312-4.782t1.312-4.781q1.328-1.657 3.828-1.657.703 0 1.344.157.656.156 1.219.453v2.719q-.625-.579-1.219-.844-.594-.281-1.219-.281-1.344 0-2.031 1.078-.688 1.062-.688 3.156 0 2.094.688 3.172.688 1.062 2.031 1.062.625 0 1.219-.265.594-.281 1.219-.86v2.72Z"/><text x="633.43" y="132.78" fill="#D9B8FF" font-family="Helvetica" font-size="17" textLength="228">aws_api_gateway_resource</text></a><a xlink:actuate="onRequest" xlink:href="#e" xlink:show="new" xlink:title="#aws_api_gateway_authorizer" xlink:type="simple" target="_top"><rect id="e" width="285" height="39.789" x="685.93" y="207" fill="#3D176E" rx="2.5" ry="2.5" style="stroke:#000d19;stroke-width:1.5"/><circle cx="700.93" cy="226.894" r="11" fill="#E98DF7" style="stroke:#000d19;stroke-width:1"/><path d="M703.899 232.535q-.578.297-1.219.438-.64.156-1.344.156-2.5 0-3.828-1.64-1.312-1.657-1.312-4.782t1.312-4.781q1.328-1.656 3.828-1.656.703 0 1.344.156.656.156 1.219.453v2.719q-.625-.579-1.219-.844-.594-.281-1.219-.281-1.344 0-2.031 1.078-.688 1.062-.688 3.156 0 2.094.688 3.172.688 1.062 2.031 1.062.625 0 1.219-.265.594-.281 1.219-.86v2.72Z"/><text x="719.93" y="232.78" fill="#D9B8FF" font-family="Helvetica" font-size="17" textLength="243">aws_api_gateway_authorizer</text></a><a xlink:actuate="onRequest" xlink:href="#f" xlink:show="new" xlink:title="#aws_api_gateway_rest_api" xlink:type="simple" target="_top"><rect id="f" width="265" height="39.789" x="333.93" y="7" fill="#3D176E" rx="2.5" ry="2.5" style="stroke:#000d19;stroke-width:1.5"/><circle cx="348.93" cy="26.895" r="11" fill="#E98DF7" style="stroke:#000d19;stroke-width:1"/><path d="M351.899 32.535q-.578.297-1.219.438-.64.156-1.344.156-2.5 0-3.828-1.64-1.312-1.657-1.312-4.782t1.312-4.781q1.328-1.656 3.828-1.656.703 0 1.344.156.656.156 1.219.453v2.719q-.625-.578-1.219-.844-.594-.281-1.219-.281-1.344 0-2.031 1.078-.688 1.062-.688 3.156 0 2.094.688 3.172.688 1.062 2.031 1.062.625 0 1.219-.265.594-.281 1.219-.86v2.72Z"/><text x="367.93" y="32.78" fill="#D9B8FF" font-family="Helvetica" font-size="17" textLength="223">aws_api_gateway_rest_api</text></a><path fill="none" d="M753 147.36c15.32 15.97 37.09 38.68 53.31 55.59" style="stroke:#1a83af;stroke-width:2"/><path fill="#1A83AF" d="m809.89 206.68-3.349-9.262-.114 5.656-5.656-.115 9.119 3.721z" style="stroke:#1a83af;stroke-width:2"/><path fill="none" d="M714.6 147.13c-14.6 15.06-33.95 37.22-46.17 59.87-16.56 30.68-26.56 70.01-31.68 94.87" style="stroke:#1a83af;stroke-width:2"/><path fill="#1A83AF" d="m635.73 306.95 5.696-8.034-4.71 3.132-3.133-4.71 2.147 9.612z" style="stroke:#1a83af;stroke-width:2"/><path fill="none" d="M790.17 247.13c-33.05 16.52-80.77 40.38-115.05 57.52" style="stroke:#1a83af;stroke-width:2"/><path fill="#1A83AF" d="m670.58 306.92 9.838-.46-5.369-1.782 1.782-5.369-6.251 7.611z" style="stroke:#1a83af;stroke-width:2"/><path fill="none" d="M518.42 47.01c45.62 16.68 111.84 40.9 158.92 58.12" style="stroke:#1a83af;stroke-width:2"/><path fill="#1A83AF" d="m682.12 106.87-7.085-6.842 2.388 5.129-5.129 2.387 9.826-.674z" style="stroke:#1a83af;stroke-width:2"/><path fill="none" d="M411.72 47.01c-48.1 16.72-117.97 41-167.53 58.22" style="stroke:#1a83af;stroke-width:2"/><path fill="#1A83AF" d="m239.46 106.87 9.814.825-5.09-2.466 2.465-5.091-7.189 6.732z" style="stroke:#1a83af;stroke-width:2"/><path fill="none" d="M598.93 34.86c109.35 8.76 252.23 28.43 288.5 72.14 24.42 29.43-7.57 70.67-33.12 96.07" style="stroke:#1a83af;stroke-width:2"/><path fill="#1A83AF" d="m850.59 206.7 9.241-3.405-5.656-.08.08-5.656-3.665 9.141z" style="stroke:#1a83af;stroke-width:2"/><path fill="none" d="M333.71 33.03C216.18 40.6 57.24 59.56 17.43 107c-11.43 13.62-10.68 25.78 0 40 59.71 79.57 336.4 135.36 497.58 161.73" style="stroke:#1a83af;stroke-width:2"/><path fill="#1A83AF" d="m520.22 309.58-8.245-5.387 3.31 4.588-4.588 3.31 9.523-2.511z" style="stroke:#1a83af;stroke-width:2"/><path fill="none" d="M466.43 47.36v54.3" style="stroke:#1a83af;stroke-width:2"/><path fill="#1A83AF" d="m466.43 106.68 4-9-4 4-4-4 4 9z" style="stroke:#1a83af;stroke-width:2"/></svg>