<svg xmlns="http://www.w3.org/2000/svg" xmlns:xlink="http://www.w3.org/1999/xlink" width="522" height="352" preserveAspectRatio="none" style="width:522px;height:352px;background:#00000000"><a xlink:actuate="onRequest" xlink:href="#a" xlink:show="new" xlink:title="#aws_region" xlink:type="simple" target="_top"><rect id="a" width="137" height="39.789" x="184" y="7" fill="#3D176E" rx="2.5" ry="2.5" style="stroke:#000d19;stroke-width:1.5"/><circle cx="199" cy="26.895" r="11" fill="#E98DF7" style="stroke:#000d19;stroke-width:1"/><path d="M201.969 32.535q-.578.297-1.219.438-.64.156-1.344.156-2.5 0-3.828-1.64-1.312-1.657-1.312-4.782t1.312-4.781q1.328-1.656 3.828-1.656.703 0 1.344.156.656.156 1.219.453v2.719q-.625-.578-1.219-.844-.594-.281-1.219-.281-1.344 0-2.031 1.078-.688 1.062-.688 3.156 0 2.094.688 3.172.688 1.062 2.031 1.062.625 0 1.219-.265.594-.281 1.219-.86v2.72Z"/><text x="218" y="32.78" fill="#D9B8FF" font-family="Helvetica" font-size="17" textLength="95">aws_region</text></a><a xlink:actuate="onRequest" xlink:href="#b" xlink:show="new" xlink:title="#aws_iam_role" xlink:type="simple" target="_top"><rect id="b" width="157" height="39.789" x="7" y="207" fill="#3D176E" rx="2.5" ry="2.5" style="stroke:#000d19;stroke-width:1.5"/><circle cx="22" cy="226.894" r="11" fill="#E98DF7" style="stroke:#000d19;stroke-width:1"/><path d="M24.969 232.535q-.578.297-1.219.438-.64.156-1.344.156-2.5 0-3.828-1.64-1.312-1.657-1.312-4.782t1.312-4.781q1.328-1.656 3.828-1.656.703 0 1.344.156.656.156 1.219.453v2.719q-.625-.579-1.219-.844-.594-.281-1.219-.281-1.343 0-2.031 1.078-.688 1.062-.688 3.156 0 2.094.688 3.172.688 1.062 2.031 1.062.625 0 1.219-.265.594-.281 1.219-.86v2.72Z"/><text x="41" y="232.78" fill="#D9B8FF" font-family="Helvetica" font-size="17" textLength="115">aws_iam_role</text></a><a xlink:actuate="onRequest" xlink:href="#c" xlink:show="new" xlink:title="#aws_iam_policy" xlink:type="simple" target="_top"><rect id="c" width="173" height="39.789" x="198" y="307" fill="#3D176E" rx="2.5" ry="2.5" style="stroke:#000d19;stroke-width:1.5"/><circle cx="213" cy="326.894" r="11" fill="#E98DF7" style="stroke:#000d19;stroke-width:1"/><path d="M215.969 332.535q-.578.297-1.219.438-.64.156-1.344.156-2.5 0-3.828-1.64-1.312-1.657-1.312-4.782t1.312-4.781q1.328-1.656 3.828-1.656.703 0 1.344.156.656.156 1.219.453v2.719q-.625-.579-1.219-.844-.594-.281-1.219-.281-1.344 0-2.031 1.078-.688 1.062-.688 3.156 0 2.094.688 3.172.688 1.062 2.031 1.062.625 0 1.219-.265.594-.281 1.219-.86v2.72Z"/><text x="232" y="332.78" fill="#D9B8FF" font-family="Helvetica" font-size="17" textLength="131">aws_iam_policy</text></a><a xlink:actuate="onRequest" xlink:href="#d" xlink:show="new" xlink:title="#aws_iam_user" xlink:type="simple" target="_top"><rect id="d" width="161" height="39.789" x="271" y="207" fill="#3D176E" rx="2.5" ry="2.5" style="stroke:#000d19;stroke-width:1.5"/><circle cx="286" cy="226.894" r="11" fill="#E98DF7" style="stroke:#000d19;stroke-width:1"/><path d="M288.969 232.535q-.578.297-1.219.438-.64.156-1.344.156-2.5 0-3.828-1.64-1.312-1.657-1.312-4.782t1.312-4.781q1.328-1.656 3.828-1.656.703 0 1.344.156.656.156 1.219.453v2.719q-.625-.579-1.219-.844-.594-.281-1.219-.281-1.344 0-2.031 1.078-.688 1.062-.688 3.156 0 2.094.688 3.172.688 1.062 2.031 1.062.625 0 1.219-.265.594-.281 1.219-.86v2.72Z"/><text x="305" y="232.78" fill="#D9B8FF" font-family="Helvetica" font-size="17" textLength="119">aws_iam_user</text></a><a xlink:actuate="onRequest" xlink:href="#e" xlink:show="new" xlink:title="#aws_iam_group" xlink:type="simple" target="_top"><rect id="e" width="173" height="39.789" x="342" y="107" fill="#3D176E" rx="2.5" ry="2.5" style="stroke:#000d19;stroke-width:1.5"/><circle cx="357" cy="126.894" r="11" fill="#E98DF7" style="stroke:#000d19;stroke-width:1"/><path d="M359.969 132.535q-.578.297-1.219.438-.64.156-1.344.156-2.5 0-3.828-1.64-1.312-1.657-1.312-4.782t1.312-4.781q1.328-1.657 3.828-1.657.703 0 1.344.157.656.156 1.219.453v2.719q-.625-.579-1.219-.844-.594-.281-1.219-.281-1.344 0-2.031 1.078-.688 1.062-.688 3.156 0 2.094.688 3.172.688 1.062 2.031 1.062.625 0 1.219-.265.594-.281 1.219-.86v2.72Z"/><text x="376" y="132.78" fill="#D9B8FF" font-family="Helvetica" font-size="17" textLength="131">aws_iam_group</text></a><path fill="none" d="M286.85 47.13c29.56 16.46 72.18 40.19 102.94 57.31" style="stroke:#1a83af;stroke-width:2"/><path fill="#1A83AF" d="m394.23 106.92-5.905-7.882 1.54 5.443-5.443 1.54 9.808.899z" style="stroke:#1a83af;stroke-width:2"/><path fill="none" d="M250.24 47.27c-4 38.42-10.65 127.1 3.26 199.73 3.69 19.28 11.94 39.88 19 55.22" style="stroke:#1a83af;stroke-width:2"/><path fill="#1A83AF" d="m274.64 306.8-.183-9.847-1.932 5.316-5.317-1.932 7.432 6.463z" style="stroke:#1a83af;stroke-width:2"/><path fill="none" d="M236.18 47.35c-30.88 36.61-97.76 115.9-131.04 155.37" style="stroke:#1a83af;stroke-width:2"/><path fill="#1A83AF" d="m101.64 206.87 8.85-4.32-5.635.49-.492-5.635-2.723 9.465z" style="stroke:#1a83af;stroke-width:2"/><path fill="none" d="M262.17 47.35c18.24 36.46 57.64 115.26 77.45 154.89" style="stroke:#1a83af;stroke-width:2"/><path fill="#1A83AF" d="m341.93 206.87-.46-9.838-1.782 5.369-5.369-1.782 7.611 6.251z" style="stroke:#1a83af;stroke-width:2"/><path fill="none" d="M124.34 247.13c33.56 16.52 82 40.38 116.81 57.52" style="stroke:#1a83af;stroke-width:2"/><path fill="#1A83AF" d="m245.76 306.92-6.32-7.554 1.83 5.352-5.352 1.83 9.842.372z" style="stroke:#1a83af;stroke-width:2"/><path fill="none" d="M338.26 247.36c-10.83 15.84-26.18 38.3-37.71 55.16" style="stroke:#1a83af;stroke-width:2"/><path fill="#1A83AF" d="m297.71 306.68 8.387-5.164-5.561 1.04-1.04-5.561-1.786 9.685z" style="stroke:#1a83af;stroke-width:2"/><path fill="none" d="M439.57 147.3c12.69 24.94 29.39 68.81 9.93 99.7-17.59 27.93-48.1 46.2-78.14 58.06" style="stroke:#1a83af;stroke-width:2"/><path fill="#1A83AF" d="m366.55 306.91 9.836.496-5.17-2.294 2.294-5.17-6.96 6.968z" style="stroke:#1a83af;stroke-width:2"/><path fill="none" d="M413.29 147.36c-12.45 15.84-30.09 38.3-43.34 55.16" style="stroke:#1a83af;stroke-width:2"/><path fill="#1A83AF" d="m366.68 206.68 8.697-4.622-5.615.685-.685-5.616-2.397 9.553z" style="stroke:#1a83af;stroke-width:2"/></svg>