<svg xmlns="http://www.w3.org/2000/svg" xmlns:xlink="http://www.w3.org/1999/xlink" width="1049" height="252" preserveAspectRatio="none" style="width:1049px;height:252px;background:#00000000"><a xlink:actuate="onRequest" xlink:href="#a" xlink:show="new" xlink:title="#aws_sagemaker_domain" xlink:type="simple" target="_top"><rect id="a" width="248" height="39.789" x="382.5" y="7" fill="#3D176E" rx="2.5" ry="2.5" style="stroke:#000d19;stroke-width:1.5"/><circle cx="397.5" cy="26.895" r="11" fill="#E98DF7" style="stroke:#000d19;stroke-width:1"/><path d="M400.469 32.535q-.578.297-1.219.438-.64.156-1.344.156-2.5 0-3.828-1.64-1.312-1.657-1.312-4.782t1.312-4.781q1.328-1.656 3.828-1.656.703 0 1.344.156.656.156 1.219.453v2.719q-.625-.578-1.219-.844-.594-.281-1.219-.281-1.344 0-2.031 1.078-.688 1.062-.688 3.156 0 2.094.688 3.172.688 1.062 2.031 1.062.625 0 1.219-.265.594-.281 1.219-.86v2.72Z"/><text x="416.5" y="32.78" fill="#D9B8FF" font-family="Helvetica" font-size="17" textLength="206">aws_sagemaker_domain</text></a><a xlink:actuate="onRequest" xlink:href="#b" xlink:show="new" xlink:title="#aws_sagemaker_user_profile" xlink:type="simple" target="_top"><rect id="b" width="283" height="39.789" x="365" y="107" fill="#3D176E" rx="2.5" ry="2.5" style="stroke:#000d19;stroke-width:1.5"/><circle cx="380" cy="126.894" r="11" fill="#E98DF7" style="stroke:#000d19;stroke-width:1"/><path d="M382.969 132.535q-.578.297-1.219.438-.64.156-1.344.156-2.5 0-3.828-1.64-1.312-1.657-1.312-4.782t1.312-4.781q1.328-1.657 3.828-1.657.703 0 1.344.157.656.156 1.219.453v2.719q-.625-.579-1.219-.844-.594-.281-1.219-.281-1.344 0-2.031 1.078-.688 1.062-.688 3.156 0 2.094.688 3.172.688 1.062 2.031 1.062.625 0 1.219-.265.594-.281 1.219-.86v2.72Z"/><text x="399" y="132.78" fill="#D9B8FF" font-family="Helvetica" font-size="17" textLength="241">aws_sagemaker_user_profile</text></a><a xlink:actuate="onRequest" xlink:href="#c" xlink:show="new" xlink:title="#aws_sagemaker_pipeline" xlink:type="simple" target="_top"><rect id="c" width="251" height="39.789" x="7" y="207" fill="#3D176E" rx="2.5" ry="2.5" style="stroke:#000d19;stroke-width:1.5"/><circle cx="22" cy="226.894" r="11" fill="#E98DF7" style="stroke:#000d19;stroke-width:1"/><path d="M24.969 232.535q-.578.297-1.219.438-.64.156-1.344.156-2.5 0-3.828-1.64-1.312-1.657-1.312-4.782t1.312-4.781q1.328-1.656 3.828-1.656.703 0 1.344.156.656.156 1.219.453v2.719q-.625-.579-1.219-.844-.594-.281-1.219-.281-1.343 0-2.031 1.078-.688 1.062-.688 3.156 0 2.094.688 3.172.688 1.062 2.031 1.062.625 0 1.219-.265.594-.281 1.219-.86v2.72Z"/><text x="41" y="232.78" fill="#D9B8FF" font-family="Helvetica" font-size="17" textLength="209">aws_sagemaker_pipeline</text></a><a xlink:actuate="onRequest" xlink:href="#d" xlink:show="new" xlink:title="#aws_sagemaker_app" xlink:type="simple" target="_top"><rect id="d" width="215" height="39.789" x="293" y="207" fill="#3D176E" rx="2.5" ry="2.5" style="stroke:#000d19;stroke-width:1.5"/><circle cx="308" cy="226.894" r="11" fill="#E98DF7" style="stroke:#000d19;stroke-width:1"/><path d="M310.969 232.535q-.578.297-1.219.438-.64.156-1.344.156-2.5 0-3.828-1.64-1.312-1.657-1.312-4.782t1.312-4.781q1.328-1.656 3.828-1.656.703 0 1.344.156.656.156 1.219.453v2.719q-.625-.579-1.219-.844-.594-.281-1.219-.281-1.344 0-2.031 1.078-.688 1.062-.688 3.156 0 2.094.688 3.172.688 1.062 2.031 1.062.625 0 1.219-.265.594-.281 1.219-.86v2.72Z"/><text x="327" y="232.78" fill="#D9B8FF" font-family="Helvetica" font-size="17" textLength="173">aws_sagemaker_app</text></a><a xlink:actuate="onRequest" xlink:href="#e" xlink:show="new" xlink:title="#aws_sagemaker_trial" xlink:type="simple" target="_top"><rect id="e" width="219" height="39.789" x="543" y="207" fill="#3D176E" rx="2.5" ry="2.5" style="stroke:#000d19;stroke-width:1.5"/><circle cx="558" cy="226.894" r="11" fill="#E98DF7" style="stroke:#000d19;stroke-width:1"/><path d="M560.969 232.535q-.578.297-1.219.438-.64.156-1.344.156-2.5 0-3.828-1.64-1.312-1.657-1.312-4.782t1.312-4.781q1.328-1.656 3.828-1.656.703 0 1.344.156.656.156 1.219.453v2.719q-.625-.579-1.219-.844-.594-.281-1.219-.281-1.343 0-2.031 1.078-.688 1.062-.688 3.156 0 2.094.688 3.172.688 1.062 2.031 1.062.625 0 1.219-.265.594-.281 1.219-.86v2.72Z"/><text x="577" y="232.78" fill="#D9B8FF" font-family="Helvetica" font-size="17" textLength="177">aws_sagemaker_trial</text></a><a xlink:actuate="onRequest" xlink:href="#f" xlink:show="new" xlink:title="#aws_sagemaker_artifact" xlink:type="simple" target="_top"><rect id="f" width="245" height="39.789" x="797" y="207" fill="#3D176E" rx="2.5" ry="2.5" style="stroke:#000d19;stroke-width:1.5"/><circle cx="812" cy="226.894" r="11" fill="#E98DF7" style="stroke:#000d19;stroke-width:1"/><path d="M814.969 232.535q-.578.297-1.219.438-.64.156-1.344.156-2.5 0-3.828-1.64-1.312-1.657-1.312-4.782t1.312-4.781q1.328-1.656 3.828-1.656.703 0 1.344.156.656.156 1.219.453v2.719q-.625-.579-1.219-.844-.594-.281-1.219-.281-1.343 0-2.031 1.078-.688 1.062-.688 3.156 0 2.094.688 3.172.688 1.062 2.031 1.062.625 0 1.219-.265.594-.281 1.219-.86v2.72Z"/><text x="831" y="232.78" fill="#D9B8FF" font-family="Helvetica" font-size="17" textLength="203">aws_sagemaker_artifact</text></a><path fill="none" d="M583.57 47.01c31.04 11.86 63.74 30.65 81.93 59.99 17.86 28.82 7.68 69.23-2.06 94.75" style="stroke:#1a83af;stroke-width:2"/><path fill="#1A83AF" d="m661.51 206.65 7.038-6.89-5.193 2.243-2.243-5.194.398 9.841z" style="stroke:#1a83af;stroke-width:2"/><path fill="none" d="M555.88 47.02C594.57 62.28 649.52 84.76 696.5 107c66.34 31.4 141.18 72.57 185.1 97.33" style="stroke:#1a83af;stroke-width:2"/><path fill="#1A83AF" d="m886.02 206.83-5.875-7.905 1.52 5.449-5.45 1.52 9.805.936z" style="stroke:#1a83af;stroke-width:2"/><path fill="none" d="M429.43 47.01C398.39 58.87 365.69 77.66 347.5 107c-19.45 31.39 7.46 71.14 29.52 95.82" style="stroke:#1a83af;stroke-width:2"/><path fill="#1A83AF" d="m380.51 206.65-3.103-9.347-.264 5.65-5.65-.263 9.017 3.96z" style="stroke:#1a83af;stroke-width:2"/><path fill="none" d="M506.5 47.36v54.3" style="stroke:#1a83af;stroke-width:2"/><path fill="#1A83AF" d="m506.5 106.68 4-9-4 4-4-4 4 9z" style="stroke:#1a83af;stroke-width:2"/><path fill="none" d="M461.43 47.02C426.14 62.28 376.08 84.75 333.5 107c-59.75 31.22-126.66 72.07-166.24 96.88" style="stroke:#1a83af;stroke-width:2"/><path fill="#1A83AF" d="m162.58 206.83 9.749-1.402-5.515-1.258 1.258-5.515-5.492 8.175z" style="stroke:#1a83af;stroke-width:2"/><path fill="none" d="M433.95 147.01c-64.29 16.85-157.89 41.37-223.69 58.62" style="stroke:#1a83af;stroke-width:2"/><path fill="#1A83AF" d="m205.17 206.96 9.722 1.576-4.887-2.85 2.85-4.886-7.685 6.16z" style="stroke:#1a83af;stroke-width:2"/><path fill="none" d="M485.81 147.13c-17.36 16.05-42.21 39.02-60.61 56.04" style="stroke:#1a83af;stroke-width:2"/><path fill="#1A83AF" d="m421.14 206.92 9.321-3.18-5.653-.217.218-5.653-3.886 9.05z" style="stroke:#1a83af;stroke-width:2"/><path fill="none" d="M535 147.13c24.32 16.32 59.29 39.8 84.75 56.89" style="stroke:#1a83af;stroke-width:2"/><path fill="#1A83AF" d="m624.08 206.92-5.25-8.333 1.096 5.55-5.55 1.096 9.704 1.687z" style="stroke:#1a83af;stroke-width:2"/><path fill="none" d="m586.62 147.01 247.45 58.72" style="stroke:#1a83af;stroke-width:2"/><path fill="#1A83AF" d="m839.25 206.96-7.832-5.972 2.967 4.816-4.816 2.968 9.681-1.812z" style="stroke:#1a83af;stroke-width:2"/></svg>