<svg xmlns="http://www.w3.org/2000/svg" xmlns:xlink="http://www.w3.org/1999/xlink" width="769" height="352" preserveAspectRatio="none" style="width:769px;height:352px;background:#00000000"><a xlink:actuate="onRequest" xlink:href="#a" xlink:show="new" xlink:title="#aws_sagemaker_processing_job" xlink:type="simple" target="_top"><rect id="a" width="306" height="39.789" x="48.87" y="207" fill="#3D176E" rx="2.5" ry="2.5" style="stroke:#000d19;stroke-width:1.5"/><circle cx="63.87" cy="226.894" r="11" fill="#E98DF7" style="stroke:#000d19;stroke-width:1"/><path d="M66.839 232.535q-.578.297-1.219.438-.64.156-1.344.156-2.5 0-3.828-1.64-1.312-1.657-1.312-4.782t1.312-4.781q1.328-1.656 3.828-1.656.703 0 1.344.156.656.156 1.219.453v2.719q-.625-.579-1.219-.844-.594-.281-1.219-.281-1.343 0-2.031 1.078-.688 1.062-.688 3.156 0 2.094.688 3.172.688 1.062 2.031 1.062.625 0 1.219-.265.594-.281 1.219-.86v2.72Z"/><text x="82.87" y="232.78" fill="#D9B8FF" font-family="Helvetica" font-size="17" textLength="264">aws_sagemaker_processing_job</text></a><a xlink:actuate="onRequest" xlink:href="#b" xlink:show="new" xlink:title="#aws_sagemaker_training_job" xlink:type="simple" target="_top"><rect id="b" width="285" height="39.789" x="59.37" y="307" fill="#3D176E" rx="2.5" ry="2.5" style="stroke:#000d19;stroke-width:1.5"/><circle cx="74.37" cy="326.894" r="11" fill="#E98DF7" style="stroke:#000d19;stroke-width:1"/><path d="M77.339 332.535q-.578.297-1.219.438-.64.156-1.344.156-2.5 0-3.828-1.64-1.312-1.657-1.312-4.782t1.312-4.781q1.328-1.656 3.828-1.656.703 0 1.344.156.656.156 1.219.453v2.719q-.625-.579-1.219-.844-.594-.281-1.219-.281-1.343 0-2.031 1.078-.688 1.062-.688 3.156 0 2.094.688 3.172.688 1.062 2.031 1.062.625 0 1.219-.265.594-.281 1.219-.86v2.72Z"/><text x="93.37" y="332.78" fill="#D9B8FF" font-family="Helvetica" font-size="17" textLength="243">aws_sagemaker_training_job</text></a><a xlink:actuate="onRequest" xlink:href="#c" xlink:show="new" xlink:title="#aws_sagemaker_trial" xlink:type="simple" target="_top"><rect id="c" width="219" height="39.789" x="287.37" y="107" fill="#3D176E" rx="2.5" ry="2.5" style="stroke:#000d19;stroke-width:1.5"/><circle cx="302.37" cy="126.894" r="11" fill="#E98DF7" style="stroke:#000d19;stroke-width:1"/><path d="M305.339 132.535q-.578.297-1.219.438-.64.156-1.344.156-2.5 0-3.828-1.64-1.312-1.657-1.312-4.782t1.312-4.781q1.328-1.657 3.828-1.657.703 0 1.344.157.656.156 1.219.453v2.719q-.625-.579-1.219-.844-.594-.281-1.219-.281-1.344 0-2.031 1.078-.688 1.062-.688 3.156 0 2.094.688 3.172.688 1.062 2.031 1.062.625 0 1.219-.265.594-.281 1.219-.86v2.72Z"/><text x="321.37" y="132.78" fill="#D9B8FF" font-family="Helvetica" font-size="17" textLength="177">aws_sagemaker_trial</text></a><a xlink:actuate="onRequest" xlink:href="#d" xlink:show="new" xlink:title="#aws_sagemaker_transform_job" xlink:type="simple" target="_top"><rect id="d" width="302" height="39.789" x="460.87" y="207" fill="#3D176E" rx="2.5" ry="2.5" style="stroke:#000d19;stroke-width:1.5"/><circle cx="475.87" cy="226.894" r="11" fill="#E98DF7" style="stroke:#000d19;stroke-width:1"/><path d="M478.839 232.535q-.578.297-1.219.438-.64.156-1.344.156-2.5 0-3.828-1.64-1.312-1.657-1.312-4.782t1.312-4.781q1.328-1.656 3.828-1.656.703 0 1.344.156.656.156 1.219.453v2.719q-.625-.579-1.219-.844-.594-.281-1.219-.281-1.344 0-2.031 1.078-.688 1.062-.688 3.156 0 2.094.688 3.172.688 1.062 2.031 1.062.625 0 1.219-.265.594-.281 1.219-.86v2.72Z"/><text x="494.87" y="232.78" fill="#D9B8FF" font-family="Helvetica" font-size="17" textLength="260">aws_sagemaker_transform_job</text></a><a xlink:actuate="onRequest" xlink:href="#e" xlink:show="new" xlink:title="#aws_sagemaker_experiment" xlink:type="simple" target="_top"><rect id="e" width="282" height="39.789" x="152.87" y="7" fill="#3D176E" rx="2.5" ry="2.5" style="stroke:#000d19;stroke-width:1.5"/><circle cx="167.87" cy="26.895" r="11" fill="#E98DF7" style="stroke:#000d19;stroke-width:1"/><path d="M170.839 32.535q-.578.297-1.219.438-.64.156-1.344.156-2.5 0-3.828-1.64-1.312-1.657-1.312-4.782t1.312-4.781q1.328-1.656 3.828-1.656.703 0 1.344.156.656.156 1.219.453v2.719q-.625-.578-1.219-.844-.594-.281-1.219-.281-1.344 0-2.031 1.078-.688 1.062-.688 3.156 0 2.094.688 3.172.688 1.062 2.031 1.062.625 0 1.219-.265.594-.281 1.219-.86v2.72Z"/><text x="186.87" y="32.78" fill="#D9B8FF" font-family="Helvetica" font-size="17" textLength="240">aws_sagemaker_experiment</text></a><path fill="none" d="M201.87 247.36v54.3" style="stroke:#1a83af;stroke-width:2"/><path fill="#1A83AF" d="m201.87 306.68 4-9-4 4-4-4 4 9z" style="stroke:#1a83af;stroke-width:2"/><path fill="none" d="M398.04 147.07c.55 25.49-2.17 70.82-25.17 99.93-21.83 27.65-55.58 46.02-87.34 58.02" style="stroke:#1a83af;stroke-width:2"/><path fill="#1A83AF" d="m280.46 306.89 9.828.638-5.137-2.369 2.368-5.137-7.059 6.868z" style="stroke:#1a83af;stroke-width:2"/><path fill="none" d="M438.58 147.01c36.23 16.52 88.66 40.41 126.35 57.59" style="stroke:#1a83af;stroke-width:2"/><path fill="#1A83AF" d="m569.92 206.87-6.53-7.373 1.98 5.299-5.298 1.98 9.848.094z" style="stroke:#1a83af;stroke-width:2"/><path fill="none" d="M358.81 147.13c-32.88 16.52-80.35 40.38-114.46 57.52" style="stroke:#1a83af;stroke-width:2"/><path fill="#1A83AF" d="m239.84 206.92 9.838-.46-5.369-1.782 1.782-5.369-6.251 7.611z" style="stroke:#1a83af;stroke-width:2"/><path fill="none" d="M314.22 47.36c16.79 15.97 40.65 38.68 58.43 55.59" style="stroke:#1a83af;stroke-width:2"/><path fill="#1A83AF" d="m376.57 106.68-3.776-9.096.149 5.654-5.655.149 9.282 3.293z" style="stroke:#1a83af;stroke-width:2"/><path fill="none" d="M389.56 47.06c43.88 12.05 94.81 30.99 134.31 59.94 34.68 25.41 61.62 68.44 76.13 95.2" style="stroke:#1a83af;stroke-width:2"/><path fill="#1A83AF" d="m602.39 206.68-.724-9.822-1.637 5.415-5.415-1.637 7.776 6.044z" style="stroke:#1a83af;stroke-width:2"/><path fill="none" d="M284.89 47.35c-16.95 36.46-53.56 115.26-71.97 154.89" style="stroke:#1a83af;stroke-width:2"/><path fill="#1A83AF" d="m210.76 206.87 7.407-6.491-5.309 1.953-1.952-5.31-.146 9.848z" style="stroke:#1a83af;stroke-width:2"/><path fill="none" d="M239.36 47.04C176.05 72.45 74.72 124.13 30.87 207 6 254.02 66.14 286.29 121.82 305.23" style="stroke:#1a83af;stroke-width:2"/><path fill="#1A83AF" d="m126.85 306.91-7.267-6.647 2.525 5.062-5.062 2.525 9.804-.94z" style="stroke:#1a83af;stroke-width:2"/></svg>