<svg xmlns="http://www.w3.org/2000/svg" xmlns:xlink="http://www.w3.org/1999/xlink" width="4117" height="1052" preserveAspectRatio="none" style="width:4117px;height:1052px;background:#00000000"><a xlink:actuate="onRequest" xlink:href="#a" xlink:show="new" xlink:title="#aws_alb_target_group" xlink:type="simple" target="_top"><rect id="a" width="226" height="39.789" x="2281" y="707" fill="#3D176E" rx="2.5" ry="2.5" style="stroke:#000d19;stroke-width:1.5"/><circle cx="2296" cy="726.894" r="11" fill="#E98DF7" style="stroke:#000d19;stroke-width:1"/><path d="M2298.969 732.535q-.578.297-1.219.438-.64.156-1.344.156-2.5 0-3.828-1.64-1.312-1.657-1.312-4.782t1.312-4.781q1.328-1.657 3.828-1.657.703 0 1.344.157.656.156 1.219.453v2.719q-.625-.578-1.219-.844-.594-.281-1.219-.281-1.343 0-2.031 1.078-.688 1.062-.688 3.156 0 2.094.688 3.172.688 1.062 2.031 1.062.625 0 1.219-.265.594-.282 1.219-.86v2.72Z"/><text x="2315" y="732.78" fill="#D9B8FF" font-family="Helvetica" font-size="17" textLength="184">aws_alb_target_group</text></a><a xlink:actuate="onRequest" xlink:href="#b" xlink:show="new" xlink:title="#aws_alb" xlink:type="simple" target="_top"><rect id="b" width="109" height="39.789" x="1781.5" y="607" fill="#3D176E" rx="2.5" ry="2.5" style="stroke:#000d19;stroke-width:1.5"/><circle cx="1796.5" cy="626.894" r="11" fill="#E98DF7" style="stroke:#000d19;stroke-width:1"/><path d="M1799.469 632.535q-.578.297-1.219.438-.64.156-1.344.156-2.5 0-3.828-1.64-1.312-1.657-1.312-4.782t1.312-4.781q1.328-1.657 3.828-1.657.703 0 1.344.157.656.156 1.219.453v2.719q-.625-.578-1.219-.844-.594-.281-1.219-.281-1.343 0-2.031 1.078-.688 1.062-.688 3.156 0 2.094.688 3.172.688 1.062 2.031 1.062.625 0 1.219-.265.594-.282 1.219-.86v2.72Z"/><text x="1815.5" y="632.78" fill="#D9B8FF" font-family="Helvetica" font-size="17" textLength="67">aws_alb</text></a><a xlink:actuate="onRequest" xlink:href="#c" xlink:show="new" xlink:title="#aws_ec2_instance" xlink:type="simple" target="_top"><rect id="c" width="192" height="39.789" x="3031" y="807" fill="#3D176E" rx="2.5" ry="2.5" style="stroke:#000d19;stroke-width:1.5"/><circle cx="3046" cy="826.894" r="11" fill="#E98DF7" style="stroke:#000d19;stroke-width:1"/><path d="M3048.969 832.535q-.578.297-1.219.438-.64.156-1.344.156-2.5 0-3.828-1.64-1.312-1.657-1.312-4.782t1.312-4.781q1.328-1.657 3.828-1.657.703 0 1.344.157.656.156 1.219.453v2.719q-.625-.578-1.219-.844-.594-.281-1.219-.281-1.343 0-2.031 1.078-.688 1.062-.688 3.156 0 2.094.688 3.172.688 1.062 2.031 1.062.625 0 1.219-.265.594-.282 1.219-.86v2.72Z"/><text x="3065" y="832.78" fill="#D9B8FF" font-family="Helvetica" font-size="17" textLength="150">aws_ec2_instance</text></a><a xlink:actuate="onRequest" xlink:href="#d" xlink:show="new" xlink:title="#aws_s3_bucket" xlink:type="simple" target="_top"><rect id="d" width="168" height="39.789" x="201" y="207" fill="#3D176E" rx="2.5" ry="2.5" style="stroke:#000d19;stroke-width:1.5"/><circle cx="216" cy="226.894" r="11" fill="#E98DF7" style="stroke:#000d19;stroke-width:1"/><path d="M218.969 232.535q-.578.297-1.219.438-.64.156-1.344.156-2.5 0-3.828-1.64-1.312-1.657-1.312-4.782t1.312-4.781q1.328-1.656 3.828-1.656.703 0 1.344.156.656.156 1.219.453v2.719q-.625-.579-1.219-.844-.594-.281-1.219-.281-1.344 0-2.031 1.078-.688 1.062-.688 3.156 0 2.094.688 3.172.688 1.062 2.031 1.062.625 0 1.219-.265.594-.281 1.219-.86v2.72Z"/><text x="235" y="232.78" fill="#D9B8FF" font-family="Helvetica" font-size="17" textLength="126">aws_s3_bucket</text></a><a xlink:actuate="onRequest" xlink:href="#e" xlink:show="new" xlink:title="#aws_ec2_volume_type" xlink:type="simple" target="_top"><rect id="e" width="231" height="39.789" x="3730.5" y="307" fill="#3D176E" rx="2.5" ry="2.5" style="stroke:#000d19;stroke-width:1.5"/><circle cx="3745.5" cy="326.894" r="11" fill="#E98DF7" style="stroke:#000d19;stroke-width:1"/><path d="M3748.469 332.535q-.578.297-1.219.438-.64.156-1.344.156-2.5 0-3.828-1.64-1.312-1.657-1.312-4.782t1.312-4.781q1.328-1.656 3.828-1.656.703 0 1.344.156.656.156 1.219.453v2.719q-.625-.579-1.219-.844-.594-.281-1.219-.281-1.343 0-2.031 1.078-.688 1.062-.688 3.156 0 2.094.688 3.172.688 1.062 2.031 1.062.625 0 1.219-.265.594-.281 1.219-.86v2.72Z"/><text x="3764.5" y="332.78" fill="#D9B8FF" font-family="Helvetica" font-size="17" textLength="189">aws_ec2_volume_type</text></a><a xlink:actuate="onRequest" xlink:href="#f" xlink:show="new" xlink:title="#aws_ec2_volume" xlink:type="simple" target="_top"><rect id="f" width="185" height="39.789" x="3823.5" y="907" fill="#3D176E" rx="2.5" ry="2.5" style="stroke:#000d19;stroke-width:1.5"/><circle cx="3838.5" cy="926.894" r="11" fill="#E98DF7" style="stroke:#000d19;stroke-width:1"/><path d="M3841.469 932.535q-.578.297-1.219.438-.64.156-1.344.156-2.5 0-3.828-1.64-1.312-1.657-1.312-4.782t1.312-4.781q1.328-1.657 3.828-1.657.703 0 1.344.157.656.156 1.219.453v2.719q-.625-.578-1.219-.844-.594-.281-1.219-.281-1.343 0-2.031 1.078-.688 1.062-.688 3.156 0 2.094.688 3.172.688 1.062 2.031 1.062.625 0 1.219-.265.594-.282 1.219-.86v2.72Z"/><text x="3857.5" y="932.78" fill="#D9B8FF" font-family="Helvetica" font-size="17" textLength="143">aws_ec2_volume</text></a><a xlink:actuate="onRequest" xlink:href="#g" xlink:show="new" xlink:title="#aws_iam_server_certificate" xlink:type="simple" target="_top"><rect id="g" width="269" height="39.789" x="2421.5" y="307" fill="#3D176E" rx="2.5" ry="2.5" style="stroke:#000d19;stroke-width:1.5"/><circle cx="2436.5" cy="326.894" r="11" fill="#E98DF7" style="stroke:#000d19;stroke-width:1"/><path d="M2439.469 332.535q-.578.297-1.219.438-.64.156-1.344.156-2.5 0-3.828-1.64-1.312-1.657-1.312-4.782t1.312-4.781q1.328-1.656 3.828-1.656.703 0 1.344.156.656.156 1.219.453v2.719q-.625-.579-1.219-.844-.594-.281-1.219-.281-1.343 0-2.031 1.078-.688 1.062-.688 3.156 0 2.094.688 3.172.688 1.062 2.031 1.062.625 0 1.219-.265.594-.281 1.219-.86v2.72Z"/><text x="2455.5" y="332.78" fill="#D9B8FF" font-family="Helvetica" font-size="17" textLength="227">aws_iam_server_certificate</text></a><a xlink:actuate="onRequest" xlink:href="#h" xlink:show="new" xlink:title="#aws_ec2_network_interface" xlink:type="simple" target="_top"><rect id="h" width="275" height="39.789" x="796.5" y="907" fill="#3D176E" rx="2.5" ry="2.5" style="stroke:#000d19;stroke-width:1.5"/><circle cx="811.5" cy="926.894" r="11" fill="#E98DF7" style="stroke:#000d19;stroke-width:1"/><path d="M814.469 932.535q-.578.297-1.219.438-.64.156-1.344.156-2.5 0-3.828-1.64-1.312-1.657-1.312-4.782t1.312-4.781q1.328-1.657 3.828-1.657.703 0 1.344.157.656.156 1.219.453v2.719q-.625-.578-1.219-.844-.594-.281-1.219-.281-1.343 0-2.031 1.078-.688 1.062-.688 3.156 0 2.094.688 3.172.688 1.062 2.031 1.062.625 0 1.219-.265.594-.282 1.219-.86v2.72Z"/><text x="830.5" y="932.78" fill="#D9B8FF" font-family="Helvetica" font-size="17" textLength="233">aws_ec2_network_interface</text></a><a xlink:actuate="onRequest" xlink:href="#i" xlink:show="new" xlink:title="#aws_ec2_elastic_ip" xlink:type="simple" target="_top"><rect id="i" width="199" height="39.789" x="834.5" y="1007" fill="#3D176E" rx="2.5" ry="2.5" style="stroke:#000d19;stroke-width:1.5"/><circle cx="849.5" cy="1026.895" r="11" fill="#E98DF7" style="stroke:#000d19;stroke-width:1"/><path d="M852.469 1032.535q-.578.297-1.219.438-.64.156-1.344.156-2.5 0-3.828-1.64-1.312-1.657-1.312-4.782t1.312-4.781q1.328-1.657 3.828-1.657.703 0 1.344.157.656.156 1.219.453v2.719q-.625-.578-1.219-.844-.594-.281-1.219-.281-1.343 0-2.031 1.078-.688 1.062-.688 3.156 0 2.094.688 3.172.688 1.062 2.031 1.062.625 0 1.219-.265.594-.281 1.219-.86v2.72Z"/><text x="868.5" y="1032.78" fill="#D9B8FF" font-family="Helvetica" font-size="17" textLength="157">aws_ec2_elastic_ip</text></a><a xlink:actuate="onRequest" xlink:href="#j" xlink:show="new" xlink:title="#aws_vpc_endpoint" xlink:type="simple" target="_top"><rect id="j" width="195" height="39.789" x="685.5" y="607" fill="#3D176E" rx="2.5" ry="2.5" style="stroke:#000d19;stroke-width:1.5"/><circle cx="700.5" cy="626.894" r="11" fill="#E98DF7" style="stroke:#000d19;stroke-width:1"/><path d="M703.469 632.535q-.578.297-1.219.438-.64.156-1.344.156-2.5 0-3.828-1.64-1.312-1.657-1.312-4.782t1.312-4.781q1.328-1.657 3.828-1.657.703 0 1.344.157.656.156 1.219.453v2.719q-.625-.578-1.219-.844-.594-.281-1.219-.281-1.343 0-2.031 1.078-.688 1.062-.688 3.156 0 2.094.688 3.172.688 1.062 2.031 1.062.625 0 1.219-.265.594-.282 1.219-.86v2.72Z"/><text x="719.5" y="632.78" fill="#D9B8FF" font-family="Helvetica" font-size="17" textLength="153">aws_vpc_endpoint</text></a><a xlink:actuate="onRequest" xlink:href="#k" xlink:show="new" xlink:title="#aws_ec2_nat_gateway" xlink:type="simple" target="_top"><rect id="k" width="231" height="39.789" x="596.5" y="207" fill="#3D176E" rx="2.5" ry="2.5" style="stroke:#000d19;stroke-width:1.5"/><circle cx="611.5" cy="226.894" r="11" fill="#E98DF7" style="stroke:#000d19;stroke-width:1"/><path d="M614.469 232.535q-.578.297-1.219.438-.64.156-1.344.156-2.5 0-3.828-1.64-1.312-1.657-1.312-4.782t1.312-4.781q1.328-1.656 3.828-1.656.703 0 1.344.156.656.156 1.219.453v2.719q-.625-.579-1.219-.844-.594-.281-1.219-.281-1.343 0-2.031 1.078-.688 1.062-.688 3.156 0 2.094.688 3.172.688 1.062 2.031 1.062.625 0 1.219-.265.594-.281 1.219-.86v2.72Z"/><text x="630.5" y="232.78" fill="#D9B8FF" font-family="Helvetica" font-size="17" textLength="189">aws_ec2_nat_gateway</text></a><a xlink:actuate="onRequest" xlink:href="#l" xlink:show="new" xlink:title="#aws_ec2_subnet" xlink:type="simple" target="_top"><rect id="l" width="179" height="39.789" x="924.5" y="507" fill="#3D176E" rx="2.5" ry="2.5" style="stroke:#000d19;stroke-width:1.5"/><circle cx="939.5" cy="526.894" r="11" fill="#E98DF7" style="stroke:#000d19;stroke-width:1"/><path d="M942.469 532.535q-.578.297-1.219.438-.64.156-1.344.156-2.5 0-3.828-1.64-1.312-1.657-1.312-4.782t1.312-4.781q1.328-1.657 3.828-1.657.703 0 1.344.157.656.156 1.219.453v2.719q-.625-.578-1.219-.844-.594-.281-1.219-.281-1.343 0-2.031 1.078-.688 1.062-.688 3.156 0 2.094.688 3.172.688 1.062 2.031 1.062.625 0 1.219-.265.594-.282 1.219-.86v2.72Z"/><text x="958.5" y="532.78" fill="#D9B8FF" font-family="Helvetica" font-size="17" textLength="137">aws_ec2_subnet</text></a><a xlink:actuate="onRequest" xlink:href="#m" xlink:show="new" xlink:title="#aws_elb" xlink:type="simple" target="_top"><rect id="m" width="109" height="39.789" x="2383.5" y="607" fill="#3D176E" rx="2.5" ry="2.5" style="stroke:#000d19;stroke-width:1.5"/><circle cx="2398.5" cy="626.894" r="11" fill="#E98DF7" style="stroke:#000d19;stroke-width:1"/><path d="M2401.469 632.535q-.578.297-1.219.438-.64.156-1.344.156-2.5 0-3.828-1.64-1.312-1.657-1.312-4.782t1.312-4.781q1.328-1.657 3.828-1.657.703 0 1.344.157.656.156 1.219.453v2.719q-.625-.578-1.219-.844-.594-.281-1.219-.281-1.343 0-2.031 1.078-.688 1.062-.688 3.156 0 2.094.688 3.172.688 1.062 2.031 1.062.625 0 1.219-.265.594-.282 1.219-.86v2.72Z"/><text x="2417.5" y="632.78" fill="#D9B8FF" font-family="Helvetica" font-size="17" textLength="67">aws_elb</text></a><a xlink:actuate="onRequest" xlink:href="#n" xlink:show="new" xlink:title="#aws_rds_instance" xlink:type="simple" target="_top"><rect id="n" width="188" height="39.789" x="987" y="607" fill="#3D176E" rx="2.5" ry="2.5" style="stroke:#000d19;stroke-width:1.5"/><circle cx="1002" cy="626.894" r="11" fill="#E98DF7" style="stroke:#000d19;stroke-width:1"/><path d="M1004.969 632.535q-.578.297-1.219.438-.64.156-1.344.156-2.5 0-3.828-1.64-1.312-1.657-1.312-4.782t1.312-4.781q1.328-1.657 3.828-1.657.703 0 1.344.157.656.156 1.219.453v2.719q-.625-.578-1.219-.844-.594-.281-1.219-.281-1.343 0-2.031 1.078-.688 1.062-.688 3.156 0 2.094.688 3.172.688 1.062 2.031 1.062.625 0 1.219-.265.594-.282 1.219-.86v2.72Z"/><text x="1021" y="632.78" fill="#D9B8FF" font-family="Helvetica" font-size="17" textLength="146">aws_rds_instance</text></a><a xlink:actuate="onRequest" xlink:href="#o" xlink:show="new" xlink:title="#aws_ec2_network_acl" xlink:type="simple" target="_top"><rect id="o" width="224" height="39.789" x="738" y="407" fill="#3D176E" rx="2.5" ry="2.5" style="stroke:#000d19;stroke-width:1.5"/><circle cx="753" cy="426.894" r="11" fill="#E98DF7" style="stroke:#000d19;stroke-width:1"/><path d="M755.969 432.535q-.578.297-1.219.438-.64.156-1.344.156-2.5 0-3.828-1.64-1.312-1.657-1.312-4.782t1.312-4.781q1.328-1.656 3.828-1.656.703 0 1.344.156.656.156 1.219.453v2.719q-.625-.579-1.219-.844-.594-.281-1.219-.281-1.343 0-2.031 1.078-.688 1.062-.688 3.156 0 2.094.688 3.172.688 1.062 2.031 1.062.625 0 1.219-.265.594-.281 1.219-.86v2.72Z"/><text x="772" y="432.78" fill="#D9B8FF" font-family="Helvetica" font-size="17" textLength="182">aws_ec2_network_acl</text></a><a xlink:actuate="onRequest" xlink:href="#p" xlink:show="new" xlink:title="#aws_iam_user" xlink:type="simple" target="_top"><rect id="p" width="161" height="39.789" x="1649.5" y="307" fill="#3D176E" rx="2.5" ry="2.5" style="stroke:#000d19;stroke-width:1.5"/><circle cx="1664.5" cy="326.894" r="11" fill="#E98DF7" style="stroke:#000d19;stroke-width:1"/><path d="M1667.469 332.535q-.578.297-1.219.438-.64.156-1.344.156-2.5 0-3.828-1.64-1.312-1.657-1.312-4.782t1.312-4.781q1.328-1.656 3.828-1.656.703 0 1.344.156.656.156 1.219.453v2.719q-.625-.579-1.219-.844-.594-.281-1.219-.281-1.343 0-2.031 1.078-.688 1.062-.688 3.156 0 2.094.688 3.172.688 1.062 2.031 1.062.625 0 1.219-.265.594-.281 1.219-.86v2.72Z"/><text x="1683.5" y="332.78" fill="#D9B8FF" font-family="Helvetica" font-size="17" textLength="119">aws_iam_user</text></a><a xlink:actuate="onRequest" xlink:href="#q" xlink:show="new" xlink:title="#aws_iam_policy" xlink:type="simple" target="_top"><rect id="q" width="173" height="39.789" x="2475.5" y="407" fill="#3D176E" rx="2.5" ry="2.5" style="stroke:#000d19;stroke-width:1.5"/><circle cx="2490.5" cy="426.894" r="11" fill="#E98DF7" style="stroke:#000d19;stroke-width:1"/><path d="M2493.469 432.535q-.578.297-1.219.438-.64.156-1.344.156-2.5 0-3.828-1.64-1.312-1.657-1.312-4.782t1.312-4.781q1.328-1.656 3.828-1.656.703 0 1.344.156.656.156 1.219.453v2.719q-.625-.579-1.219-.844-.594-.281-1.219-.281-1.343 0-2.031 1.078-.688 1.062-.688 3.156 0 2.094.688 3.172.688 1.062 2.031 1.062.625 0 1.219-.265.594-.281 1.219-.86v2.72Z"/><text x="2509.5" y="432.78" fill="#D9B8FF" font-family="Helvetica" font-size="17" textLength="131">aws_iam_policy</text></a><a xlink:actuate="onRequest" xlink:href="#r" xlink:show="new" xlink:title="#aws_ec2_instance_type" xlink:type="simple" target="_top"><rect id="r" width="238" height="39.789" x="3010" y="307" fill="#3D176E" rx="2.5" ry="2.5" style="stroke:#000d19;stroke-width:1.5"/><circle cx="3025" cy="326.894" r="11" fill="#E98DF7" style="stroke:#000d19;stroke-width:1"/><path d="M3027.969 332.535q-.578.297-1.219.438-.64.156-1.344.156-2.5 0-3.828-1.64-1.312-1.657-1.312-4.782t1.312-4.781q1.328-1.656 3.828-1.656.703 0 1.344.156.656.156 1.219.453v2.719q-.625-.579-1.219-.844-.594-.281-1.219-.281-1.343 0-2.031 1.078-.688 1.062-.688 3.156 0 2.094.688 3.172.688 1.062 2.031 1.062.625 0 1.219-.265.594-.281 1.219-.86v2.72Z"/><text x="3044" y="332.78" fill="#D9B8FF" font-family="Helvetica" font-size="17" textLength="196">aws_ec2_instance_type</text></a><a xlink:actuate="onRequest" xlink:href="#s" xlink:show="new" xlink:title="#aws_cloudwatch_alarm" xlink:type="simple" target="_top"><rect id="s" width="237" height="39.789" x="2837.5" y="907" fill="#3D176E" rx="2.5" ry="2.5" style="stroke:#000d19;stroke-width:1.5"/><circle cx="2852.5" cy="926.894" r="11" fill="#E98DF7" style="stroke:#000d19;stroke-width:1"/><path d="M2855.469 932.535q-.578.297-1.219.438-.64.156-1.344.156-2.5 0-3.828-1.64-1.312-1.657-1.312-4.782t1.312-4.781q1.328-1.657 3.828-1.657.703 0 1.344.157.656.156 1.219.453v2.719q-.625-.578-1.219-.844-.594-.281-1.219-.281-1.343 0-2.031 1.078-.688 1.062-.688 3.156 0 2.094.688 3.172.688 1.062 2.031 1.062.625 0 1.219-.265.594-.282 1.219-.86v2.72Z"/><text x="2871.5" y="932.78" fill="#D9B8FF" font-family="Helvetica" font-size="17" textLength="195">aws_cloudwatch_alarm</text></a><a xlink:actuate="onRequest" xlink:href="#t" xlink:show="new" xlink:title="#aws_ec2_keypair" xlink:type="simple" target="_top"><rect id="t" width="184" height="39.789" x="3314" y="907" fill="#3D176E" rx="2.5" ry="2.5" style="stroke:#000d19;stroke-width:1.5"/><circle cx="3329" cy="926.894" r="11" fill="#E98DF7" style="stroke:#000d19;stroke-width:1"/><path d="M3331.969 932.535q-.578.297-1.219.438-.64.156-1.344.156-2.5 0-3.828-1.64-1.312-1.657-1.312-4.782t1.312-4.781q1.328-1.657 3.828-1.657.703 0 1.344.157.656.156 1.219.453v2.719q-.625-.578-1.219-.844-.594-.281-1.219-.281-1.343 0-2.031 1.078-.688 1.062-.688 3.156 0 2.094.688 3.172.688 1.062 2.031 1.062.625 0 1.219-.265.594-.282 1.219-.86v2.72Z"/><text x="3348" y="932.78" fill="#D9B8FF" font-family="Helvetica" font-size="17" textLength="142">aws_ec2_keypair</text></a><a xlink:actuate="onRequest" xlink:href="#u" xlink:show="new" xlink:title="#aws_ec2_internet_gateway" xlink:type="simple" target="_top"><rect id="u" width="271" height="39.789" x="1565.5" y="407" fill="#3D176E" rx="2.5" ry="2.5" style="stroke:#000d19;stroke-width:1.5"/><circle cx="1580.5" cy="426.894" r="11" fill="#E98DF7" style="stroke:#000d19;stroke-width:1"/><path d="M1583.469 432.535q-.578.297-1.219.438-.64.156-1.344.156-2.5 0-3.828-1.64-1.312-1.657-1.312-4.782t1.312-4.781q1.328-1.656 3.828-1.656.703 0 1.344.156.656.156 1.219.453v2.719q-.625-.579-1.219-.844-.594-.281-1.219-.281-1.343 0-2.031 1.078-.688 1.062-.688 3.156 0 2.094.688 3.172.688 1.062 2.031 1.062.625 0 1.219-.265.594-.281 1.219-.86v2.72Z"/><text x="1599.5" y="432.78" fill="#D9B8FF" font-family="Helvetica" font-size="17" textLength="229">aws_ec2_internet_gateway</text></a><a xlink:actuate="onRequest" xlink:href="#v" xlink:show="new" xlink:title="#aws_ec2_route_table" xlink:type="simple" target="_top"><rect id="v" width="218" height="39.789" x="272" y="407" fill="#3D176E" rx="2.5" ry="2.5" style="stroke:#000d19;stroke-width:1.5"/><circle cx="287" cy="426.894" r="11" fill="#E98DF7" style="stroke:#000d19;stroke-width:1"/><path d="M289.969 432.535q-.578.297-1.219.438-.64.156-1.344.156-2.5 0-3.828-1.64-1.312-1.657-1.312-4.782t1.312-4.781q1.328-1.656 3.828-1.656.703 0 1.344.156.656.156 1.219.453v2.719q-.625-.579-1.219-.844-.594-.281-1.219-.281-1.344 0-2.031 1.078-.688 1.062-.688 3.156 0 2.094.688 3.172.688 1.062 2.031 1.062.625 0 1.219-.265.594-.281 1.219-.86v2.72Z"/><text x="306" y="432.78" fill="#D9B8FF" font-family="Helvetica" font-size="17" textLength="176">aws_ec2_route_table</text></a><a xlink:actuate="onRequest" xlink:href="#w" xlink:show="new" xlink:title="#aws_eks_cluster" xlink:type="simple" target="_top"><rect id="w" width="177" height="39.789" x="1845.5" y="307" fill="#3D176E" rx="2.5" ry="2.5" style="stroke:#000d19;stroke-width:1.5"/><circle cx="1860.5" cy="326.894" r="11" fill="#E98DF7" style="stroke:#000d19;stroke-width:1"/><path d="M1863.469 332.535q-.578.297-1.219.438-.64.156-1.344.156-2.5 0-3.828-1.64-1.312-1.657-1.312-4.782t1.312-4.781q1.328-1.656 3.828-1.656.703 0 1.344.156.656.156 1.219.453v2.719q-.625-.579-1.219-.844-.594-.281-1.219-.281-1.343 0-2.031 1.078-.688 1.062-.688 3.156 0 2.094.688 3.172.688 1.062 2.031 1.062.625 0 1.219-.265.594-.281 1.219-.86v2.72Z"/><text x="1879.5" y="332.78" fill="#D9B8FF" font-family="Helvetica" font-size="17" textLength="135">aws_eks_cluster</text></a><a xlink:actuate="onRequest" xlink:href="#x" xlink:show="new" xlink:title="#aws_iam_group" xlink:type="simple" target="_top"><rect id="x" width="173" height="39.789" x="1578.5" y="207" fill="#3D176E" rx="2.5" ry="2.5" style="stroke:#000d19;stroke-width:1.5"/><circle cx="1593.5" cy="226.894" r="11" fill="#E98DF7" style="stroke:#000d19;stroke-width:1"/><path d="M1596.469 232.535q-.578.297-1.219.438-.64.156-1.344.156-2.5 0-3.828-1.64-1.312-1.657-1.312-4.782t1.312-4.781q1.328-1.656 3.828-1.656.703 0 1.344.156.656.156 1.219.453v2.719q-.625-.579-1.219-.844-.594-.281-1.219-.281-1.343 0-2.031 1.078-.688 1.062-.688 3.156 0 2.094.688 3.172.688 1.062 2.031 1.062.625 0 1.219-.265.594-.281 1.219-.86v2.72Z"/><text x="1612.5" y="232.78" fill="#D9B8FF" font-family="Helvetica" font-size="17" textLength="131">aws_iam_group</text></a><a xlink:actuate="onRequest" xlink:href="#y" xlink:show="new" xlink:title="#aws_iam_instance_profile" xlink:type="simple" target="_top"><rect id="y" width="257" height="39.789" x="2129.5" y="307" fill="#3D176E" rx="2.5" ry="2.5" style="stroke:#000d19;stroke-width:1.5"/><circle cx="2144.5" cy="326.894" r="11" fill="#E98DF7" style="stroke:#000d19;stroke-width:1"/><path d="M2147.469 332.535q-.578.297-1.219.438-.64.156-1.344.156-2.5 0-3.828-1.64-1.312-1.657-1.312-4.782t1.312-4.781q1.328-1.656 3.828-1.656.703 0 1.344.156.656.156 1.219.453v2.719q-.625-.579-1.219-.844-.594-.281-1.219-.281-1.343 0-2.031 1.078-.688 1.062-.688 3.156 0 2.094.688 3.172.688 1.062 2.031 1.062.625 0 1.219-.265.594-.281 1.219-.86v2.72Z"/><text x="2163.5" y="332.78" fill="#D9B8FF" font-family="Helvetica" font-size="17" textLength="215">aws_iam_instance_profile</text></a><a xlink:actuate="onRequest" xlink:href="#z" xlink:show="new" xlink:title="#aws_autoscaling_group" xlink:type="simple" target="_top"><rect id="z" width="236" height="39.789" x="3251" y="707" fill="#3D176E" rx="2.5" ry="2.5" style="stroke:#000d19;stroke-width:1.5"/><circle cx="3266" cy="726.894" r="11" fill="#E98DF7" style="stroke:#000d19;stroke-width:1"/><path d="M3268.969 732.535q-.578.297-1.219.438-.64.156-1.344.156-2.5 0-3.828-1.64-1.312-1.657-1.312-4.782t1.312-4.781q1.328-1.657 3.828-1.657.703 0 1.344.157.656.156 1.219.453v2.719q-.625-.578-1.219-.844-.594-.281-1.219-.281-1.343 0-2.031 1.078-.688 1.062-.688 3.156 0 2.094.688 3.172.688 1.062 2.031 1.062.625 0 1.219-.265.594-.282 1.219-.86v2.72Z"/><text x="3285" y="732.78" fill="#D9B8FF" font-family="Helvetica" font-size="17" textLength="194">aws_autoscaling_group</text></a><a xlink:actuate="onRequest" xlink:href="#A" xlink:show="new" xlink:title="#aws_iam_role" xlink:type="simple" target="_top"><rect id="A" width="157" height="39.789" x="1992.5" y="207" fill="#3D176E" rx="2.5" ry="2.5" style="stroke:#000d19;stroke-width:1.5"/><circle cx="2007.5" cy="226.894" r="11" fill="#E98DF7" style="stroke:#000d19;stroke-width:1"/><path d="M2010.469 232.535q-.578.297-1.219.438-.64.156-1.344.156-2.5 0-3.828-1.64-1.312-1.657-1.312-4.782t1.312-4.781q1.328-1.656 3.828-1.656.703 0 1.344.156.656.156 1.219.453v2.719q-.625-.579-1.219-.844-.594-.281-1.219-.281-1.343 0-2.031 1.078-.688 1.062-.688 3.156 0 2.094.688 3.172.688 1.062 2.031 1.062.625 0 1.219-.265.594-.281 1.219-.86v2.72Z"/><text x="2026.5" y="232.78" fill="#D9B8FF" font-family="Helvetica" font-size="17" textLength="115">aws_iam_role</text></a><a xlink:actuate="onRequest" xlink:href="#B" xlink:show="new" xlink:title="#aws_cloudformation_stack" xlink:type="simple" target="_top"><rect id="B" width="263" height="39.789" x="3152.5" y="207" fill="#3D176E" rx="2.5" ry="2.5" style="stroke:#000d19;stroke-width:1.5"/><circle cx="3167.5" cy="226.894" r="11" fill="#E98DF7" style="stroke:#000d19;stroke-width:1"/><path d="M3170.469 232.535q-.578.297-1.219.438-.64.156-1.344.156-2.5 0-3.828-1.64-1.312-1.657-1.312-4.782t1.312-4.781q1.328-1.656 3.828-1.656.703 0 1.344.156.656.156 1.219.453v2.719q-.625-.579-1.219-.844-.594-.281-1.219-.281-1.343 0-2.031 1.078-.688 1.062-.688 3.156 0 2.094.688 3.172.688 1.062 2.031 1.062.625 0 1.219-.265.594-.281 1.219-.86v2.72Z"/><text x="3186.5" y="232.78" fill="#D9B8FF" font-family="Helvetica" font-size="17" textLength="221">aws_cloudformation_stack</text></a><a xlink:actuate="onRequest" xlink:href="#C" xlink:show="new" xlink:title="#aws_vpc_peering_connection" xlink:type="simple" target="_top"><rect id="C" width="284" height="39.789" x="1872" y="407" fill="#3D176E" rx="2.5" ry="2.5" style="stroke:#000d19;stroke-width:1.5"/><circle cx="1887" cy="426.894" r="11" fill="#E98DF7" style="stroke:#000d19;stroke-width:1"/><path d="M1889.969 432.535q-.578.297-1.219.438-.64.156-1.344.156-2.5 0-3.828-1.64-1.312-1.657-1.312-4.782t1.312-4.781q1.328-1.656 3.828-1.656.703 0 1.344.156.656.156 1.219.453v2.719q-.625-.579-1.219-.844-.594-.281-1.219-.281-1.343 0-2.031 1.078-.688 1.062-.688 3.156 0 2.094.688 3.172.688 1.062 2.031 1.062.625 0 1.219-.265.594-.281 1.219-.86v2.72Z"/><text x="1906" y="432.78" fill="#D9B8FF" font-family="Helvetica" font-size="17" textLength="242">aws_vpc_peering_connection</text></a><a xlink:actuate="onRequest" xlink:href="#D" xlink:show="new" xlink:title="#aws_ec2_security_group" xlink:type="simple" target="_top"><rect id="D" width="245" height="39.789" x="1281.5" y="507" fill="#3D176E" rx="2.5" ry="2.5" style="stroke:#000d19;stroke-width:1.5"/><circle cx="1296.5" cy="526.894" r="11" fill="#E98DF7" style="stroke:#000d19;stroke-width:1"/><path d="M1299.469 532.535q-.578.297-1.219.438-.64.156-1.344.156-2.5 0-3.828-1.64-1.312-1.657-1.312-4.782t1.312-4.781q1.328-1.657 3.828-1.657.703 0 1.344.157.656.156 1.219.453v2.719q-.625-.578-1.219-.844-.594-.281-1.219-.281-1.343 0-2.031 1.078-.688 1.062-.688 3.156 0 2.094.688 3.172.688 1.062 2.031 1.062.625 0 1.219-.265.594-.282 1.219-.86v2.72Z"/><text x="1315.5" y="532.78" fill="#D9B8FF" font-family="Helvetica" font-size="17" textLength="203">aws_ec2_security_group</text></a><a xlink:actuate="onRequest" xlink:href="#E" xlink:show="new" xlink:title="#aws_cloudformation_stack_set" xlink:type="simple" target="_top"><rect id="E" width="297" height="39.789" x="3593.5" y="207" fill="#3D176E" rx="2.5" ry="2.5" style="stroke:#000d19;stroke-width:1.5"/><circle cx="3608.5" cy="226.894" r="11" fill="#E98DF7" style="stroke:#000d19;stroke-width:1"/><path d="M3611.469 232.535q-.578.297-1.219.438-.64.156-1.344.156-2.5 0-3.828-1.64-1.312-1.657-1.312-4.782t1.312-4.781q1.328-1.656 3.828-1.656.703 0 1.344.156.656.156 1.219.453v2.719q-.625-.579-1.219-.844-.594-.281-1.219-.281-1.343 0-2.031 1.078-.688 1.062-.688 3.156 0 2.094.688 3.172.688 1.062 2.031 1.062.625 0 1.219-.265.594-.281 1.219-.86v2.72Z"/><text x="3627.5" y="232.78" fill="#D9B8FF" font-family="Helvetica" font-size="17" textLength="255">aws_cloudformation_stack_set</text></a><a xlink:actuate="onRequest" xlink:href="#F" xlink:show="new" xlink:title="#aws_service_quota" xlink:type="simple" target="_top"><rect id="F" width="199" height="39.789" x="2633.5" y="207" fill="#3D176E" rx="2.5" ry="2.5" style="stroke:#000d19;stroke-width:1.5"/><circle cx="2648.5" cy="226.894" r="11" fill="#E98DF7" style="stroke:#000d19;stroke-width:1"/><path d="M2651.469 232.535q-.578.297-1.219.438-.64.156-1.344.156-2.5 0-3.828-1.64-1.312-1.657-1.312-4.782t1.312-4.781q1.328-1.656 3.828-1.656.703 0 1.344.156.656.156 1.219.453v2.719q-.625-.579-1.219-.844-.594-.281-1.219-.281-1.343 0-2.031 1.078-.688 1.062-.688 3.156 0 2.094.688 3.172.688 1.062 2.031 1.062.625 0 1.219-.265.594-.281 1.219-.86v2.72Z"/><text x="2667.5" y="232.78" fill="#D9B8FF" font-family="Helvetica" font-size="17" textLength="157">aws_service_quota</text></a><a xlink:actuate="onRequest" xlink:href="#G" xlink:show="new" xlink:title="#aws_vpc" xlink:type="simple" target="_top"><rect id="G" width="112" height="39.789" x="1005" y="307" fill="#3D176E" rx="2.5" ry="2.5" style="stroke:#000d19;stroke-width:1.5"/><circle cx="1020" cy="326.894" r="11" fill="#E98DF7" style="stroke:#000d19;stroke-width:1"/><path d="M1022.969 332.535q-.578.297-1.219.438-.64.156-1.344.156-2.5 0-3.828-1.64-1.312-1.657-1.312-4.782t1.312-4.781q1.328-1.656 3.828-1.656.703 0 1.344.156.656.156 1.219.453v2.719q-.625-.579-1.219-.844-.594-.281-1.219-.281-1.343 0-2.031 1.078-.688 1.062-.688 3.156 0 2.094.688 3.172.688 1.062 2.031 1.062.625 0 1.219-.265.594-.281 1.219-.86v2.72Z"/><text x="1039" y="332.78" fill="#D9B8FF" font-family="Helvetica" font-size="17" textLength="70">aws_vpc</text></a><a xlink:actuate="onRequest" xlink:href="#H" xlink:show="new" xlink:title="#aws_ec2_snapshot" xlink:type="simple" target="_top"><rect id="H" width="197" height="39.789" x="3913.5" y="1007" fill="#3D176E" rx="2.5" ry="2.5" style="stroke:#000d19;stroke-width:1.5"/><circle cx="3928.5" cy="1026.895" r="11" fill="#E98DF7" style="stroke:#000d19;stroke-width:1"/><path d="M3931.469 1032.535q-.578.297-1.219.438-.64.156-1.344.156-2.5 0-3.828-1.64-1.312-1.657-1.312-4.782t1.312-4.781q1.328-1.657 3.828-1.657.703 0 1.344.157.656.156 1.219.453v2.719q-.625-.578-1.219-.844-.594-.281-1.219-.281-1.343 0-2.031 1.078-.688 1.062-.688 3.156 0 2.094.688 3.172.688 1.062 2.031 1.062.625 0 1.219-.265.594-.281 1.219-.86v2.72Z"/><text x="3947.5" y="1032.78" fill="#D9B8FF" font-family="Helvetica" font-size="17" textLength="155">aws_ec2_snapshot</text></a><a xlink:actuate="onRequest" xlink:href="#I" xlink:show="new" xlink:title="#aws_account" xlink:type="simple" target="_top"><rect id="I" width="149" height="39.789" x="1660.5" y="7" fill="#3D176E" rx="2.5" ry="2.5" style="stroke:#000d19;stroke-width:1.5"/><circle cx="1675.5" cy="26.895" r="11" fill="#E98DF7" style="stroke:#000d19;stroke-width:1"/><path d="M1678.469 32.535q-.578.297-1.219.438-.64.156-1.344.156-2.5 0-3.828-1.64-1.312-1.657-1.312-4.782t1.312-4.781q1.328-1.656 3.828-1.656.703 0 1.344.156.656.156 1.219.453v2.719q-.625-.578-1.219-.844-.594-.281-1.219-.281-1.343 0-2.031 1.078-.688 1.062-.688 3.156 0 2.094.688 3.172.688 1.062 2.031 1.062.625 0 1.219-.265.594-.281 1.219-.86v2.72Z"/><text x="1694.5" y="32.78" fill="#D9B8FF" font-family="Helvetica" font-size="17" textLength="107">aws_account</text></a><a xlink:actuate="onRequest" xlink:href="#J" xlink:show="new" xlink:title="#aws_region" xlink:type="simple" target="_top"><rect id="J" width="137" height="39.789" x="1666.5" y="107" fill="#3D176E" rx="2.5" ry="2.5" style="stroke:#000d19;stroke-width:1.5"/><circle cx="1681.5" cy="126.894" r="11" fill="#E98DF7" style="stroke:#000d19;stroke-width:1"/><path d="M1684.469 132.535q-.578.297-1.219.438-.64.156-1.344.156-2.5 0-3.828-1.64-1.312-1.657-1.312-4.782t1.312-4.781q1.328-1.657 3.828-1.657.703 0 1.344.157.656.156 1.219.453v2.719q-.625-.579-1.219-.844-.594-.281-1.219-.281-1.343 0-2.031 1.078-.688 1.062-.688 3.156 0 2.094.688 3.172.688 1.062 2.031 1.062.625 0 1.219-.265.594-.281 1.219-.86v2.72Z"/><text x="1700.5" y="132.78" fill="#D9B8FF" font-family="Helvetica" font-size="17" textLength="95">aws_region</text></a><path fill="none" d="M2507.33 743.15c141.74 18.95 382.27 51.11 518.22 69.29" style="stroke:#1a83af;stroke-width:2"/><path fill="#1A83AF" d="m3030.74 813.13-8.396-5.148 3.44 4.49-4.492 3.44 9.448-2.782z" style="stroke:#1a83af;stroke-width:2"/><path fill="none" d="M1890.52 637.58c89.91 15.79 271.14 47.61 389.86 68.46" style="stroke:#1a83af;stroke-width:2"/><path fill="#1A83AF" d="m2285.63 706.97-8.166-5.506 3.242 4.635-4.635 3.243 9.559-2.372z" style="stroke:#1a83af;stroke-width:2"/><path fill="none" d="M3030.65 832.31c-347.82 15.54-1539.86 68.81-1953.73 87.3" style="stroke:#1a83af;stroke-width:2"/><path fill="#1A83AF" d="m1071.78 919.84 9.173 3.585-4.178-3.813 3.813-4.179-8.808 4.407z" style="stroke:#1a83af;stroke-width:2"/><path fill="none" d="M3093.62 847.13c-28.6 16.39-69.78 39.99-99.64 57.1" style="stroke:#1a83af;stroke-width:2"/><path fill="#1A83AF" d="m2989.29 906.92 9.797-1.013-5.461-1.477 1.477-5.46-5.813 7.95z" style="stroke:#1a83af;stroke-width:2"/><path fill="none" d="M3181.12 847.01c47.5 16.68 116.44 40.9 165.45 58.12" style="stroke:#1a83af;stroke-width:2"/><path fill="#1A83AF" d="m3351.55 906.87-7.164-6.758 2.447 5.1-5.1 2.447 9.817-.789z" style="stroke:#1a83af;stroke-width:2"/><path fill="none" d="M3223.35 839.97c151.14 18.77 442.35 54.94 594.55 73.85" style="stroke:#1a83af;stroke-width:2"/><path fill="#1A83AF" d="m3823.26 914.48-8.44-5.076 3.478 4.461-4.462 3.478 9.424-2.863z" style="stroke:#1a83af;stroke-width:2"/><path fill="none" d="M3127.67 847.4c-.25 27.19-5.23 75.95-35.67 99.6-81.8 63.58-1631.72 76.26-2053.05 78.54" style="stroke:#1a83af;stroke-width:2"/><path fill="#1A83AF" d="m1033.74 1025.57 9.023 3.948-4.023-3.977 3.977-4.022-8.977 4.051z" style="stroke:#1a83af;stroke-width:2"/><path fill="none" d="M3849.7 347.03c6.5 35.19 19.3 112.87 19.3 178.97v202c0 64.41 23.84 137.5 37.56 174.24" style="stroke:#1a83af;stroke-width:2"/><path fill="#1A83AF" d="m3908.34 906.97.549-9.834-2.322 5.159-5.158-2.322 6.931 6.997z" style="stroke:#1a83af;stroke-width:2"/><path fill="none" d="M3934.97 947.36c15.64 15.97 37.88 38.68 54.45 55.59" style="stroke:#1a83af;stroke-width:2"/><path fill="#1A83AF" d="m3993.07 1006.68-3.443-9.228-.057 5.657-5.656-.057 9.156 3.628z" style="stroke:#1a83af;stroke-width:2"/><path fill="none" d="M934 947.36v54.3" style="stroke:#1a83af;stroke-width:2"/><path fill="#1A83AF" d="m934 1006.68 4-9-4 4-4-4 4 9z" style="stroke:#1a83af;stroke-width:2"/><path fill="none" d="M792.68 647.09c26.46 52.23 100.01 197.38 129.18 254.95" style="stroke:#1a83af;stroke-width:2"/><path fill="#1A83AF" d="m924.21 906.68-.498-9.836-1.76 5.375-5.377-1.761 7.635 6.222z" style="stroke:#1a83af;stroke-width:2"/><path fill="none" d="M596.4 244.01C492.71 264.35 343.51 309.39 254 407c-37.26 40.63-35 63.87-35 119v202c0 117.52 363.26 168.1 571.93 187.46" style="stroke:#1a83af;stroke-width:2"/><path fill="#1A83AF" d="m796.14 915.94-8.597-4.805 3.618 4.349-4.349 3.617 9.328-3.161z" style="stroke:#1a83af;stroke-width:2"/><path fill="none" d="M779.7 247.01c63.82 17.92 158.61 44.54 220.18 61.83" style="stroke:#1a83af;stroke-width:2"/><path fill="#1A83AF" d="m1004.99 310.27-7.577-6.292 2.765 4.935-4.936 2.765 9.748-1.408z" style="stroke:#1a83af;stroke-width:2"/><path fill="none" d="M697.83 247.01C669.04 288.12 610.42 386.42 659 447c32.06 39.98 166.23 61.03 260.1 71.07" style="stroke:#1a83af;stroke-width:2"/><path fill="#1A83AF" d="m924.1 518.6-8.527-4.93 3.555 4.401-4.4 3.555 9.372-3.026z" style="stroke:#1a83af;stroke-width:2"/><path fill="none" d="M1000.15 547.08c-10.41 15.39-24.04 38-31.15 59.92-34.22 105.55-36.38 239.94-35.65 294.42" style="stroke:#1a83af;stroke-width:2"/><path fill="#1A83AF" d="m933.43 906.74 3.845-9.067-3.93 4.068-4.069-3.931 4.154 8.93z" style="stroke:#1a83af;stroke-width:2"/><path fill="none" d="M1103.66 535c47.62 3.68 107.15 8.19 160.34 12 426.99 30.59 941.6 64.04 1114.27 75.16" style="stroke:#1a83af;stroke-width:2"/><path fill="#1A83AF" d="m2383.27 622.49-8.718-4.583 3.729 4.254-4.255 3.729 9.244-3.4z" style="stroke:#1a83af;stroke-width:2"/><path fill="none" d="M1027.24 547.36c10.83 15.84 26.18 38.3 37.71 55.16" style="stroke:#1a83af;stroke-width:2"/><path fill="#1A83AF" d="m1067.79 606.68-1.787-9.685-1.039 5.56-5.56-1.039 8.386 5.164z" style="stroke:#1a83af;stroke-width:2"/><path fill="none" d="M969.19 547.01c-39.09 16.58-95.72 40.61-136.25 57.8" style="stroke:#1a83af;stroke-width:2"/><path fill="#1A83AF" d="m828.08 606.87 9.848.157-5.247-2.115 2.115-5.246-6.716 7.204z" style="stroke:#1a83af;stroke-width:2"/><path fill="none" d="M1103.53 538.67c168.91 20.14 530.42 63.24 672.94 80.23" style="stroke:#1a83af;stroke-width:2"/><path fill="#1A83AF" d="m1781.45 619.5-8.468-5.028 3.503 4.441-4.442 3.503 9.407-2.916z" style="stroke:#1a83af;stroke-width:2"/><path fill="none" d="M2488.95 647.02c67.87 24.93 191.93 69.1 300.05 99.98 80.19 22.91 172.46 44.13 240.31 58.8" style="stroke:#1a83af;stroke-width:2"/><path fill="#1A83AF" d="m3034.57 806.94-7.95-5.813 3.063 4.756-4.755 3.063 9.642-2.006z" style="stroke:#1a83af;stroke-width:2"/><path fill="none" d="M882.01 447.13c27.43 16.39 66.93 39.99 95.56 57.1" style="stroke:#1a83af;stroke-width:2"/><path fill="#1A83AF" d="m982.07 506.92-5.671-8.052 1.38 5.486-5.486 1.38 9.777 1.186z" style="stroke:#1a83af;stroke-width:2"/><path fill="none" d="M1810.65 344.27A809.8 809.8 0 0 0 1828 347c273.98 39.72 345.52 23.89 620 60 7.19.95 14.63 2 22.09 3.12" style="stroke:#1a83af;stroke-width:2"/><path fill="#1A83AF" d="m2475.26 410.91-8.306-5.293 3.361 4.55-4.55 3.361 9.495-2.618z" style="stroke:#1a83af;stroke-width:2"/><path fill="none" d="M3128.68 347.11c-.57 35.33-1.68 113.23-1.68 178.89v275.64" style="stroke:#1a83af;stroke-width:2"/><path fill="#1A83AF" d="m3127 806.89 4-9-4 4-4-4 4 9z" style="stroke:#1a83af;stroke-width:2"/><path fill="none" d="M397.97 447.34c24 26.23 70.4 72.85 119.03 99.66 50.68 27.93 112.37 47.05 163.57 59.47" style="stroke:#1a83af;stroke-width:2"/><path fill="#1A83AF" d="m685.49 607.65-7.811-5.999 2.95 4.827-4.826 2.95 9.687-1.778z" style="stroke:#1a83af;stroke-width:2"/><path fill="none" d="m1677.84 247.36 36.3 54.73" style="stroke:#1a83af;stroke-width:2"/><path fill="#1A83AF" d="m1717.18 306.68-1.649-9.71-1.118 5.545-5.545-1.118 8.312 5.283z" style="stroke:#1a83af;stroke-width:2"/><path fill="none" d="M1650.13 247.06c-18.3 25.9-43.96 72.14-18.13 99.94 61.88 66.6 725.73 49.18 816 60 7.2.86 14.65 1.86 22.12 2.94" style="stroke:#1a83af;stroke-width:2"/><path fill="#1A83AF" d="m2475.29 410.7-8.32-5.27 3.373 4.54-4.54 3.375 9.487-2.645z" style="stroke:#1a83af;stroke-width:2"/><path fill="none" d="M3322.05 747.01c-41.03 16.62-100.51 40.71-142.99 57.91" style="stroke:#1a83af;stroke-width:2"/><path fill="#1A83AF" d="m3174.23 806.87 9.843.335-5.208-2.21 2.21-5.207-6.845 7.082z" style="stroke:#1a83af;stroke-width:2"/><path fill="none" d="M2107.5 247.13c31.4 16.46 76.68 40.19 109.37 57.31" style="stroke:#1a83af;stroke-width:2"/><path fill="#1A83AF" d="m2221.59 306.92-6.104-7.729 1.678 5.402-5.402 1.679 9.828.648z" style="stroke:#1a83af;stroke-width:2"/><path fill="none" d="M2071.86 247.38c2.29 26.7 10.55 74.37 40.14 99.62 3.42 2.92 227.68 41.32 358.27 63.49" style="stroke:#1a83af;stroke-width:2"/><path fill="#1A83AF" d="m2475.26 411.34-8.197-5.46 3.268 4.617-4.617 3.269 9.546-2.426z" style="stroke:#1a83af;stroke-width:2"/><path fill="none" d="M2044.26 247.13c-22.73 16.25-55.37 39.6-79.24 56.68" style="stroke:#1a83af;stroke-width:2"/><path fill="#1A83AF" d="m1960.67 306.92 9.643-2.002-5.582-.915.915-5.582-4.976 8.499z" style="stroke:#1a83af;stroke-width:2"/><path fill="none" d="M1283.53 547.01c-115.62 18.25-288.36 45.51-397.68 62.76" style="stroke:#1a83af;stroke-width:2"/><path fill="#1A83AF" d="m880.69 610.58 9.51 2.56-4.57-3.333 3.333-4.57-8.273 5.343z" style="stroke:#1a83af;stroke-width:2"/><path fill="none" d="M1526.67 539.63c222.93 21.13 686.69 65.08 851.56 80.71" style="stroke:#1a83af;stroke-width:2"/><path fill="#1A83AF" d="m2383.5 620.83-8.582-4.832 3.604 4.36-4.36 3.605 9.338-3.133z" style="stroke:#1a83af;stroke-width:2"/><path fill="none" d="M1341.34 547.01c-55.3 16.78-135.71 41.18-192.5 58.41" style="stroke:#1a83af;stroke-width:2"/><path fill="#1A83AF" d="m1143.76 606.96 9.772 1.232-4.985-2.675 2.675-4.985-7.462 6.428z" style="stroke:#1a83af;stroke-width:2"/><path fill="none" d="M1487.81 547.01c84.7 19.22 213.47 48.43 288.38 65.42" style="stroke:#1a83af;stroke-width:2"/><path fill="#1A83AF" d="m1781.49 613.63-7.898-5.884 3.02 4.783-4.782 3.02 9.66-1.919z" style="stroke:#1a83af;stroke-width:2"/><path fill="none" d="M1400.84 547.31C1390.66 603.06 1353.39 765.53 1254 847c-49.61 40.67-117.13 60.87-177.36 70.72" style="stroke:#1a83af;stroke-width:2"/><path fill="#1A83AF" d="m1071.57 918.53 9.518 2.533-4.58-3.32 3.32-4.58-8.258 5.367z" style="stroke:#1a83af;stroke-width:2"/><path fill="none" d="M2633.42 233.84c-311.41 18.25-1260.9 73.9-1511.33 88.58" style="stroke:#1a83af;stroke-width:2"/><path fill="#1A83AF" d="m1117.02 322.72 9.214 3.478-4.222-3.764 3.764-4.222-8.756 4.508z" style="stroke:#1a83af;stroke-width:2"/><path fill="none" d="M2832.75 236.78c204.61 18.02 671.13 59.1 892.45 78.58" style="stroke:#1a83af;stroke-width:2"/><path fill="#1A83AF" d="m3730.38 315.82-8.623-4.758 3.641 4.329-4.328 3.641 9.31-3.212z" style="stroke:#1a83af;stroke-width:2"/><path fill="none" d="M2744.96 247.27c8.88 15.49 20.24 38.15 25.04 59.73 13.96 62.71-.79 86.26-36 140-35.5 54.17-51.65 64.77-106 100-40.59 26.32-91.41 46.9-130.27 60.45" style="stroke:#1a83af;stroke-width:2"/><path fill="#1A83AF" d="m2492.57 609.23 9.812.851-5.084-2.48 2.479-5.084-7.207 6.713z" style="stroke:#1a83af;stroke-width:2"/><path fill="none" d="M2809.82 247.01c68.2 16.88 167.57 41.47 237.27 58.72" style="stroke:#1a83af;stroke-width:2"/><path fill="#1A83AF" d="m3052.05 306.96-7.778-6.042 2.924 4.843-4.843 2.924 9.697-1.725z" style="stroke:#1a83af;stroke-width:2"/><path fill="none" d="M2698.45 247.13c-29.72 16.46-72.58 40.19-103.52 57.31" style="stroke:#1a83af;stroke-width:2"/><path fill="#1A83AF" d="m2590.46 306.92 9.812-.85-5.435-1.567 1.568-5.436-5.945 7.853z" style="stroke:#1a83af;stroke-width:2"/><path fill="none" d="M2733.57 247.24c.13 43.35-6.23 148.84-67.57 199.76-118.93 98.72-599.95 155.82-770.05 173.24" style="stroke:#1a83af;stroke-width:2"/><path fill="#1A83AF" d="m1890.77 620.77 9.364 3.053-4.39-3.567 3.567-4.39-8.541 4.904z" style="stroke:#1a83af;stroke-width:2"/><path fill="none" d="M1093.99 347.04C1142.66 377.89 1228 443.71 1228 526v202c0 99.35-116.93 152.14-203.31 177.58" style="stroke:#1a83af;stroke-width:2"/><path fill="#1A83AF" d="m1019.83 906.99 9.76 1.32-4.96-2.72 2.72-4.96-7.52 6.36z" style="stroke:#1a83af;stroke-width:2"/><path fill="none" d="M1117.02 346.19c39.62 13.98 93.24 35.2 136.98 60.81 48.05 28.12 97.43 70.38 125.83 96.24" style="stroke:#1a83af;stroke-width:2"/><path fill="#1A83AF" d="m1383.53 506.62-3.941-9.026.252 5.651-5.652.252 9.341 3.123z" style="stroke:#1a83af;stroke-width:2"/><path fill="none" d="M1004.77 336.1c-111.4 16.06-362.1 52.19-509.52 73.43" style="stroke:#1a83af;stroke-width:2"/><path fill="#1A83AF" d="m490.05 410.28 9.48 2.672-4.531-3.387 3.386-4.531-8.335 5.246z" style="stroke:#1a83af;stroke-width:2"/><path fill="none" d="M1117.04 337.01c95.51 15.66 285.75 48.32 349.96 69.99 38.04 12.84 43 27.04 81 40 302.78 103.23 684.9 155.29 830.23 172.43" style="stroke:#1a83af;stroke-width:2"/><path fill="#1A83AF" d="m2383.29 620.02-8.47-5.026 3.504 4.441-4.44 3.505 9.406-2.92z" style="stroke:#1a83af;stroke-width:2"/><path fill="none" d="M1058.76 347.16c-3 23.68-8.97 65.11-17.76 99.84-4.73 18.68-11.83 39.27-17.56 54.74" style="stroke:#1a83af;stroke-width:2"/><path fill="#1A83AF" d="m1021.55 506.79 6.905-7.023-5.15 2.341-2.34-5.15.585 9.832z" style="stroke:#1a83af;stroke-width:2"/><path fill="none" d="M1117.16 330.86C1328.63 341.79 2070.07 381.55 2173 407c377.1 93.23 792.82 324.87 917.03 397.12" style="stroke:#1a83af;stroke-width:2"/><path fill="#1A83AF" d="m3094.67 806.83-5.742-8.002 1.428 5.474-5.473 1.428 9.787 1.1z" style="stroke:#1a83af;stroke-width:2"/><path fill="none" d="M1020.07 347.01c-35.56 16.52-87.01 40.41-124 57.59" style="stroke:#1a83af;stroke-width:2"/><path fill="#1A83AF" d="m891.18 406.87 9.848-.146-5.31-1.952 1.953-5.31-6.491 7.408z" style="stroke:#1a83af;stroke-width:2"/><path fill="none" d="M1072.98 347.22c22.17 37.98 65.78 125.39 48.02 199.78-4.72 19.78-15.25 40.22-24.32 55.35" style="stroke:#1a83af;stroke-width:2"/><path fill="#1A83AF" d="m1093.92 606.87 8.096-5.608-5.496 1.337-1.337-5.497-1.263 9.768z" style="stroke:#1a83af;stroke-width:2"/><path fill="none" d="M1049.96 347.3c-14.54 24.56-41.7 67.64-70.96 99.7-28.08 30.77-40.95 32.23-72 60-36.1 32.29-76.27 71.47-100.84 95.83" style="stroke:#1a83af;stroke-width:2"/><path fill="#1A83AF" d="m802.36 606.61 9.2-3.517-5.657-.011.011-5.657-3.554 9.185z" style="stroke:#1a83af;stroke-width:2"/><path fill="none" d="M1117.12 341.52c8.97 1.97 18.16 3.87 26.88 5.48 141 26.09 303.48 48.24 416.42 62.38" style="stroke:#1a83af;stroke-width:2"/><path fill="#1A83AF" d="m1565.42 410.01-8.442-5.073 3.48 4.46-4.46 3.48 9.422-2.867z" style="stroke:#1a83af;stroke-width:2"/><path fill="none" d="M1117.28 335.34c29.14 3.7 65.31 8.14 97.72 11.66 283.58 30.8 355.35 29.85 639 60 4.2.45 8.46.91 12.76 1.38" style="stroke:#1a83af;stroke-width:2"/><path fill="#1A83AF" d="m1871.82 408.93-8.513-4.953 3.543 4.41-4.411 3.542 9.381-2.999z" style="stroke:#1a83af;stroke-width:2"/><path fill="none" d="M1117.44 343.52c50.79 14.54 127.11 37.83 191.56 63.48 38.05 15.14 45.49 23.58 83 40 66.54 29.12 87.91 25.83 152 60 27.63 14.73 31.78 22.88 58 40 70.85 46.26 82.2 71.87 162 100 170.99 60.27 382.31 75.71 511.56 79.04" style="stroke:#1a83af;stroke-width:2"/><path fill="#1A83AF" d="m2280.88 726.17-8.894-4.23 3.896 4.101-4.102 3.896 9.1-3.767z" style="stroke:#1a83af;stroke-width:2"/><path fill="none" d="M1117.17 337.46c67.4 12.21 183.28 35.95 278.83 69.54 48.76 17.14 163.71 77.01 210 100 66.76 33.16 143.53 73.28 189.33 97.44" style="stroke:#1a83af;stroke-width:2"/><path fill="#1A83AF" d="m1799.94 606.87-6.104-7.729 1.678 5.402-5.401 1.679 9.827.648z" style="stroke:#1a83af;stroke-width:2"/><path fill="none" d="M1735 47.36v54.3" style="stroke:#1a83af;stroke-width:2"/><path fill="#1A83AF" d="m1735 106.68 4-9-4 4-4-4 4 9z" style="stroke:#1a83af;stroke-width:2"/><path fill="none" d="M1666.09 128.82C1423.13 132.21 615.66 147.87 517 207c-74.63 44.73-114.35 147.83-129.13 194.84" style="stroke:#1a83af;stroke-width:2"/><path fill="#1A83AF" d="m386.35 406.75 6.468-7.427-4.999 2.648-2.647-5 1.178 9.779z" style="stroke:#1a83af;stroke-width:2"/><path fill="none" d="M1666.37 128.89C1372.74 133.02 234.78 152.52 183 207c-52.96 55.72-109.37 35.64 71 240 108.82 123.29 305.64 161.78 426.1 173.72" style="stroke:#1a83af;stroke-width:2"/><path fill="#1A83AF" d="m685.42 621.24-8.568-4.856 3.592 4.37-4.37 3.592 9.346-3.106z" style="stroke:#1a83af;stroke-width:2"/><path fill="none" d="M1666.46 129.72c-113.48 4.44-332.69 20.37-380.46 77.28-40 47.66-41.62 93.75 0 140 42.45 47.17 504.93 52.92 568 60 4.2.47 8.45.95 12.75 1.44" style="stroke:#1a83af;stroke-width:2"/><path fill="#1A83AF" d="m1871.81 409.02-8.484-5.002 3.517 4.431-4.43 3.517 9.397-2.946z" style="stroke:#1a83af;stroke-width:2"/><path fill="none" d="M1803.67 134.49C1909.64 145.52 2107.1 170.32 2167 207c37.53 22.98 65.21 67.57 79.66 95.17" style="stroke:#1a83af;stroke-width:2"/><path fill="#1A83AF" d="m2249.03 306.78-.56-9.833-1.727 5.387-5.387-1.727 7.674 6.173z" style="stroke:#1a83af;stroke-width:2"/><path fill="none" d="M1803.73 127.85c361.54-.46 2029.53 1.64 2104.27 79.15 26.97 27.97-7.52 70.01-34.84 95.91" style="stroke:#1a83af;stroke-width:2"/><path fill="#1A83AF" d="m3869.19 306.61 9.315-3.199-5.653-.205.206-5.654-3.868 9.058z" style="stroke:#1a83af;stroke-width:2"/><path fill="none" d="M1803.71 129.25C2117.46 135.22 3401.87 162.29 3474 207c51.4 31.86 66 58.52 66 119v402c0 74.29-65.5 141.48-104.91 175.19" style="stroke:#1a83af;stroke-width:2"/><path fill="#1A83AF" d="m3430.89 906.74 9.454-2.761-5.638-.47.47-5.637-4.286 8.868z" style="stroke:#1a83af;stroke-width:2"/><path fill="none" d="M1666.13 140.47c-37.95 10.77-81.95 30.55-105.13 66.53-31.38 48.7 43.21 133.62 53 140 155.67 101.46 649.49 38.04 834 60 7.2.86 14.65 1.85 22.12 2.93" style="stroke:#1a83af;stroke-width:2"/><path fill="#1A83AF" d="m2475.29 410.68-8.32-5.27 3.373 4.54-4.54 3.375 9.487-2.645z" style="stroke:#1a83af;stroke-width:2"/><path fill="none" d="M1754.44 147.35c36.95 36.76 117.14 116.55 156.64 155.84" style="stroke:#1a83af;stroke-width:2"/><path fill="#1A83AF" d="m1914.77 306.87-3.554-9.185.011 5.657-5.657.011 9.2 3.517z" style="stroke:#1a83af;stroke-width:2"/><path fill="none" d="M1666.44 133.16C1518.2 144.52 1156.85 173.41 855 207c-7.18.8-14.56 1.66-22 2.56" style="stroke:#1a83af;stroke-width:2"/><path fill="#1A83AF" d="m827.85 210.18 9.414 2.893-4.45-3.492 3.492-4.45-8.456 5.049z" style="stroke:#1a83af;stroke-width:2"/><path fill="none" d="M1666.08 137.48c-42.37 9.77-93.47 29.56-120.08 69.52-23.93 35.94 10.33 124.67 29 140 119.29 97.96 541.05 27.77 692 60 132.51 28.29 173.98 26.79 288 100 178.67 114.71 335.07 324.74 384.67 395.22" style="stroke:#1a83af;stroke-width:2"/><path fill="#1A83AF" d="m2942.78 906.66-1.887-9.666-.981 5.57-5.571-.981 8.439 5.077z" style="stroke:#1a83af;stroke-width:2"/><path fill="none" d="M1666.32 130.32c-136.43 5.69-435.86 23.99-522.32 76.68-36.4 22.18-60.94 67.03-73.4 94.89" style="stroke:#1a83af;stroke-width:2"/><path fill="#1A83AF" d="m1068.56 306.55 7.264-6.65-5.265 2.067-2.067-5.266.068 9.849z" style="stroke:#1a83af;stroke-width:2"/><path fill="none" d="M1666.12 132.28c-98.22 7.69-270.91 27.7-309.12 74.72-39.24 48.29-42.35 94.42 0 140 124.35 133.83 938.4-35.62 816 100-42.08 46.62-433.75 67.3-641.29 75.05" style="stroke:#1a83af;stroke-width:2"/><path fill="#1A83AF" d="m1526.54 522.24 9.142 3.663-4.145-3.849 3.848-4.145-8.845 4.331z" style="stroke:#1a83af;stroke-width:2"/><path fill="none" d="M1803.61 128.99C2113.18 133.76 3367.72 156.15 3433 207c43.59 33.96 36 63.74 36 119v202c0 69.57-49.8 139.55-79.11 174.72" style="stroke:#1a83af;stroke-width:2"/><path fill="#1A83AF" d="m3386.42 706.84 8.85-4.32-5.635.49-.492-5.635-2.723 9.465z" style="stroke:#1a83af;stroke-width:2"/><path fill="none" d="M1803.6 134.74c171.52 16.84 619.93 60.87 824.69 80.98" style="stroke:#1a83af;stroke-width:2"/><path fill="#1A83AF" d="m2633.38 216.22-8.555-4.88 3.58 4.38-4.38 3.58 9.355-3.08z" style="stroke:#1a83af;stroke-width:2"/><path fill="none" d="M1803.73 127.56c231.89-.75 974.92 2.85 1046.27 79.44 115.03 123.47-27.24 248.45-169 340-56.68 36.6-131.78 57.6-183.41 68.61" style="stroke:#1a83af;stroke-width:2"/><path fill="#1A83AF" d="m2492.67 616.65 9.63 2.066-4.737-3.093 3.093-4.737-7.986 5.764z" style="stroke:#1a83af;stroke-width:2"/><path fill="none" d="M1666.23 131.52C1511.51 140.1 1140.4 164.55 1023 207c-151.74 54.87-226.54 57.91-303 200-44.01 81.78 97.57 107.45 199.31 115.45" style="stroke:#1a83af;stroke-width:2"/><path fill="#1A83AF" d="m924.42 522.84-8.678-4.658 3.692 4.286-4.286 3.692 9.272-3.32z" style="stroke:#1a83af;stroke-width:2"/><path fill="none" d="M1721.17 147.36c-11.31 15.84-27.35 38.3-39.4 55.16" style="stroke:#1a83af;stroke-width:2"/><path fill="#1A83AF" d="m1678.8 206.68 8.491-4.99-5.58.924-.925-5.58-1.986 9.646z" style="stroke:#1a83af;stroke-width:2"/><path fill="none" d="M1666.29 131.37C1523.05 139.22 1197.51 161.6 1097 207c-102.16 46.15-192.4 149.62-229.3 195.88" style="stroke:#1a83af;stroke-width:2"/><path fill="#1A83AF" d="m864.51 406.91 8.715-4.587-5.618.662-.662-5.618-2.435 9.543z" style="stroke:#1a83af;stroke-width:2"/><path fill="none" d="M1666.2 128.22C1430.3 129.59 664.07 139.24 579 207c-43.22 34.43-36 63.74-36 119v102c0 92.49 283.57 155.05 438.96 182.38" style="stroke:#1a83af;stroke-width:2"/><path fill="#1A83AF" d="m986.98 611.26-8.166-5.506 3.242 4.635-4.635 3.243 9.559-2.372z" style="stroke:#1a83af;stroke-width:2"/><path fill="none" d="M1800.18 147.01c57.64 16.81 141.51 41.27 200.61 58.51" style="stroke:#1a83af;stroke-width:2"/><path fill="#1A83AF" d="m2005.71 206.96-7.52-6.36 2.72 4.96-4.96 2.72 9.76-1.32z" style="stroke:#1a83af;stroke-width:2"/><path fill="none" d="M1803.73 129.9c245.36 7.12 1069.36 34.02 1179.27 77.1 52.52 20.59 100.56 67.47 126.3 95.86" style="stroke:#1a83af;stroke-width:2"/><path fill="#1A83AF" d="m3112.94 306.9-3.048-9.365-.297 5.648-5.649-.297 8.994 4.014z" style="stroke:#1a83af;stroke-width:2"/><path fill="none" d="M1803.81 130.4c202.67 7.38 814.96 32.01 1321.19 76.6 7.2.63 14.58 1.34 22.02 2.08" style="stroke:#1a83af;stroke-width:2"/><path fill="#1A83AF" d="m3152.19 209.61-8.555-4.88 3.58 4.38-4.38 3.58 9.355-3.08z" style="stroke:#1a83af;stroke-width:2"/><path fill="none" d="M1803.7 128.68c362.43 3.84 2039.33 24.43 2134.3 78.32 54.79 31.09 77 56 77 119v402c0 69.43-49.3 139.47-78.32 174.69" style="stroke:#1a83af;stroke-width:2"/><path fill="#1A83AF" d="m3933.24 906.8 8.833-4.356-5.633.514-.515-5.634-2.685 9.476z" style="stroke:#1a83af;stroke-width:2"/><path fill="none" d="M1666.46 127.86c-127.63 1.35-394.02 12.32-451.46 79.14-40.56 47.19-40.31 92.6 0 140 11.3 13.28 205.59 41.72 345.04 60.6" style="stroke:#1a83af;stroke-width:2"/><path fill="#1A83AF" d="m1565.39 408.33-8.382-5.172 3.427 4.5-4.5 3.428 9.455-2.756z" style="stroke:#1a83af;stroke-width:2"/><path fill="none" d="M1803.58 128.96c234.28 3.78 993.49 20.4 1085.42 78.04 51.61 32.36 68 58.09 68 119v102c0 199.39-279.24 265.74-444.41 287.54" style="stroke:#1a83af;stroke-width:2"/><path fill="#1A83AF" d="m2507.25 716.24 9.44 2.81-4.481-3.453 3.452-4.481-8.411 5.124z" style="stroke:#1a83af;stroke-width:2"/><path fill="none" d="M1803.64 128.93c234.01 3.68 999.17 19.95 1237.36 78.07 3.32.81 223.14 97.13 225 100 108.89 167.56-61.81 418.14-120.41 495.44" style="stroke:#1a83af;stroke-width:2"/><path fill="#1A83AF" d="m3142.22 806.85 8.63-4.746-5.605.765-.765-5.605-2.26 9.586z" style="stroke:#1a83af;stroke-width:2"/><path fill="none" d="M1666.2 127.64C1371.31 126.59 222.82 127.66 84 207 29.1 238.38 6 262.76 6 326v502c0 166.7 579.98 193.57 822.93 197.52" style="stroke:#1a83af;stroke-width:2"/><path fill="#1A83AF" d="m834.25 1025.6-8.93-4.154 3.93 4.068-4.067 3.931 9.067-3.845z" style="stroke:#1a83af;stroke-width:2"/><path fill="none" d="M1666.19 135.95C1584.87 146.92 1456.91 169.7 1428 207c-38.12 49.18-42.27 94.34 0 140 117.81 127.24 660.19-67.24 778 60 101.41 109.54-181.39 181.58-310.03 207.86" style="stroke:#1a83af;stroke-width:2"/><path fill="#1A83AF" d="m1890.71 615.93 9.612 2.147-4.71-3.133 3.132-4.71-8.034 5.696z" style="stroke:#1a83af;stroke-width:2"/><path fill="none" d="M1803.68 129.37C2045.43 134.52 2879.5 155.19 3566 207c7.22.54 14.6 1.15 22.06 1.8" style="stroke:#1a83af;stroke-width:2"/><path fill="#1A83AF" d="m3593.23 209.26-8.61-4.78 3.63 4.338-4.339 3.63 9.319-3.188z" style="stroke:#1a83af;stroke-width:2"/><path fill="none" d="M1803.71 128.8c367.3 4.5 2086.18 28.16 2186.29 78.2 60.78 30.38 96 51.05 96 119v502c0 66.55-37.14 138.18-58.8 174.29" style="stroke:#1a83af;stroke-width:2"/><path fill="#1A83AF" d="m4024.39 1006.94 8.088-5.62-5.495 1.345-1.345-5.494-1.248 9.769z" style="stroke:#1a83af;stroke-width:2"/><path fill="none" d="M1666.42 129.41C1368.24 135.78 196.48 163.5 132 207c-48.3 32.59-55 60.74-55 119v402c0 144.84 470.55 183.74 714.31 194.18" style="stroke:#1a83af;stroke-width:2"/><path fill="#1A83AF" d="m796.31 922.39-8.82-4.382 3.825 4.168-4.168 3.825 9.163-3.611z" style="stroke:#1a83af;stroke-width:2"/><path fill="none" d="M1746.74 147.22c12.84 23.4 30.56 64.21 22.26 99.78-4.6 19.71-14.86 40.15-23.71 55.3" style="stroke:#1a83af;stroke-width:2"/><path fill="#1A83AF" d="m1742.6 306.82 8.038-5.691-5.482 1.393-1.394-5.482-1.162 9.78z" style="stroke:#1a83af;stroke-width:2"/><path fill="none" d="M1803.73 135.53c93.88 11.13 267.03 34.72 411.27 71.47 105.18 26.79 224.02 71.76 289.97 98.07" style="stroke:#1a83af;stroke-width:2"/><path fill="#1A83AF" d="m2509.62 306.93-6.87-7.056 2.228 5.199-5.2 2.228 9.842-.371z" style="stroke:#1a83af;stroke-width:2"/><path fill="none" d="M1666.49 129.37C1468.82 133.89 880.68 151.39 396 207c-7.1.81-14.44 1.78-21.8 2.85" style="stroke:#1a83af;stroke-width:2"/><path fill="#1A83AF" d="m369.1 210.6 9.487 2.645-4.54-3.374 3.373-4.54-8.32 5.269z" style="stroke:#1a83af;stroke-width:2"/></svg>