<svg xmlns="http://www.w3.org/2000/svg" xmlns:xlink="http://www.w3.org/1999/xlink" width="6222" height="352" preserveAspectRatio="none" style="width:6222px;height:352px;background:#00000000"><a xlink:actuate="onRequest" xlink:href="#a" xlink:show="new" xlink:title="#aws_glacier_job" xlink:type="simple" target="_top"><rect id="a" width="173" height="39.789" x="7" y="207" fill="#3D176E" rx="2.5" ry="2.5" style="stroke:#000d19;stroke-width:1.5"/><circle cx="22" cy="226.894" r="11" fill="#E98DF7" style="stroke:#000d19;stroke-width:1"/><path d="M24.969 232.535q-.578.297-1.219.438-.64.156-1.344.156-2.5 0-3.828-1.64-1.312-1.657-1.312-4.782t1.312-4.781q1.328-1.656 3.828-1.656.703 0 1.344.156.656.156 1.219.453v2.719q-.625-.579-1.219-.844-.594-.281-1.219-.281-1.343 0-2.031 1.078-.688 1.062-.688 3.156 0 2.094.688 3.172.688 1.062 2.031 1.062.625 0 1.219-.265.594-.281 1.219-.86v2.72Z"/><text x="41" y="232.78" fill="#D9B8FF" font-family="Helvetica" font-size="17" textLength="131">aws_glacier_job</text></a><a xlink:actuate="onRequest" xlink:href="#b" xlink:show="new" xlink:title="#aws_lambda_function" xlink:type="simple" target="_top"><rect id="b" width="224" height="39.789" x="527.5" y="207" fill="#3D176E" rx="2.5" ry="2.5" style="stroke:#000d19;stroke-width:1.5"/><circle cx="542.5" cy="226.894" r="11" fill="#E98DF7" style="stroke:#000d19;stroke-width:1"/><path d="M545.469 232.535q-.578.297-1.219.438-.64.156-1.344.156-2.5 0-3.828-1.64-1.312-1.657-1.312-4.782t1.312-4.781q1.328-1.656 3.828-1.656.703 0 1.344.156.656.156 1.219.453v2.719q-.625-.579-1.219-.844-.594-.281-1.219-.281-1.343 0-2.031 1.078-.688 1.062-.688 3.156 0 2.094.688 3.172.688 1.062 2.031 1.062.625 0 1.219-.265.594-.281 1.219-.86v2.72Z"/><text x="561.5" y="232.78" fill="#D9B8FF" font-family="Helvetica" font-size="17" textLength="182">aws_lambda_function</text></a><a xlink:actuate="onRequest" xlink:href="#c" xlink:show="new" xlink:title="#aws_redshift_cluster" xlink:type="simple" target="_top"><rect id="c" width="213" height="39.789" x="301" y="7" fill="#3D176E" rx="2.5" ry="2.5" style="stroke:#000d19;stroke-width:1.5"/><circle cx="316" cy="26.895" r="11" fill="#E98DF7" style="stroke:#000d19;stroke-width:1"/><path d="M318.969 32.535q-.578.297-1.219.438-.64.156-1.344.156-2.5 0-3.828-1.64-1.312-1.657-1.312-4.782t1.312-4.781q1.328-1.656 3.828-1.656.703 0 1.344.156.656.156 1.219.453v2.719q-.625-.578-1.219-.844-.594-.281-1.219-.281-1.344 0-2.031 1.078-.688 1.062-.688 3.156 0 2.094.688 3.172.688 1.062 2.031 1.062.625 0 1.219-.265.594-.281 1.219-.86v2.72Z"/><text x="335" y="32.78" fill="#D9B8FF" font-family="Helvetica" font-size="17" textLength="171">aws_redshift_cluster</text></a><a xlink:actuate="onRequest" xlink:href="#d" xlink:show="new" xlink:title="#aws_rds_instance" xlink:type="simple" target="_top"><rect id="d" width="188" height="39.789" x="2426.5" y="207" fill="#3D176E" rx="2.5" ry="2.5" style="stroke:#000d19;stroke-width:1.5"/><circle cx="2441.5" cy="226.894" r="11" fill="#E98DF7" style="stroke:#000d19;stroke-width:1"/><path d="M2444.469 232.535q-.578.297-1.219.438-.64.156-1.344.156-2.5 0-3.828-1.64-1.312-1.657-1.312-4.782t1.312-4.781q1.328-1.656 3.828-1.656.703 0 1.344.156.656.156 1.219.453v2.719q-.625-.579-1.219-.844-.594-.281-1.219-.281-1.343 0-2.031 1.078-.688 1.062-.688 3.156 0 2.094.688 3.172.688 1.062 2.031 1.062.625 0 1.219-.265.594-.281 1.219-.86v2.72Z"/><text x="2460.5" y="232.78" fill="#D9B8FF" font-family="Helvetica" font-size="17" textLength="146">aws_rds_instance</text></a><a xlink:actuate="onRequest" xlink:href="#e" xlink:show="new" xlink:title="#aws_sagemaker_inference_recommendations_job" xlink:type="simple" target="_top"><rect id="e" width="457" height="39.789" x="2060" y="7" fill="#3D176E" rx="2.5" ry="2.5" style="stroke:#000d19;stroke-width:1.5"/><circle cx="2075" cy="26.895" r="11" fill="#E98DF7" style="stroke:#000d19;stroke-width:1"/><path d="M2077.969 32.535q-.578.297-1.219.438-.64.156-1.344.156-2.5 0-3.828-1.64-1.312-1.657-1.312-4.782t1.312-4.781q1.328-1.656 3.828-1.656.703 0 1.344.156.656.156 1.219.453v2.719q-.625-.578-1.219-.844-.594-.281-1.219-.281-1.343 0-2.031 1.078-.688 1.062-.688 3.156 0 2.094.688 3.172.688 1.062 2.031 1.062.625 0 1.219-.265.594-.281 1.219-.86v2.72Z"/><text x="2094" y="32.78" fill="#D9B8FF" font-family="Helvetica" font-size="17" textLength="415">aws_sagemaker_inference_recommendations_job</text></a><a xlink:actuate="onRequest" xlink:href="#f" xlink:show="new" xlink:title="#aws_kms_key" xlink:type="simple" target="_top"><rect id="f" width="158" height="39.789" x="2294.5" y="307" fill="#3D176E" rx="2.5" ry="2.5" style="stroke:#000d19;stroke-width:1.5"/><circle cx="2309.5" cy="326.894" r="11" fill="#E98DF7" style="stroke:#000d19;stroke-width:1"/><path d="M2312.469 332.535q-.578.297-1.219.438-.64.156-1.344.156-2.5 0-3.828-1.64-1.312-1.657-1.312-4.782t1.312-4.781q1.328-1.656 3.828-1.656.703 0 1.344.156.656.156 1.219.453v2.719q-.625-.579-1.219-.844-.594-.281-1.219-.281-1.343 0-2.031 1.078-.688 1.062-.688 3.156 0 2.094.688 3.172.688 1.062 2.031 1.062.625 0 1.219-.265.594-.281 1.219-.86v2.72Z"/><text x="2328.5" y="332.78" fill="#D9B8FF" font-family="Helvetica" font-size="17" textLength="116">aws_kms_key</text></a><a xlink:actuate="onRequest" xlink:href="#g" xlink:show="new" xlink:title="#aws_sagemaker_endpoint" xlink:type="simple" target="_top"><rect id="g" width="259" height="39.789" x="1965" y="107" fill="#3D176E" rx="2.5" ry="2.5" style="stroke:#000d19;stroke-width:1.5"/><circle cx="1980" cy="126.894" r="11" fill="#E98DF7" style="stroke:#000d19;stroke-width:1"/><path d="M1982.969 132.535q-.578.297-1.219.438-.64.156-1.344.156-2.5 0-3.828-1.64-1.312-1.657-1.312-4.782t1.312-4.781q1.328-1.657 3.828-1.657.703 0 1.344.157.656.156 1.219.453v2.719q-.625-.579-1.219-.844-.594-.281-1.219-.281-1.343 0-2.031 1.078-.688 1.062-.688 3.156 0 2.094.688 3.172.688 1.062 2.031 1.062.625 0 1.219-.265.594-.281 1.219-.86v2.72Z"/><text x="1999" y="132.78" fill="#D9B8FF" font-family="Helvetica" font-size="17" textLength="217">aws_sagemaker_endpoint</text></a><a xlink:actuate="onRequest" xlink:href="#h" xlink:show="new" xlink:title="#aws_sagemaker_training_job" xlink:type="simple" target="_top"><rect id="h" width="285" height="39.789" x="1266" y="207" fill="#3D176E" rx="2.5" ry="2.5" style="stroke:#000d19;stroke-width:1.5"/><circle cx="1281" cy="226.894" r="11" fill="#E98DF7" style="stroke:#000d19;stroke-width:1"/><path d="M1283.969 232.535q-.578.297-1.219.438-.64.156-1.344.156-2.5 0-3.828-1.64-1.312-1.657-1.312-4.782t1.312-4.781q1.328-1.656 3.828-1.656.703 0 1.344.156.656.156 1.219.453v2.719q-.625-.579-1.219-.844-.594-.281-1.219-.281-1.343 0-2.031 1.078-.688 1.062-.688 3.156 0 2.094.688 3.172.688 1.062 2.031 1.062.625 0 1.219-.265.594-.281 1.219-.86v2.72Z"/><text x="1300" y="232.78" fill="#D9B8FF" font-family="Helvetica" font-size="17" textLength="243">aws_sagemaker_training_job</text></a><a xlink:actuate="onRequest" xlink:href="#i" xlink:show="new" xlink:title="#aws_ec2_volume" xlink:type="simple" target="_top"><rect id="i" width="185" height="39.789" x="3086" y="107" fill="#3D176E" rx="2.5" ry="2.5" style="stroke:#000d19;stroke-width:1.5"/><circle cx="3101" cy="126.894" r="11" fill="#E98DF7" style="stroke:#000d19;stroke-width:1"/><path d="M3103.969 132.535q-.578.297-1.219.438-.64.156-1.344.156-2.5 0-3.828-1.64-1.312-1.657-1.312-4.782t1.312-4.781q1.328-1.657 3.828-1.657.703 0 1.344.157.656.156 1.219.453v2.719q-.625-.579-1.219-.844-.594-.281-1.219-.281-1.343 0-2.031 1.078-.688 1.062-.688 3.156 0 2.094.688 3.172.688 1.062 2.031 1.062.625 0 1.219-.265.594-.281 1.219-.86v2.72Z"/><text x="3120" y="132.78" fill="#D9B8FF" font-family="Helvetica" font-size="17" textLength="143">aws_ec2_volume</text></a><a xlink:actuate="onRequest" xlink:href="#j" xlink:show="new" xlink:title="#aws_cognito_user_pool" xlink:type="simple" target="_top"><rect id="j" width="234" height="39.789" x="357.5" y="107" fill="#3D176E" rx="2.5" ry="2.5" style="stroke:#000d19;stroke-width:1.5"/><circle cx="372.5" cy="126.894" r="11" fill="#E98DF7" style="stroke:#000d19;stroke-width:1"/><path d="M375.469 132.535q-.578.297-1.219.438-.64.156-1.344.156-2.5 0-3.828-1.64-1.312-1.657-1.312-4.782t1.312-4.781q1.328-1.657 3.828-1.657.703 0 1.344.157.656.156 1.219.453v2.719q-.625-.579-1.219-.844-.594-.281-1.219-.281-1.344 0-2.031 1.078-.688 1.062-.688 3.156 0 2.094.688 3.172.688 1.062 2.031 1.062.625 0 1.219-.265.594-.281 1.219-.86v2.72Z"/><text x="391.5" y="132.78" fill="#D9B8FF" font-family="Helvetica" font-size="17" textLength="192">aws_cognito_user_pool</text></a><a xlink:actuate="onRequest" xlink:href="#k" xlink:show="new" xlink:title="#aws_sagemaker_transform_job" xlink:type="simple" target="_top"><rect id="k" width="302" height="39.789" x="786.5" y="207" fill="#3D176E" rx="2.5" ry="2.5" style="stroke:#000d19;stroke-width:1.5"/><circle cx="801.5" cy="226.894" r="11" fill="#E98DF7" style="stroke:#000d19;stroke-width:1"/><path d="M804.469 232.535q-.578.297-1.219.438-.64.156-1.344.156-2.5 0-3.828-1.64-1.312-1.657-1.312-4.782t1.312-4.781q1.328-1.656 3.828-1.656.703 0 1.344.156.656.156 1.219.453v2.719q-.625-.579-1.219-.844-.594-.281-1.219-.281-1.343 0-2.031 1.078-.688 1.062-.688 3.156 0 2.094.688 3.172.688 1.062 2.031 1.062.625 0 1.219-.265.594-.281 1.219-.86v2.72Z"/><text x="820.5" y="232.78" fill="#D9B8FF" font-family="Helvetica" font-size="17" textLength="260">aws_sagemaker_transform_job</text></a><a xlink:actuate="onRequest" xlink:href="#l" xlink:show="new" xlink:title="#aws_cloudwatch_log_group" xlink:type="simple" target="_top"><rect id="l" width="270" height="39.789" x="3269.5" y="207" fill="#3D176E" rx="2.5" ry="2.5" style="stroke:#000d19;stroke-width:1.5"/><circle cx="3284.5" cy="226.894" r="11" fill="#E98DF7" style="stroke:#000d19;stroke-width:1"/><path d="M3287.469 232.535q-.578.297-1.219.438-.64.156-1.344.156-2.5 0-3.828-1.64-1.312-1.657-1.312-4.782t1.312-4.781q1.328-1.656 3.828-1.656.703 0 1.344.156.656.156 1.219.453v2.719q-.625-.579-1.219-.844-.594-.281-1.219-.281-1.343 0-2.031 1.078-.688 1.062-.688 3.156 0 2.094.688 3.172.688 1.062 2.031 1.062.625 0 1.219-.265.594-.281 1.219-.86v2.72Z"/><text x="3303.5" y="232.78" fill="#D9B8FF" font-family="Helvetica" font-size="17" textLength="228">aws_cloudwatch_log_group</text></a><a xlink:actuate="onRequest" xlink:href="#m" xlink:show="new" xlink:title="#aws_sns_topic" xlink:type="simple" target="_top"><rect id="m" width="160" height="39.789" x="1947.5" y="207" fill="#3D176E" rx="2.5" ry="2.5" style="stroke:#000d19;stroke-width:1.5"/><circle cx="1962.5" cy="226.894" r="11" fill="#E98DF7" style="stroke:#000d19;stroke-width:1"/><path d="M1965.469 232.535q-.578.297-1.219.438-.64.156-1.344.156-2.5 0-3.828-1.64-1.312-1.657-1.312-4.782t1.312-4.781q1.328-1.656 3.828-1.656.703 0 1.344.156.656.156 1.219.453v2.719q-.625-.579-1.219-.844-.594-.281-1.219-.281-1.343 0-2.031 1.078-.688 1.062-.688 3.156 0 2.094.688 3.172.688 1.062 2.031 1.062.625 0 1.219-.265.594-.281 1.219-.86v2.72Z"/><text x="1981.5" y="232.78" fill="#D9B8FF" font-family="Helvetica" font-size="17" textLength="118">aws_sns_topic</text></a><a xlink:actuate="onRequest" xlink:href="#n" xlink:show="new" xlink:title="#aws_dynamo_db_global_table" xlink:type="simple" target="_top"><rect id="n" width="291" height="39.789" x="3575" y="207" fill="#3D176E" rx="2.5" ry="2.5" style="stroke:#000d19;stroke-width:1.5"/><circle cx="3590" cy="226.894" r="11" fill="#E98DF7" style="stroke:#000d19;stroke-width:1"/><path d="M3592.969 232.535q-.578.297-1.219.438-.64.156-1.344.156-2.5 0-3.828-1.64-1.312-1.657-1.312-4.782t1.312-4.781q1.328-1.656 3.828-1.656.703 0 1.344.156.656.156 1.219.453v2.719q-.625-.579-1.219-.844-.594-.281-1.219-.281-1.343 0-2.031 1.078-.688 1.062-.688 3.156 0 2.094.688 3.172.688 1.062 2.031 1.062.625 0 1.219-.265.594-.281 1.219-.86v2.72Z"/><text x="3609" y="232.78" fill="#D9B8FF" font-family="Helvetica" font-size="17" textLength="249">aws_dynamo_db_global_table</text></a><a xlink:actuate="onRequest" xlink:href="#o" xlink:show="new" xlink:title="#aws_sagemaker_labeling_job" xlink:type="simple" target="_top"><rect id="o" width="285" height="39.789" x="698" y="107" fill="#3D176E" rx="2.5" ry="2.5" style="stroke:#000d19;stroke-width:1.5"/><circle cx="713" cy="126.894" r="11" fill="#E98DF7" style="stroke:#000d19;stroke-width:1"/><path d="M715.969 132.535q-.578.297-1.219.438-.64.156-1.344.156-2.5 0-3.828-1.64-1.312-1.657-1.312-4.782t1.312-4.781q1.328-1.657 3.828-1.657.703 0 1.344.157.656.156 1.219.453v2.719q-.625-.579-1.219-.844-.594-.281-1.219-.281-1.343 0-2.031 1.078-.688 1.062-.688 3.156 0 2.094.688 3.172.688 1.062 2.031 1.062.625 0 1.219-.265.594-.281 1.219-.86v2.72Z"/><text x="732" y="132.78" fill="#D9B8FF" font-family="Helvetica" font-size="17" textLength="243">aws_sagemaker_labeling_job</text></a><a xlink:actuate="onRequest" xlink:href="#p" xlink:show="new" xlink:title="#aws_sagemaker_edge_packaging_job" xlink:type="simple" target="_top"><rect id="p" width="352" height="39.789" x="3900.5" y="207" fill="#3D176E" rx="2.5" ry="2.5" style="stroke:#000d19;stroke-width:1.5"/><circle cx="3915.5" cy="226.894" r="11" fill="#E98DF7" style="stroke:#000d19;stroke-width:1"/><path d="M3918.469 232.535q-.578.297-1.219.438-.64.156-1.344.156-2.5 0-3.828-1.64-1.312-1.657-1.312-4.782t1.312-4.781q1.328-1.656 3.828-1.656.703 0 1.344.156.656.156 1.219.453v2.719q-.625-.579-1.219-.844-.594-.281-1.219-.281-1.343 0-2.031 1.078-.688 1.062-.688 3.156 0 2.094.688 3.172.688 1.062 2.031 1.062.625 0 1.219-.265.594-.281 1.219-.86v2.72Z"/><text x="3934.5" y="232.78" fill="#D9B8FF" font-family="Helvetica" font-size="17" textLength="310">aws_sagemaker_edge_packaging_job</text></a><a xlink:actuate="onRequest" xlink:href="#q" xlink:show="new" xlink:title="#aws_sagemaker_processing_job" xlink:type="simple" target="_top"><rect id="q" width="306" height="39.789" x="1018.5" y="107" fill="#3D176E" rx="2.5" ry="2.5" style="stroke:#000d19;stroke-width:1.5"/><circle cx="1033.5" cy="126.894" r="11" fill="#E98DF7" style="stroke:#000d19;stroke-width:1"/><path d="M1036.469 132.535q-.578.297-1.219.438-.64.156-1.344.156-2.5 0-3.828-1.64-1.312-1.657-1.312-4.782t1.312-4.781q1.328-1.657 3.828-1.657.703 0 1.344.157.656.156 1.219.453v2.719q-.625-.579-1.219-.844-.594-.281-1.219-.281-1.343 0-2.031 1.078-.688 1.062-.688 3.156 0 2.094.688 3.172.688 1.062 2.031 1.062.625 0 1.219-.265.594-.281 1.219-.86v2.72Z"/><text x="1052.5" y="132.78" fill="#D9B8FF" font-family="Helvetica" font-size="17" textLength="264">aws_sagemaker_processing_job</text></a><a xlink:actuate="onRequest" xlink:href="#r" xlink:show="new" xlink:title="#aws_sagemaker_hyper_parameter_tuning_job" xlink:type="simple" target="_top"><rect id="r" width="428" height="39.789" x="1430.5" y="107" fill="#3D176E" rx="2.5" ry="2.5" style="stroke:#000d19;stroke-width:1.5"/><circle cx="1445.5" cy="126.894" r="11" fill="#E98DF7" style="stroke:#000d19;stroke-width:1"/><path d="M1448.469 132.535q-.578.297-1.219.438-.64.156-1.344.156-2.5 0-3.828-1.64-1.312-1.657-1.312-4.782t1.312-4.781q1.328-1.657 3.828-1.657.703 0 1.344.157.656.156 1.219.453v2.719q-.625-.579-1.219-.844-.594-.281-1.219-.281-1.343 0-2.031 1.078-.688 1.062-.688 3.156 0 2.094.688 3.172.688 1.062 2.031 1.062.625 0 1.219-.265.594-.281 1.219-.86v2.72Z"/><text x="1464.5" y="132.78" fill="#D9B8FF" font-family="Helvetica" font-size="17" textLength="386">aws_sagemaker_hyper_parameter_tuning_job</text></a><a xlink:actuate="onRequest" xlink:href="#s" xlink:show="new" xlink:title="#aws_sagemaker_compilation_job" xlink:type="simple" target="_top"><rect id="s" width="317" height="39.789" x="4288" y="207" fill="#3D176E" rx="2.5" ry="2.5" style="stroke:#000d19;stroke-width:1.5"/><circle cx="4303" cy="226.894" r="11" fill="#E98DF7" style="stroke:#000d19;stroke-width:1"/><path d="M4305.969 232.535q-.578.297-1.219.438-.64.156-1.344.156-2.5 0-3.828-1.64-1.312-1.657-1.312-4.782t1.312-4.781q1.328-1.656 3.828-1.656.703 0 1.344.156.656.156 1.219.453v2.719q-.625-.579-1.219-.844-.594-.281-1.219-.281-1.343 0-2.031 1.078-.688 1.062-.688 3.156 0 2.094.688 3.172.688 1.062 2.031 1.062.625 0 1.219-.265.594-.281 1.219-.86v2.72Z"/><text x="4322" y="232.78" fill="#D9B8FF" font-family="Helvetica" font-size="17" textLength="275">aws_sagemaker_compilation_job</text></a><a xlink:actuate="onRequest" xlink:href="#t" xlink:show="new" xlink:title="#aws_sagemaker_notebook" xlink:type="simple" target="_top"><rect id="t" width="263" height="39.789" x="4640" y="207" fill="#3D176E" rx="2.5" ry="2.5" style="stroke:#000d19;stroke-width:1.5"/><circle cx="4655" cy="226.894" r="11" fill="#E98DF7" style="stroke:#000d19;stroke-width:1"/><path d="M4657.969 232.535q-.578.297-1.219.438-.64.156-1.344.156-2.5 0-3.828-1.64-1.312-1.657-1.312-4.782t1.312-4.781q1.328-1.656 3.828-1.656.703 0 1.344.156.656.156 1.219.453v2.719q-.625-.579-1.219-.844-.594-.281-1.219-.281-1.343 0-2.031 1.078-.688 1.062-.688 3.156 0 2.094.688 3.172.688 1.062 2.031 1.062.625 0 1.219-.265.594-.281 1.219-.86v2.72Z"/><text x="4674" y="232.78" fill="#D9B8FF" font-family="Helvetica" font-size="17" textLength="221">aws_sagemaker_notebook</text></a><a xlink:actuate="onRequest" xlink:href="#u" xlink:show="new" xlink:title="#aws_sagemaker_auto_ml_job" xlink:type="simple" target="_top"><rect id="u" width="288" height="39.789" x="611.5" y="7" fill="#3D176E" rx="2.5" ry="2.5" style="stroke:#000d19;stroke-width:1.5"/><circle cx="626.5" cy="26.895" r="11" fill="#E98DF7" style="stroke:#000d19;stroke-width:1"/><path d="M629.469 32.535q-.578.297-1.219.438-.64.156-1.344.156-2.5 0-3.828-1.64-1.312-1.657-1.312-4.782t1.312-4.781q1.328-1.656 3.828-1.656.703 0 1.344.156.656.156 1.219.453v2.719q-.625-.578-1.219-.844-.594-.281-1.219-.281-1.343 0-2.031 1.078-.688 1.062-.688 3.156 0 2.094.688 3.172.688 1.062 2.031 1.062.625 0 1.219-.265.594-.281 1.219-.86v2.72Z"/><text x="645.5" y="32.78" fill="#D9B8FF" font-family="Helvetica" font-size="17" textLength="246">aws_sagemaker_auto_ml_job</text></a><a xlink:actuate="onRequest" xlink:href="#v" xlink:show="new" xlink:title="#aws_sagemaker_domain" xlink:type="simple" target="_top"><rect id="v" width="248" height="39.789" x="4938.5" y="207" fill="#3D176E" rx="2.5" ry="2.5" style="stroke:#000d19;stroke-width:1.5"/><circle cx="4953.5" cy="226.894" r="11" fill="#E98DF7" style="stroke:#000d19;stroke-width:1"/><path d="M4956.469 232.535q-.578.297-1.219.438-.64.156-1.344.156-2.5 0-3.828-1.64-1.312-1.657-1.312-4.782t1.312-4.781q1.328-1.656 3.828-1.656.703 0 1.344.156.656.156 1.219.453v2.719q-.625-.579-1.219-.844-.594-.281-1.219-.281-1.343 0-2.031 1.078-.688 1.062-.688 3.156 0 2.094.688 3.172.688 1.062 2.031 1.062.625 0 1.219-.265.594-.281 1.219-.86v2.72Z"/><text x="4972.5" y="232.78" fill="#D9B8FF" font-family="Helvetica" font-size="17" textLength="206">aws_sagemaker_domain</text></a><a xlink:actuate="onRequest" xlink:href="#w" xlink:show="new" xlink:title="#aws_athena_work_group" xlink:type="simple" target="_top"><rect id="w" width="251" height="39.789" x="1313" y="7" fill="#3D176E" rx="2.5" ry="2.5" style="stroke:#000d19;stroke-width:1.5"/><circle cx="1328" cy="26.895" r="11" fill="#E98DF7" style="stroke:#000d19;stroke-width:1"/><path d="M1330.969 32.535q-.578.297-1.219.438-.64.156-1.344.156-2.5 0-3.828-1.64-1.312-1.657-1.312-4.782t1.312-4.781q1.328-1.656 3.828-1.656.703 0 1.344.156.656.156 1.219.453v2.719q-.625-.578-1.219-.844-.594-.281-1.219-.281-1.343 0-2.031 1.078-.688 1.062-.688 3.156 0 2.094.688 3.172.688 1.062 2.031 1.062.625 0 1.219-.265.594-.281 1.219-.86v2.72Z"/><text x="1347" y="32.78" fill="#D9B8FF" font-family="Helvetica" font-size="17" textLength="209">aws_athena_work_group</text></a><a xlink:actuate="onRequest" xlink:href="#x" xlink:show="new" xlink:title="#aws_rds_cluster" xlink:type="simple" target="_top"><rect id="x" width="174" height="39.789" x="2536.5" y="107" fill="#3D176E" rx="2.5" ry="2.5" style="stroke:#000d19;stroke-width:1.5"/><circle cx="2551.5" cy="126.894" r="11" fill="#E98DF7" style="stroke:#000d19;stroke-width:1"/><path d="M2554.469 132.535q-.578.297-1.219.438-.64.156-1.344.156-2.5 0-3.828-1.64-1.312-1.657-1.312-4.782t1.312-4.781q1.328-1.657 3.828-1.657.703 0 1.344.157.656.156 1.219.453v2.719q-.625-.579-1.219-.844-.594-.281-1.219-.281-1.343 0-2.031 1.078-.688 1.062-.688 3.156 0 2.094.688 3.172.688 1.062 2.031 1.062.625 0 1.219-.265.594-.281 1.219-.86v2.72Z"/><text x="2570.5" y="132.78" fill="#D9B8FF" font-family="Helvetica" font-size="17" textLength="132">aws_rds_cluster</text></a><a xlink:actuate="onRequest" xlink:href="#y" xlink:show="new" xlink:title="#aws_elasticache_replication_group" xlink:type="simple" target="_top"><rect id="y" width="330" height="39.789" x="5221.5" y="207" fill="#3D176E" rx="2.5" ry="2.5" style="stroke:#000d19;stroke-width:1.5"/><circle cx="5236.5" cy="226.894" r="11" fill="#E98DF7" style="stroke:#000d19;stroke-width:1"/><path d="M5239.469 232.535q-.578.297-1.219.438-.64.156-1.344.156-2.5 0-3.828-1.64-1.312-1.657-1.312-4.782t1.312-4.781q1.328-1.656 3.828-1.656.703 0 1.344.156.656.156 1.219.453v2.719q-.625-.579-1.219-.844-.594-.281-1.219-.281-1.343 0-2.031 1.078-.688 1.062-.688 3.156 0 2.094.688 3.172.688 1.062 2.031 1.062.625 0 1.219-.265.594-.281 1.219-.86v2.72Z"/><text x="5255.5" y="232.78" fill="#D9B8FF" font-family="Helvetica" font-size="17" textLength="288">aws_elasticache_replication_group</text></a><a xlink:actuate="onRequest" xlink:href="#z" xlink:show="new" xlink:title="#aws_kinesis_stream" xlink:type="simple" target="_top"><rect id="z" width="209" height="39.789" x="2650" y="207" fill="#3D176E" rx="2.5" ry="2.5" style="stroke:#000d19;stroke-width:1.5"/><circle cx="2665" cy="226.894" r="11" fill="#E98DF7" style="stroke:#000d19;stroke-width:1"/><path d="M2667.969 232.535q-.578.297-1.219.438-.64.156-1.344.156-2.5 0-3.828-1.64-1.312-1.657-1.312-4.782t1.312-4.781q1.328-1.656 3.828-1.656.703 0 1.344.156.656.156 1.219.453v2.719q-.625-.579-1.219-.844-.594-.281-1.219-.281-1.343 0-2.031 1.078-.688 1.062-.688 3.156 0 2.094.688 3.172.688 1.062 2.031 1.062.625 0 1.219-.265.594-.281 1.219-.86v2.72Z"/><text x="2684" y="232.78" fill="#D9B8FF" font-family="Helvetica" font-size="17" textLength="167">aws_kinesis_stream</text></a><a xlink:actuate="onRequest" xlink:href="#A" xlink:show="new" xlink:title="#aws_dynamo_db_table" xlink:type="simple" target="_top"><rect id="A" width="232" height="39.789" x="2779.5" y="107" fill="#3D176E" rx="2.5" ry="2.5" style="stroke:#000d19;stroke-width:1.5"/><circle cx="2794.5" cy="126.894" r="11" fill="#E98DF7" style="stroke:#000d19;stroke-width:1"/><path d="M2797.469 132.535q-.578.297-1.219.438-.64.156-1.344.156-2.5 0-3.828-1.64-1.312-1.657-1.312-4.782t1.312-4.781q1.328-1.657 3.828-1.657.703 0 1.344.157.656.156 1.219.453v2.719q-.625-.579-1.219-.844-.594-.281-1.219-.281-1.343 0-2.031 1.078-.688 1.062-.688 3.156 0 2.094.688 3.172.688 1.062 2.031 1.062.625 0 1.219-.265.594-.281 1.219-.86v2.72Z"/><text x="2813.5" y="132.78" fill="#D9B8FF" font-family="Helvetica" font-size="17" textLength="190">aws_dynamo_db_table</text></a><a xlink:actuate="onRequest" xlink:href="#B" xlink:show="new" xlink:title="#aws_ec2_snapshot" xlink:type="simple" target="_top"><rect id="B" width="197" height="39.789" x="2966" y="207" fill="#3D176E" rx="2.5" ry="2.5" style="stroke:#000d19;stroke-width:1.5"/><circle cx="2981" cy="226.894" r="11" fill="#E98DF7" style="stroke:#000d19;stroke-width:1"/><path d="M2983.969 232.535q-.578.297-1.219.438-.64.156-1.344.156-2.5 0-3.828-1.64-1.312-1.657-1.312-4.782t1.312-4.781q1.328-1.656 3.828-1.656.703 0 1.344.156.656.156 1.219.453v2.719q-.625-.579-1.219-.844-.594-.281-1.219-.281-1.343 0-2.031 1.078-.688 1.062-.688 3.156 0 2.094.688 3.172.688 1.062 2.031 1.062.625 0 1.219-.265.594-.281 1.219-.86v2.72Z"/><text x="3000" y="232.78" fill="#D9B8FF" font-family="Helvetica" font-size="17" textLength="155">aws_ec2_snapshot</text></a><a xlink:actuate="onRequest" xlink:href="#C" xlink:show="new" xlink:title="#aws_sqs_queue" xlink:type="simple" target="_top"><rect id="C" width="171" height="39.789" x="5587" y="207" fill="#3D176E" rx="2.5" ry="2.5" style="stroke:#000d19;stroke-width:1.5"/><circle cx="5602" cy="226.894" r="11" fill="#E98DF7" style="stroke:#000d19;stroke-width:1"/><path d="M5604.969 232.535q-.578.297-1.219.438-.64.156-1.344.156-2.5 0-3.828-1.64-1.312-1.657-1.312-4.782t1.312-4.781q1.328-1.656 3.828-1.656.703 0 1.344.156.656.156 1.219.453v2.719q-.625-.579-1.219-.844-.594-.281-1.219-.281-1.343 0-2.031 1.078-.688 1.062-.688 3.156 0 2.094.688 3.172.688 1.062 2.031 1.062.625 0 1.219-.265.594-.281 1.219-.86v2.72Z"/><text x="5621" y="232.78" fill="#D9B8FF" font-family="Helvetica" font-size="17" textLength="129">aws_sqs_queue</text></a><a xlink:actuate="onRequest" xlink:href="#D" xlink:show="new" xlink:title="#aws_cloud_trail" xlink:type="simple" target="_top"><rect id="D" width="171" height="39.789" x="2259" y="107" fill="#3D176E" rx="2.5" ry="2.5" style="stroke:#000d19;stroke-width:1.5"/><circle cx="2274" cy="126.894" r="11" fill="#E98DF7" style="stroke:#000d19;stroke-width:1"/><path d="M2276.969 132.535q-.578.297-1.219.438-.64.156-1.344.156-2.5 0-3.828-1.64-1.312-1.657-1.312-4.782t1.312-4.781q1.328-1.657 3.828-1.657.703 0 1.344.157.656.156 1.219.453v2.719q-.625-.579-1.219-.844-.594-.281-1.219-.281-1.343 0-2.031 1.078-.688 1.062-.688 3.156 0 2.094.688 3.172.688 1.062 2.031 1.062.625 0 1.219-.265.594-.281 1.219-.86v2.72Z"/><text x="2293" y="132.78" fill="#D9B8FF" font-family="Helvetica" font-size="17" textLength="129">aws_cloud_trail</text></a><a xlink:actuate="onRequest" xlink:href="#E" xlink:show="new" xlink:title="#aws_ecs_cluster" xlink:type="simple" target="_top"><rect id="E" width="175" height="39.789" x="5793" y="207" fill="#3D176E" rx="2.5" ry="2.5" style="stroke:#000d19;stroke-width:1.5"/><circle cx="5808" cy="226.894" r="11" fill="#E98DF7" style="stroke:#000d19;stroke-width:1"/><path d="M5810.969 232.535q-.578.297-1.219.438-.64.156-1.344.156-2.5 0-3.828-1.64-1.312-1.657-1.312-4.782t1.312-4.781q1.328-1.656 3.828-1.656.703 0 1.344.156.656.156 1.219.453v2.719q-.625-.579-1.219-.844-.594-.281-1.219-.281-1.343 0-2.031 1.078-.688 1.062-.688 3.156 0 2.094.688 3.172.688 1.062 2.031 1.062.625 0 1.219-.265.594-.281 1.219-.86v2.72Z"/><text x="5827" y="232.78" fill="#D9B8FF" font-family="Helvetica" font-size="17" textLength="133">aws_ecs_cluster</text></a><a xlink:actuate="onRequest" xlink:href="#F" xlink:show="new" xlink:title="#aws_efs_file_system" xlink:type="simple" target="_top"><rect id="F" width="212" height="39.789" x="6003.5" y="207" fill="#3D176E" rx="2.5" ry="2.5" style="stroke:#000d19;stroke-width:1.5"/><circle cx="6018.5" cy="226.894" r="11" fill="#E98DF7" style="stroke:#000d19;stroke-width:1"/><path d="M6021.469 232.535q-.578.297-1.219.438-.64.156-1.344.156-2.5 0-3.828-1.64-1.312-1.657-1.312-4.782t1.312-4.781q1.328-1.656 3.828-1.656.703 0 1.344.156.656.156 1.219.453v2.719q-.625-.579-1.219-.844-.594-.281-1.219-.281-1.343 0-2.031 1.078-.688 1.062-.688 3.156 0 2.094.688 3.172.688 1.062 2.031 1.062.625 0 1.219-.265.594-.281 1.219-.86v2.72Z"/><text x="6037.5" y="232.78" fill="#D9B8FF" font-family="Helvetica" font-size="17" textLength="170">aws_efs_file_system</text></a><path fill="none" d="M180.17 243.64c9.21 1.3 18.45 2.46 27.33 3.36 414.93 41.97 1735.22 70.49 2081.94 77.38" style="stroke:#1a83af;stroke-width:2"/><path fill="#1A83AF" d="m2294.48 324.48-8.918-4.18 3.919 4.08-4.08 3.92 9.079-3.82z" style="stroke:#1a83af;stroke-width:2"/><path fill="none" d="M751.64 245.18c5.7.67 11.34 1.28 16.86 1.82 579.83 56.84 1281.73 73.51 1520.68 77.73" style="stroke:#1a83af;stroke-width:2"/><path fill="#1A83AF" d="m2294.39 324.82-8.93-4.154 3.93 4.068-4.067 3.931 9.067-3.845z" style="stroke:#1a83af;stroke-width:2"/><path fill="none" d="M377.33 47.1c-19.07 13.99-42.09 34.85-52.83 59.9-26.34 61.44-1.86 104.84 55 140 82.33 50.91 1541.02 73.14 1909.83 77.97" style="stroke:#1a83af;stroke-width:2"/><path fill="#1A83AF" d="m2294.42 325.03-8.942-4.128 3.943 4.057-4.057 3.942 9.056-3.871z" style="stroke:#1a83af;stroke-width:2"/><path fill="none" d="M514.13 41.68c130.99 16.8 354.17 45.43 503.67 64.6" style="stroke:#1a83af;stroke-width:2"/><path fill="#1A83AF" d="m1023.09 106.96-8.41-5.124 3.452 4.481-4.482 3.452 9.44-2.809z" style="stroke:#1a83af;stroke-width:2"/><path fill="none" d="M2491.81 247.13c-24.49 16.32-59.7 39.8-85.34 56.89" style="stroke:#1a83af;stroke-width:2"/><path fill="#1A83AF" d="m2402.12 306.92 9.707-1.664-5.547-1.11 1.11-5.547-5.27 8.321z" style="stroke:#1a83af;stroke-width:2"/><path fill="none" d="M2365.57 47.01c31.04 11.86 63.74 30.65 81.93 59.99 9.37 15.11 7.31 23.8 0 40-16.58 36.74-50.5 23.69-68 60-14.51 30.1-13.1 69.58-10.08 94.63" style="stroke:#1a83af;stroke-width:2"/><path fill="#1A83AF" d="m2370.08 306.75 2.81-9.44-3.453 4.481-4.481-3.452 5.124 8.411z" style="stroke:#1a83af;stroke-width:2"/><path fill="none" d="M2250.63 47.13c-32.71 16.52-79.94 40.38-113.87 57.52" style="stroke:#1a83af;stroke-width:2"/><path fill="#1A83AF" d="m2132.27 106.92 9.837-.485-5.374-1.768 1.769-5.374-6.232 7.627z" style="stroke:#1a83af;stroke-width:2"/><path fill="none" d="m2121.51 147.16 220.78 156.69" style="stroke:#1a83af;stroke-width:2"/><path fill="#1A83AF" d="m2346.48 306.82-5.024-8.471.947 5.577-5.577.947 9.654 1.947z" style="stroke:#1a83af;stroke-width:2"/><path fill="none" d="M2081.26 147.36c-10.83 15.84-26.18 38.3-37.71 55.16" style="stroke:#1a83af;stroke-width:2"/><path fill="#1A83AF" d="m2040.71 206.68 8.387-5.164-5.561 1.04-1.04-5.561-1.786 9.685z" style="stroke:#1a83af;stroke-width:2"/><path fill="none" d="M1551.15 242.49c203.9 20.7 572.3 58.12 737.81 74.92" style="stroke:#1a83af;stroke-width:2"/><path fill="#1A83AF" d="m2294.28 317.96-8.54-4.905 3.567 4.39-4.39 3.568 9.363-3.053z" style="stroke:#1a83af;stroke-width:2"/><path fill="none" d="M3156.25 147.13c-18.83 16.19-45.85 39.41-65.69 56.47" style="stroke:#1a83af;stroke-width:2"/><path fill="#1A83AF" d="m3086.69 206.92 9.436-2.82-5.64-.434.434-5.64-4.23 8.894z" style="stroke:#1a83af;stroke-width:2"/><path fill="none" d="M3185.97 147.26c8.74 26.13 19.1 72.65-5.47 99.74-47.89 52.81-525.33 71.51-722.5 77.01" style="stroke:#1a83af;stroke-width:2"/><path fill="#1A83AF" d="m2452.82 324.16 9.11 3.741-4.112-3.884 3.884-4.112-8.882 4.255z" style="stroke:#1a83af;stroke-width:2"/><path fill="none" d="M506.71 147.13c27.59 16.39 67.33 39.99 96.14 57.1" style="stroke:#1a83af;stroke-width:2"/><path fill="#1A83AF" d="m607.38 206.92-5.691-8.038 1.394 5.482-5.483 1.394 9.78 1.162z" style="stroke:#1a83af;stroke-width:2"/><path fill="none" d="M473.85 147.38c.27 27.16 5.28 75.88 35.65 99.62 70.94 55.46 1425.54 74.18 1779.81 78.14" style="stroke:#1a83af;stroke-width:2"/><path fill="#1A83AF" d="m2294.45 325.2-8.954-4.103 3.954 4.046-4.045 3.954 9.045-3.897z" style="stroke:#1a83af;stroke-width:2"/><path fill="none" d="M1088.94 244.62c8.99.84 17.89 1.65 26.56 2.38 441.4 37.4 971.33 65.05 1173.78 74.98" style="stroke:#1a83af;stroke-width:2"/><path fill="#1A83AF" d="m2294.3 322.23-8.795-4.433 3.8 4.19-4.189 3.8 9.184-3.557z" style="stroke:#1a83af;stroke-width:2"/><path fill="none" d="M3269.29 244.13c-9.07.99-18.06 1.96-26.79 2.87-287.68 29.94-629.62 59.16-784.86 72.09" style="stroke:#1a83af;stroke-width:2"/><path fill="#1A83AF" d="m2452.65 319.5 9.3 3.241-4.317-3.655 3.655-4.317-8.638 4.731z" style="stroke:#1a83af;stroke-width:2"/><path fill="none" d="M2094.62 247.01c59.35 16.81 145.72 41.27 206.58 58.51" style="stroke:#1a83af;stroke-width:2"/><path fill="#1A83AF" d="m2306.27 306.96-7.56-6.313 2.751 4.943-4.942 2.751 9.751-1.381z" style="stroke:#1a83af;stroke-width:2"/><path fill="none" d="M3574.78 245.25c-6.17.62-12.29 1.2-18.28 1.75-411.45 37.55-904.95 64.78-1098.89 74.79" style="stroke:#1a83af;stroke-width:2"/><path fill="#1A83AF" d="m2452.52 322.05 9.194 3.532-4.2-3.789 3.789-4.2-8.783 4.457z" style="stroke:#1a83af;stroke-width:2"/><path fill="none" d="M859.66 147.36c15.81 15.97 38.29 38.68 55.02 55.59" style="stroke:#1a83af;stroke-width:2"/><path fill="#1A83AF" d="m918.38 206.68-3.498-9.207-.023 5.657-5.657-.023 9.178 3.573z" style="stroke:#1a83af;stroke-width:2"/><path fill="none" d="M912.04 147.05c53.72 14.85 128.83 36.79 193.46 59.95 43.13 15.46 50.42 29.43 95 40 207.12 49.13 855.46 70.64 1088.51 76.93" style="stroke:#1a83af;stroke-width:2"/><path fill="#1A83AF" d="m2294.1 324.07-8.882-4.255 3.884 4.112-4.113 3.884 9.111-3.741z" style="stroke:#1a83af;stroke-width:2"/><path fill="none" d="M801.27 147.13c-33.9 16.52-82.83 40.38-117.99 57.52" style="stroke:#1a83af;stroke-width:2"/><path fill="#1A83AF" d="m678.63 206.92 9.843-.346-5.348-1.844 1.843-5.348-6.338 7.538z" style="stroke:#1a83af;stroke-width:2"/><path fill="none" d="M950.69 147.01c98.51 17 242.35 41.82 342.41 59.08" style="stroke:#1a83af;stroke-width:2"/><path fill="#1A83AF" d="m1298.13 206.96-8.197-5.46 3.268 4.617-4.617 3.269 9.546-2.426z" style="stroke:#1a83af;stroke-width:2"/><path fill="none" d="M983.1 145.24c5.87.61 11.69 1.2 17.4 1.76 348.73 34.1 765.28 62.28 941.53 73.63" style="stroke:#1a83af;stroke-width:2"/><path fill="#1A83AF" d="m1947.18 220.96-8.717-4.583 3.728 4.254-4.255 3.728 9.244-3.399z" style="stroke:#1a83af;stroke-width:2"/><path fill="none" d="M3900.35 245.68c-5.68.46-11.31.9-16.85 1.32-542.77 40.89-1196.88 67.37-1425.92 75.96" style="stroke:#1a83af;stroke-width:2"/><path fill="#1A83AF" d="m2452.58 323.14 9.143 3.662-4.146-3.848 3.848-4.146-8.845 4.332z" style="stroke:#1a83af;stroke-width:2"/><path fill="none" d="M1217.48 147.01c40.18 16.62 98.43 40.71 140.03 57.91" style="stroke:#1a83af;stroke-width:2"/><path fill="#1A83AF" d="m1362.25 206.87-6.78-7.143 2.162 5.227-5.228 2.162 9.846-.246z" style="stroke:#1a83af;stroke-width:2"/><path fill="none" d="M1177.74 147.28c10.05 27.52 32.62 77.2 70.76 99.72 88.91 52.49 795.01 72.11 1040.91 77.4" style="stroke:#1a83af;stroke-width:2"/><path fill="#1A83AF" d="m2294.42 324.5-8.918-4.18 3.919 4.08-4.08 3.92 9.079-3.82z" style="stroke:#1a83af;stroke-width:2"/><path fill="none" d="M1598.72 147.01c-40.01 16.62-98.03 40.71-139.45 57.91" style="stroke:#1a83af;stroke-width:2"/><path fill="#1A83AF" d="m1454.56 206.87 9.846.22-5.233-2.148 2.148-5.233-6.761 7.161z" style="stroke:#1a83af;stroke-width:2"/><path fill="none" d="M1672.81 147.06c41.19 26.77 120.91 75.01 195.69 99.94 143.02 47.67 318.61 66.86 420.56 74.38" style="stroke:#1a83af;stroke-width:2"/><path fill="#1A83AF" d="m2294.16 321.75-8.678-4.658 3.692 4.286-4.286 3.692 9.272-3.32z" style="stroke:#1a83af;stroke-width:2"/><path fill="none" d="M4287.81 245.54c-6.18.52-12.3 1.01-18.31 1.46-699.03 52.03-1545.78 72.14-1811.85 77.45" style="stroke:#1a83af;stroke-width:2"/><path fill="#1A83AF" d="m2452.63 324.55 9.078 3.82-4.079-3.92 3.92-4.08-8.919 4.18z" style="stroke:#1a83af;stroke-width:2"/><path fill="none" d="M4639.95 245.44c-5.9.57-11.73 1.1-17.45 1.56-842.49 68.37-1867.26 77.6-2164.49 78.82" style="stroke:#1a83af;stroke-width:2"/><path fill="#1A83AF" d="m2452.83 325.84 9.023 3.949-4.023-3.978 3.977-4.022-8.977 4.051z" style="stroke:#1a83af;stroke-width:2"/><path fill="none" d="M728.51 47.12c-30.53 23.99-72.97 66.1-48.01 99.88 18.31 24.79 86.1 45.02 147.46 58.8" style="stroke:#1a83af;stroke-width:2"/><path fill="#1A83AF" d="m833.12 206.95-7.914-5.862 3.034 4.774-4.775 3.034 9.655-1.946z" style="stroke:#1a83af;stroke-width:2"/><path fill="none" d="M611.33 46.26C498.28 62.06 357.17 85.66 339.5 107c-11.34 13.69-8.05 24.15 0 40 34.15 67.21 65.83 75.14 137 100 172.4 60.22 1467.77 75.38 1812.78 78.37" style="stroke:#1a83af;stroke-width:2"/><path fill="#1A83AF" d="m2294.29 325.41-8.965-4.077 3.965 4.034-4.034 3.966 9.034-3.923z" style="stroke:#1a83af;stroke-width:2"/><path fill="none" d="M899.79 32.9c149.8 7.6 371.83 26.7 441.71 74.1 33.06 22.43 51.63 66.89 60.46 94.66" style="stroke:#1a83af;stroke-width:2"/><path fill="#1A83AF" d="m1403.49 206.64 1.17-9.78-2.643 5.002-5.002-2.644 6.475 7.422z" style="stroke:#1a83af;stroke-width:2"/><path fill="none" d="m836.2 47.01 249.25 58.72" style="stroke:#1a83af;stroke-width:2"/><path fill="#1A83AF" d="m1090.67 106.96-7.845-5.955 2.978 4.81-4.81 2.977 9.677-1.832z" style="stroke:#1a83af;stroke-width:2"/><path fill="none" d="M4938.28 245.36c-6 .61-11.95 1.16-17.78 1.64-965.07 79.32-2141.8 80.75-2462.75 79.5" style="stroke:#1a83af;stroke-width:2"/><path fill="#1A83AF" d="m2452.62 326.48 8.988 4.026-3.988-4.012 4.011-3.988-9.011 3.974z" style="stroke:#1a83af;stroke-width:2"/><path fill="none" d="M1564.16 37.11C1676.04 47.6 1829 68.56 1875.5 107c51.4 42.49 2.54 97.58 54 140 53.65 44.22 246.57 65.11 359.69 73.75" style="stroke:#1a83af;stroke-width:2"/><path fill="#1A83AF" d="m2294.18 321.13-8.678-4.658 3.692 4.287-4.286 3.691 9.272-3.32z" style="stroke:#1a83af;stroke-width:2"/><path fill="none" d="M1386.7 47.01c-45.45 16.68-111.43 40.9-158.33 58.12" style="stroke:#1a83af;stroke-width:2"/><path fill="#1A83AF" d="m1223.61 106.87 9.826.664-5.13-2.382 2.382-5.13-7.078 6.848z" style="stroke:#1a83af;stroke-width:2"/><path fill="none" d="M2603.15 147.36c-16.79 15.97-40.65 38.68-58.42 55.59" style="stroke:#1a83af;stroke-width:2"/><path fill="#1A83AF" d="m2540.81 206.68 9.275-3.312-5.655-.137.137-5.655-3.757 9.104z" style="stroke:#1a83af;stroke-width:2"/><path fill="none" d="M2536.23 141.03c-43.78 10.79-94.44 30.41-127.73 65.97-24.42 26.09-31.89 68.35-34.12 94.86" style="stroke:#1a83af;stroke-width:2"/><path fill="#1A83AF" d="m2374 306.95 4.658-8.678-4.286 3.692-3.692-4.286 3.32 9.272z" style="stroke:#1a83af;stroke-width:2"/><path fill="none" d="M2649.07 147.13c21.73 16.25 52.94 39.6 75.77 56.68" style="stroke:#1a83af;stroke-width:2"/><path fill="#1A83AF" d="m2729 206.92-4.815-8.592.81 5.599-5.599.81 9.604 2.183z" style="stroke:#1a83af;stroke-width:2"/><path fill="none" d="M5221.38 245.79c-5.69.44-11.33.84-16.88 1.21-1083.28 71.56-2403.9 78.45-2746.59 78.99" style="stroke:#1a83af;stroke-width:2"/><path fill="#1A83AF" d="m2452.69 326 9 4-4-4 4-4-9 4z" style="stroke:#1a83af;stroke-width:2"/><path fill="none" d="M2680.59 247.01c-65.49 16.85-160.84 41.37-227.88 58.62" style="stroke:#1a83af;stroke-width:2"/><path fill="#1A83AF" d="m2447.53 306.96 9.712 1.637-4.869-2.88 2.88-4.869-7.723 6.112z" style="stroke:#1a83af;stroke-width:2"/><path fill="none" d="M2898.63 147.09c3.12 26.35 4.24 73.61-22.13 99.91-57.41 57.26-290.86 73.02-418.55 77.36" style="stroke:#1a83af;stroke-width:2"/><path fill="#1A83AF" d="m2452.7 324.53 9.132 3.69-4.135-3.861 3.86-4.135-8.857 4.306z" style="stroke:#1a83af;stroke-width:2"/><path fill="none" d="M2867.98 147.13c-23.49 16.32-57.26 39.8-81.86 56.89" style="stroke:#1a83af;stroke-width:2"/><path fill="#1A83AF" d="m2781.95 206.92 9.67-1.864-5.568-.995.995-5.568-5.097 8.427z" style="stroke:#1a83af;stroke-width:2"/><path fill="none" d="M2965.81 242.99c-9.23 1.37-18.44 2.72-27.31 4.01-170.53 24.78-370.25 52.37-480.7 67.5" style="stroke:#1a83af;stroke-width:2"/><path fill="#1A83AF" d="m2452.61 315.21 9.463 2.73-4.51-3.415 3.414-4.51-8.367 5.195z" style="stroke:#1a83af;stroke-width:2"/><path fill="none" d="M5586.94 244.84c-5.89.83-11.74 1.57-17.44 2.16-629.12 65.39-2671.32 76.96-3111.78 78.72" style="stroke:#1a83af;stroke-width:2"/><path fill="#1A83AF" d="m2452.61 325.74 9.011 3.974-4.011-3.988 3.988-4.012-8.988 4.026z" style="stroke:#1a83af;stroke-width:2"/><path fill="none" d="M2320.3 147.31c-25.9 23.14-61.06 63.37-43.8 99.69 11.58 24.36 34.74 43.67 55.53 57.1" style="stroke:#1a83af;stroke-width:2"/><path fill="#1A83AF" d="m2336.43 306.88-5.472-8.189 1.245 5.519-5.518 1.245 9.745 1.425z" style="stroke:#1a83af;stroke-width:2"/><path fill="none" d="M2283 147.01c-54.26 16.78-133.18 41.18-188.92 58.41" style="stroke:#1a83af;stroke-width:2"/><path fill="#1A83AF" d="m2089.1 206.96 9.78 1.17-5.002-2.643 2.644-5.002-7.422 6.475z" style="stroke:#1a83af;stroke-width:2"/><path fill="none" d="M5792.99 244.89c-5.91.81-11.78 1.53-17.49 2.11-672.38 68.22-2860.18 77.6-3317.66 78.82" style="stroke:#1a83af;stroke-width:2"/><path fill="#1A83AF" d="m2452.54 325.84 9.011 3.974-4.011-3.988 3.988-4.012-8.988 4.026z" style="stroke:#1a83af;stroke-width:2"/><path fill="none" d="M6003.41 245.18c-6.05.7-12.05 1.31-17.91 1.82-717.32 62.53-3053.26 76.44-3527.53 78.65" style="stroke:#1a83af;stroke-width:2"/><path fill="#1A83AF" d="m2452.81 325.67 9.011 3.974-4.011-3.988 3.988-4.012-8.988 4.026z" style="stroke:#1a83af;stroke-width:2"/></svg>