<svg xmlns="http://www.w3.org/2000/svg" xmlns:xlink="http://www.w3.org/1999/xlink" width="731" height="1316" preserveAspectRatio="none" style="width:731px;height:1316px;background:#00000000"><a xlink:actuate="onRequest" xlink:href="#a" xlink:show="new" xlink:title="#aws_resource" xlink:type="simple" target="_top"><rect id="a" width="155" height="70.594" x="257" y="404" fill="#3D176E" rx="2.5" ry="2.5" style="stroke:#000d19;stroke-width:1.5"/><circle cx="272" cy="423.894" r="11" fill="#E98DF7" style="stroke:#000d19;stroke-width:1"/><path d="M274.969 429.535q-.578.297-1.219.438-.64.156-1.344.156-2.5 0-3.828-1.64-1.312-1.657-1.312-4.782t1.312-4.781q1.328-1.656 3.828-1.656.703 0 1.344.156.656.156 1.219.453v2.719q-.625-.579-1.219-.844-.594-.281-1.219-.281-1.344 0-2.031 1.078-.688 1.062-.688 3.156 0 2.094.688 3.172.688 1.062 2.031 1.062.625 0 1.219-.265.594-.281 1.219-.86v2.72Z"/><text x="291" y="429.78" fill="#D9B8FF" font-family="Helvetica" font-size="17" textLength="113">aws_resource</text><path d="M258 443.789h153" style="stroke:#000d19;stroke-width:1.5"/><text x="268" y="463" fill="#D9B8FF" font-family="sans-serif" font-size="11" font-weight="bold" textLength="21">arn</text><text x="289" y="463" fill="#D9B8FF" font-family="sans-serif" font-size="11" textLength="41">: string</text></a><a xlink:actuate="onRequest" xlink:href="#b" xlink:show="new" xlink:title="#resource" xlink:type="simple" target="_top"><rect id="b" width="195" height="275.836" x="237" y="7" fill="#3D176E" rx="2.5" ry="2.5" style="stroke:#000d19;stroke-width:1.5"/><circle cx="289.75" cy="26.895" r="11" fill="#E98DF7" style="stroke:#000d19;stroke-width:1"/><path d="M292.719 32.535q-.578.297-1.219.438-.64.156-1.344.156-2.5 0-3.828-1.64-1.312-1.657-1.312-4.782t1.312-4.781q1.328-1.656 3.828-1.656.703 0 1.344.156.656.156 1.219.453v2.719q-.625-.578-1.219-.844-.594-.281-1.219-.281-1.344 0-2.031 1.078-.688 1.062-.688 3.156 0 2.094.688 3.172.688 1.062 2.031 1.062.625 0 1.219-.265.594-.281 1.219-.86v2.72Z"/><text x="315.25" y="32.78" fill="#D9B8FF" font-family="Helvetica" font-size="17" textLength="71">resource</text><path d="M238 46.789h193" style="stroke:#000d19;stroke-width:1.5"/><text x="248" y="65.999" fill="#D9B8FF" font-family="sans-serif" font-size="11" font-weight="bold" textLength="12">id</text><text x="260" y="65.999" fill="#D9B8FF" font-family="sans-serif" font-size="11" textLength="41">: string</text><text x="248" y="88.804" fill="#D9B8FF" font-family="sans-serif" font-size="11" font-weight="bold" textLength="28">tags</text><text x="276" y="88.804" fill="#D9B8FF" font-family="sans-serif" font-size="11" textLength="145">: dictionary[string, string]</text><text x="248" y="111.609" fill="#D9B8FF" font-family="sans-serif" font-size="11" font-weight="bold" textLength="35">name</text><text x="283" y="111.609" fill="#D9B8FF" font-family="sans-serif" font-size="11" textLength="41">: string</text><text x="248" y="134.414" fill="#D9B8FF" font-family="sans-serif" font-size="11" font-weight="bold" textLength="35">ctime</text><text x="283" y="134.414" fill="#D9B8FF" font-family="sans-serif" font-size="11" textLength="58">: datetime</text><text x="248" y="157.218" fill="#D9B8FF" font-family="sans-serif" font-size="11" font-weight="bold" textLength="24">age</text><text x="272" y="157.218" fill="#D9B8FF" font-family="sans-serif" font-size="11" textLength="55">: duration</text><text x="248" y="180.023" fill="#D9B8FF" font-family="sans-serif" font-size="11" font-weight="bold" textLength="39">mtime</text><text x="287" y="180.023" fill="#D9B8FF" font-family="sans-serif" font-size="11" textLength="58">: datetime</text><text x="248" y="202.828" fill="#D9B8FF" font-family="sans-serif" font-size="11" font-weight="bold" textLength="75">last_update</text><text x="323" y="202.828" fill="#D9B8FF" font-family="sans-serif" font-size="11" textLength="55">: duration</text><text x="248" y="225.632" fill="#D9B8FF" font-family="sans-serif" font-size="11" font-weight="bold" textLength="36">atime</text><text x="284" y="225.632" fill="#D9B8FF" font-family="sans-serif" font-size="11" textLength="58">: datetime</text><text x="248" y="248.437" fill="#D9B8FF" font-family="sans-serif" font-size="11" font-weight="bold" textLength="74">last_access</text><text x="322" y="248.437" fill="#D9B8FF" font-family="sans-serif" font-size="11" textLength="55">: duration</text><text x="248" y="271.242" fill="#D9B8FF" font-family="sans-serif" font-size="11" font-weight="bold" textLength="27">kind</text><text x="275" y="271.242" fill="#D9B8FF" font-family="sans-serif" font-size="11" textLength="41">: string</text></a><a xlink:actuate="onRequest" xlink:href="#c" xlink:show="new" xlink:title="#aws_athena_engine_version" xlink:type="simple" target="_top"><rect id="c" width="279" height="93.398" x="7" y="1051.5" fill="#3D176E" rx="2.5" ry="2.5" style="stroke:#000d19;stroke-width:1.5"/><circle cx="22" cy="1071.395" r="11" fill="#E98DF7" style="stroke:#000d19;stroke-width:1"/><path d="M24.969 1077.035q-.578.297-1.219.438-.64.156-1.344.156-2.5 0-3.828-1.64-1.312-1.657-1.312-4.782t1.312-4.781q1.328-1.656 3.828-1.656.703 0 1.344.156.656.156 1.219.453v2.719q-.625-.578-1.219-.844-.594-.281-1.219-.281-1.343 0-2.031 1.078-.688 1.062-.688 3.156 0 2.094.688 3.172.688 1.062 2.031 1.062.625 0 1.219-.265.594-.281 1.219-.86v2.72Z"/><text x="41" y="1077.28" fill="#D9B8FF" font-family="Helvetica" font-size="17" textLength="237">aws_athena_engine_version</text><path d="M8 1091.289h277" style="stroke:#000d19;stroke-width:1.5"/><text x="18" y="1110.499" fill="#D9B8FF" font-family="sans-serif" font-size="11" font-weight="bold" textLength="158">selected_engine_version</text><text x="176" y="1110.499" fill="#D9B8FF" font-family="sans-serif" font-size="11" textLength="41">: string</text><text x="18" y="1133.304" fill="#D9B8FF" font-family="sans-serif" font-size="11" font-weight="bold" textLength="160">effective_engine_version</text><text x="178" y="1133.304" fill="#D9B8FF" font-family="sans-serif" font-size="11" textLength="41">: string</text></a><a xlink:actuate="onRequest" xlink:href="#d" xlink:show="new" xlink:title="#aws_athena_work_group" xlink:type="simple" target="_top"><rect id="d" width="410" height="139.008" x="129.5" y="596" fill="#3D176E" rx="2.5" ry="2.5" style="stroke:#000d19;stroke-width:1.5"/><circle cx="220.75" cy="615.894" r="11" fill="#E98DF7" style="stroke:#000d19;stroke-width:1"/><path d="M223.719 621.535q-.578.297-1.219.438-.64.156-1.344.156-2.5 0-3.828-1.64-1.312-1.657-1.312-4.782t1.312-4.781q1.328-1.657 3.828-1.657.703 0 1.344.157.656.156 1.219.453v2.719q-.625-.578-1.219-.844-.594-.281-1.219-.281-1.344 0-2.031 1.078-.688 1.062-.688 3.156 0 2.094.688 3.172.688 1.062 2.031 1.062.625 0 1.219-.265.594-.282 1.219-.86v2.72Z"/><text x="246.25" y="621.78" fill="#D9B8FF" font-family="Helvetica" font-size="17" textLength="209">aws_athena_work_group</text><path d="M130.5 635.789h408" style="stroke:#000d19;stroke-width:1.5"/><text x="140.5" y="655" fill="#D9B8FF" font-family="sans-serif" font-size="11" font-weight="bold" textLength="21">arn</text><text x="161.5" y="655" fill="#D9B8FF" font-family="sans-serif" font-size="11" textLength="41">: string</text><text x="140.5" y="677.804" fill="#D9B8FF" font-family="sans-serif" font-size="11" font-weight="bold" textLength="107">workgroup_state</text><text x="247.5" y="677.804" fill="#D9B8FF" font-family="sans-serif" font-size="11" textLength="41">: string</text><text x="140.5" y="700.609" fill="#D9B8FF" font-family="sans-serif" font-size="11" font-weight="bold" textLength="160">workgroup_configuration</text><text x="300.5" y="700.609" fill="#D9B8FF" font-family="sans-serif" font-size="11" textLength="228">: aws_athena_work_group_configuration</text><text x="140.5" y="723.414" fill="#D9B8FF" font-family="sans-serif" font-size="11" font-weight="bold" textLength="72">description</text><text x="212.5" y="723.414" fill="#D9B8FF" font-family="sans-serif" font-size="11" textLength="41">: string</text></a><a xlink:actuate="onRequest" xlink:href="#e" xlink:show="new" xlink:title="#aws_athena_work_group_configuration" xlink:type="simple" target="_top"><rect id="e" width="371" height="184.617" x="149" y="795" fill="#3D176E" rx="2.5" ry="2.5" style="stroke:#000d19;stroke-width:1.5"/><circle cx="164" cy="814.894" r="11" fill="#E98DF7" style="stroke:#000d19;stroke-width:1"/><path d="M166.969 820.535q-.578.297-1.219.438-.64.156-1.344.156-2.5 0-3.828-1.64-1.312-1.657-1.312-4.782t1.312-4.781q1.328-1.657 3.828-1.657.703 0 1.344.157.656.156 1.219.453v2.719q-.625-.578-1.219-.844-.594-.281-1.219-.281-1.344 0-2.031 1.078-.688 1.062-.688 3.156 0 2.094.688 3.172.688 1.062 2.031 1.062.625 0 1.219-.265.594-.282 1.219-.86v2.72Z"/><text x="183" y="820.78" fill="#D9B8FF" font-family="Helvetica" font-size="17" textLength="329">aws_athena_work_group_configuration</text><path d="M150 834.789h369" style="stroke:#000d19;stroke-width:1.5"/><text x="160" y="854" fill="#D9B8FF" font-family="sans-serif" font-size="11" font-weight="bold" textLength="129">result_configuration</text><text x="289" y="854" fill="#D9B8FF" font-family="sans-serif" font-size="11" textLength="195">: aws_athena_result_configuration</text><text x="160" y="876.804" fill="#D9B8FF" font-family="sans-serif" font-size="11" font-weight="bold" textLength="221">enforce_work_group_configuration</text><text x="381" y="876.804" fill="#D9B8FF" font-family="sans-serif" font-size="11" textLength="53">: boolean</text><text x="160" y="899.609" fill="#D9B8FF" font-family="sans-serif" font-size="11" font-weight="bold" textLength="244">publish_cloud_watch_metrics_enabled</text><text x="404" y="899.609" fill="#D9B8FF" font-family="sans-serif" font-size="11" textLength="53">: boolean</text><text x="160" y="922.414" fill="#D9B8FF" font-family="sans-serif" font-size="11" font-weight="bold" textLength="208">bytes_scanned_cutoff_per_query</text><text x="368" y="922.414" fill="#D9B8FF" font-family="sans-serif" font-size="11" textLength="36">: int64</text><text x="160" y="945.218" fill="#D9B8FF" font-family="sans-serif" font-size="11" font-weight="bold" textLength="156">requester_pays_enabled</text><text x="316" y="945.218" fill="#D9B8FF" font-family="sans-serif" font-size="11" textLength="53">: boolean</text><text x="160" y="968.023" fill="#D9B8FF" font-family="sans-serif" font-size="11" font-weight="bold" textLength="97">engine_version</text><text x="257" y="968.023" fill="#D9B8FF" font-family="sans-serif" font-size="11" textLength="168">: aws_athena_engine_version</text></a><a xlink:actuate="onRequest" xlink:href="#f" xlink:show="new" xlink:title="#aws_athena_result_configuration" xlink:type="simple" target="_top"><rect id="f" width="403" height="116.203" x="321" y="1040" fill="#3D176E" rx="2.5" ry="2.5" style="stroke:#000d19;stroke-width:1.5"/><circle cx="374.25" cy="1059.895" r="11" fill="#E98DF7" style="stroke:#000d19;stroke-width:1"/><path d="M377.219 1065.535q-.578.297-1.219.438-.64.156-1.344.156-2.5 0-3.828-1.64-1.312-1.657-1.312-4.782t1.312-4.781q1.328-1.656 3.828-1.656.703 0 1.344.156.656.156 1.219.453v2.719q-.625-.578-1.219-.844-.594-.281-1.219-.281-1.344 0-2.031 1.078-.688 1.062-.688 3.156 0 2.094.688 3.172.688 1.062 2.031 1.062.625 0 1.219-.265.594-.281 1.219-.86v2.72Z"/><text x="399.75" y="1065.78" fill="#D9B8FF" font-family="Helvetica" font-size="17" textLength="278">aws_athena_result_configuration</text><path d="M322 1079.789h401" style="stroke:#000d19;stroke-width:1.5"/><text x="332" y="1098.999" fill="#D9B8FF" font-family="sans-serif" font-size="11" font-weight="bold" textLength="100">output_location</text><text x="432" y="1098.999" fill="#D9B8FF" font-family="sans-serif" font-size="11" textLength="41">: string</text><text x="332" y="1121.804" fill="#D9B8FF" font-family="sans-serif" font-size="11" font-weight="bold" textLength="160">encryption_configuration</text><text x="492" y="1121.804" fill="#D9B8FF" font-family="sans-serif" font-size="11" textLength="221">: aws_athena_encryption_configuration</text><text x="332" y="1144.609" fill="#D9B8FF" font-family="sans-serif" font-size="11" font-weight="bold" textLength="154">expected_bucket_owner</text><text x="486" y="1144.609" fill="#D9B8FF" font-family="sans-serif" font-size="11" textLength="41">: string</text></a><a xlink:actuate="onRequest" xlink:href="#g" xlink:show="new" xlink:title="#aws_athena_encryption_configuration" xlink:type="simple" target="_top"><rect id="g" width="361" height="93.398" x="342" y="1216" fill="#3D176E" rx="2.5" ry="2.5" style="stroke:#000d19;stroke-width:1.5"/><circle cx="357" cy="1235.895" r="11" fill="#E98DF7" style="stroke:#000d19;stroke-width:1"/><path d="M359.969 1241.535q-.578.297-1.219.438-.64.156-1.344.156-2.5 0-3.828-1.64-1.312-1.657-1.312-4.782t1.312-4.781q1.328-1.656 3.828-1.656.703 0 1.344.156.656.156 1.219.453v2.719q-.625-.578-1.219-.844-.594-.281-1.219-.281-1.344 0-2.031 1.078-.688 1.062-.688 3.156 0 2.094.688 3.172.688 1.062 2.031 1.062.625 0 1.219-.265.594-.281 1.219-.86v2.72Z"/><text x="376" y="1241.78" fill="#D9B8FF" font-family="Helvetica" font-size="17" textLength="319">aws_athena_encryption_configuration</text><path d="M343 1255.789h359" style="stroke:#000d19;stroke-width:1.5"/><text x="353" y="1274.999" fill="#D9B8FF" font-family="sans-serif" font-size="11" font-weight="bold" textLength="115">encryption_option</text><text x="468" y="1274.999" fill="#D9B8FF" font-family="sans-serif" font-size="11" textLength="41">: string</text><text x="353" y="1297.804" fill="#D9B8FF" font-family="sans-serif" font-size="11" font-weight="bold" textLength="53">kms_key</text><text x="406" y="1297.804" fill="#D9B8FF" font-family="sans-serif" font-size="11" textLength="41">: string</text></a><path fill="none" d="M334.5 303.43V403.9m-7-100.64 7-20 7 20h-14zm7 191.79v100.57m-7-100.61 7-20 7 20h-14zm7 240.19v54.55" style="stroke:#ffaf37;stroke-width:2"/><path fill="#FFAF37" d="m334.5 794.91 4-9-4 4-4-4 4 9z" style="stroke:#ffaf37;stroke-width:2"/><path fill="none" d="m417.23 980.25 50.33 55.82" style="stroke:#ffaf37;stroke-width:2"/><path fill="#FFAF37" d="m471.1 1040-3.067-9.359-.286 5.65-5.65-.286L471.1 1040z" style="stroke:#ffaf37;stroke-width:2"/><path fill="none" d="M251.77 980.25c-20.87 23.15-42.49 47.12-60.66 67.28" style="stroke:#ffaf37;stroke-width:2"/><path fill="#FFAF37" d="m187.75 1051.25 9.002-3.995-5.65.286-.285-5.65-3.067 9.359z" style="stroke:#ffaf37;stroke-width:2"/><path fill="none" d="M522.5 1156.29v54.37" style="stroke:#ffaf37;stroke-width:2"/><path fill="#FFAF37" d="m522.5 1215.94 4-9-4 4-4-4 4 9z" style="stroke:#ffaf37;stroke-width:2"/></svg>