<svg xmlns="http://www.w3.org/2000/svg" xmlns:xlink="http://www.w3.org/1999/xlink" width="3405" height="2667" preserveAspectRatio="none" style="width:3405px;height:2667px;background:#00000000"><a xlink:actuate="onRequest" xlink:href="#a" xlink:show="new" xlink:title="#resource" xlink:type="simple" target="_top"><rect id="a" width="195" height="275.836" x="1495" y="7" fill="#3D176E" rx="2.5" ry="2.5" style="stroke:#000d19;stroke-width:1.5"/><circle cx="1547.75" cy="26.895" r="11" fill="#E98DF7" style="stroke:#000d19;stroke-width:1"/><path d="M1550.719 32.535q-.578.297-1.219.438-.64.156-1.344.156-2.5 0-3.828-1.64-1.312-1.657-1.312-4.782t1.312-4.781q1.328-1.656 3.828-1.656.703 0 1.344.156.656.156 1.219.453v2.719q-.625-.578-1.219-.844-.594-.281-1.219-.281-1.343 0-2.031 1.078-.688 1.062-.688 3.156 0 2.094.688 3.172.688 1.062 2.031 1.062.625 0 1.219-.265.594-.281 1.219-.86v2.72Z"/><text x="1573.25" y="32.78" fill="#D9B8FF" font-family="Helvetica" font-size="17" textLength="71">resource</text><path d="M1496 46.789h193" style="stroke:#000d19;stroke-width:1.5"/><text x="1506" y="65.999" fill="#D9B8FF" font-family="sans-serif" font-size="11" font-weight="bold" textLength="12">id</text><text x="1518" y="65.999" fill="#D9B8FF" font-family="sans-serif" font-size="11" textLength="41">: string</text><text x="1506" y="88.804" fill="#D9B8FF" font-family="sans-serif" font-size="11" font-weight="bold" textLength="28">tags</text><text x="1534" y="88.804" fill="#D9B8FF" font-family="sans-serif" font-size="11" textLength="145">: dictionary[string, string]</text><text x="1506" y="111.609" fill="#D9B8FF" font-family="sans-serif" font-size="11" font-weight="bold" textLength="35">name</text><text x="1541" y="111.609" fill="#D9B8FF" font-family="sans-serif" font-size="11" textLength="41">: string</text><text x="1506" y="134.414" fill="#D9B8FF" font-family="sans-serif" font-size="11" font-weight="bold" textLength="35">ctime</text><text x="1541" y="134.414" fill="#D9B8FF" font-family="sans-serif" font-size="11" textLength="58">: datetime</text><text x="1506" y="157.218" fill="#D9B8FF" font-family="sans-serif" font-size="11" font-weight="bold" textLength="24">age</text><text x="1530" y="157.218" fill="#D9B8FF" font-family="sans-serif" font-size="11" textLength="55">: duration</text><text x="1506" y="180.023" fill="#D9B8FF" font-family="sans-serif" font-size="11" font-weight="bold" textLength="39">mtime</text><text x="1545" y="180.023" fill="#D9B8FF" font-family="sans-serif" font-size="11" textLength="58">: datetime</text><text x="1506" y="202.828" fill="#D9B8FF" font-family="sans-serif" font-size="11" font-weight="bold" textLength="75">last_update</text><text x="1581" y="202.828" fill="#D9B8FF" font-family="sans-serif" font-size="11" textLength="55">: duration</text><text x="1506" y="225.632" fill="#D9B8FF" font-family="sans-serif" font-size="11" font-weight="bold" textLength="36">atime</text><text x="1542" y="225.632" fill="#D9B8FF" font-family="sans-serif" font-size="11" textLength="58">: datetime</text><text x="1506" y="248.437" fill="#D9B8FF" font-family="sans-serif" font-size="11" font-weight="bold" textLength="74">last_access</text><text x="1580" y="248.437" fill="#D9B8FF" font-family="sans-serif" font-size="11" textLength="55">: duration</text><text x="1506" y="271.242" fill="#D9B8FF" font-family="sans-serif" font-size="11" font-weight="bold" textLength="27">kind</text><text x="1533" y="271.242" fill="#D9B8FF" font-family="sans-serif" font-size="11" textLength="41">: string</text></a><a xlink:actuate="onRequest" xlink:href="#b" xlink:show="new" xlink:title="#aws_resource" xlink:type="simple" target="_top"><rect id="b" width="155" height="70.594" x="1404" y="495" fill="#3D176E" rx="2.5" ry="2.5" style="stroke:#000d19;stroke-width:1.5"/><circle cx="1419" cy="514.894" r="11" fill="#E98DF7" style="stroke:#000d19;stroke-width:1"/><path d="M1421.969 520.535q-.578.297-1.219.438-.64.156-1.344.156-2.5 0-3.828-1.64-1.312-1.657-1.312-4.782t1.312-4.781q1.328-1.656 3.828-1.656.703 0 1.344.156.656.156 1.219.453v2.719q-.625-.579-1.219-.844-.594-.281-1.219-.281-1.343 0-2.031 1.078-.688 1.062-.688 3.156 0 2.094.688 3.172.688 1.062 2.031 1.062.625 0 1.219-.265.594-.282 1.219-.86v2.72Z"/><text x="1438" y="520.78" fill="#D9B8FF" font-family="Helvetica" font-size="17" textLength="113">aws_resource</text><path d="M1405 534.789h153" style="stroke:#000d19;stroke-width:1.5"/><text x="1415" y="554" fill="#D9B8FF" font-family="sans-serif" font-size="11" font-weight="bold" textLength="21">arn</text><text x="1436" y="554" fill="#D9B8FF" font-family="sans-serif" font-size="11" textLength="41">: string</text></a><a xlink:actuate="onRequest" xlink:href="#c" xlink:show="new" xlink:title="#aws_rds_pending_cloudwatch_logs_exports" xlink:type="simple" target="_top"><rect id="c" width="402" height="93.398" x="2949.5" y="2567" fill="#3D176E" rx="2.5" ry="2.5" style="stroke:#000d19;stroke-width:1.5"/><circle cx="2964.5" cy="2586.894" r="11" fill="#E98DF7" style="stroke:#000d19;stroke-width:1"/><path d="M2967.469 2592.535q-.578.297-1.219.438-.64.156-1.344.156-2.5 0-3.828-1.64-1.312-1.657-1.312-4.782t1.312-4.781q1.328-1.657 3.828-1.657.703 0 1.344.157.656.156 1.219.453v2.719q-.625-.579-1.219-.844-.594-.281-1.219-.281-1.343 0-2.031 1.078-.688 1.062-.688 3.156 0 2.094.688 3.172.688 1.062 2.031 1.062.625 0 1.219-.265.594-.282 1.219-.86v2.72Z"/><text x="2983.5" y="2592.78" fill="#D9B8FF" font-family="Helvetica" font-size="17" textLength="360">aws_rds_pending_cloudwatch_logs_exports</text><path d="M2950.5 2606.789h400" style="stroke:#000d19;stroke-width:1.5"/><text x="2960.5" y="2625.999" fill="#D9B8FF" font-family="sans-serif" font-size="11" font-weight="bold" textLength="130">log_types_to_enable</text><text x="3090.5" y="2625.999" fill="#D9B8FF" font-family="sans-serif" font-size="11" textLength="49">: string[]</text><text x="2960.5" y="2648.804" fill="#D9B8FF" font-family="sans-serif" font-size="11" font-weight="bold" textLength="133">log_types_to_disable</text><text x="3093.5" y="2648.804" fill="#D9B8FF" font-family="sans-serif" font-size="11" textLength="49">: string[]</text></a><a xlink:actuate="onRequest" xlink:href="#d" xlink:show="new" xlink:title="#aws_rds_domain_membership" xlink:type="simple" target="_top"><rect id="d" width="295" height="139.008" x="7" y="2322.5" fill="#3D176E" rx="2.5" ry="2.5" style="stroke:#000d19;stroke-width:1.5"/><circle cx="22" cy="2342.394" r="11" fill="#E98DF7" style="stroke:#000d19;stroke-width:1"/><path d="M24.969 2348.035q-.578.297-1.219.438-.64.156-1.344.156-2.5 0-3.828-1.64-1.312-1.657-1.312-4.782t1.312-4.781q1.328-1.657 3.828-1.657.703 0 1.344.157.656.156 1.219.453v2.719q-.625-.579-1.219-.844-.594-.281-1.219-.281-1.343 0-2.031 1.078-.688 1.062-.688 3.156 0 2.094.688 3.172.688 1.062 2.031 1.062.625 0 1.219-.265.594-.282 1.219-.86v2.72Z"/><text x="41" y="2348.28" fill="#D9B8FF" font-family="Helvetica" font-size="17" textLength="253">aws_rds_domain_membership</text><path d="M8 2362.289h293" style="stroke:#000d19;stroke-width:1.5"/><text x="18" y="2381.499" fill="#D9B8FF" font-family="sans-serif" font-size="11" font-weight="bold" textLength="47">domain</text><text x="65" y="2381.499" fill="#D9B8FF" font-family="sans-serif" font-size="11" textLength="41">: string</text><text x="18" y="2404.304" fill="#D9B8FF" font-family="sans-serif" font-size="11" font-weight="bold" textLength="40">status</text><text x="58" y="2404.304" fill="#D9B8FF" font-family="sans-serif" font-size="11" textLength="41">: string</text><text x="18" y="2427.109" fill="#D9B8FF" font-family="sans-serif" font-size="11" font-weight="bold" textLength="29">fqdn</text><text x="47" y="2427.109" fill="#D9B8FF" font-family="sans-serif" font-size="11" textLength="41">: string</text><text x="18" y="2449.914" fill="#D9B8FF" font-family="sans-serif" font-size="11" font-weight="bold" textLength="95">iam_role_name</text><text x="113" y="2449.914" fill="#D9B8FF" font-family="sans-serif" font-size="11" textLength="41">: string</text></a><a xlink:actuate="onRequest" xlink:href="#e" xlink:show="new" xlink:title="#aws_rds_cluster" xlink:type="simple" target="_top"><rect id="e" width="574" height="1438.875" x="1305.5" y="778" fill="#3D176E" rx="2.5" ry="2.5" style="stroke:#000d19;stroke-width:1.5"/><circle cx="1517.25" cy="797.894" r="11" fill="#E98DF7" style="stroke:#000d19;stroke-width:1"/><path d="M1520.219 803.535q-.578.297-1.219.438-.64.156-1.344.156-2.5 0-3.828-1.64-1.312-1.657-1.312-4.782t1.312-4.781q1.328-1.657 3.828-1.657.703 0 1.344.157.656.156 1.219.453v2.719q-.625-.578-1.219-.844-.594-.281-1.219-.281-1.343 0-2.031 1.078-.688 1.062-.688 3.156 0 2.094.688 3.172.688 1.062 2.031 1.062.625 0 1.219-.265.594-.282 1.219-.86v2.72Z"/><text x="1542.75" y="803.78" fill="#D9B8FF" font-family="Helvetica" font-size="17" textLength="132">aws_rds_cluster</text><path d="M1306.5 817.789h572" style="stroke:#000d19;stroke-width:1.5"/><text x="1316.5" y="837" fill="#D9B8FF" font-family="sans-serif" font-size="11" font-weight="bold" textLength="141">rds_allocated_storage</text><text x="1457.5" y="837" fill="#D9B8FF" font-family="sans-serif" font-size="11" textLength="36">: int64</text><text x="1316.5" y="859.804" fill="#D9B8FF" font-family="sans-serif" font-size="11" font-weight="bold" textLength="141">rds_availability_zones</text><text x="1457.5" y="859.804" fill="#D9B8FF" font-family="sans-serif" font-size="11" textLength="49">: string[]</text><text x="1316.5" y="882.609" fill="#D9B8FF" font-family="sans-serif" font-size="11" font-weight="bold" textLength="184">rds_backup_retention_period</text><text x="1500.5" y="882.609" fill="#D9B8FF" font-family="sans-serif" font-size="11" textLength="36">: int64</text><text x="1316.5" y="905.414" fill="#D9B8FF" font-family="sans-serif" font-size="11" font-weight="bold" textLength="154">rds_character_set_name</text><text x="1470.5" y="905.414" fill="#D9B8FF" font-family="sans-serif" font-size="11" textLength="41">: string</text><text x="1316.5" y="928.218" fill="#D9B8FF" font-family="sans-serif" font-size="11" font-weight="bold" textLength="127">rds_database_name</text><text x="1443.5" y="928.218" fill="#D9B8FF" font-family="sans-serif" font-size="11" textLength="41">: string</text><text x="1316.5" y="951.023" fill="#D9B8FF" font-family="sans-serif" font-size="11" font-weight="bold" textLength="207">rds_db_cluster_parameter_group</text><text x="1523.5" y="951.023" fill="#D9B8FF" font-family="sans-serif" font-size="11" textLength="41">: string</text><text x="1316.5" y="973.828" fill="#D9B8FF" font-family="sans-serif" font-size="11" font-weight="bold" textLength="176">rds_db_subnet_group_name</text><text x="1492.5" y="973.828" fill="#D9B8FF" font-family="sans-serif" font-size="11" textLength="41">: string</text><text x="1316.5" y="996.632" fill="#D9B8FF" font-family="sans-serif" font-size="11" font-weight="bold" textLength="173">rds_automatic_restart_time</text><text x="1489.5" y="996.632" fill="#D9B8FF" font-family="sans-serif" font-size="11" textLength="58">: datetime</text><text x="1316.5" y="1019.437" fill="#D9B8FF" font-family="sans-serif" font-size="11" font-weight="bold" textLength="137">rds_percent_progress</text><text x="1453.5" y="1019.437" fill="#D9B8FF" font-family="sans-serif" font-size="11" textLength="41">: string</text><text x="1316.5" y="1042.242" fill="#D9B8FF" font-family="sans-serif" font-size="11" font-weight="bold" textLength="181">rds_earliest_restorable_time</text><text x="1497.5" y="1042.242" fill="#D9B8FF" font-family="sans-serif" font-size="11" textLength="58">: datetime</text><text x="1316.5" y="1065.046" fill="#D9B8FF" font-family="sans-serif" font-size="11" font-weight="bold" textLength="83">rds_endpoint</text><text x="1399.5" y="1065.046" fill="#D9B8FF" font-family="sans-serif" font-size="11" textLength="41">: string</text><text x="1316.5" y="1087.851" fill="#D9B8FF" font-family="sans-serif" font-size="11" font-weight="bold" textLength="131">rds_reader_endpoint</text><text x="1447.5" y="1087.851" fill="#D9B8FF" font-family="sans-serif" font-size="11" textLength="41">: string</text><text x="1316.5" y="1110.656" fill="#D9B8FF" font-family="sans-serif" font-size="11" font-weight="bold" textLength="142">rds_custom_endpoints</text><text x="1458.5" y="1110.656" fill="#D9B8FF" font-family="sans-serif" font-size="11" textLength="49">: string[]</text><text x="1316.5" y="1133.46" fill="#D9B8FF" font-family="sans-serif" font-size="11" font-weight="bold" textLength="79">rds_multi_az</text><text x="1395.5" y="1133.46" fill="#D9B8FF" font-family="sans-serif" font-size="11" textLength="53">: boolean</text><text x="1316.5" y="1156.265" fill="#D9B8FF" font-family="sans-serif" font-size="11" font-weight="bold" textLength="169">rds_latest_restorable_time</text><text x="1485.5" y="1156.265" fill="#D9B8FF" font-family="sans-serif" font-size="11" textLength="58">: datetime</text><text x="1316.5" y="1179.07" fill="#D9B8FF" font-family="sans-serif" font-size="11" font-weight="bold" textLength="52">rds_port</text><text x="1368.5" y="1179.07" fill="#D9B8FF" font-family="sans-serif" font-size="11" textLength="36">: int64</text><text x="1316.5" y="1201.874" fill="#D9B8FF" font-family="sans-serif" font-size="11" font-weight="bold" textLength="139">rds_master_username</text><text x="1455.5" y="1201.874" fill="#D9B8FF" font-family="sans-serif" font-size="11" textLength="41">: string</text><text x="1316.5" y="1224.679" fill="#D9B8FF" font-family="sans-serif" font-size="11" font-weight="bold" textLength="273">rds_db_cluster_option_group_memberships</text><text x="1589.5" y="1224.679" fill="#D9B8FF" font-family="sans-serif" font-size="11" textLength="251">: aws_rds_db_cluster_option_group_status[]</text><text x="1316.5" y="1247.484" fill="#D9B8FF" font-family="sans-serif" font-size="11" font-weight="bold" textLength="194">rds_preferred_backup_window</text><text x="1510.5" y="1247.484" fill="#D9B8FF" font-family="sans-serif" font-size="11" textLength="41">: string</text><text x="1316.5" y="1270.289" fill="#D9B8FF" font-family="sans-serif" font-size="11" font-weight="bold" textLength="231">rds_preferred_maintenance_window</text><text x="1547.5" y="1270.289" fill="#D9B8FF" font-family="sans-serif" font-size="11" textLength="41">: string</text><text x="1316.5" y="1293.093" fill="#D9B8FF" font-family="sans-serif" font-size="11" font-weight="bold" textLength="209">rds_replication_source_identifier</text><text x="1525.5" y="1293.093" fill="#D9B8FF" font-family="sans-serif" font-size="11" textLength="41">: string</text><text x="1316.5" y="1315.898" fill="#D9B8FF" font-family="sans-serif" font-size="11" font-weight="bold" textLength="177">rds_read_replica_identifiers</text><text x="1493.5" y="1315.898" fill="#D9B8FF" font-family="sans-serif" font-size="11" textLength="49">: string[]</text><text x="1316.5" y="1338.703" fill="#D9B8FF" font-family="sans-serif" font-size="11" font-weight="bold" textLength="156">rds_db_cluster_members</text><text x="1472.5" y="1338.703" fill="#D9B8FF" font-family="sans-serif" font-size="11" textLength="183">: aws_rds_db_cluster_member[]</text><text x="1316.5" y="1361.507" fill="#D9B8FF" font-family="sans-serif" font-size="11" font-weight="bold" textLength="155">rds_vpc_security_groups</text><text x="1471.5" y="1361.507" fill="#D9B8FF" font-family="sans-serif" font-size="11" textLength="257">: aws_rds_vpc_security_group_membership[]</text><text x="1316.5" y="1384.312" fill="#D9B8FF" font-family="sans-serif" font-size="11" font-weight="bold" textLength="125">rds_hosted_zone_id</text><text x="1441.5" y="1384.312" fill="#D9B8FF" font-family="sans-serif" font-size="11" textLength="41">: string</text><text x="1316.5" y="1407.117" fill="#D9B8FF" font-family="sans-serif" font-size="11" font-weight="bold" textLength="97">rds_kms_key_id</text><text x="1413.5" y="1407.117" fill="#D9B8FF" font-family="sans-serif" font-size="11" textLength="41">: string</text><text x="1316.5" y="1429.921" fill="#D9B8FF" font-family="sans-serif" font-size="11" font-weight="bold" textLength="172">rds_db_cluster_resource_id</text><text x="1488.5" y="1429.921" fill="#D9B8FF" font-family="sans-serif" font-size="11" textLength="41">: string</text><text x="1316.5" y="1452.726" fill="#D9B8FF" font-family="sans-serif" font-size="11" font-weight="bold" textLength="134">rds_associated_roles</text><text x="1450.5" y="1452.726" fill="#D9B8FF" font-family="sans-serif" font-size="11" textLength="112">: aws_rds_db_role[]</text><text x="1316.5" y="1475.531" fill="#D9B8FF" font-family="sans-serif" font-size="11" font-weight="bold" textLength="273">rds_iam_database_authentication_enabled</text><text x="1589.5" y="1475.531" fill="#D9B8FF" font-family="sans-serif" font-size="11" textLength="53">: boolean</text><text x="1316.5" y="1498.335" fill="#D9B8FF" font-family="sans-serif" font-size="11" font-weight="bold" textLength="122">rds_clone_group_id</text><text x="1438.5" y="1498.335" fill="#D9B8FF" font-family="sans-serif" font-size="11" textLength="41">: string</text><text x="1316.5" y="1521.14" fill="#D9B8FF" font-family="sans-serif" font-size="11" font-weight="bold" textLength="177">rds_earliest_backtrack_time</text><text x="1493.5" y="1521.14" fill="#D9B8FF" font-family="sans-serif" font-size="11" textLength="58">: datetime</text><text x="1316.5" y="1543.945" fill="#D9B8FF" font-family="sans-serif" font-size="11" font-weight="bold" textLength="144">rds_backtrack_window</text><text x="1460.5" y="1543.945" fill="#D9B8FF" font-family="sans-serif" font-size="11" textLength="36">: int64</text><text x="1316.5" y="1566.749" fill="#D9B8FF" font-family="sans-serif" font-size="11" font-weight="bold" textLength="266">rds_backtrack_consumed_change_records</text><text x="1582.5" y="1566.749" fill="#D9B8FF" font-family="sans-serif" font-size="11" textLength="36">: int64</text><text x="1316.5" y="1589.554" fill="#D9B8FF" font-family="sans-serif" font-size="11" font-weight="bold" textLength="245">rds_enabled_cloudwatch_logs_exports</text><text x="1561.5" y="1589.554" fill="#D9B8FF" font-family="sans-serif" font-size="11" textLength="49">: string[]</text><text x="1316.5" y="1612.359" fill="#D9B8FF" font-family="sans-serif" font-size="11" font-weight="bold" textLength="80">rds_capacity</text><text x="1396.5" y="1612.359" fill="#D9B8FF" font-family="sans-serif" font-size="11" textLength="36">: int64</text><text x="1316.5" y="1635.164" fill="#D9B8FF" font-family="sans-serif" font-size="11" font-weight="bold" textLength="111">rds_engine_mode</text><text x="1427.5" y="1635.164" fill="#D9B8FF" font-family="sans-serif" font-size="11" textLength="41">: string</text><text x="1316.5" y="1657.968" fill="#D9B8FF" font-family="sans-serif" font-size="11" font-weight="bold" textLength="195">rds_scaling_configuration_info</text><text x="1511.5" y="1657.968" fill="#D9B8FF" font-family="sans-serif" font-size="11" textLength="209">: aws_rds_scaling_configuration_info</text><text x="1316.5" y="1680.773" fill="#D9B8FF" font-family="sans-serif" font-size="11" font-weight="bold" textLength="151">rds_deletion_protection</text><text x="1467.5" y="1680.773" fill="#D9B8FF" font-family="sans-serif" font-size="11" textLength="53">: boolean</text><text x="1316.5" y="1703.578" fill="#D9B8FF" font-family="sans-serif" font-size="11" font-weight="bold" textLength="173">rds_http_endpoint_enabled</text><text x="1489.5" y="1703.578" fill="#D9B8FF" font-family="sans-serif" font-size="11" textLength="53">: boolean</text><text x="1316.5" y="1726.382" fill="#D9B8FF" font-family="sans-serif" font-size="11" font-weight="bold" textLength="164">rds_activity_stream_mode</text><text x="1480.5" y="1726.382" fill="#D9B8FF" font-family="sans-serif" font-size="11" textLength="41">: string</text><text x="1316.5" y="1749.187" fill="#D9B8FF" font-family="sans-serif" font-size="11" font-weight="bold" textLength="169">rds_activity_stream_status</text><text x="1485.5" y="1749.187" fill="#D9B8FF" font-family="sans-serif" font-size="11" textLength="41">: string</text><text x="1316.5" y="1771.992" fill="#D9B8FF" font-family="sans-serif" font-size="11" font-weight="bold" textLength="200">rds_activity_stream_kms_key_id</text><text x="1516.5" y="1771.992" fill="#D9B8FF" font-family="sans-serif" font-size="11" textLength="41">: string</text><text x="1316.5" y="1794.796" fill="#D9B8FF" font-family="sans-serif" font-size="11" font-weight="bold" textLength="265">rds_activity_stream_kinesis_stream_name</text><text x="1581.5" y="1794.796" fill="#D9B8FF" font-family="sans-serif" font-size="11" textLength="41">: string</text><text x="1316.5" y="1817.601" fill="#D9B8FF" font-family="sans-serif" font-size="11" font-weight="bold" textLength="174">rds_copy_tags_to_snapshot</text><text x="1490.5" y="1817.601" fill="#D9B8FF" font-family="sans-serif" font-size="11" textLength="53">: boolean</text><text x="1316.5" y="1840.406" fill="#D9B8FF" font-family="sans-serif" font-size="11" font-weight="bold" textLength="158">rds_cross_account_clone</text><text x="1474.5" y="1840.406" fill="#D9B8FF" font-family="sans-serif" font-size="11" textLength="53">: boolean</text><text x="1316.5" y="1863.21" fill="#D9B8FF" font-family="sans-serif" font-size="11" font-weight="bold" textLength="164">rds_domain_memberships</text><text x="1480.5" y="1863.21" fill="#D9B8FF" font-family="sans-serif" font-size="11" textLength="190">: aws_rds_domain_membership[]</text><text x="1316.5" y="1886.015" fill="#D9B8FF" font-family="sans-serif" font-size="11" font-weight="bold" textLength="227">rds_global_write_forwarding_status</text><text x="1543.5" y="1886.015" fill="#D9B8FF" font-family="sans-serif" font-size="11" textLength="41">: string</text><text x="1316.5" y="1908.82" fill="#D9B8FF" font-family="sans-serif" font-size="11" font-weight="bold" textLength="252">rds_global_write_forwarding_requested</text><text x="1568.5" y="1908.82" fill="#D9B8FF" font-family="sans-serif" font-size="11" textLength="53">: boolean</text><text x="1316.5" y="1931.624" fill="#D9B8FF" font-family="sans-serif" font-size="11" font-weight="bold" textLength="238">rds_cluster_pending_modified_values</text><text x="1554.5" y="1931.624" fill="#D9B8FF" font-family="sans-serif" font-size="11" textLength="250">: aws_rds_cluster_pending_modified_values</text><text x="1316.5" y="1954.429" fill="#D9B8FF" font-family="sans-serif" font-size="11" font-weight="bold" textLength="192">rds_db_cluster_instance_class</text><text x="1508.5" y="1954.429" fill="#D9B8FF" font-family="sans-serif" font-size="11" textLength="41">: string</text><text x="1316.5" y="1977.234" fill="#D9B8FF" font-family="sans-serif" font-size="11" font-weight="bold" textLength="109">rds_storage_type</text><text x="1425.5" y="1977.234" fill="#D9B8FF" font-family="sans-serif" font-size="11" textLength="41">: string</text><text x="1316.5" y="2000.039" fill="#D9B8FF" font-family="sans-serif" font-size="11" font-weight="bold" textLength="209">rds_auto_minor_version_upgrade</text><text x="1525.5" y="2000.039" fill="#D9B8FF" font-family="sans-serif" font-size="11" textLength="53">: boolean</text><text x="1316.5" y="2022.843" fill="#D9B8FF" font-family="sans-serif" font-size="11" font-weight="bold" textLength="150">rds_monitoring_interval</text><text x="1466.5" y="2022.843" fill="#D9B8FF" font-family="sans-serif" font-size="11" textLength="36">: int64</text><text x="1316.5" y="2045.648" fill="#D9B8FF" font-family="sans-serif" font-size="11" font-weight="bold" textLength="153">rds_monitoring_role_arn</text><text x="1469.5" y="2045.648" fill="#D9B8FF" font-family="sans-serif" font-size="11" textLength="41">: string</text><text x="1316.5" y="2068.453" fill="#D9B8FF" font-family="sans-serif" font-size="11" font-weight="bold" textLength="222">rds_performance_insights_enabled</text><text x="1538.5" y="2068.453" fill="#D9B8FF" font-family="sans-serif" font-size="11" textLength="53">: boolean</text><text x="1316.5" y="2091.257" fill="#D9B8FF" font-family="sans-serif" font-size="11" font-weight="bold" textLength="241">rds_performance_insights_kms_key_id</text><text x="1557.5" y="2091.257" fill="#D9B8FF" font-family="sans-serif" font-size="11" textLength="41">: string</text><text x="1316.5" y="2114.062" fill="#D9B8FF" font-family="sans-serif" font-size="11" font-weight="bold" textLength="276">rds_performance_insights_retention_period</text><text x="1592.5" y="2114.062" fill="#D9B8FF" font-family="sans-serif" font-size="11" textLength="36">: int64</text><text x="1316.5" y="2136.867" fill="#D9B8FF" font-family="sans-serif" font-size="11" font-weight="bold" textLength="257">rds_serverless_v2_scaling_configuration</text><text x="1573.5" y="2136.867" fill="#D9B8FF" font-family="sans-serif" font-size="11" textLength="295">: aws_rds_serverless_v2_scaling_configuration_info</text><text x="1316.5" y="2159.671" fill="#D9B8FF" font-family="sans-serif" font-size="11" font-weight="bold" textLength="112">rds_network_type</text><text x="1428.5" y="2159.671" fill="#D9B8FF" font-family="sans-serif" font-size="11" textLength="41">: string</text><text x="1316.5" y="2182.476" fill="#D9B8FF" font-family="sans-serif" font-size="11" font-weight="bold" textLength="111">rds_db_system_id</text><text x="1427.5" y="2182.476" fill="#D9B8FF" font-family="sans-serif" font-size="11" textLength="41">: string</text><text x="1316.5" y="2205.281" fill="#D9B8FF" font-family="sans-serif" font-size="11" font-weight="bold" textLength="150">rds_master_user_secret</text><text x="1466.5" y="2205.281" fill="#D9B8FF" font-family="sans-serif" font-size="11" textLength="177">: aws_rds_master_user_secret</text></a><a xlink:actuate="onRequest" xlink:href="#f" xlink:show="new" xlink:title="#aws_rds_db_cluster_option_group_status" xlink:type="simple" target="_top"><rect id="f" width="382" height="93.398" x="337.5" y="2345.5" fill="#3D176E" rx="2.5" ry="2.5" style="stroke:#000d19;stroke-width:1.5"/><circle cx="352.5" cy="2365.394" r="11" fill="#E98DF7" style="stroke:#000d19;stroke-width:1"/><path d="M355.469 2371.035q-.578.297-1.219.438-.64.156-1.344.156-2.5 0-3.828-1.64-1.312-1.657-1.312-4.782t1.312-4.781q1.328-1.657 3.828-1.657.703 0 1.344.157.656.156 1.219.453v2.719q-.625-.579-1.219-.844-.594-.281-1.219-.281-1.344 0-2.031 1.078-.688 1.062-.688 3.156 0 2.094.688 3.172.688 1.062 2.031 1.062.625 0 1.219-.265.594-.282 1.219-.86v2.72Z"/><text x="371.5" y="2371.28" fill="#D9B8FF" font-family="Helvetica" font-size="17" textLength="340">aws_rds_db_cluster_option_group_status</text><path d="M338.5 2385.289h380" style="stroke:#000d19;stroke-width:1.5"/><text x="348.5" y="2404.499" fill="#D9B8FF" font-family="sans-serif" font-size="11" font-weight="bold" textLength="197">db_cluster_option_group_name</text><text x="545.5" y="2404.499" fill="#D9B8FF" font-family="sans-serif" font-size="11" textLength="41">: string</text><text x="348.5" y="2427.304" fill="#D9B8FF" font-family="sans-serif" font-size="11" font-weight="bold" textLength="40">status</text><text x="388.5" y="2427.304" fill="#D9B8FF" font-family="sans-serif" font-size="11" textLength="41">: string</text></a><a xlink:actuate="onRequest" xlink:href="#g" xlink:show="new" xlink:title="#aws_rds_master_user_secret" xlink:type="simple" target="_top"><rect id="g" width="281" height="116.203" x="755" y="2334" fill="#3D176E" rx="2.5" ry="2.5" style="stroke:#000d19;stroke-width:1.5"/><circle cx="770" cy="2353.894" r="11" fill="#E98DF7" style="stroke:#000d19;stroke-width:1"/><path d="M772.969 2359.535q-.578.297-1.219.438-.64.156-1.344.156-2.5 0-3.828-1.64-1.312-1.657-1.312-4.782t1.312-4.781q1.328-1.657 3.828-1.657.703 0 1.344.157.656.156 1.219.453v2.719q-.625-.579-1.219-.844-.594-.281-1.219-.281-1.343 0-2.031 1.078-.688 1.062-.688 3.156 0 2.094.688 3.172.688 1.062 2.031 1.062.625 0 1.219-.265.594-.282 1.219-.86v2.72Z"/><text x="789" y="2359.78" fill="#D9B8FF" font-family="Helvetica" font-size="17" textLength="239">aws_rds_master_user_secret</text><path d="M756 2373.789h279" style="stroke:#000d19;stroke-width:1.5"/><text x="766" y="2392.999" fill="#D9B8FF" font-family="sans-serif" font-size="11" font-weight="bold" textLength="67">secret_arn</text><text x="833" y="2392.999" fill="#D9B8FF" font-family="sans-serif" font-size="11" textLength="41">: string</text><text x="766" y="2415.804" fill="#D9B8FF" font-family="sans-serif" font-size="11" font-weight="bold" textLength="86">secret_status</text><text x="852" y="2415.804" fill="#D9B8FF" font-family="sans-serif" font-size="11" textLength="41">: string</text><text x="766" y="2438.609" fill="#D9B8FF" font-family="sans-serif" font-size="11" font-weight="bold" textLength="71">kms_key_id</text><text x="837" y="2438.609" fill="#D9B8FF" font-family="sans-serif" font-size="11" textLength="41">: string</text></a><a xlink:actuate="onRequest" xlink:href="#h" xlink:show="new" xlink:title="#aws_rds_db_cluster_member" xlink:type="simple" target="_top"><rect id="h" width="290" height="139.008" x="1071.5" y="2322.5" fill="#3D176E" rx="2.5" ry="2.5" style="stroke:#000d19;stroke-width:1.5"/><circle cx="1089.65" cy="2342.394" r="11" fill="#E98DF7" style="stroke:#000d19;stroke-width:1"/><path d="M1092.619 2348.035q-.578.297-1.219.438-.64.156-1.344.156-2.5 0-3.828-1.64-1.312-1.657-1.312-4.782t1.312-4.781q1.328-1.657 3.828-1.657.703 0 1.344.157.656.156 1.219.453v2.719q-.625-.579-1.219-.844-.594-.281-1.219-.281-1.343 0-2.031 1.078-.688 1.062-.688 3.156 0 2.094.688 3.172.688 1.062 2.031 1.062.625 0 1.219-.265.594-.282 1.219-.86v2.72Z"/><text x="1109.35" y="2348.28" fill="#D9B8FF" font-family="Helvetica" font-size="17" textLength="241">aws_rds_db_cluster_member</text><path d="M1072.5 2362.289h288" style="stroke:#000d19;stroke-width:1.5"/><text x="1082.5" y="2381.499" fill="#D9B8FF" font-family="sans-serif" font-size="11" font-weight="bold" textLength="142">db_instance_identifier</text><text x="1224.5" y="2381.499" fill="#D9B8FF" font-family="sans-serif" font-size="11" textLength="41">: string</text><text x="1082.5" y="2404.304" fill="#D9B8FF" font-family="sans-serif" font-size="11" font-weight="bold" textLength="105">is_cluster_writer</text><text x="1187.5" y="2404.304" fill="#D9B8FF" font-family="sans-serif" font-size="11" textLength="53">: boolean</text><text x="1082.5" y="2427.109" fill="#D9B8FF" font-family="sans-serif" font-size="11" font-weight="bold" textLength="227">db_cluster_parameter_group_status</text><text x="1309.5" y="2427.109" fill="#D9B8FF" font-family="sans-serif" font-size="11" textLength="41">: string</text><text x="1082.5" y="2449.914" fill="#D9B8FF" font-family="sans-serif" font-size="11" font-weight="bold" textLength="93">promotion_tier</text><text x="1175.5" y="2449.914" fill="#D9B8FF" font-family="sans-serif" font-size="11" textLength="36">: int64</text></a><a xlink:actuate="onRequest" xlink:href="#i" xlink:show="new" xlink:title="#database" xlink:type="simple" target="_top"><rect id="i" width="221" height="253.031" x="1594" y="404" fill="#3D176E" rx="2.5" ry="2.5" style="stroke:#000d19;stroke-width:1.5"/><circle cx="1657.75" cy="423.894" r="11" fill="#E98DF7" style="stroke:#000d19;stroke-width:1"/><path d="M1660.719 429.535q-.578.297-1.219.438-.64.156-1.344.156-2.5 0-3.828-1.64-1.312-1.657-1.312-4.782t1.312-4.781q1.328-1.656 3.828-1.656.703 0 1.344.156.656.156 1.219.453v2.719q-.625-.579-1.219-.844-.594-.281-1.219-.281-1.343 0-2.031 1.078-.688 1.062-.688 3.156 0 2.094.688 3.172.688 1.062 2.031 1.062.625 0 1.219-.265.594-.281 1.219-.86v2.72Z"/><text x="1683.25" y="429.78" fill="#D9B8FF" font-family="Helvetica" font-size="17" textLength="75">database</text><path d="M1595 443.789h219" style="stroke:#000d19;stroke-width:1.5"/><text x="1605" y="463" fill="#D9B8FF" font-family="sans-serif" font-size="11" font-weight="bold" textLength="50">db_type</text><text x="1655" y="463" fill="#D9B8FF" font-family="sans-serif" font-size="11" textLength="41">: string</text><text x="1605" y="485.804" fill="#D9B8FF" font-family="sans-serif" font-size="11" font-weight="bold" textLength="62">db_status</text><text x="1667" y="485.804" fill="#D9B8FF" font-family="sans-serif" font-size="11" textLength="41">: string</text><text x="1605" y="508.609" fill="#D9B8FF" font-family="sans-serif" font-size="11" font-weight="bold" textLength="79">db_endpoint</text><text x="1684" y="508.609" fill="#D9B8FF" font-family="sans-serif" font-size="11" textLength="41">: string</text><text x="1605" y="531.414" fill="#D9B8FF" font-family="sans-serif" font-size="11" font-weight="bold" textLength="69">db_version</text><text x="1674" y="531.414" fill="#D9B8FF" font-family="sans-serif" font-size="11" textLength="41">: string</text><text x="1605" y="554.218" fill="#D9B8FF" font-family="sans-serif" font-size="11" font-weight="bold" textLength="146">db_publicly_accessible</text><text x="1751" y="554.218" fill="#D9B8FF" font-family="sans-serif" font-size="11" textLength="53">: boolean</text><text x="1605" y="577.023" fill="#D9B8FF" font-family="sans-serif" font-size="11" font-weight="bold" textLength="89">instance_type</text><text x="1694" y="577.023" fill="#D9B8FF" font-family="sans-serif" font-size="11" textLength="41">: string</text><text x="1605" y="599.828" fill="#D9B8FF" font-family="sans-serif" font-size="11" font-weight="bold" textLength="78">volume_size</text><text x="1683" y="599.828" fill="#D9B8FF" font-family="sans-serif" font-size="11" textLength="36">: int64</text><text x="1605" y="622.632" fill="#D9B8FF" font-family="sans-serif" font-size="11" font-weight="bold" textLength="79">volume_iops</text><text x="1684" y="622.632" fill="#D9B8FF" font-family="sans-serif" font-size="11" textLength="36">: int64</text><text x="1605" y="645.437" fill="#D9B8FF" font-family="sans-serif" font-size="11" font-weight="bold" textLength="116">volume_encrypted</text><text x="1721" y="645.437" fill="#D9B8FF" font-family="sans-serif" font-size="11" textLength="53">: boolean</text></a><a xlink:actuate="onRequest" xlink:href="#j" xlink:show="new" xlink:title="#aws_rds_vpc_security_group_membership" xlink:type="simple" target="_top"><rect id="j" width="392" height="93.398" x="1396.5" y="2345.5" fill="#3D176E" rx="2.5" ry="2.5" style="stroke:#000d19;stroke-width:1.5"/><circle cx="1411.5" cy="2365.394" r="11" fill="#E98DF7" style="stroke:#000d19;stroke-width:1"/><path d="M1414.469 2371.035q-.578.297-1.219.438-.64.156-1.344.156-2.5 0-3.828-1.64-1.312-1.657-1.312-4.782t1.312-4.781q1.328-1.657 3.828-1.657.703 0 1.344.157.656.156 1.219.453v2.719q-.625-.579-1.219-.844-.594-.281-1.219-.281-1.343 0-2.031 1.078-.688 1.062-.688 3.156 0 2.094.688 3.172.688 1.062 2.031 1.062.625 0 1.219-.265.594-.282 1.219-.86v2.72Z"/><text x="1430.5" y="2371.28" fill="#D9B8FF" font-family="Helvetica" font-size="17" textLength="350">aws_rds_vpc_security_group_membership</text><path d="M1397.5 2385.289h390" style="stroke:#000d19;stroke-width:1.5"/><text x="1407.5" y="2404.499" fill="#D9B8FF" font-family="sans-serif" font-size="11" font-weight="bold" textLength="140">vpc_security_group_id</text><text x="1547.5" y="2404.499" fill="#D9B8FF" font-family="sans-serif" font-size="11" textLength="41">: string</text><text x="1407.5" y="2427.304" fill="#D9B8FF" font-family="sans-serif" font-size="11" font-weight="bold" textLength="40">status</text><text x="1447.5" y="2427.304" fill="#D9B8FF" font-family="sans-serif" font-size="11" textLength="41">: string</text></a><a xlink:actuate="onRequest" xlink:href="#k" xlink:show="new" xlink:title="#aws_rds_db_role" xlink:type="simple" target="_top"><rect id="k" width="179" height="116.203" x="1824" y="2334" fill="#3D176E" rx="2.5" ry="2.5" style="stroke:#000d19;stroke-width:1.5"/><circle cx="1839" cy="2353.894" r="11" fill="#E98DF7" style="stroke:#000d19;stroke-width:1"/><path d="M1841.969 2359.535q-.578.297-1.219.438-.64.156-1.344.156-2.5 0-3.828-1.64-1.312-1.657-1.312-4.782t1.312-4.781q1.328-1.657 3.828-1.657.703 0 1.344.157.656.156 1.219.453v2.719q-.625-.579-1.219-.844-.594-.281-1.219-.281-1.343 0-2.031 1.078-.688 1.062-.688 3.156 0 2.094.688 3.172.688 1.062 2.031 1.062.625 0 1.219-.265.594-.282 1.219-.86v2.72Z"/><text x="1858" y="2359.78" fill="#D9B8FF" font-family="Helvetica" font-size="17" textLength="137">aws_rds_db_role</text><path d="M1825 2373.789h177" style="stroke:#000d19;stroke-width:1.5"/><text x="1835" y="2392.999" fill="#D9B8FF" font-family="sans-serif" font-size="11" font-weight="bold" textLength="52">role_arn</text><text x="1887" y="2392.999" fill="#D9B8FF" font-family="sans-serif" font-size="11" textLength="41">: string</text><text x="1835" y="2415.804" fill="#D9B8FF" font-family="sans-serif" font-size="11" font-weight="bold" textLength="88">feature_name</text><text x="1923" y="2415.804" fill="#D9B8FF" font-family="sans-serif" font-size="11" textLength="41">: string</text><text x="1835" y="2438.609" fill="#D9B8FF" font-family="sans-serif" font-size="11" font-weight="bold" textLength="40">status</text><text x="1875" y="2438.609" fill="#D9B8FF" font-family="sans-serif" font-size="11" textLength="41">: string</text></a><a xlink:actuate="onRequest" xlink:href="#l" xlink:show="new" xlink:title="#aws_rds_serverless_v2_scaling_configuration_info" xlink:type="simple" target="_top"><rect id="l" width="458" height="93.398" x="2038.5" y="2345.5" fill="#3D176E" rx="2.5" ry="2.5" style="stroke:#000d19;stroke-width:1.5"/><circle cx="2053.5" cy="2365.394" r="11" fill="#E98DF7" style="stroke:#000d19;stroke-width:1"/><path d="M2056.469 2371.035q-.578.297-1.219.438-.64.156-1.344.156-2.5 0-3.828-1.64-1.312-1.657-1.312-4.782t1.312-4.781q1.328-1.657 3.828-1.657.703 0 1.344.157.656.156 1.219.453v2.719q-.625-.579-1.219-.844-.594-.281-1.219-.281-1.343 0-2.031 1.078-.688 1.062-.688 3.156 0 2.094.688 3.172.688 1.062 2.031 1.062.625 0 1.219-.265.594-.282 1.219-.86v2.72Z"/><text x="2072.5" y="2371.28" fill="#D9B8FF" font-family="Helvetica" font-size="17" textLength="416">aws_rds_serverless_v2_scaling_configuration_info</text><path d="M2039.5 2385.289h456" style="stroke:#000d19;stroke-width:1.5"/><text x="2049.5" y="2404.499" fill="#D9B8FF" font-family="sans-serif" font-size="11" font-weight="bold" textLength="83">min_capacity</text><text x="2132.5" y="2404.499" fill="#D9B8FF" font-family="sans-serif" font-size="11" textLength="46">: double</text><text x="2049.5" y="2427.304" fill="#D9B8FF" font-family="sans-serif" font-size="11" font-weight="bold" textLength="86">max_capacity</text><text x="2135.5" y="2427.304" fill="#D9B8FF" font-family="sans-serif" font-size="11" textLength="46">: double</text></a><a xlink:actuate="onRequest" xlink:href="#m" xlink:show="new" xlink:title="#aws_rds_scaling_configuration_info" xlink:type="simple" target="_top"><rect id="m" width="336" height="184.617" x="2531.5" y="2299.5" fill="#3D176E" rx="2.5" ry="2.5" style="stroke:#000d19;stroke-width:1.5"/><circle cx="2546.5" cy="2319.394" r="11" fill="#E98DF7" style="stroke:#000d19;stroke-width:1"/><path d="M2549.469 2325.035q-.578.297-1.219.438-.64.156-1.344.156-2.5 0-3.828-1.64-1.312-1.657-1.312-4.782t1.312-4.781q1.328-1.657 3.828-1.657.703 0 1.344.157.656.156 1.219.453v2.719q-.625-.579-1.219-.844-.594-.281-1.219-.281-1.343 0-2.031 1.078-.688 1.062-.688 3.156 0 2.094.688 3.172.688 1.062 2.031 1.062.625 0 1.219-.265.594-.282 1.219-.86v2.72Z"/><text x="2565.5" y="2325.28" fill="#D9B8FF" font-family="Helvetica" font-size="17" textLength="294">aws_rds_scaling_configuration_info</text><path d="M2532.5 2339.289h334" style="stroke:#000d19;stroke-width:1.5"/><text x="2542.5" y="2358.499" fill="#D9B8FF" font-family="sans-serif" font-size="11" font-weight="bold" textLength="83">min_capacity</text><text x="2625.5" y="2358.499" fill="#D9B8FF" font-family="sans-serif" font-size="11" textLength="36">: int64</text><text x="2542.5" y="2381.304" fill="#D9B8FF" font-family="sans-serif" font-size="11" font-weight="bold" textLength="86">max_capacity</text><text x="2628.5" y="2381.304" fill="#D9B8FF" font-family="sans-serif" font-size="11" textLength="36">: int64</text><text x="2542.5" y="2404.109" fill="#D9B8FF" font-family="sans-serif" font-size="11" font-weight="bold" textLength="74">auto_pause</text><text x="2616.5" y="2404.109" fill="#D9B8FF" font-family="sans-serif" font-size="11" textLength="53">: boolean</text><text x="2542.5" y="2426.914" fill="#D9B8FF" font-family="sans-serif" font-size="11" font-weight="bold" textLength="168">seconds_until_auto_pause</text><text x="2710.5" y="2426.914" fill="#D9B8FF" font-family="sans-serif" font-size="11" textLength="36">: int64</text><text x="2542.5" y="2449.718" fill="#D9B8FF" font-family="sans-serif" font-size="11" font-weight="bold" textLength="95">timeout_action</text><text x="2637.5" y="2449.718" fill="#D9B8FF" font-family="sans-serif" font-size="11" textLength="41">: string</text><text x="2542.5" y="2472.523" fill="#D9B8FF" font-family="sans-serif" font-size="11" font-weight="bold" textLength="156">seconds_before_timeout</text><text x="2698.5" y="2472.523" fill="#D9B8FF" font-family="sans-serif" font-size="11" textLength="36">: int64</text></a><a xlink:actuate="onRequest" xlink:href="#n" xlink:show="new" xlink:title="#aws_rds_cluster_pending_modified_values" xlink:type="simple" target="_top"><rect id="n" width="496" height="230.227" x="2902.5" y="2277" fill="#3D176E" rx="2.5" ry="2.5" style="stroke:#000d19;stroke-width:1.5"/><circle cx="2964.75" cy="2296.894" r="11" fill="#E98DF7" style="stroke:#000d19;stroke-width:1"/><path d="M2967.719 2302.535q-.578.297-1.219.438-.64.156-1.344.156-2.5 0-3.828-1.64-1.312-1.657-1.312-4.782t1.312-4.781q1.328-1.657 3.828-1.657.703 0 1.344.157.656.156 1.219.453v2.719q-.625-.579-1.219-.844-.594-.281-1.219-.281-1.343 0-2.031 1.078-.688 1.062-.688 3.156 0 2.094.688 3.172.688 1.062 2.031 1.062.625 0 1.219-.265.594-.282 1.219-.86v2.72Z"/><text x="2990.25" y="2302.78" fill="#D9B8FF" font-family="Helvetica" font-size="17" textLength="353">aws_rds_cluster_pending_modified_values</text><path d="M2903.5 2316.789h494" style="stroke:#000d19;stroke-width:1.5"/><text x="2913.5" y="2335.999" fill="#D9B8FF" font-family="sans-serif" font-size="11" font-weight="bold" textLength="219">pending_cloudwatch_logs_exports</text><text x="3132.5" y="2335.999" fill="#D9B8FF" font-family="sans-serif" font-size="11" textLength="255">: aws_rds_pending_cloudwatch_logs_exports</text><text x="2913.5" y="2358.804" fill="#D9B8FF" font-family="sans-serif" font-size="11" font-weight="bold" textLength="131">db_cluster_identifier</text><text x="3044.5" y="2358.804" fill="#D9B8FF" font-family="sans-serif" font-size="11" textLength="41">: string</text><text x="2913.5" y="2381.609" fill="#D9B8FF" font-family="sans-serif" font-size="11" font-weight="bold" textLength="146">master_user_password</text><text x="3059.5" y="2381.609" fill="#D9B8FF" font-family="sans-serif" font-size="11" textLength="41">: string</text><text x="2913.5" y="2404.414" fill="#D9B8FF" font-family="sans-serif" font-size="11" font-weight="bold" textLength="247">iam_database_authentication_enabled</text><text x="3160.5" y="2404.414" fill="#D9B8FF" font-family="sans-serif" font-size="11" textLength="53">: boolean</text><text x="2913.5" y="2427.218" fill="#D9B8FF" font-family="sans-serif" font-size="11" font-weight="bold" textLength="97">engine_version</text><text x="3010.5" y="2427.218" fill="#D9B8FF" font-family="sans-serif" font-size="11" textLength="41">: string</text><text x="2913.5" y="2450.023" fill="#D9B8FF" font-family="sans-serif" font-size="11" font-weight="bold" textLength="158">backup_retention_period</text><text x="3071.5" y="2450.023" fill="#D9B8FF" font-family="sans-serif" font-size="11" textLength="36">: int64</text><text x="2913.5" y="2472.828" fill="#D9B8FF" font-family="sans-serif" font-size="11" font-weight="bold" textLength="115">allocated_storage</text><text x="3028.5" y="2472.828" fill="#D9B8FF" font-family="sans-serif" font-size="11" textLength="36">: int64</text><text x="2913.5" y="2495.632" fill="#D9B8FF" font-family="sans-serif" font-size="11" font-weight="bold" textLength="27">iops</text><text x="2940.5" y="2495.632" fill="#D9B8FF" font-family="sans-serif" font-size="11" textLength="36">: int64</text></a><path fill="none" d="M1547.22 302.45c-20.58 71.1-43.1 148.91-55.71 192.48m49.02-194.57 12.29-17.26 1.16 21.16-13.45-3.9zm-52.73 285.87 22.04 191.63m-29.03-191.06 4.67-20.67 9.24 19.07-13.91 1.6zm206.79 90.33c-3.53 30.42-7.48 64.4-11.7 100.75m4.76-101.66 9.26-19.06 4.64 20.68-13.9-1.62zm-375.39 1063.22c-247.14 207.3-584.4 490.2-718.42 602.61" style="stroke:#ffaf37;stroke-width:2"/><path fill="#FFAF37" d="m582.95 2345.33 9.47-2.706-5.635-.502.502-5.634-4.337 8.842z" style="stroke:#ffaf37;stroke-width:2"/><path fill="none" d="M1305.49 2179.77c-22.68 53.83-42.66 101.27-57.92 137.48" style="stroke:#ffaf37;stroke-width:2"/><path fill="#FFAF37" d="m1245.54 2322.06 7.18-6.742-5.24 2.134-2.134-5.239.194 9.847z" style="stroke:#ffaf37;stroke-width:2"/><path fill="none" d="M1592.5 2217.06v123.06" style="stroke:#ffaf37;stroke-width:2"/><path fill="#FFAF37" d="m1592.5 2345.3 4-9-4 4-4-4 4 9z" style="stroke:#ffaf37;stroke-width:2"/><path fill="none" d="M1850.94 2217.06c15.86 44.09 29.65 82.43 40.22 111.82" style="stroke:#ffaf37;stroke-width:2"/><path fill="#FFAF37" d="m1892.96 2333.89.727-9.822-2.415 5.116-5.116-2.415 6.804 7.121z" style="stroke:#ffaf37;stroke-width:2"/><path fill="none" d="M1879.74 1730.08c228.28 184.05 535.88 432.05 701.82 565.83" style="stroke:#ffaf37;stroke-width:2"/><path fill="#FFAF37" d="m2585.94 2299.45-4.498-8.762.605 5.625-5.625.604 9.518 2.533z" style="stroke:#ffaf37;stroke-width:2"/><path fill="none" d="M1305.27 1667.93C1045.39 1822.7 653.38 2059.81 319.5 2277c-20.66 13.44-42.51 28.16-63.31 42.43" style="stroke:#ffaf37;stroke-width:2"/><path fill="#FFAF37" d="m252.05 2322.28 9.685-1.787-5.56-1.039 1.039-5.56-5.164 8.386z" style="stroke:#ffaf37;stroke-width:2"/><path fill="none" d="M1879.62 1662.98c309.63 177.37 794.7 455.24 1067.29 611.39" style="stroke:#ffaf37;stroke-width:2"/><path fill="#FFAF37" d="m2951.31 2276.89-5.824-7.942 1.485 5.458-5.459 1.485 9.798.999z" style="stroke:#ffaf37;stroke-width:2"/><path fill="none" d="M1879.74 1878.29c135.81 179.58 282.73 373.84 350.12 462.94" style="stroke:#ffaf37;stroke-width:2"/><path fill="#FFAF37" d="m2233.01 2345.39-2.238-9.591-.778 5.603-5.603-.778 8.619 4.766z" style="stroke:#ffaf37;stroke-width:2"/><path fill="none" d="M1305.48 1866.02c-136.98 175.41-287.06 367.58-361.91 463.43" style="stroke:#ffaf37;stroke-width:2"/><path fill="#FFAF37" d="m940.28 2333.66 8.705-4.607-5.616.675-.675-5.617-2.414 9.549z" style="stroke:#ffaf37;stroke-width:2"/><path fill="none" d="M1638.26 302.7c9.83 33.65 20.09 68.78 29.52 101.07m-36.35-99.51 1.11-21.16 12.33 17.23-13.44 3.93zM3150.5 2507.25v54.6" style="stroke:#ffaf37;stroke-width:2"/><path fill="#FFAF37" d="m3150.5 2566.87 4-9-4 4-4-4 4 9z" style="stroke:#ffaf37;stroke-width:2"/></svg>