<svg xmlns="http://www.w3.org/2000/svg" xmlns:xlink="http://www.w3.org/1999/xlink" width="1530" height="352" preserveAspectRatio="none" style="width:1530px;height:352px;background:#00000000"><a xlink:actuate="onRequest" xlink:href="#a" xlink:show="new" xlink:title="#aws_kms_key" xlink:type="simple" target="_top"><rect id="a" width="158" height="39.789" x="422.5" y="307" fill="#3D176E" rx="2.5" ry="2.5" style="stroke:#000d19;stroke-width:1.5"/><circle cx="437.5" cy="326.894" r="11" fill="#E98DF7" style="stroke:#000d19;stroke-width:1"/><path d="M440.469 332.535q-.578.297-1.219.438-.64.156-1.344.156-2.5 0-3.828-1.64-1.312-1.657-1.312-4.782t1.312-4.781q1.328-1.656 3.828-1.656.703 0 1.344.156.656.156 1.219.453v2.719q-.625-.579-1.219-.844-.594-.281-1.219-.281-1.344 0-2.031 1.078-.688 1.062-.688 3.156 0 2.094.688 3.172.688 1.062 2.031 1.062.625 0 1.219-.265.594-.281 1.219-.86v2.72Z"/><text x="456.5" y="332.78" fill="#D9B8FF" font-family="Helvetica" font-size="17" textLength="116">aws_kms_key</text></a><a xlink:actuate="onRequest" xlink:href="#b" xlink:show="new" xlink:title="#aws_sagemaker_labeling_job" xlink:type="simple" target="_top"><rect id="b" width="285" height="39.789" x="7" y="107" fill="#3D176E" rx="2.5" ry="2.5" style="stroke:#000d19;stroke-width:1.5"/><circle cx="22" cy="126.894" r="11" fill="#E98DF7" style="stroke:#000d19;stroke-width:1"/><path d="M24.969 132.535q-.578.297-1.219.438-.64.156-1.344.156-2.5 0-3.828-1.64-1.312-1.657-1.312-4.782t1.312-4.781q1.328-1.657 3.828-1.657.703 0 1.344.157.656.156 1.219.453v2.719q-.625-.579-1.219-.844-.594-.281-1.219-.281-1.343 0-2.031 1.078-.688 1.062-.688 3.156 0 2.094.688 3.172.688 1.062 2.031 1.062.625 0 1.219-.265.594-.281 1.219-.86v2.72Z"/><text x="41" y="132.78" fill="#D9B8FF" font-family="Helvetica" font-size="17" textLength="243">aws_sagemaker_labeling_job</text></a><a xlink:actuate="onRequest" xlink:href="#c" xlink:show="new" xlink:title="#aws_sagemaker_endpoint" xlink:type="simple" target="_top"><rect id="c" width="259" height="39.789" x="327" y="107" fill="#3D176E" rx="2.5" ry="2.5" style="stroke:#000d19;stroke-width:1.5"/><circle cx="342" cy="126.894" r="11" fill="#E98DF7" style="stroke:#000d19;stroke-width:1"/><path d="M344.969 132.535q-.578.297-1.219.438-.64.156-1.344.156-2.5 0-3.828-1.64-1.312-1.657-1.312-4.782t1.312-4.781q1.328-1.657 3.828-1.657.703 0 1.344.157.656.156 1.219.453v2.719q-.625-.579-1.219-.844-.594-.281-1.219-.281-1.344 0-2.031 1.078-.688 1.062-.688 3.156 0 2.094.688 3.172.688 1.062 2.031 1.062.625 0 1.219-.265.594-.281 1.219-.86v2.72Z"/><text x="361" y="132.78" fill="#D9B8FF" font-family="Helvetica" font-size="17" textLength="217">aws_sagemaker_endpoint</text></a><a xlink:actuate="onRequest" xlink:href="#d" xlink:show="new" xlink:title="#aws_sns_topic" xlink:type="simple" target="_top"><rect id="d" width="160" height="39.789" x="689.5" y="207" fill="#3D176E" rx="2.5" ry="2.5" style="stroke:#000d19;stroke-width:1.5"/><circle cx="704.5" cy="226.894" r="11" fill="#E98DF7" style="stroke:#000d19;stroke-width:1"/><path d="M707.469 232.535q-.578.297-1.219.438-.64.156-1.344.156-2.5 0-3.828-1.64-1.312-1.657-1.312-4.782t1.312-4.781q1.328-1.656 3.828-1.656.703 0 1.344.156.656.156 1.219.453v2.719q-.625-.579-1.219-.844-.594-.281-1.219-.281-1.343 0-2.031 1.078-.688 1.062-.688 3.156 0 2.094.688 3.172.688 1.062 2.031 1.062.625 0 1.219-.265.594-.281 1.219-.86v2.72Z"/><text x="723.5" y="232.78" fill="#D9B8FF" font-family="Helvetica" font-size="17" textLength="118">aws_sns_topic</text></a><a xlink:actuate="onRequest" xlink:href="#e" xlink:show="new" xlink:title="#aws_sns_subscription" xlink:type="simple" target="_top"><rect id="e" width="220" height="39.789" x="659.5" y="307" fill="#3D176E" rx="2.5" ry="2.5" style="stroke:#000d19;stroke-width:1.5"/><circle cx="674.5" cy="326.894" r="11" fill="#E98DF7" style="stroke:#000d19;stroke-width:1"/><path d="M677.469 332.535q-.578.297-1.219.438-.64.156-1.344.156-2.5 0-3.828-1.64-1.312-1.657-1.312-4.782t1.312-4.781q1.328-1.656 3.828-1.656.703 0 1.344.156.656.156 1.219.453v2.719q-.625-.579-1.219-.844-.594-.281-1.219-.281-1.343 0-2.031 1.078-.688 1.062-.688 3.156 0 2.094.688 3.172.688 1.062 2.031 1.062.625 0 1.219-.265.594-.281 1.219-.86v2.72Z"/><text x="693.5" y="332.78" fill="#D9B8FF" font-family="Helvetica" font-size="17" textLength="178">aws_sns_subscription</text></a><a xlink:actuate="onRequest" xlink:href="#f" xlink:show="new" xlink:title="#aws_elasticache_cache_cluster" xlink:type="simple" target="_top"><rect id="f" width="297" height="39.789" x="621" y="107" fill="#3D176E" rx="2.5" ry="2.5" style="stroke:#000d19;stroke-width:1.5"/><circle cx="636" cy="126.894" r="11" fill="#E98DF7" style="stroke:#000d19;stroke-width:1"/><path d="M638.969 132.535q-.578.297-1.219.438-.64.156-1.344.156-2.5 0-3.828-1.64-1.312-1.657-1.312-4.782t1.312-4.781q1.328-1.657 3.828-1.657.703 0 1.344.157.656.156 1.219.453v2.719q-.625-.579-1.219-.844-.594-.281-1.219-.281-1.343 0-2.031 1.078-.688 1.062-.688 3.156 0 2.094.688 3.172.688 1.062 2.031 1.062.625 0 1.219-.265.594-.281 1.219-.86v2.72Z"/><text x="655" y="132.78" fill="#D9B8FF" font-family="Helvetica" font-size="17" textLength="255">aws_elasticache_cache_cluster</text></a><a xlink:actuate="onRequest" xlink:href="#g" xlink:show="new" xlink:title="#aws_cloud_trail" xlink:type="simple" target="_top"><rect id="g" width="171" height="39.789" x="1352" y="107" fill="#3D176E" rx="2.5" ry="2.5" style="stroke:#000d19;stroke-width:1.5"/><circle cx="1367" cy="126.894" r="11" fill="#E98DF7" style="stroke:#000d19;stroke-width:1"/><path d="M1369.969 132.535q-.578.297-1.219.438-.64.156-1.344.156-2.5 0-3.828-1.64-1.312-1.657-1.312-4.782t1.312-4.781q1.328-1.657 3.828-1.657.703 0 1.344.157.656.156 1.219.453v2.719q-.625-.579-1.219-.844-.594-.281-1.219-.281-1.343 0-2.031 1.078-.688 1.062-.688 3.156 0 2.094.688 3.172.688 1.062 2.031 1.062.625 0 1.219-.265.594-.281 1.219-.86v2.72Z"/><text x="1386" y="132.78" fill="#D9B8FF" font-family="Helvetica" font-size="17" textLength="129">aws_cloud_trail</text></a><a xlink:actuate="onRequest" xlink:href="#h" xlink:show="new" xlink:title="#aws_sns_platform_application" xlink:type="simple" target="_top"><rect id="h" width="292" height="39.789" x="953.5" y="107" fill="#3D176E" rx="2.5" ry="2.5" style="stroke:#000d19;stroke-width:1.5"/><circle cx="968.5" cy="126.894" r="11" fill="#E98DF7" style="stroke:#000d19;stroke-width:1"/><path d="M971.469 132.535q-.578.297-1.219.438-.64.156-1.344.156-2.5 0-3.828-1.64-1.312-1.657-1.312-4.782t1.312-4.781q1.328-1.657 3.828-1.657.703 0 1.344.157.656.156 1.219.453v2.719q-.625-.579-1.219-.844-.594-.281-1.219-.281-1.343 0-2.031 1.078-.688 1.062-.688 3.156 0 2.094.688 3.172.688 1.062 2.031 1.062.625 0 1.219-.265.594-.281 1.219-.86v2.72Z"/><text x="987.5" y="132.78" fill="#D9B8FF" font-family="Helvetica" font-size="17" textLength="250">aws_sns_platform_application</text></a><a xlink:actuate="onRequest" xlink:href="#i" xlink:show="new" xlink:title="#aws_sagemaker_workteam" xlink:type="simple" target="_top"><rect id="i" width="271" height="39.789" x="588" y="7" fill="#3D176E" rx="2.5" ry="2.5" style="stroke:#000d19;stroke-width:1.5"/><circle cx="603" cy="26.895" r="11" fill="#E98DF7" style="stroke:#000d19;stroke-width:1"/><path d="M605.969 32.535q-.578.297-1.219.438-.64.156-1.344.156-2.5 0-3.828-1.64-1.312-1.657-1.312-4.782t1.312-4.781q1.328-1.656 3.828-1.656.703 0 1.344.156.656.156 1.219.453v2.719q-.625-.578-1.219-.844-.594-.281-1.219-.281-1.343 0-2.031 1.078-.688 1.062-.688 3.156 0 2.094.688 3.172.688 1.062 2.031 1.062.625 0 1.219-.265.594-.281 1.219-.86v2.72Z"/><text x="622" y="32.78" fill="#D9B8FF" font-family="Helvetica" font-size="17" textLength="229">aws_sagemaker_workteam</text></a><path fill="none" d="M269.78 147.01c121.84 19.26 307.23 48.56 414.62 65.54" style="stroke:#1a83af;stroke-width:2"/><path fill="#1A83AF" d="m689.46 213.35-8.276-5.34 3.336 4.569-4.57 3.335 9.51-2.564z" style="stroke:#1a83af;stroke-width:2"/><path fill="none" d="M183.57 147.16c65.93 37.09 210.53 118.43 279.66 157.31" style="stroke:#1a83af;stroke-width:2"/><path fill="#1A83AF" d="m467.67 306.97-5.875-7.905 1.52 5.449-5.45 1.52 9.805.936z" style="stroke:#1a83af;stroke-width:2"/><path fill="none" d="M460.9 147.35c8.25 36.32 26.05 114.62 35.09 154.4" style="stroke:#1a83af;stroke-width:2"/><path fill="#1A83AF" d="m497.15 306.87 1.893-9.665-3.008 4.79-4.791-3.007 5.906 7.882z" style="stroke:#1a83af;stroke-width:2"/><path fill="none" d="M517.22 147.01c53.58 16.78 131.51 41.18 186.54 58.41" style="stroke:#1a83af;stroke-width:2"/><path fill="#1A83AF" d="m708.68 206.96-7.404-6.495 2.63 5.008-5.008 2.63 9.782-1.143z" style="stroke:#1a83af;stroke-width:2"/><path fill="none" d="M717.51 247.01c-45.62 16.68-111.85 40.9-158.93 58.12" style="stroke:#1a83af;stroke-width:2"/><path fill="#1A83AF" d="m553.8 306.87 9.826.674-5.129-2.387 2.388-5.129-7.085 6.842z" style="stroke:#1a83af;stroke-width:2"/><path fill="none" d="M769.5 247.36v54.3" style="stroke:#1a83af;stroke-width:2"/><path fill="#1A83AF" d="m769.5 306.68 4-9-4 4-4-4 4 9z" style="stroke:#1a83af;stroke-width:2"/><path fill="none" d="M769.5 147.36v54.3" style="stroke:#1a83af;stroke-width:2"/><path fill="#1A83AF" d="m769.5 206.68 4-9-4 4-4-4 4 9z" style="stroke:#1a83af;stroke-width:2"/><path fill="none" d="M1351.95 146.1c-178.61 37.78-589.29 124.66-766.51 162.14" style="stroke:#1a83af;stroke-width:2"/><path fill="#1A83AF" d="m580.52 309.28 9.637 2.033-4.747-3.077 3.077-4.747-7.967 5.791z" style="stroke:#1a83af;stroke-width:2"/><path fill="none" d="M1351.78 142.65c-9.21 1.5-18.43 2.98-27.28 4.35-166.15 25.79-360.8 52.75-469.82 67.55" style="stroke:#1a83af;stroke-width:2"/><path fill="#1A83AF" d="m849.55 215.25 9.455 2.756-4.5-3.427 3.427-4.5-8.382 5.171z" style="stroke:#1a83af;stroke-width:2"/><path fill="none" d="M1035.48 147.01c-56.61 16.81-138.98 41.27-197.02 58.51" style="stroke:#1a83af;stroke-width:2"/><path fill="#1A83AF" d="m833.62 206.96 9.765 1.285-4.97-2.702 2.702-4.97-7.497 6.387z" style="stroke:#1a83af;stroke-width:2"/><path fill="none" d="M859.02 28.4c142.54 3.64 353.21 19.28 404.48 78.6 11.63 13.45 11.54 26.47 0 40-51.52 60.42-281.44 74.83-408.65 78.13" style="stroke:#1a83af;stroke-width:2"/><path fill="#1A83AF" d="m849.62 225.27 9.09 3.793-4.091-3.907 3.907-4.09-8.906 4.204z" style="stroke:#1a83af;stroke-width:2"/><path fill="none" d="M612.15 47.01c-99.55 17-244.91 41.82-346.03 59.08" style="stroke:#1a83af;stroke-width:2"/><path fill="#1A83AF" d="m261.03 106.96 9.546 2.426-4.618-3.269 3.269-4.617-8.197 5.46z" style="stroke:#1a83af;stroke-width:2"/></svg>