<svg xmlns="http://www.w3.org/2000/svg" xmlns:xlink="http://www.w3.org/1999/xlink" width="5334" height="1052" preserveAspectRatio="none" style="width:5334px;height:1052px;background:#00000000"><a xlink:actuate="onRequest" xlink:href="#a" xlink:show="new" xlink:title="#aws_s3_bucket" xlink:type="simple" target="_top"><rect id="a" width="168" height="39.789" x="7" y="207" fill="#3D176E" rx="2.5" ry="2.5" style="stroke:#000d19;stroke-width:1.5"/><circle cx="22" cy="226.894" r="11" fill="#E98DF7" style="stroke:#000d19;stroke-width:1"/><path d="M24.969 232.535q-.578.297-1.219.438-.64.156-1.344.156-2.5 0-3.828-1.64-1.312-1.657-1.312-4.782t1.312-4.781q1.328-1.656 3.828-1.656.703 0 1.344.156.656.156 1.219.453v2.719q-.625-.579-1.219-.844-.594-.281-1.219-.281-1.343 0-2.031 1.078-.688 1.062-.688 3.156 0 2.094.688 3.172.688 1.062 2.031 1.062.625 0 1.219-.265.594-.281 1.219-.86v2.72Z"/><text x="41" y="232.78" fill="#D9B8FF" font-family="Helvetica" font-size="17" textLength="126">aws_s3_bucket</text></a><a xlink:actuate="onRequest" xlink:href="#b" xlink:show="new" xlink:title="#aws_autoscaling_group" xlink:type="simple" target="_top"><rect id="b" width="236" height="39.789" x="2982" y="707" fill="#3D176E" rx="2.5" ry="2.5" style="stroke:#000d19;stroke-width:1.5"/><circle cx="2997" cy="726.894" r="11" fill="#E98DF7" style="stroke:#000d19;stroke-width:1"/><path d="M2999.969 732.535q-.578.297-1.219.438-.64.156-1.344.156-2.5 0-3.828-1.64-1.312-1.657-1.312-4.782t1.312-4.781q1.328-1.657 3.828-1.657.703 0 1.344.157.656.156 1.219.453v2.719q-.625-.578-1.219-.844-.594-.281-1.219-.281-1.343 0-2.031 1.078-.688 1.062-.688 3.156 0 2.094.688 3.172.688 1.062 2.031 1.062.625 0 1.219-.265.594-.282 1.219-.86v2.72Z"/><text x="3016" y="732.78" fill="#D9B8FF" font-family="Helvetica" font-size="17" textLength="194">aws_autoscaling_group</text></a><a xlink:actuate="onRequest" xlink:href="#c" xlink:show="new" xlink:title="#aws_cloudwatch_alarm" xlink:type="simple" target="_top"><rect id="c" width="237" height="39.789" x="2904.5" y="907" fill="#3D176E" rx="2.5" ry="2.5" style="stroke:#000d19;stroke-width:1.5"/><circle cx="2919.5" cy="926.894" r="11" fill="#E98DF7" style="stroke:#000d19;stroke-width:1"/><path d="M2922.469 932.535q-.578.297-1.219.438-.64.156-1.344.156-2.5 0-3.828-1.64-1.312-1.657-1.312-4.782t1.312-4.781q1.328-1.657 3.828-1.657.703 0 1.344.157.656.156 1.219.453v2.719q-.625-.578-1.219-.844-.594-.281-1.219-.281-1.343 0-2.031 1.078-.688 1.062-.688 3.156 0 2.094.688 3.172.688 1.062 2.031 1.062.625 0 1.219-.265.594-.282 1.219-.86v2.72Z"/><text x="2938.5" y="932.78" fill="#D9B8FF" font-family="Helvetica" font-size="17" textLength="195">aws_cloudwatch_alarm</text></a><a xlink:actuate="onRequest" xlink:href="#d" xlink:show="new" xlink:title="#aws_ec2_instance" xlink:type="simple" target="_top"><rect id="d" width="192" height="39.789" x="2761" y="807" fill="#3D176E" rx="2.5" ry="2.5" style="stroke:#000d19;stroke-width:1.5"/><circle cx="2776" cy="826.894" r="11" fill="#E98DF7" style="stroke:#000d19;stroke-width:1"/><path d="M2778.969 832.535q-.578.297-1.219.438-.64.156-1.344.156-2.5 0-3.828-1.64-1.312-1.657-1.312-4.782t1.312-4.781q1.328-1.657 3.828-1.657.703 0 1.344.157.656.156 1.219.453v2.719q-.625-.578-1.219-.844-.594-.281-1.219-.281-1.343 0-2.031 1.078-.688 1.062-.688 3.156 0 2.094.688 3.172.688 1.062 2.031 1.062.625 0 1.219-.265.594-.282 1.219-.86v2.72Z"/><text x="2795" y="832.78" fill="#D9B8FF" font-family="Helvetica" font-size="17" textLength="150">aws_ec2_instance</text></a><a xlink:actuate="onRequest" xlink:href="#e" xlink:show="new" xlink:title="#aws_iam_server_certificate" xlink:type="simple" target="_top"><rect id="e" width="269" height="39.789" x="2321.5" y="307" fill="#3D176E" rx="2.5" ry="2.5" style="stroke:#000d19;stroke-width:1.5"/><circle cx="2336.5" cy="326.894" r="11" fill="#E98DF7" style="stroke:#000d19;stroke-width:1"/><path d="M2339.469 332.535q-.578.297-1.219.438-.64.156-1.344.156-2.5 0-3.828-1.64-1.312-1.657-1.312-4.782t1.312-4.781q1.328-1.656 3.828-1.656.703 0 1.344.156.656.156 1.219.453v2.719q-.625-.579-1.219-.844-.594-.281-1.219-.281-1.343 0-2.031 1.078-.688 1.062-.688 3.156 0 2.094.688 3.172.688 1.062 2.031 1.062.625 0 1.219-.265.594-.281 1.219-.86v2.72Z"/><text x="2355.5" y="332.78" fill="#D9B8FF" font-family="Helvetica" font-size="17" textLength="227">aws_iam_server_certificate</text></a><a xlink:actuate="onRequest" xlink:href="#f" xlink:show="new" xlink:title="#aws_ec2_keypair" xlink:type="simple" target="_top"><rect id="f" width="184" height="39.789" x="3177" y="907" fill="#3D176E" rx="2.5" ry="2.5" style="stroke:#000d19;stroke-width:1.5"/><circle cx="3192" cy="926.894" r="11" fill="#E98DF7" style="stroke:#000d19;stroke-width:1"/><path d="M3194.969 932.535q-.578.297-1.219.438-.64.156-1.344.156-2.5 0-3.828-1.64-1.312-1.657-1.312-4.782t1.312-4.781q1.328-1.657 3.828-1.657.703 0 1.344.157.656.156 1.219.453v2.719q-.625-.578-1.219-.844-.594-.281-1.219-.281-1.343 0-2.031 1.078-.688 1.062-.688 3.156 0 2.094.688 3.172.688 1.062 2.031 1.062.625 0 1.219-.265.594-.282 1.219-.86v2.72Z"/><text x="3211" y="932.78" fill="#D9B8FF" font-family="Helvetica" font-size="17" textLength="142">aws_ec2_keypair</text></a><a xlink:actuate="onRequest" xlink:href="#g" xlink:show="new" xlink:title="#aws_account" xlink:type="simple" target="_top"><rect id="g" width="149" height="39.789" x="2746.5" y="7" fill="#3D176E" rx="2.5" ry="2.5" style="stroke:#000d19;stroke-width:1.5"/><circle cx="2761.5" cy="26.895" r="11" fill="#E98DF7" style="stroke:#000d19;stroke-width:1"/><path d="M2764.469 32.535q-.578.297-1.219.438-.64.156-1.344.156-2.5 0-3.828-1.64-1.312-1.657-1.312-4.782t1.312-4.781q1.328-1.656 3.828-1.656.703 0 1.344.156.656.156 1.219.453v2.719q-.625-.578-1.219-.844-.594-.281-1.219-.281-1.343 0-2.031 1.078-.688 1.062-.688 3.156 0 2.094.688 3.172.688 1.062 2.031 1.062.625 0 1.219-.265.594-.281 1.219-.86v2.72Z"/><text x="2780.5" y="32.78" fill="#D9B8FF" font-family="Helvetica" font-size="17" textLength="107">aws_account</text></a><a xlink:actuate="onRequest" xlink:href="#h" xlink:show="new" xlink:title="#aws_ec2_subnet" xlink:type="simple" target="_top"><rect id="h" width="179" height="39.789" x="1163.5" y="507" fill="#3D176E" rx="2.5" ry="2.5" style="stroke:#000d19;stroke-width:1.5"/><circle cx="1178.5" cy="526.894" r="11" fill="#E98DF7" style="stroke:#000d19;stroke-width:1"/><path d="M1181.469 532.535q-.578.297-1.219.438-.64.156-1.344.156-2.5 0-3.828-1.64-1.312-1.657-1.312-4.782t1.312-4.781q1.328-1.657 3.828-1.657.703 0 1.344.157.656.156 1.219.453v2.719q-.625-.578-1.219-.844-.594-.281-1.219-.281-1.343 0-2.031 1.078-.688 1.062-.688 3.156 0 2.094.688 3.172.688 1.062 2.031 1.062.625 0 1.219-.265.594-.282 1.219-.86v2.72Z"/><text x="1197.5" y="532.78" fill="#D9B8FF" font-family="Helvetica" font-size="17" textLength="137">aws_ec2_subnet</text></a><a xlink:actuate="onRequest" xlink:href="#i" xlink:show="new" xlink:title="#aws_ec2_network_interface" xlink:type="simple" target="_top"><rect id="i" width="275" height="39.789" x="992.5" y="907" fill="#3D176E" rx="2.5" ry="2.5" style="stroke:#000d19;stroke-width:1.5"/><circle cx="1007.5" cy="926.894" r="11" fill="#E98DF7" style="stroke:#000d19;stroke-width:1"/><path d="M1010.469 932.535q-.578.297-1.219.438-.64.156-1.344.156-2.5 0-3.828-1.64-1.312-1.657-1.312-4.782t1.312-4.781q1.328-1.657 3.828-1.657.703 0 1.344.157.656.156 1.219.453v2.719q-.625-.578-1.219-.844-.594-.281-1.219-.281-1.343 0-2.031 1.078-.688 1.062-.688 3.156 0 2.094.688 3.172.688 1.062 2.031 1.062.625 0 1.219-.265.594-.282 1.219-.86v2.72Z"/><text x="1026.5" y="932.78" fill="#D9B8FF" font-family="Helvetica" font-size="17" textLength="233">aws_ec2_network_interface</text></a><a xlink:actuate="onRequest" xlink:href="#j" xlink:show="new" xlink:title="#aws_alb" xlink:type="simple" target="_top"><rect id="j" width="109" height="39.789" x="1819.5" y="607" fill="#3D176E" rx="2.5" ry="2.5" style="stroke:#000d19;stroke-width:1.5"/><circle cx="1834.5" cy="626.894" r="11" fill="#E98DF7" style="stroke:#000d19;stroke-width:1"/><path d="M1837.469 632.535q-.578.297-1.219.438-.64.156-1.344.156-2.5 0-3.828-1.64-1.312-1.657-1.312-4.782t1.312-4.781q1.328-1.657 3.828-1.657.703 0 1.344.157.656.156 1.219.453v2.719q-.625-.578-1.219-.844-.594-.281-1.219-.281-1.343 0-2.031 1.078-.688 1.062-.688 3.156 0 2.094.688 3.172.688 1.062 2.031 1.062.625 0 1.219-.265.594-.282 1.219-.86v2.72Z"/><text x="1853.5" y="632.78" fill="#D9B8FF" font-family="Helvetica" font-size="17" textLength="67">aws_alb</text></a><a xlink:actuate="onRequest" xlink:href="#k" xlink:show="new" xlink:title="#aws_elb" xlink:type="simple" target="_top"><rect id="k" width="109" height="39.789" x="2570.5" y="607" fill="#3D176E" rx="2.5" ry="2.5" style="stroke:#000d19;stroke-width:1.5"/><circle cx="2585.5" cy="626.894" r="11" fill="#E98DF7" style="stroke:#000d19;stroke-width:1"/><path d="M2588.469 632.535q-.578.297-1.219.438-.64.156-1.344.156-2.5 0-3.828-1.64-1.312-1.657-1.312-4.782t1.312-4.781q1.328-1.657 3.828-1.657.703 0 1.344.157.656.156 1.219.453v2.719q-.625-.578-1.219-.844-.594-.281-1.219-.281-1.343 0-2.031 1.078-.688 1.062-.688 3.156 0 2.094.688 3.172.688 1.062 2.031 1.062.625 0 1.219-.265.594-.282 1.219-.86v2.72Z"/><text x="2604.5" y="632.78" fill="#D9B8FF" font-family="Helvetica" font-size="17" textLength="67">aws_elb</text></a><a xlink:actuate="onRequest" xlink:href="#l" xlink:show="new" xlink:title="#aws_rds_instance" xlink:type="simple" target="_top"><rect id="l" width="188" height="39.789" x="1036" y="607" fill="#3D176E" rx="2.5" ry="2.5" style="stroke:#000d19;stroke-width:1.5"/><circle cx="1051" cy="626.894" r="11" fill="#E98DF7" style="stroke:#000d19;stroke-width:1"/><path d="M1053.969 632.535q-.578.297-1.219.438-.64.156-1.344.156-2.5 0-3.828-1.64-1.312-1.657-1.312-4.782t1.312-4.781q1.328-1.657 3.828-1.657.703 0 1.344.157.656.156 1.219.453v2.719q-.625-.578-1.219-.844-.594-.281-1.219-.281-1.343 0-2.031 1.078-.688 1.062-.688 3.156 0 2.094.688 3.172.688 1.062 2.031 1.062.625 0 1.219-.265.594-.282 1.219-.86v2.72Z"/><text x="1070" y="632.78" fill="#D9B8FF" font-family="Helvetica" font-size="17" textLength="146">aws_rds_instance</text></a><a xlink:actuate="onRequest" xlink:href="#m" xlink:show="new" xlink:title="#aws_vpc_endpoint" xlink:type="simple" target="_top"><rect id="m" width="195" height="39.789" x="627.5" y="607" fill="#3D176E" rx="2.5" ry="2.5" style="stroke:#000d19;stroke-width:1.5"/><circle cx="642.5" cy="626.894" r="11" fill="#E98DF7" style="stroke:#000d19;stroke-width:1"/><path d="M645.469 632.535q-.578.297-1.219.438-.64.156-1.344.156-2.5 0-3.828-1.64-1.312-1.657-1.312-4.782t1.312-4.781q1.328-1.657 3.828-1.657.703 0 1.344.157.656.156 1.219.453v2.719q-.625-.578-1.219-.844-.594-.281-1.219-.281-1.343 0-2.031 1.078-.688 1.062-.688 3.156 0 2.094.688 3.172.688 1.062 2.031 1.062.625 0 1.219-.265.594-.282 1.219-.86v2.72Z"/><text x="661.5" y="632.78" fill="#D9B8FF" font-family="Helvetica" font-size="17" textLength="153">aws_vpc_endpoint</text></a><a xlink:actuate="onRequest" xlink:href="#n" xlink:show="new" xlink:title="#aws_ec2_network_acl" xlink:type="simple" target="_top"><rect id="n" width="224" height="39.789" x="1031" y="407" fill="#3D176E" rx="2.5" ry="2.5" style="stroke:#000d19;stroke-width:1.5"/><circle cx="1046" cy="426.894" r="11" fill="#E98DF7" style="stroke:#000d19;stroke-width:1"/><path d="M1048.969 432.535q-.578.297-1.219.438-.64.156-1.344.156-2.5 0-3.828-1.64-1.312-1.657-1.312-4.782t1.312-4.781q1.328-1.656 3.828-1.656.703 0 1.344.156.656.156 1.219.453v2.719q-.625-.579-1.219-.844-.594-.281-1.219-.281-1.343 0-2.031 1.078-.688 1.062-.688 3.156 0 2.094.688 3.172.688 1.062 2.031 1.062.625 0 1.219-.265.594-.281 1.219-.86v2.72Z"/><text x="1065" y="432.78" fill="#D9B8FF" font-family="Helvetica" font-size="17" textLength="182">aws_ec2_network_acl</text></a><a xlink:actuate="onRequest" xlink:href="#o" xlink:show="new" xlink:title="#aws_ec2_nat_gateway" xlink:type="simple" target="_top"><rect id="o" width="231" height="39.789" x="1037.5" y="207" fill="#3D176E" rx="2.5" ry="2.5" style="stroke:#000d19;stroke-width:1.5"/><circle cx="1052.5" cy="226.894" r="11" fill="#E98DF7" style="stroke:#000d19;stroke-width:1"/><path d="M1055.469 232.535q-.578.297-1.219.438-.64.156-1.344.156-2.5 0-3.828-1.64-1.312-1.657-1.312-4.782t1.312-4.781q1.328-1.656 3.828-1.656.703 0 1.344.156.656.156 1.219.453v2.719q-.625-.579-1.219-.844-.594-.281-1.219-.281-1.343 0-2.031 1.078-.688 1.062-.688 3.156 0 2.094.688 3.172.688 1.062 2.031 1.062.625 0 1.219-.265.594-.281 1.219-.86v2.72Z"/><text x="1071.5" y="232.78" fill="#D9B8FF" font-family="Helvetica" font-size="17" textLength="189">aws_ec2_nat_gateway</text></a><a xlink:actuate="onRequest" xlink:href="#p" xlink:show="new" xlink:title="#aws_ec2_volume" xlink:type="simple" target="_top"><rect id="p" width="185" height="39.789" x="3560.5" y="907" fill="#3D176E" rx="2.5" ry="2.5" style="stroke:#000d19;stroke-width:1.5"/><circle cx="3575.5" cy="926.894" r="11" fill="#E98DF7" style="stroke:#000d19;stroke-width:1"/><path d="M3578.469 932.535q-.578.297-1.219.438-.64.156-1.344.156-2.5 0-3.828-1.64-1.312-1.657-1.312-4.782t1.312-4.781q1.328-1.657 3.828-1.657.703 0 1.344.157.656.156 1.219.453v2.719q-.625-.578-1.219-.844-.594-.281-1.219-.281-1.343 0-2.031 1.078-.688 1.062-.688 3.156 0 2.094.688 3.172.688 1.062 2.031 1.062.625 0 1.219-.265.594-.282 1.219-.86v2.72Z"/><text x="3594.5" y="932.78" fill="#D9B8FF" font-family="Helvetica" font-size="17" textLength="143">aws_ec2_volume</text></a><a xlink:actuate="onRequest" xlink:href="#q" xlink:show="new" xlink:title="#aws_ec2_snapshot" xlink:type="simple" target="_top"><rect id="q" width="197" height="39.789" x="3639.5" y="1007" fill="#3D176E" rx="2.5" ry="2.5" style="stroke:#000d19;stroke-width:1.5"/><circle cx="3654.5" cy="1026.895" r="11" fill="#E98DF7" style="stroke:#000d19;stroke-width:1"/><path d="M3657.469 1032.535q-.578.297-1.219.438-.64.156-1.344.156-2.5 0-3.828-1.64-1.312-1.657-1.312-4.782t1.312-4.781q1.328-1.657 3.828-1.657.703 0 1.344.157.656.156 1.219.453v2.719q-.625-.578-1.219-.844-.594-.281-1.219-.281-1.343 0-2.031 1.078-.688 1.062-.688 3.156 0 2.094.688 3.172.688 1.062 2.031 1.062.625 0 1.219-.265.594-.281 1.219-.86v2.72Z"/><text x="3673.5" y="1032.78" fill="#D9B8FF" font-family="Helvetica" font-size="17" textLength="155">aws_ec2_snapshot</text></a><a xlink:actuate="onRequest" xlink:href="#r" xlink:show="new" xlink:title="#aws_ec2_security_group" xlink:type="simple" target="_top"><rect id="r" width="245" height="39.789" x="883.5" y="507" fill="#3D176E" rx="2.5" ry="2.5" style="stroke:#000d19;stroke-width:1.5"/><circle cx="898.5" cy="526.894" r="11" fill="#E98DF7" style="stroke:#000d19;stroke-width:1"/><path d="M901.469 532.535q-.578.297-1.219.438-.64.156-1.344.156-2.5 0-3.828-1.64-1.312-1.657-1.312-4.782t1.312-4.781q1.328-1.657 3.828-1.657.703 0 1.344.157.656.156 1.219.453v2.719q-.625-.578-1.219-.844-.594-.281-1.219-.281-1.343 0-2.031 1.078-.688 1.062-.688 3.156 0 2.094.688 3.172.688 1.062 2.031 1.062.625 0 1.219-.265.594-.282 1.219-.86v2.72Z"/><text x="917.5" y="532.78" fill="#D9B8FF" font-family="Helvetica" font-size="17" textLength="203">aws_ec2_security_group</text></a><a xlink:actuate="onRequest" xlink:href="#s" xlink:show="new" xlink:title="#aws_ec2_internet_gateway" xlink:type="simple" target="_top"><rect id="s" width="271" height="39.789" x="1858.5" y="407" fill="#3D176E" rx="2.5" ry="2.5" style="stroke:#000d19;stroke-width:1.5"/><circle cx="1873.5" cy="426.894" r="11" fill="#E98DF7" style="stroke:#000d19;stroke-width:1"/><path d="M1876.469 432.535q-.578.297-1.219.438-.64.156-1.344.156-2.5 0-3.828-1.64-1.312-1.657-1.312-4.782t1.312-4.781q1.328-1.656 3.828-1.656.703 0 1.344.156.656.156 1.219.453v2.719q-.625-.579-1.219-.844-.594-.281-1.219-.281-1.343 0-2.031 1.078-.688 1.062-.688 3.156 0 2.094.688 3.172.688 1.062 2.031 1.062.625 0 1.219-.265.594-.281 1.219-.86v2.72Z"/><text x="1892.5" y="432.78" fill="#D9B8FF" font-family="Helvetica" font-size="17" textLength="229">aws_ec2_internet_gateway</text></a><a xlink:actuate="onRequest" xlink:href="#t" xlink:show="new" xlink:title="#aws_iam_policy" xlink:type="simple" target="_top"><rect id="t" width="173" height="39.789" x="4420.5" y="407" fill="#3D176E" rx="2.5" ry="2.5" style="stroke:#000d19;stroke-width:1.5"/><circle cx="4435.5" cy="426.894" r="11" fill="#E98DF7" style="stroke:#000d19;stroke-width:1"/><path d="M4438.469 432.535q-.578.297-1.219.438-.64.156-1.344.156-2.5 0-3.828-1.64-1.312-1.657-1.312-4.782t1.312-4.781q1.328-1.656 3.828-1.656.703 0 1.344.156.656.156 1.219.453v2.719q-.625-.579-1.219-.844-.594-.281-1.219-.281-1.343 0-2.031 1.078-.688 1.062-.688 3.156 0 2.094.688 3.172.688 1.062 2.031 1.062.625 0 1.219-.265.594-.281 1.219-.86v2.72Z"/><text x="4454.5" y="432.78" fill="#D9B8FF" font-family="Helvetica" font-size="17" textLength="131">aws_iam_policy</text></a><a xlink:actuate="onRequest" xlink:href="#u" xlink:show="new" xlink:title="#aws_ec2_route_table" xlink:type="simple" target="_top"><rect id="u" width="218" height="39.789" x="423" y="407" fill="#3D176E" rx="2.5" ry="2.5" style="stroke:#000d19;stroke-width:1.5"/><circle cx="438" cy="426.894" r="11" fill="#E98DF7" style="stroke:#000d19;stroke-width:1"/><path d="M440.969 432.535q-.578.297-1.219.438-.64.156-1.344.156-2.5 0-3.828-1.64-1.312-1.657-1.312-4.782t1.312-4.781q1.328-1.656 3.828-1.656.703 0 1.344.156.656.156 1.219.453v2.719q-.625-.579-1.219-.844-.594-.281-1.219-.281-1.344 0-2.031 1.078-.688 1.062-.688 3.156 0 2.094.688 3.172.688 1.062 2.031 1.062.625 0 1.219-.265.594-.281 1.219-.86v2.72Z"/><text x="457" y="432.78" fill="#D9B8FF" font-family="Helvetica" font-size="17" textLength="176">aws_ec2_route_table</text></a><a xlink:actuate="onRequest" xlink:href="#v" xlink:show="new" xlink:title="#aws_ec2_elastic_ip" xlink:type="simple" target="_top"><rect id="v" width="199" height="39.789" x="2751.5" y="1007" fill="#3D176E" rx="2.5" ry="2.5" style="stroke:#000d19;stroke-width:1.5"/><circle cx="2766.5" cy="1026.895" r="11" fill="#E98DF7" style="stroke:#000d19;stroke-width:1"/><path d="M2769.469 1032.535q-.578.297-1.219.438-.64.156-1.344.156-2.5 0-3.828-1.64-1.312-1.657-1.312-4.782t1.312-4.781q1.328-1.657 3.828-1.657.703 0 1.344.157.656.156 1.219.453v2.719q-.625-.578-1.219-.844-.594-.281-1.219-.281-1.343 0-2.031 1.078-.688 1.062-.688 3.156 0 2.094.688 3.172.688 1.062 2.031 1.062.625 0 1.219-.265.594-.281 1.219-.86v2.72Z"/><text x="2785.5" y="1032.78" fill="#D9B8FF" font-family="Helvetica" font-size="17" textLength="157">aws_ec2_elastic_ip</text></a><a xlink:actuate="onRequest" xlink:href="#w" xlink:show="new" xlink:title="#aws_vpc_peering_connection" xlink:type="simple" target="_top"><rect id="w" width="284" height="39.789" x="2165" y="407" fill="#3D176E" rx="2.5" ry="2.5" style="stroke:#000d19;stroke-width:1.5"/><circle cx="2180" cy="426.894" r="11" fill="#E98DF7" style="stroke:#000d19;stroke-width:1"/><path d="M2182.969 432.535q-.578.297-1.219.438-.64.156-1.344.156-2.5 0-3.828-1.64-1.312-1.657-1.312-4.782t1.312-4.781q1.328-1.656 3.828-1.656.703 0 1.344.156.656.156 1.219.453v2.719q-.625-.579-1.219-.844-.594-.281-1.219-.281-1.343 0-2.031 1.078-.688 1.062-.688 3.156 0 2.094.688 3.172.688 1.062 2.031 1.062.625 0 1.219-.265.594-.281 1.219-.86v2.72Z"/><text x="2199" y="432.78" fill="#D9B8FF" font-family="Helvetica" font-size="17" textLength="242">aws_vpc_peering_connection</text></a><a xlink:actuate="onRequest" xlink:href="#x" xlink:show="new" xlink:title="#aws_alb_target_group" xlink:type="simple" target="_top"><rect id="x" width="226" height="39.789" x="2044" y="707" fill="#3D176E" rx="2.5" ry="2.5" style="stroke:#000d19;stroke-width:1.5"/><circle cx="2059" cy="726.894" r="11" fill="#E98DF7" style="stroke:#000d19;stroke-width:1"/><path d="M2061.969 732.535q-.578.297-1.219.438-.64.156-1.344.156-2.5 0-3.828-1.64-1.312-1.657-1.312-4.782t1.312-4.781q1.328-1.657 3.828-1.657.703 0 1.344.157.656.156 1.219.453v2.719q-.625-.578-1.219-.844-.594-.281-1.219-.281-1.343 0-2.031 1.078-.688 1.062-.688 3.156 0 2.094.688 3.172.688 1.062 2.031 1.062.625 0 1.219-.265.594-.282 1.219-.86v2.72Z"/><text x="2078" y="732.78" fill="#D9B8FF" font-family="Helvetica" font-size="17" textLength="184">aws_alb_target_group</text></a><a xlink:actuate="onRequest" xlink:href="#y" xlink:show="new" xlink:title="#aws_iam_group" xlink:type="simple" target="_top"><rect id="y" width="173" height="39.789" x="4452.5" y="207" fill="#3D176E" rx="2.5" ry="2.5" style="stroke:#000d19;stroke-width:1.5"/><circle cx="4467.5" cy="226.894" r="11" fill="#E98DF7" style="stroke:#000d19;stroke-width:1"/><path d="M4470.469 232.535q-.578.297-1.219.438-.64.156-1.344.156-2.5 0-3.828-1.64-1.312-1.657-1.312-4.782t1.312-4.781q1.328-1.656 3.828-1.656.703 0 1.344.156.656.156 1.219.453v2.719q-.625-.579-1.219-.844-.594-.281-1.219-.281-1.343 0-2.031 1.078-.688 1.062-.688 3.156 0 2.094.688 3.172.688 1.062 2.031 1.062.625 0 1.219-.265.594-.281 1.219-.86v2.72Z"/><text x="4486.5" y="232.78" fill="#D9B8FF" font-family="Helvetica" font-size="17" textLength="131">aws_iam_group</text></a><a xlink:actuate="onRequest" xlink:href="#z" xlink:show="new" xlink:title="#aws_iam_user" xlink:type="simple" target="_top"><rect id="z" width="161" height="39.789" x="4595.5" y="307" fill="#3D176E" rx="2.5" ry="2.5" style="stroke:#000d19;stroke-width:1.5"/><circle cx="4610.5" cy="326.894" r="11" fill="#E98DF7" style="stroke:#000d19;stroke-width:1"/><path d="M4613.469 332.535q-.578.297-1.219.438-.64.156-1.344.156-2.5 0-3.828-1.64-1.312-1.657-1.312-4.782t1.312-4.781q1.328-1.656 3.828-1.656.703 0 1.344.156.656.156 1.219.453v2.719q-.625-.579-1.219-.844-.594-.281-1.219-.281-1.343 0-2.031 1.078-.688 1.062-.688 3.156 0 2.094.688 3.172.688 1.062 2.031 1.062.625 0 1.219-.265.594-.281 1.219-.86v2.72Z"/><text x="4629.5" y="332.78" fill="#D9B8FF" font-family="Helvetica" font-size="17" textLength="119">aws_iam_user</text></a><a xlink:actuate="onRequest" xlink:href="#A" xlink:show="new" xlink:title="#aws_cloudformation_stack_set" xlink:type="simple" target="_top"><rect id="A" width="297" height="39.789" x="4732.5" y="207" fill="#3D176E" rx="2.5" ry="2.5" style="stroke:#000d19;stroke-width:1.5"/><circle cx="4747.5" cy="226.894" r="11" fill="#E98DF7" style="stroke:#000d19;stroke-width:1"/><path d="M4750.469 232.535q-.578.297-1.219.438-.64.156-1.344.156-2.5 0-3.828-1.64-1.312-1.657-1.312-4.782t1.312-4.781q1.328-1.656 3.828-1.656.703 0 1.344.156.656.156 1.219.453v2.719q-.625-.579-1.219-.844-.594-.281-1.219-.281-1.343 0-2.031 1.078-.688 1.062-.688 3.156 0 2.094.688 3.172.688 1.062 2.031 1.062.625 0 1.219-.265.594-.281 1.219-.86v2.72Z"/><text x="4766.5" y="232.78" fill="#D9B8FF" font-family="Helvetica" font-size="17" textLength="255">aws_cloudformation_stack_set</text></a><a xlink:actuate="onRequest" xlink:href="#B" xlink:show="new" xlink:title="#aws_service_quota" xlink:type="simple" target="_top"><rect id="B" width="199" height="39.789" x="2533.5" y="207" fill="#3D176E" rx="2.5" ry="2.5" style="stroke:#000d19;stroke-width:1.5"/><circle cx="2548.5" cy="226.894" r="11" fill="#E98DF7" style="stroke:#000d19;stroke-width:1"/><path d="M2551.469 232.535q-.578.297-1.219.438-.64.156-1.344.156-2.5 0-3.828-1.64-1.312-1.657-1.312-4.782t1.312-4.781q1.328-1.656 3.828-1.656.703 0 1.344.156.656.156 1.219.453v2.719q-.625-.579-1.219-.844-.594-.281-1.219-.281-1.343 0-2.031 1.078-.688 1.062-.688 3.156 0 2.094.688 3.172.688 1.062 2.031 1.062.625 0 1.219-.265.594-.281 1.219-.86v2.72Z"/><text x="2567.5" y="232.78" fill="#D9B8FF" font-family="Helvetica" font-size="17" textLength="157">aws_service_quota</text></a><a xlink:actuate="onRequest" xlink:href="#C" xlink:show="new" xlink:title="#aws_ec2_volume_type" xlink:type="simple" target="_top"><rect id="C" width="231" height="39.789" x="3467.5" y="307" fill="#3D176E" rx="2.5" ry="2.5" style="stroke:#000d19;stroke-width:1.5"/><circle cx="3482.5" cy="326.894" r="11" fill="#E98DF7" style="stroke:#000d19;stroke-width:1"/><path d="M3485.469 332.535q-.578.297-1.219.438-.64.156-1.344.156-2.5 0-3.828-1.64-1.312-1.657-1.312-4.782t1.312-4.781q1.328-1.656 3.828-1.656.703 0 1.344.156.656.156 1.219.453v2.719q-.625-.579-1.219-.844-.594-.281-1.219-.281-1.343 0-2.031 1.078-.688 1.062-.688 3.156 0 2.094.688 3.172.688 1.062 2.031 1.062.625 0 1.219-.265.594-.281 1.219-.86v2.72Z"/><text x="3501.5" y="332.78" fill="#D9B8FF" font-family="Helvetica" font-size="17" textLength="189">aws_ec2_volume_type</text></a><a xlink:actuate="onRequest" xlink:href="#D" xlink:show="new" xlink:title="#aws_vpc" xlink:type="simple" target="_top"><rect id="D" width="112" height="39.789" x="1500" y="307" fill="#3D176E" rx="2.5" ry="2.5" style="stroke:#000d19;stroke-width:1.5"/><circle cx="1515" cy="326.894" r="11" fill="#E98DF7" style="stroke:#000d19;stroke-width:1"/><path d="M1517.969 332.535q-.578.297-1.219.438-.64.156-1.344.156-2.5 0-3.828-1.64-1.312-1.657-1.312-4.782t1.312-4.781q1.328-1.656 3.828-1.656.703 0 1.344.156.656.156 1.219.453v2.719q-.625-.579-1.219-.844-.594-.281-1.219-.281-1.343 0-2.031 1.078-.688 1.062-.688 3.156 0 2.094.688 3.172.688 1.062 2.031 1.062.625 0 1.219-.265.594-.281 1.219-.86v2.72Z"/><text x="1534" y="332.78" fill="#D9B8FF" font-family="Helvetica" font-size="17" textLength="70">aws_vpc</text></a><a xlink:actuate="onRequest" xlink:href="#E" xlink:show="new" xlink:title="#aws_ec2_instance_type" xlink:type="simple" target="_top"><rect id="E" width="238" height="39.789" x="2910" y="307" fill="#3D176E" rx="2.5" ry="2.5" style="stroke:#000d19;stroke-width:1.5"/><circle cx="2925" cy="326.894" r="11" fill="#E98DF7" style="stroke:#000d19;stroke-width:1"/><path d="M2927.969 332.535q-.578.297-1.219.438-.64.156-1.344.156-2.5 0-3.828-1.64-1.312-1.657-1.312-4.782t1.312-4.781q1.328-1.656 3.828-1.656.703 0 1.344.156.656.156 1.219.453v2.719q-.625-.579-1.219-.844-.594-.281-1.219-.281-1.343 0-2.031 1.078-.688 1.062-.688 3.156 0 2.094.688 3.172.688 1.062 2.031 1.062.625 0 1.219-.265.594-.281 1.219-.86v2.72Z"/><text x="2944" y="332.78" fill="#D9B8FF" font-family="Helvetica" font-size="17" textLength="196">aws_ec2_instance_type</text></a><a xlink:actuate="onRequest" xlink:href="#F" xlink:show="new" xlink:title="#aws_region" xlink:type="simple" target="_top"><rect id="F" width="137" height="39.789" x="2752.5" y="107" fill="#3D176E" rx="2.5" ry="2.5" style="stroke:#000d19;stroke-width:1.5"/><circle cx="2767.5" cy="126.894" r="11" fill="#E98DF7" style="stroke:#000d19;stroke-width:1"/><path d="M2770.469 132.535q-.578.297-1.219.438-.64.156-1.344.156-2.5 0-3.828-1.64-1.312-1.657-1.312-4.782t1.312-4.781q1.328-1.657 3.828-1.657.703 0 1.344.157.656.156 1.219.453v2.719q-.625-.579-1.219-.844-.594-.281-1.219-.281-1.343 0-2.031 1.078-.688 1.062-.688 3.156 0 2.094.688 3.172.688 1.062 2.031 1.062.625 0 1.219-.265.594-.281 1.219-.86v2.72Z"/><text x="2786.5" y="132.78" fill="#D9B8FF" font-family="Helvetica" font-size="17" textLength="95">aws_region</text></a><a xlink:actuate="onRequest" xlink:href="#G" xlink:show="new" xlink:title="#aws_iam_role" xlink:type="simple" target="_top"><rect id="G" width="157" height="39.789" x="4056.5" y="207" fill="#3D176E" rx="2.5" ry="2.5" style="stroke:#000d19;stroke-width:1.5"/><circle cx="4071.5" cy="226.894" r="11" fill="#E98DF7" style="stroke:#000d19;stroke-width:1"/><path d="M4074.469 232.535q-.578.297-1.219.438-.64.156-1.344.156-2.5 0-3.828-1.64-1.312-1.657-1.312-4.782t1.312-4.781q1.328-1.656 3.828-1.656.703 0 1.344.156.656.156 1.219.453v2.719q-.625-.579-1.219-.844-.594-.281-1.219-.281-1.343 0-2.031 1.078-.688 1.062-.688 3.156 0 2.094.688 3.172.688 1.062 2.031 1.062.625 0 1.219-.265.594-.281 1.219-.86v2.72Z"/><text x="4090.5" y="232.78" fill="#D9B8FF" font-family="Helvetica" font-size="17" textLength="115">aws_iam_role</text></a><a xlink:actuate="onRequest" xlink:href="#H" xlink:show="new" xlink:title="#aws_iam_instance_profile" xlink:type="simple" target="_top"><rect id="H" width="257" height="39.789" x="3876.5" y="307" fill="#3D176E" rx="2.5" ry="2.5" style="stroke:#000d19;stroke-width:1.5"/><circle cx="3891.5" cy="326.894" r="11" fill="#E98DF7" style="stroke:#000d19;stroke-width:1"/><path d="M3894.469 332.535q-.578.297-1.219.438-.64.156-1.344.156-2.5 0-3.828-1.64-1.312-1.657-1.312-4.782t1.312-4.781q1.328-1.656 3.828-1.656.703 0 1.344.156.656.156 1.219.453v2.719q-.625-.579-1.219-.844-.594-.281-1.219-.281-1.343 0-2.031 1.078-.688 1.062-.688 3.156 0 2.094.688 3.172.688 1.062 2.031 1.062.625 0 1.219-.265.594-.281 1.219-.86v2.72Z"/><text x="3910.5" y="332.78" fill="#D9B8FF" font-family="Helvetica" font-size="17" textLength="215">aws_iam_instance_profile</text></a><a xlink:actuate="onRequest" xlink:href="#I" xlink:show="new" xlink:title="#aws_eks_cluster" xlink:type="simple" target="_top"><rect id="I" width="177" height="39.789" x="4240.5" y="307" fill="#3D176E" rx="2.5" ry="2.5" style="stroke:#000d19;stroke-width:1.5"/><circle cx="4255.5" cy="326.894" r="11" fill="#E98DF7" style="stroke:#000d19;stroke-width:1"/><path d="M4258.469 332.535q-.578.297-1.219.438-.64.156-1.344.156-2.5 0-3.828-1.64-1.312-1.657-1.312-4.782t1.312-4.781q1.328-1.656 3.828-1.656.703 0 1.344.156.656.156 1.219.453v2.719q-.625-.579-1.219-.844-.594-.281-1.219-.281-1.343 0-2.031 1.078-.688 1.062-.688 3.156 0 2.094.688 3.172.688 1.062 2.031 1.062.625 0 1.219-.265.594-.281 1.219-.86v2.72Z"/><text x="4274.5" y="332.78" fill="#D9B8FF" font-family="Helvetica" font-size="17" textLength="135">aws_eks_cluster</text></a><a xlink:actuate="onRequest" xlink:href="#J" xlink:show="new" xlink:title="#aws_cloudformation_stack" xlink:type="simple" target="_top"><rect id="J" width="263" height="39.789" x="5064.5" y="207" fill="#3D176E" rx="2.5" ry="2.5" style="stroke:#000d19;stroke-width:1.5"/><circle cx="5079.5" cy="226.894" r="11" fill="#E98DF7" style="stroke:#000d19;stroke-width:1"/><path d="M5082.469 232.535q-.578.297-1.219.438-.64.156-1.344.156-2.5 0-3.828-1.64-1.312-1.657-1.312-4.782t1.312-4.781q1.328-1.656 3.828-1.656.703 0 1.344.156.656.156 1.219.453v2.719q-.625-.579-1.219-.844-.594-.281-1.219-.281-1.343 0-2.031 1.078-.688 1.062-.688 3.156 0 2.094.688 3.172.688 1.062 2.031 1.062.625 0 1.219-.265.594-.281 1.219-.86v2.72Z"/><text x="5098.5" y="232.78" fill="#D9B8FF" font-family="Helvetica" font-size="17" textLength="221">aws_cloudformation_stack</text></a><path fill="none" d="M3052.86 747.01c-41.2 16.62-100.93 40.71-143.58 57.91" style="stroke:#1a83af;stroke-width:2"/><path fill="#1A83AF" d="m2904.42 806.87 9.843.345-5.206-2.214 2.215-5.206-6.852 7.075z" style="stroke:#1a83af;stroke-width:2"/><path fill="none" d="M2856.41 847.35c-1.1 36.32-3.47 114.62-4.68 154.4" style="stroke:#1a83af;stroke-width:2"/><path fill="#1A83AF" d="m2851.58 1006.87 4.255-8.882-4.112 3.884-3.884-4.113 3.741 9.111z" style="stroke:#1a83af;stroke-width:2"/><path fill="none" d="M2936.93 847.01c70.95 16.88 174.33 41.47 246.85 58.72" style="stroke:#1a83af;stroke-width:2"/><path fill="#1A83AF" d="m3188.95 906.96-7.828-5.977 2.964 4.818-4.818 2.964 9.682-1.805z" style="stroke:#1a83af;stroke-width:2"/><path fill="none" d="M2760.76 833.46c-288.34 16.36-1146.31 65.05-1488.01 84.44" style="stroke:#1a83af;stroke-width:2"/><path fill="#1A83AF" d="m1267.75 918.18 9.204 3.506-4.211-3.777 3.777-4.211-8.77 4.482z" style="stroke:#1a83af;stroke-width:2"/><path fill="none" d="M2953.02 839.82c152.42 18.77 448.21 55.18 601.91 74.11" style="stroke:#1a83af;stroke-width:2"/><path fill="#1A83AF" d="m3560.34 914.59-8.442-5.074 3.48 4.46-4.46 3.48 9.422-2.866z" style="stroke:#1a83af;stroke-width:2"/><path fill="none" d="M2889.4 847.13c27.76 16.39 67.74 39.99 96.73 57.1" style="stroke:#1a83af;stroke-width:2"/><path fill="#1A83AF" d="m2990.68 906.92-5.722-8.016 1.414 5.477-5.476 1.415 9.784 1.124z" style="stroke:#1a83af;stroke-width:2"/><path fill="none" d="M2821 47.36v54.3" style="stroke:#1a83af;stroke-width:2"/><path fill="#1A83AF" d="m2821 106.68 4-9-4 4-4-4 4 9z" style="stroke:#1a83af;stroke-width:2"/><path fill="none" d="M1252.7 547.24c-.75 23.76-3.27 65.27-11.7 99.76-24.04 98.41-75.54 208.18-98.96 255.36" style="stroke:#1a83af;stroke-width:2"/><path fill="#1A83AF" d="m1139.73 906.99 7.595-6.27-5.365 1.795-1.795-5.364-.435 9.839z" style="stroke:#1a83af;stroke-width:2"/><path fill="none" d="M1342.64 542.15c128.61 20.29 362.06 57.13 471.6 74.42" style="stroke:#1a83af;stroke-width:2"/><path fill="#1A83AF" d="m1819.36 617.38-8.275-5.34 3.335 4.569-4.57 3.335 9.51-2.564z" style="stroke:#1a83af;stroke-width:2"/><path fill="none" d="M1342.76 534.41c259.41 18.53 1005.44 71.82 1222.39 87.32" style="stroke:#1a83af;stroke-width:2"/><path fill="#1A83AF" d="m2570.18 622.08-8.691-4.633 3.704 4.276-4.276 3.704 9.263-3.347z" style="stroke:#1a83af;stroke-width:2"/><path fill="none" d="m1228.99 547.13-70.87 56.47" style="stroke:#1a83af;stroke-width:2"/><path fill="#1A83AF" d="m1153.95 606.92 9.529-2.49-5.622-.63.63-5.622-4.537 8.742z" style="stroke:#1a83af;stroke-width:2"/><path fill="none" d="m1163.43 544.62-335.61 62.3" style="stroke:#1a83af;stroke-width:2"/><path fill="#1A83AF" d="m822.63 607.88 9.58 2.286-4.664-3.2 3.2-4.665-8.116 5.579z" style="stroke:#1a83af;stroke-width:2"/><path fill="none" d="M1267.57 935.83c333.86 19.01 1181.37 67.28 1478.53 84.2" style="stroke:#1a83af;stroke-width:2"/><path fill="#1A83AF" d="m2751.3 1020.32-8.757-4.507 3.765 4.222-4.222 3.765 9.214-3.48z" style="stroke:#1a83af;stroke-width:2"/><path fill="none" d="M1928.57 646.9c48.39 16.75 118.93 41.18 168.79 58.45" style="stroke:#1a83af;stroke-width:2"/><path fill="#1A83AF" d="m2102.12 707-7.182-6.739 2.46 5.094-5.093 2.46 9.815-.815z" style="stroke:#1a83af;stroke-width:2"/><path fill="none" d="M2634.34 647.01c13.26 25.42 39.64 70.67 72.66 99.99 27.89 24.76 64.92 44.37 95.21 57.85" style="stroke:#1a83af;stroke-width:2"/><path fill="#1A83AF" d="m2807.01 806.97-6.623-7.29 2.047 5.274-5.273 2.048 9.849-.032z" style="stroke:#1a83af;stroke-width:2"/><path fill="none" d="M741.32 647.2C776.99 688.24 866.02 785.76 957 847c35.64 23.99 79.73 44 114.49 57.88" style="stroke:#1a83af;stroke-width:2"/><path fill="#1A83AF" d="m1076.54 906.88-6.897-7.03 2.248 5.19-5.191 2.248 9.84-.408z" style="stroke:#1a83af;stroke-width:2"/><path fill="none" d="M1164.47 447.13c18.02 16.05 43.8 39.02 62.9 56.04" style="stroke:#1a83af;stroke-width:2"/><path fill="#1A83AF" d="m1231.58 506.92-4.07-8.969.333 5.647-5.647.332 9.384 2.99z" style="stroke:#1a83af;stroke-width:2"/><path fill="none" d="M1231.18 247.01c77.01 18.73 193.06 46.95 263.59 64.1" style="stroke:#1a83af;stroke-width:2"/><path fill="#1A83AF" d="m1499.77 312.33-7.799-6.015 2.94 4.832-4.832 2.941 9.691-1.758z" style="stroke:#1a83af;stroke-width:2"/><path fill="none" d="M1037.13 241.5C850.53 265.51 495.21 321.29 405 407c-39.97 37.97-35 63.87-35 119v202c0 126.15 397.08 173.38 617.2 189.87" style="stroke:#1a83af;stroke-width:2"/><path fill="#1A83AF" d="m992.37 918.26-8.678-4.658 3.692 4.287-4.286 3.691 9.272-3.32z" style="stroke:#1a83af;stroke-width:2"/><path fill="none" d="M1124.15 247.23C1069.65 285.96 961.41 375.71 1013 447c17.76 24.54 86.21 45.6 145.49 59.79" style="stroke:#1a83af;stroke-width:2"/><path fill="#1A83AF" d="m1163.47 507.97-7.828-5.977 2.964 4.818-4.818 2.964 9.682-1.805z" style="stroke:#1a83af;stroke-width:2"/><path fill="none" d="M3669.79 947.36c13.74 15.84 33.22 38.3 47.84 55.16" style="stroke:#1a83af;stroke-width:2"/><path fill="#1A83AF" d="m3721.24 1006.68-2.878-9.419-.4 5.643-5.642-.4 8.92 4.176z" style="stroke:#1a83af;stroke-width:2"/><path fill="none" d="M1006.29 547.24c.73 23.77 3.23 65.28 11.71 99.76 24.16 98.25 75.95 207.67 99.67 255.02" style="stroke:#1a83af;stroke-width:2"/><path fill="#1A83AF" d="m1120.01 906.68-.485-9.837-1.768 5.374-5.374-1.769 7.627 6.232z" style="stroke:#1a83af;stroke-width:2"/><path fill="none" d="M1128.85 545.25c5.8.63 11.53 1.22 17.15 1.75 550 51.92 1218.53 72.34 1419.26 77.56" style="stroke:#1a83af;stroke-width:2"/><path fill="#1A83AF" d="m2570.49 624.69-8.894-4.23 3.896 4.101-4.102 3.896 9.1-3.767z" style="stroke:#1a83af;stroke-width:2"/><path fill="none" d="M951.49 547.01c-47.84 16.68-117.28 40.9-166.64 58.12" style="stroke:#1a83af;stroke-width:2"/><path fill="#1A83AF" d="m779.84 606.87 9.817.789-5.1-2.447 2.447-5.1-7.164 6.758z" style="stroke:#1a83af;stroke-width:2"/><path fill="none" d="M1128.52 544.82c5.91.75 11.76 1.48 17.48 2.18 247.69 30.24 543.52 60.55 668.07 73.05" style="stroke:#1a83af;stroke-width:2"/><path fill="#1A83AF" d="m1819.15 620.55-8.556-4.878 3.581 4.38-4.38 3.58 9.355-3.082z" style="stroke:#1a83af;stroke-width:2"/><path fill="none" d="M1030.2 547.13c20.57 16.25 50.12 39.6 71.72 56.68" style="stroke:#1a83af;stroke-width:2"/><path fill="#1A83AF" d="m1105.86 606.92-4.572-8.723.652 5.619-5.619.652 9.539 2.452z" style="stroke:#1a83af;stroke-width:2"/><path fill="none" d="M550.86 447.35c35.83 36.76 113.61 116.55 151.91 155.84" style="stroke:#1a83af;stroke-width:2"/><path fill="#1A83AF" d="m706.35 606.87-3.424-9.235-.068 5.657-5.657-.069 9.149 3.647z" style="stroke:#1a83af;stroke-width:2"/><path fill="none" d="M2270.25 743.85c134.34 18.81 356.29 49.89 485.26 67.94" style="stroke:#1a83af;stroke-width:2"/><path fill="#1A83AF" d="m2760.82 812.53-8.35-5.222 3.4 4.52-4.522 3.4 9.472-2.698z" style="stroke:#1a83af;stroke-width:2"/><path fill="none" d="M4565.74 247.13c22.73 16.25 55.37 39.6 79.24 56.68" style="stroke:#1a83af;stroke-width:2"/><path fill="#1A83AF" d="m4649.33 306.92-4.976-8.5.915 5.583-5.582.915 9.643 2.002z" style="stroke:#1a83af;stroke-width:2"/><path fill="none" d="M4535.87 247.35c-5.87 36.32-18.52 114.62-24.95 154.4" style="stroke:#1a83af;stroke-width:2"/><path fill="#1A83AF" d="m4510.09 406.87 5.387-8.245-4.588 3.31-3.31-4.589 2.511 9.524z" style="stroke:#1a83af;stroke-width:2"/><path fill="none" d="M4643.01 347.13c-28.26 16.39-68.96 39.99-98.47 57.1" style="stroke:#1a83af;stroke-width:2"/><path fill="#1A83AF" d="m4539.9 406.92 9.792-1.062-5.468-1.45 1.45-5.467-5.774 7.979z" style="stroke:#1a83af;stroke-width:2"/><path fill="none" d="M2732.87 238.3c175.78 18.14 539.72 55.68 729.33 75.24" style="stroke:#1a83af;stroke-width:2"/><path fill="#1A83AF" d="m3467.2 314.05-8.54-4.905 3.567 4.39-4.39 3.568 9.363-3.053z" style="stroke:#1a83af;stroke-width:2"/><path fill="none" d="M2533.13 237.09c-219.33 19.96-737.72 67.12-915.8 83.33" style="stroke:#1a83af;stroke-width:2"/><path fill="#1A83AF" d="m1612.16 320.89 9.328 3.161-4.349-3.618 3.618-4.348-8.597 4.805z" style="stroke:#1a83af;stroke-width:2"/><path fill="none" d="M2598.45 247.13c-29.72 16.46-72.58 40.19-103.52 57.31" style="stroke:#1a83af;stroke-width:2"/><path fill="#1A83AF" d="m2490.46 306.92 9.812-.85-5.435-1.567 1.568-5.436-5.945 7.853z" style="stroke:#1a83af;stroke-width:2"/><path fill="none" d="M2631.7 247.42c-2.25 24.31-8.2 66.74-23.7 99.58-24.29 51.47-32.44 68.73-80 100-192.39 126.49-472.57 164.19-594.08 174.93" style="stroke:#1a83af;stroke-width:2"/><path fill="#1A83AF" d="m1928.61 622.39 9.31 3.212-4.329-3.641 3.642-4.33-8.623 4.759z" style="stroke:#1a83af;stroke-width:2"/><path fill="none" d="M2709.82 247.01c68.2 16.88 167.57 41.47 237.27 58.72" style="stroke:#1a83af;stroke-width:2"/><path fill="#1A83AF" d="m2952.05 306.96-7.778-6.042 2.924 4.843-4.843 2.924 9.697-1.725z" style="stroke:#1a83af;stroke-width:2"/><path fill="none" d="M2644.96 247.27c8.88 15.49 20.24 38.15 25.04 59.73 24.19 108.69-16.46 241.24-35.73 294.82" style="stroke:#1a83af;stroke-width:2"/><path fill="#1A83AF" d="m2632.48 606.75 6.823-7.103-5.122 2.401-2.401-5.122.7 9.824z" style="stroke:#1a83af;stroke-width:2"/><path fill="none" d="M3590.66 347.03C3603.97 381.92 3630 458.7 3630 526v202c0 63 11.63 136.53 18.35 173.75" style="stroke:#1a83af;stroke-width:2"/><path fill="#1A83AF" d="m3649.3 906.97 2.318-9.572-3.216 4.653-4.654-3.216 5.552 8.135z" style="stroke:#1a83af;stroke-width:2"/><path fill="none" d="M1522.8 347.02c-26.93 15.63-65.71 38.6-98.8 59.98-50.01 32.31-106.41 72.27-140.3 96.68" style="stroke:#1a83af;stroke-width:2"/><path fill="#1A83AF" d="m1279.27 506.88 9.643-2.002-5.582-.915.915-5.582-4.976 8.499z" style="stroke:#1a83af;stroke-width:2"/><path fill="none" d="M1612.36 340.61c73.82 16.52 204.09 45.66 291.64 65.25" style="stroke:#1a83af;stroke-width:2"/><path fill="#1A83AF" d="m1908.92 406.96-7.902-5.88 3.024 4.782-4.78 3.023 9.658-1.925z" style="stroke:#1a83af;stroke-width:2"/><path fill="none" d="M1550.3 347.19C1540.38 382.33 1521 459.5 1521 526v202c0 115.18-136.71 163.38-248.46 183.53" style="stroke:#1a83af;stroke-width:2"/><path fill="#1A83AF" d="m1267.58 912.41 9.567 2.34-4.646-3.227 3.227-4.646-8.148 5.533z" style="stroke:#1a83af;stroke-width:2"/><path fill="none" d="M1576.38 347.09c56.07 52.55 212.49 199.13 273.15 255.98" style="stroke:#1a83af;stroke-width:2"/><path fill="#1A83AF" d="m1853.38 606.68-3.849-9.066.194 5.654-5.653.194 9.308 3.218z" style="stroke:#1a83af;stroke-width:2"/><path fill="none" d="M1499.8 332.02C1359.33 342.27 981.7 371.16 668 407c-7.12.81-14.44 1.7-21.83 2.63" style="stroke:#1a83af;stroke-width:2"/><path fill="#1A83AF" d="m641.06 410.27 9.432 2.836-4.472-3.465 3.465-4.471-8.425 5.1z" style="stroke:#1a83af;stroke-width:2"/><path fill="none" d="M1585.4 347.19c41.51 26.25 120.41 73.15 193.6 99.81 284.28 103.56 645.27 155 786.01 172.2" style="stroke:#1a83af;stroke-width:2"/><path fill="#1A83AF" d="m2570.33 619.85-8.454-5.053 3.49 4.452-4.451 3.49 9.415-2.889z" style="stroke:#1a83af;stroke-width:2"/><path fill="none" d="M1506.33 347.13c-40 15.6-97.57 38.47-147.33 59.87-39.1 16.81-47.17 25.02-87 40-61.59 23.17-133.18 44.11-186.57 58.59" style="stroke:#1a83af;stroke-width:2"/><path fill="#1A83AF" d="m1080.32 506.98 9.73 1.523-4.902-2.823 2.823-4.902-7.651 6.202z" style="stroke:#1a83af;stroke-width:2"/><path fill="none" d="M1540.95 347.17C1503.05 395.05 1403.58 518.08 1360 547c-41.16 27.31-92.73 46.16-136.61 58.57" style="stroke:#1a83af;stroke-width:2"/><path fill="#1A83AF" d="m1218.36 606.98 9.744 1.435-4.928-2.778 2.778-4.928-7.594 6.271z" style="stroke:#1a83af;stroke-width:2"/><path fill="none" d="m1499.87 341.32-271.46 64.41" style="stroke:#1a83af;stroke-width:2"/><path fill="#1A83AF" d="m1223.11 406.99 9.68 1.812-4.815-2.968 2.967-4.816-7.832 5.972z" style="stroke:#1a83af;stroke-width:2"/><path fill="none" d="M1610.7 347.03c42.12 15.09 101.53 37.35 152.3 59.97 35.59 15.86 41.13 27.4 78 40 366.24 125.17 528.56-46.34 856 160 77.06 48.56 129.02 148.79 149.81 194.86" style="stroke:#1a83af;stroke-width:2"/><path fill="#1A83AF" d="m2848.96 806.68-.032-9.849-2.013 5.286-5.287-2.013 7.332 6.576z" style="stroke:#1a83af;stroke-width:2"/><path fill="none" d="M1612.14 335.33c114.79 14.97 379.62 49.53 547.17 71.4" style="stroke:#1a83af;stroke-width:2"/><path fill="#1A83AF" d="m2164.74 407.44-8.396-5.148 3.44 4.49-4.492 3.44 9.448-2.782z" style="stroke:#1a83af;stroke-width:2"/><path fill="none" d="M1564.64 347.39C1590.98 404.1 1676.27 570.43 1802 647c71.36 43.46 163.79 63.1 236.45 71.93" style="stroke:#1a83af;stroke-width:2"/><path fill="#1A83AF" d="m2043.65 719.55-8.469-5.028 3.504 4.441-4.442 3.503 9.407-2.916z" style="stroke:#1a83af;stroke-width:2"/><path fill="none" d="M1499.97 327.96c-100.88 1.69-318.28 13.43-486.97 79.04-114.74 44.62-222.6 149.28-266.86 195.9" style="stroke:#1a83af;stroke-width:2"/><path fill="#1A83AF" d="m742.56 606.69 9.081-3.812-5.654.171-.171-5.654-3.256 9.295z" style="stroke:#1a83af;stroke-width:2"/><path fill="none" d="M3011.41 347.13C2982.47 380.68 2928 453.45 2928 526v102c0 66.23-35.63 137.99-56.41 174.21" style="stroke:#1a83af;stroke-width:2"/><path fill="#1A83AF" d="m2868.88 806.87 7.965-5.793-5.464 1.463-1.464-5.464-1.037 9.794z" style="stroke:#1a83af;stroke-width:2"/><path fill="none" d="M2889.69 131.92c139.84 8.76 452.65 32.58 550.31 75.08 50.81 22.11 97.74 68.03 123.17 95.92" style="stroke:#1a83af;stroke-width:2"/><path fill="#1A83AF" d="m3566.77 306.9-3.085-9.353-.275 5.65-5.65-.274 9.01 3.977z" style="stroke:#1a83af;stroke-width:2"/><path fill="none" d="M2889.81 133.34c117.07 10.03 349.22 34.3 420.19 73.66 61.43 34.07 104 48.76 104 119v502c0 55.26 5.8 82.86-36 119-61.5 53.17-286.91 70.57-422.21 76.25" style="stroke:#1a83af;stroke-width:2"/><path fill="#1A83AF" d="m2950.61 1023.47 9.153 3.637-4.157-3.837 3.837-4.156-8.833 4.356z" style="stroke:#1a83af;stroke-width:2"/><path fill="none" d="M2752.38 128.91C2393.54 133.85 740.94 159.05 518 207c-136.2 29.29-290-20.32-290 119v402c0 153.46 504.38 188.13 758.81 195.85" style="stroke:#1a83af;stroke-width:2"/><path fill="#1A83AF" d="m992.02 924.01-8.87-4.28 3.873 4.123-4.124 3.872 9.121-3.715z" style="stroke:#1a83af;stroke-width:2"/><path fill="none" d="M2752.35 128.76c-151.84 2.83-510.76 16.08-612.35 78.24-75.78 46.37-120.66 148.62-137.87 195.13" style="stroke:#1a83af;stroke-width:2"/><path fill="#1A83AF" d="m2000.36 406.98 6.842-7.084-5.129 2.387-2.387-5.129.674 9.826z" style="stroke:#1a83af;stroke-width:2"/><path fill="none" d="M2815.3 147.19C2805.38 182.33 2786 259.5 2786 326v102c0 78.92-77.95 143.87-125.37 176.09" style="stroke:#1a83af;stroke-width:2"/><path fill="#1A83AF" d="m2656.42 606.92 9.703-1.687-5.55-1.096 1.097-5.55-5.25 8.333z" style="stroke:#1a83af;stroke-width:2"/><path fill="none" d="M2784.31 147.13c-31.58 16.46-77.1 40.19-109.96 57.31" style="stroke:#1a83af;stroke-width:2"/><path fill="#1A83AF" d="m2669.6 206.92 9.83-.598-5.393-1.707 1.707-5.393-6.144 7.698z" style="stroke:#1a83af;stroke-width:2"/><path fill="none" d="M2752.32 128.47c-163.25 2.2-586.76 14.19-933.32 78.53-153.61 28.52-188.36 51.89-337 100-100.11 32.4-215.5 73.78-282.55 98.23" style="stroke:#1a83af;stroke-width:2"/><path fill="#1A83AF" d="m1194.71 406.96 9.826.674-5.129-2.387 2.388-5.129-7.085 6.842z" style="stroke:#1a83af;stroke-width:2"/><path fill="none" d="M2889.62 128.54c222.4 2.36 943.19 14.74 1535.38 78.46 7.21.78 14.66 1.71 22.14 2.75" style="stroke:#1a83af;stroke-width:2"/><path fill="#1A83AF" d="m4452.31 210.48-8.35-5.222 3.4 4.52-4.522 3.4 9.472-2.698z" style="stroke:#1a83af;stroke-width:2"/><path fill="none" d="M2752.29 129.89c-67.01 5.21-168.48 22.43-236.29 77.11-30.18 24.34-46.56 67.8-54.27 94.92" style="stroke:#1a83af;stroke-width:2"/><path fill="#1A83AF" d="m2460.39 306.79 6.25-7.612-4.92 2.792-2.792-4.92 1.462 9.74z" style="stroke:#1a83af;stroke-width:2"/><path fill="none" d="M2889.62 134.3c106.46 10.8 305.41 35.35 365.38 72.7 55.83 34.78 88 53.22 88 119v402c0 66.55-37.14 138.18-58.8 174.29" style="stroke:#1a83af;stroke-width:2"/><path fill="#1A83AF" d="m3281.39 906.94 8.088-5.62-5.495 1.345-1.345-5.494-1.248 9.769z" style="stroke:#1a83af;stroke-width:2"/><path fill="none" d="M2841.32 147.35c38.62 36.76 122.44 116.55 163.72 155.84" style="stroke:#1a83af;stroke-width:2"/><path fill="#1A83AF" d="m3008.9 306.87-3.757-9.104.137 5.655-5.655.137 9.275 3.312z" style="stroke:#1a83af;stroke-width:2"/><path fill="none" d="M2889.78 129.13c177.44 3.75 646.7 19.08 789.22 77.87 76.75 31.66 144 35.97 144 119v502c0 67.94-42.78 139.14-67.64 174.77" style="stroke:#1a83af;stroke-width:2"/><path fill="#1A83AF" d="m3752.42 1006.94 8.448-5.063-5.573.972-.973-5.572-1.902 9.663z" style="stroke:#1a83af;stroke-width:2"/><path fill="none" d="M2752.32 128.77C2426.48 132.7 1049.08 152.49 977 207c-85.29 64.5-52.96 139.29-17 240 7.06 19.78 19.11 40.21 29.11 55.35" style="stroke:#1a83af;stroke-width:2"/><path fill="#1A83AF" d="m992.14 506.86-1.664-9.707-1.11 5.547-5.547-1.11 8.321 5.27z" style="stroke:#1a83af;stroke-width:2"/><path fill="none" d="M2752.41 131.28c-159.23 8.31-543.27 32.67-581.41 75.72-41.26 46.58-31.04 86.07 0 140 15.52 26.96 44.15 45.57 71.16 57.92" style="stroke:#1a83af;stroke-width:2"/><path fill="#1A83AF" d="m2246.83 407-6.595-7.314 2.027 5.28-5.28 2.028 9.848.006z" style="stroke:#1a83af;stroke-width:2"/><path fill="none" d="M2826.86 147.18C2837.07 182.3 2857 259.44 2857 326v475.64" style="stroke:#1a83af;stroke-width:2"/><path fill="#1A83AF" d="m2857 806.89 4-9-4 4-4-4 4 9z" style="stroke:#1a83af;stroke-width:2"/><path fill="none" d="M2752.3 137.58c-70.76 11.29-183.35 33.24-275.3 69.42-82.64 32.52-128.61 23.08-173 100-8.88 15.4-10.55 25.69 0 40 53.57 72.64 140.43-12.64 194 60 10.55 14.31 7.61 23.93 0 40-61.42 129.62-215.82 219.04-294.03 257.61" style="stroke:#1a83af;stroke-width:2"/><path fill="#1A83AF" d="m2199.39 706.85 9.842-.36-5.35-1.836 1.837-5.35-6.329 7.546z" style="stroke:#1a83af;stroke-width:2"/><path fill="none" d="M2889.53 129.25C3135.46 134.08 3996.59 153.97 4705 207c7.22.54 14.6 1.14 22.06 1.79" style="stroke:#1a83af;stroke-width:2"/><path fill="#1A83AF" d="m4732.23 209.25-8.61-4.78 3.63 4.338-4.339 3.63 9.319-3.188z" style="stroke:#1a83af;stroke-width:2"/><path fill="none" d="M2752.46 130.7C2610.62 137.14 2275 156.78 1998 207c-138.19 25.05-296.23 72.23-380.86 99.04" style="stroke:#1a83af;stroke-width:2"/><path fill="#1A83AF" d="m1612.18 307.62 9.788 1.09-5.022-2.602 2.602-5.023-7.368 6.535z" style="stroke:#1a83af;stroke-width:2"/><path fill="none" d="M2752.38 128.58C2430.73 131.59 1085.23 147.71 1020 207c-79.47 72.23-92 153.76-28 240 20.28 27.33 100.08 48.87 166.17 62.52" style="stroke:#1a83af;stroke-width:2"/><path fill="#1A83AF" d="m1163.3 510.57-8.002-5.741 3.106 4.728-4.728 3.106 9.624-2.093z" style="stroke:#1a83af;stroke-width:2"/><path fill="none" d="M2889.82 129.62C3161.2 136.31 4148.93 163.42 4282 207c77.2 25.28 96.56 41.57 153 100 27.64 28.61 49.52 69.68 61.61 95.33" style="stroke:#1a83af;stroke-width:2"/><path fill="#1A83AF" d="m4498.75 406.93-.157-9.848-1.947 5.312-5.311-1.946 7.415 6.482z" style="stroke:#1a83af;stroke-width:2"/><path fill="none" d="M2889.77 131.49c179.12 9.34 674.76 36.88 1086.23 75.51 24.42 2.29 50.89 5.26 75.1 8.17" style="stroke:#1a83af;stroke-width:2"/><path fill="#1A83AF" d="m4056.23 215.79-8.456-5.05 3.492 4.45-4.45 3.493 9.414-2.893z" style="stroke:#1a83af;stroke-width:2"/><path fill="none" d="M2889.84 128.24c200.84 1.48 783.02 11.62 959.16 78.76 55.14 21.02 107.08 68.08 134.91 96.31" style="stroke:#1a83af;stroke-width:2"/><path fill="#1A83AF" d="m3987.51 307-3.424-9.235-.068 5.657-5.657-.069 9.149 3.647z" style="stroke:#1a83af;stroke-width:2"/><path fill="none" d="M2889.72 128.73C3213.4 132.48 4573.17 151.47 4643 207c28.16 22.39 33.58 66.56 33.97 94.34" style="stroke:#1a83af;stroke-width:2"/><path fill="#1A83AF" d="m4676.99 306.66 3.974-9.011-3.988 4.011-4.012-3.989 4.026 8.989z" style="stroke:#1a83af;stroke-width:2"/><path fill="none" d="M2752.38 128.71C2395.06 132.64 760.17 153.5 668 207c-75.44 43.79-114.84 147.84-129.35 195.01" style="stroke:#1a83af;stroke-width:2"/><path fill="#1A83AF" d="m537.16 406.94 6.448-7.445-4.992 2.662-2.661-4.992 1.205 9.775z" style="stroke:#1a83af;stroke-width:2"/><path fill="none" d="M2752.41 129.09C2390.52 135 715.78 164.58 615 207c-130.63 54.99-281.7 117.74-210 240 50.81 86.64 160.55 134.48 237.28 158.43" style="stroke:#1a83af;stroke-width:2"/><path fill="#1A83AF" d="m647.28 606.98-7.427-6.468 2.648 4.999-5 2.647 9.779-1.178z" style="stroke:#1a83af;stroke-width:2"/><path fill="none" d="M2889.99 128.1C3016.33 132.31 3272 161.18 3272 326v402c0 93.23-108.25 149.59-182 177.18" style="stroke:#1a83af;stroke-width:2"/><path fill="#1A83AF" d="m3085.19 906.95 9.83.611-5.144-2.354 2.355-5.144-7.041 6.887z" style="stroke:#1a83af;stroke-width:2"/><path fill="none" d="M2752.38 128.77C2392.3 133.03 718 155.31 202 207c-7.11.71-14.46 1.61-21.82 2.62" style="stroke:#1a83af;stroke-width:2"/><path fill="#1A83AF" d="m175.08 210.34 9.47 2.702-4.52-3.401 3.402-4.52-8.352 5.219z" style="stroke:#1a83af;stroke-width:2"/><path fill="none" d="M2752.18 130.46C2540.8 138.28 1882.31 164.58 1338 207c-20.71 1.61-42.7 3.62-64.01 5.71" style="stroke:#1a83af;stroke-width:2"/><path fill="#1A83AF" d="m1268.88 213.22 9.354 3.082-4.379-3.58 3.58-4.38-8.555 4.878z" style="stroke:#1a83af;stroke-width:2"/><path fill="none" d="M2752.33 132.37C2606.23 142.36 2275.17 169 2242 207c-40.92 46.88-37.88 90.64 0 140 66.37 86.49 288.99 12.46 224 100-16.38 22.06-385.07 123.29-532.18 162.97" style="stroke:#1a83af;stroke-width:2"/><path fill="#1A83AF" d="m1928.68 611.36 9.73 1.523-4.902-2.823 2.823-4.902-7.651 6.202z" style="stroke:#1a83af;stroke-width:2"/><path fill="none" d="M2889.84 127.98C3105.22 129.74 3752 149.7 3752 326v402c0 69.43-49.3 139.47-78.32 174.69" style="stroke:#1a83af;stroke-width:2"/><path fill="#1A83AF" d="m3670.24 906.8 8.833-4.356-5.633.514-.515-5.634-2.685 9.476z" style="stroke:#1a83af;stroke-width:2"/><path fill="none" d="M2889.82 133.18C2999.32 145.58 3201 187.26 3201 326v202c0 69.71-50.3 139.64-79.9 174.76" style="stroke:#1a83af;stroke-width:2"/><path fill="#1A83AF" d="m3117.59 706.87 8.885-4.25-5.64.447-.445-5.64-2.8 9.443z" style="stroke:#1a83af;stroke-width:2"/><path fill="none" d="M2889.67 128.63C3155.85 131.52 4110.71 146.06 4231 207c40.85 20.7 70.87 66.89 86.29 95.25" style="stroke:#1a83af;stroke-width:2"/><path fill="#1A83AF" d="m4319.82 306.98-.686-9.825-1.658 5.409-5.408-1.659 7.752 6.075z" style="stroke:#1a83af;stroke-width:2"/><path fill="none" d="M2889.91 128.15C3163.38 129.25 4198.57 138 5047 207c4.02.33 8.1.68 12.21 1.07" style="stroke:#1a83af;stroke-width:2"/><path fill="#1A83AF" d="m5064.44 208.56-8.582-4.832 3.604 4.36-4.36 3.605 9.338-3.133z" style="stroke:#1a83af;stroke-width:2"/><path fill="none" d="M2752.5 128.55C2421.87 131.49 1004.12 147.53 933 207c-118.15 98.8-158.98 216.47-67 340 20.19 27.11 98.54 48.37 164.68 61.97" style="stroke:#1a83af;stroke-width:2"/><path fill="#1A83AF" d="m1035.83 610.01-8.018-5.719 3.119 4.72-4.72 3.119 9.619-2.12z" style="stroke:#1a83af;stroke-width:2"/><path fill="none" d="M4144.04 247.19c13.45 26.48 41.28 73.88 78.96 99.81 57.1 39.29 133.28 59.12 192.36 69.08" style="stroke:#1a83af;stroke-width:2"/><path fill="#1A83AF" d="m4420.3 416.9-8.228-5.414 3.295 4.599-4.599 3.294 9.532-2.479z" style="stroke:#1a83af;stroke-width:2"/><path fill="none" d="M4109.63 247.13c-21.57 16.25-52.54 39.6-75.19 56.68" style="stroke:#1a83af;stroke-width:2"/><path fill="#1A83AF" d="m4030.31 306.92 9.595-2.222-5.602-.787.787-5.602-4.78 8.611z" style="stroke:#1a83af;stroke-width:2"/><path fill="none" d="M4172.87 247.13c32.71 16.52 79.94 40.38 113.87 57.52" style="stroke:#1a83af;stroke-width:2"/><path fill="#1A83AF" d="m4291.23 306.92-6.232-7.627 1.769 5.374-5.374 1.768 9.837.485z" style="stroke:#1a83af;stroke-width:2"/></svg>