<svg xmlns="http://www.w3.org/2000/svg" xmlns:xlink="http://www.w3.org/1999/xlink" width="2024" height="1847" preserveAspectRatio="none" style="width:2024px;height:1847px;background:#00000000"><a xlink:actuate="onRequest" xlink:href="#a" xlink:show="new" xlink:title="#resource" xlink:type="simple" target="_top"><rect id="a" width="195" height="275.836" x="839" y="7" fill="#3D176E" rx="2.5" ry="2.5" style="stroke:#000d19;stroke-width:1.5"/><circle cx="891.75" cy="26.895" r="11" fill="#E98DF7" style="stroke:#000d19;stroke-width:1"/><path d="M894.719 32.535q-.578.297-1.219.438-.64.156-1.344.156-2.5 0-3.828-1.64-1.312-1.657-1.312-4.782t1.312-4.781q1.328-1.656 3.828-1.656.703 0 1.344.156.656.156 1.219.453v2.719q-.625-.578-1.219-.844-.594-.281-1.219-.281-1.343 0-2.031 1.078-.688 1.062-.688 3.156 0 2.094.688 3.172.688 1.062 2.031 1.062.625 0 1.219-.265.594-.281 1.219-.86v2.72Z"/><text x="917.25" y="32.78" fill="#D9B8FF" font-family="Helvetica" font-size="17" textLength="71">resource</text><path d="M840 46.789h193" style="stroke:#000d19;stroke-width:1.5"/><text x="850" y="65.999" fill="#D9B8FF" font-family="sans-serif" font-size="11" font-weight="bold" textLength="12">id</text><text x="862" y="65.999" fill="#D9B8FF" font-family="sans-serif" font-size="11" textLength="41">: string</text><text x="850" y="88.804" fill="#D9B8FF" font-family="sans-serif" font-size="11" font-weight="bold" textLength="28">tags</text><text x="878" y="88.804" fill="#D9B8FF" font-family="sans-serif" font-size="11" textLength="145">: dictionary[string, string]</text><text x="850" y="111.609" fill="#D9B8FF" font-family="sans-serif" font-size="11" font-weight="bold" textLength="35">name</text><text x="885" y="111.609" fill="#D9B8FF" font-family="sans-serif" font-size="11" textLength="41">: string</text><text x="850" y="134.414" fill="#D9B8FF" font-family="sans-serif" font-size="11" font-weight="bold" textLength="35">ctime</text><text x="885" y="134.414" fill="#D9B8FF" font-family="sans-serif" font-size="11" textLength="58">: datetime</text><text x="850" y="157.218" fill="#D9B8FF" font-family="sans-serif" font-size="11" font-weight="bold" textLength="24">age</text><text x="874" y="157.218" fill="#D9B8FF" font-family="sans-serif" font-size="11" textLength="55">: duration</text><text x="850" y="180.023" fill="#D9B8FF" font-family="sans-serif" font-size="11" font-weight="bold" textLength="39">mtime</text><text x="889" y="180.023" fill="#D9B8FF" font-family="sans-serif" font-size="11" textLength="58">: datetime</text><text x="850" y="202.828" fill="#D9B8FF" font-family="sans-serif" font-size="11" font-weight="bold" textLength="75">last_update</text><text x="925" y="202.828" fill="#D9B8FF" font-family="sans-serif" font-size="11" textLength="55">: duration</text><text x="850" y="225.632" fill="#D9B8FF" font-family="sans-serif" font-size="11" font-weight="bold" textLength="36">atime</text><text x="886" y="225.632" fill="#D9B8FF" font-family="sans-serif" font-size="11" textLength="58">: datetime</text><text x="850" y="248.437" fill="#D9B8FF" font-family="sans-serif" font-size="11" font-weight="bold" textLength="74">last_access</text><text x="924" y="248.437" fill="#D9B8FF" font-family="sans-serif" font-size="11" textLength="55">: duration</text><text x="850" y="271.242" fill="#D9B8FF" font-family="sans-serif" font-size="11" font-weight="bold" textLength="27">kind</text><text x="877" y="271.242" fill="#D9B8FF" font-family="sans-serif" font-size="11" textLength="41">: string</text></a><a xlink:actuate="onRequest" xlink:href="#b" xlink:show="new" xlink:title="#aws_resource" xlink:type="simple" target="_top"><rect id="b" width="155" height="70.594" x="753" y="404" fill="#3D176E" rx="2.5" ry="2.5" style="stroke:#000d19;stroke-width:1.5"/><circle cx="768" cy="423.894" r="11" fill="#E98DF7" style="stroke:#000d19;stroke-width:1"/><path d="M770.969 429.535q-.578.297-1.219.438-.64.156-1.344.156-2.5 0-3.828-1.64-1.312-1.657-1.312-4.782t1.312-4.781q1.328-1.656 3.828-1.656.703 0 1.344.156.656.156 1.219.453v2.719q-.625-.579-1.219-.844-.594-.281-1.219-.281-1.343 0-2.031 1.078-.688 1.062-.688 3.156 0 2.094.688 3.172.688 1.062 2.031 1.062.625 0 1.219-.265.594-.281 1.219-.86v2.72Z"/><text x="787" y="429.78" fill="#D9B8FF" font-family="Helvetica" font-size="17" textLength="113">aws_resource</text><path d="M754 443.789h153" style="stroke:#000d19;stroke-width:1.5"/><text x="764" y="463" fill="#D9B8FF" font-family="sans-serif" font-size="11" font-weight="bold" textLength="21">arn</text><text x="785" y="463" fill="#D9B8FF" font-family="sans-serif" font-size="11" textLength="41">: string</text></a><a xlink:actuate="onRequest" xlink:href="#c" xlink:show="new" xlink:title="#aws_lambda_file_system_config" xlink:type="simple" target="_top"><rect id="c" width="309" height="93.398" x="7" y="1457" fill="#3D176E" rx="2.5" ry="2.5" style="stroke:#000d19;stroke-width:1.5"/><circle cx="22" cy="1476.895" r="11" fill="#E98DF7" style="stroke:#000d19;stroke-width:1"/><path d="M24.969 1482.535q-.578.297-1.219.438-.64.156-1.344.156-2.5 0-3.828-1.64-1.312-1.657-1.312-4.782t1.312-4.781q1.328-1.656 3.828-1.656.703 0 1.344.156.656.156 1.219.453v2.719q-.625-.578-1.219-.844-.594-.281-1.219-.281-1.343 0-2.031 1.078-.688 1.062-.688 3.156 0 2.094.688 3.172.688 1.062 2.031 1.062.625 0 1.219-.265.594-.281 1.219-.86v2.72Z"/><text x="41" y="1482.78" fill="#D9B8FF" font-family="Helvetica" font-size="17" textLength="267">aws_lambda_file_system_config</text><path d="M8 1496.789h307" style="stroke:#000d19;stroke-width:1.5"/><text x="18" y="1515.999" fill="#D9B8FF" font-family="sans-serif" font-size="11" font-weight="bold" textLength="21">arn</text><text x="39" y="1515.999" fill="#D9B8FF" font-family="sans-serif" font-size="11" textLength="41">: string</text><text x="18" y="1538.804" fill="#D9B8FF" font-family="sans-serif" font-size="11" font-weight="bold" textLength="153">local_mount_source_arn</text><text x="171" y="1538.804" fill="#D9B8FF" font-family="sans-serif" font-size="11" textLength="41">: string</text></a><a xlink:actuate="onRequest" xlink:href="#d" xlink:show="new" xlink:title="#aws_lambda_image_config_error" xlink:type="simple" target="_top"><rect id="d" width="316" height="93.398" x="724.5" y="1702" fill="#3D176E" rx="2.5" ry="2.5" style="stroke:#000d19;stroke-width:1.5"/><circle cx="739.5" cy="1721.895" r="11" fill="#E98DF7" style="stroke:#000d19;stroke-width:1"/><path d="M742.469 1727.535q-.578.297-1.219.438-.64.156-1.344.156-2.5 0-3.828-1.64-1.312-1.657-1.312-4.782t1.312-4.781q1.328-1.656 3.828-1.656.703 0 1.344.156.656.156 1.219.453v2.719q-.625-.578-1.219-.844-.594-.281-1.219-.281-1.343 0-2.031 1.078-.688 1.062-.688 3.156 0 2.094.688 3.172.688 1.062 2.031 1.062.625 0 1.219-.265.594-.281 1.219-.86v2.72Z"/><text x="758.5" y="1727.78" fill="#D9B8FF" font-family="Helvetica" font-size="17" textLength="274">aws_lambda_image_config_error</text><path d="M725.5 1741.789h314" style="stroke:#000d19;stroke-width:1.5"/><text x="735.5" y="1760.999" fill="#D9B8FF" font-family="sans-serif" font-size="11" font-weight="bold" textLength="68">error_code</text><text x="803.5" y="1760.999" fill="#D9B8FF" font-family="sans-serif" font-size="11" textLength="41">: string</text><text x="735.5" y="1783.804" fill="#D9B8FF" font-family="sans-serif" font-size="11" font-weight="bold" textLength="57">message</text><text x="792.5" y="1783.804" fill="#D9B8FF" font-family="sans-serif" font-size="11" textLength="41">: string</text></a><a xlink:actuate="onRequest" xlink:href="#e" xlink:show="new" xlink:title="#aws_lambda_image_config" xlink:type="simple" target="_top"><rect id="e" width="266" height="116.203" x="1075.5" y="1690.5" fill="#3D176E" rx="2.5" ry="2.5" style="stroke:#000d19;stroke-width:1.5"/><circle cx="1090.5" cy="1710.395" r="11" fill="#E98DF7" style="stroke:#000d19;stroke-width:1"/><path d="M1093.469 1716.035q-.578.297-1.219.438-.64.156-1.344.156-2.5 0-3.828-1.64-1.312-1.657-1.312-4.782t1.312-4.781q1.328-1.656 3.828-1.656.703 0 1.344.156.656.156 1.219.453v2.719q-.625-.578-1.219-.844-.594-.281-1.219-.281-1.343 0-2.031 1.078-.688 1.062-.688 3.156 0 2.094.688 3.172.688 1.062 2.031 1.062.625 0 1.219-.265.594-.281 1.219-.86v2.72Z"/><text x="1109.5" y="1716.28" fill="#D9B8FF" font-family="Helvetica" font-size="17" textLength="224">aws_lambda_image_config</text><path d="M1076.5 1730.289h264" style="stroke:#000d19;stroke-width:1.5"/><text x="1086.5" y="1749.499" fill="#D9B8FF" font-family="sans-serif" font-size="11" font-weight="bold" textLength="72">entry_point</text><text x="1158.5" y="1749.499" fill="#D9B8FF" font-family="sans-serif" font-size="11" textLength="49">: string[]</text><text x="1086.5" y="1772.304" fill="#D9B8FF" font-family="sans-serif" font-size="11" font-weight="bold" textLength="61">command</text><text x="1147.5" y="1772.304" fill="#D9B8FF" font-family="sans-serif" font-size="11" textLength="49">: string[]</text><text x="1086.5" y="1795.109" fill="#D9B8FF" font-family="sans-serif" font-size="11" font-weight="bold" textLength="114">working_directory</text><text x="1200.5" y="1795.109" fill="#D9B8FF" font-family="sans-serif" font-size="11" textLength="41">: string</text></a><a xlink:actuate="onRequest" xlink:href="#f" xlink:show="new" xlink:title="#aws_lambda_layer" xlink:type="simple" target="_top"><rect id="f" width="238" height="139.008" x="351.5" y="1434" fill="#3D176E" rx="2.5" ry="2.5" style="stroke:#000d19;stroke-width:1.5"/><circle cx="384.95" cy="1453.895" r="11" fill="#E98DF7" style="stroke:#000d19;stroke-width:1"/><path d="M387.919 1459.535q-.578.297-1.219.438-.64.156-1.344.156-2.5 0-3.828-1.64-1.312-1.657-1.312-4.782t1.312-4.781q1.328-1.656 3.828-1.656.703 0 1.344.156.656.156 1.219.453v2.719q-.625-.578-1.219-.844-.594-.281-1.219-.281-1.344 0-2.031 1.078-.688 1.062-.688 3.156 0 2.094.688 3.172.688 1.062 2.031 1.062.625 0 1.219-.265.594-.281 1.219-.86v2.72Z"/><text x="408.05" y="1459.78" fill="#D9B8FF" font-family="Helvetica" font-size="17" textLength="155">aws_lambda_layer</text><path d="M352.5 1473.789h236" style="stroke:#000d19;stroke-width:1.5"/><text x="362.5" y="1492.999" fill="#D9B8FF" font-family="sans-serif" font-size="11" font-weight="bold" textLength="21">arn</text><text x="383.5" y="1492.999" fill="#D9B8FF" font-family="sans-serif" font-size="11" textLength="41">: string</text><text x="362.5" y="1515.804" fill="#D9B8FF" font-family="sans-serif" font-size="11" font-weight="bold" textLength="63">code_size</text><text x="425.5" y="1515.804" fill="#D9B8FF" font-family="sans-serif" font-size="11" textLength="36">: int64</text><text x="362.5" y="1538.609" fill="#D9B8FF" font-family="sans-serif" font-size="11" font-weight="bold" textLength="175">signing_profile_version_arn</text><text x="537.5" y="1538.609" fill="#D9B8FF" font-family="sans-serif" font-size="11" textLength="41">: string</text><text x="362.5" y="1561.414" fill="#D9B8FF" font-family="sans-serif" font-size="11" font-weight="bold" textLength="100">signing_job_arn</text><text x="462.5" y="1561.414" fill="#D9B8FF" font-family="sans-serif" font-size="11" textLength="41">: string</text></a><a xlink:actuate="onRequest" xlink:href="#g" xlink:show="new" xlink:title="#aws_lambda_function" xlink:type="simple" target="_top"><rect id="g" width="451" height="754.734" x="711" y="596" fill="#3D176E" rx="2.5" ry="2.5" style="stroke:#000d19;stroke-width:1.5"/><circle cx="836.25" cy="615.894" r="11" fill="#E98DF7" style="stroke:#000d19;stroke-width:1"/><path d="M839.219 621.535q-.578.297-1.219.438-.64.156-1.344.156-2.5 0-3.828-1.64-1.312-1.657-1.312-4.782t1.312-4.781q1.328-1.657 3.828-1.657.703 0 1.344.157.656.156 1.219.453v2.719q-.625-.578-1.219-.844-.594-.281-1.219-.281-1.343 0-2.031 1.078-.688 1.062-.688 3.156 0 2.094.688 3.172.688 1.062 2.031 1.062.625 0 1.219-.265.594-.282 1.219-.86v2.72Z"/><text x="861.75" y="621.78" fill="#D9B8FF" font-family="Helvetica" font-size="17" textLength="182">aws_lambda_function</text><path d="M712 635.789h449" style="stroke:#000d19;stroke-width:1.5"/><text x="722" y="655" fill="#D9B8FF" font-family="sans-serif" font-size="11" font-weight="bold" textLength="108">function_runtime</text><text x="830" y="655" fill="#D9B8FF" font-family="sans-serif" font-size="11" textLength="41">: string</text><text x="722" y="677.804" fill="#D9B8FF" font-family="sans-serif" font-size="11" font-weight="bold" textLength="84">function_role</text><text x="806" y="677.804" fill="#D9B8FF" font-family="sans-serif" font-size="11" textLength="41">: string</text><text x="722" y="700.609" fill="#D9B8FF" font-family="sans-serif" font-size="11" font-weight="bold" textLength="108">function_handler</text><text x="830" y="700.609" fill="#D9B8FF" font-family="sans-serif" font-size="11" textLength="41">: string</text><text x="722" y="723.414" fill="#D9B8FF" font-family="sans-serif" font-size="11" font-weight="bold" textLength="122">function_code_size</text><text x="844" y="723.414" fill="#D9B8FF" font-family="sans-serif" font-size="11" textLength="36">: int64</text><text x="722" y="746.218" fill="#D9B8FF" font-family="sans-serif" font-size="11" font-weight="bold" textLength="131">function_description</text><text x="853" y="746.218" fill="#D9B8FF" font-family="sans-serif" font-size="11" textLength="41">: string</text><text x="722" y="769.023" fill="#D9B8FF" font-family="sans-serif" font-size="11" font-weight="bold" textLength="108">function_timeout</text><text x="830" y="769.023" fill="#D9B8FF" font-family="sans-serif" font-size="11" textLength="36">: int64</text><text x="722" y="791.828" fill="#D9B8FF" font-family="sans-serif" font-size="11" font-weight="bold" textLength="141">function_memory_size</text><text x="863" y="791.828" fill="#D9B8FF" font-family="sans-serif" font-size="11" textLength="36">: int64</text><text x="722" y="814.632" fill="#D9B8FF" font-family="sans-serif" font-size="11" font-weight="bold" textLength="143">function_code_sha256</text><text x="865" y="814.632" fill="#D9B8FF" font-family="sans-serif" font-size="11" textLength="41">: string</text><text x="722" y="837.437" fill="#D9B8FF" font-family="sans-serif" font-size="11" font-weight="bold" textLength="106">function_version</text><text x="828" y="837.437" fill="#D9B8FF" font-family="sans-serif" font-size="11" textLength="41">: string</text><text x="722" y="860.242" fill="#D9B8FF" font-family="sans-serif" font-size="11" font-weight="bold" textLength="178">function_dead_letter_config</text><text x="900" y="860.242" fill="#D9B8FF" font-family="sans-serif" font-size="11" textLength="41">: string</text><text x="722" y="883.046" fill="#D9B8FF" font-family="sans-serif" font-size="11" font-weight="bold" textLength="139">function_environment</text><text x="861" y="883.046" fill="#D9B8FF" font-family="sans-serif" font-size="11" textLength="216">: aws_lambda_environment_response</text><text x="722" y="905.851" fill="#D9B8FF" font-family="sans-serif" font-size="11" font-weight="bold" textLength="139">function_kms_key_arn</text><text x="861" y="905.851" fill="#D9B8FF" font-family="sans-serif" font-size="11" textLength="41">: string</text><text x="722" y="928.656" fill="#D9B8FF" font-family="sans-serif" font-size="11" font-weight="bold" textLength="150">function_tracing_config</text><text x="872" y="928.656" fill="#D9B8FF" font-family="sans-serif" font-size="11" textLength="41">: string</text><text x="722" y="951.46" fill="#D9B8FF" font-family="sans-serif" font-size="11" font-weight="bold" textLength="130">function_master_arn</text><text x="852" y="951.46" fill="#D9B8FF" font-family="sans-serif" font-size="11" textLength="41">: string</text><text x="722" y="974.265" fill="#D9B8FF" font-family="sans-serif" font-size="11" font-weight="bold" textLength="128">function_revision_id</text><text x="850" y="974.265" fill="#D9B8FF" font-family="sans-serif" font-size="11" textLength="41">: string</text><text x="722" y="997.07" fill="#D9B8FF" font-family="sans-serif" font-size="11" font-weight="bold" textLength="98">function_layers</text><text x="820" y="997.07" fill="#D9B8FF" font-family="sans-serif" font-size="11" textLength="121">: aws_lambda_layer[]</text><text x="722" y="1019.875" fill="#D9B8FF" font-family="sans-serif" font-size="11" font-weight="bold" textLength="92">function_state</text><text x="814" y="1019.875" fill="#D9B8FF" font-family="sans-serif" font-size="11" textLength="41">: string</text><text x="722" y="1042.679" fill="#D9B8FF" font-family="sans-serif" font-size="11" font-weight="bold" textLength="142">function_state_reason</text><text x="864" y="1042.679" fill="#D9B8FF" font-family="sans-serif" font-size="11" textLength="41">: string</text><text x="722" y="1065.484" fill="#D9B8FF" font-family="sans-serif" font-size="11" font-weight="bold" textLength="179">function_state_reason_code</text><text x="901" y="1065.484" fill="#D9B8FF" font-family="sans-serif" font-size="11" textLength="41">: string</text><text x="722" y="1088.289" fill="#D9B8FF" font-family="sans-serif" font-size="11" font-weight="bold" textLength="180">function_last_update_status</text><text x="902" y="1088.289" fill="#D9B8FF" font-family="sans-serif" font-size="11" textLength="41">: string</text><text x="722" y="1111.093" fill="#D9B8FF" font-family="sans-serif" font-size="11" font-weight="bold" textLength="230">function_last_update_status_reason</text><text x="952" y="1111.093" fill="#D9B8FF" font-family="sans-serif" font-size="11" textLength="41">: string</text><text x="722" y="1133.898" fill="#D9B8FF" font-family="sans-serif" font-size="11" font-weight="bold" textLength="267">function_last_update_status_reason_code</text><text x="989" y="1133.898" fill="#D9B8FF" font-family="sans-serif" font-size="11" textLength="41">: string</text><text x="722" y="1156.703" fill="#D9B8FF" font-family="sans-serif" font-size="11" font-weight="bold" textLength="184">function_file_system_configs</text><text x="906" y="1156.703" fill="#D9B8FF" font-family="sans-serif" font-size="11" textLength="198">: aws_lambda_file_system_config[]</text><text x="722" y="1179.507" fill="#D9B8FF" font-family="sans-serif" font-size="11" font-weight="bold" textLength="147">function_package_type</text><text x="869" y="1179.507" fill="#D9B8FF" font-family="sans-serif" font-size="11" textLength="41">: string</text><text x="722" y="1202.312" fill="#D9B8FF" font-family="sans-serif" font-size="11" font-weight="bold" textLength="209">function_image_config_response</text><text x="931" y="1202.312" fill="#D9B8FF" font-family="sans-serif" font-size="11" textLength="220">: aws_lambda_image_config_response</text><text x="722" y="1225.117" fill="#D9B8FF" font-family="sans-serif" font-size="11" font-weight="bold" textLength="234">function_signing_profile_version_arn</text><text x="956" y="1225.117" fill="#D9B8FF" font-family="sans-serif" font-size="11" textLength="41">: string</text><text x="722" y="1247.921" fill="#D9B8FF" font-family="sans-serif" font-size="11" font-weight="bold" textLength="159">function_signing_job_arn</text><text x="881" y="1247.921" fill="#D9B8FF" font-family="sans-serif" font-size="11" textLength="41">: string</text><text x="722" y="1270.726" fill="#D9B8FF" font-family="sans-serif" font-size="11" font-weight="bold" textLength="144">function_architectures</text><text x="866" y="1270.726" fill="#D9B8FF" font-family="sans-serif" font-size="11" textLength="49">: string[]</text><text x="722" y="1293.531" fill="#D9B8FF" font-family="sans-serif" font-size="11" font-weight="bold" textLength="182">function_ephemeral_storage</text><text x="904" y="1293.531" fill="#D9B8FF" font-family="sans-serif" font-size="11" textLength="36">: int64</text><text x="722" y="1316.335" fill="#D9B8FF" font-family="sans-serif" font-size="11" font-weight="bold" textLength="97">function_policy</text><text x="819" y="1316.335" fill="#D9B8FF" font-family="sans-serif" font-size="11" textLength="117">: aws_lambda_policy</text><text x="722" y="1339.14" fill="#D9B8FF" font-family="sans-serif" font-size="11" font-weight="bold" textLength="122">function_url_config</text><text x="844" y="1339.14" fill="#D9B8FF" font-family="sans-serif" font-size="11" textLength="191">: aws_lambda_function_url_config</text></a><a xlink:actuate="onRequest" xlink:href="#h" xlink:show="new" xlink:title="#aws_lambda_cors" xlink:type="simple" target="_top"><rect id="h" width="188" height="184.617" x="1765.5" y="1656" fill="#3D176E" rx="2.5" ry="2.5" style="stroke:#000d19;stroke-width:1.5"/><circle cx="1780.5" cy="1675.895" r="11" fill="#E98DF7" style="stroke:#000d19;stroke-width:1"/><path d="M1783.469 1681.535q-.578.297-1.219.438-.64.156-1.344.156-2.5 0-3.828-1.64-1.312-1.657-1.312-4.782t1.312-4.781q1.328-1.656 3.828-1.656.703 0 1.344.156.656.156 1.219.453v2.719q-.625-.578-1.219-.844-.594-.281-1.219-.281-1.343 0-2.031 1.078-.688 1.062-.688 3.156 0 2.094.688 3.172.688 1.062 2.031 1.062.625 0 1.219-.265.594-.281 1.219-.86v2.72Z"/><text x="1799.5" y="1681.78" fill="#D9B8FF" font-family="Helvetica" font-size="17" textLength="146">aws_lambda_cors</text><path d="M1766.5 1695.789h186" style="stroke:#000d19;stroke-width:1.5"/><text x="1776.5" y="1714.999" fill="#D9B8FF" font-family="sans-serif" font-size="11" font-weight="bold" textLength="113">allow_credentials</text><text x="1889.5" y="1714.999" fill="#D9B8FF" font-family="sans-serif" font-size="11" textLength="53">: boolean</text><text x="1776.5" y="1737.804" fill="#D9B8FF" font-family="sans-serif" font-size="11" font-weight="bold" textLength="93">allow_headers</text><text x="1869.5" y="1737.804" fill="#D9B8FF" font-family="sans-serif" font-size="11" textLength="49">: string[]</text><text x="1776.5" y="1760.609" fill="#D9B8FF" font-family="sans-serif" font-size="11" font-weight="bold" textLength="96">allow_methods</text><text x="1872.5" y="1760.609" fill="#D9B8FF" font-family="sans-serif" font-size="11" textLength="49">: string[]</text><text x="1776.5" y="1783.414" fill="#D9B8FF" font-family="sans-serif" font-size="11" font-weight="bold" textLength="85">allow_origins</text><text x="1861.5" y="1783.414" fill="#D9B8FF" font-family="sans-serif" font-size="11" textLength="49">: string[]</text><text x="1776.5" y="1806.218" fill="#D9B8FF" font-family="sans-serif" font-size="11" font-weight="bold" textLength="104">expose_headers</text><text x="1880.5" y="1806.218" fill="#D9B8FF" font-family="sans-serif" font-size="11" textLength="49">: string[]</text><text x="1776.5" y="1829.023" fill="#D9B8FF" font-family="sans-serif" font-size="11" font-weight="bold" textLength="56">max_age</text><text x="1832.5" y="1829.023" fill="#D9B8FF" font-family="sans-serif" font-size="11" textLength="36">: int64</text></a><a xlink:actuate="onRequest" xlink:href="#i" xlink:show="new" xlink:title="#aws_lambda_policy" xlink:type="simple" target="_top"><rect id="i" width="276" height="116.203" x="624.5" y="1445.5" fill="#3D176E" rx="2.5" ry="2.5" style="stroke:#000d19;stroke-width:1.5"/><circle cx="672.75" cy="1465.395" r="11" fill="#E98DF7" style="stroke:#000d19;stroke-width:1"/><path d="M675.719 1471.035q-.578.297-1.219.438-.64.156-1.344.156-2.5 0-3.828-1.64-1.312-1.657-1.312-4.782t1.312-4.781q1.328-1.656 3.828-1.656.703 0 1.344.156.656.156 1.219.453v2.719q-.625-.578-1.219-.844-.594-.281-1.219-.281-1.343 0-2.031 1.078-.688 1.062-.688 3.156 0 2.094.688 3.172.688 1.062 2.031 1.062.625 0 1.219-.265.594-.281 1.219-.86v2.72Z"/><text x="698.25" y="1471.28" fill="#D9B8FF" font-family="Helvetica" font-size="17" textLength="161">aws_lambda_policy</text><path d="M625.5 1485.289h274" style="stroke:#000d19;stroke-width:1.5"/><text x="635.5" y="1504.499" fill="#D9B8FF" font-family="sans-serif" font-size="11" font-weight="bold" textLength="12">id</text><text x="647.5" y="1504.499" fill="#D9B8FF" font-family="sans-serif" font-size="11" textLength="41">: string</text><text x="635.5" y="1527.304" fill="#D9B8FF" font-family="sans-serif" font-size="11" font-weight="bold" textLength="47">version</text><text x="682.5" y="1527.304" fill="#D9B8FF" font-family="sans-serif" font-size="11" textLength="41">: string</text><text x="635.5" y="1550.109" fill="#D9B8FF" font-family="sans-serif" font-size="11" font-weight="bold" textLength="65">statement</text><text x="700.5" y="1550.109" fill="#D9B8FF" font-family="sans-serif" font-size="11" textLength="189">: aws_lambda_policy_statement[]</text></a><a xlink:actuate="onRequest" xlink:href="#j" xlink:show="new" xlink:title="#aws_lambda_policy_statement" xlink:type="simple" target="_top"><rect id="j" width="299" height="184.617" x="390" y="1656" fill="#3D176E" rx="2.5" ry="2.5" style="stroke:#000d19;stroke-width:1.5"/><circle cx="405" cy="1675.895" r="11" fill="#E98DF7" style="stroke:#000d19;stroke-width:1"/><path d="M407.969 1681.535q-.578.297-1.219.438-.64.156-1.344.156-2.5 0-3.828-1.64-1.312-1.657-1.312-4.782t1.312-4.781q1.328-1.656 3.828-1.656.703 0 1.344.156.656.156 1.219.453v2.719q-.625-.578-1.219-.844-.594-.281-1.219-.281-1.344 0-2.031 1.078-.688 1.062-.688 3.156 0 2.094.688 3.172.688 1.062 2.031 1.062.625 0 1.219-.265.594-.281 1.219-.86v2.72Z"/><text x="424" y="1681.78" fill="#D9B8FF" font-family="Helvetica" font-size="17" textLength="257">aws_lambda_policy_statement</text><path d="M391 1695.789h297" style="stroke:#000d19;stroke-width:1.5"/><text x="401" y="1714.999" fill="#D9B8FF" font-family="sans-serif" font-size="11" font-weight="bold" textLength="19">sid</text><text x="420" y="1714.999" fill="#D9B8FF" font-family="sans-serif" font-size="11" textLength="41">: string</text><text x="401" y="1737.804" fill="#D9B8FF" font-family="sans-serif" font-size="11" font-weight="bold" textLength="38">effect</text><text x="439" y="1737.804" fill="#D9B8FF" font-family="sans-serif" font-size="11" textLength="41">: string</text><text x="401" y="1760.609" fill="#D9B8FF" font-family="sans-serif" font-size="11" font-weight="bold" textLength="56">principal</text><text x="457" y="1760.609" fill="#D9B8FF" font-family="sans-serif" font-size="11" textLength="145">: dictionary[string, string]</text><text x="401" y="1783.414" fill="#D9B8FF" font-family="sans-serif" font-size="11" font-weight="bold" textLength="40">action</text><text x="441" y="1783.414" fill="#D9B8FF" font-family="sans-serif" font-size="11" textLength="41">: string</text><text x="401" y="1806.218" fill="#D9B8FF" font-family="sans-serif" font-size="11" font-weight="bold" textLength="56">resource</text><text x="457" y="1806.218" fill="#D9B8FF" font-family="sans-serif" font-size="11" textLength="41">: string</text><text x="401" y="1829.023" fill="#D9B8FF" font-family="sans-serif" font-size="11" font-weight="bold" textLength="60">condition</text><text x="461" y="1829.023" fill="#D9B8FF" font-family="sans-serif" font-size="11" textLength="132">: dictionary[string, any]</text></a><a xlink:actuate="onRequest" xlink:href="#k" xlink:show="new" xlink:title="#aws_lambda_environment_error" xlink:type="simple" target="_top"><rect id="k" width="314" height="93.398" x="1376.5" y="1702" fill="#3D176E" rx="2.5" ry="2.5" style="stroke:#000d19;stroke-width:1.5"/><circle cx="1391.5" cy="1721.895" r="11" fill="#E98DF7" style="stroke:#000d19;stroke-width:1"/><path d="M1394.469 1727.535q-.578.297-1.219.438-.64.156-1.344.156-2.5 0-3.828-1.64-1.312-1.657-1.312-4.782t1.312-4.781q1.328-1.656 3.828-1.656.703 0 1.344.156.656.156 1.219.453v2.719q-.625-.578-1.219-.844-.594-.281-1.219-.281-1.343 0-2.031 1.078-.688 1.062-.688 3.156 0 2.094.688 3.172.688 1.062 2.031 1.062.625 0 1.219-.265.594-.281 1.219-.86v2.72Z"/><text x="1410.5" y="1727.78" fill="#D9B8FF" font-family="Helvetica" font-size="17" textLength="272">aws_lambda_environment_error</text><path d="M1377.5 1741.789h312" style="stroke:#000d19;stroke-width:1.5"/><text x="1387.5" y="1760.999" fill="#D9B8FF" font-family="sans-serif" font-size="11" font-weight="bold" textLength="68">error_code</text><text x="1455.5" y="1760.999" fill="#D9B8FF" font-family="sans-serif" font-size="11" textLength="41">: string</text><text x="1387.5" y="1783.804" fill="#D9B8FF" font-family="sans-serif" font-size="11" font-weight="bold" textLength="57">message</text><text x="1444.5" y="1783.804" fill="#D9B8FF" font-family="sans-serif" font-size="11" textLength="41">: string</text></a><a xlink:actuate="onRequest" xlink:href="#l" xlink:show="new" xlink:title="#serverless_function" xlink:type="simple" target="_top"><rect id="l" width="203" height="39.789" x="943" y="419.5" fill="#3D176E" rx="2.5" ry="2.5" style="stroke:#000d19;stroke-width:1.5"/><circle cx="958" cy="439.394" r="11" fill="#E98DF7" style="stroke:#000d19;stroke-width:1"/><path d="M960.969 445.035q-.578.297-1.219.438-.64.156-1.344.156-2.5 0-3.828-1.64-1.312-1.657-1.312-4.782t1.312-4.781q1.328-1.656 3.828-1.656.703 0 1.344.156.656.156 1.219.453v2.719q-.625-.579-1.219-.844-.594-.281-1.219-.281-1.343 0-2.031 1.078-.688 1.062-.688 3.156 0 2.094.688 3.172.688 1.062 2.031 1.062.625 0 1.219-.265.594-.281 1.219-.86v2.72Z"/><text x="977" y="445.28" fill="#D9B8FF" font-family="Helvetica" font-size="17" textLength="161">serverless_function</text></a><a xlink:actuate="onRequest" xlink:href="#m" xlink:show="new" xlink:title="#aws_lambda_image_config_response" xlink:type="simple" target="_top"><rect id="m" width="349" height="93.398" x="936" y="1457" fill="#3D176E" rx="2.5" ry="2.5" style="stroke:#000d19;stroke-width:1.5"/><circle cx="951" cy="1476.895" r="11" fill="#E98DF7" style="stroke:#000d19;stroke-width:1"/><path d="M953.969 1482.535q-.578.297-1.219.438-.64.156-1.344.156-2.5 0-3.828-1.64-1.312-1.657-1.312-4.782t1.312-4.781q1.328-1.656 3.828-1.656.703 0 1.344.156.656.156 1.219.453v2.719q-.625-.578-1.219-.844-.594-.281-1.219-.281-1.343 0-2.031 1.078-.688 1.062-.688 3.156 0 2.094.688 3.172.688 1.062 2.031 1.062.625 0 1.219-.265.594-.281 1.219-.86v2.72Z"/><text x="970" y="1482.78" fill="#D9B8FF" font-family="Helvetica" font-size="17" textLength="307">aws_lambda_image_config_response</text><path d="M937 1496.789h347" style="stroke:#000d19;stroke-width:1.5"/><text x="947" y="1515.999" fill="#D9B8FF" font-family="sans-serif" font-size="11" font-weight="bold" textLength="85">image_config</text><text x="1032" y="1515.999" fill="#D9B8FF" font-family="sans-serif" font-size="11" textLength="160">: aws_lambda_image_config</text><text x="947" y="1538.804" fill="#D9B8FF" font-family="sans-serif" font-size="11" font-weight="bold" textLength="31">error</text><text x="978" y="1538.804" fill="#D9B8FF" font-family="sans-serif" font-size="11" textLength="195">: aws_lambda_image_config_error</text></a><a xlink:actuate="onRequest" xlink:href="#n" xlink:show="new" xlink:title="#aws_lambda_environment_response" xlink:type="simple" target="_top"><rect id="n" width="347" height="93.398" x="1320" y="1457" fill="#3D176E" rx="2.5" ry="2.5" style="stroke:#000d19;stroke-width:1.5"/><circle cx="1335" cy="1476.895" r="11" fill="#E98DF7" style="stroke:#000d19;stroke-width:1"/><path d="M1337.969 1482.535q-.578.297-1.219.438-.64.156-1.344.156-2.5 0-3.828-1.64-1.312-1.657-1.312-4.782t1.312-4.781q1.328-1.656 3.828-1.656.703 0 1.344.156.656.156 1.219.453v2.719q-.625-.578-1.219-.844-.594-.281-1.219-.281-1.343 0-2.031 1.078-.688 1.062-.688 3.156 0 2.094.688 3.172.688 1.062 2.031 1.062.625 0 1.219-.265.594-.281 1.219-.86v2.72Z"/><text x="1354" y="1482.78" fill="#D9B8FF" font-family="Helvetica" font-size="17" textLength="305">aws_lambda_environment_response</text><path d="M1321 1496.789h345" style="stroke:#000d19;stroke-width:1.5"/><text x="1331" y="1515.999" fill="#D9B8FF" font-family="sans-serif" font-size="11" font-weight="bold" textLength="59">variables</text><text x="1390" y="1515.999" fill="#D9B8FF" font-family="sans-serif" font-size="11" textLength="145">: dictionary[string, string]</text><text x="1331" y="1538.804" fill="#D9B8FF" font-family="sans-serif" font-size="11" font-weight="bold" textLength="31">error</text><text x="1362" y="1538.804" fill="#D9B8FF" font-family="sans-serif" font-size="11" textLength="191">: aws_lambda_environment_error</text></a><a xlink:actuate="onRequest" xlink:href="#o" xlink:show="new" xlink:title="#aws_lambda_function_url_config" xlink:type="simple" target="_top"><rect id="o" width="315" height="184.617" x="1702" y="1411" fill="#3D176E" rx="2.5" ry="2.5" style="stroke:#000d19;stroke-width:1.5"/><circle cx="1717" cy="1430.895" r="11" fill="#E98DF7" style="stroke:#000d19;stroke-width:1"/><path d="M1719.969 1436.535q-.578.297-1.219.438-.64.156-1.344.156-2.5 0-3.828-1.64-1.312-1.657-1.312-4.782t1.312-4.781q1.328-1.656 3.828-1.656.703 0 1.344.156.656.156 1.219.453v2.719q-.625-.578-1.219-.844-.594-.281-1.219-.281-1.343 0-2.031 1.078-.688 1.062-.688 3.156 0 2.094.688 3.172.688 1.062 2.031 1.062.625 0 1.219-.265.594-.281 1.219-.86v2.72Z"/><text x="1736" y="1436.78" fill="#D9B8FF" font-family="Helvetica" font-size="17" textLength="273">aws_lambda_function_url_config</text><path d="M1703 1450.789h313" style="stroke:#000d19;stroke-width:1.5"/><text x="1713" y="1469.999" fill="#D9B8FF" font-family="sans-serif" font-size="11" font-weight="bold" textLength="76">function_url</text><text x="1789" y="1469.999" fill="#D9B8FF" font-family="sans-serif" font-size="11" textLength="41">: string</text><text x="1713" y="1492.804" fill="#D9B8FF" font-family="sans-serif" font-size="11" font-weight="bold" textLength="80">function_arn</text><text x="1793" y="1492.804" fill="#D9B8FF" font-family="sans-serif" font-size="11" textLength="41">: string</text><text x="1713" y="1515.609" fill="#D9B8FF" font-family="sans-serif" font-size="11" font-weight="bold" textLength="63">auth_type</text><text x="1776" y="1515.609" fill="#D9B8FF" font-family="sans-serif" font-size="11" textLength="41">: string</text><text x="1713" y="1538.414" fill="#D9B8FF" font-family="sans-serif" font-size="11" font-weight="bold" textLength="27">cors</text><text x="1740" y="1538.414" fill="#D9B8FF" font-family="sans-serif" font-size="11" textLength="110">: aws_lambda_cors</text><text x="1713" y="1561.218" fill="#D9B8FF" font-family="sans-serif" font-size="11" font-weight="bold" textLength="87">creation_time</text><text x="1800" y="1561.218" fill="#D9B8FF" font-family="sans-serif" font-size="11" textLength="41">: string</text><text x="1713" y="1584.023" fill="#D9B8FF" font-family="sans-serif" font-size="11" font-weight="bold" textLength="120">last_modified_time</text><text x="1833" y="1584.023" fill="#D9B8FF" font-family="sans-serif" font-size="11" textLength="41">: string</text></a><path fill="none" d="M879.92 302.13c-13.91 38.38-27.49 75.85-36.88 101.77m30.32-104.22 13.4-16.42-.23 21.19-13.17-4.77zm-31.97 195.46c5.35 26.88 12.31 61.82 20.04 100.58m-26.93-99.33 2.95-20.98 10.78 18.24-13.73 2.74zm202.1-16.99c-5.72 28.19-14.1 69.47-23.61 116.33m16.76-117.77 10.84-18.21 2.88 20.99-13.72-2.78zm132.5 710.54c102.75 97.39 215.43 204.21 279.33 264.79" style="stroke:#ffaf37;stroke-width:2"/><path fill="#FFAF37" d="m1445.34 1456.85-3.776-9.096.149 5.655-5.655.148 9.282 3.293z" style="stroke:#ffaf37;stroke-width:2"/><path fill="none" d="M710.67 1230.38c-64.59 73.18-129.91 147.19-176.09 199.51" style="stroke:#ffaf37;stroke-width:2"/><path fill="#FFAF37" d="m531.01 1433.94 8.961-4.086-5.646.343-.343-5.647-2.972 9.39z" style="stroke:#ffaf37;stroke-width:2"/><path fill="none" d="M710.78 1128.28c-162.2 110.5-370.48 252.4-477.98 325.65" style="stroke:#ffaf37;stroke-width:2"/><path fill="#FFAF37" d="m228.38 1456.93 9.69-1.764-5.559-1.052 1.053-5.558-5.184 8.374z" style="stroke:#ffaf37;stroke-width:2"/><path fill="none" d="M1060.64 1351.2c12.92 39.21 24.5 74.35 33.24 100.86" style="stroke:#ffaf37;stroke-width:2"/><path fill="#FFAF37" d="m1095.48 1456.92.993-9.799-2.553 5.048-5.048-2.552 6.608 7.303z" style="stroke:#ffaf37;stroke-width:2"/><path fill="none" d="M812.36 1351.2c-11.12 33.74-21.24 64.46-29.42 89.27" style="stroke:#ffaf37;stroke-width:2"/><path fill="#FFAF37" d="m781.33 1445.35 6.608-7.303-5.048 2.553-2.553-5.049.993 9.799z" style="stroke:#ffaf37;stroke-width:2"/><path fill="none" d="M1162.29 1103.66c165.68 94.78 386.76 221.25 535.16 306.14" style="stroke:#ffaf37;stroke-width:2"/><path fill="#FFAF37" d="m1701.82 1412.3-5.832-7.936 1.49 5.457-5.457 1.49 9.799.989z" style="stroke:#ffaf37;stroke-width:2"/><path fill="none" d="M709.93 1561.78c-24.74 26.97-54.93 59.86-82.98 90.42" style="stroke:#ffaf37;stroke-width:2"/><path fill="#FFAF37" d="m623.54 1655.92 9.034-3.922-5.651.24-.24-5.652-3.143 9.334z" style="stroke:#ffaf37;stroke-width:2"/><path fill="none" d="M994.2 302.27c17.28 46.79 34.04 92.2 43.19 116.97m-49.85-114.8-.36-21.18 13.49 16.33-13.13 4.85zm141.39 1245.77c15.43 38.25 37.59 93.21 54.61 135.4" style="stroke:#ffaf37;stroke-width:2"/><path fill="#FFAF37" d="m1185.49 1690.43.345-9.843-2.214 5.206-5.206-2.215 7.075 6.852z" style="stroke:#ffaf37;stroke-width:2"/><path fill="none" d="M1067.61 1550.21c-39.56 42.17-98.16 104.62-138.79 147.92" style="stroke:#ffaf37;stroke-width:2"/><path fill="#FFAF37" d="m925.19 1702 9.081-3.812-5.654.171-.171-5.654-3.256 9.295z" style="stroke:#ffaf37;stroke-width:2"/><path fill="none" d="M1501.02 1550.21c6.88 41.74 17.02 103.37 24.14 146.61" style="stroke:#ffaf37;stroke-width:2"/><path fill="#FFAF37" d="m1526.01 1702 2.48-9.532-3.295 4.599-4.599-3.295 5.414 8.228z" style="stroke:#ffaf37;stroke-width:2"/><path fill="none" d="M1859.5 1596.02v54.58" style="stroke:#ffaf37;stroke-width:2"/><path fill="#FFAF37" d="m1859.5 1655.66 4-9-4 4-4-4 4 9z" style="stroke:#ffaf37;stroke-width:2"/></svg>