<svg xmlns="http://www.w3.org/2000/svg" xmlns:xlink="http://www.w3.org/1999/xlink" width="4470" height="1750" preserveAspectRatio="none" style="width:4470px;height:1750px;background:#00000000"><a xlink:actuate="onRequest" xlink:href="#a" xlink:show="new" xlink:title="#resource" xlink:type="simple" target="_top"><rect id="a" width="195" height="275.836" x="1710" y="7" fill="#3D176E" rx="2.5" ry="2.5" style="stroke:#000d19;stroke-width:1.5"/><circle cx="1762.75" cy="26.895" r="11" fill="#E98DF7" style="stroke:#000d19;stroke-width:1"/><path d="M1765.719 32.535q-.578.297-1.219.438-.64.156-1.344.156-2.5 0-3.828-1.64-1.312-1.657-1.312-4.782t1.312-4.781q1.328-1.656 3.828-1.656.703 0 1.344.156.656.156 1.219.453v2.719q-.625-.578-1.219-.844-.594-.281-1.219-.281-1.343 0-2.031 1.078-.688 1.062-.688 3.156 0 2.094.688 3.172.688 1.062 2.031 1.062.625 0 1.219-.265.594-.281 1.219-.86v2.72Z"/><text x="1788.25" y="32.78" fill="#D9B8FF" font-family="Helvetica" font-size="17" textLength="71">resource</text><path d="M1711 46.789h193" style="stroke:#000d19;stroke-width:1.5"/><text x="1721" y="65.999" fill="#D9B8FF" font-family="sans-serif" font-size="11" font-weight="bold" textLength="12">id</text><text x="1733" y="65.999" fill="#D9B8FF" font-family="sans-serif" font-size="11" textLength="41">: string</text><text x="1721" y="88.804" fill="#D9B8FF" font-family="sans-serif" font-size="11" font-weight="bold" textLength="28">tags</text><text x="1749" y="88.804" fill="#D9B8FF" font-family="sans-serif" font-size="11" textLength="145">: dictionary[string, string]</text><text x="1721" y="111.609" fill="#D9B8FF" font-family="sans-serif" font-size="11" font-weight="bold" textLength="35">name</text><text x="1756" y="111.609" fill="#D9B8FF" font-family="sans-serif" font-size="11" textLength="41">: string</text><text x="1721" y="134.414" fill="#D9B8FF" font-family="sans-serif" font-size="11" font-weight="bold" textLength="35">ctime</text><text x="1756" y="134.414" fill="#D9B8FF" font-family="sans-serif" font-size="11" textLength="58">: datetime</text><text x="1721" y="157.218" fill="#D9B8FF" font-family="sans-serif" font-size="11" font-weight="bold" textLength="24">age</text><text x="1745" y="157.218" fill="#D9B8FF" font-family="sans-serif" font-size="11" textLength="55">: duration</text><text x="1721" y="180.023" fill="#D9B8FF" font-family="sans-serif" font-size="11" font-weight="bold" textLength="39">mtime</text><text x="1760" y="180.023" fill="#D9B8FF" font-family="sans-serif" font-size="11" textLength="58">: datetime</text><text x="1721" y="202.828" fill="#D9B8FF" font-family="sans-serif" font-size="11" font-weight="bold" textLength="75">last_update</text><text x="1796" y="202.828" fill="#D9B8FF" font-family="sans-serif" font-size="11" textLength="55">: duration</text><text x="1721" y="225.632" fill="#D9B8FF" font-family="sans-serif" font-size="11" font-weight="bold" textLength="36">atime</text><text x="1757" y="225.632" fill="#D9B8FF" font-family="sans-serif" font-size="11" textLength="58">: datetime</text><text x="1721" y="248.437" fill="#D9B8FF" font-family="sans-serif" font-size="11" font-weight="bold" textLength="74">last_access</text><text x="1795" y="248.437" fill="#D9B8FF" font-family="sans-serif" font-size="11" textLength="55">: duration</text><text x="1721" y="271.242" fill="#D9B8FF" font-family="sans-serif" font-size="11" font-weight="bold" textLength="27">kind</text><text x="1748" y="271.242" fill="#D9B8FF" font-family="sans-serif" font-size="11" textLength="41">: string</text></a><a xlink:actuate="onRequest" xlink:href="#b" xlink:show="new" xlink:title="#aws_resource" xlink:type="simple" target="_top"><rect id="b" width="155" height="70.594" x="1730" y="404" fill="#3D176E" rx="2.5" ry="2.5" style="stroke:#000d19;stroke-width:1.5"/><circle cx="1745" cy="423.894" r="11" fill="#E98DF7" style="stroke:#000d19;stroke-width:1"/><path d="M1747.969 429.535q-.578.297-1.219.438-.64.156-1.344.156-2.5 0-3.828-1.64-1.312-1.657-1.312-4.782t1.312-4.781q1.328-1.656 3.828-1.656.703 0 1.344.156.656.156 1.219.453v2.719q-.625-.579-1.219-.844-.594-.281-1.219-.281-1.343 0-2.031 1.078-.688 1.062-.688 3.156 0 2.094.688 3.172.688 1.062 2.031 1.062.625 0 1.219-.265.594-.281 1.219-.86v2.72Z"/><text x="1764" y="429.78" fill="#D9B8FF" font-family="Helvetica" font-size="17" textLength="113">aws_resource</text><path d="M1731 443.789h153" style="stroke:#000d19;stroke-width:1.5"/><text x="1741" y="463" fill="#D9B8FF" font-family="sans-serif" font-size="11" font-weight="bold" textLength="21">arn</text><text x="1762" y="463" fill="#D9B8FF" font-family="sans-serif" font-size="11" textLength="41">: string</text></a><a xlink:actuate="onRequest" xlink:href="#c" xlink:show="new" xlink:title="#aws_sagemaker_model_latency_threshold" xlink:type="simple" target="_top"><rect id="c" width="395" height="93.398" x="1388" y="1417" fill="#3D176E" rx="2.5" ry="2.5" style="stroke:#000d19;stroke-width:1.5"/><circle cx="1403" cy="1436.895" r="11" fill="#E98DF7" style="stroke:#000d19;stroke-width:1"/><path d="M1405.969 1442.535q-.578.297-1.219.438-.64.156-1.344.156-2.5 0-3.828-1.64-1.312-1.657-1.312-4.782t1.312-4.781q1.328-1.656 3.828-1.656.703 0 1.344.156.656.156 1.219.453v2.719q-.625-.578-1.219-.844-.594-.281-1.219-.281-1.343 0-2.031 1.078-.688 1.062-.688 3.156 0 2.094.688 3.172.688 1.062 2.031 1.062.625 0 1.219-.265.594-.281 1.219-.86v2.72Z"/><text x="1422" y="1442.78" fill="#D9B8FF" font-family="Helvetica" font-size="17" textLength="353">aws_sagemaker_model_latency_threshold</text><path d="M1389 1456.789h393" style="stroke:#000d19;stroke-width:1.5"/><text x="1399" y="1475.999" fill="#D9B8FF" font-family="sans-serif" font-size="11" font-weight="bold" textLength="65">percentile</text><text x="1464" y="1475.999" fill="#D9B8FF" font-family="sans-serif" font-size="11" textLength="41">: string</text><text x="1399" y="1498.804" fill="#D9B8FF" font-family="sans-serif" font-size="11" font-weight="bold" textLength="139">value_in_milliseconds</text><text x="1538" y="1498.804" fill="#D9B8FF" font-family="sans-serif" font-size="11" textLength="36">: int64</text></a><a xlink:actuate="onRequest" xlink:href="#d" xlink:show="new" xlink:title="#aws_sagemaker_job" xlink:type="simple" target="_top"><rect id="d" width="210" height="39.789" x="1702.5" y="596" fill="#3D176E" rx="2.5" ry="2.5" style="stroke:#000d19;stroke-width:1.5"/><circle cx="1717.5" cy="615.894" r="11" fill="#E98DF7" style="stroke:#000d19;stroke-width:1"/><path d="M1720.469 621.535q-.578.297-1.219.438-.64.156-1.344.156-2.5 0-3.828-1.64-1.312-1.657-1.312-4.782t1.312-4.781q1.328-1.657 3.828-1.657.703 0 1.344.157.656.156 1.219.453v2.719q-.625-.578-1.219-.844-.594-.281-1.219-.281-1.343 0-2.031 1.078-.688 1.062-.688 3.156 0 2.094.688 3.172.688 1.062 2.031 1.062.625 0 1.219-.265.594-.282 1.219-.86v2.72Z"/><text x="1736.5" y="621.78" fill="#D9B8FF" font-family="Helvetica" font-size="17" textLength="168">aws_sagemaker_job</text></a><a xlink:actuate="onRequest" xlink:href="#e" xlink:show="new" xlink:title="#aws_sagemaker_vpc_config" xlink:type="simple" target="_top"><rect id="e" width="272" height="93.398" x="2232.5" y="1417" fill="#3D176E" rx="2.5" ry="2.5" style="stroke:#000d19;stroke-width:1.5"/><circle cx="2247.5" cy="1436.895" r="11" fill="#E98DF7" style="stroke:#000d19;stroke-width:1"/><path d="M2250.469 1442.535q-.578.297-1.219.438-.64.156-1.344.156-2.5 0-3.828-1.64-1.312-1.657-1.312-4.782t1.312-4.781q1.328-1.656 3.828-1.656.703 0 1.344.156.656.156 1.219.453v2.719q-.625-.578-1.219-.844-.594-.281-1.219-.281-1.343 0-2.031 1.078-.688 1.062-.688 3.156 0 2.094.688 3.172.688 1.062 2.031 1.062.625 0 1.219-.265.594-.281 1.219-.86v2.72Z"/><text x="2266.5" y="1442.78" fill="#D9B8FF" font-family="Helvetica" font-size="17" textLength="230">aws_sagemaker_vpc_config</text><path d="M2233.5 1456.789h270" style="stroke:#000d19;stroke-width:1.5"/><text x="2243.5" y="1475.999" fill="#D9B8FF" font-family="sans-serif" font-size="11" font-weight="bold" textLength="119">security_group_ids</text><text x="2362.5" y="1475.999" fill="#D9B8FF" font-family="sans-serif" font-size="11" textLength="49">: string[]</text><text x="2243.5" y="1498.804" fill="#D9B8FF" font-family="sans-serif" font-size="11" font-weight="bold" textLength="51">subnets</text><text x="2294.5" y="1498.804" fill="#D9B8FF" font-family="sans-serif" font-size="11" textLength="49">: string[]</text></a><a xlink:actuate="onRequest" xlink:href="#f" xlink:show="new" xlink:title="#aws_sagemaker_inference_recommendations_job" xlink:type="simple" target="_top"><rect id="f" width="709" height="253.031" x="1453" y="757" fill="#3D176E" rx="2.5" ry="2.5" style="stroke:#000d19;stroke-width:1.5"/><circle cx="1590.75" cy="776.894" r="11" fill="#E98DF7" style="stroke:#000d19;stroke-width:1"/><path d="M1593.719 782.535q-.578.297-1.219.438-.64.156-1.344.156-2.5 0-3.828-1.64-1.312-1.657-1.312-4.782t1.312-4.781q1.328-1.657 3.828-1.657.703 0 1.344.157.656.156 1.219.453v2.719q-.625-.578-1.219-.844-.594-.281-1.219-.281-1.343 0-2.031 1.078-.688 1.062-.688 3.156 0 2.094.688 3.172.688 1.062 2.031 1.062.625 0 1.219-.265.594-.282 1.219-.86v2.72Z"/><text x="1616.25" y="782.78" fill="#D9B8FF" font-family="Helvetica" font-size="17" textLength="415">aws_sagemaker_inference_recommendations_job</text><path d="M1454 796.789h707" style="stroke:#000d19;stroke-width:1.5"/><text x="1464" y="816" fill="#D9B8FF" font-family="sans-serif" font-size="11" font-weight="bold" textLength="285">inference_recommendations_job_description</text><text x="1749" y="816" fill="#D9B8FF" font-family="sans-serif" font-size="11" textLength="41">: string</text><text x="1464" y="838.804" fill="#D9B8FF" font-family="sans-serif" font-size="11" font-weight="bold" textLength="241">inference_recommendations_job_type</text><text x="1705" y="838.804" fill="#D9B8FF" font-family="sans-serif" font-size="11" textLength="41">: string</text><text x="1464" y="861.609" fill="#D9B8FF" font-family="sans-serif" font-size="11" font-weight="bold" textLength="253">inference_recommendations_job_status</text><text x="1717" y="861.609" fill="#D9B8FF" font-family="sans-serif" font-size="11" textLength="41">: string</text><text x="1464" y="884.414" fill="#D9B8FF" font-family="sans-serif" font-size="11" font-weight="bold" textLength="318">inference_recommendations_job_completion_time</text><text x="1782" y="884.414" fill="#D9B8FF" font-family="sans-serif" font-size="11" textLength="58">: datetime</text><text x="1464" y="907.218" fill="#D9B8FF" font-family="sans-serif" font-size="11" font-weight="bold" textLength="305">inference_recommendations_job_failure_reason</text><text x="1769" y="907.218" fill="#D9B8FF" font-family="sans-serif" font-size="11" textLength="41">: string</text><text x="1464" y="930.023" fill="#D9B8FF" font-family="sans-serif" font-size="11" font-weight="bold" textLength="292">inference_recommendations_job_input_config</text><text x="1756" y="930.023" fill="#D9B8FF" font-family="sans-serif" font-size="11" textLength="300">: aws_sagemaker_recommendation_job_input_config</text><text x="1464" y="952.828" fill="#D9B8FF" font-family="sans-serif" font-size="11" font-weight="bold" textLength="342">inference_recommendations_job_stopping_conditions</text><text x="1806" y="952.828" fill="#D9B8FF" font-family="sans-serif" font-size="11" textLength="345">: aws_sagemaker_recommendation_job_stopping_conditions</text><text x="1464" y="975.632" fill="#D9B8FF" font-family="sans-serif" font-size="11" font-weight="bold" textLength="394">inference_recommendations_job_inference_recommendations</text><text x="1858" y="975.632" fill="#D9B8FF" font-family="sans-serif" font-size="11" textLength="270">: aws_sagemaker_inference_recommendation[]</text><text x="1464" y="998.437" fill="#D9B8FF" font-family="sans-serif" font-size="11" font-weight="bold" textLength="364">inference_recommendations_job_endpoint_performances</text><text x="1828" y="998.437" fill="#D9B8FF" font-family="sans-serif" font-size="11" textLength="243">: aws_sagemaker_endpoint_performance[]</text></a><a xlink:actuate="onRequest" xlink:href="#g" xlink:show="new" xlink:title="#aws_sagemaker_inference_recommendation" xlink:type="simple" target="_top"><rect id="g" width="449" height="116.203" x="635" y="1127" fill="#3D176E" rx="2.5" ry="2.5" style="stroke:#000d19;stroke-width:1.5"/><circle cx="665.3" cy="1146.895" r="11" fill="#E98DF7" style="stroke:#000d19;stroke-width:1"/><path d="M668.269 1152.535q-.578.297-1.219.438-.64.156-1.344.156-2.5 0-3.828-1.64-1.312-1.657-1.312-4.782t1.312-4.781q1.328-1.656 3.828-1.656.703 0 1.344.156.656.156 1.219.453v2.719q-.625-.578-1.219-.844-.594-.281-1.219-.281-1.344 0-2.031 1.078-.688 1.062-.688 3.156 0 2.094.688 3.172.688 1.062 2.031 1.062.625 0 1.219-.265.594-.281 1.219-.86v2.72Z"/><text x="687.7" y="1152.78" fill="#D9B8FF" font-family="Helvetica" font-size="17" textLength="373">aws_sagemaker_inference_recommendation</text><path d="M636 1166.789h447" style="stroke:#000d19;stroke-width:1.5"/><text x="646" y="1185.999" fill="#D9B8FF" font-family="sans-serif" font-size="11" font-weight="bold" textLength="47">metrics</text><text x="693" y="1185.999" fill="#D9B8FF" font-family="sans-serif" font-size="11" textLength="252">: aws_sagemaker_recommendation_metrics</text><text x="646" y="1208.804" fill="#D9B8FF" font-family="sans-serif" font-size="11" font-weight="bold" textLength="149">endpoint_configuration</text><text x="795" y="1208.804" fill="#D9B8FF" font-family="sans-serif" font-size="11" textLength="278">: aws_sagemaker_endpoint_output_configuration</text><text x="646" y="1231.609" fill="#D9B8FF" font-family="sans-serif" font-size="11" font-weight="bold" textLength="131">model_configuration</text><text x="777" y="1231.609" fill="#D9B8FF" font-family="sans-serif" font-size="11" textLength="222">: aws_sagemaker_model_configuration</text></a><a xlink:actuate="onRequest" xlink:href="#h" xlink:show="new" xlink:title="#aws_sagemaker_recommendation_metrics" xlink:type="simple" target="_top"><rect id="h" width="399" height="139.008" x="7" y="1394" fill="#3D176E" rx="2.5" ry="2.5" style="stroke:#000d19;stroke-width:1.5"/><circle cx="22" cy="1413.895" r="11" fill="#E98DF7" style="stroke:#000d19;stroke-width:1"/><path d="M24.969 1419.535q-.578.297-1.219.438-.64.156-1.344.156-2.5 0-3.828-1.64-1.312-1.657-1.312-4.782t1.312-4.781q1.328-1.656 3.828-1.656.703 0 1.344.156.656.156 1.219.453v2.719q-.625-.578-1.219-.844-.594-.281-1.219-.281-1.343 0-2.031 1.078-.688 1.062-.688 3.156 0 2.094.688 3.172.688 1.062 2.031 1.062.625 0 1.219-.265.594-.281 1.219-.86v2.72Z"/><text x="41" y="1419.78" fill="#D9B8FF" font-family="Helvetica" font-size="17" textLength="357">aws_sagemaker_recommendation_metrics</text><path d="M8 1433.789h397" style="stroke:#000d19;stroke-width:1.5"/><text x="18" y="1452.999" fill="#D9B8FF" font-family="sans-serif" font-size="11" font-weight="bold" textLength="89">cost_per_hour</text><text x="107" y="1452.999" fill="#D9B8FF" font-family="sans-serif" font-size="11" textLength="46">: double</text><text x="18" y="1475.804" fill="#D9B8FF" font-family="sans-serif" font-size="11" font-weight="bold" textLength="121">cost_per_inference</text><text x="139" y="1475.804" fill="#D9B8FF" font-family="sans-serif" font-size="11" textLength="46">: double</text><text x="18" y="1498.609" fill="#D9B8FF" font-family="sans-serif" font-size="11" font-weight="bold" textLength="106">max_invocations</text><text x="124" y="1498.609" fill="#D9B8FF" font-family="sans-serif" font-size="11" textLength="36">: int64</text><text x="18" y="1521.414" fill="#D9B8FF" font-family="sans-serif" font-size="11" font-weight="bold" textLength="92">model_latency</text><text x="110" y="1521.414" fill="#D9B8FF" font-family="sans-serif" font-size="11" textLength="36">: int64</text></a><a xlink:actuate="onRequest" xlink:href="#i" xlink:show="new" xlink:title="#aws_sagemaker_endpoint_output_configuration" xlink:type="simple" target="_top"><rect id="i" width="444" height="139.008" x="440.5" y="1394" fill="#3D176E" rx="2.5" ry="2.5" style="stroke:#000d19;stroke-width:1.5"/><circle cx="455.5" cy="1413.895" r="11" fill="#E98DF7" style="stroke:#000d19;stroke-width:1"/><path d="M458.469 1419.535q-.578.297-1.219.438-.64.156-1.344.156-2.5 0-3.828-1.64-1.312-1.657-1.312-4.782t1.312-4.781q1.328-1.656 3.828-1.656.703 0 1.344.156.656.156 1.219.453v2.719q-.625-.578-1.219-.844-.594-.281-1.219-.281-1.344 0-2.031 1.078-.688 1.062-.688 3.156 0 2.094.688 3.172.688 1.062 2.031 1.062.625 0 1.219-.265.594-.281 1.219-.86v2.72Z"/><text x="474.5" y="1419.78" fill="#D9B8FF" font-family="Helvetica" font-size="17" textLength="402">aws_sagemaker_endpoint_output_configuration</text><path d="M441.5 1433.789h442" style="stroke:#000d19;stroke-width:1.5"/><text x="451.5" y="1452.999" fill="#D9B8FF" font-family="sans-serif" font-size="11" font-weight="bold" textLength="98">endpoint_name</text><text x="549.5" y="1452.999" fill="#D9B8FF" font-family="sans-serif" font-size="11" textLength="41">: string</text><text x="451.5" y="1475.804" fill="#D9B8FF" font-family="sans-serif" font-size="11" font-weight="bold" textLength="86">variant_name</text><text x="537.5" y="1475.804" fill="#D9B8FF" font-family="sans-serif" font-size="11" textLength="41">: string</text><text x="451.5" y="1498.609" fill="#D9B8FF" font-family="sans-serif" font-size="11" font-weight="bold" textLength="89">instance_type</text><text x="540.5" y="1498.609" fill="#D9B8FF" font-family="sans-serif" font-size="11" textLength="41">: string</text><text x="451.5" y="1521.414" fill="#D9B8FF" font-family="sans-serif" font-size="11" font-weight="bold" textLength="140">initial_instance_count</text><text x="591.5" y="1521.414" fill="#D9B8FF" font-family="sans-serif" font-size="11" textLength="36">: int64</text></a><a xlink:actuate="onRequest" xlink:href="#j" xlink:show="new" xlink:title="#aws_sagemaker_model_configuration" xlink:type="simple" target="_top"><rect id="j" width="433" height="93.398" x="920" y="1417" fill="#3D176E" rx="2.5" ry="2.5" style="stroke:#000d19;stroke-width:1.5"/><circle cx="969.75" cy="1436.895" r="11" fill="#E98DF7" style="stroke:#000d19;stroke-width:1"/><path d="M972.719 1442.535q-.578.297-1.219.438-.64.156-1.344.156-2.5 0-3.828-1.64-1.312-1.657-1.312-4.782t1.312-4.781q1.328-1.656 3.828-1.656.703 0 1.344.156.656.156 1.219.453v2.719q-.625-.578-1.219-.844-.594-.281-1.219-.281-1.343 0-2.031 1.078-.688 1.062-.688 3.156 0 2.094.688 3.172.688 1.062 2.031 1.062.625 0 1.219-.265.594-.281 1.219-.86v2.72Z"/><text x="995.25" y="1442.78" fill="#D9B8FF" font-family="Helvetica" font-size="17" textLength="315">aws_sagemaker_model_configuration</text><path d="M921 1456.789h431" style="stroke:#000d19;stroke-width:1.5"/><text x="931" y="1475.999" fill="#D9B8FF" font-family="sans-serif" font-size="11" font-weight="bold" textLength="191">inference_specification_name</text><text x="1122" y="1475.999" fill="#D9B8FF" font-family="sans-serif" font-size="11" textLength="41">: string</text><text x="931" y="1498.804" fill="#D9B8FF" font-family="sans-serif" font-size="11" font-weight="bold" textLength="159">environment_parameters</text><text x="1090" y="1498.804" fill="#D9B8FF" font-family="sans-serif" font-size="11" textLength="252">: aws_sagemaker_environment_parameter[]</text></a><a xlink:actuate="onRequest" xlink:href="#k" xlink:show="new" xlink:title="#aws_sagemaker_environment_parameter" xlink:type="simple" target="_top"><rect id="k" width="391" height="116.203" x="941" y="1627" fill="#3D176E" rx="2.5" ry="2.5" style="stroke:#000d19;stroke-width:1.5"/><circle cx="956" cy="1646.895" r="11" fill="#E98DF7" style="stroke:#000d19;stroke-width:1"/><path d="M958.969 1652.535q-.578.297-1.219.438-.64.156-1.344.156-2.5 0-3.828-1.64-1.312-1.657-1.312-4.782t1.312-4.781q1.328-1.656 3.828-1.656.703 0 1.344.156.656.156 1.219.453v2.719q-.625-.578-1.219-.844-.594-.281-1.219-.281-1.343 0-2.031 1.078-.688 1.062-.688 3.156 0 2.094.688 3.172.688 1.062 2.031 1.062.625 0 1.219-.265.594-.281 1.219-.86v2.72Z"/><text x="975" y="1652.78" fill="#D9B8FF" font-family="Helvetica" font-size="17" textLength="349">aws_sagemaker_environment_parameter</text><path d="M942 1666.789h389" style="stroke:#000d19;stroke-width:1.5"/><text x="952" y="1685.999" fill="#D9B8FF" font-family="sans-serif" font-size="11" font-weight="bold" textLength="22">key</text><text x="974" y="1685.999" fill="#D9B8FF" font-family="sans-serif" font-size="11" textLength="41">: string</text><text x="952" y="1708.804" fill="#D9B8FF" font-family="sans-serif" font-size="11" font-weight="bold" textLength="69">value_type</text><text x="1021" y="1708.804" fill="#D9B8FF" font-family="sans-serif" font-size="11" textLength="41">: string</text><text x="952" y="1731.609" fill="#D9B8FF" font-family="sans-serif" font-size="11" font-weight="bold" textLength="35">value</text><text x="987" y="1731.609" fill="#D9B8FF" font-family="sans-serif" font-size="11" textLength="41">: string</text></a><a xlink:actuate="onRequest" xlink:href="#l" xlink:show="new" xlink:title="#aws_sagemaker_inference_metrics" xlink:type="simple" target="_top"><rect id="l" width="334" height="93.398" x="1863.5" y="1417" fill="#3D176E" rx="2.5" ry="2.5" style="stroke:#000d19;stroke-width:1.5"/><circle cx="1878.5" cy="1436.895" r="11" fill="#E98DF7" style="stroke:#000d19;stroke-width:1"/><path d="M1881.469 1442.535q-.578.297-1.219.438-.64.156-1.344.156-2.5 0-3.828-1.64-1.312-1.657-1.312-4.782t1.312-4.781q1.328-1.656 3.828-1.656.703 0 1.344.156.656.156 1.219.453v2.719q-.625-.578-1.219-.844-.594-.281-1.219-.281-1.343 0-2.031 1.078-.688 1.062-.688 3.156 0 2.094.688 3.172.688 1.062 2.031 1.062.625 0 1.219-.265.594-.281 1.219-.86v2.72Z"/><text x="1897.5" y="1442.78" fill="#D9B8FF" font-family="Helvetica" font-size="17" textLength="292">aws_sagemaker_inference_metrics</text><path d="M1864.5 1456.789h332" style="stroke:#000d19;stroke-width:1.5"/><text x="1874.5" y="1475.999" fill="#D9B8FF" font-family="sans-serif" font-size="11" font-weight="bold" textLength="106">max_invocations</text><text x="1980.5" y="1475.999" fill="#D9B8FF" font-family="sans-serif" font-size="11" textLength="36">: int64</text><text x="1874.5" y="1498.804" fill="#D9B8FF" font-family="sans-serif" font-size="11" font-weight="bold" textLength="92">model_latency</text><text x="1966.5" y="1498.804" fill="#D9B8FF" font-family="sans-serif" font-size="11" textLength="36">: int64</text></a><a xlink:actuate="onRequest" xlink:href="#m" xlink:show="new" xlink:title="#aws_sagemaker_recommendation_job_container_config" xlink:type="simple" target="_top"><rect id="m" width="509" height="207.422" x="2540" y="1360" fill="#3D176E" rx="2.5" ry="2.5" style="stroke:#000d19;stroke-width:1.5"/><circle cx="2555" cy="1379.895" r="11" fill="#E98DF7" style="stroke:#000d19;stroke-width:1"/><path d="M2557.969 1385.535q-.578.297-1.219.438-.64.156-1.344.156-2.5 0-3.828-1.64-1.312-1.657-1.312-4.782t1.312-4.781q1.328-1.656 3.828-1.656.703 0 1.344.156.656.156 1.219.453v2.719q-.625-.578-1.219-.844-.594-.281-1.219-.281-1.343 0-2.031 1.078-.688 1.062-.688 3.156 0 2.094.688 3.172.688 1.062 2.031 1.062.625 0 1.219-.265.594-.281 1.219-.86v2.72Z"/><text x="2574" y="1385.78" fill="#D9B8FF" font-family="Helvetica" font-size="17" textLength="467">aws_sagemaker_recommendation_job_container_config</text><path d="M2541 1399.789h507" style="stroke:#000d19;stroke-width:1.5"/><text x="2551" y="1418.999" fill="#D9B8FF" font-family="sans-serif" font-size="11" font-weight="bold" textLength="47">domain</text><text x="2598" y="1418.999" fill="#D9B8FF" font-family="sans-serif" font-size="11" textLength="41">: string</text><text x="2551" y="1441.804" fill="#D9B8FF" font-family="sans-serif" font-size="11" font-weight="bold" textLength="27">task</text><text x="2578" y="1441.804" fill="#D9B8FF" font-family="sans-serif" font-size="11" textLength="41">: string</text><text x="2551" y="1464.609" fill="#D9B8FF" font-family="sans-serif" font-size="11" font-weight="bold" textLength="68">framework</text><text x="2619" y="1464.609" fill="#D9B8FF" font-family="sans-serif" font-size="11" textLength="41">: string</text><text x="2551" y="1487.414" fill="#D9B8FF" font-family="sans-serif" font-size="11" font-weight="bold" textLength="121">framework_version</text><text x="2672" y="1487.414" fill="#D9B8FF" font-family="sans-serif" font-size="11" textLength="41">: string</text><text x="2551" y="1510.218" fill="#D9B8FF" font-family="sans-serif" font-size="11" font-weight="bold" textLength="97">payload_config</text><text x="2648" y="1510.218" fill="#D9B8FF" font-family="sans-serif" font-size="11" textLength="316">: aws_sagemaker_recommendation_job_payload_config</text><text x="2551" y="1533.023" fill="#D9B8FF" font-family="sans-serif" font-size="11" font-weight="bold" textLength="135">nearest_model_name</text><text x="2686" y="1533.023" fill="#D9B8FF" font-family="sans-serif" font-size="11" textLength="41">: string</text><text x="2551" y="1555.828" fill="#D9B8FF" font-family="sans-serif" font-size="11" font-weight="bold" textLength="167">supported_instance_types</text><text x="2718" y="1555.828" fill="#D9B8FF" font-family="sans-serif" font-size="11" textLength="49">: string[]</text></a><a xlink:actuate="onRequest" xlink:href="#n" xlink:show="new" xlink:title="#aws_sagemaker_recommendation_job_payload_config" xlink:type="simple" target="_top"><rect id="n" width="495" height="93.398" x="2547" y="1638.5" fill="#3D176E" rx="2.5" ry="2.5" style="stroke:#000d19;stroke-width:1.5"/><circle cx="2562" cy="1658.395" r="11" fill="#E98DF7" style="stroke:#000d19;stroke-width:1"/><path d="M2564.969 1664.035q-.578.297-1.219.438-.64.156-1.344.156-2.5 0-3.828-1.64-1.312-1.657-1.312-4.782t1.312-4.781q1.328-1.656 3.828-1.656.703 0 1.344.156.656.156 1.219.453v2.719q-.625-.578-1.219-.844-.594-.281-1.219-.281-1.343 0-2.031 1.078-.688 1.062-.688 3.156 0 2.094.688 3.172.688 1.062 2.031 1.062.625 0 1.219-.265.594-.281 1.219-.86v2.72Z"/><text x="2581" y="1664.28" fill="#D9B8FF" font-family="Helvetica" font-size="17" textLength="453">aws_sagemaker_recommendation_job_payload_config</text><path d="M2548 1678.289h493" style="stroke:#000d19;stroke-width:1.5"/><text x="2558" y="1697.499" fill="#D9B8FF" font-family="sans-serif" font-size="11" font-weight="bold" textLength="126">sample_payload_url</text><text x="2684" y="1697.499" fill="#D9B8FF" font-family="sans-serif" font-size="11" textLength="41">: string</text><text x="2558" y="1720.304" fill="#D9B8FF" font-family="sans-serif" font-size="11" font-weight="bold" textLength="161">supported_content_types</text><text x="2719" y="1720.304" fill="#D9B8FF" font-family="sans-serif" font-size="11" textLength="49">: string[]</text></a><a xlink:actuate="onRequest" xlink:href="#o" xlink:show="new" xlink:title="#aws_sagemaker_traffic_pattern" xlink:type="simple" target="_top"><rect id="o" width="305" height="93.398" x="3084" y="1417" fill="#3D176E" rx="2.5" ry="2.5" style="stroke:#000d19;stroke-width:1.5"/><circle cx="3099" cy="1436.895" r="11" fill="#E98DF7" style="stroke:#000d19;stroke-width:1"/><path d="M3101.969 1442.535q-.578.297-1.219.438-.64.156-1.344.156-2.5 0-3.828-1.64-1.312-1.657-1.312-4.782t1.312-4.781q1.328-1.656 3.828-1.656.703 0 1.344.156.656.156 1.219.453v2.719q-.625-.578-1.219-.844-.594-.281-1.219-.281-1.343 0-2.031 1.078-.688 1.062-.688 3.156 0 2.094.688 3.172.688 1.062 2.031 1.062.625 0 1.219-.265.594-.281 1.219-.86v2.72Z"/><text x="3118" y="1442.78" fill="#D9B8FF" font-family="Helvetica" font-size="17" textLength="263">aws_sagemaker_traffic_pattern</text><path d="M3085 1456.789h303" style="stroke:#000d19;stroke-width:1.5"/><text x="3095" y="1475.999" fill="#D9B8FF" font-family="sans-serif" font-size="11" font-weight="bold" textLength="73">traffic_type</text><text x="3168" y="1475.999" fill="#D9B8FF" font-family="sans-serif" font-size="11" textLength="41">: string</text><text x="3095" y="1498.804" fill="#D9B8FF" font-family="sans-serif" font-size="11" font-weight="bold" textLength="46">phases</text><text x="3141" y="1498.804" fill="#D9B8FF" font-family="sans-serif" font-size="11" textLength="150">: aws_sagemaker_phase[]</text></a><a xlink:actuate="onRequest" xlink:href="#p" xlink:show="new" xlink:title="#aws_sagemaker_phase" xlink:type="simple" target="_top"><rect id="p" width="234" height="116.203" x="3119.5" y="1627" fill="#3D176E" rx="2.5" ry="2.5" style="stroke:#000d19;stroke-width:1.5"/><circle cx="3134.5" cy="1646.895" r="11" fill="#E98DF7" style="stroke:#000d19;stroke-width:1"/><path d="M3137.469 1652.535q-.578.297-1.219.438-.64.156-1.344.156-2.5 0-3.828-1.64-1.312-1.657-1.312-4.782t1.312-4.781q1.328-1.656 3.828-1.656.703 0 1.344.156.656.156 1.219.453v2.719q-.625-.578-1.219-.844-.594-.281-1.219-.281-1.343 0-2.031 1.078-.688 1.062-.688 3.156 0 2.094.688 3.172.688 1.062 2.031 1.062.625 0 1.219-.265.594-.281 1.219-.86v2.72Z"/><text x="3153.5" y="1652.78" fill="#D9B8FF" font-family="Helvetica" font-size="17" textLength="192">aws_sagemaker_phase</text><path d="M3120.5 1666.789h232" style="stroke:#000d19;stroke-width:1.5"/><text x="3130.5" y="1685.999" fill="#D9B8FF" font-family="sans-serif" font-size="11" font-weight="bold" textLength="151">initial_number_of_users</text><text x="3281.5" y="1685.999" fill="#D9B8FF" font-family="sans-serif" font-size="11" textLength="36">: int64</text><text x="3130.5" y="1708.804" fill="#D9B8FF" font-family="sans-serif" font-size="11" font-weight="bold" textLength="74">spawn_rate</text><text x="3204.5" y="1708.804" fill="#D9B8FF" font-family="sans-serif" font-size="11" textLength="36">: int64</text><text x="3130.5" y="1731.609" fill="#D9B8FF" font-family="sans-serif" font-size="11" font-weight="bold" textLength="131">duration_in_seconds</text><text x="3261.5" y="1731.609" fill="#D9B8FF" font-family="sans-serif" font-size="11" textLength="36">: int64</text></a><a xlink:actuate="onRequest" xlink:href="#q" xlink:show="new" xlink:title="#aws_sagemaker_recommendation_job_resource_limit" xlink:type="simple" target="_top"><rect id="q" width="490" height="93.398" x="3424.5" y="1417" fill="#3D176E" rx="2.5" ry="2.5" style="stroke:#000d19;stroke-width:1.5"/><circle cx="3439.5" cy="1436.895" r="11" fill="#E98DF7" style="stroke:#000d19;stroke-width:1"/><path d="M3442.469 1442.535q-.578.297-1.219.438-.64.156-1.344.156-2.5 0-3.828-1.64-1.312-1.657-1.312-4.782t1.312-4.781q1.328-1.656 3.828-1.656.703 0 1.344.156.656.156 1.219.453v2.719q-.625-.578-1.219-.844-.594-.281-1.219-.281-1.343 0-2.031 1.078-.688 1.062-.688 3.156 0 2.094.688 3.172.688 1.062 2.031 1.062.625 0 1.219-.265.594-.281 1.219-.86v2.72Z"/><text x="3458.5" y="1442.78" fill="#D9B8FF" font-family="Helvetica" font-size="17" textLength="448">aws_sagemaker_recommendation_job_resource_limit</text><path d="M3425.5 1456.789h488" style="stroke:#000d19;stroke-width:1.5"/><text x="3435.5" y="1475.999" fill="#D9B8FF" font-family="sans-serif" font-size="11" font-weight="bold" textLength="137">max_number_of_tests</text><text x="3572.5" y="1475.999" fill="#D9B8FF" font-family="sans-serif" font-size="11" textLength="36">: int64</text><text x="3435.5" y="1498.804" fill="#D9B8FF" font-family="sans-serif" font-size="11" font-weight="bold" textLength="138">max_parallel_of_tests</text><text x="3573.5" y="1498.804" fill="#D9B8FF" font-family="sans-serif" font-size="11" textLength="36">: int64</text></a><a xlink:actuate="onRequest" xlink:href="#r" xlink:show="new" xlink:title="#aws_sagemaker_recommendation_job_stopping_conditions" xlink:type="simple" target="_top"><rect id="r" width="536" height="93.398" x="1294.5" y="1138.5" fill="#3D176E" rx="2.5" ry="2.5" style="stroke:#000d19;stroke-width:1.5"/><circle cx="1309.5" cy="1158.395" r="11" fill="#E98DF7" style="stroke:#000d19;stroke-width:1"/><path d="M1312.469 1164.035q-.578.297-1.219.438-.64.156-1.344.156-2.5 0-3.828-1.64-1.312-1.657-1.312-4.782t1.312-4.781q1.328-1.656 3.828-1.656.703 0 1.344.156.656.156 1.219.453v2.719q-.625-.578-1.219-.844-.594-.281-1.219-.281-1.343 0-2.031 1.078-.688 1.062-.688 3.156 0 2.094.688 3.172.688 1.062 2.031 1.062.625 0 1.219-.265.594-.281 1.219-.86v2.72Z"/><text x="1328.5" y="1164.28" fill="#D9B8FF" font-family="Helvetica" font-size="17" textLength="494">aws_sagemaker_recommendation_job_stopping_conditions</text><path d="M1295.5 1178.289h534" style="stroke:#000d19;stroke-width:1.5"/><text x="1305.5" y="1197.499" fill="#D9B8FF" font-family="sans-serif" font-size="11" font-weight="bold" textLength="106">max_invocations</text><text x="1411.5" y="1197.499" fill="#D9B8FF" font-family="sans-serif" font-size="11" textLength="36">: int64</text><text x="1305.5" y="1220.304" fill="#D9B8FF" font-family="sans-serif" font-size="11" font-weight="bold" textLength="166">model_latency_thresholds</text><text x="1471.5" y="1220.304" fill="#D9B8FF" font-family="sans-serif" font-size="11" textLength="256">: aws_sagemaker_model_latency_threshold[]</text></a><a xlink:actuate="onRequest" xlink:href="#s" xlink:show="new" xlink:title="#aws_sagemaker_endpoint_performance" xlink:type="simple" target="_top"><rect id="s" width="374" height="93.398" x="1865.5" y="1138.5" fill="#3D176E" rx="2.5" ry="2.5" style="stroke:#000d19;stroke-width:1.5"/><circle cx="1880.5" cy="1158.395" r="11" fill="#E98DF7" style="stroke:#000d19;stroke-width:1"/><path d="M1883.469 1164.035q-.578.297-1.219.438-.64.156-1.344.156-2.5 0-3.828-1.64-1.312-1.657-1.312-4.782t1.312-4.781q1.328-1.656 3.828-1.656.703 0 1.344.156.656.156 1.219.453v2.719q-.625-.578-1.219-.844-.594-.281-1.219-.281-1.343 0-2.031 1.078-.688 1.062-.688 3.156 0 2.094.688 3.172.688 1.062 2.031 1.062.625 0 1.219-.265.594-.281 1.219-.86v2.72Z"/><text x="1899.5" y="1164.28" fill="#D9B8FF" font-family="Helvetica" font-size="17" textLength="332">aws_sagemaker_endpoint_performance</text><path d="M1866.5 1178.289h372" style="stroke:#000d19;stroke-width:1.5"/><text x="1876.5" y="1197.499" fill="#D9B8FF" font-family="sans-serif" font-size="11" font-weight="bold" textLength="47">metrics</text><text x="1923.5" y="1197.499" fill="#D9B8FF" font-family="sans-serif" font-size="11" textLength="209">: aws_sagemaker_inference_metrics</text><text x="1876.5" y="1220.304" fill="#D9B8FF" font-family="sans-serif" font-size="11" font-weight="bold" textLength="88">endpoint_info</text><text x="1964.5" y="1220.304" fill="#D9B8FF" font-family="sans-serif" font-size="11" textLength="41">: string</text></a><a xlink:actuate="onRequest" xlink:href="#t" xlink:show="new" xlink:title="#aws_sagemaker_recommendation_job_input_config" xlink:type="simple" target="_top"><rect id="t" width="474" height="230.227" x="2778.5" y="1070" fill="#3D176E" rx="2.5" ry="2.5" style="stroke:#000d19;stroke-width:1.5"/><circle cx="2793.5" cy="1089.895" r="11" fill="#E98DF7" style="stroke:#000d19;stroke-width:1"/><path d="M2796.469 1095.535q-.578.297-1.219.438-.64.156-1.344.156-2.5 0-3.828-1.64-1.312-1.657-1.312-4.782t1.312-4.781q1.328-1.656 3.828-1.656.703 0 1.344.156.656.156 1.219.453v2.719q-.625-.578-1.219-.844-.594-.281-1.219-.281-1.343 0-2.031 1.078-.688 1.062-.688 3.156 0 2.094.688 3.172.688 1.062 2.031 1.062.625 0 1.219-.265.594-.281 1.219-.86v2.72Z"/><text x="2812.5" y="1095.78" fill="#D9B8FF" font-family="Helvetica" font-size="17" textLength="432">aws_sagemaker_recommendation_job_input_config</text><path d="M2779.5 1109.789h472" style="stroke:#000d19;stroke-width:1.5"/><text x="2789.5" y="1128.999" fill="#D9B8FF" font-family="sans-serif" font-size="11" font-weight="bold" textLength="179">model_package_version_arn</text><text x="2968.5" y="1128.999" fill="#D9B8FF" font-family="sans-serif" font-size="11" textLength="41">: string</text><text x="2789.5" y="1151.804" fill="#D9B8FF" font-family="sans-serif" font-size="11" font-weight="bold" textLength="157">job_duration_in_seconds</text><text x="2946.5" y="1151.804" fill="#D9B8FF" font-family="sans-serif" font-size="11" textLength="36">: int64</text><text x="2789.5" y="1174.609" fill="#D9B8FF" font-family="sans-serif" font-size="11" font-weight="bold" textLength="92">traffic_pattern</text><text x="2881.5" y="1174.609" fill="#D9B8FF" font-family="sans-serif" font-size="11" textLength="187">: aws_sagemaker_traffic_pattern</text><text x="2789.5" y="1197.414" fill="#D9B8FF" font-family="sans-serif" font-size="11" font-weight="bold" textLength="90">resource_limit</text><text x="2879.5" y="1197.414" fill="#D9B8FF" font-family="sans-serif" font-size="11" textLength="313">: aws_sagemaker_recommendation_job_resource_limit</text><text x="2789.5" y="1220.218" fill="#D9B8FF" font-family="sans-serif" font-size="11" font-weight="bold" textLength="156">endpoint_configurations</text><text x="2945.5" y="1220.218" fill="#D9B8FF" font-family="sans-serif" font-size="11" textLength="278">: aws_sagemaker_endpoint_input_configuration[]</text><text x="2789.5" y="1243.023" fill="#D9B8FF" font-family="sans-serif" font-size="11" font-weight="bold" textLength="107">container_config</text><text x="2896.5" y="1243.023" fill="#D9B8FF" font-family="sans-serif" font-size="11" textLength="325">: aws_sagemaker_recommendation_job_container_config</text><text x="2789.5" y="1265.828" fill="#D9B8FF" font-family="sans-serif" font-size="11" font-weight="bold" textLength="64">endpoints</text><text x="2853.5" y="1265.828" fill="#D9B8FF" font-family="sans-serif" font-size="11" textLength="49">: string[]</text><text x="2789.5" y="1288.632" fill="#D9B8FF" font-family="sans-serif" font-size="11" font-weight="bold" textLength="68">vpc_config</text><text x="2857.5" y="1288.632" fill="#D9B8FF" font-family="sans-serif" font-size="11" textLength="166">: aws_sagemaker_vpc_config</text></a><a xlink:actuate="onRequest" xlink:href="#u" xlink:show="new" xlink:title="#aws_sagemaker_endpoint_input_configuration" xlink:type="simple" target="_top"><rect id="u" width="514" height="116.203" x="3949.5" y="1405.5" fill="#3D176E" rx="2.5" ry="2.5" style="stroke:#000d19;stroke-width:1.5"/><circle cx="4002.25" cy="1425.395" r="11" fill="#E98DF7" style="stroke:#000d19;stroke-width:1"/><path d="M4005.219 1431.035q-.578.297-1.219.438-.64.156-1.344.156-2.5 0-3.828-1.64-1.312-1.657-1.312-4.782t1.312-4.781q1.328-1.656 3.828-1.656.703 0 1.344.156.656.156 1.219.453v2.719q-.625-.578-1.219-.844-.594-.281-1.219-.281-1.343 0-2.031 1.078-.688 1.062-.688 3.156 0 2.094.688 3.172.688 1.062 2.031 1.062.625 0 1.219-.265.594-.281 1.219-.86v2.72Z"/><text x="4027.75" y="1431.28" fill="#D9B8FF" font-family="Helvetica" font-size="17" textLength="390">aws_sagemaker_endpoint_input_configuration</text><path d="M3950.5 1445.289h512" style="stroke:#000d19;stroke-width:1.5"/><text x="3960.5" y="1464.499" fill="#D9B8FF" font-family="sans-serif" font-size="11" font-weight="bold" textLength="89">instance_type</text><text x="4049.5" y="1464.499" fill="#D9B8FF" font-family="sans-serif" font-size="11" textLength="41">: string</text><text x="3960.5" y="1487.304" fill="#D9B8FF" font-family="sans-serif" font-size="11" font-weight="bold" textLength="191">inference_specification_name</text><text x="4151.5" y="1487.304" fill="#D9B8FF" font-family="sans-serif" font-size="11" textLength="41">: string</text><text x="3960.5" y="1510.109" fill="#D9B8FF" font-family="sans-serif" font-size="11" font-weight="bold" textLength="202">environment_parameter_ranges</text><text x="4162.5" y="1510.109" fill="#D9B8FF" font-family="sans-serif" font-size="11" textLength="290">: aws_sagemaker_environment_parameter_ranges</text></a><a xlink:actuate="onRequest" xlink:href="#v" xlink:show="new" xlink:title="#aws_sagemaker_environment_parameter_ranges" xlink:type="simple" target="_top"><rect id="v" width="456" height="70.594" x="3978.5" y="1649.5" fill="#3D176E" rx="2.5" ry="2.5" style="stroke:#000d19;stroke-width:1.5"/><circle cx="3993.5" cy="1669.395" r="11" fill="#E98DF7" style="stroke:#000d19;stroke-width:1"/><path d="M3996.469 1675.035q-.578.297-1.219.438-.64.156-1.344.156-2.5 0-3.828-1.64-1.312-1.657-1.312-4.782t1.312-4.781q1.328-1.656 3.828-1.656.703 0 1.344.156.656.156 1.219.453v2.719q-.625-.578-1.219-.844-.594-.281-1.219-.281-1.343 0-2.031 1.078-.688 1.062-.688 3.156 0 2.094.688 3.172.688 1.062 2.031 1.062.625 0 1.219-.265.594-.281 1.219-.86v2.72Z"/><text x="4012.5" y="1675.28" fill="#D9B8FF" font-family="Helvetica" font-size="17" textLength="414">aws_sagemaker_environment_parameter_ranges</text><path d="M3979.5 1689.289h454" style="stroke:#000d19;stroke-width:1.5"/><text x="3989.5" y="1708.499" fill="#D9B8FF" font-family="sans-serif" font-size="11" font-weight="bold" textLength="194">categorical_parameter_ranges</text><text x="4183.5" y="1708.499" fill="#D9B8FF" font-family="sans-serif" font-size="11" textLength="49">: string[]</text></a><path fill="none" d="M1807.5 303.43V403.9m-7-100.64 7-20 7 20h-14zm7 192.26v100.3m-7-100.43 7-20 7 20h-14zm7 160.95v100.39m-7-100.64 7-20 7 20h-14zm361.68 316.35c196.73 48.77 436.26 108.16 611.4 151.58" style="stroke:#ffaf37;stroke-width:2"/><path fill="#FFAF37" d="m2778.49 1125.24-7.757-6.069 2.907 4.853-4.853 2.907 9.703-1.691z" style="stroke:#ffaf37;stroke-width:2"/><path fill="none" d="M1704.66 1010.21c-35.73 43.69-73.76 90.18-101.49 124.07" style="stroke:#ffaf37;stroke-width:2"/><path fill="#FFAF37" d="m1599.84 1138.35 8.798-4.427-5.63.56-.559-5.63-2.609 9.497z" style="stroke:#ffaf37;stroke-width:2"/><path fill="none" d="M1452.81 996.56c-138.72 43.82-292.02 92.26-408.05 128.91" style="stroke:#ffaf37;stroke-width:2"/><path fill="#FFAF37" d="m1039.96 1126.99 9.788 1.09-5.022-2.602 2.602-5.023-7.368 6.535z" style="stroke:#ffaf37;stroke-width:2"/><path fill="none" d="M1910.34 1010.21c35.73 43.69 73.76 90.18 101.49 124.07" style="stroke:#ffaf37;stroke-width:2"/><path fill="#FFAF37" d="m2015.16 1138.35-2.609-9.497-.56 5.63-5.629-.56 8.798 4.427z" style="stroke:#ffaf37;stroke-width:2"/><path fill="none" d="M709.35 1243.04c-84.76 32.89-192.34 75.77-286.85 116.96-22.83 9.95-46.82 20.87-70.18 31.75" style="stroke:#ffaf37;stroke-width:2"/><path fill="#FFAF37" d="m347.65 1393.93 9.847-.183-5.316-1.932 1.932-5.317-6.463 7.432z" style="stroke:#ffaf37;stroke-width:2"/><path fill="none" d="M818.68 1243.29c-30.25 42.46-71.7 100.64-104.3 146.39" style="stroke:#ffaf37;stroke-width:2"/><path fill="#FFAF37" d="m711.45 1393.79 8.491-4.99-5.58.924-.925-5.58-1.986 9.646z" style="stroke:#ffaf37;stroke-width:2"/><path fill="none" d="M916.89 1243.29c50.2 50.1 122.34 122.11 170.06 169.75" style="stroke:#ffaf37;stroke-width:2"/><path fill="#FFAF37" d="m1090.63 1416.71-3.536-9.192v5.657h-5.656l9.192 3.535z" style="stroke:#ffaf37;stroke-width:2"/><path fill="none" d="M1136.5 1510.25v111.55" style="stroke:#ffaf37;stroke-width:2"/><path fill="#FFAF37" d="m1136.5 1626.98 4-9-4 4-4-4 4 9z" style="stroke:#ffaf37;stroke-width:2"/><path fill="none" d="M2794.5 1567.18v66.04" style="stroke:#ffaf37;stroke-width:2"/><path fill="#FFAF37" d="m2794.5 1638.42 4-9-4 4-4-4 4 9z" style="stroke:#ffaf37;stroke-width:2"/><path fill="none" d="M3236.5 1510.25v111.55" style="stroke:#ffaf37;stroke-width:2"/><path fill="#FFAF37" d="m3236.5 1626.98 4-9-4 4-4-4 4 9z" style="stroke:#ffaf37;stroke-width:2"/><path fill="none" d="M1566.3 1231.66c4.12 49.53 10.68 128.4 14.96 179.91" style="stroke:#ffaf37;stroke-width:2"/><path fill="#FFAF37" d="m1581.7 1416.77 3.241-9.3-3.655 4.317-4.318-3.655 4.732 8.638z" style="stroke:#ffaf37;stroke-width:2"/><path fill="none" d="M2048.87 1231.66c-3.94 49.53-10.22 128.4-14.32 179.91" style="stroke:#ffaf37;stroke-width:2"/><path fill="#FFAF37" d="m2034.14 1416.77 4.707-8.651-4.307 3.667-3.667-4.307 3.267 9.291z" style="stroke:#ffaf37;stroke-width:2"/><path fill="none" d="M3106.67 1300.06c31.4 39.29 64.96 81.28 90.09 112.72" style="stroke:#ffaf37;stroke-width:2"/><path fill="#FFAF37" d="m3200.09 1416.95-2.495-9.528-.627 5.622-5.622-.627 8.744 4.533z" style="stroke:#ffaf37;stroke-width:2"/><path fill="none" d="M3252.53 1286.21c103.76 43.87 220.63 93.28 304.18 128.6" style="stroke:#ffaf37;stroke-width:2"/><path fill="#FFAF37" d="m3561.66 1416.91-6.735-7.187 2.129 5.242-5.241 2.128 9.847-.183z" style="stroke:#ffaf37;stroke-width:2"/><path fill="none" d="M3252.69 1219.62c186.66 29.18 452.36 76.76 679.81 140.38 43.09 12.05 88.98 27.95 130.63 43.62" style="stroke:#ffaf37;stroke-width:2"/><path fill="#FFAF37" d="m4067.93 1405.43-6.997-6.931 2.322 5.158-5.159 2.322 9.834-.549z" style="stroke:#ffaf37;stroke-width:2"/><path fill="none" d="M2924.33 1300.06c-14.7 18.39-29.87 37.38-44.43 55.59" style="stroke:#ffaf37;stroke-width:2"/><path fill="#FFAF37" d="m2876.61 1359.77 8.744-4.533-5.622.627-.628-5.622-2.494 9.528z" style="stroke:#ffaf37;stroke-width:2"/><path fill="none" d="M2778.3 1256.43c-82.78 28.03-175.11 63.26-255.8 103.57-30.55 15.26-62.28 35.52-88.95 54" style="stroke:#ffaf37;stroke-width:2"/><path fill="#FFAF37" d="m2429.32 1416.95 9.67-1.864-5.568-.995.995-5.568-5.097 8.427z" style="stroke:#ffaf37;stroke-width:2"/><path fill="none" d="M4206.5 1521.6v122.48" style="stroke:#ffaf37;stroke-width:2"/><path fill="#FFAF37" d="m4206.5 1649.44 4-9-4 4-4-4 4 9z" style="stroke:#ffaf37;stroke-width:2"/></svg>