<svg xmlns="http://www.w3.org/2000/svg" xmlns:xlink="http://www.w3.org/1999/xlink" width="3705" height="1704" preserveAspectRatio="none" style="width:3705px;height:1704px;background:#00000000"><a xlink:actuate="onRequest" xlink:href="#a" xlink:show="new" xlink:title="#resource" xlink:type="simple" target="_top"><rect id="a" width="195" height="275.836" x="2495" y="7" fill="#3D176E" rx="2.5" ry="2.5" style="stroke:#000d19;stroke-width:1.5"/><circle cx="2547.75" cy="26.895" r="11" fill="#E98DF7" style="stroke:#000d19;stroke-width:1"/><path d="M2550.719 32.535q-.578.297-1.219.438-.64.156-1.344.156-2.5 0-3.828-1.64-1.312-1.657-1.312-4.782t1.312-4.781q1.328-1.656 3.828-1.656.703 0 1.344.156.656.156 1.219.453v2.719q-.625-.578-1.219-.844-.594-.281-1.219-.281-1.343 0-2.031 1.078-.688 1.062-.688 3.156 0 2.094.688 3.172.688 1.062 2.031 1.062.625 0 1.219-.265.594-.281 1.219-.86v2.72Z"/><text x="2573.25" y="32.78" fill="#D9B8FF" font-family="Helvetica" font-size="17" textLength="71">resource</text><path d="M2496 46.789h193" style="stroke:#000d19;stroke-width:1.5"/><text x="2506" y="65.999" fill="#D9B8FF" font-family="sans-serif" font-size="11" font-weight="bold" textLength="12">id</text><text x="2518" y="65.999" fill="#D9B8FF" font-family="sans-serif" font-size="11" textLength="41">: string</text><text x="2506" y="88.804" fill="#D9B8FF" font-family="sans-serif" font-size="11" font-weight="bold" textLength="28">tags</text><text x="2534" y="88.804" fill="#D9B8FF" font-family="sans-serif" font-size="11" textLength="145">: dictionary[string, string]</text><text x="2506" y="111.609" fill="#D9B8FF" font-family="sans-serif" font-size="11" font-weight="bold" textLength="35">name</text><text x="2541" y="111.609" fill="#D9B8FF" font-family="sans-serif" font-size="11" textLength="41">: string</text><text x="2506" y="134.414" fill="#D9B8FF" font-family="sans-serif" font-size="11" font-weight="bold" textLength="35">ctime</text><text x="2541" y="134.414" fill="#D9B8FF" font-family="sans-serif" font-size="11" textLength="58">: datetime</text><text x="2506" y="157.218" fill="#D9B8FF" font-family="sans-serif" font-size="11" font-weight="bold" textLength="24">age</text><text x="2530" y="157.218" fill="#D9B8FF" font-family="sans-serif" font-size="11" textLength="55">: duration</text><text x="2506" y="180.023" fill="#D9B8FF" font-family="sans-serif" font-size="11" font-weight="bold" textLength="39">mtime</text><text x="2545" y="180.023" fill="#D9B8FF" font-family="sans-serif" font-size="11" textLength="58">: datetime</text><text x="2506" y="202.828" fill="#D9B8FF" font-family="sans-serif" font-size="11" font-weight="bold" textLength="75">last_update</text><text x="2581" y="202.828" fill="#D9B8FF" font-family="sans-serif" font-size="11" textLength="55">: duration</text><text x="2506" y="225.632" fill="#D9B8FF" font-family="sans-serif" font-size="11" font-weight="bold" textLength="36">atime</text><text x="2542" y="225.632" fill="#D9B8FF" font-family="sans-serif" font-size="11" textLength="58">: datetime</text><text x="2506" y="248.437" fill="#D9B8FF" font-family="sans-serif" font-size="11" font-weight="bold" textLength="74">last_access</text><text x="2580" y="248.437" fill="#D9B8FF" font-family="sans-serif" font-size="11" textLength="55">: duration</text><text x="2506" y="271.242" fill="#D9B8FF" font-family="sans-serif" font-size="11" font-weight="bold" textLength="27">kind</text><text x="2533" y="271.242" fill="#D9B8FF" font-family="sans-serif" font-size="11" textLength="41">: string</text></a><a xlink:actuate="onRequest" xlink:href="#b" xlink:show="new" xlink:title="#aws_resource" xlink:type="simple" target="_top"><rect id="b" width="155" height="70.594" x="2515" y="404" fill="#3D176E" rx="2.5" ry="2.5" style="stroke:#000d19;stroke-width:1.5"/><circle cx="2530" cy="423.894" r="11" fill="#E98DF7" style="stroke:#000d19;stroke-width:1"/><path d="M2532.969 429.535q-.578.297-1.219.438-.64.156-1.344.156-2.5 0-3.828-1.64-1.312-1.657-1.312-4.782t1.312-4.781q1.328-1.656 3.828-1.656.703 0 1.344.156.656.156 1.219.453v2.719q-.625-.579-1.219-.844-.594-.281-1.219-.281-1.343 0-2.031 1.078-.688 1.062-.688 3.156 0 2.094.688 3.172.688 1.062 2.031 1.062.625 0 1.219-.265.594-.281 1.219-.86v2.72Z"/><text x="2549" y="429.78" fill="#D9B8FF" font-family="Helvetica" font-size="17" textLength="113">aws_resource</text><path d="M2516 443.789h153" style="stroke:#000d19;stroke-width:1.5"/><text x="2526" y="463" fill="#D9B8FF" font-family="sans-serif" font-size="11" font-weight="bold" textLength="21">arn</text><text x="2547" y="463" fill="#D9B8FF" font-family="sans-serif" font-size="11" textLength="41">: string</text></a><a xlink:actuate="onRequest" xlink:href="#c" xlink:show="new" xlink:title="#aws_sagemaker_domain" xlink:type="simple" target="_top"><rect id="c" width="461" height="412.664" x="2362" y="596" fill="#3D176E" rx="2.5" ry="2.5" style="stroke:#000d19;stroke-width:1.5"/><circle cx="2480.25" cy="615.894" r="11" fill="#E98DF7" style="stroke:#000d19;stroke-width:1"/><path d="M2483.219 621.535q-.578.297-1.219.438-.64.156-1.344.156-2.5 0-3.828-1.64-1.312-1.657-1.312-4.782t1.312-4.781q1.328-1.657 3.828-1.657.703 0 1.344.157.656.156 1.219.453v2.719q-.625-.578-1.219-.844-.594-.281-1.219-.281-1.343 0-2.031 1.078-.688 1.062-.688 3.156 0 2.094.688 3.172.688 1.062 2.031 1.062.625 0 1.219-.265.594-.282 1.219-.86v2.72Z"/><text x="2505.75" y="621.78" fill="#D9B8FF" font-family="Helvetica" font-size="17" textLength="206">aws_sagemaker_domain</text><path d="M2363 635.789h459" style="stroke:#000d19;stroke-width:1.5"/><text x="2373" y="655" fill="#D9B8FF" font-family="sans-serif" font-size="11" font-weight="bold" textLength="210">domain_home_efs_file_system_id</text><text x="2583" y="655" fill="#D9B8FF" font-family="sans-serif" font-size="11" textLength="41">: string</text><text x="2373" y="677.804" fill="#D9B8FF" font-family="sans-serif" font-size="11" font-weight="bold" textLength="369">domain_single_sign_on_managed_application_instance_id</text><text x="2742" y="677.804" fill="#D9B8FF" font-family="sans-serif" font-size="11" textLength="41">: string</text><text x="2373" y="700.609" fill="#D9B8FF" font-family="sans-serif" font-size="11" font-weight="bold" textLength="93">domain_status</text><text x="2466" y="700.609" fill="#D9B8FF" font-family="sans-serif" font-size="11" textLength="41">: string</text><text x="2373" y="723.414" fill="#D9B8FF" font-family="sans-serif" font-size="11" font-weight="bold" textLength="145">domain_failure_reason</text><text x="2518" y="723.414" fill="#D9B8FF" font-family="sans-serif" font-size="11" textLength="41">: string</text><text x="2373" y="746.218" fill="#D9B8FF" font-family="sans-serif" font-size="11" font-weight="bold" textLength="123">domain_auth_mode</text><text x="2496" y="746.218" fill="#D9B8FF" font-family="sans-serif" font-size="11" textLength="41">: string</text><text x="2373" y="769.023" fill="#D9B8FF" font-family="sans-serif" font-size="11" font-weight="bold" textLength="191">domain_default_user_settings</text><text x="2564" y="769.023" fill="#D9B8FF" font-family="sans-serif" font-size="11" textLength="185">: aws_sagemaker_user_settings</text><text x="2373" y="791.828" fill="#D9B8FF" font-family="sans-serif" font-size="11" font-weight="bold" textLength="219">domain_app_network_access_type</text><text x="2592" y="791.828" fill="#D9B8FF" font-family="sans-serif" font-size="11" textLength="41">: string</text><text x="2373" y="814.632" fill="#D9B8FF" font-family="sans-serif" font-size="11" font-weight="bold" textLength="269">domain_home_efs_file_system_kms_key_id</text><text x="2642" y="814.632" fill="#D9B8FF" font-family="sans-serif" font-size="11" textLength="41">: string</text><text x="2373" y="837.437" fill="#D9B8FF" font-family="sans-serif" font-size="11" font-weight="bold" textLength="122">domain_subnet_ids</text><text x="2495" y="837.437" fill="#D9B8FF" font-family="sans-serif" font-size="11" textLength="49">: string[]</text><text x="2373" y="860.242" fill="#D9B8FF" font-family="sans-serif" font-size="11" font-weight="bold" textLength="70">domain_url</text><text x="2443" y="860.242" fill="#D9B8FF" font-family="sans-serif" font-size="11" textLength="41">: string</text><text x="2373" y="883.046" fill="#D9B8FF" font-family="sans-serif" font-size="11" font-weight="bold" textLength="93">domain_vpc_id</text><text x="2466" y="883.046" fill="#D9B8FF" font-family="sans-serif" font-size="11" textLength="41">: string</text><text x="2373" y="905.851" fill="#D9B8FF" font-family="sans-serif" font-size="11" font-weight="bold" textLength="124">domain_kms_key_id</text><text x="2497" y="905.851" fill="#D9B8FF" font-family="sans-serif" font-size="11" textLength="41">: string</text><text x="2373" y="928.656" fill="#D9B8FF" font-family="sans-serif" font-size="11" font-weight="bold" textLength="105">domain_settings</text><text x="2478" y="928.656" fill="#D9B8FF" font-family="sans-serif" font-size="11" textLength="201">: aws_sagemaker_domain_settings</text><text x="2373" y="951.46" fill="#D9B8FF" font-family="sans-serif" font-size="11" font-weight="bold" textLength="266">domain_app_security_group_management</text><text x="2639" y="951.46" fill="#D9B8FF" font-family="sans-serif" font-size="11" textLength="41">: string</text><text x="2373" y="974.265" fill="#D9B8FF" font-family="sans-serif" font-size="11" font-weight="bold" textLength="308">domain_security_group_id_for_domain_boundary</text><text x="2681" y="974.265" fill="#D9B8FF" font-family="sans-serif" font-size="11" textLength="41">: string</text><text x="2373" y="997.07" fill="#D9B8FF" font-family="sans-serif" font-size="11" font-weight="bold" textLength="201">domain_default_space_settings</text><text x="2574" y="997.07" fill="#D9B8FF" font-family="sans-serif" font-size="11" textLength="238">: aws_sagemaker_default_space_settings</text></a><a xlink:actuate="onRequest" xlink:href="#d" xlink:show="new" xlink:title="#aws_sagemaker_user_settings" xlink:type="simple" target="_top"><rect id="d" width="534" height="230.227" x="1612.5" y="1069" fill="#3D176E" rx="2.5" ry="2.5" style="stroke:#000d19;stroke-width:1.5"/><circle cx="1743.25" cy="1088.895" r="11" fill="#E98DF7" style="stroke:#000d19;stroke-width:1"/><path d="M1746.219 1094.535q-.578.297-1.219.438-.64.156-1.344.156-2.5 0-3.828-1.64-1.312-1.657-1.312-4.782t1.312-4.781q1.328-1.656 3.828-1.656.703 0 1.344.156.656.156 1.219.453v2.719q-.625-.578-1.219-.844-.594-.281-1.219-.281-1.343 0-2.031 1.078-.688 1.062-.688 3.156 0 2.094.688 3.172.688 1.062 2.031 1.062.625 0 1.219-.265.594-.281 1.219-.86v2.72Z"/><text x="1768.75" y="1094.78" fill="#D9B8FF" font-family="Helvetica" font-size="17" textLength="254">aws_sagemaker_user_settings</text><path d="M1613.5 1108.789h532" style="stroke:#000d19;stroke-width:1.5"/><text x="1623.5" y="1127.999" fill="#D9B8FF" font-family="sans-serif" font-size="11" font-weight="bold" textLength="94">execution_role</text><text x="1717.5" y="1127.999" fill="#D9B8FF" font-family="sans-serif" font-size="11" textLength="41">: string</text><text x="1623.5" y="1150.804" fill="#D9B8FF" font-family="sans-serif" font-size="11" font-weight="bold" textLength="106">sharing_settings</text><text x="1729.5" y="1150.804" fill="#D9B8FF" font-family="sans-serif" font-size="11" textLength="202">: aws_sagemaker_sharing_settings</text><text x="1623.5" y="1173.609" fill="#D9B8FF" font-family="sans-serif" font-size="11" font-weight="bold" textLength="179">jupyter_server_app_settings</text><text x="1802.5" y="1173.609" fill="#D9B8FF" font-family="sans-serif" font-size="11" textLength="268">: aws_sagemaker_jupyter_server_app_settings</text><text x="1623.5" y="1196.414" fill="#D9B8FF" font-family="sans-serif" font-size="11" font-weight="bold" textLength="189">kernel_gateway_app_settings</text><text x="1812.5" y="1196.414" fill="#D9B8FF" font-family="sans-serif" font-size="11" textLength="274">: aws_sagemaker_kernel_gateway_app_settings</text><text x="1623.5" y="1219.218" fill="#D9B8FF" font-family="sans-serif" font-size="11" font-weight="bold" textLength="172">tensor_board_app_settings</text><text x="1795.5" y="1219.218" fill="#D9B8FF" font-family="sans-serif" font-size="11" textLength="262">: aws_sagemaker_tensor_board_app_settings</text><text x="1623.5" y="1242.023" fill="#D9B8FF" font-family="sans-serif" font-size="11" font-weight="bold" textLength="212">r_studio_server_pro_app_settings</text><text x="1835.5" y="1242.023" fill="#D9B8FF" font-family="sans-serif" font-size="11" textLength="300">: aws_sagemaker_r_studio_server_pro_app_settings</text><text x="1623.5" y="1264.828" fill="#D9B8FF" font-family="sans-serif" font-size="11" font-weight="bold" textLength="148">r_session_app_settings</text><text x="1771.5" y="1264.828" fill="#D9B8FF" font-family="sans-serif" font-size="11" textLength="242">: aws_sagemaker_r_session_app_settings</text><text x="1623.5" y="1287.632" fill="#D9B8FF" font-family="sans-serif" font-size="11" font-weight="bold" textLength="133">canvas_app_settings</text><text x="1756.5" y="1287.632" fill="#D9B8FF" font-family="sans-serif" font-size="11" textLength="226">: aws_sagemaker_canvas_app_settings</text></a><a xlink:actuate="onRequest" xlink:href="#e" xlink:show="new" xlink:title="#aws_sagemaker_sharing_settings" xlink:type="simple" target="_top"><rect id="e" width="322" height="116.203" x="1068.5" y="1370.5" fill="#3D176E" rx="2.5" ry="2.5" style="stroke:#000d19;stroke-width:1.5"/><circle cx="1083.5" cy="1390.395" r="11" fill="#E98DF7" style="stroke:#000d19;stroke-width:1"/><path d="M1086.469 1396.035q-.578.297-1.219.438-.64.156-1.344.156-2.5 0-3.828-1.64-1.312-1.657-1.312-4.782t1.312-4.781q1.328-1.656 3.828-1.656.703 0 1.344.156.656.156 1.219.453v2.719q-.625-.578-1.219-.844-.594-.281-1.219-.281-1.343 0-2.031 1.078-.688 1.062-.688 3.156 0 2.094.688 3.172.688 1.062 2.031 1.062.625 0 1.219-.265.594-.281 1.219-.86v2.72Z"/><text x="1102.5" y="1396.28" fill="#D9B8FF" font-family="Helvetica" font-size="17" textLength="280">aws_sagemaker_sharing_settings</text><path d="M1069.5 1410.289h320" style="stroke:#000d19;stroke-width:1.5"/><text x="1079.5" y="1429.499" fill="#D9B8FF" font-family="sans-serif" font-size="11" font-weight="bold" textLength="155">notebook_output_option</text><text x="1234.5" y="1429.499" fill="#D9B8FF" font-family="sans-serif" font-size="11" textLength="41">: string</text><text x="1079.5" y="1452.304" fill="#D9B8FF" font-family="sans-serif" font-size="11" font-weight="bold" textLength="98">s3_output_path</text><text x="1177.5" y="1452.304" fill="#D9B8FF" font-family="sans-serif" font-size="11" textLength="41">: string</text><text x="1079.5" y="1475.109" fill="#D9B8FF" font-family="sans-serif" font-size="11" font-weight="bold" textLength="92">s3_kms_key_id</text><text x="1171.5" y="1475.109" fill="#D9B8FF" font-family="sans-serif" font-size="11" textLength="41">: string</text></a><a xlink:actuate="onRequest" xlink:href="#f" xlink:show="new" xlink:title="#aws_sagemaker_jupyter_server_app_settings" xlink:type="simple" target="_top"><rect id="f" width="420" height="116.203" x="2747.5" y="1370.5" fill="#3D176E" rx="2.5" ry="2.5" style="stroke:#000d19;stroke-width:1.5"/><circle cx="2762.5" cy="1390.395" r="11" fill="#E98DF7" style="stroke:#000d19;stroke-width:1"/><path d="M2765.469 1396.035q-.578.297-1.219.438-.64.156-1.344.156-2.5 0-3.828-1.64-1.312-1.657-1.312-4.782t1.312-4.781q1.328-1.656 3.828-1.656.703 0 1.344.156.656.156 1.219.453v2.719q-.625-.578-1.219-.844-.594-.281-1.219-.281-1.343 0-2.031 1.078-.688 1.062-.688 3.156 0 2.094.688 3.172.688 1.062 2.031 1.062.625 0 1.219-.265.594-.281 1.219-.86v2.72Z"/><text x="2781.5" y="1396.28" fill="#D9B8FF" font-family="Helvetica" font-size="17" textLength="378">aws_sagemaker_jupyter_server_app_settings</text><path d="M2748.5 1410.289h418" style="stroke:#000d19;stroke-width:1.5"/><text x="2758.5" y="1429.499" fill="#D9B8FF" font-family="sans-serif" font-size="11" font-weight="bold" textLength="144">default_resource_spec</text><text x="2902.5" y="1429.499" fill="#D9B8FF" font-family="sans-serif" font-size="11" textLength="191">: aws_sagemaker_resource_spec</text><text x="2758.5" y="1452.304" fill="#D9B8FF" font-family="sans-serif" font-size="11" font-weight="bold" textLength="134">lifecycle_config_arns</text><text x="2892.5" y="1452.304" fill="#D9B8FF" font-family="sans-serif" font-size="11" textLength="49">: string[]</text><text x="2758.5" y="1475.109" fill="#D9B8FF" font-family="sans-serif" font-size="11" font-weight="bold" textLength="114">code_repositories</text><text x="2872.5" y="1475.109" fill="#D9B8FF" font-family="sans-serif" font-size="11" textLength="153">: dictionary[string, string][]</text></a><a xlink:actuate="onRequest" xlink:href="#g" xlink:show="new" xlink:title="#aws_sagemaker_resource_spec" xlink:type="simple" target="_top"><rect id="g" width="301" height="139.008" x="2345" y="1558" fill="#3D176E" rx="2.5" ry="2.5" style="stroke:#000d19;stroke-width:1.5"/><circle cx="2360" cy="1577.895" r="11" fill="#E98DF7" style="stroke:#000d19;stroke-width:1"/><path d="M2362.969 1583.535q-.578.297-1.219.438-.64.156-1.344.156-2.5 0-3.828-1.64-1.312-1.657-1.312-4.782t1.312-4.781q1.328-1.656 3.828-1.656.703 0 1.344.156.656.156 1.219.453v2.719q-.625-.578-1.219-.844-.594-.281-1.219-.281-1.343 0-2.031 1.078-.688 1.062-.688 3.156 0 2.094.688 3.172.688 1.062 2.031 1.062.625 0 1.219-.265.594-.281 1.219-.86v2.72Z"/><text x="2379" y="1583.78" fill="#D9B8FF" font-family="Helvetica" font-size="17" textLength="259">aws_sagemaker_resource_spec</text><path d="M2346 1597.789h299" style="stroke:#000d19;stroke-width:1.5"/><text x="2356" y="1616.999" fill="#D9B8FF" font-family="sans-serif" font-size="11" font-weight="bold" textLength="148">sage_maker_image_arn</text><text x="2504" y="1616.999" fill="#D9B8FF" font-family="sans-serif" font-size="11" textLength="41">: string</text><text x="2356" y="1639.804" fill="#D9B8FF" font-family="sans-serif" font-size="11" font-weight="bold" textLength="201">sage_maker_image_version_arn</text><text x="2557" y="1639.804" fill="#D9B8FF" font-family="sans-serif" font-size="11" textLength="41">: string</text><text x="2356" y="1662.609" fill="#D9B8FF" font-family="sans-serif" font-size="11" font-weight="bold" textLength="89">instance_type</text><text x="2445" y="1662.609" fill="#D9B8FF" font-family="sans-serif" font-size="11" textLength="41">: string</text><text x="2356" y="1685.414" fill="#D9B8FF" font-family="sans-serif" font-size="11" font-weight="bold" textLength="127">lifecycle_config_arn</text><text x="2483" y="1685.414" fill="#D9B8FF" font-family="sans-serif" font-size="11" textLength="41">: string</text></a><a xlink:actuate="onRequest" xlink:href="#h" xlink:show="new" xlink:title="#aws_sagemaker_kernel_gateway_app_settings" xlink:type="simple" target="_top"><rect id="h" width="433" height="116.203" x="2279" y="1370.5" fill="#3D176E" rx="2.5" ry="2.5" style="stroke:#000d19;stroke-width:1.5"/><circle cx="2294" cy="1390.395" r="11" fill="#E98DF7" style="stroke:#000d19;stroke-width:1"/><path d="M2296.969 1396.035q-.578.297-1.219.438-.64.156-1.344.156-2.5 0-3.828-1.64-1.312-1.657-1.312-4.782t1.312-4.781q1.328-1.656 3.828-1.656.703 0 1.344.156.656.156 1.219.453v2.719q-.625-.578-1.219-.844-.594-.281-1.219-.281-1.343 0-2.031 1.078-.688 1.062-.688 3.156 0 2.094.688 3.172.688 1.062 2.031 1.062.625 0 1.219-.265.594-.281 1.219-.86v2.72Z"/><text x="2313" y="1396.28" fill="#D9B8FF" font-family="Helvetica" font-size="17" textLength="391">aws_sagemaker_kernel_gateway_app_settings</text><path d="M2280 1410.289h431" style="stroke:#000d19;stroke-width:1.5"/><text x="2290" y="1429.499" fill="#D9B8FF" font-family="sans-serif" font-size="11" font-weight="bold" textLength="144">default_resource_spec</text><text x="2434" y="1429.499" fill="#D9B8FF" font-family="sans-serif" font-size="11" textLength="191">: aws_sagemaker_resource_spec</text><text x="2290" y="1452.304" fill="#D9B8FF" font-family="sans-serif" font-size="11" font-weight="bold" textLength="98">custom_images</text><text x="2388" y="1452.304" fill="#D9B8FF" font-family="sans-serif" font-size="11" textLength="198">: aws_sagemaker_custom_image[]</text><text x="2290" y="1475.109" fill="#D9B8FF" font-family="sans-serif" font-size="11" font-weight="bold" textLength="134">lifecycle_config_arns</text><text x="2424" y="1475.109" fill="#D9B8FF" font-family="sans-serif" font-size="11" textLength="49">: string[]</text></a><a xlink:actuate="onRequest" xlink:href="#i" xlink:show="new" xlink:title="#aws_sagemaker_custom_image" xlink:type="simple" target="_top"><rect id="i" width="307" height="116.203" x="1731" y="1569.5" fill="#3D176E" rx="2.5" ry="2.5" style="stroke:#000d19;stroke-width:1.5"/><circle cx="1746" cy="1589.395" r="11" fill="#E98DF7" style="stroke:#000d19;stroke-width:1"/><path d="M1748.969 1595.035q-.578.297-1.219.438-.64.156-1.344.156-2.5 0-3.828-1.64-1.312-1.657-1.312-4.782t1.312-4.781q1.328-1.656 3.828-1.656.703 0 1.344.156.656.156 1.219.453v2.719q-.625-.578-1.219-.844-.594-.281-1.219-.281-1.343 0-2.031 1.078-.688 1.062-.688 3.156 0 2.094.688 3.172.688 1.062 2.031 1.062.625 0 1.219-.265.594-.281 1.219-.86v2.72Z"/><text x="1765" y="1595.28" fill="#D9B8FF" font-family="Helvetica" font-size="17" textLength="265">aws_sagemaker_custom_image</text><path d="M1732 1609.289h305" style="stroke:#000d19;stroke-width:1.5"/><text x="1742" y="1628.499" fill="#D9B8FF" font-family="sans-serif" font-size="11" font-weight="bold" textLength="80">image_name</text><text x="1822" y="1628.499" fill="#D9B8FF" font-family="sans-serif" font-size="11" textLength="41">: string</text><text x="1742" y="1651.304" fill="#D9B8FF" font-family="sans-serif" font-size="11" font-weight="bold" textLength="146">image_version_number</text><text x="1888" y="1651.304" fill="#D9B8FF" font-family="sans-serif" font-size="11" textLength="36">: int64</text><text x="1742" y="1674.109" fill="#D9B8FF" font-family="sans-serif" font-size="11" font-weight="bold" textLength="156">app_image_config_name</text><text x="1898" y="1674.109" fill="#D9B8FF" font-family="sans-serif" font-size="11" textLength="41">: string</text></a><a xlink:actuate="onRequest" xlink:href="#j" xlink:show="new" xlink:title="#aws_sagemaker_tensor_board_app_settings" xlink:type="simple" target="_top"><rect id="j" width="408" height="70.594" x="1836.5" y="1393" fill="#3D176E" rx="2.5" ry="2.5" style="stroke:#000d19;stroke-width:1.5"/><circle cx="1851.5" cy="1412.895" r="11" fill="#E98DF7" style="stroke:#000d19;stroke-width:1"/><path d="M1854.469 1418.535q-.578.297-1.219.438-.64.156-1.344.156-2.5 0-3.828-1.64-1.312-1.657-1.312-4.782t1.312-4.781q1.328-1.656 3.828-1.656.703 0 1.344.156.656.156 1.219.453v2.719q-.625-.578-1.219-.844-.594-.281-1.219-.281-1.343 0-2.031 1.078-.688 1.062-.688 3.156 0 2.094.688 3.172.688 1.062 2.031 1.062.625 0 1.219-.265.594-.281 1.219-.86v2.72Z"/><text x="1870.5" y="1418.78" fill="#D9B8FF" font-family="Helvetica" font-size="17" textLength="366">aws_sagemaker_tensor_board_app_settings</text><path d="M1837.5 1432.789h406" style="stroke:#000d19;stroke-width:1.5"/><text x="1847.5" y="1451.999" fill="#D9B8FF" font-family="sans-serif" font-size="11" font-weight="bold" textLength="144">default_resource_spec</text><text x="1991.5" y="1451.999" fill="#D9B8FF" font-family="sans-serif" font-size="11" textLength="191">: aws_sagemaker_resource_spec</text></a><a xlink:actuate="onRequest" xlink:href="#k" xlink:show="new" xlink:title="#aws_sagemaker_r_studio_server_pro_app_settings" xlink:type="simple" target="_top"><rect id="k" width="463" height="93.398" x="7" y="1382" fill="#3D176E" rx="2.5" ry="2.5" style="stroke:#000d19;stroke-width:1.5"/><circle cx="22" cy="1401.895" r="11" fill="#E98DF7" style="stroke:#000d19;stroke-width:1"/><path d="M24.969 1407.535q-.578.297-1.219.438-.64.156-1.344.156-2.5 0-3.828-1.64-1.312-1.657-1.312-4.782t1.312-4.781q1.328-1.656 3.828-1.656.703 0 1.344.156.656.156 1.219.453v2.719q-.625-.578-1.219-.844-.594-.281-1.219-.281-1.343 0-2.031 1.078-.688 1.062-.688 3.156 0 2.094.688 3.172.688 1.062 2.031 1.062.625 0 1.219-.265.594-.281 1.219-.86v2.72Z"/><text x="41" y="1407.78" fill="#D9B8FF" font-family="Helvetica" font-size="17" textLength="421">aws_sagemaker_r_studio_server_pro_app_settings</text><path d="M8 1421.789h461" style="stroke:#000d19;stroke-width:1.5"/><text x="18" y="1440.999" fill="#D9B8FF" font-family="sans-serif" font-size="11" font-weight="bold" textLength="90">access_status</text><text x="108" y="1440.999" fill="#D9B8FF" font-family="sans-serif" font-size="11" textLength="41">: string</text><text x="18" y="1463.804" fill="#D9B8FF" font-family="sans-serif" font-size="11" font-weight="bold" textLength="71">user_group</text><text x="89" y="1463.804" fill="#D9B8FF" font-family="sans-serif" font-size="11" textLength="41">: string</text></a><a xlink:actuate="onRequest" xlink:href="#l" xlink:show="new" xlink:title="#aws_sagemaker_r_session_app_settings" xlink:type="simple" target="_top"><rect id="l" width="375" height="93.398" x="1426" y="1382" fill="#3D176E" rx="2.5" ry="2.5" style="stroke:#000d19;stroke-width:1.5"/><circle cx="1441" cy="1401.895" r="11" fill="#E98DF7" style="stroke:#000d19;stroke-width:1"/><path d="M1443.969 1407.535q-.578.297-1.219.438-.64.156-1.344.156-2.5 0-3.828-1.64-1.312-1.657-1.312-4.782t1.312-4.781q1.328-1.656 3.828-1.656.703 0 1.344.156.656.156 1.219.453v2.719q-.625-.578-1.219-.844-.594-.281-1.219-.281-1.343 0-2.031 1.078-.688 1.062-.688 3.156 0 2.094.688 3.172.688 1.062 2.031 1.062.625 0 1.219-.265.594-.281 1.219-.86v2.72Z"/><text x="1460" y="1407.78" fill="#D9B8FF" font-family="Helvetica" font-size="17" textLength="333">aws_sagemaker_r_session_app_settings</text><path d="M1427 1421.789h373" style="stroke:#000d19;stroke-width:1.5"/><text x="1437" y="1440.999" fill="#D9B8FF" font-family="sans-serif" font-size="11" font-weight="bold" textLength="144">default_resource_spec</text><text x="1581" y="1440.999" fill="#D9B8FF" font-family="sans-serif" font-size="11" textLength="191">: aws_sagemaker_resource_spec</text><text x="1437" y="1463.804" fill="#D9B8FF" font-family="sans-serif" font-size="11" font-weight="bold" textLength="98">custom_images</text><text x="1535" y="1463.804" fill="#D9B8FF" font-family="sans-serif" font-size="11" textLength="198">: aws_sagemaker_custom_image[]</text></a><a xlink:actuate="onRequest" xlink:href="#m" xlink:show="new" xlink:title="#aws_sagemaker_canvas_app_settings" xlink:type="simple" target="_top"><rect id="m" width="528" height="70.594" x="505.5" y="1393" fill="#3D176E" rx="2.5" ry="2.5" style="stroke:#000d19;stroke-width:1.5"/><circle cx="603.25" cy="1412.895" r="11" fill="#E98DF7" style="stroke:#000d19;stroke-width:1"/><path d="M606.219 1418.535q-.578.297-1.219.438-.64.156-1.344.156-2.5 0-3.828-1.64-1.312-1.657-1.312-4.782t1.312-4.781q1.328-1.656 3.828-1.656.703 0 1.344.156.656.156 1.219.453v2.719q-.625-.578-1.219-.844-.594-.281-1.219-.281-1.343 0-2.031 1.078-.688 1.062-.688 3.156 0 2.094.688 3.172.688 1.062 2.031 1.062.625 0 1.219-.265.594-.281 1.219-.86v2.72Z"/><text x="628.75" y="1418.78" fill="#D9B8FF" font-family="Helvetica" font-size="17" textLength="314">aws_sagemaker_canvas_app_settings</text><path d="M506.5 1432.789h526" style="stroke:#000d19;stroke-width:1.5"/><text x="516.5" y="1451.999" fill="#D9B8FF" font-family="sans-serif" font-size="11" font-weight="bold" textLength="210">time_series_forecasting_settings</text><text x="726.5" y="1451.999" fill="#D9B8FF" font-family="sans-serif" font-size="11" textLength="296">: aws_sagemaker_time_series_forecasting_settings</text></a><a xlink:actuate="onRequest" xlink:href="#n" xlink:show="new" xlink:title="#aws_sagemaker_time_series_forecasting_settings" xlink:type="simple" target="_top"><rect id="n" width="457" height="93.398" x="541" y="1581" fill="#3D176E" rx="2.5" ry="2.5" style="stroke:#000d19;stroke-width:1.5"/><circle cx="556" cy="1600.895" r="11" fill="#E98DF7" style="stroke:#000d19;stroke-width:1"/><path d="M558.969 1606.535q-.578.297-1.219.438-.64.156-1.344.156-2.5 0-3.828-1.64-1.312-1.657-1.312-4.782t1.312-4.781q1.328-1.656 3.828-1.656.703 0 1.344.156.656.156 1.219.453v2.719q-.625-.578-1.219-.844-.594-.281-1.219-.281-1.343 0-2.031 1.078-.688 1.062-.688 3.156 0 2.094.688 3.172.688 1.062 2.031 1.062.625 0 1.219-.265.594-.281 1.219-.86v2.72Z"/><text x="575" y="1606.78" fill="#D9B8FF" font-family="Helvetica" font-size="17" textLength="415">aws_sagemaker_time_series_forecasting_settings</text><path d="M542 1620.789h455" style="stroke:#000d19;stroke-width:1.5"/><text x="552" y="1639.999" fill="#D9B8FF" font-family="sans-serif" font-size="11" font-weight="bold" textLength="40">status</text><text x="592" y="1639.999" fill="#D9B8FF" font-family="sans-serif" font-size="11" textLength="41">: string</text><text x="552" y="1662.804" fill="#D9B8FF" font-family="sans-serif" font-size="11" font-weight="bold" textLength="167">amazon_forecast_role_arn</text><text x="719" y="1662.804" fill="#D9B8FF" font-family="sans-serif" font-size="11" textLength="41">: string</text></a><a xlink:actuate="onRequest" xlink:href="#o" xlink:show="new" xlink:title="#aws_sagemaker_r_studio_server_pro_domain_settings" xlink:type="simple" target="_top"><rect id="o" width="496" height="139.008" x="3202.5" y="1359" fill="#3D176E" rx="2.5" ry="2.5" style="stroke:#000d19;stroke-width:1.5"/><circle cx="3217.5" cy="1378.895" r="11" fill="#E98DF7" style="stroke:#000d19;stroke-width:1"/><path d="M3220.469 1384.535q-.578.297-1.219.438-.64.156-1.344.156-2.5 0-3.828-1.64-1.312-1.657-1.312-4.782t1.312-4.781q1.328-1.656 3.828-1.656.703 0 1.344.156.656.156 1.219.453v2.719q-.625-.578-1.219-.844-.594-.281-1.219-.281-1.343 0-2.031 1.078-.688 1.062-.688 3.156 0 2.094.688 3.172.688 1.062 2.031 1.062.625 0 1.219-.265.594-.281 1.219-.86v2.72Z"/><text x="3236.5" y="1384.78" fill="#D9B8FF" font-family="Helvetica" font-size="17" textLength="454">aws_sagemaker_r_studio_server_pro_domain_settings</text><path d="M3203.5 1398.789h494" style="stroke:#000d19;stroke-width:1.5"/><text x="3213.5" y="1417.999" fill="#D9B8FF" font-family="sans-serif" font-size="11" font-weight="bold" textLength="174">domain_execution_role_arn</text><text x="3387.5" y="1417.999" fill="#D9B8FF" font-family="sans-serif" font-size="11" textLength="41">: string</text><text x="3213.5" y="1440.804" fill="#D9B8FF" font-family="sans-serif" font-size="11" font-weight="bold" textLength="131">r_studio_connect_url</text><text x="3344.5" y="1440.804" fill="#D9B8FF" font-family="sans-serif" font-size="11" textLength="41">: string</text><text x="3213.5" y="1463.609" fill="#D9B8FF" font-family="sans-serif" font-size="11" font-weight="bold" textLength="196">r_studio_package_manager_url</text><text x="3409.5" y="1463.609" fill="#D9B8FF" font-family="sans-serif" font-size="11" textLength="41">: string</text><text x="3213.5" y="1486.414" fill="#D9B8FF" font-family="sans-serif" font-size="11" font-weight="bold" textLength="144">default_resource_spec</text><text x="3357.5" y="1486.414" fill="#D9B8FF" font-family="sans-serif" font-size="11" textLength="191">: aws_sagemaker_resource_spec</text></a><a xlink:actuate="onRequest" xlink:href="#p" xlink:show="new" xlink:title="#aws_sagemaker_domain_settings" xlink:type="simple" target="_top"><rect id="p" width="578" height="116.203" x="3064.5" y="1126" fill="#3D176E" rx="2.5" ry="2.5" style="stroke:#000d19;stroke-width:1.5"/><circle cx="3203.75" cy="1145.895" r="11" fill="#E98DF7" style="stroke:#000d19;stroke-width:1"/><path d="M3206.719 1151.535q-.578.297-1.219.438-.64.156-1.344.156-2.5 0-3.828-1.64-1.312-1.657-1.312-4.782t1.312-4.781q1.328-1.656 3.828-1.656.703 0 1.344.156.656.156 1.219.453v2.719q-.625-.578-1.219-.844-.594-.281-1.219-.281-1.343 0-2.031 1.078-.688 1.062-.688 3.156 0 2.094.688 3.172.688 1.062 2.031 1.062.625 0 1.219-.265.594-.281 1.219-.86v2.72Z"/><text x="3229.25" y="1151.78" fill="#D9B8FF" font-family="Helvetica" font-size="17" textLength="281">aws_sagemaker_domain_settings</text><path d="M3065.5 1165.789h576" style="stroke:#000d19;stroke-width:1.5"/><text x="3075.5" y="1184.999" fill="#D9B8FF" font-family="sans-serif" font-size="11" font-weight="bold" textLength="119">security_group_ids</text><text x="3194.5" y="1184.999" fill="#D9B8FF" font-family="sans-serif" font-size="11" textLength="49">: string[]</text><text x="3075.5" y="1207.804" fill="#D9B8FF" font-family="sans-serif" font-size="11" font-weight="bold" textLength="235">r_studio_server_pro_domain_settings</text><text x="3310.5" y="1207.804" fill="#D9B8FF" font-family="sans-serif" font-size="11" textLength="321">: aws_sagemaker_r_studio_server_pro_domain_settings</text><text x="3075.5" y="1230.609" fill="#D9B8FF" font-family="sans-serif" font-size="11" font-weight="bold" textLength="195">execution_role_identity_config</text><text x="3270.5" y="1230.609" fill="#D9B8FF" font-family="sans-serif" font-size="11" textLength="41">: string</text></a><a xlink:actuate="onRequest" xlink:href="#q" xlink:show="new" xlink:title="#aws_sagemaker_default_space_settings" xlink:type="simple" target="_top"><rect id="q" width="485" height="139.008" x="2350" y="1114.5" fill="#3D176E" rx="2.5" ry="2.5" style="stroke:#000d19;stroke-width:1.5"/><circle cx="2417.25" cy="1134.395" r="11" fill="#E98DF7" style="stroke:#000d19;stroke-width:1"/><path d="M2420.219 1140.035q-.578.297-1.219.438-.64.156-1.344.156-2.5 0-3.828-1.64-1.312-1.657-1.312-4.782t1.312-4.781q1.328-1.656 3.828-1.656.703 0 1.344.156.656.156 1.219.453v2.719q-.625-.578-1.219-.844-.594-.281-1.219-.281-1.343 0-2.031 1.078-.688 1.062-.688 3.156 0 2.094.688 3.172.688 1.062 2.031 1.062.625 0 1.219-.265.594-.281 1.219-.86v2.72Z"/><text x="2442.75" y="1140.28" fill="#D9B8FF" font-family="Helvetica" font-size="17" textLength="332">aws_sagemaker_default_space_settings</text><path d="M2351 1154.289h483" style="stroke:#000d19;stroke-width:1.5"/><text x="2361" y="1173.499" fill="#D9B8FF" font-family="sans-serif" font-size="11" font-weight="bold" textLength="94">execution_role</text><text x="2455" y="1173.499" fill="#D9B8FF" font-family="sans-serif" font-size="11" textLength="41">: string</text><text x="2361" y="1196.304" fill="#D9B8FF" font-family="sans-serif" font-size="11" font-weight="bold" textLength="101">security_groups</text><text x="2462" y="1196.304" fill="#D9B8FF" font-family="sans-serif" font-size="11" textLength="49">: string[]</text><text x="2361" y="1219.109" fill="#D9B8FF" font-family="sans-serif" font-size="11" font-weight="bold" textLength="179">jupyter_server_app_settings</text><text x="2540" y="1219.109" fill="#D9B8FF" font-family="sans-serif" font-size="11" textLength="268">: aws_sagemaker_jupyter_server_app_settings</text><text x="2361" y="1241.914" fill="#D9B8FF" font-family="sans-serif" font-size="11" font-weight="bold" textLength="189">kernel_gateway_app_settings</text><text x="2550" y="1241.914" fill="#D9B8FF" font-family="sans-serif" font-size="11" textLength="274">: aws_sagemaker_kernel_gateway_app_settings</text></a><path fill="none" d="M2592.5 303.43V403.9m-7-100.64 7-20 7 20h-14zm7 191.9v100.77m-7-100.82 7-20 7 20h-14zm-223.51 431.08c-84.63 45.05-180.15 95.89-263.72 140.37" style="stroke:#ffaf37;stroke-width:2"/><path fill="#FFAF37" d="m2093.79 1068.94 9.823-.71-5.412-1.645 1.644-5.413-6.055 7.768z" style="stroke:#ffaf37;stroke-width:2"/><path fill="none" d="M2823.15 918.52c135.69 67.67 301.63 150.42 411.37 205.14" style="stroke:#ffaf37;stroke-width:2"/><path fill="#FFAF37" d="m3239.05 1125.92-6.27-7.595 1.795 5.365-5.364 1.795 9.839.435z" style="stroke:#ffaf37;stroke-width:2"/><path fill="none" d="M2592.5 1009.08v100.35" style="stroke:#ffaf37;stroke-width:2"/><path fill="#FFAF37" d="m2592.5 1114.44 4-9-4 4-4-4 4 9z" style="stroke:#ffaf37;stroke-width:2"/><path fill="none" d="M1612.46 1283.04c-66.67 24.64-137.97 51.15-203.96 75.96-8.28 3.11-16.77 6.32-25.33 9.56" style="stroke:#ffaf37;stroke-width:2"/><path fill="#FFAF37" d="m1378.4 1370.37 9.833.549-5.158-2.322 2.322-5.158-6.997 6.931z" style="stroke:#ffaf37;stroke-width:2"/><path fill="none" d="M2146.51 1256.74c60.88 15.09 125.46 30.1 185.99 42.26 174.95 35.15 222.89 20.9 397 60 13.56 3.05 27.49 6.47 41.46 10.13" style="stroke:#ffaf37;stroke-width:2"/><path fill="#FFAF37" d="m2776.11 1370.48-7.668-6.181 2.836 4.895-4.894 2.836 9.726-1.55z" style="stroke:#ffaf37;stroke-width:2"/><path fill="none" d="M2146.55 1290.13c68.24 26.87 139.22 54.81 199.2 78.42" style="stroke:#ffaf37;stroke-width:2"/><path fill="#FFAF37" d="m2350.41 1370.38-6.916-7.013 2.262 5.186-5.185 2.261 9.839-.434z" style="stroke:#ffaf37;stroke-width:2"/><path fill="none" d="M1955.29 1299.15c21.34 32.15 43.13 64.97 59.33 89.37" style="stroke:#ffaf37;stroke-width:2"/><path fill="#FFAF37" d="m2017.58 1392.98-1.664-9.707-1.11 5.547-5.547-1.11 8.321 5.27z" style="stroke:#ffaf37;stroke-width:2"/><path fill="none" d="M1612.44 1206.86c-281.58 25.73-737.23 75-1124.94 152.14-30.05 5.98-61.81 13.65-92.21 21.68" style="stroke:#ffaf37;stroke-width:2"/><path fill="#FFAF37" d="m390.42 1381.97 9.722 1.576-4.887-2.85 2.85-4.886-7.685 6.16z" style="stroke:#ffaf37;stroke-width:2"/><path fill="none" d="M1754.29 1299.15c-30.57 27.87-61.69 56.24-86.87 79.2" style="stroke:#ffaf37;stroke-width:2"/><path fill="#FFAF37" d="m1663.43 1381.98 9.347-3.105-5.651-.263.262-5.65-3.958 9.018z" style="stroke:#ffaf37;stroke-width:2"/><path fill="none" d="M1612.08 1238.85c-162.65 33.32-374.42 77.71-561.58 120.15-45.03 10.21-93.97 21.93-138.19 32.74" style="stroke:#ffaf37;stroke-width:2"/><path fill="#FFAF37" d="m907.21 1392.99 9.697 1.725-4.843-2.924 2.924-4.843-7.778 6.042z" style="stroke:#ffaf37;stroke-width:2"/><path fill="none" d="M2823.56 1486.61c-54.04 23.04-116.74 49.78-172.76 73.67" style="stroke:#ffaf37;stroke-width:2"/><path fill="#FFAF37" d="m2646.09 1562.29 9.848.157-5.247-2.114 2.115-5.247-6.716 7.204z" style="stroke:#ffaf37;stroke-width:2"/><path fill="none" d="M2495.5 1486.75v65.99" style="stroke:#ffaf37;stroke-width:2"/><path fill="#FFAF37" d="m2495.5 1557.95 4-9-4 4-4-4 4 9z" style="stroke:#ffaf37;stroke-width:2"/><path fill="none" d="M2318.36 1486.61c-87.07 28.08-191.14 61.63-275.53 88.84" style="stroke:#ffaf37;stroke-width:2"/><path fill="#FFAF37" d="m2038.07 1576.99 9.795 1.028-5.039-2.57 2.571-5.04-7.327 6.582z" style="stroke:#ffaf37;stroke-width:2"/><path fill="none" d="M2120.28 1464.04c60.6 26.24 145.84 63.15 219.76 95.15" style="stroke:#ffaf37;stroke-width:2"/><path fill="#FFAF37" d="m2344.9 1561.29-6.67-7.247 2.082 5.26-5.26 2.081 9.848-.094z" style="stroke:#ffaf37;stroke-width:2"/><path fill="none" d="M1741.56 1475.01c25.63 8.28 52.5 16.37 77.94 22.99 176.22 45.83 382.22 82.64 520.09 104.92" style="stroke:#ffaf37;stroke-width:2"/><path fill="#FFAF37" d="m2344.87 1603.77-8.258-5.367 3.32 4.58-4.58 3.32 9.518-2.533z" style="stroke:#ffaf37;stroke-width:2"/><path fill="none" d="M1676.35 1475.19c37.27 27.09 84.94 61.74 125.25 91.05" style="stroke:#ffaf37;stroke-width:2"/><path fill="#FFAF37" d="m1805.98 1569.42-4.956-8.51.902 5.584-5.585.902 9.639 2.024z" style="stroke:#ffaf37;stroke-width:2"/><path fill="none" d="M769.5 1464.27v111.62" style="stroke:#ffaf37;stroke-width:2"/><path fill="#FFAF37" d="m769.5 1580.97 4-9-4 4-4-4 4 9z" style="stroke:#ffaf37;stroke-width:2"/><path fill="none" d="M3202.36 1494.19c-5.67 1.3-11.29 2.57-16.86 3.81-182.51 40.53-394.1 78.64-534.36 102.67" style="stroke:#ffaf37;stroke-width:2"/><path fill="#FFAF37" d="m2646.18 1601.51 9.546 2.426-4.618-3.269 3.269-4.617-8.197 5.46z" style="stroke:#ffaf37;stroke-width:2"/><path fill="none" d="M3376.36 1242.16c13.35 33.37 30.33 75.83 44.68 111.68" style="stroke:#ffaf37;stroke-width:2"/><path fill="#FFAF37" d="m3422.95 1358.63.371-9.842-2.228 5.2-5.2-2.229 7.057 6.871z" style="stroke:#ffaf37;stroke-width:2"/><path fill="none" d="M2695.63 1253.52c54.03 35.89 119.59 79.45 171.59 114" style="stroke:#ffaf37;stroke-width:2"/><path fill="#FFAF37" d="m2871.57 1370.41-5.27-8.32 1.11 5.547-5.547 1.109 9.707 1.664z" style="stroke:#ffaf37;stroke-width:2"/><path fill="none" d="M2565.09 1253.52c-14.04 35.11-31.01 77.54-44.68 111.71" style="stroke:#ffaf37;stroke-width:2"/><path fill="#FFAF37" d="m2518.41 1370.21 7.056-6.87-5.199 2.228-2.228-5.2.371 9.842z" style="stroke:#ffaf37;stroke-width:2"/></svg>