<svg xmlns="http://www.w3.org/2000/svg" xmlns:xlink="http://www.w3.org/1999/xlink" width="1049" height="252" preserveAspectRatio="none" style="width:1049px;height:252px;background:#00000000"><a xlink:actuate="onRequest" xlink:href="#a" xlink:show="new" xlink:title="#aws_sagemaker_domain" xlink:type="simple" target="_top"><rect id="a" width="248" height="39.789" x="396.5" y="7" fill="#3D176E" rx="2.5" ry="2.5" style="stroke:#000d19;stroke-width:1.5"/><circle cx="411.5" cy="26.895" r="11" fill="#E98DF7" style="stroke:#000d19;stroke-width:1"/><path d="M414.469 32.535q-.578.297-1.219.438-.64.156-1.344.156-2.5 0-3.828-1.64-1.312-1.657-1.312-4.782t1.312-4.781q1.328-1.656 3.828-1.656.703 0 1.344.156.656.156 1.219.453v2.719q-.625-.578-1.219-.844-.594-.281-1.219-.281-1.344 0-2.031 1.078-.688 1.062-.688 3.156 0 2.094.688 3.172.688 1.062 2.031 1.062.625 0 1.219-.265.594-.281 1.219-.86v2.72Z"/><text x="430.5" y="32.78" fill="#D9B8FF" font-family="Helvetica" font-size="17" textLength="206">aws_sagemaker_domain</text></a><a xlink:actuate="onRequest" xlink:href="#b" xlink:show="new" xlink:title="#aws_sagemaker_artifact" xlink:type="simple" target="_top"><rect id="b" width="245" height="39.789" x="7" y="207" fill="#3D176E" rx="2.5" ry="2.5" style="stroke:#000d19;stroke-width:1.5"/><circle cx="22" cy="226.894" r="11" fill="#E98DF7" style="stroke:#000d19;stroke-width:1"/><path d="M24.969 232.535q-.578.297-1.219.438-.64.156-1.344.156-2.5 0-3.828-1.64-1.312-1.657-1.312-4.782t1.312-4.781q1.328-1.656 3.828-1.656.703 0 1.344.156.656.156 1.219.453v2.719q-.625-.579-1.219-.844-.594-.281-1.219-.281-1.343 0-2.031 1.078-.688 1.062-.688 3.156 0 2.094.688 3.172.688 1.062 2.031 1.062.625 0 1.219-.265.594-.281 1.219-.86v2.72Z"/><text x="41" y="232.78" fill="#D9B8FF" font-family="Helvetica" font-size="17" textLength="203">aws_sagemaker_artifact</text></a><a xlink:actuate="onRequest" xlink:href="#c" xlink:show="new" xlink:title="#aws_sagemaker_trial" xlink:type="simple" target="_top"><rect id="c" width="219" height="39.789" x="287" y="207" fill="#3D176E" rx="2.5" ry="2.5" style="stroke:#000d19;stroke-width:1.5"/><circle cx="302" cy="226.894" r="11" fill="#E98DF7" style="stroke:#000d19;stroke-width:1"/><path d="M304.969 232.535q-.578.297-1.219.438-.64.156-1.344.156-2.5 0-3.828-1.64-1.312-1.657-1.312-4.782t1.312-4.781q1.328-1.656 3.828-1.656.703 0 1.344.156.656.156 1.219.453v2.719q-.625-.579-1.219-.844-.594-.281-1.219-.281-1.344 0-2.031 1.078-.688 1.062-.688 3.156 0 2.094.688 3.172.688 1.062 2.031 1.062.625 0 1.219-.265.594-.281 1.219-.86v2.72Z"/><text x="321" y="232.78" fill="#D9B8FF" font-family="Helvetica" font-size="17" textLength="177">aws_sagemaker_trial</text></a><a xlink:actuate="onRequest" xlink:href="#d" xlink:show="new" xlink:title="#aws_sagemaker_user_profile" xlink:type="simple" target="_top"><rect id="d" width="283" height="39.789" x="379" y="107" fill="#3D176E" rx="2.5" ry="2.5" style="stroke:#000d19;stroke-width:1.5"/><circle cx="394" cy="126.894" r="11" fill="#E98DF7" style="stroke:#000d19;stroke-width:1"/><path d="M396.969 132.535q-.578.297-1.219.438-.64.156-1.344.156-2.5 0-3.828-1.64-1.312-1.657-1.312-4.782t1.312-4.781q1.328-1.657 3.828-1.657.703 0 1.344.157.656.156 1.219.453v2.719q-.625-.579-1.219-.844-.594-.281-1.219-.281-1.344 0-2.031 1.078-.688 1.062-.688 3.156 0 2.094.688 3.172.688 1.062 2.031 1.062.625 0 1.219-.265.594-.281 1.219-.86v2.72Z"/><text x="413" y="132.78" fill="#D9B8FF" font-family="Helvetica" font-size="17" textLength="241">aws_sagemaker_user_profile</text></a><a xlink:actuate="onRequest" xlink:href="#e" xlink:show="new" xlink:title="#aws_sagemaker_pipeline" xlink:type="simple" target="_top"><rect id="e" width="251" height="39.789" x="541" y="207" fill="#3D176E" rx="2.5" ry="2.5" style="stroke:#000d19;stroke-width:1.5"/><circle cx="556" cy="226.894" r="11" fill="#E98DF7" style="stroke:#000d19;stroke-width:1"/><path d="M558.969 232.535q-.578.297-1.219.438-.64.156-1.344.156-2.5 0-3.828-1.64-1.312-1.657-1.312-4.782t1.312-4.781q1.328-1.656 3.828-1.656.703 0 1.344.156.656.156 1.219.453v2.719q-.625-.579-1.219-.844-.594-.281-1.219-.281-1.343 0-2.031 1.078-.688 1.062-.688 3.156 0 2.094.688 3.172.688 1.062 2.031 1.062.625 0 1.219-.265.594-.281 1.219-.86v2.72Z"/><text x="575" y="232.78" fill="#D9B8FF" font-family="Helvetica" font-size="17" textLength="209">aws_sagemaker_pipeline</text></a><a xlink:actuate="onRequest" xlink:href="#f" xlink:show="new" xlink:title="#aws_sagemaker_app" xlink:type="simple" target="_top"><rect id="f" width="215" height="39.789" x="827" y="207" fill="#3D176E" rx="2.5" ry="2.5" style="stroke:#000d19;stroke-width:1.5"/><circle cx="842" cy="226.894" r="11" fill="#E98DF7" style="stroke:#000d19;stroke-width:1"/><path d="M844.969 232.535q-.578.297-1.219.438-.64.156-1.344.156-2.5 0-3.828-1.64-1.312-1.657-1.312-4.782t1.312-4.781q1.328-1.656 3.828-1.656.703 0 1.344.156.656.156 1.219.453v2.719q-.625-.579-1.219-.844-.594-.281-1.219-.281-1.343 0-2.031 1.078-.688 1.062-.688 3.156 0 2.094.688 3.172.688 1.062 2.031 1.062.625 0 1.219-.265.594-.281 1.219-.86v2.72Z"/><text x="861" y="232.78" fill="#D9B8FF" font-family="Helvetica" font-size="17" textLength="173">aws_sagemaker_app</text></a><path fill="none" d="M443.43 47.01C412.39 58.87 379.69 77.66 361.5 107c-18.66 30.11 1.11 70.65 17.63 95.79" style="stroke:#1a83af;stroke-width:2"/><path fill="#1A83AF" d="m381.95 207-1.703-9.7-1.087 5.55-5.551-1.087L381.95 207z" style="stroke:#1a83af;stroke-width:2"/><path fill="none" d="M476.09 47.06C440.67 62.52 389.97 85.25 346.5 107c-63.95 32-136.47 72.69-179.39 97.24" style="stroke:#1a83af;stroke-width:2"/><path fill="#1A83AF" d="m162.54 206.86 9.798-1-5.458-1.484 1.484-5.458-5.824 7.942z" style="stroke:#1a83af;stroke-width:2"/><path fill="none" d="M520.5 47.36v54.3" style="stroke:#1a83af;stroke-width:2"/><path fill="#1A83AF" d="m520.5 106.68 4-9-4 4-4-4 4 9z" style="stroke:#1a83af;stroke-width:2"/><path fill="none" d="M597.57 47.01c31.04 11.86 63.74 30.65 81.93 59.99 17.86 28.82 7.68 69.23-2.06 94.75" style="stroke:#1a83af;stroke-width:2"/><path fill="#1A83AF" d="m675.51 206.65 7.038-6.89-5.193 2.243-2.243-5.194.398 9.841z" style="stroke:#1a83af;stroke-width:2"/><path fill="none" d="M569.87 47.04C608.55 62.32 663.5 84.8 710.5 107c66.6 31.45 141.79 72.6 185.92 97.35" style="stroke:#1a83af;stroke-width:2"/><path fill="#1A83AF" d="m900.85 206.84-5.894-7.89 1.533 5.445-5.446 1.533 9.807.912z" style="stroke:#1a83af;stroke-width:2"/><path fill="none" d="M496.3 147.13c-20.57 16.25-50.12 39.6-71.72 56.68" style="stroke:#1a83af;stroke-width:2"/><path fill="#1A83AF" d="m420.64 206.92 9.539-2.452-5.62-.652.653-5.62-4.572 8.724z" style="stroke:#1a83af;stroke-width:2"/><path fill="none" d="M444.65 147.01c-67.34 16.88-165.45 41.47-234.27 58.72" style="stroke:#1a83af;stroke-width:2"/><path fill="#1A83AF" d="m205.47 206.96 9.701 1.698-4.85-2.91 2.91-4.851-7.761 6.063z" style="stroke:#1a83af;stroke-width:2"/><path fill="none" d="M600.81 147.01c71.31 16.88 175.19 41.47 248.05 58.72" style="stroke:#1a83af;stroke-width:2"/><path fill="#1A83AF" d="m854.06 206.96-7.848-5.95 2.98 4.808-4.808 2.98 9.676-1.838z" style="stroke:#1a83af;stroke-width:2"/><path fill="none" d="M549 147.13c24.32 16.32 59.29 39.8 84.75 56.89" style="stroke:#1a83af;stroke-width:2"/><path fill="#1A83AF" d="m638.08 206.92-5.25-8.333 1.096 5.55-5.55 1.096 9.704 1.687z" style="stroke:#1a83af;stroke-width:2"/></svg>