<svg xmlns="http://www.w3.org/2000/svg" xmlns:xlink="http://www.w3.org/1999/xlink" width="1803" height="1368" preserveAspectRatio="none" style="width:1803px;height:1368px;background:#00000000"><a xlink:actuate="onRequest" xlink:href="#a" xlink:show="new" xlink:title="#aws_resource" xlink:type="simple" target="_top"><rect id="a" width="155" height="70.594" x="448" y="404" fill="#3D176E" rx="2.5" ry="2.5" style="stroke:#000d19;stroke-width:1.5"/><circle cx="463" cy="423.894" r="11" fill="#E98DF7" style="stroke:#000d19;stroke-width:1"/><path d="M465.969 429.535q-.578.297-1.219.438-.64.156-1.344.156-2.5 0-3.828-1.64-1.312-1.657-1.312-4.782t1.312-4.781q1.328-1.656 3.828-1.656.703 0 1.344.156.656.156 1.219.453v2.719q-.625-.579-1.219-.844-.594-.281-1.219-.281-1.344 0-2.031 1.078-.688 1.062-.688 3.156 0 2.094.688 3.172.688 1.062 2.031 1.062.625 0 1.219-.265.594-.281 1.219-.86v2.72Z"/><text x="482" y="429.78" fill="#D9B8FF" font-family="Helvetica" font-size="17" textLength="113">aws_resource</text><path d="M449 443.789h153" style="stroke:#000d19;stroke-width:1.5"/><text x="459" y="463" fill="#D9B8FF" font-family="sans-serif" font-size="11" font-weight="bold" textLength="21">arn</text><text x="480" y="463" fill="#D9B8FF" font-family="sans-serif" font-size="11" textLength="41">: string</text></a><a xlink:actuate="onRequest" xlink:href="#b" xlink:show="new" xlink:title="#aws_beanstalk_environment_link" xlink:type="simple" target="_top"><rect id="b" width="323" height="93.398" x="7" y="1092" fill="#3D176E" rx="2.5" ry="2.5" style="stroke:#000d19;stroke-width:1.5"/><circle cx="22" cy="1111.895" r="11" fill="#E98DF7" style="stroke:#000d19;stroke-width:1"/><path d="M24.969 1117.535q-.578.297-1.219.438-.64.156-1.344.156-2.5 0-3.828-1.64-1.312-1.657-1.312-4.782t1.312-4.781q1.328-1.656 3.828-1.656.703 0 1.344.156.656.156 1.219.453v2.719q-.625-.578-1.219-.844-.594-.281-1.219-.281-1.343 0-2.031 1.078-.688 1.062-.688 3.156 0 2.094.688 3.172.688 1.062 2.031 1.062.625 0 1.219-.265.594-.281 1.219-.86v2.72Z"/><text x="41" y="1117.78" fill="#D9B8FF" font-family="Helvetica" font-size="17" textLength="281">aws_beanstalk_environment_link</text><path d="M8 1131.789h321" style="stroke:#000d19;stroke-width:1.5"/><text x="18" y="1150.999" fill="#D9B8FF" font-family="sans-serif" font-size="11" font-weight="bold" textLength="64">link_name</text><text x="82" y="1150.999" fill="#D9B8FF" font-family="sans-serif" font-size="11" textLength="41">: string</text><text x="18" y="1173.804" fill="#D9B8FF" font-family="sans-serif" font-size="11" font-weight="bold" textLength="121">environment_name</text><text x="139" y="1173.804" fill="#D9B8FF" font-family="sans-serif" font-size="11" textLength="41">: string</text></a><a xlink:actuate="onRequest" xlink:href="#c" xlink:show="new" xlink:title="#resource" xlink:type="simple" target="_top"><rect id="c" width="195" height="275.836" x="428" y="7" fill="#3D176E" rx="2.5" ry="2.5" style="stroke:#000d19;stroke-width:1.5"/><circle cx="480.75" cy="26.895" r="11" fill="#E98DF7" style="stroke:#000d19;stroke-width:1"/><path d="M483.719 32.535q-.578.297-1.219.438-.64.156-1.344.156-2.5 0-3.828-1.64-1.312-1.657-1.312-4.782t1.312-4.781q1.328-1.656 3.828-1.656.703 0 1.344.156.656.156 1.219.453v2.719q-.625-.578-1.219-.844-.594-.281-1.219-.281-1.344 0-2.031 1.078-.688 1.062-.688 3.156 0 2.094.688 3.172.688 1.062 2.031 1.062.625 0 1.219-.265.594-.281 1.219-.86v2.72Z"/><text x="506.25" y="32.78" fill="#D9B8FF" font-family="Helvetica" font-size="17" textLength="71">resource</text><path d="M429 46.789h193" style="stroke:#000d19;stroke-width:1.5"/><text x="439" y="65.999" fill="#D9B8FF" font-family="sans-serif" font-size="11" font-weight="bold" textLength="12">id</text><text x="451" y="65.999" fill="#D9B8FF" font-family="sans-serif" font-size="11" textLength="41">: string</text><text x="439" y="88.804" fill="#D9B8FF" font-family="sans-serif" font-size="11" font-weight="bold" textLength="28">tags</text><text x="467" y="88.804" fill="#D9B8FF" font-family="sans-serif" font-size="11" textLength="145">: dictionary[string, string]</text><text x="439" y="111.609" fill="#D9B8FF" font-family="sans-serif" font-size="11" font-weight="bold" textLength="35">name</text><text x="474" y="111.609" fill="#D9B8FF" font-family="sans-serif" font-size="11" textLength="41">: string</text><text x="439" y="134.414" fill="#D9B8FF" font-family="sans-serif" font-size="11" font-weight="bold" textLength="35">ctime</text><text x="474" y="134.414" fill="#D9B8FF" font-family="sans-serif" font-size="11" textLength="58">: datetime</text><text x="439" y="157.218" fill="#D9B8FF" font-family="sans-serif" font-size="11" font-weight="bold" textLength="24">age</text><text x="463" y="157.218" fill="#D9B8FF" font-family="sans-serif" font-size="11" textLength="55">: duration</text><text x="439" y="180.023" fill="#D9B8FF" font-family="sans-serif" font-size="11" font-weight="bold" textLength="39">mtime</text><text x="478" y="180.023" fill="#D9B8FF" font-family="sans-serif" font-size="11" textLength="58">: datetime</text><text x="439" y="202.828" fill="#D9B8FF" font-family="sans-serif" font-size="11" font-weight="bold" textLength="75">last_update</text><text x="514" y="202.828" fill="#D9B8FF" font-family="sans-serif" font-size="11" textLength="55">: duration</text><text x="439" y="225.632" fill="#D9B8FF" font-family="sans-serif" font-size="11" font-weight="bold" textLength="36">atime</text><text x="475" y="225.632" fill="#D9B8FF" font-family="sans-serif" font-size="11" textLength="58">: datetime</text><text x="439" y="248.437" fill="#D9B8FF" font-family="sans-serif" font-size="11" font-weight="bold" textLength="74">last_access</text><text x="513" y="248.437" fill="#D9B8FF" font-family="sans-serif" font-size="11" textLength="55">: duration</text><text x="439" y="271.242" fill="#D9B8FF" font-family="sans-serif" font-size="11" font-weight="bold" textLength="27">kind</text><text x="466" y="271.242" fill="#D9B8FF" font-family="sans-serif" font-size="11" textLength="41">: string</text></a><a xlink:actuate="onRequest" xlink:href="#d" xlink:show="new" xlink:title="#aws_beanstalk_environment" xlink:type="simple" target="_top"><rect id="d" width="409" height="412.664" x="321" y="596" fill="#3D176E" rx="2.5" ry="2.5" style="stroke:#000d19;stroke-width:1.5"/><circle cx="395.75" cy="615.894" r="11" fill="#E98DF7" style="stroke:#000d19;stroke-width:1"/><path d="M398.719 621.535q-.578.297-1.219.438-.64.156-1.344.156-2.5 0-3.828-1.64-1.312-1.657-1.312-4.782t1.312-4.781q1.328-1.657 3.828-1.657.703 0 1.344.157.656.156 1.219.453v2.719q-.625-.578-1.219-.844-.594-.281-1.219-.281-1.344 0-2.031 1.078-.688 1.062-.688 3.156 0 2.094.688 3.172.688 1.062 2.031 1.062.625 0 1.219-.265.594-.282 1.219-.86v2.72Z"/><text x="421.25" y="621.78" fill="#D9B8FF" font-family="Helvetica" font-size="17" textLength="241">aws_beanstalk_environment</text><path d="M322 635.789h407" style="stroke:#000d19;stroke-width:1.5"/><text x="332" y="655" fill="#D9B8FF" font-family="sans-serif" font-size="11" font-weight="bold" textLength="72">description</text><text x="404" y="655" fill="#D9B8FF" font-family="sans-serif" font-size="11" textLength="41">: string</text><text x="332" y="677.804" fill="#D9B8FF" font-family="sans-serif" font-size="11" font-weight="bold" textLength="182">beanstalk_application_name</text><text x="514" y="677.804" fill="#D9B8FF" font-family="sans-serif" font-size="11" textLength="41">: string</text><text x="332" y="700.609" fill="#D9B8FF" font-family="sans-serif" font-size="11" font-weight="bold" textLength="154">beanstalk_version_label</text><text x="486" y="700.609" fill="#D9B8FF" font-family="sans-serif" font-size="11" textLength="41">: string</text><text x="332" y="723.414" fill="#D9B8FF" font-family="sans-serif" font-size="11" font-weight="bold" textLength="202">beanstalk_solution_stack_name</text><text x="534" y="723.414" fill="#D9B8FF" font-family="sans-serif" font-size="11" textLength="41">: string</text><text x="332" y="746.218" fill="#D9B8FF" font-family="sans-serif" font-size="11" font-weight="bold" textLength="150">beanstalk_platform_arn</text><text x="482" y="746.218" fill="#D9B8FF" font-family="sans-serif" font-size="11" textLength="41">: string</text><text x="332" y="769.023" fill="#D9B8FF" font-family="sans-serif" font-size="11" font-weight="bold" textLength="167">beanstalk_template_name</text><text x="499" y="769.023" fill="#D9B8FF" font-family="sans-serif" font-size="11" textLength="41">: string</text><text x="332" y="791.828" fill="#D9B8FF" font-family="sans-serif" font-size="11" font-weight="bold" textLength="149">beanstalk_endpoint_url</text><text x="481" y="791.828" fill="#D9B8FF" font-family="sans-serif" font-size="11" textLength="41">: string</text><text x="332" y="814.632" fill="#D9B8FF" font-family="sans-serif" font-size="11" font-weight="bold" textLength="111">beanstalk_cname</text><text x="443" y="814.632" fill="#D9B8FF" font-family="sans-serif" font-size="11" textLength="41">: string</text><text x="332" y="837.437" fill="#D9B8FF" font-family="sans-serif" font-size="11" font-weight="bold" textLength="109">beanstalk_status</text><text x="441" y="837.437" fill="#D9B8FF" font-family="sans-serif" font-size="11" textLength="41">: string</text><text x="332" y="860.242" fill="#D9B8FF" font-family="sans-serif" font-size="11" font-weight="bold" textLength="279">beanstalk_abortable_operation_in_progress</text><text x="611" y="860.242" fill="#D9B8FF" font-family="sans-serif" font-size="11" textLength="53">: boolean</text><text x="332" y="883.046" fill="#D9B8FF" font-family="sans-serif" font-size="11" font-weight="bold" textLength="110">beanstalk_health</text><text x="442" y="883.046" fill="#D9B8FF" font-family="sans-serif" font-size="11" textLength="41">: string</text><text x="332" y="905.851" fill="#D9B8FF" font-family="sans-serif" font-size="11" font-weight="bold" textLength="156">beanstalk_health_status</text><text x="488" y="905.851" fill="#D9B8FF" font-family="sans-serif" font-size="11" textLength="41">: string</text><text x="332" y="928.656" fill="#D9B8FF" font-family="sans-serif" font-size="11" font-weight="bold" textLength="132">beanstalk_resources</text><text x="464" y="928.656" fill="#D9B8FF" font-family="sans-serif" font-size="11" textLength="233">: aws_beanstalk_environment_resources</text><text x="332" y="951.46" fill="#D9B8FF" font-family="sans-serif" font-size="11" font-weight="bold" textLength="91">beanstalk_tier</text><text x="423" y="951.46" fill="#D9B8FF" font-family="sans-serif" font-size="11" textLength="194">: aws_beanstalk_environment_tier</text><text x="332" y="974.265" fill="#D9B8FF" font-family="sans-serif" font-size="11" font-weight="bold" textLength="185">beanstalk_environment_links</text><text x="517" y="974.265" fill="#D9B8FF" font-family="sans-serif" font-size="11" textLength="202">: aws_beanstalk_environment_link[]</text><text x="332" y="997.07" fill="#D9B8FF" font-family="sans-serif" font-size="11" font-weight="bold" textLength="169">beanstalk_operations_role</text><text x="501" y="997.07" fill="#D9B8FF" font-family="sans-serif" font-size="11" textLength="41">: string</text></a><a xlink:actuate="onRequest" xlink:href="#e" xlink:show="new" xlink:title="#aws_beanstalk_queue_description" xlink:type="simple" target="_top"><rect id="e" width="326" height="93.398" x="189.5" y="1268" fill="#3D176E" rx="2.5" ry="2.5" style="stroke:#000d19;stroke-width:1.5"/><circle cx="204.5" cy="1287.895" r="11" fill="#E98DF7" style="stroke:#000d19;stroke-width:1"/><path d="M207.469 1293.535q-.578.297-1.219.438-.64.156-1.344.156-2.5 0-3.828-1.64-1.312-1.657-1.312-4.782t1.312-4.781q1.328-1.656 3.828-1.656.703 0 1.344.156.656.156 1.219.453v2.719q-.625-.578-1.219-.844-.594-.281-1.219-.281-1.344 0-2.031 1.078-.688 1.062-.688 3.156 0 2.094.688 3.172.688 1.062 2.031 1.062.625 0 1.219-.265.594-.281 1.219-.86v2.72Z"/><text x="223.5" y="1293.78" fill="#D9B8FF" font-family="Helvetica" font-size="17" textLength="284">aws_beanstalk_queue_description</text><path d="M190.5 1307.789h324" style="stroke:#000d19;stroke-width:1.5"/><text x="200.5" y="1326.999" fill="#D9B8FF" font-family="sans-serif" font-size="11" font-weight="bold" textLength="81">queue_name</text><text x="281.5" y="1326.999" fill="#D9B8FF" font-family="sans-serif" font-size="11" textLength="41">: string</text><text x="200.5" y="1349.804" fill="#D9B8FF" font-family="sans-serif" font-size="11" font-weight="bold" textLength="63">queue_url</text><text x="263.5" y="1349.804" fill="#D9B8FF" font-family="sans-serif" font-size="11" textLength="41">: string</text></a><a xlink:actuate="onRequest" xlink:href="#f" xlink:show="new" xlink:title="#aws_beanstalk_environment_tier" xlink:type="simple" target="_top"><rect id="f" width="321" height="116.203" x="365" y="1080.5" fill="#3D176E" rx="2.5" ry="2.5" style="stroke:#000d19;stroke-width:1.5"/><circle cx="380" cy="1100.395" r="11" fill="#E98DF7" style="stroke:#000d19;stroke-width:1"/><path d="M382.969 1106.035q-.578.297-1.219.438-.64.156-1.344.156-2.5 0-3.828-1.64-1.312-1.657-1.312-4.782t1.312-4.781q1.328-1.656 3.828-1.656.703 0 1.344.156.656.156 1.219.453v2.719q-.625-.578-1.219-.844-.594-.281-1.219-.281-1.344 0-2.031 1.078-.688 1.062-.688 3.156 0 2.094.688 3.172.688 1.062 2.031 1.062.625 0 1.219-.265.594-.281 1.219-.86v2.72Z"/><text x="399" y="1106.28" fill="#D9B8FF" font-family="Helvetica" font-size="17" textLength="279">aws_beanstalk_environment_tier</text><path d="M366 1120.289h319" style="stroke:#000d19;stroke-width:1.5"/><text x="376" y="1139.499" fill="#D9B8FF" font-family="sans-serif" font-size="11" font-weight="bold" textLength="35">name</text><text x="411" y="1139.499" fill="#D9B8FF" font-family="sans-serif" font-size="11" textLength="41">: string</text><text x="376" y="1162.304" fill="#D9B8FF" font-family="sans-serif" font-size="11" font-weight="bold" textLength="28">type</text><text x="404" y="1162.304" fill="#D9B8FF" font-family="sans-serif" font-size="11" textLength="41">: string</text><text x="376" y="1185.109" fill="#D9B8FF" font-family="sans-serif" font-size="11" font-weight="bold" textLength="47">version</text><text x="423" y="1185.109" fill="#D9B8FF" font-family="sans-serif" font-size="11" textLength="41">: string</text></a><a xlink:actuate="onRequest" xlink:href="#g" xlink:show="new" xlink:title="#aws_beanstalk_instances_description" xlink:type="simple" target="_top"><rect id="g" width="352" height="70.594" x="550.5" y="1279" fill="#3D176E" rx="2.5" ry="2.5" style="stroke:#000d19;stroke-width:1.5"/><circle cx="565.5" cy="1298.895" r="11" fill="#E98DF7" style="stroke:#000d19;stroke-width:1"/><path d="M568.469 1304.535q-.578.297-1.219.438-.64.156-1.344.156-2.5 0-3.828-1.64-1.312-1.657-1.312-4.782t1.312-4.781q1.328-1.656 3.828-1.656.703 0 1.344.156.656.156 1.219.453v2.719q-.625-.578-1.219-.844-.594-.281-1.219-.281-1.343 0-2.031 1.078-.688 1.062-.688 3.156 0 2.094.688 3.172.688 1.062 2.031 1.062.625 0 1.219-.265.594-.281 1.219-.86v2.72Z"/><text x="584.5" y="1304.78" fill="#D9B8FF" font-family="Helvetica" font-size="17" textLength="310">aws_beanstalk_instances_description</text><path d="M551.5 1318.789h350" style="stroke:#000d19;stroke-width:1.5"/><text x="561.5" y="1337.999" fill="#D9B8FF" font-family="sans-serif" font-size="11" font-weight="bold" textLength="73">instance_id</text><text x="634.5" y="1337.999" fill="#D9B8FF" font-family="sans-serif" font-size="11" textLength="41">: string</text></a><a xlink:actuate="onRequest" xlink:href="#h" xlink:show="new" xlink:title="#aws_beanstalk_auto_scaling_group_description" xlink:type="simple" target="_top"><rect id="h" width="435" height="70.594" x="937" y="1279" fill="#3D176E" rx="2.5" ry="2.5" style="stroke:#000d19;stroke-width:1.5"/><circle cx="952" cy="1298.895" r="11" fill="#E98DF7" style="stroke:#000d19;stroke-width:1"/><path d="M954.969 1304.535q-.578.297-1.219.438-.64.156-1.344.156-2.5 0-3.828-1.64-1.312-1.657-1.312-4.782t1.312-4.781q1.328-1.656 3.828-1.656.703 0 1.344.156.656.156 1.219.453v2.719q-.625-.578-1.219-.844-.594-.281-1.219-.281-1.343 0-2.031 1.078-.688 1.062-.688 3.156 0 2.094.688 3.172.688 1.062 2.031 1.062.625 0 1.219-.265.594-.281 1.219-.86v2.72Z"/><text x="971" y="1304.78" fill="#D9B8FF" font-family="Helvetica" font-size="17" textLength="393">aws_beanstalk_auto_scaling_group_description</text><path d="M938 1318.789h433" style="stroke:#000d19;stroke-width:1.5"/><text x="948" y="1337.999" fill="#D9B8FF" font-family="sans-serif" font-size="11" font-weight="bold" textLength="165">auto_scaling_group_name</text><text x="1113" y="1337.999" fill="#D9B8FF" font-family="sans-serif" font-size="11" textLength="41">: string</text></a><a xlink:actuate="onRequest" xlink:href="#i" xlink:show="new" xlink:title="#aws_beanstalk_environment_resources" xlink:type="simple" target="_top"><rect id="i" width="438" height="139.008" x="721.5" y="1069" fill="#3D176E" rx="2.5" ry="2.5" style="stroke:#000d19;stroke-width:1.5"/><circle cx="766.75" cy="1088.895" r="11" fill="#E98DF7" style="stroke:#000d19;stroke-width:1"/><path d="M769.719 1094.535q-.578.297-1.219.438-.64.156-1.344.156-2.5 0-3.828-1.64-1.312-1.657-1.312-4.782t1.312-4.781q1.328-1.656 3.828-1.656.703 0 1.344.156.656.156 1.219.453v2.719q-.625-.578-1.219-.844-.594-.281-1.219-.281-1.343 0-2.031 1.078-.688 1.062-.688 3.156 0 2.094.688 3.172.688 1.062 2.031 1.062.625 0 1.219-.265.594-.281 1.219-.86v2.72Z"/><text x="792.25" y="1094.78" fill="#D9B8FF" font-family="Helvetica" font-size="17" textLength="329">aws_beanstalk_environment_resources</text><path d="M722.5 1108.789h436" style="stroke:#000d19;stroke-width:1.5"/><text x="732.5" y="1127.999" fill="#D9B8FF" font-family="sans-serif" font-size="11" font-weight="bold" textLength="131">auto_scaling_groups</text><text x="863.5" y="1127.999" fill="#D9B8FF" font-family="sans-serif" font-size="11" textLength="285">: aws_beanstalk_auto_scaling_group_description[]</text><text x="732.5" y="1150.804" fill="#D9B8FF" font-family="sans-serif" font-size="11" font-weight="bold" textLength="62">instances</text><text x="794.5" y="1150.804" fill="#D9B8FF" font-family="sans-serif" font-size="11" textLength="230">: aws_beanstalk_instances_description[]</text><text x="732.5" y="1173.609" fill="#D9B8FF" font-family="sans-serif" font-size="11" font-weight="bold" textLength="97">load_balancers</text><text x="829.5" y="1173.609" fill="#D9B8FF" font-family="sans-serif" font-size="11" textLength="254">: aws_beanstalk_load_balancer_description[]</text><text x="732.5" y="1196.414" fill="#D9B8FF" font-family="sans-serif" font-size="11" font-weight="bold" textLength="47">queues</text><text x="779.5" y="1196.414" fill="#D9B8FF" font-family="sans-serif" font-size="11" textLength="210">: aws_beanstalk_queue_description[]</text></a><a xlink:actuate="onRequest" xlink:href="#j" xlink:show="new" xlink:title="#aws_beanstalk_load_balancer_description" xlink:type="simple" target="_top"><rect id="j" width="389" height="70.594" x="1407" y="1279" fill="#3D176E" rx="2.5" ry="2.5" style="stroke:#000d19;stroke-width:1.5"/><circle cx="1422" cy="1298.895" r="11" fill="#E98DF7" style="stroke:#000d19;stroke-width:1"/><path d="M1424.969 1304.535q-.578.297-1.219.438-.64.156-1.344.156-2.5 0-3.828-1.64-1.312-1.657-1.312-4.782t1.312-4.781q1.328-1.656 3.828-1.656.703 0 1.344.156.656.156 1.219.453v2.719q-.625-.578-1.219-.844-.594-.281-1.219-.281-1.343 0-2.031 1.078-.688 1.062-.688 3.156 0 2.094.688 3.172.688 1.062 2.031 1.062.625 0 1.219-.265.594-.281 1.219-.86v2.72Z"/><text x="1441" y="1304.78" fill="#D9B8FF" font-family="Helvetica" font-size="17" textLength="347">aws_beanstalk_load_balancer_description</text><path d="M1408 1318.789h387" style="stroke:#000d19;stroke-width:1.5"/><text x="1418" y="1337.999" fill="#D9B8FF" font-family="sans-serif" font-size="11" font-weight="bold" textLength="131">load_balancer_name</text><text x="1549" y="1337.999" fill="#D9B8FF" font-family="sans-serif" font-size="11" textLength="41">: string</text></a><path fill="none" d="M525.5 303.43V403.9m-7-100.64 7-20 7 20h-14zm7 191.9v100.77m-7-100.82 7-20 7 20h-14zM730.26 968.3c42.43 34.14 85.01 68.41 120.64 97.09" style="stroke:#ffaf37;stroke-width:2"/><path fill="#FFAF37" d="m855.22 1068.86-4.498-8.762.605 5.625-5.625.604 9.518 2.533z" style="stroke:#ffaf37;stroke-width:2"/><path fill="none" d="M525.5 1009.32v65.69" style="stroke:#ffaf37;stroke-width:2"/><path fill="#FFAF37" d="m525.5 1080.4 4-9-4 4-4-4 4 9z" style="stroke:#ffaf37;stroke-width:2"/><path fill="none" d="M320.94 994.89c-36.98 34.59-72.43 67.75-99.82 93.38" style="stroke:#ffaf37;stroke-width:2"/><path fill="#FFAF37" d="m217.14 1092 9.308-3.218-5.653-.194.194-5.654-3.849 9.066z" style="stroke:#ffaf37;stroke-width:2"/><path fill="none" d="M1024.77 1208.02c28.2 22.92 58.6 47.64 82.88 67.39" style="stroke:#ffaf37;stroke-width:2"/><path fill="#FFAF37" d="m1111.8 1278.78-4.466-8.778.584 5.627-5.626.584 9.508 2.567z" style="stroke:#ffaf37;stroke-width:2"/><path fill="none" d="M856.23 1208.02c-28.2 22.92-58.6 47.64-82.88 67.39" style="stroke:#ffaf37;stroke-width:2"/><path fill="#FFAF37" d="m769.2 1278.78 9.508-2.567-5.626-.584.584-5.627-4.466 8.778z" style="stroke:#ffaf37;stroke-width:2"/><path fill="none" d="M1159.69 1197.2c100.87 26.55 217.41 57.23 305.46 80.41" style="stroke:#ffaf37;stroke-width:2"/><path fill="#FFAF37" d="m1470.12 1278.91-7.685-6.16 2.85 4.887-4.887 2.85 9.722-1.577z" style="stroke:#ffaf37;stroke-width:2"/><path fill="none" d="M721.13 1204.41c-69.66 20.62-145.3 43-209.83 62.1" style="stroke:#ffaf37;stroke-width:2"/><path fill="#FFAF37" d="m506.28 1267.99 9.765 1.285-4.97-2.702 2.702-4.97-7.497 6.387z" style="stroke:#ffaf37;stroke-width:2"/></svg>