<svg xmlns="http://www.w3.org/2000/svg" xmlns:xlink="http://www.w3.org/1999/xlink" width="2329" height="1705" preserveAspectRatio="none" style="width:2329px;height:1705px;background:#00000000"><a xlink:actuate="onRequest" xlink:href="#a" xlink:show="new" xlink:title="#aws_resource" xlink:type="simple" target="_top"><rect id="a" width="155" height="70.594" x="1078" y="404" fill="#3D176E" rx="2.5" ry="2.5" style="stroke:#000d19;stroke-width:1.5"/><circle cx="1093" cy="423.894" r="11" fill="#E98DF7" style="stroke:#000d19;stroke-width:1"/><path d="M1095.969 429.535q-.578.297-1.219.438-.64.156-1.344.156-2.5 0-3.828-1.64-1.312-1.657-1.312-4.782t1.312-4.781q1.328-1.656 3.828-1.656.703 0 1.344.156.656.156 1.219.453v2.719q-.625-.579-1.219-.844-.594-.281-1.219-.281-1.343 0-2.031 1.078-.688 1.062-.688 3.156 0 2.094.688 3.172.688 1.062 2.031 1.062.625 0 1.219-.265.594-.281 1.219-.86v2.72Z"/><text x="1112" y="429.78" fill="#D9B8FF" font-family="Helvetica" font-size="17" textLength="113">aws_resource</text><path d="M1079 443.789h153" style="stroke:#000d19;stroke-width:1.5"/><text x="1089" y="463" fill="#D9B8FF" font-family="sans-serif" font-size="11" font-weight="bold" textLength="21">arn</text><text x="1110" y="463" fill="#D9B8FF" font-family="sans-serif" font-size="11" textLength="41">: string</text></a><a xlink:actuate="onRequest" xlink:href="#b" xlink:show="new" xlink:title="#resource" xlink:type="simple" target="_top"><rect id="b" width="195" height="275.836" x="1058" y="7" fill="#3D176E" rx="2.5" ry="2.5" style="stroke:#000d19;stroke-width:1.5"/><circle cx="1110.75" cy="26.895" r="11" fill="#E98DF7" style="stroke:#000d19;stroke-width:1"/><path d="M1113.719 32.535q-.578.297-1.219.438-.64.156-1.344.156-2.5 0-3.828-1.64-1.312-1.657-1.312-4.782t1.312-4.781q1.328-1.656 3.828-1.656.703 0 1.344.156.656.156 1.219.453v2.719q-.625-.578-1.219-.844-.594-.281-1.219-.281-1.343 0-2.031 1.078-.688 1.062-.688 3.156 0 2.094.688 3.172.688 1.062 2.031 1.062.625 0 1.219-.265.594-.281 1.219-.86v2.72Z"/><text x="1136.25" y="32.78" fill="#D9B8FF" font-family="Helvetica" font-size="17" textLength="71">resource</text><path d="M1059 46.789h193" style="stroke:#000d19;stroke-width:1.5"/><text x="1069" y="65.999" fill="#D9B8FF" font-family="sans-serif" font-size="11" font-weight="bold" textLength="12">id</text><text x="1081" y="65.999" fill="#D9B8FF" font-family="sans-serif" font-size="11" textLength="41">: string</text><text x="1069" y="88.804" fill="#D9B8FF" font-family="sans-serif" font-size="11" font-weight="bold" textLength="28">tags</text><text x="1097" y="88.804" fill="#D9B8FF" font-family="sans-serif" font-size="11" textLength="145">: dictionary[string, string]</text><text x="1069" y="111.609" fill="#D9B8FF" font-family="sans-serif" font-size="11" font-weight="bold" textLength="35">name</text><text x="1104" y="111.609" fill="#D9B8FF" font-family="sans-serif" font-size="11" textLength="41">: string</text><text x="1069" y="134.414" fill="#D9B8FF" font-family="sans-serif" font-size="11" font-weight="bold" textLength="35">ctime</text><text x="1104" y="134.414" fill="#D9B8FF" font-family="sans-serif" font-size="11" textLength="58">: datetime</text><text x="1069" y="157.218" fill="#D9B8FF" font-family="sans-serif" font-size="11" font-weight="bold" textLength="24">age</text><text x="1093" y="157.218" fill="#D9B8FF" font-family="sans-serif" font-size="11" textLength="55">: duration</text><text x="1069" y="180.023" fill="#D9B8FF" font-family="sans-serif" font-size="11" font-weight="bold" textLength="39">mtime</text><text x="1108" y="180.023" fill="#D9B8FF" font-family="sans-serif" font-size="11" textLength="58">: datetime</text><text x="1069" y="202.828" fill="#D9B8FF" font-family="sans-serif" font-size="11" font-weight="bold" textLength="75">last_update</text><text x="1144" y="202.828" fill="#D9B8FF" font-family="sans-serif" font-size="11" textLength="55">: duration</text><text x="1069" y="225.632" fill="#D9B8FF" font-family="sans-serif" font-size="11" font-weight="bold" textLength="36">atime</text><text x="1105" y="225.632" fill="#D9B8FF" font-family="sans-serif" font-size="11" textLength="58">: datetime</text><text x="1069" y="248.437" fill="#D9B8FF" font-family="sans-serif" font-size="11" font-weight="bold" textLength="74">last_access</text><text x="1143" y="248.437" fill="#D9B8FF" font-family="sans-serif" font-size="11" textLength="55">: duration</text><text x="1069" y="271.242" fill="#D9B8FF" font-family="sans-serif" font-size="11" font-weight="bold" textLength="27">kind</text><text x="1096" y="271.242" fill="#D9B8FF" font-family="sans-serif" font-size="11" textLength="41">: string</text></a><a xlink:actuate="onRequest" xlink:href="#c" xlink:show="new" xlink:title="#aws_sagemaker_transform_input" xlink:type="simple" target="_top"><rect id="c" width="340" height="139.008" x="39.5" y="1275" fill="#3D176E" rx="2.5" ry="2.5" style="stroke:#000d19;stroke-width:1.5"/><circle cx="63.05" cy="1294.895" r="11" fill="#E98DF7" style="stroke:#000d19;stroke-width:1"/><path d="M66.019 1300.535q-.578.297-1.219.438-.64.156-1.344.156-2.5 0-3.828-1.64-1.312-1.657-1.312-4.782t1.312-4.781q1.328-1.656 3.828-1.656.703 0 1.344.156.656.156 1.219.453v2.719q-.625-.578-1.219-.844-.594-.281-1.219-.281-1.344 0-2.031 1.078-.688 1.062-.688 3.156 0 2.094.688 3.172.688 1.062 2.031 1.062.625 0 1.219-.265.594-.281 1.219-.86v2.72Z"/><text x="83.95" y="1300.78" fill="#D9B8FF" font-family="Helvetica" font-size="17" textLength="279">aws_sagemaker_transform_input</text><path d="M40.5 1314.789h338" style="stroke:#000d19;stroke-width:1.5"/><text x="50.5" y="1333.999" fill="#D9B8FF" font-family="sans-serif" font-size="11" font-weight="bold" textLength="78">data_source</text><text x="128.5" y="1333.999" fill="#D9B8FF" font-family="sans-serif" font-size="11" textLength="240">: aws_sagemaker_transform_data_source</text><text x="50.5" y="1356.804" fill="#D9B8FF" font-family="sans-serif" font-size="11" font-weight="bold" textLength="83">content_type</text><text x="133.5" y="1356.804" fill="#D9B8FF" font-family="sans-serif" font-size="11" textLength="41">: string</text><text x="50.5" y="1379.609" fill="#D9B8FF" font-family="sans-serif" font-size="11" font-weight="bold" textLength="115">compression_type</text><text x="165.5" y="1379.609" fill="#D9B8FF" font-family="sans-serif" font-size="11" textLength="41">: string</text><text x="50.5" y="1402.414" fill="#D9B8FF" font-family="sans-serif" font-size="11" font-weight="bold" textLength="62">split_type</text><text x="112.5" y="1402.414" fill="#D9B8FF" font-family="sans-serif" font-size="11" textLength="41">: string</text></a><a xlink:actuate="onRequest" xlink:href="#d" xlink:show="new" xlink:title="#aws_sagemaker_transform_data_source" xlink:type="simple" target="_top"><rect id="d" width="381" height="70.594" x="19" y="1474" fill="#3D176E" rx="2.5" ry="2.5" style="stroke:#000d19;stroke-width:1.5"/><circle cx="35.8" cy="1493.895" r="11" fill="#E98DF7" style="stroke:#000d19;stroke-width:1"/><path d="M38.769 1499.535q-.578.297-1.219.438-.64.156-1.344.156-2.5 0-3.828-1.64-1.312-1.657-1.312-4.782t1.312-4.781q1.328-1.656 3.828-1.656.703 0 1.344.156.656.156 1.219.453v2.719q-.625-.578-1.219-.844-.594-.281-1.219-.281-1.344 0-2.031 1.078-.688 1.062-.688 3.156 0 2.094.688 3.172.688 1.062 2.031 1.062.625 0 1.219-.265.594-.281 1.219-.86v2.72Z"/><text x="55.2" y="1499.78" fill="#D9B8FF" font-family="Helvetica" font-size="17" textLength="335">aws_sagemaker_transform_data_source</text><path d="M20 1513.789h379" style="stroke:#000d19;stroke-width:1.5"/><text x="30" y="1532.999" fill="#D9B8FF" font-family="sans-serif" font-size="11" font-weight="bold" textLength="99">s3_data_source</text><text x="129" y="1532.999" fill="#D9B8FF" font-family="sans-serif" font-size="11" textLength="260">: aws_sagemaker_transform_s3_data_source</text></a><a xlink:actuate="onRequest" xlink:href="#e" xlink:show="new" xlink:title="#aws_sagemaker_transform_s3_data_source" xlink:type="simple" target="_top"><rect id="e" width="405" height="93.398" x="7" y="1605" fill="#3D176E" rx="2.5" ry="2.5" style="stroke:#000d19;stroke-width:1.5"/><circle cx="22" cy="1624.895" r="11" fill="#E98DF7" style="stroke:#000d19;stroke-width:1"/><path d="M24.969 1630.535q-.578.297-1.219.438-.64.156-1.344.156-2.5 0-3.828-1.64-1.312-1.657-1.312-4.782t1.312-4.781q1.328-1.656 3.828-1.656.703 0 1.344.156.656.156 1.219.453v2.719q-.625-.578-1.219-.844-.594-.281-1.219-.281-1.343 0-2.031 1.078-.688 1.062-.688 3.156 0 2.094.688 3.172.688 1.062 2.031 1.062.625 0 1.219-.265.594-.281 1.219-.86v2.72Z"/><text x="41" y="1630.78" fill="#D9B8FF" font-family="Helvetica" font-size="17" textLength="363">aws_sagemaker_transform_s3_data_source</text><path d="M8 1644.789h403" style="stroke:#000d19;stroke-width:1.5"/><text x="18" y="1663.999" fill="#D9B8FF" font-family="sans-serif" font-size="11" font-weight="bold" textLength="84">s3_data_type</text><text x="102" y="1663.999" fill="#D9B8FF" font-family="sans-serif" font-size="11" textLength="41">: string</text><text x="18" y="1686.804" fill="#D9B8FF" font-family="sans-serif" font-size="11" font-weight="bold" textLength="38">s3_uri</text><text x="56" y="1686.804" fill="#D9B8FF" font-family="sans-serif" font-size="11" textLength="41">: string</text></a><a xlink:actuate="onRequest" xlink:href="#f" xlink:show="new" xlink:title="#aws_sagemaker_transform_output" xlink:type="simple" target="_top"><rect id="f" width="333" height="139.008" x="415" y="1275" fill="#3D176E" rx="2.5" ry="2.5" style="stroke:#000d19;stroke-width:1.5"/><circle cx="430" cy="1294.895" r="11" fill="#E98DF7" style="stroke:#000d19;stroke-width:1"/><path d="M432.969 1300.535q-.578.297-1.219.438-.64.156-1.344.156-2.5 0-3.828-1.64-1.312-1.657-1.312-4.782t1.312-4.781q1.328-1.656 3.828-1.656.703 0 1.344.156.656.156 1.219.453v2.719q-.625-.578-1.219-.844-.594-.281-1.219-.281-1.344 0-2.031 1.078-.688 1.062-.688 3.156 0 2.094.688 3.172.688 1.062 2.031 1.062.625 0 1.219-.265.594-.281 1.219-.86v2.72Z"/><text x="449" y="1300.78" fill="#D9B8FF" font-family="Helvetica" font-size="17" textLength="291">aws_sagemaker_transform_output</text><path d="M416 1314.789h331" style="stroke:#000d19;stroke-width:1.5"/><text x="426" y="1333.999" fill="#D9B8FF" font-family="sans-serif" font-size="11" font-weight="bold" textLength="98">s3_output_path</text><text x="524" y="1333.999" fill="#D9B8FF" font-family="sans-serif" font-size="11" textLength="41">: string</text><text x="426" y="1356.804" fill="#D9B8FF" font-family="sans-serif" font-size="11" font-weight="bold" textLength="43">accept</text><text x="469" y="1356.804" fill="#D9B8FF" font-family="sans-serif" font-size="11" textLength="41">: string</text><text x="426" y="1379.609" fill="#D9B8FF" font-family="sans-serif" font-size="11" font-weight="bold" textLength="95">assemble_with</text><text x="521" y="1379.609" fill="#D9B8FF" font-family="sans-serif" font-size="11" textLength="41">: string</text><text x="426" y="1402.414" fill="#D9B8FF" font-family="sans-serif" font-size="11" font-weight="bold" textLength="71">kms_key_id</text><text x="497" y="1402.414" fill="#D9B8FF" font-family="sans-serif" font-size="11" textLength="41">: string</text></a><a xlink:actuate="onRequest" xlink:href="#g" xlink:show="new" xlink:title="#aws_sagemaker_transform_resources" xlink:type="simple" target="_top"><rect id="g" width="356" height="116.203" x="783.5" y="1286.5" fill="#3D176E" rx="2.5" ry="2.5" style="stroke:#000d19;stroke-width:1.5"/><circle cx="798.5" cy="1306.395" r="11" fill="#E98DF7" style="stroke:#000d19;stroke-width:1"/><path d="M801.469 1312.035q-.578.297-1.219.438-.64.156-1.344.156-2.5 0-3.828-1.64-1.312-1.657-1.312-4.782t1.312-4.781q1.328-1.656 3.828-1.656.703 0 1.344.156.656.156 1.219.453v2.719q-.625-.578-1.219-.844-.594-.281-1.219-.281-1.343 0-2.031 1.078-.688 1.062-.688 3.156 0 2.094.688 3.172.688 1.062 2.031 1.062.625 0 1.219-.265.594-.281 1.219-.86v2.72Z"/><text x="817.5" y="1312.28" fill="#D9B8FF" font-family="Helvetica" font-size="17" textLength="314">aws_sagemaker_transform_resources</text><path d="M784.5 1326.289h354" style="stroke:#000d19;stroke-width:1.5"/><text x="794.5" y="1345.499" fill="#D9B8FF" font-family="sans-serif" font-size="11" font-weight="bold" textLength="89">instance_type</text><text x="883.5" y="1345.499" fill="#D9B8FF" font-family="sans-serif" font-size="11" textLength="41">: string</text><text x="794.5" y="1368.304" fill="#D9B8FF" font-family="sans-serif" font-size="11" font-weight="bold" textLength="97">instance_count</text><text x="891.5" y="1368.304" fill="#D9B8FF" font-family="sans-serif" font-size="11" textLength="36">: int64</text><text x="794.5" y="1391.109" fill="#D9B8FF" font-family="sans-serif" font-size="11" font-weight="bold" textLength="123">volume_kms_key_id</text><text x="917.5" y="1391.109" fill="#D9B8FF" font-family="sans-serif" font-size="11" textLength="41">: string</text></a><a xlink:actuate="onRequest" xlink:href="#h" xlink:show="new" xlink:title="#aws_sagemaker_transform_job" xlink:type="simple" target="_top"><rect id="h" width="504" height="458.273" x="903.5" y="757" fill="#3D176E" rx="2.5" ry="2.5" style="stroke:#000d19;stroke-width:1.5"/><circle cx="1016.25" cy="776.894" r="11" fill="#E98DF7" style="stroke:#000d19;stroke-width:1"/><path d="M1019.219 782.535q-.578.297-1.219.438-.64.156-1.344.156-2.5 0-3.828-1.64-1.312-1.657-1.312-4.782t1.312-4.781q1.328-1.657 3.828-1.657.703 0 1.344.157.656.156 1.219.453v2.719q-.625-.578-1.219-.844-.594-.281-1.219-.281-1.343 0-2.031 1.078-.688 1.062-.688 3.156 0 2.094.688 3.172.688 1.062 2.031 1.062.625 0 1.219-.265.594-.282 1.219-.86v2.72Z"/><text x="1041.75" y="782.78" fill="#D9B8FF" font-family="Helvetica" font-size="17" textLength="260">aws_sagemaker_transform_job</text><path d="M904.5 796.789h502" style="stroke:#000d19;stroke-width:1.5"/><text x="914.5" y="816" fill="#D9B8FF" font-family="sans-serif" font-size="11" font-weight="bold" textLength="134">transform_job_status</text><text x="1048.5" y="816" fill="#D9B8FF" font-family="sans-serif" font-size="11" textLength="41">: string</text><text x="914.5" y="838.804" fill="#D9B8FF" font-family="sans-serif" font-size="11" font-weight="bold" textLength="186">transform_job_failure_reason</text><text x="1100.5" y="838.804" fill="#D9B8FF" font-family="sans-serif" font-size="11" textLength="41">: string</text><text x="914.5" y="861.609" fill="#D9B8FF" font-family="sans-serif" font-size="11" font-weight="bold" textLength="174">transform_job_model_name</text><text x="1088.5" y="861.609" fill="#D9B8FF" font-family="sans-serif" font-size="11" textLength="41">: string</text><text x="914.5" y="884.414" fill="#D9B8FF" font-family="sans-serif" font-size="11" font-weight="bold" textLength="270">transform_job_max_concurrent_transforms</text><text x="1184.5" y="884.414" fill="#D9B8FF" font-family="sans-serif" font-size="11" textLength="36">: int64</text><text x="914.5" y="907.218" fill="#D9B8FF" font-family="sans-serif" font-size="11" font-weight="bold" textLength="221">transform_job_model_client_config</text><text x="1135.5" y="907.218" fill="#D9B8FF" font-family="sans-serif" font-size="11" textLength="218">: aws_sagemaker_model_client_config</text><text x="914.5" y="930.023" fill="#D9B8FF" font-family="sans-serif" font-size="11" font-weight="bold" textLength="220">transform_job_max_payload_in_mb</text><text x="1134.5" y="930.023" fill="#D9B8FF" font-family="sans-serif" font-size="11" textLength="36">: int64</text><text x="914.5" y="952.828" fill="#D9B8FF" font-family="sans-serif" font-size="11" font-weight="bold" textLength="189">transform_job_batch_strategy</text><text x="1103.5" y="952.828" fill="#D9B8FF" font-family="sans-serif" font-size="11" textLength="41">: string</text><text x="914.5" y="975.632" fill="#D9B8FF" font-family="sans-serif" font-size="11" font-weight="bold" textLength="174">transform_job_environment</text><text x="1088.5" y="975.632" fill="#D9B8FF" font-family="sans-serif" font-size="11" textLength="145">: dictionary[string, string]</text><text x="914.5" y="998.437" fill="#D9B8FF" font-family="sans-serif" font-size="11" font-weight="bold" textLength="195">transform_job_transform_input</text><text x="1109.5" y="998.437" fill="#D9B8FF" font-family="sans-serif" font-size="11" textLength="198">: aws_sagemaker_transform_input</text><text x="914.5" y="1021.242" fill="#D9B8FF" font-family="sans-serif" font-size="11" font-weight="bold" textLength="204">transform_job_transform_output</text><text x="1118.5" y="1021.242" fill="#D9B8FF" font-family="sans-serif" font-size="11" textLength="206">: aws_sagemaker_transform_output</text><text x="914.5" y="1044.046" fill="#D9B8FF" font-family="sans-serif" font-size="11" font-weight="bold" textLength="224">transform_job_data_capture_config</text><text x="1138.5" y="1044.046" fill="#D9B8FF" font-family="sans-serif" font-size="11" textLength="258">: aws_sagemaker_batch_data_capture_config</text><text x="914.5" y="1066.851" fill="#D9B8FF" font-family="sans-serif" font-size="11" font-weight="bold" textLength="225">transform_job_transform_resources</text><text x="1139.5" y="1066.851" fill="#D9B8FF" font-family="sans-serif" font-size="11" textLength="228">: aws_sagemaker_transform_resources</text><text x="914.5" y="1089.656" fill="#D9B8FF" font-family="sans-serif" font-size="11" font-weight="bold" textLength="226">transform_job_transform_start_time</text><text x="1140.5" y="1089.656" fill="#D9B8FF" font-family="sans-serif" font-size="11" textLength="58">: datetime</text><text x="914.5" y="1112.46" fill="#D9B8FF" font-family="sans-serif" font-size="11" font-weight="bold" textLength="220">transform_job_transform_end_time</text><text x="1134.5" y="1112.46" fill="#D9B8FF" font-family="sans-serif" font-size="11" textLength="58">: datetime</text><text x="914.5" y="1135.265" fill="#D9B8FF" font-family="sans-serif" font-size="11" font-weight="bold" textLength="199">transform_job_labeling_job_arn</text><text x="1113.5" y="1135.265" fill="#D9B8FF" font-family="sans-serif" font-size="11" textLength="41">: string</text><text x="914.5" y="1158.07" fill="#D9B8FF" font-family="sans-serif" font-size="11" font-weight="bold" textLength="197">transform_job_auto_ml_job_arn</text><text x="1111.5" y="1158.07" fill="#D9B8FF" font-family="sans-serif" font-size="11" textLength="41">: string</text><text x="914.5" y="1180.874" fill="#D9B8FF" font-family="sans-serif" font-size="11" font-weight="bold" textLength="199">transform_job_data_processing</text><text x="1113.5" y="1180.874" fill="#D9B8FF" font-family="sans-serif" font-size="11" textLength="201">: aws_sagemaker_data_processing</text><text x="914.5" y="1203.679" fill="#D9B8FF" font-family="sans-serif" font-size="11" font-weight="bold" textLength="290">transform_job_trial_component_display_name</text><text x="1204.5" y="1203.679" fill="#D9B8FF" font-family="sans-serif" font-size="11" textLength="41">: string</text></a><a xlink:actuate="onRequest" xlink:href="#i" xlink:show="new" xlink:title="#aws_sagemaker_job" xlink:type="simple" target="_top"><rect id="i" width="210" height="39.789" x="1050.5" y="596" fill="#3D176E" rx="2.5" ry="2.5" style="stroke:#000d19;stroke-width:1.5"/><circle cx="1065.5" cy="615.894" r="11" fill="#E98DF7" style="stroke:#000d19;stroke-width:1"/><path d="M1068.469 621.535q-.578.297-1.219.438-.64.156-1.344.156-2.5 0-3.828-1.64-1.312-1.657-1.312-4.782t1.312-4.781q1.328-1.657 3.828-1.657.703 0 1.344.157.656.156 1.219.453v2.719q-.625-.578-1.219-.844-.594-.281-1.219-.281-1.343 0-2.031 1.078-.688 1.062-.688 3.156 0 2.094.688 3.172.688 1.062 2.031 1.062.625 0 1.219-.265.594-.282 1.219-.86v2.72Z"/><text x="1084.5" y="621.78" fill="#D9B8FF" font-family="Helvetica" font-size="17" textLength="168">aws_sagemaker_job</text></a><a xlink:actuate="onRequest" xlink:href="#j" xlink:show="new" xlink:title="#aws_sagemaker_model_client_config" xlink:type="simple" target="_top"><rect id="j" width="351" height="93.398" x="1175" y="1298" fill="#3D176E" rx="2.5" ry="2.5" style="stroke:#000d19;stroke-width:1.5"/><circle cx="1190" cy="1317.895" r="11" fill="#E98DF7" style="stroke:#000d19;stroke-width:1"/><path d="M1192.969 1323.535q-.578.297-1.219.438-.64.156-1.344.156-2.5 0-3.828-1.64-1.312-1.657-1.312-4.782t1.312-4.781q1.328-1.656 3.828-1.656.703 0 1.344.156.656.156 1.219.453v2.719q-.625-.578-1.219-.844-.594-.281-1.219-.281-1.343 0-2.031 1.078-.688 1.062-.688 3.156 0 2.094.688 3.172.688 1.062 2.031 1.062.625 0 1.219-.265.594-.281 1.219-.86v2.72Z"/><text x="1209" y="1323.78" fill="#D9B8FF" font-family="Helvetica" font-size="17" textLength="309">aws_sagemaker_model_client_config</text><path d="M1176 1337.789h349" style="stroke:#000d19;stroke-width:1.5"/><text x="1186" y="1356.999" fill="#D9B8FF" font-family="sans-serif" font-size="11" font-weight="bold" textLength="206">invocations_timeout_in_seconds</text><text x="1392" y="1356.999" fill="#D9B8FF" font-family="sans-serif" font-size="11" textLength="36">: int64</text><text x="1186" y="1379.804" fill="#D9B8FF" font-family="sans-serif" font-size="11" font-weight="bold" textLength="154">invocations_max_retries</text><text x="1340" y="1379.804" fill="#D9B8FF" font-family="sans-serif" font-size="11" textLength="36">: int64</text></a><a xlink:actuate="onRequest" xlink:href="#k" xlink:show="new" xlink:title="#aws_sagemaker_data_processing" xlink:type="simple" target="_top"><rect id="k" width="318" height="116.203" x="1561.5" y="1286.5" fill="#3D176E" rx="2.5" ry="2.5" style="stroke:#000d19;stroke-width:1.5"/><circle cx="1576.5" cy="1306.395" r="11" fill="#E98DF7" style="stroke:#000d19;stroke-width:1"/><path d="M1579.469 1312.035q-.578.297-1.219.438-.64.156-1.344.156-2.5 0-3.828-1.64-1.312-1.657-1.312-4.782t1.312-4.781q1.328-1.656 3.828-1.656.703 0 1.344.156.656.156 1.219.453v2.719q-.625-.578-1.219-.844-.594-.281-1.219-.281-1.343 0-2.031 1.078-.688 1.062-.688 3.156 0 2.094.688 3.172.688 1.062 2.031 1.062.625 0 1.219-.265.594-.281 1.219-.86v2.72Z"/><text x="1595.5" y="1312.28" fill="#D9B8FF" font-family="Helvetica" font-size="17" textLength="276">aws_sagemaker_data_processing</text><path d="M1562.5 1326.289h316" style="stroke:#000d19;stroke-width:1.5"/><text x="1572.5" y="1345.499" fill="#D9B8FF" font-family="sans-serif" font-size="11" font-weight="bold" textLength="70">input_filter</text><text x="1642.5" y="1345.499" fill="#D9B8FF" font-family="sans-serif" font-size="11" textLength="41">: string</text><text x="1572.5" y="1368.304" fill="#D9B8FF" font-family="sans-serif" font-size="11" font-weight="bold" textLength="79">output_filter</text><text x="1651.5" y="1368.304" fill="#D9B8FF" font-family="sans-serif" font-size="11" textLength="41">: string</text><text x="1572.5" y="1391.109" fill="#D9B8FF" font-family="sans-serif" font-size="11" font-weight="bold" textLength="73">join_source</text><text x="1645.5" y="1391.109" fill="#D9B8FF" font-family="sans-serif" font-size="11" textLength="41">: string</text></a><a xlink:actuate="onRequest" xlink:href="#l" xlink:show="new" xlink:title="#aws_sagemaker_batch_data_capture_config" xlink:type="simple" target="_top"><rect id="l" width="408" height="116.203" x="1914.5" y="1286.5" fill="#3D176E" rx="2.5" ry="2.5" style="stroke:#000d19;stroke-width:1.5"/><circle cx="1929.5" cy="1306.395" r="11" fill="#E98DF7" style="stroke:#000d19;stroke-width:1"/><path d="M1932.469 1312.035q-.578.297-1.219.438-.64.156-1.344.156-2.5 0-3.828-1.64-1.312-1.657-1.312-4.782t1.312-4.781q1.328-1.656 3.828-1.656.703 0 1.344.156.656.156 1.219.453v2.719q-.625-.578-1.219-.844-.594-.281-1.219-.281-1.343 0-2.031 1.078-.688 1.062-.688 3.156 0 2.094.688 3.172.688 1.062 2.031 1.062.625 0 1.219-.265.594-.281 1.219-.86v2.72Z"/><text x="1948.5" y="1312.28" fill="#D9B8FF" font-family="Helvetica" font-size="17" textLength="366">aws_sagemaker_batch_data_capture_config</text><path d="M1915.5 1326.289h406" style="stroke:#000d19;stroke-width:1.5"/><text x="1925.5" y="1345.499" fill="#D9B8FF" font-family="sans-serif" font-size="11" font-weight="bold" textLength="117">destination_s3_uri</text><text x="2042.5" y="1345.499" fill="#D9B8FF" font-family="sans-serif" font-size="11" textLength="41">: string</text><text x="1925.5" y="1368.304" fill="#D9B8FF" font-family="sans-serif" font-size="11" font-weight="bold" textLength="71">kms_key_id</text><text x="1996.5" y="1368.304" fill="#D9B8FF" font-family="sans-serif" font-size="11" textLength="41">: string</text><text x="1925.5" y="1391.109" fill="#D9B8FF" font-family="sans-serif" font-size="11" font-weight="bold" textLength="143">generate_inference_id</text><text x="2068.5" y="1391.109" fill="#D9B8FF" font-family="sans-serif" font-size="11" textLength="53">: boolean</text></a><path fill="none" d="M1155.5 303.43V403.9m-7-100.64 7-20 7 20h-14zm-939 1110.89v54.14" style="stroke:#ffaf37;stroke-width:2"/><path fill="#FFAF37" d="m209.5 1473.71 4-9-4 4-4-4 4 9z" style="stroke:#ffaf37;stroke-width:2"/><path fill="none" d="M209.5 1545.11v54.75" style="stroke:#ffaf37;stroke-width:2"/><path fill="#FFAF37" d="m209.5 1604.93 4-9-4 4-4-4 4 9z" style="stroke:#ffaf37;stroke-width:2"/><path fill="none" d="M1155.5 656.17v100.48m-7-100.64 7-20 7 20h-14zm131.74 559.04c15.93 29.13 30.81 56.32 42.73 78.13" style="stroke:#ffaf37;stroke-width:2"/><path fill="#FFAF37" d="m1325.47 1297.75-.812-9.815-1.588 5.429-5.43-1.589 7.83 5.975z" style="stroke:#ffaf37;stroke-width:2"/><path fill="none" d="M903.23 1082.07c-163.79 61.72-373.1 140.6-518.77 195.5" style="stroke:#ffaf37;stroke-width:2"/><path fill="#FFAF37" d="m379.73 1279.35 9.832.575-5.152-2.335 2.335-5.152-7.015 6.912z" style="stroke:#ffaf37;stroke-width:2"/><path fill="none" d="M903.32 1143.63c-72.31 44.91-147.62 91.68-207.18 128.67" style="stroke:#ffaf37;stroke-width:2"/><path fill="#FFAF37" d="m691.87 1274.95 9.756-1.349-5.508-1.288 1.289-5.508-5.537 8.145z" style="stroke:#ffaf37;stroke-width:2"/><path fill="none" d="M1407.57 1080.32c174.63 64.64 401.79 148.74 551.77 204.26" style="stroke:#ffaf37;stroke-width:2"/><path fill="#FFAF37" d="m1964.2 1286.38-7.06-6.868 2.369 5.138-5.137 2.368 9.828-.638z" style="stroke:#ffaf37;stroke-width:2"/><path fill="none" d="M1031.4 1215.05c-13.12 24.11-25.53 46.91-36.14 66.41" style="stroke:#ffaf37;stroke-width:2"/><path fill="#FFAF37" d="m992.6 1286.35 7.814-5.995-5.425 1.603-1.602-5.425-.787 9.817z" style="stroke:#ffaf37;stroke-width:2"/><path fill="none" d="M1407.84 1146.22c77.39 48.83 157.83 99.59 217.74 137.39" style="stroke:#ffaf37;stroke-width:2"/><path fill="#FFAF37" d="m1629.86 1286.31-5.472-8.189 1.245 5.518-5.518 1.246 9.745 1.425z" style="stroke:#ffaf37;stroke-width:2"/><path fill="none" d="M1155.5 495.52v100.3m-7-100.43 7-20 7 20h-14z" style="stroke:#ffaf37;stroke-width:2"/></svg>