<svg xmlns="http://www.w3.org/2000/svg" xmlns:xlink="http://www.w3.org/1999/xlink" width="745" height="352" preserveAspectRatio="none" style="width:745px;height:352px;background:#00000000"><a xlink:actuate="onRequest" xlink:href="#a" xlink:show="new" xlink:title="#aws_kms_key" xlink:type="simple" target="_top"><rect id="a" width="158" height="39.789" x="427.5" y="307" fill="#3D176E" rx="2.5" ry="2.5" style="stroke:#000d19;stroke-width:1.5"/><circle cx="442.5" cy="326.894" r="11" fill="#E98DF7" style="stroke:#000d19;stroke-width:1"/><path d="M445.469 332.535q-.578.297-1.219.438-.64.156-1.344.156-2.5 0-3.828-1.64-1.312-1.657-1.312-4.782t1.312-4.781q1.328-1.656 3.828-1.656.703 0 1.344.156.656.156 1.219.453v2.719q-.625-.579-1.219-.844-.594-.281-1.219-.281-1.344 0-2.031 1.078-.688 1.062-.688 3.156 0 2.094.688 3.172.688 1.062 2.031 1.062.625 0 1.219-.265.594-.281 1.219-.86v2.72Z"/><text x="461.5" y="332.78" fill="#D9B8FF" font-family="Helvetica" font-size="17" textLength="116">aws_kms_key</text></a><a xlink:actuate="onRequest" xlink:href="#b" xlink:show="new" xlink:title="#aws_iam_role" xlink:type="simple" target="_top"><rect id="b" width="157" height="39.789" x="7" y="7" fill="#3D176E" rx="2.5" ry="2.5" style="stroke:#000d19;stroke-width:1.5"/><circle cx="22" cy="26.895" r="11" fill="#E98DF7" style="stroke:#000d19;stroke-width:1"/><path d="M24.969 32.535q-.578.297-1.219.438-.64.156-1.344.156-2.5 0-3.828-1.64-1.312-1.657-1.312-4.782t1.312-4.781q1.328-1.656 3.828-1.656.703 0 1.344.156.656.156 1.219.453v2.719q-.625-.578-1.219-.844-.594-.281-1.219-.281-1.343 0-2.031 1.078-.688 1.062-.688 3.156 0 2.094.688 3.172.688 1.062 2.031 1.062.625 0 1.219-.265.594-.281 1.219-.86v2.72Z"/><text x="41" y="32.78" fill="#D9B8FF" font-family="Helvetica" font-size="17" textLength="115">aws_iam_role</text></a><a xlink:actuate="onRequest" xlink:href="#c" xlink:show="new" xlink:title="#aws_sagemaker_training_job" xlink:type="simple" target="_top"><rect id="c" width="285" height="39.789" x="115" y="207" fill="#3D176E" rx="2.5" ry="2.5" style="stroke:#000d19;stroke-width:1.5"/><circle cx="130" cy="226.894" r="11" fill="#E98DF7" style="stroke:#000d19;stroke-width:1"/><path d="M132.969 232.535q-.578.297-1.219.438-.64.156-1.344.156-2.5 0-3.828-1.64-1.312-1.657-1.312-4.782t1.312-4.781q1.328-1.656 3.828-1.656.703 0 1.344.156.656.156 1.219.453v2.719q-.625-.579-1.219-.844-.594-.281-1.219-.281-1.344 0-2.031 1.078-.688 1.062-.688 3.156 0 2.094.688 3.172.688 1.062 2.031 1.062.625 0 1.219-.265.594-.281 1.219-.86v2.72Z"/><text x="149" y="232.78" fill="#D9B8FF" font-family="Helvetica" font-size="17" textLength="243">aws_sagemaker_training_job</text></a><a xlink:actuate="onRequest" xlink:href="#d" xlink:show="new" xlink:title="#aws_sagemaker_hyper_parameter_tuning_job" xlink:type="simple" target="_top"><rect id="d" width="428" height="39.789" x="310.5" y="107" fill="#3D176E" rx="2.5" ry="2.5" style="stroke:#000d19;stroke-width:1.5"/><circle cx="325.5" cy="126.894" r="11" fill="#E98DF7" style="stroke:#000d19;stroke-width:1"/><path d="M328.469 132.535q-.578.297-1.219.438-.64.156-1.344.156-2.5 0-3.828-1.64-1.312-1.657-1.312-4.782t1.312-4.781q1.328-1.657 3.828-1.657.703 0 1.344.157.656.156 1.219.453v2.719q-.625-.579-1.219-.844-.594-.281-1.219-.281-1.344 0-2.031 1.078-.688 1.062-.688 3.156 0 2.094.688 3.172.688 1.062 2.031 1.062.625 0 1.219-.265.594-.281 1.219-.86v2.72Z"/><text x="344.5" y="132.78" fill="#D9B8FF" font-family="Helvetica" font-size="17" textLength="386">aws_sagemaker_hyper_parameter_tuning_job</text></a><a xlink:actuate="onRequest" xlink:href="#e" xlink:show="new" xlink:title="#aws_s3_bucket" xlink:type="simple" target="_top"><rect id="e" width="168" height="39.789" x="207.5" y="307" fill="#3D176E" rx="2.5" ry="2.5" style="stroke:#000d19;stroke-width:1.5"/><circle cx="222.5" cy="326.894" r="11" fill="#E98DF7" style="stroke:#000d19;stroke-width:1"/><path d="M225.469 332.535q-.578.297-1.219.438-.64.156-1.344.156-2.5 0-3.828-1.64-1.312-1.657-1.312-4.782t1.312-4.781q1.328-1.656 3.828-1.656.703 0 1.344.156.656.156 1.219.453v2.719q-.625-.579-1.219-.844-.594-.281-1.219-.281-1.344 0-2.031 1.078-.688 1.062-.688 3.156 0 2.094.688 3.172.688 1.062 2.031 1.062.625 0 1.219-.265.594-.281 1.219-.86v2.72Z"/><text x="241.5" y="332.78" fill="#D9B8FF" font-family="Helvetica" font-size="17" textLength="126">aws_s3_bucket</text></a><a xlink:actuate="onRequest" xlink:href="#f" xlink:show="new" xlink:title="#aws_ec2_subnet" xlink:type="simple" target="_top"><rect id="f" width="179" height="39.789" x="199" y="7" fill="#3D176E" rx="2.5" ry="2.5" style="stroke:#000d19;stroke-width:1.5"/><circle cx="214" cy="26.895" r="11" fill="#E98DF7" style="stroke:#000d19;stroke-width:1"/><path d="M216.969 32.535q-.578.297-1.219.438-.64.156-1.344.156-2.5 0-3.828-1.64-1.312-1.657-1.312-4.782t1.312-4.781q1.328-1.656 3.828-1.656.703 0 1.344.156.656.156 1.219.453v2.719q-.625-.578-1.219-.844-.594-.281-1.219-.281-1.344 0-2.031 1.078-.688 1.062-.688 3.156 0 2.094.688 3.172.688 1.062 2.031 1.062.625 0 1.219-.265.594-.281 1.219-.86v2.72Z"/><text x="233" y="32.78" fill="#D9B8FF" font-family="Helvetica" font-size="17" textLength="137">aws_ec2_subnet</text></a><a xlink:actuate="onRequest" xlink:href="#g" xlink:show="new" xlink:title="#aws_ec2_security_group" xlink:type="simple" target="_top"><rect id="g" width="245" height="39.789" x="413" y="7" fill="#3D176E" rx="2.5" ry="2.5" style="stroke:#000d19;stroke-width:1.5"/><circle cx="428" cy="26.895" r="11" fill="#E98DF7" style="stroke:#000d19;stroke-width:1"/><path d="M430.969 32.535q-.578.297-1.219.438-.64.156-1.344.156-2.5 0-3.828-1.64-1.312-1.657-1.312-4.782t1.312-4.781q1.328-1.656 3.828-1.656.703 0 1.344.156.656.156 1.219.453v2.719q-.625-.578-1.219-.844-.594-.281-1.219-.281-1.344 0-2.031 1.078-.688 1.062-.688 3.156 0 2.094.688 3.172.688 1.062 2.031 1.062.625 0 1.219-.265.594-.281 1.219-.86v2.72Z"/><text x="447" y="32.78" fill="#D9B8FF" font-family="Helvetica" font-size="17" textLength="203">aws_ec2_security_group</text></a><path fill="none" d="M102.31 47.35c31.8 36.61 100.68 115.9 134.96 155.37" style="stroke:#1a83af;stroke-width:2"/><path fill="#1A83AF" d="m240.88 206.87-2.876-9.42-.4 5.643-5.643-.4 8.919 4.177z" style="stroke:#1a83af;stroke-width:2"/><path fill="none" d="M164.24 45.58c75.81 16.92 190.37 42.5 269.87 60.24" style="stroke:#1a83af;stroke-width:2"/><path fill="#1A83AF" d="m439.3 106.98-7.918-5.857 3.037 4.772-4.772 3.037 9.653-1.952z" style="stroke:#1a83af;stroke-width:2"/><path fill="none" d="M264.22 247.36c5.4 15.57 13.02 37.54 18.83 54.3" style="stroke:#1a83af;stroke-width:2"/><path fill="#1A83AF" d="m284.8 306.68.825-9.814-2.466 5.09-5.091-2.465 6.732 7.189z" style="stroke:#1a83af;stroke-width:2"/><path fill="none" d="M305.8 247.01c42.31 16.65 103.68 40.8 147.4 58.01" style="stroke:#1a83af;stroke-width:2"/><path fill="#1A83AF" d="m457.9 306.87-6.915-7.013 2.26 5.186-5.184 2.261 9.839-.434z" style="stroke:#1a83af;stroke-width:2"/><path fill="none" d="M509.99 147.23c-19.36 24.86-55.49 68.66-92.49 99.77-26.53 22.31-59.88 42.94-85.6 57.52" style="stroke:#1a83af;stroke-width:2"/><path fill="#1A83AF" d="m327.51 306.99 9.804-.937-5.449-1.52 1.52-5.448-5.875 7.905z" style="stroke:#1a83af;stroke-width:2"/><path fill="none" d="M522.74 147.35c-3.3 36.32-10.42 114.62-14.04 154.4" style="stroke:#1a83af;stroke-width:2"/><path fill="#1A83AF" d="m508.24 306.87 4.807-8.596-4.35 3.617-3.616-4.35 3.159 9.329z" style="stroke:#1a83af;stroke-width:2"/><path fill="none" d="M472.7 147.01c-45.45 16.68-111.43 40.9-158.33 58.12" style="stroke:#1a83af;stroke-width:2"/><path fill="#1A83AF" d="m309.61 206.87 9.826.664-5.13-2.382 2.382-5.13-7.078 6.848z" style="stroke:#1a83af;stroke-width:2"/><path fill="none" d="M334.28 47.01c40.01 16.62 98.03 40.71 139.45 57.91" style="stroke:#1a83af;stroke-width:2"/><path fill="#1A83AF" d="m478.44 106.87-6.761-7.161 2.148 5.233-5.233 2.148 9.846-.22z" style="stroke:#1a83af;stroke-width:2"/><path fill="none" d="M269.33 47.14C255.85 62.03 238.94 83.99 231.5 107c-10.42 32.26 2.4 70.78 13.45 95.07" style="stroke:#1a83af;stroke-width:2"/><path fill="#1A83AF" d="m247.13 206.74-.208-9.847-1.919 5.322-5.321-1.919 7.448 6.444z" style="stroke:#1a83af;stroke-width:2"/><path fill="none" d="M412.99 43.82C369.91 55.05 324.35 74.24 292.5 107c-24.91 25.62-32.23 68.03-34.3 94.69" style="stroke:#1a83af;stroke-width:2"/><path fill="#1A83AF" d="m257.85 206.81 4.606-8.705-4.264 3.717-3.717-4.265 3.375 9.253z" style="stroke:#1a83af;stroke-width:2"/><path fill="none" d="M533.33 47.36c-1.75 15.57-4.22 37.54-6.1 54.3" style="stroke:#1a83af;stroke-width:2"/><path fill="#1A83AF" d="m526.67 106.68 5.002-8.484-4.431 3.517-3.517-4.43 2.946 9.397z" style="stroke:#1a83af;stroke-width:2"/></svg>