<svg xmlns="http://www.w3.org/2000/svg" xmlns:xlink="http://www.w3.org/1999/xlink" width="2314" height="352" preserveAspectRatio="none" style="width:2314px;height:352px;background:#00000000"><a xlink:actuate="onRequest" xlink:href="#a" xlink:show="new" xlink:title="#aws_iam_policy" xlink:type="simple" target="_top"><rect id="a" width="173" height="39.789" x="7" y="207" fill="#3D176E" rx="2.5" ry="2.5" style="stroke:#000d19;stroke-width:1.5"/><circle cx="22" cy="226.894" r="11" fill="#E98DF7" style="stroke:#000d19;stroke-width:1"/><path d="M24.969 232.535q-.578.297-1.219.438-.64.156-1.344.156-2.5 0-3.828-1.64-1.312-1.657-1.312-4.782t1.312-4.781q1.328-1.656 3.828-1.656.703 0 1.344.156.656.156 1.219.453v2.719q-.625-.579-1.219-.844-.594-.281-1.219-.281-1.343 0-2.031 1.078-.688 1.062-.688 3.156 0 2.094.688 3.172.688 1.062 2.031 1.062.625 0 1.219-.265.594-.281 1.219-.86v2.72Z"/><text x="41" y="232.78" fill="#D9B8FF" font-family="Helvetica" font-size="17" textLength="131">aws_iam_policy</text></a><a xlink:actuate="onRequest" xlink:href="#b" xlink:show="new" xlink:title="#aws_cognito_group" xlink:type="simple" target="_top"><rect id="b" width="202" height="39.789" x="1388.5" y="207" fill="#3D176E" rx="2.5" ry="2.5" style="stroke:#000d19;stroke-width:1.5"/><circle cx="1403.5" cy="226.894" r="11" fill="#E98DF7" style="stroke:#000d19;stroke-width:1"/><path d="M1406.469 232.535q-.578.297-1.219.438-.64.156-1.344.156-2.5 0-3.828-1.64-1.312-1.657-1.312-4.782t1.312-4.781q1.328-1.656 3.828-1.656.703 0 1.344.156.656.156 1.219.453v2.719q-.625-.579-1.219-.844-.594-.281-1.219-.281-1.343 0-2.031 1.078-.688 1.062-.688 3.156 0 2.094.688 3.172.688 1.062 2.031 1.062.625 0 1.219-.265.594-.281 1.219-.86v2.72Z"/><text x="1422.5" y="232.78" fill="#D9B8FF" font-family="Helvetica" font-size="17" textLength="160">aws_cognito_group</text></a><a xlink:actuate="onRequest" xlink:href="#c" xlink:show="new" xlink:title="#aws_ecs_service" xlink:type="simple" target="_top"><rect id="c" width="177" height="39.789" x="1626" y="207" fill="#3D176E" rx="2.5" ry="2.5" style="stroke:#000d19;stroke-width:1.5"/><circle cx="1641" cy="226.894" r="11" fill="#E98DF7" style="stroke:#000d19;stroke-width:1"/><path d="M1643.969 232.535q-.578.297-1.219.438-.64.156-1.344.156-2.5 0-3.828-1.64-1.312-1.657-1.312-4.782t1.312-4.781q1.328-1.656 3.828-1.656.703 0 1.344.156.656.156 1.219.453v2.719q-.625-.579-1.219-.844-.594-.281-1.219-.281-1.343 0-2.031 1.078-.688 1.062-.688 3.156 0 2.094.688 3.172.688 1.062 2.031 1.062.625 0 1.219-.265.594-.281 1.219-.86v2.72Z"/><text x="1660" y="232.78" fill="#D9B8FF" font-family="Helvetica" font-size="17" textLength="135">aws_ecs_service</text></a><a xlink:actuate="onRequest" xlink:href="#d" xlink:show="new" xlink:title="#aws_ecs_task_definition" xlink:type="simple" target="_top"><rect id="d" width="243" height="39.789" x="215" y="207" fill="#3D176E" rx="2.5" ry="2.5" style="stroke:#000d19;stroke-width:1.5"/><circle cx="230" cy="226.894" r="11" fill="#E98DF7" style="stroke:#000d19;stroke-width:1"/><path d="M232.969 232.535q-.578.297-1.219.438-.64.156-1.344.156-2.5 0-3.828-1.64-1.312-1.657-1.312-4.782t1.312-4.781q1.328-1.656 3.828-1.656.703 0 1.344.156.656.156 1.219.453v2.719q-.625-.579-1.219-.844-.594-.281-1.219-.281-1.344 0-2.031 1.078-.688 1.062-.688 3.156 0 2.094.688 3.172.688 1.062 2.031 1.062.625 0 1.219-.265.594-.281 1.219-.86v2.72Z"/><text x="249" y="232.78" fill="#D9B8FF" font-family="Helvetica" font-size="17" textLength="201">aws_ecs_task_definition</text></a><a xlink:actuate="onRequest" xlink:href="#e" xlink:show="new" xlink:title="#aws_ecs_task" xlink:type="simple" target="_top"><rect id="e" width="154" height="39.789" x="346.5" y="307" fill="#3D176E" rx="2.5" ry="2.5" style="stroke:#000d19;stroke-width:1.5"/><circle cx="361.5" cy="326.894" r="11" fill="#E98DF7" style="stroke:#000d19;stroke-width:1"/><path d="M364.469 332.535q-.578.297-1.219.438-.64.156-1.344.156-2.5 0-3.828-1.64-1.312-1.657-1.312-4.782t1.312-4.781q1.328-1.656 3.828-1.656.703 0 1.344.156.656.156 1.219.453v2.719q-.625-.579-1.219-.844-.594-.281-1.219-.281-1.344 0-2.031 1.078-.688 1.062-.688 3.156 0 2.094.688 3.172.688 1.062 2.031 1.062.625 0 1.219-.265.594-.281 1.219-.86v2.72Z"/><text x="380.5" y="332.78" fill="#D9B8FF" font-family="Helvetica" font-size="17" textLength="112">aws_ecs_task</text></a><a xlink:actuate="onRequest" xlink:href="#f" xlink:show="new" xlink:title="#aws_sns_subscription" xlink:type="simple" target="_top"><rect id="f" width="220" height="39.789" x="564.5" y="207" fill="#3D176E" rx="2.5" ry="2.5" style="stroke:#000d19;stroke-width:1.5"/><circle cx="579.5" cy="226.894" r="11" fill="#E98DF7" style="stroke:#000d19;stroke-width:1"/><path d="M582.469 232.535q-.578.297-1.219.438-.64.156-1.344.156-2.5 0-3.828-1.64-1.312-1.657-1.312-4.782t1.312-4.781q1.328-1.656 3.828-1.656.703 0 1.344.156.656.156 1.219.453v2.719q-.625-.579-1.219-.844-.594-.281-1.219-.281-1.343 0-2.031 1.078-.688 1.062-.688 3.156 0 2.094.688 3.172.688 1.062 2.031 1.062.625 0 1.219-.265.594-.281 1.219-.86v2.72Z"/><text x="598.5" y="232.78" fill="#D9B8FF" font-family="Helvetica" font-size="17" textLength="178">aws_sns_subscription</text></a><a xlink:actuate="onRequest" xlink:href="#g" xlink:show="new" xlink:title="#aws_redshift_cluster" xlink:type="simple" target="_top"><rect id="g" width="213" height="39.789" x="820" y="207" fill="#3D176E" rx="2.5" ry="2.5" style="stroke:#000d19;stroke-width:1.5"/><circle cx="835" cy="226.894" r="11" fill="#E98DF7" style="stroke:#000d19;stroke-width:1"/><path d="M837.969 232.535q-.578.297-1.219.438-.64.156-1.344.156-2.5 0-3.828-1.64-1.312-1.657-1.312-4.782t1.312-4.781q1.328-1.656 3.828-1.656.703 0 1.344.156.656.156 1.219.453v2.719q-.625-.579-1.219-.844-.594-.281-1.219-.281-1.343 0-2.031 1.078-.688 1.062-.688 3.156 0 2.094.688 3.172.688 1.062 2.031 1.062.625 0 1.219-.265.594-.281 1.219-.86v2.72Z"/><text x="854" y="232.78" fill="#D9B8FF" font-family="Helvetica" font-size="17" textLength="171">aws_redshift_cluster</text></a><a xlink:actuate="onRequest" xlink:href="#h" xlink:show="new" xlink:title="#aws_region" xlink:type="simple" target="_top"><rect id="h" width="137" height="39.789" x="1208" y="7" fill="#3D176E" rx="2.5" ry="2.5" style="stroke:#000d19;stroke-width:1.5"/><circle cx="1223" cy="26.895" r="11" fill="#E98DF7" style="stroke:#000d19;stroke-width:1"/><path d="M1225.969 32.535q-.578.297-1.219.438-.64.156-1.344.156-2.5 0-3.828-1.64-1.312-1.657-1.312-4.782t1.312-4.781q1.328-1.656 3.828-1.656.703 0 1.344.156.656.156 1.219.453v2.719q-.625-.578-1.219-.844-.594-.281-1.219-.281-1.343 0-2.031 1.078-.688 1.062-.688 3.156 0 2.094.688 3.172.688 1.062 2.031 1.062.625 0 1.219-.265.594-.281 1.219-.86v2.72Z"/><text x="1242" y="32.78" fill="#D9B8FF" font-family="Helvetica" font-size="17" textLength="95">aws_region</text></a><a xlink:actuate="onRequest" xlink:href="#i" xlink:show="new" xlink:title="#aws_iam_role" xlink:type="simple" target="_top"><rect id="i" width="157" height="39.789" x="1132" y="107" fill="#3D176E" rx="2.5" ry="2.5" style="stroke:#000d19;stroke-width:1.5"/><circle cx="1147" cy="126.894" r="11" fill="#E98DF7" style="stroke:#000d19;stroke-width:1"/><path d="M1149.969 132.535q-.578.297-1.219.438-.64.156-1.344.156-2.5 0-3.828-1.64-1.312-1.657-1.312-4.782t1.312-4.781q1.328-1.657 3.828-1.657.703 0 1.344.157.656.156 1.219.453v2.719q-.625-.579-1.219-.844-.594-.281-1.219-.281-1.343 0-2.031 1.078-.688 1.062-.688 3.156 0 2.094.688 3.172.688 1.062 2.031 1.062.625 0 1.219-.265.594-.281 1.219-.86v2.72Z"/><text x="1166" y="132.78" fill="#D9B8FF" font-family="Helvetica" font-size="17" textLength="115">aws_iam_role</text></a><a xlink:actuate="onRequest" xlink:href="#j" xlink:show="new" xlink:title="#aws_eks_cluster" xlink:type="simple" target="_top"><rect id="j" width="177" height="39.789" x="1838" y="207" fill="#3D176E" rx="2.5" ry="2.5" style="stroke:#000d19;stroke-width:1.5"/><circle cx="1853" cy="226.894" r="11" fill="#E98DF7" style="stroke:#000d19;stroke-width:1"/><path d="M1855.969 232.535q-.578.297-1.219.438-.64.156-1.344.156-2.5 0-3.828-1.64-1.312-1.657-1.312-4.782t1.312-4.781q1.328-1.656 3.828-1.656.703 0 1.344.156.656.156 1.219.453v2.719q-.625-.579-1.219-.844-.594-.281-1.219-.281-1.343 0-2.031 1.078-.688 1.062-.688 3.156 0 2.094.688 3.172.688 1.062 2.031 1.062.625 0 1.219-.265.594-.281 1.219-.86v2.72Z"/><text x="1872" y="232.78" fill="#D9B8FF" font-family="Helvetica" font-size="17" textLength="135">aws_eks_cluster</text></a><a xlink:actuate="onRequest" xlink:href="#k" xlink:show="new" xlink:title="#aws_iam_instance_profile" xlink:type="simple" target="_top"><rect id="k" width="257" height="39.789" x="2050" y="207" fill="#3D176E" rx="2.5" ry="2.5" style="stroke:#000d19;stroke-width:1.5"/><circle cx="2065" cy="226.894" r="11" fill="#E98DF7" style="stroke:#000d19;stroke-width:1"/><path d="M2067.969 232.535q-.578.297-1.219.438-.64.156-1.344.156-2.5 0-3.828-1.64-1.312-1.657-1.312-4.782t1.312-4.781q1.328-1.656 3.828-1.656.703 0 1.344.156.656.156 1.219.453v2.719q-.625-.579-1.219-.844-.594-.281-1.219-.281-1.343 0-2.031 1.078-.688 1.062-.688 3.156 0 2.094.688 3.172.688 1.062 2.031 1.062.625 0 1.219-.265.594-.281 1.219-.86v2.72Z"/><text x="2084" y="232.78" fill="#D9B8FF" font-family="Helvetica" font-size="17" textLength="215">aws_iam_instance_profile</text></a><a xlink:actuate="onRequest" xlink:href="#l" xlink:show="new" xlink:title="#aws_api_gateway_authorizer" xlink:type="simple" target="_top"><rect id="l" width="285" height="39.789" x="1068" y="207" fill="#3D176E" rx="2.5" ry="2.5" style="stroke:#000d19;stroke-width:1.5"/><circle cx="1083" cy="226.894" r="11" fill="#E98DF7" style="stroke:#000d19;stroke-width:1"/><path d="M1085.969 232.535q-.578.297-1.219.438-.64.156-1.344.156-2.5 0-3.828-1.64-1.312-1.657-1.312-4.782t1.312-4.781q1.328-1.656 3.828-1.656.703 0 1.344.156.656.156 1.219.453v2.719q-.625-.579-1.219-.844-.594-.281-1.219-.281-1.343 0-2.031 1.078-.688 1.062-.688 3.156 0 2.094.688 3.172.688 1.062 2.031 1.062.625 0 1.219-.265.594-.281 1.219-.86v2.72Z"/><text x="1102" y="232.78" fill="#D9B8FF" font-family="Helvetica" font-size="17" textLength="243">aws_api_gateway_authorizer</text></a><path fill="none" d="M353.69 247.36c14.06 15.84 33.99 38.3 48.96 55.16" style="stroke:#1a83af;stroke-width:2"/><path fill="#1A83AF" d="m406.35 306.68-2.972-9.39-.343 5.647-5.646-.343 8.961 4.086z" style="stroke:#1a83af;stroke-width:2"/><path fill="none" d="M1263.46 47.36c-10.67 15.84-25.79 38.3-37.15 55.16" style="stroke:#1a83af;stroke-width:2"/><path fill="#1A83AF" d="m1223.51 106.68 8.345-5.23-5.552 1.083-1.083-5.552-1.71 9.699z" style="stroke:#1a83af;stroke-width:2"/><path fill="none" d="M1339.12 47.07c122.67 37.37 393.66 119.92 520.03 158.42" style="stroke:#1a83af;stroke-width:2"/><path fill="#1A83AF" d="m1863.96 206.95-7.445-6.448 2.662 4.992-4.992 2.661 9.775-1.205z" style="stroke:#1a83af;stroke-width:2"/><path fill="none" d="M1345.04 43.04c160.48 35.23 560.7 123.09 741.84 162.85" style="stroke:#1a83af;stroke-width:2"/><path fill="#1A83AF" d="m2091.91 206.99-7.934-5.835 3.05 4.764-4.764 3.05 9.648-1.979z" style="stroke:#1a83af;stroke-width:2"/><path fill="none" d="M1207.95 38.97C1037.15 66.41 578.88 140.53 197.5 207c-4.09.71-8.28 1.45-12.5 2.2" style="stroke:#1a83af;stroke-width:2"/><path fill="#1A83AF" d="m180.02 210.08 9.559 2.372-4.635-3.243 3.242-4.635-8.166 5.506z" style="stroke:#1a83af;stroke-width:2"/><path fill="none" d="M1131.86 136.09C998.73 149.9 720.47 179.22 485.5 207c-7.26.86-14.72 1.76-22.24 2.68" style="stroke:#1a83af;stroke-width:2"/><path fill="#1A83AF" d="m458.05 210.31 9.415 2.89-4.451-3.49 3.49-4.453-8.454 5.053z" style="stroke:#1a83af;stroke-width:2"/><path fill="none" d="M1289.25 143.31c89.62 17.43 235.9 45.87 331.37 64.44" style="stroke:#1a83af;stroke-width:2"/><path fill="#1A83AF" d="m1625.7 208.73-8.07-5.647 3.162 4.691-4.69 3.162 9.598-2.206z" style="stroke:#1a83af;stroke-width:2"/><path fill="none" d="M1289.15 136.95c116.36 13.52 341.12 40.7 531.35 70.05 3.96.61 8.01 1.25 12.09 1.92" style="stroke:#1a83af;stroke-width:2"/><path fill="#1A83AF" d="m1837.77 209.77-8.245-5.387 3.31 4.588-4.589 3.31 9.524-2.511z" style="stroke:#1a83af;stroke-width:2"/><path fill="none" d="M1264.62 147.01c47.5 16.68 116.44 40.9 165.45 58.12" style="stroke:#1a83af;stroke-width:2"/><path fill="#1A83AF" d="m1435.05 206.87-7.164-6.758 2.447 5.1-5.1 2.447 9.817-.789z" style="stroke:#1a83af;stroke-width:2"/><path fill="none" d="M1131.99 142.35c-91.94 16.81-244.78 44.76-348.25 63.68" style="stroke:#1a83af;stroke-width:2"/><path fill="#1A83AF" d="m778.54 206.98 9.573 2.313-4.655-3.214 3.214-4.655-8.132 5.556z" style="stroke:#1a83af;stroke-width:2"/><path fill="none" d="M1131.9 131.08c-152.69 7.01-483.37 27.43-585.4 75.92-45.85 21.79-85.29 67.5-106.45 95.5" style="stroke:#1a83af;stroke-width:2"/><path fill="#1A83AF" d="m436.81 306.83 8.58-4.834-5.596.822-.822-5.597-2.162 9.609z" style="stroke:#1a83af;stroke-width:2"/><path fill="none" d="M1289.08 134.67c146.4 12.62 470.79 41.5 743.42 72.33 4.02.45 8.1.93 12.21 1.41" style="stroke:#1a83af;stroke-width:2"/><path fill="#1A83AF" d="m2049.95 209.03-8.47-5.026 3.504 4.441-4.44 3.505 9.406-2.92z" style="stroke:#1a83af;stroke-width:2"/><path fill="none" d="M1131.73 131.38C960.95 139.31 544.08 161.95 197.5 207c-3.97.52-8.01 1.08-12.09 1.68" style="stroke:#1a83af;stroke-width:2"/><path fill="#1A83AF" d="m180.22 209.47 9.494 2.618-4.55-3.361 3.362-4.55-8.306 5.293z" style="stroke:#1a83af;stroke-width:2"/><path fill="none" d="M1210.5 147.36v54.3" style="stroke:#1a83af;stroke-width:2"/><path fill="#1A83AF" d="m1210.5 206.68 4-9-4 4-4-4 4 9z" style="stroke:#1a83af;stroke-width:2"/><path fill="none" d="M1155.41 147.01c-48.45 16.72-118.81 41-168.72 58.22" style="stroke:#1a83af;stroke-width:2"/><path fill="#1A83AF" d="m981.93 206.87 9.812.851-5.084-2.48 2.479-5.084-7.207 6.713z" style="stroke:#1a83af;stroke-width:2"/></svg>