<svg xmlns="http://www.w3.org/2000/svg" xmlns:xlink="http://www.w3.org/1999/xlink" width="2986" height="152" preserveAspectRatio="none" style="width:2986px;height:152px;background:#00000000"><a xlink:actuate="onRequest" xlink:href="#a" xlink:show="new" xlink:title="#aws_lambda_function" xlink:type="simple" target="_top"><rect id="a" width="224" height="39.789" x="7" y="107" fill="#3D176E" rx="2.5" ry="2.5" style="stroke:#000d19;stroke-width:1.5"/><circle cx="22" cy="126.894" r="11" fill="#E98DF7" style="stroke:#000d19;stroke-width:1"/><path d="M24.969 132.535q-.578.297-1.219.438-.64.156-1.344.156-2.5 0-3.828-1.64-1.312-1.657-1.312-4.782t1.312-4.781q1.328-1.657 3.828-1.657.703 0 1.344.157.656.156 1.219.453v2.719q-.625-.579-1.219-.844-.594-.281-1.219-.281-1.343 0-2.031 1.078-.688 1.062-.688 3.156 0 2.094.688 3.172.688 1.062 2.031 1.062.625 0 1.219-.265.594-.281 1.219-.86v2.72Z"/><text x="41" y="132.78" fill="#D9B8FF" font-family="Helvetica" font-size="17" textLength="182">aws_lambda_function</text></a><a xlink:actuate="onRequest" xlink:href="#b" xlink:show="new" xlink:title="#aws_s3_bucket" xlink:type="simple" target="_top"><rect id="b" width="168" height="39.789" x="266" y="107" fill="#3D176E" rx="2.5" ry="2.5" style="stroke:#000d19;stroke-width:1.5"/><circle cx="281" cy="126.894" r="11" fill="#E98DF7" style="stroke:#000d19;stroke-width:1"/><path d="M283.969 132.535q-.578.297-1.219.438-.64.156-1.344.156-2.5 0-3.828-1.64-1.312-1.657-1.312-4.782t1.312-4.781q1.328-1.657 3.828-1.657.703 0 1.344.157.656.156 1.219.453v2.719q-.625-.579-1.219-.844-.594-.281-1.219-.281-1.344 0-2.031 1.078-.688 1.062-.688 3.156 0 2.094.688 3.172.688 1.062 2.031 1.062.625 0 1.219-.265.594-.281 1.219-.86v2.72Z"/><text x="300" y="132.78" fill="#D9B8FF" font-family="Helvetica" font-size="17" textLength="126">aws_s3_bucket</text></a><a xlink:actuate="onRequest" xlink:href="#c" xlink:show="new" xlink:title="#aws_iam_server_certificate" xlink:type="simple" target="_top"><rect id="c" width="269" height="39.789" x="469.5" y="107" fill="#3D176E" rx="2.5" ry="2.5" style="stroke:#000d19;stroke-width:1.5"/><circle cx="484.5" cy="126.894" r="11" fill="#E98DF7" style="stroke:#000d19;stroke-width:1"/><path d="M487.469 132.535q-.578.297-1.219.438-.64.156-1.344.156-2.5 0-3.828-1.64-1.312-1.657-1.312-4.782t1.312-4.781q1.328-1.657 3.828-1.657.703 0 1.344.157.656.156 1.219.453v2.719q-.625-.579-1.219-.844-.594-.281-1.219-.281-1.344 0-2.031 1.078-.688 1.062-.688 3.156 0 2.094.688 3.172.688 1.062 2.031 1.062.625 0 1.219-.265.594-.281 1.219-.86v2.72Z"/><text x="503.5" y="132.78" fill="#D9B8FF" font-family="Helvetica" font-size="17" textLength="227">aws_iam_server_certificate</text></a><a xlink:actuate="onRequest" xlink:href="#d" xlink:show="new" xlink:title="#aws_cloudfront_field_level_encryption_config" xlink:type="simple" target="_top"><rect id="d" width="420" height="39.789" x="774" y="107" fill="#3D176E" rx="2.5" ry="2.5" style="stroke:#000d19;stroke-width:1.5"/><circle cx="789" cy="126.894" r="11" fill="#E98DF7" style="stroke:#000d19;stroke-width:1"/><path d="M791.969 132.535q-.578.297-1.219.438-.64.156-1.344.156-2.5 0-3.828-1.64-1.312-1.657-1.312-4.782t1.312-4.781q1.328-1.657 3.828-1.657.703 0 1.344.157.656.156 1.219.453v2.719q-.625-.579-1.219-.844-.594-.281-1.219-.281-1.343 0-2.031 1.078-.688 1.062-.688 3.156 0 2.094.688 3.172.688 1.062 2.031 1.062.625 0 1.219-.265.594-.281 1.219-.86v2.72Z"/><text x="808" y="132.78" fill="#D9B8FF" font-family="Helvetica" font-size="17" textLength="378">aws_cloudfront_field_level_encryption_config</text></a><a xlink:actuate="onRequest" xlink:href="#e" xlink:show="new" xlink:title="#aws_cloudfront_distribution" xlink:type="simple" target="_top"><rect id="e" width="274" height="39.789" x="1216" y="7" fill="#3D176E" rx="2.5" ry="2.5" style="stroke:#000d19;stroke-width:1.5"/><circle cx="1231" cy="26.895" r="11" fill="#E98DF7" style="stroke:#000d19;stroke-width:1"/><path d="M1233.969 32.535q-.578.297-1.219.438-.64.156-1.344.156-2.5 0-3.828-1.64-1.312-1.657-1.312-4.782t1.312-4.781q1.328-1.656 3.828-1.656.703 0 1.344.156.656.156 1.219.453v2.719q-.625-.578-1.219-.844-.594-.281-1.219-.281-1.343 0-2.031 1.078-.688 1.062-.688 3.156 0 2.094.688 3.172.688 1.062 2.031 1.062.625 0 1.219-.265.594-.281 1.219-.86v2.72Z"/><text x="1250" y="32.78" fill="#D9B8FF" font-family="Helvetica" font-size="17" textLength="232">aws_cloudfront_distribution</text></a><a xlink:actuate="onRequest" xlink:href="#f" xlink:show="new" xlink:title="#aws_cloudfront_function" xlink:type="simple" target="_top"><rect id="f" width="247" height="39.789" x="1229.5" y="107" fill="#3D176E" rx="2.5" ry="2.5" style="stroke:#000d19;stroke-width:1.5"/><circle cx="1244.5" cy="126.894" r="11" fill="#E98DF7" style="stroke:#000d19;stroke-width:1"/><path d="M1247.469 132.535q-.578.297-1.219.438-.64.156-1.344.156-2.5 0-3.828-1.64-1.312-1.657-1.312-4.782t1.312-4.781q1.328-1.657 3.828-1.657.703 0 1.344.157.656.156 1.219.453v2.719q-.625-.579-1.219-.844-.594-.281-1.219-.281-1.343 0-2.031 1.078-.688 1.062-.688 3.156 0 2.094.688 3.172.688 1.062 2.031 1.062.625 0 1.219-.265.594-.281 1.219-.86v2.72Z"/><text x="1263.5" y="132.78" fill="#D9B8FF" font-family="Helvetica" font-size="17" textLength="205">aws_cloudfront_function</text></a><a xlink:actuate="onRequest" xlink:href="#g" xlink:show="new" xlink:title="#aws_cloudfront_response_headers_policy" xlink:type="simple" target="_top"><rect id="g" width="384" height="39.789" x="1512" y="107" fill="#3D176E" rx="2.5" ry="2.5" style="stroke:#000d19;stroke-width:1.5"/><circle cx="1527" cy="126.894" r="11" fill="#E98DF7" style="stroke:#000d19;stroke-width:1"/><path d="M1529.969 132.535q-.578.297-1.219.438-.64.156-1.344.156-2.5 0-3.828-1.64-1.312-1.657-1.312-4.782t1.312-4.781q1.328-1.657 3.828-1.657.703 0 1.344.157.656.156 1.219.453v2.719q-.625-.579-1.219-.844-.594-.281-1.219-.281-1.343 0-2.031 1.078-.688 1.062-.688 3.156 0 2.094.688 3.172.688 1.062 2.031 1.062.625 0 1.219-.265.594-.281 1.219-.86v2.72Z"/><text x="1546" y="132.78" fill="#D9B8FF" font-family="Helvetica" font-size="17" textLength="342">aws_cloudfront_response_headers_policy</text></a><a xlink:actuate="onRequest" xlink:href="#h" xlink:show="new" xlink:title="#aws_cloudfront_origin_access_control" xlink:type="simple" target="_top"><rect id="h" width="354" height="39.789" x="1931" y="107" fill="#3D176E" rx="2.5" ry="2.5" style="stroke:#000d19;stroke-width:1.5"/><circle cx="1946" cy="126.894" r="11" fill="#E98DF7" style="stroke:#000d19;stroke-width:1"/><path d="M1948.969 132.535q-.578.297-1.219.438-.64.156-1.344.156-2.5 0-3.828-1.64-1.312-1.657-1.312-4.782t1.312-4.781q1.328-1.657 3.828-1.657.703 0 1.344.157.656.156 1.219.453v2.719q-.625-.579-1.219-.844-.594-.281-1.219-.281-1.343 0-2.031 1.078-.688 1.062-.688 3.156 0 2.094.688 3.172.688 1.062 2.031 1.062.625 0 1.219-.265.594-.281 1.219-.86v2.72Z"/><text x="1965" y="132.78" fill="#D9B8FF" font-family="Helvetica" font-size="17" textLength="312">aws_cloudfront_origin_access_control</text></a><a xlink:actuate="onRequest" xlink:href="#i" xlink:show="new" xlink:title="#aws_cloudfront_cache_policy" xlink:type="simple" target="_top"><rect id="i" width="282" height="39.789" x="2320" y="107" fill="#3D176E" rx="2.5" ry="2.5" style="stroke:#000d19;stroke-width:1.5"/><circle cx="2335" cy="126.894" r="11" fill="#E98DF7" style="stroke:#000d19;stroke-width:1"/><path d="M2337.969 132.535q-.578.297-1.219.438-.64.156-1.344.156-2.5 0-3.828-1.64-1.312-1.657-1.312-4.782t1.312-4.781q1.328-1.657 3.828-1.657.703 0 1.344.157.656.156 1.219.453v2.719q-.625-.579-1.219-.844-.594-.281-1.219-.281-1.343 0-2.031 1.078-.688 1.062-.688 3.156 0 2.094.688 3.172.688 1.062 2.031 1.062.625 0 1.219-.265.594-.281 1.219-.86v2.72Z"/><text x="2354" y="132.78" fill="#D9B8FF" font-family="Helvetica" font-size="17" textLength="240">aws_cloudfront_cache_policy</text></a><a xlink:actuate="onRequest" xlink:href="#j" xlink:show="new" xlink:title="#aws_cloudfront_realtime_log_config" xlink:type="simple" target="_top"><rect id="j" width="342" height="39.789" x="2637" y="107" fill="#3D176E" rx="2.5" ry="2.5" style="stroke:#000d19;stroke-width:1.5"/><circle cx="2652" cy="126.894" r="11" fill="#E98DF7" style="stroke:#000d19;stroke-width:1"/><path d="M2654.969 132.535q-.578.297-1.219.438-.64.156-1.344.156-2.5 0-3.828-1.64-1.312-1.657-1.312-4.782t1.312-4.781q1.328-1.657 3.828-1.657.703 0 1.344.157.656.156 1.219.453v2.719q-.625-.579-1.219-.844-.594-.281-1.219-.281-1.343 0-2.031 1.078-.688 1.062-.688 3.156 0 2.094.688 3.172.688 1.062 2.031 1.062.625 0 1.219-.265.594-.281 1.219-.86v2.72Z"/><text x="2671" y="132.78" fill="#D9B8FF" font-family="Helvetica" font-size="17" textLength="300">aws_cloudfront_realtime_log_config</text></a><path fill="none" d="M1353 47.36v54.3" style="stroke:#1a83af;stroke-width:2"/><path fill="#1A83AF" d="m1353 106.68 4-9-4 4-4-4 4 9z" style="stroke:#1a83af;stroke-width:2"/><path fill="none" d="M1215.75 34.5C1006.54 45.16 595.49 69.04 248 107c-3.88.42-7.82.88-11.79 1.35" style="stroke:#1a83af;stroke-width:2"/><path fill="#1A83AF" d="m231.16 108.97 9.415 2.89-4.451-3.49 3.49-4.453-8.454 5.053z" style="stroke:#1a83af;stroke-width:2"/><path fill="none" d="M1215.93 35.88C1038.91 47.01 721.54 70.17 452 107c-4.17.57-8.43 1.19-12.72 1.86" style="stroke:#1a83af;stroke-width:2"/><path fill="#1A83AF" d="m434.22 109.65 9.51 2.56-4.57-3.333 3.333-4.57-8.273 5.343z" style="stroke:#1a83af;stroke-width:2"/><path fill="none" d="M1215.62 45.97c-134.05 17.54-336.97 44.09-471.84 61.74" style="stroke:#1a83af;stroke-width:2"/><path fill="#1A83AF" d="m738.62 108.39 9.44 2.81-4.481-3.453 3.452-4.481-8.411 5.124z" style="stroke:#1a83af;stroke-width:2"/><path fill="none" d="M1281.42 47.01c-63.43 16.85-155.78 41.37-220.7 58.62" style="stroke:#1a83af;stroke-width:2"/><path fill="#1A83AF" d="m1055.7 106.96 9.725 1.557-4.892-2.84 2.84-4.893-7.673 6.176z" style="stroke:#1a83af;stroke-width:2"/><path fill="none" d="M1421.09 47.01c60.21 16.81 147.82 41.27 209.56 58.51" style="stroke:#1a83af;stroke-width:2"/><path fill="#1A83AF" d="m1635.8 106.96-7.594-6.271 2.778 4.928-4.928 2.778 9.744-1.435z" style="stroke:#1a83af;stroke-width:2"/><path fill="none" d="M1490.16 45.8c131.59 17.08 329.87 42.82 466.12 60.51" style="stroke:#1a83af;stroke-width:2"/><path fill="#1A83AF" d="m1961.51 106.99-8.41-5.124 3.452 4.481-4.482 3.452 9.44-2.809z" style="stroke:#1a83af;stroke-width:2"/><path fill="none" d="M1490.01 37.81C1674.79 51.4 2014.04 77.62 2303 107c3.87.39 7.78.8 11.73 1.22" style="stroke:#1a83af;stroke-width:2"/><path fill="#1A83AF" d="m2319.76 108.75-8.527-4.93 3.555 4.401-4.4 3.555 9.372-3.026z" style="stroke:#1a83af;stroke-width:2"/><path fill="none" d="M1490.46 34.84C1723.17 46.8 2209.51 73.47 2620 107c3.91.32 7.86.65 11.85.99" style="stroke:#1a83af;stroke-width:2"/><path fill="#1A83AF" d="m2636.91 108.43-8.624-4.756 3.642 4.328-4.327 3.642 9.309-3.214z" style="stroke:#1a83af;stroke-width:2"/></svg>