<svg xmlns="http://www.w3.org/2000/svg" xmlns:xlink="http://www.w3.org/1999/xlink" width="583" height="452" preserveAspectRatio="none" style="width:583px;height:452px;background:#00000000"><a xlink:actuate="onRequest" xlink:href="#a" xlink:show="new" xlink:title="#aws_vpc" xlink:type="simple" target="_top"><rect id="a" width="112" height="39.789" x="7" y="107" fill="#3D176E" rx="2.5" ry="2.5" style="stroke:#000d19;stroke-width:1.5"/><circle cx="22" cy="126.894" r="11" fill="#E98DF7" style="stroke:#000d19;stroke-width:1"/><path d="M24.969 132.535q-.578.297-1.219.438-.64.156-1.344.156-2.5 0-3.828-1.64-1.312-1.657-1.312-4.782t1.312-4.781q1.328-1.657 3.828-1.657.703 0 1.344.157.656.156 1.219.453v2.719q-.625-.579-1.219-.844-.594-.281-1.219-.281-1.343 0-2.031 1.078-.688 1.062-.688 3.156 0 2.094.688 3.172.688 1.062 2.031 1.062.625 0 1.219-.265.594-.281 1.219-.86v2.72Z"/><text x="41" y="132.78" fill="#D9B8FF" font-family="Helvetica" font-size="17" textLength="70">aws_vpc</text></a><a xlink:actuate="onRequest" xlink:href="#b" xlink:show="new" xlink:title="#aws_ecs_service" xlink:type="simple" target="_top"><rect id="b" width="177" height="39.789" x="323.5" y="207" fill="#3D176E" rx="2.5" ry="2.5" style="stroke:#000d19;stroke-width:1.5"/><circle cx="338.5" cy="226.894" r="11" fill="#E98DF7" style="stroke:#000d19;stroke-width:1"/><path d="M341.469 232.535q-.578.297-1.219.438-.64.156-1.344.156-2.5 0-3.828-1.64-1.312-1.657-1.312-4.782t1.312-4.781q1.328-1.656 3.828-1.656.703 0 1.344.156.656.156 1.219.453v2.719q-.625-.579-1.219-.844-.594-.281-1.219-.281-1.344 0-2.031 1.078-.688 1.062-.688 3.156 0 2.094.688 3.172.688 1.062 2.031 1.062.625 0 1.219-.265.594-.281 1.219-.86v2.72Z"/><text x="357.5" y="232.78" fill="#D9B8FF" font-family="Helvetica" font-size="17" textLength="135">aws_ecs_service</text></a><a xlink:actuate="onRequest" xlink:href="#c" xlink:show="new" xlink:title="#aws_alb_target_group" xlink:type="simple" target="_top"><rect id="c" width="226" height="39.789" x="103" y="307" fill="#3D176E" rx="2.5" ry="2.5" style="stroke:#000d19;stroke-width:1.5"/><circle cx="118" cy="326.894" r="11" fill="#E98DF7" style="stroke:#000d19;stroke-width:1"/><path d="M120.969 332.535q-.578.297-1.219.438-.64.156-1.344.156-2.5 0-3.828-1.64-1.312-1.657-1.312-4.782t1.312-4.781q1.328-1.656 3.828-1.656.703 0 1.344.156.656.156 1.219.453v2.719q-.625-.579-1.219-.844-.594-.281-1.219-.281-1.344 0-2.031 1.078-.688 1.062-.688 3.156 0 2.094.688 3.172.688 1.062 2.031 1.062.625 0 1.219-.265.594-.281 1.219-.86v2.72Z"/><text x="137" y="332.78" fill="#D9B8FF" font-family="Helvetica" font-size="17" textLength="184">aws_alb_target_group</text></a><a xlink:actuate="onRequest" xlink:href="#d" xlink:show="new" xlink:title="#aws_ec2_instance" xlink:type="simple" target="_top"><rect id="d" width="192" height="39.789" x="120" y="407" fill="#3D176E" rx="2.5" ry="2.5" style="stroke:#000d19;stroke-width:1.5"/><circle cx="135" cy="426.894" r="11" fill="#E98DF7" style="stroke:#000d19;stroke-width:1"/><path d="M137.969 432.535q-.578.297-1.219.438-.64.156-1.344.156-2.5 0-3.828-1.64-1.312-1.657-1.312-4.782t1.312-4.781q1.328-1.656 3.828-1.656.703 0 1.344.156.656.156 1.219.453v2.719q-.625-.579-1.219-.844-.594-.281-1.219-.281-1.344 0-2.031 1.078-.688 1.062-.688 3.156 0 2.094.688 3.172.688 1.062 2.031 1.062.625 0 1.219-.265.594-.281 1.219-.86v2.72Z"/><text x="154" y="432.78" fill="#D9B8FF" font-family="Helvetica" font-size="17" textLength="150">aws_ec2_instance</text></a><a xlink:actuate="onRequest" xlink:href="#e" xlink:show="new" xlink:title="#aws_alb" xlink:type="simple" target="_top"><rect id="e" width="109" height="39.789" x="107.5" y="207" fill="#3D176E" rx="2.5" ry="2.5" style="stroke:#000d19;stroke-width:1.5"/><circle cx="122.5" cy="226.894" r="11" fill="#E98DF7" style="stroke:#000d19;stroke-width:1"/><path d="M125.469 232.535q-.578.297-1.219.438-.64.156-1.344.156-2.5 0-3.828-1.64-1.312-1.657-1.312-4.782t1.312-4.781q1.328-1.656 3.828-1.656.703 0 1.344.156.656.156 1.219.453v2.719q-.625-.579-1.219-.844-.594-.281-1.219-.281-1.344 0-2.031 1.078-.688 1.062-.688 3.156 0 2.094.688 3.172.688 1.062 2.031 1.062.625 0 1.219-.265.594-.281 1.219-.86v2.72Z"/><text x="141.5" y="232.78" fill="#D9B8FF" font-family="Helvetica" font-size="17" textLength="67">aws_alb</text></a><a xlink:actuate="onRequest" xlink:href="#f" xlink:show="new" xlink:title="#aws_region" xlink:type="simple" target="_top"><rect id="f" width="137" height="39.789" x="156.5" y="7" fill="#3D176E" rx="2.5" ry="2.5" style="stroke:#000d19;stroke-width:1.5"/><circle cx="171.5" cy="26.895" r="11" fill="#E98DF7" style="stroke:#000d19;stroke-width:1"/><path d="M174.469 32.535q-.578.297-1.219.438-.64.156-1.344.156-2.5 0-3.828-1.64-1.312-1.657-1.312-4.782t1.312-4.781q1.328-1.656 3.828-1.656.703 0 1.344.156.656.156 1.219.453v2.719q-.625-.578-1.219-.844-.594-.281-1.219-.281-1.344 0-2.031 1.078-.688 1.062-.688 3.156 0 2.094.688 3.172.688 1.062 2.031 1.062.625 0 1.219-.265.594-.281 1.219-.86v2.72Z"/><text x="190.5" y="32.78" fill="#D9B8FF" font-family="Helvetica" font-size="17" textLength="95">aws_region</text></a><path fill="none" d="M59.18 147.1C52.12 187.95 41.49 285.11 85 347c18.27 25.98 48.05 44.93 74.61 57.74" style="stroke:#1a83af;stroke-width:2"/><path fill="#1A83AF" d="m164.18 406.9-6.415-7.473 1.898 5.329-5.329 1.898 9.846.246z" style="stroke:#1a83af;stroke-width:2"/><path fill="none" d="M62.96 147.12c.85 25.14 5.59 69.64 27.04 99.88 18.07 25.48 47.2 44.52 72.9 57.51" style="stroke:#1a83af;stroke-width:2"/><path fill="#1A83AF" d="m167.65 306.87-6.3-7.57 1.817 5.357-5.358 1.816 9.841.397z" style="stroke:#1a83af;stroke-width:2"/><path fill="none" d="m82.56 147.36 56.15 55.59" style="stroke:#1a83af;stroke-width:2"/><path fill="#1A83AF" d="m142.48 206.68-3.573-9.178.023 5.657-5.657.023 9.207 3.498z" style="stroke:#1a83af;stroke-width:2"/><path fill="none" d="M373.74 247.13c-33.05 16.52-80.76 40.38-115.05 57.52" style="stroke:#1a83af;stroke-width:2"/><path fill="#1A83AF" d="m254.16 306.92 9.84-.435-5.365-1.795 1.796-5.365-6.271 7.595z" style="stroke:#1a83af;stroke-width:2"/><path fill="none" d="M216 347.36v54.3" style="stroke:#1a83af;stroke-width:2"/><path fill="#1A83AF" d="m216 406.68 4-9-4 4-4-4 4 9z" style="stroke:#1a83af;stroke-width:2"/><path fill="none" d="M172.67 247.36c8.65 15.71 20.89 37.92 30.15 54.73" style="stroke:#1a83af;stroke-width:2"/><path fill="#1A83AF" d="m205.35 306.68-.85-9.812-1.567 5.435-5.436-1.567 7.853 5.944z" style="stroke:#1a83af;stroke-width:2"/><path fill="none" d="M193.38 47.13c-27.1 16.39-66.11 39.99-94.4 57.1" style="stroke:#1a83af;stroke-width:2"/><path fill="#1A83AF" d="m94.54 106.92 9.772-1.224-5.49-1.359 1.358-5.491-5.64 8.074z" style="stroke:#1a83af;stroke-width:2"/><path fill="none" d="M227.74 47.11C232.78 85.25 242.27 173.45 234 247c-2.09 18.59-6.87 39.18-10.97 54.68" style="stroke:#1a83af;stroke-width:2"/><path fill="#1A83AF" d="m221.67 306.73 6.202-7.65-4.902 2.822-2.823-4.902 1.523 9.73z" style="stroke:#1a83af;stroke-width:2"/><path fill="none" d="M293.53 45.64C397.25 76.01 576.16 144.92 518 247c-48.32 84.81-154.38 133.56-227.02 158.18" style="stroke:#1a83af;stroke-width:2"/><path fill="#1A83AF" d="m285.8 406.91 9.805.93-5.065-2.52 2.521-5.064-7.261 6.654z" style="stroke:#1a83af;stroke-width:2"/><path fill="none" d="M218.84 47.35c-11.55 36.32-36.47 114.62-49.12 154.4" style="stroke:#1a83af;stroke-width:2"/><path fill="#1A83AF" d="m168.09 206.87 6.541-7.363-5.024 2.599-2.599-5.025 1.082 9.789z" style="stroke:#1a83af;stroke-width:2"/></svg>