<svg xmlns="http://www.w3.org/2000/svg" xmlns:xlink="http://www.w3.org/1999/xlink" width="1036" height="1276" preserveAspectRatio="none" style="width:1036px;height:1276px;background:#00000000"><a xlink:actuate="onRequest" xlink:href="#a" xlink:show="new" xlink:title="#resource" xlink:type="simple" target="_top"><rect id="a" width="195" height="275.836" x="436" y="7" fill="#3D176E" rx="2.5" ry="2.5" style="stroke:#000d19;stroke-width:1.5"/><circle cx="488.75" cy="26.895" r="11" fill="#E98DF7" style="stroke:#000d19;stroke-width:1"/><path d="M491.719 32.535q-.578.297-1.219.438-.64.156-1.344.156-2.5 0-3.828-1.64-1.312-1.657-1.312-4.782t1.312-4.781q1.328-1.656 3.828-1.656.703 0 1.344.156.656.156 1.219.453v2.719q-.625-.578-1.219-.844-.594-.281-1.219-.281-1.344 0-2.031 1.078-.688 1.062-.688 3.156 0 2.094.688 3.172.688 1.062 2.031 1.062.625 0 1.219-.265.594-.281 1.219-.86v2.72Z"/><text x="514.25" y="32.78" fill="#D9B8FF" font-family="Helvetica" font-size="17" textLength="71">resource</text><path d="M437 46.789h193" style="stroke:#000d19;stroke-width:1.5"/><text x="447" y="65.999" fill="#D9B8FF" font-family="sans-serif" font-size="11" font-weight="bold" textLength="12">id</text><text x="459" y="65.999" fill="#D9B8FF" font-family="sans-serif" font-size="11" textLength="41">: string</text><text x="447" y="88.804" fill="#D9B8FF" font-family="sans-serif" font-size="11" font-weight="bold" textLength="28">tags</text><text x="475" y="88.804" fill="#D9B8FF" font-family="sans-serif" font-size="11" textLength="145">: dictionary[string, string]</text><text x="447" y="111.609" fill="#D9B8FF" font-family="sans-serif" font-size="11" font-weight="bold" textLength="35">name</text><text x="482" y="111.609" fill="#D9B8FF" font-family="sans-serif" font-size="11" textLength="41">: string</text><text x="447" y="134.414" fill="#D9B8FF" font-family="sans-serif" font-size="11" font-weight="bold" textLength="35">ctime</text><text x="482" y="134.414" fill="#D9B8FF" font-family="sans-serif" font-size="11" textLength="58">: datetime</text><text x="447" y="157.218" fill="#D9B8FF" font-family="sans-serif" font-size="11" font-weight="bold" textLength="24">age</text><text x="471" y="157.218" fill="#D9B8FF" font-family="sans-serif" font-size="11" textLength="55">: duration</text><text x="447" y="180.023" fill="#D9B8FF" font-family="sans-serif" font-size="11" font-weight="bold" textLength="39">mtime</text><text x="486" y="180.023" fill="#D9B8FF" font-family="sans-serif" font-size="11" textLength="58">: datetime</text><text x="447" y="202.828" fill="#D9B8FF" font-family="sans-serif" font-size="11" font-weight="bold" textLength="75">last_update</text><text x="522" y="202.828" fill="#D9B8FF" font-family="sans-serif" font-size="11" textLength="55">: duration</text><text x="447" y="225.632" fill="#D9B8FF" font-family="sans-serif" font-size="11" font-weight="bold" textLength="36">atime</text><text x="483" y="225.632" fill="#D9B8FF" font-family="sans-serif" font-size="11" textLength="58">: datetime</text><text x="447" y="248.437" fill="#D9B8FF" font-family="sans-serif" font-size="11" font-weight="bold" textLength="74">last_access</text><text x="521" y="248.437" fill="#D9B8FF" font-family="sans-serif" font-size="11" textLength="55">: duration</text><text x="447" y="271.242" fill="#D9B8FF" font-family="sans-serif" font-size="11" font-weight="bold" textLength="27">kind</text><text x="474" y="271.242" fill="#D9B8FF" font-family="sans-serif" font-size="11" textLength="41">: string</text></a><a xlink:actuate="onRequest" xlink:href="#b" xlink:show="new" xlink:title="#aws_resource" xlink:type="simple" target="_top"><rect id="b" width="155" height="70.594" x="359" y="404" fill="#3D176E" rx="2.5" ry="2.5" style="stroke:#000d19;stroke-width:1.5"/><circle cx="374" cy="423.894" r="11" fill="#E98DF7" style="stroke:#000d19;stroke-width:1"/><path d="M376.969 429.535q-.578.297-1.219.438-.64.156-1.344.156-2.5 0-3.828-1.64-1.312-1.657-1.312-4.782t1.312-4.781q1.328-1.656 3.828-1.656.703 0 1.344.156.656.156 1.219.453v2.719q-.625-.579-1.219-.844-.594-.281-1.219-.281-1.344 0-2.031 1.078-.688 1.062-.688 3.156 0 2.094.688 3.172.688 1.062 2.031 1.062.625 0 1.219-.265.594-.281 1.219-.86v2.72Z"/><text x="393" y="429.78" fill="#D9B8FF" font-family="Helvetica" font-size="17" textLength="113">aws_resource</text><path d="M360 443.789h153" style="stroke:#000d19;stroke-width:1.5"/><text x="370" y="463" fill="#D9B8FF" font-family="sans-serif" font-size="11" font-weight="bold" textLength="21">arn</text><text x="391" y="463" fill="#D9B8FF" font-family="sans-serif" font-size="11" textLength="41">: string</text></a><a xlink:actuate="onRequest" xlink:href="#c" xlink:show="new" xlink:title="#aws_ec2_ipv6_range" xlink:type="simple" target="_top"><rect id="c" width="215" height="93.398" x="7" y="1119" fill="#3D176E" rx="2.5" ry="2.5" style="stroke:#000d19;stroke-width:1.5"/><circle cx="22" cy="1138.895" r="11" fill="#E98DF7" style="stroke:#000d19;stroke-width:1"/><path d="M24.969 1144.535q-.578.297-1.219.438-.64.156-1.344.156-2.5 0-3.828-1.64-1.312-1.657-1.312-4.782t1.312-4.781q1.328-1.656 3.828-1.656.703 0 1.344.156.656.156 1.219.453v2.719q-.625-.578-1.219-.844-.594-.281-1.219-.281-1.343 0-2.031 1.078-.688 1.062-.688 3.156 0 2.094.688 3.172.688 1.062 2.031 1.062.625 0 1.219-.265.594-.281 1.219-.86v2.72Z"/><text x="41" y="1144.78" fill="#D9B8FF" font-family="Helvetica" font-size="17" textLength="173">aws_ec2_ipv6_range</text><path d="M8 1158.789h213" style="stroke:#000d19;stroke-width:1.5"/><text x="18" y="1177.999" fill="#D9B8FF" font-family="sans-serif" font-size="11" font-weight="bold" textLength="57">cidr_ipv6</text><text x="75" y="1177.999" fill="#D9B8FF" font-family="sans-serif" font-size="11" textLength="41">: string</text><text x="18" y="1200.804" fill="#D9B8FF" font-family="sans-serif" font-size="11" font-weight="bold" textLength="72">description</text><text x="90" y="1200.804" fill="#D9B8FF" font-family="sans-serif" font-size="11" textLength="41">: string</text></a><a xlink:actuate="onRequest" xlink:href="#d" xlink:show="new" xlink:title="#aws_ec2_security_group" xlink:type="simple" target="_top"><rect id="d" width="360" height="139.008" x="353.5" y="596" fill="#3D176E" rx="2.5" ry="2.5" style="stroke:#000d19;stroke-width:1.5"/><circle cx="422.75" cy="615.894" r="11" fill="#E98DF7" style="stroke:#000d19;stroke-width:1"/><path d="M425.719 621.535q-.578.297-1.219.438-.64.156-1.344.156-2.5 0-3.828-1.64-1.312-1.657-1.312-4.782t1.312-4.781q1.328-1.657 3.828-1.657.703 0 1.344.157.656.156 1.219.453v2.719q-.625-.578-1.219-.844-.594-.281-1.219-.281-1.344 0-2.031 1.078-.688 1.062-.688 3.156 0 2.094.688 3.172.688 1.062 2.031 1.062.625 0 1.219-.265.594-.282 1.219-.86v2.72Z"/><text x="448.25" y="621.78" fill="#D9B8FF" font-family="Helvetica" font-size="17" textLength="203">aws_ec2_security_group</text><path d="M354.5 635.789h358" style="stroke:#000d19;stroke-width:1.5"/><text x="364.5" y="655" fill="#D9B8FF" font-family="sans-serif" font-size="11" font-weight="bold" textLength="21">arn</text><text x="385.5" y="655" fill="#D9B8FF" font-family="sans-serif" font-size="11" textLength="41">: string</text><text x="364.5" y="677.804" fill="#D9B8FF" font-family="sans-serif" font-size="11" font-weight="bold" textLength="72">description</text><text x="436.5" y="677.804" fill="#D9B8FF" font-family="sans-serif" font-size="11" textLength="41">: string</text><text x="364.5" y="700.609" fill="#D9B8FF" font-family="sans-serif" font-size="11" font-weight="bold" textLength="138">group_ip_permissions</text><text x="502.5" y="700.609" fill="#D9B8FF" font-family="sans-serif" font-size="11" textLength="151">: aws_ec2_ip_permission[]</text><text x="364.5" y="723.414" fill="#D9B8FF" font-family="sans-serif" font-size="11" font-weight="bold" textLength="187">group_ip_permissions_egress</text><text x="551.5" y="723.414" fill="#D9B8FF" font-family="sans-serif" font-size="11" textLength="151">: aws_ec2_ip_permission[]</text></a><a xlink:actuate="onRequest" xlink:href="#e" xlink:show="new" xlink:title="#aws_ec2_user_id_group_pair" xlink:type="simple" target="_top"><rect id="e" width="280" height="207.422" x="257.5" y="1062" fill="#3D176E" rx="2.5" ry="2.5" style="stroke:#000d19;stroke-width:1.5"/><circle cx="272.5" cy="1081.895" r="11" fill="#E98DF7" style="stroke:#000d19;stroke-width:1"/><path d="M275.469 1087.535q-.578.297-1.219.438-.64.156-1.344.156-2.5 0-3.828-1.64-1.312-1.657-1.312-4.782t1.312-4.781q1.328-1.656 3.828-1.656.703 0 1.344.156.656.156 1.219.453v2.719q-.625-.578-1.219-.844-.594-.281-1.219-.281-1.344 0-2.031 1.078-.688 1.062-.688 3.156 0 2.094.688 3.172.688 1.062 2.031 1.062.625 0 1.219-.265.594-.281 1.219-.86v2.72Z"/><text x="291.5" y="1087.78" fill="#D9B8FF" font-family="Helvetica" font-size="17" textLength="238">aws_ec2_user_id_group_pair</text><path d="M258.5 1101.789h278" style="stroke:#000d19;stroke-width:1.5"/><text x="268.5" y="1120.999" fill="#D9B8FF" font-family="sans-serif" font-size="11" font-weight="bold" textLength="72">description</text><text x="340.5" y="1120.999" fill="#D9B8FF" font-family="sans-serif" font-size="11" textLength="41">: string</text><text x="268.5" y="1143.804" fill="#D9B8FF" font-family="sans-serif" font-size="11" font-weight="bold" textLength="55">group_id</text><text x="323.5" y="1143.804" fill="#D9B8FF" font-family="sans-serif" font-size="11" textLength="41">: string</text><text x="268.5" y="1166.609" fill="#D9B8FF" font-family="sans-serif" font-size="11" font-weight="bold" textLength="78">group_name</text><text x="346.5" y="1166.609" fill="#D9B8FF" font-family="sans-serif" font-size="11" textLength="41">: string</text><text x="268.5" y="1189.414" fill="#D9B8FF" font-family="sans-serif" font-size="11" font-weight="bold" textLength="95">peering_status</text><text x="363.5" y="1189.414" fill="#D9B8FF" font-family="sans-serif" font-size="11" textLength="41">: string</text><text x="268.5" y="1212.218" fill="#D9B8FF" font-family="sans-serif" font-size="11" font-weight="bold" textLength="46">user_id</text><text x="314.5" y="1212.218" fill="#D9B8FF" font-family="sans-serif" font-size="11" textLength="41">: string</text><text x="268.5" y="1235.023" fill="#D9B8FF" font-family="sans-serif" font-size="11" font-weight="bold" textLength="40">vpc_id</text><text x="308.5" y="1235.023" fill="#D9B8FF" font-family="sans-serif" font-size="11" textLength="41">: string</text><text x="268.5" y="1257.828" fill="#D9B8FF" font-family="sans-serif" font-size="11" font-weight="bold" textLength="172">vpc_peering_connection_id</text><text x="440.5" y="1257.828" fill="#D9B8FF" font-family="sans-serif" font-size="11" textLength="41">: string</text></a><a xlink:actuate="onRequest" xlink:href="#f" xlink:show="new" xlink:title="#aws_ec2_ip_permission" xlink:type="simple" target="_top"><rect id="f" width="329" height="207.422" x="369" y="795" fill="#3D176E" rx="2.5" ry="2.5" style="stroke:#000d19;stroke-width:1.5"/><circle cx="426.75" cy="814.894" r="11" fill="#E98DF7" style="stroke:#000d19;stroke-width:1"/><path d="M429.719 820.535q-.578.297-1.219.438-.64.156-1.344.156-2.5 0-3.828-1.64-1.312-1.657-1.312-4.782t1.312-4.781q1.328-1.657 3.828-1.657.703 0 1.344.157.656.156 1.219.453v2.719q-.625-.578-1.219-.844-.594-.281-1.219-.281-1.344 0-2.031 1.078-.688 1.062-.688 3.156 0 2.094.688 3.172.688 1.062 2.031 1.062.625 0 1.219-.265.594-.282 1.219-.86v2.72Z"/><text x="452.25" y="820.78" fill="#D9B8FF" font-family="Helvetica" font-size="17" textLength="195">aws_ec2_ip_permission</text><path d="M370 834.789h327" style="stroke:#000d19;stroke-width:1.5"/><text x="380" y="854" fill="#D9B8FF" font-family="sans-serif" font-size="11" font-weight="bold" textLength="61">from_port</text><text x="441" y="854" fill="#D9B8FF" font-family="sans-serif" font-size="11" textLength="36">: int64</text><text x="380" y="876.804" fill="#D9B8FF" font-family="sans-serif" font-size="11" font-weight="bold" textLength="71">ip_protocol</text><text x="451" y="876.804" fill="#D9B8FF" font-family="sans-serif" font-size="11" textLength="41">: string</text><text x="380" y="899.609" fill="#D9B8FF" font-family="sans-serif" font-size="11" font-weight="bold" textLength="62">ip_ranges</text><text x="442" y="899.609" fill="#D9B8FF" font-family="sans-serif" font-size="11" textLength="120">: aws_ec2_ip_range[]</text><text x="380" y="922.414" fill="#D9B8FF" font-family="sans-serif" font-size="11" font-weight="bold" textLength="77">ipv6_ranges</text><text x="457" y="922.414" fill="#D9B8FF" font-family="sans-serif" font-size="11" textLength="133">: aws_ec2_ipv6_range[]</text><text x="380" y="945.218" fill="#D9B8FF" font-family="sans-serif" font-size="11" font-weight="bold" textLength="88">prefix_list_ids</text><text x="468" y="945.218" fill="#D9B8FF" font-family="sans-serif" font-size="11" textLength="142">: aws_ec2_prefix_list_id[]</text><text x="380" y="968.023" fill="#D9B8FF" font-family="sans-serif" font-size="11" font-weight="bold" textLength="45">to_port</text><text x="425" y="968.023" fill="#D9B8FF" font-family="sans-serif" font-size="11" textLength="36">: int64</text><text x="380" y="990.828" fill="#D9B8FF" font-family="sans-serif" font-size="11" font-weight="bold" textLength="127">user_id_group_pairs</text><text x="507" y="990.828" fill="#D9B8FF" font-family="sans-serif" font-size="11" textLength="180">: aws_ec2_user_id_group_pair[]</text></a><a xlink:actuate="onRequest" xlink:href="#g" xlink:show="new" xlink:title="#aws_ec2_ip_range" xlink:type="simple" target="_top"><rect id="g" width="194" height="93.398" x="572.5" y="1119" fill="#3D176E" rx="2.5" ry="2.5" style="stroke:#000d19;stroke-width:1.5"/><circle cx="587.5" cy="1138.895" r="11" fill="#E98DF7" style="stroke:#000d19;stroke-width:1"/><path d="M590.469 1144.535q-.578.297-1.219.438-.64.156-1.344.156-2.5 0-3.828-1.64-1.312-1.657-1.312-4.782t1.312-4.781q1.328-1.656 3.828-1.656.703 0 1.344.156.656.156 1.219.453v2.719q-.625-.578-1.219-.844-.594-.281-1.219-.281-1.343 0-2.031 1.078-.688 1.062-.688 3.156 0 2.094.688 3.172.688 1.062 2.031 1.062.625 0 1.219-.265.594-.281 1.219-.86v2.72Z"/><text x="606.5" y="1144.78" fill="#D9B8FF" font-family="Helvetica" font-size="17" textLength="152">aws_ec2_ip_range</text><path d="M573.5 1158.789h192" style="stroke:#000d19;stroke-width:1.5"/><text x="583.5" y="1177.999" fill="#D9B8FF" font-family="sans-serif" font-size="11" font-weight="bold" textLength="42">cidr_ip</text><text x="625.5" y="1177.999" fill="#D9B8FF" font-family="sans-serif" font-size="11" textLength="41">: string</text><text x="583.5" y="1200.804" fill="#D9B8FF" font-family="sans-serif" font-size="11" font-weight="bold" textLength="72">description</text><text x="655.5" y="1200.804" fill="#D9B8FF" font-family="sans-serif" font-size="11" textLength="41">: string</text></a><a xlink:actuate="onRequest" xlink:href="#h" xlink:show="new" xlink:title="#aws_ec2_prefix_list_id" xlink:type="simple" target="_top"><rect id="h" width="228" height="93.398" x="801.5" y="1119" fill="#3D176E" rx="2.5" ry="2.5" style="stroke:#000d19;stroke-width:1.5"/><circle cx="816.5" cy="1138.895" r="11" fill="#E98DF7" style="stroke:#000d19;stroke-width:1"/><path d="M819.469 1144.535q-.578.297-1.219.438-.64.156-1.344.156-2.5 0-3.828-1.64-1.312-1.657-1.312-4.782t1.312-4.781q1.328-1.656 3.828-1.656.703 0 1.344.156.656.156 1.219.453v2.719q-.625-.578-1.219-.844-.594-.281-1.219-.281-1.343 0-2.031 1.078-.688 1.062-.688 3.156 0 2.094.688 3.172.688 1.062 2.031 1.062.625 0 1.219-.265.594-.281 1.219-.86v2.72Z"/><text x="835.5" y="1144.78" fill="#D9B8FF" font-family="Helvetica" font-size="17" textLength="186">aws_ec2_prefix_list_id</text><path d="M802.5 1158.789h226" style="stroke:#000d19;stroke-width:1.5"/><text x="812.5" y="1177.999" fill="#D9B8FF" font-family="sans-serif" font-size="11" font-weight="bold" textLength="72">description</text><text x="884.5" y="1177.999" fill="#D9B8FF" font-family="sans-serif" font-size="11" textLength="41">: string</text><text x="812.5" y="1200.804" fill="#D9B8FF" font-family="sans-serif" font-size="11" font-weight="bold" textLength="81">prefix_list_id</text><text x="893.5" y="1200.804" fill="#D9B8FF" font-family="sans-serif" font-size="11" textLength="41">: string</text></a><a xlink:actuate="onRequest" xlink:href="#i" xlink:show="new" xlink:title="#security_group" xlink:type="simple" target="_top"><rect id="i" width="165" height="39.789" x="549" y="419.5" fill="#3D176E" rx="2.5" ry="2.5" style="stroke:#000d19;stroke-width:1.5"/><circle cx="564" cy="439.394" r="11" fill="#E98DF7" style="stroke:#000d19;stroke-width:1"/><path d="M566.969 445.035q-.578.297-1.219.438-.64.156-1.344.156-2.5 0-3.828-1.64-1.312-1.657-1.312-4.782t1.312-4.781q1.328-1.656 3.828-1.656.703 0 1.344.156.656.156 1.219.453v2.719q-.625-.579-1.219-.844-.594-.281-1.219-.281-1.343 0-2.031 1.078-.688 1.062-.688 3.156 0 2.094.688 3.172.688 1.062 2.031 1.062.625 0 1.219-.265.594-.281 1.219-.86v2.72Z"/><text x="583" y="445.28" fill="#D9B8FF" font-family="Helvetica" font-size="17" textLength="123">security_group</text></a><path fill="none" d="M481.64 302.39c-12.7 38.29-25.09 75.65-33.67 101.51m27.07-103.86 12.94-16.78.35 21.18-13.29-4.4zm-15.49 193.7c13.21 30.49 29.93 69.1 44.12 101.88m-50.7-99.48-1.53-21.13 14.37 15.57-12.84 5.56zm161.99-17.82c-14.04 32.08-34.54 78.92-51.45 117.6m45.21-120.8 14.42-15.52-1.6 21.13-12.82-5.61zM533.5 735.18v54.47" style="stroke:#ffaf37;stroke-width:2"/><path fill="#FFAF37" d="m533.5 794.87 4-9-4 4-4-4 4 9z" style="stroke:#ffaf37;stroke-width:2"/><path fill="none" d="M586.28 1002.34c19.71 38.41 41.22 80.32 57.43 111.92" style="stroke:#ffaf37;stroke-width:2"/><path fill="#FFAF37" d="m646.07 1118.84-.56-9.833-1.727 5.387-5.387-1.727 7.674 6.173z" style="stroke:#ffaf37;stroke-width:2"/><path fill="none" d="M368.98 983.55c-43.07 23.85-88.81 50.87-129.48 78.45-23.83 16.16-48.65 35.84-69.82 53.61" style="stroke:#ffaf37;stroke-width:2"/><path fill="#FFAF37" d="m165.77 1118.91 9.465-2.723-5.636-.492.492-5.635-4.321 8.85z" style="stroke:#ffaf37;stroke-width:2"/><path fill="none" d="M696.61 1002.08c29.56 19.45 59.88 39.96 87.89 59.92 23.69 16.88 49.02 36.35 71.03 53.75" style="stroke:#ffaf37;stroke-width:2"/><path fill="#FFAF37" d="m859.6 1118.98-4.572-8.723.652 5.619-5.619.652 9.539 2.452z" style="stroke:#ffaf37;stroke-width:2"/><path fill="none" d="M480.72 1002.34c-9.22 17.97-18.84 36.71-28.12 54.8" style="stroke:#ffaf37;stroke-width:2"/><path fill="#FFAF37" d="m450.25 1061.72 7.65-6.203-5.38 1.748-1.747-5.38-.523 9.835z" style="stroke:#ffaf37;stroke-width:2"/><path fill="none" d="M585.86 302.27c15.67 46.79 30.89 92.2 39.19 116.97m-45.85-114.8.29-21.18L592.48 300l-13.28 4.44z" style="stroke:#ffaf37;stroke-width:2"/></svg>