<svg xmlns="http://www.w3.org/2000/svg" xmlns:xlink="http://www.w3.org/1999/xlink" width="651" height="452" preserveAspectRatio="none" style="width:651px;height:452px;background:#00000000"><a xlink:actuate="onRequest" xlink:href="#a" xlink:show="new" xlink:title="#aws_ec2_instance" xlink:type="simple" target="_top"><rect id="a" width="192" height="39.789" x="7" y="107" fill="#3D176E" rx="2.5" ry="2.5" style="stroke:#000d19;stroke-width:1.5"/><circle cx="22" cy="126.894" r="11" fill="#E98DF7" style="stroke:#000d19;stroke-width:1"/><path d="M24.969 132.535q-.578.297-1.219.438-.64.156-1.344.156-2.5 0-3.828-1.64-1.312-1.657-1.312-4.782t1.312-4.781q1.328-1.657 3.828-1.657.703 0 1.344.157.656.156 1.219.453v2.719q-.625-.579-1.219-.844-.594-.281-1.219-.281-1.343 0-2.031 1.078-.688 1.062-.688 3.156 0 2.094.688 3.172.688 1.062 2.031 1.062.625 0 1.219-.265.594-.281 1.219-.86v2.72Z"/><text x="41" y="132.78" fill="#D9B8FF" font-family="Helvetica" font-size="17" textLength="150">aws_ec2_instance</text></a><a xlink:actuate="onRequest" xlink:href="#b" xlink:show="new" xlink:title="#aws_ec2_snapshot" xlink:type="simple" target="_top"><rect id="b" width="197" height="39.789" x="447.5" y="307" fill="#3D176E" rx="2.5" ry="2.5" style="stroke:#000d19;stroke-width:1.5"/><circle cx="462.5" cy="326.894" r="11" fill="#E98DF7" style="stroke:#000d19;stroke-width:1"/><path d="M465.469 332.535q-.578.297-1.219.438-.64.156-1.344.156-2.5 0-3.828-1.64-1.312-1.657-1.312-4.782t1.312-4.781q1.328-1.656 3.828-1.656.703 0 1.344.156.656.156 1.219.453v2.719q-.625-.579-1.219-.844-.594-.281-1.219-.281-1.344 0-2.031 1.078-.688 1.062-.688 3.156 0 2.094.688 3.172.688 1.062 2.031 1.062.625 0 1.219-.265.594-.281 1.219-.86v2.72Z"/><text x="481.5" y="332.78" fill="#D9B8FF" font-family="Helvetica" font-size="17" textLength="155">aws_ec2_snapshot</text></a><a xlink:actuate="onRequest" xlink:href="#c" xlink:show="new" xlink:title="#aws_kms_key" xlink:type="simple" target="_top"><rect id="c" width="158" height="39.789" x="391" y="407" fill="#3D176E" rx="2.5" ry="2.5" style="stroke:#000d19;stroke-width:1.5"/><circle cx="406" cy="426.894" r="11" fill="#E98DF7" style="stroke:#000d19;stroke-width:1"/><path d="M408.969 432.535q-.578.297-1.219.438-.64.156-1.344.156-2.5 0-3.828-1.64-1.312-1.657-1.312-4.782t1.312-4.781q1.328-1.656 3.828-1.656.703 0 1.344.156.656.156 1.219.453v2.719q-.625-.579-1.219-.844-.594-.281-1.219-.281-1.344 0-2.031 1.078-.688 1.062-.688 3.156 0 2.094.688 3.172.688 1.062 2.031 1.062.625 0 1.219-.265.594-.281 1.219-.86v2.72Z"/><text x="425" y="432.78" fill="#D9B8FF" font-family="Helvetica" font-size="17" textLength="116">aws_kms_key</text></a><a xlink:actuate="onRequest" xlink:href="#d" xlink:show="new" xlink:title="#aws_region" xlink:type="simple" target="_top"><rect id="d" width="137" height="39.789" x="365.5" y="7" fill="#3D176E" rx="2.5" ry="2.5" style="stroke:#000d19;stroke-width:1.5"/><circle cx="380.5" cy="26.895" r="11" fill="#E98DF7" style="stroke:#000d19;stroke-width:1"/><path d="M383.469 32.535q-.578.297-1.219.438-.64.156-1.344.156-2.5 0-3.828-1.64-1.312-1.657-1.312-4.782t1.312-4.781q1.328-1.656 3.828-1.656.703 0 1.344.156.656.156 1.219.453v2.719q-.625-.578-1.219-.844-.594-.281-1.219-.281-1.344 0-2.031 1.078-.688 1.062-.688 3.156 0 2.094.688 3.172.688 1.062 2.031 1.062.625 0 1.219-.265.594-.281 1.219-.86v2.72Z"/><text x="399.5" y="32.78" fill="#D9B8FF" font-family="Helvetica" font-size="17" textLength="95">aws_region</text></a><a xlink:actuate="onRequest" xlink:href="#e" xlink:show="new" xlink:title="#aws_ec2_volume_type" xlink:type="simple" target="_top"><rect id="e" width="231" height="39.789" x="234.5" y="107" fill="#3D176E" rx="2.5" ry="2.5" style="stroke:#000d19;stroke-width:1.5"/><circle cx="249.5" cy="126.894" r="11" fill="#E98DF7" style="stroke:#000d19;stroke-width:1"/><path d="M252.469 132.535q-.578.297-1.219.438-.64.156-1.344.156-2.5 0-3.828-1.64-1.312-1.657-1.312-4.782t1.312-4.781q1.328-1.657 3.828-1.657.703 0 1.344.157.656.156 1.219.453v2.719q-.625-.579-1.219-.844-.594-.281-1.219-.281-1.344 0-2.031 1.078-.688 1.062-.688 3.156 0 2.094.688 3.172.688 1.062 2.031 1.062.625 0 1.219-.265.594-.281 1.219-.86v2.72Z"/><text x="268.5" y="132.78" fill="#D9B8FF" font-family="Helvetica" font-size="17" textLength="189">aws_ec2_volume_type</text></a><a xlink:actuate="onRequest" xlink:href="#f" xlink:show="new" xlink:title="#aws_ec2_volume" xlink:type="simple" target="_top"><rect id="f" width="185" height="39.789" x="301.5" y="207" fill="#3D176E" rx="2.5" ry="2.5" style="stroke:#000d19;stroke-width:1.5"/><circle cx="316.5" cy="226.894" r="11" fill="#E98DF7" style="stroke:#000d19;stroke-width:1"/><path d="M319.469 232.535q-.578.297-1.219.438-.64.156-1.344.156-2.5 0-3.828-1.64-1.312-1.657-1.312-4.782t1.312-4.781q1.328-1.656 3.828-1.656.703 0 1.344.156.656.156 1.219.453v2.719q-.625-.579-1.219-.844-.594-.281-1.219-.281-1.344 0-2.031 1.078-.688 1.062-.688 3.156 0 2.094.688 3.172.688 1.062 2.031 1.062.625 0 1.219-.265.594-.281 1.219-.86v2.72Z"/><text x="335.5" y="232.78" fill="#D9B8FF" font-family="Helvetica" font-size="17" textLength="143">aws_ec2_volume</text></a><path fill="none" d="M159.45 147.01c49.64 16.72 121.74 41 172.88 58.22" style="stroke:#1a83af;stroke-width:2"/><path fill="#1A83AF" d="m337.21 206.87-7.25-6.667 2.512 5.069-5.068 2.511 9.806-.913z" style="stroke:#1a83af;stroke-width:2"/><path fill="none" d="M530.98 347.36c-12.28 15.84-29.69 38.3-42.77 55.16" style="stroke:#1a83af;stroke-width:2"/><path fill="#1A83AF" d="m484.98 406.68 8.676-4.661-5.612.71-.71-5.613-2.354 9.564z" style="stroke:#1a83af;stroke-width:2"/><path fill="none" d="M460.06 47.12C477.67 61.53 499.86 82.9 512 107c32.61 64.76 35.64 152.84 34.96 194.82" style="stroke:#1a83af;stroke-width:2"/><path fill="#1A83AF" d="m546.85 306.95 4.18-8.918-4.08 3.919-3.92-4.08 3.82 9.079z" style="stroke:#1a83af;stroke-width:2"/><path fill="none" d="M417.4 47.36c-13.57 15.84-32.82 38.3-47.27 55.16" style="stroke:#1a83af;stroke-width:2"/><path fill="#1A83AF" d="m366.56 106.68 8.902-4.214-5.641.424-.423-5.641-2.838 9.431z" style="stroke:#1a83af;stroke-width:2"/><path fill="none" d="M451.8 47.12c19.74 23.64 46.86 65.03 31.2 99.88-10.63 23.65-32.23 43.1-51.49 56.78" style="stroke:#1a83af;stroke-width:2"/><path fill="#1A83AF" d="m427.19 206.79 9.675-1.841-5.566-1.008 1.008-5.566-5.117 8.415z" style="stroke:#1a83af;stroke-width:2"/><path fill="none" d="M369.79 47.01c-56.78 16.81-139.4 41.27-197.62 58.51" style="stroke:#1a83af;stroke-width:2"/><path fill="#1A83AF" d="m167.32 106.96 9.767 1.267-4.975-2.693 2.693-4.975-7.485 6.401z" style="stroke:#1a83af;stroke-width:2"/><path fill="none" d="M358.69 147.36c7.05 15.71 17.03 37.92 24.57 54.73" style="stroke:#1a83af;stroke-width:2"/><path fill="#1A83AF" d="m385.33 206.68-.031-9.849-2.014 5.287-5.287-2.014 7.332 6.576z" style="stroke:#1a83af;stroke-width:2"/><path fill="none" d="M398.73 247.31c6.09 23.84 17.54 65.43 31.27 99.69 7.67 19.14 18.28 39.91 26.65 55.35" style="stroke:#1a83af;stroke-width:2"/><path fill="#1A83AF" d="m459.17 406.96-.812-9.815-1.588 5.429-5.43-1.589 7.83 5.975z" style="stroke:#1a83af;stroke-width:2"/><path fill="none" d="M423.67 247.13c25.32 16.32 61.73 39.8 88.24 56.89" style="stroke:#1a83af;stroke-width:2"/><path fill="#1A83AF" d="m516.41 306.92-5.408-8.232 1.202 5.528-5.528 1.202 9.734 1.502z" style="stroke:#1a83af;stroke-width:2"/></svg>