<svg xmlns="http://www.w3.org/2000/svg" xmlns:xlink="http://www.w3.org/1999/xlink" width="1845" height="2786" preserveAspectRatio="none" style="width:1845px;height:2786px;background:#00000000"><a xlink:actuate="onRequest" xlink:href="#a" xlink:show="new" xlink:title="#resource" xlink:type="simple" target="_top"><rect id="a" width="195" height="275.836" x="899" y="7" fill="#3D176E" rx="2.5" ry="2.5" style="stroke:#000d19;stroke-width:1.5"/><circle cx="951.75" cy="26.895" r="11" fill="#E98DF7" style="stroke:#000d19;stroke-width:1"/><path d="M954.719 32.535q-.578.297-1.219.438-.64.156-1.344.156-2.5 0-3.828-1.64-1.312-1.657-1.312-4.782t1.312-4.781q1.328-1.656 3.828-1.656.703 0 1.344.156.656.156 1.219.453v2.719q-.625-.578-1.219-.844-.594-.281-1.219-.281-1.343 0-2.031 1.078-.688 1.062-.688 3.156 0 2.094.688 3.172.688 1.062 2.031 1.062.625 0 1.219-.265.594-.281 1.219-.86v2.72Z"/><text x="977.25" y="32.78" fill="#D9B8FF" font-family="Helvetica" font-size="17" textLength="71">resource</text><path d="M900 46.789h193" style="stroke:#000d19;stroke-width:1.5"/><text x="910" y="65.999" fill="#D9B8FF" font-family="sans-serif" font-size="11" font-weight="bold" textLength="12">id</text><text x="922" y="65.999" fill="#D9B8FF" font-family="sans-serif" font-size="11" textLength="41">: string</text><text x="910" y="88.804" fill="#D9B8FF" font-family="sans-serif" font-size="11" font-weight="bold" textLength="28">tags</text><text x="938" y="88.804" fill="#D9B8FF" font-family="sans-serif" font-size="11" textLength="145">: dictionary[string, string]</text><text x="910" y="111.609" fill="#D9B8FF" font-family="sans-serif" font-size="11" font-weight="bold" textLength="35">name</text><text x="945" y="111.609" fill="#D9B8FF" font-family="sans-serif" font-size="11" textLength="41">: string</text><text x="910" y="134.414" fill="#D9B8FF" font-family="sans-serif" font-size="11" font-weight="bold" textLength="35">ctime</text><text x="945" y="134.414" fill="#D9B8FF" font-family="sans-serif" font-size="11" textLength="58">: datetime</text><text x="910" y="157.218" fill="#D9B8FF" font-family="sans-serif" font-size="11" font-weight="bold" textLength="24">age</text><text x="934" y="157.218" fill="#D9B8FF" font-family="sans-serif" font-size="11" textLength="55">: duration</text><text x="910" y="180.023" fill="#D9B8FF" font-family="sans-serif" font-size="11" font-weight="bold" textLength="39">mtime</text><text x="949" y="180.023" fill="#D9B8FF" font-family="sans-serif" font-size="11" textLength="58">: datetime</text><text x="910" y="202.828" fill="#D9B8FF" font-family="sans-serif" font-size="11" font-weight="bold" textLength="75">last_update</text><text x="985" y="202.828" fill="#D9B8FF" font-family="sans-serif" font-size="11" textLength="55">: duration</text><text x="910" y="225.632" fill="#D9B8FF" font-family="sans-serif" font-size="11" font-weight="bold" textLength="36">atime</text><text x="946" y="225.632" fill="#D9B8FF" font-family="sans-serif" font-size="11" textLength="58">: datetime</text><text x="910" y="248.437" fill="#D9B8FF" font-family="sans-serif" font-size="11" font-weight="bold" textLength="74">last_access</text><text x="984" y="248.437" fill="#D9B8FF" font-family="sans-serif" font-size="11" textLength="55">: duration</text><text x="910" y="271.242" fill="#D9B8FF" font-family="sans-serif" font-size="11" font-weight="bold" textLength="27">kind</text><text x="937" y="271.242" fill="#D9B8FF" font-family="sans-serif" font-size="11" textLength="41">: string</text></a><a xlink:actuate="onRequest" xlink:href="#b" xlink:show="new" xlink:title="#aws_resource" xlink:type="simple" target="_top"><rect id="b" width="155" height="70.594" x="815" y="415" fill="#3D176E" rx="2.5" ry="2.5" style="stroke:#000d19;stroke-width:1.5"/><circle cx="830" cy="434.894" r="11" fill="#E98DF7" style="stroke:#000d19;stroke-width:1"/><path d="M832.969 440.535q-.578.297-1.219.438-.64.156-1.344.156-2.5 0-3.828-1.64-1.312-1.657-1.312-4.782t1.312-4.781q1.328-1.656 3.828-1.656.703 0 1.344.156.656.156 1.219.453v2.719q-.625-.579-1.219-.844-.594-.281-1.219-.281-1.343 0-2.031 1.078-.688 1.062-.688 3.156 0 2.094.688 3.172.688 1.062 2.031 1.062.625 0 1.219-.265.594-.281 1.219-.86v2.72Z"/><text x="849" y="440.78" fill="#D9B8FF" font-family="Helvetica" font-size="17" textLength="113">aws_resource</text><path d="M816 454.789h153" style="stroke:#000d19;stroke-width:1.5"/><text x="826" y="474" fill="#D9B8FF" font-family="sans-serif" font-size="11" font-weight="bold" textLength="21">arn</text><text x="847" y="474" fill="#D9B8FF" font-family="sans-serif" font-size="11" textLength="41">: string</text></a><a xlink:actuate="onRequest" xlink:href="#c" xlink:show="new" xlink:title="#aws_autoscaling_instances_distribution" xlink:type="simple" target="_top"><rect id="c" width="371" height="184.617" x="7" y="1541" fill="#3D176E" rx="2.5" ry="2.5" style="stroke:#000d19;stroke-width:1.5"/><circle cx="22" cy="1560.895" r="11" fill="#E98DF7" style="stroke:#000d19;stroke-width:1"/><path d="M24.969 1566.535q-.578.297-1.219.438-.64.156-1.344.156-2.5 0-3.828-1.64-1.312-1.657-1.312-4.782t1.312-4.781q1.328-1.656 3.828-1.656.703 0 1.344.156.656.156 1.219.453v2.719q-.625-.578-1.219-.844-.594-.281-1.219-.281-1.343 0-2.031 1.078-.688 1.062-.688 3.156 0 2.094.688 3.172.688 1.062 2.031 1.062.625 0 1.219-.265.594-.281 1.219-.86v2.72Z"/><text x="41" y="1566.78" fill="#D9B8FF" font-family="Helvetica" font-size="17" textLength="329">aws_autoscaling_instances_distribution</text><path d="M8 1580.789h369" style="stroke:#000d19;stroke-width:1.5"/><text x="18" y="1599.999" fill="#D9B8FF" font-family="sans-serif" font-size="11" font-weight="bold" textLength="202">on_demand_allocation_strategy</text><text x="220" y="1599.999" fill="#D9B8FF" font-family="sans-serif" font-size="11" textLength="41">: string</text><text x="18" y="1622.804" fill="#D9B8FF" font-family="sans-serif" font-size="11" font-weight="bold" textLength="170">on_demand_base_capacity</text><text x="188" y="1622.804" fill="#D9B8FF" font-family="sans-serif" font-size="11" textLength="36">: int64</text><text x="18" y="1645.609" fill="#D9B8FF" font-family="sans-serif" font-size="11" font-weight="bold" textLength="294">on_demand_percentage_above_base_capacity</text><text x="312" y="1645.609" fill="#D9B8FF" font-family="sans-serif" font-size="11" textLength="36">: int64</text><text x="18" y="1668.414" fill="#D9B8FF" font-family="sans-serif" font-size="11" font-weight="bold" textLength="157">spot_allocation_strategy</text><text x="175" y="1668.414" fill="#D9B8FF" font-family="sans-serif" font-size="11" textLength="41">: string</text><text x="18" y="1691.218" fill="#D9B8FF" font-family="sans-serif" font-size="11" font-weight="bold" textLength="130">spot_instance_pools</text><text x="148" y="1691.218" fill="#D9B8FF" font-family="sans-serif" font-size="11" textLength="36">: int64</text><text x="18" y="1714.023" fill="#D9B8FF" font-family="sans-serif" font-size="11" font-weight="bold" textLength="98">spot_max_price</text><text x="116" y="1714.023" fill="#D9B8FF" font-family="sans-serif" font-size="11" textLength="41">: string</text></a><a xlink:actuate="onRequest" xlink:href="#d" xlink:show="new" xlink:title="#aws_autoscaling_group" xlink:type="simple" target="_top"><rect id="d" width="514" height="640.711" x="739.5" y="618" fill="#3D176E" rx="2.5" ry="2.5" style="stroke:#000d19;stroke-width:1.5"/><circle cx="890.25" cy="637.894" r="11" fill="#E98DF7" style="stroke:#000d19;stroke-width:1"/><path d="M893.219 643.535q-.578.297-1.219.438-.64.156-1.344.156-2.5 0-3.828-1.64-1.312-1.657-1.312-4.782t1.312-4.781q1.328-1.657 3.828-1.657.703 0 1.344.157.656.156 1.219.453v2.719q-.625-.578-1.219-.844-.594-.281-1.219-.281-1.343 0-2.031 1.078-.688 1.062-.688 3.156 0 2.094.688 3.172.688 1.062 2.031 1.062.625 0 1.219-.265.594-.282 1.219-.86v2.72Z"/><text x="915.75" y="643.78" fill="#D9B8FF" font-family="Helvetica" font-size="17" textLength="194">aws_autoscaling_group</text><path d="M740.5 657.789h512" style="stroke:#000d19;stroke-width:1.5"/><text x="750.5" y="677" fill="#D9B8FF" font-family="sans-serif" font-size="11" font-weight="bold" textLength="257">autoscaling_launch_configuration_name</text><text x="1007.5" y="677" fill="#D9B8FF" font-family="sans-serif" font-size="11" textLength="41">: string</text><text x="750.5" y="699.804" fill="#D9B8FF" font-family="sans-serif" font-size="11" font-weight="bold" textLength="187">autoscaling_launch_template</text><text x="937.5" y="699.804" fill="#D9B8FF" font-family="sans-serif" font-size="11" textLength="278">: aws_autoscaling_launch_template_specification</text><text x="750.5" y="722.609" fill="#D9B8FF" font-family="sans-serif" font-size="11" font-weight="bold" textLength="231">autoscaling_mixed_instances_policy</text><text x="981.5" y="722.609" fill="#D9B8FF" font-family="sans-serif" font-size="11" textLength="241">: aws_autoscaling_mixed_instances_policy</text><text x="750.5" y="745.414" fill="#D9B8FF" font-family="sans-serif" font-size="11" font-weight="bold" textLength="202">autoscaling_predicted_capacity</text><text x="952.5" y="745.414" fill="#D9B8FF" font-family="sans-serif" font-size="11" textLength="36">: int64</text><text x="750.5" y="768.218" fill="#D9B8FF" font-family="sans-serif" font-size="11" font-weight="bold" textLength="195">autoscaling_default_cooldown</text><text x="945.5" y="768.218" fill="#D9B8FF" font-family="sans-serif" font-size="11" textLength="36">: int64</text><text x="750.5" y="791.023" fill="#D9B8FF" font-family="sans-serif" font-size="11" font-weight="bold" textLength="196">autoscaling_availability_zones</text><text x="946.5" y="791.023" fill="#D9B8FF" font-family="sans-serif" font-size="11" textLength="49">: string[]</text><text x="750.5" y="813.828" fill="#D9B8FF" font-family="sans-serif" font-size="11" font-weight="bold" textLength="219">autoscaling_load_balancer_names</text><text x="969.5" y="813.828" fill="#D9B8FF" font-family="sans-serif" font-size="11" textLength="49">: string[]</text><text x="750.5" y="836.632" fill="#D9B8FF" font-family="sans-serif" font-size="11" font-weight="bold" textLength="203">autoscaling_target_group_ar_ns</text><text x="953.5" y="836.632" fill="#D9B8FF" font-family="sans-serif" font-size="11" textLength="49">: string[]</text><text x="750.5" y="859.437" fill="#D9B8FF" font-family="sans-serif" font-size="11" font-weight="bold" textLength="199">autoscaling_health_check_type</text><text x="949.5" y="859.437" fill="#D9B8FF" font-family="sans-serif" font-size="11" textLength="41">: string</text><text x="750.5" y="882.242" fill="#D9B8FF" font-family="sans-serif" font-size="11" font-weight="bold" textLength="254">autoscaling_health_check_grace_period</text><text x="1004.5" y="882.242" fill="#D9B8FF" font-family="sans-serif" font-size="11" textLength="36">: int64</text><text x="750.5" y="905.046" fill="#D9B8FF" font-family="sans-serif" font-size="11" font-weight="bold" textLength="143">autoscaling_instances</text><text x="893.5" y="905.046" fill="#D9B8FF" font-family="sans-serif" font-size="11" textLength="164">: aws_autoscaling_instance[]</text><text x="750.5" y="927.851" fill="#D9B8FF" font-family="sans-serif" font-size="11" font-weight="bold" textLength="222">autoscaling_suspended_processes</text><text x="972.5" y="927.851" fill="#D9B8FF" font-family="sans-serif" font-size="11" textLength="231">: aws_autoscaling_suspended_process[]</text><text x="750.5" y="950.656" fill="#D9B8FF" font-family="sans-serif" font-size="11" font-weight="bold" textLength="191">autoscaling_placement_group</text><text x="941.5" y="950.656" fill="#D9B8FF" font-family="sans-serif" font-size="11" textLength="41">: string</text><text x="750.5" y="973.46" fill="#D9B8FF" font-family="sans-serif" font-size="11" font-weight="bold" textLength="205">autoscaling_vpc_zone_identifier</text><text x="955.5" y="973.46" fill="#D9B8FF" font-family="sans-serif" font-size="11" textLength="41">: string</text><text x="750.5" y="996.265" fill="#D9B8FF" font-family="sans-serif" font-size="11" font-weight="bold" textLength="186">autoscaling_enabled_metrics</text><text x="936.5" y="996.265" fill="#D9B8FF" font-family="sans-serif" font-size="11" textLength="203">: aws_autoscaling_enabled_metric[]</text><text x="750.5" y="1019.07" fill="#D9B8FF" font-family="sans-serif" font-size="11" font-weight="bold" textLength="121">autoscaling_status</text><text x="871.5" y="1019.07" fill="#D9B8FF" font-family="sans-serif" font-size="11" textLength="41">: string</text><text x="750.5" y="1041.874" fill="#D9B8FF" font-family="sans-serif" font-size="11" font-weight="bold" textLength="211">autoscaling_termination_policies</text><text x="961.5" y="1041.874" fill="#D9B8FF" font-family="sans-serif" font-size="11" textLength="49">: string[]</text><text x="750.5" y="1064.679" fill="#D9B8FF" font-family="sans-serif" font-size="11" font-weight="bold" textLength="337">autoscaling_new_instances_protected_from_scale_in</text><text x="1087.5" y="1064.679" fill="#D9B8FF" font-family="sans-serif" font-size="11" textLength="53">: boolean</text><text x="750.5" y="1087.484" fill="#D9B8FF" font-family="sans-serif" font-size="11" font-weight="bold" textLength="230">autoscaling_service_linked_role_arn</text><text x="980.5" y="1087.484" fill="#D9B8FF" font-family="sans-serif" font-size="11" textLength="41">: string</text><text x="750.5" y="1110.289" fill="#D9B8FF" font-family="sans-serif" font-size="11" font-weight="bold" textLength="223">autoscaling_max_instance_lifetime</text><text x="973.5" y="1110.289" fill="#D9B8FF" font-family="sans-serif" font-size="11" textLength="36">: int64</text><text x="750.5" y="1133.093" fill="#D9B8FF" font-family="sans-serif" font-size="11" font-weight="bold" textLength="205">autoscaling_capacity_rebalance</text><text x="955.5" y="1133.093" fill="#D9B8FF" font-family="sans-serif" font-size="11" textLength="53">: boolean</text><text x="750.5" y="1155.898" fill="#D9B8FF" font-family="sans-serif" font-size="11" font-weight="bold" textLength="242">autoscaling_warm_pool_configuration</text><text x="992.5" y="1155.898" fill="#D9B8FF" font-family="sans-serif" font-size="11" textLength="250">: aws_autoscaling_warm_pool_configuration</text><text x="750.5" y="1178.703" fill="#D9B8FF" font-family="sans-serif" font-size="11" font-weight="bold" textLength="182">autoscaling_warm_pool_size</text><text x="932.5" y="1178.703" fill="#D9B8FF" font-family="sans-serif" font-size="11" textLength="36">: int64</text><text x="750.5" y="1201.507" fill="#D9B8FF" font-family="sans-serif" font-size="11" font-weight="bold" textLength="129">autoscaling_context</text><text x="879.5" y="1201.507" fill="#D9B8FF" font-family="sans-serif" font-size="11" textLength="41">: string</text><text x="750.5" y="1224.312" fill="#D9B8FF" font-family="sans-serif" font-size="11" font-weight="bold" textLength="223">autoscaling_desired_capacity_type</text><text x="973.5" y="1224.312" fill="#D9B8FF" font-family="sans-serif" font-size="11" textLength="41">: string</text><text x="750.5" y="1247.117" fill="#D9B8FF" font-family="sans-serif" font-size="11" font-weight="bold" textLength="245">autoscaling_default_instance_warmup</text><text x="995.5" y="1247.117" fill="#D9B8FF" font-family="sans-serif" font-size="11" textLength="36">: int64</text></a><a xlink:actuate="onRequest" xlink:href="#e" xlink:show="new" xlink:title="#aws_autoscaling_suspended_process" xlink:type="simple" target="_top"><rect id="e" width="346" height="93.398" x="105.5" y="1353.5" fill="#3D176E" rx="2.5" ry="2.5" style="stroke:#000d19;stroke-width:1.5"/><circle cx="120.5" cy="1373.395" r="11" fill="#E98DF7" style="stroke:#000d19;stroke-width:1"/><path d="M123.469 1379.035q-.578.297-1.219.438-.64.156-1.344.156-2.5 0-3.828-1.64-1.312-1.657-1.312-4.782t1.312-4.781q1.328-1.656 3.828-1.656.703 0 1.344.156.656.156 1.219.453v2.719q-.625-.578-1.219-.844-.594-.281-1.219-.281-1.344 0-2.031 1.078-.688 1.062-.688 3.156 0 2.094.688 3.172.688 1.062 2.031 1.062.625 0 1.219-.265.594-.281 1.219-.86v2.72Z"/><text x="139.5" y="1379.28" fill="#D9B8FF" font-family="Helvetica" font-size="17" textLength="304">aws_autoscaling_suspended_process</text><path d="M106.5 1393.289h344" style="stroke:#000d19;stroke-width:1.5"/><text x="116.5" y="1412.499" fill="#D9B8FF" font-family="sans-serif" font-size="11" font-weight="bold" textLength="91">process_name</text><text x="207.5" y="1412.499" fill="#D9B8FF" font-family="sans-serif" font-size="11" textLength="41">: string</text><text x="116.5" y="1435.304" fill="#D9B8FF" font-family="sans-serif" font-size="11" font-weight="bold" textLength="123">suspension_reason</text><text x="239.5" y="1435.304" fill="#D9B8FF" font-family="sans-serif" font-size="11" textLength="41">: string</text></a><a xlink:actuate="onRequest" xlink:href="#f" xlink:show="new" xlink:title="#aws_autoscaling_mixed_instances_policy" xlink:type="simple" target="_top"><rect id="f" width="397" height="93.398" x="487" y="1353.5" fill="#3D176E" rx="2.5" ry="2.5" style="stroke:#000d19;stroke-width:1.5"/><circle cx="507.85" cy="1373.395" r="11" fill="#E98DF7" style="stroke:#000d19;stroke-width:1"/><path d="M510.819 1379.035q-.578.297-1.219.438-.64.156-1.344.156-2.5 0-3.828-1.64-1.312-1.657-1.312-4.782t1.312-4.781q1.328-1.656 3.828-1.656.703 0 1.344.156.656.156 1.219.453v2.719q-.625-.578-1.219-.844-.594-.281-1.219-.281-1.343 0-2.031 1.078-.688 1.062-.688 3.156 0 2.094.688 3.172.688 1.062 2.031 1.062.625 0 1.219-.265.594-.281 1.219-.86v2.72Z"/><text x="528.15" y="1379.28" fill="#D9B8FF" font-family="Helvetica" font-size="17" textLength="342">aws_autoscaling_mixed_instances_policy</text><path d="M488 1393.289h395" style="stroke:#000d19;stroke-width:1.5"/><text x="498" y="1412.499" fill="#D9B8FF" font-family="sans-serif" font-size="11" font-weight="bold" textLength="106">launch_template</text><text x="604" y="1412.499" fill="#D9B8FF" font-family="sans-serif" font-size="11" textLength="201">: aws_autoscaling_launch_template</text><text x="498" y="1435.304" fill="#D9B8FF" font-family="sans-serif" font-size="11" font-weight="bold" textLength="142">instances_distribution</text><text x="640" y="1435.304" fill="#D9B8FF" font-family="sans-serif" font-size="11" textLength="233">: aws_autoscaling_instances_distribution</text></a><a xlink:actuate="onRequest" xlink:href="#g" xlink:show="new" xlink:title="#aws_autoscaling_launch_template" xlink:type="simple" target="_top"><rect id="g" width="495" height="93.398" x="413" y="1587" fill="#3D176E" rx="2.5" ry="2.5" style="stroke:#000d19;stroke-width:1.5"/><circle cx="507.75" cy="1606.895" r="11" fill="#E98DF7" style="stroke:#000d19;stroke-width:1"/><path d="M510.719 1612.535q-.578.297-1.219.438-.64.156-1.344.156-2.5 0-3.828-1.64-1.312-1.657-1.312-4.782t1.312-4.781q1.328-1.656 3.828-1.656.703 0 1.344.156.656.156 1.219.453v2.719q-.625-.578-1.219-.844-.594-.281-1.219-.281-1.344 0-2.031 1.078-.688 1.062-.688 3.156 0 2.094.688 3.172.688 1.062 2.031 1.062.625 0 1.219-.265.594-.281 1.219-.86v2.72Z"/><text x="533.25" y="1612.78" fill="#D9B8FF" font-family="Helvetica" font-size="17" textLength="287">aws_autoscaling_launch_template</text><path d="M414 1626.789h493" style="stroke:#000d19;stroke-width:1.5"/><text x="424" y="1645.999" fill="#D9B8FF" font-family="sans-serif" font-size="11" font-weight="bold" textLength="195">launch_template_specification</text><text x="619" y="1645.999" fill="#D9B8FF" font-family="sans-serif" font-size="11" textLength="278">: aws_autoscaling_launch_template_specification</text><text x="424" y="1668.804" fill="#D9B8FF" font-family="sans-serif" font-size="11" font-weight="bold" textLength="60">overrides</text><text x="484" y="1668.804" fill="#D9B8FF" font-family="sans-serif" font-size="11" textLength="269">: aws_autoscaling_launch_template_overrides[]</text></a><a xlink:actuate="onRequest" xlink:href="#h" xlink:show="new" xlink:title="#aws_autoscaling_launch_template_specification" xlink:type="simple" target="_top"><rect id="h" width="441" height="116.203" x="741" y="2304.5" fill="#3D176E" rx="2.5" ry="2.5" style="stroke:#000d19;stroke-width:1.5"/><circle cx="756" cy="2324.394" r="11" fill="#E98DF7" style="stroke:#000d19;stroke-width:1"/><path d="M758.969 2330.035q-.578.297-1.219.438-.64.156-1.344.156-2.5 0-3.828-1.64-1.312-1.657-1.312-4.782t1.312-4.781q1.328-1.657 3.828-1.657.703 0 1.344.157.656.156 1.219.453v2.719q-.625-.579-1.219-.844-.594-.281-1.219-.281-1.343 0-2.031 1.078-.688 1.062-.688 3.156 0 2.094.688 3.172.688 1.062 2.031 1.062.625 0 1.219-.265.594-.282 1.219-.86v2.72Z"/><text x="775" y="2330.28" fill="#D9B8FF" font-family="Helvetica" font-size="17" textLength="399">aws_autoscaling_launch_template_specification</text><path d="M742 2344.289h439" style="stroke:#000d19;stroke-width:1.5"/><text x="752" y="2363.499" fill="#D9B8FF" font-family="sans-serif" font-size="11" font-weight="bold" textLength="124">launch_template_id</text><text x="876" y="2363.499" fill="#D9B8FF" font-family="sans-serif" font-size="11" textLength="41">: string</text><text x="752" y="2386.304" fill="#D9B8FF" font-family="sans-serif" font-size="11" font-weight="bold" textLength="147">launch_template_name</text><text x="899" y="2386.304" fill="#D9B8FF" font-family="sans-serif" font-size="11" textLength="41">: string</text><text x="752" y="2409.109" fill="#D9B8FF" font-family="sans-serif" font-size="11" font-weight="bold" textLength="47">version</text><text x="799" y="2409.109" fill="#D9B8FF" font-family="sans-serif" font-size="11" textLength="41">: string</text></a><a xlink:actuate="onRequest" xlink:href="#i" xlink:show="new" xlink:title="#aws_autoscaling_launch_template_overrides" xlink:type="simple" target="_top"><rect id="i" width="495" height="139.008" x="342" y="1843" fill="#3D176E" rx="2.5" ry="2.5" style="stroke:#000d19;stroke-width:1.5"/><circle cx="393.75" cy="1862.895" r="11" fill="#E98DF7" style="stroke:#000d19;stroke-width:1"/><path d="M396.719 1868.535q-.578.297-1.219.438-.64.156-1.344.156-2.5 0-3.828-1.64-1.312-1.657-1.312-4.782t1.312-4.781q1.328-1.656 3.828-1.656.703 0 1.344.156.656.156 1.219.453v2.719q-.625-.578-1.219-.844-.594-.281-1.219-.281-1.344 0-2.031 1.078-.688 1.062-.688 3.156 0 2.094.688 3.172.688 1.062 2.031 1.062.625 0 1.219-.265.594-.281 1.219-.86v2.72Z"/><text x="419.25" y="1868.78" fill="#D9B8FF" font-family="Helvetica" font-size="17" textLength="373">aws_autoscaling_launch_template_overrides</text><path d="M343 1882.789h493" style="stroke:#000d19;stroke-width:1.5"/><text x="353" y="1901.999" fill="#D9B8FF" font-family="sans-serif" font-size="11" font-weight="bold" textLength="89">instance_type</text><text x="442" y="1901.999" fill="#D9B8FF" font-family="sans-serif" font-size="11" textLength="41">: string</text><text x="353" y="1924.804" fill="#D9B8FF" font-family="sans-serif" font-size="11" font-weight="bold" textLength="120">weighted_capacity</text><text x="473" y="1924.804" fill="#D9B8FF" font-family="sans-serif" font-size="11" textLength="41">: string</text><text x="353" y="1947.609" fill="#D9B8FF" font-family="sans-serif" font-size="11" font-weight="bold" textLength="195">launch_template_specification</text><text x="548" y="1947.609" fill="#D9B8FF" font-family="sans-serif" font-size="11" textLength="278">: aws_autoscaling_launch_template_specification</text><text x="353" y="1970.414" fill="#D9B8FF" font-family="sans-serif" font-size="11" font-weight="bold" textLength="146">instance_requirements</text><text x="499" y="1970.414" fill="#D9B8FF" font-family="sans-serif" font-size="11" textLength="239">: aws_autoscaling_instance_requirements</text></a><a xlink:actuate="onRequest" xlink:href="#j" xlink:show="new" xlink:title="#aws_autoscaling_instance_requirements" xlink:type="simple" target="_top"><rect id="j" width="401" height="526.688" x="305" y="2099" fill="#3D176E" rx="2.5" ry="2.5" style="stroke:#000d19;stroke-width:1.5"/><circle cx="329.45" cy="2118.894" r="11" fill="#E98DF7" style="stroke:#000d19;stroke-width:1"/><path d="M332.419 2124.535q-.578.297-1.219.438-.64.156-1.344.156-2.5 0-3.828-1.64-1.312-1.657-1.312-4.782t1.312-4.781q1.328-1.657 3.828-1.657.703 0 1.344.157.656.156 1.219.453v2.719q-.625-.579-1.219-.844-.594-.281-1.219-.281-1.344 0-2.031 1.078-.688 1.062-.688 3.156 0 2.094.688 3.172.688 1.062 2.031 1.062.625 0 1.219-.265.594-.282 1.219-.86v2.72Z"/><text x="350.55" y="2124.78" fill="#D9B8FF" font-family="Helvetica" font-size="17" textLength="338">aws_autoscaling_instance_requirements</text><path d="M306 2138.789h399" style="stroke:#000d19;stroke-width:1.5"/><text x="316" y="2157.999" fill="#D9B8FF" font-family="sans-serif" font-size="11" font-weight="bold" textLength="78">v_cpu_count</text><text x="394" y="2157.999" fill="#D9B8FF" font-family="sans-serif" font-size="11" textLength="159">: aws_autoscaling_min_max</text><text x="316" y="2180.804" fill="#D9B8FF" font-family="sans-serif" font-size="11" font-weight="bold" textLength="85">memory_mi_b</text><text x="401" y="2180.804" fill="#D9B8FF" font-family="sans-serif" font-size="11" textLength="159">: aws_autoscaling_min_max</text><text x="316" y="2203.609" fill="#D9B8FF" font-family="sans-serif" font-size="11" font-weight="bold" textLength="122">cpu_manufacturers</text><text x="438" y="2203.609" fill="#D9B8FF" font-family="sans-serif" font-size="11" textLength="49">: string[]</text><text x="316" y="2226.414" fill="#D9B8FF" font-family="sans-serif" font-size="11" font-weight="bold" textLength="151">memory_gi_b_per_v_cpu</text><text x="467" y="2226.414" fill="#D9B8FF" font-family="sans-serif" font-size="11" textLength="159">: aws_autoscaling_min_max</text><text x="316" y="2249.218" fill="#D9B8FF" font-family="sans-serif" font-size="11" font-weight="bold" textLength="160">excluded_instance_types</text><text x="476" y="2249.218" fill="#D9B8FF" font-family="sans-serif" font-size="11" textLength="49">: string[]</text><text x="316" y="2272.023" fill="#D9B8FF" font-family="sans-serif" font-size="11" font-weight="bold" textLength="138">instance_generations</text><text x="454" y="2272.023" fill="#D9B8FF" font-family="sans-serif" font-size="11" textLength="49">: string[]</text><text x="316" y="2294.828" fill="#D9B8FF" font-family="sans-serif" font-size="11" font-weight="bold" textLength="298">spot_max_price_percentage_over_lowest_price</text><text x="614" y="2294.828" fill="#D9B8FF" font-family="sans-serif" font-size="11" textLength="36">: int64</text><text x="316" y="2317.632" fill="#D9B8FF" font-family="sans-serif" font-size="11" font-weight="bold" textLength="343">on_demand_max_price_percentage_over_lowest_price</text><text x="659" y="2317.632" fill="#D9B8FF" font-family="sans-serif" font-size="11" textLength="36">: int64</text><text x="316" y="2340.437" fill="#D9B8FF" font-family="sans-serif" font-size="11" font-weight="bold" textLength="71">bare_metal</text><text x="387" y="2340.437" fill="#D9B8FF" font-family="sans-serif" font-size="11" textLength="41">: string</text><text x="316" y="2363.242" fill="#D9B8FF" font-family="sans-serif" font-size="11" font-weight="bold" textLength="148">burstable_performance</text><text x="464" y="2363.242" fill="#D9B8FF" font-family="sans-serif" font-size="11" textLength="41">: string</text><text x="316" y="2386.046" fill="#D9B8FF" font-family="sans-serif" font-size="11" font-weight="bold" textLength="169">require_hibernate_support</text><text x="485" y="2386.046" fill="#D9B8FF" font-family="sans-serif" font-size="11" textLength="53">: boolean</text><text x="316" y="2408.851" fill="#D9B8FF" font-family="sans-serif" font-size="11" font-weight="bold" textLength="158">network_interface_count</text><text x="474" y="2408.851" fill="#D9B8FF" font-family="sans-serif" font-size="11" textLength="159">: aws_autoscaling_min_max</text><text x="316" y="2431.656" fill="#D9B8FF" font-family="sans-serif" font-size="11" font-weight="bold" textLength="86">local_storage</text><text x="402" y="2431.656" fill="#D9B8FF" font-family="sans-serif" font-size="11" textLength="41">: string</text><text x="316" y="2454.46" fill="#D9B8FF" font-family="sans-serif" font-size="11" font-weight="bold" textLength="127">local_storage_types</text><text x="443" y="2454.46" fill="#D9B8FF" font-family="sans-serif" font-size="11" textLength="49">: string[]</text><text x="316" y="2477.265" fill="#D9B8FF" font-family="sans-serif" font-size="11" font-weight="bold" textLength="144">total_local_storage_gb</text><text x="460" y="2477.265" fill="#D9B8FF" font-family="sans-serif" font-size="11" textLength="159">: aws_autoscaling_min_max</text><text x="316" y="2500.07" fill="#D9B8FF" font-family="sans-serif" font-size="11" font-weight="bold" textLength="198">baseline_ebs_bandwidth_mbps</text><text x="514" y="2500.07" fill="#D9B8FF" font-family="sans-serif" font-size="11" textLength="159">: aws_autoscaling_min_max</text><text x="316" y="2522.874" fill="#D9B8FF" font-family="sans-serif" font-size="11" font-weight="bold" textLength="114">accelerator_types</text><text x="430" y="2522.874" fill="#D9B8FF" font-family="sans-serif" font-size="11" textLength="49">: string[]</text><text x="316" y="2545.679" fill="#D9B8FF" font-family="sans-serif" font-size="11" font-weight="bold" textLength="115">accelerator_count</text><text x="431" y="2545.679" fill="#D9B8FF" font-family="sans-serif" font-size="11" textLength="159">: aws_autoscaling_min_max</text><text x="316" y="2568.484" fill="#D9B8FF" font-family="sans-serif" font-size="11" font-weight="bold" textLength="172">accelerator_manufacturers</text><text x="488" y="2568.484" fill="#D9B8FF" font-family="sans-serif" font-size="11" textLength="49">: string[]</text><text x="316" y="2591.289" fill="#D9B8FF" font-family="sans-serif" font-size="11" font-weight="bold" textLength="121">accelerator_names</text><text x="437" y="2591.289" fill="#D9B8FF" font-family="sans-serif" font-size="11" textLength="49">: string[]</text><text x="316" y="2614.093" fill="#D9B8FF" font-family="sans-serif" font-size="11" font-weight="bold" textLength="200">accelerator_total_memory_mi_b</text><text x="516" y="2614.093" fill="#D9B8FF" font-family="sans-serif" font-size="11" textLength="159">: aws_autoscaling_min_max</text></a><a xlink:actuate="onRequest" xlink:href="#k" xlink:show="new" xlink:title="#aws_autoscaling_min_max" xlink:type="simple" target="_top"><rect id="k" width="267" height="93.398" x="372" y="2686" fill="#3D176E" rx="2.5" ry="2.5" style="stroke:#000d19;stroke-width:1.5"/><circle cx="387" cy="2705.894" r="11" fill="#E98DF7" style="stroke:#000d19;stroke-width:1"/><path d="M389.969 2711.535q-.578.297-1.219.438-.64.156-1.344.156-2.5 0-3.828-1.64-1.312-1.657-1.312-4.782t1.312-4.781q1.328-1.657 3.828-1.657.703 0 1.344.157.656.156 1.219.453v2.719q-.625-.579-1.219-.844-.594-.281-1.219-.281-1.344 0-2.031 1.078-.688 1.062-.688 3.156 0 2.094.688 3.172.688 1.062 2.031 1.062.625 0 1.219-.265.594-.282 1.219-.86v2.72Z"/><text x="406" y="2711.78" fill="#D9B8FF" font-family="Helvetica" font-size="17" textLength="225">aws_autoscaling_min_max</text><path d="M373 2725.789h265" style="stroke:#000d19;stroke-width:1.5"/><text x="383" y="2744.999" fill="#D9B8FF" font-family="sans-serif" font-size="11" font-weight="bold" textLength="23">min</text><text x="406" y="2744.999" fill="#D9B8FF" font-family="sans-serif" font-size="11" textLength="36">: int64</text><text x="383" y="2767.804" fill="#D9B8FF" font-family="sans-serif" font-size="11" font-weight="bold" textLength="26">max</text><text x="409" y="2767.804" fill="#D9B8FF" font-family="sans-serif" font-size="11" textLength="36">: int64</text></a><a xlink:actuate="onRequest" xlink:href="#l" xlink:show="new" xlink:title="#aws_autoscaling_instance" xlink:type="simple" target="_top"><rect id="l" width="406" height="253.031" x="1014.5" y="1786" fill="#3D176E" rx="2.5" ry="2.5" style="stroke:#000d19;stroke-width:1.5"/><circle cx="1100.25" cy="1805.895" r="11" fill="#E98DF7" style="stroke:#000d19;stroke-width:1"/><path d="M1103.219 1811.535q-.578.297-1.219.438-.64.156-1.344.156-2.5 0-3.828-1.64-1.312-1.657-1.312-4.782t1.312-4.781q1.328-1.656 3.828-1.656.703 0 1.344.156.656.156 1.219.453v2.719q-.625-.578-1.219-.844-.594-.281-1.219-.281-1.343 0-2.031 1.078-.688 1.062-.688 3.156 0 2.094.688 3.172.688 1.062 2.031 1.062.625 0 1.219-.265.594-.281 1.219-.86v2.72Z"/><text x="1125.75" y="1811.78" fill="#D9B8FF" font-family="Helvetica" font-size="17" textLength="216">aws_autoscaling_instance</text><path d="M1015.5 1825.789h404" style="stroke:#000d19;stroke-width:1.5"/><text x="1025.5" y="1844.999" fill="#D9B8FF" font-family="sans-serif" font-size="11" font-weight="bold" textLength="73">instance_id</text><text x="1098.5" y="1844.999" fill="#D9B8FF" font-family="sans-serif" font-size="11" textLength="41">: string</text><text x="1025.5" y="1867.804" fill="#D9B8FF" font-family="sans-serif" font-size="11" font-weight="bold" textLength="89">instance_type</text><text x="1114.5" y="1867.804" fill="#D9B8FF" font-family="sans-serif" font-size="11" textLength="41">: string</text><text x="1025.5" y="1890.609" fill="#D9B8FF" font-family="sans-serif" font-size="11" font-weight="bold" textLength="108">availability_zone</text><text x="1133.5" y="1890.609" fill="#D9B8FF" font-family="sans-serif" font-size="11" textLength="41">: string</text><text x="1025.5" y="1913.414" fill="#D9B8FF" font-family="sans-serif" font-size="11" font-weight="bold" textLength="93">lifecycle_state</text><text x="1118.5" y="1913.414" fill="#D9B8FF" font-family="sans-serif" font-size="11" textLength="41">: string</text><text x="1025.5" y="1936.218" fill="#D9B8FF" font-family="sans-serif" font-size="11" font-weight="bold" textLength="87">health_status</text><text x="1112.5" y="1936.218" fill="#D9B8FF" font-family="sans-serif" font-size="11" textLength="41">: string</text><text x="1025.5" y="1959.023" fill="#D9B8FF" font-family="sans-serif" font-size="11" font-weight="bold" textLength="176">launch_configuration_name</text><text x="1201.5" y="1959.023" fill="#D9B8FF" font-family="sans-serif" font-size="11" textLength="41">: string</text><text x="1025.5" y="1981.828" fill="#D9B8FF" font-family="sans-serif" font-size="11" font-weight="bold" textLength="106">launch_template</text><text x="1131.5" y="1981.828" fill="#D9B8FF" font-family="sans-serif" font-size="11" textLength="278">: aws_autoscaling_launch_template_specification</text><text x="1025.5" y="2004.632" fill="#D9B8FF" font-family="sans-serif" font-size="11" font-weight="bold" textLength="155">protected_from_scale_in</text><text x="1180.5" y="2004.632" fill="#D9B8FF" font-family="sans-serif" font-size="11" textLength="53">: boolean</text><text x="1025.5" y="2027.437" fill="#D9B8FF" font-family="sans-serif" font-size="11" font-weight="bold" textLength="120">weighted_capacity</text><text x="1145.5" y="2027.437" fill="#D9B8FF" font-family="sans-serif" font-size="11" textLength="41">: string</text></a><a xlink:actuate="onRequest" xlink:href="#m" xlink:show="new" xlink:title="#aws_autoscaling_warm_pool_configuration" xlink:type="simple" target="_top"><rect id="m" width="401" height="161.813" x="1085" y="1319" fill="#3D176E" rx="2.5" ry="2.5" style="stroke:#000d19;stroke-width:1.5"/><circle cx="1100" cy="1338.895" r="11" fill="#E98DF7" style="stroke:#000d19;stroke-width:1"/><path d="M1102.969 1344.535q-.578.297-1.219.438-.64.156-1.344.156-2.5 0-3.828-1.64-1.312-1.657-1.312-4.782t1.312-4.781q1.328-1.656 3.828-1.656.703 0 1.344.156.656.156 1.219.453v2.719q-.625-.578-1.219-.844-.594-.281-1.219-.281-1.343 0-2.031 1.078-.688 1.062-.688 3.156 0 2.094.688 3.172.688 1.062 2.031 1.062.625 0 1.219-.265.594-.281 1.219-.86v2.72Z"/><text x="1119" y="1344.78" fill="#D9B8FF" font-family="Helvetica" font-size="17" textLength="359">aws_autoscaling_warm_pool_configuration</text><path d="M1086 1358.789h399" style="stroke:#000d19;stroke-width:1.5"/><text x="1096" y="1377.999" fill="#D9B8FF" font-family="sans-serif" font-size="11" font-weight="bold" textLength="193">max_group_prepared_capacity</text><text x="1289" y="1377.999" fill="#D9B8FF" font-family="sans-serif" font-size="11" textLength="36">: int64</text><text x="1096" y="1400.804" fill="#D9B8FF" font-family="sans-serif" font-size="11" font-weight="bold" textLength="55">min_size</text><text x="1151" y="1400.804" fill="#D9B8FF" font-family="sans-serif" font-size="11" textLength="36">: int64</text><text x="1096" y="1423.609" fill="#D9B8FF" font-family="sans-serif" font-size="11" font-weight="bold" textLength="67">pool_state</text><text x="1163" y="1423.609" fill="#D9B8FF" font-family="sans-serif" font-size="11" textLength="41">: string</text><text x="1096" y="1446.414" fill="#D9B8FF" font-family="sans-serif" font-size="11" font-weight="bold" textLength="40">status</text><text x="1136" y="1446.414" fill="#D9B8FF" font-family="sans-serif" font-size="11" textLength="41">: string</text><text x="1096" y="1469.218" fill="#D9B8FF" font-family="sans-serif" font-size="11" font-weight="bold" textLength="141">instance_reuse_policy</text><text x="1237" y="1469.218" fill="#D9B8FF" font-family="sans-serif" font-size="11" textLength="53">: boolean</text></a><a xlink:actuate="onRequest" xlink:href="#n" xlink:show="new" xlink:title="#autoscaling_group" xlink:type="simple" target="_top"><rect id="n" width="194" height="93.398" x="1005.5" y="404" fill="#3D176E" rx="2.5" ry="2.5" style="stroke:#000d19;stroke-width:1.5"/><circle cx="1020.5" cy="423.894" r="11" fill="#E98DF7" style="stroke:#000d19;stroke-width:1"/><path d="M1023.469 429.535q-.578.297-1.219.438-.64.156-1.344.156-2.5 0-3.828-1.64-1.312-1.657-1.312-4.782t1.312-4.781q1.328-1.656 3.828-1.656.703 0 1.344.156.656.156 1.219.453v2.719q-.625-.579-1.219-.844-.594-.281-1.219-.281-1.343 0-2.031 1.078-.688 1.062-.688 3.156 0 2.094.688 3.172.688 1.062 2.031 1.062.625 0 1.219-.265.594-.281 1.219-.86v2.72Z"/><text x="1039.5" y="429.78" fill="#D9B8FF" font-family="Helvetica" font-size="17" textLength="152">autoscaling_group</text><path d="M1006.5 443.789h192" style="stroke:#000d19;stroke-width:1.5"/><text x="1016.5" y="463" fill="#D9B8FF" font-family="sans-serif" font-size="11" font-weight="bold" textLength="55">min_size</text><text x="1071.5" y="463" fill="#D9B8FF" font-family="sans-serif" font-size="11" textLength="36">: int64</text><text x="1016.5" y="485.804" fill="#D9B8FF" font-family="sans-serif" font-size="11" font-weight="bold" textLength="58">max_size</text><text x="1074.5" y="485.804" fill="#D9B8FF" font-family="sans-serif" font-size="11" textLength="36">: int64</text></a><a xlink:actuate="onRequest" xlink:href="#o" xlink:show="new" xlink:title="#aws_autoscaling_enabled_metric" xlink:type="simple" target="_top"><rect id="o" width="317" height="93.398" x="1521" y="1353.5" fill="#3D176E" rx="2.5" ry="2.5" style="stroke:#000d19;stroke-width:1.5"/><circle cx="1536" cy="1373.395" r="11" fill="#E98DF7" style="stroke:#000d19;stroke-width:1"/><path d="M1538.969 1379.035q-.578.297-1.219.438-.64.156-1.344.156-2.5 0-3.828-1.64-1.312-1.657-1.312-4.782t1.312-4.781q1.328-1.656 3.828-1.656.703 0 1.344.156.656.156 1.219.453v2.719q-.625-.578-1.219-.844-.594-.281-1.219-.281-1.343 0-2.031 1.078-.688 1.062-.688 3.156 0 2.094.688 3.172.688 1.062 2.031 1.062.625 0 1.219-.265.594-.281 1.219-.86v2.72Z"/><text x="1555" y="1379.28" fill="#D9B8FF" font-family="Helvetica" font-size="17" textLength="275">aws_autoscaling_enabled_metric</text><path d="M1522 1393.289h315" style="stroke:#000d19;stroke-width:1.5"/><text x="1532" y="1412.499" fill="#D9B8FF" font-family="sans-serif" font-size="11" font-weight="bold" textLength="40">metric</text><text x="1572" y="1412.499" fill="#D9B8FF" font-family="sans-serif" font-size="11" textLength="41">: string</text><text x="1532" y="1435.304" fill="#D9B8FF" font-family="sans-serif" font-size="11" font-weight="bold" textLength="70">granularity</text><text x="1602" y="1435.304" fill="#D9B8FF" font-family="sans-serif" font-size="11" textLength="41">: string</text></a><path fill="none" d="M942.95 302.28c-14.56 42.48-28.96 84.49-38.62 112.69m32.09-115.22 13.1-16.65.14 21.19-13.24-4.54zm-32.29 206.09c6.34 29.65 14.77 69.02 23.96 111.96m-30.85-110.72 2.66-21.02 11.03 18.09-13.69 2.93zm191.01 9.75c-6.13 28.1-13.78 63.2-22.04 101.05m15.22-102.61 11.1-18.05 2.57 21.03-13.67-2.98zm-92.8 743.8c-8.43 342.82-21.21 862.02-25.59 1040.01" style="stroke:#ffaf37;stroke-width:2"/><path fill="#FFAF37" d="m962.91 2304.24 4.23-8.894-4.101 3.896-3.896-4.102 3.767 9.1z" style="stroke:#ffaf37;stroke-width:2"/><path fill="none" d="M780.08 1259.26c-23.24 34.33-44.31 65.47-60.64 89.6" style="stroke:#ffaf37;stroke-width:2"/><path fill="#FFAF37" d="m716.44 1353.28 8.362-5.203-5.556 1.065-1.065-5.556-1.741 9.694z" style="stroke:#ffaf37;stroke-width:2"/><path fill="none" d="M1027.39 1259.31c10.13 73.36 23.27 150.65 40.11 221.69 24.42 102.98 64.26 215.84 96.74 300.16" style="stroke:#ffaf37;stroke-width:2"/><path fill="#FFAF37" d="m1166.07 1785.91.47-9.838-2.28 5.177-5.177-2.28 6.987 6.941z" style="stroke:#ffaf37;stroke-width:2"/><path fill="none" d="M739.31 1104.09c-136.45 87.33-294.3 188.35-385.35 246.62" style="stroke:#ffaf37;stroke-width:2"/><path fill="#FFAF37" d="m349.68 1353.45 9.74-1.464-5.524-1.223 1.224-5.523-5.44 8.21z" style="stroke:#ffaf37;stroke-width:2"/><path fill="none" d="M1253.74 1112.56c126.62 85.19 269.73 181.46 353.6 237.89" style="stroke:#ffaf37;stroke-width:2"/><path fill="#FFAF37" d="m1611.53 1353.27-5.237-8.341 1.088 5.551-5.552 1.087 9.701 1.703z" style="stroke:#ffaf37;stroke-width:2"/><path fill="none" d="M1197.61 1259.26c12.39 19.69 24.11 38.34 34.72 55.21" style="stroke:#ffaf37;stroke-width:2"/><path fill="#FFAF37" d="m1235.01 1318.72-1.41-9.747-1.254 5.516-5.516-1.254 8.18 5.485z" style="stroke:#ffaf37;stroke-width:2"/><path fill="none" d="M680.56 1446.74c-4.19 38.84-10.21 94.53-14.56 134.79" style="stroke:#ffaf37;stroke-width:2"/><path fill="#FFAF37" d="m665.43 1586.86 4.93-8.527-4.401 3.555-3.555-4.4 3.026 9.372z" style="stroke:#ffaf37;stroke-width:2"/><path fill="none" d="M588.39 1446.6c-58.6 27.52-135.29 63.53-205.55 96.52" style="stroke:#ffaf37;stroke-width:2"/><path fill="#FFAF37" d="m378.22 1545.29 9.847-.208-5.322-1.919 1.919-5.322-6.444 7.449z" style="stroke:#ffaf37;stroke-width:2"/><path fill="none" d="M744.04 1680.23c39.55 25.91 83.84 61.94 110.46 105.77 52.16 85.89 87.59 382.51 101.01 513.03" style="stroke:#ffaf37;stroke-width:2"/><path fill="#FFAF37" d="m956.05 2304.36 3.08-9.355-3.58 4.38-4.38-3.58 4.88 8.555z" style="stroke:#ffaf37;stroke-width:2"/><path fill="none" d="M648.78 1680.24c-10.97 42.79-27.54 107.43-40.38 157.5" style="stroke:#ffaf37;stroke-width:2"/><path fill="#FFAF37" d="m607.1 1842.85 6.112-7.723-4.87 2.88-2.88-4.869 1.638 9.712z" style="stroke:#ffaf37;stroke-width:2"/><path fill="none" d="M646.4 1982.03c72.13 86.86 195.36 235.27 264.4 318.42" style="stroke:#ffaf37;stroke-width:2"/><path fill="#FFAF37" d="m914.05 2304.36-2.685-9.476-.514 5.634-5.634-.515 8.833 4.357z" style="stroke:#ffaf37;stroke-width:2"/><path fill="none" d="M576.65 1982.03c-5.85 31.21-13.19 70.36-20.92 111.58" style="stroke:#ffaf37;stroke-width:2"/><path fill="#FFAF37" d="m554.79 2098.65 5.579-8.117-4.664 3.201-3.201-4.664 2.286 9.58z" style="stroke:#ffaf37;stroke-width:2"/><path fill="none" d="M505.5 2626.05v54.51" style="stroke:#ffaf37;stroke-width:2"/><path fill="#FFAF37" d="m505.5 2685.81 4-9-4 4-4-4 4 9z" style="stroke:#ffaf37;stroke-width:2"/><path fill="none" d="M1145.68 2039.19c-48.63 85.1-110.75 193.81-148.99 260.72" style="stroke:#ffaf37;stroke-width:2"/><path fill="#FFAF37" d="m994.21 2304.26 7.928-5.844-5.455 1.498-1.498-5.455-.975 9.801z" style="stroke:#ffaf37;stroke-width:2"/><path fill="none" d="M1051.06 302.21c12.97 37.15 25.82 73.94 35.43 101.45m-42.12-99.37.01-21.19 13.21 16.57-13.22 4.62z" style="stroke:#ffaf37;stroke-width:2"/></svg>