<svg xmlns="http://www.w3.org/2000/svg" xmlns:xlink="http://www.w3.org/1999/xlink" width="1276" height="452" preserveAspectRatio="none" style="width:1276px;height:452px;background:#00000000"><a xlink:actuate="onRequest" xlink:href="#a" xlink:show="new" xlink:title="#aws_kms_key" xlink:type="simple" target="_top"><rect id="a" width="158" height="39.789" x="561.5" y="407" fill="#3D176E" rx="2.5" ry="2.5" style="stroke:#000d19;stroke-width:1.5"/><circle cx="576.5" cy="426.894" r="11" fill="#E98DF7" style="stroke:#000d19;stroke-width:1"/><path d="M579.469 432.535q-.578.297-1.219.438-.64.156-1.344.156-2.5 0-3.828-1.64-1.312-1.657-1.312-4.782t1.312-4.781q1.328-1.656 3.828-1.656.703 0 1.344.156.656.156 1.219.453v2.719q-.625-.579-1.219-.844-.594-.281-1.219-.281-1.343 0-2.031 1.078-.688 1.062-.688 3.156 0 2.094.688 3.172.688 1.062 2.031 1.062.625 0 1.219-.265.594-.281 1.219-.86v2.72Z"/><text x="595.5" y="432.78" fill="#D9B8FF" font-family="Helvetica" font-size="17" textLength="116">aws_kms_key</text></a><a xlink:actuate="onRequest" xlink:href="#b" xlink:show="new" xlink:title="#aws_api_gateway_resource" xlink:type="simple" target="_top"><rect id="b" width="270" height="39.789" x="93.5" y="107" fill="#3D176E" rx="2.5" ry="2.5" style="stroke:#000d19;stroke-width:1.5"/><circle cx="108.5" cy="126.894" r="11" fill="#E98DF7" style="stroke:#000d19;stroke-width:1"/><path d="M111.469 132.535q-.578.297-1.219.438-.64.156-1.344.156-2.5 0-3.828-1.64-1.312-1.657-1.312-4.782t1.312-4.781q1.328-1.657 3.828-1.657.703 0 1.344.157.656.156 1.219.453v2.719q-.625-.579-1.219-.844-.594-.281-1.219-.281-1.344 0-2.031 1.078-.688 1.062-.688 3.156 0 2.094.688 3.172.688 1.062 2.031 1.062.625 0 1.219-.265.594-.281 1.219-.86v2.72Z"/><text x="127.5" y="132.78" fill="#D9B8FF" font-family="Helvetica" font-size="17" textLength="228">aws_api_gateway_resource</text></a><a xlink:actuate="onRequest" xlink:href="#c" xlink:show="new" xlink:title="#aws_api_gateway_authorizer" xlink:type="simple" target="_top"><rect id="c" width="285" height="39.789" x="7" y="207" fill="#3D176E" rx="2.5" ry="2.5" style="stroke:#000d19;stroke-width:1.5"/><circle cx="22" cy="226.894" r="11" fill="#E98DF7" style="stroke:#000d19;stroke-width:1"/><path d="M24.969 232.535q-.578.297-1.219.438-.64.156-1.344.156-2.5 0-3.828-1.64-1.312-1.657-1.312-4.782t1.312-4.781q1.328-1.656 3.828-1.656.703 0 1.344.156.656.156 1.219.453v2.719q-.625-.579-1.219-.844-.594-.281-1.219-.281-1.343 0-2.031 1.078-.688 1.062-.688 3.156 0 2.094.688 3.172.688 1.062 2.031 1.062.625 0 1.219-.265.594-.281 1.219-.86v2.72Z"/><text x="41" y="232.78" fill="#D9B8FF" font-family="Helvetica" font-size="17" textLength="243">aws_api_gateway_authorizer</text></a><a xlink:actuate="onRequest" xlink:href="#d" xlink:show="new" xlink:title="#aws_lambda_function" xlink:type="simple" target="_top"><rect id="d" width="224" height="39.789" x="446.5" y="307" fill="#3D176E" rx="2.5" ry="2.5" style="stroke:#000d19;stroke-width:1.5"/><circle cx="461.5" cy="326.894" r="11" fill="#E98DF7" style="stroke:#000d19;stroke-width:1"/><path d="M464.469 332.535q-.578.297-1.219.438-.64.156-1.344.156-2.5 0-3.828-1.64-1.312-1.657-1.312-4.782t1.312-4.781q1.328-1.656 3.828-1.656.703 0 1.344.156.656.156 1.219.453v2.719q-.625-.579-1.219-.844-.594-.281-1.219-.281-1.344 0-2.031 1.078-.688 1.062-.688 3.156 0 2.094.688 3.172.688 1.062 2.031 1.062.625 0 1.219-.265.594-.281 1.219-.86v2.72Z"/><text x="480.5" y="332.78" fill="#D9B8FF" font-family="Helvetica" font-size="17" textLength="182">aws_lambda_function</text></a><a xlink:actuate="onRequest" xlink:href="#e" xlink:show="new" xlink:title="#aws_cognito_user_pool" xlink:type="simple" target="_top"><rect id="e" width="234" height="39.789" x="1035.5" y="207" fill="#3D176E" rx="2.5" ry="2.5" style="stroke:#000d19;stroke-width:1.5"/><circle cx="1050.5" cy="226.894" r="11" fill="#E98DF7" style="stroke:#000d19;stroke-width:1"/><path d="M1053.469 232.535q-.578.297-1.219.438-.64.156-1.344.156-2.5 0-3.828-1.64-1.312-1.657-1.312-4.782t1.312-4.781q1.328-1.656 3.828-1.656.703 0 1.344.156.656.156 1.219.453v2.719q-.625-.579-1.219-.844-.594-.281-1.219-.281-1.343 0-2.031 1.078-.688 1.062-.688 3.156 0 2.094.688 3.172.688 1.062 2.031 1.062.625 0 1.219-.265.594-.281 1.219-.86v2.72Z"/><text x="1069.5" y="232.78" fill="#D9B8FF" font-family="Helvetica" font-size="17" textLength="192">aws_cognito_user_pool</text></a><a xlink:actuate="onRequest" xlink:href="#f" xlink:show="new" xlink:title="#aws_vpc" xlink:type="simple" target="_top"><rect id="f" width="112" height="39.789" x="574.5" y="107" fill="#3D176E" rx="2.5" ry="2.5" style="stroke:#000d19;stroke-width:1.5"/><circle cx="589.5" cy="126.894" r="11" fill="#E98DF7" style="stroke:#000d19;stroke-width:1"/><path d="M592.469 132.535q-.578.297-1.219.438-.64.156-1.344.156-2.5 0-3.828-1.64-1.312-1.657-1.312-4.782t1.312-4.781q1.328-1.657 3.828-1.657.703 0 1.344.157.656.156 1.219.453v2.719q-.625-.579-1.219-.844-.594-.281-1.219-.281-1.343 0-2.031 1.078-.688 1.062-.688 3.156 0 2.094.688 3.172.688 1.062 2.031 1.062.625 0 1.219-.265.594-.281 1.219-.86v2.72Z"/><text x="608.5" y="132.78" fill="#D9B8FF" font-family="Helvetica" font-size="17" textLength="70">aws_vpc</text></a><a xlink:actuate="onRequest" xlink:href="#g" xlink:show="new" xlink:title="#aws_ec2_subnet" xlink:type="simple" target="_top"><rect id="g" width="179" height="39.789" x="541" y="207" fill="#3D176E" rx="2.5" ry="2.5" style="stroke:#000d19;stroke-width:1.5"/><circle cx="556" cy="226.894" r="11" fill="#E98DF7" style="stroke:#000d19;stroke-width:1"/><path d="M558.969 232.535q-.578.297-1.219.438-.64.156-1.344.156-2.5 0-3.828-1.64-1.312-1.657-1.312-4.782t1.312-4.781q1.328-1.656 3.828-1.656.703 0 1.344.156.656.156 1.219.453v2.719q-.625-.579-1.219-.844-.594-.281-1.219-.281-1.343 0-2.031 1.078-.688 1.062-.688 3.156 0 2.094.688 3.172.688 1.062 2.031 1.062.625 0 1.219-.265.594-.281 1.219-.86v2.72Z"/><text x="575" y="232.78" fill="#D9B8FF" font-family="Helvetica" font-size="17" textLength="137">aws_ec2_subnet</text></a><a xlink:actuate="onRequest" xlink:href="#h" xlink:show="new" xlink:title="#aws_ec2_security_group" xlink:type="simple" target="_top"><rect id="h" width="245" height="39.789" x="755" y="207" fill="#3D176E" rx="2.5" ry="2.5" style="stroke:#000d19;stroke-width:1.5"/><circle cx="770" cy="226.894" r="11" fill="#E98DF7" style="stroke:#000d19;stroke-width:1"/><path d="M772.969 232.535q-.578.297-1.219.438-.64.156-1.344.156-2.5 0-3.828-1.64-1.312-1.657-1.312-4.782t1.312-4.781q1.328-1.656 3.828-1.656.703 0 1.344.156.656.156 1.219.453v2.719q-.625-.579-1.219-.844-.594-.281-1.219-.281-1.343 0-2.031 1.078-.688 1.062-.688 3.156 0 2.094.688 3.172.688 1.062 2.031 1.062.625 0 1.219-.265.594-.281 1.219-.86v2.72Z"/><text x="789" y="232.78" fill="#D9B8FF" font-family="Helvetica" font-size="17" textLength="203">aws_ec2_security_group</text></a><a xlink:actuate="onRequest" xlink:href="#i" xlink:show="new" xlink:title="#aws_api_gateway_rest_api" xlink:type="simple" target="_top"><rect id="i" width="265" height="39.789" x="96" y="7" fill="#3D176E" rx="2.5" ry="2.5" style="stroke:#000d19;stroke-width:1.5"/><circle cx="111" cy="26.895" r="11" fill="#E98DF7" style="stroke:#000d19;stroke-width:1"/><path d="M113.969 32.535q-.578.297-1.219.438-.64.156-1.344.156-2.5 0-3.828-1.64-1.312-1.657-1.312-4.782t1.312-4.781q1.328-1.656 3.828-1.656.703 0 1.344.156.656.156 1.219.453v2.719q-.625-.578-1.219-.844-.594-.281-1.219-.281-1.344 0-2.031 1.078-.688 1.062-.688 3.156 0 2.094.688 3.172.688 1.062 2.031 1.062.625 0 1.219-.265.594-.281 1.219-.86v2.72Z"/><text x="130" y="32.78" fill="#D9B8FF" font-family="Helvetica" font-size="17" textLength="223">aws_api_gateway_rest_api</text></a><path fill="none" d="M212.89 147.36c-12.77 15.84-30.87 38.3-44.46 55.16" style="stroke:#1a83af;stroke-width:2"/><path fill="#1A83AF" d="m165.08 206.68 8.752-4.517-5.623.617-.618-5.623-2.511 9.523z" style="stroke:#1a83af;stroke-width:2"/><path fill="none" d="M251.39 147.04c30.51 24.85 86.77 68.83 139.11 99.96 37.49 22.3 82.3 43.1 116.21 57.76" style="stroke:#1a83af;stroke-width:2"/><path fill="#1A83AF" d="m511.63 306.87-6.67-7.247 2.082 5.26-5.26 2.081 9.848-.094z" style="stroke:#1a83af;stroke-width:2"/><path fill="none" d="M228.84 247.01c70.44 16.88 173.07 41.47 245.06 58.72" style="stroke:#1a83af;stroke-width:2"/><path fill="#1A83AF" d="m479.03 306.96-7.828-5.977 2.964 4.818-4.818 2.964 9.682-1.805z" style="stroke:#1a83af;stroke-width:2"/><path fill="none" d="M574.7 347.36c13.25 15.84 32.04 38.3 46.15 55.16" style="stroke:#1a83af;stroke-width:2"/><path fill="#1A83AF" d="m624.33 406.68-2.706-9.47-.502 5.635-5.635-.502 8.843 4.337z" style="stroke:#1a83af;stroke-width:2"/><path fill="none" d="M1102.94 247.16c-96.47 37.31-308.75 119.4-408.56 158" style="stroke:#1a83af;stroke-width:2"/><path fill="#1A83AF" d="m689.71 406.97 9.836.496-5.17-2.294 2.294-5.17-6.96 6.968z" style="stroke:#1a83af;stroke-width:2"/><path fill="none" d="M1037.27 247.01c-104.2 17.19-256.9 42.39-361.67 59.67" style="stroke:#1a83af;stroke-width:2"/><path fill="#1A83AF" d="m670.64 307.5 9.532 2.48-4.599-3.295 3.295-4.599-8.228 5.414z" style="stroke:#1a83af;stroke-width:2"/><path fill="none" d="M678.42 147.01c41.96 16.65 102.83 40.8 146.21 58.01" style="stroke:#1a83af;stroke-width:2"/><path fill="#1A83AF" d="m829.3 206.87-6.897-7.03 2.248 5.19-5.191 2.248 9.84-.408z" style="stroke:#1a83af;stroke-width:2"/><path fill="none" d="M588.08 147.1c-23.67 13.15-51.05 33.1-64.58 59.9-15.71 31.13 2.45 70.49 17.93 95.21" style="stroke:#1a83af;stroke-width:2"/><path fill="#1A83AF" d="m544.28 306.65-1.487-9.736-1.21 5.526-5.526-1.21 8.223 5.42z" style="stroke:#1a83af;stroke-width:2"/><path fill="none" d="M630.5 147.36v54.3" style="stroke:#1a83af;stroke-width:2"/><path fill="#1A83AF" d="m630.5 206.68 4-9-4 4-4-4 4 9z" style="stroke:#1a83af;stroke-width:2"/><path fill="none" d="M616.28 247.36c-11.64 15.84-28.14 38.3-40.53 55.16" style="stroke:#1a83af;stroke-width:2"/><path fill="#1A83AF" d="m572.7 306.68 8.561-4.869-5.593.845-.845-5.593-2.123 9.617z" style="stroke:#1a83af;stroke-width:2"/><path fill="none" d="M815.62 247.01c-54.61 16.78-134.03 41.18-190.12 58.41" style="stroke:#1a83af;stroke-width:2"/><path fill="#1A83AF" d="m620.48 306.96 9.78 1.17-5.002-2.643 2.644-5.002-7.422 6.475z" style="stroke:#1a83af;stroke-width:2"/><path fill="none" d="M277.06 47.11C308.51 60.9 349.26 81.54 380.5 107c72.7 59.25 136.2 152.34 163.61 195.54" style="stroke:#1a83af;stroke-width:2"/><path fill="#1A83AF" d="m546.81 306.81-1.425-9.745-1.245 5.518-5.519-1.245 8.189 5.472z" style="stroke:#1a83af;stroke-width:2"/><path fill="none" d="M228.5 47.36v54.3" style="stroke:#1a83af;stroke-width:2"/><path fill="#1A83AF" d="m228.5 106.68 4-9-4 4-4-4 4 9z" style="stroke:#1a83af;stroke-width:2"/><path fill="none" d="M155.86 47.09C125.51 59.05 93.23 77.89 75.5 107c-20.57 33.77 14.8 72.62 43.37 96.49" style="stroke:#1a83af;stroke-width:2"/><path fill="#1A83AF" d="m123.03 206.9-4.411-8.806.549 5.63-5.63.55 9.492 2.626z" style="stroke:#1a83af;stroke-width:2"/></svg>