<svg xmlns="http://www.w3.org/2000/svg" xmlns:xlink="http://www.w3.org/1999/xlink" width="1037" height="1253" preserveAspectRatio="none" style="width:1037px;height:1253px;background:#00000000"><a xlink:actuate="onRequest" xlink:href="#a" xlink:show="new" xlink:title="#resource" xlink:type="simple" target="_top"><rect id="a" width="195" height="275.836" x="419.5" y="7" fill="#3D176E" rx="2.5" ry="2.5" style="stroke:#000d19;stroke-width:1.5"/><circle cx="472.25" cy="26.895" r="11" fill="#E98DF7" style="stroke:#000d19;stroke-width:1"/><path d="M475.219 32.535q-.578.297-1.219.438-.64.156-1.344.156-2.5 0-3.828-1.64-1.312-1.657-1.312-4.782t1.312-4.781q1.328-1.656 3.828-1.656.703 0 1.344.156.656.156 1.219.453v2.719q-.625-.578-1.219-.844-.594-.281-1.219-.281-1.344 0-2.031 1.078-.688 1.062-.688 3.156 0 2.094.688 3.172.688 1.062 2.031 1.062.625 0 1.219-.265.594-.281 1.219-.86v2.72Z"/><text x="497.75" y="32.78" fill="#D9B8FF" font-family="Helvetica" font-size="17" textLength="71">resource</text><path d="M420.5 46.789h193" style="stroke:#000d19;stroke-width:1.5"/><text x="430.5" y="65.999" fill="#D9B8FF" font-family="sans-serif" font-size="11" font-weight="bold" textLength="12">id</text><text x="442.5" y="65.999" fill="#D9B8FF" font-family="sans-serif" font-size="11" textLength="41">: string</text><text x="430.5" y="88.804" fill="#D9B8FF" font-family="sans-serif" font-size="11" font-weight="bold" textLength="28">tags</text><text x="458.5" y="88.804" fill="#D9B8FF" font-family="sans-serif" font-size="11" textLength="145">: dictionary[string, string]</text><text x="430.5" y="111.609" fill="#D9B8FF" font-family="sans-serif" font-size="11" font-weight="bold" textLength="35">name</text><text x="465.5" y="111.609" fill="#D9B8FF" font-family="sans-serif" font-size="11" textLength="41">: string</text><text x="430.5" y="134.414" fill="#D9B8FF" font-family="sans-serif" font-size="11" font-weight="bold" textLength="35">ctime</text><text x="465.5" y="134.414" fill="#D9B8FF" font-family="sans-serif" font-size="11" textLength="58">: datetime</text><text x="430.5" y="157.218" fill="#D9B8FF" font-family="sans-serif" font-size="11" font-weight="bold" textLength="24">age</text><text x="454.5" y="157.218" fill="#D9B8FF" font-family="sans-serif" font-size="11" textLength="55">: duration</text><text x="430.5" y="180.023" fill="#D9B8FF" font-family="sans-serif" font-size="11" font-weight="bold" textLength="39">mtime</text><text x="469.5" y="180.023" fill="#D9B8FF" font-family="sans-serif" font-size="11" textLength="58">: datetime</text><text x="430.5" y="202.828" fill="#D9B8FF" font-family="sans-serif" font-size="11" font-weight="bold" textLength="75">last_update</text><text x="505.5" y="202.828" fill="#D9B8FF" font-family="sans-serif" font-size="11" textLength="55">: duration</text><text x="430.5" y="225.632" fill="#D9B8FF" font-family="sans-serif" font-size="11" font-weight="bold" textLength="36">atime</text><text x="466.5" y="225.632" fill="#D9B8FF" font-family="sans-serif" font-size="11" textLength="58">: datetime</text><text x="430.5" y="248.437" fill="#D9B8FF" font-family="sans-serif" font-size="11" font-weight="bold" textLength="74">last_access</text><text x="504.5" y="248.437" fill="#D9B8FF" font-family="sans-serif" font-size="11" textLength="55">: duration</text><text x="430.5" y="271.242" fill="#D9B8FF" font-family="sans-serif" font-size="11" font-weight="bold" textLength="27">kind</text><text x="457.5" y="271.242" fill="#D9B8FF" font-family="sans-serif" font-size="11" textLength="41">: string</text></a><a xlink:actuate="onRequest" xlink:href="#b" xlink:show="new" xlink:title="#aws_resource" xlink:type="simple" target="_top"><rect id="b" width="155" height="70.594" x="342.5" y="404" fill="#3D176E" rx="2.5" ry="2.5" style="stroke:#000d19;stroke-width:1.5"/><circle cx="357.5" cy="423.894" r="11" fill="#E98DF7" style="stroke:#000d19;stroke-width:1"/><path d="M360.469 429.535q-.578.297-1.219.438-.64.156-1.344.156-2.5 0-3.828-1.64-1.312-1.657-1.312-4.782t1.312-4.781q1.328-1.656 3.828-1.656.703 0 1.344.156.656.156 1.219.453v2.719q-.625-.579-1.219-.844-.594-.281-1.219-.281-1.344 0-2.031 1.078-.688 1.062-.688 3.156 0 2.094.688 3.172.688 1.062 2.031 1.062.625 0 1.219-.265.594-.281 1.219-.86v2.72Z"/><text x="376.5" y="429.78" fill="#D9B8FF" font-family="Helvetica" font-size="17" textLength="113">aws_resource</text><path d="M343.5 443.789h153" style="stroke:#000d19;stroke-width:1.5"/><text x="353.5" y="463" fill="#D9B8FF" font-family="sans-serif" font-size="11" font-weight="bold" textLength="21">arn</text><text x="374.5" y="463" fill="#D9B8FF" font-family="sans-serif" font-size="11" textLength="41">: string</text></a><a xlink:actuate="onRequest" xlink:href="#c" xlink:show="new" xlink:title="#aws_ec2_ip_range" xlink:type="simple" target="_top"><rect id="c" width="194" height="93.398" x="7" y="1096" fill="#3D176E" rx="2.5" ry="2.5" style="stroke:#000d19;stroke-width:1.5"/><circle cx="22" cy="1115.895" r="11" fill="#E98DF7" style="stroke:#000d19;stroke-width:1"/><path d="M24.969 1121.535q-.578.297-1.219.438-.64.156-1.344.156-2.5 0-3.828-1.64-1.312-1.657-1.312-4.782t1.312-4.781q1.328-1.656 3.828-1.656.703 0 1.344.156.656.156 1.219.453v2.719q-.625-.578-1.219-.844-.594-.281-1.219-.281-1.343 0-2.031 1.078-.688 1.062-.688 3.156 0 2.094.688 3.172.688 1.062 2.031 1.062.625 0 1.219-.265.594-.281 1.219-.86v2.72Z"/><text x="41" y="1121.78" fill="#D9B8FF" font-family="Helvetica" font-size="17" textLength="152">aws_ec2_ip_range</text><path d="M8 1135.789h192" style="stroke:#000d19;stroke-width:1.5"/><text x="18" y="1154.999" fill="#D9B8FF" font-family="sans-serif" font-size="11" font-weight="bold" textLength="42">cidr_ip</text><text x="60" y="1154.999" fill="#D9B8FF" font-family="sans-serif" font-size="11" textLength="41">: string</text><text x="18" y="1177.804" fill="#D9B8FF" font-family="sans-serif" font-size="11" font-weight="bold" textLength="72">description</text><text x="90" y="1177.804" fill="#D9B8FF" font-family="sans-serif" font-size="11" textLength="41">: string</text></a><a xlink:actuate="onRequest" xlink:href="#d" xlink:show="new" xlink:title="#aws_ec2_security_group" xlink:type="simple" target="_top"><rect id="d" width="360" height="116.203" x="337" y="596" fill="#3D176E" rx="2.5" ry="2.5" style="stroke:#000d19;stroke-width:1.5"/><circle cx="406.25" cy="615.894" r="11" fill="#E98DF7" style="stroke:#000d19;stroke-width:1"/><path d="M409.219 621.535q-.578.297-1.219.438-.64.156-1.344.156-2.5 0-3.828-1.64-1.312-1.657-1.312-4.782t1.312-4.781q1.328-1.657 3.828-1.657.703 0 1.344.157.656.156 1.219.453v2.719q-.625-.578-1.219-.844-.594-.281-1.219-.281-1.344 0-2.031 1.078-.688 1.062-.688 3.156 0 2.094.688 3.172.688 1.062 2.031 1.062.625 0 1.219-.265.594-.282 1.219-.86v2.72Z"/><text x="431.75" y="621.78" fill="#D9B8FF" font-family="Helvetica" font-size="17" textLength="203">aws_ec2_security_group</text><path d="M338 635.789h358" style="stroke:#000d19;stroke-width:1.5"/><text x="348" y="655" fill="#D9B8FF" font-family="sans-serif" font-size="11" font-weight="bold" textLength="72">description</text><text x="420" y="655" fill="#D9B8FF" font-family="sans-serif" font-size="11" textLength="41">: string</text><text x="348" y="677.804" fill="#D9B8FF" font-family="sans-serif" font-size="11" font-weight="bold" textLength="138">group_ip_permissions</text><text x="486" y="677.804" fill="#D9B8FF" font-family="sans-serif" font-size="11" textLength="151">: aws_ec2_ip_permission[]</text><text x="348" y="700.609" fill="#D9B8FF" font-family="sans-serif" font-size="11" font-weight="bold" textLength="187">group_ip_permissions_egress</text><text x="535" y="700.609" fill="#D9B8FF" font-family="sans-serif" font-size="11" textLength="151">: aws_ec2_ip_permission[]</text></a><a xlink:actuate="onRequest" xlink:href="#e" xlink:show="new" xlink:title="#aws_ec2_user_id_group_pair" xlink:type="simple" target="_top"><rect id="e" width="280" height="207.422" x="236" y="1039" fill="#3D176E" rx="2.5" ry="2.5" style="stroke:#000d19;stroke-width:1.5"/><circle cx="251" cy="1058.895" r="11" fill="#E98DF7" style="stroke:#000d19;stroke-width:1"/><path d="M253.969 1064.535q-.578.297-1.219.438-.64.156-1.344.156-2.5 0-3.828-1.64-1.312-1.657-1.312-4.782t1.312-4.781q1.328-1.656 3.828-1.656.703 0 1.344.156.656.156 1.219.453v2.719q-.625-.578-1.219-.844-.594-.281-1.219-.281-1.344 0-2.031 1.078-.688 1.062-.688 3.156 0 2.094.688 3.172.688 1.062 2.031 1.062.625 0 1.219-.265.594-.281 1.219-.86v2.72Z"/><text x="270" y="1064.78" fill="#D9B8FF" font-family="Helvetica" font-size="17" textLength="238">aws_ec2_user_id_group_pair</text><path d="M237 1078.789h278" style="stroke:#000d19;stroke-width:1.5"/><text x="247" y="1097.999" fill="#D9B8FF" font-family="sans-serif" font-size="11" font-weight="bold" textLength="72">description</text><text x="319" y="1097.999" fill="#D9B8FF" font-family="sans-serif" font-size="11" textLength="41">: string</text><text x="247" y="1120.804" fill="#D9B8FF" font-family="sans-serif" font-size="11" font-weight="bold" textLength="55">group_id</text><text x="302" y="1120.804" fill="#D9B8FF" font-family="sans-serif" font-size="11" textLength="41">: string</text><text x="247" y="1143.609" fill="#D9B8FF" font-family="sans-serif" font-size="11" font-weight="bold" textLength="78">group_name</text><text x="325" y="1143.609" fill="#D9B8FF" font-family="sans-serif" font-size="11" textLength="41">: string</text><text x="247" y="1166.414" fill="#D9B8FF" font-family="sans-serif" font-size="11" font-weight="bold" textLength="95">peering_status</text><text x="342" y="1166.414" fill="#D9B8FF" font-family="sans-serif" font-size="11" textLength="41">: string</text><text x="247" y="1189.218" fill="#D9B8FF" font-family="sans-serif" font-size="11" font-weight="bold" textLength="46">user_id</text><text x="293" y="1189.218" fill="#D9B8FF" font-family="sans-serif" font-size="11" textLength="41">: string</text><text x="247" y="1212.023" fill="#D9B8FF" font-family="sans-serif" font-size="11" font-weight="bold" textLength="40">vpc_id</text><text x="287" y="1212.023" fill="#D9B8FF" font-family="sans-serif" font-size="11" textLength="41">: string</text><text x="247" y="1234.828" fill="#D9B8FF" font-family="sans-serif" font-size="11" font-weight="bold" textLength="172">vpc_peering_connection_id</text><text x="419" y="1234.828" fill="#D9B8FF" font-family="sans-serif" font-size="11" textLength="41">: string</text></a><a xlink:actuate="onRequest" xlink:href="#f" xlink:show="new" xlink:title="#aws_ec2_ipv6_range" xlink:type="simple" target="_top"><rect id="f" width="215" height="93.398" x="551.5" y="1096" fill="#3D176E" rx="2.5" ry="2.5" style="stroke:#000d19;stroke-width:1.5"/><circle cx="566.5" cy="1115.895" r="11" fill="#E98DF7" style="stroke:#000d19;stroke-width:1"/><path d="M569.469 1121.535q-.578.297-1.219.438-.64.156-1.344.156-2.5 0-3.828-1.64-1.312-1.657-1.312-4.782t1.312-4.781q1.328-1.656 3.828-1.656.703 0 1.344.156.656.156 1.219.453v2.719q-.625-.578-1.219-.844-.594-.281-1.219-.281-1.343 0-2.031 1.078-.688 1.062-.688 3.156 0 2.094.688 3.172.688 1.062 2.031 1.062.625 0 1.219-.265.594-.281 1.219-.86v2.72Z"/><text x="585.5" y="1121.78" fill="#D9B8FF" font-family="Helvetica" font-size="17" textLength="173">aws_ec2_ipv6_range</text><path d="M552.5 1135.789h213" style="stroke:#000d19;stroke-width:1.5"/><text x="562.5" y="1154.999" fill="#D9B8FF" font-family="sans-serif" font-size="11" font-weight="bold" textLength="57">cidr_ipv6</text><text x="619.5" y="1154.999" fill="#D9B8FF" font-family="sans-serif" font-size="11" textLength="41">: string</text><text x="562.5" y="1177.804" fill="#D9B8FF" font-family="sans-serif" font-size="11" font-weight="bold" textLength="72">description</text><text x="634.5" y="1177.804" fill="#D9B8FF" font-family="sans-serif" font-size="11" textLength="41">: string</text></a><a xlink:actuate="onRequest" xlink:href="#g" xlink:show="new" xlink:title="#security_group" xlink:type="simple" target="_top"><rect id="g" width="165" height="39.789" x="532.5" y="419.5" fill="#3D176E" rx="2.5" ry="2.5" style="stroke:#000d19;stroke-width:1.5"/><circle cx="547.5" cy="439.394" r="11" fill="#E98DF7" style="stroke:#000d19;stroke-width:1"/><path d="M550.469 445.035q-.578.297-1.219.438-.64.156-1.344.156-2.5 0-3.828-1.64-1.312-1.657-1.312-4.782t1.312-4.781q1.328-1.656 3.828-1.656.703 0 1.344.156.656.156 1.219.453v2.719q-.625-.579-1.219-.844-.594-.281-1.219-.281-1.343 0-2.031 1.078-.688 1.062-.688 3.156 0 2.094.688 3.172.688 1.062 2.031 1.062.625 0 1.219-.265.594-.281 1.219-.86v2.72Z"/><text x="566.5" y="445.28" fill="#D9B8FF" font-family="Helvetica" font-size="17" textLength="123">security_group</text></a><a xlink:actuate="onRequest" xlink:href="#h" xlink:show="new" xlink:title="#aws_ec2_ip_permission" xlink:type="simple" target="_top"><rect id="h" width="329" height="207.422" x="352.5" y="772" fill="#3D176E" rx="2.5" ry="2.5" style="stroke:#000d19;stroke-width:1.5"/><circle cx="410.25" cy="791.894" r="11" fill="#E98DF7" style="stroke:#000d19;stroke-width:1"/><path d="M413.219 797.535q-.578.297-1.219.438-.64.156-1.344.156-2.5 0-3.828-1.64-1.312-1.657-1.312-4.782t1.312-4.781q1.328-1.657 3.828-1.657.703 0 1.344.157.656.156 1.219.453v2.719q-.625-.578-1.219-.844-.594-.281-1.219-.281-1.344 0-2.031 1.078-.688 1.062-.688 3.156 0 2.094.688 3.172.688 1.062 2.031 1.062.625 0 1.219-.265.594-.282 1.219-.86v2.72Z"/><text x="435.75" y="797.78" fill="#D9B8FF" font-family="Helvetica" font-size="17" textLength="195">aws_ec2_ip_permission</text><path d="M353.5 811.789h327" style="stroke:#000d19;stroke-width:1.5"/><text x="363.5" y="831" fill="#D9B8FF" font-family="sans-serif" font-size="11" font-weight="bold" textLength="61">from_port</text><text x="424.5" y="831" fill="#D9B8FF" font-family="sans-serif" font-size="11" textLength="36">: int64</text><text x="363.5" y="853.804" fill="#D9B8FF" font-family="sans-serif" font-size="11" font-weight="bold" textLength="71">ip_protocol</text><text x="434.5" y="853.804" fill="#D9B8FF" font-family="sans-serif" font-size="11" textLength="41">: string</text><text x="363.5" y="876.609" fill="#D9B8FF" font-family="sans-serif" font-size="11" font-weight="bold" textLength="62">ip_ranges</text><text x="425.5" y="876.609" fill="#D9B8FF" font-family="sans-serif" font-size="11" textLength="120">: aws_ec2_ip_range[]</text><text x="363.5" y="899.414" fill="#D9B8FF" font-family="sans-serif" font-size="11" font-weight="bold" textLength="77">ipv6_ranges</text><text x="440.5" y="899.414" fill="#D9B8FF" font-family="sans-serif" font-size="11" textLength="133">: aws_ec2_ipv6_range[]</text><text x="363.5" y="922.218" fill="#D9B8FF" font-family="sans-serif" font-size="11" font-weight="bold" textLength="88">prefix_list_ids</text><text x="451.5" y="922.218" fill="#D9B8FF" font-family="sans-serif" font-size="11" textLength="142">: aws_ec2_prefix_list_id[]</text><text x="363.5" y="945.023" fill="#D9B8FF" font-family="sans-serif" font-size="11" font-weight="bold" textLength="45">to_port</text><text x="408.5" y="945.023" fill="#D9B8FF" font-family="sans-serif" font-size="11" textLength="36">: int64</text><text x="363.5" y="967.828" fill="#D9B8FF" font-family="sans-serif" font-size="11" font-weight="bold" textLength="127">user_id_group_pairs</text><text x="490.5" y="967.828" fill="#D9B8FF" font-family="sans-serif" font-size="11" textLength="180">: aws_ec2_user_id_group_pair[]</text></a><a xlink:actuate="onRequest" xlink:href="#i" xlink:show="new" xlink:title="#aws_ec2_prefix_list_id" xlink:type="simple" target="_top"><rect id="i" width="228" height="93.398" x="802" y="1096" fill="#3D176E" rx="2.5" ry="2.5" style="stroke:#000d19;stroke-width:1.5"/><circle cx="817" cy="1115.895" r="11" fill="#E98DF7" style="stroke:#000d19;stroke-width:1"/><path d="M819.969 1121.535q-.578.297-1.219.438-.64.156-1.344.156-2.5 0-3.828-1.64-1.312-1.657-1.312-4.782t1.312-4.781q1.328-1.656 3.828-1.656.703 0 1.344.156.656.156 1.219.453v2.719q-.625-.578-1.219-.844-.594-.281-1.219-.281-1.343 0-2.031 1.078-.688 1.062-.688 3.156 0 2.094.688 3.172.688 1.062 2.031 1.062.625 0 1.219-.265.594-.281 1.219-.86v2.72Z"/><text x="836" y="1121.78" fill="#D9B8FF" font-family="Helvetica" font-size="17" textLength="186">aws_ec2_prefix_list_id</text><path d="M803 1135.789h226" style="stroke:#000d19;stroke-width:1.5"/><text x="813" y="1154.999" fill="#D9B8FF" font-family="sans-serif" font-size="11" font-weight="bold" textLength="72">description</text><text x="885" y="1154.999" fill="#D9B8FF" font-family="sans-serif" font-size="11" textLength="41">: string</text><text x="813" y="1177.804" fill="#D9B8FF" font-family="sans-serif" font-size="11" font-weight="bold" textLength="81">prefix_list_id</text><text x="894" y="1177.804" fill="#D9B8FF" font-family="sans-serif" font-size="11" textLength="41">: string</text></a><path fill="none" d="M465.14 302.39c-12.7 38.29-25.09 75.65-33.67 101.51m27.07-103.86 12.94-16.78.35 21.18-13.29-4.4zm-14.42 193.29c14.24 31.21 32.28 70.74 46.85 102.65m-53.23-99.76-1.94-21.11 14.67 15.29-12.73 5.82zm159.82-17.89c-15.06 32.64-37.03 80.28-54.22 117.56m48.06-120.93 14.73-15.23-2.02 21.1-12.71-5.87zM517 712.1v54.36" style="stroke:#ffaf37;stroke-width:2"/><path fill="#FFAF37" d="m517 771.76 4-9-4 4-4-4 4 9z" style="stroke:#ffaf37;stroke-width:2"/><path fill="none" d="M569.36 302.27c15.67 46.79 30.89 92.2 39.19 116.97m-45.85-114.8.29-21.18L575.98 300l-13.28 4.44zM352.23 957.1c-44.82 24.3-92.49 52.41-134.23 81.9-22.42 15.84-45.27 35.55-64.58 53.44" style="stroke:#ffaf37;stroke-width:2"/><path fill="#FFAF37" d="m149.61 1095.99 9.315-3.198-5.653-.206.206-5.654-3.868 9.058z" style="stroke:#ffaf37;stroke-width:2"/><path fill="none" d="M572.1 979.34c20.59 38.41 43.05 80.32 59.98 111.92" style="stroke:#ffaf37;stroke-width:2"/><path fill="#FFAF37" d="m634.53 1095.84-.724-9.822-1.637 5.415-5.415-1.637 7.776 6.044z" style="stroke:#ffaf37;stroke-width:2"/><path fill="none" d="M681.6 972.65c34.3 21.15 69.9 43.95 102.4 66.35 24.18 16.66 49.87 36.17 72.1 53.67" style="stroke:#ffaf37;stroke-width:2"/><path fill="#FFAF37" d="m860.2 1095.91-4.607-8.705.675 5.617-5.616.674 9.548 2.414z" style="stroke:#ffaf37;stroke-width:2"/><path fill="none" d="M462.28 979.34c-9.56 17.97-19.53 36.71-29.16 54.8" style="stroke:#ffaf37;stroke-width:2"/><path fill="#FFAF37" d="m430.69 1038.72 7.752-6.074-5.408 1.658-1.658-5.409-.686 9.825z" style="stroke:#ffaf37;stroke-width:2"/></svg>