<svg xmlns="http://www.w3.org/2000/svg" xmlns:xlink="http://www.w3.org/1999/xlink" width="1391" height="452" preserveAspectRatio="none" style="width:1391px;height:452px;background:#00000000"><a xlink:actuate="onRequest" xlink:href="#a" xlink:show="new" xlink:title="#aws_ec2_security_group" xlink:type="simple" target="_top"><rect id="a" width="245" height="39.789" x="386" y="7" fill="#3D176E" rx="2.5" ry="2.5" style="stroke:#000d19;stroke-width:1.5"/><circle cx="401" cy="26.895" r="11" fill="#E98DF7" style="stroke:#000d19;stroke-width:1"/><path d="M403.969 32.535q-.578.297-1.219.438-.64.156-1.344.156-2.5 0-3.828-1.64-1.312-1.657-1.312-4.782t1.312-4.781q1.328-1.656 3.828-1.656.703 0 1.344.156.656.156 1.219.453v2.719q-.625-.578-1.219-.844-.594-.281-1.219-.281-1.344 0-2.031 1.078-.688 1.062-.688 3.156 0 2.094.688 3.172.688 1.062 2.031 1.062.625 0 1.219-.265.594-.281 1.219-.86v2.72Z"/><text x="420" y="32.78" fill="#D9B8FF" font-family="Helvetica" font-size="17" textLength="203">aws_ec2_security_group</text></a><a xlink:actuate="onRequest" xlink:href="#b" xlink:show="new" xlink:title="#aws_sagemaker_domain" xlink:type="simple" target="_top"><rect id="b" width="248" height="39.789" x="474.5" y="107" fill="#3D176E" rx="2.5" ry="2.5" style="stroke:#000d19;stroke-width:1.5"/><circle cx="489.5" cy="126.894" r="11" fill="#E98DF7" style="stroke:#000d19;stroke-width:1"/><path d="M492.469 132.535q-.578.297-1.219.438-.64.156-1.344.156-2.5 0-3.828-1.64-1.312-1.657-1.312-4.782t1.312-4.781q1.328-1.657 3.828-1.657.703 0 1.344.157.656.156 1.219.453v2.719q-.625-.579-1.219-.844-.594-.281-1.219-.281-1.344 0-2.031 1.078-.688 1.062-.688 3.156 0 2.094.688 3.172.688 1.062 2.031 1.062.625 0 1.219-.265.594-.281 1.219-.86v2.72Z"/><text x="508.5" y="132.78" fill="#D9B8FF" font-family="Helvetica" font-size="17" textLength="206">aws_sagemaker_domain</text></a><a xlink:actuate="onRequest" xlink:href="#c" xlink:show="new" xlink:title="#aws_kms_key" xlink:type="simple" target="_top"><rect id="c" width="158" height="39.789" x="873.5" y="207" fill="#3D176E" rx="2.5" ry="2.5" style="stroke:#000d19;stroke-width:1.5"/><circle cx="888.5" cy="226.894" r="11" fill="#E98DF7" style="stroke:#000d19;stroke-width:1"/><path d="M891.469 232.535q-.578.297-1.219.438-.64.156-1.344.156-2.5 0-3.828-1.64-1.312-1.657-1.312-4.782t1.312-4.781q1.328-1.656 3.828-1.656.703 0 1.344.156.656.156 1.219.453v2.719q-.625-.579-1.219-.844-.594-.281-1.219-.281-1.343 0-2.031 1.078-.688 1.062-.688 3.156 0 2.094.688 3.172.688 1.062 2.031 1.062.625 0 1.219-.265.594-.281 1.219-.86v2.72Z"/><text x="907.5" y="232.78" fill="#D9B8FF" font-family="Helvetica" font-size="17" textLength="116">aws_kms_key</text></a><a xlink:actuate="onRequest" xlink:href="#d" xlink:show="new" xlink:title="#aws_sagemaker_trial" xlink:type="simple" target="_top"><rect id="d" width="219" height="39.789" x="885" y="307" fill="#3D176E" rx="2.5" ry="2.5" style="stroke:#000d19;stroke-width:1.5"/><circle cx="900" cy="326.894" r="11" fill="#E98DF7" style="stroke:#000d19;stroke-width:1"/><path d="M902.969 332.535q-.578.297-1.219.438-.64.156-1.344.156-2.5 0-3.828-1.64-1.312-1.657-1.312-4.782t1.312-4.781q1.328-1.656 3.828-1.656.703 0 1.344.156.656.156 1.219.453v2.719q-.625-.579-1.219-.844-.594-.281-1.219-.281-1.343 0-2.031 1.078-.688 1.062-.688 3.156 0 2.094.688 3.172.688 1.062 2.031 1.062.625 0 1.219-.265.594-.281 1.219-.86v2.72Z"/><text x="919" y="332.78" fill="#D9B8FF" font-family="Helvetica" font-size="17" textLength="177">aws_sagemaker_trial</text></a><a xlink:actuate="onRequest" xlink:href="#e" xlink:show="new" xlink:title="#aws_sagemaker_artifact" xlink:type="simple" target="_top"><rect id="e" width="245" height="39.789" x="1139" y="307" fill="#3D176E" rx="2.5" ry="2.5" style="stroke:#000d19;stroke-width:1.5"/><circle cx="1154" cy="326.894" r="11" fill="#E98DF7" style="stroke:#000d19;stroke-width:1"/><path d="M1156.969 332.535q-.578.297-1.219.438-.64.156-1.344.156-2.5 0-3.828-1.64-1.312-1.657-1.312-4.782t1.312-4.781q1.328-1.656 3.828-1.656.703 0 1.344.156.656.156 1.219.453v2.719q-.625-.579-1.219-.844-.594-.281-1.219-.281-1.343 0-2.031 1.078-.688 1.062-.688 3.156 0 2.094.688 3.172.688 1.062 2.031 1.062.625 0 1.219-.265.594-.281 1.219-.86v2.72Z"/><text x="1173" y="332.78" fill="#D9B8FF" font-family="Helvetica" font-size="17" textLength="203">aws_sagemaker_artifact</text></a><a xlink:actuate="onRequest" xlink:href="#f" xlink:show="new" xlink:title="#aws_ec2_subnet" xlink:type="simple" target="_top"><rect id="f" width="179" height="39.789" x="666" y="7" fill="#3D176E" rx="2.5" ry="2.5" style="stroke:#000d19;stroke-width:1.5"/><circle cx="681" cy="26.895" r="11" fill="#E98DF7" style="stroke:#000d19;stroke-width:1"/><path d="M683.969 32.535q-.578.297-1.219.438-.64.156-1.344.156-2.5 0-3.828-1.64-1.312-1.657-1.312-4.782t1.312-4.781q1.328-1.656 3.828-1.656.703 0 1.344.156.656.156 1.219.453v2.719q-.625-.578-1.219-.844-.594-.281-1.219-.281-1.343 0-2.031 1.078-.688 1.062-.688 3.156 0 2.094.688 3.172.688 1.062 2.031 1.062.625 0 1.219-.265.594-.281 1.219-.86v2.72Z"/><text x="700" y="32.78" fill="#D9B8FF" font-family="Helvetica" font-size="17" textLength="137">aws_ec2_subnet</text></a><a xlink:actuate="onRequest" xlink:href="#g" xlink:show="new" xlink:title="#aws_s3_bucket" xlink:type="simple" target="_top"><rect id="g" width="168" height="39.789" x="138.5" y="207" fill="#3D176E" rx="2.5" ry="2.5" style="stroke:#000d19;stroke-width:1.5"/><circle cx="153.5" cy="226.894" r="11" fill="#E98DF7" style="stroke:#000d19;stroke-width:1"/><path d="M156.469 232.535q-.578.297-1.219.438-.64.156-1.344.156-2.5 0-3.828-1.64-1.312-1.657-1.312-4.782t1.312-4.781q1.328-1.656 3.828-1.656.703 0 1.344.156.656.156 1.219.453v2.719q-.625-.579-1.219-.844-.594-.281-1.219-.281-1.344 0-2.031 1.078-.688 1.062-.688 3.156 0 2.094.688 3.172.688 1.062 2.031 1.062.625 0 1.219-.265.594-.281 1.219-.86v2.72Z"/><text x="172.5" y="232.78" fill="#D9B8FF" font-family="Helvetica" font-size="17" textLength="126">aws_s3_bucket</text></a><a xlink:actuate="onRequest" xlink:href="#h" xlink:show="new" xlink:title="#aws_iam_role" xlink:type="simple" target="_top"><rect id="h" width="157" height="39.789" x="7" y="7" fill="#3D176E" rx="2.5" ry="2.5" style="stroke:#000d19;stroke-width:1.5"/><circle cx="22" cy="26.895" r="11" fill="#E98DF7" style="stroke:#000d19;stroke-width:1"/><path d="M24.969 32.535q-.578.297-1.219.438-.64.156-1.344.156-2.5 0-3.828-1.64-1.312-1.657-1.312-4.782t1.312-4.781q1.328-1.656 3.828-1.656.703 0 1.344.156.656.156 1.219.453v2.719q-.625-.578-1.219-.844-.594-.281-1.219-.281-1.343 0-2.031 1.078-.688 1.062-.688 3.156 0 2.094.688 3.172.688 1.062 2.031 1.062.625 0 1.219-.265.594-.281 1.219-.86v2.72Z"/><text x="41" y="32.78" fill="#D9B8FF" font-family="Helvetica" font-size="17" textLength="115">aws_iam_role</text></a><a xlink:actuate="onRequest" xlink:href="#i" xlink:show="new" xlink:title="#aws_sagemaker_image" xlink:type="simple" target="_top"><rect id="i" width="237" height="39.789" x="312" y="407" fill="#3D176E" rx="2.5" ry="2.5" style="stroke:#000d19;stroke-width:1.5"/><circle cx="327" cy="426.894" r="11" fill="#E98DF7" style="stroke:#000d19;stroke-width:1"/><path d="M329.969 432.535q-.578.297-1.219.438-.64.156-1.344.156-2.5 0-3.828-1.64-1.312-1.657-1.312-4.782t1.312-4.781q1.328-1.656 3.828-1.656.703 0 1.344.156.656.156 1.219.453v2.719q-.625-.579-1.219-.844-.594-.281-1.219-.281-1.344 0-2.031 1.078-.688 1.062-.688 3.156 0 2.094.688 3.172.688 1.062 2.031 1.062.625 0 1.219-.265.594-.281 1.219-.86v2.72Z"/><text x="346" y="432.78" fill="#D9B8FF" font-family="Helvetica" font-size="17" textLength="195">aws_sagemaker_image</text></a><a xlink:actuate="onRequest" xlink:href="#j" xlink:show="new" xlink:title="#aws_sagemaker_pipeline" xlink:type="simple" target="_top"><rect id="j" width="251" height="39.789" x="126" y="307" fill="#3D176E" rx="2.5" ry="2.5" style="stroke:#000d19;stroke-width:1.5"/><circle cx="141" cy="326.894" r="11" fill="#E98DF7" style="stroke:#000d19;stroke-width:1"/><path d="M143.969 332.535q-.578.297-1.219.438-.64.156-1.344.156-2.5 0-3.828-1.64-1.312-1.657-1.312-4.782t1.312-4.781q1.328-1.656 3.828-1.656.703 0 1.344.156.656.156 1.219.453v2.719q-.625-.579-1.219-.844-.594-.281-1.219-.281-1.344 0-2.031 1.078-.688 1.062-.688 3.156 0 2.094.688 3.172.688 1.062 2.031 1.062.625 0 1.219-.265.594-.281 1.219-.86v2.72Z"/><text x="160" y="332.78" fill="#D9B8FF" font-family="Helvetica" font-size="17" textLength="209">aws_sagemaker_pipeline</text></a><a xlink:actuate="onRequest" xlink:href="#k" xlink:show="new" xlink:title="#aws_sagemaker_app" xlink:type="simple" target="_top"><rect id="k" width="215" height="39.789" x="484" y="307" fill="#3D176E" rx="2.5" ry="2.5" style="stroke:#000d19;stroke-width:1.5"/><circle cx="499" cy="326.894" r="11" fill="#E98DF7" style="stroke:#000d19;stroke-width:1"/><path d="M501.969 332.535q-.578.297-1.219.438-.64.156-1.344.156-2.5 0-3.828-1.64-1.312-1.657-1.312-4.782t1.312-4.781q1.328-1.656 3.828-1.656.703 0 1.344.156.656.156 1.219.453v2.719q-.625-.579-1.219-.844-.594-.281-1.219-.281-1.344 0-2.031 1.078-.688 1.062-.688 3.156 0 2.094.688 3.172.688 1.062 2.031 1.062.625 0 1.219-.265.594-.281 1.219-.86v2.72Z"/><text x="518" y="332.78" fill="#D9B8FF" font-family="Helvetica" font-size="17" textLength="173">aws_sagemaker_app</text></a><a xlink:actuate="onRequest" xlink:href="#l" xlink:show="new" xlink:title="#aws_sagemaker_user_profile" xlink:type="simple" target="_top"><rect id="l" width="283" height="39.789" x="555" y="207" fill="#3D176E" rx="2.5" ry="2.5" style="stroke:#000d19;stroke-width:1.5"/><circle cx="570" cy="226.894" r="11" fill="#E98DF7" style="stroke:#000d19;stroke-width:1"/><path d="M572.969 232.535q-.578.297-1.219.438-.64.156-1.344.156-2.5 0-3.828-1.64-1.312-1.657-1.312-4.782t1.312-4.781q1.328-1.656 3.828-1.656.703 0 1.344.156.656.156 1.219.453v2.719q-.625-.579-1.219-.844-.594-.281-1.219-.281-1.343 0-2.031 1.078-.688 1.062-.688 3.156 0 2.094.688 3.172.688 1.062 2.031 1.062.625 0 1.219-.265.594-.281 1.219-.86v2.72Z"/><text x="589" y="232.78" fill="#D9B8FF" font-family="Helvetica" font-size="17" textLength="241">aws_sagemaker_user_profile</text></a><a xlink:actuate="onRequest" xlink:href="#m" xlink:show="new" xlink:title="#aws_sagemaker_code_repository" xlink:type="simple" target="_top"><rect id="m" width="316" height="39.789" x="997.5" y="7" fill="#3D176E" rx="2.5" ry="2.5" style="stroke:#000d19;stroke-width:1.5"/><circle cx="1012.5" cy="26.895" r="11" fill="#E98DF7" style="stroke:#000d19;stroke-width:1"/><path d="M1015.469 32.535q-.578.297-1.219.438-.64.156-1.344.156-2.5 0-3.828-1.64-1.312-1.657-1.312-4.782t1.312-4.781q1.328-1.656 3.828-1.656.703 0 1.344.156.656.156 1.219.453v2.719q-.625-.578-1.219-.844-.594-.281-1.219-.281-1.343 0-2.031 1.078-.688 1.062-.688 3.156 0 2.094.688 3.172.688 1.062 2.031 1.062.625 0 1.219-.265.594-.281 1.219-.86v2.72Z"/><text x="1031.5" y="32.78" fill="#D9B8FF" font-family="Helvetica" font-size="17" textLength="274">aws_sagemaker_code_repository</text></a><path fill="none" d="M526.28 47.36c14.67 15.97 35.52 38.68 51.05 55.59" style="stroke:#1a83af;stroke-width:2"/><path fill="#1A83AF" d="m580.76 106.68-3.143-9.334-.24 5.652-5.651-.24 9.034 3.922z" style="stroke:#1a83af;stroke-width:2"/><path fill="none" d="M577.71 147.19c-14.37 14.76-32.27 36.52-40.21 59.81-11.7 34.3 12.23 72.14 31.88 95.73" style="stroke:#1a83af;stroke-width:2"/><path fill="#1A83AF" d="m572.74 306.68-2.8-9.443-.446 5.64-5.639-.446 8.885 4.249z" style="stroke:#1a83af;stroke-width:2"/><path fill="none" d="m617.86 147.36 55.59 55.59" style="stroke:#1a83af;stroke-width:2"/><path fill="#1A83AF" d="m677.18 206.68-3.535-9.192v5.656h-5.657l9.192 3.536z" style="stroke:#1a83af;stroke-width:2"/><path fill="none" d="M525.56 147.01c-64.63 16.85-158.73 41.37-224.89 58.62" style="stroke:#1a83af;stroke-width:2"/><path fill="#1A83AF" d="m295.56 206.96 9.716 1.61-4.876-2.866 2.866-4.877-7.706 6.133z" style="stroke:#1a83af;stroke-width:2"/><path fill="none" d="M579 147.18c-15.18 15.45-36.33 38.08-52.5 59.82-30.94 41.58-39 52.61-60 100-14.04 31.69-24.63 70.44-30.58 94.93" style="stroke:#1a83af;stroke-width:2"/><path fill="#1A83AF" d="m434.73 406.93 5.999-7.811-4.827 2.95-2.95-4.826 1.778 9.687z" style="stroke:#1a83af;stroke-width:2"/><path fill="none" d="M722.55 132.37c118.8 7.11 285.89 25.75 326.95 74.63 24.42 29.07-6.33 70.77-30.73 96.31" style="stroke:#1a83af;stroke-width:2"/><path fill="#1A83AF" d="m1015.23 306.96 9.141-3.665-5.656.08-.08-5.656-3.405 9.241z" style="stroke:#1a83af;stroke-width:2"/><path fill="none" d="M722.54 134.22c99.39 8.3 240.92 27.65 356.96 72.78 60.52 23.54 121.88 69.17 155.63 96.58" style="stroke:#1a83af;stroke-width:2"/><path fill="#1A83AF" d="m1239.1 306.83-4.427-8.798.56 5.63-5.63.559 9.497 2.609z" style="stroke:#1a83af;stroke-width:2"/><path fill="none" d="M540.11 147.03C500.55 161.05 447.8 181.99 404.5 207c-48.8 28.19-99.23 70.43-128.28 96.27" style="stroke:#1a83af;stroke-width:2"/><path fill="#1A83AF" d="m272.44 306.65 9.378-3.01-5.648-.32.32-5.648-4.05 8.978z" style="stroke:#1a83af;stroke-width:2"/><path fill="none" d="M667.17 147.01c60.73 16.81 149.09 41.27 211.36 58.51" style="stroke:#1a83af;stroke-width:2"/><path fill="#1A83AF" d="m883.72 206.96-7.612-6.25 2.792 4.92-4.92 2.792 9.74-1.462z" style="stroke:#1a83af;stroke-width:2"/><path fill="none" d="M724.86 47.13c-26.26 16.39-64.07 39.99-91.49 57.1" style="stroke:#1a83af;stroke-width:2"/><path fill="#1A83AF" d="m629.07 106.92 9.754-1.363-5.51-1.28 1.28-5.51-5.524 8.153z" style="stroke:#1a83af;stroke-width:2"/><path fill="none" d="M164.25 43.04c88.3 16.87 231.88 44.3 329.57 62.96" style="stroke:#1a83af;stroke-width:2"/><path fill="#1A83AF" d="m499.02 107-8.085-5.624 3.175 4.682-4.683 3.174L499.02 107z" style="stroke:#1a83af;stroke-width:2"/><path fill="none" d="M79.68 47.3C64.39 102.35 29.47 261.64 108.5 347c27.12 29.29 119.38 50.04 198.23 62.89" style="stroke:#1a83af;stroke-width:2"/><path fill="#1A83AF" d="m311.9 410.73-8.245-5.387 3.31 4.588-4.588 3.31 9.523-2.511z" style="stroke:#1a83af;stroke-width:2"/><path fill="none" d="M83.49 47.2C80.24 87.84 77.98 183.95 120.5 247c17.62 26.12 47.04 45 73.54 57.74" style="stroke:#1a83af;stroke-width:2"/><path fill="#1A83AF" d="m198.61 306.89-6.444-7.448 1.919 5.321-5.322 1.919 9.847.208z" style="stroke:#1a83af;stroke-width:2"/><path fill="none" d="M560.08 347.13c-26.93 16.39-65.71 39.99-93.82 57.1" style="stroke:#1a83af;stroke-width:2"/><path fill="#1A83AF" d="m461.85 406.92 9.768-1.263-5.497-1.337 1.337-5.496-5.608 8.096z" style="stroke:#1a83af;stroke-width:2"/><path fill="none" d="M676.01 247.13c-17.2 16.05-41.82 39.02-60.05 56.04" style="stroke:#1a83af;stroke-width:2"/><path fill="#1A83AF" d="m611.94 306.92 9.308-3.218-5.653-.194.194-5.654-3.849 9.066z" style="stroke:#1a83af;stroke-width:2"/><path fill="none" d="M754.31 247.01c50.91 16.74 124.91 41.08 177.29 58.3" style="stroke:#1a83af;stroke-width:2"/><path fill="#1A83AF" d="m936.6 306.96-7.31-6.601 2.558 5.046-5.046 2.557 9.798-1.002z" style="stroke:#1a83af;stroke-width:2"/><path fill="none" d="M806.11 247.01c97.99 17 241.07 41.82 340.6 59.08" style="stroke:#1a83af;stroke-width:2"/><path fill="#1A83AF" d="m1151.72 306.96-8.181-5.483 3.255 4.626-4.626 3.256 9.552-2.399z" style="stroke:#1a83af;stroke-width:2"/><path fill="none" d="M610.17 247.01c-76.79 16.91-188.75 41.57-267.09 58.82" style="stroke:#1a83af;stroke-width:2"/><path fill="#1A83AF" d="m337.97 306.96 9.653 1.952-4.772-3.037 3.037-4.772-7.918 5.857z" style="stroke:#1a83af;stroke-width:2"/><path fill="none" d="M1152.09 47.26c-7.73 39.92-29.38 133.5-72.59 199.74-14.43 22.12-36.37 42.3-54.34 56.73" style="stroke:#1a83af;stroke-width:2"/><path fill="#1A83AF" d="m1021.15 306.9 9.538-2.456-5.62-.65.65-5.62-4.568 8.726z" style="stroke:#1a83af;stroke-width:2"/><path fill="none" d="M1047.44 47.01c-96.6 17-237.65 41.82-335.78 59.08" style="stroke:#1a83af;stroke-width:2"/><path fill="#1A83AF" d="m706.73 106.96 9.56 2.367-4.637-3.24 3.24-4.637-8.163 5.51z" style="stroke:#1a83af;stroke-width:2"/><path fill="none" d="M1162.29 47.09c18.54 52.13 70 196.8 90.56 254.6" style="stroke:#1a83af;stroke-width:2"/><path fill="#1A83AF" d="m1254.63 306.68.763-9.82-2.434 5.107-5.107-2.433 6.778 7.146z" style="stroke:#1a83af;stroke-width:2"/></svg>