<svg xmlns="http://www.w3.org/2000/svg" xmlns:xlink="http://www.w3.org/1999/xlink" width="3338" height="1818" preserveAspectRatio="none" style="width:3338px;height:1818px;background:#00000000"><a xlink:actuate="onRequest" xlink:href="#a" xlink:show="new" xlink:title="#aws_resource" xlink:type="simple" target="_top"><rect id="a" width="155" height="70.594" x="1349.5" y="404" fill="#3D176E" rx="2.5" ry="2.5" style="stroke:#000d19;stroke-width:1.5"/><circle cx="1364.5" cy="423.894" r="11" fill="#E98DF7" style="stroke:#000d19;stroke-width:1"/><path d="M1367.469 429.535q-.578.297-1.219.438-.64.156-1.344.156-2.5 0-3.828-1.64-1.312-1.657-1.312-4.782t1.312-4.781q1.328-1.656 3.828-1.656.703 0 1.344.156.656.156 1.219.453v2.719q-.625-.579-1.219-.844-.594-.281-1.219-.281-1.343 0-2.031 1.078-.688 1.062-.688 3.156 0 2.094.688 3.172.688 1.062 2.031 1.062.625 0 1.219-.265.594-.281 1.219-.86v2.72Z"/><text x="1383.5" y="429.78" fill="#D9B8FF" font-family="Helvetica" font-size="17" textLength="113">aws_resource</text><path d="M1350.5 443.789h153" style="stroke:#000d19;stroke-width:1.5"/><text x="1360.5" y="463" fill="#D9B8FF" font-family="sans-serif" font-size="11" font-weight="bold" textLength="21">arn</text><text x="1381.5" y="463" fill="#D9B8FF" font-family="sans-serif" font-size="11" textLength="41">: string</text></a><a xlink:actuate="onRequest" xlink:href="#b" xlink:show="new" xlink:title="#resource" xlink:type="simple" target="_top"><rect id="b" width="195" height="275.836" x="1329.5" y="7" fill="#3D176E" rx="2.5" ry="2.5" style="stroke:#000d19;stroke-width:1.5"/><circle cx="1382.25" cy="26.895" r="11" fill="#E98DF7" style="stroke:#000d19;stroke-width:1"/><path d="M1385.219 32.535q-.578.297-1.219.438-.64.156-1.344.156-2.5 0-3.828-1.64-1.312-1.657-1.312-4.782t1.312-4.781q1.328-1.656 3.828-1.656.703 0 1.344.156.656.156 1.219.453v2.719q-.625-.578-1.219-.844-.594-.281-1.219-.281-1.343 0-2.031 1.078-.688 1.062-.688 3.156 0 2.094.688 3.172.688 1.062 2.031 1.062.625 0 1.219-.265.594-.281 1.219-.86v2.72Z"/><text x="1407.75" y="32.78" fill="#D9B8FF" font-family="Helvetica" font-size="17" textLength="71">resource</text><path d="M1330.5 46.789h193" style="stroke:#000d19;stroke-width:1.5"/><text x="1340.5" y="65.999" fill="#D9B8FF" font-family="sans-serif" font-size="11" font-weight="bold" textLength="12">id</text><text x="1352.5" y="65.999" fill="#D9B8FF" font-family="sans-serif" font-size="11" textLength="41">: string</text><text x="1340.5" y="88.804" fill="#D9B8FF" font-family="sans-serif" font-size="11" font-weight="bold" textLength="28">tags</text><text x="1368.5" y="88.804" fill="#D9B8FF" font-family="sans-serif" font-size="11" textLength="145">: dictionary[string, string]</text><text x="1340.5" y="111.609" fill="#D9B8FF" font-family="sans-serif" font-size="11" font-weight="bold" textLength="35">name</text><text x="1375.5" y="111.609" fill="#D9B8FF" font-family="sans-serif" font-size="11" textLength="41">: string</text><text x="1340.5" y="134.414" fill="#D9B8FF" font-family="sans-serif" font-size="11" font-weight="bold" textLength="35">ctime</text><text x="1375.5" y="134.414" fill="#D9B8FF" font-family="sans-serif" font-size="11" textLength="58">: datetime</text><text x="1340.5" y="157.218" fill="#D9B8FF" font-family="sans-serif" font-size="11" font-weight="bold" textLength="24">age</text><text x="1364.5" y="157.218" fill="#D9B8FF" font-family="sans-serif" font-size="11" textLength="55">: duration</text><text x="1340.5" y="180.023" fill="#D9B8FF" font-family="sans-serif" font-size="11" font-weight="bold" textLength="39">mtime</text><text x="1379.5" y="180.023" fill="#D9B8FF" font-family="sans-serif" font-size="11" textLength="58">: datetime</text><text x="1340.5" y="202.828" fill="#D9B8FF" font-family="sans-serif" font-size="11" font-weight="bold" textLength="75">last_update</text><text x="1415.5" y="202.828" fill="#D9B8FF" font-family="sans-serif" font-size="11" textLength="55">: duration</text><text x="1340.5" y="225.632" fill="#D9B8FF" font-family="sans-serif" font-size="11" font-weight="bold" textLength="36">atime</text><text x="1376.5" y="225.632" fill="#D9B8FF" font-family="sans-serif" font-size="11" textLength="58">: datetime</text><text x="1340.5" y="248.437" fill="#D9B8FF" font-family="sans-serif" font-size="11" font-weight="bold" textLength="74">last_access</text><text x="1414.5" y="248.437" fill="#D9B8FF" font-family="sans-serif" font-size="11" textLength="55">: duration</text><text x="1340.5" y="271.242" fill="#D9B8FF" font-family="sans-serif" font-size="11" font-weight="bold" textLength="27">kind</text><text x="1367.5" y="271.242" fill="#D9B8FF" font-family="sans-serif" font-size="11" textLength="41">: string</text></a><a xlink:actuate="onRequest" xlink:href="#c" xlink:show="new" xlink:title="#aws_sagemaker_vpc_config" xlink:type="simple" target="_top"><rect id="c" width="272" height="93.398" x="2208" y="1706.5" fill="#3D176E" rx="2.5" ry="2.5" style="stroke:#000d19;stroke-width:1.5"/><circle cx="2223" cy="1726.395" r="11" fill="#E98DF7" style="stroke:#000d19;stroke-width:1"/><path d="M2225.969 1732.035q-.578.297-1.219.438-.64.156-1.344.156-2.5 0-3.828-1.64-1.312-1.657-1.312-4.782t1.312-4.781q1.328-1.656 3.828-1.656.703 0 1.344.156.656.156 1.219.453v2.719q-.625-.578-1.219-.844-.594-.281-1.219-.281-1.343 0-2.031 1.078-.688 1.062-.688 3.156 0 2.094.688 3.172.688 1.062 2.031 1.062.625 0 1.219-.265.594-.281 1.219-.86v2.72Z"/><text x="2242" y="1732.28" fill="#D9B8FF" font-family="Helvetica" font-size="17" textLength="230">aws_sagemaker_vpc_config</text><path d="M2209 1746.289h270" style="stroke:#000d19;stroke-width:1.5"/><text x="2219" y="1765.499" fill="#D9B8FF" font-family="sans-serif" font-size="11" font-weight="bold" textLength="119">security_group_ids</text><text x="2338" y="1765.499" fill="#D9B8FF" font-family="sans-serif" font-size="11" textLength="49">: string[]</text><text x="2219" y="1788.304" fill="#D9B8FF" font-family="sans-serif" font-size="11" font-weight="bold" textLength="51">subnets</text><text x="2270" y="1788.304" fill="#D9B8FF" font-family="sans-serif" font-size="11" textLength="49">: string[]</text></a><a xlink:actuate="onRequest" xlink:href="#d" xlink:show="new" xlink:title="#aws_sagemaker_public_workforce_task_price" xlink:type="simple" target="_top"><rect id="d" width="419" height="70.594" x="2616.5" y="1553" fill="#3D176E" rx="2.5" ry="2.5" style="stroke:#000d19;stroke-width:1.5"/><circle cx="2631.5" cy="1572.895" r="11" fill="#E98DF7" style="stroke:#000d19;stroke-width:1"/><path d="M2634.469 1578.535q-.578.297-1.219.438-.64.156-1.344.156-2.5 0-3.828-1.64-1.312-1.657-1.312-4.782t1.312-4.781q1.328-1.656 3.828-1.656.703 0 1.344.156.656.156 1.219.453v2.719q-.625-.578-1.219-.844-.594-.281-1.219-.281-1.343 0-2.031 1.078-.688 1.062-.688 3.156 0 2.094.688 3.172.688 1.062 2.031 1.062.625 0 1.219-.265.594-.281 1.219-.86v2.72Z"/><text x="2650.5" y="1578.78" fill="#D9B8FF" font-family="Helvetica" font-size="17" textLength="377">aws_sagemaker_public_workforce_task_price</text><path d="M2617.5 1592.789h417" style="stroke:#000d19;stroke-width:1.5"/><text x="2627.5" y="1611.999" fill="#D9B8FF" font-family="sans-serif" font-size="11" font-weight="bold" textLength="95">amount_in_usd</text><text x="2722.5" y="1611.999" fill="#D9B8FF" font-family="sans-serif" font-size="11" textLength="128">: aws_sagemaker_usd</text></a><a xlink:actuate="onRequest" xlink:href="#e" xlink:show="new" xlink:title="#aws_sagemaker_usd" xlink:type="simple" target="_top"><rect id="e" width="222" height="116.203" x="2715" y="1695" fill="#3D176E" rx="2.5" ry="2.5" style="stroke:#000d19;stroke-width:1.5"/><circle cx="2733.6" cy="1714.895" r="11" fill="#E98DF7" style="stroke:#000d19;stroke-width:1"/><path d="M2736.569 1720.535q-.578.297-1.219.438-.64.156-1.344.156-2.5 0-3.828-1.64-1.312-1.657-1.312-4.782t1.312-4.781q1.328-1.656 3.828-1.656.703 0 1.344.156.656.156 1.219.453v2.719q-.625-.578-1.219-.844-.594-.281-1.219-.281-1.343 0-2.031 1.078-.688 1.062-.688 3.156 0 2.094.688 3.172.688 1.062 2.031 1.062.625 0 1.219-.265.594-.281 1.219-.86v2.72Z"/><text x="2753.4" y="1720.78" fill="#D9B8FF" font-family="Helvetica" font-size="17" textLength="172">aws_sagemaker_usd</text><path d="M2716 1734.789h220" style="stroke:#000d19;stroke-width:1.5"/><text x="2726" y="1753.999" fill="#D9B8FF" font-family="sans-serif" font-size="11" font-weight="bold" textLength="44">dollars</text><text x="2770" y="1753.999" fill="#D9B8FF" font-family="sans-serif" font-size="11" textLength="36">: int64</text><text x="2726" y="1776.804" fill="#D9B8FF" font-family="sans-serif" font-size="11" font-weight="bold" textLength="35">cents</text><text x="2761" y="1776.804" fill="#D9B8FF" font-family="sans-serif" font-size="11" textLength="36">: int64</text><text x="2726" y="1799.609" fill="#D9B8FF" font-family="sans-serif" font-size="11" font-weight="bold" textLength="164">tenth_fractions_of_a_cent</text><text x="2890" y="1799.609" fill="#D9B8FF" font-family="sans-serif" font-size="11" textLength="36">: int64</text></a><a xlink:actuate="onRequest" xlink:href="#f" xlink:show="new" xlink:title="#aws_sagemaker_labeling_job_output" xlink:type="simple" target="_top"><rect id="f" width="350" height="93.398" x="7" y="1275" fill="#3D176E" rx="2.5" ry="2.5" style="stroke:#000d19;stroke-width:1.5"/><circle cx="22" cy="1294.895" r="11" fill="#E98DF7" style="stroke:#000d19;stroke-width:1"/><path d="M24.969 1300.535q-.578.297-1.219.438-.64.156-1.344.156-2.5 0-3.828-1.64-1.312-1.657-1.312-4.782t1.312-4.781q1.328-1.656 3.828-1.656.703 0 1.344.156.656.156 1.219.453v2.719q-.625-.578-1.219-.844-.594-.281-1.219-.281-1.343 0-2.031 1.078-.688 1.062-.688 3.156 0 2.094.688 3.172.688 1.062 2.031 1.062.625 0 1.219-.265.594-.281 1.219-.86v2.72Z"/><text x="41" y="1300.78" fill="#D9B8FF" font-family="Helvetica" font-size="17" textLength="308">aws_sagemaker_labeling_job_output</text><path d="M8 1314.789h348" style="stroke:#000d19;stroke-width:1.5"/><text x="18" y="1333.999" fill="#D9B8FF" font-family="sans-serif" font-size="11" font-weight="bold" textLength="141">output_dataset_s3_uri</text><text x="159" y="1333.999" fill="#D9B8FF" font-family="sans-serif" font-size="11" textLength="41">: string</text><text x="18" y="1356.804" fill="#D9B8FF" font-family="sans-serif" font-size="11" font-weight="bold" textLength="205">final_active_learning_model_arn</text><text x="223" y="1356.804" fill="#D9B8FF" font-family="sans-serif" font-size="11" textLength="41">: string</text></a><a xlink:actuate="onRequest" xlink:href="#g" xlink:show="new" xlink:title="#aws_sagemaker_labeling_job_data_source" xlink:type="simple" target="_top"><rect id="g" width="394" height="93.398" x="1230" y="1542" fill="#3D176E" rx="2.5" ry="2.5" style="stroke:#000d19;stroke-width:1.5"/><circle cx="1245" cy="1561.895" r="11" fill="#E98DF7" style="stroke:#000d19;stroke-width:1"/><path d="M1247.969 1567.535q-.578.297-1.219.438-.64.156-1.344.156-2.5 0-3.828-1.64-1.312-1.657-1.312-4.782t1.312-4.781q1.328-1.656 3.828-1.656.703 0 1.344.156.656.156 1.219.453v2.719q-.625-.578-1.219-.844-.594-.281-1.219-.281-1.343 0-2.031 1.078-.688 1.062-.688 3.156 0 2.094.688 3.172.688 1.062 2.031 1.062.625 0 1.219-.265.594-.281 1.219-.86v2.72Z"/><text x="1264" y="1567.78" fill="#D9B8FF" font-family="Helvetica" font-size="17" textLength="352">aws_sagemaker_labeling_job_data_source</text><path d="M1231 1581.789h392" style="stroke:#000d19;stroke-width:1.5"/><text x="1241" y="1600.999" fill="#D9B8FF" font-family="sans-serif" font-size="11" font-weight="bold" textLength="99">s3_data_source</text><text x="1340" y="1600.999" fill="#D9B8FF" font-family="sans-serif" font-size="11" textLength="41">: string</text><text x="1241" y="1623.804" fill="#D9B8FF" font-family="sans-serif" font-size="11" font-weight="bold" textLength="106">sns_data_source</text><text x="1347" y="1623.804" fill="#D9B8FF" font-family="sans-serif" font-size="11" textLength="41">: string</text></a><a xlink:actuate="onRequest" xlink:href="#h" xlink:show="new" xlink:title="#aws_sagemaker_labeling_job" xlink:type="simple" target="_top"><rect id="h" width="528" height="344.25" x="1163" y="757" fill="#3D176E" rx="2.5" ry="2.5" style="stroke:#000d19;stroke-width:1.5"/><circle cx="1296.25" cy="776.894" r="11" fill="#E98DF7" style="stroke:#000d19;stroke-width:1"/><path d="M1299.219 782.535q-.578.297-1.219.438-.64.156-1.344.156-2.5 0-3.828-1.64-1.312-1.657-1.312-4.782t1.312-4.781q1.328-1.657 3.828-1.657.703 0 1.344.157.656.156 1.219.453v2.719q-.625-.578-1.219-.844-.594-.281-1.219-.281-1.343 0-2.031 1.078-.688 1.062-.688 3.156 0 2.094.688 3.172.688 1.062 2.031 1.062.625 0 1.219-.265.594-.282 1.219-.86v2.72Z"/><text x="1321.75" y="782.78" fill="#D9B8FF" font-family="Helvetica" font-size="17" textLength="243">aws_sagemaker_labeling_job</text><path d="M1164 796.789h526" style="stroke:#000d19;stroke-width:1.5"/><text x="1174" y="816" fill="#D9B8FF" font-family="sans-serif" font-size="11" font-weight="bold" textLength="124">labeling_job_status</text><text x="1298" y="816" fill="#D9B8FF" font-family="sans-serif" font-size="11" textLength="41">: string</text><text x="1174" y="838.804" fill="#D9B8FF" font-family="sans-serif" font-size="11" font-weight="bold" textLength="178">labeling_job_label_counters</text><text x="1352" y="838.804" fill="#D9B8FF" font-family="sans-serif" font-size="11" textLength="190">: aws_sagemaker_label_counters</text><text x="1174" y="861.609" fill="#D9B8FF" font-family="sans-serif" font-size="11" font-weight="bold" textLength="176">labeling_job_failure_reason</text><text x="1350" y="861.609" fill="#D9B8FF" font-family="sans-serif" font-size="11" textLength="41">: string</text><text x="1174" y="884.414" fill="#D9B8FF" font-family="sans-serif" font-size="11" font-weight="bold" textLength="209">labeling_job_job_reference_code</text><text x="1383" y="884.414" fill="#D9B8FF" font-family="sans-serif" font-size="11" textLength="41">: string</text><text x="1174" y="907.218" fill="#D9B8FF" font-family="sans-serif" font-size="11" font-weight="bold" textLength="219">labeling_job_label_attribute_name</text><text x="1393" y="907.218" fill="#D9B8FF" font-family="sans-serif" font-size="11" textLength="41">: string</text><text x="1174" y="930.023" fill="#D9B8FF" font-family="sans-serif" font-size="11" font-weight="bold" textLength="163">labeling_job_input_config</text><text x="1337" y="930.023" fill="#D9B8FF" font-family="sans-serif" font-size="11" textLength="248">: aws_sagemaker_labeling_job_input_config</text><text x="1174" y="952.828" fill="#D9B8FF" font-family="sans-serif" font-size="11" font-weight="bold" textLength="172">labeling_job_output_config</text><text x="1346" y="952.828" fill="#D9B8FF" font-family="sans-serif" font-size="11" textLength="256">: aws_sagemaker_labeling_job_output_config</text><text x="1174" y="975.632" fill="#D9B8FF" font-family="sans-serif" font-size="11" font-weight="bold" textLength="136">labeling_job_role_arn</text><text x="1310" y="975.632" fill="#D9B8FF" font-family="sans-serif" font-size="11" textLength="41">: string</text><text x="1174" y="998.437" fill="#D9B8FF" font-family="sans-serif" font-size="11" font-weight="bold" textLength="268">labeling_job_label_category_config_s3_uri</text><text x="1442" y="998.437" fill="#D9B8FF" font-family="sans-serif" font-size="11" textLength="41">: string</text><text x="1174" y="1021.242" fill="#D9B8FF" font-family="sans-serif" font-size="11" font-weight="bold" textLength="213">labeling_job_stopping_conditions</text><text x="1387" y="1021.242" fill="#D9B8FF" font-family="sans-serif" font-size="11" textLength="293">: aws_sagemaker_labeling_job_stopping_conditions</text><text x="1174" y="1044.046" fill="#D9B8FF" font-family="sans-serif" font-size="11" font-weight="bold" textLength="198">labeling_job_algorithms_config</text><text x="1372" y="1044.046" fill="#D9B8FF" font-family="sans-serif" font-size="11" textLength="281">: aws_sagemaker_labeling_job_algorithms_config</text><text x="1174" y="1066.851" fill="#D9B8FF" font-family="sans-serif" font-size="11" font-weight="bold" textLength="206">labeling_job_human_task_config</text><text x="1380" y="1066.851" fill="#D9B8FF" font-family="sans-serif" font-size="11" textLength="216">: aws_sagemaker_human_task_config</text><text x="1174" y="1089.656" fill="#D9B8FF" font-family="sans-serif" font-size="11" font-weight="bold" textLength="126">labeling_job_output</text><text x="1300" y="1089.656" fill="#D9B8FF" font-family="sans-serif" font-size="11" textLength="216">: aws_sagemaker_labeling_job_output</text></a><a xlink:actuate="onRequest" xlink:href="#i" xlink:show="new" xlink:title="#aws_sagemaker_labeling_job_stopping_conditions" xlink:type="simple" target="_top"><rect id="i" width="459" height="93.398" x="392.5" y="1275" fill="#3D176E" rx="2.5" ry="2.5" style="stroke:#000d19;stroke-width:1.5"/><circle cx="407.5" cy="1294.895" r="11" fill="#E98DF7" style="stroke:#000d19;stroke-width:1"/><path d="M410.469 1300.535q-.578.297-1.219.438-.64.156-1.344.156-2.5 0-3.828-1.64-1.312-1.657-1.312-4.782t1.312-4.781q1.328-1.656 3.828-1.656.703 0 1.344.156.656.156 1.219.453v2.719q-.625-.578-1.219-.844-.594-.281-1.219-.281-1.344 0-2.031 1.078-.688 1.062-.688 3.156 0 2.094.688 3.172.688 1.062 2.031 1.062.625 0 1.219-.265.594-.281 1.219-.86v2.72Z"/><text x="426.5" y="1300.78" fill="#D9B8FF" font-family="Helvetica" font-size="17" textLength="417">aws_sagemaker_labeling_job_stopping_conditions</text><path d="M393.5 1314.789h457" style="stroke:#000d19;stroke-width:1.5"/><text x="403.5" y="1333.999" fill="#D9B8FF" font-family="sans-serif" font-size="11" font-weight="bold" textLength="217">max_human_labeled_object_count</text><text x="620.5" y="1333.999" fill="#D9B8FF" font-family="sans-serif" font-size="11" textLength="36">: int64</text><text x="403.5" y="1356.804" fill="#D9B8FF" font-family="sans-serif" font-size="11" font-weight="bold" textLength="272">max_percentage_of_input_dataset_labeled</text><text x="675.5" y="1356.804" fill="#D9B8FF" font-family="sans-serif" font-size="11" textLength="36">: int64</text></a><a xlink:actuate="onRequest" xlink:href="#j" xlink:show="new" xlink:title="#aws_sagemaker_job" xlink:type="simple" target="_top"><rect id="j" width="210" height="39.789" x="1322" y="596" fill="#3D176E" rx="2.5" ry="2.5" style="stroke:#000d19;stroke-width:1.5"/><circle cx="1337" cy="615.894" r="11" fill="#E98DF7" style="stroke:#000d19;stroke-width:1"/><path d="M1339.969 621.535q-.578.297-1.219.438-.64.156-1.344.156-2.5 0-3.828-1.64-1.312-1.657-1.312-4.782t1.312-4.781q1.328-1.657 3.828-1.657.703 0 1.344.157.656.156 1.219.453v2.719q-.625-.578-1.219-.844-.594-.281-1.219-.281-1.343 0-2.031 1.078-.688 1.062-.688 3.156 0 2.094.688 3.172.688 1.062 2.031 1.062.625 0 1.219-.265.594-.282 1.219-.86v2.72Z"/><text x="1356" y="621.78" fill="#D9B8FF" font-family="Helvetica" font-size="17" textLength="168">aws_sagemaker_job</text></a><a xlink:actuate="onRequest" xlink:href="#k" xlink:show="new" xlink:title="#aws_sagemaker_label_counters" xlink:type="simple" target="_top"><rect id="k" width="306" height="161.813" x="887" y="1240.5" fill="#3D176E" rx="2.5" ry="2.5" style="stroke:#000d19;stroke-width:1.5"/><circle cx="902" cy="1260.395" r="11" fill="#E98DF7" style="stroke:#000d19;stroke-width:1"/><path d="M904.969 1266.035q-.578.297-1.219.438-.64.156-1.344.156-2.5 0-3.828-1.64-1.312-1.657-1.312-4.782t1.312-4.781q1.328-1.656 3.828-1.656.703 0 1.344.156.656.156 1.219.453v2.719q-.625-.578-1.219-.844-.594-.281-1.219-.281-1.343 0-2.031 1.078-.688 1.062-.688 3.156 0 2.094.688 3.172.688 1.062 2.031 1.062.625 0 1.219-.265.594-.281 1.219-.86v2.72Z"/><text x="921" y="1266.28" fill="#D9B8FF" font-family="Helvetica" font-size="17" textLength="264">aws_sagemaker_label_counters</text><path d="M888 1280.289h304" style="stroke:#000d19;stroke-width:1.5"/><text x="898" y="1299.499" fill="#D9B8FF" font-family="sans-serif" font-size="11" font-weight="bold" textLength="84">total_labeled</text><text x="982" y="1299.499" fill="#D9B8FF" font-family="sans-serif" font-size="11" textLength="36">: int64</text><text x="898" y="1322.304" fill="#D9B8FF" font-family="sans-serif" font-size="11" font-weight="bold" textLength="97">human_labeled</text><text x="995" y="1322.304" fill="#D9B8FF" font-family="sans-serif" font-size="11" textLength="36">: int64</text><text x="898" y="1345.109" fill="#D9B8FF" font-family="sans-serif" font-size="11" font-weight="bold" textLength="108">machine_labeled</text><text x="1006" y="1345.109" fill="#D9B8FF" font-family="sans-serif" font-size="11" textLength="36">: int64</text><text x="898" y="1367.914" fill="#D9B8FF" font-family="sans-serif" font-size="11" font-weight="bold" textLength="168">failed_non_retryable_error</text><text x="1066" y="1367.914" fill="#D9B8FF" font-family="sans-serif" font-size="11" textLength="36">: int64</text><text x="898" y="1390.718" fill="#D9B8FF" font-family="sans-serif" font-size="11" font-weight="bold" textLength="64">unlabeled</text><text x="962" y="1390.718" fill="#D9B8FF" font-family="sans-serif" font-size="11" textLength="36">: int64</text></a><a xlink:actuate="onRequest" xlink:href="#l" xlink:show="new" xlink:title="#aws_sagemaker_labeling_job_input_config" xlink:type="simple" target="_top"><rect id="l" width="397" height="93.398" x="1228.5" y="1275" fill="#3D176E" rx="2.5" ry="2.5" style="stroke:#000d19;stroke-width:1.5"/><circle cx="1243.5" cy="1294.895" r="11" fill="#E98DF7" style="stroke:#000d19;stroke-width:1"/><path d="M1246.469 1300.535q-.578.297-1.219.438-.64.156-1.344.156-2.5 0-3.828-1.64-1.312-1.657-1.312-4.782t1.312-4.781q1.328-1.656 3.828-1.656.703 0 1.344.156.656.156 1.219.453v2.719q-.625-.578-1.219-.844-.594-.281-1.219-.281-1.343 0-2.031 1.078-.688 1.062-.688 3.156 0 2.094.688 3.172.688 1.062 2.031 1.062.625 0 1.219-.265.594-.281 1.219-.86v2.72Z"/><text x="1262.5" y="1300.78" fill="#D9B8FF" font-family="Helvetica" font-size="17" textLength="355">aws_sagemaker_labeling_job_input_config</text><path d="M1229.5 1314.789h395" style="stroke:#000d19;stroke-width:1.5"/><text x="1239.5" y="1333.999" fill="#D9B8FF" font-family="sans-serif" font-size="11" font-weight="bold" textLength="78">data_source</text><text x="1317.5" y="1333.999" fill="#D9B8FF" font-family="sans-serif" font-size="11" textLength="250">: aws_sagemaker_labeling_job_data_source</text><text x="1239.5" y="1356.804" fill="#D9B8FF" font-family="sans-serif" font-size="11" font-weight="bold" textLength="98">data_attributes</text><text x="1337.5" y="1356.804" fill="#D9B8FF" font-family="sans-serif" font-size="11" textLength="49">: string[]</text></a><a xlink:actuate="onRequest" xlink:href="#m" xlink:show="new" xlink:title="#aws_sagemaker_labeling_job_output_config" xlink:type="simple" target="_top"><rect id="m" width="409" height="116.203" x="1660.5" y="1263.5" fill="#3D176E" rx="2.5" ry="2.5" style="stroke:#000d19;stroke-width:1.5"/><circle cx="1675.5" cy="1283.395" r="11" fill="#E98DF7" style="stroke:#000d19;stroke-width:1"/><path d="M1678.469 1289.035q-.578.297-1.219.438-.64.156-1.344.156-2.5 0-3.828-1.64-1.312-1.657-1.312-4.782t1.312-4.781q1.328-1.656 3.828-1.656.703 0 1.344.156.656.156 1.219.453v2.719q-.625-.578-1.219-.844-.594-.281-1.219-.281-1.343 0-2.031 1.078-.688 1.062-.688 3.156 0 2.094.688 3.172.688 1.062 2.031 1.062.625 0 1.219-.265.594-.281 1.219-.86v2.72Z"/><text x="1694.5" y="1289.28" fill="#D9B8FF" font-family="Helvetica" font-size="17" textLength="367">aws_sagemaker_labeling_job_output_config</text><path d="M1661.5 1303.289h407" style="stroke:#000d19;stroke-width:1.5"/><text x="1671.5" y="1322.499" fill="#D9B8FF" font-family="sans-serif" font-size="11" font-weight="bold" textLength="98">s3_output_path</text><text x="1769.5" y="1322.499" fill="#D9B8FF" font-family="sans-serif" font-size="11" textLength="41">: string</text><text x="1671.5" y="1345.304" fill="#D9B8FF" font-family="sans-serif" font-size="11" font-weight="bold" textLength="71">kms_key_id</text><text x="1742.5" y="1345.304" fill="#D9B8FF" font-family="sans-serif" font-size="11" textLength="41">: string</text><text x="1671.5" y="1368.109" fill="#D9B8FF" font-family="sans-serif" font-size="11" font-weight="bold" textLength="87">sns_topic_arn</text><text x="1758.5" y="1368.109" fill="#D9B8FF" font-family="sans-serif" font-size="11" textLength="41">: string</text></a><a xlink:actuate="onRequest" xlink:href="#n" xlink:show="new" xlink:title="#aws_sagemaker_labeling_job_algorithms_config" xlink:type="simple" target="_top"><rect id="n" width="479" height="116.203" x="2104.5" y="1263.5" fill="#3D176E" rx="2.5" ry="2.5" style="stroke:#000d19;stroke-width:1.5"/><circle cx="2135.7" cy="1283.395" r="11" fill="#E98DF7" style="stroke:#000d19;stroke-width:1"/><path d="M2138.669 1289.035q-.578.297-1.219.438-.64.156-1.344.156-2.5 0-3.828-1.64-1.312-1.657-1.312-4.782t1.312-4.781q1.328-1.656 3.828-1.656.703 0 1.344.156.656.156 1.219.453v2.719q-.625-.578-1.219-.844-.594-.281-1.219-.281-1.344 0-2.031 1.078-.688 1.062-.688 3.156 0 2.094.688 3.172.688 1.062 2.031 1.062.625 0 1.219-.265.594-.281 1.219-.86v2.72Z"/><text x="2158.3" y="1289.28" fill="#D9B8FF" font-family="Helvetica" font-size="17" textLength="401">aws_sagemaker_labeling_job_algorithms_config</text><path d="M2105.5 1303.289h477" style="stroke:#000d19;stroke-width:1.5"/><text x="2115.5" y="1322.499" fill="#D9B8FF" font-family="sans-serif" font-size="11" font-weight="bold" textLength="261">labeling_job_algorithm_specification_arn</text><text x="2376.5" y="1322.499" fill="#D9B8FF" font-family="sans-serif" font-size="11" textLength="41">: string</text><text x="2115.5" y="1345.304" fill="#D9B8FF" font-family="sans-serif" font-size="11" font-weight="bold" textLength="213">initial_active_learning_model_arn</text><text x="2328.5" y="1345.304" fill="#D9B8FF" font-family="sans-serif" font-size="11" textLength="41">: string</text><text x="2115.5" y="1368.109" fill="#D9B8FF" font-family="sans-serif" font-size="11" font-weight="bold" textLength="186">labeling_job_resource_config</text><text x="2301.5" y="1368.109" fill="#D9B8FF" font-family="sans-serif" font-size="11" textLength="271">: aws_sagemaker_labeling_job_resource_config</text></a><a xlink:actuate="onRequest" xlink:href="#o" xlink:show="new" xlink:title="#aws_sagemaker_labeling_job_resource_config" xlink:type="simple" target="_top"><rect id="o" width="424" height="93.398" x="2132" y="1542" fill="#3D176E" rx="2.5" ry="2.5" style="stroke:#000d19;stroke-width:1.5"/><circle cx="2147" cy="1561.895" r="11" fill="#E98DF7" style="stroke:#000d19;stroke-width:1"/><path d="M2149.969 1567.535q-.578.297-1.219.438-.64.156-1.344.156-2.5 0-3.828-1.64-1.312-1.657-1.312-4.782t1.312-4.781q1.328-1.656 3.828-1.656.703 0 1.344.156.656.156 1.219.453v2.719q-.625-.578-1.219-.844-.594-.281-1.219-.281-1.343 0-2.031 1.078-.688 1.062-.688 3.156 0 2.094.688 3.172.688 1.062 2.031 1.062.625 0 1.219-.265.594-.281 1.219-.86v2.72Z"/><text x="2166" y="1567.78" fill="#D9B8FF" font-family="Helvetica" font-size="17" textLength="382">aws_sagemaker_labeling_job_resource_config</text><path d="M2133 1581.789h422" style="stroke:#000d19;stroke-width:1.5"/><text x="2143" y="1600.999" fill="#D9B8FF" font-family="sans-serif" font-size="11" font-weight="bold" textLength="123">volume_kms_key_id</text><text x="2266" y="1600.999" fill="#D9B8FF" font-family="sans-serif" font-size="11" textLength="41">: string</text><text x="2143" y="1623.804" fill="#D9B8FF" font-family="sans-serif" font-size="11" font-weight="bold" textLength="68">vpc_config</text><text x="2211" y="1623.804" fill="#D9B8FF" font-family="sans-serif" font-size="11" textLength="166">: aws_sagemaker_vpc_config</text></a><a xlink:actuate="onRequest" xlink:href="#p" xlink:show="new" xlink:title="#aws_sagemaker_human_task_config" xlink:type="simple" target="_top"><rect id="p" width="468" height="321.445" x="2619" y="1161" fill="#3D176E" rx="2.5" ry="2.5" style="stroke:#000d19;stroke-width:1.5"/><circle cx="2690.75" cy="1180.895" r="11" fill="#E98DF7" style="stroke:#000d19;stroke-width:1"/><path d="M2693.719 1186.535q-.578.297-1.219.438-.64.156-1.344.156-2.5 0-3.828-1.64-1.312-1.657-1.312-4.782t1.312-4.781q1.328-1.656 3.828-1.656.703 0 1.344.156.656.156 1.219.453v2.719q-.625-.578-1.219-.844-.594-.281-1.219-.281-1.343 0-2.031 1.078-.688 1.062-.688 3.156 0 2.094.688 3.172.688 1.062 2.031 1.062.625 0 1.219-.265.594-.281 1.219-.86v2.72Z"/><text x="2716.25" y="1186.78" fill="#D9B8FF" font-family="Helvetica" font-size="17" textLength="306">aws_sagemaker_human_task_config</text><path d="M2620 1200.789h466" style="stroke:#000d19;stroke-width:1.5"/><text x="2630" y="1219.999" fill="#D9B8FF" font-family="sans-serif" font-size="11" font-weight="bold" textLength="90">workteam_arn</text><text x="2720" y="1219.999" fill="#D9B8FF" font-family="sans-serif" font-size="11" textLength="41">: string</text><text x="2630" y="1242.804" fill="#D9B8FF" font-family="sans-serif" font-size="11" font-weight="bold" textLength="58">ui_config</text><text x="2688" y="1242.804" fill="#D9B8FF" font-family="sans-serif" font-size="11" textLength="157">: aws_sagemaker_ui_config</text><text x="2630" y="1265.609" fill="#D9B8FF" font-family="sans-serif" font-size="11" font-weight="bold" textLength="183">pre_human_task_lambda_arn</text><text x="2813" y="1265.609" fill="#D9B8FF" font-family="sans-serif" font-size="11" textLength="41">: string</text><text x="2630" y="1288.414" fill="#D9B8FF" font-family="sans-serif" font-size="11" font-weight="bold" textLength="94">task_keywords</text><text x="2724" y="1288.414" fill="#D9B8FF" font-family="sans-serif" font-size="11" textLength="49">: string[]</text><text x="2630" y="1311.218" fill="#D9B8FF" font-family="sans-serif" font-size="11" font-weight="bold" textLength="59">task_title</text><text x="2689" y="1311.218" fill="#D9B8FF" font-family="sans-serif" font-size="11" textLength="41">: string</text><text x="2630" y="1334.023" fill="#D9B8FF" font-family="sans-serif" font-size="11" font-weight="bold" textLength="105">task_description</text><text x="2735" y="1334.023" fill="#D9B8FF" font-family="sans-serif" font-size="11" textLength="41">: string</text><text x="2630" y="1356.828" fill="#D9B8FF" font-family="sans-serif" font-size="11" font-weight="bold" textLength="281">number_of_human_workers_per_data_object</text><text x="2911" y="1356.828" fill="#D9B8FF" font-family="sans-serif" font-size="11" textLength="36">: int64</text><text x="2630" y="1379.632" fill="#D9B8FF" font-family="sans-serif" font-size="11" font-weight="bold" textLength="172">task_time_limit_in_seconds</text><text x="2802" y="1379.632" fill="#D9B8FF" font-family="sans-serif" font-size="11" textLength="36">: int64</text><text x="2630" y="1402.437" fill="#D9B8FF" font-family="sans-serif" font-size="11" font-weight="bold" textLength="236">task_availability_lifetime_in_seconds</text><text x="2866" y="1402.437" fill="#D9B8FF" font-family="sans-serif" font-size="11" textLength="36">: int64</text><text x="2630" y="1425.242" fill="#D9B8FF" font-family="sans-serif" font-size="11" font-weight="bold" textLength="176">max_concurrent_task_count</text><text x="2806" y="1425.242" fill="#D9B8FF" font-family="sans-serif" font-size="11" textLength="36">: int64</text><text x="2630" y="1448.046" fill="#D9B8FF" font-family="sans-serif" font-size="11" font-weight="bold" textLength="209">annotation_consolidation_config</text><text x="2839" y="1448.046" fill="#D9B8FF" font-family="sans-serif" font-size="11" textLength="41">: string</text><text x="2630" y="1470.851" fill="#D9B8FF" font-family="sans-serif" font-size="11" font-weight="bold" textLength="180">public_workforce_task_price</text><text x="2810" y="1470.851" fill="#D9B8FF" font-family="sans-serif" font-size="11" textLength="266">: aws_sagemaker_public_workforce_task_price</text></a><a xlink:actuate="onRequest" xlink:href="#q" xlink:show="new" xlink:title="#aws_sagemaker_ui_config" xlink:type="simple" target="_top"><rect id="q" width="260" height="93.398" x="3071" y="1542" fill="#3D176E" rx="2.5" ry="2.5" style="stroke:#000d19;stroke-width:1.5"/><circle cx="3086" cy="1561.895" r="11" fill="#E98DF7" style="stroke:#000d19;stroke-width:1"/><path d="M3088.969 1567.535q-.578.297-1.219.438-.64.156-1.344.156-2.5 0-3.828-1.64-1.312-1.657-1.312-4.782t1.312-4.781q1.328-1.656 3.828-1.656.703 0 1.344.156.656.156 1.219.453v2.719q-.625-.578-1.219-.844-.594-.281-1.219-.281-1.343 0-2.031 1.078-.688 1.062-.688 3.156 0 2.094.688 3.172.688 1.062 2.031 1.062.625 0 1.219-.265.594-.281 1.219-.86v2.72Z"/><text x="3105" y="1567.78" fill="#D9B8FF" font-family="Helvetica" font-size="17" textLength="218">aws_sagemaker_ui_config</text><path d="M3072 1581.789h258" style="stroke:#000d19;stroke-width:1.5"/><text x="3082" y="1600.999" fill="#D9B8FF" font-family="sans-serif" font-size="11" font-weight="bold" textLength="119">ui_template_s3_uri</text><text x="3201" y="1600.999" fill="#D9B8FF" font-family="sans-serif" font-size="11" textLength="41">: string</text><text x="3082" y="1623.804" fill="#D9B8FF" font-family="sans-serif" font-size="11" font-weight="bold" textLength="121">human_task_ui_arn</text><text x="3203" y="1623.804" fill="#D9B8FF" font-family="sans-serif" font-size="11" textLength="41">: string</text></a><path fill="none" d="M1427 303.43V403.9m-7-100.64 7-20 7 20h-14zm1406 1321.1v65.19" style="stroke:#ffaf37;stroke-width:2"/><path fill="#FFAF37" d="m2826 1694.83 4-9-4 4-4-4 4 9z" style="stroke:#ffaf37;stroke-width:2"/><path fill="none" d="M1427 656.64V756.7m-7-100.25 7-20 7 20h-14zm-162.74 444.83c-46.53 46.95-94.92 95.78-134.19 135.4" style="stroke:#ffaf37;stroke-width:2"/><path fill="#FFAF37" d="m1119.3 1240.49 9.178-3.573-5.657.023-.023-5.657-3.498 9.207z" style="stroke:#ffaf37;stroke-width:2"/><path fill="none" d="M1427 1101.28v168.3" style="stroke:#ffaf37;stroke-width:2"/><path fill="#FFAF37" d="m1427 1274.72 4-9-4 4-4-4 4 9z" style="stroke:#ffaf37;stroke-width:2"/><path fill="none" d="M1619.11 1101.28c63.5 56.61 130.05 115.94 177.88 158.59" style="stroke:#ffaf37;stroke-width:2"/><path fill="#FFAF37" d="m1800.98 1263.42-4.05-8.978.32 5.648-5.648.32 9.378 3.01z" style="stroke:#ffaf37;stroke-width:2"/><path fill="none" d="M1162.77 1027.99c-94.4 37.96-200.45 84.08-293.77 133.01-62.97 33.02-130.54 77.33-179.07 110.87" style="stroke:#ffaf37;stroke-width:2"/><path fill="#FFAF37" d="m685.59 1274.87 9.675-1.841-5.566-1.008 1.008-5.566-5.117 8.415z" style="stroke:#ffaf37;stroke-width:2"/><path fill="none" d="M1691.28 1007.83c122.84 39.86 269.36 92.74 395.72 153.17 59.44 28.42 122.34 67.3 171.04 99.55" style="stroke:#ffaf37;stroke-width:2"/><path fill="#FFAF37" d="m2262.41 1263.45-5.27-8.32 1.11 5.546-5.547 1.11 9.707 1.664z" style="stroke:#ffaf37;stroke-width:2"/><path fill="none" d="M1691.06 953.79c243.26 28.41 610.72 87.95 909.94 207.21 4.33 1.72 8.66 3.52 13 5.39" style="stroke:#ffaf37;stroke-width:2"/><path fill="#FFAF37" d="m2618.7 1168.45-6.65-7.264 2.067 5.265-5.266 2.067 9.849-.068z" style="stroke:#ffaf37;stroke-width:2"/><path fill="none" d="M1162.76 953.1C942.87 980.34 626.31 1038.55 375 1161c-55.99 27.28-109.76 73.99-146.26 109.83" style="stroke:#ffaf37;stroke-width:2"/><path fill="#FFAF37" d="m224.82 1274.7 9.214-3.48-5.657-.034.034-5.657-3.591 9.171z" style="stroke:#ffaf37;stroke-width:2"/><path fill="none" d="M1427 495.52v100.3m-7-100.43 7-20 7 20h-14zm7 872.67v168.36" style="stroke:#ffaf37;stroke-width:2"/><path fill="#FFAF37" d="m1427 1541.65 4-9-4 4-4-4 4 9z" style="stroke:#ffaf37;stroke-width:2"/><path fill="none" d="M2344 1379.67v157.09" style="stroke:#ffaf37;stroke-width:2"/><path fill="#FFAF37" d="m2344 1541.86 4-9-4 4-4-4 4 9z" style="stroke:#ffaf37;stroke-width:2"/><path fill="none" d="M2344 1635.2v66.14" style="stroke:#ffaf37;stroke-width:2"/><path fill="#FFAF37" d="m2344 1706.36 4-9-4 4-4-4 4 9z" style="stroke:#ffaf37;stroke-width:2"/><path fill="none" d="M3062.46 1482c26.97 20.54 52.75 40.17 74.6 56.81" style="stroke:#ffaf37;stroke-width:2"/><path fill="#FFAF37" d="m3141.09 1541.88-4.746-8.63.765 5.605-5.605.765 9.586 2.26z" style="stroke:#ffaf37;stroke-width:2"/><path fill="none" d="M2836.75 1482c-2.47 24.25-4.81 47.24-6.68 65.53" style="stroke:#ffaf37;stroke-width:2"/><path fill="#FFAF37" d="m2829.56 1552.56 4.88-8.554-4.38 3.58-3.58-4.381 3.08 9.355z" style="stroke:#ffaf37;stroke-width:2"/></svg>