<svg xmlns="http://www.w3.org/2000/svg" xmlns:xlink="http://www.w3.org/1999/xlink" width="977" height="352" preserveAspectRatio="none" style="width:977px;height:352px;background:#00000000"><a xlink:actuate="onRequest" xlink:href="#a" xlink:show="new" xlink:title="#aws_api_gateway_authorizer" xlink:type="simple" target="_top"><rect id="a" width="285" height="39.789" x="149.79" y="207" fill="#3D176E" rx="2.5" ry="2.5" style="stroke:#000d19;stroke-width:1.5"/><circle cx="164.79" cy="226.894" r="11" fill="#E98DF7" style="stroke:#000d19;stroke-width:1"/><path d="M167.759 232.535q-.578.297-1.219.438-.64.156-1.344.156-2.5 0-3.828-1.64-1.312-1.657-1.312-4.782t1.312-4.781q1.328-1.656 3.828-1.656.703 0 1.344.156.656.156 1.219.453v2.719q-.625-.579-1.219-.844-.594-.281-1.219-.281-1.344 0-2.031 1.078-.688 1.062-.688 3.156 0 2.094.688 3.172.688 1.062 2.031 1.062.625 0 1.219-.265.594-.281 1.219-.86v2.72Z"/><text x="183.79" y="232.78" fill="#D9B8FF" font-family="Helvetica" font-size="17" textLength="243">aws_api_gateway_authorizer</text></a><a xlink:actuate="onRequest" xlink:href="#b" xlink:show="new" xlink:title="#aws_vpc_endpoint" xlink:type="simple" target="_top"><rect id="b" width="195" height="39.789" x="64.79" y="107" fill="#3D176E" rx="2.5" ry="2.5" style="stroke:#000d19;stroke-width:1.5"/><circle cx="79.79" cy="126.894" r="11" fill="#E98DF7" style="stroke:#000d19;stroke-width:1"/><path d="M82.759 132.535q-.578.297-1.219.438-.64.156-1.344.156-2.5 0-3.828-1.64-1.312-1.657-1.312-4.782t1.312-4.781q1.328-1.657 3.828-1.657.703 0 1.344.157.656.156 1.219.453v2.719q-.625-.579-1.219-.844-.594-.281-1.219-.281-1.343 0-2.031 1.078-.688 1.062-.688 3.156 0 2.094.688 3.172.688 1.062 2.031 1.062.625 0 1.219-.265.594-.281 1.219-.86v2.72Z"/><text x="98.79" y="132.78" fill="#D9B8FF" font-family="Helvetica" font-size="17" textLength="153">aws_vpc_endpoint</text></a><a xlink:actuate="onRequest" xlink:href="#c" xlink:show="new" xlink:title="#aws_lambda_function" xlink:type="simple" target="_top"><rect id="c" width="224" height="39.789" x="376.29" y="307" fill="#3D176E" rx="2.5" ry="2.5" style="stroke:#000d19;stroke-width:1.5"/><circle cx="391.29" cy="326.894" r="11" fill="#E98DF7" style="stroke:#000d19;stroke-width:1"/><path d="M394.259 332.535q-.578.297-1.219.438-.64.156-1.344.156-2.5 0-3.828-1.64-1.312-1.657-1.312-4.782t1.312-4.781q1.328-1.656 3.828-1.656.703 0 1.344.156.656.156 1.219.453v2.719q-.625-.579-1.219-.844-.594-.281-1.219-.281-1.344 0-2.031 1.078-.688 1.062-.688 3.156 0 2.094.688 3.172.688 1.062 2.031 1.062.625 0 1.219-.265.594-.281 1.219-.86v2.72Z"/><text x="410.29" y="332.78" fill="#D9B8FF" font-family="Helvetica" font-size="17" textLength="182">aws_lambda_function</text></a><a xlink:actuate="onRequest" xlink:href="#d" xlink:show="new" xlink:title="#aws_api_gateway_resource" xlink:type="simple" target="_top"><rect id="d" width="270" height="39.789" x="295.29" y="107" fill="#3D176E" rx="2.5" ry="2.5" style="stroke:#000d19;stroke-width:1.5"/><circle cx="310.29" cy="126.894" r="11" fill="#E98DF7" style="stroke:#000d19;stroke-width:1"/><path d="M313.259 132.535q-.578.297-1.219.438-.64.156-1.344.156-2.5 0-3.828-1.64-1.312-1.657-1.312-4.782t1.312-4.781q1.328-1.657 3.828-1.657.703 0 1.344.157.656.156 1.219.453v2.719q-.625-.579-1.219-.844-.594-.281-1.219-.281-1.344 0-2.031 1.078-.688 1.062-.688 3.156 0 2.094.688 3.172.688 1.062 2.031 1.062.625 0 1.219-.265.594-.281 1.219-.86v2.72Z"/><text x="329.29" y="132.78" fill="#D9B8FF" font-family="Helvetica" font-size="17" textLength="228">aws_api_gateway_resource</text></a><a xlink:actuate="onRequest" xlink:href="#e" xlink:show="new" xlink:title="#aws_api_gateway_rest_api" xlink:type="simple" target="_top"><rect id="e" width="265" height="39.789" x="297.79" y="7" fill="#3D176E" rx="2.5" ry="2.5" style="stroke:#000d19;stroke-width:1.5"/><circle cx="312.79" cy="26.895" r="11" fill="#E98DF7" style="stroke:#000d19;stroke-width:1"/><path d="M315.759 32.535q-.578.297-1.219.438-.64.156-1.344.156-2.5 0-3.828-1.64-1.312-1.657-1.312-4.782t1.312-4.781q1.328-1.656 3.828-1.656.703 0 1.344.156.656.156 1.219.453v2.719q-.625-.578-1.219-.844-.594-.281-1.219-.281-1.344 0-2.031 1.078-.688 1.062-.688 3.156 0 2.094.688 3.172.688 1.062 2.031 1.062.625 0 1.219-.265.594-.281 1.219-.86v2.72Z"/><text x="331.79" y="32.78" fill="#D9B8FF" font-family="Helvetica" font-size="17" textLength="223">aws_api_gateway_rest_api</text></a><a xlink:actuate="onRequest" xlink:href="#f" xlink:show="new" xlink:title="#aws_api_gateway_deployment" xlink:type="simple" target="_top"><rect id="f" width="299" height="39.789" x="671.79" y="107" fill="#3D176E" rx="2.5" ry="2.5" style="stroke:#000d19;stroke-width:1.5"/><circle cx="686.79" cy="126.894" r="11" fill="#E98DF7" style="stroke:#000d19;stroke-width:1"/><path d="M689.759 132.535q-.578.297-1.219.438-.64.156-1.344.156-2.5 0-3.828-1.64-1.312-1.657-1.312-4.782t1.312-4.781q1.328-1.657 3.828-1.657.703 0 1.344.157.656.156 1.219.453v2.719q-.625-.579-1.219-.844-.594-.281-1.219-.281-1.344 0-2.031 1.078-.688 1.062-.688 3.156 0 2.094.688 3.172.688 1.062 2.031 1.062.625 0 1.219-.265.594-.281 1.219-.86v2.72Z"/><text x="705.79" y="132.78" fill="#D9B8FF" font-family="Helvetica" font-size="17" textLength="257">aws_api_gateway_deployment</text></a><path fill="none" d="M330.54 247.13c33.06 16.52 80.77 40.38 115.05 57.52" style="stroke:#1a83af;stroke-width:2"/><path fill="#1A83AF" d="m450.13 306.92-6.251-7.61 1.782 5.368-5.37 1.782 9.839.46z" style="stroke:#1a83af;stroke-width:2"/><path fill="none" d="M403.35 147.13c-22.98 16.32-56.04 39.8-80.11 56.89" style="stroke:#1a83af;stroke-width:2"/><path fill="#1A83AF" d="m319.15 206.92 9.656-1.94-5.577-.951.95-5.577-5.029 8.468z" style="stroke:#1a83af;stroke-width:2"/><path fill="none" d="M435.95 147.35c10.64 36.32 33.58 114.62 45.23 154.4" style="stroke:#1a83af;stroke-width:2"/><path fill="#1A83AF" d="m482.68 306.87 1.32-9.76-2.72 4.96-4.96-2.72 6.36 7.52z" style="stroke:#1a83af;stroke-width:2"/><path fill="none" d="M297.76 37.78C200 48.08 78.75 68.38 47.29 107 6 157.67 80.72 188.31 158.2 205.79" style="stroke:#1a83af;stroke-width:2"/><path fill="#1A83AF" d="m163.31 206.92-7.914-5.862 3.034 4.774-4.775 3.034 9.655-1.946z" style="stroke:#1a83af;stroke-width:2"/><path fill="none" d="M378.3 47.01c-45.62 16.68-111.85 40.9-158.93 58.12" style="stroke:#1a83af;stroke-width:2"/><path fill="#1A83AF" d="m214.59 106.87 9.826.674-5.129-2.387 2.387-5.129-7.084 6.842z" style="stroke:#1a83af;stroke-width:2"/><path fill="none" d="M430.29 47.36v54.3" style="stroke:#1a83af;stroke-width:2"/><path fill="#1A83AF" d="m430.29 106.68 4-9-4 4-4-4 4 9z" style="stroke:#1a83af;stroke-width:2"/><path fill="none" d="M502.07 47.05c30.27 11.97 62.54 30.84 80.22 59.95 40.77 67.15-30.65 155.17-70.27 196.15" style="stroke:#1a83af;stroke-width:2"/><path fill="#1A83AF" d="m508.29 306.97 9.156-3.628-5.656.057-.058-5.657-3.442 9.228z" style="stroke:#1a83af;stroke-width:2"/><path fill="none" d="M506.14 47.01c67.34 16.88 165.45 41.47 234.27 58.72" style="stroke:#1a83af;stroke-width:2"/><path fill="#1A83AF" d="m745.31 106.96-7.761-6.063 2.91 4.85-4.85 2.91 9.701-1.697z" style="stroke:#1a83af;stroke-width:2"/></svg>