<svg xmlns="http://www.w3.org/2000/svg" xmlns:xlink="http://www.w3.org/1999/xlink" width="4144" height="1618" preserveAspectRatio="none" style="width:4144px;height:1618px;background:#00000000"><a xlink:actuate="onRequest" xlink:href="#a" xlink:show="new" xlink:title="#resource" xlink:type="simple" target="_top"><rect id="a" width="195" height="275.836" x="1890.59" y="7" fill="#3D176E" rx="2.5" ry="2.5" style="stroke:#000d19;stroke-width:1.5"/><circle cx="1943.34" cy="26.895" r="11" fill="#E98DF7" style="stroke:#000d19;stroke-width:1"/><path d="M1946.309 32.535q-.578.297-1.219.438-.64.156-1.344.156-2.5 0-3.828-1.64-1.312-1.657-1.312-4.782t1.312-4.781q1.328-1.656 3.828-1.656.703 0 1.344.156.656.156 1.219.453v2.719q-.625-.578-1.219-.844-.594-.281-1.219-.281-1.344 0-2.031 1.078-.688 1.062-.688 3.156 0 2.094.688 3.172.688 1.062 2.031 1.062.625 0 1.219-.265.594-.281 1.219-.86v2.72Z"/><text x="1968.84" y="32.78" fill="#D9B8FF" font-family="Helvetica" font-size="17" textLength="71">resource</text><path d="M1891.59 46.789h193" style="stroke:#000d19;stroke-width:1.5"/><text x="1901.59" y="65.999" fill="#D9B8FF" font-family="sans-serif" font-size="11" font-weight="bold" textLength="12">id</text><text x="1913.59" y="65.999" fill="#D9B8FF" font-family="sans-serif" font-size="11" textLength="41">: string</text><text x="1901.59" y="88.804" fill="#D9B8FF" font-family="sans-serif" font-size="11" font-weight="bold" textLength="28">tags</text><text x="1929.59" y="88.804" fill="#D9B8FF" font-family="sans-serif" font-size="11" textLength="145">: dictionary[string, string]</text><text x="1901.59" y="111.609" fill="#D9B8FF" font-family="sans-serif" font-size="11" font-weight="bold" textLength="35">name</text><text x="1936.59" y="111.609" fill="#D9B8FF" font-family="sans-serif" font-size="11" textLength="41">: string</text><text x="1901.59" y="134.414" fill="#D9B8FF" font-family="sans-serif" font-size="11" font-weight="bold" textLength="35">ctime</text><text x="1936.59" y="134.414" fill="#D9B8FF" font-family="sans-serif" font-size="11" textLength="58">: datetime</text><text x="1901.59" y="157.218" fill="#D9B8FF" font-family="sans-serif" font-size="11" font-weight="bold" textLength="24">age</text><text x="1925.59" y="157.218" fill="#D9B8FF" font-family="sans-serif" font-size="11" textLength="55">: duration</text><text x="1901.59" y="180.023" fill="#D9B8FF" font-family="sans-serif" font-size="11" font-weight="bold" textLength="39">mtime</text><text x="1940.59" y="180.023" fill="#D9B8FF" font-family="sans-serif" font-size="11" textLength="58">: datetime</text><text x="1901.59" y="202.828" fill="#D9B8FF" font-family="sans-serif" font-size="11" font-weight="bold" textLength="75">last_update</text><text x="1976.59" y="202.828" fill="#D9B8FF" font-family="sans-serif" font-size="11" textLength="55">: duration</text><text x="1901.59" y="225.632" fill="#D9B8FF" font-family="sans-serif" font-size="11" font-weight="bold" textLength="36">atime</text><text x="1937.59" y="225.632" fill="#D9B8FF" font-family="sans-serif" font-size="11" textLength="58">: datetime</text><text x="1901.59" y="248.437" fill="#D9B8FF" font-family="sans-serif" font-size="11" font-weight="bold" textLength="74">last_access</text><text x="1975.59" y="248.437" fill="#D9B8FF" font-family="sans-serif" font-size="11" textLength="55">: duration</text><text x="1901.59" y="271.242" fill="#D9B8FF" font-family="sans-serif" font-size="11" font-weight="bold" textLength="27">kind</text><text x="1928.59" y="271.242" fill="#D9B8FF" font-family="sans-serif" font-size="11" textLength="41">: string</text></a><a xlink:actuate="onRequest" xlink:href="#b" xlink:show="new" xlink:title="#aws_resource" xlink:type="simple" target="_top"><rect id="b" width="155" height="70.594" x="1910.59" y="404" fill="#3D176E" rx="2.5" ry="2.5" style="stroke:#000d19;stroke-width:1.5"/><circle cx="1925.59" cy="423.894" r="11" fill="#E98DF7" style="stroke:#000d19;stroke-width:1"/><path d="M1928.559 429.535q-.578.297-1.219.438-.64.156-1.344.156-2.5 0-3.828-1.64-1.312-1.657-1.312-4.782t1.312-4.781q1.328-1.656 3.828-1.656.703 0 1.344.156.656.156 1.219.453v2.719q-.625-.579-1.219-.844-.594-.281-1.219-.281-1.344 0-2.031 1.078-.688 1.062-.688 3.156 0 2.094.688 3.172.688 1.062 2.031 1.062.625 0 1.219-.265.594-.281 1.219-.86v2.72Z"/><text x="1944.59" y="429.78" fill="#D9B8FF" font-family="Helvetica" font-size="17" textLength="113">aws_resource</text><path d="M1911.59 443.789h153" style="stroke:#000d19;stroke-width:1.5"/><text x="1921.59" y="463" fill="#D9B8FF" font-family="sans-serif" font-size="11" font-weight="bold" textLength="21">arn</text><text x="1942.59" y="463" fill="#D9B8FF" font-family="sans-serif" font-size="11" textLength="41">: string</text></a><a xlink:actuate="onRequest" xlink:href="#c" xlink:show="new" xlink:title="#aws_dynamo_db_key_schema_element" xlink:type="simple" target="_top"><rect id="c" width="372" height="93.398" x="149.09" y="1484.5" fill="#3D176E" rx="2.5" ry="2.5" style="stroke:#000d19;stroke-width:1.5"/><circle cx="164.09" cy="1504.395" r="11" fill="#E98DF7" style="stroke:#000d19;stroke-width:1"/><path d="M167.059 1510.035q-.578.297-1.219.438-.64.156-1.344.156-2.5 0-3.828-1.64-1.312-1.657-1.312-4.782t1.312-4.781q1.328-1.656 3.828-1.656.703 0 1.344.156.656.156 1.219.453v2.719q-.625-.578-1.219-.844-.594-.281-1.219-.281-1.344 0-2.031 1.078-.688 1.062-.688 3.156 0 2.094.688 3.172.688 1.062 2.031 1.062.625 0 1.219-.265.594-.281 1.219-.86v2.72Z"/><text x="183.09" y="1510.28" fill="#D9B8FF" font-family="Helvetica" font-size="17" textLength="330">aws_dynamo_db_key_schema_element</text><path d="M150.09 1524.289h370" style="stroke:#000d19;stroke-width:1.5"/><text x="160.09" y="1543.499" fill="#D9B8FF" font-family="sans-serif" font-size="11" font-weight="bold" textLength="97">attribute_name</text><text x="257.09" y="1543.499" fill="#D9B8FF" font-family="sans-serif" font-size="11" textLength="41">: string</text><text x="160.09" y="1566.304" fill="#D9B8FF" font-family="sans-serif" font-size="11" font-weight="bold" textLength="56">key_type</text><text x="216.09" y="1566.304" fill="#D9B8FF" font-family="sans-serif" font-size="11" textLength="41">: string</text></a><a xlink:actuate="onRequest" xlink:href="#d" xlink:show="new" xlink:title="#aws_dynamo_db_table" xlink:type="simple" target="_top"><rect id="d" width="582" height="481.078" x="1697.09" y="596" fill="#3D176E" rx="2.5" ry="2.5" style="stroke:#000d19;stroke-width:1.5"/><circle cx="1883.84" cy="615.894" r="11" fill="#E98DF7" style="stroke:#000d19;stroke-width:1"/><path d="M1886.809 621.535q-.578.297-1.219.438-.64.156-1.344.156-2.5 0-3.828-1.64-1.312-1.657-1.312-4.782t1.312-4.781q1.328-1.657 3.828-1.657.703 0 1.344.157.656.156 1.219.453v2.719q-.625-.578-1.219-.844-.594-.281-1.219-.281-1.344 0-2.031 1.078-.688 1.062-.688 3.156 0 2.094.688 3.172.688 1.062 2.031 1.062.625 0 1.219-.265.594-.282 1.219-.86v2.72Z"/><text x="1909.34" y="621.78" fill="#D9B8FF" font-family="Helvetica" font-size="17" textLength="190">aws_dynamo_db_table</text><path d="M1698.09 635.789h580" style="stroke:#000d19;stroke-width:1.5"/><text x="1708.09" y="655" fill="#D9B8FF" font-family="sans-serif" font-size="11" font-weight="bold" textLength="21">arn</text><text x="1729.09" y="655" fill="#D9B8FF" font-family="sans-serif" font-size="11" textLength="41">: string</text><text x="1708.09" y="677.804" fill="#D9B8FF" font-family="sans-serif" font-size="11" font-weight="bold" textLength="203">dynamodb_attribute_definitions</text><text x="1911.09" y="677.804" fill="#D9B8FF" font-family="sans-serif" font-size="11" textLength="222">: aws_dynamo_db_attribute_definition[]</text><text x="1708.09" y="700.609" fill="#D9B8FF" font-family="sans-serif" font-size="11" font-weight="bold" textLength="149">dynamodb_key_schema</text><text x="1857.09" y="700.609" fill="#D9B8FF" font-family="sans-serif" font-size="11" textLength="238">: aws_dynamo_db_key_schema_element[]</text><text x="1708.09" y="723.414" fill="#D9B8FF" font-family="sans-serif" font-size="11" font-weight="bold" textLength="151">dynamodb_table_status</text><text x="1859.09" y="723.414" fill="#D9B8FF" font-family="sans-serif" font-size="11" textLength="41">: string</text><text x="1708.09" y="746.218" fill="#D9B8FF" font-family="sans-serif" font-size="11" font-weight="bold" textLength="224">dynamodb_provisioned_throughput</text><text x="1932.09" y="746.218" fill="#D9B8FF" font-family="sans-serif" font-size="11" textLength="311">: aws_dynamo_db_provisioned_throughput_description</text><text x="1708.09" y="769.023" fill="#D9B8FF" font-family="sans-serif" font-size="11" font-weight="bold" textLength="178">dynamodb_table_size_bytes</text><text x="1886.09" y="769.023" fill="#D9B8FF" font-family="sans-serif" font-size="11" textLength="36">: int64</text><text x="1708.09" y="791.828" fill="#D9B8FF" font-family="sans-serif" font-size="11" font-weight="bold" textLength="142">dynamodb_item_count</text><text x="1850.09" y="791.828" fill="#D9B8FF" font-family="sans-serif" font-size="11" textLength="36">: int64</text><text x="1708.09" y="814.632" fill="#D9B8FF" font-family="sans-serif" font-size="11" font-weight="bold" textLength="216">dynamodb_billing_mode_summary</text><text x="1924.09" y="814.632" fill="#D9B8FF" font-family="sans-serif" font-size="11" textLength="239">: aws_dynamo_db_billing_mode_summary</text><text x="1708.09" y="837.437" fill="#D9B8FF" font-family="sans-serif" font-size="11" font-weight="bold" textLength="231">dynamodb_local_secondary_indexes</text><text x="1939.09" y="837.437" fill="#D9B8FF" font-family="sans-serif" font-size="11" textLength="312">: aws_dynamo_db_local_secondary_index_description[]</text><text x="1708.09" y="860.242" fill="#D9B8FF" font-family="sans-serif" font-size="11" font-weight="bold" textLength="240">dynamodb_global_secondary_indexes</text><text x="1948.09" y="860.242" fill="#D9B8FF" font-family="sans-serif" font-size="11" textLength="320">: aws_dynamo_db_global_secondary_index_description[]</text><text x="1708.09" y="883.046" fill="#D9B8FF" font-family="sans-serif" font-size="11" font-weight="bold" textLength="205">dynamodb_stream_specification</text><text x="1913.09" y="883.046" fill="#D9B8FF" font-family="sans-serif" font-size="11" textLength="226">: aws_dynamo_db_stream_specification</text><text x="1708.09" y="905.851" fill="#D9B8FF" font-family="sans-serif" font-size="11" font-weight="bold" textLength="197">dynamodb_latest_stream_label</text><text x="1905.09" y="905.851" fill="#D9B8FF" font-family="sans-serif" font-size="11" textLength="41">: string</text><text x="1708.09" y="928.656" fill="#D9B8FF" font-family="sans-serif" font-size="11" font-weight="bold" textLength="186">dynamodb_latest_stream_arn</text><text x="1894.09" y="928.656" fill="#D9B8FF" font-family="sans-serif" font-size="11" textLength="41">: string</text><text x="1708.09" y="951.46" fill="#D9B8FF" font-family="sans-serif" font-size="11" font-weight="bold" textLength="204">dynamodb_global_table_version</text><text x="1912.09" y="951.46" fill="#D9B8FF" font-family="sans-serif" font-size="11" textLength="41">: string</text><text x="1708.09" y="974.265" fill="#D9B8FF" font-family="sans-serif" font-size="11" font-weight="bold" textLength="123">dynamodb_replicas</text><text x="1831.09" y="974.265" fill="#D9B8FF" font-family="sans-serif" font-size="11" textLength="223">: aws_dynamo_db_replica_description[]</text><text x="1708.09" y="997.07" fill="#D9B8FF" font-family="sans-serif" font-size="11" font-weight="bold" textLength="181">dynamodb_restore_summary</text><text x="1889.09" y="997.07" fill="#D9B8FF" font-family="sans-serif" font-size="11" textLength="210">: aws_dynamo_db_restore_summary</text><text x="1708.09" y="1019.875" fill="#D9B8FF" font-family="sans-serif" font-size="11" font-weight="bold" textLength="172">dynamodb_sse_description</text><text x="1880.09" y="1019.875" fill="#D9B8FF" font-family="sans-serif" font-size="11" textLength="198">: aws_dynamo_db_sse_description</text><text x="1708.09" y="1042.679" fill="#D9B8FF" font-family="sans-serif" font-size="11" font-weight="bold" textLength="186">dynamodb_archival_summary</text><text x="1894.09" y="1042.679" fill="#D9B8FF" font-family="sans-serif" font-size="11" textLength="212">: aws_dynamo_db_archival_summary</text><text x="1708.09" y="1065.484" fill="#D9B8FF" font-family="sans-serif" font-size="11" font-weight="bold" textLength="207">dynamodb_table_class_summary</text><text x="1915.09" y="1065.484" fill="#D9B8FF" font-family="sans-serif" font-size="11" textLength="232">: aws_dynamo_db_table_class_summary</text></a><a xlink:actuate="onRequest" xlink:href="#e" xlink:show="new" xlink:title="#aws_dynamo_db_attribute_definition" xlink:type="simple" target="_top"><rect id="e" width="353" height="93.398" x="1202.59" y="1217" fill="#3D176E" rx="2.5" ry="2.5" style="stroke:#000d19;stroke-width:1.5"/><circle cx="1217.59" cy="1236.895" r="11" fill="#E98DF7" style="stroke:#000d19;stroke-width:1"/><path d="M1220.559 1242.535q-.578.297-1.219.438-.64.156-1.344.156-2.5 0-3.828-1.64-1.312-1.657-1.312-4.782t1.312-4.781q1.328-1.656 3.828-1.656.703 0 1.344.156.656.156 1.219.453v2.719q-.625-.578-1.219-.844-.594-.281-1.219-.281-1.344 0-2.031 1.078-.688 1.062-.688 3.156 0 2.094.688 3.172.688 1.062 2.031 1.062.625 0 1.219-.265.594-.281 1.219-.86v2.72Z"/><text x="1236.59" y="1242.78" fill="#D9B8FF" font-family="Helvetica" font-size="17" textLength="311">aws_dynamo_db_attribute_definition</text><path d="M1203.59 1256.789h351" style="stroke:#000d19;stroke-width:1.5"/><text x="1213.59" y="1275.999" fill="#D9B8FF" font-family="sans-serif" font-size="11" font-weight="bold" textLength="97">attribute_name</text><text x="1310.59" y="1275.999" fill="#D9B8FF" font-family="sans-serif" font-size="11" textLength="41">: string</text><text x="1213.59" y="1298.804" fill="#D9B8FF" font-family="sans-serif" font-size="11" font-weight="bold" textLength="90">attribute_type</text><text x="1303.59" y="1298.804" fill="#D9B8FF" font-family="sans-serif" font-size="11" textLength="41">: string</text></a><a xlink:actuate="onRequest" xlink:href="#f" xlink:show="new" xlink:title="#aws_dynamo_db_provisioned_throughput_description" xlink:type="simple" target="_top"><rect id="f" width="490" height="161.813" x="885.09" y="1450" fill="#3D176E" rx="2.5" ry="2.5" style="stroke:#000d19;stroke-width:1.5"/><circle cx="900.09" cy="1469.895" r="11" fill="#E98DF7" style="stroke:#000d19;stroke-width:1"/><path d="M903.059 1475.535q-.578.297-1.219.438-.64.156-1.344.156-2.5 0-3.828-1.64-1.312-1.657-1.312-4.782t1.312-4.781q1.328-1.656 3.828-1.656.703 0 1.344.156.656.156 1.219.453v2.719q-.625-.578-1.219-.844-.594-.281-1.219-.281-1.343 0-2.031 1.078-.688 1.062-.688 3.156 0 2.094.688 3.172.688 1.062 2.031 1.062.625 0 1.219-.265.594-.281 1.219-.86v2.72Z"/><text x="919.09" y="1475.78" fill="#D9B8FF" font-family="Helvetica" font-size="17" textLength="448">aws_dynamo_db_provisioned_throughput_description</text><path d="M886.09 1489.789h488" style="stroke:#000d19;stroke-width:1.5"/><text x="896.09" y="1508.999" fill="#D9B8FF" font-family="sans-serif" font-size="11" font-weight="bold" textLength="154">last_increase_date_time</text><text x="1050.09" y="1508.999" fill="#D9B8FF" font-family="sans-serif" font-size="11" textLength="58">: datetime</text><text x="896.09" y="1531.804" fill="#D9B8FF" font-family="sans-serif" font-size="11" font-weight="bold" textLength="158">last_decrease_date_time</text><text x="1054.09" y="1531.804" fill="#D9B8FF" font-family="sans-serif" font-size="11" textLength="58">: datetime</text><text x="896.09" y="1554.609" fill="#D9B8FF" font-family="sans-serif" font-size="11" font-weight="bold" textLength="181">number_of_decreases_today</text><text x="1077.09" y="1554.609" fill="#D9B8FF" font-family="sans-serif" font-size="11" textLength="36">: int64</text><text x="896.09" y="1577.414" fill="#D9B8FF" font-family="sans-serif" font-size="11" font-weight="bold" textLength="127">read_capacity_units</text><text x="1023.09" y="1577.414" fill="#D9B8FF" font-family="sans-serif" font-size="11" textLength="36">: int64</text><text x="896.09" y="1600.218" fill="#D9B8FF" font-family="sans-serif" font-size="11" font-weight="bold" textLength="131">write_capacity_units</text><text x="1027.09" y="1600.218" fill="#D9B8FF" font-family="sans-serif" font-size="11" textLength="36">: int64</text></a><a xlink:actuate="onRequest" xlink:href="#g" xlink:show="new" xlink:title="#aws_dynamo_db_billing_mode_summary" xlink:type="simple" target="_top"><rect id="g" width="386" height="93.398" x="1591.09" y="1217" fill="#3D176E" rx="2.5" ry="2.5" style="stroke:#000d19;stroke-width:1.5"/><circle cx="1606.09" cy="1236.895" r="11" fill="#E98DF7" style="stroke:#000d19;stroke-width:1"/><path d="M1609.059 1242.535q-.578.297-1.219.438-.64.156-1.344.156-2.5 0-3.828-1.64-1.312-1.657-1.312-4.782t1.312-4.781q1.328-1.656 3.828-1.656.703 0 1.344.156.656.156 1.219.453v2.719q-.625-.578-1.219-.844-.594-.281-1.219-.281-1.344 0-2.031 1.078-.688 1.062-.688 3.156 0 2.094.688 3.172.688 1.062 2.031 1.062.625 0 1.219-.265.594-.281 1.219-.86v2.72Z"/><text x="1625.09" y="1242.78" fill="#D9B8FF" font-family="Helvetica" font-size="17" textLength="344">aws_dynamo_db_billing_mode_summary</text><path d="M1592.09 1256.789h384" style="stroke:#000d19;stroke-width:1.5"/><text x="1602.09" y="1275.999" fill="#D9B8FF" font-family="sans-serif" font-size="11" font-weight="bold" textLength="81">billing_mode</text><text x="1683.09" y="1275.999" fill="#D9B8FF" font-family="sans-serif" font-size="11" textLength="41">: string</text><text x="1602.09" y="1298.804" fill="#D9B8FF" font-family="sans-serif" font-size="11" font-weight="bold" textLength="274">last_update_to_pay_per_request_date_time</text><text x="1876.09" y="1298.804" fill="#D9B8FF" font-family="sans-serif" font-size="11" textLength="58">: datetime</text></a><a xlink:actuate="onRequest" xlink:href="#h" xlink:show="new" xlink:title="#aws_dynamo_db_local_secondary_index_description" xlink:type="simple" target="_top"><rect id="h" width="476" height="184.617" x="97.09" y="1171" fill="#3D176E" rx="2.5" ry="2.5" style="stroke:#000d19;stroke-width:1.5"/><circle cx="112.09" cy="1190.895" r="11" fill="#E98DF7" style="stroke:#000d19;stroke-width:1"/><path d="M115.059 1196.535q-.578.297-1.219.438-.64.156-1.344.156-2.5 0-3.828-1.64-1.312-1.657-1.312-4.782t1.312-4.781q1.328-1.656 3.828-1.656.703 0 1.344.156.656.156 1.219.453v2.719q-.625-.578-1.219-.844-.594-.281-1.219-.281-1.343 0-2.031 1.078-.688 1.062-.688 3.156 0 2.094.688 3.172.688 1.062 2.031 1.062.625 0 1.219-.265.594-.281 1.219-.86v2.72Z"/><text x="131.09" y="1196.78" fill="#D9B8FF" font-family="Helvetica" font-size="17" textLength="434">aws_dynamo_db_local_secondary_index_description</text><path d="M98.09 1210.789h474" style="stroke:#000d19;stroke-width:1.5"/><text x="108.09" y="1229.999" fill="#D9B8FF" font-family="sans-serif" font-size="11" font-weight="bold" textLength="76">index_name</text><text x="184.09" y="1229.999" fill="#D9B8FF" font-family="sans-serif" font-size="11" textLength="41">: string</text><text x="108.09" y="1252.804" fill="#D9B8FF" font-family="sans-serif" font-size="11" font-weight="bold" textLength="77">key_schema</text><text x="185.09" y="1252.804" fill="#D9B8FF" font-family="sans-serif" font-size="11" textLength="238">: aws_dynamo_db_key_schema_element[]</text><text x="108.09" y="1275.609" fill="#D9B8FF" font-family="sans-serif" font-size="11" font-weight="bold" textLength="65">projection</text><text x="173.09" y="1275.609" fill="#D9B8FF" font-family="sans-serif" font-size="11" textLength="164">: aws_dynamo_db_projection</text><text x="108.09" y="1298.414" fill="#D9B8FF" font-family="sans-serif" font-size="11" font-weight="bold" textLength="108">index_size_bytes</text><text x="216.09" y="1298.414" fill="#D9B8FF" font-family="sans-serif" font-size="11" textLength="36">: int64</text><text x="108.09" y="1321.218" fill="#D9B8FF" font-family="sans-serif" font-size="11" font-weight="bold" textLength="70">item_count</text><text x="178.09" y="1321.218" fill="#D9B8FF" font-family="sans-serif" font-size="11" textLength="36">: int64</text><text x="108.09" y="1344.023" fill="#D9B8FF" font-family="sans-serif" font-size="11" font-weight="bold" textLength="62">index_arn</text><text x="170.09" y="1344.023" fill="#D9B8FF" font-family="sans-serif" font-size="11" textLength="41">: string</text></a><a xlink:actuate="onRequest" xlink:href="#i" xlink:show="new" xlink:title="#aws_dynamo_db_projection" xlink:type="simple" target="_top"><rect id="i" width="273" height="93.398" x="566.59" y="1484.5" fill="#3D176E" rx="2.5" ry="2.5" style="stroke:#000d19;stroke-width:1.5"/><circle cx="581.59" cy="1504.395" r="11" fill="#E98DF7" style="stroke:#000d19;stroke-width:1"/><path d="M584.559 1510.035q-.578.297-1.219.438-.64.156-1.344.156-2.5 0-3.828-1.64-1.312-1.657-1.312-4.782t1.312-4.781q1.328-1.656 3.828-1.656.703 0 1.344.156.656.156 1.219.453v2.719q-.625-.578-1.219-.844-.594-.281-1.219-.281-1.343 0-2.031 1.078-.688 1.062-.688 3.156 0 2.094.688 3.172.688 1.062 2.031 1.062.625 0 1.219-.265.594-.281 1.219-.86v2.72Z"/><text x="600.59" y="1510.28" fill="#D9B8FF" font-family="Helvetica" font-size="17" textLength="231">aws_dynamo_db_projection</text><path d="M567.59 1524.289h271" style="stroke:#000d19;stroke-width:1.5"/><text x="577.59" y="1543.499" fill="#D9B8FF" font-family="sans-serif" font-size="11" font-weight="bold" textLength="99">projection_type</text><text x="676.59" y="1543.499" fill="#D9B8FF" font-family="sans-serif" font-size="11" textLength="41">: string</text><text x="577.59" y="1566.304" fill="#D9B8FF" font-family="sans-serif" font-size="11" font-weight="bold" textLength="121">non_key_attributes</text><text x="698.59" y="1566.304" fill="#D9B8FF" font-family="sans-serif" font-size="11" textLength="49">: string[]</text></a><a xlink:actuate="onRequest" xlink:href="#j" xlink:show="new" xlink:title="#aws_dynamo_db_global_secondary_index_description" xlink:type="simple" target="_top"><rect id="j" width="488" height="253.031" x="608.09" y="1137" fill="#3D176E" rx="2.5" ry="2.5" style="stroke:#000d19;stroke-width:1.5"/><circle cx="623.09" cy="1156.895" r="11" fill="#E98DF7" style="stroke:#000d19;stroke-width:1"/><path d="M626.059 1162.535q-.578.297-1.219.438-.64.156-1.344.156-2.5 0-3.828-1.64-1.312-1.657-1.312-4.782t1.312-4.781q1.328-1.656 3.828-1.656.703 0 1.344.156.656.156 1.219.453v2.719q-.625-.578-1.219-.844-.594-.281-1.219-.281-1.343 0-2.031 1.078-.688 1.062-.688 3.156 0 2.094.688 3.172.688 1.062 2.031 1.062.625 0 1.219-.265.594-.281 1.219-.86v2.72Z"/><text x="642.09" y="1162.78" fill="#D9B8FF" font-family="Helvetica" font-size="17" textLength="446">aws_dynamo_db_global_secondary_index_description</text><path d="M609.09 1176.789h486" style="stroke:#000d19;stroke-width:1.5"/><text x="619.09" y="1195.999" fill="#D9B8FF" font-family="sans-serif" font-size="11" font-weight="bold" textLength="76">index_name</text><text x="695.09" y="1195.999" fill="#D9B8FF" font-family="sans-serif" font-size="11" textLength="41">: string</text><text x="619.09" y="1218.804" fill="#D9B8FF" font-family="sans-serif" font-size="11" font-weight="bold" textLength="77">key_schema</text><text x="696.09" y="1218.804" fill="#D9B8FF" font-family="sans-serif" font-size="11" textLength="238">: aws_dynamo_db_key_schema_element[]</text><text x="619.09" y="1241.609" fill="#D9B8FF" font-family="sans-serif" font-size="11" font-weight="bold" textLength="65">projection</text><text x="684.09" y="1241.609" fill="#D9B8FF" font-family="sans-serif" font-size="11" textLength="164">: aws_dynamo_db_projection</text><text x="619.09" y="1264.414" fill="#D9B8FF" font-family="sans-serif" font-size="11" font-weight="bold" textLength="81">index_status</text><text x="700.09" y="1264.414" fill="#D9B8FF" font-family="sans-serif" font-size="11" textLength="41">: string</text><text x="619.09" y="1287.218" fill="#D9B8FF" font-family="sans-serif" font-size="11" font-weight="bold" textLength="67">backfilling</text><text x="686.09" y="1287.218" fill="#D9B8FF" font-family="sans-serif" font-size="11" textLength="53">: boolean</text><text x="619.09" y="1310.023" fill="#D9B8FF" font-family="sans-serif" font-size="11" font-weight="bold" textLength="152">provisioned_throughput</text><text x="771.09" y="1310.023" fill="#D9B8FF" font-family="sans-serif" font-size="11" textLength="311">: aws_dynamo_db_provisioned_throughput_description</text><text x="619.09" y="1332.828" fill="#D9B8FF" font-family="sans-serif" font-size="11" font-weight="bold" textLength="108">index_size_bytes</text><text x="727.09" y="1332.828" fill="#D9B8FF" font-family="sans-serif" font-size="11" textLength="36">: int64</text><text x="619.09" y="1355.632" fill="#D9B8FF" font-family="sans-serif" font-size="11" font-weight="bold" textLength="70">item_count</text><text x="689.09" y="1355.632" fill="#D9B8FF" font-family="sans-serif" font-size="11" textLength="36">: int64</text><text x="619.09" y="1378.437" fill="#D9B8FF" font-family="sans-serif" font-size="11" font-weight="bold" textLength="62">index_arn</text><text x="681.09" y="1378.437" fill="#D9B8FF" font-family="sans-serif" font-size="11" textLength="41">: string</text></a><a xlink:actuate="onRequest" xlink:href="#k" xlink:show="new" xlink:title="#aws_dynamo_db_stream_specification" xlink:type="simple" target="_top"><rect id="k" width="361" height="93.398" x="2012.59" y="1217" fill="#3D176E" rx="2.5" ry="2.5" style="stroke:#000d19;stroke-width:1.5"/><circle cx="2027.59" cy="1236.895" r="11" fill="#E98DF7" style="stroke:#000d19;stroke-width:1"/><path d="M2030.559 1242.535q-.578.297-1.219.438-.64.156-1.344.156-2.5 0-3.828-1.64-1.312-1.657-1.312-4.782t1.312-4.781q1.328-1.656 3.828-1.656.703 0 1.344.156.656.156 1.219.453v2.719q-.625-.578-1.219-.844-.594-.281-1.219-.281-1.344 0-2.031 1.078-.688 1.062-.688 3.156 0 2.094.688 3.172.688 1.062 2.031 1.062.625 0 1.219-.265.594-.281 1.219-.86v2.72Z"/><text x="2046.59" y="1242.78" fill="#D9B8FF" font-family="Helvetica" font-size="17" textLength="319">aws_dynamo_db_stream_specification</text><path d="M2013.59 1256.789h359" style="stroke:#000d19;stroke-width:1.5"/><text x="2023.59" y="1275.999" fill="#D9B8FF" font-family="sans-serif" font-size="11" font-weight="bold" textLength="102">stream_enabled</text><text x="2125.59" y="1275.999" fill="#D9B8FF" font-family="sans-serif" font-size="11" textLength="53">: boolean</text><text x="2023.59" y="1298.804" fill="#D9B8FF" font-family="sans-serif" font-size="11" font-weight="bold" textLength="114">stream_view_type</text><text x="2137.59" y="1298.804" fill="#D9B8FF" font-family="sans-serif" font-size="11" textLength="41">: string</text></a><a xlink:actuate="onRequest" xlink:href="#l" xlink:show="new" xlink:title="#aws_dynamo_db_replica_description" xlink:type="simple" target="_top"><rect id="l" width="554" height="253.031" x="2409.09" y="1137" fill="#3D176E" rx="2.5" ry="2.5" style="stroke:#000d19;stroke-width:1.5"/><circle cx="2525.34" cy="1156.895" r="11" fill="#E98DF7" style="stroke:#000d19;stroke-width:1"/><path d="M2528.309 1162.535q-.578.297-1.219.438-.64.156-1.344.156-2.5 0-3.828-1.64-1.312-1.657-1.312-4.782t1.312-4.781q1.328-1.656 3.828-1.656.703 0 1.344.156.656.156 1.219.453v2.719q-.625-.578-1.219-.844-.594-.281-1.219-.281-1.343 0-2.031 1.078-.688 1.062-.688 3.156 0 2.094.688 3.172.688 1.062 2.031 1.062.625 0 1.219-.265.594-.281 1.219-.86v2.72Z"/><text x="2550.84" y="1162.78" fill="#D9B8FF" font-family="Helvetica" font-size="17" textLength="303">aws_dynamo_db_replica_description</text><path d="M2410.09 1176.789h552" style="stroke:#000d19;stroke-width:1.5"/><text x="2420.09" y="1195.999" fill="#D9B8FF" font-family="sans-serif" font-size="11" font-weight="bold" textLength="82">region_name</text><text x="2502.09" y="1195.999" fill="#D9B8FF" font-family="sans-serif" font-size="11" textLength="41">: string</text><text x="2420.09" y="1218.804" fill="#D9B8FF" font-family="sans-serif" font-size="11" font-weight="bold" textLength="90">replica_status</text><text x="2510.09" y="1218.804" fill="#D9B8FF" font-family="sans-serif" font-size="11" textLength="41">: string</text><text x="2420.09" y="1241.609" fill="#D9B8FF" font-family="sans-serif" font-size="11" font-weight="bold" textLength="168">replica_status_description</text><text x="2588.09" y="1241.609" fill="#D9B8FF" font-family="sans-serif" font-size="11" textLength="41">: string</text><text x="2420.09" y="1264.414" fill="#D9B8FF" font-family="sans-serif" font-size="11" font-weight="bold" textLength="207">replica_status_percent_progress</text><text x="2627.09" y="1264.414" fill="#D9B8FF" font-family="sans-serif" font-size="11" textLength="41">: string</text><text x="2420.09" y="1287.218" fill="#D9B8FF" font-family="sans-serif" font-size="11" font-weight="bold" textLength="121">kms_master_key_id</text><text x="2541.09" y="1287.218" fill="#D9B8FF" font-family="sans-serif" font-size="11" textLength="41">: string</text><text x="2420.09" y="1310.023" fill="#D9B8FF" font-family="sans-serif" font-size="11" font-weight="bold" textLength="211">provisioned_throughput_override</text><text x="2631.09" y="1310.023" fill="#D9B8FF" font-family="sans-serif" font-size="11" textLength="36">: int64</text><text x="2420.09" y="1332.828" fill="#D9B8FF" font-family="sans-serif" font-size="11" font-weight="bold" textLength="168">global_secondary_indexes</text><text x="2588.09" y="1332.828" fill="#D9B8FF" font-family="sans-serif" font-size="11" textLength="364">: aws_dynamo_db_replica_global_secondary_index_description[]</text><text x="2420.09" y="1355.632" fill="#D9B8FF" font-family="sans-serif" font-size="11" font-weight="bold" textLength="199">replica_inaccessible_date_time</text><text x="2619.09" y="1355.632" fill="#D9B8FF" font-family="sans-serif" font-size="11" textLength="58">: datetime</text><text x="2420.09" y="1378.437" fill="#D9B8FF" font-family="sans-serif" font-size="11" font-weight="bold" textLength="185">replica_table_class_summary</text><text x="2605.09" y="1378.437" fill="#D9B8FF" font-family="sans-serif" font-size="11" textLength="232">: aws_dynamo_db_table_class_summary</text></a><a xlink:actuate="onRequest" xlink:href="#m" xlink:show="new" xlink:title="#aws_dynamo_db_replica_global_secondary_index_description" xlink:type="simple" target="_top"><rect id="m" width="552" height="93.398" x="2244.09" y="1484.5" fill="#3D176E" rx="2.5" ry="2.5" style="stroke:#000d19;stroke-width:1.5"/><circle cx="2259.09" cy="1504.395" r="11" fill="#E98DF7" style="stroke:#000d19;stroke-width:1"/><path d="M2262.059 1510.035q-.578.297-1.219.438-.64.156-1.344.156-2.5 0-3.828-1.64-1.312-1.657-1.312-4.782t1.312-4.781q1.328-1.656 3.828-1.656.703 0 1.344.156.656.156 1.219.453v2.719q-.625-.578-1.219-.844-.594-.281-1.219-.281-1.343 0-2.031 1.078-.688 1.062-.688 3.156 0 2.094.688 3.172.688 1.062 2.031 1.062.625 0 1.219-.265.594-.281 1.219-.86v2.72Z"/><text x="2278.09" y="1510.28" fill="#D9B8FF" font-family="Helvetica" font-size="17" textLength="510">aws_dynamo_db_replica_global_secondary_index_description</text><path d="M2245.09 1524.289h550" style="stroke:#000d19;stroke-width:1.5"/><text x="2255.09" y="1543.499" fill="#D9B8FF" font-family="sans-serif" font-size="11" font-weight="bold" textLength="76">index_name</text><text x="2331.09" y="1543.499" fill="#D9B8FF" font-family="sans-serif" font-size="11" textLength="41">: string</text><text x="2255.09" y="1566.304" fill="#D9B8FF" font-family="sans-serif" font-size="11" font-weight="bold" textLength="211">provisioned_throughput_override</text><text x="2466.09" y="1566.304" fill="#D9B8FF" font-family="sans-serif" font-size="11" textLength="36">: int64</text></a><a xlink:actuate="onRequest" xlink:href="#n" xlink:show="new" xlink:title="#aws_dynamo_db_table_class_summary" xlink:type="simple" target="_top"><rect id="n" width="369" height="93.398" x="2831.59" y="1484.5" fill="#3D176E" rx="2.5" ry="2.5" style="stroke:#000d19;stroke-width:1.5"/><circle cx="2846.59" cy="1504.395" r="11" fill="#E98DF7" style="stroke:#000d19;stroke-width:1"/><path d="M2849.559 1510.035q-.578.297-1.219.438-.64.156-1.344.156-2.5 0-3.828-1.64-1.312-1.657-1.312-4.782t1.312-4.781q1.328-1.656 3.828-1.656.703 0 1.344.156.656.156 1.219.453v2.719q-.625-.578-1.219-.844-.594-.281-1.219-.281-1.343 0-2.031 1.078-.688 1.062-.688 3.156 0 2.094.688 3.172.688 1.062 2.031 1.062.625 0 1.219-.265.594-.281 1.219-.86v2.72Z"/><text x="2865.59" y="1510.28" fill="#D9B8FF" font-family="Helvetica" font-size="17" textLength="327">aws_dynamo_db_table_class_summary</text><path d="M2832.59 1524.289h367" style="stroke:#000d19;stroke-width:1.5"/><text x="2842.59" y="1543.499" fill="#D9B8FF" font-family="sans-serif" font-size="11" font-weight="bold" textLength="72">table_class</text><text x="2914.59" y="1543.499" fill="#D9B8FF" font-family="sans-serif" font-size="11" textLength="41">: string</text><text x="2842.59" y="1566.304" fill="#D9B8FF" font-family="sans-serif" font-size="11" font-weight="bold" textLength="144">last_update_date_time</text><text x="2986.59" y="1566.304" fill="#D9B8FF" font-family="sans-serif" font-size="11" textLength="58">: datetime</text></a><a xlink:actuate="onRequest" xlink:href="#o" xlink:show="new" xlink:title="#aws_dynamo_db_restore_summary" xlink:type="simple" target="_top"><rect id="o" width="338" height="139.008" x="3069.09" y="1194" fill="#3D176E" rx="2.5" ry="2.5" style="stroke:#000d19;stroke-width:1.5"/><circle cx="3084.09" cy="1213.895" r="11" fill="#E98DF7" style="stroke:#000d19;stroke-width:1"/><path d="M3087.059 1219.535q-.578.297-1.219.438-.64.156-1.344.156-2.5 0-3.828-1.64-1.312-1.657-1.312-4.782t1.312-4.781q1.328-1.656 3.828-1.656.703 0 1.344.156.656.156 1.219.453v2.719q-.625-.578-1.219-.844-.594-.281-1.219-.281-1.343 0-2.031 1.078-.688 1.062-.688 3.156 0 2.094.688 3.172.688 1.062 2.031 1.062.625 0 1.219-.265.594-.281 1.219-.86v2.72Z"/><text x="3103.09" y="1219.78" fill="#D9B8FF" font-family="Helvetica" font-size="17" textLength="296">aws_dynamo_db_restore_summary</text><path d="M3070.09 1233.789h336" style="stroke:#000d19;stroke-width:1.5"/><text x="3080.09" y="1252.999" fill="#D9B8FF" font-family="sans-serif" font-size="11" font-weight="bold" textLength="122">source_backup_arn</text><text x="3202.09" y="1252.999" fill="#D9B8FF" font-family="sans-serif" font-size="11" textLength="41">: string</text><text x="3080.09" y="1275.804" fill="#D9B8FF" font-family="sans-serif" font-size="11" font-weight="bold" textLength="109">source_table_arn</text><text x="3189.09" y="1275.804" fill="#D9B8FF" font-family="sans-serif" font-size="11" textLength="41">: string</text><text x="3080.09" y="1298.609" fill="#D9B8FF" font-family="sans-serif" font-size="11" font-weight="bold" textLength="115">restore_date_time</text><text x="3195.09" y="1298.609" fill="#D9B8FF" font-family="sans-serif" font-size="11" textLength="58">: datetime</text><text x="3080.09" y="1321.414" fill="#D9B8FF" font-family="sans-serif" font-size="11" font-weight="bold" textLength="126">restore_in_progress</text><text x="3206.09" y="1321.414" fill="#D9B8FF" font-family="sans-serif" font-size="11" textLength="53">: boolean</text></a><a xlink:actuate="onRequest" xlink:href="#p" xlink:show="new" xlink:title="#aws_dynamo_db_sse_description" xlink:type="simple" target="_top"><rect id="p" width="316" height="139.008" x="3442.09" y="1194" fill="#3D176E" rx="2.5" ry="2.5" style="stroke:#000d19;stroke-width:1.5"/><circle cx="3457.09" cy="1213.895" r="11" fill="#E98DF7" style="stroke:#000d19;stroke-width:1"/><path d="M3460.059 1219.535q-.578.297-1.219.438-.64.156-1.344.156-2.5 0-3.828-1.64-1.312-1.657-1.312-4.782t1.312-4.781q1.328-1.656 3.828-1.656.703 0 1.344.156.656.156 1.219.453v2.719q-.625-.578-1.219-.844-.594-.281-1.219-.281-1.343 0-2.031 1.078-.688 1.062-.688 3.156 0 2.094.688 3.172.688 1.062 2.031 1.062.625 0 1.219-.265.594-.281 1.219-.86v2.72Z"/><text x="3476.09" y="1219.78" fill="#D9B8FF" font-family="Helvetica" font-size="17" textLength="274">aws_dynamo_db_sse_description</text><path d="M3443.09 1233.789h314" style="stroke:#000d19;stroke-width:1.5"/><text x="3453.09" y="1252.999" fill="#D9B8FF" font-family="sans-serif" font-size="11" font-weight="bold" textLength="40">status</text><text x="3493.09" y="1252.999" fill="#D9B8FF" font-family="sans-serif" font-size="11" textLength="41">: string</text><text x="3453.09" y="1275.804" fill="#D9B8FF" font-family="sans-serif" font-size="11" font-weight="bold" textLength="56">sse_type</text><text x="3509.09" y="1275.804" fill="#D9B8FF" font-family="sans-serif" font-size="11" textLength="41">: string</text><text x="3453.09" y="1298.609" fill="#D9B8FF" font-family="sans-serif" font-size="11" font-weight="bold" textLength="130">kms_master_key_arn</text><text x="3583.09" y="1298.609" fill="#D9B8FF" font-family="sans-serif" font-size="11" textLength="41">: string</text><text x="3453.09" y="1321.414" fill="#D9B8FF" font-family="sans-serif" font-size="11" font-weight="bold" textLength="223">inaccessible_encryption_date_time</text><text x="3676.09" y="1321.414" fill="#D9B8FF" font-family="sans-serif" font-size="11" textLength="58">: datetime</text></a><a xlink:actuate="onRequest" xlink:href="#q" xlink:show="new" xlink:title="#aws_dynamo_db_archival_summary" xlink:type="simple" target="_top"><rect id="q" width="345" height="116.203" x="3792.59" y="1205.5" fill="#3D176E" rx="2.5" ry="2.5" style="stroke:#000d19;stroke-width:1.5"/><circle cx="3807.59" cy="1225.395" r="11" fill="#E98DF7" style="stroke:#000d19;stroke-width:1"/><path d="M3810.559 1231.035q-.578.297-1.219.438-.64.156-1.344.156-2.5 0-3.828-1.64-1.312-1.657-1.312-4.782t1.312-4.781q1.328-1.656 3.828-1.656.703 0 1.344.156.656.156 1.219.453v2.719q-.625-.578-1.219-.844-.594-.281-1.219-.281-1.343 0-2.031 1.078-.688 1.062-.688 3.156 0 2.094.688 3.172.688 1.062 2.031 1.062.625 0 1.219-.265.594-.281 1.219-.86v2.72Z"/><text x="3826.59" y="1231.28" fill="#D9B8FF" font-family="Helvetica" font-size="17" textLength="303">aws_dynamo_db_archival_summary</text><path d="M3793.59 1245.289h343" style="stroke:#000d19;stroke-width:1.5"/><text x="3803.59" y="1264.499" fill="#D9B8FF" font-family="sans-serif" font-size="11" font-weight="bold" textLength="120">archival_date_time</text><text x="3923.59" y="1264.499" fill="#D9B8FF" font-family="sans-serif" font-size="11" textLength="58">: datetime</text><text x="3803.59" y="1287.304" fill="#D9B8FF" font-family="sans-serif" font-size="11" font-weight="bold" textLength="101">archival_reason</text><text x="3904.59" y="1287.304" fill="#D9B8FF" font-family="sans-serif" font-size="11" textLength="41">: string</text><text x="3803.59" y="1310.109" fill="#D9B8FF" font-family="sans-serif" font-size="11" font-weight="bold" textLength="130">archival_backup_arn</text><text x="3933.59" y="1310.109" fill="#D9B8FF" font-family="sans-serif" font-size="11" textLength="41">: string</text></a><path fill="none" d="M1988.09 303.43V403.9m-7-100.64 7-20 7 20h-14zm7 192.21v100.44m-7-100.7 7-20 7 20h-14zm-284.13 545.45c-92.43 64.51-186.51 130.16-248.07 173.13" style="stroke:#ffaf37;stroke-width:2"/><path fill="#FFAF37" d="m1444.51 1216.84 9.67-1.864-5.568-.995.995-5.568-5.097 8.427z" style="stroke:#ffaf37;stroke-width:2"/><path fill="none" d="M1697.03 838.98c-482 9.32-1413.24 58.69-1617.94 298.02-73.09 85.45-57.35 156.28 0 253 24.36 41.1 65.52 70.91 107.79 92.18" style="stroke:#ffaf37;stroke-width:2"/><path fill="#FFAF37" d="m191.5 1484.48-6.29-7.579 1.81 5.36-5.36 1.81 9.84.409z" style="stroke:#ffaf37;stroke-width:2"/><path fill="none" d="M1696.88 871.4c-175.22 36.19-387.68 110.99-511.79 265.6-69.78 86.91-73.33 220.92-66.49 307.8" style="stroke:#ffaf37;stroke-width:2"/><path fill="#FFAF37" d="m1119.02 1449.93 3.265-9.292-3.666 4.308-4.308-3.666 4.709 8.65z" style="stroke:#ffaf37;stroke-width:2"/><path fill="none" d="M1873.12 1077.02c-24.6 51.23-48.17 100.34-64.87 135.14" style="stroke:#ffaf37;stroke-width:2"/><path fill="#FFAF37" d="m1806.04 1216.76 7.49-6.396-5.334 1.885-1.885-5.334-.271 9.845z" style="stroke:#ffaf37;stroke-width:2"/><path fill="none" d="M1696.94 878.42C1410.14 923.69 962.18 1007.8 590.09 1137c-25.89 8.99-52.55 19.99-78.43 31.7" style="stroke:#ffaf37;stroke-width:2"/><path fill="#FFAF37" d="m506.84 1170.89 9.848-.094-5.299-1.98 1.98-5.3-6.529 7.374z" style="stroke:#ffaf37;stroke-width:2"/><path fill="none" d="M1697.07 930.16c-169.09 55.85-385.34 130.73-573.98 206.84-7.27 2.93-14.62 5.96-22.03 9.05" style="stroke:#ffaf37;stroke-width:2"/><path fill="#FFAF37" d="m1096.44 1147.98 9.847.21-5.236-2.143 2.143-5.236-6.754 7.169z" style="stroke:#ffaf37;stroke-width:2"/><path fill="none" d="M2103.62 1077.02c24.71 51.23 48.4 100.34 65.19 135.14" style="stroke:#ffaf37;stroke-width:2"/><path fill="#FFAF37" d="m2171.02 1216.76-.309-9.844-1.864 5.34-5.34-1.863 7.513 6.367z" style="stroke:#ffaf37;stroke-width:2"/><path fill="none" d="M2279.3 1014.81c65.82 40.08 134.47 81.88 196.21 119.48" style="stroke:#ffaf37;stroke-width:2"/><path fill="#FFAF37" d="m2479.95 1136.99-5.608-8.096 1.337 5.496-5.497 1.337 9.768 1.263z" style="stroke:#ffaf37;stroke-width:2"/><path fill="none" d="M2279.31 896.07c216.24 49.21 515.29 129.46 762.78 240.93 32.83 14.79 66.55 34.49 96.57 53.89" style="stroke:#ffaf37;stroke-width:2"/><path fill="#FFAF37" d="m3143.06 1193.75-5.375-8.253 1.18 5.533-5.533 1.18 9.728 1.54z" style="stroke:#ffaf37;stroke-width:2"/><path fill="none" d="M2279.34 862.42c298.2 33.62 769.94 109.54 1145.75 274.58 31.35 13.77 62.67 33.75 89.97 53.74" style="stroke:#ffaf37;stroke-width:2"/><path fill="#FFAF37" d="m3519.41 1193.95-4.869-8.561.845 5.593-5.593.845 9.617 2.123z" style="stroke:#ffaf37;stroke-width:2"/><path fill="none" d="M2279.4 849.03c362.34 22.64 994.44 89.65 1496.69 287.97 40.32 15.92 80.9 41.35 114.07 65.17" style="stroke:#ffaf37;stroke-width:2"/><path fill="#FFAF37" d="m3894.58 1205.36-4.942-8.52.893 5.587-5.586.893 9.635 2.04z" style="stroke:#ffaf37;stroke-width:2"/><path fill="none" d="M2279.28 888.33c259.48 51.61 611.62 139.39 700.81 248.67 80.22 98.3 63.21 260.03 47.67 341.99" style="stroke:#ffaf37;stroke-width:2"/><path fill="#FFAF37" d="m3026.74 1484.27 5.624-8.085-4.682 3.175-3.174-4.682 2.232 9.592z" style="stroke:#ffaf37;stroke-width:2"/><path fill="none" d="M335.09 1356.24v123.2" style="stroke:#ffaf37;stroke-width:2"/><path fill="#FFAF37" d="m335.09 1484.48 4-9-4 4-4-4 4 9z" style="stroke:#ffaf37;stroke-width:2"/><path fill="none" d="M461.99 1356.06c58.3 42.06 125.09 90.25 173.57 125.22" style="stroke:#ffaf37;stroke-width:2"/><path fill="#FFAF37" d="m639.9 1484.41-4.956-8.51.902 5.584-5.585.902 9.639 2.024z" style="stroke:#ffaf37;stroke-width:2"/><path fill="none" d="M607.97 1389.86c-63.96 32.85-129.09 66.3-179.68 92.27" style="stroke:#ffaf37;stroke-width:2"/><path fill="#FFAF37" d="m423.75 1484.47 9.834-.548-5.385-1.734 1.734-5.384-6.183 7.666z" style="stroke:#ffaf37;stroke-width:2"/><path fill="none" d="M781.51 1390.25c-17.85 31.8-35.99 64.14-50.33 89.69" style="stroke:#ffaf37;stroke-width:2"/><path fill="#FFAF37" d="m728.73 1484.31 7.89-5.894-5.445 1.533-1.533-5.446-.912 9.807z" style="stroke:#ffaf37;stroke-width:2"/><path fill="none" d="M983.76 1390.25c19.87 18.98 39.93 38.14 58.57 55.94" style="stroke:#ffaf37;stroke-width:2"/><path fill="#FFAF37" d="m1046.04 1449.73-3.739-9.112.126 5.656-5.656.126 9.269 3.33z" style="stroke:#ffaf37;stroke-width:2"/><path fill="none" d="M2607.46 1390.25c-19.88 31.8-40.1 64.14-56.08 89.69" style="stroke:#ffaf37;stroke-width:2"/><path fill="#FFAF37" d="m2548.65 1484.31 8.154-5.524-5.51 1.28-1.28-5.51-1.364 9.754z" style="stroke:#ffaf37;stroke-width:2"/><path fill="none" d="M2842.39 1390.25c40.02 32.2 80.72 64.94 112.65 90.64" style="stroke:#ffaf37;stroke-width:2"/><path fill="#FFAF37" d="m2959.29 1484.31-4.517-8.752.617 5.623-5.623.618 9.523 2.511z" style="stroke:#ffaf37;stroke-width:2"/></svg>