<svg xmlns="http://www.w3.org/2000/svg" xmlns:xlink="http://www.w3.org/1999/xlink" width="1378" height="1460" preserveAspectRatio="none" style="width:1378px;height:1460px;background:#00000000"><a xlink:actuate="onRequest" xlink:href="#a" xlink:show="new" xlink:title="#aws_resource" xlink:type="simple" target="_top"><rect id="a" width="155" height="70.594" x="509" y="404" fill="#3D176E" rx="2.5" ry="2.5" style="stroke:#000d19;stroke-width:1.5"/><circle cx="524" cy="423.894" r="11" fill="#E98DF7" style="stroke:#000d19;stroke-width:1"/><path d="M526.969 429.535q-.578.297-1.219.438-.64.156-1.344.156-2.5 0-3.828-1.64-1.312-1.657-1.312-4.782t1.312-4.781q1.328-1.656 3.828-1.656.703 0 1.344.156.656.156 1.219.453v2.719q-.625-.579-1.219-.844-.594-.281-1.219-.281-1.343 0-2.031 1.078-.688 1.062-.688 3.156 0 2.094.688 3.172.688 1.062 2.031 1.062.625 0 1.219-.265.594-.281 1.219-.86v2.72Z"/><text x="543" y="429.78" fill="#D9B8FF" font-family="Helvetica" font-size="17" textLength="113">aws_resource</text><path d="M510 443.789h153" style="stroke:#000d19;stroke-width:1.5"/><text x="520" y="463" fill="#D9B8FF" font-family="sans-serif" font-size="11" font-weight="bold" textLength="21">arn</text><text x="541" y="463" fill="#D9B8FF" font-family="sans-serif" font-size="11" textLength="41">: string</text></a><a xlink:actuate="onRequest" xlink:href="#b" xlink:show="new" xlink:title="#aws_ecs_instance_health_check_result" xlink:type="simple" target="_top"><rect id="b" width="365" height="139.008" x="989" y="1314" fill="#3D176E" rx="2.5" ry="2.5" style="stroke:#000d19;stroke-width:1.5"/><circle cx="1004" cy="1333.895" r="11" fill="#E98DF7" style="stroke:#000d19;stroke-width:1"/><path d="M1006.969 1339.535q-.578.297-1.219.438-.64.156-1.344.156-2.5 0-3.828-1.64-1.312-1.657-1.312-4.782t1.312-4.781q1.328-1.656 3.828-1.656.703 0 1.344.156.656.156 1.219.453v2.719q-.625-.578-1.219-.844-.594-.281-1.219-.281-1.343 0-2.031 1.078-.688 1.062-.688 3.156 0 2.094.688 3.172.688 1.062 2.031 1.062.625 0 1.219-.265.594-.281 1.219-.86v2.72Z"/><text x="1023" y="1339.78" fill="#D9B8FF" font-family="Helvetica" font-size="17" textLength="323">aws_ecs_instance_health_check_result</text><path d="M990 1353.789h363" style="stroke:#000d19;stroke-width:1.5"/><text x="1000" y="1372.999" fill="#D9B8FF" font-family="sans-serif" font-size="11" font-weight="bold" textLength="28">type</text><text x="1028" y="1372.999" fill="#D9B8FF" font-family="sans-serif" font-size="11" textLength="41">: string</text><text x="1000" y="1395.804" fill="#D9B8FF" font-family="sans-serif" font-size="11" font-weight="bold" textLength="40">status</text><text x="1040" y="1395.804" fill="#D9B8FF" font-family="sans-serif" font-size="11" textLength="41">: string</text><text x="1000" y="1418.609" fill="#D9B8FF" font-family="sans-serif" font-size="11" font-weight="bold" textLength="83">last_updated</text><text x="1083" y="1418.609" fill="#D9B8FF" font-family="sans-serif" font-size="11" textLength="58">: datetime</text><text x="1000" y="1441.414" fill="#D9B8FF" font-family="sans-serif" font-size="11" font-weight="bold" textLength="123">last_status_change</text><text x="1123" y="1441.414" fill="#D9B8FF" font-family="sans-serif" font-size="11" textLength="58">: datetime</text></a><a xlink:actuate="onRequest" xlink:href="#c" xlink:show="new" xlink:title="#resource" xlink:type="simple" target="_top"><rect id="c" width="195" height="275.836" x="489" y="7" fill="#3D176E" rx="2.5" ry="2.5" style="stroke:#000d19;stroke-width:1.5"/><circle cx="541.75" cy="26.895" r="11" fill="#E98DF7" style="stroke:#000d19;stroke-width:1"/><path d="M544.719 32.535q-.578.297-1.219.438-.64.156-1.344.156-2.5 0-3.828-1.64-1.312-1.657-1.312-4.782t1.312-4.781q1.328-1.656 3.828-1.656.703 0 1.344.156.656.156 1.219.453v2.719q-.625-.578-1.219-.844-.594-.281-1.219-.281-1.343 0-2.031 1.078-.688 1.062-.688 3.156 0 2.094.688 3.172.688 1.062 2.031 1.062.625 0 1.219-.265.594-.281 1.219-.86v2.72Z"/><text x="567.25" y="32.78" fill="#D9B8FF" font-family="Helvetica" font-size="17" textLength="71">resource</text><path d="M490 46.789h193" style="stroke:#000d19;stroke-width:1.5"/><text x="500" y="65.999" fill="#D9B8FF" font-family="sans-serif" font-size="11" font-weight="bold" textLength="12">id</text><text x="512" y="65.999" fill="#D9B8FF" font-family="sans-serif" font-size="11" textLength="41">: string</text><text x="500" y="88.804" fill="#D9B8FF" font-family="sans-serif" font-size="11" font-weight="bold" textLength="28">tags</text><text x="528" y="88.804" fill="#D9B8FF" font-family="sans-serif" font-size="11" textLength="145">: dictionary[string, string]</text><text x="500" y="111.609" fill="#D9B8FF" font-family="sans-serif" font-size="11" font-weight="bold" textLength="35">name</text><text x="535" y="111.609" fill="#D9B8FF" font-family="sans-serif" font-size="11" textLength="41">: string</text><text x="500" y="134.414" fill="#D9B8FF" font-family="sans-serif" font-size="11" font-weight="bold" textLength="35">ctime</text><text x="535" y="134.414" fill="#D9B8FF" font-family="sans-serif" font-size="11" textLength="58">: datetime</text><text x="500" y="157.218" fill="#D9B8FF" font-family="sans-serif" font-size="11" font-weight="bold" textLength="24">age</text><text x="524" y="157.218" fill="#D9B8FF" font-family="sans-serif" font-size="11" textLength="55">: duration</text><text x="500" y="180.023" fill="#D9B8FF" font-family="sans-serif" font-size="11" font-weight="bold" textLength="39">mtime</text><text x="539" y="180.023" fill="#D9B8FF" font-family="sans-serif" font-size="11" textLength="58">: datetime</text><text x="500" y="202.828" fill="#D9B8FF" font-family="sans-serif" font-size="11" font-weight="bold" textLength="75">last_update</text><text x="575" y="202.828" fill="#D9B8FF" font-family="sans-serif" font-size="11" textLength="55">: duration</text><text x="500" y="225.632" fill="#D9B8FF" font-family="sans-serif" font-size="11" font-weight="bold" textLength="36">atime</text><text x="536" y="225.632" fill="#D9B8FF" font-family="sans-serif" font-size="11" textLength="58">: datetime</text><text x="500" y="248.437" fill="#D9B8FF" font-family="sans-serif" font-size="11" font-weight="bold" textLength="74">last_access</text><text x="574" y="248.437" fill="#D9B8FF" font-family="sans-serif" font-size="11" textLength="55">: duration</text><text x="500" y="271.242" fill="#D9B8FF" font-family="sans-serif" font-size="11" font-weight="bold" textLength="27">kind</text><text x="527" y="271.242" fill="#D9B8FF" font-family="sans-serif" font-size="11" textLength="41">: string</text></a><a xlink:actuate="onRequest" xlink:href="#d" xlink:show="new" xlink:title="#aws_ecs_version_info" xlink:type="simple" target="_top"><rect id="d" width="221" height="116.203" x="7" y="1103.5" fill="#3D176E" rx="2.5" ry="2.5" style="stroke:#000d19;stroke-width:1.5"/><circle cx="22" cy="1123.395" r="11" fill="#E98DF7" style="stroke:#000d19;stroke-width:1"/><path d="M24.969 1129.035q-.578.297-1.219.438-.64.156-1.344.156-2.5 0-3.828-1.64-1.312-1.657-1.312-4.782t1.312-4.781q1.328-1.656 3.828-1.656.703 0 1.344.156.656.156 1.219.453v2.719q-.625-.578-1.219-.844-.594-.281-1.219-.281-1.343 0-2.031 1.078-.688 1.062-.688 3.156 0 2.094.688 3.172.688 1.062 2.031 1.062.625 0 1.219-.265.594-.281 1.219-.86v2.72Z"/><text x="41" y="1129.28" fill="#D9B8FF" font-family="Helvetica" font-size="17" textLength="179">aws_ecs_version_info</text><path d="M8 1143.289h219" style="stroke:#000d19;stroke-width:1.5"/><text x="18" y="1162.499" fill="#D9B8FF" font-family="sans-serif" font-size="11" font-weight="bold" textLength="90">agent_version</text><text x="108" y="1162.499" fill="#D9B8FF" font-family="sans-serif" font-size="11" textLength="41">: string</text><text x="18" y="1185.304" fill="#D9B8FF" font-family="sans-serif" font-size="11" font-weight="bold" textLength="74">agent_hash</text><text x="92" y="1185.304" fill="#D9B8FF" font-family="sans-serif" font-size="11" textLength="41">: string</text><text x="18" y="1208.109" fill="#D9B8FF" font-family="sans-serif" font-size="11" font-weight="bold" textLength="96">docker_version</text><text x="114" y="1208.109" fill="#D9B8FF" font-family="sans-serif" font-size="11" textLength="41">: string</text></a><a xlink:actuate="onRequest" xlink:href="#e" xlink:show="new" xlink:title="#aws_ecs_key_value_pair" xlink:type="simple" target="_top"><rect id="e" width="245" height="93.398" x="704" y="1337" fill="#3D176E" rx="2.5" ry="2.5" style="stroke:#000d19;stroke-width:1.5"/><circle cx="719" cy="1356.895" r="11" fill="#E98DF7" style="stroke:#000d19;stroke-width:1"/><path d="M721.969 1362.535q-.578.297-1.219.438-.64.156-1.344.156-2.5 0-3.828-1.64-1.312-1.657-1.312-4.782t1.312-4.781q1.328-1.656 3.828-1.656.703 0 1.344.156.656.156 1.219.453v2.719q-.625-.578-1.219-.844-.594-.281-1.219-.281-1.343 0-2.031 1.078-.688 1.062-.688 3.156 0 2.094.688 3.172.688 1.062 2.031 1.062.625 0 1.219-.265.594-.281 1.219-.86v2.72Z"/><text x="738" y="1362.78" fill="#D9B8FF" font-family="Helvetica" font-size="17" textLength="203">aws_ecs_key_value_pair</text><path d="M705 1376.789h243" style="stroke:#000d19;stroke-width:1.5"/><text x="715" y="1395.999" fill="#D9B8FF" font-family="sans-serif" font-size="11" font-weight="bold" textLength="35">name</text><text x="750" y="1395.999" fill="#D9B8FF" font-family="sans-serif" font-size="11" textLength="41">: string</text><text x="715" y="1418.804" fill="#D9B8FF" font-family="sans-serif" font-size="11" font-weight="bold" textLength="35">value</text><text x="750" y="1418.804" fill="#D9B8FF" font-family="sans-serif" font-size="11" textLength="41">: string</text></a><a xlink:actuate="onRequest" xlink:href="#f" xlink:show="new" xlink:title="#aws_ecs_attribute" xlink:type="simple" target="_top"><rect id="f" width="193" height="139.008" x="263" y="1092" fill="#3D176E" rx="2.5" ry="2.5" style="stroke:#000d19;stroke-width:1.5"/><circle cx="278" cy="1111.895" r="11" fill="#E98DF7" style="stroke:#000d19;stroke-width:1"/><path d="M280.969 1117.535q-.578.297-1.219.438-.64.156-1.344.156-2.5 0-3.828-1.64-1.312-1.657-1.312-4.782t1.312-4.781q1.328-1.656 3.828-1.656.703 0 1.344.156.656.156 1.219.453v2.719q-.625-.578-1.219-.844-.594-.281-1.219-.281-1.344 0-2.031 1.078-.688 1.062-.688 3.156 0 2.094.688 3.172.688 1.062 2.031 1.062.625 0 1.219-.265.594-.281 1.219-.86v2.72Z"/><text x="297" y="1117.78" fill="#D9B8FF" font-family="Helvetica" font-size="17" textLength="151">aws_ecs_attribute</text><path d="M264 1131.789h191" style="stroke:#000d19;stroke-width:1.5"/><text x="274" y="1150.999" fill="#D9B8FF" font-family="sans-serif" font-size="11" font-weight="bold" textLength="35">name</text><text x="309" y="1150.999" fill="#D9B8FF" font-family="sans-serif" font-size="11" textLength="41">: string</text><text x="274" y="1173.804" fill="#D9B8FF" font-family="sans-serif" font-size="11" font-weight="bold" textLength="35">value</text><text x="309" y="1173.804" fill="#D9B8FF" font-family="sans-serif" font-size="11" textLength="41">: string</text><text x="274" y="1196.609" fill="#D9B8FF" font-family="sans-serif" font-size="11" font-weight="bold" textLength="73">target_type</text><text x="347" y="1196.609" fill="#D9B8FF" font-family="sans-serif" font-size="11" textLength="41">: string</text><text x="274" y="1219.414" fill="#D9B8FF" font-family="sans-serif" font-size="11" font-weight="bold" textLength="57">target_id</text><text x="331" y="1219.414" fill="#D9B8FF" font-family="sans-serif" font-size="11" textLength="41">: string</text></a><a xlink:actuate="onRequest" xlink:href="#g" xlink:show="new" xlink:title="#aws_ecs_resource" xlink:type="simple" target="_top"><rect id="g" width="190" height="184.617" x="491.5" y="1069" fill="#3D176E" rx="2.5" ry="2.5" style="stroke:#000d19;stroke-width:1.5"/><circle cx="506.5" cy="1088.895" r="11" fill="#E98DF7" style="stroke:#000d19;stroke-width:1"/><path d="M509.469 1094.535q-.578.297-1.219.438-.64.156-1.344.156-2.5 0-3.828-1.64-1.312-1.657-1.312-4.782t1.312-4.781q1.328-1.656 3.828-1.656.703 0 1.344.156.656.156 1.219.453v2.719q-.625-.578-1.219-.844-.594-.281-1.219-.281-1.344 0-2.031 1.078-.688 1.062-.688 3.156 0 2.094.688 3.172.688 1.062 2.031 1.062.625 0 1.219-.265.594-.281 1.219-.86v2.72Z"/><text x="525.5" y="1094.78" fill="#D9B8FF" font-family="Helvetica" font-size="17" textLength="148">aws_ecs_resource</text><path d="M492.5 1108.789h188" style="stroke:#000d19;stroke-width:1.5"/><text x="502.5" y="1127.999" fill="#D9B8FF" font-family="sans-serif" font-size="11" font-weight="bold" textLength="35">name</text><text x="537.5" y="1127.999" fill="#D9B8FF" font-family="sans-serif" font-size="11" textLength="41">: string</text><text x="502.5" y="1150.804" fill="#D9B8FF" font-family="sans-serif" font-size="11" font-weight="bold" textLength="28">type</text><text x="530.5" y="1150.804" fill="#D9B8FF" font-family="sans-serif" font-size="11" textLength="41">: string</text><text x="502.5" y="1173.609" fill="#D9B8FF" font-family="sans-serif" font-size="11" font-weight="bold" textLength="85">double_value</text><text x="587.5" y="1173.609" fill="#D9B8FF" font-family="sans-serif" font-size="11" textLength="46">: double</text><text x="502.5" y="1196.414" fill="#D9B8FF" font-family="sans-serif" font-size="11" font-weight="bold" textLength="69">long_value</text><text x="571.5" y="1196.414" fill="#D9B8FF" font-family="sans-serif" font-size="11" textLength="36">: int64</text><text x="502.5" y="1219.218" fill="#D9B8FF" font-family="sans-serif" font-size="11" font-weight="bold" textLength="87">integer_value</text><text x="589.5" y="1219.218" fill="#D9B8FF" font-family="sans-serif" font-size="11" textLength="36">: int64</text><text x="502.5" y="1242.023" fill="#D9B8FF" font-family="sans-serif" font-size="11" font-weight="bold" textLength="104">string_set_value</text><text x="606.5" y="1242.023" fill="#D9B8FF" font-family="sans-serif" font-size="11" textLength="49">: string[]</text></a><a xlink:actuate="onRequest" xlink:href="#h" xlink:show="new" xlink:title="#aws_ecs_attachment" xlink:type="simple" target="_top"><rect id="h" width="220" height="139.008" x="716.5" y="1092" fill="#3D176E" rx="2.5" ry="2.5" style="stroke:#000d19;stroke-width:1.5"/><circle cx="732.85" cy="1111.895" r="11" fill="#E98DF7" style="stroke:#000d19;stroke-width:1"/><path d="M735.819 1117.535q-.578.297-1.219.438-.64.156-1.344.156-2.5 0-3.828-1.64-1.312-1.657-1.312-4.782t1.312-4.781q1.328-1.656 3.828-1.656.703 0 1.344.156.656.156 1.219.453v2.719q-.625-.578-1.219-.844-.594-.281-1.219-.281-1.343 0-2.031 1.078-.688 1.062-.688 3.156 0 2.094.688 3.172.688 1.062 2.031 1.062.625 0 1.219-.265.594-.281 1.219-.86v2.72Z"/><text x="752.15" y="1117.78" fill="#D9B8FF" font-family="Helvetica" font-size="17" textLength="175">aws_ecs_attachment</text><path d="M717.5 1131.789h218" style="stroke:#000d19;stroke-width:1.5"/><text x="727.5" y="1150.999" fill="#D9B8FF" font-family="sans-serif" font-size="11" font-weight="bold" textLength="12">id</text><text x="739.5" y="1150.999" fill="#D9B8FF" font-family="sans-serif" font-size="11" textLength="41">: string</text><text x="727.5" y="1173.804" fill="#D9B8FF" font-family="sans-serif" font-size="11" font-weight="bold" textLength="28">type</text><text x="755.5" y="1173.804" fill="#D9B8FF" font-family="sans-serif" font-size="11" textLength="41">: string</text><text x="727.5" y="1196.609" fill="#D9B8FF" font-family="sans-serif" font-size="11" font-weight="bold" textLength="40">status</text><text x="767.5" y="1196.609" fill="#D9B8FF" font-family="sans-serif" font-size="11" textLength="41">: string</text><text x="727.5" y="1219.414" fill="#D9B8FF" font-family="sans-serif" font-size="11" font-weight="bold" textLength="44">details</text><text x="771.5" y="1219.414" fill="#D9B8FF" font-family="sans-serif" font-size="11" textLength="154">: aws_ecs_key_value_pair[]</text></a><a xlink:actuate="onRequest" xlink:href="#i" xlink:show="new" xlink:title="#aws_ecs_container_instance_health_status" xlink:type="simple" target="_top"><rect id="i" width="400" height="93.398" x="971.5" y="1115" fill="#3D176E" rx="2.5" ry="2.5" style="stroke:#000d19;stroke-width:1.5"/><circle cx="986.5" cy="1134.895" r="11" fill="#E98DF7" style="stroke:#000d19;stroke-width:1"/><path d="M989.469 1140.535q-.578.297-1.219.438-.64.156-1.344.156-2.5 0-3.828-1.64-1.312-1.657-1.312-4.782t1.312-4.781q1.328-1.656 3.828-1.656.703 0 1.344.156.656.156 1.219.453v2.719q-.625-.578-1.219-.844-.594-.281-1.219-.281-1.343 0-2.031 1.078-.688 1.062-.688 3.156 0 2.094.688 3.172.688 1.062 2.031 1.062.625 0 1.219-.265.594-.281 1.219-.86v2.72Z"/><text x="1005.5" y="1140.78" fill="#D9B8FF" font-family="Helvetica" font-size="17" textLength="358">aws_ecs_container_instance_health_status</text><path d="M972.5 1154.789h398" style="stroke:#000d19;stroke-width:1.5"/><text x="982.5" y="1173.999" fill="#D9B8FF" font-family="sans-serif" font-size="11" font-weight="bold" textLength="90">overall_status</text><text x="1072.5" y="1173.999" fill="#D9B8FF" font-family="sans-serif" font-size="11" textLength="41">: string</text><text x="982.5" y="1196.804" fill="#D9B8FF" font-family="sans-serif" font-size="11" font-weight="bold" textLength="44">details</text><text x="1026.5" y="1196.804" fill="#D9B8FF" font-family="sans-serif" font-size="11" textLength="237">: aws_ecs_instance_health_check_result[]</text></a><a xlink:actuate="onRequest" xlink:href="#j" xlink:show="new" xlink:title="#aws_ecs_container_instance" xlink:type="simple" target="_top"><rect id="j" width="362" height="412.664" x="405.5" y="596" fill="#3D176E" rx="2.5" ry="2.5" style="stroke:#000d19;stroke-width:1.5"/><circle cx="459.75" cy="615.894" r="11" fill="#E98DF7" style="stroke:#000d19;stroke-width:1"/><path d="M462.719 621.535q-.578.297-1.219.438-.64.156-1.344.156-2.5 0-3.828-1.64-1.312-1.657-1.312-4.782t1.312-4.781q1.328-1.657 3.828-1.657.703 0 1.344.157.656.156 1.219.453v2.719q-.625-.578-1.219-.844-.594-.281-1.219-.281-1.344 0-2.031 1.078-.688 1.062-.688 3.156 0 2.094.688 3.172.688 1.062 2.031 1.062.625 0 1.219-.265.594-.282 1.219-.86v2.72Z"/><text x="485.25" y="621.78" fill="#D9B8FF" font-family="Helvetica" font-size="17" textLength="235">aws_ecs_container_instance</text><path d="M406.5 635.789h360" style="stroke:#000d19;stroke-width:1.5"/><text x="416.5" y="655" fill="#D9B8FF" font-family="sans-serif" font-size="11" font-weight="bold" textLength="102">ec2_instance_id</text><text x="518.5" y="655" fill="#D9B8FF" font-family="sans-serif" font-size="11" textLength="41">: string</text><text x="416.5" y="677.804" fill="#D9B8FF" font-family="sans-serif" font-size="11" font-weight="bold" textLength="154">capacity_provider_name</text><text x="570.5" y="677.804" fill="#D9B8FF" font-family="sans-serif" font-size="11" textLength="41">: string</text><text x="416.5" y="700.609" fill="#D9B8FF" font-family="sans-serif" font-size="11" font-weight="bold" textLength="47">version</text><text x="463.5" y="700.609" fill="#D9B8FF" font-family="sans-serif" font-size="11" textLength="36">: int64</text><text x="416.5" y="723.414" fill="#D9B8FF" font-family="sans-serif" font-size="11" font-weight="bold" textLength="78">version_info</text><text x="494.5" y="723.414" fill="#D9B8FF" font-family="sans-serif" font-size="11" textLength="132">: aws_ecs_version_info</text><text x="416.5" y="746.218" fill="#D9B8FF" font-family="sans-serif" font-size="11" font-weight="bold" textLength="133">remaining_resources</text><text x="549.5" y="746.218" fill="#D9B8FF" font-family="sans-serif" font-size="11" textLength="122">: aws_ecs_resource[]</text><text x="416.5" y="769.023" fill="#D9B8FF" font-family="sans-serif" font-size="11" font-weight="bold" textLength="135">registered_resources</text><text x="551.5" y="769.023" fill="#D9B8FF" font-family="sans-serif" font-size="11" textLength="122">: aws_ecs_resource[]</text><text x="416.5" y="791.828" fill="#D9B8FF" font-family="sans-serif" font-size="11" font-weight="bold" textLength="40">status</text><text x="456.5" y="791.828" fill="#D9B8FF" font-family="sans-serif" font-size="11" textLength="41">: string</text><text x="416.5" y="814.632" fill="#D9B8FF" font-family="sans-serif" font-size="11" font-weight="bold" textLength="90">status_reason</text><text x="506.5" y="814.632" fill="#D9B8FF" font-family="sans-serif" font-size="11" textLength="41">: string</text><text x="416.5" y="837.437" fill="#D9B8FF" font-family="sans-serif" font-size="11" font-weight="bold" textLength="110">agent_connected</text><text x="526.5" y="837.437" fill="#D9B8FF" font-family="sans-serif" font-size="11" textLength="53">: boolean</text><text x="416.5" y="860.242" fill="#D9B8FF" font-family="sans-serif" font-size="11" font-weight="bold" textLength="131">running_tasks_count</text><text x="547.5" y="860.242" fill="#D9B8FF" font-family="sans-serif" font-size="11" textLength="36">: int64</text><text x="416.5" y="883.046" fill="#D9B8FF" font-family="sans-serif" font-size="11" font-weight="bold" textLength="134">pending_tasks_count</text><text x="550.5" y="883.046" fill="#D9B8FF" font-family="sans-serif" font-size="11" textLength="36">: int64</text><text x="416.5" y="905.851" fill="#D9B8FF" font-family="sans-serif" font-size="11" font-weight="bold" textLength="134">agent_update_status</text><text x="550.5" y="905.851" fill="#D9B8FF" font-family="sans-serif" font-size="11" textLength="41">: string</text><text x="416.5" y="928.656" fill="#D9B8FF" font-family="sans-serif" font-size="11" font-weight="bold" textLength="63">attributes</text><text x="479.5" y="928.656" fill="#D9B8FF" font-family="sans-serif" font-size="11" textLength="119">: aws_ecs_attribute[]</text><text x="416.5" y="951.46" fill="#D9B8FF" font-family="sans-serif" font-size="11" font-weight="bold" textLength="80">attachments</text><text x="496.5" y="951.46" fill="#D9B8FF" font-family="sans-serif" font-size="11" textLength="135">: aws_ecs_attachment[]</text><text x="416.5" y="974.265" fill="#D9B8FF" font-family="sans-serif" font-size="11" font-weight="bold" textLength="87">health_status</text><text x="503.5" y="974.265" fill="#D9B8FF" font-family="sans-serif" font-size="11" textLength="253">: aws_ecs_container_instance_health_status</text><text x="416.5" y="997.07" fill="#D9B8FF" font-family="sans-serif" font-size="11" font-weight="bold" textLength="73">cluster_link</text><text x="489.5" y="997.07" fill="#D9B8FF" font-family="sans-serif" font-size="11" textLength="41">: string</text></a><path fill="none" d="M586.5 303.43V403.9M579.5 303.26l7-20 7 20h-14zM826.5 1231.2v100.58" style="stroke:#ffaf37;stroke-width:2"/><path fill="#FFAF37" d="m826.5 1336.88 4-9-4 4-4-4 4 9z" style="stroke:#ffaf37;stroke-width:2"/><path fill="none" d="M1171.5 1208.08v100.6" style="stroke:#ffaf37;stroke-width:2"/><path fill="#FFAF37" d="m1171.5 1313.98 4-9-4 4-4-4 4 9z" style="stroke:#ffaf37;stroke-width:2"/><path fill="none" d="M586.5 495.16v100.77M579.5 495.11l7-20 7 20h-14zM405.17 941.53c-72.24 54.99-151.6 115.39-208.63 158.8" style="stroke:#ffaf37;stroke-width:2"/><path fill="#FFAF37" d="m192.48 1103.43 9.582-2.277-5.606-.755.755-5.606-4.731 8.638z" style="stroke:#ffaf37;stroke-width:2"/><path fill="none" d="M586.5 1009.1v54.37" style="stroke:#ffaf37;stroke-width:2"/><path fill="#FFAF37" d="m586.5 1068.74 4-9-4 4-4-4 4 9z" style="stroke:#ffaf37;stroke-width:2"/><path fill="none" d="M455.77 1009.1c-17.82 28.02-35.05 55.12-49.89 78.46" style="stroke:#ffaf37;stroke-width:2"/><path fill="#FFAF37" d="m403.13 1091.88 8.21-5.44-5.523 1.224-1.223-5.524-1.464 9.74z" style="stroke:#ffaf37;stroke-width:2"/><path fill="none" d="M724.72 1009.1c18.83 28.02 37.05 55.12 52.75 78.46" style="stroke:#ffaf37;stroke-width:2"/><path fill="#FFAF37" d="m780.37 1091.88-1.703-9.7-1.087 5.55-5.551-1.087 8.341 5.237z" style="stroke:#ffaf37;stroke-width:2"/><path fill="none" d="M767.59 914.01c108.79 66.39 241.75 147.53 324.66 198.13" style="stroke:#ffaf37;stroke-width:2"/><path fill="#FFAF37" d="m1096.65 1114.82-5.608-8.096 1.337 5.496-5.497 1.337 9.768 1.263z" style="stroke:#ffaf37;stroke-width:2"/></svg>