<svg xmlns="http://www.w3.org/2000/svg" xmlns:xlink="http://www.w3.org/1999/xlink" width="737" height="452" preserveAspectRatio="none" style="width:737px;height:452px;background:#00000000"><a xlink:actuate="onRequest" xlink:href="#a" xlink:show="new" xlink:title="#aws_kms_key" xlink:type="simple" target="_top"><rect id="a" width="158" height="39.789" x="355.5" y="407" fill="#3D176E" rx="2.5" ry="2.5" style="stroke:#000d19;stroke-width:1.5"/><circle cx="370.5" cy="426.894" r="11" fill="#E98DF7" style="stroke:#000d19;stroke-width:1"/><path d="M373.469 432.535q-.578.297-1.219.438-.64.156-1.344.156-2.5 0-3.828-1.64-1.312-1.657-1.312-4.782t1.312-4.781q1.328-1.656 3.828-1.656.703 0 1.344.156.656.156 1.219.453v2.719q-.625-.579-1.219-.844-.594-.281-1.219-.281-1.344 0-2.031 1.078-.688 1.062-.688 3.156 0 2.094.688 3.172.688 1.062 2.031 1.062.625 0 1.219-.265.594-.281 1.219-.86v2.72Z"/><text x="389.5" y="432.78" fill="#D9B8FF" font-family="Helvetica" font-size="17" textLength="116">aws_kms_key</text></a><a xlink:actuate="onRequest" xlink:href="#b" xlink:show="new" xlink:title="#aws_vpc" xlink:type="simple" target="_top"><rect id="b" width="112" height="39.789" x="320.5" y="7" fill="#3D176E" rx="2.5" ry="2.5" style="stroke:#000d19;stroke-width:1.5"/><circle cx="335.5" cy="26.895" r="11" fill="#E98DF7" style="stroke:#000d19;stroke-width:1"/><path d="M338.469 32.535q-.578.297-1.219.438-.64.156-1.344.156-2.5 0-3.828-1.64-1.312-1.657-1.312-4.782t1.312-4.781q1.328-1.656 3.828-1.656.703 0 1.344.156.656.156 1.219.453v2.719q-.625-.578-1.219-.844-.594-.281-1.219-.281-1.344 0-2.031 1.078-.688 1.062-.688 3.156 0 2.094.688 3.172.688 1.062 2.031 1.062.625 0 1.219-.265.594-.281 1.219-.86v2.72Z"/><text x="354.5" y="32.78" fill="#D9B8FF" font-family="Helvetica" font-size="17" textLength="70">aws_vpc</text></a><a xlink:actuate="onRequest" xlink:href="#c" xlink:show="new" xlink:title="#aws_ec2_security_group" xlink:type="simple" target="_top"><rect id="c" width="245" height="39.789" x="7" y="107" fill="#3D176E" rx="2.5" ry="2.5" style="stroke:#000d19;stroke-width:1.5"/><circle cx="22" cy="126.894" r="11" fill="#E98DF7" style="stroke:#000d19;stroke-width:1"/><path d="M24.969 132.535q-.578.297-1.219.438-.64.156-1.344.156-2.5 0-3.828-1.64-1.312-1.657-1.312-4.782t1.312-4.781q1.328-1.657 3.828-1.657.703 0 1.344.157.656.156 1.219.453v2.719q-.625-.579-1.219-.844-.594-.281-1.219-.281-1.343 0-2.031 1.078-.688 1.062-.688 3.156 0 2.094.688 3.172.688 1.062 2.031 1.062.625 0 1.219-.265.594-.281 1.219-.86v2.72Z"/><text x="41" y="132.78" fill="#D9B8FF" font-family="Helvetica" font-size="17" textLength="203">aws_ec2_security_group</text></a><a xlink:actuate="onRequest" xlink:href="#d" xlink:show="new" xlink:title="#aws_ec2_subnet" xlink:type="simple" target="_top"><rect id="d" width="179" height="39.789" x="287" y="107" fill="#3D176E" rx="2.5" ry="2.5" style="stroke:#000d19;stroke-width:1.5"/><circle cx="302" cy="126.894" r="11" fill="#E98DF7" style="stroke:#000d19;stroke-width:1"/><path d="M304.969 132.535q-.578.297-1.219.438-.64.156-1.344.156-2.5 0-3.828-1.64-1.312-1.657-1.312-4.782t1.312-4.781q1.328-1.657 3.828-1.657.703 0 1.344.157.656.156 1.219.453v2.719q-.625-.579-1.219-.844-.594-.281-1.219-.281-1.344 0-2.031 1.078-.688 1.062-.688 3.156 0 2.094.688 3.172.688 1.062 2.031 1.062.625 0 1.219-.265.594-.281 1.219-.86v2.72Z"/><text x="321" y="132.78" fill="#D9B8FF" font-family="Helvetica" font-size="17" textLength="137">aws_ec2_subnet</text></a><a xlink:actuate="onRequest" xlink:href="#e" xlink:show="new" xlink:title="#aws_redshift_cluster" xlink:type="simple" target="_top"><rect id="e" width="213" height="39.789" x="385" y="207" fill="#3D176E" rx="2.5" ry="2.5" style="stroke:#000d19;stroke-width:1.5"/><circle cx="400" cy="226.894" r="11" fill="#E98DF7" style="stroke:#000d19;stroke-width:1"/><path d="M402.969 232.535q-.578.297-1.219.438-.64.156-1.344.156-2.5 0-3.828-1.64-1.312-1.657-1.312-4.782t1.312-4.781q1.328-1.656 3.828-1.656.703 0 1.344.156.656.156 1.219.453v2.719q-.625-.579-1.219-.844-.594-.281-1.219-.281-1.344 0-2.031 1.078-.688 1.062-.688 3.156 0 2.094.688 3.172.688 1.062 2.031 1.062.625 0 1.219-.265.594-.281 1.219-.86v2.72Z"/><text x="419" y="232.78" fill="#D9B8FF" font-family="Helvetica" font-size="17" textLength="171">aws_redshift_cluster</text></a><a xlink:actuate="onRequest" xlink:href="#f" xlink:show="new" xlink:title="#aws_sagemaker_processing_job" xlink:type="simple" target="_top"><rect id="f" width="306" height="39.789" x="178.5" y="307" fill="#3D176E" rx="2.5" ry="2.5" style="stroke:#000d19;stroke-width:1.5"/><circle cx="193.5" cy="326.894" r="11" fill="#E98DF7" style="stroke:#000d19;stroke-width:1"/><path d="M196.469 332.535q-.578.297-1.219.438-.64.156-1.344.156-2.5 0-3.828-1.64-1.312-1.657-1.312-4.782t1.312-4.781q1.328-1.656 3.828-1.656.703 0 1.344.156.656.156 1.219.453v2.719q-.625-.579-1.219-.844-.594-.281-1.219-.281-1.344 0-2.031 1.078-.688 1.062-.688 3.156 0 2.094.688 3.172.688 1.062 2.031 1.062.625 0 1.219-.265.594-.281 1.219-.86v2.72Z"/><text x="212.5" y="332.78" fill="#D9B8FF" font-family="Helvetica" font-size="17" textLength="264">aws_sagemaker_processing_job</text></a><a xlink:actuate="onRequest" xlink:href="#g" xlink:show="new" xlink:title="#aws_iam_role" xlink:type="simple" target="_top"><rect id="g" width="157" height="39.789" x="573" y="107" fill="#3D176E" rx="2.5" ry="2.5" style="stroke:#000d19;stroke-width:1.5"/><circle cx="588" cy="126.894" r="11" fill="#E98DF7" style="stroke:#000d19;stroke-width:1"/><path d="M590.969 132.535q-.578.297-1.219.438-.64.156-1.344.156-2.5 0-3.828-1.64-1.312-1.657-1.312-4.782t1.312-4.781q1.328-1.657 3.828-1.657.703 0 1.344.157.656.156 1.219.453v2.719q-.625-.579-1.219-.844-.594-.281-1.219-.281-1.343 0-2.031 1.078-.688 1.062-.688 3.156 0 2.094.688 3.172.688 1.062 2.031 1.062.625 0 1.219-.265.594-.281 1.219-.86v2.72Z"/><text x="607" y="132.78" fill="#D9B8FF" font-family="Helvetica" font-size="17" textLength="115">aws_iam_role</text></a><path fill="none" d="M328.58 47.01c-41.96 16.65-102.83 40.8-146.21 58.01" style="stroke:#1a83af;stroke-width:2"/><path fill="#1A83AF" d="m177.7 106.87 9.84.408-5.19-2.248 2.247-5.19-6.897 7.03z" style="stroke:#1a83af;stroke-width:2"/><path fill="none" d="M376.5 47.36v54.3" style="stroke:#1a83af;stroke-width:2"/><path fill="#1A83AF" d="m376.5 106.68 4-9-4 4-4-4 4 9z" style="stroke:#1a83af;stroke-width:2"/><path fill="none" d="M417.73 47.13C441.29 60.4 468.97 80.47 483.5 107c16.15 29.5 15.03 69.48 12.05 94.76" style="stroke:#1a83af;stroke-width:2"/><path fill="#1A83AF" d="m494.89 206.92 5.1-8.425-4.471 3.465-3.465-4.472 2.836 9.432z" style="stroke:#1a83af;stroke-width:2"/><path fill="none" d="M149.24 147.35c37.5 36.76 118.9 116.55 158.99 155.84" style="stroke:#1a83af;stroke-width:2"/><path fill="#1A83AF" d="m311.98 306.87-3.628-9.156.057 5.656-5.657.058 9.228 3.442z" style="stroke:#1a83af;stroke-width:2"/><path fill="none" d="M199.73 147.01c62.22 16.85 152.81 41.37 216.51 58.62" style="stroke:#1a83af;stroke-width:2"/><path fill="#1A83AF" d="m421.16 206.96-7.65-6.202 2.822 4.902-4.902 2.823 9.73-1.523z" style="stroke:#1a83af;stroke-width:2"/><path fill="none" d="M398.95 147.13c18.99 16.19 46.24 39.41 66.26 56.47" style="stroke:#1a83af;stroke-width:2"/><path fill="#1A83AF" d="m469.11 206.92-4.25-8.885.447 5.64-5.64.445 9.443 2.8z" style="stroke:#1a83af;stroke-width:2"/><path fill="none" d="M372.1 147.35c-8.25 36.32-26.05 114.62-35.09 154.4" style="stroke:#1a83af;stroke-width:2"/><path fill="#1A83AF" d="m335.85 306.87 5.906-7.882-4.791 3.008-3.007-4.791 1.892 9.665z" style="stroke:#1a83af;stroke-width:2"/><path fill="none" d="M498.29 247.22c7.39 24.11 16.63 66.32 4.21 99.78-8.18 22.05-25.59 42.08-40.74 56.45" style="stroke:#1a83af;stroke-width:2"/><path fill="#1A83AF" d="m457.96 406.98 9.315-3.2-5.654-.205.206-5.653-3.867 9.058z" style="stroke:#1a83af;stroke-width:2"/><path fill="none" d="M460.27 247.13c-26.76 16.39-65.29 39.99-93.23 57.1" style="stroke:#1a83af;stroke-width:2"/><path fill="#1A83AF" d="m362.65 306.92 9.763-1.301-5.502-1.316 1.315-5.501-5.576 8.118z" style="stroke:#1a83af;stroke-width:2"/><path fill="none" d="M351.85 347.36c16.79 15.97 40.65 38.68 58.42 55.59" style="stroke:#1a83af;stroke-width:2"/><path fill="#1A83AF" d="m414.19 406.68-3.757-9.104.137 5.655-5.655.137 9.275 3.312z" style="stroke:#1a83af;stroke-width:2"/><path fill="none" d="M651.14 147.37c-1.57 26.26-8.32 72.92-35.64 99.63-33.81 33.05-80.2 52.54-125.69 63.95" style="stroke:#1a83af;stroke-width:2"/><path fill="#1A83AF" d="m484.84 312.16 9.697 1.725-4.843-2.924 2.924-4.843-7.778 6.042z" style="stroke:#1a83af;stroke-width:2"/><path fill="none" d="M620.27 147.13c-26.76 16.39-65.29 39.99-93.23 57.1" style="stroke:#1a83af;stroke-width:2"/><path fill="#1A83AF" d="m522.65 206.92 9.763-1.301-5.502-1.315 1.315-5.502-5.576 8.118z" style="stroke:#1a83af;stroke-width:2"/></svg>