<svg xmlns="http://www.w3.org/2000/svg" xmlns:xlink="http://www.w3.org/1999/xlink" width="1802" height="452" preserveAspectRatio="none" style="width:1802px;height:452px;background:#00000000"><a xlink:actuate="onRequest" xlink:href="#a" xlink:show="new" xlink:title="#aws_ec2_subnet" xlink:type="simple" target="_top"><rect id="a" width="179" height="39.789" x="712.18" y="7" fill="#3D176E" rx="2.5" ry="2.5" style="stroke:#000d19;stroke-width:1.5"/><circle cx="727.18" cy="26.895" r="11" fill="#E98DF7" style="stroke:#000d19;stroke-width:1"/><path d="M730.149 32.535q-.578.297-1.219.438-.64.156-1.344.156-2.5 0-3.828-1.64-1.312-1.657-1.312-4.782t1.312-4.781q1.328-1.656 3.828-1.656.703 0 1.344.156.656.156 1.219.453v2.719q-.625-.578-1.219-.844-.594-.281-1.219-.281-1.344 0-2.031 1.078-.688 1.062-.688 3.156 0 2.094.688 3.172.688 1.062 2.031 1.062.625 0 1.219-.265.594-.281 1.219-.86v2.72Z"/><text x="746.18" y="32.78" fill="#D9B8FF" font-family="Helvetica" font-size="17" textLength="137">aws_ec2_subnet</text></a><a xlink:actuate="onRequest" xlink:href="#b" xlink:show="new" xlink:title="#aws_sagemaker_training_job" xlink:type="simple" target="_top"><rect id="b" width="285" height="39.789" x="644.18" y="307" fill="#3D176E" rx="2.5" ry="2.5" style="stroke:#000d19;stroke-width:1.5"/><circle cx="659.18" cy="326.894" r="11" fill="#E98DF7" style="stroke:#000d19;stroke-width:1"/><path d="M662.149 332.535q-.578.297-1.219.438-.64.156-1.344.156-2.5 0-3.828-1.64-1.312-1.657-1.312-4.782t1.312-4.781q1.328-1.656 3.828-1.656.703 0 1.344.156.656.156 1.219.453v2.719q-.625-.579-1.219-.844-.594-.281-1.219-.281-1.344 0-2.031 1.078-.688 1.062-.688 3.156 0 2.094.688 3.172.688 1.062 2.031 1.062.625 0 1.219-.265.594-.281 1.219-.86v2.72Z"/><text x="678.18" y="332.78" fill="#D9B8FF" font-family="Helvetica" font-size="17" textLength="243">aws_sagemaker_training_job</text></a><a xlink:actuate="onRequest" xlink:href="#c" xlink:show="new" xlink:title="#aws_sagemaker_labeling_job" xlink:type="simple" target="_top"><rect id="c" width="285" height="39.789" x="951.18" y="207" fill="#3D176E" rx="2.5" ry="2.5" style="stroke:#000d19;stroke-width:1.5"/><circle cx="966.18" cy="226.894" r="11" fill="#E98DF7" style="stroke:#000d19;stroke-width:1"/><path d="M969.149 232.535q-.578.297-1.219.438-.64.156-1.344.156-2.5 0-3.828-1.64-1.312-1.657-1.312-4.782t1.312-4.781q1.328-1.656 3.828-1.656.703 0 1.344.156.656.156 1.219.453v2.719q-.625-.579-1.219-.844-.594-.281-1.219-.281-1.344 0-2.031 1.078-.688 1.062-.688 3.156 0 2.094.688 3.172.688 1.062 2.031 1.062.625 0 1.219-.265.594-.281 1.219-.86v2.72Z"/><text x="985.18" y="232.78" fill="#D9B8FF" font-family="Helvetica" font-size="17" textLength="243">aws_sagemaker_labeling_job</text></a><a xlink:actuate="onRequest" xlink:href="#d" xlink:show="new" xlink:title="#aws_sagemaker_auto_ml_job" xlink:type="simple" target="_top"><rect id="d" width="288" height="39.789" x="682.68" y="107" fill="#3D176E" rx="2.5" ry="2.5" style="stroke:#000d19;stroke-width:1.5"/><circle cx="697.68" cy="126.894" r="11" fill="#E98DF7" style="stroke:#000d19;stroke-width:1"/><path d="M700.649 132.535q-.578.297-1.219.438-.64.156-1.344.156-2.5 0-3.828-1.64-1.312-1.657-1.312-4.782t1.312-4.781q1.328-1.657 3.828-1.657.703 0 1.344.157.656.156 1.219.453v2.719q-.625-.579-1.219-.844-.594-.281-1.219-.281-1.344 0-2.031 1.078-.688 1.062-.688 3.156 0 2.094.688 3.172.688 1.062 2.031 1.062.625 0 1.219-.265.594-.281 1.219-.86v2.72Z"/><text x="716.68" y="132.78" fill="#D9B8FF" font-family="Helvetica" font-size="17" textLength="246">aws_sagemaker_auto_ml_job</text></a><a xlink:actuate="onRequest" xlink:href="#e" xlink:show="new" xlink:title="#aws_sagemaker_processing_job" xlink:type="simple" target="_top"><rect id="e" width="306" height="39.789" x="235.68" y="207" fill="#3D176E" rx="2.5" ry="2.5" style="stroke:#000d19;stroke-width:1.5"/><circle cx="250.68" cy="226.894" r="11" fill="#E98DF7" style="stroke:#000d19;stroke-width:1"/><path d="M253.649 232.535q-.578.297-1.219.438-.64.156-1.344.156-2.5 0-3.828-1.64-1.312-1.657-1.312-4.782t1.312-4.781q1.328-1.656 3.828-1.656.703 0 1.344.156.656.156 1.219.453v2.719q-.625-.579-1.219-.844-.594-.281-1.219-.281-1.344 0-2.031 1.078-.688 1.062-.688 3.156 0 2.094.688 3.172.688 1.062 2.031 1.062.625 0 1.219-.265.594-.281 1.219-.86v2.72Z"/><text x="269.68" y="232.78" fill="#D9B8FF" font-family="Helvetica" font-size="17" textLength="264">aws_sagemaker_processing_job</text></a><a xlink:actuate="onRequest" xlink:href="#f" xlink:show="new" xlink:title="#aws_sagemaker_hyper_parameter_tuning_job" xlink:type="simple" target="_top"><rect id="f" width="428" height="39.789" x="1271.68" y="207" fill="#3D176E" rx="2.5" ry="2.5" style="stroke:#000d19;stroke-width:1.5"/><circle cx="1286.68" cy="226.894" r="11" fill="#E98DF7" style="stroke:#000d19;stroke-width:1"/><path d="M1289.649 232.535q-.578.297-1.219.438-.64.156-1.344.156-2.5 0-3.828-1.64-1.312-1.657-1.312-4.782t1.312-4.781q1.328-1.656 3.828-1.656.703 0 1.344.156.656.156 1.219.453v2.719q-.625-.579-1.219-.844-.594-.281-1.219-.281-1.343 0-2.031 1.078-.688 1.062-.688 3.156 0 2.094.688 3.172.688 1.062 2.031 1.062.625 0 1.219-.265.594-.281 1.219-.86v2.72Z"/><text x="1305.68" y="232.78" fill="#D9B8FF" font-family="Helvetica" font-size="17" textLength="386">aws_sagemaker_hyper_parameter_tuning_job</text></a><a xlink:actuate="onRequest" xlink:href="#g" xlink:show="new" xlink:title="#aws_sagemaker_trial" xlink:type="simple" target="_top"><rect id="g" width="219" height="39.789" x="73.18" y="107" fill="#3D176E" rx="2.5" ry="2.5" style="stroke:#000d19;stroke-width:1.5"/><circle cx="88.18" cy="126.894" r="11" fill="#E98DF7" style="stroke:#000d19;stroke-width:1"/><path d="M91.149 132.535q-.578.297-1.219.438-.64.156-1.344.156-2.5 0-3.828-1.64-1.312-1.657-1.312-4.782t1.312-4.781q1.328-1.657 3.828-1.657.703 0 1.344.157.656.156 1.219.453v2.719q-.625-.579-1.219-.844-.594-.281-1.219-.281-1.343 0-2.031 1.078-.688 1.062-.688 3.156 0 2.094.688 3.172.688 1.062 2.031 1.062.625 0 1.219-.265.594-.281 1.219-.86v2.72Z"/><text x="107.18" y="132.78" fill="#D9B8FF" font-family="Helvetica" font-size="17" textLength="177">aws_sagemaker_trial</text></a><a xlink:actuate="onRequest" xlink:href="#h" xlink:show="new" xlink:title="#aws_kms_key" xlink:type="simple" target="_top"><rect id="h" width="158" height="39.789" x="904.68" y="407" fill="#3D176E" rx="2.5" ry="2.5" style="stroke:#000d19;stroke-width:1.5"/><circle cx="919.68" cy="426.894" r="11" fill="#E98DF7" style="stroke:#000d19;stroke-width:1"/><path d="M922.649 432.535q-.578.297-1.219.438-.64.156-1.344.156-2.5 0-3.828-1.64-1.312-1.657-1.312-4.782t1.312-4.781q1.328-1.656 3.828-1.656.703 0 1.344.156.656.156 1.219.453v2.719q-.625-.579-1.219-.844-.594-.281-1.219-.281-1.344 0-2.031 1.078-.688 1.062-.688 3.156 0 2.094.688 3.172.688 1.062 2.031 1.062.625 0 1.219-.265.594-.281 1.219-.86v2.72Z"/><text x="938.68" y="432.78" fill="#D9B8FF" font-family="Helvetica" font-size="17" textLength="116">aws_kms_key</text></a><a xlink:actuate="onRequest" xlink:href="#i" xlink:show="new" xlink:title="#aws_s3_bucket" xlink:type="simple" target="_top"><rect id="i" width="168" height="39.789" x="701.68" y="407" fill="#3D176E" rx="2.5" ry="2.5" style="stroke:#000d19;stroke-width:1.5"/><circle cx="716.68" cy="426.894" r="11" fill="#E98DF7" style="stroke:#000d19;stroke-width:1"/><path d="M719.649 432.535q-.578.297-1.219.438-.64.156-1.344.156-2.5 0-3.828-1.64-1.312-1.657-1.312-4.782t1.312-4.781q1.328-1.656 3.828-1.656.703 0 1.344.156.656.156 1.219.453v2.719q-.625-.579-1.219-.844-.594-.281-1.219-.281-1.344 0-2.031 1.078-.688 1.062-.688 3.156 0 2.094.688 3.172.688 1.062 2.031 1.062.625 0 1.219-.265.594-.281 1.219-.86v2.72Z"/><text x="735.68" y="432.78" fill="#D9B8FF" font-family="Helvetica" font-size="17" textLength="126">aws_s3_bucket</text></a><a xlink:actuate="onRequest" xlink:href="#j" xlink:show="new" xlink:title="#aws_sagemaker_algorithm" xlink:type="simple" target="_top"><rect id="j" width="267" height="39.789" x="1410.18" y="407" fill="#3D176E" rx="2.5" ry="2.5" style="stroke:#000d19;stroke-width:1.5"/><circle cx="1425.18" cy="426.894" r="11" fill="#E98DF7" style="stroke:#000d19;stroke-width:1"/><path d="M1428.149 432.535q-.578.297-1.219.438-.64.156-1.344.156-2.5 0-3.828-1.64-1.312-1.657-1.312-4.782t1.312-4.781q1.328-1.656 3.828-1.656.703 0 1.344.156.656.156 1.219.453v2.719q-.625-.579-1.219-.844-.594-.281-1.219-.281-1.343 0-2.031 1.078-.688 1.062-.688 3.156 0 2.094.688 3.172.688 1.062 2.031 1.062.625 0 1.219-.265.594-.281 1.219-.86v2.72Z"/><text x="1444.18" y="432.78" fill="#D9B8FF" font-family="Helvetica" font-size="17" textLength="225">aws_sagemaker_algorithm</text></a><a xlink:actuate="onRequest" xlink:href="#k" xlink:show="new" xlink:title="#aws_iam_role" xlink:type="simple" target="_top"><rect id="k" width="157" height="39.789" x="1367.18" y="7" fill="#3D176E" rx="2.5" ry="2.5" style="stroke:#000d19;stroke-width:1.5"/><circle cx="1382.18" cy="26.895" r="11" fill="#E98DF7" style="stroke:#000d19;stroke-width:1"/><path d="M1385.149 32.535q-.578.297-1.219.438-.64.156-1.344.156-2.5 0-3.828-1.64-1.312-1.657-1.312-4.782t1.312-4.781q1.328-1.656 3.828-1.656.703 0 1.344.156.656.156 1.219.453v2.719q-.625-.578-1.219-.844-.594-.281-1.219-.281-1.343 0-2.031 1.078-.688 1.062-.688 3.156 0 2.094.688 3.172.688 1.062 2.031 1.062.625 0 1.219-.265.594-.281 1.219-.86v2.72Z"/><text x="1401.18" y="32.78" fill="#D9B8FF" font-family="Helvetica" font-size="17" textLength="115">aws_iam_role</text></a><a xlink:actuate="onRequest" xlink:href="#l" xlink:show="new" xlink:title="#aws_sagemaker_experiment" xlink:type="simple" target="_top"><rect id="l" width="282" height="39.789" x="41.68" y="7" fill="#3D176E" rx="2.5" ry="2.5" style="stroke:#000d19;stroke-width:1.5"/><circle cx="56.68" cy="26.895" r="11" fill="#E98DF7" style="stroke:#000d19;stroke-width:1"/><path d="M59.649 32.535q-.578.297-1.219.438-.64.156-1.344.156-2.5 0-3.828-1.64-1.312-1.657-1.312-4.782t1.312-4.781q1.328-1.656 3.828-1.656.703 0 1.344.156.656.156 1.219.453v2.719q-.625-.578-1.219-.844-.594-.281-1.219-.281-1.343 0-2.031 1.078-.688 1.062-.688 3.156 0 2.094.688 3.172.688 1.062 2.031 1.062.625 0 1.219-.265.594-.281 1.219-.86v2.72Z"/><text x="75.68" y="32.78" fill="#D9B8FF" font-family="Helvetica" font-size="17" textLength="240">aws_sagemaker_experiment</text></a><a xlink:actuate="onRequest" xlink:href="#m" xlink:show="new" xlink:title="#aws_ec2_security_group" xlink:type="simple" target="_top"><rect id="m" width="245" height="39.789" x="926.18" y="7" fill="#3D176E" rx="2.5" ry="2.5" style="stroke:#000d19;stroke-width:1.5"/><circle cx="941.18" cy="26.895" r="11" fill="#E98DF7" style="stroke:#000d19;stroke-width:1"/><path d="M944.149 32.535q-.578.297-1.219.438-.64.156-1.344.156-2.5 0-3.828-1.64-1.312-1.657-1.312-4.782t1.312-4.781q1.328-1.656 3.828-1.656.703 0 1.344.156.656.156 1.219.453v2.719q-.625-.578-1.219-.844-.594-.281-1.219-.281-1.344 0-2.031 1.078-.688 1.062-.688 3.156 0 2.094.688 3.172.688 1.062 2.031 1.062.625 0 1.219-.265.594-.281 1.219-.86v2.72Z"/><text x="960.18" y="32.78" fill="#D9B8FF" font-family="Helvetica" font-size="17" textLength="203">aws_ec2_security_group</text></a><path fill="none" d="M741.51 47c-28.32 12.31-59.42 31.48-75.83 60-40.99 71.22 44.68 156.78 92.2 196.59" style="stroke:#1a83af;stroke-width:2"/><path fill="#1A83AF" d="m761.79 306.83-4.373-8.825.525 5.632-5.633.525 9.481 2.668z" style="stroke:#1a83af;stroke-width:2"/><path fill="none" d="M865.96 47.13c37.89 13.15 85.53 33.11 122.72 59.87 37.21 26.78 70.4 69.01 89.08 95.3" style="stroke:#1a83af;stroke-width:2"/><path fill="#1A83AF" d="m1080.86 206.7-1.925-9.659-.96 5.575-5.574-.96 8.459 5.044z" style="stroke:#1a83af;stroke-width:2"/><path fill="none" d="M806.62 47.36c3.97 15.57 9.57 37.54 13.85 54.3" style="stroke:#1a83af;stroke-width:2"/><path fill="#1A83AF" d="m821.75 106.68 1.637-9.712-2.88 4.869-4.869-2.88 6.112 7.723z" style="stroke:#1a83af;stroke-width:2"/><path fill="none" d="M711.9 30.17C638.44 36.05 535.06 54.12 461.68 107c-32.95 23.74-54.04 67.39-64.68 94.71" style="stroke:#1a83af;stroke-width:2"/><path fill="#1A83AF" d="m395.13 206.61 6.931-6.997-5.158 2.322-2.322-5.159.549 9.834z" style="stroke:#1a83af;stroke-width:2"/><path fill="none" d="M867.58 47.07c129.08 37.37 414.24 119.92 547.23 158.42" style="stroke:#1a83af;stroke-width:2"/><path fill="#1A83AF" d="m1419.87 206.95-7.537-6.34 2.733 4.953-4.952 2.734 9.756-1.347z" style="stroke:#1a83af;stroke-width:2"/><path fill="none" d="M825.13 347.13c33.22 16.52 81.18 40.38 115.64 57.52" style="stroke:#1a83af;stroke-width:2"/><path fill="#1A83AF" d="m945.33 406.92-6.27-7.595 1.795 5.365-5.364 1.795 9.839.435z" style="stroke:#1a83af;stroke-width:2"/><path fill="none" d="M929.51 346.49c136.32 17.65 340.38 44.07 475.35 61.54" style="stroke:#1a83af;stroke-width:2"/><path fill="#1A83AF" d="m1410.03 408.7-8.41-5.124 3.452 4.481-4.482 3.452 9.44-2.809z" style="stroke:#1a83af;stroke-width:2"/><path fill="none" d="M786.48 347.36c-.16 15.57-.38 37.54-.55 54.3" style="stroke:#1a83af;stroke-width:2"/><path fill="#1A83AF" d="m785.88 406.68 4.103-8.954-4.046 3.954-3.954-4.045 3.897 9.045z" style="stroke:#1a83af;stroke-width:2"/><path fill="none" d="M1034.12 247.01c-52.55 16.78-128.98 41.18-182.96 58.41" style="stroke:#1a83af;stroke-width:2"/><path fill="#1A83AF" d="m846.33 306.96 9.792 1.055-5.032-2.585 2.585-5.031-7.345 6.561z" style="stroke:#1a83af;stroke-width:2"/><path fill="none" d="M1095.63 247.03c1.63 24.64 1.39 68.2-15.95 99.97-13.03 23.88-36.5 43.39-56.97 57.05" style="stroke:#1a83af;stroke-width:2"/><path fill="#1A83AF" d="m1018.39 406.88 9.718-1.602-5.54-1.145 1.144-5.54-5.322 8.287z" style="stroke:#1a83af;stroke-width:2"/><path fill="none" d="M1072.92 247.34c-27.48 24.99-78.09 68.91-126.24 99.66-35.39 22.6-78.18 43.31-110.74 57.86" style="stroke:#1a83af;stroke-width:2"/><path fill="#1A83AF" d="m831.21 406.96 9.849.006-5.279-2.034 2.034-5.279-6.604 7.307z" style="stroke:#1a83af;stroke-width:2"/><path fill="none" d="M819.16 147.18c-5.9 15.81-13.87 38.95-18.48 59.82-7.14 32.29-10.81 70.37-12.57 94.59" style="stroke:#1a83af;stroke-width:2"/><path fill="#1A83AF" d="m787.75 306.84 4.633-8.691-4.276 3.704-3.704-4.276 3.347 9.263z" style="stroke:#1a83af;stroke-width:2"/><path fill="none" d="M842.16 147c25.02 31.53 74.58 97.39 104.52 160 14.99 31.34 25.73 70.19 31.66 94.79" style="stroke:#1a83af;stroke-width:2"/><path fill="#1A83AF" d="m979.53 406.82 1.839-9.676-2.981 4.808-4.808-2.98 5.95 7.848z" style="stroke:#1a83af;stroke-width:2"/><path fill="none" d="M790.91 147.11C743.06 174.96 660.34 231.7 626.68 307c-7.26 16.23-9.37 24.89 0 40 17.26 27.85 47.61 46.2 77.19 58.13" style="stroke:#1a83af;stroke-width:2"/><path fill="#1A83AF" d="m708.61 406.99-6.916-7.013 2.262 5.186-5.185 2.261 9.839-.434z" style="stroke:#1a83af;stroke-width:2"/><path fill="none" d="M741.71 147.01c-75.59 16.91-185.78 41.57-262.89 58.82" style="stroke:#1a83af;stroke-width:2"/><path fill="#1A83AF" d="m473.79 206.96 9.66 1.92-4.783-3.021 3.02-4.783-7.897 5.884z" style="stroke:#1a83af;stroke-width:2"/><path fill="none" d="M420.67 247.2c44.67 26.05 128.94 72.48 206.01 99.8 25.49 9.04 175.3 41.06 272.58 61.46" style="stroke:#1a83af;stroke-width:2"/><path fill="#1A83AF" d="m904.43 409.54-7.986-5.764 3.093 4.737-4.737 3.093 9.63-2.066z" style="stroke:#1a83af;stroke-width:2"/><path fill="none" d="m465.89 247.01 238.46 58.72" style="stroke:#1a83af;stroke-width:2"/><path fill="#1A83AF" d="m709.35 306.96-7.778-6.042 2.924 4.843-4.843 2.924 9.697-1.725z" style="stroke:#1a83af;stroke-width:2"/><path fill="none" d="M400.38 247.2c17.15 26.49 51.64 73.91 93.3 99.8 61.72 38.35 142.02 58.32 202.79 68.58" style="stroke:#1a83af;stroke-width:2"/><path fill="#1A83AF" d="m701.54 416.42-8.212-5.437 3.281 4.608-4.608 3.281 9.539-2.452z" style="stroke:#1a83af;stroke-width:2"/><path fill="none" d="M1453.18 247.17c-44.05 25.4-125.7 70.41-199.5 99.83-60.89 24.27-132.13 44.8-186.15 58.85" style="stroke:#1a83af;stroke-width:2"/><path fill="#1A83AF" d="m1062.69 407.1 9.716 1.61-4.876-2.866 2.866-4.877-7.706 6.133z" style="stroke:#1a83af;stroke-width:2"/><path fill="none" d="M1350.08 247.01c-121.69 17.06-299.59 42-422.79 59.28" style="stroke:#1a83af;stroke-width:2"/><path fill="#1A83AF" d="m922.2 307 9.47 2.702-4.52-3.401 3.402-4.52L922.2 307z" style="stroke:#1a83af;stroke-width:2"/><path fill="none" d="M1418.24 247.07c-132.1 37.37-423.94 119.92-560.03 158.42" style="stroke:#1a83af;stroke-width:2"/><path fill="#1A83AF" d="m853.03 406.95 9.748 1.408-4.936-2.765 2.765-4.935-7.577 6.292z" style="stroke:#1a83af;stroke-width:2"/><path fill="none" d="M222.89 147.13c34.74 16.52 84.88 40.38 120.92 57.52" style="stroke:#1a83af;stroke-width:2"/><path fill="#1A83AF" d="m348.57 206.92-6.415-7.473 1.898 5.329-5.329 1.898 9.846.246z" style="stroke:#1a83af;stroke-width:2"/><path fill="none" d="M182.36 147.44c.71 26.78 6.28 74.53 35.32 99.56 61.36 52.89 273.97 70.46 421.16 76.25" style="stroke:#1a83af;stroke-width:2"/><path fill="#1A83AF" d="m644.05 323.45-8.845-4.331 3.848 4.145-4.145 3.85 9.142-3.664z" style="stroke:#1a83af;stroke-width:2"/><path fill="none" d="M1524.22 36.54c54.4 9.42 125.7 29.18 175.46 70.46 38.71 32.11 40.86 51.19 53 100 23 92.52-91.53 163.88-160.24 197.62" style="stroke:#1a83af;stroke-width:2"/><path fill="#1A83AF" d="m1587.58 406.98 9.843-.334-5.345-1.85 1.85-5.346-6.348 7.53z" style="stroke:#1a83af;stroke-width:2"/><path fill="none" d="M1367.07 34.32C1182.48 49.38 731.89 87.61 665.68 107c-37.77 11.06-43.13 23.8-79 40-47.16 21.3-101.87 42.9-141.81 58.11" style="stroke:#1a83af;stroke-width:2"/><path fill="#1A83AF" d="m440.07 206.94 9.834.533-5.162-2.314 2.313-5.162-6.985 6.943z" style="stroke:#1a83af;stroke-width:2"/><path fill="none" d="M1411.61 47.16c-65.93 37.09-210.53 118.43-279.66 157.31" style="stroke:#1a83af;stroke-width:2"/><path fill="#1A83AF" d="m1127.51 206.97 9.804-.937-5.449-1.52 1.52-5.448-5.875 7.905z" style="stroke:#1a83af;stroke-width:2"/><path fill="none" d="M1366.97 40.46c-104.7 16.58-290.99 46.07-415.09 65.72" style="stroke:#1a83af;stroke-width:2"/><path fill="#1A83AF" d="m946.76 106.99 9.516 2.538-4.578-3.323 3.322-4.578-8.26 5.363z" style="stroke:#1a83af;stroke-width:2"/><path fill="none" d="M1449.59 47.35c7.34 36.32 23.16 114.62 31.19 154.4" style="stroke:#1a83af;stroke-width:2"/><path fill="#1A83AF" d="m1481.81 206.87 2.147-9.612-3.133 4.71-4.71-3.132 5.696 8.034z" style="stroke:#1a83af;stroke-width:2"/><path fill="none" d="M1505.73 47.11c101.81 35.31 289.98 114.95 211.95 199.89-51.81 56.39-533.7 72.57-783.03 77.18" style="stroke:#1a83af;stroke-width:2"/><path fill="#1A83AF" d="m929.53 324.28 9.067 3.845-4.068-3.93 3.931-4.069-8.93 4.154z" style="stroke:#1a83af;stroke-width:2"/><path fill="none" d="M222.66 47.12c26.67 14.07 61.4 35.01 87.02 59.88 29.31 28.46 53.61 69.57 67.22 95.27" style="stroke:#1a83af;stroke-width:2"/><path fill="#1A83AF" d="m379.31 206.88-.623-9.83-1.693 5.399-5.398-1.693 7.714 6.124z" style="stroke:#1a83af;stroke-width:2"/><path fill="none" d="M128.35 47.05C101.36 59.6 71.26 78.97 55.68 107 6 196.42 169.39 240.24 185.68 247c79.38 32.92 302.07 55.99 452.92 68.38" style="stroke:#1a83af;stroke-width:2"/><path fill="#1A83AF" d="m643.93 315.82-8.651-4.707 3.667 4.307-4.307 3.667 9.291-3.267z" style="stroke:#1a83af;stroke-width:2"/><path fill="none" d="M182.68 47.36v54.3" style="stroke:#1a83af;stroke-width:2"/><path fill="#1A83AF" d="m182.68 106.68 4-9-4 4-4-4 4 9z" style="stroke:#1a83af;stroke-width:2"/><path fill="none" d="M926.02 45.15C815.46 61.45 661.64 86.46 603.68 107c-69.25 24.55-142.63 69.92-183.25 96.99" style="stroke:#1a83af;stroke-width:2"/><path fill="#1A83AF" d="m416.13 206.88 9.703-1.687-5.55-1.096 1.097-5.55-5.25 8.333z" style="stroke:#1a83af;stroke-width:2"/><path fill="none" d="M1073.85 47.04c16.79 14.38 37.45 35.73 46.83 59.96 12.34 31.85-1.58 70.79-13.57 95.25" style="stroke:#1a83af;stroke-width:2"/><path fill="#1A83AF" d="m1104.74 206.95 7.627-6.232-5.374 1.769-1.768-5.374-.485 9.837z" style="stroke:#1a83af;stroke-width:2"/><path fill="none" d="M1005.61 47.01c-37.56 16.58-91.98 40.61-130.93 57.8" style="stroke:#1a83af;stroke-width:2"/><path fill="#1A83AF" d="m870.01 106.87 9.849.017-5.276-2.04 2.04-5.276-6.613 7.299z" style="stroke:#1a83af;stroke-width:2"/><path fill="none" d="M1090.98 47.16c82.09 37.2 262.44 118.92 347.95 157.66" style="stroke:#1a83af;stroke-width:2"/><path fill="#1A83AF" d="m1443.68 206.97-6.538-7.366 1.986 5.297-5.296 1.986 9.848.083z" style="stroke:#1a83af;stroke-width:2"/><path fill="none" d="M1041.55 47.42c-9.63 24.67-28.44 67.87-52.87 99.58-27.19 35.29-125.44 116.92-174.18 156.57" style="stroke:#1a83af;stroke-width:2"/><path fill="#1A83AF" d="m810.51 306.81 9.513-2.55-5.625-.594.594-5.626-4.482 8.77z" style="stroke:#1a83af;stroke-width:2"/></svg>