<svg xmlns="http://www.w3.org/2000/svg" xmlns:xlink="http://www.w3.org/1999/xlink" width="2048" height="1864" preserveAspectRatio="none" style="width:2048px;height:1864px;background:#00000000"><a xlink:actuate="onRequest" xlink:href="#a" xlink:show="new" xlink:title="#resource" xlink:type="simple" target="_top"><rect id="a" width="195" height="275.836" x="651.89" y="7" fill="#3D176E" rx="2.5" ry="2.5" style="stroke:#000d19;stroke-width:1.5"/><circle cx="704.64" cy="26.895" r="11" fill="#E98DF7" style="stroke:#000d19;stroke-width:1"/><path d="M707.609 32.535q-.578.297-1.219.438-.64.156-1.344.156-2.5 0-3.828-1.64-1.312-1.657-1.312-4.782t1.312-4.781q1.328-1.656 3.828-1.656.703 0 1.344.156.656.156 1.219.453v2.719q-.625-.578-1.219-.844-.594-.281-1.219-.281-1.344 0-2.031 1.078-.688 1.062-.688 3.156 0 2.094.688 3.172.688 1.062 2.031 1.062.625 0 1.219-.265.594-.281 1.219-.86v2.72Z"/><text x="730.14" y="32.78" fill="#D9B8FF" font-family="Helvetica" font-size="17" textLength="71">resource</text><path d="M652.89 46.789h193" style="stroke:#000d19;stroke-width:1.5"/><text x="662.89" y="65.999" fill="#D9B8FF" font-family="sans-serif" font-size="11" font-weight="bold" textLength="12">id</text><text x="674.89" y="65.999" fill="#D9B8FF" font-family="sans-serif" font-size="11" textLength="41">: string</text><text x="662.89" y="88.804" fill="#D9B8FF" font-family="sans-serif" font-size="11" font-weight="bold" textLength="28">tags</text><text x="690.89" y="88.804" fill="#D9B8FF" font-family="sans-serif" font-size="11" textLength="145">: dictionary[string, string]</text><text x="662.89" y="111.609" fill="#D9B8FF" font-family="sans-serif" font-size="11" font-weight="bold" textLength="35">name</text><text x="697.89" y="111.609" fill="#D9B8FF" font-family="sans-serif" font-size="11" textLength="41">: string</text><text x="662.89" y="134.414" fill="#D9B8FF" font-family="sans-serif" font-size="11" font-weight="bold" textLength="35">ctime</text><text x="697.89" y="134.414" fill="#D9B8FF" font-family="sans-serif" font-size="11" textLength="58">: datetime</text><text x="662.89" y="157.218" fill="#D9B8FF" font-family="sans-serif" font-size="11" font-weight="bold" textLength="24">age</text><text x="686.89" y="157.218" fill="#D9B8FF" font-family="sans-serif" font-size="11" textLength="55">: duration</text><text x="662.89" y="180.023" fill="#D9B8FF" font-family="sans-serif" font-size="11" font-weight="bold" textLength="39">mtime</text><text x="701.89" y="180.023" fill="#D9B8FF" font-family="sans-serif" font-size="11" textLength="58">: datetime</text><text x="662.89" y="202.828" fill="#D9B8FF" font-family="sans-serif" font-size="11" font-weight="bold" textLength="75">last_update</text><text x="737.89" y="202.828" fill="#D9B8FF" font-family="sans-serif" font-size="11" textLength="55">: duration</text><text x="662.89" y="225.632" fill="#D9B8FF" font-family="sans-serif" font-size="11" font-weight="bold" textLength="36">atime</text><text x="698.89" y="225.632" fill="#D9B8FF" font-family="sans-serif" font-size="11" textLength="58">: datetime</text><text x="662.89" y="248.437" fill="#D9B8FF" font-family="sans-serif" font-size="11" font-weight="bold" textLength="74">last_access</text><text x="736.89" y="248.437" fill="#D9B8FF" font-family="sans-serif" font-size="11" textLength="55">: duration</text><text x="662.89" y="271.242" fill="#D9B8FF" font-family="sans-serif" font-size="11" font-weight="bold" textLength="27">kind</text><text x="689.89" y="271.242" fill="#D9B8FF" font-family="sans-serif" font-size="11" textLength="41">: string</text></a><a xlink:actuate="onRequest" xlink:href="#b" xlink:show="new" xlink:title="#aws_resource" xlink:type="simple" target="_top"><rect id="b" width="155" height="70.594" x="671.89" y="404" fill="#3D176E" rx="2.5" ry="2.5" style="stroke:#000d19;stroke-width:1.5"/><circle cx="686.89" cy="423.894" r="11" fill="#E98DF7" style="stroke:#000d19;stroke-width:1"/><path d="M689.859 429.535q-.578.297-1.219.438-.64.156-1.344.156-2.5 0-3.828-1.64-1.312-1.657-1.312-4.782t1.312-4.781q1.328-1.656 3.828-1.656.703 0 1.344.156.656.156 1.219.453v2.719q-.625-.579-1.219-.844-.594-.281-1.219-.281-1.344 0-2.031 1.078-.688 1.062-.688 3.156 0 2.094.688 3.172.688 1.062 2.031 1.062.625 0 1.219-.265.594-.281 1.219-.86v2.72Z"/><text x="705.89" y="429.78" fill="#D9B8FF" font-family="Helvetica" font-size="17" textLength="113">aws_resource</text><path d="M672.89 443.789h153" style="stroke:#000d19;stroke-width:1.5"/><text x="682.89" y="463" fill="#D9B8FF" font-family="sans-serif" font-size="11" font-weight="bold" textLength="21">arn</text><text x="703.89" y="463" fill="#D9B8FF" font-family="sans-serif" font-size="11" textLength="41">: string</text></a><a xlink:actuate="onRequest" xlink:href="#c" xlink:show="new" xlink:title="#aws_elasticache_node_group" xlink:type="simple" target="_top"><rect id="c" width="397" height="184.617" x="31.89" y="1274" fill="#3D176E" rx="2.5" ry="2.5" style="stroke:#000d19;stroke-width:1.5"/><circle cx="100.64" cy="1293.895" r="11" fill="#E98DF7" style="stroke:#000d19;stroke-width:1"/><path d="M103.609 1299.535q-.578.297-1.219.438-.64.156-1.344.156-2.5 0-3.828-1.64-1.312-1.657-1.312-4.782t1.312-4.781q1.328-1.656 3.828-1.656.703 0 1.344.156.656.156 1.219.453v2.719q-.625-.578-1.219-.844-.594-.281-1.219-.281-1.344 0-2.031 1.078-.688 1.062-.688 3.156 0 2.094.688 3.172.688 1.062 2.031 1.062.625 0 1.219-.265.594-.281 1.219-.86v2.72Z"/><text x="126.14" y="1299.78" fill="#D9B8FF" font-family="Helvetica" font-size="17" textLength="241">aws_elasticache_node_group</text><path d="M32.89 1313.789h395" style="stroke:#000d19;stroke-width:1.5"/><text x="42.89" y="1332.999" fill="#D9B8FF" font-family="sans-serif" font-size="11" font-weight="bold" textLength="93">node_group_id</text><text x="135.89" y="1332.999" fill="#D9B8FF" font-family="sans-serif" font-size="11" textLength="41">: string</text><text x="42.89" y="1355.804" fill="#D9B8FF" font-family="sans-serif" font-size="11" font-weight="bold" textLength="40">status</text><text x="82.89" y="1355.804" fill="#D9B8FF" font-family="sans-serif" font-size="11" textLength="41">: string</text><text x="42.89" y="1378.609" fill="#D9B8FF" font-family="sans-serif" font-size="11" font-weight="bold" textLength="111">primary_endpoint</text><text x="153.89" y="1378.609" fill="#D9B8FF" font-family="sans-serif" font-size="11" textLength="156">: aws_elasticache_endpoint</text><text x="42.89" y="1401.414" fill="#D9B8FF" font-family="sans-serif" font-size="11" font-weight="bold" textLength="105">reader_endpoint</text><text x="147.89" y="1401.414" fill="#D9B8FF" font-family="sans-serif" font-size="11" textLength="156">: aws_elasticache_endpoint</text><text x="42.89" y="1424.218" fill="#D9B8FF" font-family="sans-serif" font-size="11" font-weight="bold" textLength="31">slots</text><text x="73.89" y="1424.218" fill="#D9B8FF" font-family="sans-serif" font-size="11" textLength="41">: string</text><text x="42.89" y="1447.023" fill="#D9B8FF" font-family="sans-serif" font-size="11" font-weight="bold" textLength="139">node_group_members</text><text x="181.89" y="1447.023" fill="#D9B8FF" font-family="sans-serif" font-size="11" textLength="236">: aws_elasticache_node_group_member[]</text></a><a xlink:actuate="onRequest" xlink:href="#d" xlink:show="new" xlink:title="#aws_elasticache_endpoint" xlink:type="simple" target="_top"><rect id="d" width="259" height="93.398" x="117.89" y="1764" fill="#3D176E" rx="2.5" ry="2.5" style="stroke:#000d19;stroke-width:1.5"/><circle cx="132.89" cy="1783.895" r="11" fill="#E98DF7" style="stroke:#000d19;stroke-width:1"/><path d="M135.859 1789.535q-.578.297-1.219.438-.64.156-1.344.156-2.5 0-3.828-1.64-1.312-1.657-1.312-4.782t1.312-4.781q1.328-1.656 3.828-1.656.703 0 1.344.156.656.156 1.219.453v2.719q-.625-.578-1.219-.844-.594-.281-1.219-.281-1.344 0-2.031 1.078-.688 1.062-.688 3.156 0 2.094.688 3.172.688 1.062 2.031 1.062.625 0 1.219-.265.594-.281 1.219-.86v2.72Z"/><text x="151.89" y="1789.78" fill="#D9B8FF" font-family="Helvetica" font-size="17" textLength="217">aws_elasticache_endpoint</text><path d="M118.89 1803.789h257" style="stroke:#000d19;stroke-width:1.5"/><text x="128.89" y="1822.999" fill="#D9B8FF" font-family="sans-serif" font-size="11" font-weight="bold" textLength="51">address</text><text x="179.89" y="1822.999" fill="#D9B8FF" font-family="sans-serif" font-size="11" textLength="41">: string</text><text x="128.89" y="1845.804" fill="#D9B8FF" font-family="sans-serif" font-size="11" font-weight="bold" textLength="26">port</text><text x="154.89" y="1845.804" fill="#D9B8FF" font-family="sans-serif" font-size="11" textLength="36">: int64</text></a><a xlink:actuate="onRequest" xlink:href="#e" xlink:show="new" xlink:title="#aws_elasticache_node_group_member" xlink:type="simple" target="_top"><rect id="e" width="363" height="184.617" x="65.89" y="1519" fill="#3D176E" rx="2.5" ry="2.5" style="stroke:#000d19;stroke-width:1.5"/><circle cx="80.89" cy="1538.895" r="11" fill="#E98DF7" style="stroke:#000d19;stroke-width:1"/><path d="M83.859 1544.535q-.578.297-1.219.438-.64.156-1.344.156-2.5 0-3.828-1.64-1.312-1.657-1.312-4.782t1.312-4.781q1.328-1.656 3.828-1.656.703 0 1.344.156.656.156 1.219.453v2.719q-.625-.578-1.219-.844-.594-.281-1.219-.281-1.344 0-2.031 1.078-.688 1.062-.688 3.156 0 2.094.688 3.172.688 1.062 2.031 1.062.625 0 1.219-.265.594-.281 1.219-.86v2.72Z"/><text x="99.89" y="1544.78" fill="#D9B8FF" font-family="Helvetica" font-size="17" textLength="321">aws_elasticache_node_group_member</text><path d="M66.89 1558.789h361" style="stroke:#000d19;stroke-width:1.5"/><text x="76.89" y="1577.999" fill="#D9B8FF" font-family="sans-serif" font-size="11" font-weight="bold" textLength="106">cache_cluster_id</text><text x="182.89" y="1577.999" fill="#D9B8FF" font-family="sans-serif" font-size="11" textLength="41">: string</text><text x="76.89" y="1600.804" fill="#D9B8FF" font-family="sans-serif" font-size="11" font-weight="bold" textLength="94">cache_node_id</text><text x="170.89" y="1600.804" fill="#D9B8FF" font-family="sans-serif" font-size="11" textLength="41">: string</text><text x="76.89" y="1623.609" fill="#D9B8FF" font-family="sans-serif" font-size="11" font-weight="bold" textLength="92">read_endpoint</text><text x="168.89" y="1623.609" fill="#D9B8FF" font-family="sans-serif" font-size="11" textLength="156">: aws_elasticache_endpoint</text><text x="76.89" y="1646.414" fill="#D9B8FF" font-family="sans-serif" font-size="11" font-weight="bold" textLength="174">preferred_availability_zone</text><text x="250.89" y="1646.414" fill="#D9B8FF" font-family="sans-serif" font-size="11" textLength="41">: string</text><text x="76.89" y="1669.218" fill="#D9B8FF" font-family="sans-serif" font-size="11" font-weight="bold" textLength="142">preferred_outpost_arn</text><text x="218.89" y="1669.218" fill="#D9B8FF" font-family="sans-serif" font-size="11" textLength="41">: string</text><text x="76.89" y="1692.023" fill="#D9B8FF" font-family="sans-serif" font-size="11" font-weight="bold" textLength="77">current_role</text><text x="153.89" y="1692.023" fill="#D9B8FF" font-family="sans-serif" font-size="11" textLength="41">: string</text></a><a xlink:actuate="onRequest" xlink:href="#f" xlink:show="new" xlink:title="#aws_elasticache_replication_group" xlink:type="simple" target="_top"><rect id="f" width="656" height="617.906" x="421.39" y="596" fill="#3D176E" rx="2.5" ry="2.5" style="stroke:#000d19;stroke-width:1.5"/><circle cx="596.14" cy="615.894" r="11" fill="#E98DF7" style="stroke:#000d19;stroke-width:1"/><path d="M599.109 621.535q-.578.297-1.219.438-.64.156-1.344.156-2.5 0-3.828-1.64-1.312-1.657-1.312-4.782t1.312-4.781q1.328-1.657 3.828-1.657.703 0 1.344.157.656.156 1.219.453v2.719q-.625-.578-1.219-.844-.594-.281-1.219-.281-1.344 0-2.031 1.078-.688 1.062-.688 3.156 0 2.094.688 3.172.688 1.062 2.031 1.062.625 0 1.219-.265.594-.282 1.219-.86v2.72Z"/><text x="621.64" y="621.78" fill="#D9B8FF" font-family="Helvetica" font-size="17" textLength="288">aws_elasticache_replication_group</text><path d="M422.39 635.789h654" style="stroke:#000d19;stroke-width:1.5"/><text x="432.39" y="655" fill="#D9B8FF" font-family="sans-serif" font-size="11" font-weight="bold" textLength="21">arn</text><text x="453.39" y="655" fill="#D9B8FF" font-family="sans-serif" font-size="11" textLength="41">: string</text><text x="432.39" y="677.804" fill="#D9B8FF" font-family="sans-serif" font-size="11" font-weight="bold" textLength="190">replication_group_description</text><text x="622.39" y="677.804" fill="#D9B8FF" font-family="sans-serif" font-size="11" textLength="41">: string</text><text x="432.39" y="700.609" fill="#D9B8FF" font-family="sans-serif" font-size="11" font-weight="bold" textLength="307">replication_group_global_replication_group_info</text><text x="739.39" y="700.609" fill="#D9B8FF" font-family="sans-serif" font-size="11" textLength="272">: aws_elasticache_global_replication_group_info</text><text x="432.39" y="723.414" fill="#D9B8FF" font-family="sans-serif" font-size="11" font-weight="bold" textLength="158">replication_group_status</text><text x="590.39" y="723.414" fill="#D9B8FF" font-family="sans-serif" font-size="11" textLength="41">: string</text><text x="432.39" y="746.218" fill="#D9B8FF" font-family="sans-serif" font-size="11" font-weight="bold" textLength="280">replication_group_pending_modified_values</text><text x="712.39" y="746.218" fill="#D9B8FF" font-family="sans-serif" font-size="11" textLength="354">: aws_elasticache_replication_group_pending_modified_values</text><text x="432.39" y="769.023" fill="#D9B8FF" font-family="sans-serif" font-size="11" font-weight="bold" textLength="226">replication_group_member_clusters</text><text x="658.39" y="769.023" fill="#D9B8FF" font-family="sans-serif" font-size="11" textLength="49">: string[]</text><text x="432.39" y="791.828" fill="#D9B8FF" font-family="sans-serif" font-size="11" font-weight="bold" textLength="200">replication_group_node_groups</text><text x="632.39" y="791.828" fill="#D9B8FF" font-family="sans-serif" font-size="11" textLength="182">: aws_elasticache_node_group[]</text><text x="432.39" y="814.632" fill="#D9B8FF" font-family="sans-serif" font-size="11" font-weight="bold" textLength="270">replication_group_snapshotting_cluster_id</text><text x="702.39" y="814.632" fill="#D9B8FF" font-family="sans-serif" font-size="11" textLength="41">: string</text><text x="432.39" y="837.437" fill="#D9B8FF" font-family="sans-serif" font-size="11" font-weight="bold" textLength="237">replication_group_automatic_failover</text><text x="669.39" y="837.437" fill="#D9B8FF" font-family="sans-serif" font-size="11" textLength="41">: string</text><text x="432.39" y="860.242" fill="#D9B8FF" font-family="sans-serif" font-size="11" font-weight="bold" textLength="171">replication_group_multi_az</text><text x="603.39" y="860.242" fill="#D9B8FF" font-family="sans-serif" font-size="11" textLength="41">: string</text><text x="432.39" y="883.046" fill="#D9B8FF" font-family="sans-serif" font-size="11" font-weight="bold" textLength="267">replication_group_configuration_endpoint</text><text x="699.39" y="883.046" fill="#D9B8FF" font-family="sans-serif" font-size="11" textLength="156">: aws_elasticache_endpoint</text><text x="432.39" y="905.851" fill="#D9B8FF" font-family="sans-serif" font-size="11" font-weight="bold" textLength="276">replication_group_snapshot_retention_limit</text><text x="708.39" y="905.851" fill="#D9B8FF" font-family="sans-serif" font-size="11" textLength="36">: int64</text><text x="432.39" y="928.656" fill="#D9B8FF" font-family="sans-serif" font-size="11" font-weight="bold" textLength="233">replication_group_snapshot_window</text><text x="665.39" y="928.656" fill="#D9B8FF" font-family="sans-serif" font-size="11" textLength="41">: string</text><text x="432.39" y="951.46" fill="#D9B8FF" font-family="sans-serif" font-size="11" font-weight="bold" textLength="220">replication_group_cluster_enabled</text><text x="652.39" y="951.46" fill="#D9B8FF" font-family="sans-serif" font-size="11" textLength="53">: boolean</text><text x="432.39" y="974.265" fill="#D9B8FF" font-family="sans-serif" font-size="11" font-weight="bold" textLength="228">replication_group_cache_node_type</text><text x="660.39" y="974.265" fill="#D9B8FF" font-family="sans-serif" font-size="11" textLength="41">: string</text><text x="432.39" y="997.07" fill="#D9B8FF" font-family="sans-serif" font-size="11" font-weight="bold" textLength="247">replication_group_auth_token_enabled</text><text x="679.39" y="997.07" fill="#D9B8FF" font-family="sans-serif" font-size="11" textLength="53">: boolean</text><text x="432.39" y="1019.875" fill="#D9B8FF" font-family="sans-serif" font-size="11" font-weight="bold" textLength="316">replication_group_auth_token_last_modified_date</text><text x="748.39" y="1019.875" fill="#D9B8FF" font-family="sans-serif" font-size="11" textLength="58">: datetime</text><text x="432.39" y="1042.679" fill="#D9B8FF" font-family="sans-serif" font-size="11" font-weight="bold" textLength="292">replication_group_transit_encryption_enabled</text><text x="724.39" y="1042.679" fill="#D9B8FF" font-family="sans-serif" font-size="11" textLength="53">: boolean</text><text x="432.39" y="1065.484" fill="#D9B8FF" font-family="sans-serif" font-size="11" font-weight="bold" textLength="294">replication_group_at_rest_encryption_enabled</text><text x="726.39" y="1065.484" fill="#D9B8FF" font-family="sans-serif" font-size="11" textLength="53">: boolean</text><text x="432.39" y="1088.289" fill="#D9B8FF" font-family="sans-serif" font-size="11" font-weight="bold" textLength="315">replication_group_member_clusters_outpost_arns</text><text x="747.39" y="1088.289" fill="#D9B8FF" font-family="sans-serif" font-size="11" textLength="49">: string[]</text><text x="432.39" y="1111.093" fill="#D9B8FF" font-family="sans-serif" font-size="11" font-weight="bold" textLength="189">replication_group_kms_key_id</text><text x="621.39" y="1111.093" fill="#D9B8FF" font-family="sans-serif" font-size="11" textLength="41">: string</text><text x="432.39" y="1133.898" fill="#D9B8FF" font-family="sans-serif" font-size="11" font-weight="bold" textLength="139">replication_group_arn</text><text x="571.39" y="1133.898" fill="#D9B8FF" font-family="sans-serif" font-size="11" textLength="41">: string</text><text x="432.39" y="1156.703" fill="#D9B8FF" font-family="sans-serif" font-size="11" font-weight="bold" textLength="214">replication_group_user_group_ids</text><text x="646.39" y="1156.703" fill="#D9B8FF" font-family="sans-serif" font-size="11" textLength="49">: string[]</text><text x="432.39" y="1179.507" fill="#D9B8FF" font-family="sans-serif" font-size="11" font-weight="bold" textLength="294">replication_group_log_delivery_configurations</text><text x="726.39" y="1179.507" fill="#D9B8FF" font-family="sans-serif" font-size="11" textLength="262">: aws_elasticache_log_delivery_configuration[]</text><text x="432.39" y="1202.312" fill="#D9B8FF" font-family="sans-serif" font-size="11" font-weight="bold" textLength="195">replication_group_data_tiering</text><text x="627.39" y="1202.312" fill="#D9B8FF" font-family="sans-serif" font-size="11" textLength="41">: string</text></a><a xlink:actuate="onRequest" xlink:href="#g" xlink:show="new" xlink:title="#aws_elasticache_user_groups_update_status" xlink:type="simple" target="_top"><rect id="g" width="413" height="93.398" x="559.89" y="1565" fill="#3D176E" rx="2.5" ry="2.5" style="stroke:#000d19;stroke-width:1.5"/><circle cx="574.89" cy="1584.895" r="11" fill="#E98DF7" style="stroke:#000d19;stroke-width:1"/><path d="M577.859 1590.535q-.578.297-1.219.438-.64.156-1.344.156-2.5 0-3.828-1.64-1.312-1.657-1.312-4.782t1.312-4.781q1.328-1.656 3.828-1.656.703 0 1.344.156.656.156 1.219.453v2.719q-.625-.578-1.219-.844-.594-.281-1.219-.281-1.344 0-2.031 1.078-.688 1.062-.688 3.156 0 2.094.688 3.172.688 1.062 2.031 1.062.625 0 1.219-.265.594-.281 1.219-.86v2.72Z"/><text x="593.89" y="1590.78" fill="#D9B8FF" font-family="Helvetica" font-size="17" textLength="371">aws_elasticache_user_groups_update_status</text><path d="M560.89 1604.789h411" style="stroke:#000d19;stroke-width:1.5"/><text x="570.89" y="1623.999" fill="#D9B8FF" font-family="sans-serif" font-size="11" font-weight="bold" textLength="145">user_group_ids_to_add</text><text x="715.89" y="1623.999" fill="#D9B8FF" font-family="sans-serif" font-size="11" textLength="49">: string[]</text><text x="570.89" y="1646.804" fill="#D9B8FF" font-family="sans-serif" font-size="11" font-weight="bold" textLength="168">user_group_ids_to_remove</text><text x="738.89" y="1646.804" fill="#D9B8FF" font-family="sans-serif" font-size="11" textLength="49">: string[]</text></a><a xlink:actuate="onRequest" xlink:href="#h" xlink:show="new" xlink:title="#aws_elasticache_destination_details" xlink:type="simple" target="_top"><rect id="h" width="343" height="93.398" x="1408.89" y="1764" fill="#3D176E" rx="2.5" ry="2.5" style="stroke:#000d19;stroke-width:1.5"/><circle cx="1423.89" cy="1783.895" r="11" fill="#E98DF7" style="stroke:#000d19;stroke-width:1"/><path d="M1426.859 1789.535q-.578.297-1.219.438-.64.156-1.344.156-2.5 0-3.828-1.64-1.312-1.657-1.312-4.782t1.312-4.781q1.328-1.656 3.828-1.656.703 0 1.344.156.656.156 1.219.453v2.719q-.625-.578-1.219-.844-.594-.281-1.219-.281-1.343 0-2.031 1.078-.688 1.062-.688 3.156 0 2.094.688 3.172.688 1.062 2.031 1.062.625 0 1.219-.265.594-.281 1.219-.86v2.72Z"/><text x="1442.89" y="1789.78" fill="#D9B8FF" font-family="Helvetica" font-size="17" textLength="301">aws_elasticache_destination_details</text><path d="M1409.89 1803.789h341" style="stroke:#000d19;stroke-width:1.5"/><text x="1419.89" y="1822.999" fill="#D9B8FF" font-family="sans-serif" font-size="11" font-weight="bold" textLength="163">cloud_watch_logs_details</text><text x="1582.89" y="1822.999" fill="#D9B8FF" font-family="sans-serif" font-size="11" textLength="41">: string</text><text x="1419.89" y="1845.804" fill="#D9B8FF" font-family="sans-serif" font-size="11" font-weight="bold" textLength="154">kinesis_firehose_details</text><text x="1573.89" y="1845.804" fill="#D9B8FF" font-family="sans-serif" font-size="11" textLength="41">: string</text></a><a xlink:actuate="onRequest" xlink:href="#i" xlink:show="new" xlink:title="#aws_elasticache_pending_log_delivery_configuration" xlink:type="simple" target="_top"><rect id="i" width="482" height="139.008" x="1008.39" y="1542" fill="#3D176E" rx="2.5" ry="2.5" style="stroke:#000d19;stroke-width:1.5"/><circle cx="1023.39" cy="1561.895" r="11" fill="#E98DF7" style="stroke:#000d19;stroke-width:1"/><path d="M1026.359 1567.535q-.578.297-1.219.438-.64.156-1.344.156-2.5 0-3.828-1.64-1.312-1.657-1.312-4.782t1.312-4.781q1.328-1.656 3.828-1.656.703 0 1.344.156.656.156 1.219.453v2.719q-.625-.578-1.219-.844-.594-.281-1.219-.281-1.344 0-2.031 1.078-.688 1.062-.688 3.156 0 2.094.688 3.172.688 1.062 2.031 1.062.625 0 1.219-.265.594-.281 1.219-.86v2.72Z"/><text x="1042.39" y="1567.78" fill="#D9B8FF" font-family="Helvetica" font-size="17" textLength="440">aws_elasticache_pending_log_delivery_configuration</text><path d="M1009.39 1581.789h480" style="stroke:#000d19;stroke-width:1.5"/><text x="1019.39" y="1600.999" fill="#D9B8FF" font-family="sans-serif" font-size="11" font-weight="bold" textLength="54">log_type</text><text x="1073.39" y="1600.999" fill="#D9B8FF" font-family="sans-serif" font-size="11" textLength="41">: string</text><text x="1019.39" y="1623.804" fill="#D9B8FF" font-family="sans-serif" font-size="11" font-weight="bold" textLength="107">destination_type</text><text x="1126.39" y="1623.804" fill="#D9B8FF" font-family="sans-serif" font-size="11" textLength="41">: string</text><text x="1019.39" y="1646.609" fill="#D9B8FF" font-family="sans-serif" font-size="11" font-weight="bold" textLength="123">destination_details</text><text x="1142.39" y="1646.609" fill="#D9B8FF" font-family="sans-serif" font-size="11" textLength="214">: aws_elasticache_destination_details</text><text x="1019.39" y="1669.414" fill="#D9B8FF" font-family="sans-serif" font-size="11" font-weight="bold" textLength="68">log_format</text><text x="1087.39" y="1669.414" fill="#D9B8FF" font-family="sans-serif" font-size="11" textLength="41">: string</text></a><a xlink:actuate="onRequest" xlink:href="#j" xlink:show="new" xlink:title="#aws_elasticache_global_replication_group_info" xlink:type="simple" target="_top"><rect id="j" width="430" height="93.398" x="534.39" y="1320" fill="#3D176E" rx="2.5" ry="2.5" style="stroke:#000d19;stroke-width:1.5"/><circle cx="549.39" cy="1339.895" r="11" fill="#E98DF7" style="stroke:#000d19;stroke-width:1"/><path d="M552.359 1345.535q-.578.297-1.219.438-.64.156-1.344.156-2.5 0-3.828-1.64-1.312-1.657-1.312-4.782t1.312-4.781q1.328-1.656 3.828-1.656.703 0 1.344.156.656.156 1.219.453v2.719q-.625-.578-1.219-.844-.594-.281-1.219-.281-1.344 0-2.031 1.078-.688 1.062-.688 3.156 0 2.094.688 3.172.688 1.062 2.031 1.062.625 0 1.219-.265.594-.281 1.219-.86v2.72Z"/><text x="568.39" y="1345.78" fill="#D9B8FF" font-family="Helvetica" font-size="17" textLength="388">aws_elasticache_global_replication_group_info</text><path d="M535.39 1359.789h428" style="stroke:#000d19;stroke-width:1.5"/><text x="545.39" y="1378.999" fill="#D9B8FF" font-family="sans-serif" font-size="11" font-weight="bold" textLength="176">global_replication_group_id</text><text x="721.39" y="1378.999" fill="#D9B8FF" font-family="sans-serif" font-size="11" textLength="41">: string</text><text x="545.39" y="1401.804" fill="#D9B8FF" font-family="sans-serif" font-size="11" font-weight="bold" textLength="246">global_replication_group_member_role</text><text x="791.39" y="1401.804" fill="#D9B8FF" font-family="sans-serif" font-size="11" textLength="41">: string</text></a><a xlink:actuate="onRequest" xlink:href="#k" xlink:show="new" xlink:title="#aws_elasticache_replication_group_pending_modified_values" xlink:type="simple" target="_top"><rect id="k" width="551" height="184.617" x="999.89" y="1274" fill="#3D176E" rx="2.5" ry="2.5" style="stroke:#000d19;stroke-width:1.5"/><circle cx="1014.89" cy="1293.895" r="11" fill="#E98DF7" style="stroke:#000d19;stroke-width:1"/><path d="M1017.859 1299.535q-.578.297-1.219.438-.64.156-1.344.156-2.5 0-3.828-1.64-1.312-1.657-1.312-4.782t1.312-4.781q1.328-1.656 3.828-1.656.703 0 1.344.156.656.156 1.219.453v2.719q-.625-.578-1.219-.844-.594-.281-1.219-.281-1.344 0-2.031 1.078-.688 1.062-.688 3.156 0 2.094.688 3.172.688 1.062 2.031 1.062.625 0 1.219-.265.594-.281 1.219-.86v2.72Z"/><text x="1033.89" y="1299.78" fill="#D9B8FF" font-family="Helvetica" font-size="17" textLength="509">aws_elasticache_replication_group_pending_modified_values</text><path d="M1000.89 1313.789h549" style="stroke:#000d19;stroke-width:1.5"/><text x="1010.89" y="1332.999" fill="#D9B8FF" font-family="sans-serif" font-size="11" font-weight="bold" textLength="116">primary_cluster_id</text><text x="1126.89" y="1332.999" fill="#D9B8FF" font-family="sans-serif" font-size="11" textLength="41">: string</text><text x="1010.89" y="1355.804" fill="#D9B8FF" font-family="sans-serif" font-size="11" font-weight="bold" textLength="165">automatic_failover_status</text><text x="1175.89" y="1355.804" fill="#D9B8FF" font-family="sans-serif" font-size="11" textLength="41">: string</text><text x="1010.89" y="1378.609" fill="#D9B8FF" font-family="sans-serif" font-size="11" font-weight="bold" textLength="69">resharding</text><text x="1079.89" y="1378.609" fill="#D9B8FF" font-family="sans-serif" font-size="11" textLength="211">: aws_elasticache_resharding_status</text><text x="1010.89" y="1401.414" fill="#D9B8FF" font-family="sans-serif" font-size="11" font-weight="bold" textLength="117">auth_token_status</text><text x="1127.89" y="1401.414" fill="#D9B8FF" font-family="sans-serif" font-size="11" textLength="41">: string</text><text x="1010.89" y="1424.218" fill="#D9B8FF" font-family="sans-serif" font-size="11" font-weight="bold" textLength="78">user_groups</text><text x="1088.89" y="1424.218" fill="#D9B8FF" font-family="sans-serif" font-size="11" textLength="266">: aws_elasticache_user_groups_update_status</text><text x="1010.89" y="1447.023" fill="#D9B8FF" font-family="sans-serif" font-size="11" font-weight="bold" textLength="176">log_delivery_configurations</text><text x="1186.89" y="1447.023" fill="#D9B8FF" font-family="sans-serif" font-size="11" textLength="313">: aws_elasticache_pending_log_delivery_configuration[]</text></a><a xlink:actuate="onRequest" xlink:href="#l" xlink:show="new" xlink:title="#aws_elasticache_resharding_status" xlink:type="simple" target="_top"><rect id="l" width="334" height="70.594" x="1525.39" y="1576" fill="#3D176E" rx="2.5" ry="2.5" style="stroke:#000d19;stroke-width:1.5"/><circle cx="1540.39" cy="1595.895" r="11" fill="#E98DF7" style="stroke:#000d19;stroke-width:1"/><path d="M1543.359 1601.535q-.578.297-1.219.438-.64.156-1.344.156-2.5 0-3.828-1.64-1.312-1.657-1.312-4.782t1.312-4.781q1.328-1.656 3.828-1.656.703 0 1.344.156.656.156 1.219.453v2.719q-.625-.578-1.219-.844-.594-.281-1.219-.281-1.343 0-2.031 1.078-.688 1.062-.688 3.156 0 2.094.688 3.172.688 1.062 2.031 1.062.625 0 1.219-.265.594-.281 1.219-.86v2.72Z"/><text x="1559.39" y="1601.78" fill="#D9B8FF" font-family="Helvetica" font-size="17" textLength="292">aws_elasticache_resharding_status</text><path d="M1526.39 1615.789h332" style="stroke:#000d19;stroke-width:1.5"/><text x="1536.39" y="1634.999" fill="#D9B8FF" font-family="sans-serif" font-size="11" font-weight="bold" textLength="91">slot_migration</text><text x="1627.39" y="1634.999" fill="#D9B8FF" font-family="sans-serif" font-size="11" textLength="46">: double</text></a><a xlink:actuate="onRequest" xlink:href="#m" xlink:show="new" xlink:title="#aws_elasticache_log_delivery_configuration" xlink:type="simple" target="_top"><rect id="m" width="406" height="184.617" x="1635.39" y="1274" fill="#3D176E" rx="2.5" ry="2.5" style="stroke:#000d19;stroke-width:1.5"/><circle cx="1650.39" cy="1293.895" r="11" fill="#E98DF7" style="stroke:#000d19;stroke-width:1"/><path d="M1653.359 1299.535q-.578.297-1.219.438-.64.156-1.344.156-2.5 0-3.828-1.64-1.312-1.657-1.312-4.782t1.312-4.781q1.328-1.656 3.828-1.656.703 0 1.344.156.656.156 1.219.453v2.719q-.625-.578-1.219-.844-.594-.281-1.219-.281-1.343 0-2.031 1.078-.688 1.062-.688 3.156 0 2.094.688 3.172.688 1.062 2.031 1.062.625 0 1.219-.265.594-.281 1.219-.86v2.72Z"/><text x="1669.39" y="1299.78" fill="#D9B8FF" font-family="Helvetica" font-size="17" textLength="364">aws_elasticache_log_delivery_configuration</text><path d="M1636.39 1313.789h404" style="stroke:#000d19;stroke-width:1.5"/><text x="1646.39" y="1332.999" fill="#D9B8FF" font-family="sans-serif" font-size="11" font-weight="bold" textLength="54">log_type</text><text x="1700.39" y="1332.999" fill="#D9B8FF" font-family="sans-serif" font-size="11" textLength="41">: string</text><text x="1646.39" y="1355.804" fill="#D9B8FF" font-family="sans-serif" font-size="11" font-weight="bold" textLength="107">destination_type</text><text x="1753.39" y="1355.804" fill="#D9B8FF" font-family="sans-serif" font-size="11" textLength="41">: string</text><text x="1646.39" y="1378.609" fill="#D9B8FF" font-family="sans-serif" font-size="11" font-weight="bold" textLength="123">destination_details</text><text x="1769.39" y="1378.609" fill="#D9B8FF" font-family="sans-serif" font-size="11" textLength="214">: aws_elasticache_destination_details</text><text x="1646.39" y="1401.414" fill="#D9B8FF" font-family="sans-serif" font-size="11" font-weight="bold" textLength="68">log_format</text><text x="1714.39" y="1401.414" fill="#D9B8FF" font-family="sans-serif" font-size="11" textLength="41">: string</text><text x="1646.39" y="1424.218" fill="#D9B8FF" font-family="sans-serif" font-size="11" font-weight="bold" textLength="40">status</text><text x="1686.39" y="1424.218" fill="#D9B8FF" font-family="sans-serif" font-size="11" textLength="41">: string</text><text x="1646.39" y="1447.023" fill="#D9B8FF" font-family="sans-serif" font-size="11" font-weight="bold" textLength="57">message</text><text x="1703.39" y="1447.023" fill="#D9B8FF" font-family="sans-serif" font-size="11" textLength="41">: string</text></a><path fill="none" d="M749.39 303.43V403.9m-7-100.64 7-20 7 20h-14zM91.66 1459.1c-17.5 17.71-32.89 37.75-43.27 59.9-34.9 74.45-42.39 114.55 0 185 15.29 25.42 38.99 45.04 64.78 60.06" style="stroke:#ffaf37;stroke-width:2"/><path fill="#FFAF37" d="m117.67 1766.62-5.855-7.92 1.506 5.453-5.453 1.506 9.802.961z" style="stroke:#ffaf37;stroke-width:2"/><path fill="none" d="M236.79 1459.02c1.25 17.83 2.56 36.58 3.82 54.58" style="stroke:#ffaf37;stroke-width:2"/><path fill="#FFAF37" d="m240.96 1518.66 3.373-9.253-3.716 4.265-4.265-3.716 4.608 8.704z" style="stroke:#ffaf37;stroke-width:2"/><path fill="none" d="M247.39 1704.08v54.79" style="stroke:#ffaf37;stroke-width:2"/><path fill="#FFAF37" d="m247.39 1763.98 4-9-4 4-4-4 4 9z" style="stroke:#ffaf37;stroke-width:2"/><path fill="none" d="M749.39 495.69v100.1m-7-100.45 7-20 7 20h-14zm7 718.75v100.51" style="stroke:#ffaf37;stroke-width:2"/><path fill="#FFAF37" d="m749.39 1319.84 4-9-4 4-4-4 4 9z" style="stroke:#ffaf37;stroke-width:2"/><path fill="none" d="M1077.65 1192.76c31.62 27.63 61.89 54.07 88.84 77.61" style="stroke:#ffaf37;stroke-width:2"/><path fill="#FFAF37" d="m1170.44 1273.82-4.158-8.928.388 5.644-5.644.388 9.414 2.896z" style="stroke:#ffaf37;stroke-width:2"/><path fill="none" d="M421.06 1196.68a795680.2 795680.2 0 0 1-83.1 73.58" style="stroke:#ffaf37;stroke-width:2"/><path fill="#FFAF37" d="m333.92 1273.83 9.39-2.972-5.647-.343.343-5.646-4.086 8.961z" style="stroke:#ffaf37;stroke-width:2"/><path fill="none" d="M542.28 1214.13c-9.56 19.85-18.31 39.9-25.89 59.87-68.74 181.02 42.87 272.68-70 430-17.03 23.73-41.05 42.59-66.55 57.41" style="stroke:#ffaf37;stroke-width:2"/><path fill="#FFAF37" d="m375.4 1763.94 9.8-.975-5.454-1.498 1.498-5.455-5.844 7.928z" style="stroke:#ffaf37;stroke-width:2"/><path fill="none" d="M1077.6 1044.49c179.51 75.74 396.47 167.29 552.69 233.2" style="stroke:#ffaf37;stroke-width:2"/><path fill="#FFAF37" d="m1635.36 1279.83-6.734-7.187 2.128 5.242-5.241 2.128 9.847-.183z" style="stroke:#ffaf37;stroke-width:2"/><path fill="none" d="M1364.69 1681.12c44.46 26.47 94.27 56.11 134.81 80.24" style="stroke:#ffaf37;stroke-width:2"/><path fill="#FFAF37" d="m1503.89 1763.97-5.691-8.038 1.393 5.482-5.482 1.394 9.78 1.162z" style="stroke:#ffaf37;stroke-width:2"/><path fill="none" d="M1432.44 1459.02c68.16 39.72 144.13 83.99 196.25 114.36" style="stroke:#ffaf37;stroke-width:2"/><path fill="#FFAF37" d="m1633.03 1575.91-5.773-7.98 1.45 5.469-5.469 1.45 9.792 1.061z" style="stroke:#ffaf37;stroke-width:2"/><path fill="none" d="M1083.68 1459.02c-73.88 35.27-155.29 74.14-217.15 103.67" style="stroke:#ffaf37;stroke-width:2"/><path fill="#FFAF37" d="m861.73 1564.98 9.845-.271-5.334-1.885 1.885-5.333-6.396 7.489z" style="stroke:#ffaf37;stroke-width:2"/><path fill="none" d="M1265.59 1459.02c-2.74 25.62-5.68 53.15-8.3 77.61" style="stroke:#ffaf37;stroke-width:2"/><path fill="#FFAF37" d="m1256.74 1541.8 4.93-8.527-4.401 3.555-3.555-4.4 3.026 9.372z" style="stroke:#ffaf37;stroke-width:2"/><path fill="none" d="M1880.29 1459.04c26.49 72.84 47.21 173.97-2.9 244.96-28.46 40.3-73.7 65.3-120.38 80.78" style="stroke:#ffaf37;stroke-width:2"/><path fill="#FFAF37" d="m1752.19 1786.34 9.795 1.028-5.039-2.57 2.571-5.04-7.327 6.582z" style="stroke:#ffaf37;stroke-width:2"/></svg>