<svg xmlns="http://www.w3.org/2000/svg" xmlns:xlink="http://www.w3.org/1999/xlink" width="2305" height="1459" preserveAspectRatio="none" style="width:2305px;height:1459px;background:#00000000"><a xlink:actuate="onRequest" xlink:href="#a" xlink:show="new" xlink:title="#resource" xlink:type="simple" target="_top"><rect id="a" width="195" height="275.836" x="1135.5" y="7" fill="#3D176E" rx="2.5" ry="2.5" style="stroke:#000d19;stroke-width:1.5"/><circle cx="1188.25" cy="26.895" r="11" fill="#E98DF7" style="stroke:#000d19;stroke-width:1"/><path d="M1191.219 32.535q-.578.297-1.219.438-.64.156-1.344.156-2.5 0-3.828-1.64-1.312-1.657-1.312-4.782t1.312-4.781q1.328-1.656 3.828-1.656.703 0 1.344.156.656.156 1.219.453v2.719q-.625-.578-1.219-.844-.594-.281-1.219-.281-1.343 0-2.031 1.078-.688 1.062-.688 3.156 0 2.094.688 3.172.688 1.062 2.031 1.062.625 0 1.219-.265.594-.281 1.219-.86v2.72Z"/><text x="1213.75" y="32.78" fill="#D9B8FF" font-family="Helvetica" font-size="17" textLength="71">resource</text><path d="M1136.5 46.789h193" style="stroke:#000d19;stroke-width:1.5"/><text x="1146.5" y="65.999" fill="#D9B8FF" font-family="sans-serif" font-size="11" font-weight="bold" textLength="12">id</text><text x="1158.5" y="65.999" fill="#D9B8FF" font-family="sans-serif" font-size="11" textLength="41">: string</text><text x="1146.5" y="88.804" fill="#D9B8FF" font-family="sans-serif" font-size="11" font-weight="bold" textLength="28">tags</text><text x="1174.5" y="88.804" fill="#D9B8FF" font-family="sans-serif" font-size="11" textLength="145">: dictionary[string, string]</text><text x="1146.5" y="111.609" fill="#D9B8FF" font-family="sans-serif" font-size="11" font-weight="bold" textLength="35">name</text><text x="1181.5" y="111.609" fill="#D9B8FF" font-family="sans-serif" font-size="11" textLength="41">: string</text><text x="1146.5" y="134.414" fill="#D9B8FF" font-family="sans-serif" font-size="11" font-weight="bold" textLength="35">ctime</text><text x="1181.5" y="134.414" fill="#D9B8FF" font-family="sans-serif" font-size="11" textLength="58">: datetime</text><text x="1146.5" y="157.218" fill="#D9B8FF" font-family="sans-serif" font-size="11" font-weight="bold" textLength="24">age</text><text x="1170.5" y="157.218" fill="#D9B8FF" font-family="sans-serif" font-size="11" textLength="55">: duration</text><text x="1146.5" y="180.023" fill="#D9B8FF" font-family="sans-serif" font-size="11" font-weight="bold" textLength="39">mtime</text><text x="1185.5" y="180.023" fill="#D9B8FF" font-family="sans-serif" font-size="11" textLength="58">: datetime</text><text x="1146.5" y="202.828" fill="#D9B8FF" font-family="sans-serif" font-size="11" font-weight="bold" textLength="75">last_update</text><text x="1221.5" y="202.828" fill="#D9B8FF" font-family="sans-serif" font-size="11" textLength="55">: duration</text><text x="1146.5" y="225.632" fill="#D9B8FF" font-family="sans-serif" font-size="11" font-weight="bold" textLength="36">atime</text><text x="1182.5" y="225.632" fill="#D9B8FF" font-family="sans-serif" font-size="11" textLength="58">: datetime</text><text x="1146.5" y="248.437" fill="#D9B8FF" font-family="sans-serif" font-size="11" font-weight="bold" textLength="74">last_access</text><text x="1220.5" y="248.437" fill="#D9B8FF" font-family="sans-serif" font-size="11" textLength="55">: duration</text><text x="1146.5" y="271.242" fill="#D9B8FF" font-family="sans-serif" font-size="11" font-weight="bold" textLength="27">kind</text><text x="1173.5" y="271.242" fill="#D9B8FF" font-family="sans-serif" font-size="11" textLength="41">: string</text></a><a xlink:actuate="onRequest" xlink:href="#b" xlink:show="new" xlink:title="#aws_resource" xlink:type="simple" target="_top"><rect id="b" width="155" height="70.594" x="1155.5" y="404" fill="#3D176E" rx="2.5" ry="2.5" style="stroke:#000d19;stroke-width:1.5"/><circle cx="1170.5" cy="423.894" r="11" fill="#E98DF7" style="stroke:#000d19;stroke-width:1"/><path d="M1173.469 429.535q-.578.297-1.219.438-.64.156-1.344.156-2.5 0-3.828-1.64-1.312-1.657-1.312-4.782t1.312-4.781q1.328-1.656 3.828-1.656.703 0 1.344.156.656.156 1.219.453v2.719q-.625-.579-1.219-.844-.594-.281-1.219-.281-1.343 0-2.031 1.078-.688 1.062-.688 3.156 0 2.094.688 3.172.688 1.062 2.031 1.062.625 0 1.219-.265.594-.281 1.219-.86v2.72Z"/><text x="1189.5" y="429.78" fill="#D9B8FF" font-family="Helvetica" font-size="17" textLength="113">aws_resource</text><path d="M1156.5 443.789h153" style="stroke:#000d19;stroke-width:1.5"/><text x="1166.5" y="463" fill="#D9B8FF" font-family="sans-serif" font-size="11" font-weight="bold" textLength="21">arn</text><text x="1187.5" y="463" fill="#D9B8FF" font-family="sans-serif" font-size="11" textLength="41">: string</text></a><a xlink:actuate="onRequest" xlink:href="#c" xlink:show="new" xlink:title="#aws_eks_issue" xlink:type="simple" target="_top"><rect id="c" width="163" height="116.203" x="1670.5" y="1336" fill="#3D176E" rx="2.5" ry="2.5" style="stroke:#000d19;stroke-width:1.5"/><circle cx="1685.5" cy="1355.895" r="11" fill="#E98DF7" style="stroke:#000d19;stroke-width:1"/><path d="M1688.469 1361.535q-.578.297-1.219.438-.64.156-1.344.156-2.5 0-3.828-1.64-1.312-1.657-1.312-4.782t1.312-4.781q1.328-1.656 3.828-1.656.703 0 1.344.156.656.156 1.219.453v2.719q-.625-.578-1.219-.844-.594-.281-1.219-.281-1.343 0-2.031 1.078-.688 1.062-.688 3.156 0 2.094.688 3.172.688 1.062 2.031 1.062.625 0 1.219-.265.594-.281 1.219-.86v2.72Z"/><text x="1704.5" y="1361.78" fill="#D9B8FF" font-family="Helvetica" font-size="17" textLength="121">aws_eks_issue</text><path d="M1671.5 1375.789h161" style="stroke:#000d19;stroke-width:1.5"/><text x="1681.5" y="1394.999" fill="#D9B8FF" font-family="sans-serif" font-size="11" font-weight="bold" textLength="31">code</text><text x="1712.5" y="1394.999" fill="#D9B8FF" font-family="sans-serif" font-size="11" textLength="41">: string</text><text x="1681.5" y="1417.804" fill="#D9B8FF" font-family="sans-serif" font-size="11" font-weight="bold" textLength="57">message</text><text x="1738.5" y="1417.804" fill="#D9B8FF" font-family="sans-serif" font-size="11" textLength="41">: string</text><text x="1681.5" y="1440.609" fill="#D9B8FF" font-family="sans-serif" font-size="11" font-weight="bold" textLength="81">resource_ids</text><text x="1762.5" y="1440.609" fill="#D9B8FF" font-family="sans-serif" font-size="11" textLength="49">: string[]</text></a><a xlink:actuate="onRequest" xlink:href="#d" xlink:show="new" xlink:title="#aws_eks_nodegroup_update_config" xlink:type="simple" target="_top"><rect id="d" width="336" height="93.398" x="7" y="1171.5" fill="#3D176E" rx="2.5" ry="2.5" style="stroke:#000d19;stroke-width:1.5"/><circle cx="22" cy="1191.395" r="11" fill="#E98DF7" style="stroke:#000d19;stroke-width:1"/><path d="M24.969 1197.035q-.578.297-1.219.438-.64.156-1.344.156-2.5 0-3.828-1.64-1.312-1.657-1.312-4.782t1.312-4.781q1.328-1.656 3.828-1.656.703 0 1.344.156.656.156 1.219.453v2.719q-.625-.578-1.219-.844-.594-.281-1.219-.281-1.343 0-2.031 1.078-.688 1.062-.688 3.156 0 2.094.688 3.172.688 1.062 2.031 1.062.625 0 1.219-.265.594-.281 1.219-.86v2.72Z"/><text x="41" y="1197.28" fill="#D9B8FF" font-family="Helvetica" font-size="17" textLength="294">aws_eks_nodegroup_update_config</text><path d="M8 1211.289h334" style="stroke:#000d19;stroke-width:1.5"/><text x="18" y="1230.499" fill="#D9B8FF" font-family="sans-serif" font-size="11" font-weight="bold" textLength="107">max_unavailable</text><text x="125" y="1230.499" fill="#D9B8FF" font-family="sans-serif" font-size="11" textLength="36">: int64</text><text x="18" y="1253.304" fill="#D9B8FF" font-family="sans-serif" font-size="11" font-weight="bold" textLength="186">max_unavailable_percentage</text><text x="204" y="1253.304" fill="#D9B8FF" font-family="sans-serif" font-size="11" textLength="36">: int64</text></a><a xlink:actuate="onRequest" xlink:href="#e" xlink:show="new" xlink:title="#aws_eks_nodegroup_resources" xlink:type="simple" target="_top"><rect id="e" width="298" height="93.398" x="378" y="1171.5" fill="#3D176E" rx="2.5" ry="2.5" style="stroke:#000d19;stroke-width:1.5"/><circle cx="393" cy="1191.395" r="11" fill="#E98DF7" style="stroke:#000d19;stroke-width:1"/><path d="M395.969 1197.035q-.578.297-1.219.438-.64.156-1.344.156-2.5 0-3.828-1.64-1.312-1.657-1.312-4.782t1.312-4.781q1.328-1.656 3.828-1.656.703 0 1.344.156.656.156 1.219.453v2.719q-.625-.578-1.219-.844-.594-.281-1.219-.281-1.344 0-2.031 1.078-.688 1.062-.688 3.156 0 2.094.688 3.172.688 1.062 2.031 1.062.625 0 1.219-.265.594-.281 1.219-.86v2.72Z"/><text x="412" y="1197.28" fill="#D9B8FF" font-family="Helvetica" font-size="17" textLength="256">aws_eks_nodegroup_resources</text><path d="M379 1211.289h296" style="stroke:#000d19;stroke-width:1.5"/><text x="389" y="1230.499" fill="#D9B8FF" font-family="sans-serif" font-size="11" font-weight="bold" textLength="131">auto_scaling_groups</text><text x="520" y="1230.499" fill="#D9B8FF" font-family="sans-serif" font-size="11" textLength="49">: string[]</text><text x="389" y="1253.304" fill="#D9B8FF" font-family="sans-serif" font-size="11" font-weight="bold" textLength="195">remote_access_security_group</text><text x="584" y="1253.304" fill="#D9B8FF" font-family="sans-serif" font-size="11" textLength="41">: string</text></a><a xlink:actuate="onRequest" xlink:href="#f" xlink:show="new" xlink:title="#aws_eks_nodegroup" xlink:type="simple" target="_top"><rect id="f" width="404" height="503.883" x="1031" y="596" fill="#3D176E" rx="2.5" ry="2.5" style="stroke:#000d19;stroke-width:1.5"/><circle cx="1139.75" cy="615.894" r="11" fill="#E98DF7" style="stroke:#000d19;stroke-width:1"/><path d="M1142.719 621.535q-.578.297-1.219.438-.64.156-1.344.156-2.5 0-3.828-1.64-1.312-1.657-1.312-4.782t1.312-4.781q1.328-1.657 3.828-1.657.703 0 1.344.157.656.156 1.219.453v2.719q-.625-.578-1.219-.844-.594-.281-1.219-.281-1.343 0-2.031 1.078-.688 1.062-.688 3.156 0 2.094.688 3.172.688 1.062 2.031 1.062.625 0 1.219-.265.594-.282 1.219-.86v2.72Z"/><text x="1165.25" y="621.78" fill="#D9B8FF" font-family="Helvetica" font-size="17" textLength="168">aws_eks_nodegroup</text><path d="M1032 635.789h402" style="stroke:#000d19;stroke-width:1.5"/><text x="1042" y="655" fill="#D9B8FF" font-family="sans-serif" font-size="11" font-weight="bold" textLength="85">cluster_name</text><text x="1127" y="655" fill="#D9B8FF" font-family="sans-serif" font-size="11" textLength="41">: string</text><text x="1042" y="677.804" fill="#D9B8FF" font-family="sans-serif" font-size="11" font-weight="bold" textLength="139">group_nodegroup_arn</text><text x="1181" y="677.804" fill="#D9B8FF" font-family="sans-serif" font-size="11" textLength="41">: string</text><text x="1042" y="700.609" fill="#D9B8FF" font-family="sans-serif" font-size="11" font-weight="bold" textLength="90">group_version</text><text x="1132" y="700.609" fill="#D9B8FF" font-family="sans-serif" font-size="11" textLength="41">: string</text><text x="1042" y="723.414" fill="#D9B8FF" font-family="sans-serif" font-size="11" font-weight="bold" textLength="144">group_release_version</text><text x="1186" y="723.414" fill="#D9B8FF" font-family="sans-serif" font-size="11" textLength="41">: string</text><text x="1042" y="746.218" fill="#D9B8FF" font-family="sans-serif" font-size="11" font-weight="bold" textLength="118">group_modified_at</text><text x="1160" y="746.218" fill="#D9B8FF" font-family="sans-serif" font-size="11" textLength="58">: datetime</text><text x="1042" y="769.023" fill="#D9B8FF" font-family="sans-serif" font-size="11" font-weight="bold" textLength="83">group_status</text><text x="1125" y="769.023" fill="#D9B8FF" font-family="sans-serif" font-size="11" textLength="41">: string</text><text x="1042" y="791.828" fill="#D9B8FF" font-family="sans-serif" font-size="11" font-weight="bold" textLength="131">group_capacity_type</text><text x="1173" y="791.828" fill="#D9B8FF" font-family="sans-serif" font-size="11" textLength="41">: string</text><text x="1042" y="814.632" fill="#D9B8FF" font-family="sans-serif" font-size="11" font-weight="bold" textLength="135">group_scaling_config</text><text x="1177" y="814.632" fill="#D9B8FF" font-family="sans-serif" font-size="11" textLength="210">: aws_eks_nodegroup_scaling_config</text><text x="1042" y="837.437" fill="#D9B8FF" font-family="sans-serif" font-size="11" font-weight="bold" textLength="139">group_instance_types</text><text x="1181" y="837.437" fill="#D9B8FF" font-family="sans-serif" font-size="11" textLength="49">: string[]</text><text x="1042" y="860.242" fill="#D9B8FF" font-family="sans-serif" font-size="11" font-weight="bold" textLength="94">group_subnets</text><text x="1136" y="860.242" fill="#D9B8FF" font-family="sans-serif" font-size="11" textLength="49">: string[]</text><text x="1042" y="883.046" fill="#D9B8FF" font-family="sans-serif" font-size="11" font-weight="bold" textLength="138">group_remote_access</text><text x="1180" y="883.046" fill="#D9B8FF" font-family="sans-serif" font-size="11" textLength="190">: aws_eks_remote_access_config</text><text x="1042" y="905.851" fill="#D9B8FF" font-family="sans-serif" font-size="11" font-weight="bold" textLength="100">group_ami_type</text><text x="1142" y="905.851" fill="#D9B8FF" font-family="sans-serif" font-size="11" textLength="41">: string</text><text x="1042" y="928.656" fill="#D9B8FF" font-family="sans-serif" font-size="11" font-weight="bold" textLength="106">group_node_role</text><text x="1148" y="928.656" fill="#D9B8FF" font-family="sans-serif" font-size="11" textLength="41">: string</text><text x="1042" y="951.46" fill="#D9B8FF" font-family="sans-serif" font-size="11" font-weight="bold" textLength="82">group_labels</text><text x="1124" y="951.46" fill="#D9B8FF" font-family="sans-serif" font-size="11" textLength="145">: dictionary[string, string]</text><text x="1042" y="974.265" fill="#D9B8FF" font-family="sans-serif" font-size="11" font-weight="bold" textLength="80">group_taints</text><text x="1122" y="974.265" fill="#D9B8FF" font-family="sans-serif" font-size="11" textLength="96">: aws_eks_taint[]</text><text x="1042" y="997.07" fill="#D9B8FF" font-family="sans-serif" font-size="11" font-weight="bold" textLength="106">group_resources</text><text x="1148" y="997.07" fill="#D9B8FF" font-family="sans-serif" font-size="11" textLength="188">: aws_eks_nodegroup_resources</text><text x="1042" y="1019.875" fill="#D9B8FF" font-family="sans-serif" font-size="11" font-weight="bold" textLength="101">group_disk_size</text><text x="1143" y="1019.875" fill="#D9B8FF" font-family="sans-serif" font-size="11" textLength="36">: int64</text><text x="1042" y="1042.679" fill="#D9B8FF" font-family="sans-serif" font-size="11" font-weight="bold" textLength="84">group_health</text><text x="1126" y="1042.679" fill="#D9B8FF" font-family="sans-serif" font-size="11" textLength="165">: aws_eks_nodegroup_health</text><text x="1042" y="1065.484" fill="#D9B8FF" font-family="sans-serif" font-size="11" font-weight="bold" textLength="134">group_update_config</text><text x="1176" y="1065.484" fill="#D9B8FF" font-family="sans-serif" font-size="11" textLength="209">: aws_eks_nodegroup_update_config</text><text x="1042" y="1088.289" fill="#D9B8FF" font-family="sans-serif" font-size="11" font-weight="bold" textLength="149">group_launch_template</text><text x="1191" y="1088.289" fill="#D9B8FF" font-family="sans-serif" font-size="11" textLength="233">: aws_eks_launch_template_specification</text></a><a xlink:actuate="onRequest" xlink:href="#g" xlink:show="new" xlink:title="#aws_eks_nodegroup_scaling_config" xlink:type="simple" target="_top"><rect id="g" width="335" height="116.203" x="711.5" y="1160" fill="#3D176E" rx="2.5" ry="2.5" style="stroke:#000d19;stroke-width:1.5"/><circle cx="726.5" cy="1179.895" r="11" fill="#E98DF7" style="stroke:#000d19;stroke-width:1"/><path d="M729.469 1185.535q-.578.297-1.219.438-.64.156-1.344.156-2.5 0-3.828-1.64-1.312-1.657-1.312-4.782t1.312-4.781q1.328-1.656 3.828-1.656.703 0 1.344.156.656.156 1.219.453v2.719q-.625-.578-1.219-.844-.594-.281-1.219-.281-1.343 0-2.031 1.078-.688 1.062-.688 3.156 0 2.094.688 3.172.688 1.062 2.031 1.062.625 0 1.219-.265.594-.281 1.219-.86v2.72Z"/><text x="745.5" y="1185.78" fill="#D9B8FF" font-family="Helvetica" font-size="17" textLength="293">aws_eks_nodegroup_scaling_config</text><path d="M712.5 1199.789h333" style="stroke:#000d19;stroke-width:1.5"/><text x="722.5" y="1218.999" fill="#D9B8FF" font-family="sans-serif" font-size="11" font-weight="bold" textLength="55">min_size</text><text x="777.5" y="1218.999" fill="#D9B8FF" font-family="sans-serif" font-size="11" textLength="36">: int64</text><text x="722.5" y="1241.804" fill="#D9B8FF" font-family="sans-serif" font-size="11" font-weight="bold" textLength="58">max_size</text><text x="780.5" y="1241.804" fill="#D9B8FF" font-family="sans-serif" font-size="11" textLength="36">: int64</text><text x="722.5" y="1264.609" fill="#D9B8FF" font-family="sans-serif" font-size="11" font-weight="bold" textLength="80">desired_size</text><text x="802.5" y="1264.609" fill="#D9B8FF" font-family="sans-serif" font-size="11" textLength="36">: int64</text></a><a xlink:actuate="onRequest" xlink:href="#h" xlink:show="new" xlink:title="#aws_eks_remote_access_config" xlink:type="simple" target="_top"><rect id="h" width="302" height="93.398" x="1082" y="1171.5" fill="#3D176E" rx="2.5" ry="2.5" style="stroke:#000d19;stroke-width:1.5"/><circle cx="1097" cy="1191.395" r="11" fill="#E98DF7" style="stroke:#000d19;stroke-width:1"/><path d="M1099.969 1197.035q-.578.297-1.219.438-.64.156-1.344.156-2.5 0-3.828-1.64-1.312-1.657-1.312-4.782t1.312-4.781q1.328-1.656 3.828-1.656.703 0 1.344.156.656.156 1.219.453v2.719q-.625-.578-1.219-.844-.594-.281-1.219-.281-1.343 0-2.031 1.078-.688 1.062-.688 3.156 0 2.094.688 3.172.688 1.062 2.031 1.062.625 0 1.219-.265.594-.281 1.219-.86v2.72Z"/><text x="1116" y="1197.28" fill="#D9B8FF" font-family="Helvetica" font-size="17" textLength="260">aws_eks_remote_access_config</text><path d="M1083 1211.289h300" style="stroke:#000d19;stroke-width:1.5"/><text x="1093" y="1230.499" fill="#D9B8FF" font-family="sans-serif" font-size="11" font-weight="bold" textLength="79">ec2_ssh_key</text><text x="1172" y="1230.499" fill="#D9B8FF" font-family="sans-serif" font-size="11" textLength="41">: string</text><text x="1093" y="1253.304" fill="#D9B8FF" font-family="sans-serif" font-size="11" font-weight="bold" textLength="150">source_security_groups</text><text x="1243" y="1253.304" fill="#D9B8FF" font-family="sans-serif" font-size="11" textLength="49">: string[]</text></a><a xlink:actuate="onRequest" xlink:href="#i" xlink:show="new" xlink:title="#aws_eks_taint" xlink:type="simple" target="_top"><rect id="i" width="161" height="116.203" x="1419.5" y="1160" fill="#3D176E" rx="2.5" ry="2.5" style="stroke:#000d19;stroke-width:1.5"/><circle cx="1434.5" cy="1179.895" r="11" fill="#E98DF7" style="stroke:#000d19;stroke-width:1"/><path d="M1437.469 1185.535q-.578.297-1.219.438-.64.156-1.344.156-2.5 0-3.828-1.64-1.312-1.657-1.312-4.782t1.312-4.781q1.328-1.656 3.828-1.656.703 0 1.344.156.656.156 1.219.453v2.719q-.625-.578-1.219-.844-.594-.281-1.219-.281-1.343 0-2.031 1.078-.688 1.062-.688 3.156 0 2.094.688 3.172.688 1.062 2.031 1.062.625 0 1.219-.265.594-.281 1.219-.86v2.72Z"/><text x="1453.5" y="1185.78" fill="#D9B8FF" font-family="Helvetica" font-size="17" textLength="119">aws_eks_taint</text><path d="M1420.5 1199.789h159" style="stroke:#000d19;stroke-width:1.5"/><text x="1430.5" y="1218.999" fill="#D9B8FF" font-family="sans-serif" font-size="11" font-weight="bold" textLength="22">key</text><text x="1452.5" y="1218.999" fill="#D9B8FF" font-family="sans-serif" font-size="11" textLength="41">: string</text><text x="1430.5" y="1241.804" fill="#D9B8FF" font-family="sans-serif" font-size="11" font-weight="bold" textLength="35">value</text><text x="1465.5" y="1241.804" fill="#D9B8FF" font-family="sans-serif" font-size="11" textLength="41">: string</text><text x="1430.5" y="1264.609" fill="#D9B8FF" font-family="sans-serif" font-size="11" font-weight="bold" textLength="38">effect</text><text x="1468.5" y="1264.609" fill="#D9B8FF" font-family="sans-serif" font-size="11" textLength="41">: string</text></a><a xlink:actuate="onRequest" xlink:href="#j" xlink:show="new" xlink:title="#aws_eks_nodegroup_health" xlink:type="simple" target="_top"><rect id="j" width="273" height="70.594" x="1615.5" y="1182.5" fill="#3D176E" rx="2.5" ry="2.5" style="stroke:#000d19;stroke-width:1.5"/><circle cx="1630.5" cy="1202.395" r="11" fill="#E98DF7" style="stroke:#000d19;stroke-width:1"/><path d="M1633.469 1208.035q-.578.297-1.219.438-.64.156-1.344.156-2.5 0-3.828-1.64-1.312-1.657-1.312-4.782t1.312-4.781q1.328-1.656 3.828-1.656.703 0 1.344.156.656.156 1.219.453v2.719q-.625-.578-1.219-.844-.594-.281-1.219-.281-1.343 0-2.031 1.078-.688 1.062-.688 3.156 0 2.094.688 3.172.688 1.062 2.031 1.062.625 0 1.219-.265.594-.281 1.219-.86v2.72Z"/><text x="1649.5" y="1208.28" fill="#D9B8FF" font-family="Helvetica" font-size="17" textLength="231">aws_eks_nodegroup_health</text><path d="M1616.5 1222.289h271" style="stroke:#000d19;stroke-width:1.5"/><text x="1626.5" y="1241.499" fill="#D9B8FF" font-family="sans-serif" font-size="11" font-weight="bold" textLength="41">issues</text><text x="1667.5" y="1241.499" fill="#D9B8FF" font-family="sans-serif" font-size="11" textLength="102">: aws_eks_issue[]</text></a><a xlink:actuate="onRequest" xlink:href="#k" xlink:show="new" xlink:title="#aws_eks_launch_template_specification" xlink:type="simple" target="_top"><rect id="k" width="374" height="116.203" x="1924" y="1160" fill="#3D176E" rx="2.5" ry="2.5" style="stroke:#000d19;stroke-width:1.5"/><circle cx="1939" cy="1179.895" r="11" fill="#E98DF7" style="stroke:#000d19;stroke-width:1"/><path d="M1941.969 1185.535q-.578.297-1.219.438-.64.156-1.344.156-2.5 0-3.828-1.64-1.312-1.657-1.312-4.782t1.312-4.781q1.328-1.656 3.828-1.656.703 0 1.344.156.656.156 1.219.453v2.719q-.625-.578-1.219-.844-.594-.281-1.219-.281-1.343 0-2.031 1.078-.688 1.062-.688 3.156 0 2.094.688 3.172.688 1.062 2.031 1.062.625 0 1.219-.265.594-.281 1.219-.86v2.72Z"/><text x="1958" y="1185.78" fill="#D9B8FF" font-family="Helvetica" font-size="17" textLength="332">aws_eks_launch_template_specification</text><path d="M1925 1199.789h372" style="stroke:#000d19;stroke-width:1.5"/><text x="1935" y="1218.999" fill="#D9B8FF" font-family="sans-serif" font-size="11" font-weight="bold" textLength="35">name</text><text x="1970" y="1218.999" fill="#D9B8FF" font-family="sans-serif" font-size="11" textLength="41">: string</text><text x="1935" y="1241.804" fill="#D9B8FF" font-family="sans-serif" font-size="11" font-weight="bold" textLength="47">version</text><text x="1982" y="1241.804" fill="#D9B8FF" font-family="sans-serif" font-size="11" textLength="41">: string</text><text x="1935" y="1264.609" fill="#D9B8FF" font-family="sans-serif" font-size="11" font-weight="bold" textLength="12">id</text><text x="1947" y="1264.609" fill="#D9B8FF" font-family="sans-serif" font-size="11" textLength="41">: string</text></a><path fill="none" d="M1233 303.43V403.9m-7-100.64 7-20 7 20h-14zm7 192.1v100.51m-7-100.71 7-20 7 20h-14zm-195.07 563.91c-34.14 35.48-67 69.65-93.38 97.07" style="stroke:#ffaf37;stroke-width:2"/><path fill="#FFAF37" d="m934.04 1159.79 9.127-3.702-5.656.103-.103-5.656-3.368 9.255z" style="stroke:#ffaf37;stroke-width:2"/><path fill="none" d="M1233 1100.06v66.05" style="stroke:#ffaf37;stroke-width:2"/><path fill="#FFAF37" d="m1233 1171.29 4-9-4 4-4-4 4 9z" style="stroke:#ffaf37;stroke-width:2"/><path fill="none" d="M1415.15 1100.06c14.68 20.22 28.44 39.19 40.44 55.73" style="stroke:#ffaf37;stroke-width:2"/><path fill="#FFAF37" d="m1458.6 1159.94-2.063-9.63-.88 5.588-5.588-.88 8.531 4.922z" style="stroke:#ffaf37;stroke-width:2"/><path fill="none" d="M1030.69 954.45c-135.51 70.64-307.48 160.28-411.38 214.43" style="stroke:#ffaf37;stroke-width:2"/><path fill="#FFAF37" d="m614.72 1171.28 9.83-.61-5.396-1.7 1.7-5.395-6.134 7.705z" style="stroke:#ffaf37;stroke-width:2"/><path fill="none" d="M1435.15 992.33c95.33 67.6 201.54 142.91 263.59 186.91" style="stroke:#ffaf37;stroke-width:2"/><path fill="#FFAF37" d="m1703.13 1182.35-5.024-8.471.947 5.577-5.577.947 9.654 1.947z" style="stroke:#ffaf37;stroke-width:2"/><path fill="none" d="M1030.88 919.3c-211.49 73.57-537.64 187.01-720.19 250.5" style="stroke:#ffaf37;stroke-width:2"/><path fill="#FFAF37" d="m305.86 1171.48 9.815.815-5.094-2.46 2.461-5.094-7.182 6.739z" style="stroke:#ffaf37;stroke-width:2"/><path fill="none" d="m1435.26 933.77 535 224.24" style="stroke:#ffaf37;stroke-width:2"/><path fill="#FFAF37" d="m1974.94 1159.97-6.735-7.187 2.129 5.242-5.241 2.128 9.847-.183z" style="stroke:#ffaf37;stroke-width:2"/><path fill="none" d="M1752 1253.79v76.75" style="stroke:#ffaf37;stroke-width:2"/><path fill="#FFAF37" d="m1752 1335.66 4-9-4 4-4-4 4 9z" style="stroke:#ffaf37;stroke-width:2"/></svg>