<svg xmlns="http://www.w3.org/2000/svg" xmlns:xlink="http://www.w3.org/1999/xlink" width="771" height="352" preserveAspectRatio="none" style="width:771px;height:352px;background:#00000000"><a xlink:actuate="onRequest" xlink:href="#a" xlink:show="new" xlink:title="#aws_lambda_function" xlink:type="simple" target="_top"><rect id="a" width="224" height="39.789" x="7" y="207" fill="#3D176E" rx="2.5" ry="2.5" style="stroke:#000d19;stroke-width:1.5"/><circle cx="22" cy="226.894" r="11" fill="#E98DF7" style="stroke:#000d19;stroke-width:1"/><path d="M24.969 232.535q-.578.297-1.219.438-.64.156-1.344.156-2.5 0-3.828-1.64-1.312-1.657-1.312-4.782t1.312-4.781q1.328-1.656 3.828-1.656.703 0 1.344.156.656.156 1.219.453v2.719q-.625-.579-1.219-.844-.594-.281-1.219-.281-1.343 0-2.031 1.078-.688 1.062-.688 3.156 0 2.094.688 3.172.688 1.062 2.031 1.062.625 0 1.219-.265.594-.281 1.219-.86v2.72Z"/><text x="41" y="232.78" fill="#D9B8FF" font-family="Helvetica" font-size="17" textLength="182">aws_lambda_function</text></a><a xlink:actuate="onRequest" xlink:href="#b" xlink:show="new" xlink:title="#aws_cognito_user" xlink:type="simple" target="_top"><rect id="b" width="190" height="39.789" x="266" y="207" fill="#3D176E" rx="2.5" ry="2.5" style="stroke:#000d19;stroke-width:1.5"/><circle cx="281" cy="226.894" r="11" fill="#E98DF7" style="stroke:#000d19;stroke-width:1"/><path d="M283.969 232.535q-.578.297-1.219.438-.64.156-1.344.156-2.5 0-3.828-1.64-1.312-1.657-1.312-4.782t1.312-4.781q1.328-1.656 3.828-1.656.703 0 1.344.156.656.156 1.219.453v2.719q-.625-.579-1.219-.844-.594-.281-1.219-.281-1.344 0-2.031 1.078-.688 1.062-.688 3.156 0 2.094.688 3.172.688 1.062 2.031 1.062.625 0 1.219-.265.594-.281 1.219-.86v2.72Z"/><text x="300" y="232.78" fill="#D9B8FF" font-family="Helvetica" font-size="17" textLength="148">aws_cognito_user</text></a><a xlink:actuate="onRequest" xlink:href="#c" xlink:show="new" xlink:title="#aws_cognito_user_pool" xlink:type="simple" target="_top"><rect id="c" width="234" height="39.789" x="376" y="107" fill="#3D176E" rx="2.5" ry="2.5" style="stroke:#000d19;stroke-width:1.5"/><circle cx="391" cy="126.894" r="11" fill="#E98DF7" style="stroke:#000d19;stroke-width:1"/><path d="M393.969 132.535q-.578.297-1.219.438-.64.156-1.344.156-2.5 0-3.828-1.64-1.312-1.657-1.312-4.782t1.312-4.781q1.328-1.657 3.828-1.657.703 0 1.344.157.656.156 1.219.453v2.719q-.625-.579-1.219-.844-.594-.281-1.219-.281-1.344 0-2.031 1.078-.688 1.062-.688 3.156 0 2.094.688 3.172.688 1.062 2.031 1.062.625 0 1.219-.265.594-.281 1.219-.86v2.72Z"/><text x="410" y="132.78" fill="#D9B8FF" font-family="Helvetica" font-size="17" textLength="192">aws_cognito_user_pool</text></a><a xlink:actuate="onRequest" xlink:href="#d" xlink:show="new" xlink:title="#aws_cognito_group" xlink:type="simple" target="_top"><rect id="d" width="202" height="39.789" x="562" y="207" fill="#3D176E" rx="2.5" ry="2.5" style="stroke:#000d19;stroke-width:1.5"/><circle cx="577" cy="226.894" r="11" fill="#E98DF7" style="stroke:#000d19;stroke-width:1"/><path d="M579.969 232.535q-.578.297-1.219.438-.64.156-1.344.156-2.5 0-3.828-1.64-1.312-1.657-1.312-4.782t1.312-4.781q1.328-1.656 3.828-1.656.703 0 1.344.156.656.156 1.219.453v2.719q-.625-.579-1.219-.844-.594-.281-1.219-.281-1.343 0-2.031 1.078-.688 1.062-.688 3.156 0 2.094.688 3.172.688 1.062 2.031 1.062.625 0 1.219-.265.594-.281 1.219-.86v2.72Z"/><text x="596" y="232.78" fill="#D9B8FF" font-family="Helvetica" font-size="17" textLength="160">aws_cognito_group</text></a><a xlink:actuate="onRequest" xlink:href="#e" xlink:show="new" xlink:title="#aws_kms_key" xlink:type="simple" target="_top"><rect id="e" width="158" height="39.789" x="235" y="307" fill="#3D176E" rx="2.5" ry="2.5" style="stroke:#000d19;stroke-width:1.5"/><circle cx="250" cy="326.894" r="11" fill="#E98DF7" style="stroke:#000d19;stroke-width:1"/><path d="M252.969 332.535q-.578.297-1.219.438-.64.156-1.344.156-2.5 0-3.828-1.64-1.312-1.657-1.312-4.782t1.312-4.781q1.328-1.656 3.828-1.656.703 0 1.344.156.656.156 1.219.453v2.719q-.625-.579-1.219-.844-.594-.281-1.219-.281-1.344 0-2.031 1.078-.688 1.062-.688 3.156 0 2.094.688 3.172.688 1.062 2.031 1.062.625 0 1.219-.265.594-.281 1.219-.86v2.72Z"/><text x="269" y="332.78" fill="#D9B8FF" font-family="Helvetica" font-size="17" textLength="116">aws_kms_key</text></a><a xlink:actuate="onRequest" xlink:href="#f" xlink:show="new" xlink:title="#aws_sagemaker_workteam" xlink:type="simple" target="_top"><rect id="f" width="271" height="39.789" x="442.5" y="7" fill="#3D176E" rx="2.5" ry="2.5" style="stroke:#000d19;stroke-width:1.5"/><circle cx="457.5" cy="26.895" r="11" fill="#E98DF7" style="stroke:#000d19;stroke-width:1"/><path d="M460.469 32.535q-.578.297-1.219.438-.64.156-1.344.156-2.5 0-3.828-1.64-1.312-1.657-1.312-4.782t1.312-4.781q1.328-1.656 3.828-1.656.703 0 1.344.156.656.156 1.219.453v2.719q-.625-.578-1.219-.844-.594-.281-1.219-.281-1.344 0-2.031 1.078-.688 1.062-.688 3.156 0 2.094.688 3.172.688 1.062 2.031 1.062.625 0 1.219-.265.594-.281 1.219-.86v2.72Z"/><text x="476.5" y="32.78" fill="#D9B8FF" font-family="Helvetica" font-size="17" textLength="229">aws_sagemaker_workteam</text></a><path fill="none" d="M157.06 247.13c32.88 16.52 80.35 40.38 114.46 57.52" style="stroke:#1a83af;stroke-width:2"/><path fill="#1A83AF" d="m276.04 306.92-6.251-7.61 1.782 5.368-5.37 1.782 9.839.46z" style="stroke:#1a83af;stroke-width:2"/><path fill="none" d="M526.18 147.13c28.43 16.39 69.38 39.99 99.06 57.1" style="stroke:#1a83af;stroke-width:2"/><path fill="#1A83AF" d="m629.9 206.92-5.813-7.95 1.477 5.46-5.46 1.477 9.796 1.013z" style="stroke:#1a83af;stroke-width:2"/><path fill="none" d="M420.45 147.01c-64.29 16.85-157.89 41.37-223.69 58.62" style="stroke:#1a83af;stroke-width:2"/><path fill="#1A83AF" d="m191.67 206.96 9.722 1.576-4.887-2.85 2.85-4.886-7.685 6.16z" style="stroke:#1a83af;stroke-width:2"/><path fill="none" d="M467.24 147.13c-21.9 16.25-53.35 39.6-76.35 56.68" style="stroke:#1a83af;stroke-width:2"/><path fill="#1A83AF" d="m386.7 206.92 9.609-2.162-5.597-.822.822-5.597-4.834 8.581z" style="stroke:#1a83af;stroke-width:2"/><path fill="none" d="M494.82 147.36c1.35 25.4.02 70.19-21.82 99.64-20.3 27.38-52.74 45.85-83.03 57.99" style="stroke:#1a83af;stroke-width:2"/><path fill="#1A83AF" d="m385.13 306.89 9.838.46-5.18-2.275 2.276-5.18-6.934 6.995z" style="stroke:#1a83af;stroke-width:2"/><path fill="none" d="M592.35 47.27C603.34 62.75 618.23 85.41 628 107c14.26 31.5 24.4 70.3 29.98 94.86" style="stroke:#1a83af;stroke-width:2"/><path fill="#1A83AF" d="m659.1 206.87 1.952-9.653-3.037 4.772-4.772-3.037 5.857 7.918z" style="stroke:#1a83af;stroke-width:2"/><path fill="none" d="M561.21 47.36c-13.74 15.84-33.22 38.3-47.84 55.16" style="stroke:#1a83af;stroke-width:2"/><path fill="#1A83AF" d="m509.76 106.68 8.92-4.175-5.643.399-.399-5.643-2.878 9.419z" style="stroke:#1a83af;stroke-width:2"/></svg>