<svg xmlns="http://www.w3.org/2000/svg" xmlns:xlink="http://www.w3.org/1999/xlink" width="1879" height="1367" preserveAspectRatio="none" style="width:1879px;height:1367px;background:#00000000"><a xlink:actuate="onRequest" xlink:href="#a" xlink:show="new" xlink:title="#aws_resource" xlink:type="simple" target="_top"><rect id="a" width="155" height="70.594" x="972.5" y="404" fill="#3D176E" rx="2.5" ry="2.5" style="stroke:#000d19;stroke-width:1.5"/><circle cx="987.5" cy="423.894" r="11" fill="#E98DF7" style="stroke:#000d19;stroke-width:1"/><path d="M990.469 429.535q-.578.297-1.219.438-.64.156-1.344.156-2.5 0-3.828-1.64-1.312-1.657-1.312-4.782t1.312-4.781q1.328-1.656 3.828-1.656.703 0 1.344.156.656.156 1.219.453v2.719q-.625-.579-1.219-.844-.594-.281-1.219-.281-1.343 0-2.031 1.078-.688 1.062-.688 3.156 0 2.094.688 3.172.688 1.062 2.031 1.062.625 0 1.219-.265.594-.281 1.219-.86v2.72Z"/><text x="1006.5" y="429.78" fill="#D9B8FF" font-family="Helvetica" font-size="17" textLength="113">aws_resource</text><path d="M973.5 443.789h153" style="stroke:#000d19;stroke-width:1.5"/><text x="983.5" y="463" fill="#D9B8FF" font-family="sans-serif" font-size="11" font-weight="bold" textLength="21">arn</text><text x="1004.5" y="463" fill="#D9B8FF" font-family="sans-serif" font-size="11" textLength="41">: string</text></a><a xlink:actuate="onRequest" xlink:href="#b" xlink:show="new" xlink:title="#resource" xlink:type="simple" target="_top"><rect id="b" width="195" height="275.836" x="952.5" y="7" fill="#3D176E" rx="2.5" ry="2.5" style="stroke:#000d19;stroke-width:1.5"/><circle cx="1005.25" cy="26.895" r="11" fill="#E98DF7" style="stroke:#000d19;stroke-width:1"/><path d="M1008.219 32.535q-.578.297-1.219.438-.64.156-1.344.156-2.5 0-3.828-1.64-1.312-1.657-1.312-4.782t1.312-4.781q1.328-1.656 3.828-1.656.703 0 1.344.156.656.156 1.219.453v2.719q-.625-.578-1.219-.844-.594-.281-1.219-.281-1.343 0-2.031 1.078-.688 1.062-.688 3.156 0 2.094.688 3.172.688 1.062 2.031 1.062.625 0 1.219-.265.594-.281 1.219-.86v2.72Z"/><text x="1030.75" y="32.78" fill="#D9B8FF" font-family="Helvetica" font-size="17" textLength="71">resource</text><path d="M953.5 46.789h193" style="stroke:#000d19;stroke-width:1.5"/><text x="963.5" y="65.999" fill="#D9B8FF" font-family="sans-serif" font-size="11" font-weight="bold" textLength="12">id</text><text x="975.5" y="65.999" fill="#D9B8FF" font-family="sans-serif" font-size="11" textLength="41">: string</text><text x="963.5" y="88.804" fill="#D9B8FF" font-family="sans-serif" font-size="11" font-weight="bold" textLength="28">tags</text><text x="991.5" y="88.804" fill="#D9B8FF" font-family="sans-serif" font-size="11" textLength="145">: dictionary[string, string]</text><text x="963.5" y="111.609" fill="#D9B8FF" font-family="sans-serif" font-size="11" font-weight="bold" textLength="35">name</text><text x="998.5" y="111.609" fill="#D9B8FF" font-family="sans-serif" font-size="11" textLength="41">: string</text><text x="963.5" y="134.414" fill="#D9B8FF" font-family="sans-serif" font-size="11" font-weight="bold" textLength="35">ctime</text><text x="998.5" y="134.414" fill="#D9B8FF" font-family="sans-serif" font-size="11" textLength="58">: datetime</text><text x="963.5" y="157.218" fill="#D9B8FF" font-family="sans-serif" font-size="11" font-weight="bold" textLength="24">age</text><text x="987.5" y="157.218" fill="#D9B8FF" font-family="sans-serif" font-size="11" textLength="55">: duration</text><text x="963.5" y="180.023" fill="#D9B8FF" font-family="sans-serif" font-size="11" font-weight="bold" textLength="39">mtime</text><text x="1002.5" y="180.023" fill="#D9B8FF" font-family="sans-serif" font-size="11" textLength="58">: datetime</text><text x="963.5" y="202.828" fill="#D9B8FF" font-family="sans-serif" font-size="11" font-weight="bold" textLength="75">last_update</text><text x="1038.5" y="202.828" fill="#D9B8FF" font-family="sans-serif" font-size="11" textLength="55">: duration</text><text x="963.5" y="225.632" fill="#D9B8FF" font-family="sans-serif" font-size="11" font-weight="bold" textLength="36">atime</text><text x="999.5" y="225.632" fill="#D9B8FF" font-family="sans-serif" font-size="11" textLength="58">: datetime</text><text x="963.5" y="248.437" fill="#D9B8FF" font-family="sans-serif" font-size="11" font-weight="bold" textLength="74">last_access</text><text x="1037.5" y="248.437" fill="#D9B8FF" font-family="sans-serif" font-size="11" textLength="55">: duration</text><text x="963.5" y="271.242" fill="#D9B8FF" font-family="sans-serif" font-size="11" font-weight="bold" textLength="27">kind</text><text x="990.5" y="271.242" fill="#D9B8FF" font-family="sans-serif" font-size="11" textLength="41">: string</text></a><a xlink:actuate="onRequest" xlink:href="#c" xlink:show="new" xlink:title="#aws_eks_cluster" xlink:type="simple" target="_top"><rect id="c" width="526" height="344.25" x="787" y="596" fill="#3D176E" rx="2.5" ry="2.5" style="stroke:#000d19;stroke-width:1.5"/><circle cx="973.25" cy="615.894" r="11" fill="#E98DF7" style="stroke:#000d19;stroke-width:1"/><path d="M976.219 621.535q-.578.297-1.219.438-.64.156-1.344.156-2.5 0-3.828-1.64-1.312-1.657-1.312-4.782t1.312-4.781q1.328-1.657 3.828-1.657.703 0 1.344.157.656.156 1.219.453v2.719q-.625-.578-1.219-.844-.594-.281-1.219-.281-1.343 0-2.031 1.078-.688 1.062-.688 3.156 0 2.094.688 3.172.688 1.062 2.031 1.062.625 0 1.219-.265.594-.282 1.219-.86v2.72Z"/><text x="998.75" y="621.78" fill="#D9B8FF" font-family="Helvetica" font-size="17" textLength="135">aws_eks_cluster</text><path d="M788 635.789h524" style="stroke:#000d19;stroke-width:1.5"/><text x="798" y="655" fill="#D9B8FF" font-family="sans-serif" font-size="11" font-weight="bold" textLength="97">cluster_version</text><text x="895" y="655" fill="#D9B8FF" font-family="sans-serif" font-size="11" textLength="41">: string</text><text x="798" y="677.804" fill="#D9B8FF" font-family="sans-serif" font-size="11" font-weight="bold" textLength="107">cluster_endpoint</text><text x="905" y="677.804" fill="#D9B8FF" font-family="sans-serif" font-size="11" textLength="41">: string</text><text x="798" y="700.609" fill="#D9B8FF" font-family="sans-serif" font-size="11" font-weight="bold" textLength="102">cluster_role_arn</text><text x="900" y="700.609" fill="#D9B8FF" font-family="sans-serif" font-size="11" textLength="41">: string</text><text x="798" y="723.414" fill="#D9B8FF" font-family="sans-serif" font-size="11" font-weight="bold" textLength="187">cluster_resources_vpc_config</text><text x="985" y="723.414" fill="#D9B8FF" font-family="sans-serif" font-size="11" textLength="182">: aws_eks_vpc_config_response</text><text x="798" y="746.218" fill="#D9B8FF" font-family="sans-serif" font-size="11" font-weight="bold" textLength="226">cluster_kubernetes_network_config</text><text x="1024" y="746.218" fill="#D9B8FF" font-family="sans-serif" font-size="11" textLength="278">: aws_eks_kubernetes_network_config_response</text><text x="798" y="769.023" fill="#D9B8FF" font-family="sans-serif" font-size="11" font-weight="bold" textLength="98">cluster_logging</text><text x="896" y="769.023" fill="#D9B8FF" font-family="sans-serif" font-size="11" textLength="104">: aws_eks_logging</text><text x="798" y="791.828" fill="#D9B8FF" font-family="sans-serif" font-size="11" font-weight="bold" textLength="99">cluster_identity</text><text x="897" y="791.828" fill="#D9B8FF" font-family="sans-serif" font-size="11" textLength="104">: aws_eks_identity</text><text x="798" y="814.632" fill="#D9B8FF" font-family="sans-serif" font-size="11" font-weight="bold" textLength="90">cluster_status</text><text x="888" y="814.632" fill="#D9B8FF" font-family="sans-serif" font-size="11" textLength="41">: string</text><text x="798" y="837.437" fill="#D9B8FF" font-family="sans-serif" font-size="11" font-weight="bold" textLength="180">cluster_certificate_authority</text><text x="978" y="837.437" fill="#D9B8FF" font-family="sans-serif" font-size="11" textLength="41">: string</text><text x="798" y="860.242" fill="#D9B8FF" font-family="sans-serif" font-size="11" font-weight="bold" textLength="183">cluster_client_request_token</text><text x="981" y="860.242" fill="#D9B8FF" font-family="sans-serif" font-size="11" textLength="41">: string</text><text x="798" y="883.046" fill="#D9B8FF" font-family="sans-serif" font-size="11" font-weight="bold" textLength="157">cluster_platform_version</text><text x="955" y="883.046" fill="#D9B8FF" font-family="sans-serif" font-size="11" textLength="41">: string</text><text x="798" y="905.851" fill="#D9B8FF" font-family="sans-serif" font-size="11" font-weight="bold" textLength="164">cluster_encryption_config</text><text x="962" y="905.851" fill="#D9B8FF" font-family="sans-serif" font-size="11" textLength="170">: aws_eks_encryption_config[]</text><text x="798" y="928.656" fill="#D9B8FF" font-family="sans-serif" font-size="11" font-weight="bold" textLength="160">cluster_connector_config</text><text x="958" y="928.656" fill="#D9B8FF" font-family="sans-serif" font-size="11" textLength="159">: aws_eks_connector_config</text></a><a xlink:actuate="onRequest" xlink:href="#d" xlink:show="new" xlink:title="#aws_eks_kubernetes_network_config_response" xlink:type="simple" target="_top"><rect id="d" width="436" height="116.203" x="7" y="1045.5" fill="#3D176E" rx="2.5" ry="2.5" style="stroke:#000d19;stroke-width:1.5"/><circle cx="22" cy="1065.395" r="11" fill="#E98DF7" style="stroke:#000d19;stroke-width:1"/><path d="M24.969 1071.035q-.578.297-1.219.438-.64.156-1.344.156-2.5 0-3.828-1.64-1.312-1.657-1.312-4.782t1.312-4.781q1.328-1.656 3.828-1.656.703 0 1.344.156.656.156 1.219.453v2.719q-.625-.578-1.219-.844-.594-.281-1.219-.281-1.343 0-2.031 1.078-.688 1.062-.688 3.156 0 2.094.688 3.172.688 1.062 2.031 1.062.625 0 1.219-.265.594-.281 1.219-.86v2.72Z"/><text x="41" y="1071.28" fill="#D9B8FF" font-family="Helvetica" font-size="17" textLength="394">aws_eks_kubernetes_network_config_response</text><path d="M8 1085.289h434" style="stroke:#000d19;stroke-width:1.5"/><text x="18" y="1104.499" fill="#D9B8FF" font-family="sans-serif" font-size="11" font-weight="bold" textLength="109">service_ipv4_cidr</text><text x="127" y="1104.499" fill="#D9B8FF" font-family="sans-serif" font-size="11" textLength="41">: string</text><text x="18" y="1127.304" fill="#D9B8FF" font-family="sans-serif" font-size="11" font-weight="bold" textLength="109">service_ipv6_cidr</text><text x="127" y="1127.304" fill="#D9B8FF" font-family="sans-serif" font-size="11" textLength="41">: string</text><text x="18" y="1150.109" fill="#D9B8FF" font-family="sans-serif" font-size="11" font-weight="bold" textLength="57">ip_family</text><text x="75" y="1150.109" fill="#D9B8FF" font-family="sans-serif" font-size="11" textLength="41">: string</text></a><a xlink:actuate="onRequest" xlink:href="#e" xlink:show="new" xlink:title="#aws_eks_encryption_config" xlink:type="simple" target="_top"><rect id="e" width="269" height="93.398" x="478.5" y="1057" fill="#3D176E" rx="2.5" ry="2.5" style="stroke:#000d19;stroke-width:1.5"/><circle cx="493.5" cy="1076.895" r="11" fill="#E98DF7" style="stroke:#000d19;stroke-width:1"/><path d="M496.469 1082.535q-.578.297-1.219.438-.64.156-1.344.156-2.5 0-3.828-1.64-1.312-1.657-1.312-4.782t1.312-4.781q1.328-1.656 3.828-1.656.703 0 1.344.156.656.156 1.219.453v2.719q-.625-.578-1.219-.844-.594-.281-1.219-.281-1.344 0-2.031 1.078-.688 1.062-.688 3.156 0 2.094.688 3.172.688 1.062 2.031 1.062.625 0 1.219-.265.594-.281 1.219-.86v2.72Z"/><text x="512.5" y="1082.78" fill="#D9B8FF" font-family="Helvetica" font-size="17" textLength="227">aws_eks_encryption_config</text><path d="M479.5 1096.789h267" style="stroke:#000d19;stroke-width:1.5"/><text x="489.5" y="1115.999" fill="#D9B8FF" font-family="sans-serif" font-size="11" font-weight="bold" textLength="63">resources</text><text x="552.5" y="1115.999" fill="#D9B8FF" font-family="sans-serif" font-size="11" textLength="49">: string[]</text><text x="489.5" y="1138.804" fill="#D9B8FF" font-family="sans-serif" font-size="11" font-weight="bold" textLength="53">provider</text><text x="542.5" y="1138.804" fill="#D9B8FF" font-family="sans-serif" font-size="11" textLength="41">: string</text></a><a xlink:actuate="onRequest" xlink:href="#f" xlink:show="new" xlink:title="#aws_eks_log_setup" xlink:type="simple" target="_top"><rect id="f" width="201" height="93.398" x="805.5" y="1267" fill="#3D176E" rx="2.5" ry="2.5" style="stroke:#000d19;stroke-width:1.5"/><circle cx="820.5" cy="1286.895" r="11" fill="#E98DF7" style="stroke:#000d19;stroke-width:1"/><path d="M823.469 1292.535q-.578.297-1.219.438-.64.156-1.344.156-2.5 0-3.828-1.64-1.312-1.657-1.312-4.782t1.312-4.781q1.328-1.656 3.828-1.656.703 0 1.344.156.656.156 1.219.453v2.719q-.625-.578-1.219-.844-.594-.281-1.219-.281-1.343 0-2.031 1.078-.688 1.062-.688 3.156 0 2.094.688 3.172.688 1.062 2.031 1.062.625 0 1.219-.265.594-.281 1.219-.86v2.72Z"/><text x="839.5" y="1292.78" fill="#D9B8FF" font-family="Helvetica" font-size="17" textLength="159">aws_eks_log_setup</text><path d="M806.5 1306.789h199" style="stroke:#000d19;stroke-width:1.5"/><text x="816.5" y="1325.999" fill="#D9B8FF" font-family="sans-serif" font-size="11" font-weight="bold" textLength="35">types</text><text x="851.5" y="1325.999" fill="#D9B8FF" font-family="sans-serif" font-size="11" textLength="49">: string[]</text><text x="816.5" y="1348.804" fill="#D9B8FF" font-family="sans-serif" font-size="11" font-weight="bold" textLength="52">enabled</text><text x="868.5" y="1348.804" fill="#D9B8FF" font-family="sans-serif" font-size="11" textLength="53">: boolean</text></a><a xlink:actuate="onRequest" xlink:href="#g" xlink:show="new" xlink:title="#aws_eks_logging" xlink:type="simple" target="_top"><rect id="g" width="246" height="70.594" x="783" y="1068" fill="#3D176E" rx="2.5" ry="2.5" style="stroke:#000d19;stroke-width:1.5"/><circle cx="826.8" cy="1087.895" r="11" fill="#E98DF7" style="stroke:#000d19;stroke-width:1"/><path d="M829.769 1093.535q-.578.297-1.219.438-.64.156-1.344.156-2.5 0-3.828-1.64-1.312-1.657-1.312-4.782t1.312-4.781q1.328-1.656 3.828-1.656.703 0 1.344.156.656.156 1.219.453v2.719q-.625-.578-1.219-.844-.594-.281-1.219-.281-1.344 0-2.031 1.078-.688 1.062-.688 3.156 0 2.094.688 3.172.688 1.062 2.031 1.062.625 0 1.219-.265.594-.281 1.219-.86v2.72Z"/><text x="852.2" y="1093.78" fill="#D9B8FF" font-family="Helvetica" font-size="17" textLength="140">aws_eks_logging</text><path d="M784 1107.789h244" style="stroke:#000d19;stroke-width:1.5"/><text x="794" y="1126.999" fill="#D9B8FF" font-family="sans-serif" font-size="11" font-weight="bold" textLength="98">cluster_logging</text><text x="892" y="1126.999" fill="#D9B8FF" font-family="sans-serif" font-size="11" textLength="126">: aws_eks_log_setup[]</text></a><a xlink:actuate="onRequest" xlink:href="#h" xlink:show="new" xlink:title="#aws_eks_connector_config" xlink:type="simple" target="_top"><rect id="h" width="262" height="161.813" x="1064" y="1022.5" fill="#3D176E" rx="2.5" ry="2.5" style="stroke:#000d19;stroke-width:1.5"/><circle cx="1079" cy="1042.395" r="11" fill="#E98DF7" style="stroke:#000d19;stroke-width:1"/><path d="M1081.969 1048.035q-.578.297-1.219.438-.64.156-1.344.156-2.5 0-3.828-1.64-1.312-1.657-1.312-4.782t1.312-4.781q1.328-1.656 3.828-1.656.703 0 1.344.156.656.156 1.219.453v2.719q-.625-.578-1.219-.844-.594-.281-1.219-.281-1.343 0-2.031 1.078-.688 1.062-.688 3.156 0 2.094.688 3.172.688 1.062 2.031 1.062.625 0 1.219-.265.594-.281 1.219-.86v2.72Z"/><text x="1098" y="1048.28" fill="#D9B8FF" font-family="Helvetica" font-size="17" textLength="220">aws_eks_connector_config</text><path d="M1065 1062.289h260" style="stroke:#000d19;stroke-width:1.5"/><text x="1075" y="1081.499" fill="#D9B8FF" font-family="sans-serif" font-size="11" font-weight="bold" textLength="82">activation_id</text><text x="1157" y="1081.499" fill="#D9B8FF" font-family="sans-serif" font-size="11" textLength="41">: string</text><text x="1075" y="1104.304" fill="#D9B8FF" font-family="sans-serif" font-size="11" font-weight="bold" textLength="101">activation_code</text><text x="1176" y="1104.304" fill="#D9B8FF" font-family="sans-serif" font-size="11" textLength="41">: string</text><text x="1075" y="1127.109" fill="#D9B8FF" font-family="sans-serif" font-size="11" font-weight="bold" textLength="109">activation_expiry</text><text x="1184" y="1127.109" fill="#D9B8FF" font-family="sans-serif" font-size="11" textLength="58">: datetime</text><text x="1075" y="1149.914" fill="#D9B8FF" font-family="sans-serif" font-size="11" font-weight="bold" textLength="53">provider</text><text x="1128" y="1149.914" fill="#D9B8FF" font-family="sans-serif" font-size="11" textLength="41">: string</text><text x="1075" y="1172.718" fill="#D9B8FF" font-family="sans-serif" font-size="11" font-weight="bold" textLength="52">role_arn</text><text x="1127" y="1172.718" fill="#D9B8FF" font-family="sans-serif" font-size="11" textLength="41">: string</text></a><a xlink:actuate="onRequest" xlink:href="#i" xlink:show="new" xlink:title="#aws_eks_identity" xlink:type="simple" target="_top"><rect id="i" width="186" height="70.594" x="1361" y="1068" fill="#3D176E" rx="2.5" ry="2.5" style="stroke:#000d19;stroke-width:1.5"/><circle cx="1376" cy="1087.895" r="11" fill="#E98DF7" style="stroke:#000d19;stroke-width:1"/><path d="M1378.969 1093.535q-.578.297-1.219.438-.64.156-1.344.156-2.5 0-3.828-1.64-1.312-1.657-1.312-4.782t1.312-4.781q1.328-1.656 3.828-1.656.703 0 1.344.156.656.156 1.219.453v2.719q-.625-.578-1.219-.844-.594-.281-1.219-.281-1.343 0-2.031 1.078-.688 1.062-.688 3.156 0 2.094.688 3.172.688 1.062 2.031 1.062.625 0 1.219-.265.594-.281 1.219-.86v2.72Z"/><text x="1395" y="1093.78" fill="#D9B8FF" font-family="Helvetica" font-size="17" textLength="144">aws_eks_identity</text><path d="M1362 1107.789h184" style="stroke:#000d19;stroke-width:1.5"/><text x="1372" y="1126.999" fill="#D9B8FF" font-family="sans-serif" font-size="11" font-weight="bold" textLength="27">oidc</text><text x="1399" y="1126.999" fill="#D9B8FF" font-family="sans-serif" font-size="11" textLength="41">: string</text></a><a xlink:actuate="onRequest" xlink:href="#j" xlink:show="new" xlink:title="#aws_eks_vpc_config_response" xlink:type="simple" target="_top"><rect id="j" width="291" height="207.422" x="1581.5" y="1000" fill="#3D176E" rx="2.5" ry="2.5" style="stroke:#000d19;stroke-width:1.5"/><circle cx="1596.5" cy="1019.894" r="11" fill="#E98DF7" style="stroke:#000d19;stroke-width:1"/><path d="M1599.469 1025.535q-.578.297-1.219.438-.64.156-1.344.156-2.5 0-3.828-1.64-1.312-1.657-1.312-4.782t1.312-4.781q1.328-1.657 3.828-1.657.703 0 1.344.157.656.156 1.219.453v2.719q-.625-.578-1.219-.844-.594-.281-1.219-.281-1.343 0-2.031 1.078-.688 1.062-.688 3.156 0 2.094.688 3.172.688 1.062 2.031 1.062.625 0 1.219-.265.594-.282 1.219-.86v2.72Z"/><text x="1615.5" y="1025.78" fill="#D9B8FF" font-family="Helvetica" font-size="17" textLength="249">aws_eks_vpc_config_response</text><path d="M1582.5 1039.789h289" style="stroke:#000d19;stroke-width:1.5"/><text x="1592.5" y="1058.999" fill="#D9B8FF" font-family="sans-serif" font-size="11" font-weight="bold" textLength="69">subnet_ids</text><text x="1661.5" y="1058.999" fill="#D9B8FF" font-family="sans-serif" font-size="11" textLength="49">: string[]</text><text x="1592.5" y="1081.804" fill="#D9B8FF" font-family="sans-serif" font-size="11" font-weight="bold" textLength="119">security_group_ids</text><text x="1711.5" y="1081.804" fill="#D9B8FF" font-family="sans-serif" font-size="11" textLength="49">: string[]</text><text x="1592.5" y="1104.609" fill="#D9B8FF" font-family="sans-serif" font-size="11" font-weight="bold" textLength="162">cluster_security_group_id</text><text x="1754.5" y="1104.609" fill="#D9B8FF" font-family="sans-serif" font-size="11" textLength="41">: string</text><text x="1592.5" y="1127.414" fill="#D9B8FF" font-family="sans-serif" font-size="11" font-weight="bold" textLength="40">vpc_id</text><text x="1632.5" y="1127.414" fill="#D9B8FF" font-family="sans-serif" font-size="11" textLength="41">: string</text><text x="1592.5" y="1150.218" fill="#D9B8FF" font-family="sans-serif" font-size="11" font-weight="bold" textLength="152">endpoint_public_access</text><text x="1744.5" y="1150.218" fill="#D9B8FF" font-family="sans-serif" font-size="11" textLength="53">: boolean</text><text x="1592.5" y="1173.023" fill="#D9B8FF" font-family="sans-serif" font-size="11" font-weight="bold" textLength="158">endpoint_private_access</text><text x="1750.5" y="1173.023" fill="#D9B8FF" font-family="sans-serif" font-size="11" textLength="53">: boolean</text><text x="1592.5" y="1195.828" fill="#D9B8FF" font-family="sans-serif" font-size="11" font-weight="bold" textLength="126">public_access_cidrs</text><text x="1718.5" y="1195.828" fill="#D9B8FF" font-family="sans-serif" font-size="11" textLength="49">: string[]</text></a><path fill="none" d="M1050 303.43V403.9m-7-100.64 7-20 7 20h-14zm7 192.12v100.25m-7-100.5 7-20 7 20h-14zm270.23 383.74c81.53 36.27 170.89 78.33 250.77 121.13 4.31 2.31 8.66 4.69 13.03 7.12" style="stroke:#ffaf37;stroke-width:2"/><path fill="#FFAF37" d="m1581.4 1009.58-5.905-7.882 1.54 5.443-5.443 1.54 9.808.899z" style="stroke:#ffaf37;stroke-width:2"/><path fill="none" d="M786.77 869.91C684.71 909.64 567.09 956.18 461 1000c-33.15 13.7-68.73 28.88-101.94 43.28" style="stroke:#ffaf37;stroke-width:2"/><path fill="#FFAF37" d="m354.17 1045.4 9.849.08-5.264-2.074 2.074-5.263-6.659 7.257z" style="stroke:#ffaf37;stroke-width:2"/><path fill="none" d="M976.1 940.15c-19.92 46.15-39.66 91.85-53.09 122.94" style="stroke:#ffaf37;stroke-width:2"/><path fill="#FFAF37" d="m920.91 1067.96 7.247-6.67-5.26 2.082-2.081-5.26.094 9.848z" style="stroke:#ffaf37;stroke-width:2"/><path fill="none" d="M1271.09 940.29c24.49 19.86 48.88 40.05 71.91 59.71 24.04 20.52 50.04 44.43 70.83 64" style="stroke:#ffaf37;stroke-width:2"/><path fill="#FFAF37" d="m1417.65 1067.6-3.795-9.088.16 5.654-5.654.16 9.289 3.274z" style="stroke:#ffaf37;stroke-width:2"/><path fill="none" d="m825.74 940.15-148.69 113.47" style="stroke:#ffaf37;stroke-width:2"/><path fill="#FFAF37" d="m672.73 1056.92 9.577-2.299-5.608-.742.742-5.608-4.711 8.649z" style="stroke:#ffaf37;stroke-width:2"/><path fill="none" d="M1124.41 940.15c11.67 26.83 23.27 53.52 33.6 77.27" style="stroke:#ffaf37;stroke-width:2"/><path fill="#FFAF37" d="m1160.06 1022.13.094-9.848-2.08 5.26-5.26-2.082 7.246 6.67z" style="stroke:#ffaf37;stroke-width:2"/><path fill="none" d="M906 1139.31v122.28" style="stroke:#ffaf37;stroke-width:2"/><path fill="#FFAF37" d="m906 1266.62 4-9-4 4-4-4 4 9z" style="stroke:#ffaf37;stroke-width:2"/></svg>