<svg xmlns="http://www.w3.org/2000/svg" xmlns:xlink="http://www.w3.org/1999/xlink" width="2304" height="1459" preserveAspectRatio="none" style="width:2304px;height:1459px;background:#00000000"><a xlink:actuate="onRequest" xlink:href="#a" xlink:show="new" xlink:title="#aws_resource" xlink:type="simple" target="_top"><rect id="a" width="155" height="70.594" x="1195" y="404" fill="#3D176E" rx="2.5" ry="2.5" style="stroke:#000d19;stroke-width:1.5"/><circle cx="1210" cy="423.894" r="11" fill="#E98DF7" style="stroke:#000d19;stroke-width:1"/><path d="M1212.969 429.535q-.578.297-1.219.438-.64.156-1.344.156-2.5 0-3.828-1.64-1.312-1.657-1.312-4.782t1.312-4.781q1.328-1.656 3.828-1.656.703 0 1.344.156.656.156 1.219.453v2.719q-.625-.579-1.219-.844-.594-.281-1.219-.281-1.343 0-2.031 1.078-.688 1.062-.688 3.156 0 2.094.688 3.172.688 1.062 2.031 1.062.625 0 1.219-.265.594-.281 1.219-.86v2.72Z"/><text x="1229" y="429.78" fill="#D9B8FF" font-family="Helvetica" font-size="17" textLength="113">aws_resource</text><path d="M1196 443.789h153" style="stroke:#000d19;stroke-width:1.5"/><text x="1206" y="463" fill="#D9B8FF" font-family="sans-serif" font-size="11" font-weight="bold" textLength="21">arn</text><text x="1227" y="463" fill="#D9B8FF" font-family="sans-serif" font-size="11" textLength="41">: string</text></a><a xlink:actuate="onRequest" xlink:href="#b" xlink:show="new" xlink:title="#resource" xlink:type="simple" target="_top"><rect id="b" width="195" height="275.836" x="1175" y="7" fill="#3D176E" rx="2.5" ry="2.5" style="stroke:#000d19;stroke-width:1.5"/><circle cx="1227.75" cy="26.895" r="11" fill="#E98DF7" style="stroke:#000d19;stroke-width:1"/><path d="M1230.719 32.535q-.578.297-1.219.438-.64.156-1.344.156-2.5 0-3.828-1.64-1.312-1.657-1.312-4.782t1.312-4.781q1.328-1.656 3.828-1.656.703 0 1.344.156.656.156 1.219.453v2.719q-.625-.578-1.219-.844-.594-.281-1.219-.281-1.343 0-2.031 1.078-.688 1.062-.688 3.156 0 2.094.688 3.172.688 1.062 2.031 1.062.625 0 1.219-.265.594-.281 1.219-.86v2.72Z"/><text x="1253.25" y="32.78" fill="#D9B8FF" font-family="Helvetica" font-size="17" textLength="71">resource</text><path d="M1176 46.789h193" style="stroke:#000d19;stroke-width:1.5"/><text x="1186" y="65.999" fill="#D9B8FF" font-family="sans-serif" font-size="11" font-weight="bold" textLength="12">id</text><text x="1198" y="65.999" fill="#D9B8FF" font-family="sans-serif" font-size="11" textLength="41">: string</text><text x="1186" y="88.804" fill="#D9B8FF" font-family="sans-serif" font-size="11" font-weight="bold" textLength="28">tags</text><text x="1214" y="88.804" fill="#D9B8FF" font-family="sans-serif" font-size="11" textLength="145">: dictionary[string, string]</text><text x="1186" y="111.609" fill="#D9B8FF" font-family="sans-serif" font-size="11" font-weight="bold" textLength="35">name</text><text x="1221" y="111.609" fill="#D9B8FF" font-family="sans-serif" font-size="11" textLength="41">: string</text><text x="1186" y="134.414" fill="#D9B8FF" font-family="sans-serif" font-size="11" font-weight="bold" textLength="35">ctime</text><text x="1221" y="134.414" fill="#D9B8FF" font-family="sans-serif" font-size="11" textLength="58">: datetime</text><text x="1186" y="157.218" fill="#D9B8FF" font-family="sans-serif" font-size="11" font-weight="bold" textLength="24">age</text><text x="1210" y="157.218" fill="#D9B8FF" font-family="sans-serif" font-size="11" textLength="55">: duration</text><text x="1186" y="180.023" fill="#D9B8FF" font-family="sans-serif" font-size="11" font-weight="bold" textLength="39">mtime</text><text x="1225" y="180.023" fill="#D9B8FF" font-family="sans-serif" font-size="11" textLength="58">: datetime</text><text x="1186" y="202.828" fill="#D9B8FF" font-family="sans-serif" font-size="11" font-weight="bold" textLength="75">last_update</text><text x="1261" y="202.828" fill="#D9B8FF" font-family="sans-serif" font-size="11" textLength="55">: duration</text><text x="1186" y="225.632" fill="#D9B8FF" font-family="sans-serif" font-size="11" font-weight="bold" textLength="36">atime</text><text x="1222" y="225.632" fill="#D9B8FF" font-family="sans-serif" font-size="11" textLength="58">: datetime</text><text x="1186" y="248.437" fill="#D9B8FF" font-family="sans-serif" font-size="11" font-weight="bold" textLength="74">last_access</text><text x="1260" y="248.437" fill="#D9B8FF" font-family="sans-serif" font-size="11" textLength="55">: duration</text><text x="1186" y="271.242" fill="#D9B8FF" font-family="sans-serif" font-size="11" font-weight="bold" textLength="27">kind</text><text x="1213" y="271.242" fill="#D9B8FF" font-family="sans-serif" font-size="11" textLength="41">: string</text></a><a xlink:actuate="onRequest" xlink:href="#c" xlink:show="new" xlink:title="#aws_eks_nodegroup" xlink:type="simple" target="_top"><rect id="c" width="404" height="503.883" x="1070.5" y="596" fill="#3D176E" rx="2.5" ry="2.5" style="stroke:#000d19;stroke-width:1.5"/><circle cx="1179.25" cy="615.894" r="11" fill="#E98DF7" style="stroke:#000d19;stroke-width:1"/><path d="M1182.219 621.535q-.578.297-1.219.438-.64.156-1.344.156-2.5 0-3.828-1.64-1.312-1.657-1.312-4.782t1.312-4.781q1.328-1.657 3.828-1.657.703 0 1.344.157.656.156 1.219.453v2.719q-.625-.578-1.219-.844-.594-.281-1.219-.281-1.343 0-2.031 1.078-.688 1.062-.688 3.156 0 2.094.688 3.172.688 1.062 2.031 1.062.625 0 1.219-.265.594-.282 1.219-.86v2.72Z"/><text x="1204.75" y="621.78" fill="#D9B8FF" font-family="Helvetica" font-size="17" textLength="168">aws_eks_nodegroup</text><path d="M1071.5 635.789h402" style="stroke:#000d19;stroke-width:1.5"/><text x="1081.5" y="655" fill="#D9B8FF" font-family="sans-serif" font-size="11" font-weight="bold" textLength="85">cluster_name</text><text x="1166.5" y="655" fill="#D9B8FF" font-family="sans-serif" font-size="11" textLength="41">: string</text><text x="1081.5" y="677.804" fill="#D9B8FF" font-family="sans-serif" font-size="11" font-weight="bold" textLength="139">group_nodegroup_arn</text><text x="1220.5" y="677.804" fill="#D9B8FF" font-family="sans-serif" font-size="11" textLength="41">: string</text><text x="1081.5" y="700.609" fill="#D9B8FF" font-family="sans-serif" font-size="11" font-weight="bold" textLength="90">group_version</text><text x="1171.5" y="700.609" fill="#D9B8FF" font-family="sans-serif" font-size="11" textLength="41">: string</text><text x="1081.5" y="723.414" fill="#D9B8FF" font-family="sans-serif" font-size="11" font-weight="bold" textLength="144">group_release_version</text><text x="1225.5" y="723.414" fill="#D9B8FF" font-family="sans-serif" font-size="11" textLength="41">: string</text><text x="1081.5" y="746.218" fill="#D9B8FF" font-family="sans-serif" font-size="11" font-weight="bold" textLength="118">group_modified_at</text><text x="1199.5" y="746.218" fill="#D9B8FF" font-family="sans-serif" font-size="11" textLength="58">: datetime</text><text x="1081.5" y="769.023" fill="#D9B8FF" font-family="sans-serif" font-size="11" font-weight="bold" textLength="83">group_status</text><text x="1164.5" y="769.023" fill="#D9B8FF" font-family="sans-serif" font-size="11" textLength="41">: string</text><text x="1081.5" y="791.828" fill="#D9B8FF" font-family="sans-serif" font-size="11" font-weight="bold" textLength="131">group_capacity_type</text><text x="1212.5" y="791.828" fill="#D9B8FF" font-family="sans-serif" font-size="11" textLength="41">: string</text><text x="1081.5" y="814.632" fill="#D9B8FF" font-family="sans-serif" font-size="11" font-weight="bold" textLength="135">group_scaling_config</text><text x="1216.5" y="814.632" fill="#D9B8FF" font-family="sans-serif" font-size="11" textLength="210">: aws_eks_nodegroup_scaling_config</text><text x="1081.5" y="837.437" fill="#D9B8FF" font-family="sans-serif" font-size="11" font-weight="bold" textLength="139">group_instance_types</text><text x="1220.5" y="837.437" fill="#D9B8FF" font-family="sans-serif" font-size="11" textLength="49">: string[]</text><text x="1081.5" y="860.242" fill="#D9B8FF" font-family="sans-serif" font-size="11" font-weight="bold" textLength="94">group_subnets</text><text x="1175.5" y="860.242" fill="#D9B8FF" font-family="sans-serif" font-size="11" textLength="49">: string[]</text><text x="1081.5" y="883.046" fill="#D9B8FF" font-family="sans-serif" font-size="11" font-weight="bold" textLength="138">group_remote_access</text><text x="1219.5" y="883.046" fill="#D9B8FF" font-family="sans-serif" font-size="11" textLength="190">: aws_eks_remote_access_config</text><text x="1081.5" y="905.851" fill="#D9B8FF" font-family="sans-serif" font-size="11" font-weight="bold" textLength="100">group_ami_type</text><text x="1181.5" y="905.851" fill="#D9B8FF" font-family="sans-serif" font-size="11" textLength="41">: string</text><text x="1081.5" y="928.656" fill="#D9B8FF" font-family="sans-serif" font-size="11" font-weight="bold" textLength="106">group_node_role</text><text x="1187.5" y="928.656" fill="#D9B8FF" font-family="sans-serif" font-size="11" textLength="41">: string</text><text x="1081.5" y="951.46" fill="#D9B8FF" font-family="sans-serif" font-size="11" font-weight="bold" textLength="82">group_labels</text><text x="1163.5" y="951.46" fill="#D9B8FF" font-family="sans-serif" font-size="11" textLength="145">: dictionary[string, string]</text><text x="1081.5" y="974.265" fill="#D9B8FF" font-family="sans-serif" font-size="11" font-weight="bold" textLength="80">group_taints</text><text x="1161.5" y="974.265" fill="#D9B8FF" font-family="sans-serif" font-size="11" textLength="96">: aws_eks_taint[]</text><text x="1081.5" y="997.07" fill="#D9B8FF" font-family="sans-serif" font-size="11" font-weight="bold" textLength="106">group_resources</text><text x="1187.5" y="997.07" fill="#D9B8FF" font-family="sans-serif" font-size="11" textLength="188">: aws_eks_nodegroup_resources</text><text x="1081.5" y="1019.875" fill="#D9B8FF" font-family="sans-serif" font-size="11" font-weight="bold" textLength="101">group_disk_size</text><text x="1182.5" y="1019.875" fill="#D9B8FF" font-family="sans-serif" font-size="11" textLength="36">: int64</text><text x="1081.5" y="1042.679" fill="#D9B8FF" font-family="sans-serif" font-size="11" font-weight="bold" textLength="84">group_health</text><text x="1165.5" y="1042.679" fill="#D9B8FF" font-family="sans-serif" font-size="11" textLength="165">: aws_eks_nodegroup_health</text><text x="1081.5" y="1065.484" fill="#D9B8FF" font-family="sans-serif" font-size="11" font-weight="bold" textLength="134">group_update_config</text><text x="1215.5" y="1065.484" fill="#D9B8FF" font-family="sans-serif" font-size="11" textLength="209">: aws_eks_nodegroup_update_config</text><text x="1081.5" y="1088.289" fill="#D9B8FF" font-family="sans-serif" font-size="11" font-weight="bold" textLength="149">group_launch_template</text><text x="1230.5" y="1088.289" fill="#D9B8FF" font-family="sans-serif" font-size="11" textLength="233">: aws_eks_launch_template_specification</text></a><a xlink:actuate="onRequest" xlink:href="#d" xlink:show="new" xlink:title="#aws_eks_nodegroup_scaling_config" xlink:type="simple" target="_top"><rect id="d" width="335" height="116.203" x="7" y="1160" fill="#3D176E" rx="2.5" ry="2.5" style="stroke:#000d19;stroke-width:1.5"/><circle cx="22" cy="1179.895" r="11" fill="#E98DF7" style="stroke:#000d19;stroke-width:1"/><path d="M24.969 1185.535q-.578.297-1.219.438-.64.156-1.344.156-2.5 0-3.828-1.64-1.312-1.657-1.312-4.782t1.312-4.781q1.328-1.656 3.828-1.656.703 0 1.344.156.656.156 1.219.453v2.719q-.625-.578-1.219-.844-.594-.281-1.219-.281-1.343 0-2.031 1.078-.688 1.062-.688 3.156 0 2.094.688 3.172.688 1.062 2.031 1.062.625 0 1.219-.265.594-.281 1.219-.86v2.72Z"/><text x="41" y="1185.78" fill="#D9B8FF" font-family="Helvetica" font-size="17" textLength="293">aws_eks_nodegroup_scaling_config</text><path d="M8 1199.789h333" style="stroke:#000d19;stroke-width:1.5"/><text x="18" y="1218.999" fill="#D9B8FF" font-family="sans-serif" font-size="11" font-weight="bold" textLength="55">min_size</text><text x="73" y="1218.999" fill="#D9B8FF" font-family="sans-serif" font-size="11" textLength="36">: int64</text><text x="18" y="1241.804" fill="#D9B8FF" font-family="sans-serif" font-size="11" font-weight="bold" textLength="58">max_size</text><text x="76" y="1241.804" fill="#D9B8FF" font-family="sans-serif" font-size="11" textLength="36">: int64</text><text x="18" y="1264.609" fill="#D9B8FF" font-family="sans-serif" font-size="11" font-weight="bold" textLength="80">desired_size</text><text x="98" y="1264.609" fill="#D9B8FF" font-family="sans-serif" font-size="11" textLength="36">: int64</text></a><a xlink:actuate="onRequest" xlink:href="#e" xlink:show="new" xlink:title="#aws_eks_launch_template_specification" xlink:type="simple" target="_top"><rect id="e" width="374" height="116.203" x="377.5" y="1160" fill="#3D176E" rx="2.5" ry="2.5" style="stroke:#000d19;stroke-width:1.5"/><circle cx="392.5" cy="1179.895" r="11" fill="#E98DF7" style="stroke:#000d19;stroke-width:1"/><path d="M395.469 1185.535q-.578.297-1.219.438-.64.156-1.344.156-2.5 0-3.828-1.64-1.312-1.657-1.312-4.782t1.312-4.781q1.328-1.656 3.828-1.656.703 0 1.344.156.656.156 1.219.453v2.719q-.625-.578-1.219-.844-.594-.281-1.219-.281-1.344 0-2.031 1.078-.688 1.062-.688 3.156 0 2.094.688 3.172.688 1.062 2.031 1.062.625 0 1.219-.265.594-.281 1.219-.86v2.72Z"/><text x="411.5" y="1185.78" fill="#D9B8FF" font-family="Helvetica" font-size="17" textLength="332">aws_eks_launch_template_specification</text><path d="M378.5 1199.789h372" style="stroke:#000d19;stroke-width:1.5"/><text x="388.5" y="1218.999" fill="#D9B8FF" font-family="sans-serif" font-size="11" font-weight="bold" textLength="35">name</text><text x="423.5" y="1218.999" fill="#D9B8FF" font-family="sans-serif" font-size="11" textLength="41">: string</text><text x="388.5" y="1241.804" fill="#D9B8FF" font-family="sans-serif" font-size="11" font-weight="bold" textLength="47">version</text><text x="435.5" y="1241.804" fill="#D9B8FF" font-family="sans-serif" font-size="11" textLength="41">: string</text><text x="388.5" y="1264.609" fill="#D9B8FF" font-family="sans-serif" font-size="11" font-weight="bold" textLength="12">id</text><text x="400.5" y="1264.609" fill="#D9B8FF" font-family="sans-serif" font-size="11" textLength="41">: string</text></a><a xlink:actuate="onRequest" xlink:href="#f" xlink:show="new" xlink:title="#aws_eks_remote_access_config" xlink:type="simple" target="_top"><rect id="f" width="302" height="93.398" x="786.5" y="1171.5" fill="#3D176E" rx="2.5" ry="2.5" style="stroke:#000d19;stroke-width:1.5"/><circle cx="801.5" cy="1191.395" r="11" fill="#E98DF7" style="stroke:#000d19;stroke-width:1"/><path d="M804.469 1197.035q-.578.297-1.219.438-.64.156-1.344.156-2.5 0-3.828-1.64-1.312-1.657-1.312-4.782t1.312-4.781q1.328-1.656 3.828-1.656.703 0 1.344.156.656.156 1.219.453v2.719q-.625-.578-1.219-.844-.594-.281-1.219-.281-1.343 0-2.031 1.078-.688 1.062-.688 3.156 0 2.094.688 3.172.688 1.062 2.031 1.062.625 0 1.219-.265.594-.281 1.219-.86v2.72Z"/><text x="820.5" y="1197.28" fill="#D9B8FF" font-family="Helvetica" font-size="17" textLength="260">aws_eks_remote_access_config</text><path d="M787.5 1211.289h300" style="stroke:#000d19;stroke-width:1.5"/><text x="797.5" y="1230.499" fill="#D9B8FF" font-family="sans-serif" font-size="11" font-weight="bold" textLength="79">ec2_ssh_key</text><text x="876.5" y="1230.499" fill="#D9B8FF" font-family="sans-serif" font-size="11" textLength="41">: string</text><text x="797.5" y="1253.304" fill="#D9B8FF" font-family="sans-serif" font-size="11" font-weight="bold" textLength="150">source_security_groups</text><text x="947.5" y="1253.304" fill="#D9B8FF" font-family="sans-serif" font-size="11" textLength="49">: string[]</text></a><a xlink:actuate="onRequest" xlink:href="#g" xlink:show="new" xlink:title="#aws_eks_nodegroup_resources" xlink:type="simple" target="_top"><rect id="g" width="298" height="93.398" x="1123.5" y="1171.5" fill="#3D176E" rx="2.5" ry="2.5" style="stroke:#000d19;stroke-width:1.5"/><circle cx="1138.5" cy="1191.395" r="11" fill="#E98DF7" style="stroke:#000d19;stroke-width:1"/><path d="M1141.469 1197.035q-.578.297-1.219.438-.64.156-1.344.156-2.5 0-3.828-1.64-1.312-1.657-1.312-4.782t1.312-4.781q1.328-1.656 3.828-1.656.703 0 1.344.156.656.156 1.219.453v2.719q-.625-.578-1.219-.844-.594-.281-1.219-.281-1.343 0-2.031 1.078-.688 1.062-.688 3.156 0 2.094.688 3.172.688 1.062 2.031 1.062.625 0 1.219-.265.594-.281 1.219-.86v2.72Z"/><text x="1157.5" y="1197.28" fill="#D9B8FF" font-family="Helvetica" font-size="17" textLength="256">aws_eks_nodegroup_resources</text><path d="M1124.5 1211.289h296" style="stroke:#000d19;stroke-width:1.5"/><text x="1134.5" y="1230.499" fill="#D9B8FF" font-family="sans-serif" font-size="11" font-weight="bold" textLength="131">auto_scaling_groups</text><text x="1265.5" y="1230.499" fill="#D9B8FF" font-family="sans-serif" font-size="11" textLength="49">: string[]</text><text x="1134.5" y="1253.304" fill="#D9B8FF" font-family="sans-serif" font-size="11" font-weight="bold" textLength="195">remote_access_security_group</text><text x="1329.5" y="1253.304" fill="#D9B8FF" font-family="sans-serif" font-size="11" textLength="41">: string</text></a><a xlink:actuate="onRequest" xlink:href="#h" xlink:show="new" xlink:title="#aws_eks_taint" xlink:type="simple" target="_top"><rect id="h" width="161" height="116.203" x="1457" y="1160" fill="#3D176E" rx="2.5" ry="2.5" style="stroke:#000d19;stroke-width:1.5"/><circle cx="1472" cy="1179.895" r="11" fill="#E98DF7" style="stroke:#000d19;stroke-width:1"/><path d="M1474.969 1185.535q-.578.297-1.219.438-.64.156-1.344.156-2.5 0-3.828-1.64-1.312-1.657-1.312-4.782t1.312-4.781q1.328-1.656 3.828-1.656.703 0 1.344.156.656.156 1.219.453v2.719q-.625-.578-1.219-.844-.594-.281-1.219-.281-1.343 0-2.031 1.078-.688 1.062-.688 3.156 0 2.094.688 3.172.688 1.062 2.031 1.062.625 0 1.219-.265.594-.281 1.219-.86v2.72Z"/><text x="1491" y="1185.78" fill="#D9B8FF" font-family="Helvetica" font-size="17" textLength="119">aws_eks_taint</text><path d="M1458 1199.789h159" style="stroke:#000d19;stroke-width:1.5"/><text x="1468" y="1218.999" fill="#D9B8FF" font-family="sans-serif" font-size="11" font-weight="bold" textLength="22">key</text><text x="1490" y="1218.999" fill="#D9B8FF" font-family="sans-serif" font-size="11" textLength="41">: string</text><text x="1468" y="1241.804" fill="#D9B8FF" font-family="sans-serif" font-size="11" font-weight="bold" textLength="35">value</text><text x="1503" y="1241.804" fill="#D9B8FF" font-family="sans-serif" font-size="11" textLength="41">: string</text><text x="1468" y="1264.609" fill="#D9B8FF" font-family="sans-serif" font-size="11" font-weight="bold" textLength="38">effect</text><text x="1506" y="1264.609" fill="#D9B8FF" font-family="sans-serif" font-size="11" textLength="41">: string</text></a><a xlink:actuate="onRequest" xlink:href="#i" xlink:show="new" xlink:title="#aws_eks_nodegroup_health" xlink:type="simple" target="_top"><rect id="i" width="273" height="70.594" x="1653" y="1182.5" fill="#3D176E" rx="2.5" ry="2.5" style="stroke:#000d19;stroke-width:1.5"/><circle cx="1668" cy="1202.395" r="11" fill="#E98DF7" style="stroke:#000d19;stroke-width:1"/><path d="M1670.969 1208.035q-.578.297-1.219.438-.64.156-1.344.156-2.5 0-3.828-1.64-1.312-1.657-1.312-4.782t1.312-4.781q1.328-1.656 3.828-1.656.703 0 1.344.156.656.156 1.219.453v2.719q-.625-.578-1.219-.844-.594-.281-1.219-.281-1.343 0-2.031 1.078-.688 1.062-.688 3.156 0 2.094.688 3.172.688 1.062 2.031 1.062.625 0 1.219-.265.594-.281 1.219-.86v2.72Z"/><text x="1687" y="1208.28" fill="#D9B8FF" font-family="Helvetica" font-size="17" textLength="231">aws_eks_nodegroup_health</text><path d="M1654 1222.289h271" style="stroke:#000d19;stroke-width:1.5"/><text x="1664" y="1241.499" fill="#D9B8FF" font-family="sans-serif" font-size="11" font-weight="bold" textLength="41">issues</text><text x="1705" y="1241.499" fill="#D9B8FF" font-family="sans-serif" font-size="11" textLength="102">: aws_eks_issue[]</text></a><a xlink:actuate="onRequest" xlink:href="#j" xlink:show="new" xlink:title="#aws_eks_issue" xlink:type="simple" target="_top"><rect id="j" width="163" height="116.203" x="1708" y="1336" fill="#3D176E" rx="2.5" ry="2.5" style="stroke:#000d19;stroke-width:1.5"/><circle cx="1723" cy="1355.895" r="11" fill="#E98DF7" style="stroke:#000d19;stroke-width:1"/><path d="M1725.969 1361.535q-.578.297-1.219.438-.64.156-1.344.156-2.5 0-3.828-1.64-1.312-1.657-1.312-4.782t1.312-4.781q1.328-1.656 3.828-1.656.703 0 1.344.156.656.156 1.219.453v2.719q-.625-.578-1.219-.844-.594-.281-1.219-.281-1.343 0-2.031 1.078-.688 1.062-.688 3.156 0 2.094.688 3.172.688 1.062 2.031 1.062.625 0 1.219-.265.594-.281 1.219-.86v2.72Z"/><text x="1742" y="1361.78" fill="#D9B8FF" font-family="Helvetica" font-size="17" textLength="121">aws_eks_issue</text><path d="M1709 1375.789h161" style="stroke:#000d19;stroke-width:1.5"/><text x="1719" y="1394.999" fill="#D9B8FF" font-family="sans-serif" font-size="11" font-weight="bold" textLength="31">code</text><text x="1750" y="1394.999" fill="#D9B8FF" font-family="sans-serif" font-size="11" textLength="41">: string</text><text x="1719" y="1417.804" fill="#D9B8FF" font-family="sans-serif" font-size="11" font-weight="bold" textLength="57">message</text><text x="1776" y="1417.804" fill="#D9B8FF" font-family="sans-serif" font-size="11" textLength="41">: string</text><text x="1719" y="1440.609" fill="#D9B8FF" font-family="sans-serif" font-size="11" font-weight="bold" textLength="81">resource_ids</text><text x="1800" y="1440.609" fill="#D9B8FF" font-family="sans-serif" font-size="11" textLength="49">: string[]</text></a><a xlink:actuate="onRequest" xlink:href="#k" xlink:show="new" xlink:title="#aws_eks_nodegroup_update_config" xlink:type="simple" target="_top"><rect id="k" width="336" height="93.398" x="1961.5" y="1171.5" fill="#3D176E" rx="2.5" ry="2.5" style="stroke:#000d19;stroke-width:1.5"/><circle cx="1976.5" cy="1191.395" r="11" fill="#E98DF7" style="stroke:#000d19;stroke-width:1"/><path d="M1979.469 1197.035q-.578.297-1.219.438-.64.156-1.344.156-2.5 0-3.828-1.64-1.312-1.657-1.312-4.782t1.312-4.781q1.328-1.656 3.828-1.656.703 0 1.344.156.656.156 1.219.453v2.719q-.625-.578-1.219-.844-.594-.281-1.219-.281-1.343 0-2.031 1.078-.688 1.062-.688 3.156 0 2.094.688 3.172.688 1.062 2.031 1.062.625 0 1.219-.265.594-.281 1.219-.86v2.72Z"/><text x="1995.5" y="1197.28" fill="#D9B8FF" font-family="Helvetica" font-size="17" textLength="294">aws_eks_nodegroup_update_config</text><path d="M1962.5 1211.289h334" style="stroke:#000d19;stroke-width:1.5"/><text x="1972.5" y="1230.499" fill="#D9B8FF" font-family="sans-serif" font-size="11" font-weight="bold" textLength="107">max_unavailable</text><text x="2079.5" y="1230.499" fill="#D9B8FF" font-family="sans-serif" font-size="11" textLength="36">: int64</text><text x="1972.5" y="1253.304" fill="#D9B8FF" font-family="sans-serif" font-size="11" font-weight="bold" textLength="186">max_unavailable_percentage</text><text x="2158.5" y="1253.304" fill="#D9B8FF" font-family="sans-serif" font-size="11" textLength="36">: int64</text></a><path fill="none" d="M1272.5 303.43V403.9m-7-100.64 7-20 7 20h-14zm7 192.1v100.51m-7-100.71 7-20 7 20h-14zm-195.03 421.55c-207.61 69.58-527.4 176.76-723.5 242.49" style="stroke:#ffaf37;stroke-width:2"/><path fill="#FFAF37" d="m342.07 1160.84 9.804.94-5.062-2.525 2.525-5.062-7.267 6.647z" style="stroke:#ffaf37;stroke-width:2"/><path fill="none" d="M1070.38 1071.03c-32.92 36.17-63.98 70.29-87.78 96.43" style="stroke:#ffaf37;stroke-width:2"/><path fill="#FFAF37" d="m979.14 1171.26 9.018-3.958-5.65.262-.263-5.65-3.105 9.346z" style="stroke:#ffaf37;stroke-width:2"/><path fill="none" d="m1453.29 1100.06 40.13 55.73" style="stroke:#ffaf37;stroke-width:2"/><path fill="#FFAF37" d="m1496.41 1159.94-2.002-9.643-.915 5.582-5.582-.915 8.499 4.976z" style="stroke:#ffaf37;stroke-width:2"/><path fill="none" d="M1272.5 1100.06v66.05" style="stroke:#ffaf37;stroke-width:2"/><path fill="#FFAF37" d="m1272.5 1171.29 4-9-4 4-4-4 4 9z" style="stroke:#ffaf37;stroke-width:2"/><path fill="none" d="M1474.61 992.86c94.86 67.52 200.38 142.63 262 186.5" style="stroke:#ffaf37;stroke-width:2"/><path fill="#FFAF37" d="m1740.98 1182.46-5.01-8.48.938 5.58-5.58.937 9.652 1.963z" style="stroke:#ffaf37;stroke-width:2"/><path fill="none" d="M1474.51 935.74c169.95 72.98 406.6 174.6 544.01 233.6" style="stroke:#ffaf37;stroke-width:2"/><path fill="#FFAF37" d="m2023.36 1171.42-6.697-7.222 2.101 5.252-5.252 2.101 9.848-.131z" style="stroke:#ffaf37;stroke-width:2"/><path fill="none" d="M1070.09 954.21c-126.85 65.93-285.71 148.5-391.15 203.31" style="stroke:#ffaf37;stroke-width:2"/><path fill="#FFAF37" d="m674.28 1159.94 9.831-.585-5.39-1.714 1.713-5.39-6.154 7.689z" style="stroke:#ffaf37;stroke-width:2"/><path fill="none" d="M1789.5 1253.79v76.75" style="stroke:#ffaf37;stroke-width:2"/><path fill="#FFAF37" d="m1789.5 1335.66 4-9-4 4-4-4 4 9z" style="stroke:#ffaf37;stroke-width:2"/></svg>