<?xml version="1.0" encoding="UTF-8" standalone="no"?><svg xmlns="http://www.w3.org/2000/svg" xmlns:xlink="http://www.w3.org/1999/xlink" contentScriptType="application/ecmascript" contentStyleType="text/css" height="252px" preserveAspectRatio="none" style="width:996px;height:252px;background:#00000000;" version="1.1" viewBox="0 0 996 252" width="996px" zoomAndPan="magnify"><defs/><g><!--MD5=[3a125afeaaaf45c8ad94997c7293c783]
class gcp_forwarding_rule--><a href="#gcp_forwarding_rule" target="_top" title="#gcp_forwarding_rule" xlink:actuate="onRequest" xlink:href="#gcp_forwarding_rule" xlink:show="new" xlink:title="#gcp_forwarding_rule" xlink:type="simple"><rect codeLine="17" fill="#3D176E" height="39.7891" id="gcp_forwarding_rule" rx="2.5" ry="2.5" style="stroke:#000D19;stroke-width:1.5;" width="212" x="313.5" y="107"/><ellipse cx="328.5" cy="126.8945" fill="#E98DF7" rx="11" ry="11" style="stroke:#000D19;stroke-width:1.0;"/><path d="M331.4688,132.5352 Q330.8906,132.832 330.25,132.9727 Q329.6094,133.1289 328.9063,133.1289 Q326.4063,133.1289 325.0781,131.4883 Q323.7656,129.832 323.7656,126.707 Q323.7656,123.582 325.0781,121.9258 Q326.4063,120.2695 328.9063,120.2695 Q329.6094,120.2695 330.25,120.4258 Q330.9063,120.582 331.4688,120.8789 L331.4688,123.5977 Q330.8438,123.0195 330.25,122.7539 Q329.6563,122.4727 329.0313,122.4727 Q327.6875,122.4727 327,123.5508 Q326.3125,124.6133 326.3125,126.707 Q326.3125,128.8008 327,129.8789 Q327.6875,130.9414 329.0313,130.9414 Q329.6563,130.9414 330.25,130.6758 Q330.8438,130.3945 331.4688,129.8164 L331.4688,132.5352 Z " fill="#000000"/><text fill="#D9B8FF" font-family="Helvetica" font-size="17" lengthAdjust="spacing" textLength="170" x="347.5" y="132.7798">gcp_forwarding_rule</text></a><!--MD5=[d373685df770b1ed5a34d816c230813f]
class gcp_global_forwarding_rule--><a href="#gcp_global_forwarding_rule" target="_top" title="#gcp_global_forwarding_rule" xlink:actuate="onRequest" xlink:href="#gcp_global_forwarding_rule" xlink:show="new" xlink:title="#gcp_global_forwarding_rule" xlink:type="simple"><rect codeLine="20" fill="#3D176E" height="39.7891" id="gcp_global_forwarding_rule" rx="2.5" ry="2.5" style="stroke:#000D19;stroke-width:1.5;" width="271" x="7" y="107"/><ellipse cx="22" cy="126.8945" fill="#E98DF7" rx="11" ry="11" style="stroke:#000D19;stroke-width:1.0;"/><path d="M24.9688,132.5352 Q24.3906,132.832 23.75,132.9727 Q23.1094,133.1289 22.4063,133.1289 Q19.9063,133.1289 18.5781,131.4883 Q17.2656,129.832 17.2656,126.707 Q17.2656,123.582 18.5781,121.9258 Q19.9063,120.2695 22.4063,120.2695 Q23.1094,120.2695 23.75,120.4258 Q24.4063,120.582 24.9688,120.8789 L24.9688,123.5977 Q24.3438,123.0195 23.75,122.7539 Q23.1563,122.4727 22.5313,122.4727 Q21.1875,122.4727 20.5,123.5508 Q19.8125,124.6133 19.8125,126.707 Q19.8125,128.8008 20.5,129.8789 Q21.1875,130.9414 22.5313,130.9414 Q23.1563,130.9414 23.75,130.6758 Q24.3438,130.3945 24.9688,129.8164 L24.9688,132.5352 Z " fill="#000000"/><text fill="#D9B8FF" font-family="Helvetica" font-size="17" lengthAdjust="spacing" textLength="229" x="41" y="132.7798">gcp_global_forwarding_rule</text></a><!--MD5=[dfb342624abca34c7dd87f3bd9b67829]
class gcp_region--><a href="#gcp_region" target="_top" title="#gcp_region" xlink:actuate="onRequest" xlink:href="#gcp_region" xlink:show="new" xlink:title="#gcp_region" xlink:type="simple"><rect codeLine="23" fill="#3D176E" height="39.7891" id="gcp_region" rx="2.5" ry="2.5" style="stroke:#000D19;stroke-width:1.5;" width="132" x="581.5" y="7"/><ellipse cx="596.5" cy="26.8945" fill="#E98DF7" rx="11" ry="11" style="stroke:#000D19;stroke-width:1.0;"/><path d="M599.4688,32.5352 Q598.8906,32.832 598.25,32.9727 Q597.6094,33.1289 596.9063,33.1289 Q594.4063,33.1289 593.0781,31.4883 Q591.7656,29.832 591.7656,26.707 Q591.7656,23.582 593.0781,21.9258 Q594.4063,20.2695 596.9063,20.2695 Q597.6094,20.2695 598.25,20.4258 Q598.9063,20.582 599.4688,20.8789 L599.4688,23.5977 Q598.8438,23.0195 598.25,22.7539 Q597.6563,22.4727 597.0313,22.4727 Q595.6875,22.4727 595,23.5508 Q594.3125,24.6133 594.3125,26.707 Q594.3125,28.8008 595,29.8789 Q595.6875,30.9414 597.0313,30.9414 Q597.6563,30.9414 598.25,30.6758 Q598.8438,30.3945 599.4688,29.8164 L599.4688,32.5352 Z " fill="#000000"/><text fill="#D9B8FF" font-family="Helvetica" font-size="17" lengthAdjust="spacing" textLength="90" x="615.5" y="32.7798">gcp_region</text></a><!--MD5=[5acd6d7ef2e47e232e650baa8a4ad8d9]
class gcp_network--><a href="#gcp_network" target="_top" title="#gcp_network" xlink:actuate="onRequest" xlink:href="#gcp_network" xlink:show="new" xlink:title="#gcp_network" xlink:type="simple"><rect codeLine="26" fill="#3D176E" height="39.7891" id="gcp_network" rx="2.5" ry="2.5" style="stroke:#000D19;stroke-width:1.5;" width="149" x="840" y="107"/><ellipse cx="855" cy="126.8945" fill="#E98DF7" rx="11" ry="11" style="stroke:#000D19;stroke-width:1.0;"/><path d="M857.9688,132.5352 Q857.3906,132.832 856.75,132.9727 Q856.1094,133.1289 855.4063,133.1289 Q852.9063,133.1289 851.5781,131.4883 Q850.2656,129.832 850.2656,126.707 Q850.2656,123.582 851.5781,121.9258 Q852.9063,120.2695 855.4063,120.2695 Q856.1094,120.2695 856.75,120.4258 Q857.4063,120.582 857.9688,120.8789 L857.9688,123.5977 Q857.3438,123.0195 856.75,122.7539 Q856.1563,122.4727 855.5313,122.4727 Q854.1875,122.4727 853.5,123.5508 Q852.8125,124.6133 852.8125,126.707 Q852.8125,128.8008 853.5,129.8789 Q854.1875,130.9414 855.5313,130.9414 Q856.1563,130.9414 856.75,130.6758 Q857.3438,130.3945 857.9688,129.8164 L857.9688,132.5352 Z " fill="#000000"/><text fill="#D9B8FF" font-family="Helvetica" font-size="17" lengthAdjust="spacing" textLength="107" x="874" y="132.7798">gcp_network</text></a><!--MD5=[53aed81847902f6f35e5b05e473466dd]
class gcp_vpn_tunnel--><a href="#gcp_vpn_tunnel" target="_top" title="#gcp_vpn_tunnel" xlink:actuate="onRequest" xlink:href="#gcp_vpn_tunnel" xlink:show="new" xlink:title="#gcp_vpn_tunnel" xlink:type="simple"><rect codeLine="29" fill="#3D176E" height="39.7891" id="gcp_vpn_tunnel" rx="2.5" ry="2.5" style="stroke:#000D19;stroke-width:1.5;" width="174" x="560.5" y="107"/><ellipse cx="575.5" cy="126.8945" fill="#E98DF7" rx="11" ry="11" style="stroke:#000D19;stroke-width:1.0;"/><path d="M578.4688,132.5352 Q577.8906,132.832 577.25,132.9727 Q576.6094,133.1289 575.9063,133.1289 Q573.4063,133.1289 572.0781,131.4883 Q570.7656,129.832 570.7656,126.707 Q570.7656,123.582 572.0781,121.9258 Q573.4063,120.2695 575.9063,120.2695 Q576.6094,120.2695 577.25,120.4258 Q577.9063,120.582 578.4688,120.8789 L578.4688,123.5977 Q577.8438,123.0195 577.25,122.7539 Q576.6563,122.4727 576.0313,122.4727 Q574.6875,122.4727 574,123.5508 Q573.3125,124.6133 573.3125,126.707 Q573.3125,128.8008 574,129.8789 Q574.6875,130.9414 576.0313,130.9414 Q576.6563,130.9414 577.25,130.6758 Q577.8438,130.3945 578.4688,129.8164 L578.4688,132.5352 Z " fill="#000000"/><text fill="#D9B8FF" font-family="Helvetica" font-size="17" lengthAdjust="spacing" textLength="132" x="594.5" y="132.7798">gcp_vpn_tunnel</text></a><!--MD5=[0934581ae09789f529834773e43c0213]
class gcp_target_vpn_gateway--><a href="#gcp_target_vpn_gateway" target="_top" title="#gcp_target_vpn_gateway" xlink:actuate="onRequest" xlink:href="#gcp_target_vpn_gateway" xlink:show="new" xlink:title="#gcp_target_vpn_gateway" xlink:type="simple"><rect codeLine="32" fill="#3D176E" height="39.7891" id="gcp_target_vpn_gateway" rx="2.5" ry="2.5" style="stroke:#000D19;stroke-width:1.5;" width="251" x="522" y="207"/><ellipse cx="537" cy="226.8945" fill="#E98DF7" rx="11" ry="11" style="stroke:#000D19;stroke-width:1.0;"/><path d="M539.9688,232.5352 Q539.3906,232.832 538.75,232.9727 Q538.1094,233.1289 537.4063,233.1289 Q534.9063,233.1289 533.5781,231.4883 Q532.2656,229.832 532.2656,226.707 Q532.2656,223.582 533.5781,221.9258 Q534.9063,220.2695 537.4063,220.2695 Q538.1094,220.2695 538.75,220.4258 Q539.4063,220.582 539.9688,220.8789 L539.9688,223.5977 Q539.3438,223.0195 538.75,222.7539 Q538.1563,222.4727 537.5313,222.4727 Q536.1875,222.4727 535.5,223.5508 Q534.8125,224.6133 534.8125,226.707 Q534.8125,228.8008 535.5,229.8789 Q536.1875,230.9414 537.5313,230.9414 Q538.1563,230.9414 538.75,230.6758 Q539.3438,230.3945 539.9688,229.8164 L539.9688,232.5352 Z " fill="#000000"/><text fill="#D9B8FF" font-family="Helvetica" font-size="17" lengthAdjust="spacing" textLength="209" x="556" y="232.7798">gcp_target_vpn_gateway</text></a><!--MD5=[6e0b0d6fe77ed34c658761f681454841]
link gcp_forwarding_rule to gcp_target_vpn_gateway--><path codeLine="35" d="M463.73,147.01 C502.31,163.59 558.2,187.62 598.21,204.81 " fill="none" id="gcp_forwarding_rule-to-gcp_target_vpn_gateway" style="stroke:#1A83AF;stroke-width:2.0;"/><polygon fill="#1A83AF" points="603,206.87,596.3034,199.6481,598.4043,204.9004,593.152,207.0013,603,206.87" style="stroke:#1A83AF;stroke-width:2.0;"/><!--MD5=[cabecb413aeb40790baa2c1d3a578c1c]
link gcp_global_forwarding_rule to gcp_target_vpn_gateway--><path codeLine="36" d="M240.47,147.01 C327.88,163.97 455.43,188.73 544.37,205.99 " fill="none" id="gcp_global_forwarding_rule-to-gcp_target_vpn_gateway" style="stroke:#1A83AF;stroke-width:2.0;"/><polygon fill="#1A83AF" points="549.37,206.96,541.3038,201.3088,544.4627,206.0014,539.7701,209.1604,549.37,206.96" style="stroke:#1A83AF;stroke-width:2.0;"/><!--MD5=[169a0a8853dcd6687ea20b243ee47bfb]
link gcp_region to gcp_forwarding_rule--><path codeLine="37" d="M603.27,47.01 C564.69,63.59 508.8,87.62 468.79,104.81 " fill="none" id="gcp_region-to-gcp_forwarding_rule" style="stroke:#1A83AF;stroke-width:2.0;"/><polygon fill="#1A83AF" points="464,106.87,473.848,107.0013,468.5957,104.9004,470.6966,99.6481,464,106.87" style="stroke:#1A83AF;stroke-width:2.0;"/><!--MD5=[d6368dd9369beaeecba763af33bf299f]
link gcp_region to gcp_target_vpn_gateway--><path codeLine="38" d="M688.23,47.08 C711.37,60.33 738.3,80.39 751.5,107 C759.4,122.93 759.4,131.07 751.5,147 C739.12,171.94 714.69,191.14 692.61,204.36 " fill="none" id="gcp_region-to-gcp_target_vpn_gateway" style="stroke:#1A83AF;stroke-width:2.0;"/><polygon fill="#1A83AF" points="688.23,206.92,698.0173,205.8201,692.5437,204.3918,693.9721,198.9182,688.23,206.92" style="stroke:#1A83AF;stroke-width:2.0;"/><!--MD5=[3023c3c17abe7ebefe8240b46d4f3406]
link gcp_region to gcp_vpn_tunnel--><path codeLine="39" d="M647.5,47.36 C647.5,62.93 647.5,84.9 647.5,101.66 " fill="none" id="gcp_region-to-gcp_vpn_tunnel" style="stroke:#1A83AF;stroke-width:2.0;"/><polygon fill="#1A83AF" points="647.5,106.68,651.5,97.68,647.5,101.68,643.5,97.68,647.5,106.68" style="stroke:#1A83AF;stroke-width:2.0;"/><!--MD5=[5a2058ebc3a561c8e41bc436c5368fe6]
link gcp_network to gcp_target_vpn_gateway--><path codeLine="40" d="M862.7,147.01 C817.25,163.69 751.27,187.91 704.37,205.13 " fill="none" id="gcp_network-to-gcp_target_vpn_gateway" style="stroke:#1A83AF;stroke-width:2.0;"/><polygon fill="#1A83AF" points="699.61,206.87,709.4364,207.5343,704.3056,205.1521,706.6878,200.0213,699.61,206.87" style="stroke:#1A83AF;stroke-width:2.0;"/><!--MD5=[d608bbe482ad8d745792399d5eb29944]
link gcp_vpn_tunnel to gcp_target_vpn_gateway--><path codeLine="41" d="M647.5,147.36 C647.5,162.93 647.5,184.9 647.5,201.66 " fill="none" id="gcp_vpn_tunnel-to-gcp_target_vpn_gateway" style="stroke:#1A83AF;stroke-width:2.0;"/><polygon fill="#1A83AF" points="647.5,206.68,651.5,197.68,647.5,201.68,643.5,197.68,647.5,206.68" style="stroke:#1A83AF;stroke-width:2.0;"/><!--MD5=[3e729bbc2e08e368a2ad2726a6cc5127]
@startuml
hide empty members
skinparam ArrowColor #ffaf37
skinparam ArrowThickness 2
skinparam BackgroundColor transparent
skinparam ClassAttributeFontColor #d9b8ff
skinparam ClassBackgroundColor #3d176e
skinparam ClassBorderColor #000d19
skinparam ClassFontColor #d9b8ff
skinparam ClassFontName Helvetica
skinparam ClassFontSize 17
skinparam Padding 5
skinparam RoundCorner 5
skinparam Shadowing false
skinparam stereotypeCBackgroundColor #e98df7
skinparam stereotypeIBackgroundColor #e98df7

class gcp_forwarding_rule [[#gcp_forwarding_rule]] {

}
class gcp_global_forwarding_rule [[#gcp_global_forwarding_rule]] {

}
class gcp_region [[#gcp_region]] {

}
class gcp_network [[#gcp_network]] {

}
class gcp_vpn_tunnel [[#gcp_vpn_tunnel]] {

}
class gcp_target_vpn_gateway [[#gcp_target_vpn_gateway]] {

}
gcp_forwarding_rule -[#1A83AF]-> gcp_target_vpn_gateway
gcp_global_forwarding_rule -[#1A83AF]-> gcp_target_vpn_gateway
gcp_region -[#1A83AF]-> gcp_forwarding_rule
gcp_region -[#1A83AF]-> gcp_target_vpn_gateway
gcp_region -[#1A83AF]-> gcp_vpn_tunnel
gcp_network -[#1A83AF]-> gcp_target_vpn_gateway
gcp_vpn_tunnel -[#1A83AF]-> gcp_target_vpn_gateway
@enduml

PlantUML version 1.2021.16(Wed Dec 08 17:25:22 UTC 2021)
(GPL source distribution)
Java Runtime: OpenJDK Runtime Environment
JVM: OpenJDK 64-Bit Server VM
Default Encoding: UTF-8
Language: en
Country: null
--></g></svg>