<?xml version="1.0" encoding="UTF-8" standalone="no"?><svg xmlns="http://www.w3.org/2000/svg" xmlns:xlink="http://www.w3.org/1999/xlink" contentScriptType="application/ecmascript" contentStyleType="text/css" height="663px" preserveAspectRatio="none" style="width:361px;height:663px;background:#00000000;" version="1.1" viewBox="0 0 361 663" width="361px" zoomAndPan="magnify"><defs/><g><!--MD5=[7f0ecf5f554433d3f2e1213379ac821c]
class resource--><a href="#resource" target="_top" title="#resource" xlink:actuate="onRequest" xlink:href="#resource" xlink:show="new" xlink:title="#resource" xlink:type="simple"><rect codeLine="23" fill="#3D176E" height="275.8359" id="resource" rx="2.5" ry="2.5" style="stroke:#000D19;stroke-width:1.5;" width="195" x="7" y="7"/><ellipse cx="59.75" cy="26.8945" fill="#E98DF7" rx="11" ry="11" style="stroke:#000D19;stroke-width:1.0;"/><path d="M62.7188,32.5352 Q62.1406,32.832 61.5,32.9727 Q60.8594,33.1289 60.1563,33.1289 Q57.6563,33.1289 56.3281,31.4883 Q55.0156,29.832 55.0156,26.707 Q55.0156,23.582 56.3281,21.9258 Q57.6563,20.2695 60.1563,20.2695 Q60.8594,20.2695 61.5,20.4258 Q62.1563,20.582 62.7188,20.8789 L62.7188,23.5977 Q62.0938,23.0195 61.5,22.7539 Q60.9063,22.4727 60.2813,22.4727 Q58.9375,22.4727 58.25,23.5508 Q57.5625,24.6133 57.5625,26.707 Q57.5625,28.8008 58.25,29.8789 Q58.9375,30.9414 60.2813,30.9414 Q60.9063,30.9414 61.5,30.6758 Q62.0938,30.3945 62.7188,29.8164 L62.7188,32.5352 Z " fill="#000000"/><text fill="#D9B8FF" font-family="Helvetica" font-size="17" lengthAdjust="spacing" textLength="71" x="85.25" y="32.7798">resource</text><line style="stroke:#000D19;stroke-width:1.5;" x1="8" x2="201" y1="46.7891" y2="46.7891"/><text fill="#D9B8FF" font-family="sans-serif" font-size="11" font-weight="bold" lengthAdjust="spacing" textLength="12" x="18" y="65.9995">id</text><text fill="#D9B8FF" font-family="sans-serif" font-size="11" lengthAdjust="spacing" textLength="41" x="30" y="65.9995">: string</text><text fill="#D9B8FF" font-family="sans-serif" font-size="11" font-weight="bold" lengthAdjust="spacing" textLength="28" x="18" y="88.8042">tags</text><text fill="#D9B8FF" font-family="sans-serif" font-size="11" lengthAdjust="spacing" textLength="145" x="46" y="88.8042">: dictionary[string, string]</text><text fill="#D9B8FF" font-family="sans-serif" font-size="11" font-weight="bold" lengthAdjust="spacing" textLength="35" x="18" y="111.6089">name</text><text fill="#D9B8FF" font-family="sans-serif" font-size="11" lengthAdjust="spacing" textLength="41" x="53" y="111.6089">: string</text><text fill="#D9B8FF" font-family="sans-serif" font-size="11" font-weight="bold" lengthAdjust="spacing" textLength="35" x="18" y="134.4136">ctime</text><text fill="#D9B8FF" font-family="sans-serif" font-size="11" lengthAdjust="spacing" textLength="58" x="53" y="134.4136">: datetime</text><text fill="#D9B8FF" font-family="sans-serif" font-size="11" font-weight="bold" lengthAdjust="spacing" textLength="24" x="18" y="157.2183">age</text><text fill="#D9B8FF" font-family="sans-serif" font-size="11" lengthAdjust="spacing" textLength="55" x="42" y="157.2183">: duration</text><text fill="#D9B8FF" font-family="sans-serif" font-size="11" font-weight="bold" lengthAdjust="spacing" textLength="39" x="18" y="180.0229">mtime</text><text fill="#D9B8FF" font-family="sans-serif" font-size="11" lengthAdjust="spacing" textLength="58" x="57" y="180.0229">: datetime</text><text fill="#D9B8FF" font-family="sans-serif" font-size="11" font-weight="bold" lengthAdjust="spacing" textLength="75" x="18" y="202.8276">last_update</text><text fill="#D9B8FF" font-family="sans-serif" font-size="11" lengthAdjust="spacing" textLength="55" x="93" y="202.8276">: duration</text><text fill="#D9B8FF" font-family="sans-serif" font-size="11" font-weight="bold" lengthAdjust="spacing" textLength="36" x="18" y="225.6323">atime</text><text fill="#D9B8FF" font-family="sans-serif" font-size="11" lengthAdjust="spacing" textLength="58" x="54" y="225.6323">: datetime</text><text fill="#D9B8FF" font-family="sans-serif" font-size="11" font-weight="bold" lengthAdjust="spacing" textLength="74" x="18" y="248.437">last_access</text><text fill="#D9B8FF" font-family="sans-serif" font-size="11" lengthAdjust="spacing" textLength="55" x="92" y="248.437">: duration</text><text fill="#D9B8FF" font-family="sans-serif" font-size="11" font-weight="bold" lengthAdjust="spacing" textLength="27" x="18" y="271.2417">kind</text><text fill="#D9B8FF" font-family="sans-serif" font-size="11" lengthAdjust="spacing" textLength="41" x="45" y="271.2417">: string</text></a><!--MD5=[96a667c91f46910544c8a4dd691a5f67]
class gcp_resource--><a href="#gcp_resource" target="_top" title="#gcp_resource" xlink:actuate="onRequest" xlink:href="#gcp_resource" xlink:show="new" xlink:title="#gcp_resource" xlink:type="simple"><rect codeLine="35" fill="#3D176E" height="93.3984" id="gcp_resource" rx="2.5" ry="2.5" style="stroke:#000D19;stroke-width:1.5;" width="169" x="185" y="404"/><ellipse cx="208.55" cy="423.8945" fill="#E98DF7" rx="11" ry="11" style="stroke:#000D19;stroke-width:1.0;"/><path d="M211.5188,429.5352 Q210.9406,429.832 210.3,429.9727 Q209.6594,430.1289 208.9563,430.1289 Q206.4563,430.1289 205.1281,428.4883 Q203.8156,426.832 203.8156,423.707 Q203.8156,420.582 205.1281,418.9258 Q206.4563,417.2695 208.9563,417.2695 Q209.6594,417.2695 210.3,417.4258 Q210.9563,417.582 211.5188,417.8789 L211.5188,420.5977 Q210.8938,420.0195 210.3,419.7539 Q209.7063,419.4727 209.0813,419.4727 Q207.7375,419.4727 207.05,420.5508 Q206.3625,421.6133 206.3625,423.707 Q206.3625,425.8008 207.05,426.8789 Q207.7375,427.9414 209.0813,427.9414 Q209.7063,427.9414 210.3,427.6758 Q210.8938,427.3945 211.5188,426.8164 L211.5188,429.5352 Z " fill="#000000"/><text fill="#D9B8FF" font-family="Helvetica" font-size="17" lengthAdjust="spacing" textLength="108" x="229.45" y="429.7798">gcp_resource</text><line style="stroke:#000D19;stroke-width:1.5;" x1="186" x2="353" y1="443.7891" y2="443.7891"/><text fill="#D9B8FF" font-family="sans-serif" font-size="11" font-weight="bold" lengthAdjust="spacing" textLength="23" x="196" y="462.9995">link</text><text fill="#D9B8FF" font-family="sans-serif" font-size="11" lengthAdjust="spacing" textLength="41" x="219" y="462.9995">: string</text><text fill="#D9B8FF" font-family="sans-serif" font-size="11" font-weight="bold" lengthAdjust="spacing" textLength="106" x="196" y="485.8042">label_fingerprint</text><text fill="#D9B8FF" font-family="sans-serif" font-size="11" lengthAdjust="spacing" textLength="41" x="302" y="485.8042">: string</text></a><!--MD5=[3105e977017215c62956ee5c147722ae]
class policy--><a href="#policy" target="_top" title="#policy" xlink:actuate="onRequest" xlink:href="#policy" xlink:show="new" xlink:title="#policy" xlink:type="simple"><rect codeLine="39" fill="#3D176E" height="39.7891" id="policy" rx="2.5" ry="2.5" style="stroke:#000D19;stroke-width:1.5;" width="90" x="59.5" y="430.5"/><ellipse cx="74.5" cy="450.3945" fill="#E98DF7" rx="11" ry="11" style="stroke:#000D19;stroke-width:1.0;"/><path d="M77.4688,456.0352 Q76.8906,456.332 76.25,456.4727 Q75.6094,456.6289 74.9063,456.6289 Q72.4063,456.6289 71.0781,454.9883 Q69.7656,453.332 69.7656,450.207 Q69.7656,447.082 71.0781,445.4258 Q72.4063,443.7695 74.9063,443.7695 Q75.6094,443.7695 76.25,443.9258 Q76.9063,444.082 77.4688,444.3789 L77.4688,447.0977 Q76.8438,446.5195 76.25,446.2539 Q75.6563,445.9727 75.0313,445.9727 Q73.6875,445.9727 73,447.0508 Q72.3125,448.1133 72.3125,450.207 Q72.3125,452.3008 73,453.3789 Q73.6875,454.4414 75.0313,454.4414 Q75.6563,454.4414 76.25,454.1758 Q76.8438,453.8945 77.4688,453.3164 L77.4688,456.0352 Z " fill="#000000"/><text fill="#D9B8FF" font-family="Helvetica" font-size="17" lengthAdjust="spacing" textLength="48" x="93.5" y="456.2798">policy</text></a><!--MD5=[0b6f70b1e38f46f7ac72c1f206f7793c]
class gcp_security_policy--><a href="#gcp_security_policy" target="_top" title="#gcp_security_policy" xlink:actuate="onRequest" xlink:href="#gcp_security_policy" xlink:show="new" xlink:title="#gcp_security_policy" xlink:type="simple"><rect codeLine="42" fill="#3D176E" height="39.7891" id="gcp_security_policy" rx="2.5" ry="2.5" style="stroke:#000D19;stroke-width:1.5;" width="202" x="85.5" y="618"/><ellipse cx="100.5" cy="637.8945" fill="#E98DF7" rx="11" ry="11" style="stroke:#000D19;stroke-width:1.0;"/><path d="M103.4688,643.5352 Q102.8906,643.832 102.25,643.9727 Q101.6094,644.1289 100.9063,644.1289 Q98.4063,644.1289 97.0781,642.4883 Q95.7656,640.832 95.7656,637.707 Q95.7656,634.582 97.0781,632.9258 Q98.4063,631.2695 100.9063,631.2695 Q101.6094,631.2695 102.25,631.4258 Q102.9063,631.582 103.4688,631.8789 L103.4688,634.5977 Q102.8438,634.0195 102.25,633.7539 Q101.6563,633.4727 101.0313,633.4727 Q99.6875,633.4727 99,634.5508 Q98.3125,635.6133 98.3125,637.707 Q98.3125,639.8008 99,640.8789 Q99.6875,641.9414 101.0313,641.9414 Q101.6563,641.9414 102.25,641.6758 Q102.8438,641.3945 103.4688,640.8164 L103.4688,643.5352 Z " fill="#000000"/><text fill="#D9B8FF" font-family="Helvetica" font-size="17" lengthAdjust="spacing" textLength="160" x="119.5" y="643.7798">gcp_security_policy</text></a><!--MD5=[d1b768fa0f5e561a77e04c19a766a91c]
reverse link resource to policy--><path codeLine="45" d="M104.5,303.26 C104.5,353.92 104.5,403.76 104.5,430.16 " fill="none" id="resource-backto-policy" style="stroke:#FFAF37;stroke-width:2.0;"/><polygon fill="none" points="97.5,303.1,104.5,283.1,111.5,303.1,97.5,303.1" style="stroke:#FFAF37;stroke-width:2.0;"/><!--MD5=[7a9f3aa23361335f5d56873b3a8026f6]
reverse link gcp_resource to gcp_security_policy--><path codeLine="46" d="M240.69,515.89 C224.69,551.65 205.9,593.63 195.18,617.6 " fill="none" id="gcp_resource-backto-gcp_security_policy" style="stroke:#FFAF37;stroke-width:2.0;"/><polygon fill="none" points="234.43,512.75,248.98,497.35,247.2,518.47,234.43,512.75" style="stroke:#FFAF37;stroke-width:2.0;"/><!--MD5=[1fc455058613cd8c6a3a691dc0bd8b25]
reverse link policy to gcp_security_policy--><path codeLine="47" d="M121.17,489.2 C138.43,528.26 164.72,587.74 178.08,617.95 " fill="none" id="policy-backto-gcp_security_policy" style="stroke:#FFAF37;stroke-width:2.0;"/><polygon fill="none" points="114.65,491.78,112.97,470.65,127.46,486.12,114.65,491.78" style="stroke:#FFAF37;stroke-width:2.0;"/><!--MD5=[8d62f34c91ff4714ddcda720e6c3bb71]
@startuml
hide empty members
skinparam ArrowColor #ffaf37
skinparam ArrowFontColor #ffaf37
skinparam ArrowFontName Helvetica
skinparam ArrowThickness 2
skinparam BackgroundColor transparent
skinparam ClassAttributeFontColor #d9b8ff
skinparam ClassBackgroundColor #3d176e
skinparam ClassBorderColor #000d19
skinparam ClassFontColor #d9b8ff
skinparam ClassFontName Helvetica
skinparam ClassFontSize 17
skinparam NoteBackgroundColor #d9b8ff
skinparam NoteBorderColor #000d19
skinparam NoteFontColor #3d176e
skinparam NoteFontName Helvetica
skinparam Padding 5
skinparam RoundCorner 5
skinparam Shadowing false
skinparam stereotypeCBackgroundColor #e98df7
skinparam stereotypeIBackgroundColor #e98df7

class resource [[#resource]] {
**id**: string
**tags**: dictionary[string, string]
**name**: string
**ctime**: datetime
**age**: duration
**mtime**: datetime
**last_update**: duration
**atime**: datetime
**last_access**: duration
**kind**: string
}
class gcp_resource [[#gcp_resource]] {
**link**: string
**label_fingerprint**: string
}
class policy [[#policy]] {

}
class gcp_security_policy [[#gcp_security_policy]] {

}
resource <|- - - policy
gcp_resource <|- - - gcp_security_policy
policy <|- - - gcp_security_policy
@enduml

PlantUML version 1.2021.16(Wed Dec 08 17:25:22 UTC 2021)
(GPL source distribution)
Java Runtime: OpenJDK Runtime Environment
JVM: OpenJDK 64-Bit Server VM
Default Encoding: UTF-8
Language: en
Country: null
--></g></svg>