<?xml version="1.0" encoding="UTF-8" standalone="no"?><svg xmlns="http://www.w3.org/2000/svg" xmlns:xlink="http://www.w3.org/1999/xlink" contentScriptType="application/ecmascript" contentStyleType="text/css" height="672px" preserveAspectRatio="none" style="width:386px;height:672px;background:#00000000;" version="1.1" viewBox="0 0 386 672" width="386px" zoomAndPan="magnify"><defs/><g><!--MD5=[7f0ecf5f554433d3f2e1213379ac821c]
class resource--><a href="#resource" target="_top" title="#resource" xlink:actuate="onRequest" xlink:href="#resource" xlink:show="new" xlink:title="#resource" xlink:type="simple"><rect codeLine="17" fill="#3D176E" height="253.0313" id="resource" rx="2.5" ry="2.5" style="stroke:#000D19;stroke-width:1.5;" width="256" x="7" y="7"/><ellipse cx="90.25" cy="26.8945" fill="#E98DF7" rx="11" ry="11" style="stroke:#000D19;stroke-width:1.0;"/><path d="M93.2188,32.5352 Q92.6406,32.832 92,32.9727 Q91.3594,33.1289 90.6563,33.1289 Q88.1563,33.1289 86.8281,31.4883 Q85.5156,29.832 85.5156,26.707 Q85.5156,23.582 86.8281,21.9258 Q88.1563,20.2695 90.6563,20.2695 Q91.3594,20.2695 92,20.4258 Q92.6563,20.582 93.2188,20.8789 L93.2188,23.5977 Q92.5938,23.0195 92,22.7539 Q91.4063,22.4727 90.7813,22.4727 Q89.4375,22.4727 88.75,23.5508 Q88.0625,24.6133 88.0625,26.707 Q88.0625,28.8008 88.75,29.8789 Q89.4375,30.9414 90.7813,30.9414 Q91.4063,30.9414 92,30.6758 Q92.5938,30.3945 93.2188,29.8164 L93.2188,32.5352 Z " fill="#000000"/><text fill="#D9B8FF" font-family="Helvetica" font-size="17" lengthAdjust="spacing" textLength="71" x="115.75" y="32.7798">resource</text><line style="stroke:#000D19;stroke-width:1.5;" x1="8" x2="262" y1="46.7891" y2="46.7891"/><text fill="#D9B8FF" font-family="sans-serif" font-size="11" font-weight="bold" lengthAdjust="spacing" textLength="12" x="18" y="65.9995">id</text><text fill="#D9B8FF" font-family="sans-serif" font-size="11" lengthAdjust="spacing" textLength="41" x="30" y="65.9995">: string</text><text fill="#D9B8FF" font-family="sans-serif" font-size="11" font-weight="bold" lengthAdjust="spacing" textLength="28" x="18" y="88.8042">tags</text><text fill="#D9B8FF" font-family="sans-serif" font-size="11" lengthAdjust="spacing" textLength="145" x="46" y="88.8042">: dictionary[string, string]</text><text fill="#D9B8FF" font-family="sans-serif" font-size="11" font-weight="bold" lengthAdjust="spacing" textLength="35" x="18" y="111.6089">name</text><text fill="#D9B8FF" font-family="sans-serif" font-size="11" lengthAdjust="spacing" textLength="41" x="53" y="111.6089">: string</text><text fill="#D9B8FF" font-family="sans-serif" font-size="11" font-weight="bold" lengthAdjust="spacing" textLength="35" x="18" y="134.4136">ctime</text><text fill="#D9B8FF" font-family="sans-serif" font-size="11" lengthAdjust="spacing" textLength="58" x="53" y="134.4136">: datetime</text><text fill="#D9B8FF" font-family="sans-serif" font-size="11" font-weight="bold" lengthAdjust="spacing" textLength="24" x="18" y="157.2183">age</text><text fill="#D9B8FF" font-family="sans-serif" font-size="11" lengthAdjust="spacing" textLength="159" x="42" y="157.2183">: trafo.duration_to_datetime</text><text fill="#D9B8FF" font-family="sans-serif" font-size="11" font-weight="bold" lengthAdjust="spacing" textLength="39" x="18" y="180.0229">mtime</text><text fill="#D9B8FF" font-family="sans-serif" font-size="11" lengthAdjust="spacing" textLength="58" x="57" y="180.0229">: datetime</text><text fill="#D9B8FF" font-family="sans-serif" font-size="11" font-weight="bold" lengthAdjust="spacing" textLength="75" x="18" y="202.8276">last_update</text><text fill="#D9B8FF" font-family="sans-serif" font-size="11" lengthAdjust="spacing" textLength="159" x="93" y="202.8276">: trafo.duration_to_datetime</text><text fill="#D9B8FF" font-family="sans-serif" font-size="11" font-weight="bold" lengthAdjust="spacing" textLength="36" x="18" y="225.6323">atime</text><text fill="#D9B8FF" font-family="sans-serif" font-size="11" lengthAdjust="spacing" textLength="58" x="54" y="225.6323">: datetime</text><text fill="#D9B8FF" font-family="sans-serif" font-size="11" font-weight="bold" lengthAdjust="spacing" textLength="74" x="18" y="248.437">last_access</text><text fill="#D9B8FF" font-family="sans-serif" font-size="11" lengthAdjust="spacing" textLength="159" x="92" y="248.437">: trafo.duration_to_datetime</text></a><!--MD5=[96a667c91f46910544c8a4dd691a5f67]
class gcp_resource--><a href="#gcp_resource" target="_top" title="#gcp_resource" xlink:actuate="onRequest" xlink:href="#gcp_resource" xlink:show="new" xlink:title="#gcp_resource" xlink:type="simple"><rect codeLine="28" fill="#3D176E" height="93.3984" id="gcp_resource" rx="2.5" ry="2.5" style="stroke:#000D19;stroke-width:1.5;" width="169" x="210.5" y="381"/><ellipse cx="234.05" cy="400.8945" fill="#E98DF7" rx="11" ry="11" style="stroke:#000D19;stroke-width:1.0;"/><path d="M237.0188,406.5352 Q236.4406,406.832 235.8,406.9727 Q235.1594,407.1289 234.4563,407.1289 Q231.9563,407.1289 230.6281,405.4883 Q229.3156,403.832 229.3156,400.707 Q229.3156,397.582 230.6281,395.9258 Q231.9563,394.2695 234.4563,394.2695 Q235.1594,394.2695 235.8,394.4258 Q236.4563,394.582 237.0188,394.8789 L237.0188,397.5977 Q236.3938,397.0195 235.8,396.7539 Q235.2063,396.4727 234.5813,396.4727 Q233.2375,396.4727 232.55,397.5508 Q231.8625,398.6133 231.8625,400.707 Q231.8625,402.8008 232.55,403.8789 Q233.2375,404.9414 234.5813,404.9414 Q235.2063,404.9414 235.8,404.6758 Q236.3938,404.3945 237.0188,403.8164 L237.0188,406.5352 Z " fill="#000000"/><text fill="#D9B8FF" font-family="Helvetica" font-size="17" lengthAdjust="spacing" textLength="108" x="254.95" y="406.7798">gcp_resource</text><line style="stroke:#000D19;stroke-width:1.5;" x1="211.5" x2="378.5" y1="420.7891" y2="420.7891"/><text fill="#D9B8FF" font-family="sans-serif" font-size="11" font-weight="bold" lengthAdjust="spacing" textLength="23" x="221.5" y="439.9995">link</text><text fill="#D9B8FF" font-family="sans-serif" font-size="11" lengthAdjust="spacing" textLength="41" x="244.5" y="439.9995">: string</text><text fill="#D9B8FF" font-family="sans-serif" font-size="11" font-weight="bold" lengthAdjust="spacing" textLength="106" x="221.5" y="462.8042">label_fingerprint</text><text fill="#D9B8FF" font-family="sans-serif" font-size="11" lengthAdjust="spacing" textLength="41" x="327.5" y="462.8042">: string</text></a><!--MD5=[1cd117877da428ca75add0412dfe77b9]
class zone--><a href="#zone" target="_top" title="#zone" xlink:actuate="onRequest" xlink:href="#zone" xlink:show="new" xlink:title="#zone" xlink:type="simple"><rect codeLine="32" fill="#3D176E" height="39.7891" id="zone" rx="2.5" ry="2.5" style="stroke:#000D19;stroke-width:1.5;" width="81" x="94.5" y="407.5"/><ellipse cx="109.5" cy="427.3945" fill="#E98DF7" rx="11" ry="11" style="stroke:#000D19;stroke-width:1.0;"/><path d="M112.4688,433.0352 Q111.8906,433.332 111.25,433.4727 Q110.6094,433.6289 109.9063,433.6289 Q107.4063,433.6289 106.0781,431.9883 Q104.7656,430.332 104.7656,427.207 Q104.7656,424.082 106.0781,422.4258 Q107.4063,420.7695 109.9063,420.7695 Q110.6094,420.7695 111.25,420.9258 Q111.9063,421.082 112.4688,421.3789 L112.4688,424.0977 Q111.8438,423.5195 111.25,423.2539 Q110.6563,422.9727 110.0313,422.9727 Q108.6875,422.9727 108,424.0508 Q107.3125,425.1133 107.3125,427.207 Q107.3125,429.3008 108,430.3789 Q108.6875,431.4414 110.0313,431.4414 Q110.6563,431.4414 111.25,431.1758 Q111.8438,430.8945 112.4688,430.3164 L112.4688,433.0352 Z " fill="#000000"/><text fill="#D9B8FF" font-family="Helvetica" font-size="17" lengthAdjust="spacing" textLength="39" x="128.5" y="433.2798">zone</text></a><!--MD5=[2d31e15ef82a56b96aff5b875f74ef29]
class gcp_zone--><a href="#gcp_zone" target="_top" title="#gcp_zone" xlink:actuate="onRequest" xlink:href="#gcp_zone" xlink:show="new" xlink:title="#gcp_zone" xlink:type="simple"><rect codeLine="35" fill="#3D176E" height="70.5938" id="gcp_zone" rx="2.5" ry="2.5" style="stroke:#000D19;stroke-width:1.5;" width="140" x="167" y="595"/><ellipse cx="191.9" cy="614.8945" fill="#E98DF7" rx="11" ry="11" style="stroke:#000D19;stroke-width:1.0;"/><path d="M194.8688,620.5352 Q194.2906,620.832 193.65,620.9727 Q193.0094,621.1289 192.3063,621.1289 Q189.8063,621.1289 188.4781,619.4883 Q187.1656,617.832 187.1656,614.707 Q187.1656,611.582 188.4781,609.9258 Q189.8063,608.2695 192.3063,608.2695 Q193.0094,608.2695 193.65,608.4258 Q194.3063,608.582 194.8688,608.8789 L194.8688,611.5977 Q194.2438,611.0195 193.65,610.7539 Q193.0563,610.4727 192.4313,610.4727 Q191.0875,610.4727 190.4,611.5508 Q189.7125,612.6133 189.7125,614.707 Q189.7125,616.8008 190.4,617.8789 Q191.0875,618.9414 192.4313,618.9414 Q193.0563,618.9414 193.65,618.6758 Q194.2438,618.3945 194.8688,617.8164 L194.8688,620.5352 Z " fill="#000000"/><text fill="#D9B8FF" font-family="Helvetica" font-size="17" lengthAdjust="spacing" textLength="76" x="213.1" y="620.7798">gcp_zone</text><line style="stroke:#000D19;stroke-width:1.5;" x1="168" x2="306" y1="634.7891" y2="634.7891"/><text fill="#D9B8FF" font-family="sans-serif" font-size="11" font-weight="bold" lengthAdjust="spacing" textLength="77" x="178" y="653.9995">zone_status</text><text fill="#D9B8FF" font-family="sans-serif" font-size="11" lengthAdjust="spacing" textLength="41" x="255" y="653.9995">: string</text></a><!--MD5=[a8d6a88b398a7a7b7fefb2c966b7fefc]
reverse link resource to zone--><path codeLine="38" d="M135,280.03 C135,330.42 135,380.88 135,407.41 " fill="none" id="resource-backto-zone" style="stroke:#FFAF37;stroke-width:2.0;"/><polygon fill="none" points="128,280.03,135,260.03,142,280.03,128,280.03" style="stroke:#FFAF37;stroke-width:2.0;"/><!--MD5=[c651445ff2f404e506ed7eefac3337cb]
reverse link gcp_resource to gcp_zone--><path codeLine="39" d="M276.22,493.59 C266.51,527.23 255.05,566.93 247.04,594.71 " fill="none" id="gcp_resource-backto-gcp_zone" style="stroke:#FFAF37;stroke-width:2.0;"/><polygon fill="none" points="269.57,491.39,281.84,474.11,283.02,495.27,269.57,491.39" style="stroke:#FFAF37;stroke-width:2.0;"/><!--MD5=[1f044086f9dd80bdea887d01b3c4856e]
reverse link zone to gcp_zone--><path codeLine="40" d="M153.96,465.86 C172.72,502.83 201.2,558.96 219.46,594.93 " fill="none" id="zone-backto-gcp_zone" style="stroke:#FFAF37;stroke-width:2.0;"/><polygon fill="none" points="147.59,468.78,144.78,447.77,160.07,462.44,147.59,468.78" style="stroke:#FFAF37;stroke-width:2.0;"/><!--MD5=[adaf4c5416614aa1c192610275ae64d7]
@startuml
hide empty members
skinparam ArrowColor #ffaf37
skinparam ArrowThickness 2
skinparam BackgroundColor transparent
skinparam ClassAttributeFontColor #d9b8ff
skinparam ClassBackgroundColor #3d176e
skinparam ClassBorderColor #000d19
skinparam ClassFontColor #d9b8ff
skinparam ClassFontName Helvetica
skinparam ClassFontSize 17
skinparam Padding 5
skinparam RoundCorner 5
skinparam Shadowing false
skinparam stereotypeCBackgroundColor #e98df7
skinparam stereotypeIBackgroundColor #e98df7

class resource [[#resource]] {
**id**: string
**tags**: dictionary[string, string]
**name**: string
**ctime**: datetime
**age**: trafo.duration_to_datetime
**mtime**: datetime
**last_update**: trafo.duration_to_datetime
**atime**: datetime
**last_access**: trafo.duration_to_datetime
}
class gcp_resource [[#gcp_resource]] {
**link**: string
**label_fingerprint**: string
}
class zone [[#zone]] {

}
class gcp_zone [[#gcp_zone]] {
**zone_status**: string
}
resource <|- - - zone
gcp_resource <|- - - gcp_zone
zone <|- - - gcp_zone
@enduml

PlantUML version 1.2021.16(Wed Dec 08 17:25:22 UTC 2021)
(GPL source distribution)
Java Runtime: OpenJDK Runtime Environment
JVM: OpenJDK 64-Bit Server VM
Default Encoding: UTF-8
Language: en
Country: null
--></g></svg>