<?xml version="1.0" encoding="UTF-8" standalone="no"?><svg xmlns="http://www.w3.org/2000/svg" xmlns:xlink="http://www.w3.org/1999/xlink" contentScriptType="application/ecmascript" contentStyleType="text/css" height="152px" preserveAspectRatio="none" style="width:1783px;height:152px;background:#00000000;" version="1.1" viewBox="0 0 1783 152" width="1783px" zoomAndPan="magnify"><defs/><g><!--MD5=[f3c74ffc5f6ee5ea298d5a7abf6ee9d6]
class gcp_target_https_proxy--><a href="#gcp_target_https_proxy" target="_top" title="#gcp_target_https_proxy" xlink:actuate="onRequest" xlink:href="#gcp_target_https_proxy" xlink:show="new" xlink:title="#gcp_target_https_proxy" xlink:type="simple"><rect codeLine="23" fill="#3D176E" height="39.7891" id="gcp_target_https_proxy" rx="2.5" ry="2.5" style="stroke:#000D19;stroke-width:1.5;" width="238" x="7" y="107"/><ellipse cx="22" cy="126.8945" fill="#E98DF7" rx="11" ry="11" style="stroke:#000D19;stroke-width:1.0;"/><path d="M24.9688,132.5352 Q24.3906,132.832 23.75,132.9727 Q23.1094,133.1289 22.4063,133.1289 Q19.9063,133.1289 18.5781,131.4883 Q17.2656,129.832 17.2656,126.707 Q17.2656,123.582 18.5781,121.9258 Q19.9063,120.2695 22.4063,120.2695 Q23.1094,120.2695 23.75,120.4258 Q24.4063,120.582 24.9688,120.8789 L24.9688,123.5977 Q24.3438,123.0195 23.75,122.7539 Q23.1563,122.4727 22.5313,122.4727 Q21.1875,122.4727 20.5,123.5508 Q19.8125,124.6133 19.8125,126.707 Q19.8125,128.8008 20.5,129.8789 Q21.1875,130.9414 22.5313,130.9414 Q23.1563,130.9414 23.75,130.6758 Q24.3438,130.3945 24.9688,129.8164 L24.9688,132.5352 Z " fill="#000000"/><text fill="#D9B8FF" font-family="Helvetica" font-size="17" lengthAdjust="spacing" textLength="196" x="41" y="132.7798">gcp_target_https_proxy</text></a><!--MD5=[01f333c84fa10d5440e34410ebd5fc2e]
class gcp_target_http_proxy--><a href="#gcp_target_http_proxy" target="_top" title="#gcp_target_http_proxy" xlink:actuate="onRequest" xlink:href="#gcp_target_http_proxy" xlink:show="new" xlink:title="#gcp_target_http_proxy" xlink:type="simple"><rect codeLine="26" fill="#3D176E" height="39.7891" id="gcp_target_http_proxy" rx="2.5" ry="2.5" style="stroke:#000D19;stroke-width:1.5;" width="230" x="280" y="107"/><ellipse cx="295" cy="126.8945" fill="#E98DF7" rx="11" ry="11" style="stroke:#000D19;stroke-width:1.0;"/><path d="M297.9688,132.5352 Q297.3906,132.832 296.75,132.9727 Q296.1094,133.1289 295.4063,133.1289 Q292.9063,133.1289 291.5781,131.4883 Q290.2656,129.832 290.2656,126.707 Q290.2656,123.582 291.5781,121.9258 Q292.9063,120.2695 295.4063,120.2695 Q296.1094,120.2695 296.75,120.4258 Q297.4063,120.582 297.9688,120.8789 L297.9688,123.5977 Q297.3438,123.0195 296.75,122.7539 Q296.1563,122.4727 295.5313,122.4727 Q294.1875,122.4727 293.5,123.5508 Q292.8125,124.6133 292.8125,126.707 Q292.8125,128.8008 293.5,129.8789 Q294.1875,130.9414 295.5313,130.9414 Q296.1563,130.9414 296.75,130.6758 Q297.3438,130.3945 297.9688,129.8164 L297.9688,132.5352 Z " fill="#000000"/><text fill="#D9B8FF" font-family="Helvetica" font-size="17" lengthAdjust="spacing" textLength="188" x="314" y="132.7798">gcp_target_http_proxy</text></a><!--MD5=[4b8108a837d61bcc1b6286c3b81a9f43]
class gcp_target_grpc_proxy--><a href="#gcp_target_grpc_proxy" target="_top" title="#gcp_target_grpc_proxy" xlink:actuate="onRequest" xlink:href="#gcp_target_grpc_proxy" xlink:show="new" xlink:title="#gcp_target_grpc_proxy" xlink:type="simple"><rect codeLine="29" fill="#3D176E" height="39.7891" id="gcp_target_grpc_proxy" rx="2.5" ry="2.5" style="stroke:#000D19;stroke-width:1.5;" width="230" x="545" y="107"/><ellipse cx="560" cy="126.8945" fill="#E98DF7" rx="11" ry="11" style="stroke:#000D19;stroke-width:1.0;"/><path d="M562.9688,132.5352 Q562.3906,132.832 561.75,132.9727 Q561.1094,133.1289 560.4063,133.1289 Q557.9063,133.1289 556.5781,131.4883 Q555.2656,129.832 555.2656,126.707 Q555.2656,123.582 556.5781,121.9258 Q557.9063,120.2695 560.4063,120.2695 Q561.1094,120.2695 561.75,120.4258 Q562.4063,120.582 562.9688,120.8789 L562.9688,123.5977 Q562.3438,123.0195 561.75,122.7539 Q561.1563,122.4727 560.5313,122.4727 Q559.1875,122.4727 558.5,123.5508 Q557.8125,124.6133 557.8125,126.707 Q557.8125,128.8008 558.5,129.8789 Q559.1875,130.9414 560.5313,130.9414 Q561.1563,130.9414 561.75,130.6758 Q562.3438,130.3945 562.9688,129.8164 L562.9688,132.5352 Z " fill="#000000"/><text fill="#D9B8FF" font-family="Helvetica" font-size="17" lengthAdjust="spacing" textLength="188" x="579" y="132.7798">gcp_target_grpc_proxy</text></a><!--MD5=[d373685df770b1ed5a34d816c230813f]
class gcp_global_forwarding_rule--><a href="#gcp_global_forwarding_rule" target="_top" title="#gcp_global_forwarding_rule" xlink:actuate="onRequest" xlink:href="#gcp_global_forwarding_rule" xlink:show="new" xlink:title="#gcp_global_forwarding_rule" xlink:type="simple"><rect codeLine="32" fill="#3D176E" height="39.7891" id="gcp_global_forwarding_rule" rx="2.5" ry="2.5" style="stroke:#000D19;stroke-width:1.5;" width="271" x="761.5" y="7"/><ellipse cx="776.5" cy="26.8945" fill="#E98DF7" rx="11" ry="11" style="stroke:#000D19;stroke-width:1.0;"/><path d="M779.4688,32.5352 Q778.8906,32.832 778.25,32.9727 Q777.6094,33.1289 776.9063,33.1289 Q774.4063,33.1289 773.0781,31.4883 Q771.7656,29.832 771.7656,26.707 Q771.7656,23.582 773.0781,21.9258 Q774.4063,20.2695 776.9063,20.2695 Q777.6094,20.2695 778.25,20.4258 Q778.9063,20.582 779.4688,20.8789 L779.4688,23.5977 Q778.8438,23.0195 778.25,22.7539 Q777.6563,22.4727 777.0313,22.4727 Q775.6875,22.4727 775,23.5508 Q774.3125,24.6133 774.3125,26.707 Q774.3125,28.8008 775,29.8789 Q775.6875,30.9414 777.0313,30.9414 Q777.6563,30.9414 778.25,30.6758 Q778.8438,30.3945 779.4688,29.8164 L779.4688,32.5352 Z " fill="#000000"/><text fill="#D9B8FF" font-family="Helvetica" font-size="17" lengthAdjust="spacing" textLength="229" x="795.5" y="32.7798">gcp_global_forwarding_rule</text></a><!--MD5=[80b264b584c26a62008b47c628f94b1d]
class gcp_target_pool--><a href="#gcp_target_pool" target="_top" title="#gcp_target_pool" xlink:actuate="onRequest" xlink:href="#gcp_target_pool" xlink:show="new" xlink:title="#gcp_target_pool" xlink:type="simple"><rect codeLine="35" fill="#3D176E" height="39.7891" id="gcp_target_pool" rx="2.5" ry="2.5" style="stroke:#000D19;stroke-width:1.5;" width="174" x="810" y="107"/><ellipse cx="825" cy="126.8945" fill="#E98DF7" rx="11" ry="11" style="stroke:#000D19;stroke-width:1.0;"/><path d="M827.9688,132.5352 Q827.3906,132.832 826.75,132.9727 Q826.1094,133.1289 825.4063,133.1289 Q822.9063,133.1289 821.5781,131.4883 Q820.2656,129.832 820.2656,126.707 Q820.2656,123.582 821.5781,121.9258 Q822.9063,120.2695 825.4063,120.2695 Q826.1094,120.2695 826.75,120.4258 Q827.4063,120.582 827.9688,120.8789 L827.9688,123.5977 Q827.3438,123.0195 826.75,122.7539 Q826.1563,122.4727 825.5313,122.4727 Q824.1875,122.4727 823.5,123.5508 Q822.8125,124.6133 822.8125,126.707 Q822.8125,128.8008 823.5,129.8789 Q824.1875,130.9414 825.5313,130.9414 Q826.1563,130.9414 826.75,130.6758 Q827.3438,130.3945 827.9688,129.8164 L827.9688,132.5352 Z " fill="#000000"/><text fill="#D9B8FF" font-family="Helvetica" font-size="17" lengthAdjust="spacing" textLength="132" x="844" y="132.7798">gcp_target_pool</text></a><!--MD5=[5003f8800f97b8086a6c1fc5270b4b45]
class gcp_target_ssl_proxy--><a href="#gcp_target_ssl_proxy" target="_top" title="#gcp_target_ssl_proxy" xlink:actuate="onRequest" xlink:href="#gcp_target_ssl_proxy" xlink:show="new" xlink:title="#gcp_target_ssl_proxy" xlink:type="simple"><rect codeLine="38" fill="#3D176E" height="39.7891" id="gcp_target_ssl_proxy" rx="2.5" ry="2.5" style="stroke:#000D19;stroke-width:1.5;" width="216" x="1019" y="107"/><ellipse cx="1034" cy="126.8945" fill="#E98DF7" rx="11" ry="11" style="stroke:#000D19;stroke-width:1.0;"/><path d="M1036.9688,132.5352 Q1036.3906,132.832 1035.75,132.9727 Q1035.1094,133.1289 1034.4063,133.1289 Q1031.9063,133.1289 1030.5781,131.4883 Q1029.2656,129.832 1029.2656,126.707 Q1029.2656,123.582 1030.5781,121.9258 Q1031.9063,120.2695 1034.4063,120.2695 Q1035.1094,120.2695 1035.75,120.4258 Q1036.4063,120.582 1036.9688,120.8789 L1036.9688,123.5977 Q1036.3438,123.0195 1035.75,122.7539 Q1035.1563,122.4727 1034.5313,122.4727 Q1033.1875,122.4727 1032.5,123.5508 Q1031.8125,124.6133 1031.8125,126.707 Q1031.8125,128.8008 1032.5,129.8789 Q1033.1875,130.9414 1034.5313,130.9414 Q1035.1563,130.9414 1035.75,130.6758 Q1036.3438,130.3945 1036.9688,129.8164 L1036.9688,132.5352 Z " fill="#000000"/><text fill="#D9B8FF" font-family="Helvetica" font-size="17" lengthAdjust="spacing" textLength="174" x="1053" y="132.7798">gcp_target_ssl_proxy</text></a><!--MD5=[26e5ab3ec797ff00afaaa251c768257b]
class gcp_target_tcp_proxy--><a href="#gcp_target_tcp_proxy" target="_top" title="#gcp_target_tcp_proxy" xlink:actuate="onRequest" xlink:href="#gcp_target_tcp_proxy" xlink:show="new" xlink:title="#gcp_target_tcp_proxy" xlink:type="simple"><rect codeLine="41" fill="#3D176E" height="39.7891" id="gcp_target_tcp_proxy" rx="2.5" ry="2.5" style="stroke:#000D19;stroke-width:1.5;" width="220" x="1270" y="107"/><ellipse cx="1285" cy="126.8945" fill="#E98DF7" rx="11" ry="11" style="stroke:#000D19;stroke-width:1.0;"/><path d="M1287.9688,132.5352 Q1287.3906,132.832 1286.75,132.9727 Q1286.1094,133.1289 1285.4063,133.1289 Q1282.9063,133.1289 1281.5781,131.4883 Q1280.2656,129.832 1280.2656,126.707 Q1280.2656,123.582 1281.5781,121.9258 Q1282.9063,120.2695 1285.4063,120.2695 Q1286.1094,120.2695 1286.75,120.4258 Q1287.4063,120.582 1287.9688,120.8789 L1287.9688,123.5977 Q1287.3438,123.0195 1286.75,122.7539 Q1286.1563,122.4727 1285.5313,122.4727 Q1284.1875,122.4727 1283.5,123.5508 Q1282.8125,124.6133 1282.8125,126.707 Q1282.8125,128.8008 1283.5,129.8789 Q1284.1875,130.9414 1285.5313,130.9414 Q1286.1563,130.9414 1286.75,130.6758 Q1287.3438,130.3945 1287.9688,129.8164 L1287.9688,132.5352 Z " fill="#000000"/><text fill="#D9B8FF" font-family="Helvetica" font-size="17" lengthAdjust="spacing" textLength="178" x="1304" y="132.7798">gcp_target_tcp_proxy</text></a><!--MD5=[0934581ae09789f529834773e43c0213]
class gcp_target_vpn_gateway--><a href="#gcp_target_vpn_gateway" target="_top" title="#gcp_target_vpn_gateway" xlink:actuate="onRequest" xlink:href="#gcp_target_vpn_gateway" xlink:show="new" xlink:title="#gcp_target_vpn_gateway" xlink:type="simple"><rect codeLine="44" fill="#3D176E" height="39.7891" id="gcp_target_vpn_gateway" rx="2.5" ry="2.5" style="stroke:#000D19;stroke-width:1.5;" width="251" x="1525.5" y="107"/><ellipse cx="1540.5" cy="126.8945" fill="#E98DF7" rx="11" ry="11" style="stroke:#000D19;stroke-width:1.0;"/><path d="M1543.4688,132.5352 Q1542.8906,132.832 1542.25,132.9727 Q1541.6094,133.1289 1540.9063,133.1289 Q1538.4063,133.1289 1537.0781,131.4883 Q1535.7656,129.832 1535.7656,126.707 Q1535.7656,123.582 1537.0781,121.9258 Q1538.4063,120.2695 1540.9063,120.2695 Q1541.6094,120.2695 1542.25,120.4258 Q1542.9063,120.582 1543.4688,120.8789 L1543.4688,123.5977 Q1542.8438,123.0195 1542.25,122.7539 Q1541.6563,122.4727 1541.0313,122.4727 Q1539.6875,122.4727 1539,123.5508 Q1538.3125,124.6133 1538.3125,126.707 Q1538.3125,128.8008 1539,129.8789 Q1539.6875,130.9414 1541.0313,130.9414 Q1541.6563,130.9414 1542.25,130.6758 Q1542.8438,130.3945 1543.4688,129.8164 L1543.4688,132.5352 Z " fill="#000000"/><text fill="#D9B8FF" font-family="Helvetica" font-size="17" lengthAdjust="spacing" textLength="209" x="1559.5" y="132.7798">gcp_target_vpn_gateway</text></a><!--MD5=[712770a6b1b104b63a7f6086ae1a5774]
link gcp_global_forwarding_rule to gcp_target_http_proxy--><path codeLine="47" d="M799.61,47.01 C712.73,63.97 585.93,88.73 497.52,105.99 " fill="none" id="gcp_global_forwarding_rule-to-gcp_target_http_proxy" style="stroke:#1A83AF;stroke-width:2.0;"/><polygon fill="#1A83AF" points="492.54,106.96,502.1448,109.1388,497.4451,105.9904,500.5935,101.2906,492.54,106.96" style="stroke:#1A83AF;stroke-width:2.0;"/><!--MD5=[c373327fe0edc1dedd673dcdcc7baf56]
link gcp_global_forwarding_rule to gcp_target_grpc_proxy--><path codeLine="48" d="M851.02,47.01 C810.84,63.63 752.59,87.72 710.99,104.92 " fill="none" id="gcp_global_forwarding_rule-to-gcp_target_grpc_proxy" style="stroke:#1A83AF;stroke-width:2.0;"/><polygon fill="#1A83AF" points="706.25,106.87,716.0958,107.1159,710.8683,104.954,713.0302,99.7266,706.25,106.87" style="stroke:#1A83AF;stroke-width:2.0;"/><!--MD5=[88c0f59f6577f0748de7bb139b6cd864]
link gcp_global_forwarding_rule to gcp_target_https_proxy--><path codeLine="49" d="M761.29,44.29 C632.66,59.86 434.09,84.28 262,107 C258.09,107.52 254.13,108.04 250.12,108.58 " fill="none" id="gcp_global_forwarding_rule-to-gcp_target_https_proxy" style="stroke:#1A83AF;stroke-width:2.0;"/><polygon fill="#1A83AF" points="245.03,109.27,254.4865,112.0222,249.9845,108.597,253.4097,104.095,245.03,109.27" style="stroke:#1A83AF;stroke-width:2.0;"/><!--MD5=[cabecb413aeb40790baa2c1d3a578c1c]
link gcp_global_forwarding_rule to gcp_target_vpn_gateway--><path codeLine="50" d="M1032.61,45.4 C1156.44,61.31 1344.55,85.57 1508,107 C1512.11,107.54 1516.28,108.09 1520.49,108.64 " fill="none" id="gcp_global_forwarding_rule-to-gcp_target_vpn_gateway" style="stroke:#1A83AF;stroke-width:2.0;"/><polygon fill="#1A83AF" points="1525.45,109.29,1517.0537,104.142,1520.4934,108.6329,1516.0024,112.0726,1525.45,109.29" style="stroke:#1A83AF;stroke-width:2.0;"/><!--MD5=[06d5512fc1d2768bda556a982f49dbff]
link gcp_global_forwarding_rule to gcp_target_pool--><path codeLine="51" d="M897,47.36 C897,62.93 897,84.9 897,101.66 " fill="none" id="gcp_global_forwarding_rule-to-gcp_target_pool" style="stroke:#1A83AF;stroke-width:2.0;"/><polygon fill="#1A83AF" points="897,106.68,901,97.68,897,101.68,893,97.68,897,106.68" style="stroke:#1A83AF;stroke-width:2.0;"/><!--MD5=[2e8961951f85211018767d4afa284619]
link gcp_global_forwarding_rule to gcp_target_ssl_proxy--><path codeLine="52" d="M941.62,47.01 C980.53,63.59 1036.92,87.62 1077.27,104.81 " fill="none" id="gcp_global_forwarding_rule-to-gcp_target_ssl_proxy" style="stroke:#1A83AF;stroke-width:2.0;"/><polygon fill="#1A83AF" points="1082.11,106.87,1075.3944,99.6658,1077.5091,104.9125,1072.2624,107.0272,1082.11,106.87" style="stroke:#1A83AF;stroke-width:2.0;"/><!--MD5=[2ea543978c4c5643c23da0cfc3672a0f]
link gcp_global_forwarding_rule to gcp_target_tcp_proxy--><path codeLine="53" d="M990.7,47.01 C1074.22,63.96 1196.05,88.68 1281.11,105.94 " fill="none" id="gcp_global_forwarding_rule-to-gcp_target_tcp_proxy" style="stroke:#1A83AF;stroke-width:2.0;"/><polygon fill="#1A83AF" points="1286.15,106.96,1278.1316,101.2411,1281.251,105.9602,1276.5319,109.0796,1286.15,106.96" style="stroke:#1A83AF;stroke-width:2.0;"/><!--MD5=[04c99f7b940dac05b329b525a526e083]
@startuml
hide empty members
skinparam ArrowColor #ffaf37
skinparam ArrowFontColor #ffaf37
skinparam ArrowFontName Helvetica
skinparam ArrowThickness 2
skinparam BackgroundColor transparent
skinparam ClassAttributeFontColor #d9b8ff
skinparam ClassBackgroundColor #3d176e
skinparam ClassBorderColor #000d19
skinparam ClassFontColor #d9b8ff
skinparam ClassFontName Helvetica
skinparam ClassFontSize 17
skinparam NoteBackgroundColor #d9b8ff
skinparam NoteBorderColor #000d19
skinparam NoteFontColor #3d176e
skinparam NoteFontName Helvetica
skinparam Padding 5
skinparam RoundCorner 5
skinparam Shadowing false
skinparam stereotypeCBackgroundColor #e98df7
skinparam stereotypeIBackgroundColor #e98df7

class gcp_target_https_proxy [[#gcp_target_https_proxy]] {

}
class gcp_target_http_proxy [[#gcp_target_http_proxy]] {

}
class gcp_target_grpc_proxy [[#gcp_target_grpc_proxy]] {

}
class gcp_global_forwarding_rule [[#gcp_global_forwarding_rule]] {

}
class gcp_target_pool [[#gcp_target_pool]] {

}
class gcp_target_ssl_proxy [[#gcp_target_ssl_proxy]] {

}
class gcp_target_tcp_proxy [[#gcp_target_tcp_proxy]] {

}
class gcp_target_vpn_gateway [[#gcp_target_vpn_gateway]] {

}
gcp_global_forwarding_rule -[#1A83AF]-> gcp_target_http_proxy
gcp_global_forwarding_rule -[#1A83AF]-> gcp_target_grpc_proxy
gcp_global_forwarding_rule -[#1A83AF]-> gcp_target_https_proxy
gcp_global_forwarding_rule -[#1A83AF]-> gcp_target_vpn_gateway
gcp_global_forwarding_rule -[#1A83AF]-> gcp_target_pool
gcp_global_forwarding_rule -[#1A83AF]-> gcp_target_ssl_proxy
gcp_global_forwarding_rule -[#1A83AF]-> gcp_target_tcp_proxy
@enduml

PlantUML version 1.2021.16(Wed Dec 08 17:25:22 UTC 2021)
(GPL source distribution)
Java Runtime: OpenJDK Runtime Environment
JVM: OpenJDK 64-Bit Server VM
Default Encoding: UTF-8
Language: en
Country: null
--></g></svg>