<svg xmlns="http://www.w3.org/2000/svg" xmlns:xlink="http://www.w3.org/1999/xlink" width="330" height="152" contentScriptType="application/ecmascript" contentStyleType="text/css" style="width:330px;height:152px;background:#00000000" preserveAspectRatio="none" version="1.1" viewBox="0 0 330 152" zoomAndPan="magnify"><g><a href="#gcp_region" target="_top" title="#gcp_region" xlink:actuate="onRequest" xlink:href="#gcp_region" xlink:show="new" xlink:title="#gcp_region" xlink:type="simple"><rect id="gcp_region" width="132" height="39.789" x="7" y="7" fill="#3D176E" codeLine="17" rx="2.5" ry="2.5" style="stroke:#000d19;stroke-width:1.5"/><ellipse cx="22" cy="26.895" fill="#E98DF7" rx="11" ry="11" style="stroke:#000d19;stroke-width:1"/><path fill="#000" d="M24.9688,32.5352 Q24.3906,32.832 23.75,32.9727 Q23.1094,33.1289 22.4063,33.1289 Q19.9063,33.1289 18.5781,31.4883 Q17.2656,29.832 17.2656,26.707 Q17.2656,23.582 18.5781,21.9258 Q19.9063,20.2695 22.4063,20.2695 Q23.1094,20.2695 23.75,20.4258 Q24.4063,20.582 24.9688,20.8789 L24.9688,23.5977 Q24.3438,23.0195 23.75,22.7539 Q23.1563,22.4727 22.5313,22.4727 Q21.1875,22.4727 20.5,23.5508 Q19.8125,24.6133 19.8125,26.707 Q19.8125,28.8008 20.5,29.8789 Q21.1875,30.9414 22.5313,30.9414 Q23.1563,30.9414 23.75,30.6758 Q24.3438,30.3945 24.9688,29.8164 L24.9688,32.5352 Z"/><text x="41" y="32.78" fill="#D9B8FF" font-family="Helvetica" font-size="17" lengthAdjust="spacing" textLength="90">gcp_region</text></a><a href="#gcp_network" target="_top" title="#gcp_network" xlink:actuate="onRequest" xlink:href="#gcp_network" xlink:show="new" xlink:title="#gcp_network" xlink:type="simple"><rect id="gcp_network" width="149" height="39.789" x="174.5" y="7" fill="#3D176E" codeLine="20" rx="2.5" ry="2.5" style="stroke:#000d19;stroke-width:1.5"/><ellipse cx="189.5" cy="26.895" fill="#E98DF7" rx="11" ry="11" style="stroke:#000d19;stroke-width:1"/><path fill="#000" d="M192.4688,32.5352 Q191.8906,32.832 191.25,32.9727 Q190.6094,33.1289 189.9063,33.1289 Q187.4063,33.1289 186.0781,31.4883 Q184.7656,29.832 184.7656,26.707 Q184.7656,23.582 186.0781,21.9258 Q187.4063,20.2695 189.9063,20.2695 Q190.6094,20.2695 191.25,20.4258 Q191.9063,20.582 192.4688,20.8789 L192.4688,23.5977 Q191.8438,23.0195 191.25,22.7539 Q190.6563,22.4727 190.0313,22.4727 Q188.6875,22.4727 188,23.5508 Q187.3125,24.6133 187.3125,26.707 Q187.3125,28.8008 188,29.8789 Q188.6875,30.9414 190.0313,30.9414 Q190.6563,30.9414 191.25,30.6758 Q191.8438,30.3945 192.4688,29.8164 L192.4688,32.5352 Z"/><text x="208.5" y="32.78" fill="#D9B8FF" font-family="Helvetica" font-size="17" lengthAdjust="spacing" textLength="107">gcp_network</text></a><a href="#gcp_router" target="_top" title="#gcp_router" xlink:actuate="onRequest" xlink:href="#gcp_router" xlink:show="new" xlink:title="#gcp_router" xlink:type="simple"><rect id="gcp_router" width="131" height="39.789" x="95.5" y="107" fill="#3D176E" codeLine="23" rx="2.5" ry="2.5" style="stroke:#000d19;stroke-width:1.5"/><ellipse cx="110.5" cy="126.894" fill="#E98DF7" rx="11" ry="11" style="stroke:#000d19;stroke-width:1"/><path fill="#000" d="M113.4688,132.5352 Q112.8906,132.832 112.25,132.9727 Q111.6094,133.1289 110.9063,133.1289 Q108.4063,133.1289 107.0781,131.4883 Q105.7656,129.832 105.7656,126.707 Q105.7656,123.582 107.0781,121.9258 Q108.4063,120.2695 110.9063,120.2695 Q111.6094,120.2695 112.25,120.4258 Q112.9063,120.582 113.4688,120.8789 L113.4688,123.5977 Q112.8438,123.0195 112.25,122.7539 Q111.6563,122.4727 111.0313,122.4727 Q109.6875,122.4727 109,123.5508 Q108.3125,124.6133 108.3125,126.707 Q108.3125,128.8008 109,129.8789 Q109.6875,130.9414 111.0313,130.9414 Q111.6563,130.9414 112.25,130.6758 Q112.8438,130.3945 113.4688,129.8164 L113.4688,132.5352 Z"/><text x="129.5" y="132.78" fill="#D9B8FF" font-family="Helvetica" font-size="17" lengthAdjust="spacing" textLength="89">gcp_router</text></a><path id="gcp_region-to-gcp_router" fill="none" d="M90.39,47.36 C104.73,63.33 125.12,86.04 140.3,102.95" codeLine="26" style="stroke:#1a83af;stroke-width:2"/><polygon fill="#1A83AF" points="143.65 106.68 140.602 97.314 140.305 102.963 134.656 102.666 143.65 106.68" style="stroke:#1a83af;stroke-width:2"/><path id="gcp_network-to-gcp_router" fill="none" d="M231.61,47.36 C217.27,63.33 196.88,86.04 181.7,102.95" codeLine="27" style="stroke:#1a83af;stroke-width:2"/><polygon fill="#1A83AF" points="178.35 106.68 187.344 102.666 181.695 102.963 181.398 97.314 178.35 106.68" style="stroke:#1a83af;stroke-width:2"/></g></svg>