<svg xmlns="http://www.w3.org/2000/svg" xmlns:xlink="http://www.w3.org/1999/xlink" width="748" height="452" preserveAspectRatio="none" style="width:748px;height:452px;background:#00000000"><a xlink:actuate="onRequest" xlink:href="#a" xlink:show="new" xlink:title="#digitalocean_droplet" xlink:type="simple" target="_top"><rect id="a" width="211" height="39.789" x="176.26" y="407" fill="#3D176E" rx="2.5" ry="2.5" style="stroke:#000d19;stroke-width:1.5"/><circle cx="191.26" cy="426.894" r="11" fill="#E98DF7" style="stroke:#000d19;stroke-width:1"/><path d="M194.229 432.535q-.578.297-1.219.438-.64.156-1.344.156-2.5 0-3.828-1.64-1.312-1.657-1.312-4.782t1.312-4.781q1.328-1.656 3.828-1.656.703 0 1.344.156.656.156 1.219.453v2.719q-.625-.579-1.219-.844-.594-.281-1.219-.281-1.344 0-2.031 1.078-.688 1.062-.688 3.156 0 2.094.688 3.172.688 1.062 2.031 1.062.625 0 1.219-.265.594-.281 1.219-.86v2.72Z"/><text x="210.26" y="432.78" fill="#D9B8FF" font-family="Helvetica" font-size="17" textLength="169">digitalocean_droplet</text></a><a xlink:actuate="onRequest" xlink:href="#b" xlink:show="new" xlink:title="#digitalocean_team" xlink:type="simple" target="_top"><rect id="b" width="196" height="39.789" x="189.76" y="7" fill="#3D176E" rx="2.5" ry="2.5" style="stroke:#000d19;stroke-width:1.5"/><circle cx="204.76" cy="26.895" r="11" fill="#E98DF7" style="stroke:#000d19;stroke-width:1"/><path d="M207.729 32.535q-.578.297-1.219.438-.64.156-1.344.156-2.5 0-3.828-1.64-1.312-1.657-1.312-4.782t1.312-4.781q1.328-1.656 3.828-1.656.703 0 1.344.156.656.156 1.219.453v2.719q-.625-.578-1.219-.844-.594-.281-1.219-.281-1.344 0-2.031 1.078-.688 1.062-.688 3.156 0 2.094.688 3.172.688 1.062 2.031 1.062.625 0 1.219-.265.594-.281 1.219-.86v2.72Z"/><text x="223.76" y="32.78" fill="#D9B8FF" font-family="Helvetica" font-size="17" textLength="154">digitalocean_team</text></a><a xlink:actuate="onRequest" xlink:href="#c" xlink:show="new" xlink:title="#digitalocean_vpc" xlink:type="simple" target="_top"><rect id="c" width="180" height="39.789" x="54.76" y="207" fill="#3D176E" rx="2.5" ry="2.5" style="stroke:#000d19;stroke-width:1.5"/><circle cx="69.76" cy="226.894" r="11" fill="#E98DF7" style="stroke:#000d19;stroke-width:1"/><path d="M72.729 232.535q-.578.297-1.219.438-.64.156-1.344.156-2.5 0-3.828-1.64-1.312-1.657-1.312-4.782t1.312-4.781q1.328-1.656 3.828-1.656.703 0 1.344.156.656.156 1.219.453v2.719q-.625-.579-1.219-.844-.594-.281-1.219-.281-1.343 0-2.031 1.078-.688 1.062-.688 3.156 0 2.094.688 3.172.688 1.062 2.031 1.062.625 0 1.219-.265.594-.281 1.219-.86v2.72Z"/><text x="88.76" y="232.78" fill="#D9B8FF" font-family="Helvetica" font-size="17" textLength="138">digitalocean_vpc</text></a><a xlink:actuate="onRequest" xlink:href="#d" xlink:show="new" xlink:title="#digitalocean_kubernetes_cluster" xlink:type="simple" target="_top"><rect id="d" width="311" height="39.789" x="126.26" y="307" fill="#3D176E" rx="2.5" ry="2.5" style="stroke:#000d19;stroke-width:1.5"/><circle cx="141.26" cy="326.894" r="11" fill="#E98DF7" style="stroke:#000d19;stroke-width:1"/><path d="M144.229 332.535q-.578.297-1.219.438-.64.156-1.344.156-2.5 0-3.828-1.64-1.312-1.657-1.312-4.782t1.312-4.781q1.328-1.656 3.828-1.656.703 0 1.344.156.656.156 1.219.453v2.719q-.625-.579-1.219-.844-.594-.281-1.219-.281-1.344 0-2.031 1.078-.688 1.062-.688 3.156 0 2.094.688 3.172.688 1.062 2.031 1.062.625 0 1.219-.265.594-.281 1.219-.86v2.72Z"/><text x="160.26" y="332.78" fill="#D9B8FF" font-family="Helvetica" font-size="17" textLength="269">digitalocean_kubernetes_cluster</text></a><a xlink:actuate="onRequest" xlink:href="#e" xlink:show="new" xlink:title="#digitalocean_region" xlink:type="simple" target="_top"><rect id="e" width="205" height="39.789" x="341.26" y="107" fill="#3D176E" rx="2.5" ry="2.5" style="stroke:#000d19;stroke-width:1.5"/><circle cx="356.26" cy="126.894" r="11" fill="#E98DF7" style="stroke:#000d19;stroke-width:1"/><path d="M359.229 132.535q-.578.297-1.219.438-.64.156-1.344.156-2.5 0-3.828-1.64-1.312-1.657-1.312-4.782t1.312-4.781q1.328-1.657 3.828-1.657.703 0 1.344.157.656.156 1.219.453v2.719q-.625-.579-1.219-.844-.594-.281-1.219-.281-1.344 0-2.031 1.078-.688 1.062-.688 3.156 0 2.094.688 3.172.688 1.062 2.031 1.062.625 0 1.219-.265.594-.281 1.219-.86v2.72Z"/><text x="375.26" y="132.78" fill="#D9B8FF" font-family="Helvetica" font-size="17" textLength="163">digitalocean_region</text></a><a xlink:actuate="onRequest" xlink:href="#f" xlink:show="new" xlink:title="#digitalocean_project" xlink:type="simple" target="_top"><rect id="f" width="209" height="39.789" x="532.26" y="207" fill="#3D176E" rx="2.5" ry="2.5" style="stroke:#000d19;stroke-width:1.5"/><circle cx="547.26" cy="226.894" r="11" fill="#E98DF7" style="stroke:#000d19;stroke-width:1"/><path d="M550.229 232.535q-.578.297-1.219.438-.64.156-1.344.156-2.5 0-3.828-1.64-1.312-1.657-1.312-4.782t1.312-4.781q1.328-1.656 3.828-1.656.703 0 1.344.156.656.156 1.219.453v2.719q-.625-.579-1.219-.844-.594-.281-1.219-.281-1.344 0-2.031 1.078-.688 1.062-.688 3.156 0 2.094.688 3.172.688 1.062 2.031 1.062.625 0 1.219-.265.594-.281 1.219-.86v2.72Z"/><text x="566.26" y="232.78" fill="#D9B8FF" font-family="Helvetica" font-size="17" textLength="167">digitalocean_project</text></a><path fill="none" d="M273.79 47.35c-26.44 36.61-83.71 115.9-112.21 155.37" style="stroke:#1a83af;stroke-width:2"/><path fill="#1A83AF" d="m158.58 206.87 8.51-4.956-5.584.902-.902-5.585-2.024 9.639z" style="stroke:#1a83af;stroke-width:2"/><path fill="none" d="M287.38 47.09c-1.05 52.02-3.95 196.22-5.12 254.25" style="stroke:#1a83af;stroke-width:2"/><path fill="#1A83AF" d="m282.15 306.68 4.205-8.906-4.09 3.907-3.908-4.09 3.793 9.089z" style="stroke:#1a83af;stroke-width:2"/><path fill="none" d="M237.25 47.07C176.87 72.95 78.74 125.52 36.76 207c-30.76 59.72 6.73 95.44 57 140 30.68 27.2 72.08 45.95 108.21 58.34" style="stroke:#1a83af;stroke-width:2"/><path fill="#1A83AF" d="m206.81 406.97-7.25-6.667 2.512 5.069-5.068 2.511 9.806-.913z" style="stroke:#1a83af;stroke-width:2"/><path fill="none" d="M318.21 47.13c26.1 16.39 63.67 39.99 90.9 57.1" style="stroke:#1a83af;stroke-width:2"/><path fill="#1A83AF" d="m413.39 106.92-5.492-8.175 1.258 5.515-5.515 1.258 9.749 1.402z" style="stroke:#1a83af;stroke-width:2"/><path fill="none" d="M386.02 38.26c56.6 10.01 126.45 29.77 177.74 68.74 32.35 24.57 53.63 67.96 64.47 95.01" style="stroke:#1a83af;stroke-width:2"/><path fill="#1A83AF" d="m630.13 206.86.424-9.84-2.256 5.188-5.188-2.256 7.02 6.908z" style="stroke:#1a83af;stroke-width:2"/><path fill="none" d="M171.51 247.13c22.72 16.25 55.36 39.6 79.23 56.68" style="stroke:#1a83af;stroke-width:2"/><path fill="#1A83AF" d="m255.09 306.92-4.996-8.488.928 5.58-5.58.929 9.648 1.979z" style="stroke:#1a83af;stroke-width:2"/><path fill="none" d="M129.8 247.08c-17.41 24.7-41.34 68.33-21.04 99.92 18.05 28.08 48.82 46.3 79.45 58.07" style="stroke:#1a83af;stroke-width:2"/><path fill="#1A83AF" d="m193.13 406.91-7.04-6.887 2.354 5.144-5.144 2.355 9.83-.612z" style="stroke:#1a83af;stroke-width:2"/><path fill="none" d="M281.76 347.36v54.3" style="stroke:#1a83af;stroke-width:2"/><path fill="#1A83AF" d="m281.76 406.68 4-9-4 4-4-4 4 9z" style="stroke:#1a83af;stroke-width:2"/><path fill="none" d="M385.76 147.01c-51.08 16.74-125.32 41.08-177.88 58.3" style="stroke:#1a83af;stroke-width:2"/><path fill="#1A83AF" d="m202.86 206.96 9.799.993-5.048-2.553 2.552-5.048-7.303 6.608z" style="stroke:#1a83af;stroke-width:2"/><path fill="none" d="M451.59 147.17c15.21 40.58 43.82 136.58 3.17 199.83-18.04 28.08-48.81 46.3-79.44 58.07" style="stroke:#1a83af;stroke-width:2"/><path fill="#1A83AF" d="m370.4 406.91 9.832.585-5.15-2.34 2.34-5.15-7.022 6.905z" style="stroke:#1a83af;stroke-width:2"/><path fill="none" d="M427.94 147.35c-29.96 36.61-94.84 115.9-127.12 155.37" style="stroke:#1a83af;stroke-width:2"/><path fill="#1A83AF" d="m297.42 306.87 8.798-4.427-5.63.56-.559-5.63-2.609 9.497z" style="stroke:#1a83af;stroke-width:2"/><path fill="none" d="M622.16 247.21c-20.75 26.07-61.2 72.52-105.4 99.79-43.82 27.04-98.01 46.06-143.31 58.65" style="stroke:#1a83af;stroke-width:2"/><path fill="#1A83AF" d="m368.54 407 9.74 1.462-4.92-2.792 2.792-4.92-7.612 6.25z" style="stroke:#1a83af;stroke-width:2"/><path fill="none" d="M567.9 247.01c-61.02 16.85-149.87 41.37-212.33 58.62" style="stroke:#1a83af;stroke-width:2"/><path fill="#1A83AF" d="m350.74 306.96 9.74 1.462-4.92-2.792 2.792-4.92-7.612 6.25z" style="stroke:#1a83af;stroke-width:2"/></svg>