<svg xmlns="http://www.w3.org/2000/svg" xmlns:xlink="http://www.w3.org/1999/xlink" width="580" height="252" preserveAspectRatio="none" style="width:580px;height:252px;background:#00000000"><a xlink:actuate="onRequest" xlink:href="#a" xlink:show="new" xlink:title="#kubernetes_controller_revision" xlink:type="simple" target="_top"><rect id="a" width="300" height="39.789" x="22.02" y="207" fill="#3D176E" rx="2.5" ry="2.5" style="stroke:#000d19;stroke-width:1.5"/><circle cx="37.02" cy="226.894" r="11" fill="#E98DF7" style="stroke:#000d19;stroke-width:1"/><path d="M39.989 232.535q-.578.297-1.219.438-.64.156-1.344.156-2.5 0-3.828-1.64-1.312-1.657-1.312-4.782t1.312-4.781q1.328-1.656 3.828-1.656.703 0 1.344.156.656.156 1.219.453v2.719q-.625-.579-1.219-.844-.594-.281-1.219-.281-1.343 0-2.031 1.078-.688 1.062-.688 3.156 0 2.094.688 3.172.688 1.062 2.031 1.062.625 0 1.219-.265.594-.281 1.219-.86v2.72Z"/><text x="56.02" y="232.78" fill="#D9B8FF" font-family="Helvetica" font-size="17" textLength="258">kubernetes_controller_revision</text></a><a xlink:actuate="onRequest" xlink:href="#b" xlink:show="new" xlink:title="#kubernetes_daemon_set" xlink:type="simple" target="_top"><rect id="b" width="247" height="39.789" x="48.52" y="107" fill="#3D176E" rx="2.5" ry="2.5" style="stroke:#000d19;stroke-width:1.5"/><circle cx="63.52" cy="126.894" r="11" fill="#E98DF7" style="stroke:#000d19;stroke-width:1"/><path d="M66.489 132.535q-.578.297-1.219.438-.64.156-1.344.156-2.5 0-3.828-1.64-1.312-1.657-1.312-4.782t1.312-4.781q1.328-1.657 3.828-1.657.703 0 1.344.157.656.156 1.219.453v2.719q-.625-.579-1.219-.844-.594-.281-1.219-.281-1.343 0-2.031 1.078-.688 1.062-.688 3.156 0 2.094.688 3.172.688 1.062 2.031 1.062.625 0 1.219-.265.594-.281 1.219-.86v2.72Z"/><text x="82.52" y="132.78" fill="#D9B8FF" font-family="Helvetica" font-size="17" textLength="205">kubernetes_daemon_set</text></a><a xlink:actuate="onRequest" xlink:href="#c" xlink:show="new" xlink:title="#kubernetes_stateful_set" xlink:type="simple" target="_top"><rect id="c" width="243" height="39.789" x="330.52" y="107" fill="#3D176E" rx="2.5" ry="2.5" style="stroke:#000d19;stroke-width:1.5"/><circle cx="345.52" cy="126.894" r="11" fill="#E98DF7" style="stroke:#000d19;stroke-width:1"/><path d="M348.489 132.535q-.578.297-1.219.438-.64.156-1.344.156-2.5 0-3.828-1.64-1.312-1.657-1.312-4.782t1.312-4.781q1.328-1.657 3.828-1.657.703 0 1.344.157.656.156 1.219.453v2.719q-.625-.579-1.219-.844-.594-.281-1.219-.281-1.344 0-2.031 1.078-.688 1.062-.688 3.156 0 2.094.688 3.172.688 1.062 2.031 1.062.625 0 1.219-.265.594-.281 1.219-.86v2.72Z"/><text x="364.52" y="132.78" fill="#D9B8FF" font-family="Helvetica" font-size="17" textLength="201">kubernetes_stateful_set</text></a><a xlink:actuate="onRequest" xlink:href="#d" xlink:show="new" xlink:title="#kubernetes_namespace" xlink:type="simple" target="_top"><rect id="d" width="239" height="39.789" x="52.52" y="7" fill="#3D176E" rx="2.5" ry="2.5" style="stroke:#000d19;stroke-width:1.5"/><circle cx="67.52" cy="26.895" r="11" fill="#E98DF7" style="stroke:#000d19;stroke-width:1"/><path d="M70.489 32.535q-.578.297-1.219.438-.64.156-1.344.156-2.5 0-3.828-1.64-1.312-1.657-1.312-4.782t1.312-4.781q1.328-1.656 3.828-1.656.703 0 1.344.156.656.156 1.219.453v2.719q-.625-.578-1.219-.844-.594-.281-1.219-.281-1.344 0-2.031 1.078-.688 1.062-.688 3.156 0 2.094.688 3.172.688 1.062 2.031 1.062.625 0 1.219-.265.594-.281 1.219-.86v2.72Z"/><text x="86.52" y="32.78" fill="#D9B8FF" font-family="Helvetica" font-size="17" textLength="197">kubernetes_namespace</text></a><path fill="none" d="M172.02 147.36v54.3" style="stroke:#1a83af;stroke-width:2"/><path fill="#1A83AF" d="m172.02 206.68 4-9-4 4-4-4 4 9z" style="stroke:#1a83af;stroke-width:2"/><path fill="none" d="M397.7 147.01c-47.66 16.68-116.86 40.9-166.04 58.12" style="stroke:#1a83af;stroke-width:2"/><path fill="#1A83AF" d="m226.67 206.87 9.815.815-5.094-2.46 2.461-5.094-7.182 6.739z" style="stroke:#1a83af;stroke-width:2"/><path fill="none" d="M172.02 47.36v54.3" style="stroke:#1a83af;stroke-width:2"/><path fill="#1A83AF" d="m172.02 106.68 4-9-4 4-4-4 4 9z" style="stroke:#1a83af;stroke-width:2"/><path fill="none" d="M108.23 47.06C79.29 59.26 47.83 78.31 31.02 107c-25.02 42.7 31.53 77.21 80.3 97.86" style="stroke:#1a83af;stroke-width:2"/><path fill="#1A83AF" d="m116.01 206.81-6.761-7.161 2.148 5.233-5.233 2.148 9.846-.22z" style="stroke:#1a83af;stroke-width:2"/><path fill="none" d="M226.34 47.01C274 63.69 343.2 87.91 392.38 105.13" style="stroke:#1a83af;stroke-width:2"/><path fill="#1A83AF" d="m397.37 106.87-7.182-6.739 2.46 5.094-5.093 2.46 9.815-.815z" style="stroke:#1a83af;stroke-width:2"/></svg>