<svg xmlns="http://www.w3.org/2000/svg" xmlns:xlink="http://www.w3.org/1999/xlink" width="3235" height="552" preserveAspectRatio="none" style="width:3235px;height:552px;background:#00000000"><a xlink:actuate="onRequest" xlink:href="#a" xlink:show="new" xlink:title="#kubernetes_daemon_set" xlink:type="simple" target="_top"><rect id="a" width="247" height="39.789" x="1129.81" y="207" fill="#3D176E" rx="2.5" ry="2.5" style="stroke:#000d19;stroke-width:1.5"/><circle cx="1144.81" cy="226.894" r="11" fill="#E98DF7" style="stroke:#000d19;stroke-width:1"/><path d="M1147.779 232.535q-.578.297-1.219.438-.64.156-1.344.156-2.5 0-3.828-1.64-1.312-1.657-1.312-4.782t1.312-4.781q1.328-1.656 3.828-1.656.703 0 1.344.156.656.156 1.219.453v2.719q-.625-.579-1.219-.844-.594-.281-1.219-.281-1.343 0-2.031 1.078-.688 1.062-.688 3.156 0 2.094.688 3.172.688 1.062 2.031 1.062.625 0 1.219-.265.594-.281 1.219-.86v2.72Z"/><text x="1163.81" y="232.78" fill="#D9B8FF" font-family="Helvetica" font-size="17" textLength="205">kubernetes_daemon_set</text></a><a xlink:actuate="onRequest" xlink:href="#b" xlink:show="new" xlink:title="#kubernetes_controller_revision" xlink:type="simple" target="_top"><rect id="b" width="300" height="39.789" x="1252.31" y="307" fill="#3D176E" rx="2.5" ry="2.5" style="stroke:#000d19;stroke-width:1.5"/><circle cx="1267.31" cy="326.894" r="11" fill="#E98DF7" style="stroke:#000d19;stroke-width:1"/><path d="M1270.279 332.535q-.578.297-1.219.438-.64.156-1.344.156-2.5 0-3.828-1.64-1.312-1.657-1.312-4.782t1.312-4.781q1.328-1.656 3.828-1.656.703 0 1.344.156.656.156 1.219.453v2.719q-.625-.579-1.219-.844-.594-.281-1.219-.281-1.343 0-2.031 1.078-.688 1.062-.688 3.156 0 2.094.688 3.172.688 1.062 2.031 1.062.625 0 1.219-.265.594-.281 1.219-.86v2.72Z"/><text x="1286.31" y="332.78" fill="#D9B8FF" font-family="Helvetica" font-size="17" textLength="258">kubernetes_controller_revision</text></a><a xlink:actuate="onRequest" xlink:href="#c" xlink:show="new" xlink:title="#kubernetes_pod" xlink:type="simple" target="_top"><rect id="c" width="175" height="39.789" x="988.81" y="407" fill="#3D176E" rx="2.5" ry="2.5" style="stroke:#000d19;stroke-width:1.5"/><circle cx="1003.81" cy="426.894" r="11" fill="#E98DF7" style="stroke:#000d19;stroke-width:1"/><path d="M1006.779 432.535q-.578.297-1.219.438-.64.156-1.344.156-2.5 0-3.828-1.64-1.312-1.657-1.312-4.782t1.312-4.781q1.328-1.656 3.828-1.656.703 0 1.344.156.656.156 1.219.453v2.719q-.625-.579-1.219-.844-.594-.281-1.219-.281-1.344 0-2.031 1.078-.688 1.062-.688 3.156 0 2.094.688 3.172.688 1.062 2.031 1.062.625 0 1.219-.265.594-.281 1.219-.86v2.72Z"/><text x="1022.81" y="432.78" fill="#D9B8FF" font-family="Helvetica" font-size="17" textLength="133">kubernetes_pod</text></a><a xlink:actuate="onRequest" xlink:href="#d" xlink:show="new" xlink:title="#kubernetes_cluster" xlink:type="simple" target="_top"><rect id="d" width="201" height="39.789" x="1240.81" y="7" fill="#3D176E" rx="2.5" ry="2.5" style="stroke:#000d19;stroke-width:1.5"/><circle cx="1255.81" cy="26.895" r="11" fill="#E98DF7" style="stroke:#000d19;stroke-width:1"/><path d="M1258.779 32.535q-.578.297-1.219.438-.64.156-1.344.156-2.5 0-3.828-1.64-1.312-1.657-1.312-4.782t1.312-4.781q1.328-1.656 3.828-1.656.703 0 1.344.156.656.156 1.219.453v2.719q-.625-.578-1.219-.844-.594-.281-1.219-.281-1.343 0-2.031 1.078-.688 1.062-.688 3.156 0 2.094.688 3.172.688 1.062 2.031 1.062.625 0 1.219-.265.594-.281 1.219-.86v2.72Z"/><text x="1274.81" y="32.78" fill="#D9B8FF" font-family="Helvetica" font-size="17" textLength="159">kubernetes_cluster</text></a><a xlink:actuate="onRequest" xlink:href="#e" xlink:show="new" xlink:title="#kubernetes_namespace" xlink:type="simple" target="_top"><rect id="e" width="239" height="39.789" x="1221.81" y="107" fill="#3D176E" rx="2.5" ry="2.5" style="stroke:#000d19;stroke-width:1.5"/><circle cx="1236.81" cy="126.894" r="11" fill="#E98DF7" style="stroke:#000d19;stroke-width:1"/><path d="M1239.779 132.535q-.578.297-1.219.438-.64.156-1.344.156-2.5 0-3.828-1.64-1.312-1.657-1.312-4.782t1.312-4.781q1.328-1.657 3.828-1.657.703 0 1.344.157.656.156 1.219.453v2.719q-.625-.579-1.219-.844-.594-.281-1.219-.281-1.343 0-2.031 1.078-.688 1.062-.688 3.156 0 2.094.688 3.172.688 1.062 2.031 1.062.625 0 1.219-.265.594-.281 1.219-.86v2.72Z"/><text x="1255.81" y="132.78" fill="#D9B8FF" font-family="Helvetica" font-size="17" textLength="197">kubernetes_namespace</text></a><a xlink:actuate="onRequest" xlink:href="#f" xlink:show="new" xlink:title="#kubernetes_stateful_set" xlink:type="simple" target="_top"><rect id="f" width="243" height="39.789" x="1483.81" y="207" fill="#3D176E" rx="2.5" ry="2.5" style="stroke:#000d19;stroke-width:1.5"/><circle cx="1498.81" cy="226.894" r="11" fill="#E98DF7" style="stroke:#000d19;stroke-width:1"/><path d="M1501.779 232.535q-.578.297-1.219.438-.64.156-1.344.156-2.5 0-3.828-1.64-1.312-1.657-1.312-4.782t1.312-4.781q1.328-1.656 3.828-1.656.703 0 1.344.156.656.156 1.219.453v2.719q-.625-.579-1.219-.844-.594-.281-1.219-.281-1.343 0-2.031 1.078-.688 1.062-.688 3.156 0 2.094.688 3.172.688 1.062 2.031 1.062.625 0 1.219-.265.594-.281 1.219-.86v2.72Z"/><text x="1517.81" y="232.78" fill="#D9B8FF" font-family="Helvetica" font-size="17" textLength="201">kubernetes_stateful_set</text></a><a xlink:actuate="onRequest" xlink:href="#g" xlink:show="new" xlink:title="#kubernetes_deployment" xlink:type="simple" target="_top"><rect id="g" width="245" height="39.789" x="456.81" y="207" fill="#3D176E" rx="2.5" ry="2.5" style="stroke:#000d19;stroke-width:1.5"/><circle cx="471.81" cy="226.894" r="11" fill="#E98DF7" style="stroke:#000d19;stroke-width:1"/><path d="M474.779 232.535q-.578.297-1.219.438-.64.156-1.344.156-2.5 0-3.828-1.64-1.312-1.657-1.312-4.782t1.312-4.781q1.328-1.656 3.828-1.656.703 0 1.344.156.656.156 1.219.453v2.719q-.625-.579-1.219-.844-.594-.281-1.219-.281-1.344 0-2.031 1.078-.688 1.062-.688 3.156 0 2.094.688 3.172.688 1.062 2.031 1.062.625 0 1.219-.265.594-.281 1.219-.86v2.72Z"/><text x="490.81" y="232.78" fill="#D9B8FF" font-family="Helvetica" font-size="17" textLength="203">kubernetes_deployment</text></a><a xlink:actuate="onRequest" xlink:href="#h" xlink:show="new" xlink:title="#kubernetes_replica_set" xlink:type="simple" target="_top"><rect id="h" width="234" height="39.789" x="636.31" y="307" fill="#3D176E" rx="2.5" ry="2.5" style="stroke:#000d19;stroke-width:1.5"/><circle cx="651.31" cy="326.894" r="11" fill="#E98DF7" style="stroke:#000d19;stroke-width:1"/><path d="M654.279 332.535q-.578.297-1.219.438-.64.156-1.344.156-2.5 0-3.828-1.64-1.312-1.657-1.312-4.782t1.312-4.781q1.328-1.656 3.828-1.656.703 0 1.344.156.656.156 1.219.453v2.719q-.625-.579-1.219-.844-.594-.281-1.219-.281-1.344 0-2.031 1.078-.688 1.062-.688 3.156 0 2.094.688 3.172.688 1.062 2.031 1.062.625 0 1.219-.265.594-.281 1.219-.86v2.72Z"/><text x="670.31" y="332.78" fill="#D9B8FF" font-family="Helvetica" font-size="17" textLength="192">kubernetes_replica_set</text></a><a xlink:actuate="onRequest" xlink:href="#i" xlink:show="new" xlink:title="#kubernetes_pod_disruption_budget" xlink:type="simple" target="_top"><rect id="i" width="335" height="39.789" x="2397.81" y="207" fill="#3D176E" rx="2.5" ry="2.5" style="stroke:#000d19;stroke-width:1.5"/><circle cx="2412.81" cy="226.894" r="11" fill="#E98DF7" style="stroke:#000d19;stroke-width:1"/><path d="M2415.779 232.535q-.578.297-1.219.438-.64.156-1.344.156-2.5 0-3.828-1.64-1.312-1.657-1.312-4.782t1.312-4.781q1.328-1.656 3.828-1.656.703 0 1.344.156.656.156 1.219.453v2.719q-.625-.579-1.219-.844-.594-.281-1.219-.281-1.343 0-2.031 1.078-.688 1.062-.688 3.156 0 2.094.688 3.172.688 1.062 2.031 1.062.625 0 1.219-.265.594-.281 1.219-.86v2.72Z"/><text x="2431.81" y="232.78" fill="#D9B8FF" font-family="Helvetica" font-size="17" textLength="293">kubernetes_pod_disruption_budget</text></a><a xlink:actuate="onRequest" xlink:href="#j" xlink:show="new" xlink:title="#kubernetes_secret" xlink:type="simple" target="_top"><rect id="j" width="195" height="39.789" x="73.81" y="507" fill="#3D176E" rx="2.5" ry="2.5" style="stroke:#000d19;stroke-width:1.5"/><circle cx="88.81" cy="526.894" r="11" fill="#E98DF7" style="stroke:#000d19;stroke-width:1"/><path d="M91.779 532.535q-.578.297-1.219.438-.64.156-1.344.156-2.5 0-3.828-1.64-1.312-1.657-1.312-4.782t1.312-4.781q1.328-1.657 3.828-1.657.703 0 1.344.157.656.156 1.219.453v2.719q-.625-.578-1.219-.844-.594-.281-1.219-.281-1.343 0-2.031 1.078-.688 1.062-.688 3.156 0 2.094.688 3.172.688 1.062 2.031 1.062.625 0 1.219-.265.594-.282 1.219-.86v2.72Z"/><text x="107.81" y="532.78" fill="#D9B8FF" font-family="Helvetica" font-size="17" textLength="153">kubernetes_secret</text></a><a xlink:actuate="onRequest" xlink:href="#k" xlink:show="new" xlink:title="#kubernetes_service_account" xlink:type="simple" target="_top"><rect id="k" width="277" height="39.789" x="32.81" y="407" fill="#3D176E" rx="2.5" ry="2.5" style="stroke:#000d19;stroke-width:1.5"/><circle cx="47.81" cy="426.894" r="11" fill="#E98DF7" style="stroke:#000d19;stroke-width:1"/><path d="M50.779 432.535q-.578.297-1.219.438-.64.156-1.344.156-2.5 0-3.828-1.64-1.312-1.657-1.312-4.782t1.312-4.781q1.328-1.656 3.828-1.656.703 0 1.344.156.656.156 1.219.453v2.719q-.625-.579-1.219-.844-.594-.281-1.219-.281-1.343 0-2.031 1.078-.688 1.062-.688 3.156 0 2.094.688 3.172.688 1.062 2.031 1.062.625 0 1.219-.265.594-.281 1.219-.86v2.72Z"/><text x="66.81" y="432.78" fill="#D9B8FF" font-family="Helvetica" font-size="17" textLength="235">kubernetes_service_account</text></a><a xlink:actuate="onRequest" xlink:href="#l" xlink:show="new" xlink:title="#kubernetes_persistent_volume_claim" xlink:type="simple" target="_top"><rect id="l" width="354" height="39.789" x="711.31" y="507" fill="#3D176E" rx="2.5" ry="2.5" style="stroke:#000d19;stroke-width:1.5"/><circle cx="726.31" cy="526.894" r="11" fill="#E98DF7" style="stroke:#000d19;stroke-width:1"/><path d="M729.279 532.535q-.578.297-1.219.438-.64.156-1.344.156-2.5 0-3.828-1.64-1.312-1.657-1.312-4.782t1.312-4.781q1.328-1.657 3.828-1.657.703 0 1.344.157.656.156 1.219.453v2.719q-.625-.578-1.219-.844-.594-.281-1.219-.281-1.344 0-2.031 1.078-.688 1.062-.688 3.156 0 2.094.688 3.172.688 1.062 2.031 1.062.625 0 1.219-.265.594-.282 1.219-.86v2.72Z"/><text x="745.31" y="532.78" fill="#D9B8FF" font-family="Helvetica" font-size="17" textLength="312">kubernetes_persistent_volume_claim</text></a><a xlink:actuate="onRequest" xlink:href="#m" xlink:show="new" xlink:title="#kubernetes_role_binding" xlink:type="simple" target="_top"><rect id="m" width="248" height="39.789" x="2768.31" y="207" fill="#3D176E" rx="2.5" ry="2.5" style="stroke:#000d19;stroke-width:1.5"/><circle cx="2783.31" cy="226.894" r="11" fill="#E98DF7" style="stroke:#000d19;stroke-width:1"/><path d="M2786.279 232.535q-.578.297-1.219.438-.64.156-1.344.156-2.5 0-3.828-1.64-1.312-1.657-1.312-4.782t1.312-4.781q1.328-1.656 3.828-1.656.703 0 1.344.156.656.156 1.219.453v2.719q-.625-.579-1.219-.844-.594-.281-1.219-.281-1.343 0-2.031 1.078-.688 1.062-.688 3.156 0 2.094.688 3.172.688 1.062 2.031 1.062.625 0 1.219-.265.594-.281 1.219-.86v2.72Z"/><text x="2802.31" y="232.78" fill="#D9B8FF" font-family="Helvetica" font-size="17" textLength="206">kubernetes_role_binding</text></a><a xlink:actuate="onRequest" xlink:href="#n" xlink:show="new" xlink:title="#kubernetes_cron_job" xlink:type="simple" target="_top"><rect id="n" width="215" height="39.789" x="879.81" y="207" fill="#3D176E" rx="2.5" ry="2.5" style="stroke:#000d19;stroke-width:1.5"/><circle cx="894.81" cy="226.894" r="11" fill="#E98DF7" style="stroke:#000d19;stroke-width:1"/><path d="M897.779 232.535q-.578.297-1.219.438-.64.156-1.344.156-2.5 0-3.828-1.64-1.312-1.657-1.312-4.782t1.312-4.781q1.328-1.656 3.828-1.656.703 0 1.344.156.656.156 1.219.453v2.719q-.625-.579-1.219-.844-.594-.281-1.219-.281-1.344 0-2.031 1.078-.688 1.062-.688 3.156 0 2.094.688 3.172.688 1.062 2.031 1.062.625 0 1.219-.265.594-.281 1.219-.86v2.72Z"/><text x="913.81" y="232.78" fill="#D9B8FF" font-family="Helvetica" font-size="17" textLength="173">kubernetes_cron_job</text></a><a xlink:actuate="onRequest" xlink:href="#o" xlink:show="new" xlink:title="#kubernetes_job" xlink:type="simple" target="_top"><rect id="o" width="170" height="39.789" x="905.31" y="307" fill="#3D176E" rx="2.5" ry="2.5" style="stroke:#000d19;stroke-width:1.5"/><circle cx="920.31" cy="326.894" r="11" fill="#E98DF7" style="stroke:#000d19;stroke-width:1"/><path d="M923.279 332.535q-.578.297-1.219.438-.64.156-1.344.156-2.5 0-3.828-1.64-1.312-1.657-1.312-4.782t1.312-4.781q1.328-1.656 3.828-1.656.703 0 1.344.156.656.156 1.219.453v2.719q-.625-.579-1.219-.844-.594-.281-1.219-.281-1.344 0-2.031 1.078-.688 1.062-.688 3.156 0 2.094.688 3.172.688 1.062 2.031 1.062.625 0 1.219-.265.594-.281 1.219-.86v2.72Z"/><text x="939.31" y="332.78" fill="#D9B8FF" font-family="Helvetica" font-size="17" textLength="128">kubernetes_job</text></a><a xlink:actuate="onRequest" xlink:href="#p" xlink:show="new" xlink:title="#kubernetes_service" xlink:type="simple" target="_top"><rect id="p" width="203" height="39.789" x="2087.81" y="207" fill="#3D176E" rx="2.5" ry="2.5" style="stroke:#000d19;stroke-width:1.5"/><circle cx="2102.81" cy="226.894" r="11" fill="#E98DF7" style="stroke:#000d19;stroke-width:1"/><path d="M2105.779 232.535q-.578.297-1.219.438-.64.156-1.344.156-2.5 0-3.828-1.64-1.312-1.657-1.312-4.782t1.312-4.781q1.328-1.656 3.828-1.656.703 0 1.344.156.656.156 1.219.453v2.719q-.625-.579-1.219-.844-.594-.281-1.219-.281-1.343 0-2.031 1.078-.688 1.062-.688 3.156 0 2.094.688 3.172.688 1.062 2.031 1.062.625 0 1.219-.265.594-.281 1.219-.86v2.72Z"/><text x="2121.81" y="232.78" fill="#D9B8FF" font-family="Helvetica" font-size="17" textLength="161">kubernetes_service</text></a><a xlink:actuate="onRequest" xlink:href="#q" xlink:show="new" xlink:title="#kubernetes_endpoint_slice" xlink:type="simple" target="_top"><rect id="q" width="264" height="39.789" x="1872.31" y="307" fill="#3D176E" rx="2.5" ry="2.5" style="stroke:#000d19;stroke-width:1.5"/><circle cx="1887.31" cy="326.894" r="11" fill="#E98DF7" style="stroke:#000d19;stroke-width:1"/><path d="M1890.279 332.535q-.578.297-1.219.438-.64.156-1.344.156-2.5 0-3.828-1.64-1.312-1.657-1.312-4.782t1.312-4.781q1.328-1.656 3.828-1.656.703 0 1.344.156.656.156 1.219.453v2.719q-.625-.579-1.219-.844-.594-.281-1.219-.281-1.343 0-2.031 1.078-.688 1.062-.688 3.156 0 2.094.688 3.172.688 1.062 2.031 1.062.625 0 1.219-.265.594-.281 1.219-.86v2.72Z"/><text x="1906.31" y="332.78" fill="#D9B8FF" font-family="Helvetica" font-size="17" textLength="222">kubernetes_endpoint_slice</text></a><a xlink:actuate="onRequest" xlink:href="#r" xlink:show="new" xlink:title="#kubernetes_role" xlink:type="simple" target="_top"><rect id="r" width="177" height="39.789" x="3051.81" y="207" fill="#3D176E" rx="2.5" ry="2.5" style="stroke:#000d19;stroke-width:1.5"/><circle cx="3066.81" cy="226.894" r="11" fill="#E98DF7" style="stroke:#000d19;stroke-width:1"/><path d="M3069.779 232.535q-.578.297-1.219.438-.64.156-1.344.156-2.5 0-3.828-1.64-1.312-1.657-1.312-4.782t1.312-4.781q1.328-1.656 3.828-1.656.703 0 1.344.156.656.156 1.219.453v2.719q-.625-.579-1.219-.844-.594-.281-1.219-.281-1.343 0-2.031 1.078-.688 1.062-.688 3.156 0 2.094.688 3.172.688 1.062 2.031 1.062.625 0 1.219-.265.594-.281 1.219-.86v2.72Z"/><text x="3085.81" y="232.78" fill="#D9B8FF" font-family="Helvetica" font-size="17" textLength="135">kubernetes_role</text></a><a xlink:actuate="onRequest" xlink:href="#s" xlink:show="new" xlink:title="#kubernetes_endpoint" xlink:type="simple" target="_top"><rect id="s" width="219" height="39.789" x="1761.81" y="207" fill="#3D176E" rx="2.5" ry="2.5" style="stroke:#000d19;stroke-width:1.5"/><circle cx="1776.81" cy="226.894" r="11" fill="#E98DF7" style="stroke:#000d19;stroke-width:1"/><path d="M1779.779 232.535q-.578.297-1.219.438-.64.156-1.344.156-2.5 0-3.828-1.64-1.312-1.657-1.312-4.782t1.312-4.781q1.328-1.656 3.828-1.656.703 0 1.344.156.656.156 1.219.453v2.719q-.625-.579-1.219-.844-.594-.281-1.219-.281-1.343 0-2.031 1.078-.688 1.062-.688 3.156 0 2.094.688 3.172.688 1.062 2.031 1.062.625 0 1.219-.265.594-.281 1.219-.86v2.72Z"/><text x="1795.81" y="232.78" fill="#D9B8FF" font-family="Helvetica" font-size="17" textLength="177">kubernetes_endpoint</text></a><a xlink:actuate="onRequest" xlink:href="#t" xlink:show="new" xlink:title="#kubernetes_config_map" xlink:type="simple" target="_top"><rect id="t" width="241" height="39.789" x="1143.81" y="507" fill="#3D176E" rx="2.5" ry="2.5" style="stroke:#000d19;stroke-width:1.5"/><circle cx="1158.81" cy="526.894" r="11" fill="#E98DF7" style="stroke:#000d19;stroke-width:1"/><path d="M1161.779 532.535q-.578.297-1.219.438-.64.156-1.344.156-2.5 0-3.828-1.64-1.312-1.657-1.312-4.782t1.312-4.781q1.328-1.657 3.828-1.657.703 0 1.344.157.656.156 1.219.453v2.719q-.625-.578-1.219-.844-.594-.281-1.219-.281-1.343 0-2.031 1.078-.688 1.062-.688 3.156 0 2.094.688 3.172.688 1.062 2.031 1.062.625 0 1.219-.265.594-.282 1.219-.86v2.72Z"/><text x="1177.81" y="532.78" fill="#D9B8FF" font-family="Helvetica" font-size="17" textLength="199">kubernetes_config_map</text></a><path fill="none" d="M1282.39 247.13c24.82 16.32 60.51 39.8 86.5 56.89" style="stroke:#1a83af;stroke-width:2"/><path fill="#1A83AF" d="m1373.3 306.92-5.322-8.287 1.144 5.54-5.54 1.145 9.718 1.602z" style="stroke:#1a83af;stroke-width:2"/><path fill="none" d="M1236.01 247.35c-32.73 36.61-103.61 115.9-138.89 155.37" style="stroke:#1a83af;stroke-width:2"/><path fill="#1A83AF" d="m1093.41 406.87 8.986-4.03-5.648.307-.308-5.648-3.03 9.371z" style="stroke:#1a83af;stroke-width:2"/><path fill="none" d="M988.71 437.49c-168.21 18.21-535.62 58-714.9 77.41" style="stroke:#1a83af;stroke-width:2"/><path fill="#1A83AF" d="m268.82 515.44 9.381 3-4.41-3.543 3.542-4.41-8.513 4.953z" style="stroke:#1a83af;stroke-width:2"/><path fill="none" d="M1113 447.13c31.58 16.46 77.1 40.19 109.95 57.31" style="stroke:#1a83af;stroke-width:2"/><path fill="#1A83AF" d="m1227.71 506.92-6.124-7.714 1.693 5.398-5.398 1.693 9.829.623z" style="stroke:#1a83af;stroke-width:2"/><path fill="none" d="M1039.61 447.13c-31.57 16.46-77.09 40.19-109.95 57.31" style="stroke:#1a83af;stroke-width:2"/><path fill="#1A83AF" d="m924.91 506.92 9.83-.598-5.393-1.707 1.707-5.393-6.144 7.698z" style="stroke:#1a83af;stroke-width:2"/><path fill="none" d="M1341.31 47.36v54.3" style="stroke:#1a83af;stroke-width:2"/><path fill="#1A83AF" d="m1341.31 106.68 4-9-4 4-4-4 4 9z" style="stroke:#1a83af;stroke-width:2"/><path fill="none" d="M1461.23 131.61c243.43 8.01 812.85 30.25 1289.08 75.39 4.18.4 8.43.82 12.72 1.27" style="stroke:#1a83af;stroke-width:2"/><path fill="#1A83AF" d="m2768.08 208.82-8.527-4.93 3.555 4.401-4.4 3.555 9.372-3.026z" style="stroke:#1a83af;stroke-width:2"/><path fill="none" d="M1392.52 147.01c44.94 16.68 110.18 40.9 156.56 58.12" style="stroke:#1a83af;stroke-width:2"/><path fill="#1A83AF" d="m1553.79 206.87-7.04-6.887 2.354 5.144-5.144 2.355 9.83-.612z" style="stroke:#1a83af;stroke-width:2"/><path fill="none" d="M1221.58 137.02c-125.67 11.23-313.43 33.51-375.27 69.98-38.22 22.54-66.55 67.27-81.36 95.01" style="stroke:#1a83af;stroke-width:2"/><path fill="#1A83AF" d="m762.52 306.65 7.729-6.104-5.402 1.678-1.679-5.401-.648 9.827z" style="stroke:#1a83af;stroke-width:2"/><path fill="none" d="M1221.41 143.42c-140.11 18.02-370.98 47.71-514.37 66.15" style="stroke:#1a83af;stroke-width:2"/><path fill="#1A83AF" d="m701.98 210.22 9.44 2.81-4.481-3.453 3.452-4.481-8.411 5.124z" style="stroke:#1a83af;stroke-width:2"/><path fill="none" d="M1221.54 130.68c-126.57 5.65-314.04 23.06-359.23 76.32-31.76 37.43 27.74 75.08 75.84 97.72" style="stroke:#1a83af;stroke-width:2"/><path fill="#1A83AF" d="m942.77 306.86-6.463-7.432 1.932 5.317-5.316 1.932 9.847.183z" style="stroke:#1a83af;stroke-width:2"/><path fill="none" d="M1358.45 147.21c12.36 15.1 28.17 37.28 35.86 59.79 10.74 31.47 11.15 70.28 9.97 94.84" style="stroke:#1a83af;stroke-width:2"/><path fill="#1A83AF" d="m1404.01 306.86 4.482-8.77-4.211 3.777-3.777-4.21 3.506 9.203z" style="stroke:#1a83af;stroke-width:2"/><path fill="none" d="M1221.71 129.29c-239.63 3.82-760.34 18.89-814.4 77.71-18.23 19.84-25.64 95.23 8 140 69.7 92.76 193.49 137.45 296.94 158.98" style="stroke:#1a83af;stroke-width:2"/><path fill="#1A83AF" d="m717.16 506.99-8.002-5.741 3.106 4.727-4.728 3.107 9.624-2.093z" style="stroke:#1a83af;stroke-width:2"/><path fill="none" d="M1460.89 134.15c179.49 10.43 501.46 34.31 537.42 72.85 23.41 25.1 19 67.66 12.99 94.5" style="stroke:#1a83af;stroke-width:2"/><path fill="#1A83AF" d="m2010.08 306.65 5.955-7.845-4.81 2.978-2.977-4.81 1.832 9.677z" style="stroke:#1a83af;stroke-width:2"/><path fill="none" d="M1272.63 147.01c-60.72 16.81-149.08 41.27-211.35 58.51" style="stroke:#1a83af;stroke-width:2"/><path fill="#1A83AF" d="m1056.09 206.96 9.744 1.435-4.928-2.778 2.778-4.928-7.594 6.271z" style="stroke:#1a83af;stroke-width:2"/><path fill="none" d="M1461.04 128.22c277.49 1.68 985.73 12.7 1573.27 78.78 3.98.45 8.04.95 12.14 1.51" style="stroke:#1a83af;stroke-width:2"/><path fill="#1A83AF" d="m3051.65 209.23-8.365-5.199 3.412 4.512-4.511 3.412 9.464-2.725z" style="stroke:#1a83af;stroke-width:2"/><path fill="none" d="M1460.99 136.39c191.94 13.63 580.44 41.97 909.32 70.61 7.29.64 14.74 1.3 22.27 1.98" style="stroke:#1a83af;stroke-width:2"/><path fill="#1A83AF" d="m2397.79 209.45-8.61-4.783 3.63 4.34-4.34 3.629 9.32-3.186z" style="stroke:#1a83af;stroke-width:2"/><path fill="none" d="M1461.05 139.8c142.84 14.38 388.76 40.14 599.26 67.2 7.2.93 14.63 1.92 22.11 2.95" style="stroke:#1a83af;stroke-width:2"/><path fill="#1A83AF" d="m2087.6 210.66-8.367-5.196 3.414 4.51-4.51 3.415 9.463-2.729z" style="stroke:#1a83af;stroke-width:2"/><path fill="none" d="M1221.79 129.68c-233.18 4.51-730.65 20.75-782.48 77.32-159.93 174.54 331.37 209.98 543.98 217.17" style="stroke:#1a83af;stroke-width:2"/><path fill="#1A83AF" d="m988.57 424.35-8.858-4.306 3.86 4.135-4.134 3.86 9.132-3.689z" style="stroke:#1a83af;stroke-width:2"/><path fill="none" d="M1221.65 127.47c-245.08.41-795.61 9.4-968.34 79.53-128.02 51.98-179.66 74.76-238 200-7.51 16.11-9.31 24.85 0 40 17.05 27.74 47.19 46.11 76.47 58.08" style="stroke:#1a83af;stroke-width:2"/><path fill="#1A83AF" d="m96.47 506.95-6.89-7.038 2.243 5.193-5.194 2.243 9.841-.398z" style="stroke:#1a83af;stroke-width:2"/><path fill="none" d="M1444.13 147.01c91.82 16.98 225.86 41.77 319.22 59.03" style="stroke:#1a83af;stroke-width:2"/><path fill="#1A83AF" d="m1768.33 206.96-8.116-5.579 3.2 4.665-4.664 3.2 9.58-2.286z" style="stroke:#1a83af;stroke-width:2"/><path fill="none" d="M1221.61 131.07c-255.8 7.42-838.74 29.28-915.3 75.93-74.15 45.19-113.54 148.05-128.2 194.92" style="stroke:#1a83af;stroke-width:2"/><path fill="#1A83AF" d="m176.61 406.82 6.468-7.427-4.999 2.648-2.647-5 1.178 9.779z" style="stroke:#1a83af;stroke-width:2"/><path fill="none" d="M1323.92 147.36c-14.34 15.97-34.73 38.68-49.91 55.59" style="stroke:#1a83af;stroke-width:2"/><path fill="#1A83AF" d="m1270.66 206.68 8.994-4.014-5.65.298-.296-5.65-3.048 9.366z" style="stroke:#1a83af;stroke-width:2"/><path fill="none" d="M1460.89 128.91c246.11 3.12 791.05 16.93 847.42 78.09 66.79 72.47-28.41 97.58-116 140-266.09 128.87-617.35 165-802.06 175.11" style="stroke:#1a83af;stroke-width:2"/><path fill="#1A83AF" d="m1385.11 522.38 9.194 3.531-4.2-3.788 3.788-4.201-8.782 4.458z" style="stroke:#1a83af;stroke-width:2"/><path fill="none" d="M1565.69 247.13c-34.24 16.52-83.65 40.38-119.16 57.52" style="stroke:#1a83af;stroke-width:2"/><path fill="#1A83AF" d="m1441.83 306.92 9.844-.309-5.34-1.864 1.863-5.34-6.367 7.513z" style="stroke:#1a83af;stroke-width:2"/><path fill="none" d="M1605.38 247.37c-1.03 26.7-7.14 74.36-36.07 99.63-58.16 50.8-274.13 69.15-400.1 75.62" style="stroke:#1a83af;stroke-width:2"/><path fill="#1A83AF" d="m1164.02 422.88 9.184 3.559-4.19-3.802 3.801-4.189-8.795 4.432z" style="stroke:#1a83af;stroke-width:2"/><path fill="none" d="M613.27 247.13c29.22 16.46 71.35 40.19 101.76 57.31" style="stroke:#1a83af;stroke-width:2"/><path fill="#1A83AF" d="m719.43 306.92-5.894-7.89 1.533 5.445-5.445 1.533 9.806.912z" style="stroke:#1a83af;stroke-width:2"/><path fill="none" d="M815.97 347.01c55.29 16.78 135.71 41.18 192.5 58.41" style="stroke:#1a83af;stroke-width:2"/><path fill="#1A83AF" d="m1013.55 406.96-7.445-6.448 2.662 4.992-4.992 2.661 9.775-1.205z" style="stroke:#1a83af;stroke-width:2"/><path fill="none" d="M171.31 447.36v54.3" style="stroke:#1a83af;stroke-width:2"/><path fill="#1A83AF" d="m171.31 506.68 4-9-4 4-4-4 4 9z" style="stroke:#1a83af;stroke-width:2"/><path fill="none" d="M987.9 247.36c.48 15.57 1.15 37.54 1.66 54.3" style="stroke:#1a83af;stroke-width:2"/><path fill="#1A83AF" d="m989.72 306.68 3.741-9.11-3.884 4.112-4.112-3.884 4.255 8.882z" style="stroke:#1a83af;stroke-width:2"/><path fill="none" d="M1007.3 347.36c13.9 15.84 33.6 38.3 48.4 55.16" style="stroke:#1a83af;stroke-width:2"/><path fill="#1A83AF" d="m1059.35 406.68-2.914-9.408-.377 5.644-5.645-.378 8.936 4.142z" style="stroke:#1a83af;stroke-width:2"/><path fill="none" d="M2189.86 247.25c-.39 27.01-5.55 75.54-35.55 99.75-75.83 61.19-738.18 75.09-985.44 78.16" style="stroke:#1a83af;stroke-width:2"/><path fill="#1A83AF" d="m1163.82 425.22 9.045 3.897-4.045-3.954 3.954-4.046-8.954 4.103z" style="stroke:#1a83af;stroke-width:2"/><path fill="none" d="M2153.2 247.13c-31.07 16.46-75.87 40.19-108.2 57.31" style="stroke:#1a83af;stroke-width:2"/><path fill="#1A83AF" d="m2040.33 306.92 9.827-.648-5.402-1.679 1.68-5.402-6.105 7.729z" style="stroke:#1a83af;stroke-width:2"/><path fill="none" d="M1837.19 247.17c-49.06 26.69-143.06 74.58-228.88 99.83-150.12 44.17-331.69 64.37-439.19 73.05" style="stroke:#1a83af;stroke-width:2"/><path fill="#1A83AF" d="m1164.06 420.45 9.291 3.267-4.307-3.667 3.667-4.307-8.651 4.707z" style="stroke:#1a83af;stroke-width:2"/><path fill="none" d="M1897.27 247.13c22.06 16.25 53.75 39.6 76.92 56.68" style="stroke:#1a83af;stroke-width:2"/><path fill="#1A83AF" d="m1978.41 306.92-4.854-8.57.835 5.595-5.595.836 9.614 2.139z" style="stroke:#1a83af;stroke-width:2"/></svg>