<svg xmlns="http://www.w3.org/2000/svg" xmlns:xlink="http://www.w3.org/1999/xlink" width="700" height="1193" preserveAspectRatio="none" style="width:700px;height:1193px;background:#00000000"><a xlink:actuate="onRequest" xlink:href="#a" xlink:show="new" xlink:title="#resource" xlink:type="simple" target="_top"><rect id="a" width="195" height="275.836" x="253" y="7" fill="#3D176E" rx="2.5" ry="2.5" style="stroke:#000d19;stroke-width:1.5"/><circle cx="305.75" cy="26.895" r="11" fill="#E98DF7" style="stroke:#000d19;stroke-width:1"/><path d="M308.719 32.535q-.578.297-1.219.438-.64.156-1.344.156-2.5 0-3.828-1.64-1.312-1.657-1.312-4.782t1.312-4.781q1.328-1.656 3.828-1.656.703 0 1.344.156.656.156 1.219.453v2.719q-.625-.578-1.219-.844-.594-.281-1.219-.281-1.344 0-2.031 1.078-.688 1.062-.688 3.156 0 2.094.688 3.172.688 1.062 2.031 1.062.625 0 1.219-.265.594-.281 1.219-.86v2.72Z"/><text x="331.25" y="32.78" fill="#D9B8FF" font-family="Helvetica" font-size="17" textLength="71">resource</text><path d="M254 46.789h193" style="stroke:#000d19;stroke-width:1.5"/><text x="264" y="65.999" fill="#D9B8FF" font-family="sans-serif" font-size="11" font-weight="bold" textLength="12">id</text><text x="276" y="65.999" fill="#D9B8FF" font-family="sans-serif" font-size="11" textLength="41">: string</text><text x="264" y="88.804" fill="#D9B8FF" font-family="sans-serif" font-size="11" font-weight="bold" textLength="28">tags</text><text x="292" y="88.804" fill="#D9B8FF" font-family="sans-serif" font-size="11" textLength="145">: dictionary[string, string]</text><text x="264" y="111.609" fill="#D9B8FF" font-family="sans-serif" font-size="11" font-weight="bold" textLength="35">name</text><text x="299" y="111.609" fill="#D9B8FF" font-family="sans-serif" font-size="11" textLength="41">: string</text><text x="264" y="134.414" fill="#D9B8FF" font-family="sans-serif" font-size="11" font-weight="bold" textLength="35">ctime</text><text x="299" y="134.414" fill="#D9B8FF" font-family="sans-serif" font-size="11" textLength="58">: datetime</text><text x="264" y="157.218" fill="#D9B8FF" font-family="sans-serif" font-size="11" font-weight="bold" textLength="24">age</text><text x="288" y="157.218" fill="#D9B8FF" font-family="sans-serif" font-size="11" textLength="55">: duration</text><text x="264" y="180.023" fill="#D9B8FF" font-family="sans-serif" font-size="11" font-weight="bold" textLength="39">mtime</text><text x="303" y="180.023" fill="#D9B8FF" font-family="sans-serif" font-size="11" textLength="58">: datetime</text><text x="264" y="202.828" fill="#D9B8FF" font-family="sans-serif" font-size="11" font-weight="bold" textLength="75">last_update</text><text x="339" y="202.828" fill="#D9B8FF" font-family="sans-serif" font-size="11" textLength="55">: duration</text><text x="264" y="225.632" fill="#D9B8FF" font-family="sans-serif" font-size="11" font-weight="bold" textLength="36">atime</text><text x="300" y="225.632" fill="#D9B8FF" font-family="sans-serif" font-size="11" textLength="58">: datetime</text><text x="264" y="248.437" fill="#D9B8FF" font-family="sans-serif" font-size="11" font-weight="bold" textLength="74">last_access</text><text x="338" y="248.437" fill="#D9B8FF" font-family="sans-serif" font-size="11" textLength="55">: duration</text><text x="264" y="271.242" fill="#D9B8FF" font-family="sans-serif" font-size="11" font-weight="bold" textLength="27">kind</text><text x="291" y="271.242" fill="#D9B8FF" font-family="sans-serif" font-size="11" textLength="41">: string</text></a><a xlink:actuate="onRequest" xlink:href="#b" xlink:show="new" xlink:title="#phantom_resource" xlink:type="simple" target="_top"><rect id="b" width="198" height="39.789" x="173.5" y="404" fill="#3D176E" rx="2.5" ry="2.5" style="stroke:#000d19;stroke-width:1.5"/><circle cx="188.5" cy="423.894" r="11" fill="#E98DF7" style="stroke:#000d19;stroke-width:1"/><path d="M191.469 429.535q-.578.297-1.219.438-.64.156-1.344.156-2.5 0-3.828-1.64-1.312-1.657-1.312-4.782t1.312-4.781q1.328-1.656 3.828-1.656.703 0 1.344.156.656.156 1.219.453v2.719q-.625-.579-1.219-.844-.594-.281-1.219-.281-1.344 0-2.031 1.078-.688 1.062-.688 3.156 0 2.094.688 3.172.688 1.062 2.031 1.062.625 0 1.219-.265.594-.281 1.219-.86v2.72Z"/><text x="207.5" y="429.78" fill="#D9B8FF" font-family="Helvetica" font-size="17" textLength="156">phantom_resource</text></a><a xlink:actuate="onRequest" xlink:href="#c" xlink:show="new" xlink:title="#kubernetes_resource" xlink:type="simple" target="_top"><rect id="c" width="216" height="116.203" x="321.5" y="504" fill="#3D176E" rx="2.5" ry="2.5" style="stroke:#000d19;stroke-width:1.5"/><circle cx="336.5" cy="523.894" r="11" fill="#E98DF7" style="stroke:#000d19;stroke-width:1"/><path d="M339.469 529.535q-.578.297-1.219.438-.64.156-1.344.156-2.5 0-3.828-1.64-1.312-1.657-1.312-4.782t1.312-4.781q1.328-1.657 3.828-1.657.703 0 1.344.157.656.156 1.219.453v2.719q-.625-.578-1.219-.844-.594-.281-1.219-.281-1.344 0-2.031 1.078-.688 1.062-.688 3.156 0 2.094.688 3.172.688 1.062 2.031 1.062.625 0 1.219-.265.594-.282 1.219-.86v2.72Z"/><text x="355.5" y="529.78" fill="#D9B8FF" font-family="Helvetica" font-size="17" textLength="174">kubernetes_resource</text><path d="M322.5 543.789h214" style="stroke:#000d19;stroke-width:1.5"/><text x="332.5" y="563" fill="#D9B8FF" font-family="sans-serif" font-size="11" font-weight="bold" textLength="109">resource_version</text><text x="441.5" y="563" fill="#D9B8FF" font-family="sans-serif" font-size="11" textLength="41">: string</text><text x="332.5" y="585.804" fill="#D9B8FF" font-family="sans-serif" font-size="11" font-weight="bold" textLength="73">namespace</text><text x="405.5" y="585.804" fill="#D9B8FF" font-family="sans-serif" font-size="11" textLength="41">: string</text><text x="332.5" y="608.609" fill="#D9B8FF" font-family="sans-serif" font-size="11" font-weight="bold" textLength="39">labels</text><text x="371.5" y="608.609" fill="#D9B8FF" font-family="sans-serif" font-size="11" textLength="145">: dictionary[string, string]</text></a><a xlink:actuate="onRequest" xlink:href="#d" xlink:show="new" xlink:title="#quota" xlink:type="simple" target="_top"><rect id="d" width="134" height="116.203" x="221.5" y="680" fill="#3D176E" rx="2.5" ry="2.5" style="stroke:#000d19;stroke-width:1.5"/><circle cx="256.3" cy="699.894" r="11" fill="#E98DF7" style="stroke:#000d19;stroke-width:1"/><path d="M259.269 705.535q-.578.297-1.219.438-.64.156-1.344.156-2.5 0-3.828-1.64-1.312-1.657-1.312-4.782t1.312-4.781q1.328-1.657 3.828-1.657.703 0 1.344.157.656.156 1.219.453v2.719q-.625-.578-1.219-.844-.594-.281-1.219-.281-1.344 0-2.031 1.078-.688 1.062-.688 3.156 0 2.094.688 3.172.688 1.062 2.031 1.062.625 0 1.219-.265.594-.282 1.219-.86v2.72Z"/><text x="279.7" y="705.78" fill="#D9B8FF" font-family="Helvetica" font-size="17" textLength="48">quota</text><path d="M222.5 719.789h132" style="stroke:#000d19;stroke-width:1.5"/><text x="232.5" y="739" fill="#D9B8FF" font-family="sans-serif" font-size="11" font-weight="bold" textLength="37">quota</text><text x="269.5" y="739" fill="#D9B8FF" font-family="sans-serif" font-size="11" textLength="46">: double</text><text x="232.5" y="761.804" fill="#D9B8FF" font-family="sans-serif" font-size="11" font-weight="bold" textLength="39">usage</text><text x="271.5" y="761.804" fill="#D9B8FF" font-family="sans-serif" font-size="11" textLength="46">: double</text><text x="232.5" y="784.609" fill="#D9B8FF" font-family="sans-serif" font-size="11" font-weight="bold" textLength="71">quota_type</text><text x="303.5" y="784.609" fill="#D9B8FF" font-family="sans-serif" font-size="11" textLength="41">: string</text></a><a xlink:actuate="onRequest" xlink:href="#e" xlink:show="new" xlink:title="#kubernetes_resource_quota" xlink:type="simple" target="_top"><rect id="e" width="376" height="93.398" x="165.5" y="917" fill="#3D176E" rx="2.5" ry="2.5" style="stroke:#000d19;stroke-width:1.5"/><circle cx="228.75" cy="936.894" r="11" fill="#E98DF7" style="stroke:#000d19;stroke-width:1"/><path d="M231.719 942.535q-.578.297-1.219.438-.64.156-1.344.156-2.5 0-3.828-1.64-1.312-1.657-1.312-4.782t1.312-4.781q1.328-1.657 3.828-1.657.703 0 1.344.157.656.156 1.219.453v2.719q-.625-.578-1.219-.844-.594-.281-1.219-.281-1.344 0-2.031 1.078-.688 1.062-.688 3.156 0 2.094.688 3.172.688 1.062 2.031 1.062.625 0 1.219-.265.594-.282 1.219-.86v2.72Z"/><text x="254.25" y="942.78" fill="#D9B8FF" font-family="Helvetica" font-size="17" textLength="231">kubernetes_resource_quota</text><path d="M166.5 956.789h374" style="stroke:#000d19;stroke-width:1.5"/><text x="176.5" y="976" fill="#D9B8FF" font-family="sans-serif" font-size="11" font-weight="bold" textLength="145">resource_quota_status</text><text x="321.5" y="976" fill="#D9B8FF" font-family="sans-serif" font-size="11" textLength="209">: kubernetes_resource_quota_status</text><text x="176.5" y="998.804" fill="#D9B8FF" font-family="sans-serif" font-size="11" font-weight="bold" textLength="135">resource_quota_spec</text><text x="311.5" y="998.804" fill="#D9B8FF" font-family="sans-serif" font-size="11" textLength="200">: kubernetes_resource_quota_spec</text></a><a xlink:actuate="onRequest" xlink:href="#f" xlink:show="new" xlink:title="#kubernetes_resource_quota_status" xlink:type="simple" target="_top"><rect id="f" width="333" height="93.398" x="7" y="1081.5" fill="#3D176E" rx="2.5" ry="2.5" style="stroke:#000d19;stroke-width:1.5"/><circle cx="22" cy="1101.395" r="11" fill="#E98DF7" style="stroke:#000d19;stroke-width:1"/><path d="M24.969 1107.035q-.578.297-1.219.438-.64.156-1.344.156-2.5 0-3.828-1.64-1.312-1.657-1.312-4.782t1.312-4.781q1.328-1.656 3.828-1.656.703 0 1.344.156.656.156 1.219.453v2.719q-.625-.578-1.219-.844-.594-.281-1.219-.281-1.343 0-2.031 1.078-.688 1.062-.688 3.156 0 2.094.688 3.172.688 1.062 2.031 1.062.625 0 1.219-.265.594-.281 1.219-.86v2.72Z"/><text x="41" y="1107.28" fill="#D9B8FF" font-family="Helvetica" font-size="17" textLength="291">kubernetes_resource_quota_status</text><path d="M8 1121.289h331" style="stroke:#000d19;stroke-width:1.5"/><text x="18" y="1140.499" fill="#D9B8FF" font-family="sans-serif" font-size="11" font-weight="bold" textLength="29">hard</text><text x="47" y="1140.499" fill="#D9B8FF" font-family="sans-serif" font-size="11" textLength="28">: any</text><text x="18" y="1163.304" fill="#D9B8FF" font-family="sans-serif" font-size="11" font-weight="bold" textLength="31">used</text><text x="49" y="1163.304" fill="#D9B8FF" font-family="sans-serif" font-size="11" textLength="28">: any</text></a><a xlink:actuate="onRequest" xlink:href="#g" xlink:show="new" xlink:title="#kubernetes_resource_quota_spec" xlink:type="simple" target="_top"><rect id="g" width="318" height="116.203" x="375.5" y="1070" fill="#3D176E" rx="2.5" ry="2.5" style="stroke:#000d19;stroke-width:1.5"/><circle cx="390.5" cy="1089.895" r="11" fill="#E98DF7" style="stroke:#000d19;stroke-width:1"/><path d="M393.469 1095.535q-.578.297-1.219.438-.64.156-1.344.156-2.5 0-3.828-1.64-1.312-1.657-1.312-4.782t1.312-4.781q1.328-1.656 3.828-1.656.703 0 1.344.156.656.156 1.219.453v2.719q-.625-.578-1.219-.844-.594-.281-1.219-.281-1.344 0-2.031 1.078-.688 1.062-.688 3.156 0 2.094.688 3.172.688 1.062 2.031 1.062.625 0 1.219-.265.594-.281 1.219-.86v2.72Z"/><text x="409.5" y="1095.78" fill="#D9B8FF" font-family="Helvetica" font-size="17" textLength="276">kubernetes_resource_quota_spec</text><path d="M376.5 1109.789h316" style="stroke:#000d19;stroke-width:1.5"/><text x="386.5" y="1128.999" fill="#D9B8FF" font-family="sans-serif" font-size="11" font-weight="bold" textLength="29">hard</text><text x="415.5" y="1128.999" fill="#D9B8FF" font-family="sans-serif" font-size="11" textLength="28">: any</text><text x="386.5" y="1151.804" fill="#D9B8FF" font-family="sans-serif" font-size="11" font-weight="bold" textLength="96">scope_selector</text><text x="482.5" y="1151.804" fill="#D9B8FF" font-family="sans-serif" font-size="11" textLength="28">: any</text><text x="386.5" y="1174.609" fill="#D9B8FF" font-family="sans-serif" font-size="11" font-weight="bold" textLength="45">scopes</text><text x="431.5" y="1174.609" fill="#D9B8FF" font-family="sans-serif" font-size="11" textLength="49">: string[]</text></a><path fill="none" d="M306.39 302.65c-11.42 40.56-22.25 79.01-28.47 101.1m21.76-103.11 12.16-17.36 1.32 21.15-13.48-3.79zm80.73 2.48c13.4 70.4 28.37 149.02 38.21 200.74m-45.17-199.87 3.14-20.95 10.61 18.33-13.75 2.62zm-98.95 160.1c2.79 54.39 7.86 153.24 11.07 215.86m-18.06-215.57 5.97-20.33 8.01 19.61-13.98.72zm147.33 175.69c-15.62 82.09-39.82 209.29-52.65 276.77M408 638.58l10.61-18.34 3.14 20.95-13.75-2.61zM310.75 815.5c9.82 33.78 21.04 72.34 29.52 101.5m-36.25-99.57 1.13-21.16 12.31 17.25-13.44 3.91zm-1.14 192.77c-23.39 21.12-51.21 46.23-75.04 67.74" style="stroke:#ffaf37;stroke-width:2"/><path fill="#FFAF37" d="m224.05 1081.36 9.365-3.047-5.648-.298.297-5.649-4.014 8.994z" style="stroke:#ffaf37;stroke-width:2"/><path fill="none" d="M404.4 1010.2c19.39 17.41 41.8 37.53 62.51 56.12" style="stroke:#ffaf37;stroke-width:2"/><path fill="#FFAF37" d="m470.75 1069.77-4.03-8.986.307 5.648-5.648.308 9.371 3.03z" style="stroke:#ffaf37;stroke-width:2"/></svg>