<svg xmlns="http://www.w3.org/2000/svg" xmlns:xlink="http://www.w3.org/1999/xlink" width="611" height="252" preserveAspectRatio="none" style="width:611px;height:252px;background:#00000000"><a xlink:actuate="onRequest" xlink:href="#a" xlink:show="new" xlink:title="#kubernetes_namespace" xlink:type="simple" target="_top"><rect id="a" width="239" height="39.789" x="184" y="7" fill="#3D176E" rx="2.5" ry="2.5" style="stroke:#000d19;stroke-width:1.5"/><circle cx="199" cy="26.895" r="11" fill="#E98DF7" style="stroke:#000d19;stroke-width:1"/><path d="M201.969 32.535q-.578.297-1.219.438-.64.156-1.344.156-2.5 0-3.828-1.64-1.312-1.657-1.312-4.782t1.312-4.781q1.328-1.656 3.828-1.656.703 0 1.344.156.656.156 1.219.453v2.719q-.625-.578-1.219-.844-.594-.281-1.219-.281-1.344 0-2.031 1.078-.688 1.062-.688 3.156 0 2.094.688 3.172.688 1.062 2.031 1.062.625 0 1.219-.265.594-.281 1.219-.86v2.72Z"/><text x="218" y="32.78" fill="#D9B8FF" font-family="Helvetica" font-size="17" textLength="197">kubernetes_namespace</text></a><a xlink:actuate="onRequest" xlink:href="#b" xlink:show="new" xlink:title="#kubernetes_stateful_set" xlink:type="simple" target="_top"><rect id="b" width="243" height="39.789" x="7" y="107" fill="#3D176E" rx="2.5" ry="2.5" style="stroke:#000d19;stroke-width:1.5"/><circle cx="22" cy="126.894" r="11" fill="#E98DF7" style="stroke:#000d19;stroke-width:1"/><path d="M24.969 132.535q-.578.297-1.219.438-.64.156-1.344.156-2.5 0-3.828-1.64-1.312-1.657-1.312-4.782t1.312-4.781q1.328-1.657 3.828-1.657.703 0 1.344.157.656.156 1.219.453v2.719q-.625-.579-1.219-.844-.594-.281-1.219-.281-1.343 0-2.031 1.078-.688 1.062-.688 3.156 0 2.094.688 3.172.688 1.062 2.031 1.062.625 0 1.219-.265.594-.281 1.219-.86v2.72Z"/><text x="41" y="132.78" fill="#D9B8FF" font-family="Helvetica" font-size="17" textLength="201">kubernetes_stateful_set</text></a><a xlink:actuate="onRequest" xlink:href="#c" xlink:show="new" xlink:title="#kubernetes_controller_revision" xlink:type="simple" target="_top"><rect id="c" width="300" height="39.789" x="153.5" y="207" fill="#3D176E" rx="2.5" ry="2.5" style="stroke:#000d19;stroke-width:1.5"/><circle cx="168.5" cy="226.894" r="11" fill="#E98DF7" style="stroke:#000d19;stroke-width:1"/><path d="M171.469 232.535q-.578.297-1.219.438-.64.156-1.344.156-2.5 0-3.828-1.64-1.312-1.657-1.312-4.782t1.312-4.781q1.328-1.656 3.828-1.656.703 0 1.344.156.656.156 1.219.453v2.719q-.625-.579-1.219-.844-.594-.281-1.219-.281-1.344 0-2.031 1.078-.688 1.062-.688 3.156 0 2.094.688 3.172.688 1.062 2.031 1.062.625 0 1.219-.265.594-.281 1.219-.86v2.72Z"/><text x="187.5" y="232.78" fill="#D9B8FF" font-family="Helvetica" font-size="17" textLength="258">kubernetes_controller_revision</text></a><a xlink:actuate="onRequest" xlink:href="#d" xlink:show="new" xlink:title="#kubernetes_daemon_set" xlink:type="simple" target="_top"><rect id="d" width="247" height="39.789" x="357" y="107" fill="#3D176E" rx="2.5" ry="2.5" style="stroke:#000d19;stroke-width:1.5"/><circle cx="372" cy="126.894" r="11" fill="#E98DF7" style="stroke:#000d19;stroke-width:1"/><path d="M374.969 132.535q-.578.297-1.219.438-.64.156-1.344.156-2.5 0-3.828-1.64-1.312-1.657-1.312-4.782t1.312-4.781q1.328-1.657 3.828-1.657.703 0 1.344.157.656.156 1.219.453v2.719q-.625-.579-1.219-.844-.594-.281-1.219-.281-1.344 0-2.031 1.078-.688 1.062-.688 3.156 0 2.094.688 3.172.688 1.062 2.031 1.062.625 0 1.219-.265.594-.281 1.219-.86v2.72Z"/><text x="391" y="132.78" fill="#D9B8FF" font-family="Helvetica" font-size="17" textLength="205">kubernetes_daemon_set</text></a><path fill="none" d="M269.34 47.13c-29.39 16.46-71.76 40.19-102.35 57.31" style="stroke:#1a83af;stroke-width:2"/><path fill="#1A83AF" d="m162.57 106.92 9.806-.912-5.445-1.533 1.533-5.445-5.894 7.89z" style="stroke:#1a83af;stroke-width:2"/><path fill="none" d="M303.5 47.35v154.4" style="stroke:#1a83af;stroke-width:2"/><path fill="#1A83AF" d="m303.5 206.87 4-9-4 4-4-4 4 9z" style="stroke:#1a83af;stroke-width:2"/><path fill="none" d="M338.05 47.13c29.72 16.46 72.58 40.19 103.52 57.31" style="stroke:#1a83af;stroke-width:2"/><path fill="#1A83AF" d="m446.04 106.92-5.945-7.853 1.568 5.436-5.435 1.567 9.812.85z" style="stroke:#1a83af;stroke-width:2"/><path fill="none" d="M162.66 147.13c29.39 16.46 71.76 40.19 102.35 57.31" style="stroke:#1a83af;stroke-width:2"/><path fill="#1A83AF" d="m269.43 206.92-5.894-7.89 1.533 5.445-5.446 1.533 9.807.912z" style="stroke:#1a83af;stroke-width:2"/><path fill="none" d="M445.95 147.13c-29.72 16.46-72.58 40.19-103.52 57.31" style="stroke:#1a83af;stroke-width:2"/><path fill="#1A83AF" d="m337.96 206.92 9.812-.85-5.435-1.567 1.567-5.436-5.944 7.853z" style="stroke:#1a83af;stroke-width:2"/></svg>