<svg xmlns="http://www.w3.org/2000/svg" xmlns:xlink="http://www.w3.org/1999/xlink" width="581" height="252" preserveAspectRatio="none" style="width:581px;height:252px;background:#00000000"><a xlink:actuate="onRequest" xlink:href="#a" xlink:show="new" xlink:title="#kubernetes_daemon_set" xlink:type="simple" target="_top"><rect id="a" width="247" height="39.789" x="7" y="107" fill="#3D176E" rx="2.5" ry="2.5" style="stroke:#000d19;stroke-width:1.5"/><circle cx="22" cy="126.894" r="11" fill="#E98DF7" style="stroke:#000d19;stroke-width:1"/><path d="M24.969 132.535q-.578.297-1.219.438-.64.156-1.344.156-2.5 0-3.828-1.64-1.312-1.657-1.312-4.782t1.312-4.781q1.328-1.657 3.828-1.657.703 0 1.344.157.656.156 1.219.453v2.719q-.625-.579-1.219-.844-.594-.281-1.219-.281-1.343 0-2.031 1.078-.688 1.062-.688 3.156 0 2.094.688 3.172.688 1.062 2.031 1.062.625 0 1.219-.265.594-.281 1.219-.86v2.72Z"/><text x="41" y="132.78" fill="#D9B8FF" font-family="Helvetica" font-size="17" textLength="205">kubernetes_daemon_set</text></a><a xlink:actuate="onRequest" xlink:href="#b" xlink:show="new" xlink:title="#kubernetes_stateful_set" xlink:type="simple" target="_top"><rect id="b" width="243" height="39.789" x="289" y="107" fill="#3D176E" rx="2.5" ry="2.5" style="stroke:#000d19;stroke-width:1.5"/><circle cx="304" cy="126.894" r="11" fill="#E98DF7" style="stroke:#000d19;stroke-width:1"/><path d="M306.969 132.535q-.578.297-1.219.438-.64.156-1.344.156-2.5 0-3.828-1.64-1.312-1.657-1.312-4.782t1.312-4.781q1.328-1.657 3.828-1.657.703 0 1.344.157.656.156 1.219.453v2.719q-.625-.579-1.219-.844-.594-.281-1.219-.281-1.344 0-2.031 1.078-.688 1.062-.688 3.156 0 2.094.688 3.172.688 1.062 2.031 1.062.625 0 1.219-.265.594-.281 1.219-.86v2.72Z"/><text x="323" y="132.78" fill="#D9B8FF" font-family="Helvetica" font-size="17" textLength="201">kubernetes_stateful_set</text></a><a xlink:actuate="onRequest" xlink:href="#c" xlink:show="new" xlink:title="#kubernetes_namespace" xlink:type="simple" target="_top"><rect id="c" width="239" height="39.789" x="291" y="7" fill="#3D176E" rx="2.5" ry="2.5" style="stroke:#000d19;stroke-width:1.5"/><circle cx="306" cy="26.895" r="11" fill="#E98DF7" style="stroke:#000d19;stroke-width:1"/><path d="M308.969 32.535q-.578.297-1.219.438-.64.156-1.344.156-2.5 0-3.828-1.64-1.312-1.657-1.312-4.782t1.312-4.781q1.328-1.656 3.828-1.656.703 0 1.344.156.656.156 1.219.453v2.719q-.625-.578-1.219-.844-.594-.281-1.219-.281-1.344 0-2.031 1.078-.688 1.062-.688 3.156 0 2.094.688 3.172.688 1.062 2.031 1.062.625 0 1.219-.265.594-.281 1.219-.86v2.72Z"/><text x="325" y="32.78" fill="#D9B8FF" font-family="Helvetica" font-size="17" textLength="197">kubernetes_namespace</text></a><a xlink:actuate="onRequest" xlink:href="#d" xlink:show="new" xlink:title="#kubernetes_controller_revision" xlink:type="simple" target="_top"><rect id="d" width="300" height="39.789" x="260.5" y="207" fill="#3D176E" rx="2.5" ry="2.5" style="stroke:#000d19;stroke-width:1.5"/><circle cx="275.5" cy="226.894" r="11" fill="#E98DF7" style="stroke:#000d19;stroke-width:1"/><path d="M278.469 232.535q-.578.297-1.219.438-.64.156-1.344.156-2.5 0-3.828-1.64-1.312-1.657-1.312-4.782t1.312-4.781q1.328-1.656 3.828-1.656.703 0 1.344.156.656.156 1.219.453v2.719q-.625-.579-1.219-.844-.594-.281-1.219-.281-1.344 0-2.031 1.078-.688 1.062-.688 3.156 0 2.094.688 3.172.688 1.062 2.031 1.062.625 0 1.219-.265.594-.281 1.219-.86v2.72Z"/><text x="294.5" y="232.78" fill="#D9B8FF" font-family="Helvetica" font-size="17" textLength="258">kubernetes_controller_revision</text></a><path fill="none" d="M184.82 147.01c47.66 16.68 116.86 40.9 166.04 58.12" style="stroke:#1a83af;stroke-width:2"/><path fill="#1A83AF" d="m355.85 206.87-7.182-6.739 2.46 5.094-5.093 2.46 9.815-.815z" style="stroke:#1a83af;stroke-width:2"/><path fill="none" d="M410.5 147.36v54.3" style="stroke:#1a83af;stroke-width:2"/><path fill="#1A83AF" d="m410.5 206.68 4-9-4 4-4-4 4 9z" style="stroke:#1a83af;stroke-width:2"/><path fill="none" d="M473.05 47.13c28.63 12.24 59.84 31.32 76.45 59.87 24.76 42.56-31.42 77.21-79.6 97.92" style="stroke:#1a83af;stroke-width:2"/><path fill="#1A83AF" d="m465.26 206.88 9.847.183-5.241-2.128 2.129-5.242-6.735 7.187z" style="stroke:#1a83af;stroke-width:2"/><path fill="none" d="M410.5 47.36v54.3" style="stroke:#1a83af;stroke-width:2"/><path fill="#1A83AF" d="m410.5 106.68 4-9-4 4-4-4 4 9z" style="stroke:#1a83af;stroke-width:2"/><path fill="none" d="M356.18 47.01c-47.66 16.68-116.86 40.9-166.04 58.12" style="stroke:#1a83af;stroke-width:2"/><path fill="#1A83AF" d="m185.15 106.87 9.815.816-5.094-2.461 2.461-5.094-7.182 6.739z" style="stroke:#1a83af;stroke-width:2"/></svg>