<svg xmlns="http://www.w3.org/2000/svg" xmlns:xlink="http://www.w3.org/1999/xlink" width="1804" height="452" contentScriptType="application/ecmascript" contentStyleType="text/css" style="width:1804px;height:452px;background:#00000000" preserveAspectRatio="none" version="1.1" viewBox="0 0 1804 452" zoomAndPan="magnify"><g><a href="#kubernetes_deployment" target="_top" title="#kubernetes_deployment" xlink:actuate="onRequest" xlink:href="#kubernetes_deployment" xlink:show="new" xlink:title="#kubernetes_deployment" xlink:type="simple"><rect id="kubernetes_deployment" width="245" height="39.789" x="783.52" y="107" fill="#3D176E" codeLine="23" rx="2.5" ry="2.5" style="stroke:#000d19;stroke-width:1.5"/><ellipse cx="798.52" cy="126.894" fill="#E98DF7" rx="11" ry="11" style="stroke:#000d19;stroke-width:1"/><path fill="#000" d="M801.4888,132.5352 Q800.9106,132.832 800.27,132.9727 Q799.6294,133.1289 798.9263,133.1289 Q796.4263,133.1289 795.0981,131.4883 Q793.7856,129.832 793.7856,126.707 Q793.7856,123.582 795.0981,121.9258 Q796.4263,120.2695 798.9263,120.2695 Q799.6294,120.2695 800.27,120.4258 Q800.9263,120.582 801.4888,120.8789 L801.4888,123.5977 Q800.8638,123.0195 800.27,122.7539 Q799.6763,122.4727 799.0513,122.4727 Q797.7075,122.4727 797.02,123.5508 Q796.3325,124.6133 796.3325,126.707 Q796.3325,128.8008 797.02,129.8789 Q797.7075,130.9414 799.0513,130.9414 Q799.6763,130.9414 800.27,130.6758 Q800.8638,130.3945 801.4888,129.8164 L801.4888,132.5352 Z"/><text x="817.52" y="132.78" fill="#D9B8FF" font-family="Helvetica" font-size="17" lengthAdjust="spacing" textLength="203">kubernetes_deployment</text></a><a href="#kubernetes_replica_set" target="_top" title="#kubernetes_replica_set" xlink:actuate="onRequest" xlink:href="#kubernetes_replica_set" xlink:show="new" xlink:title="#kubernetes_replica_set" xlink:type="simple"><rect id="kubernetes_replica_set" width="234" height="39.789" x="650.02" y="207" fill="#3D176E" codeLine="26" rx="2.5" ry="2.5" style="stroke:#000d19;stroke-width:1.5"/><ellipse cx="665.02" cy="226.894" fill="#E98DF7" rx="11" ry="11" style="stroke:#000d19;stroke-width:1"/><path fill="#000" d="M667.9888,232.5352 Q667.4106,232.832 666.77,232.9727 Q666.1294,233.1289 665.4263,233.1289 Q662.9263,233.1289 661.5981,231.4883 Q660.2856,229.832 660.2856,226.707 Q660.2856,223.582 661.5981,221.9258 Q662.9263,220.2695 665.4263,220.2695 Q666.1294,220.2695 666.77,220.4258 Q667.4263,220.582 667.9888,220.8789 L667.9888,223.5977 Q667.3638,223.0195 666.77,222.7539 Q666.1763,222.4727 665.5513,222.4727 Q664.2075,222.4727 663.52,223.5508 Q662.8325,224.6133 662.8325,226.707 Q662.8325,228.8008 663.52,229.8789 Q664.2075,230.9414 665.5513,230.9414 Q666.1763,230.9414 666.77,230.6758 Q667.3638,230.3945 667.9888,229.8164 L667.9888,232.5352 Z"/><text x="684.02" y="232.78" fill="#D9B8FF" font-family="Helvetica" font-size="17" lengthAdjust="spacing" textLength="192">kubernetes_replica_set</text></a><a href="#kubernetes_pod" target="_top" title="#kubernetes_pod" xlink:actuate="onRequest" xlink:href="#kubernetes_pod" xlink:show="new" xlink:title="#kubernetes_pod" xlink:type="simple"><rect id="kubernetes_pod" width="175" height="39.789" x="1024.52" y="307" fill="#3D176E" codeLine="29" rx="2.5" ry="2.5" style="stroke:#000d19;stroke-width:1.5"/><ellipse cx="1039.52" cy="326.894" fill="#E98DF7" rx="11" ry="11" style="stroke:#000d19;stroke-width:1"/><path fill="#000" d="M1042.4888,332.5352 Q1041.9106,332.832 1041.27,332.9727 Q1040.6294,333.1289 1039.9263,333.1289 Q1037.4263,333.1289 1036.0981,331.4883 Q1034.7856,329.832 1034.7856,326.707 Q1034.7856,323.582 1036.0981,321.9258 Q1037.4263,320.2695 1039.9263,320.2695 Q1040.6294,320.2695 1041.27,320.4258 Q1041.9263,320.582 1042.4888,320.8789 L1042.4888,323.5977 Q1041.8638,323.0195 1041.27,322.7539 Q1040.6763,322.4727 1040.0513,322.4727 Q1038.7075,322.4727 1038.02,323.5508 Q1037.3325,324.6133 1037.3325,326.707 Q1037.3325,328.8008 1038.02,329.8789 Q1038.7075,330.9414 1040.0513,330.9414 Q1040.6763,330.9414 1041.27,330.6758 Q1041.8638,330.3945 1042.4888,329.8164 L1042.4888,332.5352 Z"/><text x="1058.52" y="332.78" fill="#D9B8FF" font-family="Helvetica" font-size="17" lengthAdjust="spacing" textLength="133">kubernetes_pod</text></a><a href="#kubernetes_service" target="_top" title="#kubernetes_service" xlink:actuate="onRequest" xlink:href="#kubernetes_service" xlink:show="new" xlink:title="#kubernetes_service" xlink:type="simple"><rect id="kubernetes_service" width="203" height="39.789" x="129.52" y="207" fill="#3D176E" codeLine="32" rx="2.5" ry="2.5" style="stroke:#000d19;stroke-width:1.5"/><ellipse cx="144.52" cy="226.894" fill="#E98DF7" rx="11" ry="11" style="stroke:#000d19;stroke-width:1"/><path fill="#000" d="M147.4888,232.5352 Q146.9106,232.832 146.27,232.9727 Q145.6294,233.1289 144.9263,233.1289 Q142.4263,233.1289 141.0981,231.4883 Q139.7856,229.832 139.7856,226.707 Q139.7856,223.582 141.0981,221.9258 Q142.4263,220.2695 144.9263,220.2695 Q145.6294,220.2695 146.27,220.4258 Q146.9263,220.582 147.4888,220.8789 L147.4888,223.5977 Q146.8638,223.0195 146.27,222.7539 Q145.6763,222.4727 145.0513,222.4727 Q143.7075,222.4727 143.02,223.5508 Q142.3325,224.6133 142.3325,226.707 Q142.3325,228.8008 143.02,229.8789 Q143.7075,230.9414 145.0513,230.9414 Q145.6763,230.9414 146.27,230.6758 Q146.8638,230.3945 147.4888,229.8164 L147.4888,232.5352 Z"/><text x="163.52" y="232.78" fill="#D9B8FF" font-family="Helvetica" font-size="17" lengthAdjust="spacing" textLength="161">kubernetes_service</text></a><a href="#kubernetes_daemon_set" target="_top" title="#kubernetes_daemon_set" xlink:actuate="onRequest" xlink:href="#kubernetes_daemon_set" xlink:show="new" xlink:title="#kubernetes_daemon_set" xlink:type="simple"><rect id="kubernetes_daemon_set" width="247" height="39.789" x="367.52" y="207" fill="#3D176E" codeLine="35" rx="2.5" ry="2.5" style="stroke:#000d19;stroke-width:1.5"/><ellipse cx="382.52" cy="226.894" fill="#E98DF7" rx="11" ry="11" style="stroke:#000d19;stroke-width:1"/><path fill="#000" d="M385.4888,232.5352 Q384.9106,232.832 384.27,232.9727 Q383.6294,233.1289 382.9263,233.1289 Q380.4263,233.1289 379.0981,231.4883 Q377.7856,229.832 377.7856,226.707 Q377.7856,223.582 379.0981,221.9258 Q380.4263,220.2695 382.9263,220.2695 Q383.6294,220.2695 384.27,220.4258 Q384.9263,220.582 385.4888,220.8789 L385.4888,223.5977 Q384.8638,223.0195 384.27,222.7539 Q383.6763,222.4727 383.0513,222.4727 Q381.7075,222.4727 381.02,223.5508 Q380.3325,224.6133 380.3325,226.707 Q380.3325,228.8008 381.02,229.8789 Q381.7075,230.9414 383.0513,230.9414 Q383.6763,230.9414 384.27,230.6758 Q384.8638,230.3945 385.4888,229.8164 L385.4888,232.5352 Z"/><text x="401.52" y="232.78" fill="#D9B8FF" font-family="Helvetica" font-size="17" lengthAdjust="spacing" textLength="205">kubernetes_daemon_set</text></a><a href="#kubernetes_stateful_set" target="_top" title="#kubernetes_stateful_set" xlink:actuate="onRequest" xlink:href="#kubernetes_stateful_set" xlink:show="new" xlink:title="#kubernetes_stateful_set" xlink:type="simple"><rect id="kubernetes_stateful_set" width="243" height="39.789" x="990.52" y="207" fill="#3D176E" codeLine="38" rx="2.5" ry="2.5" style="stroke:#000d19;stroke-width:1.5"/><ellipse cx="1005.52" cy="226.894" fill="#E98DF7" rx="11" ry="11" style="stroke:#000d19;stroke-width:1"/><path fill="#000" d="M1008.4888,232.5352 Q1007.9106,232.832 1007.27,232.9727 Q1006.6294,233.1289 1005.9263,233.1289 Q1003.4263,233.1289 1002.0981,231.4883 Q1000.7856,229.832 1000.7856,226.707 Q1000.7856,223.582 1002.0981,221.9258 Q1003.4263,220.2695 1005.9263,220.2695 Q1006.6294,220.2695 1007.27,220.4258 Q1007.9263,220.582 1008.4888,220.8789 L1008.4888,223.5977 Q1007.8638,223.0195 1007.27,222.7539 Q1006.6763,222.4727 1006.0513,222.4727 Q1004.7075,222.4727 1004.02,223.5508 Q1003.3325,224.6133 1003.3325,226.707 Q1003.3325,228.8008 1004.02,229.8789 Q1004.7075,230.9414 1006.0513,230.9414 Q1006.6763,230.9414 1007.27,230.6758 Q1007.8638,230.3945 1008.4888,229.8164 L1008.4888,232.5352 Z"/><text x="1024.52" y="232.78" fill="#D9B8FF" font-family="Helvetica" font-size="17" lengthAdjust="spacing" textLength="201">kubernetes_stateful_set</text></a><a href="#kubernetes_secret" target="_top" title="#kubernetes_secret" xlink:actuate="onRequest" xlink:href="#kubernetes_secret" xlink:show="new" xlink:title="#kubernetes_secret" xlink:type="simple"><rect id="kubernetes_secret" width="195" height="39.789" x="496.52" y="407" fill="#3D176E" codeLine="41" rx="2.5" ry="2.5" style="stroke:#000d19;stroke-width:1.5"/><ellipse cx="511.52" cy="426.894" fill="#E98DF7" rx="11" ry="11" style="stroke:#000d19;stroke-width:1"/><path fill="#000" d="M514.4888,432.5352 Q513.9106,432.832 513.27,432.9727 Q512.6294,433.1289 511.9263,433.1289 Q509.4263,433.1289 508.0981,431.4883 Q506.7856,429.832 506.7856,426.707 Q506.7856,423.582 508.0981,421.9258 Q509.4263,420.2695 511.9263,420.2695 Q512.6294,420.2695 513.27,420.4258 Q513.9263,420.582 514.4888,420.8789 L514.4888,423.5977 Q513.8638,423.0195 513.27,422.7539 Q512.6763,422.4727 512.0513,422.4727 Q510.7075,422.4727 510.02,423.5508 Q509.3325,424.6133 509.3325,426.707 Q509.3325,428.8008 510.02,429.8789 Q510.7075,430.9414 512.0513,430.9414 Q512.6763,430.9414 513.27,430.6758 Q513.8638,430.3945 514.4888,429.8164 L514.4888,432.5352 Z"/><text x="530.52" y="432.78" fill="#D9B8FF" font-family="Helvetica" font-size="17" lengthAdjust="spacing" textLength="153">kubernetes_secret</text></a><a href="#kubernetes_job" target="_top" title="#kubernetes_job" xlink:actuate="onRequest" xlink:href="#kubernetes_job" xlink:show="new" xlink:title="#kubernetes_job" xlink:type="simple"><rect id="kubernetes_job" width="170" height="39.789" x="1135.02" y="107" fill="#3D176E" codeLine="44" rx="2.5" ry="2.5" style="stroke:#000d19;stroke-width:1.5"/><ellipse cx="1150.02" cy="126.894" fill="#E98DF7" rx="11" ry="11" style="stroke:#000d19;stroke-width:1"/><path fill="#000" d="M1152.9888,132.5352 Q1152.4106,132.832 1151.77,132.9727 Q1151.1294,133.1289 1150.4263,133.1289 Q1147.9263,133.1289 1146.5981,131.4883 Q1145.2856,129.832 1145.2856,126.707 Q1145.2856,123.582 1146.5981,121.9258 Q1147.9263,120.2695 1150.4263,120.2695 Q1151.1294,120.2695 1151.77,120.4258 Q1152.4263,120.582 1152.9888,120.8789 L1152.9888,123.5977 Q1152.3638,123.0195 1151.77,122.7539 Q1151.1763,122.4727 1150.5513,122.4727 Q1149.2075,122.4727 1148.52,123.5508 Q1147.8325,124.6133 1147.8325,126.707 Q1147.8325,128.8008 1148.52,129.8789 Q1149.2075,130.9414 1150.5513,130.9414 Q1151.1763,130.9414 1151.77,130.6758 Q1152.3638,130.3945 1152.9888,129.8164 L1152.9888,132.5352 Z"/><text x="1169.02" y="132.78" fill="#D9B8FF" font-family="Helvetica" font-size="17" lengthAdjust="spacing" textLength="128">kubernetes_job</text></a><a href="#kubernetes_namespace" target="_top" title="#kubernetes_namespace" xlink:actuate="onRequest" xlink:href="#kubernetes_namespace" xlink:show="new" xlink:title="#kubernetes_namespace" xlink:type="simple"><rect id="kubernetes_namespace" width="239" height="39.789" x="962.52" y="7" fill="#3D176E" codeLine="47" rx="2.5" ry="2.5" style="stroke:#000d19;stroke-width:1.5"/><ellipse cx="977.52" cy="26.895" fill="#E98DF7" rx="11" ry="11" style="stroke:#000d19;stroke-width:1"/><path fill="#000" d="M980.4888,32.5352 Q979.9106,32.832 979.27,32.9727 Q978.6294,33.1289 977.9263,33.1289 Q975.4263,33.1289 974.0981,31.4883 Q972.7856,29.832 972.7856,26.707 Q972.7856,23.582 974.0981,21.9258 Q975.4263,20.2695 977.9263,20.2695 Q978.6294,20.2695 979.27,20.4258 Q979.9263,20.582 980.4888,20.8789 L980.4888,23.5977 Q979.8638,23.0195 979.27,22.7539 Q978.6763,22.4727 978.0513,22.4727 Q976.7075,22.4727 976.02,23.5508 Q975.3325,24.6133 975.3325,26.707 Q975.3325,28.8008 976.02,29.8789 Q976.7075,30.9414 978.0513,30.9414 Q978.6763,30.9414 979.27,30.6758 Q979.8638,30.3945 980.4888,29.8164 L980.4888,32.5352 Z"/><text x="996.52" y="32.78" fill="#D9B8FF" font-family="Helvetica" font-size="17" lengthAdjust="spacing" textLength="197">kubernetes_namespace</text></a><a href="#kubernetes_endpoint" target="_top" title="#kubernetes_endpoint" xlink:actuate="onRequest" xlink:href="#kubernetes_endpoint" xlink:show="new" xlink:title="#kubernetes_endpoint" xlink:type="simple"><rect id="kubernetes_endpoint" width="219" height="39.789" x="1411.52" y="107" fill="#3D176E" codeLine="50" rx="2.5" ry="2.5" style="stroke:#000d19;stroke-width:1.5"/><ellipse cx="1426.52" cy="126.894" fill="#E98DF7" rx="11" ry="11" style="stroke:#000d19;stroke-width:1"/><path fill="#000" d="M1429.4888,132.5352 Q1428.9106,132.832 1428.27,132.9727 Q1427.6294,133.1289 1426.9263,133.1289 Q1424.4263,133.1289 1423.0981,131.4883 Q1421.7856,129.832 1421.7856,126.707 Q1421.7856,123.582 1423.0981,121.9258 Q1424.4263,120.2695 1426.9263,120.2695 Q1427.6294,120.2695 1428.27,120.4258 Q1428.9263,120.582 1429.4888,120.8789 L1429.4888,123.5977 Q1428.8638,123.0195 1428.27,122.7539 Q1427.6763,122.4727 1427.0513,122.4727 Q1425.7075,122.4727 1425.02,123.5508 Q1424.3325,124.6133 1424.3325,126.707 Q1424.3325,128.8008 1425.02,129.8789 Q1425.7075,130.9414 1427.0513,130.9414 Q1427.6763,130.9414 1428.27,130.6758 Q1428.8638,130.3945 1429.4888,129.8164 L1429.4888,132.5352 Z"/><text x="1445.52" y="132.78" fill="#D9B8FF" font-family="Helvetica" font-size="17" lengthAdjust="spacing" textLength="177">kubernetes_endpoint</text></a><a href="#kubernetes_persistent_volume_claim" target="_top" title="#kubernetes_persistent_volume_claim" xlink:actuate="onRequest" xlink:href="#kubernetes_persistent_volume_claim" xlink:show="new" xlink:title="#kubernetes_persistent_volume_claim" xlink:type="simple"><rect id="kubernetes_persistent_volume_claim" width="354" height="39.789" x="1090.02" y="407" fill="#3D176E" codeLine="53" rx="2.5" ry="2.5" style="stroke:#000d19;stroke-width:1.5"/><ellipse cx="1105.02" cy="426.894" fill="#E98DF7" rx="11" ry="11" style="stroke:#000d19;stroke-width:1"/><path fill="#000" d="M1107.9888,432.5352 Q1107.4106,432.832 1106.77,432.9727 Q1106.1294,433.1289 1105.4263,433.1289 Q1102.9263,433.1289 1101.5981,431.4883 Q1100.2856,429.832 1100.2856,426.707 Q1100.2856,423.582 1101.5981,421.9258 Q1102.9263,420.2695 1105.4263,420.2695 Q1106.1294,420.2695 1106.77,420.4258 Q1107.4263,420.582 1107.9888,420.8789 L1107.9888,423.5977 Q1107.3638,423.0195 1106.77,422.7539 Q1106.1763,422.4727 1105.5513,422.4727 Q1104.2075,422.4727 1103.52,423.5508 Q1102.8325,424.6133 1102.8325,426.707 Q1102.8325,428.8008 1103.52,429.8789 Q1104.2075,430.9414 1105.5513,430.9414 Q1106.1763,430.9414 1106.77,430.6758 Q1107.3638,430.3945 1107.9888,429.8164 L1107.9888,432.5352 Z"/><text x="1124.02" y="432.78" fill="#D9B8FF" font-family="Helvetica" font-size="17" lengthAdjust="spacing" textLength="312">kubernetes_persistent_volume_claim</text></a><a href="#kubernetes_config_map" target="_top" title="#kubernetes_config_map" xlink:actuate="onRequest" xlink:href="#kubernetes_config_map" xlink:show="new" xlink:title="#kubernetes_config_map" xlink:type="simple"><rect id="kubernetes_config_map" width="241" height="39.789" x="1556.52" y="407" fill="#3D176E" codeLine="56" rx="2.5" ry="2.5" style="stroke:#000d19;stroke-width:1.5"/><ellipse cx="1571.52" cy="426.894" fill="#E98DF7" rx="11" ry="11" style="stroke:#000d19;stroke-width:1"/><path fill="#000" d="M1574.4888,432.5352 Q1573.9106,432.832 1573.27,432.9727 Q1572.6294,433.1289 1571.9263,433.1289 Q1569.4263,433.1289 1568.0981,431.4883 Q1566.7856,429.832 1566.7856,426.707 Q1566.7856,423.582 1568.0981,421.9258 Q1569.4263,420.2695 1571.9263,420.2695 Q1572.6294,420.2695 1573.27,420.4258 Q1573.9263,420.582 1574.4888,420.8789 L1574.4888,423.5977 Q1573.8638,423.0195 1573.27,422.7539 Q1572.6763,422.4727 1572.0513,422.4727 Q1570.7075,422.4727 1570.02,423.5508 Q1569.3325,424.6133 1569.3325,426.707 Q1569.3325,428.8008 1570.02,429.8789 Q1570.7075,430.9414 1572.0513,430.9414 Q1572.6763,430.9414 1573.27,430.6758 Q1573.8638,430.3945 1574.4888,429.8164 L1574.4888,432.5352 Z"/><text x="1590.52" y="432.78" fill="#D9B8FF" font-family="Helvetica" font-size="17" lengthAdjust="spacing" textLength="199">kubernetes_config_map</text></a><path id="kubernetes_deployment-to-kubernetes_replica_set" fill="none" d="M878.89,147.13 C855.74,163.45 822.44,186.93 798.2,204.02" codeLine="59" style="stroke:#1a83af;stroke-width:2"/><polygon fill="#1A83AF" points="794.09 206.92 803.749 204.995 798.174 204.036 799.134 198.461 794.09 206.92" style="stroke:#1a83af;stroke-width:2"/><path id="kubernetes_deployment-to-kubernetes_pod" fill="none" d="M913.11,147.37 C923.19,172.79 943.74,217.6 973.02,247 C997.65,271.73 1031.61,291.22 1059.8,304.66" codeLine="60" style="stroke:#1a83af;stroke-width:2"/><polygon fill="#1A83AF" points="1064.64 306.93 1058.206 299.474 1060.118 304.798 1054.794 306.71 1064.64 306.93" style="stroke:#1a83af;stroke-width:2"/><path id="kubernetes_replica_set-to-kubernetes_pod" fill="none" d="M833.95,247.01 C893.13,263.82 979.25,288.28 1039.93,305.52" codeLine="61" style="stroke:#1a83af;stroke-width:2"/><polygon fill="#1A83AF" points="1044.99 306.96 1037.435 300.641 1040.182 305.586 1035.237 308.334 1044.99 306.96" style="stroke:#1a83af;stroke-width:2"/><path id="kubernetes_pod-to-kubernetes_secret" fill="none" d="M1024.44,344.57 C933.89,361.7 792.6,388.43 696.81,406.55" codeLine="62" style="stroke:#1a83af;stroke-width:2"/><polygon fill="#1A83AF" points="691.71 407.52 701.296 409.779 696.623 406.592 699.811 401.918 691.71 407.52" style="stroke:#1a83af;stroke-width:2"/><path id="kubernetes_pod-to-kubernetes_persistent_volume_claim" fill="none" d="M1142.28,347.13 C1168.2,363.52 1205.53,387.12 1232.59,404.23" codeLine="63" style="stroke:#1a83af;stroke-width:2"/><polygon fill="#1A83AF" points="1236.85 406.92 1231.397 398.718 1232.629 404.239 1227.108 405.471 1236.85 406.92" style="stroke:#1a83af;stroke-width:2"/><path id="kubernetes_pod-to-kubernetes_config_map" fill="none" d="M1199.68,343.2 C1297.17,360.11 1455,387.49 1562.26,406.09" codeLine="64" style="stroke:#1a83af;stroke-width:2"/><polygon fill="#1A83AF" points="1567.33 406.97 1559.133 401.51 1562.401 406.127 1557.784 409.396 1567.33 406.97" style="stroke:#1a83af;stroke-width:2"/><path id="kubernetes_service-to-kubernetes_pod" fill="none" d="M332.57,244.6 C338.47,245.44 344.32,246.25 350.02,247 C590.79,278.68 875.73,305.35 1019.37,318.05" codeLine="65" style="stroke:#1a83af;stroke-width:2"/><polygon fill="#1A83AF" points="1024.42 318.5 1015.809 313.719 1019.44 318.058 1015.101 321.688 1024.42 318.5" style="stroke:#1a83af;stroke-width:2"/><path id="kubernetes_daemon_set-to-kubernetes_pod" fill="none" d="M611.49,247.01 C730.76,265.83 910.8,294.25 1019.33,311.37" codeLine="66" style="stroke:#1a83af;stroke-width:2"/><polygon fill="#1A83AF" points="1024.44 312.18 1016.164 306.84 1019.5 311.409 1014.931 314.744 1024.44 312.18" style="stroke:#1a83af;stroke-width:2"/><path id="kubernetes_stateful_set-to-kubernetes_pod" fill="none" d="M1112.02,247.36 C1112.02,262.93 1112.02,284.9 1112.02,301.66" codeLine="67" style="stroke:#1a83af;stroke-width:2"/><polygon fill="#1A83AF" points="1112.02 306.68 1116.02 297.68 1112.02 301.68 1108.02 297.68 1112.02 306.68" style="stroke:#1a83af;stroke-width:2"/><path id="kubernetes_job-to-kubernetes_pod" fill="none" d="M1233.54,147.35 C1248.91,171.95 1269.6,215.08 1251.02,247 C1235.32,273.99 1206.58,292.51 1179.29,304.8" codeLine="68" style="stroke:#1a83af;stroke-width:2"/><polygon fill="#1A83AF" points="1174.57 306.87 1184.419 306.901 1179.146 304.854 1181.193 299.581 1174.57 306.87" style="stroke:#1a83af;stroke-width:2"/><path id="kubernetes_namespace-to-kubernetes_stateful_set" fill="none" d="M1084.95,47.35 C1090.46,83.67 1102.32,161.97 1108.35,201.75" codeLine="69" style="stroke:#1a83af;stroke-width:2"/><polygon fill="#1A83AF" points="1109.12 206.87 1111.711 197.368 1108.363 201.928 1103.803 198.579 1109.12 206.87" style="stroke:#1a83af;stroke-width:2"/><path id="kubernetes_namespace-to-kubernetes_service" fill="none" d="M962.19,46.31 C874,60.6 751.45,82.15 645.02,107 C519.96,136.2 376.39,179.77 295.42,205.3" codeLine="70" style="stroke:#1a83af;stroke-width:2"/><polygon fill="#1A83AF" points="290.17 206.95 299.955 208.067 294.94 205.451 297.556 200.435 290.17 206.95" style="stroke:#1a83af;stroke-width:2"/><path id="kubernetes_namespace-to-kubernetes_secret" fill="none" d="M962.2,31.03 C725.95,39.88 214.05,74.29 112.02,207 C6,344.91 320.18,398.6 491.2,417.23" codeLine="71" style="stroke:#1a83af;stroke-width:2"/><polygon fill="#1A83AF" points="496.22 417.77 487.707 412.817 491.25 417.227 486.839 420.769 496.22 417.77" style="stroke:#1a83af;stroke-width:2"/><path id="kubernetes_namespace-to-kubernetes_replica_set" fill="none" d="M962.44,42.55 C883.6,54.88 790.51,75.63 766.02,107 C745.04,133.87 751.52,175.54 758.78,201.77" codeLine="72" style="stroke:#1a83af;stroke-width:2"/><polygon fill="#1A83AF" points="760.24 206.8 761.587 197.044 758.853 201.996 753.901 199.263 760.24 206.8" style="stroke:#1a83af;stroke-width:2"/><path id="kubernetes_namespace-to-kubernetes_pod" fill="none" d="M1201.62,37.86 C1247.21,48.14 1294.93,68.22 1323.02,107 C1352.5,147.69 1295.89,230.59 1280.02,247 C1253.97,273.94 1216.92,292.71 1184.24,305.17" codeLine="73" style="stroke:#1a83af;stroke-width:2"/><polygon fill="#1A83AF" points="1179.46 306.96 1189.291 307.562 1184.145 305.212 1186.494 300.066 1179.46 306.96" style="stroke:#1a83af;stroke-width:2"/><path id="kubernetes_namespace-to-kubernetes_job" fill="none" d="M1108.96,47.13 C1131.94,63.45 1165,86.93 1189.07,104.02" codeLine="74" style="stroke:#1a83af;stroke-width:2"/><polygon fill="#1A83AF" points="1193.16 106.92 1188.13 98.452 1189.081 104.029 1183.504 104.979 1193.16 106.92" style="stroke:#1a83af;stroke-width:2"/><path id="kubernetes_namespace-to-kubernetes_endpoint" fill="none" d="M1167.19,47.01 C1242.95,63.92 1353.39,88.58 1430.68,105.83" codeLine="75" style="stroke:#1a83af;stroke-width:2"/><polygon fill="#1A83AF" points="1435.72 106.96 1427.802 101.103 1430.839 105.875 1426.067 108.912 1435.72 106.96" style="stroke:#1a83af;stroke-width:2"/><path id="kubernetes_namespace-to-kubernetes_deployment" fill="none" d="M1047.67,47.13 C1018.11,63.59 975.5,87.32 944.74,104.44" codeLine="76" style="stroke:#1a83af;stroke-width:2"/><polygon fill="#1A83AF" points="940.29 106.92 950.1 106.046 944.661 104.492 946.215 99.053 940.29 106.92" style="stroke:#1a83af;stroke-width:2"/><path id="kubernetes_namespace-to-kubernetes_persistent_volume_claim" fill="none" d="M1201.56,36.41 C1358.93,48.72 1619.16,73.83 1648.02,107 C1761.07,236.92 1466.12,358.2 1330.75,405.31" codeLine="77" style="stroke:#1a83af;stroke-width:2"/><polygon fill="#1A83AF" points="1326 406.96 1335.814 407.785 1330.723 405.319 1333.189 400.228 1326 406.96" style="stroke:#1a83af;stroke-width:2"/><path id="kubernetes_namespace-to-kubernetes_daemon_set" fill="none" d="M975.68,47.03 C908.54,60.48 820.53,80.78 745.02,107 C666.37,134.31 579.47,178.23 530.43,204.38" codeLine="78" style="stroke:#1a83af;stroke-width:2"/><polygon fill="#1A83AF" points="525.81 206.86 535.633 206.149 530.221 204.505 531.865 199.092 525.81 206.86" style="stroke:#1a83af;stroke-width:2"/><path id="kubernetes_namespace-to-kubernetes_config_map" fill="none" d="M1201.62,35.31 C1368.3,46.74 1653.69,71.29 1685.02,107 C1759.48,191.85 1710.34,343.74 1687.18,402.18" codeLine="79" style="stroke:#1a83af;stroke-width:2"/><polygon fill="#1A83AF" points="1685.3 406.88 1692.356 400.009 1687.157 402.238 1684.929 397.038 1685.3 406.88" style="stroke:#1a83af;stroke-width:2"/><path id="kubernetes_endpoint-to-kubernetes_pod" fill="none" d="M1503.92,147.38 C1479.74,173.65 1432.99,220.32 1384.02,247 C1328.07,277.49 1259.06,297.36 1204.56,309.54" codeLine="80" style="stroke:#1a83af;stroke-width:2"/><polygon fill="#1A83AF" points="1199.67 310.62 1209.323 312.572 1204.551 309.535 1207.588 304.763 1199.67 310.62" style="stroke:#1a83af;stroke-width:2"/></g></svg>