<svg xmlns="http://www.w3.org/2000/svg" xmlns:xlink="http://www.w3.org/1999/xlink" width="432" height="778" preserveAspectRatio="none" style="width:432px;height:778px;background:#00000000"><a xlink:actuate="onRequest" xlink:href="#a" xlink:show="new" xlink:title="#resource" xlink:type="simple" target="_top"><rect id="a" width="195" height="275.836" x="7" y="7" fill="#3D176E" rx="2.5" ry="2.5" style="stroke:#000d19;stroke-width:1.5"/><circle cx="59.75" cy="26.895" r="11" fill="#E98DF7" style="stroke:#000d19;stroke-width:1"/><path d="M62.719 32.535q-.578.297-1.219.438-.64.156-1.344.156-2.5 0-3.828-1.64-1.312-1.657-1.312-4.782t1.312-4.781q1.328-1.656 3.828-1.656.703 0 1.344.156.656.156 1.219.453v2.719q-.625-.578-1.219-.844-.594-.281-1.219-.281-1.343 0-2.031 1.078-.688 1.062-.688 3.156 0 2.094.688 3.172.688 1.062 2.031 1.062.625 0 1.219-.265.594-.281 1.219-.86v2.72Z"/><text x="85.25" y="32.78" fill="#D9B8FF" font-family="Helvetica" font-size="17" textLength="71">resource</text><path d="M8 46.789h193" style="stroke:#000d19;stroke-width:1.5"/><text x="18" y="65.999" fill="#D9B8FF" font-family="sans-serif" font-size="11" font-weight="bold" textLength="12">id</text><text x="30" y="65.999" fill="#D9B8FF" font-family="sans-serif" font-size="11" textLength="41">: string</text><text x="18" y="88.804" fill="#D9B8FF" font-family="sans-serif" font-size="11" font-weight="bold" textLength="28">tags</text><text x="46" y="88.804" fill="#D9B8FF" font-family="sans-serif" font-size="11" textLength="145">: dictionary[string, string]</text><text x="18" y="111.609" fill="#D9B8FF" font-family="sans-serif" font-size="11" font-weight="bold" textLength="35">name</text><text x="53" y="111.609" fill="#D9B8FF" font-family="sans-serif" font-size="11" textLength="41">: string</text><text x="18" y="134.414" fill="#D9B8FF" font-family="sans-serif" font-size="11" font-weight="bold" textLength="35">ctime</text><text x="53" y="134.414" fill="#D9B8FF" font-family="sans-serif" font-size="11" textLength="58">: datetime</text><text x="18" y="157.218" fill="#D9B8FF" font-family="sans-serif" font-size="11" font-weight="bold" textLength="24">age</text><text x="42" y="157.218" fill="#D9B8FF" font-family="sans-serif" font-size="11" textLength="55">: duration</text><text x="18" y="180.023" fill="#D9B8FF" font-family="sans-serif" font-size="11" font-weight="bold" textLength="39">mtime</text><text x="57" y="180.023" fill="#D9B8FF" font-family="sans-serif" font-size="11" textLength="58">: datetime</text><text x="18" y="202.828" fill="#D9B8FF" font-family="sans-serif" font-size="11" font-weight="bold" textLength="75">last_update</text><text x="93" y="202.828" fill="#D9B8FF" font-family="sans-serif" font-size="11" textLength="55">: duration</text><text x="18" y="225.632" fill="#D9B8FF" font-family="sans-serif" font-size="11" font-weight="bold" textLength="36">atime</text><text x="54" y="225.632" fill="#D9B8FF" font-family="sans-serif" font-size="11" textLength="58">: datetime</text><text x="18" y="248.437" fill="#D9B8FF" font-family="sans-serif" font-size="11" font-weight="bold" textLength="74">last_access</text><text x="92" y="248.437" fill="#D9B8FF" font-family="sans-serif" font-size="11" textLength="55">: duration</text><text x="18" y="271.242" fill="#D9B8FF" font-family="sans-serif" font-size="11" font-weight="bold" textLength="27">kind</text><text x="45" y="271.242" fill="#D9B8FF" font-family="sans-serif" font-size="11" textLength="41">: string</text></a><a xlink:actuate="onRequest" xlink:href="#b" xlink:show="new" xlink:title="#posthog_event" xlink:type="simple" target="_top"><rect id="b" width="190" height="367.055" x="122.5" y="404" fill="#3D176E" rx="2.5" ry="2.5" style="stroke:#000d19;stroke-width:1.5"/><circle cx="148.75" cy="423.894" r="11" fill="#E98DF7" style="stroke:#000d19;stroke-width:1"/><path d="M151.719 429.535q-.578.297-1.219.438-.64.156-1.344.156-2.5 0-3.828-1.64-1.312-1.657-1.312-4.782t1.312-4.781q1.328-1.656 3.828-1.656.703 0 1.344.156.656.156 1.219.453v2.719q-.625-.579-1.219-.844-.594-.281-1.219-.281-1.344 0-2.031 1.078-.688 1.062-.688 3.156 0 2.094.688 3.172.688 1.062 2.031 1.062.625 0 1.219-.265.594-.281 1.219-.86v2.72Z"/><text x="170.25" y="429.78" fill="#D9B8FF" font-family="Helvetica" font-size="17" textLength="123">posthog_event</text><path d="M123.5 443.789h188" style="stroke:#000d19;stroke-width:1.5"/><text x="133.5" y="463" fill="#D9B8FF" font-family="sans-serif" font-size="11" font-weight="bold" textLength="63">project_id</text><text x="196.5" y="463" fill="#D9B8FF" font-family="sans-serif" font-size="11" textLength="36">: int64</text><text x="133.5" y="485.804" fill="#D9B8FF" font-family="sans-serif" font-size="11" font-weight="bold" textLength="36">count</text><text x="169.5" y="485.804" fill="#D9B8FF" font-family="sans-serif" font-size="11" textLength="36">: int64</text><text x="133.5" y="508.609" fill="#D9B8FF" font-family="sans-serif" font-size="11" font-weight="bold" textLength="72">description</text><text x="205.5" y="508.609" fill="#D9B8FF" font-family="sans-serif" font-size="11" textLength="41">: string</text><text x="133.5" y="531.414" fill="#D9B8FF" font-family="sans-serif" font-size="11" font-weight="bold" textLength="86">posthog_tags</text><text x="219.5" y="531.414" fill="#D9B8FF" font-family="sans-serif" font-size="11" textLength="49">: string[]</text><text x="133.5" y="554.218" fill="#D9B8FF" font-family="sans-serif" font-size="11" font-weight="bold" textLength="97">volume_30_day</text><text x="230.5" y="554.218" fill="#D9B8FF" font-family="sans-serif" font-size="11" textLength="36">: int64</text><text x="133.5" y="577.023" fill="#D9B8FF" font-family="sans-serif" font-size="11" font-weight="bold" textLength="132">query_usage_30_day</text><text x="265.5" y="577.023" fill="#D9B8FF" font-family="sans-serif" font-size="11" textLength="36">: int64</text><text x="133.5" y="599.828" fill="#D9B8FF" font-family="sans-serif" font-size="11" font-weight="bold" textLength="57">is_action</text><text x="190.5" y="599.828" fill="#D9B8FF" font-family="sans-serif" font-size="11" textLength="53">: boolean</text><text x="133.5" y="622.632" fill="#D9B8FF" font-family="sans-serif" font-size="11" font-weight="bold" textLength="58">action_id</text><text x="191.5" y="622.632" fill="#D9B8FF" font-family="sans-serif" font-size="11" textLength="36">: int64</text><text x="133.5" y="645.437" fill="#D9B8FF" font-family="sans-serif" font-size="11" font-weight="bold" textLength="80">last_seen_at</text><text x="213.5" y="645.437" fill="#D9B8FF" font-family="sans-serif" font-size="11" textLength="41">: string</text><text x="133.5" y="668.242" fill="#D9B8FF" font-family="sans-serif" font-size="11" font-weight="bold" textLength="49">verified</text><text x="182.5" y="668.242" fill="#D9B8FF" font-family="sans-serif" font-size="11" textLength="53">: boolean</text><text x="133.5" y="691.046" fill="#D9B8FF" font-family="sans-serif" font-size="11" font-weight="bold" textLength="68">verified_at</text><text x="201.5" y="691.046" fill="#D9B8FF" font-family="sans-serif" font-size="11" textLength="41">: string</text><text x="133.5" y="713.851" fill="#D9B8FF" font-family="sans-serif" font-size="11" font-weight="bold" textLength="88">is_calculating</text><text x="221.5" y="713.851" fill="#D9B8FF" font-family="sans-serif" font-size="11" textLength="53">: boolean</text><text x="133.5" y="736.656" fill="#D9B8FF" font-family="sans-serif" font-size="11" font-weight="bold" textLength="116">last_calculated_at</text><text x="249.5" y="736.656" fill="#D9B8FF" font-family="sans-serif" font-size="11" textLength="41">: string</text><text x="133.5" y="759.46" fill="#D9B8FF" font-family="sans-serif" font-size="11" font-weight="bold" textLength="86">post_to_slack</text><text x="219.5" y="759.46" fill="#D9B8FF" font-family="sans-serif" font-size="11" textLength="53">: boolean</text></a><a xlink:actuate="onRequest" xlink:href="#c" xlink:show="new" xlink:title="#posthog_resource" xlink:type="simple" target="_top"><rect id="c" width="188" height="39.789" x="237.5" y="125" fill="#3D176E" rx="2.5" ry="2.5" style="stroke:#000d19;stroke-width:1.5"/><circle cx="252.5" cy="144.894" r="11" fill="#E98DF7" style="stroke:#000d19;stroke-width:1"/><path d="M255.469 150.535q-.578.297-1.219.438-.64.156-1.344.156-2.5 0-3.828-1.64-1.312-1.657-1.312-4.782t1.312-4.781q1.328-1.656 3.828-1.656.703 0 1.344.156.656.156 1.219.453v2.719q-.625-.579-1.219-.844-.594-.281-1.219-.281-1.344 0-2.031 1.078-.688 1.062-.688 3.156 0 2.094.688 3.172.688 1.062 2.031 1.062.625 0 1.219-.265.594-.281 1.219-.86v2.72Z"/><text x="271.5" y="150.78" fill="#D9B8FF" font-family="Helvetica" font-size="17" textLength="146">posthog_resource</text></a><path fill="none" d="M321.51 184.61c-12.74 49.22-35.64 137.71-56.72 219.15m49.95-220.94 11.79-17.61 1.76 21.12-13.55-3.51zM144.72 302.78c8.38 32.68 17.29 67.39 25.89 100.91m-32.71-99.31 1.81-21.12 11.75 17.64-13.56 3.48z" style="stroke:#ffaf37;stroke-width:2"/></svg>