<svg xmlns="http://www.w3.org/2000/svg" xmlns:xlink="http://www.w3.org/1999/xlink" width="146" height="152" contentScriptType="application/ecmascript" contentStyleType="text/css" style="width:146px;height:152px;background:#00000000" preserveAspectRatio="none" version="1.1" viewBox="0 0 146 152" zoomAndPan="magnify"><g><a href="#gcp_region" target="_top" title="#gcp_region" xlink:actuate="onRequest" xlink:href="#gcp_region" xlink:show="new" xlink:title="#gcp_region" xlink:type="simple"><rect id="gcp_region" width="132" height="39.789" x="7" y="7" fill="#3D176E" codeLine="17" rx="2.5" ry="2.5" style="stroke:#000d19;stroke-width:1.5"/><ellipse cx="22" cy="26.895" fill="#E98DF7" rx="11" ry="11" style="stroke:#000d19;stroke-width:1"/><path fill="#000" d="M24.9688,32.5352 Q24.3906,32.832 23.75,32.9727 Q23.1094,33.1289 22.4063,33.1289 Q19.9063,33.1289 18.5781,31.4883 Q17.2656,29.832 17.2656,26.707 Q17.2656,23.582 18.5781,21.9258 Q19.9063,20.2695 22.4063,20.2695 Q23.1094,20.2695 23.75,20.4258 Q24.4063,20.582 24.9688,20.8789 L24.9688,23.5977 Q24.3438,23.0195 23.75,22.7539 Q23.1563,22.4727 22.5313,22.4727 Q21.1875,22.4727 20.5,23.5508 Q19.8125,24.6133 19.8125,26.707 Q19.8125,28.8008 20.5,29.8789 Q21.1875,30.9414 22.5313,30.9414 Q23.1563,30.9414 23.75,30.6758 Q24.3438,30.3945 24.9688,29.8164 L24.9688,32.5352 Z"/><text x="41" y="32.78" fill="#D9B8FF" font-family="Helvetica" font-size="17" lengthAdjust="spacing" textLength="90">gcp_region</text></a><a href="#gcp_quota" target="_top" title="#gcp_quota" xlink:actuate="onRequest" xlink:href="#gcp_quota" xlink:show="new" xlink:title="#gcp_quota" xlink:type="simple"><rect id="gcp_quota" width="127" height="39.789" x="9.5" y="107" fill="#3D176E" codeLine="20" rx="2.5" ry="2.5" style="stroke:#000d19;stroke-width:1.5"/><ellipse cx="24.5" cy="126.894" fill="#E98DF7" rx="11" ry="11" style="stroke:#000d19;stroke-width:1"/><path fill="#000" d="M27.4688,132.5352 Q26.8906,132.832 26.25,132.9727 Q25.6094,133.1289 24.9063,133.1289 Q22.4063,133.1289 21.0781,131.4883 Q19.7656,129.832 19.7656,126.707 Q19.7656,123.582 21.0781,121.9258 Q22.4063,120.2695 24.9063,120.2695 Q25.6094,120.2695 26.25,120.4258 Q26.9063,120.582 27.4688,120.8789 L27.4688,123.5977 Q26.8438,123.0195 26.25,122.7539 Q25.6563,122.4727 25.0313,122.4727 Q23.6875,122.4727 23,123.5508 Q22.3125,124.6133 22.3125,126.707 Q22.3125,128.8008 23,129.8789 Q23.6875,130.9414 25.0313,130.9414 Q25.6563,130.9414 26.25,130.6758 Q26.8438,130.3945 27.4688,129.8164 L27.4688,132.5352 Z"/><text x="43.5" y="132.78" fill="#D9B8FF" font-family="Helvetica" font-size="17" lengthAdjust="spacing" textLength="85">gcp_quota</text></a><path id="gcp_region-to-gcp_quota" fill="none" d="M73,47.36 C73,62.93 73,84.9 73,101.66" codeLine="23" style="stroke:#1a83af;stroke-width:2"/><polygon fill="#1A83AF" points="73 106.68 77 97.68 73 101.68 69 97.68 73 106.68" style="stroke:#1a83af;stroke-width:2"/></g></svg>