<svg xmlns="http://www.w3.org/2000/svg" xmlns:xlink="http://www.w3.org/1999/xlink" width="2904" height="852" preserveAspectRatio="none" style="width:2904px;height:852px;background:#00000000"><a xlink:actuate="onRequest" xlink:href="#a" xlink:show="new" xlink:title="#gcp_target_pool" xlink:type="simple" target="_top"><rect id="a" width="174" height="39.789" x="750" y="307" fill="#3D176E" rx="2.5" ry="2.5" style="stroke:#000d19;stroke-width:1.5"/><circle cx="765" cy="326.894" r="11" fill="#E98DF7" style="stroke:#000d19;stroke-width:1"/><path d="M767.969 332.535q-.578.297-1.219.438-.64.156-1.344.156-2.5 0-3.828-1.64-1.312-1.657-1.312-4.782t1.312-4.781q1.328-1.656 3.828-1.656.703 0 1.344.156.656.156 1.219.453v2.719q-.625-.579-1.219-.844-.594-.281-1.219-.281-1.343 0-2.031 1.078-.688 1.062-.688 3.156 0 2.094.688 3.172.688 1.062 2.031 1.062.625 0 1.219-.265.594-.281 1.219-.86v2.72Z"/><text x="784" y="332.78" fill="#D9B8FF" font-family="Helvetica" font-size="17" textLength="132">gcp_target_pool</text></a><a xlink:actuate="onRequest" xlink:href="#b" xlink:show="new" xlink:title="#gcp_forwarding_rule" xlink:type="simple" target="_top"><rect id="b" width="212" height="39.789" x="731" y="207" fill="#3D176E" rx="2.5" ry="2.5" style="stroke:#000d19;stroke-width:1.5"/><circle cx="746" cy="226.894" r="11" fill="#E98DF7" style="stroke:#000d19;stroke-width:1"/><path d="M748.969 232.535q-.578.297-1.219.438-.64.156-1.344.156-2.5 0-3.828-1.64-1.312-1.657-1.312-4.782t1.312-4.781q1.328-1.656 3.828-1.656.703 0 1.344.156.656.156 1.219.453v2.719q-.625-.579-1.219-.844-.594-.281-1.219-.281-1.343 0-2.031 1.078-.688 1.062-.688 3.156 0 2.094.688 3.172.688 1.062 2.031 1.062.625 0 1.219-.265.594-.281 1.219-.86v2.72Z"/><text x="765" y="232.78" fill="#D9B8FF" font-family="Helvetica" font-size="17" textLength="170">gcp_forwarding_rule</text></a><a xlink:actuate="onRequest" xlink:href="#c" xlink:show="new" xlink:title="#gcp_router" xlink:type="simple" target="_top"><rect id="c" width="131" height="39.789" x="1776.5" y="207" fill="#3D176E" rx="2.5" ry="2.5" style="stroke:#000d19;stroke-width:1.5"/><circle cx="1791.5" cy="226.894" r="11" fill="#E98DF7" style="stroke:#000d19;stroke-width:1"/><path d="M1794.469 232.535q-.578.297-1.219.438-.64.156-1.344.156-2.5 0-3.828-1.64-1.312-1.657-1.312-4.782t1.312-4.781q1.328-1.656 3.828-1.656.703 0 1.344.156.656.156 1.219.453v2.719q-.625-.579-1.219-.844-.594-.281-1.219-.281-1.343 0-2.031 1.078-.688 1.062-.688 3.156 0 2.094.688 3.172.688 1.062 2.031 1.062.625 0 1.219-.265.594-.281 1.219-.86v2.72Z"/><text x="1810.5" y="232.78" fill="#D9B8FF" font-family="Helvetica" font-size="17" textLength="89">gcp_router</text></a><a xlink:actuate="onRequest" xlink:href="#d" xlink:show="new" xlink:title="#gcp_zone" xlink:type="simple" target="_top"><rect id="d" width="118" height="39.789" x="2089" y="207" fill="#3D176E" rx="2.5" ry="2.5" style="stroke:#000d19;stroke-width:1.5"/><circle cx="2104" cy="226.894" r="11" fill="#E98DF7" style="stroke:#000d19;stroke-width:1"/><path d="M2106.969 232.535q-.578.297-1.219.438-.64.156-1.344.156-2.5 0-3.828-1.64-1.312-1.657-1.312-4.782t1.312-4.781q1.328-1.656 3.828-1.656.703 0 1.344.156.656.156 1.219.453v2.719q-.625-.579-1.219-.844-.594-.281-1.219-.281-1.343 0-2.031 1.078-.688 1.062-.688 3.156 0 2.094.688 3.172.688 1.062 2.031 1.062.625 0 1.219-.265.594-.281 1.219-.86v2.72Z"/><text x="2123" y="232.78" fill="#D9B8FF" font-family="Helvetica" font-size="17" textLength="76">gcp_zone</text></a><a xlink:actuate="onRequest" xlink:href="#e" xlink:show="new" xlink:title="#gcp_disk_type" xlink:type="simple" target="_top"><rect id="e" width="158" height="39.789" x="1870" y="307" fill="#3D176E" rx="2.5" ry="2.5" style="stroke:#000d19;stroke-width:1.5"/><circle cx="1885" cy="326.894" r="11" fill="#E98DF7" style="stroke:#000d19;stroke-width:1"/><path d="M1887.969 332.535q-.578.297-1.219.438-.64.156-1.344.156-2.5 0-3.828-1.64-1.312-1.657-1.312-4.782t1.312-4.781q1.328-1.656 3.828-1.656.703 0 1.344.156.656.156 1.219.453v2.719q-.625-.579-1.219-.844-.594-.281-1.219-.281-1.343 0-2.031 1.078-.688 1.062-.688 3.156 0 2.094.688 3.172.688 1.062 2.031 1.062.625 0 1.219-.265.594-.281 1.219-.86v2.72Z"/><text x="1904" y="332.78" fill="#D9B8FF" font-family="Helvetica" font-size="17" textLength="116">gcp_disk_type</text></a><a xlink:actuate="onRequest" xlink:href="#f" xlink:show="new" xlink:title="#gcp_network_endpoint_group" xlink:type="simple" target="_top"><rect id="f" width="289" height="39.789" x="767.5" y="607" fill="#3D176E" rx="2.5" ry="2.5" style="stroke:#000d19;stroke-width:1.5"/><circle cx="782.5" cy="626.894" r="11" fill="#E98DF7" style="stroke:#000d19;stroke-width:1"/><path d="M785.469 632.535q-.578.297-1.219.438-.64.156-1.344.156-2.5 0-3.828-1.64-1.312-1.657-1.312-4.782t1.312-4.781q1.328-1.657 3.828-1.657.703 0 1.344.157.656.156 1.219.453v2.719q-.625-.578-1.219-.844-.594-.281-1.219-.281-1.343 0-2.031 1.078-.688 1.062-.688 3.156 0 2.094.688 3.172.688 1.062 2.031 1.062.625 0 1.219-.265.594-.282 1.219-.86v2.72Z"/><text x="801.5" y="632.78" fill="#D9B8FF" font-family="Helvetica" font-size="17" textLength="247">gcp_network_endpoint_group</text></a><a xlink:actuate="onRequest" xlink:href="#g" xlink:show="new" xlink:title="#gcp_disk" xlink:type="simple" target="_top"><rect id="g" width="112" height="39.789" x="2058" y="407" fill="#3D176E" rx="2.5" ry="2.5" style="stroke:#000d19;stroke-width:1.5"/><circle cx="2073" cy="426.894" r="11" fill="#E98DF7" style="stroke:#000d19;stroke-width:1"/><path d="M2075.969 432.535q-.578.297-1.219.438-.64.156-1.344.156-2.5 0-3.828-1.64-1.312-1.657-1.312-4.782t1.312-4.781q1.328-1.656 3.828-1.656.703 0 1.344.156.656.156 1.219.453v2.719q-.625-.579-1.219-.844-.594-.281-1.219-.281-1.343 0-2.031 1.078-.688 1.062-.688 3.156 0 2.094.688 3.172.688 1.062 2.031 1.062.625 0 1.219-.265.594-.281 1.219-.86v2.72Z"/><text x="2092" y="432.78" fill="#D9B8FF" font-family="Helvetica" font-size="17" textLength="70">gcp_disk</text></a><a xlink:actuate="onRequest" xlink:href="#h" xlink:show="new" xlink:title="#gcp_autoscaler" xlink:type="simple" target="_top"><rect id="h" width="165" height="39.789" x="2607.5" y="307" fill="#3D176E" rx="2.5" ry="2.5" style="stroke:#000d19;stroke-width:1.5"/><circle cx="2622.5" cy="326.894" r="11" fill="#E98DF7" style="stroke:#000d19;stroke-width:1"/><path d="M2625.469 332.535q-.578.297-1.219.438-.64.156-1.344.156-2.5 0-3.828-1.64-1.312-1.657-1.312-4.782t1.312-4.781q1.328-1.656 3.828-1.656.703 0 1.344.156.656.156 1.219.453v2.719q-.625-.579-1.219-.844-.594-.281-1.219-.281-1.343 0-2.031 1.078-.688 1.062-.688 3.156 0 2.094.688 3.172.688 1.062 2.031 1.062.625 0 1.219-.265.594-.281 1.219-.86v2.72Z"/><text x="2641.5" y="332.78" fill="#D9B8FF" font-family="Helvetica" font-size="17" textLength="123">gcp_autoscaler</text></a><a xlink:actuate="onRequest" xlink:href="#i" xlink:show="new" xlink:title="#gcp_database" xlink:type="simple" target="_top"><rect id="i" width="154" height="39.789" x="2276" y="307" fill="#3D176E" rx="2.5" ry="2.5" style="stroke:#000d19;stroke-width:1.5"/><circle cx="2291" cy="326.894" r="11" fill="#E98DF7" style="stroke:#000d19;stroke-width:1"/><path d="M2293.969 332.535q-.578.297-1.219.438-.64.156-1.344.156-2.5 0-3.828-1.64-1.312-1.657-1.312-4.782t1.312-4.781q1.328-1.656 3.828-1.656.703 0 1.344.156.656.156 1.219.453v2.719q-.625-.579-1.219-.844-.594-.281-1.219-.281-1.343 0-2.031 1.078-.688 1.062-.688 3.156 0 2.094.688 3.172.688 1.062 2.031 1.062.625 0 1.219-.265.594-.281 1.219-.86v2.72Z"/><text x="2310" y="332.78" fill="#D9B8FF" font-family="Helvetica" font-size="17" textLength="112">gcp_database</text></a><a xlink:actuate="onRequest" xlink:href="#j" xlink:show="new" xlink:title="#gcp_gke_cluster" xlink:type="simple" target="_top"><rect id="j" width="174" height="39.789" x="1661" y="307" fill="#3D176E" rx="2.5" ry="2.5" style="stroke:#000d19;stroke-width:1.5"/><circle cx="1676" cy="326.894" r="11" fill="#E98DF7" style="stroke:#000d19;stroke-width:1"/><path d="M1678.969 332.535q-.578.297-1.219.438-.64.156-1.344.156-2.5 0-3.828-1.64-1.312-1.657-1.312-4.782t1.312-4.781q1.328-1.656 3.828-1.656.703 0 1.344.156.656.156 1.219.453v2.719q-.625-.579-1.219-.844-.594-.281-1.219-.281-1.343 0-2.031 1.078-.688 1.062-.688 3.156 0 2.094.688 3.172.688 1.062 2.031 1.062.625 0 1.219-.265.594-.281 1.219-.86v2.72Z"/><text x="1695" y="332.78" fill="#D9B8FF" font-family="Helvetica" font-size="17" textLength="132">gcp_gke_cluster</text></a><a xlink:actuate="onRequest" xlink:href="#k" xlink:show="new" xlink:title="#gcp_instance_group" xlink:type="simple" target="_top"><rect id="k" width="206" height="39.789" x="1505" y="607" fill="#3D176E" rx="2.5" ry="2.5" style="stroke:#000d19;stroke-width:1.5"/><circle cx="1520" cy="626.894" r="11" fill="#E98DF7" style="stroke:#000d19;stroke-width:1"/><path d="M1522.969 632.535q-.578.297-1.219.438-.64.156-1.344.156-2.5 0-3.828-1.64-1.312-1.657-1.312-4.782t1.312-4.781q1.328-1.657 3.828-1.657.703 0 1.344.157.656.156 1.219.453v2.719q-.625-.578-1.219-.844-.594-.281-1.219-.281-1.343 0-2.031 1.078-.688 1.062-.688 3.156 0 2.094.688 3.172.688 1.062 2.031 1.062.625 0 1.219-.265.594-.282 1.219-.86v2.72Z"/><text x="1539" y="632.78" fill="#D9B8FF" font-family="Helvetica" font-size="17" textLength="164">gcp_instance_group</text></a><a xlink:actuate="onRequest" xlink:href="#l" xlink:show="new" xlink:title="#gcp_health_check" xlink:type="simple" target="_top"><rect id="l" width="189" height="39.789" x="292.5" y="807" fill="#3D176E" rx="2.5" ry="2.5" style="stroke:#000d19;stroke-width:1.5"/><circle cx="307.5" cy="826.894" r="11" fill="#E98DF7" style="stroke:#000d19;stroke-width:1"/><path d="M310.469 832.535q-.578.297-1.219.438-.64.156-1.344.156-2.5 0-3.828-1.64-1.312-1.657-1.312-4.782t1.312-4.781q1.328-1.657 3.828-1.657.703 0 1.344.157.656.156 1.219.453v2.719q-.625-.578-1.219-.844-.594-.281-1.219-.281-1.344 0-2.031 1.078-.688 1.062-.688 3.156 0 2.094.688 3.172.688 1.062 2.031 1.062.625 0 1.219-.265.594-.282 1.219-.86v2.72Z"/><text x="326.5" y="832.78" fill="#D9B8FF" font-family="Helvetica" font-size="17" textLength="147">gcp_health_check</text></a><a xlink:actuate="onRequest" xlink:href="#m" xlink:show="new" xlink:title="#gcp_instance_group_manager" xlink:type="simple" target="_top"><rect id="m" width="290" height="39.789" x="2004" y="707" fill="#3D176E" rx="2.5" ry="2.5" style="stroke:#000d19;stroke-width:1.5"/><circle cx="2019" cy="726.894" r="11" fill="#E98DF7" style="stroke:#000d19;stroke-width:1"/><path d="M2021.969 732.535q-.578.297-1.219.438-.64.156-1.344.156-2.5 0-3.828-1.64-1.312-1.657-1.312-4.782t1.312-4.781q1.328-1.657 3.828-1.657.703 0 1.344.157.656.156 1.219.453v2.719q-.625-.578-1.219-.844-.594-.281-1.219-.281-1.343 0-2.031 1.078-.688 1.062-.688 3.156 0 2.094.688 3.172.688 1.062 2.031 1.062.625 0 1.219-.265.594-.282 1.219-.86v2.72Z"/><text x="2038" y="732.78" fill="#D9B8FF" font-family="Helvetica" font-size="17" textLength="248">gcp_instance_group_manager</text></a><a xlink:actuate="onRequest" xlink:href="#n" xlink:show="new" xlink:title="#gcp_backend_service" xlink:type="simple" target="_top"><rect id="n" width="215" height="39.789" x="526.5" y="507" fill="#3D176E" rx="2.5" ry="2.5" style="stroke:#000d19;stroke-width:1.5"/><circle cx="541.5" cy="526.894" r="11" fill="#E98DF7" style="stroke:#000d19;stroke-width:1"/><path d="M544.469 532.535q-.578.297-1.219.438-.64.156-1.344.156-2.5 0-3.828-1.64-1.312-1.657-1.312-4.782t1.312-4.781q1.328-1.657 3.828-1.657.703 0 1.344.157.656.156 1.219.453v2.719q-.625-.578-1.219-.844-.594-.281-1.219-.281-1.343 0-2.031 1.078-.688 1.062-.688 3.156 0 2.094.688 3.172.688 1.062 2.031 1.062.625 0 1.219-.265.594-.282 1.219-.86v2.72Z"/><text x="560.5" y="532.78" fill="#D9B8FF" font-family="Helvetica" font-size="17" textLength="173">gcp_backend_service</text></a><a xlink:actuate="onRequest" xlink:href="#o" xlink:show="new" xlink:title="#gcp_subnetwork" xlink:type="simple" target="_top"><rect id="o" width="178" height="39.789" x="1008" y="507" fill="#3D176E" rx="2.5" ry="2.5" style="stroke:#000d19;stroke-width:1.5"/><circle cx="1023" cy="526.894" r="11" fill="#E98DF7" style="stroke:#000d19;stroke-width:1"/><path d="M1025.969 532.535q-.578.297-1.219.438-.64.156-1.344.156-2.5 0-3.828-1.64-1.312-1.657-1.312-4.782t1.312-4.781q1.328-1.657 3.828-1.657.703 0 1.344.157.656.156 1.219.453v2.719q-.625-.578-1.219-.844-.594-.281-1.219-.281-1.343 0-2.031 1.078-.688 1.062-.688 3.156 0 2.094.688 3.172.688 1.062 2.031 1.062.625 0 1.219-.265.594-.282 1.219-.86v2.72Z"/><text x="1042" y="532.78" fill="#D9B8FF" font-family="Helvetica" font-size="17" textLength="136">gcp_subnetwork</text></a><a xlink:actuate="onRequest" xlink:href="#p" xlink:show="new" xlink:title="#gcp_target_http_proxy" xlink:type="simple" target="_top"><rect id="p" width="230" height="39.789" x="343" y="307" fill="#3D176E" rx="2.5" ry="2.5" style="stroke:#000d19;stroke-width:1.5"/><circle cx="358" cy="326.894" r="11" fill="#E98DF7" style="stroke:#000d19;stroke-width:1"/><path d="M360.969 332.535q-.578.297-1.219.438-.64.156-1.344.156-2.5 0-3.828-1.64-1.312-1.657-1.312-4.782t1.312-4.781q1.328-1.656 3.828-1.656.703 0 1.344.156.656.156 1.219.453v2.719q-.625-.579-1.219-.844-.594-.281-1.219-.281-1.344 0-2.031 1.078-.688 1.062-.688 3.156 0 2.094.688 3.172.688 1.062 2.031 1.062.625 0 1.219-.265.594-.281 1.219-.86v2.72Z"/><text x="377" y="332.78" fill="#D9B8FF" font-family="Helvetica" font-size="17" textLength="188">gcp_target_http_proxy</text></a><a xlink:actuate="onRequest" xlink:href="#q" xlink:show="new" xlink:title="#gcp_url_map" xlink:type="simple" target="_top"><rect id="q" width="148" height="39.789" x="496" y="407" fill="#3D176E" rx="2.5" ry="2.5" style="stroke:#000d19;stroke-width:1.5"/><circle cx="511" cy="426.894" r="11" fill="#E98DF7" style="stroke:#000d19;stroke-width:1"/><path d="M513.969 432.535q-.578.297-1.219.438-.64.156-1.344.156-2.5 0-3.828-1.64-1.312-1.657-1.312-4.782t1.312-4.781q1.328-1.656 3.828-1.656.703 0 1.344.156.656.156 1.219.453v2.719q-.625-.579-1.219-.844-.594-.281-1.219-.281-1.344 0-2.031 1.078-.688 1.062-.688 3.156 0 2.094.688 3.172.688 1.062 2.031 1.062.625 0 1.219-.265.594-.281 1.219-.86v2.72Z"/><text x="530" y="432.78" fill="#D9B8FF" font-family="Helvetica" font-size="17" textLength="106">gcp_url_map</text></a><a xlink:actuate="onRequest" xlink:href="#r" xlink:show="new" xlink:title="#gcp_region" xlink:type="simple" target="_top"><rect id="r" width="132" height="39.789" x="1352" y="107" fill="#3D176E" rx="2.5" ry="2.5" style="stroke:#000d19;stroke-width:1.5"/><circle cx="1367" cy="126.894" r="11" fill="#E98DF7" style="stroke:#000d19;stroke-width:1"/><path d="M1369.969 132.535q-.578.297-1.219.438-.64.156-1.344.156-2.5 0-3.828-1.64-1.312-1.657-1.312-4.782t1.312-4.781q1.328-1.657 3.828-1.657.703 0 1.344.157.656.156 1.219.453v2.719q-.625-.579-1.219-.844-.594-.281-1.219-.281-1.343 0-2.031 1.078-.688 1.062-.688 3.156 0 2.094.688 3.172.688 1.062 2.031 1.062.625 0 1.219-.265.594-.281 1.219-.86v2.72Z"/><text x="1386" y="132.78" fill="#D9B8FF" font-family="Helvetica" font-size="17" textLength="90">gcp_region</text></a><a xlink:actuate="onRequest" xlink:href="#s" xlink:show="new" xlink:title="#gcp_vpn_tunnel" xlink:type="simple" target="_top"><rect id="s" width="174" height="39.789" x="1120" y="207" fill="#3D176E" rx="2.5" ry="2.5" style="stroke:#000d19;stroke-width:1.5"/><circle cx="1135" cy="226.894" r="11" fill="#E98DF7" style="stroke:#000d19;stroke-width:1"/><path d="M1137.969 232.535q-.578.297-1.219.438-.64.156-1.344.156-2.5 0-3.828-1.64-1.312-1.657-1.312-4.782t1.312-4.781q1.328-1.656 3.828-1.656.703 0 1.344.156.656.156 1.219.453v2.719q-.625-.579-1.219-.844-.594-.281-1.219-.281-1.343 0-2.031 1.078-.688 1.062-.688 3.156 0 2.094.688 3.172.688 1.062 2.031 1.062.625 0 1.219-.265.594-.281 1.219-.86v2.72Z"/><text x="1154" y="232.78" fill="#D9B8FF" font-family="Helvetica" font-size="17" textLength="132">gcp_vpn_tunnel</text></a><a xlink:actuate="onRequest" xlink:href="#t" xlink:show="new" xlink:title="#gcp_target_https_proxy" xlink:type="simple" target="_top"><rect id="t" width="238" height="39.789" x="1317" y="307" fill="#3D176E" rx="2.5" ry="2.5" style="stroke:#000d19;stroke-width:1.5"/><circle cx="1332" cy="326.894" r="11" fill="#E98DF7" style="stroke:#000d19;stroke-width:1"/><path d="M1334.969 332.535q-.578.297-1.219.438-.64.156-1.344.156-2.5 0-3.828-1.64-1.312-1.657-1.312-4.782t1.312-4.781q1.328-1.656 3.828-1.656.703 0 1.344.156.656.156 1.219.453v2.719q-.625-.579-1.219-.844-.594-.281-1.219-.281-1.343 0-2.031 1.078-.688 1.062-.688 3.156 0 2.094.688 3.172.688 1.062 2.031 1.062.625 0 1.219-.265.594-.281 1.219-.86v2.72Z"/><text x="1351" y="332.78" fill="#D9B8FF" font-family="Helvetica" font-size="17" textLength="196">gcp_target_https_proxy</text></a><a xlink:actuate="onRequest" xlink:href="#u" xlink:show="new" xlink:title="#gcp_quota" xlink:type="simple" target="_top"><rect id="u" width="127" height="39.789" x="1471.5" y="207" fill="#3D176E" rx="2.5" ry="2.5" style="stroke:#000d19;stroke-width:1.5"/><circle cx="1486.5" cy="226.894" r="11" fill="#E98DF7" style="stroke:#000d19;stroke-width:1"/><path d="M1489.469 232.535q-.578.297-1.219.438-.64.156-1.344.156-2.5 0-3.828-1.64-1.312-1.657-1.312-4.782t1.312-4.781q1.328-1.656 3.828-1.656.703 0 1.344.156.656.156 1.219.453v2.719q-.625-.579-1.219-.844-.594-.281-1.219-.281-1.343 0-2.031 1.078-.688 1.062-.688 3.156 0 2.094.688 3.172.688 1.062 2.031 1.062.625 0 1.219-.265.594-.281 1.219-.86v2.72Z"/><text x="1505.5" y="232.78" fill="#D9B8FF" font-family="Helvetica" font-size="17" textLength="85">gcp_quota</text></a><a xlink:actuate="onRequest" xlink:href="#v" xlink:show="new" xlink:title="#gcp_target_vpn_gateway" xlink:type="simple" target="_top"><rect id="v" width="251" height="39.789" x="959.5" y="307" fill="#3D176E" rx="2.5" ry="2.5" style="stroke:#000d19;stroke-width:1.5"/><circle cx="974.5" cy="326.894" r="11" fill="#E98DF7" style="stroke:#000d19;stroke-width:1"/><path d="M977.469 332.535q-.578.297-1.219.438-.64.156-1.344.156-2.5 0-3.828-1.64-1.312-1.657-1.312-4.782t1.312-4.781q1.328-1.656 3.828-1.656.703 0 1.344.156.656.156 1.219.453v2.719q-.625-.579-1.219-.844-.594-.281-1.219-.281-1.343 0-2.031 1.078-.688 1.062-.688 3.156 0 2.094.688 3.172.688 1.062 2.031 1.062.625 0 1.219-.265.594-.281 1.219-.86v2.72Z"/><text x="993.5" y="332.78" fill="#D9B8FF" font-family="Helvetica" font-size="17" textLength="209">gcp_target_vpn_gateway</text></a><a xlink:actuate="onRequest" xlink:href="#w" xlink:show="new" xlink:title="#gcp_ssl_certificate" xlink:type="simple" target="_top"><rect id="w" width="192" height="39.789" x="2445" y="407" fill="#3D176E" rx="2.5" ry="2.5" style="stroke:#000d19;stroke-width:1.5"/><circle cx="2460" cy="426.894" r="11" fill="#E98DF7" style="stroke:#000d19;stroke-width:1"/><path d="M2462.969 432.535q-.578.297-1.219.438-.64.156-1.344.156-2.5 0-3.828-1.64-1.312-1.657-1.312-4.782t1.312-4.781q1.328-1.656 3.828-1.656.703 0 1.344.156.656.156 1.219.453v2.719q-.625-.579-1.219-.844-.594-.281-1.219-.281-1.343 0-2.031 1.078-.688 1.062-.688 3.156 0 2.094.688 3.172.688 1.062 2.031 1.062.625 0 1.219-.265.594-.281 1.219-.86v2.72Z"/><text x="2479" y="432.78" fill="#D9B8FF" font-family="Helvetica" font-size="17" textLength="150">gcp_ssl_certificate</text></a><a xlink:actuate="onRequest" xlink:href="#x" xlink:show="new" xlink:title="#gcp_project" xlink:type="simple" target="_top"><rect id="x" width="136" height="39.789" x="581" y="7" fill="#3D176E" rx="2.5" ry="2.5" style="stroke:#000d19;stroke-width:1.5"/><circle cx="596" cy="26.895" r="11" fill="#E98DF7" style="stroke:#000d19;stroke-width:1"/><path d="M598.969 32.535q-.578.297-1.219.438-.64.156-1.344.156-2.5 0-3.828-1.64-1.312-1.657-1.312-4.782t1.312-4.781q1.328-1.656 3.828-1.656.703 0 1.344.156.656.156 1.219.453v2.719q-.625-.578-1.219-.844-.594-.281-1.219-.281-1.343 0-2.031 1.078-.688 1.062-.688 3.156 0 2.094.688 3.172.688 1.062 2.031 1.062.625 0 1.219-.265.594-.281 1.219-.86v2.72Z"/><text x="615" y="32.78" fill="#D9B8FF" font-family="Helvetica" font-size="17" textLength="94">gcp_project</text></a><path fill="none" d="M943.05 245.35c104.03 17.02 262.49 42.94 371.51 60.78" style="stroke:#1a83af;stroke-width:2"/><path fill="#1A83AF" d="m1319.72 306.98-8.243-5.39 3.308 4.589-4.59 3.307 9.525-2.506z" style="stroke:#1a83af;stroke-width:2"/><path fill="none" d="M885.11 247.01c42.13 16.65 103.25 40.8 146.8 58.01" style="stroke:#1a83af;stroke-width:2"/><path fill="#1A83AF" d="m1036.6 306.87-6.908-7.02 2.256 5.188-5.188 2.256 9.84-.424z" style="stroke:#1a83af;stroke-width:2"/><path fill="none" d="M837 247.36v54.3" style="stroke:#1a83af;stroke-width:2"/><path fill="#1A83AF" d="m837 306.68 4-9-4 4-4-4 4 9z" style="stroke:#1a83af;stroke-width:2"/><path fill="none" d="M763.48 247.01c-65.15 16.85-160 41.37-226.68 58.62" style="stroke:#1a83af;stroke-width:2"/><path fill="#1A83AF" d="m531.64 306.96 9.712 1.637-4.869-2.88 2.88-4.869-7.723 6.112z" style="stroke:#1a83af;stroke-width:2"/><path fill="none" d="M2109.16 247.13c-33.56 16.52-82 40.38-116.81 57.52" style="stroke:#1a83af;stroke-width:2"/><path fill="#1A83AF" d="m1987.74 306.92 9.842-.372-5.353-1.83 1.83-5.352-6.319 7.554z" style="stroke:#1a83af;stroke-width:2"/><path fill="none" d="M2136.85 247.34c-16.4 26.66-49.6 74.27-90.85 99.66-314.73 193.7-756.19 253.01-984.34 271.11" style="stroke:#1a83af;stroke-width:2"/><path fill="#1A83AF" d="m1056.64 618.5 9.282 3.294-4.297-3.68 3.68-4.296-8.665 4.682z" style="stroke:#1a83af;stroke-width:2"/><path fill="none" d="M2144.68 247.35c-6.24 36.32-19.69 114.62-26.52 154.4" style="stroke:#1a83af;stroke-width:2"/><path fill="#1A83AF" d="m2117.29 406.87 5.483-8.182-4.626 3.256-3.256-4.626 2.399 9.552z" style="stroke:#1a83af;stroke-width:2"/><path fill="none" d="M2207.04 238.67c95.33 17.24 283.72 51.31 394.94 71.42" style="stroke:#1a83af;stroke-width:2"/><path fill="#1A83AF" d="m2607.22 311.03-8.148-5.533 3.227 4.646-4.646 3.227 9.567-2.34z" style="stroke:#1a83af;stroke-width:2"/><path fill="none" d="M2188.01 247.13c34.57 16.52 84.48 40.38 120.34 57.52" style="stroke:#1a83af;stroke-width:2"/><path fill="#1A83AF" d="m2313.09 306.92-6.396-7.49 1.885 5.334-5.334 1.885 9.845.271z" style="stroke:#1a83af;stroke-width:2"/><path fill="none" d="M2088.98 242.46c-68.26 16.72-181.1 44.37-258.13 63.24" style="stroke:#1a83af;stroke-width:2"/><path fill="#1A83AF" d="m1825.83 306.93 9.692 1.752-4.835-2.938 2.938-4.834-7.795 6.02z" style="stroke:#1a83af;stroke-width:2"/><path fill="none" d="M2160.23 247.15c24.43 40.94 73.21 138.27 27.77 199.85-56.27 76.26-319.79 133.72-471.55 161.16" style="stroke:#1a83af;stroke-width:2"/><path fill="#1A83AF" d="m1711.1 609.12 9.566 2.345-4.645-3.23 3.23-4.644-8.151 5.529z" style="stroke:#1a83af;stroke-width:2"/><path fill="none" d="M1981.21 347.13c27.59 16.39 67.33 39.99 96.14 57.1" style="stroke:#1a83af;stroke-width:2"/><path fill="#1A83AF" d="m2081.88 406.92-5.691-8.038 1.394 5.482-5.483 1.394 9.78 1.162z" style="stroke:#1a83af;stroke-width:2"/><path fill="none" d="M2688.79 347.38c-2.5 25.41-10.2 70.23-33.79 99.62-114.48 142.6-322.49 223.58-432.78 258.39" style="stroke:#1a83af;stroke-width:2"/><path fill="#1A83AF" d="m2217.36 706.92 9.785 1.117-5.015-2.617 2.616-5.015-7.386 6.515z" style="stroke:#1a83af;stroke-width:2"/><path fill="none" d="M1711.03 646.66c93.82 17 231.95 42.02 327.91 59.4" style="stroke:#1a83af;stroke-width:2"/><path fill="#1A83AF" d="m2044.05 706.99-8.15-5.529 3.229 4.645-4.645 3.229 9.566-2.345z" style="stroke:#1a83af;stroke-width:2"/><path fill="none" d="M2003.68 736.08C1655.9 755.43 782.62 804 486.78 820.45" style="stroke:#1a83af;stroke-width:2"/><path fill="#1A83AF" d="m481.61 820.74 9.204 3.506-4.211-3.777 3.777-4.211-8.77 4.482z" style="stroke:#1a83af;stroke-width:2"/><path fill="none" d="M687.93 547.01c47.32 16.68 116.02 40.9 164.86 58.12" style="stroke:#1a83af;stroke-width:2"/><path fill="#1A83AF" d="m857.75 606.87-7.164-6.758 2.447 5.1-5.1 2.447 9.817-.789z" style="stroke:#1a83af;stroke-width:2"/><path fill="none" d="M618.17 547.09c-43.46 52.44-164.56 198.55-211.88 255.64" style="stroke:#1a83af;stroke-width:2"/><path fill="#1A83AF" d="m403.01 806.68 8.833-4.356-5.634.514-.514-5.634-2.685 9.476z" style="stroke:#1a83af;stroke-width:2"/><path fill="none" d="M741.96 538.86c187.2 18.84 569.96 57.35 757.54 76.22" style="stroke:#1a83af;stroke-width:2"/><path fill="#1A83AF" d="m1504.72 615.61-8.554-4.88 3.58 4.38-4.381 3.58 9.355-3.08z" style="stroke:#1a83af;stroke-width:2"/><path fill="none" d="M1060.89 547.13c-31.07 16.46-75.86 40.19-108.2 57.31" style="stroke:#1a83af;stroke-width:2"/><path fill="#1A83AF" d="m948.02 606.92 9.826-.673-5.406-1.665 1.665-5.406-6.085 7.744z" style="stroke:#1a83af;stroke-width:2"/><path fill="none" d="m1186.01 545.07 317.67 60.92" style="stroke:#1a83af;stroke-width:2"/><path fill="#1A83AF" d="m1508.66 606.95-8.085-5.624 3.175 4.682-4.682 3.174 9.592-2.232z" style="stroke:#1a83af;stroke-width:2"/><path fill="none" d="M479.86 347.13c18.5 16.19 45.04 39.41 64.53 56.47" style="stroke:#1a83af;stroke-width:2"/><path fill="#1A83AF" d="m548.19 406.92-4.142-8.936.378 5.644-5.644.378 9.408 2.914z" style="stroke:#1a83af;stroke-width:2"/><path fill="none" d="M582.64 447.36c10.26 15.71 24.76 37.92 35.74 54.73" style="stroke:#1a83af;stroke-width:2"/><path fill="#1A83AF" d="m621.38 506.68-1.564-9.724-1.167 5.535-5.535-1.166 8.266 5.355z" style="stroke:#1a83af;stroke-width:2"/><path fill="none" d="M1377.07 147.01c-35.56 16.52-87.01 40.41-124 57.59" style="stroke:#1a83af;stroke-width:2"/><path fill="#1A83AF" d="m1248.18 206.87 9.848-.146-5.31-1.952 1.953-5.31-6.491 7.408z" style="stroke:#1a83af;stroke-width:2"/><path fill="none" d="M1351.85 130.87C1176.05 139.04 706.89 164.61 652 207c-31.92 24.65-63.68 142.94-76.31 194.68" style="stroke:#1a83af;stroke-width:2"/><path fill="#1A83AF" d="m574.46 406.77 5.999-7.811-4.827 2.95-2.95-4.826 1.778 9.687z" style="stroke:#1a83af;stroke-width:2"/><path fill="none" d="M1484.07 136.87c139.3 18.7 461.6 61.97 599.47 80.48" style="stroke:#1a83af;stroke-width:2"/><path fill="#1A83AF" d="m2088.77 218.05-8.382-5.172 3.427 4.5-4.5 3.428 9.455-2.756z" style="stroke:#1a83af;stroke-width:2"/><path fill="none" d="M1484.25 134.6c56.58 8.57 137.5 28.11 193.75 72.4 31.56 24.85 51.79 68.15 62.01 95.11" style="stroke:#1a83af;stroke-width:2"/><path fill="#1A83AF" d="m1741.8 306.94.611-9.83-2.354 5.144-5.144-2.355 6.887 7.041z" style="stroke:#1a83af;stroke-width:2"/><path fill="none" d="M1419.76 147.35c3.3 36.32 10.42 114.62 14.04 154.4" style="stroke:#1a83af;stroke-width:2"/><path fill="#1A83AF" d="m1434.26 306.87 3.16-9.329-3.618 4.35-4.35-3.617 4.808 8.596z" style="stroke:#1a83af;stroke-width:2"/><path fill="none" d="M1484.19 129.22c122.73 3.67 378.77 18.44 440.81 77.78 25.42 24.31 27.89 67.49 26.54 94.61" style="stroke:#1a83af;stroke-width:2"/><path fill="#1A83AF" d="m1951.22 306.81 4.558-8.73-4.243 3.74-3.74-4.244 3.425 9.234z" style="stroke:#1a83af;stroke-width:2"/><path fill="none" d="M1351.7 131.07C1185.3 139.39 759.93 164.62 713 207c-81 73.15-22.75 134.85-52 240-5.17 18.57-12.25 39.16-17.86 54.66" style="stroke:#1a83af;stroke-width:2"/><path fill="#1A83AF" d="m641.29 506.72 6.842-7.085-5.129 2.388-2.387-5.129.674 9.826z" style="stroke:#1a83af;stroke-width:2"/><path fill="none" d="M1484.25 143.31c77.94 18.02 206.83 47.81 286.77 66.28" style="stroke:#1a83af;stroke-width:2"/><path fill="#1A83AF" d="m1776.22 210.8-7.865-5.928 2.994 4.8-4.8 2.994 9.671-1.866z" style="stroke:#1a83af;stroke-width:2"/><path fill="none" d="M1484.06 128.02c220.85.73 931.78 8.64 1147.94 78.98 145.29 47.28 265 66.21 265 219v102c0 122.45-379.37 170.92-597.76 188.67" style="stroke:#1a83af;stroke-width:2"/><path fill="#1A83AF" d="m2294.11 717.08 9.291 3.267-4.307-3.667 3.667-4.307-8.651 4.707z" style="stroke:#1a83af;stroke-width:2"/><path fill="none" d="M1440.84 147.13c19.32 16.19 47.05 39.41 67.41 56.47" style="stroke:#1a83af;stroke-width:2"/><path fill="#1A83AF" d="m1512.22 206.92-4.32-8.85.49 5.635-5.635.492 9.465 2.723z" style="stroke:#1a83af;stroke-width:2"/><path fill="none" d="M1351.76 129.57C1146.23 134.94 521.45 155.21 326 207c-118.56 31.42-249-3.66-249 119v302c0 101.64 119.81 153.43 210.47 178.07" style="stroke:#1a83af;stroke-width:2"/><path fill="#1A83AF" d="m292.31 807.36-7.65-6.202 2.822 4.902-4.902 2.823 9.73-1.523z" style="stroke:#1a83af;stroke-width:2"/><path fill="none" d="M1351.89 128.64C1179.11 131.21 717.97 143.93 581 207c-46.11 21.23-85.46 67.13-106.54 95.31" style="stroke:#1a83af;stroke-width:2"/><path fill="#1A83AF" d="m471.24 306.68 8.55-4.888-5.591.857-.858-5.591-2.101 9.622z" style="stroke:#1a83af;stroke-width:2"/><path fill="none" d="M1484.12 129.07c168.3 3.57 608.92 18.48 740.88 77.93 47.46 21.38 88.8 67.55 110.9 95.68" style="stroke:#1a83af;stroke-width:2"/><path fill="#1A83AF" d="m2339.02 306.69-2.375-9.558-.698 5.613-5.613-.697 8.686 4.642z" style="stroke:#1a83af;stroke-width:2"/><path fill="none" d="M1484.32 127.24c212.43-.72 867.7 10.93 963.68 179.76 58.7 103.25-160.8 118.46-272.5 119.69" style="stroke:#1a83af;stroke-width:2"/><path fill="#1A83AF" d="m2170.27 426.74 9.034 3.923-4.034-3.966 3.965-4.034-8.965 4.077z" style="stroke:#1a83af;stroke-width:2"/><path fill="none" d="M1402.52 147.2c-53.29 66.07-229.03 283.97-286.88 355.69" style="stroke:#1a83af;stroke-width:2"/><path fill="#1A83AF" d="m1112.33 507 8.752-4.517-5.623.617-.618-5.623-2.511 9.523z" style="stroke:#1a83af;stroke-width:2"/><path fill="none" d="M1351.76 138.53c-69.87 12.21-182.55 35.03-275.76 68.47-74.66 26.79-156.3 70.93-202.23 97.26" style="stroke:#1a83af;stroke-width:2"/><path fill="#1A83AF" d="m869.17 306.91 9.796-1.024-5.463-1.47 1.471-5.463-5.804 7.957z" style="stroke:#1a83af;stroke-width:2"/><path fill="none" d="M1484.25 135.35c45.38 8.87 102.48 28.45 131.75 71.65 43.83 64.68 8.48 315.77-4.04 394.94" style="stroke:#1a83af;stroke-width:2"/><path fill="#1A83AF" d="m1611.17 606.91 5.363-8.26-4.578 3.322-3.322-4.578 2.537 9.516z" style="stroke:#1a83af;stroke-width:2"/><path fill="none" d="M1351.96 130.42C1171.49 137.56 673.09 161.01 516 207c-108.94 31.9-226 5.48-226 119v102c0 98.73 288.15 154.79 472.2 180.52" style="stroke:#1a83af;stroke-width:2"/><path fill="#1A83AF" d="m767.35 609.24-8.365-5.199 3.412 4.512-4.511 3.412 9.464-2.725z" style="stroke:#1a83af;stroke-width:2"/><path fill="none" d="M1351.65 135.88c-82.56 11.22-216.7 34.59-249.65 71.12-23.19 25.72-23.46 68.09-20.78 94.73" style="stroke:#1a83af;stroke-width:2"/><path fill="#1A83AF" d="m1081.79 306.83 2.97-9.39-3.528 4.421-4.422-3.528 4.98 8.497z" style="stroke:#1a83af;stroke-width:2"/><path fill="none" d="M1484.2 129.66c231.61 6.18 996.91 30.02 1095.8 77.34 43.36 20.75 77.84 66.81 95.98 95.15" style="stroke:#1a83af;stroke-width:2"/><path fill="#1A83AF" d="m2678.75 306.54-1.425-9.745-1.245 5.518-5.519-1.245 8.189 5.472z" style="stroke:#1a83af;stroke-width:2"/><path fill="none" d="M1351.92 139.15c-98.25 16.57-284.07 47.91-403.56 68.07" style="stroke:#1a83af;stroke-width:2"/><path fill="#1A83AF" d="m943.08 208.11 9.539 2.452-4.608-3.28 3.281-4.609-8.212 5.437z" style="stroke:#1a83af;stroke-width:2"/><path fill="none" d="M1484.23 128.19c187.86 1.37 720.78 11.27 879.77 78.81 62.03 26.35 72.21 47.12 114 100 23.51 29.75 42.52 69.56 53.29 94.75" style="stroke:#1a83af;stroke-width:2"/><path fill="#1A83AF" d="m2533.33 406.59.157-9.848-2.115 5.247-5.246-2.115 7.204 6.716z" style="stroke:#1a83af;stroke-width:2"/><path fill="none" d="M1183.19 247.13c-20.16 16.19-49.07 39.41-70.3 56.47" style="stroke:#1a83af;stroke-width:2"/><path fill="#1A83AF" d="m1108.75 306.92 9.518-2.533-5.625-.604.605-5.625-4.498 8.762z" style="stroke:#1a83af;stroke-width:2"/><path fill="none" d="M1555.06 338.94c29.09 2.66 60.14 5.48 88.94 8.06 288.43 25.87 629.1 55.67 795.4 70.16" style="stroke:#1a83af;stroke-width:2"/><path fill="#1A83AF" d="m2444.75 417.63-8.624-4.756 3.642 4.328-4.327 3.642 9.309-3.214z" style="stroke:#1a83af;stroke-width:2"/><path fill="none" d="M1316.95 341.47c-179.49 20.31-514.63 58.24-667.4 75.53" style="stroke:#1a83af;stroke-width:2"/><path fill="#1A83AF" d="m644.2 417.6 9.39 2.973-4.421-3.53 3.53-4.42-8.499 4.977z" style="stroke:#1a83af;stroke-width:2"/><path fill="none" d="M717.37 32.17C971.23 48.38 1849.1 111.06 1925 207c11.03 13.94 11.52 26.46 0 40-23.46 27.56-227.5 53.03-364.5 67.25" style="stroke:#1a83af;stroke-width:2"/><path fill="#1A83AF" d="m1555.25 314.79 9.363 3.055-4.39-3.568 3.57-4.39-8.543 4.903z" style="stroke:#1a83af;stroke-width:2"/><path fill="none" d="M580.55 31.67C468.12 39 251 59.09 193 107c-43.59 36.01-45 62.46-45 119v102c0 56.54 1.51 82.87 45 119 48.82 40.56 214.62 61.51 328.41 71.37" style="stroke:#1a83af;stroke-width:2"/><path fill="#1A83AF" d="m526.45 518.8-8.624-4.756 3.642 4.328-4.327 3.643 9.309-3.215z" style="stroke:#1a83af;stroke-width:2"/><path fill="none" d="M667.37 47.35c34.91 36.76 110.66 116.55 147.98 155.84" style="stroke:#1a83af;stroke-width:2"/><path fill="#1A83AF" d="m818.83 206.87-3.293-9.282-.149 5.655-5.654-.149 9.096 3.776z" style="stroke:#1a83af;stroke-width:2"/><path fill="none" d="M580.73 27.79C481.9 29.88 295.15 42.95 152 107 75.59 141.19 6 142.29 6 226v402c0 126.89 168.45 172.58 281.33 188.95" style="stroke:#1a83af;stroke-width:2"/><path fill="#1A83AF" d="m292.33 817.66-8.337-5.243 3.388 4.53-4.53 3.389 9.479-2.676z" style="stroke:#1a83af;stroke-width:2"/><path fill="none" d="M580.87 29.4C459.62 35.9 219 68.61 219 226v102c0 126.68 137.21 84.14 259 119 181.19 51.87 401.97 69.72 524.86 75.84" style="stroke:#1a83af;stroke-width:2"/><path fill="#1A83AF" d="m1007.92 523.09-8.795-4.433 3.8 4.19-4.189 3.8 9.184-3.557z" style="stroke:#1a83af;stroke-width:2"/><path fill="none" d="M633 47.03C606.67 78.86 553.41 145.47 516 207c-19.25 31.67-37.26 70.65-47.96 95.18" style="stroke:#1a83af;stroke-width:2"/><path fill="#1A83AF" d="m466 306.88 7.247-6.67-5.26 2.082-2.081-5.26.094 9.848z" style="stroke:#1a83af;stroke-width:2"/><path fill="none" d="M717.06 29.74C1022.33 38.21 2266.26 80.03 2632 207c78.51 27.25 117.92 27.2 158 100 35.97 65.33-63.85 95.21-147.63 108.59" style="stroke:#1a83af;stroke-width:2"/><path fill="#1A83AF" d="m2637.38 416.37 9.51 2.564-4.57-3.335 3.335-4.569-8.275 5.34z" style="stroke:#1a83af;stroke-width:2"/><path fill="none" d="M717.24 36.7c144.86 18.46 481.87 61.4 629.42 80.21" style="stroke:#1a83af;stroke-width:2"/><path fill="#1A83AF" d="m1351.83 117.57-8.41-5.124 3.451 4.481-4.48 3.452 9.439-2.809z" style="stroke:#1a83af;stroke-width:2"/></svg>