<svg xmlns="http://www.w3.org/2000/svg" xmlns:xlink="http://www.w3.org/1999/xlink" width="1436" height="452" preserveAspectRatio="none" style="width:1436px;height:452px;background:#00000000"><a xlink:actuate="onRequest" xlink:href="#a" xlink:show="new" xlink:title="#gcp_network" xlink:type="simple" target="_top"><rect id="a" width="149" height="39.789" x="809" y="107" fill="#3D176E" rx="2.5" ry="2.5" style="stroke:#000d19;stroke-width:1.5"/><circle cx="824" cy="126.894" r="11" fill="#E98DF7" style="stroke:#000d19;stroke-width:1"/><path d="M826.969 132.535q-.578.297-1.219.438-.64.156-1.344.156-2.5 0-3.828-1.64-1.312-1.657-1.312-4.782t1.312-4.781q1.328-1.657 3.828-1.657.703 0 1.344.157.656.156 1.219.453v2.719q-.625-.579-1.219-.844-.594-.281-1.219-.281-1.343 0-2.031 1.078-.688 1.062-.688 3.156 0 2.094.688 3.172.688 1.062 2.031 1.062.625 0 1.219-.265.594-.281 1.219-.86v2.72Z"/><text x="843" y="132.78" fill="#D9B8FF" font-family="Helvetica" font-size="17" textLength="107">gcp_network</text></a><a xlink:actuate="onRequest" xlink:href="#b" xlink:show="new" xlink:title="#gcp_global_network_endpoint_group" xlink:type="simple" target="_top"><rect id="b" width="348" height="39.789" x="428.5" y="307" fill="#3D176E" rx="2.5" ry="2.5" style="stroke:#000d19;stroke-width:1.5"/><circle cx="443.5" cy="326.894" r="11" fill="#E98DF7" style="stroke:#000d19;stroke-width:1"/><path d="M446.469 332.535q-.578.297-1.219.438-.64.156-1.344.156-2.5 0-3.828-1.64-1.312-1.657-1.312-4.782t1.312-4.781q1.328-1.656 3.828-1.656.703 0 1.344.156.656.156 1.219.453v2.719q-.625-.579-1.219-.844-.594-.281-1.219-.281-1.344 0-2.031 1.078-.688 1.062-.688 3.156 0 2.094.688 3.172.688 1.062 2.031 1.062.625 0 1.219-.265.594-.281 1.219-.86v2.72Z"/><text x="462.5" y="332.78" fill="#D9B8FF" font-family="Helvetica" font-size="17" textLength="306">gcp_global_network_endpoint_group</text></a><a xlink:actuate="onRequest" xlink:href="#c" xlink:show="new" xlink:title="#gcp_vpn_gateway" xlink:type="simple" target="_top"><rect id="c" width="191" height="39.789" x="1008" y="207" fill="#3D176E" rx="2.5" ry="2.5" style="stroke:#000d19;stroke-width:1.5"/><circle cx="1023" cy="226.894" r="11" fill="#E98DF7" style="stroke:#000d19;stroke-width:1"/><path d="M1025.969 232.535q-.578.297-1.219.438-.64.156-1.344.156-2.5 0-3.828-1.64-1.312-1.657-1.312-4.782t1.312-4.781q1.328-1.656 3.828-1.656.703 0 1.344.156.656.156 1.219.453v2.719q-.625-.579-1.219-.844-.594-.281-1.219-.281-1.343 0-2.031 1.078-.688 1.062-.688 3.156 0 2.094.688 3.172.688 1.062 2.031 1.062.625 0 1.219-.265.594-.281 1.219-.86v2.72Z"/><text x="1042" y="232.78" fill="#D9B8FF" font-family="Helvetica" font-size="17" textLength="149">gcp_vpn_gateway</text></a><a xlink:actuate="onRequest" xlink:href="#d" xlink:show="new" xlink:title="#gcp_network_endpoint_group" xlink:type="simple" target="_top"><rect id="d" width="289" height="39.789" x="7" y="307" fill="#3D176E" rx="2.5" ry="2.5" style="stroke:#000d19;stroke-width:1.5"/><circle cx="22" cy="326.894" r="11" fill="#E98DF7" style="stroke:#000d19;stroke-width:1"/><path d="M24.969 332.535q-.578.297-1.219.438-.64.156-1.344.156-2.5 0-3.828-1.64-1.312-1.657-1.312-4.782t1.312-4.781q1.328-1.656 3.828-1.656.703 0 1.344.156.656.156 1.219.453v2.719q-.625-.579-1.219-.844-.594-.281-1.219-.281-1.343 0-2.031 1.078-.688 1.062-.688 3.156 0 2.094.688 3.172.688 1.062 2.031 1.062.625 0 1.219-.265.594-.281 1.219-.86v2.72Z"/><text x="41" y="332.78" fill="#D9B8FF" font-family="Helvetica" font-size="17" textLength="247">gcp_network_endpoint_group</text></a><a xlink:actuate="onRequest" xlink:href="#e" xlink:show="new" xlink:title="#gcp_router" xlink:type="simple" target="_top"><rect id="e" width="131" height="39.789" x="413" y="207" fill="#3D176E" rx="2.5" ry="2.5" style="stroke:#000d19;stroke-width:1.5"/><circle cx="428" cy="226.894" r="11" fill="#E98DF7" style="stroke:#000d19;stroke-width:1"/><path d="M430.969 232.535q-.578.297-1.219.438-.64.156-1.344.156-2.5 0-3.828-1.64-1.312-1.657-1.312-4.782t1.312-4.781q1.328-1.656 3.828-1.656.703 0 1.344.156.656.156 1.219.453v2.719q-.625-.579-1.219-.844-.594-.281-1.219-.281-1.344 0-2.031 1.078-.688 1.062-.688 3.156 0 2.094.688 3.172.688 1.062 2.031 1.062.625 0 1.219-.265.594-.281 1.219-.86v2.72Z"/><text x="447" y="232.78" fill="#D9B8FF" font-family="Helvetica" font-size="17" textLength="89">gcp_router</text></a><a xlink:actuate="onRequest" xlink:href="#f" xlink:show="new" xlink:title="#gcp_target_vpn_gateway" xlink:type="simple" target="_top"><rect id="f" width="251" height="39.789" x="579" y="207" fill="#3D176E" rx="2.5" ry="2.5" style="stroke:#000d19;stroke-width:1.5"/><circle cx="594" cy="226.894" r="11" fill="#E98DF7" style="stroke:#000d19;stroke-width:1"/><path d="M596.969 232.535q-.578.297-1.219.438-.64.156-1.344.156-2.5 0-3.828-1.64-1.312-1.657-1.312-4.782t1.312-4.781q1.328-1.656 3.828-1.656.703 0 1.344.156.656.156 1.219.453v2.719q-.625-.579-1.219-.844-.594-.281-1.219-.281-1.343 0-2.031 1.078-.688 1.062-.688 3.156 0 2.094.688 3.172.688 1.062 2.031 1.062.625 0 1.219-.265.594-.281 1.219-.86v2.72Z"/><text x="613" y="232.78" fill="#D9B8FF" font-family="Helvetica" font-size="17" textLength="209">gcp_target_vpn_gateway</text></a><a xlink:actuate="onRequest" xlink:href="#g" xlink:show="new" xlink:title="#gcp_instance" xlink:type="simple" target="_top"><rect id="g" width="149" height="39.789" x="844" y="407" fill="#3D176E" rx="2.5" ry="2.5" style="stroke:#000d19;stroke-width:1.5"/><circle cx="859" cy="426.894" r="11" fill="#E98DF7" style="stroke:#000d19;stroke-width:1"/><path d="M861.969 432.535q-.578.297-1.219.438-.64.156-1.344.156-2.5 0-3.828-1.64-1.312-1.657-1.312-4.782t1.312-4.781q1.328-1.656 3.828-1.656.703 0 1.344.156.656.156 1.219.453v2.719q-.625-.579-1.219-.844-.594-.281-1.219-.281-1.343 0-2.031 1.078-.688 1.062-.688 3.156 0 2.094.688 3.172.688 1.062 2.031 1.062.625 0 1.219-.265.594-.281 1.219-.86v2.72Z"/><text x="878" y="432.78" fill="#D9B8FF" font-family="Helvetica" font-size="17" textLength="107">gcp_instance</text></a><a xlink:actuate="onRequest" xlink:href="#h" xlink:show="new" xlink:title="#gcp_instance_group" xlink:type="simple" target="_top"><rect id="h" width="206" height="39.789" x="815.5" y="307" fill="#3D176E" rx="2.5" ry="2.5" style="stroke:#000d19;stroke-width:1.5"/><circle cx="830.5" cy="326.894" r="11" fill="#E98DF7" style="stroke:#000d19;stroke-width:1"/><path d="M833.469 332.535q-.578.297-1.219.438-.64.156-1.344.156-2.5 0-3.828-1.64-1.312-1.657-1.312-4.782t1.312-4.781q1.328-1.656 3.828-1.656.703 0 1.344.156.656.156 1.219.453v2.719q-.625-.579-1.219-.844-.594-.281-1.219-.281-1.343 0-2.031 1.078-.688 1.062-.688 3.156 0 2.094.688 3.172.688 1.062 2.031 1.062.625 0 1.219-.265.594-.281 1.219-.86v2.72Z"/><text x="849.5" y="332.78" fill="#D9B8FF" font-family="Helvetica" font-size="17" textLength="164">gcp_instance_group</text></a><a xlink:actuate="onRequest" xlink:href="#i" xlink:show="new" xlink:title="#gcp_subnetwork" xlink:type="simple" target="_top"><rect id="i" width="178" height="39.789" x="199.5" y="207" fill="#3D176E" rx="2.5" ry="2.5" style="stroke:#000d19;stroke-width:1.5"/><circle cx="214.5" cy="226.894" r="11" fill="#E98DF7" style="stroke:#000d19;stroke-width:1"/><path d="M217.469 232.535q-.578.297-1.219.438-.64.156-1.344.156-2.5 0-3.828-1.64-1.312-1.657-1.312-4.782t1.312-4.781q1.328-1.656 3.828-1.656.703 0 1.344.156.656.156 1.219.453v2.719q-.625-.579-1.219-.844-.594-.281-1.219-.281-1.344 0-2.031 1.078-.688 1.062-.688 3.156 0 2.094.688 3.172.688 1.062 2.031 1.062.625 0 1.219-.265.594-.281 1.219-.86v2.72Z"/><text x="233.5" y="232.78" fill="#D9B8FF" font-family="Helvetica" font-size="17" textLength="136">gcp_subnetwork</text></a><a xlink:actuate="onRequest" xlink:href="#j" xlink:show="new" xlink:title="#gcp_route" xlink:type="simple" target="_top"><rect id="j" width="124" height="39.789" x="1305.5" y="207" fill="#3D176E" rx="2.5" ry="2.5" style="stroke:#000d19;stroke-width:1.5"/><circle cx="1320.5" cy="226.894" r="11" fill="#E98DF7" style="stroke:#000d19;stroke-width:1"/><path d="M1323.469 232.535q-.578.297-1.219.438-.64.156-1.344.156-2.5 0-3.828-1.64-1.312-1.657-1.312-4.782t1.312-4.781q1.328-1.656 3.828-1.656.703 0 1.344.156.656.156 1.219.453v2.719q-.625-.579-1.219-.844-.594-.281-1.219-.281-1.343 0-2.031 1.078-.688 1.062-.688 3.156 0 2.094.688 3.172.688 1.062 2.031 1.062.625 0 1.219-.265.594-.281 1.219-.86v2.72Z"/><text x="1339.5" y="232.78" fill="#D9B8FF" font-family="Helvetica" font-size="17" textLength="82">gcp_route</text></a><a xlink:actuate="onRequest" xlink:href="#k" xlink:show="new" xlink:title="#gcp_project" xlink:type="simple" target="_top"><rect id="k" width="136" height="39.789" x="815.5" y="7" fill="#3D176E" rx="2.5" ry="2.5" style="stroke:#000d19;stroke-width:1.5"/><circle cx="830.5" cy="26.895" r="11" fill="#E98DF7" style="stroke:#000d19;stroke-width:1"/><path d="M833.469 32.535q-.578.297-1.219.438-.64.156-1.344.156-2.5 0-3.828-1.64-1.312-1.657-1.312-4.782t1.312-4.781q1.328-1.656 3.828-1.656.703 0 1.344.156.656.156 1.219.453v2.719q-.625-.578-1.219-.844-.594-.281-1.219-.281-1.343 0-2.031 1.078-.688 1.062-.688 3.156 0 2.094.688 3.172.688 1.062 2.031 1.062.625 0 1.219-.265.594-.281 1.219-.86v2.72Z"/><text x="849.5" y="32.78" fill="#D9B8FF" font-family="Helvetica" font-size="17" textLength="94">gcp_project</text></a><path fill="none" d="M882.98 147.22c-1.75 26.07-8.71 72.52-35.48 99.78-28.02 28.53-66.39 46.77-104.44 58.43" style="stroke:#1a83af;stroke-width:2"/><path fill="#1A83AF" d="m737.94 306.96 9.768 1.259-4.977-2.69 2.689-4.976-7.48 6.407z" style="stroke:#1a83af;stroke-width:2"/><path fill="none" d="M926.18 147.01c37.22 16.58 91.16 40.61 129.76 57.8" style="stroke:#1a83af;stroke-width:2"/><path fill="#1A83AF" d="m1060.56 206.87-6.604-7.307 2.034 5.279-5.279 2.034 9.849-.006z" style="stroke:#1a83af;stroke-width:2"/><path fill="none" d="M808.88 131.64C637.75 140.66 228.12 166.28 181.5 207c-26.93 23.52-31.44 67.34-31.36 94.74" style="stroke:#1a83af;stroke-width:2"/><path fill="#1A83AF" d="m150.21 306.99 3.871-9.056-3.942 4.056-4.057-3.942 4.128 8.942z" style="stroke:#1a83af;stroke-width:2"/><path fill="none" d="M808.74 146.09c-74.1 17.93-186.78 45.2-259.46 62.78" style="stroke:#1a83af;stroke-width:2"/><path fill="#1A83AF" d="m544.12 210.12 9.692 1.751-4.835-2.937 2.938-4.834-7.795 6.02z" style="stroke:#1a83af;stroke-width:2"/><path fill="none" d="M848.56 147.13c-30.06 16.46-73.4 40.19-104.69 57.31" style="stroke:#1a83af;stroke-width:2"/><path fill="#1A83AF" d="m739.35 206.92 9.815-.811-5.429-1.59 1.589-5.428-5.975 7.829z" style="stroke:#1a83af;stroke-width:2"/><path fill="none" d="M958.06 135.08c88.13 10.08 226.84 31.95 258.44 71.92 73.07 92.44-111.77 164.89-222.29 198.5" style="stroke:#1a83af;stroke-width:2"/><path fill="#1A83AF" d="m989.33 406.98 9.771 1.232-4.984-2.675 2.675-4.985-7.462 6.428z" style="stroke:#1a83af;stroke-width:2"/><path fill="none" d="M891.25 147.13c6.04 15.78 14.07 38.91 18.25 59.87 6.44 32.3 8.35 70.38 8.88 94.6" style="stroke:#1a83af;stroke-width:2"/><path fill="#1A83AF" d="m918.47 306.85 3.82-9.078-3.92 4.079-4.08-3.92 4.18 8.919z" style="stroke:#1a83af;stroke-width:2"/><path fill="none" d="M808.62 139.76C712.79 154.89 541.67 182.19 395.5 207c-4.21.71-8.51 1.45-12.86 2.2" style="stroke:#1a83af;stroke-width:2"/><path fill="#1A83AF" d="m377.52 210.09 9.552 2.399-4.626-3.256 3.255-4.626-8.181 5.483z" style="stroke:#1a83af;stroke-width:2"/><path fill="none" d="M958.18 142.64c79.47 15.64 208.86 41.32 320.32 64.36 7.04 1.46 14.39 2.99 21.71 4.54" style="stroke:#1a83af;stroke-width:2"/><path fill="#1A83AF" d="m1305.28 212.61-7.97-5.786 3.08 4.745-4.745 3.08 9.635-2.039z" style="stroke:#1a83af;stroke-width:2"/><path fill="none" d="M918.5 347.36v54.3" style="stroke:#1a83af;stroke-width:2"/><path fill="#1A83AF" d="m918.5 406.68 4-9-4 4-4-4 4 9z" style="stroke:#1a83af;stroke-width:2"/><path fill="none" d="M302.12 247.39c20.24 27.18 61.01 75.93 108.38 99.61 73.62 36.81 304.86 61.59 428.37 72.56" style="stroke:#1a83af;stroke-width:2"/><path fill="#1A83AF" d="m843.95 420.01-8.61-4.783 3.63 4.34-4.34 3.629 9.32-3.186z" style="stroke:#1a83af;stroke-width:2"/><path fill="none" d="M377.51 243.99c6.08 1.03 12.13 2.05 17.99 3.01 176.53 28.97 221.13 33.23 398 60l16.78 2.54" style="stroke:#1a83af;stroke-width:2"/><path fill="#1A83AF" d="m815.5 310.33-8.29-5.317 3.348 4.56-4.56 3.348 9.502-2.591z" style="stroke:#1a83af;stroke-width:2"/><path fill="none" d="M261.76 247.13c-22.73 16.25-55.37 39.6-79.24 56.68" style="stroke:#1a83af;stroke-width:2"/><path fill="#1A83AF" d="m178.17 306.92 9.643-2.002-5.582-.915.915-5.582-4.976 8.499z" style="stroke:#1a83af;stroke-width:2"/><path fill="none" d="M349.41 247.01c53.76 16.78 131.93 41.18 187.14 58.41" style="stroke:#1a83af;stroke-width:2"/><path fill="#1A83AF" d="m541.49 306.96-7.386-6.515 2.616 5.016-5.015 2.616 9.785-1.117z" style="stroke:#1a83af;stroke-width:2"/><path fill="none" d="M826.18 47.07c-112.07 37.3-359.37 119.59-475.34 158.19" style="stroke:#1a83af;stroke-width:2"/><path fill="#1A83AF" d="m345.75 206.95 9.804.94-5.062-2.525 2.525-5.062-7.267 6.647z" style="stroke:#1a83af;stroke-width:2"/><path fill="none" d="M883.5 47.36v54.3" style="stroke:#1a83af;stroke-width:2"/><path fill="#1A83AF" d="m883.5 106.68 4-9-4 4-4-4 4 9z" style="stroke:#1a83af;stroke-width:2"/><path fill="none" d="M930.35 47.16c91.1 37.27 291.46 119.24 385.94 157.89" style="stroke:#1a83af;stroke-width:2"/><path fill="#1A83AF" d="m1320.98 206.97-6.807-7.118 2.181 5.22-5.219 2.18 9.845-.282z" style="stroke:#1a83af;stroke-width:2"/></svg>