<svg xmlns="http://www.w3.org/2000/svg" xmlns:xlink="http://www.w3.org/1999/xlink" width="422" height="452" preserveAspectRatio="none" style="width:422px;height:452px;background:#00000000"><a xlink:actuate="onRequest" xlink:href="#a" xlink:show="new" xlink:title="#gcp_region" xlink:type="simple" target="_top"><rect id="a" width="132" height="39.789" x="82" y="7" fill="#3D176E" rx="2.5" ry="2.5" style="stroke:#000d19;stroke-width:1.5"/><circle cx="97" cy="26.895" r="11" fill="#E98DF7" style="stroke:#000d19;stroke-width:1"/><path d="M99.969 32.535q-.578.297-1.219.438-.64.156-1.344.156-2.5 0-3.828-1.64-1.312-1.657-1.312-4.782t1.312-4.781q1.328-1.656 3.828-1.656.703 0 1.344.156.656.156 1.219.453v2.719q-.625-.578-1.219-.844-.594-.281-1.219-.281-1.344 0-2.031 1.078-.688 1.062-.688 3.156 0 2.094.688 3.172.688 1.062 2.031 1.062.625 0 1.219-.265.594-.281 1.219-.86v2.72Z"/><text x="116" y="32.78" fill="#D9B8FF" font-family="Helvetica" font-size="17" textLength="90">gcp_region</text></a><a xlink:actuate="onRequest" xlink:href="#b" xlink:show="new" xlink:title="#gcp_disk" xlink:type="simple" target="_top"><rect id="b" width="112" height="39.789" x="28" y="307" fill="#3D176E" rx="2.5" ry="2.5" style="stroke:#000d19;stroke-width:1.5"/><circle cx="43" cy="326.894" r="11" fill="#E98DF7" style="stroke:#000d19;stroke-width:1"/><path d="M45.969 332.535q-.578.297-1.219.438-.64.156-1.344.156-2.5 0-3.828-1.64-1.312-1.657-1.312-4.782t1.312-4.781q1.328-1.656 3.828-1.656.703 0 1.344.156.656.156 1.219.453v2.719q-.625-.579-1.219-.844-.594-.281-1.219-.281-1.343 0-2.031 1.078-.688 1.062-.688 3.156 0 2.094.688 3.172.688 1.062 2.031 1.062.625 0 1.219-.265.594-.281 1.219-.86v2.72Z"/><text x="62" y="332.78" fill="#D9B8FF" font-family="Helvetica" font-size="17" textLength="70">gcp_disk</text></a><a xlink:actuate="onRequest" xlink:href="#c" xlink:show="new" xlink:title="#gcp_zone" xlink:type="simple" target="_top"><rect id="c" width="118" height="39.789" x="89" y="107" fill="#3D176E" rx="2.5" ry="2.5" style="stroke:#000d19;stroke-width:1.5"/><circle cx="104" cy="126.894" r="11" fill="#E98DF7" style="stroke:#000d19;stroke-width:1"/><path d="M106.969 132.535q-.578.297-1.219.438-.64.156-1.344.156-2.5 0-3.828-1.64-1.312-1.657-1.312-4.782t1.312-4.781q1.328-1.657 3.828-1.657.703 0 1.344.157.656.156 1.219.453v2.719q-.625-.579-1.219-.844-.594-.281-1.219-.281-1.344 0-2.031 1.078-.688 1.062-.688 3.156 0 2.094.688 3.172.688 1.062 2.031 1.062.625 0 1.219-.265.594-.281 1.219-.86v2.72Z"/><text x="123" y="132.78" fill="#D9B8FF" font-family="Helvetica" font-size="17" textLength="76">gcp_zone</text></a><a xlink:actuate="onRequest" xlink:href="#d" xlink:show="new" xlink:title="#gcp_disk_type" xlink:type="simple" target="_top"><rect id="d" width="158" height="39.789" x="257" y="207" fill="#3D176E" rx="2.5" ry="2.5" style="stroke:#000d19;stroke-width:1.5"/><circle cx="272" cy="226.894" r="11" fill="#E98DF7" style="stroke:#000d19;stroke-width:1"/><path d="M274.969 232.535q-.578.297-1.219.438-.64.156-1.344.156-2.5 0-3.828-1.64-1.312-1.657-1.312-4.782t1.312-4.781q1.328-1.656 3.828-1.656.703 0 1.344.156.656.156 1.219.453v2.719q-.625-.579-1.219-.844-.594-.281-1.219-.281-1.344 0-2.031 1.078-.688 1.062-.688 3.156 0 2.094.688 3.172.688 1.062 2.031 1.062.625 0 1.219-.265.594-.281 1.219-.86v2.72Z"/><text x="291" y="232.78" fill="#D9B8FF" font-family="Helvetica" font-size="17" textLength="116">gcp_disk_type</text></a><a xlink:actuate="onRequest" xlink:href="#e" xlink:show="new" xlink:title="#gcp_instance" xlink:type="simple" target="_top"><rect id="e" width="149" height="39.789" x="73.5" y="207" fill="#3D176E" rx="2.5" ry="2.5" style="stroke:#000d19;stroke-width:1.5"/><circle cx="88.5" cy="226.894" r="11" fill="#E98DF7" style="stroke:#000d19;stroke-width:1"/><path d="M91.469 232.535q-.578.297-1.219.438-.64.156-1.344.156-2.5 0-3.828-1.64-1.312-1.657-1.312-4.782t1.312-4.781q1.328-1.656 3.828-1.656.703 0 1.344.156.656.156 1.219.453v2.719q-.625-.579-1.219-.844-.594-.281-1.219-.281-1.344 0-2.031 1.078-.688 1.062-.688 3.156 0 2.094.688 3.172.688 1.062 2.031 1.062.625 0 1.219-.265.594-.281 1.219-.86v2.72Z"/><text x="107.5" y="232.78" fill="#D9B8FF" font-family="Helvetica" font-size="17" textLength="107">gcp_instance</text></a><a xlink:actuate="onRequest" xlink:href="#f" xlink:show="new" xlink:title="#gcp_snapshot" xlink:type="simple" target="_top"><rect id="f" width="154" height="39.789" x="7" y="407" fill="#3D176E" rx="2.5" ry="2.5" style="stroke:#000d19;stroke-width:1.5"/><circle cx="22" cy="426.894" r="11" fill="#E98DF7" style="stroke:#000d19;stroke-width:1"/><path d="M24.969 432.535q-.578.297-1.219.438-.64.156-1.344.156-2.5 0-3.828-1.64-1.312-1.657-1.312-4.782t1.312-4.781q1.328-1.656 3.828-1.656.703 0 1.344.156.656.156 1.219.453v2.719q-.625-.579-1.219-.844-.594-.281-1.219-.281-1.343 0-2.031 1.078-.688 1.062-.688 3.156 0 2.094.688 3.172.688 1.062 2.031 1.062.625 0 1.219-.265.594-.281 1.219-.86v2.72Z"/><text x="41" y="432.78" fill="#D9B8FF" font-family="Helvetica" font-size="17" textLength="112">gcp_snapshot</text></a><path fill="none" d="M123.87 47.03C106.79 61.71 84.58 83.44 71 107c-23.04 39.99-21.72 54.28-28 100-2.42 17.61-4.21 22.73 0 40 4.85 19.86 15.64 40.3 24.93 55.41" style="stroke:#1a83af;stroke-width:2"/><path fill="#1A83AF" d="m70.76 306.92-1.387-9.75-1.267 5.512-5.513-1.267 8.167 5.505z" style="stroke:#1a83af;stroke-width:2"/><path fill="none" d="M148 47.36v54.3" style="stroke:#1a83af;stroke-width:2"/><path fill="#1A83AF" d="m148 106.68 4-9-4 4-4-4 4 9z" style="stroke:#1a83af;stroke-width:2"/><path fill="none" d="M166.79 47.04C182.45 62.97 205.31 86.35 225 107c31.65 33.19 67.79 72.13 90 96.19" style="stroke:#1a83af;stroke-width:2"/><path fill="#1A83AF" d="m318.44 206.92-3.143-9.334-.24 5.652-5.651-.24 9.034 3.922z" style="stroke:#1a83af;stroke-width:2"/><path fill="none" d="M84 347.36v54.3" style="stroke:#1a83af;stroke-width:2"/><path fill="#1A83AF" d="m84 406.68 4-9-4 4-4-4 4 9z" style="stroke:#1a83af;stroke-width:2"/><path fill="none" d="M184.69 147.13c31.58 16.46 77.1 40.19 109.96 57.31" style="stroke:#1a83af;stroke-width:2"/><path fill="#1A83AF" d="m299.4 206.92-6.143-7.698 1.706 5.393-5.394 1.707 9.831.598z" style="stroke:#1a83af;stroke-width:2"/><path fill="none" d="M148 147.36v54.3" style="stroke:#1a83af;stroke-width:2"/><path fill="#1A83AF" d="m148 206.68 4-9-4 4-4-4 4 9z" style="stroke:#1a83af;stroke-width:2"/><path fill="none" d="M113.26 147.26C92.43 160.92 67.78 181.36 56 207c-14.35 31.23.66 70.56 13.62 95.25" style="stroke:#1a83af;stroke-width:2"/><path fill="#1A83AF" d="m72.01 306.69-.749-9.82-1.623 5.419-5.42-1.624 7.792 6.025z" style="stroke:#1a83af;stroke-width:2"/><path fill="none" d="M287.11 247.01c-42.81 16.65-104.92 40.8-149.17 58.01" style="stroke:#1a83af;stroke-width:2"/><path fill="#1A83AF" d="m133.18 306.87 9.837.486-5.173-2.289 2.289-5.173-6.953 6.976z" style="stroke:#1a83af;stroke-width:2"/><path fill="none" d="M135.36 247.36c-10.26 15.71-24.76 37.92-35.74 54.73" style="stroke:#1a83af;stroke-width:2"/><path fill="#1A83AF" d="m96.62 306.68 8.266-5.355-5.535 1.166-1.167-5.535-1.564 9.724z" style="stroke:#1a83af;stroke-width:2"/></svg>