<svg xmlns="http://www.w3.org/2000/svg" xmlns:xlink="http://www.w3.org/1999/xlink" width="2056" height="452" preserveAspectRatio="none" style="width:2056px;height:452px;background:#00000000"><a xlink:actuate="onRequest" xlink:href="#a" xlink:show="new" xlink:title="#gcp_region" xlink:type="simple" target="_top"><rect id="a" width="132" height="39.789" x="774.78" y="7" fill="#3D176E" rx="2.5" ry="2.5" style="stroke:#000d19;stroke-width:1.5"/><circle cx="789.78" cy="26.895" r="11" fill="#E98DF7" style="stroke:#000d19;stroke-width:1"/><path d="M792.749 32.535q-.578.297-1.219.438-.64.156-1.344.156-2.5 0-3.828-1.64-1.312-1.657-1.312-4.782t1.312-4.781q1.328-1.656 3.828-1.656.703 0 1.344.156.656.156 1.219.453v2.719q-.625-.578-1.219-.844-.594-.281-1.219-.281-1.344 0-2.031 1.078-.688 1.062-.688 3.156 0 2.094.688 3.172.688 1.062 2.031 1.062.625 0 1.219-.265.594-.281 1.219-.86v2.72Z"/><text x="808.78" y="32.78" fill="#D9B8FF" font-family="Helvetica" font-size="17" textLength="90">gcp_region</text></a><a xlink:actuate="onRequest" xlink:href="#b" xlink:show="new" xlink:title="#gcp_database" xlink:type="simple" target="_top"><rect id="b" width="154" height="39.789" x="114.78" y="207" fill="#3D176E" rx="2.5" ry="2.5" style="stroke:#000d19;stroke-width:1.5"/><circle cx="129.78" cy="226.894" r="11" fill="#E98DF7" style="stroke:#000d19;stroke-width:1"/><path d="M132.749 232.535q-.578.297-1.219.438-.64.156-1.344.156-2.5 0-3.828-1.64-1.312-1.657-1.312-4.782t1.312-4.781q1.328-1.656 3.828-1.656.703 0 1.344.156.656.156 1.219.453v2.719q-.625-.579-1.219-.844-.594-.281-1.219-.281-1.344 0-2.031 1.078-.688 1.062-.688 3.156 0 2.094.688 3.172.688 1.062 2.031 1.062.625 0 1.219-.265.594-.281 1.219-.86v2.72Z"/><text x="148.78" y="232.78" fill="#D9B8FF" font-family="Helvetica" font-size="17" textLength="112">gcp_database</text></a><a xlink:actuate="onRequest" xlink:href="#c" xlink:show="new" xlink:title="#gcp_network_endpoint_group" xlink:type="simple" target="_top"><rect id="c" width="289" height="39.789" x="304.28" y="207" fill="#3D176E" rx="2.5" ry="2.5" style="stroke:#000d19;stroke-width:1.5"/><circle cx="319.28" cy="226.894" r="11" fill="#E98DF7" style="stroke:#000d19;stroke-width:1"/><path d="M322.249 232.535q-.578.297-1.219.438-.64.156-1.344.156-2.5 0-3.828-1.64-1.312-1.657-1.312-4.782t1.312-4.781q1.328-1.656 3.828-1.656.703 0 1.344.156.656.156 1.219.453v2.719q-.625-.579-1.219-.844-.594-.281-1.219-.281-1.344 0-2.031 1.078-.688 1.062-.688 3.156 0 2.094.688 3.172.688 1.062 2.031 1.062.625 0 1.219-.265.594-.281 1.219-.86v2.72Z"/><text x="338.28" y="232.78" fill="#D9B8FF" font-family="Helvetica" font-size="17" textLength="247">gcp_network_endpoint_group</text></a><a xlink:actuate="onRequest" xlink:href="#d" xlink:show="new" xlink:title="#gcp_gke_cluster" xlink:type="simple" target="_top"><rect id="d" width="174" height="39.789" x="628.78" y="207" fill="#3D176E" rx="2.5" ry="2.5" style="stroke:#000d19;stroke-width:1.5"/><circle cx="643.78" cy="226.894" r="11" fill="#E98DF7" style="stroke:#000d19;stroke-width:1"/><path d="M646.749 232.535q-.578.297-1.219.438-.64.156-1.344.156-2.5 0-3.828-1.64-1.312-1.657-1.312-4.782t1.312-4.781q1.328-1.656 3.828-1.656.703 0 1.344.156.656.156 1.219.453v2.719q-.625-.579-1.219-.844-.594-.281-1.219-.281-1.344 0-2.031 1.078-.688 1.062-.688 3.156 0 2.094.688 3.172.688 1.062 2.031 1.062.625 0 1.219-.265.594-.281 1.219-.86v2.72Z"/><text x="662.78" y="232.78" fill="#D9B8FF" font-family="Helvetica" font-size="17" textLength="132">gcp_gke_cluster</text></a><a xlink:actuate="onRequest" xlink:href="#e" xlink:show="new" xlink:title="#gcp_zone" xlink:type="simple" target="_top"><rect id="e" width="118" height="39.789" x="989.78" y="107" fill="#3D176E" rx="2.5" ry="2.5" style="stroke:#000d19;stroke-width:1.5"/><circle cx="1004.78" cy="126.894" r="11" fill="#E98DF7" style="stroke:#000d19;stroke-width:1"/><path d="M1007.749 132.535q-.578.297-1.219.438-.64.156-1.344.156-2.5 0-3.828-1.64-1.312-1.657-1.312-4.782t1.312-4.781q1.328-1.657 3.828-1.657.703 0 1.344.157.656.156 1.219.453v2.719q-.625-.579-1.219-.844-.594-.281-1.219-.281-1.344 0-2.031 1.078-.688 1.062-.688 3.156 0 2.094.688 3.172.688 1.062 2.031 1.062.625 0 1.219-.265.594-.281 1.219-.86v2.72Z"/><text x="1023.78" y="132.78" fill="#D9B8FF" font-family="Helvetica" font-size="17" textLength="76">gcp_zone</text></a><a xlink:actuate="onRequest" xlink:href="#f" xlink:show="new" xlink:title="#gcp_disk" xlink:type="simple" target="_top"><rect id="f" width="112" height="39.789" x="956.78" y="407" fill="#3D176E" rx="2.5" ry="2.5" style="stroke:#000d19;stroke-width:1.5"/><circle cx="971.78" cy="426.894" r="11" fill="#E98DF7" style="stroke:#000d19;stroke-width:1"/><path d="M974.749 432.535q-.578.297-1.219.438-.64.156-1.344.156-2.5 0-3.828-1.64-1.312-1.657-1.312-4.782t1.312-4.781q1.328-1.656 3.828-1.656.703 0 1.344.156.656.156 1.219.453v2.719q-.625-.579-1.219-.844-.594-.281-1.219-.281-1.344 0-2.031 1.078-.688 1.062-.688 3.156 0 2.094.688 3.172.688 1.062 2.031 1.062.625 0 1.219-.265.594-.281 1.219-.86v2.72Z"/><text x="990.78" y="432.78" fill="#D9B8FF" font-family="Helvetica" font-size="17" textLength="70">gcp_disk</text></a><a xlink:actuate="onRequest" xlink:href="#g" xlink:show="new" xlink:title="#gcp_autoscaler" xlink:type="simple" target="_top"><rect id="g" width="165" height="39.789" x="1884.28" y="207" fill="#3D176E" rx="2.5" ry="2.5" style="stroke:#000d19;stroke-width:1.5"/><circle cx="1899.28" cy="226.894" r="11" fill="#E98DF7" style="stroke:#000d19;stroke-width:1"/><path d="M1902.249 232.535q-.578.297-1.219.438-.64.156-1.344.156-2.5 0-3.828-1.64-1.312-1.657-1.312-4.782t1.312-4.781q1.328-1.656 3.828-1.656.703 0 1.344.156.656.156 1.219.453v2.719q-.625-.579-1.219-.844-.594-.281-1.219-.281-1.343 0-2.031 1.078-.688 1.062-.688 3.156 0 2.094.688 3.172.688 1.062 2.031 1.062.625 0 1.219-.265.594-.281 1.219-.86v2.72Z"/><text x="1918.28" y="232.78" fill="#D9B8FF" font-family="Helvetica" font-size="17" textLength="123">gcp_autoscaler</text></a><a xlink:actuate="onRequest" xlink:href="#h" xlink:show="new" xlink:title="#gcp_instance_group" xlink:type="simple" target="_top"><rect id="h" width="206" height="39.789" x="1642.78" y="207" fill="#3D176E" rx="2.5" ry="2.5" style="stroke:#000d19;stroke-width:1.5"/><circle cx="1657.78" cy="226.894" r="11" fill="#E98DF7" style="stroke:#000d19;stroke-width:1"/><path d="M1660.749 232.535q-.578.297-1.219.438-.64.156-1.344.156-2.5 0-3.828-1.64-1.312-1.657-1.312-4.782t1.312-4.781q1.328-1.656 3.828-1.656.703 0 1.344.156.656.156 1.219.453v2.719q-.625-.579-1.219-.844-.594-.281-1.219-.281-1.343 0-2.031 1.078-.688 1.062-.688 3.156 0 2.094.688 3.172.688 1.062 2.031 1.062.625 0 1.219-.265.594-.281 1.219-.86v2.72Z"/><text x="1676.78" y="232.78" fill="#D9B8FF" font-family="Helvetica" font-size="17" textLength="164">gcp_instance_group</text></a><a xlink:actuate="onRequest" xlink:href="#i" xlink:show="new" xlink:title="#gcp_disk_type" xlink:type="simple" target="_top"><rect id="i" width="158" height="39.789" x="837.78" y="207" fill="#3D176E" rx="2.5" ry="2.5" style="stroke:#000d19;stroke-width:1.5"/><circle cx="852.78" cy="226.894" r="11" fill="#E98DF7" style="stroke:#000d19;stroke-width:1"/><path d="M855.749 232.535q-.578.297-1.219.438-.64.156-1.344.156-2.5 0-3.828-1.64-1.312-1.657-1.312-4.782t1.312-4.781q1.328-1.656 3.828-1.656.703 0 1.344.156.656.156 1.219.453v2.719q-.625-.579-1.219-.844-.594-.281-1.219-.281-1.344 0-2.031 1.078-.688 1.062-.688 3.156 0 2.094.688 3.172.688 1.062 2.031 1.062.625 0 1.219-.265.594-.281 1.219-.86v2.72Z"/><text x="871.78" y="232.78" fill="#D9B8FF" font-family="Helvetica" font-size="17" textLength="116">gcp_disk_type</text></a><a xlink:actuate="onRequest" xlink:href="#j" xlink:show="new" xlink:title="#gcp_instance" xlink:type="simple" target="_top"><rect id="j" width="149" height="39.789" x="1358.28" y="307" fill="#3D176E" rx="2.5" ry="2.5" style="stroke:#000d19;stroke-width:1.5"/><circle cx="1373.28" cy="326.894" r="11" fill="#E98DF7" style="stroke:#000d19;stroke-width:1"/><path d="M1376.249 332.535q-.578.297-1.219.438-.64.156-1.344.156-2.5 0-3.828-1.64-1.312-1.657-1.312-4.782t1.312-4.781q1.328-1.656 3.828-1.656.703 0 1.344.156.656.156 1.219.453v2.719q-.625-.579-1.219-.844-.594-.281-1.219-.281-1.343 0-2.031 1.078-.688 1.062-.688 3.156 0 2.094.688 3.172.688 1.062 2.031 1.062.625 0 1.219-.265.594-.281 1.219-.86v2.72Z"/><text x="1392.28" y="332.78" fill="#D9B8FF" font-family="Helvetica" font-size="17" textLength="107">gcp_instance</text></a><a xlink:actuate="onRequest" xlink:href="#k" xlink:show="new" xlink:title="#gcp_machine_type" xlink:type="simple" target="_top"><rect id="k" width="197" height="39.789" x="1410.28" y="207" fill="#3D176E" rx="2.5" ry="2.5" style="stroke:#000d19;stroke-width:1.5"/><circle cx="1425.28" cy="226.894" r="11" fill="#E98DF7" style="stroke:#000d19;stroke-width:1"/><path d="M1428.249 232.535q-.578.297-1.219.438-.64.156-1.344.156-2.5 0-3.828-1.64-1.312-1.657-1.312-4.782t1.312-4.781q1.328-1.656 3.828-1.656.703 0 1.344.156.656.156 1.219.453v2.719q-.625-.579-1.219-.844-.594-.281-1.219-.281-1.343 0-2.031 1.078-.688 1.062-.688 3.156 0 2.094.688 3.172.688 1.062 2.031 1.062.625 0 1.219-.265.594-.281 1.219-.86v2.72Z"/><text x="1444.28" y="232.78" fill="#D9B8FF" font-family="Helvetica" font-size="17" textLength="155">gcp_machine_type</text></a><a xlink:actuate="onRequest" xlink:href="#l" xlink:show="new" xlink:title="#gcp_security_policy" xlink:type="simple" target="_top"><rect id="l" width="202" height="39.789" x="1101.78" y="207" fill="#3D176E" rx="2.5" ry="2.5" style="stroke:#000d19;stroke-width:1.5"/><circle cx="1116.78" cy="226.894" r="11" fill="#E98DF7" style="stroke:#000d19;stroke-width:1"/><path d="M1119.749 232.535q-.578.297-1.219.438-.64.156-1.344.156-2.5 0-3.828-1.64-1.312-1.657-1.312-4.782t1.312-4.781q1.328-1.656 3.828-1.656.703 0 1.344.156.656.156 1.219.453v2.719q-.625-.579-1.219-.844-.594-.281-1.219-.281-1.343 0-2.031 1.078-.688 1.062-.688 3.156 0 2.094.688 3.172.688 1.062 2.031 1.062.625 0 1.219-.265.594-.281 1.219-.86v2.72Z"/><text x="1135.78" y="232.78" fill="#D9B8FF" font-family="Helvetica" font-size="17" textLength="160">gcp_security_policy</text></a><path fill="none" d="M778.26 47.07C655.78 84.44 385.21 166.99 259.03 205.49" style="stroke:#1a83af;stroke-width:2"/><path fill="#1A83AF" d="m254.23 206.95 9.776 1.197-4.994-2.657 2.657-4.994-7.439 6.454z" style="stroke:#1a83af;stroke-width:2"/><path fill="none" d="M802.84 47.16C729.28 84.32 567.75 165.91 490.95 204.7" style="stroke:#1a83af;stroke-width:2"/><path fill="#1A83AF" d="m486.46 206.97 9.837-.485-5.374-1.768 1.769-5.374-6.232 7.627z" style="stroke:#1a83af;stroke-width:2"/><path fill="none" d="M828.57 47.35c-23.02 36.46-72.77 115.26-97.78 154.89" style="stroke:#1a83af;stroke-width:2"/><path fill="#1A83AF" d="m727.86 206.87 8.175-5.492-5.515 1.258-1.258-5.515-1.402 9.749z" style="stroke:#1a83af;stroke-width:2"/><path fill="none" d="M881.38 47.13c35.08 16.52 85.71 40.38 122.1 57.52" style="stroke:#1a83af;stroke-width:2"/><path fill="#1A83AF" d="m1008.29 106.92-6.434-7.456 1.912 5.324-5.324 1.912 9.846.22z" style="stroke:#1a83af;stroke-width:2"/><path fill="none" d="M774.71 35.38C576.5 58.85 6 136.76 96.78 247c109.39 132.83 667.75 168.46 854.83 176.75" style="stroke:#1a83af;stroke-width:2"/><path fill="#1A83AF" d="m956.77 423.98-8.808-4.407 3.813 4.179-4.178 3.813 9.173-3.585z" style="stroke:#1a83af;stroke-width:2"/><path fill="none" d="M907.1 38.56c92.5 14.82 265.5 42.85 412.68 68.44 243.49 42.33 304.05 54.71 547 100 4.06.76 8.21 1.53 12.4 2.32" style="stroke:#1a83af;stroke-width:2"/><path fill="#1A83AF" d="m1884.12 210.25-8.1-5.601 3.187 4.673-4.673 3.187 9.586-2.259z" style="stroke:#1a83af;stroke-width:2"/><path fill="none" d="M906.96 42.48c159.26 34.84 564.17 123.43 746.89 163.41" style="stroke:#1a83af;stroke-width:2"/><path fill="#1A83AF" d="m1658.93 207-7.934-5.835 3.05 4.764-4.764 3.05 9.648-1.979z" style="stroke:#1a83af;stroke-width:2"/><path fill="none" d="M848.21 47.35c13.94 36.32 44 114.62 59.27 154.4" style="stroke:#1a83af;stroke-width:2"/><path fill="#1A83AF" d="m909.44 206.87.486-9.837-2.289 5.173-5.173-2.289 6.976 6.953z" style="stroke:#1a83af;stroke-width:2"/><path fill="none" d="M1108.13 135.75c104.5 13.74 328.17 43.53 516.65 71.25 4.16.61 8.4 1.24 12.68 1.88" style="stroke:#1a83af;stroke-width:2"/><path fill="#1A83AF" d="m1642.5 209.64-8.306-5.293 3.361 4.55-4.55 3.361 9.495-2.618z" style="stroke:#1a83af;stroke-width:2"/><path fill="none" d="M1107.98 140.61c77.6 16.53 214.61 45.72 306.55 65.31" style="stroke:#1a83af;stroke-width:2"/><path fill="#1A83AF" d="m1419.43 206.96-7.967-5.79 3.077 4.746-4.747 3.077 9.637-2.033z" style="stroke:#1a83af;stroke-width:2"/><path fill="none" d="m1078.84 147.13 89.74 57.1" style="stroke:#1a83af;stroke-width:2"/><path fill="#1A83AF" d="m1172.8 206.92-5.44-8.21 1.224 5.523-5.524 1.223 9.74 1.464z" style="stroke:#1a83af;stroke-width:2"/><path fill="none" d="M989.75 132.22C861.39 141.8 547.48 167.51 286.78 207c-4.18.63-8.46 1.33-12.77 2.06" style="stroke:#1a83af;stroke-width:2"/><path fill="#1A83AF" d="m268.93 209.94 9.552 2.399-4.626-3.256 3.255-4.626-8.181 5.483z" style="stroke:#1a83af;stroke-width:2"/><path fill="none" d="M1023.02 147.13c-21.9 16.25-53.35 39.6-76.34 56.68" style="stroke:#1a83af;stroke-width:2"/><path fill="#1A83AF" d="m942.48 206.92 9.614-2.14-5.595-.835.835-5.595-4.854 8.57z" style="stroke:#1a83af;stroke-width:2"/><path fill="none" d="M1046.48 147.09c-6.3 52.13-23.78 196.8-30.76 254.6" style="stroke:#1a83af;stroke-width:2"/><path fill="#1A83AF" d="m1015.12 406.68 5.05-8.456-4.45 3.492-3.493-4.45 2.893 9.414z" style="stroke:#1a83af;stroke-width:2"/><path fill="none" d="M989.61 137.66c-96.96 15.84-291.6 47.63-419 68.44" style="stroke:#1a83af;stroke-width:2"/><path fill="#1A83AF" d="m565.35 206.96 9.532 2.48-4.599-3.295 3.295-4.599-8.228 5.414z" style="stroke:#1a83af;stroke-width:2"/><path fill="none" d="M1108.03 131.85c135.05 9.2 475.93 34.71 758.75 75.15 4.09.58 8.26 1.22 12.47 1.89" style="stroke:#1a83af;stroke-width:2"/><path fill="#1A83AF" d="m1884.21 209.7-8.243-5.39 3.308 4.589-4.59 3.307 9.525-2.506z" style="stroke:#1a83af;stroke-width:2"/><path fill="none" d="M1107.89 135.9c57.71 9.76 146.31 30.35 212.89 71.1 40.89 25.02 76.6 68.85 96.15 95.76" style="stroke:#1a83af;stroke-width:2"/><path fill="#1A83AF" d="m1419.92 306.93-1.986-9.647-.924 5.581-5.581-.924 8.491 4.99z" style="stroke:#1a83af;stroke-width:2"/><path fill="none" d="M989.63 145.41c-57.17 16.82-143.78 42.31-204.24 60.11" style="stroke:#1a83af;stroke-width:2"/><path fill="#1A83AF" d="m780.35 207 9.761 1.312-4.962-2.716 2.716-4.962L780.35 207z" style="stroke:#1a83af;stroke-width:2"/><path fill="none" d="M1685.06 247.01c-53.58 16.78-131.5 41.18-186.54 58.41" style="stroke:#1a83af;stroke-width:2"/><path fill="#1A83AF" d="m1493.6 306.96 9.785 1.117-5.015-2.616 2.616-5.016-7.386 6.515z" style="stroke:#1a83af;stroke-width:2"/><path fill="none" d="M926.16 247.35c17.69 36.46 55.89 115.26 75.1 154.89" style="stroke:#1a83af;stroke-width:2"/><path fill="#1A83AF" d="m1003.51 406.87-.334-9.843-1.85 5.346-5.346-1.851 7.53 6.348z" style="stroke:#1a83af;stroke-width:2"/><path fill="none" d="m1358.18 345.41-284.39 66.36" style="stroke:#1a83af;stroke-width:2"/><path fill="#1A83AF" d="m1068.9 412.91 9.677 1.832-4.81-2.977 2.978-4.81-7.845 5.955z" style="stroke:#1a83af;stroke-width:2"/><path fill="none" d="M1493.77 247.36c-12.28 15.84-29.7 38.3-42.78 55.16" style="stroke:#1a83af;stroke-width:2"/><path fill="#1A83AF" d="m1447.77 306.68 8.668-4.677-5.611.72-.72-5.61-2.337 9.567z" style="stroke:#1a83af;stroke-width:2"/></svg>