<svg xmlns="http://www.w3.org/2000/svg" xmlns:xlink="http://www.w3.org/1999/xlink" width="860" height="352" preserveAspectRatio="none" style="width:860px;height:352px;background:#00000000"><a xlink:actuate="onRequest" xlink:href="#a" xlink:show="new" xlink:title="#gcp_instance_group_manager" xlink:type="simple" target="_top"><rect id="a" width="290" height="39.789" x="16.78" y="307" fill="#3D176E" rx="2.5" ry="2.5" style="stroke:#000d19;stroke-width:1.5"/><circle cx="31.78" cy="326.894" r="11" fill="#E98DF7" style="stroke:#000d19;stroke-width:1"/><path d="M34.749 332.535q-.578.297-1.219.438-.64.156-1.344.156-2.5 0-3.828-1.64-1.312-1.657-1.312-4.782t1.312-4.781q1.328-1.656 3.828-1.656.703 0 1.344.156.656.156 1.219.453v2.719q-.625-.579-1.219-.844-.594-.281-1.219-.281-1.343 0-2.031 1.078-.688 1.062-.688 3.156 0 2.094.688 3.172.688 1.062 2.031 1.062.625 0 1.219-.265.594-.281 1.219-.86v2.72Z"/><text x="50.78" y="332.78" fill="#D9B8FF" font-family="Helvetica" font-size="17" textLength="248">gcp_instance_group_manager</text></a><a xlink:actuate="onRequest" xlink:href="#b" xlink:show="new" xlink:title="#gcp_backend_service" xlink:type="simple" target="_top"><rect id="b" width="215" height="39.789" x="226.28" y="107" fill="#3D176E" rx="2.5" ry="2.5" style="stroke:#000d19;stroke-width:1.5"/><circle cx="241.28" cy="126.894" r="11" fill="#E98DF7" style="stroke:#000d19;stroke-width:1"/><path d="M244.249 132.535q-.578.297-1.219.438-.64.156-1.344.156-2.5 0-3.828-1.64-1.312-1.657-1.312-4.782t1.312-4.781q1.328-1.657 3.828-1.657.703 0 1.344.157.656.156 1.219.453v2.719q-.625-.579-1.219-.844-.594-.281-1.219-.281-1.344 0-2.031 1.078-.688 1.062-.688 3.156 0 2.094.688 3.172.688 1.062 2.031 1.062.625 0 1.219-.265.594-.281 1.219-.86v2.72Z"/><text x="260.28" y="132.78" fill="#D9B8FF" font-family="Helvetica" font-size="17" textLength="173">gcp_backend_service</text></a><a xlink:actuate="onRequest" xlink:href="#c" xlink:show="new" xlink:title="#gcp_region" xlink:type="simple" target="_top"><rect id="c" width="132" height="39.789" x="267.78" y="7" fill="#3D176E" rx="2.5" ry="2.5" style="stroke:#000d19;stroke-width:1.5"/><circle cx="282.78" cy="26.895" r="11" fill="#E98DF7" style="stroke:#000d19;stroke-width:1"/><path d="M285.749 32.535q-.578.297-1.219.438-.64.156-1.344.156-2.5 0-3.828-1.64-1.312-1.657-1.312-4.782t1.312-4.781q1.328-1.656 3.828-1.656.703 0 1.344.156.656.156 1.219.453v2.719q-.625-.578-1.219-.844-.594-.281-1.219-.281-1.344 0-2.031 1.078-.688 1.062-.688 3.156 0 2.094.688 3.172.688 1.062 2.031 1.062.625 0 1.219-.265.594-.281 1.219-.86v2.72Z"/><text x="301.78" y="32.78" fill="#D9B8FF" font-family="Helvetica" font-size="17" textLength="90">gcp_region</text></a><a xlink:actuate="onRequest" xlink:href="#d" xlink:show="new" xlink:title="#gcp_zone" xlink:type="simple" target="_top"><rect id="d" width="118" height="39.789" x="72.78" y="107" fill="#3D176E" rx="2.5" ry="2.5" style="stroke:#000d19;stroke-width:1.5"/><circle cx="87.78" cy="126.894" r="11" fill="#E98DF7" style="stroke:#000d19;stroke-width:1"/><path d="M90.749 132.535q-.578.297-1.219.438-.64.156-1.344.156-2.5 0-3.828-1.64-1.312-1.657-1.312-4.782t1.312-4.781q1.328-1.657 3.828-1.657.703 0 1.344.157.656.156 1.219.453v2.719q-.625-.579-1.219-.844-.594-.281-1.219-.281-1.344 0-2.031 1.078-.688 1.062-.688 3.156 0 2.094.688 3.172.688 1.062 2.031 1.062.625 0 1.219-.265.594-.281 1.219-.86v2.72Z"/><text x="106.78" y="132.78" fill="#D9B8FF" font-family="Helvetica" font-size="17" textLength="76">gcp_zone</text></a><a xlink:actuate="onRequest" xlink:href="#e" xlink:show="new" xlink:title="#gcp_subnetwork" xlink:type="simple" target="_top"><rect id="e" width="178" height="39.789" x="547.78" y="107" fill="#3D176E" rx="2.5" ry="2.5" style="stroke:#000d19;stroke-width:1.5"/><circle cx="562.78" cy="126.894" r="11" fill="#E98DF7" style="stroke:#000d19;stroke-width:1"/><path d="M565.749 132.535q-.578.297-1.219.438-.64.156-1.344.156-2.5 0-3.828-1.64-1.312-1.657-1.312-4.782t1.312-4.781q1.328-1.657 3.828-1.657.703 0 1.344.157.656.156 1.219.453v2.719q-.625-.579-1.219-.844-.594-.281-1.219-.281-1.344 0-2.031 1.078-.688 1.062-.688 3.156 0 2.094.688 3.172.688 1.062 2.031 1.062.625 0 1.219-.265.594-.281 1.219-.86v2.72Z"/><text x="581.78" y="132.78" fill="#D9B8FF" font-family="Helvetica" font-size="17" textLength="136">gcp_subnetwork</text></a><a xlink:actuate="onRequest" xlink:href="#f" xlink:show="new" xlink:title="#gcp_instance_group" xlink:type="simple" target="_top"><rect id="f" width="206" height="39.789" x="377.78" y="207" fill="#3D176E" rx="2.5" ry="2.5" style="stroke:#000d19;stroke-width:1.5"/><circle cx="392.78" cy="226.894" r="11" fill="#E98DF7" style="stroke:#000d19;stroke-width:1"/><path d="M395.749 232.535q-.578.297-1.219.438-.64.156-1.344.156-2.5 0-3.828-1.64-1.312-1.657-1.312-4.782t1.312-4.781q1.328-1.656 3.828-1.656.703 0 1.344.156.656.156 1.219.453v2.719q-.625-.579-1.219-.844-.594-.281-1.219-.281-1.344 0-2.031 1.078-.688 1.062-.688 3.156 0 2.094.688 3.172.688 1.062 2.031 1.062.625 0 1.219-.265.594-.281 1.219-.86v2.72Z"/><text x="411.78" y="232.78" fill="#D9B8FF" font-family="Helvetica" font-size="17" textLength="164">gcp_instance_group</text></a><a xlink:actuate="onRequest" xlink:href="#g" xlink:show="new" xlink:title="#gcp_instance" xlink:type="simple" target="_top"><rect id="g" width="149" height="39.789" x="484.28" y="307" fill="#3D176E" rx="2.5" ry="2.5" style="stroke:#000d19;stroke-width:1.5"/><circle cx="499.28" cy="326.894" r="11" fill="#E98DF7" style="stroke:#000d19;stroke-width:1"/><path d="M502.249 332.535q-.578.297-1.219.438-.64.156-1.344.156-2.5 0-3.828-1.64-1.312-1.657-1.312-4.782t1.312-4.781q1.328-1.656 3.828-1.656.703 0 1.344.156.656.156 1.219.453v2.719q-.625-.579-1.219-.844-.594-.281-1.219-.281-1.344 0-2.031 1.078-.688 1.062-.688 3.156 0 2.094.688 3.172.688 1.062 2.031 1.062.625 0 1.219-.265.594-.281 1.219-.86v2.72Z"/><text x="518.28" y="332.78" fill="#D9B8FF" font-family="Helvetica" font-size="17" textLength="107">gcp_instance</text></a><a xlink:actuate="onRequest" xlink:href="#h" xlink:show="new" xlink:title="#gcp_network" xlink:type="simple" target="_top"><rect id="h" width="149" height="39.789" x="704.28" y="7" fill="#3D176E" rx="2.5" ry="2.5" style="stroke:#000d19;stroke-width:1.5"/><circle cx="719.28" cy="26.895" r="11" fill="#E98DF7" style="stroke:#000d19;stroke-width:1"/><path d="M722.249 32.535q-.578.297-1.219.438-.64.156-1.344.156-2.5 0-3.828-1.64-1.312-1.657-1.312-4.782t1.312-4.781q1.328-1.656 3.828-1.656.703 0 1.344.156.656.156 1.219.453v2.719q-.625-.578-1.219-.844-.594-.281-1.219-.281-1.344 0-2.031 1.078-.688 1.062-.688 3.156 0 2.094.688 3.172.688 1.062 2.031 1.062.625 0 1.219-.265.594-.281 1.219-.86v2.72Z"/><text x="738.28" y="32.78" fill="#D9B8FF" font-family="Helvetica" font-size="17" textLength="107">gcp_network</text></a><path fill="none" d="M362.47 147.13c24.49 16.32 59.7 39.8 85.34 56.89" style="stroke:#1a83af;stroke-width:2"/><path fill="#1A83AF" d="m452.16 206.92-5.27-8.32 1.11 5.547-5.547 1.109 9.707 1.664z" style="stroke:#1a83af;stroke-width:2"/><path fill="none" d="M294.35 47.13c-34.06 16.52-83.23 40.38-118.57 57.52" style="stroke:#1a83af;stroke-width:2"/><path fill="#1A83AF" d="m171.11 106.92 9.843-.334-5.346-1.85 1.851-5.346-6.348 7.53z" style="stroke:#1a83af;stroke-width:2"/><path fill="none" d="M392.56 47.01c51.87 16.78 127.3 41.18 180.58 58.41" style="stroke:#1a83af;stroke-width:2"/><path fill="#1A83AF" d="m577.9 106.96-7.327-6.581 2.57 5.038-5.038 2.571 9.795-1.028z" style="stroke:#1a83af;stroke-width:2"/><path fill="none" d="M333.78 47.36v54.3" style="stroke:#1a83af;stroke-width:2"/><path fill="#1A83AF" d="m333.78 106.68 4-9-4 4-4-4 4 9z" style="stroke:#1a83af;stroke-width:2"/><path fill="none" d="M267.57 37.47C193.47 49.58 80.4 73.12 54.78 107 6 171.51 89.7 261.77 135.25 303.37" style="stroke:#1a83af;stroke-width:2"/><path fill="#1A83AF" d="m139 306.76-3.995-9.002.286 5.65-5.65.285L139 306.76z" style="stroke:#1a83af;stroke-width:2"/><path fill="none" d="M382.47 47.09c26.64 12.95 57.89 32.7 76.31 59.91 19.24 28.43 22.88 69.04 23 94.7" style="stroke:#1a83af;stroke-width:2"/><path fill="#1A83AF" d="m481.76 206.94 4.026-8.988-4.012 3.988-3.988-4.011 3.974 9.011z" style="stroke:#1a83af;stroke-width:2"/><path fill="none" d="M190.98 144.62c59.9 16.82 152.59 42.85 216.96 60.93" style="stroke:#1a83af;stroke-width:2"/><path fill="#1A83AF" d="m412.91 206.94-7.577-6.292 2.765 4.935-4.936 2.765 9.748-1.408z" style="stroke:#1a83af;stroke-width:2"/><path fill="none" d="M165.61 147.06c44.05 24.49 123.74 67.68 194.17 99.94 47.09 21.57 101.87 43.06 142.02 58.17" style="stroke:#1a83af;stroke-width:2"/><path fill="#1A83AF" d="m506.62 306.98-7.022-6.905 2.34 5.15-5.15 2.34 9.832-.585z" style="stroke:#1a83af;stroke-width:2"/><path fill="none" d="M632.42 147.39c-5.68 23.92-16.56 65.58-30.64 99.61-7.95 19.22-19.27 39.83-28.3 55.18" style="stroke:#1a83af;stroke-width:2"/><path fill="#1A83AF" d="m570.76 306.77 8.038-5.691-5.482 1.394-1.394-5.483-1.162 9.78z" style="stroke:#1a83af;stroke-width:2"/><path fill="none" d="M606.33 147.13c-26.09 16.39-63.66 39.99-90.9 57.1" style="stroke:#1a83af;stroke-width:2"/><path fill="#1A83AF" d="m511.15 206.92 9.745-1.425-5.518-1.245 1.245-5.519-5.472 8.189z" style="stroke:#1a83af;stroke-width:2"/><path fill="none" d="M496.19 247.36c12.61 15.84 30.48 38.3 43.9 55.16" style="stroke:#1a83af;stroke-width:2"/><path fill="#1A83AF" d="m543.4 306.68-2.473-9.533-.64 5.62-5.62-.64 8.733 4.553z" style="stroke:#1a83af;stroke-width:2"/><path fill="none" d="M418.9 247.01c-54.61 16.78-134.03 41.18-190.12 58.41" style="stroke:#1a83af;stroke-width:2"/><path fill="#1A83AF" d="m223.76 306.96 9.78 1.17-5.002-2.643 2.644-5.002-7.422 6.475z" style="stroke:#1a83af;stroke-width:2"/><path fill="none" d="M778.52 47.28c-1.42 26.15-7.87 72.69-34.74 99.72-40.7 40.94-101.75 60.82-154.78 70.41" style="stroke:#1a83af;stroke-width:2"/><path fill="#1A83AF" d="m583.89 218.31 9.552 2.399-4.626-3.256 3.255-4.626-8.181 5.483z" style="stroke:#1a83af;stroke-width:2"/><path fill="none" d="M751.06 47.13c-23.65 16.32-57.66 39.8-82.43 56.89" style="stroke:#1a83af;stroke-width:2"/><path fill="#1A83AF" d="m664.43 106.92 9.678-1.825-5.564-1.017 1.017-5.565-5.131 8.407z" style="stroke:#1a83af;stroke-width:2"/><path fill="none" d="M784.14 47.25c5.73 24.49 12.06 67.5-3.36 99.75-36.18 75.66-121.68 129.56-175.39 157.38" style="stroke:#1a83af;stroke-width:2"/><path fill="#1A83AF" d="m600.62 306.82 9.834-.548-5.385-1.734 1.734-5.384-6.183 7.666z" style="stroke:#1a83af;stroke-width:2"/></svg>