<svg xmlns="http://www.w3.org/2000/svg" xmlns:xlink="http://www.w3.org/1999/xlink" width="1314" height="452" preserveAspectRatio="none" style="width:1314px;height:452px;background:#00000000"><a xlink:actuate="onRequest" xlink:href="#a" xlink:show="new" xlink:title="#gcp_target_vpn_gateway" xlink:type="simple" target="_top"><rect id="a" width="251" height="39.789" x="612.5" y="207" fill="#3D176E" rx="2.5" ry="2.5" style="stroke:#000d19;stroke-width:1.5"/><circle cx="627.5" cy="226.894" r="11" fill="#E98DF7" style="stroke:#000d19;stroke-width:1"/><path d="M630.469 232.535q-.578.297-1.219.438-.64.156-1.344.156-2.5 0-3.828-1.64-1.312-1.657-1.312-4.782t1.312-4.781q1.328-1.656 3.828-1.656.703 0 1.344.156.656.156 1.219.453v2.719q-.625-.579-1.219-.844-.594-.281-1.219-.281-1.343 0-2.031 1.078-.688 1.062-.688 3.156 0 2.094.688 3.172.688 1.062 2.031 1.062.625 0 1.219-.265.594-.281 1.219-.86v2.72Z"/><text x="646.5" y="232.78" fill="#D9B8FF" font-family="Helvetica" font-size="17" textLength="209">gcp_target_vpn_gateway</text></a><a xlink:actuate="onRequest" xlink:href="#b" xlink:show="new" xlink:title="#gcp_instance" xlink:type="simple" target="_top"><rect id="b" width="149" height="39.789" x="898.5" y="407" fill="#3D176E" rx="2.5" ry="2.5" style="stroke:#000d19;stroke-width:1.5"/><circle cx="913.5" cy="426.894" r="11" fill="#E98DF7" style="stroke:#000d19;stroke-width:1"/><path d="M916.469 432.535q-.578.297-1.219.438-.64.156-1.344.156-2.5 0-3.828-1.64-1.312-1.657-1.312-4.782t1.312-4.781q1.328-1.656 3.828-1.656.703 0 1.344.156.656.156 1.219.453v2.719q-.625-.579-1.219-.844-.594-.281-1.219-.281-1.343 0-2.031 1.078-.688 1.062-.688 3.156 0 2.094.688 3.172.688 1.062 2.031 1.062.625 0 1.219-.265.594-.281 1.219-.86v2.72Z"/><text x="932.5" y="432.78" fill="#D9B8FF" font-family="Helvetica" font-size="17" textLength="107">gcp_instance</text></a><a xlink:actuate="onRequest" xlink:href="#c" xlink:show="new" xlink:title="#gcp_global_network_endpoint_group" xlink:type="simple" target="_top"><rect id="c" width="348" height="39.789" x="485" y="307" fill="#3D176E" rx="2.5" ry="2.5" style="stroke:#000d19;stroke-width:1.5"/><circle cx="500" cy="326.894" r="11" fill="#E98DF7" style="stroke:#000d19;stroke-width:1"/><path d="M502.969 332.535q-.578.297-1.219.438-.64.156-1.344.156-2.5 0-3.828-1.64-1.312-1.657-1.312-4.782t1.312-4.781q1.328-1.656 3.828-1.656.703 0 1.344.156.656.156 1.219.453v2.719q-.625-.579-1.219-.844-.594-.281-1.219-.281-1.344 0-2.031 1.078-.688 1.062-.688 3.156 0 2.094.688 3.172.688 1.062 2.031 1.062.625 0 1.219-.265.594-.281 1.219-.86v2.72Z"/><text x="519" y="332.78" fill="#D9B8FF" font-family="Helvetica" font-size="17" textLength="306">gcp_global_network_endpoint_group</text></a><a xlink:actuate="onRequest" xlink:href="#d" xlink:show="new" xlink:title="#gcp_router" xlink:type="simple" target="_top"><rect id="d" width="131" height="39.789" x="220.5" y="207" fill="#3D176E" rx="2.5" ry="2.5" style="stroke:#000d19;stroke-width:1.5"/><circle cx="235.5" cy="226.894" r="11" fill="#E98DF7" style="stroke:#000d19;stroke-width:1"/><path d="M238.469 232.535q-.578.297-1.219.438-.64.156-1.344.156-2.5 0-3.828-1.64-1.312-1.657-1.312-4.782t1.312-4.781q1.328-1.656 3.828-1.656.703 0 1.344.156.656.156 1.219.453v2.719q-.625-.579-1.219-.844-.594-.281-1.219-.281-1.344 0-2.031 1.078-.688 1.062-.688 3.156 0 2.094.688 3.172.688 1.062 2.031 1.062.625 0 1.219-.265.594-.281 1.219-.86v2.72Z"/><text x="254.5" y="232.78" fill="#D9B8FF" font-family="Helvetica" font-size="17" textLength="89">gcp_router</text></a><a xlink:actuate="onRequest" xlink:href="#e" xlink:show="new" xlink:title="#gcp_subnetwork" xlink:type="simple" target="_top"><rect id="e" width="178" height="39.789" x="7" y="207" fill="#3D176E" rx="2.5" ry="2.5" style="stroke:#000d19;stroke-width:1.5"/><circle cx="22" cy="226.894" r="11" fill="#E98DF7" style="stroke:#000d19;stroke-width:1"/><path d="M24.969 232.535q-.578.297-1.219.438-.64.156-1.344.156-2.5 0-3.828-1.64-1.312-1.657-1.312-4.782t1.312-4.781q1.328-1.656 3.828-1.656.703 0 1.344.156.656.156 1.219.453v2.719q-.625-.579-1.219-.844-.594-.281-1.219-.281-1.343 0-2.031 1.078-.688 1.062-.688 3.156 0 2.094.688 3.172.688 1.062 2.031 1.062.625 0 1.219-.265.594-.281 1.219-.86v2.72Z"/><text x="41" y="232.78" fill="#D9B8FF" font-family="Helvetica" font-size="17" textLength="136">gcp_subnetwork</text></a><a xlink:actuate="onRequest" xlink:href="#f" xlink:show="new" xlink:title="#gcp_network_endpoint_group" xlink:type="simple" target="_top"><rect id="f" width="289" height="39.789" x="156.5" y="307" fill="#3D176E" rx="2.5" ry="2.5" style="stroke:#000d19;stroke-width:1.5"/><circle cx="171.5" cy="326.894" r="11" fill="#E98DF7" style="stroke:#000d19;stroke-width:1"/><path d="M174.469 332.535q-.578.297-1.219.438-.64.156-1.344.156-2.5 0-3.828-1.64-1.312-1.657-1.312-4.782t1.312-4.781q1.328-1.656 3.828-1.656.703 0 1.344.156.656.156 1.219.453v2.719q-.625-.579-1.219-.844-.594-.281-1.219-.281-1.344 0-2.031 1.078-.688 1.062-.688 3.156 0 2.094.688 3.172.688 1.062 2.031 1.062.625 0 1.219-.265.594-.281 1.219-.86v2.72Z"/><text x="190.5" y="332.78" fill="#D9B8FF" font-family="Helvetica" font-size="17" textLength="247">gcp_network_endpoint_group</text></a><a xlink:actuate="onRequest" xlink:href="#g" xlink:show="new" xlink:title="#gcp_instance_group" xlink:type="simple" target="_top"><rect id="g" width="206" height="39.789" x="870" y="307" fill="#3D176E" rx="2.5" ry="2.5" style="stroke:#000d19;stroke-width:1.5"/><circle cx="885" cy="326.894" r="11" fill="#E98DF7" style="stroke:#000d19;stroke-width:1"/><path d="M887.969 332.535q-.578.297-1.219.438-.64.156-1.344.156-2.5 0-3.828-1.64-1.312-1.657-1.312-4.782t1.312-4.781q1.328-1.656 3.828-1.656.703 0 1.344.156.656.156 1.219.453v2.719q-.625-.579-1.219-.844-.594-.281-1.219-.281-1.343 0-2.031 1.078-.688 1.062-.688 3.156 0 2.094.688 3.172.688 1.062 2.031 1.062.625 0 1.219-.265.594-.281 1.219-.86v2.72Z"/><text x="904" y="332.78" fill="#D9B8FF" font-family="Helvetica" font-size="17" textLength="164">gcp_instance_group</text></a><a xlink:actuate="onRequest" xlink:href="#h" xlink:show="new" xlink:title="#gcp_vpn_gateway" xlink:type="simple" target="_top"><rect id="h" width="191" height="39.789" x="386.5" y="207" fill="#3D176E" rx="2.5" ry="2.5" style="stroke:#000d19;stroke-width:1.5"/><circle cx="401.5" cy="226.894" r="11" fill="#E98DF7" style="stroke:#000d19;stroke-width:1"/><path d="M404.469 232.535q-.578.297-1.219.438-.64.156-1.344.156-2.5 0-3.828-1.64-1.312-1.657-1.312-4.782t1.312-4.781q1.328-1.656 3.828-1.656.703 0 1.344.156.656.156 1.219.453v2.719q-.625-.579-1.219-.844-.594-.281-1.219-.281-1.344 0-2.031 1.078-.688 1.062-.688 3.156 0 2.094.688 3.172.688 1.062 2.031 1.062.625 0 1.219-.265.594-.281 1.219-.86v2.72Z"/><text x="420.5" y="232.78" fill="#D9B8FF" font-family="Helvetica" font-size="17" textLength="149">gcp_vpn_gateway</text></a><a xlink:actuate="onRequest" xlink:href="#i" xlink:show="new" xlink:title="#gcp_route" xlink:type="simple" target="_top"><rect id="i" width="124" height="39.789" x="1183" y="207" fill="#3D176E" rx="2.5" ry="2.5" style="stroke:#000d19;stroke-width:1.5"/><circle cx="1198" cy="226.894" r="11" fill="#E98DF7" style="stroke:#000d19;stroke-width:1"/><path d="M1200.969 232.535q-.578.297-1.219.438-.64.156-1.344.156-2.5 0-3.828-1.64-1.312-1.657-1.312-4.782t1.312-4.781q1.328-1.656 3.828-1.656.703 0 1.344.156.656.156 1.219.453v2.719q-.625-.579-1.219-.844-.594-.281-1.219-.281-1.343 0-2.031 1.078-.688 1.062-.688 3.156 0 2.094.688 3.172.688 1.062 2.031 1.062.625 0 1.219-.265.594-.281 1.219-.86v2.72Z"/><text x="1217" y="232.78" fill="#D9B8FF" font-family="Helvetica" font-size="17" textLength="82">gcp_route</text></a><a xlink:actuate="onRequest" xlink:href="#j" xlink:show="new" xlink:title="#gcp_project" xlink:type="simple" target="_top"><rect id="j" width="136" height="39.789" x="849" y="7" fill="#3D176E" rx="2.5" ry="2.5" style="stroke:#000d19;stroke-width:1.5"/><circle cx="864" cy="26.895" r="11" fill="#E98DF7" style="stroke:#000d19;stroke-width:1"/><path d="M866.969 32.535q-.578.297-1.219.438-.64.156-1.344.156-2.5 0-3.828-1.64-1.312-1.657-1.312-4.782t1.312-4.781q1.328-1.656 3.828-1.656.703 0 1.344.156.656.156 1.219.453v2.719q-.625-.578-1.219-.844-.594-.281-1.219-.281-1.343 0-2.031 1.078-.688 1.062-.688 3.156 0 2.094.688 3.172.688 1.062 2.031 1.062.625 0 1.219-.265.594-.281 1.219-.86v2.72Z"/><text x="883" y="32.78" fill="#D9B8FF" font-family="Helvetica" font-size="17" textLength="94">gcp_project</text></a><a xlink:actuate="onRequest" xlink:href="#k" xlink:show="new" xlink:title="#gcp_network" xlink:type="simple" target="_top"><rect id="k" width="149" height="39.789" x="842.5" y="107" fill="#3D176E" rx="2.5" ry="2.5" style="stroke:#000d19;stroke-width:1.5"/><circle cx="857.5" cy="126.894" r="11" fill="#E98DF7" style="stroke:#000d19;stroke-width:1"/><path d="M860.469 132.535q-.578.297-1.219.438-.64.156-1.344.156-2.5 0-3.828-1.64-1.312-1.657-1.312-4.782t1.312-4.781q1.328-1.657 3.828-1.657.703 0 1.344.157.656.156 1.219.453v2.719q-.625-.579-1.219-.844-.594-.281-1.219-.281-1.343 0-2.031 1.078-.688 1.062-.688 3.156 0 2.094.688 3.172.688 1.062 2.031 1.062.625 0 1.219-.265.594-.281 1.219-.86v2.72Z"/><text x="876.5" y="132.78" fill="#D9B8FF" font-family="Helvetica" font-size="17" textLength="107">gcp_network</text></a><path fill="none" d="M185.24 244.42c6 .93 11.96 1.8 17.76 2.58 286.2 38.61 360.39 24.61 647 60 4.83.6 9.75 1.23 14.73 1.9" style="stroke:#1a83af;stroke-width:2"/><path fill="#1A83AF" d="m869.71 309.58-8.382-5.172 3.427 4.5-4.5 3.428 9.455-2.756z" style="stroke:#1a83af;stroke-width:2"/><path fill="none" d="M185.03 243.84c6.08 1.07 12.12 2.13 17.97 3.16 115.73 20.3 248.04 43.19 340.22 59.08" style="stroke:#1a83af;stroke-width:2"/><path fill="#1A83AF" d="m548.4 306.97-8.197-5.46 3.269 4.617-4.617 3.269 9.545-2.426z" style="stroke:#1a83af;stroke-width:2"/><path fill="none" d="M96.89 247.28c2.39 27.05 11.03 75.63 42.11 99.72 58.83 45.59 556.75 68.78 754 76.24" style="stroke:#1a83af;stroke-width:2"/><path fill="#1A83AF" d="m898.17 423.44-8.845-4.331 3.848 4.145-4.145 3.85 9.142-3.664z" style="stroke:#1a83af;stroke-width:2"/><path fill="none" d="M136.01 247.13c34.57 16.52 84.48 40.38 120.34 57.52" style="stroke:#1a83af;stroke-width:2"/><path fill="#1A83AF" d="m261.09 306.92-6.396-7.49 1.885 5.334-5.334 1.885 9.845.271z" style="stroke:#1a83af;stroke-width:2"/><path fill="none" d="M973 347.36v54.3" style="stroke:#1a83af;stroke-width:2"/><path fill="#1A83AF" d="m973 406.68 4-9-4 4-4-4 4 9z" style="stroke:#1a83af;stroke-width:2"/><path fill="none" d="M848.77 44.46C699.26 80.51 343.18 166.39 180.13 205.71" style="stroke:#1a83af;stroke-width:2"/><path fill="#1A83AF" d="m174.89 206.97 9.687 1.778-4.826-2.95 2.95-4.827-7.811 5.999z" style="stroke:#1a83af;stroke-width:2"/><path fill="none" d="M948.75 47.16c61.23 36.97 195.29 117.9 259.95 156.93" style="stroke:#1a83af;stroke-width:2"/><path fill="#1A83AF" d="m1213.23 206.82-5.64-8.074 1.359 5.491-5.492 1.359 9.773 1.224z" style="stroke:#1a83af;stroke-width:2"/><path fill="none" d="M917 47.36v54.3" style="stroke:#1a83af;stroke-width:2"/><path fill="#1A83AF" d="m917 106.68 4-9-4 4-4-4 4 9z" style="stroke:#1a83af;stroke-width:2"/><path fill="none" d="M980.63 147.01c56.81 16.97 139.72 41.75 197.5 59.01" style="stroke:#1a83af;stroke-width:2"/><path fill="#1A83AF" d="m1182.94 207.46-7.48-6.407 2.689 4.977-4.977 2.689 9.768-1.259z" style="stroke:#1a83af;stroke-width:2"/><path fill="none" d="M929.89 147.35c15.13 25.39 35.5 70.18 13.11 99.65-19.76 26.01-90.45 45.73-156.36 58.96" style="stroke:#1a83af;stroke-width:2"/><path fill="#1A83AF" d="m781.5 306.98 9.606 2.173-4.702-3.145 3.146-4.702-8.05 5.674z" style="stroke:#1a83af;stroke-width:2"/><path fill="none" d="M917.17 147.02c-.89 26.72-6.77 74.91-36.17 99.98-8.21 7-261.14 39.53-430.24 60.6" style="stroke:#1a83af;stroke-width:2"/><path fill="#1A83AF" d="m445.78 308.22 9.423 2.866-4.46-3.48 3.478-4.46-8.441 5.074z" style="stroke:#1a83af;stroke-width:2"/><path fill="none" d="M882.06 147.13c-30.06 16.46-73.4 40.19-104.69 57.31" style="stroke:#1a83af;stroke-width:2"/><path fill="#1A83AF" d="m772.85 206.92 9.815-.811-5.429-1.59 1.589-5.428-5.975 7.829z" style="stroke:#1a83af;stroke-width:2"/><path fill="none" d="M954.07 147.12c21.83 13.49 47.53 33.79 59.93 59.88 15.25 32.09-5.41 71.42-22.52 95.85" style="stroke:#1a83af;stroke-width:2"/><path fill="#1A83AF" d="m988.56 306.94 8.5-4.976-5.583.915-.915-5.582-2.002 9.643z" style="stroke:#1a83af;stroke-width:2"/><path fill="none" d="M842.23 136.81C736.44 149.72 537.21 175.68 369 207c-4.07.76-8.25 1.58-12.46 2.44" style="stroke:#1a83af;stroke-width:2"/><path fill="#1A83AF" d="m351.59 210.46 9.625 2.087-4.73-3.103 3.104-4.73-7.999 5.746z" style="stroke:#1a83af;stroke-width:2"/><path fill="none" d="M842.22 144.85c-74.99 16.89-190.52 42.92-270.43 60.92" style="stroke:#1a83af;stroke-width:2"/><path fill="#1A83AF" d="m566.58 206.94 9.66 1.92-4.783-3.021 3.02-4.783-7.897 5.884z" style="stroke:#1a83af;stroke-width:2"/><path fill="none" d="M842.27 134.64C712.09 146.58 435.38 173.55 203 207c-4.16.6-8.41 1.24-12.69 1.9" style="stroke:#1a83af;stroke-width:2"/><path fill="#1A83AF" d="m185.26 209.7 9.516 2.538-4.578-3.323 3.322-4.578-8.26 5.363z" style="stroke:#1a83af;stroke-width:2"/><path fill="none" d="M958.37 147.01c26.45 13.75 60.09 34.38 83.63 59.99 33.9 36.88 40.1 51.34 52 100 4.22 17.27 8.46 24.37 0 40-14.11 26.07-40.97 44.9-65.8 57.62" style="stroke:#1a83af;stroke-width:2"/><path fill="#1A83AF" d="m1023.59 406.93 9.84-.435-5.365-1.795 1.796-5.365-6.271 7.595z" style="stroke:#1a83af;stroke-width:2"/></svg>