<svg xmlns="http://www.w3.org/2000/svg" xmlns:xlink="http://www.w3.org/1999/xlink" width="2904" height="852" preserveAspectRatio="none" style="width:2904px;height:852px;background:#00000000"><a xlink:actuate="onRequest" xlink:href="#a" xlink:show="new" xlink:title="#gcp_forwarding_rule" xlink:type="simple" target="_top"><rect id="a" width="212" height="39.789" x="549" y="207" fill="#3D176E" rx="2.5" ry="2.5" style="stroke:#000d19;stroke-width:1.5"/><circle cx="564" cy="226.894" r="11" fill="#E98DF7" style="stroke:#000d19;stroke-width:1"/><path d="M566.969 232.535q-.578.297-1.219.438-.64.156-1.344.156-2.5 0-3.828-1.64-1.312-1.657-1.312-4.782t1.312-4.781q1.328-1.656 3.828-1.656.703 0 1.344.156.656.156 1.219.453v2.719q-.625-.579-1.219-.844-.594-.281-1.219-.281-1.343 0-2.031 1.078-.688 1.062-.688 3.156 0 2.094.688 3.172.688 1.062 2.031 1.062.625 0 1.219-.265.594-.281 1.219-.86v2.72Z"/><text x="583" y="232.78" fill="#D9B8FF" font-family="Helvetica" font-size="17" textLength="170">gcp_forwarding_rule</text></a><a xlink:actuate="onRequest" xlink:href="#b" xlink:show="new" xlink:title="#gcp_target_vpn_gateway" xlink:type="simple" target="_top"><rect id="b" width="251" height="39.789" x="2119.5" y="307" fill="#3D176E" rx="2.5" ry="2.5" style="stroke:#000d19;stroke-width:1.5"/><circle cx="2134.5" cy="326.894" r="11" fill="#E98DF7" style="stroke:#000d19;stroke-width:1"/><path d="M2137.469 332.535q-.578.297-1.219.438-.64.156-1.344.156-2.5 0-3.828-1.64-1.312-1.657-1.312-4.782t1.312-4.781q1.328-1.656 3.828-1.656.703 0 1.344.156.656.156 1.219.453v2.719q-.625-.579-1.219-.844-.594-.281-1.219-.281-1.343 0-2.031 1.078-.688 1.062-.688 3.156 0 2.094.688 3.172.688 1.062 2.031 1.062.625 0 1.219-.265.594-.281 1.219-.86v2.72Z"/><text x="2153.5" y="332.78" fill="#D9B8FF" font-family="Helvetica" font-size="17" textLength="209">gcp_target_vpn_gateway</text></a><a xlink:actuate="onRequest" xlink:href="#c" xlink:show="new" xlink:title="#gcp_target_http_proxy" xlink:type="simple" target="_top"><rect id="c" width="230" height="39.789" x="201" y="307" fill="#3D176E" rx="2.5" ry="2.5" style="stroke:#000d19;stroke-width:1.5"/><circle cx="216" cy="326.894" r="11" fill="#E98DF7" style="stroke:#000d19;stroke-width:1"/><path d="M218.969 332.535q-.578.297-1.219.438-.64.156-1.344.156-2.5 0-3.828-1.64-1.312-1.657-1.312-4.782t1.312-4.781q1.328-1.656 3.828-1.656.703 0 1.344.156.656.156 1.219.453v2.719q-.625-.579-1.219-.844-.594-.281-1.219-.281-1.344 0-2.031 1.078-.688 1.062-.688 3.156 0 2.094.688 3.172.688 1.062 2.031 1.062.625 0 1.219-.265.594-.281 1.219-.86v2.72Z"/><text x="235" y="332.78" fill="#D9B8FF" font-family="Helvetica" font-size="17" textLength="188">gcp_target_http_proxy</text></a><a xlink:actuate="onRequest" xlink:href="#d" xlink:show="new" xlink:title="#gcp_target_pool" xlink:type="simple" target="_top"><rect id="d" width="174" height="39.789" x="739" y="307" fill="#3D176E" rx="2.5" ry="2.5" style="stroke:#000d19;stroke-width:1.5"/><circle cx="754" cy="326.894" r="11" fill="#E98DF7" style="stroke:#000d19;stroke-width:1"/><path d="M756.969 332.535q-.578.297-1.219.438-.64.156-1.344.156-2.5 0-3.828-1.64-1.312-1.657-1.312-4.782t1.312-4.781q1.328-1.656 3.828-1.656.703 0 1.344.156.656.156 1.219.453v2.719q-.625-.579-1.219-.844-.594-.281-1.219-.281-1.343 0-2.031 1.078-.688 1.062-.688 3.156 0 2.094.688 3.172.688 1.062 2.031 1.062.625 0 1.219-.265.594-.281 1.219-.86v2.72Z"/><text x="773" y="332.78" fill="#D9B8FF" font-family="Helvetica" font-size="17" textLength="132">gcp_target_pool</text></a><a xlink:actuate="onRequest" xlink:href="#e" xlink:show="new" xlink:title="#gcp_target_https_proxy" xlink:type="simple" target="_top"><rect id="e" width="238" height="39.789" x="466" y="307" fill="#3D176E" rx="2.5" ry="2.5" style="stroke:#000d19;stroke-width:1.5"/><circle cx="481" cy="326.894" r="11" fill="#E98DF7" style="stroke:#000d19;stroke-width:1"/><path d="M483.969 332.535q-.578.297-1.219.438-.64.156-1.344.156-2.5 0-3.828-1.64-1.312-1.657-1.312-4.782t1.312-4.781q1.328-1.656 3.828-1.656.703 0 1.344.156.656.156 1.219.453v2.719q-.625-.579-1.219-.844-.594-.281-1.219-.281-1.344 0-2.031 1.078-.688 1.062-.688 3.156 0 2.094.688 3.172.688 1.062 2.031 1.062.625 0 1.219-.265.594-.281 1.219-.86v2.72Z"/><text x="500" y="332.78" fill="#D9B8FF" font-family="Helvetica" font-size="17" textLength="196">gcp_target_https_proxy</text></a><a xlink:actuate="onRequest" xlink:href="#f" xlink:show="new" xlink:title="#gcp_health_check" xlink:type="simple" target="_top"><rect id="f" width="189" height="39.789" x="1425.5" y="807" fill="#3D176E" rx="2.5" ry="2.5" style="stroke:#000d19;stroke-width:1.5"/><circle cx="1440.5" cy="826.894" r="11" fill="#E98DF7" style="stroke:#000d19;stroke-width:1"/><path d="M1443.469 832.535q-.578.297-1.219.438-.64.156-1.344.156-2.5 0-3.828-1.64-1.312-1.657-1.312-4.782t1.312-4.781q1.328-1.657 3.828-1.657.703 0 1.344.157.656.156 1.219.453v2.719q-.625-.578-1.219-.844-.594-.281-1.219-.281-1.343 0-2.031 1.078-.688 1.062-.688 3.156 0 2.094.688 3.172.688 1.062 2.031 1.062.625 0 1.219-.265.594-.282 1.219-.86v2.72Z"/><text x="1459.5" y="832.78" fill="#D9B8FF" font-family="Helvetica" font-size="17" textLength="147">gcp_health_check</text></a><a xlink:actuate="onRequest" xlink:href="#g" xlink:show="new" xlink:title="#gcp_instance_group_manager" xlink:type="simple" target="_top"><rect id="g" width="290" height="39.789" x="1648" y="707" fill="#3D176E" rx="2.5" ry="2.5" style="stroke:#000d19;stroke-width:1.5"/><circle cx="1663" cy="726.894" r="11" fill="#E98DF7" style="stroke:#000d19;stroke-width:1"/><path d="M1665.969 732.535q-.578.297-1.219.438-.64.156-1.344.156-2.5 0-3.828-1.64-1.312-1.657-1.312-4.782t1.312-4.781q1.328-1.657 3.828-1.657.703 0 1.344.157.656.156 1.219.453v2.719q-.625-.578-1.219-.844-.594-.281-1.219-.281-1.343 0-2.031 1.078-.688 1.062-.688 3.156 0 2.094.688 3.172.688 1.062 2.031 1.062.625 0 1.219-.265.594-.282 1.219-.86v2.72Z"/><text x="1682" y="732.78" fill="#D9B8FF" font-family="Helvetica" font-size="17" textLength="248">gcp_instance_group_manager</text></a><a xlink:actuate="onRequest" xlink:href="#h" xlink:show="new" xlink:title="#gcp_backend_service" xlink:type="simple" target="_top"><rect id="h" width="215" height="39.789" x="910.5" y="507" fill="#3D176E" rx="2.5" ry="2.5" style="stroke:#000d19;stroke-width:1.5"/><circle cx="925.5" cy="526.894" r="11" fill="#E98DF7" style="stroke:#000d19;stroke-width:1"/><path d="M928.469 532.535q-.578.297-1.219.438-.64.156-1.344.156-2.5 0-3.828-1.64-1.312-1.657-1.312-4.782t1.312-4.781q1.328-1.657 3.828-1.657.703 0 1.344.157.656.156 1.219.453v2.719q-.625-.578-1.219-.844-.594-.281-1.219-.281-1.343 0-2.031 1.078-.688 1.062-.688 3.156 0 2.094.688 3.172.688 1.062 2.031 1.062.625 0 1.219-.265.594-.282 1.219-.86v2.72Z"/><text x="944.5" y="532.78" fill="#D9B8FF" font-family="Helvetica" font-size="17" textLength="173">gcp_backend_service</text></a><a xlink:actuate="onRequest" xlink:href="#i" xlink:show="new" xlink:title="#gcp_url_map" xlink:type="simple" target="_top"><rect id="i" width="148" height="39.789" x="812" y="407" fill="#3D176E" rx="2.5" ry="2.5" style="stroke:#000d19;stroke-width:1.5"/><circle cx="827" cy="426.894" r="11" fill="#E98DF7" style="stroke:#000d19;stroke-width:1"/><path d="M829.969 432.535q-.578.297-1.219.438-.64.156-1.344.156-2.5 0-3.828-1.64-1.312-1.657-1.312-4.782t1.312-4.781q1.328-1.656 3.828-1.656.703 0 1.344.156.656.156 1.219.453v2.719q-.625-.579-1.219-.844-.594-.281-1.219-.281-1.343 0-2.031 1.078-.688 1.062-.688 3.156 0 2.094.688 3.172.688 1.062 2.031 1.062.625 0 1.219-.265.594-.281 1.219-.86v2.72Z"/><text x="846" y="432.78" fill="#D9B8FF" font-family="Helvetica" font-size="17" textLength="106">gcp_url_map</text></a><a xlink:actuate="onRequest" xlink:href="#j" xlink:show="new" xlink:title="#gcp_subnetwork" xlink:type="simple" target="_top"><rect id="j" width="178" height="39.789" x="2595" y="507" fill="#3D176E" rx="2.5" ry="2.5" style="stroke:#000d19;stroke-width:1.5"/><circle cx="2610" cy="526.894" r="11" fill="#E98DF7" style="stroke:#000d19;stroke-width:1"/><path d="M2612.969 532.535q-.578.297-1.219.438-.64.156-1.344.156-2.5 0-3.828-1.64-1.312-1.657-1.312-4.782t1.312-4.781q1.328-1.657 3.828-1.657.703 0 1.344.157.656.156 1.219.453v2.719q-.625-.578-1.219-.844-.594-.281-1.219-.281-1.343 0-2.031 1.078-.688 1.062-.688 3.156 0 2.094.688 3.172.688 1.062 2.031 1.062.625 0 1.219-.265.594-.282 1.219-.86v2.72Z"/><text x="2629" y="532.78" fill="#D9B8FF" font-family="Helvetica" font-size="17" textLength="136">gcp_subnetwork</text></a><a xlink:actuate="onRequest" xlink:href="#k" xlink:show="new" xlink:title="#gcp_network_endpoint_group" xlink:type="simple" target="_top"><rect id="k" width="289" height="39.789" x="1560.5" y="607" fill="#3D176E" rx="2.5" ry="2.5" style="stroke:#000d19;stroke-width:1.5"/><circle cx="1575.5" cy="626.894" r="11" fill="#E98DF7" style="stroke:#000d19;stroke-width:1"/><path d="M1578.469 632.535q-.578.297-1.219.438-.64.156-1.344.156-2.5 0-3.828-1.64-1.312-1.657-1.312-4.782t1.312-4.781q1.328-1.657 3.828-1.657.703 0 1.344.157.656.156 1.219.453v2.719q-.625-.578-1.219-.844-.594-.281-1.219-.281-1.343 0-2.031 1.078-.688 1.062-.688 3.156 0 2.094.688 3.172.688 1.062 2.031 1.062.625 0 1.219-.265.594-.282 1.219-.86v2.72Z"/><text x="1594.5" y="632.78" fill="#D9B8FF" font-family="Helvetica" font-size="17" textLength="247">gcp_network_endpoint_group</text></a><a xlink:actuate="onRequest" xlink:href="#l" xlink:show="new" xlink:title="#gcp_instance_group" xlink:type="simple" target="_top"><rect id="l" width="206" height="39.789" x="1963" y="607" fill="#3D176E" rx="2.5" ry="2.5" style="stroke:#000d19;stroke-width:1.5"/><circle cx="1978" cy="626.894" r="11" fill="#E98DF7" style="stroke:#000d19;stroke-width:1"/><path d="M1980.969 632.535q-.578.297-1.219.438-.64.156-1.344.156-2.5 0-3.828-1.64-1.312-1.657-1.312-4.782t1.312-4.781q1.328-1.657 3.828-1.657.703 0 1.344.157.656.156 1.219.453v2.719q-.625-.578-1.219-.844-.594-.281-1.219-.281-1.343 0-2.031 1.078-.688 1.062-.688 3.156 0 2.094.688 3.172.688 1.062 2.031 1.062.625 0 1.219-.265.594-.282 1.219-.86v2.72Z"/><text x="1997" y="632.78" fill="#D9B8FF" font-family="Helvetica" font-size="17" textLength="164">gcp_instance_group</text></a><a xlink:actuate="onRequest" xlink:href="#m" xlink:show="new" xlink:title="#gcp_disk_type" xlink:type="simple" target="_top"><rect id="m" width="158" height="39.789" x="1504" y="307" fill="#3D176E" rx="2.5" ry="2.5" style="stroke:#000d19;stroke-width:1.5"/><circle cx="1519" cy="326.894" r="11" fill="#E98DF7" style="stroke:#000d19;stroke-width:1"/><path d="M1521.969 332.535q-.578.297-1.219.438-.64.156-1.344.156-2.5 0-3.828-1.64-1.312-1.657-1.312-4.782t1.312-4.781q1.328-1.656 3.828-1.656.703 0 1.344.156.656.156 1.219.453v2.719q-.625-.579-1.219-.844-.594-.281-1.219-.281-1.343 0-2.031 1.078-.688 1.062-.688 3.156 0 2.094.688 3.172.688 1.062 2.031 1.062.625 0 1.219-.265.594-.281 1.219-.86v2.72Z"/><text x="1538" y="332.78" fill="#D9B8FF" font-family="Helvetica" font-size="17" textLength="116">gcp_disk_type</text></a><a xlink:actuate="onRequest" xlink:href="#n" xlink:show="new" xlink:title="#gcp_project" xlink:type="simple" target="_top"><rect id="n" width="136" height="39.789" x="308" y="7" fill="#3D176E" rx="2.5" ry="2.5" style="stroke:#000d19;stroke-width:1.5"/><circle cx="323" cy="26.895" r="11" fill="#E98DF7" style="stroke:#000d19;stroke-width:1"/><path d="M325.969 32.535q-.578.297-1.219.438-.64.156-1.344.156-2.5 0-3.828-1.64-1.312-1.657-1.312-4.782t1.312-4.781q1.328-1.656 3.828-1.656.703 0 1.344.156.656.156 1.219.453v2.719q-.625-.578-1.219-.844-.594-.281-1.219-.281-1.344 0-2.031 1.078-.688 1.062-.688 3.156 0 2.094.688 3.172.688 1.062 2.031 1.062.625 0 1.219-.265.594-.281 1.219-.86v2.72Z"/><text x="342" y="32.78" fill="#D9B8FF" font-family="Helvetica" font-size="17" textLength="94">gcp_project</text></a><a xlink:actuate="onRequest" xlink:href="#o" xlink:show="new" xlink:title="#gcp_region" xlink:type="simple" target="_top"><rect id="o" width="132" height="39.789" x="1400" y="107" fill="#3D176E" rx="2.5" ry="2.5" style="stroke:#000d19;stroke-width:1.5"/><circle cx="1415" cy="126.894" r="11" fill="#E98DF7" style="stroke:#000d19;stroke-width:1"/><path d="M1417.969 132.535q-.578.297-1.219.438-.64.156-1.344.156-2.5 0-3.828-1.64-1.312-1.657-1.312-4.782t1.312-4.781q1.328-1.657 3.828-1.657.703 0 1.344.157.656.156 1.219.453v2.719q-.625-.579-1.219-.844-.594-.281-1.219-.281-1.343 0-2.031 1.078-.688 1.062-.688 3.156 0 2.094.688 3.172.688 1.062 2.031 1.062.625 0 1.219-.265.594-.281 1.219-.86v2.72Z"/><text x="1434" y="132.78" fill="#D9B8FF" font-family="Helvetica" font-size="17" textLength="90">gcp_region</text></a><a xlink:actuate="onRequest" xlink:href="#p" xlink:show="new" xlink:title="#gcp_ssl_certificate" xlink:type="simple" target="_top"><rect id="p" width="192" height="39.789" x="489" y="407" fill="#3D176E" rx="2.5" ry="2.5" style="stroke:#000d19;stroke-width:1.5"/><circle cx="504" cy="426.894" r="11" fill="#E98DF7" style="stroke:#000d19;stroke-width:1"/><path d="M506.969 432.535q-.578.297-1.219.438-.64.156-1.344.156-2.5 0-3.828-1.64-1.312-1.657-1.312-4.782t1.312-4.781q1.328-1.656 3.828-1.656.703 0 1.344.156.656.156 1.219.453v2.719q-.625-.579-1.219-.844-.594-.281-1.219-.281-1.344 0-2.031 1.078-.688 1.062-.688 3.156 0 2.094.688 3.172.688 1.062 2.031 1.062.625 0 1.219-.265.594-.281 1.219-.86v2.72Z"/><text x="523" y="432.78" fill="#D9B8FF" font-family="Helvetica" font-size="17" textLength="150">gcp_ssl_certificate</text></a><a xlink:actuate="onRequest" xlink:href="#q" xlink:show="new" xlink:title="#gcp_autoscaler" xlink:type="simple" target="_top"><rect id="q" width="165" height="39.789" x="1303.5" y="307" fill="#3D176E" rx="2.5" ry="2.5" style="stroke:#000d19;stroke-width:1.5"/><circle cx="1318.5" cy="326.894" r="11" fill="#E98DF7" style="stroke:#000d19;stroke-width:1"/><path d="M1321.469 332.535q-.578.297-1.219.438-.64.156-1.344.156-2.5 0-3.828-1.64-1.312-1.657-1.312-4.782t1.312-4.781q1.328-1.656 3.828-1.656.703 0 1.344.156.656.156 1.219.453v2.719q-.625-.579-1.219-.844-.594-.281-1.219-.281-1.343 0-2.031 1.078-.688 1.062-.688 3.156 0 2.094.688 3.172.688 1.062 2.031 1.062.625 0 1.219-.265.594-.281 1.219-.86v2.72Z"/><text x="1337.5" y="332.78" fill="#D9B8FF" font-family="Helvetica" font-size="17" textLength="123">gcp_autoscaler</text></a><a xlink:actuate="onRequest" xlink:href="#r" xlink:show="new" xlink:title="#gcp_disk" xlink:type="simple" target="_top"><rect id="r" width="112" height="39.789" x="1527" y="407" fill="#3D176E" rx="2.5" ry="2.5" style="stroke:#000d19;stroke-width:1.5"/><circle cx="1542" cy="426.894" r="11" fill="#E98DF7" style="stroke:#000d19;stroke-width:1"/><path d="M1544.969 432.535q-.578.297-1.219.438-.64.156-1.344.156-2.5 0-3.828-1.64-1.312-1.657-1.312-4.782t1.312-4.781q1.328-1.656 3.828-1.656.703 0 1.344.156.656.156 1.219.453v2.719q-.625-.579-1.219-.844-.594-.281-1.219-.281-1.343 0-2.031 1.078-.688 1.062-.688 3.156 0 2.094.688 3.172.688 1.062 2.031 1.062.625 0 1.219-.265.594-.281 1.219-.86v2.72Z"/><text x="1561" y="432.78" fill="#D9B8FF" font-family="Helvetica" font-size="17" textLength="70">gcp_disk</text></a><a xlink:actuate="onRequest" xlink:href="#s" xlink:show="new" xlink:title="#gcp_gke_cluster" xlink:type="simple" target="_top"><rect id="s" width="174" height="39.789" x="1697" y="307" fill="#3D176E" rx="2.5" ry="2.5" style="stroke:#000d19;stroke-width:1.5"/><circle cx="1712" cy="326.894" r="11" fill="#E98DF7" style="stroke:#000d19;stroke-width:1"/><path d="M1714.969 332.535q-.578.297-1.219.438-.64.156-1.344.156-2.5 0-3.828-1.64-1.312-1.657-1.312-4.782t1.312-4.781q1.328-1.656 3.828-1.656.703 0 1.344.156.656.156 1.219.453v2.719q-.625-.579-1.219-.844-.594-.281-1.219-.281-1.343 0-2.031 1.078-.688 1.062-.688 3.156 0 2.094.688 3.172.688 1.062 2.031 1.062.625 0 1.219-.265.594-.281 1.219-.86v2.72Z"/><text x="1731" y="332.78" fill="#D9B8FF" font-family="Helvetica" font-size="17" textLength="132">gcp_gke_cluster</text></a><a xlink:actuate="onRequest" xlink:href="#t" xlink:show="new" xlink:title="#gcp_quota" xlink:type="simple" target="_top"><rect id="t" width="127" height="39.789" x="1402.5" y="207" fill="#3D176E" rx="2.5" ry="2.5" style="stroke:#000d19;stroke-width:1.5"/><circle cx="1417.5" cy="226.894" r="11" fill="#E98DF7" style="stroke:#000d19;stroke-width:1"/><path d="M1420.469 232.535q-.578.297-1.219.438-.64.156-1.344.156-2.5 0-3.828-1.64-1.312-1.657-1.312-4.782t1.312-4.781q1.328-1.656 3.828-1.656.703 0 1.344.156.656.156 1.219.453v2.719q-.625-.579-1.219-.844-.594-.281-1.219-.281-1.343 0-2.031 1.078-.688 1.062-.688 3.156 0 2.094.688 3.172.688 1.062 2.031 1.062.625 0 1.219-.265.594-.281 1.219-.86v2.72Z"/><text x="1436.5" y="232.78" fill="#D9B8FF" font-family="Helvetica" font-size="17" textLength="85">gcp_quota</text></a><a xlink:actuate="onRequest" xlink:href="#u" xlink:show="new" xlink:title="#gcp_zone" xlink:type="simple" target="_top"><rect id="u" width="118" height="39.789" x="1707" y="207" fill="#3D176E" rx="2.5" ry="2.5" style="stroke:#000d19;stroke-width:1.5"/><circle cx="1722" cy="226.894" r="11" fill="#E98DF7" style="stroke:#000d19;stroke-width:1"/><path d="M1724.969 232.535q-.578.297-1.219.438-.64.156-1.344.156-2.5 0-3.828-1.64-1.312-1.657-1.312-4.782t1.312-4.781q1.328-1.656 3.828-1.656.703 0 1.344.156.656.156 1.219.453v2.719q-.625-.579-1.219-.844-.594-.281-1.219-.281-1.343 0-2.031 1.078-.688 1.062-.688 3.156 0 2.094.688 3.172.688 1.062 2.031 1.062.625 0 1.219-.265.594-.281 1.219-.86v2.72Z"/><text x="1741" y="232.78" fill="#D9B8FF" font-family="Helvetica" font-size="17" textLength="76">gcp_zone</text></a><a xlink:actuate="onRequest" xlink:href="#v" xlink:show="new" xlink:title="#gcp_database" xlink:type="simple" target="_top"><rect id="v" width="154" height="39.789" x="2406" y="307" fill="#3D176E" rx="2.5" ry="2.5" style="stroke:#000d19;stroke-width:1.5"/><circle cx="2421" cy="326.894" r="11" fill="#E98DF7" style="stroke:#000d19;stroke-width:1"/><path d="M2423.969 332.535q-.578.297-1.219.438-.64.156-1.344.156-2.5 0-3.828-1.64-1.312-1.657-1.312-4.782t1.312-4.781q1.328-1.656 3.828-1.656.703 0 1.344.156.656.156 1.219.453v2.719q-.625-.579-1.219-.844-.594-.281-1.219-.281-1.343 0-2.031 1.078-.688 1.062-.688 3.156 0 2.094.688 3.172.688 1.062 2.031 1.062.625 0 1.219-.265.594-.281 1.219-.86v2.72Z"/><text x="2440" y="332.78" fill="#D9B8FF" font-family="Helvetica" font-size="17" textLength="112">gcp_database</text></a><a xlink:actuate="onRequest" xlink:href="#w" xlink:show="new" xlink:title="#gcp_vpn_tunnel" xlink:type="simple" target="_top"><rect id="w" width="174" height="39.789" x="2027" y="207" fill="#3D176E" rx="2.5" ry="2.5" style="stroke:#000d19;stroke-width:1.5"/><circle cx="2042" cy="226.894" r="11" fill="#E98DF7" style="stroke:#000d19;stroke-width:1"/><path d="M2044.969 232.535q-.578.297-1.219.438-.64.156-1.344.156-2.5 0-3.828-1.64-1.312-1.657-1.312-4.782t1.312-4.781q1.328-1.656 3.828-1.656.703 0 1.344.156.656.156 1.219.453v2.719q-.625-.579-1.219-.844-.594-.281-1.219-.281-1.343 0-2.031 1.078-.688 1.062-.688 3.156 0 2.094.688 3.172.688 1.062 2.031 1.062.625 0 1.219-.265.594-.281 1.219-.86v2.72Z"/><text x="2061" y="232.78" fill="#D9B8FF" font-family="Helvetica" font-size="17" textLength="132">gcp_vpn_tunnel</text></a><a xlink:actuate="onRequest" xlink:href="#x" xlink:show="new" xlink:title="#gcp_router" xlink:type="simple" target="_top"><rect id="x" width="131" height="39.789" x="1860.5" y="207" fill="#3D176E" rx="2.5" ry="2.5" style="stroke:#000d19;stroke-width:1.5"/><circle cx="1875.5" cy="226.894" r="11" fill="#E98DF7" style="stroke:#000d19;stroke-width:1"/><path d="M1878.469 232.535q-.578.297-1.219.438-.64.156-1.344.156-2.5 0-3.828-1.64-1.312-1.657-1.312-4.782t1.312-4.781q1.328-1.656 3.828-1.656.703 0 1.344.156.656.156 1.219.453v2.719q-.625-.579-1.219-.844-.594-.281-1.219-.281-1.343 0-2.031 1.078-.688 1.062-.688 3.156 0 2.094.688 3.172.688 1.062 2.031 1.062.625 0 1.219-.265.594-.281 1.219-.86v2.72Z"/><text x="1894.5" y="232.78" fill="#D9B8FF" font-family="Helvetica" font-size="17" textLength="89">gcp_router</text></a><path fill="none" d="M761.17 234.54c281.27 17.34 1045.1 64.42 1352.78 83.38" style="stroke:#1a83af;stroke-width:2"/><path fill="#1A83AF" d="m2119.35 318.26-8.744-4.533 3.753 4.233-4.233 3.752 9.224-3.452z" style="stroke:#1a83af;stroke-width:2"/><path fill="none" d="M589.24 247.01c-58.16 16.81-142.77 41.27-202.4 58.51" style="stroke:#1a83af;stroke-width:2"/><path fill="#1A83AF" d="m381.87 306.96 9.756 1.347-4.952-2.734 2.733-4.952-7.537 6.339z" style="stroke:#1a83af;stroke-width:2"/><path fill="none" d="M688.38 247.13c28.6 16.39 69.78 39.99 99.64 57.1" style="stroke:#1a83af;stroke-width:2"/><path fill="#1A83AF" d="m792.71 306.92-5.813-7.95 1.477 5.46-5.46 1.477 9.796 1.013z" style="stroke:#1a83af;stroke-width:2"/><path fill="none" d="M641.17 247.36c-11.31 15.84-27.35 38.3-39.4 55.16" style="stroke:#1a83af;stroke-width:2"/><path fill="#1A83AF" d="m598.8 306.68 8.491-4.99-5.58.924-.925-5.58-1.986 9.646z" style="stroke:#1a83af;stroke-width:2"/><path fill="none" d="M426.58 347.01c111.75 19.21 281.63 48.42 380.47 65.42" style="stroke:#1a83af;stroke-width:2"/><path fill="#1A83AF" d="m812 413.28-8.197-5.46 3.269 4.617-4.617 3.269L812 413.28z" style="stroke:#1a83af;stroke-width:2"/><path fill="none" d="M643.39 347.01c51.43 16.74 126.16 41.08 179.07 58.3" style="stroke:#1a83af;stroke-width:2"/><path fill="#1A83AF" d="m827.51 406.96-7.321-6.588 2.566 5.041-5.04 2.567 9.795-1.02z" style="stroke:#1a83af;stroke-width:2"/><path fill="none" d="M585 347.36v54.3" style="stroke:#1a83af;stroke-width:2"/><path fill="#1A83AF" d="m585 406.68 4-9-4 4-4-4 4 9z" style="stroke:#1a83af;stroke-width:2"/><path fill="none" d="M1740.04 747.01c-46.47 16.68-113.94 40.9-161.89 58.12" style="stroke:#1a83af;stroke-width:2"/><path fill="#1A83AF" d="m1573.28 806.87 9.824.7-5.122-2.4 2.4-5.123-7.102 6.823z" style="stroke:#1a83af;stroke-width:2"/><path fill="none" d="M1050.17 547.09c89.14 52.93 339 201.25 433.24 257.19" style="stroke:#1a83af;stroke-width:2"/><path fill="#1A83AF" d="m1487.78 806.87-5.691-8.038 1.394 5.482-5.483 1.394 9.78 1.162z" style="stroke:#1a83af;stroke-width:2"/><path fill="none" d="M1125.72 543.37c119.03 16.98 311.04 44.37 441.07 62.91" style="stroke:#1a83af;stroke-width:2"/><path fill="#1A83AF" d="m1571.78 607-8.35-5.222 3.4 4.52-4.522 3.4 9.472-2.698z" style="stroke:#1a83af;stroke-width:2"/><path fill="none" d="M1125.56 537.92c161.16 14.89 474.87 43.95 741.44 69.08 29.48 2.78 61.41 5.82 90.89 8.63" style="stroke:#1a83af;stroke-width:2"/><path fill="#1A83AF" d="m1962.98 616.12-8.568-4.856 3.592 4.37-4.37 3.592 9.346-3.106z" style="stroke:#1a83af;stroke-width:2"/><path fill="none" d="M911.76 447.13c21.9 16.25 53.35 39.6 76.35 56.68" style="stroke:#1a83af;stroke-width:2"/><path fill="#1A83AF" d="m992.3 506.92-4.834-8.58.822 5.596-5.597.822 9.609 2.162z" style="stroke:#1a83af;stroke-width:2"/><path fill="none" d="M2594.96 536.91c-168.05 16.82-533.57 53.41-740.08 74.09" style="stroke:#1a83af;stroke-width:2"/><path fill="#1A83AF" d="m1849.73 611.51 9.354 3.082-4.379-3.58 3.58-4.38-8.555 4.878z" style="stroke:#1a83af;stroke-width:2"/><path fill="none" d="M2594.71 542.68c-9.02 1.47-18.05 2.93-26.71 4.32-135.56 21.77-291.82 46.26-393.51 62.13" style="stroke:#1a83af;stroke-width:2"/><path fill="#1A83AF" d="m2169.38 609.92 9.51 2.564-4.57-3.335 3.335-4.569-8.275 5.34z" style="stroke:#1a83af;stroke-width:2"/><path fill="none" d="M2013.04 647.01c-46.47 16.68-113.94 40.9-161.89 58.12" style="stroke:#1a83af;stroke-width:2"/><path fill="#1A83AF" d="m1846.28 706.87 9.824.7-5.122-2.4 2.4-5.123-7.102 6.823z" style="stroke:#1a83af;stroke-width:2"/><path fill="none" d="M1583 347.36v54.3" style="stroke:#1a83af;stroke-width:2"/><path fill="#1A83AF" d="m1583 406.68 4-9-4 4-4-4 4 9z" style="stroke:#1a83af;stroke-width:2"/><path fill="none" d="m403.01 47.16 220.78 156.69" style="stroke:#1a83af;stroke-width:2"/><path fill="#1A83AF" d="m627.98 206.82-5.024-8.471.947 5.577-5.577.947 9.654 1.947z" style="stroke:#1a83af;stroke-width:2"/><path fill="none" d="M372.16 47.09c-10.5 52.13-39.63 196.8-51.26 254.6" style="stroke:#1a83af;stroke-width:2"/><path fill="#1A83AF" d="m319.89 306.68 5.696-8.034-4.71 3.132-3.132-4.71 2.146 9.612z" style="stroke:#1a83af;stroke-width:2"/><path fill="none" d="M307.71 33.97C200.8 47.49 6 90.67 6 226v402c0 143.04 1076.19 185.63 1413.89 195.47" style="stroke:#1a83af;stroke-width:2"/><path fill="#1A83AF" d="m1425.29 823.63-8.87-4.28 3.872 4.123-4.123 3.872 9.121-3.715z" style="stroke:#1a83af;stroke-width:2"/><path fill="none" d="M444.18 34.13c194.73 17.51 752.05 67.62 950.55 85.46" style="stroke:#1a83af;stroke-width:2"/><path fill="#1A83AF" d="m1399.92 120.06-8.61-4.783 3.63 4.34-4.34 3.629 9.32-3.186z" style="stroke:#1a83af;stroke-width:2"/><path fill="none" d="M444.21 29.09C806.31 35.4 2494.09 71.97 2679 207c87.71 64.05 71.75 134.49 46 240-4.85 19.86-15.64 40.3-24.93 55.41" style="stroke:#1a83af;stroke-width:2"/><path fill="#1A83AF" d="m2697.24 506.92 8.167-5.505-5.513 1.267-1.267-5.513-1.387 9.751z" style="stroke:#1a83af;stroke-width:2"/><path fill="none" d="M307.78 41.54C219.53 63.48 77 115.96 77 226v102c0 167.46 577.9 194.05 827.94 197.72" style="stroke:#1a83af;stroke-width:2"/><path fill="#1A83AF" d="m910.06 525.79-8.942-4.128 3.942 4.057-4.056 3.942 9.056-3.871z" style="stroke:#1a83af;stroke-width:2"/><path fill="none" d="M389.39 47.09c36.71 52.34 138.84 197.97 179.05 255.29" style="stroke:#1a83af;stroke-width:2"/><path fill="#1A83AF" d="m571.45 306.68-1.902-9.663-.973 5.572-5.573-.972 8.448 5.063z" style="stroke:#1a83af;stroke-width:2"/><path fill="none" d="M348.4 47.03C277.03 98.47 97.78 243.4 183 347c37.36 45.42 194.21 65.13 300.58 73.38" style="stroke:#1a83af;stroke-width:2"/><path fill="#1A83AF" d="m488.61 420.77-8.678-4.658 3.692 4.286-4.286 3.692 9.272-3.32z" style="stroke:#1a83af;stroke-width:2"/><path fill="none" d="M1532.31 130.58c174.4 7.37 635.97 31.02 686.69 76.42 26.29 23.54 29.36 66.95 28.3 94.33" style="stroke:#1a83af;stroke-width:2"/><path fill="#1A83AF" d="m2247.04 306.58 4.432-8.795-4.19 3.8-3.8-4.188 3.558 9.183z" style="stroke:#1a83af;stroke-width:2"/><path fill="none" d="M1399.66 135.38C1279.02 148.89 1015.7 178.82 794 207c-8.97 1.14-18.26 2.35-27.59 3.58" style="stroke:#1a83af;stroke-width:2"/><path fill="#1A83AF" d="m761.22 211.27 9.448 2.783-4.491-3.44 3.44-4.491-8.397 5.148z" style="stroke:#1a83af;stroke-width:2"/><path fill="none" d="M1399.8 142.61C1315.04 165.67 1179 219.31 1179 326v102c0 86.63 253.08 148.35 408.14 178.03" style="stroke:#1a83af;stroke-width:2"/><path fill="#1A83AF" d="m1592.16 606.98-8.085-5.624 3.175 4.682-4.682 3.174 9.592-2.232z" style="stroke:#1a83af;stroke-width:2"/><path fill="none" d="M1532.1 127.7c235.74-.45 1025.62 3.73 1106.9 79.3 83.7 77.81 62.45 234.64 50.47 294.77" style="stroke:#1a83af;stroke-width:2"/><path fill="#1A83AF" d="m2688.41 506.95 5.719-8.018-4.72 3.119-3.119-4.72 2.12 9.619z" style="stroke:#1a83af;stroke-width:2"/><path fill="none" d="M1428.94 147.14C1360.84 184.79 1227.88 271.4 1286 347c28.52 37.1 157.38 60.44 235.7 71.47" style="stroke:#1a83af;stroke-width:2"/><path fill="#1A83AF" d="m1526.78 419.18-8.367-5.195 3.414 4.51-4.51 3.414 9.463-2.729z" style="stroke:#1a83af;stroke-width:2"/><path fill="none" d="M1532.12 127.65c145.71.61 504.58 9.75 794.88 79.35 116.77 28 183.61.61 251 100 111.44 164.35-223.04 260.24-404.04 298.92" style="stroke:#1a83af;stroke-width:2"/><path fill="#1A83AF" d="m2168.91 606.99 9.637 2.033-4.747-3.077 3.077-4.747-7.967 5.791z" style="stroke:#1a83af;stroke-width:2"/><path fill="none" d="M1399.83 130c-185.2 6.15-705.85 27.49-868.83 77-71.09 21.59-144.96 68.88-184.92 96.91" style="stroke:#1a83af;stroke-width:2"/><path fill="#1A83AF" d="m341.84 306.89 9.659-1.925-5.575-.96.96-5.574-5.044 8.459z" style="stroke:#1a83af;stroke-width:2"/><path fill="none" d="M1532.16 130.39c246.51 9.14 1099.82 43.1 1146.84 76.61 29.9 21.31 99.03 223.68 112 300 2.98 17.53 11.41 26.36 0 40-106.29 127.05-595.7 164.04-847.46 174.72" style="stroke:#1a83af;stroke-width:2"/><path fill="#1A83AF" d="m1938.38 721.94 9.163 3.61-4.168-3.825 3.825-4.168-8.82 4.383z" style="stroke:#1a83af;stroke-width:2"/><path fill="none" d="M1399.53 132.62c-122.96 9.43-380.61 33.5-459.53 74.38-43.16 22.36-79.25 67.46-98.64 95.26" style="stroke:#1a83af;stroke-width:2"/><path fill="#1A83AF" d="m838.39 306.57 8.407-5.13-5.565 1.017-1.017-5.565-1.825 9.678z" style="stroke:#1a83af;stroke-width:2"/><path fill="none" d="M1496.78 147.16c59.36 36.97 189.34 117.9 252.03 156.93" style="stroke:#1a83af;stroke-width:2"/><path fill="#1A83AF" d="m1753.2 306.82-5.524-8.154 1.28 5.51-5.51 1.28 9.754 1.364z" style="stroke:#1a83af;stroke-width:2"/><path fill="none" d="M1399.72 131.64c-109.4 7.18-333.95 26.91-517.72 75.36-12.49 3.29-163.69 64.65-245.38 97.94" style="stroke:#1a83af;stroke-width:2"/><path fill="#1A83AF" d="m631.82 306.89 9.844.309-5.213-2.196 2.195-5.213-6.826 7.1z" style="stroke:#1a83af;stroke-width:2"/><path fill="none" d="M1466 147.36v54.3" style="stroke:#1a83af;stroke-width:2"/><path fill="#1A83AF" d="m1466 206.68 4-9-4 4-4-4 4 9z" style="stroke:#1a83af;stroke-width:2"/><path fill="none" d="M1399.92 134.29C1295.18 145.22 1096.79 170.14 1037 207c-66.44 40.95-40.45 97.65-106 140-73.41 47.43-171.7 66.55-244.75 74.18" style="stroke:#1a83af;stroke-width:2"/><path fill="#1A83AF" d="m681.03 421.71 9.355 3.08-4.38-3.58 3.58-4.38-8.555 4.88z" style="stroke:#1a83af;stroke-width:2"/><path fill="none" d="M1532.27 129.11c243.34 4.5 1078.96 23.77 1184.73 77.89 112.16 57.39 180 93.01 180 219v202c0 129.12-960.84 180.68-1277.28 194.17" style="stroke:#1a83af;stroke-width:2"/><path fill="#1A83AF" d="m1614.65 822.38 9.163 3.611-4.168-3.825 3.825-4.168-8.82 4.382z" style="stroke:#1a83af;stroke-width:2"/><path fill="none" d="M1524.2 147.01c51.25 16.74 125.74 41.08 178.47 58.3" style="stroke:#1a83af;stroke-width:2"/><path fill="#1A83AF" d="m1707.71 206.96-7.31-6.601 2.558 5.046-5.046 2.557 9.798-1.002z" style="stroke:#1a83af;stroke-width:2"/><path fill="none" d="M1532.06 131.36c164.47 8.88 588.77 35.12 723.94 75.64 74.17 22.24 152.4 69.23 194.89 97.05" style="stroke:#1a83af;stroke-width:2"/><path fill="#1A83AF" d="m2455.14 306.84-5.335-8.278 1.153 5.537-5.538 1.154 9.72 1.587z" style="stroke:#1a83af;stroke-width:2"/><path fill="none" d="M1436.54 147.27c-18.62 14.05-41.09 34.93-51.54 59.73-12.96 30.75-9.17 70.07-4.61 94.9" style="stroke:#1a83af;stroke-width:2"/><path fill="#1A83AF" d="m1381.37 306.97 2.227-9.594-3.172 4.684-4.683-3.172 5.628 8.082z" style="stroke:#1a83af;stroke-width:2"/><path fill="none" d="M1491.65 147.17c17.86 14.6 40.97 36.16 55.35 59.83 18.1 29.8 27.69 69.36 32.3 94.51" style="stroke:#1a83af;stroke-width:2"/><path fill="#1A83AF" d="m1580.21 306.65 2.367-9.56-3.24 4.637-4.637-3.24 5.51 8.163z" style="stroke:#1a83af;stroke-width:2"/><path fill="none" d="M1399.91 135.35C1304.2 147.03 1132.87 172.11 1082 207c-61 41.84-39.53 85.92-90 140-20.7 22.18-48.28 42.52-70.12 57" style="stroke:#1a83af;stroke-width:2"/><path fill="#1A83AF" d="m917.59 406.82 9.716-1.61-5.54-1.14 1.14-5.541-5.316 8.291z" style="stroke:#1a83af;stroke-width:2"/><path fill="none" d="M1532.15 136.87C1634.51 150.77 1837.41 179 2009 207c4.21.69 8.5 1.4 12.84 2.14" style="stroke:#1a83af;stroke-width:2"/><path fill="#1A83AF" d="m2026.95 210.01-8.197-5.46 3.269 4.617-4.617 3.269 9.545-2.426z" style="stroke:#1a83af;stroke-width:2"/><path fill="none" d="M1399.86 128.14c-69.25 3.58-177.41 19.3-246.86 78.86-93.06 79.8-123.51 234.78-132.06 294.61" style="stroke:#1a83af;stroke-width:2"/><path fill="#1A83AF" d="m1020.22 506.77 5.199-8.365-4.512 3.412-3.412-4.511 2.725 9.464z" style="stroke:#1a83af;stroke-width:2"/><path fill="none" d="M1532.14 141.47c75.34 15.44 202.1 41.69 310.86 65.53 4.05.89 8.2 1.81 12.4 2.74" style="stroke:#1a83af;stroke-width:2"/><path fill="#1A83AF" d="m1860.33 210.85-7.914-5.862 3.034 4.774-4.775 3.034 9.655-1.946z" style="stroke:#1a83af;stroke-width:2"/><path fill="none" d="M1389.86 347.02c12.16 54.96 54.82 215.51 153.14 299.98 33.34 28.65 77.11 46.92 118.69 58.57" style="stroke:#1a83af;stroke-width:2"/><path fill="#1A83AF" d="m1666.74 706.96-7.616-6.244 2.795 4.918-4.918 2.795 9.739-1.469z" style="stroke:#1a83af;stroke-width:2"/><path fill="none" d="M1825.11 243.42c6.02 1.32 12.06 2.54 17.89 3.58 239.93 42.62 304.18 22.74 545 60 4.18.65 8.46 1.35 12.77 2.09" style="stroke:#1a83af;stroke-width:2"/><path fill="#1A83AF" d="m2405.85 309.98-8.163-5.51 3.24 4.637-4.637 3.24 9.56-2.367z" style="stroke:#1a83af;stroke-width:2"/><path fill="none" d="M1825.24 242.19c33.8 11.46 73.39 31.36 93.76 64.81 9.25 15.18 5.71 23.17 0 40-37.68 111.05-139.31 212.54-187.7 256.29" style="stroke:#1a83af;stroke-width:2"/><path fill="#1A83AF" d="m1727.35 606.84 9.371-3.03-5.648-.308.308-5.648-4.031 8.986z" style="stroke:#1a83af;stroke-width:2"/><path fill="none" d="M1769.56 247.36c2.86 15.57 6.89 37.54 9.97 54.3" style="stroke:#1a83af;stroke-width:2"/><path fill="#1A83AF" d="m1780.45 306.68 2.286-9.58-3.2 4.664-4.665-3.2 5.579 8.116z" style="stroke:#1a83af;stroke-width:2"/><path fill="none" d="M1706.62 243.31c-65.02 16.77-169.62 43.75-241.55 62.3" style="stroke:#1a83af;stroke-width:2"/><path fill="#1A83AF" d="m1459.94 306.93 9.712 1.637-4.869-2.88 2.88-4.869-7.723 6.112z" style="stroke:#1a83af;stroke-width:2"/><path fill="none" d="M1811.7 247.12c46.45 22.2 107.6 60.77 77.3 99.88-29.67 38.31-164.06 61.36-244.54 71.97" style="stroke:#1a83af;stroke-width:2"/><path fill="#1A83AF" d="m1639.24 419.65 9.44 2.81-4.482-3.453 3.453-4.481-8.411 5.124z" style="stroke:#1a83af;stroke-width:2"/><path fill="none" d="M1822.47 247.15c46.16 16.63 106.61 40.93 124.53 59.85 82.46 87.08 108.96 236.48 116.41 294.74" style="stroke:#1a83af;stroke-width:2"/><path fill="#1A83AF" d="m2064.03 606.76 2.836-9.432-3.465 4.472-4.471-3.465 5.1 8.425z" style="stroke:#1a83af;stroke-width:2"/><path fill="none" d="M1730.28 247.13c-30.73 16.46-75.04 40.19-107.03 57.31" style="stroke:#1a83af;stroke-width:2"/><path fill="#1A83AF" d="m1618.63 306.92 9.822-.724-5.415-1.637 1.637-5.415-6.044 7.776z" style="stroke:#1a83af;stroke-width:2"/><path fill="none" d="M2139.57 247.13c21.73 16.25 52.94 39.6 75.77 56.68" style="stroke:#1a83af;stroke-width:2"/><path fill="#1A83AF" d="m2219.5 306.92-4.815-8.592.81 5.599-5.599.81 9.604 2.183z" style="stroke:#1a83af;stroke-width:2"/></svg>