<?xml version="1.0" encoding="UTF-8" standalone="no"?><svg xmlns="http://www.w3.org/2000/svg" xmlns:xlink="http://www.w3.org/1999/xlink" contentScriptType="application/ecmascript" contentStyleType="text/css" height="695px" preserveAspectRatio="none" style="width:449px;height:695px;background:#00000000;" version="1.1" viewBox="0 0 449 695" width="449px" zoomAndPan="magnify"><defs/><g><!--MD5=[7f0ecf5f554433d3f2e1213379ac821c]
class resource--><a href="#resource" target="_top" title="#resource" xlink:actuate="onRequest" xlink:href="#resource" xlink:show="new" xlink:title="#resource" xlink:type="simple"><rect codeLine="23" fill="#3D176E" height="275.8359" id="resource" rx="2.5" ry="2.5" style="stroke:#000D19;stroke-width:1.5;" width="195" x="138" y="7"/><ellipse cx="190.75" cy="26.8945" fill="#E98DF7" rx="11" ry="11" style="stroke:#000D19;stroke-width:1.0;"/><path d="M193.7188,32.5352 Q193.1406,32.832 192.5,32.9727 Q191.8594,33.1289 191.1563,33.1289 Q188.6563,33.1289 187.3281,31.4883 Q186.0156,29.832 186.0156,26.707 Q186.0156,23.582 187.3281,21.9258 Q188.6563,20.2695 191.1563,20.2695 Q191.8594,20.2695 192.5,20.4258 Q193.1563,20.582 193.7188,20.8789 L193.7188,23.5977 Q193.0938,23.0195 192.5,22.7539 Q191.9063,22.4727 191.2813,22.4727 Q189.9375,22.4727 189.25,23.5508 Q188.5625,24.6133 188.5625,26.707 Q188.5625,28.8008 189.25,29.8789 Q189.9375,30.9414 191.2813,30.9414 Q191.9063,30.9414 192.5,30.6758 Q193.0938,30.3945 193.7188,29.8164 L193.7188,32.5352 Z " fill="#000000"/><text fill="#D9B8FF" font-family="Helvetica" font-size="17" lengthAdjust="spacing" textLength="71" x="216.25" y="32.7798">resource</text><line style="stroke:#000D19;stroke-width:1.5;" x1="139" x2="332" y1="46.7891" y2="46.7891"/><text fill="#D9B8FF" font-family="sans-serif" font-size="11" font-weight="bold" lengthAdjust="spacing" textLength="12" x="149" y="65.9995">id</text><text fill="#D9B8FF" font-family="sans-serif" font-size="11" lengthAdjust="spacing" textLength="41" x="161" y="65.9995">: string</text><text fill="#D9B8FF" font-family="sans-serif" font-size="11" font-weight="bold" lengthAdjust="spacing" textLength="28" x="149" y="88.8042">tags</text><text fill="#D9B8FF" font-family="sans-serif" font-size="11" lengthAdjust="spacing" textLength="145" x="177" y="88.8042">: dictionary[string, string]</text><text fill="#D9B8FF" font-family="sans-serif" font-size="11" font-weight="bold" lengthAdjust="spacing" textLength="35" x="149" y="111.6089">name</text><text fill="#D9B8FF" font-family="sans-serif" font-size="11" lengthAdjust="spacing" textLength="41" x="184" y="111.6089">: string</text><text fill="#D9B8FF" font-family="sans-serif" font-size="11" font-weight="bold" lengthAdjust="spacing" textLength="35" x="149" y="134.4136">ctime</text><text fill="#D9B8FF" font-family="sans-serif" font-size="11" lengthAdjust="spacing" textLength="58" x="184" y="134.4136">: datetime</text><text fill="#D9B8FF" font-family="sans-serif" font-size="11" font-weight="bold" lengthAdjust="spacing" textLength="24" x="149" y="157.2183">age</text><text fill="#D9B8FF" font-family="sans-serif" font-size="11" lengthAdjust="spacing" textLength="55" x="173" y="157.2183">: duration</text><text fill="#D9B8FF" font-family="sans-serif" font-size="11" font-weight="bold" lengthAdjust="spacing" textLength="39" x="149" y="180.0229">mtime</text><text fill="#D9B8FF" font-family="sans-serif" font-size="11" lengthAdjust="spacing" textLength="58" x="188" y="180.0229">: datetime</text><text fill="#D9B8FF" font-family="sans-serif" font-size="11" font-weight="bold" lengthAdjust="spacing" textLength="75" x="149" y="202.8276">last_update</text><text fill="#D9B8FF" font-family="sans-serif" font-size="11" lengthAdjust="spacing" textLength="55" x="224" y="202.8276">: duration</text><text fill="#D9B8FF" font-family="sans-serif" font-size="11" font-weight="bold" lengthAdjust="spacing" textLength="36" x="149" y="225.6323">atime</text><text fill="#D9B8FF" font-family="sans-serif" font-size="11" lengthAdjust="spacing" textLength="58" x="185" y="225.6323">: datetime</text><text fill="#D9B8FF" font-family="sans-serif" font-size="11" font-weight="bold" lengthAdjust="spacing" textLength="74" x="149" y="248.437">last_access</text><text fill="#D9B8FF" font-family="sans-serif" font-size="11" lengthAdjust="spacing" textLength="55" x="223" y="248.437">: duration</text><text fill="#D9B8FF" font-family="sans-serif" font-size="11" font-weight="bold" lengthAdjust="spacing" textLength="27" x="149" y="271.2417">kind</text><text fill="#D9B8FF" font-family="sans-serif" font-size="11" lengthAdjust="spacing" textLength="41" x="176" y="271.2417">: string</text></a><!--MD5=[71c423ddba3f172acbd6b308d2554b2c]
class digitalocean_resource--><a href="#digitalocean_resource" target="_top" title="#digitalocean_resource" xlink:actuate="onRequest" xlink:href="#digitalocean_resource" xlink:show="new" xlink:title="#digitalocean_resource" xlink:type="simple"><rect codeLine="35" fill="#3D176E" height="70.5938" id="digitalocean_resource" rx="2.5" ry="2.5" style="stroke:#000D19;stroke-width:1.5;" width="223" x="7" y="415"/><ellipse cx="22" cy="434.8945" fill="#E98DF7" rx="11" ry="11" style="stroke:#000D19;stroke-width:1.0;"/><path d="M24.9688,440.5352 Q24.3906,440.832 23.75,440.9727 Q23.1094,441.1289 22.4063,441.1289 Q19.9063,441.1289 18.5781,439.4883 Q17.2656,437.832 17.2656,434.707 Q17.2656,431.582 18.5781,429.9258 Q19.9063,428.2695 22.4063,428.2695 Q23.1094,428.2695 23.75,428.4258 Q24.4063,428.582 24.9688,428.8789 L24.9688,431.5977 Q24.3438,431.0195 23.75,430.7539 Q23.1563,430.4727 22.5313,430.4727 Q21.1875,430.4727 20.5,431.5508 Q19.8125,432.6133 19.8125,434.707 Q19.8125,436.8008 20.5,437.8789 Q21.1875,438.9414 22.5313,438.9414 Q23.1563,438.9414 23.75,438.6758 Q24.3438,438.3945 24.9688,437.8164 L24.9688,440.5352 Z " fill="#000000"/><text fill="#D9B8FF" font-family="Helvetica" font-size="17" lengthAdjust="spacing" textLength="181" x="41" y="440.7798">digitalocean_resource</text><line style="stroke:#000D19;stroke-width:1.5;" x1="8" x2="229" y1="454.7891" y2="454.7891"/><text fill="#D9B8FF" font-family="sans-serif" font-size="11" font-weight="bold" lengthAdjust="spacing" textLength="21" x="18" y="473.9995">urn</text><text fill="#D9B8FF" font-family="sans-serif" font-size="11" lengthAdjust="spacing" textLength="41" x="39" y="473.9995">: string</text></a><!--MD5=[2265ad14ddaf1ebc60f399a554a43384]
class digitalocean_floating_ip--><a href="#digitalocean_floating_ip" target="_top" title="#digitalocean_floating_ip" xlink:actuate="onRequest" xlink:href="#digitalocean_floating_ip" xlink:show="new" xlink:title="#digitalocean_floating_ip" xlink:type="simple"><rect codeLine="38" fill="#3D176E" height="70.5938" id="digitalocean_floating_ip" rx="2.5" ry="2.5" style="stroke:#000D19;stroke-width:1.5;" width="240" x="115.5" y="618"/><ellipse cx="130.5" cy="637.8945" fill="#E98DF7" rx="11" ry="11" style="stroke:#000D19;stroke-width:1.0;"/><path d="M133.4688,643.5352 Q132.8906,643.832 132.25,643.9727 Q131.6094,644.1289 130.9063,644.1289 Q128.4063,644.1289 127.0781,642.4883 Q125.7656,640.832 125.7656,637.707 Q125.7656,634.582 127.0781,632.9258 Q128.4063,631.2695 130.9063,631.2695 Q131.6094,631.2695 132.25,631.4258 Q132.9063,631.582 133.4688,631.8789 L133.4688,634.5977 Q132.8438,634.0195 132.25,633.7539 Q131.6563,633.4727 131.0313,633.4727 Q129.6875,633.4727 129,634.5508 Q128.3125,635.6133 128.3125,637.707 Q128.3125,639.8008 129,640.8789 Q129.6875,641.9414 131.0313,641.9414 Q131.6563,641.9414 132.25,641.6758 Q132.8438,641.3945 133.4688,640.8164 L133.4688,643.5352 Z " fill="#000000"/><text fill="#D9B8FF" font-family="Helvetica" font-size="17" lengthAdjust="spacing" textLength="198" x="149.5" y="643.7798">digitalocean_floating_ip</text><line style="stroke:#000D19;stroke-width:1.5;" x1="116.5" x2="354.5" y1="657.7891" y2="657.7891"/><text fill="#D9B8FF" font-family="sans-serif" font-size="11" font-weight="bold" lengthAdjust="spacing" textLength="59" x="126.5" y="676.9995">is_locked</text><text fill="#D9B8FF" font-family="sans-serif" font-size="11" lengthAdjust="spacing" textLength="53" x="185.5" y="676.9995">: boolean</text></a><!--MD5=[c746a11190c8d61fa49c12ea476eeb5b]
class ip_address--><a href="#ip_address" target="_top" title="#ip_address" xlink:actuate="onRequest" xlink:href="#ip_address" xlink:show="new" xlink:title="#ip_address" xlink:type="simple"><rect codeLine="41" fill="#3D176E" height="93.3984" id="ip_address" rx="2.5" ry="2.5" style="stroke:#000D19;stroke-width:1.5;" width="177" x="265" y="404"/><ellipse cx="301.6" cy="423.8945" fill="#E98DF7" rx="11" ry="11" style="stroke:#000D19;stroke-width:1.0;"/><path d="M304.5688,429.5352 Q303.9906,429.832 303.35,429.9727 Q302.7094,430.1289 302.0063,430.1289 Q299.5063,430.1289 298.1781,428.4883 Q296.8656,426.832 296.8656,423.707 Q296.8656,420.582 298.1781,418.9258 Q299.5063,417.2695 302.0063,417.2695 Q302.7094,417.2695 303.35,417.4258 Q304.0063,417.582 304.5688,417.8789 L304.5688,420.5977 Q303.9438,420.0195 303.35,419.7539 Q302.7563,419.4727 302.1313,419.4727 Q300.7875,419.4727 300.1,420.5508 Q299.4125,421.6133 299.4125,423.707 Q299.4125,425.8008 300.1,426.8789 Q300.7875,427.9414 302.1313,427.9414 Q302.7563,427.9414 303.35,427.6758 Q303.9438,427.3945 304.5688,426.8164 L304.5688,429.5352 Z " fill="#000000"/><text fill="#D9B8FF" font-family="Helvetica" font-size="17" lengthAdjust="spacing" textLength="87" x="325.4" y="429.7798">ip_address</text><line style="stroke:#000D19;stroke-width:1.5;" x1="266" x2="441" y1="443.7891" y2="443.7891"/><text fill="#D9B8FF" font-family="sans-serif" font-size="11" font-weight="bold" lengthAdjust="spacing" textLength="69" x="276" y="462.9995">ip_address</text><text fill="#D9B8FF" font-family="sans-serif" font-size="11" lengthAdjust="spacing" textLength="41" x="345" y="462.9995">: string</text><text fill="#D9B8FF" font-family="sans-serif" font-size="11" font-weight="bold" lengthAdjust="spacing" textLength="114" x="276" y="485.8042">ip_address_family</text><text fill="#D9B8FF" font-family="sans-serif" font-size="11" lengthAdjust="spacing" textLength="41" x="390" y="485.8042">: string</text></a><!--MD5=[d8f27025b7aaf31a1339b6b4ca2d4d8d]
reverse link resource to digitalocean_resource--><path codeLine="45" d="M175.37,301.99 C158.95,344.57 142.71,386.71 131.81,414.97 " fill="none" id="resource-backto-digitalocean_resource" style="stroke:#FFAF37;stroke-width:2.0;"/><polygon fill="none" points="168.92,299.24,182.65,283.1,181.99,304.28,168.92,299.24" style="stroke:#FFAF37;stroke-width:2.0;"/><!--MD5=[3865a108c0ed1f0f5047da6c777e419b]
reverse link digitalocean_resource to digitalocean_floating_ip--><path codeLine="46" d="M148.89,503.71 C169.79,539.61 196.97,586.3 215.26,617.73 " fill="none" id="digitalocean_resource-backto-digitalocean_floating_ip" style="stroke:#FFAF37;stroke-width:2.0;"/><polygon fill="none" points="142.62,506.86,138.61,486.05,154.72,499.82,142.62,506.86" style="stroke:#FFAF37;stroke-width:2.0;"/><!--MD5=[834ad881a2233f261baa4c6f2771a49f]
reverse link ip_address to digitalocean_floating_ip--><path codeLine="47" d="M316.4,514.7 C296.42,548.73 272.54,589.41 255.92,617.71 " fill="none" id="ip_address-backto-digitalocean_floating_ip" style="stroke:#FFAF37;stroke-width:2.0;"/><polygon fill="none" points="310.56,510.81,326.72,497.11,322.64,517.9,310.56,510.81" style="stroke:#FFAF37;stroke-width:2.0;"/><!--MD5=[44bbf348323bb8c5a9684ebee16cc426]
reverse link resource to ip_address--><path codeLine="48" d="M296.14,301.96 C310.61,339.19 324.96,376.08 335.68,403.66 " fill="none" id="resource-backto-ip_address" style="stroke:#FFAF37;stroke-width:2.0;"/><polygon fill="none" points="289.53,304.28,288.8,283.1,302.58,299.2,289.53,304.28" style="stroke:#FFAF37;stroke-width:2.0;"/><!--MD5=[c3e62df463a55ce65b322915f085984f]
@startuml
hide empty members
skinparam ArrowColor #ffaf37
skinparam ArrowFontColor #ffaf37
skinparam ArrowFontName Helvetica
skinparam ArrowThickness 2
skinparam BackgroundColor transparent
skinparam ClassAttributeFontColor #d9b8ff
skinparam ClassBackgroundColor #3d176e
skinparam ClassBorderColor #000d19
skinparam ClassFontColor #d9b8ff
skinparam ClassFontName Helvetica
skinparam ClassFontSize 17
skinparam NoteBackgroundColor #d9b8ff
skinparam NoteBorderColor #000d19
skinparam NoteFontColor #3d176e
skinparam NoteFontName Helvetica
skinparam Padding 5
skinparam RoundCorner 5
skinparam Shadowing false
skinparam stereotypeCBackgroundColor #e98df7
skinparam stereotypeIBackgroundColor #e98df7

class resource [[#resource]] {
**id**: string
**tags**: dictionary[string, string]
**name**: string
**ctime**: datetime
**age**: duration
**mtime**: datetime
**last_update**: duration
**atime**: datetime
**last_access**: duration
**kind**: string
}
class digitalocean_resource [[#digitalocean_resource]] {
**urn**: string
}
class digitalocean_floating_ip [[#digitalocean_floating_ip]] {
**is_locked**: boolean
}
class ip_address [[#ip_address]] {
**ip_address**: string
**ip_address_family**: string
}
resource <|- - - digitalocean_resource
digitalocean_resource <|- - - digitalocean_floating_ip
ip_address <|- - - digitalocean_floating_ip
resource <|- - - ip_address
@enduml

PlantUML version 1.2021.16(Wed Dec 08 17:25:22 UTC 2021)
(GPL source distribution)
Java Runtime: OpenJDK Runtime Environment
JVM: OpenJDK 64-Bit Server VM
Default Encoding: UTF-8
Language: en
Country: null
--></g></svg>