<svg xmlns="http://www.w3.org/2000/svg" xmlns:xlink="http://www.w3.org/1999/xlink" width="449" height="695" contentScriptType="application/ecmascript" contentStyleType="text/css" style="width:449px;height:695px;background:#00000000" preserveAspectRatio="none" version="1.1" viewBox="0 0 449 695" zoomAndPan="magnify"><g><rect id="resource" width="256" height="275.836" x="84.5" y="7" fill="#3D176E" codeLine="17" rx="2.5" ry="2.5" style="stroke:#000d19;stroke-width:1.5"/><ellipse cx="167.75" cy="26.895" fill="#E98DF7" rx="11" ry="11" style="stroke:#000d19;stroke-width:1"/><path fill="#000" d="M170.7188,32.5352 Q170.1406,32.832 169.5,32.9727 Q168.8594,33.1289 168.1563,33.1289 Q165.6563,33.1289 164.3281,31.4883 Q163.0156,29.832 163.0156,26.707 Q163.0156,23.582 164.3281,21.9258 Q165.6563,20.2695 168.1563,20.2695 Q168.8594,20.2695 169.5,20.4258 Q170.1563,20.582 170.7188,20.8789 L170.7188,23.5977 Q170.0938,23.0195 169.5,22.7539 Q168.9063,22.4727 168.2813,22.4727 Q166.9375,22.4727 166.25,23.5508 Q165.5625,24.6133 165.5625,26.707 Q165.5625,28.8008 166.25,29.8789 Q166.9375,30.9414 168.2813,30.9414 Q168.9063,30.9414 169.5,30.6758 Q170.0938,30.3945 170.7188,29.8164 L170.7188,32.5352 Z"/><text x="193.25" y="32.78" fill="#D9B8FF" font-family="Helvetica" font-size="17" lengthAdjust="spacing" textLength="71">resource</text><line style="stroke:#000d19;stroke-width:1.5" x1="85.5" x2="339.5" y1="46.789" y2="46.789"/><text x="95.5" y="65.999" fill="#D9B8FF" font-family="sans-serif" font-size="11" font-weight="bold" lengthAdjust="spacing" textLength="12">id</text><text x="107.5" y="65.999" fill="#D9B8FF" font-family="sans-serif" font-size="11" lengthAdjust="spacing" textLength="41">: string</text><text x="95.5" y="88.804" fill="#D9B8FF" font-family="sans-serif" font-size="11" font-weight="bold" lengthAdjust="spacing" textLength="28">tags</text><text x="123.5" y="88.804" fill="#D9B8FF" font-family="sans-serif" font-size="11" lengthAdjust="spacing" textLength="145">: dictionary[string, string]</text><text x="95.5" y="111.609" fill="#D9B8FF" font-family="sans-serif" font-size="11" font-weight="bold" lengthAdjust="spacing" textLength="35">name</text><text x="130.5" y="111.609" fill="#D9B8FF" font-family="sans-serif" font-size="11" lengthAdjust="spacing" textLength="41">: string</text><text x="95.5" y="134.414" fill="#D9B8FF" font-family="sans-serif" font-size="11" font-weight="bold" lengthAdjust="spacing" textLength="35">ctime</text><text x="130.5" y="134.414" fill="#D9B8FF" font-family="sans-serif" font-size="11" lengthAdjust="spacing" textLength="58">: datetime</text><text x="95.5" y="157.218" fill="#D9B8FF" font-family="sans-serif" font-size="11" font-weight="bold" lengthAdjust="spacing" textLength="24">age</text><text x="119.5" y="157.218" fill="#D9B8FF" font-family="sans-serif" font-size="11" lengthAdjust="spacing" textLength="159">: trafo.duration_to_datetime</text><text x="95.5" y="180.023" fill="#D9B8FF" font-family="sans-serif" font-size="11" font-weight="bold" lengthAdjust="spacing" textLength="39">mtime</text><text x="134.5" y="180.023" fill="#D9B8FF" font-family="sans-serif" font-size="11" lengthAdjust="spacing" textLength="58">: datetime</text><text x="95.5" y="202.828" fill="#D9B8FF" font-family="sans-serif" font-size="11" font-weight="bold" lengthAdjust="spacing" textLength="75">last_update</text><text x="170.5" y="202.828" fill="#D9B8FF" font-family="sans-serif" font-size="11" lengthAdjust="spacing" textLength="159">: trafo.duration_to_datetime</text><text x="95.5" y="225.632" fill="#D9B8FF" font-family="sans-serif" font-size="11" font-weight="bold" lengthAdjust="spacing" textLength="36">atime</text><text x="131.5" y="225.632" fill="#D9B8FF" font-family="sans-serif" font-size="11" lengthAdjust="spacing" textLength="58">: datetime</text><text x="95.5" y="248.437" fill="#D9B8FF" font-family="sans-serif" font-size="11" font-weight="bold" lengthAdjust="spacing" textLength="74">last_access</text><text x="169.5" y="248.437" fill="#D9B8FF" font-family="sans-serif" font-size="11" lengthAdjust="spacing" textLength="159">: trafo.duration_to_datetime</text><text x="95.5" y="271.242" fill="#D9B8FF" font-family="sans-serif" font-size="11" font-weight="bold" lengthAdjust="spacing" textLength="27">kind</text><text x="122.5" y="271.242" fill="#D9B8FF" font-family="sans-serif" font-size="11" lengthAdjust="spacing" textLength="41">: string</text><rect id="ip_address" width="177" height="93.398" x="7" y="404" fill="#3D176E" codeLine="29" rx="2.5" ry="2.5" style="stroke:#000d19;stroke-width:1.5"/><ellipse cx="43.6" cy="423.894" fill="#E98DF7" rx="11" ry="11" style="stroke:#000d19;stroke-width:1"/><path fill="#000" d="M46.5688,429.5352 Q45.9906,429.832 45.35,429.9727 Q44.7094,430.1289 44.0063,430.1289 Q41.5063,430.1289 40.1781,428.4883 Q38.8656,426.832 38.8656,423.707 Q38.8656,420.582 40.1781,418.9258 Q41.5063,417.2695 44.0063,417.2695 Q44.7094,417.2695 45.35,417.4258 Q46.0063,417.582 46.5688,417.8789 L46.5688,420.5977 Q45.9438,420.0195 45.35,419.7539 Q44.7563,419.4727 44.1313,419.4727 Q42.7875,419.4727 42.1,420.5508 Q41.4125,421.6133 41.4125,423.707 Q41.4125,425.8008 42.1,426.8789 Q42.7875,427.9414 44.1313,427.9414 Q44.7563,427.9414 45.35,427.6758 Q45.9438,427.3945 46.5688,426.8164 L46.5688,429.5352 Z"/><text x="67.4" y="429.78" fill="#D9B8FF" font-family="Helvetica" font-size="17" lengthAdjust="spacing" textLength="87">ip_address</text><line style="stroke:#000d19;stroke-width:1.5" x1="8" x2="183" y1="443.789" y2="443.789"/><text x="18" y="463" fill="#D9B8FF" font-family="sans-serif" font-size="11" font-weight="bold" lengthAdjust="spacing" textLength="69">ip_address</text><text x="87" y="463" fill="#D9B8FF" font-family="sans-serif" font-size="11" lengthAdjust="spacing" textLength="41">: string</text><text x="18" y="485.804" fill="#D9B8FF" font-family="sans-serif" font-size="11" font-weight="bold" lengthAdjust="spacing" textLength="114">ip_address_family</text><text x="132" y="485.804" fill="#D9B8FF" font-family="sans-serif" font-size="11" lengthAdjust="spacing" textLength="41">: string</text><rect id="digitalocean_resource" width="223" height="70.594" x="219" y="415" fill="#3D176E" codeLine="33" rx="2.5" ry="2.5" style="stroke:#000d19;stroke-width:1.5"/><ellipse cx="234" cy="434.894" fill="#E98DF7" rx="11" ry="11" style="stroke:#000d19;stroke-width:1"/><path fill="#000" d="M236.9688,440.5352 Q236.3906,440.832 235.75,440.9727 Q235.1094,441.1289 234.4063,441.1289 Q231.9063,441.1289 230.5781,439.4883 Q229.2656,437.832 229.2656,434.707 Q229.2656,431.582 230.5781,429.9258 Q231.9063,428.2695 234.4063,428.2695 Q235.1094,428.2695 235.75,428.4258 Q236.4063,428.582 236.9688,428.8789 L236.9688,431.5977 Q236.3438,431.0195 235.75,430.7539 Q235.1563,430.4727 234.5313,430.4727 Q233.1875,430.4727 232.5,431.5508 Q231.8125,432.6133 231.8125,434.707 Q231.8125,436.8008 232.5,437.8789 Q233.1875,438.9414 234.5313,438.9414 Q235.1563,438.9414 235.75,438.6758 Q236.3438,438.3945 236.9688,437.8164 L236.9688,440.5352 Z"/><text x="253" y="440.78" fill="#D9B8FF" font-family="Helvetica" font-size="17" lengthAdjust="spacing" textLength="181">digitalocean_resource</text><line style="stroke:#000d19;stroke-width:1.5" x1="220" x2="441" y1="454.789" y2="454.789"/><text x="230" y="474" fill="#D9B8FF" font-family="sans-serif" font-size="11" font-weight="bold" lengthAdjust="spacing" textLength="21">urn</text><text x="251" y="474" fill="#D9B8FF" font-family="sans-serif" font-size="11" lengthAdjust="spacing" textLength="41">: string</text><rect id="digitalocean_floating_ip" width="240" height="70.594" x="92.5" y="618" fill="#3D176E" codeLine="36" rx="2.5" ry="2.5" style="stroke:#000d19;stroke-width:1.5"/><ellipse cx="107.5" cy="637.894" fill="#E98DF7" rx="11" ry="11" style="stroke:#000d19;stroke-width:1"/><path fill="#000" d="M110.4688,643.5352 Q109.8906,643.832 109.25,643.9727 Q108.6094,644.1289 107.9063,644.1289 Q105.4063,644.1289 104.0781,642.4883 Q102.7656,640.832 102.7656,637.707 Q102.7656,634.582 104.0781,632.9258 Q105.4063,631.2695 107.9063,631.2695 Q108.6094,631.2695 109.25,631.4258 Q109.9063,631.582 110.4688,631.8789 L110.4688,634.5977 Q109.8438,634.0195 109.25,633.7539 Q108.6563,633.4727 108.0313,633.4727 Q106.6875,633.4727 106,634.5508 Q105.3125,635.6133 105.3125,637.707 Q105.3125,639.8008 106,640.8789 Q106.6875,641.9414 108.0313,641.9414 Q108.6563,641.9414 109.25,641.6758 Q109.8438,641.3945 110.4688,640.8164 L110.4688,643.5352 Z"/><text x="126.5" y="643.78" fill="#D9B8FF" font-family="Helvetica" font-size="17" lengthAdjust="spacing" textLength="198">digitalocean_floating_ip</text><line style="stroke:#000d19;stroke-width:1.5" x1="93.5" x2="331.5" y1="657.789" y2="657.789"/><text x="103.5" y="677" fill="#D9B8FF" font-family="sans-serif" font-size="11" font-weight="bold" lengthAdjust="spacing" textLength="59">is_locked</text><text x="162.5" y="677" fill="#D9B8FF" font-family="sans-serif" font-size="11" lengthAdjust="spacing" textLength="53">: boolean</text><path id="resource-backto-ip_address" fill="none" d="M152.38,301.96 C138.03,339.19 123.8,376.08 113.17,403.66" codeLine="39" style="stroke:#ffaf37;stroke-width:2"/><polygon fill="none" points="145.92 299.24 159.65 283.1 158.99 304.28 145.92 299.24" style="stroke:#ffaf37;stroke-width:2"/><path id="resource-backto-digitalocean_resource" fill="none" d="M273.15,301.99 C289.7,344.57 306.09,386.71 317.08,414.97" codeLine="40" style="stroke:#ffaf37;stroke-width:2"/><polygon fill="none" points="266.53 304.28 265.8 283.1 279.58 299.2 266.53 304.28" style="stroke:#ffaf37;stroke-width:2"/><path id="digitalocean_resource-backto-digitalocean_floating_ip" fill="none" d="M299.85,503.71 C278.77,539.61 251.36,586.3 232.92,617.73" codeLine="41" style="stroke:#ffaf37;stroke-width:2"/><polygon fill="none" points="294.05 499.76 310.22 486.05 306.13 506.84 294.05 499.76" style="stroke:#ffaf37;stroke-width:2"/><path id="ip_address-backto-digitalocean_floating_ip" fill="none" d="M132.29,514.7 C152.1,548.73 175.78,589.41 192.25,617.71" codeLine="42" style="stroke:#ffaf37;stroke-width:2"/><polygon fill="none" points="126.06 517.92 122.05 497.11 138.16 510.87 126.06 517.92" style="stroke:#ffaf37;stroke-width:2"/></g></svg>