<?xml version="1.0" encoding="UTF-8" standalone="no"?><svg xmlns="http://www.w3.org/2000/svg" xmlns:xlink="http://www.w3.org/1999/xlink" contentScriptType="application/ecmascript" contentStyleType="text/css" height="878px" preserveAspectRatio="none" style="width:501px;height:878px;background:#00000000;" version="1.1" viewBox="0 0 501 878" width="501px" zoomAndPan="magnify"><defs/><g><!--MD5=[7f0ecf5f554433d3f2e1213379ac821c]
class resource--><a href="#resource" target="_top" title="#resource" xlink:actuate="onRequest" xlink:href="#resource" xlink:show="new" xlink:title="#resource" xlink:type="simple"><rect codeLine="23" fill="#3D176E" height="275.8359" id="resource" rx="2.5" ry="2.5" style="stroke:#000D19;stroke-width:1.5;" width="195" x="151" y="7"/><ellipse cx="203.75" cy="26.8945" fill="#E98DF7" rx="11" ry="11" style="stroke:#000D19;stroke-width:1.0;"/><path d="M206.7188,32.5352 Q206.1406,32.832 205.5,32.9727 Q204.8594,33.1289 204.1563,33.1289 Q201.6563,33.1289 200.3281,31.4883 Q199.0156,29.832 199.0156,26.707 Q199.0156,23.582 200.3281,21.9258 Q201.6563,20.2695 204.1563,20.2695 Q204.8594,20.2695 205.5,20.4258 Q206.1563,20.582 206.7188,20.8789 L206.7188,23.5977 Q206.0938,23.0195 205.5,22.7539 Q204.9063,22.4727 204.2813,22.4727 Q202.9375,22.4727 202.25,23.5508 Q201.5625,24.6133 201.5625,26.707 Q201.5625,28.8008 202.25,29.8789 Q202.9375,30.9414 204.2813,30.9414 Q204.9063,30.9414 205.5,30.6758 Q206.0938,30.3945 206.7188,29.8164 L206.7188,32.5352 Z " fill="#000000"/><text fill="#D9B8FF" font-family="Helvetica" font-size="17" lengthAdjust="spacing" textLength="71" x="229.25" y="32.7798">resource</text><line style="stroke:#000D19;stroke-width:1.5;" x1="152" x2="345" y1="46.7891" y2="46.7891"/><text fill="#D9B8FF" font-family="sans-serif" font-size="11" font-weight="bold" lengthAdjust="spacing" textLength="12" x="162" y="65.9995">id</text><text fill="#D9B8FF" font-family="sans-serif" font-size="11" lengthAdjust="spacing" textLength="41" x="174" y="65.9995">: string</text><text fill="#D9B8FF" font-family="sans-serif" font-size="11" font-weight="bold" lengthAdjust="spacing" textLength="28" x="162" y="88.8042">tags</text><text fill="#D9B8FF" font-family="sans-serif" font-size="11" lengthAdjust="spacing" textLength="145" x="190" y="88.8042">: dictionary[string, string]</text><text fill="#D9B8FF" font-family="sans-serif" font-size="11" font-weight="bold" lengthAdjust="spacing" textLength="35" x="162" y="111.6089">name</text><text fill="#D9B8FF" font-family="sans-serif" font-size="11" lengthAdjust="spacing" textLength="41" x="197" y="111.6089">: string</text><text fill="#D9B8FF" font-family="sans-serif" font-size="11" font-weight="bold" lengthAdjust="spacing" textLength="35" x="162" y="134.4136">ctime</text><text fill="#D9B8FF" font-family="sans-serif" font-size="11" lengthAdjust="spacing" textLength="58" x="197" y="134.4136">: datetime</text><text fill="#D9B8FF" font-family="sans-serif" font-size="11" font-weight="bold" lengthAdjust="spacing" textLength="24" x="162" y="157.2183">age</text><text fill="#D9B8FF" font-family="sans-serif" font-size="11" lengthAdjust="spacing" textLength="55" x="186" y="157.2183">: duration</text><text fill="#D9B8FF" font-family="sans-serif" font-size="11" font-weight="bold" lengthAdjust="spacing" textLength="39" x="162" y="180.0229">mtime</text><text fill="#D9B8FF" font-family="sans-serif" font-size="11" lengthAdjust="spacing" textLength="58" x="201" y="180.0229">: datetime</text><text fill="#D9B8FF" font-family="sans-serif" font-size="11" font-weight="bold" lengthAdjust="spacing" textLength="75" x="162" y="202.8276">last_update</text><text fill="#D9B8FF" font-family="sans-serif" font-size="11" lengthAdjust="spacing" textLength="55" x="237" y="202.8276">: duration</text><text fill="#D9B8FF" font-family="sans-serif" font-size="11" font-weight="bold" lengthAdjust="spacing" textLength="36" x="162" y="225.6323">atime</text><text fill="#D9B8FF" font-family="sans-serif" font-size="11" lengthAdjust="spacing" textLength="58" x="198" y="225.6323">: datetime</text><text fill="#D9B8FF" font-family="sans-serif" font-size="11" font-weight="bold" lengthAdjust="spacing" textLength="74" x="162" y="248.437">last_access</text><text fill="#D9B8FF" font-family="sans-serif" font-size="11" lengthAdjust="spacing" textLength="55" x="236" y="248.437">: duration</text><text fill="#D9B8FF" font-family="sans-serif" font-size="11" font-weight="bold" lengthAdjust="spacing" textLength="27" x="162" y="271.2417">kind</text><text fill="#D9B8FF" font-family="sans-serif" font-size="11" lengthAdjust="spacing" textLength="41" x="189" y="271.2417">: string</text></a><!--MD5=[71c423ddba3f172acbd6b308d2554b2c]
class digitalocean_resource--><a href="#digitalocean_resource" target="_top" title="#digitalocean_resource" xlink:actuate="onRequest" xlink:href="#digitalocean_resource" xlink:show="new" xlink:title="#digitalocean_resource" xlink:type="simple"><rect codeLine="35" fill="#3D176E" height="70.5938" id="digitalocean_resource" rx="2.5" ry="2.5" style="stroke:#000D19;stroke-width:1.5;" width="223" x="7" y="472"/><ellipse cx="22" cy="491.8945" fill="#E98DF7" rx="11" ry="11" style="stroke:#000D19;stroke-width:1.0;"/><path d="M24.9688,497.5352 Q24.3906,497.832 23.75,497.9727 Q23.1094,498.1289 22.4063,498.1289 Q19.9063,498.1289 18.5781,496.4883 Q17.2656,494.832 17.2656,491.707 Q17.2656,488.582 18.5781,486.9258 Q19.9063,485.2695 22.4063,485.2695 Q23.1094,485.2695 23.75,485.4258 Q24.4063,485.582 24.9688,485.8789 L24.9688,488.5977 Q24.3438,488.0195 23.75,487.7539 Q23.1563,487.4727 22.5313,487.4727 Q21.1875,487.4727 20.5,488.5508 Q19.8125,489.6133 19.8125,491.707 Q19.8125,493.8008 20.5,494.8789 Q21.1875,495.9414 22.5313,495.9414 Q23.1563,495.9414 23.75,495.6758 Q24.3438,495.3945 24.9688,494.8164 L24.9688,497.5352 Z " fill="#000000"/><text fill="#D9B8FF" font-family="Helvetica" font-size="17" lengthAdjust="spacing" textLength="181" x="41" y="497.7798">digitalocean_resource</text><line style="stroke:#000D19;stroke-width:1.5;" x1="8" x2="229" y1="511.7891" y2="511.7891"/><text fill="#D9B8FF" font-family="sans-serif" font-size="11" font-weight="bold" lengthAdjust="spacing" textLength="21" x="18" y="530.9995">urn</text><text fill="#D9B8FF" font-family="sans-serif" font-size="11" lengthAdjust="spacing" textLength="41" x="39" y="530.9995">: string</text></a><!--MD5=[3b09a27d5c2b379405c9ecb6cd9106d4]
class digitalocean_volume--><a href="#digitalocean_volume" target="_top" title="#digitalocean_volume" xlink:actuate="onRequest" xlink:href="#digitalocean_volume" xlink:show="new" xlink:title="#digitalocean_volume" xlink:type="simple"><rect codeLine="38" fill="#3D176E" height="139.0078" id="digitalocean_volume" rx="2.5" ry="2.5" style="stroke:#000D19;stroke-width:1.5;" width="215" x="141" y="732"/><ellipse cx="156" cy="751.8945" fill="#E98DF7" rx="11" ry="11" style="stroke:#000D19;stroke-width:1.0;"/><path d="M158.9688,757.5352 Q158.3906,757.832 157.75,757.9727 Q157.1094,758.1289 156.4063,758.1289 Q153.9063,758.1289 152.5781,756.4883 Q151.2656,754.832 151.2656,751.707 Q151.2656,748.582 152.5781,746.9258 Q153.9063,745.2695 156.4063,745.2695 Q157.1094,745.2695 157.75,745.4258 Q158.4063,745.582 158.9688,745.8789 L158.9688,748.5977 Q158.3438,748.0195 157.75,747.7539 Q157.1563,747.4727 156.5313,747.4727 Q155.1875,747.4727 154.5,748.5508 Q153.8125,749.6133 153.8125,751.707 Q153.8125,753.8008 154.5,754.8789 Q155.1875,755.9414 156.5313,755.9414 Q157.1563,755.9414 157.75,755.6758 Q158.3438,755.3945 158.9688,754.8164 L158.9688,757.5352 Z " fill="#000000"/><text fill="#D9B8FF" font-family="Helvetica" font-size="17" lengthAdjust="spacing" textLength="173" x="175" y="757.7798">digitalocean_volume</text><line style="stroke:#000D19;stroke-width:1.5;" x1="142" x2="355" y1="771.7891" y2="771.7891"/><text fill="#D9B8FF" font-family="sans-serif" font-size="11" font-weight="bold" lengthAdjust="spacing" textLength="72" x="152" y="790.9995">description</text><text fill="#D9B8FF" font-family="sans-serif" font-size="11" lengthAdjust="spacing" textLength="41" x="224" y="790.9995">: string</text><text fill="#D9B8FF" font-family="sans-serif" font-size="11" font-weight="bold" lengthAdjust="spacing" textLength="100" x="152" y="813.8042">filesystem_type</text><text fill="#D9B8FF" font-family="sans-serif" font-size="11" lengthAdjust="spacing" textLength="41" x="252" y="813.8042">: string</text><text fill="#D9B8FF" font-family="sans-serif" font-size="11" font-weight="bold" lengthAdjust="spacing" textLength="104" x="152" y="836.6089">filesystem_label</text><text fill="#D9B8FF" font-family="sans-serif" font-size="11" lengthAdjust="spacing" textLength="41" x="256" y="836.6089">: string</text><text fill="#D9B8FF" font-family="sans-serif" font-size="11" font-weight="bold" lengthAdjust="spacing" textLength="100" x="152" y="859.4136">ondemand_cost</text><text fill="#D9B8FF" font-family="sans-serif" font-size="11" lengthAdjust="spacing" textLength="46" x="252" y="859.4136">: double</text></a><!--MD5=[377914defea557e9612d777552f01035]
class volume--><a href="#volume" target="_top" title="#volume" xlink:actuate="onRequest" xlink:href="#volume" xlink:show="new" xlink:title="#volume" xlink:type="simple"><rect codeLine="44" fill="#3D176E" height="207.4219" id="volume" rx="2.5" ry="2.5" style="stroke:#000D19;stroke-width:1.5;" width="229" x="265" y="404"/><ellipse cx="338.75" cy="423.8945" fill="#E98DF7" rx="11" ry="11" style="stroke:#000D19;stroke-width:1.0;"/><path d="M341.7188,429.5352 Q341.1406,429.832 340.5,429.9727 Q339.8594,430.1289 339.1563,430.1289 Q336.6563,430.1289 335.3281,428.4883 Q334.0156,426.832 334.0156,423.707 Q334.0156,420.582 335.3281,418.9258 Q336.6563,417.2695 339.1563,417.2695 Q339.8594,417.2695 340.5,417.4258 Q341.1563,417.582 341.7188,417.8789 L341.7188,420.5977 Q341.0938,420.0195 340.5,419.7539 Q339.9063,419.4727 339.2813,419.4727 Q337.9375,419.4727 337.25,420.5508 Q336.5625,421.6133 336.5625,423.707 Q336.5625,425.8008 337.25,426.8789 Q337.9375,427.9414 339.2813,427.9414 Q339.9063,427.9414 340.5,427.6758 Q341.0938,427.3945 341.7188,426.8164 L341.7188,429.5352 Z " fill="#000000"/><text fill="#D9B8FF" font-family="Helvetica" font-size="17" lengthAdjust="spacing" textLength="63" x="364.25" y="429.7798">volume</text><line style="stroke:#000D19;stroke-width:1.5;" x1="266" x2="493" y1="443.7891" y2="443.7891"/><text fill="#D9B8FF" font-family="sans-serif" font-size="11" font-weight="bold" lengthAdjust="spacing" textLength="78" x="276" y="462.9995">volume_size</text><text fill="#D9B8FF" font-family="sans-serif" font-size="11" lengthAdjust="spacing" textLength="36" x="354" y="462.9995">: int64</text><text fill="#D9B8FF" font-family="sans-serif" font-size="11" font-weight="bold" lengthAdjust="spacing" textLength="80" x="276" y="485.8042">volume_type</text><text fill="#D9B8FF" font-family="sans-serif" font-size="11" lengthAdjust="spacing" textLength="41" x="356" y="485.8042">: string</text><text fill="#D9B8FF" font-family="sans-serif" font-size="11" font-weight="bold" lengthAdjust="spacing" textLength="92" x="276" y="508.6089">volume_status</text><text fill="#D9B8FF" font-family="sans-serif" font-size="11" lengthAdjust="spacing" textLength="91" x="368" y="508.6089">: volume_status</text><text fill="#D9B8FF" font-family="sans-serif" font-size="11" font-weight="bold" lengthAdjust="spacing" textLength="79" x="276" y="531.4136">volume_iops</text><text fill="#D9B8FF" font-family="sans-serif" font-size="11" lengthAdjust="spacing" textLength="36" x="355" y="531.4136">: int64</text><text fill="#D9B8FF" font-family="sans-serif" font-size="11" font-weight="bold" lengthAdjust="spacing" textLength="123" x="276" y="554.2183">volume_throughput</text><text fill="#D9B8FF" font-family="sans-serif" font-size="11" lengthAdjust="spacing" textLength="36" x="399" y="554.2183">: int64</text><text fill="#D9B8FF" font-family="sans-serif" font-size="11" font-weight="bold" lengthAdjust="spacing" textLength="116" x="276" y="577.0229">volume_encrypted</text><text fill="#D9B8FF" font-family="sans-serif" font-size="11" lengthAdjust="spacing" textLength="53" x="392" y="577.0229">: boolean</text><text fill="#D9B8FF" font-family="sans-serif" font-size="11" font-weight="bold" lengthAdjust="spacing" textLength="154" x="276" y="599.8276">snapshot_before_delete</text><text fill="#D9B8FF" font-family="sans-serif" font-size="11" lengthAdjust="spacing" textLength="53" x="430" y="599.8276">: boolean</text></a><!--MD5=[d8f27025b7aaf31a1339b6b4ca2d4d8d]
reverse link resource to digitalocean_resource--><path codeLine="53" d="M192.22,302.06 C169.45,365.21 145.22,432.41 130.99,471.86 " fill="none" id="resource-backto-digitalocean_resource" style="stroke:#FFAF37;stroke-width:2.0;"/><polygon fill="none" points="185.7,299.5,199.07,283.06,198.87,304.25,185.7,299.5" style="stroke:#FFAF37;stroke-width:2.0;"/><!--MD5=[a856bffcb1b24c72488e9a0aa9fdf15a]
reverse link digitalocean_resource to digitalocean_volume--><path codeLine="54" d="M142.08,561.47 C163.34,609.22 194.72,679.71 217.91,731.78 " fill="none" id="digitalocean_resource-backto-digitalocean_volume" style="stroke:#FFAF37;stroke-width:2.0;"/><polygon fill="none" points="135.66,564.26,133.92,543.14,148.45,558.57,135.66,564.26" style="stroke:#FFAF37;stroke-width:2.0;"/><!--MD5=[2814547def82af9be5b9536ef9e12100]
reverse link volume to digitalocean_volume--><path codeLine="55" d="M325.18,629.57 C309.56,664.39 293.07,701.15 279.4,731.63 " fill="none" id="volume-backto-digitalocean_volume" style="stroke:#FFAF37;stroke-width:2.0;"/><polygon fill="none" points="318.93,626.42,333.5,611.04,331.7,632.15,318.93,626.42" style="stroke:#FFAF37;stroke-width:2.0;"/><!--MD5=[14bde95197a4d9e34b3c6fec8235f531]
reverse link resource to volume--><path codeLine="56" d="M305.21,302.05 C317.73,336.52 330.7,372.2 342.22,403.9 " fill="none" id="resource-backto-volume" style="stroke:#FFAF37;stroke-width:2.0;"/><polygon fill="none" points="298.56,304.25,298.31,283.06,311.72,299.47,298.56,304.25" style="stroke:#FFAF37;stroke-width:2.0;"/><!--MD5=[349fa129234b6806c8e5afe6df78d551]
@startuml
hide empty members
skinparam ArrowColor #ffaf37
skinparam ArrowFontColor #ffaf37
skinparam ArrowFontName Helvetica
skinparam ArrowThickness 2
skinparam BackgroundColor transparent
skinparam ClassAttributeFontColor #d9b8ff
skinparam ClassBackgroundColor #3d176e
skinparam ClassBorderColor #000d19
skinparam ClassFontColor #d9b8ff
skinparam ClassFontName Helvetica
skinparam ClassFontSize 17
skinparam NoteBackgroundColor #d9b8ff
skinparam NoteBorderColor #000d19
skinparam NoteFontColor #3d176e
skinparam NoteFontName Helvetica
skinparam Padding 5
skinparam RoundCorner 5
skinparam Shadowing false
skinparam stereotypeCBackgroundColor #e98df7
skinparam stereotypeIBackgroundColor #e98df7

class resource [[#resource]] {
**id**: string
**tags**: dictionary[string, string]
**name**: string
**ctime**: datetime
**age**: duration
**mtime**: datetime
**last_update**: duration
**atime**: datetime
**last_access**: duration
**kind**: string
}
class digitalocean_resource [[#digitalocean_resource]] {
**urn**: string
}
class digitalocean_volume [[#digitalocean_volume]] {
**description**: string
**filesystem_type**: string
**filesystem_label**: string
**ondemand_cost**: double
}
class volume [[#volume]] {
**volume_size**: int64
**volume_type**: string
**volume_status**: volume_status
**volume_iops**: int64
**volume_throughput**: int64
**volume_encrypted**: boolean
**snapshot_before_delete**: boolean
}
resource <|- - - digitalocean_resource
digitalocean_resource <|- - - digitalocean_volume
volume <|- - - digitalocean_volume
resource <|- - - volume
@enduml

PlantUML version 1.2021.16(Wed Dec 08 17:25:22 UTC 2021)
(GPL source distribution)
Java Runtime: OpenJDK Runtime Environment
JVM: OpenJDK 64-Bit Server VM
Default Encoding: UTF-8
Language: en
Country: null
--></g></svg>