<?xml version="1.0" encoding="UTF-8" standalone="no"?><svg xmlns="http://www.w3.org/2000/svg" xmlns:xlink="http://www.w3.org/1999/xlink" contentScriptType="application/ecmascript" contentStyleType="text/css" height="452px" preserveAspectRatio="none" style="width:1170px;height:452px;background:#00000000;" version="1.1" viewBox="0 0 1170 452" width="1170px" zoomAndPan="magnify"><defs/><g><!--MD5=[9f976896e726bb06dda64d66586df82b]
class digitalocean_droplet--><a href="#digitalocean_droplet" target="_top" title="#digitalocean_droplet" xlink:actuate="onRequest" xlink:href="#digitalocean_droplet" xlink:show="new" xlink:title="#digitalocean_droplet" xlink:type="simple"><rect codeLine="17" fill="#3D176E" height="39.7891" id="digitalocean_droplet" rx="2.5" ry="2.5" style="stroke:#000D19;stroke-width:1.5;" width="211" x="293" y="407"/><ellipse cx="308" cy="426.8945" fill="#E98DF7" rx="11" ry="11" style="stroke:#000D19;stroke-width:1.0;"/><path d="M310.9688,432.5352 Q310.3906,432.832 309.75,432.9727 Q309.1094,433.1289 308.4063,433.1289 Q305.9063,433.1289 304.5781,431.4883 Q303.2656,429.832 303.2656,426.707 Q303.2656,423.582 304.5781,421.9258 Q305.9063,420.2695 308.4063,420.2695 Q309.1094,420.2695 309.75,420.4258 Q310.4063,420.582 310.9688,420.8789 L310.9688,423.5977 Q310.3438,423.0195 309.75,422.7539 Q309.1563,422.4727 308.5313,422.4727 Q307.1875,422.4727 306.5,423.5508 Q305.8125,424.6133 305.8125,426.707 Q305.8125,428.8008 306.5,429.8789 Q307.1875,430.9414 308.5313,430.9414 Q309.1563,430.9414 309.75,430.6758 Q310.3438,430.3945 310.9688,429.8164 L310.9688,432.5352 Z " fill="#000000"/><text fill="#D9B8FF" font-family="Helvetica" font-size="17" lengthAdjust="spacing" textLength="169" x="327" y="432.7798">digitalocean_droplet</text></a><!--MD5=[6d16b24c643eda89dd832355a56d9ee8]
class digitalocean_network--><a href="#digitalocean_network" target="_top" title="#digitalocean_network" xlink:actuate="onRequest" xlink:href="#digitalocean_network" xlink:show="new" xlink:title="#digitalocean_network" xlink:type="simple"><rect codeLine="20" fill="#3D176E" height="39.7891" id="digitalocean_network" rx="2.5" ry="2.5" style="stroke:#000D19;stroke-width:1.5;" width="222" x="216.5" y="207"/><ellipse cx="231.5" cy="226.8945" fill="#E98DF7" rx="11" ry="11" style="stroke:#000D19;stroke-width:1.0;"/><path d="M234.4688,232.5352 Q233.8906,232.832 233.25,232.9727 Q232.6094,233.1289 231.9063,233.1289 Q229.4063,233.1289 228.0781,231.4883 Q226.7656,229.832 226.7656,226.707 Q226.7656,223.582 228.0781,221.9258 Q229.4063,220.2695 231.9063,220.2695 Q232.6094,220.2695 233.25,220.4258 Q233.9063,220.582 234.4688,220.8789 L234.4688,223.5977 Q233.8438,223.0195 233.25,222.7539 Q232.6563,222.4727 232.0313,222.4727 Q230.6875,222.4727 230,223.5508 Q229.3125,224.6133 229.3125,226.707 Q229.3125,228.8008 230,229.8789 Q230.6875,230.9414 232.0313,230.9414 Q232.6563,230.9414 233.25,230.6758 Q233.8438,230.3945 234.4688,229.8164 L234.4688,232.5352 Z " fill="#000000"/><text fill="#D9B8FF" font-family="Helvetica" font-size="17" lengthAdjust="spacing" textLength="180" x="250.5" y="232.7798">digitalocean_network</text></a><!--MD5=[4df524631ca7ede0c092c36ce9c69fc7]
class digitalocean_load_balancer--><a href="#digitalocean_load_balancer" target="_top" title="#digitalocean_load_balancer" xlink:actuate="onRequest" xlink:href="#digitalocean_load_balancer" xlink:show="new" xlink:title="#digitalocean_load_balancer" xlink:type="simple"><rect codeLine="23" fill="#3D176E" height="39.7891" id="digitalocean_load_balancer" rx="2.5" ry="2.5" style="stroke:#000D19;stroke-width:1.5;" width="267" x="7" y="307"/><ellipse cx="22" cy="326.8945" fill="#E98DF7" rx="11" ry="11" style="stroke:#000D19;stroke-width:1.0;"/><path d="M24.9688,332.5352 Q24.3906,332.832 23.75,332.9727 Q23.1094,333.1289 22.4063,333.1289 Q19.9063,333.1289 18.5781,331.4883 Q17.2656,329.832 17.2656,326.707 Q17.2656,323.582 18.5781,321.9258 Q19.9063,320.2695 22.4063,320.2695 Q23.1094,320.2695 23.75,320.4258 Q24.4063,320.582 24.9688,320.8789 L24.9688,323.5977 Q24.3438,323.0195 23.75,322.7539 Q23.1563,322.4727 22.5313,322.4727 Q21.1875,322.4727 20.5,323.5508 Q19.8125,324.6133 19.8125,326.707 Q19.8125,328.8008 20.5,329.8789 Q21.1875,330.9414 22.5313,330.9414 Q23.1563,330.9414 23.75,330.6758 Q24.3438,330.3945 24.9688,329.8164 L24.9688,332.5352 Z " fill="#000000"/><text fill="#D9B8FF" font-family="Helvetica" font-size="17" lengthAdjust="spacing" textLength="225" x="41" y="332.7798">digitalocean_load_balancer</text></a><!--MD5=[4166141e0510fbeb8b95e802a32eb9f5]
class digitalocean_kubernetes_cluster--><a href="#digitalocean_kubernetes_cluster" target="_top" title="#digitalocean_kubernetes_cluster" xlink:actuate="onRequest" xlink:href="#digitalocean_kubernetes_cluster" xlink:show="new" xlink:title="#digitalocean_kubernetes_cluster" xlink:type="simple"><rect codeLine="26" fill="#3D176E" height="39.7891" id="digitalocean_kubernetes_cluster" rx="2.5" ry="2.5" style="stroke:#000D19;stroke-width:1.5;" width="311" x="452" y="307"/><ellipse cx="467" cy="326.8945" fill="#E98DF7" rx="11" ry="11" style="stroke:#000D19;stroke-width:1.0;"/><path d="M469.9688,332.5352 Q469.3906,332.832 468.75,332.9727 Q468.1094,333.1289 467.4063,333.1289 Q464.9063,333.1289 463.5781,331.4883 Q462.2656,329.832 462.2656,326.707 Q462.2656,323.582 463.5781,321.9258 Q464.9063,320.2695 467.4063,320.2695 Q468.1094,320.2695 468.75,320.4258 Q469.4063,320.582 469.9688,320.8789 L469.9688,323.5977 Q469.3438,323.0195 468.75,322.7539 Q468.1563,322.4727 467.5313,322.4727 Q466.1875,322.4727 465.5,323.5508 Q464.8125,324.6133 464.8125,326.707 Q464.8125,328.8008 465.5,329.8789 Q466.1875,330.9414 467.5313,330.9414 Q468.1563,330.9414 468.75,330.6758 Q469.3438,330.3945 469.9688,329.8164 L469.9688,332.5352 Z " fill="#000000"/><text fill="#D9B8FF" font-family="Helvetica" font-size="17" lengthAdjust="spacing" textLength="269" x="486" y="332.7798">digitalocean_kubernetes_cluster</text></a><!--MD5=[09b35cf7555064d1052e9e791142be60]
class digitalocean_database--><a href="#digitalocean_database" target="_top" title="#digitalocean_database" xlink:actuate="onRequest" xlink:href="#digitalocean_database" xlink:show="new" xlink:title="#digitalocean_database" xlink:type="simple"><rect codeLine="29" fill="#3D176E" height="39.7891" id="digitalocean_database" rx="2.5" ry="2.5" style="stroke:#000D19;stroke-width:1.5;" width="227" x="798" y="307"/><ellipse cx="813" cy="326.8945" fill="#E98DF7" rx="11" ry="11" style="stroke:#000D19;stroke-width:1.0;"/><path d="M815.9688,332.5352 Q815.3906,332.832 814.75,332.9727 Q814.1094,333.1289 813.4063,333.1289 Q810.9063,333.1289 809.5781,331.4883 Q808.2656,329.832 808.2656,326.707 Q808.2656,323.582 809.5781,321.9258 Q810.9063,320.2695 813.4063,320.2695 Q814.1094,320.2695 814.75,320.4258 Q815.4063,320.582 815.9688,320.8789 L815.9688,323.5977 Q815.3438,323.0195 814.75,322.7539 Q814.1563,322.4727 813.5313,322.4727 Q812.1875,322.4727 811.5,323.5508 Q810.8125,324.6133 810.8125,326.707 Q810.8125,328.8008 811.5,329.8789 Q812.1875,330.9414 813.5313,330.9414 Q814.1563,330.9414 814.75,330.6758 Q815.3438,330.3945 815.9688,329.8164 L815.9688,332.5352 Z " fill="#000000"/><text fill="#D9B8FF" font-family="Helvetica" font-size="17" lengthAdjust="spacing" textLength="185" x="832" y="332.7798">digitalocean_database</text></a><!--MD5=[c49d09fe9e8ef547b55e29c1e73e7f42]
class digitalocean_team--><a href="#digitalocean_team" target="_top" title="#digitalocean_team" xlink:actuate="onRequest" xlink:href="#digitalocean_team" xlink:show="new" xlink:title="#digitalocean_team" xlink:type="simple"><rect codeLine="32" fill="#3D176E" height="39.7891" id="digitalocean_team" rx="2.5" ry="2.5" style="stroke:#000D19;stroke-width:1.5;" width="196" x="527.5" y="7"/><ellipse cx="542.5" cy="26.8945" fill="#E98DF7" rx="11" ry="11" style="stroke:#000D19;stroke-width:1.0;"/><path d="M545.4688,32.5352 Q544.8906,32.832 544.25,32.9727 Q543.6094,33.1289 542.9063,33.1289 Q540.4063,33.1289 539.0781,31.4883 Q537.7656,29.832 537.7656,26.707 Q537.7656,23.582 539.0781,21.9258 Q540.4063,20.2695 542.9063,20.2695 Q543.6094,20.2695 544.25,20.4258 Q544.9063,20.582 545.4688,20.8789 L545.4688,23.5977 Q544.8438,23.0195 544.25,22.7539 Q543.6563,22.4727 543.0313,22.4727 Q541.6875,22.4727 541,23.5508 Q540.3125,24.6133 540.3125,26.707 Q540.3125,28.8008 541,29.8789 Q541.6875,30.9414 543.0313,30.9414 Q543.6563,30.9414 544.25,30.6758 Q544.8438,30.3945 545.4688,29.8164 L545.4688,32.5352 Z " fill="#000000"/><text fill="#D9B8FF" font-family="Helvetica" font-size="17" lengthAdjust="spacing" textLength="154" x="561.5" y="32.7798">digitalocean_team</text></a><!--MD5=[e57d6a85a60cb9d8733a2b39f4f9d4e9]
class digitalocean_region--><a href="#digitalocean_region" target="_top" title="#digitalocean_region" xlink:actuate="onRequest" xlink:href="#digitalocean_region" xlink:show="new" xlink:title="#digitalocean_region" xlink:type="simple"><rect codeLine="35" fill="#3D176E" height="39.7891" id="digitalocean_region" rx="2.5" ry="2.5" style="stroke:#000D19;stroke-width:1.5;" width="205" x="417" y="107"/><ellipse cx="432" cy="126.8945" fill="#E98DF7" rx="11" ry="11" style="stroke:#000D19;stroke-width:1.0;"/><path d="M434.9688,132.5352 Q434.3906,132.832 433.75,132.9727 Q433.1094,133.1289 432.4063,133.1289 Q429.9063,133.1289 428.5781,131.4883 Q427.2656,129.832 427.2656,126.707 Q427.2656,123.582 428.5781,121.9258 Q429.9063,120.2695 432.4063,120.2695 Q433.1094,120.2695 433.75,120.4258 Q434.4063,120.582 434.9688,120.8789 L434.9688,123.5977 Q434.3438,123.0195 433.75,122.7539 Q433.1563,122.4727 432.5313,122.4727 Q431.1875,122.4727 430.5,123.5508 Q429.8125,124.6133 429.8125,126.707 Q429.8125,128.8008 430.5,129.8789 Q431.1875,130.9414 432.5313,130.9414 Q433.1563,130.9414 433.75,130.6758 Q434.3438,130.3945 434.9688,129.8164 L434.9688,132.5352 Z " fill="#000000"/><text fill="#D9B8FF" font-family="Helvetica" font-size="17" lengthAdjust="spacing" textLength="163" x="451" y="132.7798">digitalocean_region</text></a><!--MD5=[11c06552b4a8fe6735f753939a743ce7]
link digitalocean_network to digitalocean_load_balancer--><path codeLine="38" d="M291,247.13 C259.6,263.59 214.32,287.32 181.63,304.44 " fill="none" id="digitalocean_network-to-digitalocean_load_balancer" style="stroke:#1A83AF;stroke-width:2.0;"/><polygon fill="#1A83AF" points="176.91,306.92,186.7375,306.2719,181.3355,304.593,183.0144,299.191,176.91,306.92" style="stroke:#1A83AF;stroke-width:2.0;"/><!--MD5=[9e2cd4696674f5a1ecaf5ab30938dd7a]
link digitalocean_network to digitalocean_kubernetes_cluster--><path codeLine="39" d="M381.82,247.01 C429.48,263.69 498.68,287.91 547.86,305.13 " fill="none" id="digitalocean_network-to-digitalocean_kubernetes_cluster" style="stroke:#1A83AF;stroke-width:2.0;"/><polygon fill="#1A83AF" points="552.85,306.87,545.6676,300.1311,548.1285,305.2246,543.035,307.6855,552.85,306.87" style="stroke:#1A83AF;stroke-width:2.0;"/><!--MD5=[5322e18106be37bf9ab7e590c50886f8]
link digitalocean_network to digitalocean_droplet--><path codeLine="40" d="M334.44,247.35 C347.46,283.67 375.54,361.97 389.8,401.75 " fill="none" id="digitalocean_network-to-digitalocean_droplet" style="stroke:#1A83AF;stroke-width:2.0;"/><polygon fill="#1A83AF" points="391.64,406.87,392.3762,397.0487,389.9565,402.1619,384.8433,399.7423,391.64,406.87" style="stroke:#1A83AF;stroke-width:2.0;"/><!--MD5=[5fb65b3b001205b62d634895ea889f40]
link digitalocean_network to digitalocean_database--><path codeLine="41" d="M438.72,246.66 C540.1,263.68 689.4,288.73 793,306.11 " fill="none" id="digitalocean_network-to-digitalocean_database" style="stroke:#1A83AF;stroke-width:2.0;"/><polygon fill="#1A83AF" points="798.21,306.99,789.9951,301.5571,793.2788,306.1634,788.6726,309.447,798.21,306.99" style="stroke:#1A83AF;stroke-width:2.0;"/><!--MD5=[4fac7f5f41879e098149d01ff468e4f0]
link digitalocean_load_balancer to digitalocean_droplet--><path codeLine="42" d="M190.55,347.01 C234.38,363.66 297.97,387.81 343.27,405.02 " fill="none" id="digitalocean_load_balancer-to-digitalocean_droplet" style="stroke:#1A83AF;stroke-width:2.0;"/><polygon fill="#1A83AF" points="348.15,406.87,341.1715,399.9201,343.4796,405.0847,338.315,407.3927,348.15,406.87" style="stroke:#1A83AF;stroke-width:2.0;"/><!--MD5=[a4d61ad4931a58a99a1f872eacb326c0]
link digitalocean_kubernetes_cluster to digitalocean_droplet--><path codeLine="43" d="M566.71,347.13 C531.46,363.65 480.59,387.51 444.03,404.65 " fill="none" id="digitalocean_kubernetes_cluster-to-digitalocean_droplet" style="stroke:#1A83AF;stroke-width:2.0;"/><polygon fill="#1A83AF" points="439.19,406.92,449.0367,406.7116,443.7151,404.7931,445.6336,399.4715,439.19,406.92" style="stroke:#1A83AF;stroke-width:2.0;"/><!--MD5=[9e32838af39c83783fd688fbe8869946]
link digitalocean_team to digitalocean_database--><path codeLine="44" d="M643.83,47.09 C694.25,99.64 834.94,246.22 889.49,303.07 " fill="none" id="digitalocean_team-to-digitalocean_database" style="stroke:#1A83AF;stroke-width:2.0;"/><polygon fill="#1A83AF" points="892.96,306.68,889.6296,297.4113,889.5039,303.0668,883.8484,302.9411,892.96,306.68" style="stroke:#1A83AF;stroke-width:2.0;"/><!--MD5=[a347f9f52cea14269900904d6d6ac114]
link digitalocean_team to digitalocean_droplet--><path codeLine="45" d="M692.33,47.01 C838.41,91.68 1163.76,209.96 1042.5,347 C1007.83,386.18 684.28,410.1 509.42,420.28 " fill="none" id="digitalocean_team-to-digitalocean_droplet" style="stroke:#1A83AF;stroke-width:2.0;"/><polygon fill="#1A83AF" points="504.29,420.57,513.5041,424.0485,509.2818,420.2839,513.0464,416.0616,504.29,420.57" style="stroke:#1A83AF;stroke-width:2.0;"/><!--MD5=[f9867d1029e4f56f33fe8344a33e4fa6]
link digitalocean_team to digitalocean_kubernetes_cluster--><path codeLine="46" d="M629.84,47.03 C633.24,62.96 637.68,86.33 639.5,107 C645.75,178.07 626.1,261.24 614.83,301.58 " fill="none" id="digitalocean_team-to-digitalocean_kubernetes_cluster" style="stroke:#1A83AF;stroke-width:2.0;"/><polygon fill="#1A83AF" points="613.37,306.75,619.6827,299.1902,614.7398,301.9413,611.9887,296.9985,613.37,306.75" style="stroke:#1A83AF;stroke-width:2.0;"/><!--MD5=[97e09bc2b6254f82ae7b521a0c81cbb2]
link digitalocean_team to digitalocean_load_balancer--><path codeLine="47" d="M527.13,35.42 C417.67,49.43 244.98,89.94 159.5,207 C139.34,234.6 137.18,275.44 138.25,301.38 " fill="none" id="digitalocean_team-to-digitalocean_load_balancer" style="stroke:#1A83AF;stroke-width:2.0;"/><polygon fill="#1A83AF" points="138.52,306.68,142.0525,297.4864,138.2632,301.6866,134.063,297.8973,138.52,306.68" style="stroke:#1A83AF;stroke-width:2.0;"/><!--MD5=[1ab9659d40ec54788e58cdc83aaea089]
link digitalocean_team to digitalocean_network--><path codeLine="48" d="M527.44,46.56 C484.71,58.39 436.14,77.28 399.5,107 C368.25,132.35 347.18,175.11 336.27,201.88 " fill="none" id="digitalocean_team-to-digitalocean_network" style="stroke:#1A83AF;stroke-width:2.0;"/><polygon fill="#1A83AF" points="334.35,206.69,341.3882,199.8006,336.1946,202.0427,333.9525,196.8492,334.35,206.69" style="stroke:#1A83AF;stroke-width:2.0;"/><!--MD5=[3f8f2b3b67cb50ff0d1977b4c4606b69]
link digitalocean_team to digitalocean_region--><path codeLine="49" d="M604.81,47.13 C587.45,63.18 562.6,86.15 544.2,103.17 " fill="none" id="digitalocean_team-to-digitalocean_region" style="stroke:#1A83AF;stroke-width:2.0;"/><polygon fill="#1A83AF" points="540.14,106.92,549.4612,103.7396,543.8085,103.5227,544.0255,97.87,540.14,106.92" style="stroke:#1A83AF;stroke-width:2.0;"/><!--MD5=[51f3df7aa3645794676fbf89c84ee908]
link digitalocean_region to digitalocean_database--><path codeLine="50" d="M557.44,147.16 C631.01,184.32 792.54,265.91 869.34,304.7 " fill="none" id="digitalocean_region-to-digitalocean_database" style="stroke:#1A83AF;stroke-width:2.0;"/><polygon fill="#1A83AF" points="873.82,306.97,867.5881,299.3435,869.3565,304.7168,863.9831,306.4851,873.82,306.97" style="stroke:#1A83AF;stroke-width:2.0;"/><!--MD5=[219715869ffb5c7cb3591b3e1250723b]
link digitalocean_region to digitalocean_droplet--><path codeLine="51" d="M509.22,147.18 C492.16,179.5 457.61,247.15 434.5,307 C422.09,339.14 411.15,377.48 404.68,401.78 " fill="none" id="digitalocean_region-to-digitalocean_droplet" style="stroke:#1A83AF;stroke-width:2.0;"/><polygon fill="#1A83AF" points="403.37,406.74,409.5299,399.0552,404.6432,401.9048,401.7936,397.0181,403.37,406.74" style="stroke:#1A83AF;stroke-width:2.0;"/><!--MD5=[b24e4813d0175f22aca5b8e136af832a]
link digitalocean_region to digitalocean_kubernetes_cluster--><path codeLine="52" d="M528.1,147.35 C544.31,183.81 579.33,262.61 596.94,302.24 " fill="none" id="digitalocean_region-to-digitalocean_kubernetes_cluster" style="stroke:#1A83AF;stroke-width:2.0;"/><polygon fill="#1A83AF" points="599,306.87,599.0057,297.0211,596.972,302.2998,591.6933,300.266,599,306.87" style="stroke:#1A83AF;stroke-width:2.0;"/><!--MD5=[06a3def7a7f39172fa1ac61c1b70aa8e]
link digitalocean_region to digitalocean_load_balancer--><path codeLine="53" d="M416.67,131.2 C348.26,138.24 260.01,157.33 198.5,207 C168.54,231.2 152.95,274.7 145.75,301.87 " fill="none" id="digitalocean_region-to-digitalocean_load_balancer" style="stroke:#1A83AF;stroke-width:2.0;"/><polygon fill="#1A83AF" points="144.51,306.75,150.6217,299.0268,145.7529,301.9069,142.8728,297.0382,144.51,306.75" style="stroke:#1A83AF;stroke-width:2.0;"/><!--MD5=[c7e65cf47a4a07a81df1a527f8ce2f2a]
link digitalocean_region to digitalocean_network--><path codeLine="54" d="M482.02,147.13 C449.78,163.59 403.29,187.32 369.73,204.44 " fill="none" id="digitalocean_region-to-digitalocean_network" style="stroke:#1A83AF;stroke-width:2.0;"/><polygon fill="#1A83AF" points="364.88,206.92,374.715,206.3974,369.3349,204.6497,371.0826,199.2696,364.88,206.92" style="stroke:#1A83AF;stroke-width:2.0;"/><!--MD5=[d2736c5f51c6f5a664e6f0d6628367db]
@startuml
hide empty members
skinparam ArrowColor #ffaf37
skinparam ArrowThickness 2
skinparam BackgroundColor transparent
skinparam ClassAttributeFontColor #d9b8ff
skinparam ClassBackgroundColor #3d176e
skinparam ClassBorderColor #000d19
skinparam ClassFontColor #d9b8ff
skinparam ClassFontName Helvetica
skinparam ClassFontSize 17
skinparam Padding 5
skinparam RoundCorner 5
skinparam Shadowing false
skinparam stereotypeCBackgroundColor #e98df7
skinparam stereotypeIBackgroundColor #e98df7

class digitalocean_droplet [[#digitalocean_droplet]] {

}
class digitalocean_network [[#digitalocean_network]] {

}
class digitalocean_load_balancer [[#digitalocean_load_balancer]] {

}
class digitalocean_kubernetes_cluster [[#digitalocean_kubernetes_cluster]] {

}
class digitalocean_database [[#digitalocean_database]] {

}
class digitalocean_team [[#digitalocean_team]] {

}
class digitalocean_region [[#digitalocean_region]] {

}
digitalocean_network -[#1A83AF]-> digitalocean_load_balancer
digitalocean_network -[#1A83AF]-> digitalocean_kubernetes_cluster
digitalocean_network -[#1A83AF]-> digitalocean_droplet
digitalocean_network -[#1A83AF]-> digitalocean_database
digitalocean_load_balancer -[#1A83AF]-> digitalocean_droplet
digitalocean_kubernetes_cluster -[#1A83AF]-> digitalocean_droplet
digitalocean_team -[#1A83AF]-> digitalocean_database
digitalocean_team -[#1A83AF]-> digitalocean_droplet
digitalocean_team -[#1A83AF]-> digitalocean_kubernetes_cluster
digitalocean_team -[#1A83AF]-> digitalocean_load_balancer
digitalocean_team -[#1A83AF]-> digitalocean_network
digitalocean_team -[#1A83AF]-> digitalocean_region
digitalocean_region -[#1A83AF]-> digitalocean_database
digitalocean_region -[#1A83AF]-> digitalocean_droplet
digitalocean_region -[#1A83AF]-> digitalocean_kubernetes_cluster
digitalocean_region -[#1A83AF]-> digitalocean_load_balancer
digitalocean_region -[#1A83AF]-> digitalocean_network
@enduml

PlantUML version 1.2021.16(Wed Dec 08 17:25:22 UTC 2021)
(GPL source distribution)
Java Runtime: OpenJDK Runtime Environment
JVM: OpenJDK 64-Bit Server VM
Default Encoding: UTF-8
Language: en
Country: null
--></g></svg>