<?xml version="1.0" encoding="UTF-8" standalone="no"?><svg xmlns="http://www.w3.org/2000/svg" xmlns:xlink="http://www.w3.org/1999/xlink" contentScriptType="application/ecmascript" contentStyleType="text/css" height="719px" preserveAspectRatio="none" style="width:331px;height:719px;background:#00000000;" version="1.1" viewBox="0 0 331 719" width="331px" zoomAndPan="magnify"><defs/><g><!--MD5=[7f0ecf5f554433d3f2e1213379ac821c]
class resource--><a href="#resource" target="_top" title="#resource" xlink:actuate="onRequest" xlink:href="#resource" xlink:show="new" xlink:title="#resource" xlink:type="simple"><rect codeLine="23" fill="#3D176E" height="275.8359" id="resource" rx="2.5" ry="2.5" style="stroke:#000D19;stroke-width:1.5;" width="195" x="103" y="7"/><ellipse cx="155.75" cy="26.8945" fill="#E98DF7" rx="11" ry="11" style="stroke:#000D19;stroke-width:1.0;"/><path d="M158.7188,32.5352 Q158.1406,32.832 157.5,32.9727 Q156.8594,33.1289 156.1563,33.1289 Q153.6563,33.1289 152.3281,31.4883 Q151.0156,29.832 151.0156,26.707 Q151.0156,23.582 152.3281,21.9258 Q153.6563,20.2695 156.1563,20.2695 Q156.8594,20.2695 157.5,20.4258 Q158.1563,20.582 158.7188,20.8789 L158.7188,23.5977 Q158.0938,23.0195 157.5,22.7539 Q156.9063,22.4727 156.2813,22.4727 Q154.9375,22.4727 154.25,23.5508 Q153.5625,24.6133 153.5625,26.707 Q153.5625,28.8008 154.25,29.8789 Q154.9375,30.9414 156.2813,30.9414 Q156.9063,30.9414 157.5,30.6758 Q158.0938,30.3945 158.7188,29.8164 L158.7188,32.5352 Z " fill="#000000"/><text fill="#D9B8FF" font-family="Helvetica" font-size="17" lengthAdjust="spacing" textLength="71" x="181.25" y="32.7798">resource</text><line style="stroke:#000D19;stroke-width:1.5;" x1="104" x2="297" y1="46.7891" y2="46.7891"/><text fill="#D9B8FF" font-family="sans-serif" font-size="11" font-weight="bold" lengthAdjust="spacing" textLength="12" x="114" y="65.9995">id</text><text fill="#D9B8FF" font-family="sans-serif" font-size="11" lengthAdjust="spacing" textLength="41" x="126" y="65.9995">: string</text><text fill="#D9B8FF" font-family="sans-serif" font-size="11" font-weight="bold" lengthAdjust="spacing" textLength="28" x="114" y="88.8042">tags</text><text fill="#D9B8FF" font-family="sans-serif" font-size="11" lengthAdjust="spacing" textLength="145" x="142" y="88.8042">: dictionary[string, string]</text><text fill="#D9B8FF" font-family="sans-serif" font-size="11" font-weight="bold" lengthAdjust="spacing" textLength="35" x="114" y="111.6089">name</text><text fill="#D9B8FF" font-family="sans-serif" font-size="11" lengthAdjust="spacing" textLength="41" x="149" y="111.6089">: string</text><text fill="#D9B8FF" font-family="sans-serif" font-size="11" font-weight="bold" lengthAdjust="spacing" textLength="35" x="114" y="134.4136">ctime</text><text fill="#D9B8FF" font-family="sans-serif" font-size="11" lengthAdjust="spacing" textLength="58" x="149" y="134.4136">: datetime</text><text fill="#D9B8FF" font-family="sans-serif" font-size="11" font-weight="bold" lengthAdjust="spacing" textLength="24" x="114" y="157.2183">age</text><text fill="#D9B8FF" font-family="sans-serif" font-size="11" lengthAdjust="spacing" textLength="55" x="138" y="157.2183">: duration</text><text fill="#D9B8FF" font-family="sans-serif" font-size="11" font-weight="bold" lengthAdjust="spacing" textLength="39" x="114" y="180.0229">mtime</text><text fill="#D9B8FF" font-family="sans-serif" font-size="11" lengthAdjust="spacing" textLength="58" x="153" y="180.0229">: datetime</text><text fill="#D9B8FF" font-family="sans-serif" font-size="11" font-weight="bold" lengthAdjust="spacing" textLength="75" x="114" y="202.8276">last_update</text><text fill="#D9B8FF" font-family="sans-serif" font-size="11" lengthAdjust="spacing" textLength="55" x="189" y="202.8276">: duration</text><text fill="#D9B8FF" font-family="sans-serif" font-size="11" font-weight="bold" lengthAdjust="spacing" textLength="36" x="114" y="225.6323">atime</text><text fill="#D9B8FF" font-family="sans-serif" font-size="11" lengthAdjust="spacing" textLength="58" x="150" y="225.6323">: datetime</text><text fill="#D9B8FF" font-family="sans-serif" font-size="11" font-weight="bold" lengthAdjust="spacing" textLength="74" x="114" y="248.437">last_access</text><text fill="#D9B8FF" font-family="sans-serif" font-size="11" lengthAdjust="spacing" textLength="55" x="188" y="248.437">: duration</text><text fill="#D9B8FF" font-family="sans-serif" font-size="11" font-weight="bold" lengthAdjust="spacing" textLength="27" x="114" y="271.2417">kind</text><text fill="#D9B8FF" font-family="sans-serif" font-size="11" lengthAdjust="spacing" textLength="41" x="141" y="271.2417">: string</text></a><!--MD5=[71c423ddba3f172acbd6b308d2554b2c]
class digitalocean_resource--><a href="#digitalocean_resource" target="_top" title="#digitalocean_resource" xlink:actuate="onRequest" xlink:href="#digitalocean_resource" xlink:show="new" xlink:title="#digitalocean_resource" xlink:type="simple"><rect codeLine="35" fill="#3D176E" height="70.5938" id="digitalocean_resource" rx="2.5" ry="2.5" style="stroke:#000D19;stroke-width:1.5;" width="223" x="7" y="404"/><ellipse cx="22" cy="423.8945" fill="#E98DF7" rx="11" ry="11" style="stroke:#000D19;stroke-width:1.0;"/><path d="M24.9688,429.5352 Q24.3906,429.832 23.75,429.9727 Q23.1094,430.1289 22.4063,430.1289 Q19.9063,430.1289 18.5781,428.4883 Q17.2656,426.832 17.2656,423.707 Q17.2656,420.582 18.5781,418.9258 Q19.9063,417.2695 22.4063,417.2695 Q23.1094,417.2695 23.75,417.4258 Q24.4063,417.582 24.9688,417.8789 L24.9688,420.5977 Q24.3438,420.0195 23.75,419.7539 Q23.1563,419.4727 22.5313,419.4727 Q21.1875,419.4727 20.5,420.5508 Q19.8125,421.6133 19.8125,423.707 Q19.8125,425.8008 20.5,426.8789 Q21.1875,427.9414 22.5313,427.9414 Q23.1563,427.9414 23.75,427.6758 Q24.3438,427.3945 24.9688,426.8164 L24.9688,429.5352 Z " fill="#000000"/><text fill="#D9B8FF" font-family="Helvetica" font-size="17" lengthAdjust="spacing" textLength="181" x="41" y="429.7798">digitalocean_resource</text><line style="stroke:#000D19;stroke-width:1.5;" x1="8" x2="229" y1="443.7891" y2="443.7891"/><text fill="#D9B8FF" font-family="sans-serif" font-size="11" font-weight="bold" lengthAdjust="spacing" textLength="21" x="18" y="462.9995">urn</text><text fill="#D9B8FF" font-family="sans-serif" font-size="11" lengthAdjust="spacing" textLength="41" x="39" y="462.9995">: string</text></a><!--MD5=[d20f47717183d25f49af2f02e3ed88a9]
class digitalocean_alert_policy--><a href="#digitalocean_alert_policy" target="_top" title="#digitalocean_alert_policy" xlink:actuate="onRequest" xlink:href="#digitalocean_alert_policy" xlink:show="new" xlink:title="#digitalocean_alert_policy" xlink:type="simple"><rect codeLine="38" fill="#3D176E" height="116.2031" id="digitalocean_alert_policy" rx="2.5" ry="2.5" style="stroke:#000D19;stroke-width:1.5;" width="248" x="76.5" y="596"/><ellipse cx="91.5" cy="615.8945" fill="#E98DF7" rx="11" ry="11" style="stroke:#000D19;stroke-width:1.0;"/><path d="M94.4688,621.5352 Q93.8906,621.832 93.25,621.9727 Q92.6094,622.1289 91.9063,622.1289 Q89.4063,622.1289 88.0781,620.4883 Q86.7656,618.832 86.7656,615.707 Q86.7656,612.582 88.0781,610.9258 Q89.4063,609.2695 91.9063,609.2695 Q92.6094,609.2695 93.25,609.4258 Q93.9063,609.582 94.4688,609.8789 L94.4688,612.5977 Q93.8438,612.0195 93.25,611.7539 Q92.6563,611.4727 92.0313,611.4727 Q90.6875,611.4727 90,612.5508 Q89.3125,613.6133 89.3125,615.707 Q89.3125,617.8008 90,618.8789 Q90.6875,619.9414 92.0313,619.9414 Q92.6563,619.9414 93.25,619.6758 Q93.8438,619.3945 94.4688,618.8164 L94.4688,621.5352 Z " fill="#000000"/><text fill="#D9B8FF" font-family="Helvetica" font-size="17" lengthAdjust="spacing" textLength="206" x="110.5" y="621.7798">digitalocean_alert_policy</text><line style="stroke:#000D19;stroke-width:1.5;" x1="77.5" x2="323.5" y1="635.7891" y2="635.7891"/><text fill="#D9B8FF" font-family="sans-serif" font-size="11" font-weight="bold" lengthAdjust="spacing" textLength="72" x="87.5" y="654.9995">policy_type</text><text fill="#D9B8FF" font-family="sans-serif" font-size="11" lengthAdjust="spacing" textLength="41" x="159.5" y="654.9995">: string</text><text fill="#D9B8FF" font-family="sans-serif" font-size="11" font-weight="bold" lengthAdjust="spacing" textLength="72" x="87.5" y="677.8042">description</text><text fill="#D9B8FF" font-family="sans-serif" font-size="11" lengthAdjust="spacing" textLength="41" x="159.5" y="677.8042">: string</text><text fill="#D9B8FF" font-family="sans-serif" font-size="11" font-weight="bold" lengthAdjust="spacing" textLength="69" x="87.5" y="700.6089">is_enabled</text><text fill="#D9B8FF" font-family="sans-serif" font-size="11" lengthAdjust="spacing" textLength="53" x="156.5" y="700.6089">: boolean</text></a><!--MD5=[d8f27025b7aaf31a1339b6b4ca2d4d8d]
reverse link resource to digitalocean_resource--><path codeLine="43" d="M156.58,302.65 C145.88,340.85 135.43,378.09 128.2,403.9 " fill="none" id="resource-backto-digitalocean_resource" style="stroke:#FFAF37;stroke-width:2.0;"/><polygon fill="none" points="149.88,300.63,162.02,283.26,163.36,304.4,149.88,300.63" style="stroke:#FFAF37;stroke-width:2.0;"/><!--MD5=[bccd5e6b8b66303a2f8b5be4a35826f0]
reverse link digitalocean_resource to digitalocean_alert_policy--><path codeLine="44" d="M139.06,493.77 C151.07,524.92 166.24,564.22 178.5,595.98 " fill="none" id="digitalocean_resource-backto-digitalocean_alert_policy" style="stroke:#FFAF37;stroke-width:2.0;"/><polygon fill="none" points="132.53,496.29,131.86,475.11,145.59,491.25,132.53,496.29" style="stroke:#FFAF37;stroke-width:2.0;"/><!--MD5=[ba0f4eb9515d9649e8fcf7b08141b327]
reverse link resource to digitalocean_alert_policy--><path codeLine="45" d="M240.37,302.88 C249.58,357.33 254.79,418.82 247.5,475 C242.17,516.05 230.21,561.11 219.68,595.63 " fill="none" id="resource-backto-digitalocean_alert_policy" style="stroke:#FFAF37;stroke-width:2.0;"/><polygon fill="none" points="233.48,304.08,236.82,283.15,247.26,301.6,233.48,304.08" style="stroke:#FFAF37;stroke-width:2.0;"/><!--MD5=[43a0366e4fed52c268f4abeb5b43cb43]
@startuml
hide empty members
skinparam ArrowColor #ffaf37
skinparam ArrowFontColor #ffaf37
skinparam ArrowFontName Helvetica
skinparam ArrowThickness 2
skinparam BackgroundColor transparent
skinparam ClassAttributeFontColor #d9b8ff
skinparam ClassBackgroundColor #3d176e
skinparam ClassBorderColor #000d19
skinparam ClassFontColor #d9b8ff
skinparam ClassFontName Helvetica
skinparam ClassFontSize 17
skinparam NoteBackgroundColor #d9b8ff
skinparam NoteBorderColor #000d19
skinparam NoteFontColor #3d176e
skinparam NoteFontName Helvetica
skinparam Padding 5
skinparam RoundCorner 5
skinparam Shadowing false
skinparam stereotypeCBackgroundColor #e98df7
skinparam stereotypeIBackgroundColor #e98df7

class resource [[#resource]] {
**id**: string
**tags**: dictionary[string, string]
**name**: string
**ctime**: datetime
**age**: duration
**mtime**: datetime
**last_update**: duration
**atime**: datetime
**last_access**: duration
**kind**: string
}
class digitalocean_resource [[#digitalocean_resource]] {
**urn**: string
}
class digitalocean_alert_policy [[#digitalocean_alert_policy]] {
**policy_type**: string
**description**: string
**is_enabled**: boolean
}
resource <|- - - digitalocean_resource
digitalocean_resource <|- - - digitalocean_alert_policy
resource <|- - - digitalocean_alert_policy
@enduml

PlantUML version 1.2021.16(Wed Dec 08 17:25:22 UTC 2021)
(GPL source distribution)
Java Runtime: OpenJDK Runtime Environment
JVM: OpenJDK 64-Bit Server VM
Default Encoding: UTF-8
Language: en
Country: null
--></g></svg>