<svg xmlns="http://www.w3.org/2000/svg" xmlns:xlink="http://www.w3.org/1999/xlink" width="388" height="764" contentScriptType="application/ecmascript" contentStyleType="text/css" style="width:388px;height:764px;background:#00000000" preserveAspectRatio="none" version="1.1" viewBox="0 0 388 764" zoomAndPan="magnify"><g><rect id="resource" width="256" height="275.836" x="39" y="7" fill="#3D176E" codeLine="17" rx="2.5" ry="2.5" style="stroke:#000d19;stroke-width:1.5"/><ellipse cx="122.25" cy="26.895" fill="#E98DF7" rx="11" ry="11" style="stroke:#000d19;stroke-width:1"/><path fill="#000" d="M125.2188,32.5352 Q124.6406,32.832 124,32.9727 Q123.3594,33.1289 122.6563,33.1289 Q120.1563,33.1289 118.8281,31.4883 Q117.5156,29.832 117.5156,26.707 Q117.5156,23.582 118.8281,21.9258 Q120.1563,20.2695 122.6563,20.2695 Q123.3594,20.2695 124,20.4258 Q124.6563,20.582 125.2188,20.8789 L125.2188,23.5977 Q124.5938,23.0195 124,22.7539 Q123.4063,22.4727 122.7813,22.4727 Q121.4375,22.4727 120.75,23.5508 Q120.0625,24.6133 120.0625,26.707 Q120.0625,28.8008 120.75,29.8789 Q121.4375,30.9414 122.7813,30.9414 Q123.4063,30.9414 124,30.6758 Q124.5938,30.3945 125.2188,29.8164 L125.2188,32.5352 Z"/><text x="147.75" y="32.78" fill="#D9B8FF" font-family="Helvetica" font-size="17" lengthAdjust="spacing" textLength="71">resource</text><line style="stroke:#000d19;stroke-width:1.5" x1="40" x2="294" y1="46.789" y2="46.789"/><text x="50" y="65.999" fill="#D9B8FF" font-family="sans-serif" font-size="11" font-weight="bold" lengthAdjust="spacing" textLength="12">id</text><text x="62" y="65.999" fill="#D9B8FF" font-family="sans-serif" font-size="11" lengthAdjust="spacing" textLength="41">: string</text><text x="50" y="88.804" fill="#D9B8FF" font-family="sans-serif" font-size="11" font-weight="bold" lengthAdjust="spacing" textLength="28">tags</text><text x="78" y="88.804" fill="#D9B8FF" font-family="sans-serif" font-size="11" lengthAdjust="spacing" textLength="145">: dictionary[string, string]</text><text x="50" y="111.609" fill="#D9B8FF" font-family="sans-serif" font-size="11" font-weight="bold" lengthAdjust="spacing" textLength="35">name</text><text x="85" y="111.609" fill="#D9B8FF" font-family="sans-serif" font-size="11" lengthAdjust="spacing" textLength="41">: string</text><text x="50" y="134.414" fill="#D9B8FF" font-family="sans-serif" font-size="11" font-weight="bold" lengthAdjust="spacing" textLength="35">ctime</text><text x="85" y="134.414" fill="#D9B8FF" font-family="sans-serif" font-size="11" lengthAdjust="spacing" textLength="58">: datetime</text><text x="50" y="157.218" fill="#D9B8FF" font-family="sans-serif" font-size="11" font-weight="bold" lengthAdjust="spacing" textLength="24">age</text><text x="74" y="157.218" fill="#D9B8FF" font-family="sans-serif" font-size="11" lengthAdjust="spacing" textLength="159">: trafo.duration_to_datetime</text><text x="50" y="180.023" fill="#D9B8FF" font-family="sans-serif" font-size="11" font-weight="bold" lengthAdjust="spacing" textLength="39">mtime</text><text x="89" y="180.023" fill="#D9B8FF" font-family="sans-serif" font-size="11" lengthAdjust="spacing" textLength="58">: datetime</text><text x="50" y="202.828" fill="#D9B8FF" font-family="sans-serif" font-size="11" font-weight="bold" lengthAdjust="spacing" textLength="75">last_update</text><text x="125" y="202.828" fill="#D9B8FF" font-family="sans-serif" font-size="11" lengthAdjust="spacing" textLength="159">: trafo.duration_to_datetime</text><text x="50" y="225.632" fill="#D9B8FF" font-family="sans-serif" font-size="11" font-weight="bold" lengthAdjust="spacing" textLength="36">atime</text><text x="86" y="225.632" fill="#D9B8FF" font-family="sans-serif" font-size="11" lengthAdjust="spacing" textLength="58">: datetime</text><text x="50" y="248.437" fill="#D9B8FF" font-family="sans-serif" font-size="11" font-weight="bold" lengthAdjust="spacing" textLength="74">last_access</text><text x="124" y="248.437" fill="#D9B8FF" font-family="sans-serif" font-size="11" lengthAdjust="spacing" textLength="159">: trafo.duration_to_datetime</text><text x="50" y="271.242" fill="#D9B8FF" font-family="sans-serif" font-size="11" font-weight="bold" lengthAdjust="spacing" textLength="27">kind</text><text x="77" y="271.242" fill="#D9B8FF" font-family="sans-serif" font-size="11" lengthAdjust="spacing" textLength="41">: string</text><rect id="endpoint" width="116" height="39.789" x="7" y="419.5" fill="#3D176E" codeLine="29" rx="2.5" ry="2.5" style="stroke:#000d19;stroke-width:1.5"/><ellipse cx="22" cy="439.394" fill="#E98DF7" rx="11" ry="11" style="stroke:#000d19;stroke-width:1"/><path fill="#000" d="M24.9688,445.0352 Q24.3906,445.332 23.75,445.4727 Q23.1094,445.6289 22.4063,445.6289 Q19.9063,445.6289 18.5781,443.9883 Q17.2656,442.332 17.2656,439.207 Q17.2656,436.082 18.5781,434.4258 Q19.9063,432.7695 22.4063,432.7695 Q23.1094,432.7695 23.75,432.9258 Q24.4063,433.082 24.9688,433.3789 L24.9688,436.0977 Q24.3438,435.5195 23.75,435.2539 Q23.1563,434.9727 22.5313,434.9727 Q21.1875,434.9727 20.5,436.0508 Q19.8125,437.1133 19.8125,439.207 Q19.8125,441.3008 20.5,442.3789 Q21.1875,443.4414 22.5313,443.4414 Q23.1563,443.4414 23.75,443.1758 Q24.3438,442.8945 24.9688,442.3164 L24.9688,445.0352 Z"/><text x="41" y="445.28" fill="#D9B8FF" font-family="Helvetica" font-size="17" lengthAdjust="spacing" textLength="74">endpoint</text><rect id="digitalocean_resource" width="223" height="70.594" x="158.5" y="404" fill="#3D176E" codeLine="32" rx="2.5" ry="2.5" style="stroke:#000d19;stroke-width:1.5"/><ellipse cx="173.5" cy="423.894" fill="#E98DF7" rx="11" ry="11" style="stroke:#000d19;stroke-width:1"/><path fill="#000" d="M176.4688,429.5352 Q175.8906,429.832 175.25,429.9727 Q174.6094,430.1289 173.9063,430.1289 Q171.4063,430.1289 170.0781,428.4883 Q168.7656,426.832 168.7656,423.707 Q168.7656,420.582 170.0781,418.9258 Q171.4063,417.2695 173.9063,417.2695 Q174.6094,417.2695 175.25,417.4258 Q175.9063,417.582 176.4688,417.8789 L176.4688,420.5977 Q175.8438,420.0195 175.25,419.7539 Q174.6563,419.4727 174.0313,419.4727 Q172.6875,419.4727 172,420.5508 Q171.3125,421.6133 171.3125,423.707 Q171.3125,425.8008 172,426.8789 Q172.6875,427.9414 174.0313,427.9414 Q174.6563,427.9414 175.25,427.6758 Q175.8438,427.3945 176.4688,426.8164 L176.4688,429.5352 Z"/><text x="192.5" y="429.78" fill="#D9B8FF" font-family="Helvetica" font-size="17" lengthAdjust="spacing" textLength="181">digitalocean_resource</text><line style="stroke:#000d19;stroke-width:1.5" x1="159.5" x2="380.5" y1="443.789" y2="443.789"/><text x="169.5" y="463" fill="#D9B8FF" font-family="sans-serif" font-size="11" font-weight="bold" lengthAdjust="spacing" textLength="21">urn</text><text x="190.5" y="463" fill="#D9B8FF" font-family="sans-serif" font-size="11" lengthAdjust="spacing" textLength="41">: string</text><rect id="digitalocean_cdn_endpoint" width="264" height="161.813" x="35" y="596" fill="#3D176E" codeLine="35" rx="2.5" ry="2.5" style="stroke:#000d19;stroke-width:1.5"/><ellipse cx="50" cy="615.894" fill="#E98DF7" rx="11" ry="11" style="stroke:#000d19;stroke-width:1"/><path fill="#000" d="M52.9688,621.5352 Q52.3906,621.832 51.75,621.9727 Q51.1094,622.1289 50.4063,622.1289 Q47.9063,622.1289 46.5781,620.4883 Q45.2656,618.832 45.2656,615.707 Q45.2656,612.582 46.5781,610.9258 Q47.9063,609.2695 50.4063,609.2695 Q51.1094,609.2695 51.75,609.4258 Q52.4063,609.582 52.9688,609.8789 L52.9688,612.5977 Q52.3438,612.0195 51.75,611.7539 Q51.1563,611.4727 50.5313,611.4727 Q49.1875,611.4727 48.5,612.5508 Q47.8125,613.6133 47.8125,615.707 Q47.8125,617.8008 48.5,618.8789 Q49.1875,619.9414 50.5313,619.9414 Q51.1563,619.9414 51.75,619.6758 Q52.3438,619.3945 52.9688,618.8164 L52.9688,621.5352 Z"/><text x="69" y="621.78" fill="#D9B8FF" font-family="Helvetica" font-size="17" lengthAdjust="spacing" textLength="222">digitalocean_cdn_endpoint</text><line style="stroke:#000d19;stroke-width:1.5" x1="36" x2="298" y1="635.789" y2="635.789"/><text x="46" y="655" fill="#D9B8FF" font-family="sans-serif" font-size="11" font-weight="bold" lengthAdjust="spacing" textLength="37">origin</text><text x="83" y="655" fill="#D9B8FF" font-family="sans-serif" font-size="11" lengthAdjust="spacing" textLength="41">: string</text><text x="46" y="677.804" fill="#D9B8FF" font-family="sans-serif" font-size="11" font-weight="bold" lengthAdjust="spacing" textLength="57">endpoint</text><text x="103" y="677.804" fill="#D9B8FF" font-family="sans-serif" font-size="11" lengthAdjust="spacing" textLength="41">: string</text><text x="46" y="700.609" fill="#D9B8FF" font-family="sans-serif" font-size="11" font-weight="bold" lengthAdjust="spacing" textLength="84">certificate_id</text><text x="130" y="700.609" fill="#D9B8FF" font-family="sans-serif" font-size="11" lengthAdjust="spacing" textLength="41">: string</text><text x="46" y="723.414" fill="#D9B8FF" font-family="sans-serif" font-size="11" font-weight="bold" lengthAdjust="spacing" textLength="99">custom_domain</text><text x="145" y="723.414" fill="#D9B8FF" font-family="sans-serif" font-size="11" lengthAdjust="spacing" textLength="41">: string</text><text x="46" y="746.218" fill="#D9B8FF" font-family="sans-serif" font-size="11" font-weight="bold" lengthAdjust="spacing" textLength="14">ttl</text><text x="60" y="746.218" fill="#D9B8FF" font-family="sans-serif" font-size="11" lengthAdjust="spacing" textLength="36">: int64</text><path id="resource-backto-endpoint" fill="none" d="M112.51,302.27 C96.19,349.06 80.35,394.47 71.72,419.24" codeLine="42" style="stroke:#ffaf37;stroke-width:2"/><polygon fill="none" points="105.94 299.84 119.14 283.26 119.16 304.45 105.94 299.84" style="stroke:#ffaf37;stroke-width:2"/><path id="resource-backto-digitalocean_resource" fill="none" d="M221.98,302.13 C235.49,340.51 248.69,377.98 257.82,403.9" codeLine="43" style="stroke:#ffaf37;stroke-width:2"/><polygon fill="none" points="215.37 304.45 215.33 283.26 228.58 299.8 215.37 304.45" style="stroke:#ffaf37;stroke-width:2"/><path id="digitalocean_resource-backto-digitalocean_cdn_endpoint" fill="none" d="M246.72,493.72 C233.56,523.82 216.83,562.06 202.11,595.73" codeLine="44" style="stroke:#ffaf37;stroke-width:2"/><polygon fill="none" points="240.37 490.77 254.8 475.25 253.2 496.38 240.37 490.77" style="stroke:#ffaf37;stroke-width:2"/><path id="endpoint-backto-digitalocean_cdn_endpoint" fill="none" d="M81.33,478.21 C95.02,509.81 115.03,556.01 132.27,595.81" codeLine="45" style="stroke:#ffaf37;stroke-width:2"/><polygon fill="none" points="74.87 480.91 73.35 459.77 87.72 475.34 74.87 480.91" style="stroke:#ffaf37;stroke-width:2"/></g></svg>