<svg xmlns="http://www.w3.org/2000/svg" xmlns:xlink="http://www.w3.org/1999/xlink" width="393" height="352" contentScriptType="application/ecmascript" contentStyleType="text/css" style="width:393px;height:352px;background:#00000000" preserveAspectRatio="none" version="1.1" viewBox="0 0 393 352" zoomAndPan="magnify"><g><a href="#digitalocean_database" target="_top" title="#digitalocean_database" xlink:actuate="onRequest" xlink:href="#digitalocean_database" xlink:show="new" xlink:title="#digitalocean_database" xlink:type="simple"><rect id="digitalocean_database" width="227" height="39.789" x="62.69" y="207" fill="#3D176E" codeLine="17" rx="2.5" ry="2.5" style="stroke:#000d19;stroke-width:1.5"/><ellipse cx="77.69" cy="226.894" fill="#E98DF7" rx="11" ry="11" style="stroke:#000d19;stroke-width:1"/><path fill="#000" d="M80.6588,232.5352 Q80.0806,232.832 79.44,232.9727 Q78.7994,233.1289 78.0963,233.1289 Q75.5963,233.1289 74.2681,231.4883 Q72.9556,229.832 72.9556,226.707 Q72.9556,223.582 74.2681,221.9258 Q75.5963,220.2695 78.0963,220.2695 Q78.7994,220.2695 79.44,220.4258 Q80.0963,220.582 80.6588,220.8789 L80.6588,223.5977 Q80.0338,223.0195 79.44,222.7539 Q78.8463,222.4727 78.2213,222.4727 Q76.8775,222.4727 76.19,223.5508 Q75.5025,224.6133 75.5025,226.707 Q75.5025,228.8008 76.19,229.8789 Q76.8775,230.9414 78.2213,230.9414 Q78.8463,230.9414 79.44,230.6758 Q80.0338,230.3945 80.6588,229.8164 L80.6588,232.5352 Z"/><text x="96.69" y="232.78" fill="#D9B8FF" font-family="Helvetica" font-size="17" lengthAdjust="spacing" textLength="185">digitalocean_database</text></a><a href="#digitalocean_app" target="_top" title="#digitalocean_app" xlink:actuate="onRequest" xlink:href="#digitalocean_app" xlink:show="new" xlink:title="#digitalocean_app" xlink:type="simple"><rect id="digitalocean_app" width="182" height="39.789" x="85.19" y="307" fill="#3D176E" codeLine="20" rx="2.5" ry="2.5" style="stroke:#000d19;stroke-width:1.5"/><ellipse cx="100.19" cy="326.894" fill="#E98DF7" rx="11" ry="11" style="stroke:#000d19;stroke-width:1"/><path fill="#000" d="M103.1588,332.5352 Q102.5806,332.832 101.94,332.9727 Q101.2994,333.1289 100.5963,333.1289 Q98.0963,333.1289 96.7681,331.4883 Q95.4556,329.832 95.4556,326.707 Q95.4556,323.582 96.7681,321.9258 Q98.0963,320.2695 100.5963,320.2695 Q101.2994,320.2695 101.94,320.4258 Q102.5963,320.582 103.1588,320.8789 L103.1588,323.5977 Q102.5338,323.0195 101.94,322.7539 Q101.3463,322.4727 100.7213,322.4727 Q99.3775,322.4727 98.69,323.5508 Q98.0025,324.6133 98.0025,326.707 Q98.0025,328.8008 98.69,329.8789 Q99.3775,330.9414 100.7213,330.9414 Q101.3463,330.9414 101.94,330.6758 Q102.5338,330.3945 103.1588,329.8164 L103.1588,332.5352 Z"/><text x="119.19" y="332.78" fill="#D9B8FF" font-family="Helvetica" font-size="17" lengthAdjust="spacing" textLength="140">digitalocean_app</text></a><a href="#digitalocean_region" target="_top" title="#digitalocean_region" xlink:actuate="onRequest" xlink:href="#digitalocean_region" xlink:show="new" xlink:title="#digitalocean_region" xlink:type="simple"><rect id="digitalocean_region" width="205" height="39.789" x="181.69" y="107" fill="#3D176E" codeLine="23" rx="2.5" ry="2.5" style="stroke:#000d19;stroke-width:1.5"/><ellipse cx="196.69" cy="126.894" fill="#E98DF7" rx="11" ry="11" style="stroke:#000d19;stroke-width:1"/><path fill="#000" d="M199.6588,132.5352 Q199.0806,132.832 198.44,132.9727 Q197.7994,133.1289 197.0963,133.1289 Q194.5963,133.1289 193.2681,131.4883 Q191.9556,129.832 191.9556,126.707 Q191.9556,123.582 193.2681,121.9258 Q194.5963,120.2695 197.0963,120.2695 Q197.7994,120.2695 198.44,120.4258 Q199.0963,120.582 199.6588,120.8789 L199.6588,123.5977 Q199.0338,123.0195 198.44,122.7539 Q197.8463,122.4727 197.2213,122.4727 Q195.8775,122.4727 195.19,123.5508 Q194.5025,124.6133 194.5025,126.707 Q194.5025,128.8008 195.19,129.8789 Q195.8775,130.9414 197.2213,130.9414 Q197.8463,130.9414 198.44,130.6758 Q199.0338,130.3945 199.6588,129.8164 L199.6588,132.5352 Z"/><text x="215.69" y="132.78" fill="#D9B8FF" font-family="Helvetica" font-size="17" lengthAdjust="spacing" textLength="163">digitalocean_region</text></a><a href="#digitalocean_team" target="_top" title="#digitalocean_team" xlink:actuate="onRequest" xlink:href="#digitalocean_team" xlink:show="new" xlink:title="#digitalocean_team" xlink:type="simple"><rect id="digitalocean_team" width="196" height="39.789" x="30.19" y="7" fill="#3D176E" codeLine="26" rx="2.5" ry="2.5" style="stroke:#000d19;stroke-width:1.5"/><ellipse cx="45.19" cy="26.895" fill="#E98DF7" rx="11" ry="11" style="stroke:#000d19;stroke-width:1"/><path fill="#000" d="M48.1588,32.5352 Q47.5806,32.832 46.94,32.9727 Q46.2994,33.1289 45.5963,33.1289 Q43.0963,33.1289 41.7681,31.4883 Q40.4556,29.832 40.4556,26.707 Q40.4556,23.582 41.7681,21.9258 Q43.0963,20.2695 45.5963,20.2695 Q46.2994,20.2695 46.94,20.4258 Q47.5963,20.582 48.1588,20.8789 L48.1588,23.5977 Q47.5338,23.0195 46.94,22.7539 Q46.3463,22.4727 45.7213,22.4727 Q44.3775,22.4727 43.69,23.5508 Q43.0025,24.6133 43.0025,26.707 Q43.0025,28.8008 43.69,29.8789 Q44.3775,30.9414 45.7213,30.9414 Q46.3463,30.9414 46.94,30.6758 Q47.5338,30.3945 48.1588,29.8164 L48.1588,32.5352 Z"/><text x="64.19" y="32.78" fill="#D9B8FF" font-family="Helvetica" font-size="17" lengthAdjust="spacing" textLength="154">digitalocean_team</text></a><path id="digitalocean_database-to-digitalocean_app" fill="none" d="M176.19,247.36 C176.19,262.93 176.19,284.9 176.19,301.66" codeLine="29" style="stroke:#1a83af;stroke-width:2"/><polygon fill="#1A83AF" points="176.19 306.68 180.19 297.68 176.19 301.68 172.19 297.68 176.19 306.68" style="stroke:#1a83af;stroke-width:2"/><path id="digitalocean_region-to-digitalocean_app" fill="none" d="M295.52,147.42 C308.29,172.1 325.09,215.3 307.19,247 C292.13,273.67 264.05,292.34 237.74,304.81" codeLine="30" style="stroke:#1a83af;stroke-width:2"/><polygon fill="#1A83AF" points="233.2 306.92 243.048 306.763 237.736 304.817 239.682 299.505 233.2 306.92" style="stroke:#1a83af;stroke-width:2"/><path id="digitalocean_region-to-digitalocean_database" fill="none" d="M263.11,147.13 C245.42,163.18 220.1,186.15 201.35,203.17" codeLine="31" style="stroke:#1a83af;stroke-width:2"/><polygon fill="#1A83AF" points="197.22 206.92 206.572 203.833 200.922 203.56 201.196 197.909 197.22 206.92" style="stroke:#1a83af;stroke-width:2"/><path id="digitalocean_team-to-digitalocean_app" fill="none" d="M110.19,47.02 C75.47,86.1 6,177.61 45.19,247 C60.25,273.67 88.33,292.34 114.64,304.81" codeLine="32" style="stroke:#1a83af;stroke-width:2"/><polygon fill="#1A83AF" points="119.18 306.92 112.698 299.505 114.644 304.817 109.332 306.763 119.18 306.92" style="stroke:#1a83af;stroke-width:2"/><path id="digitalocean_team-to-digitalocean_database" fill="none" d="M132.88,47.35 C141.68,83.67 160.67,161.97 170.31,201.75" codeLine="33" style="stroke:#1a83af;stroke-width:2"/><polygon fill="#1A83AF" points="171.55 206.87 173.328 197.183 170.378 202.009 165.551 199.059 171.55 206.87" style="stroke:#1a83af;stroke-width:2"/><path id="digitalocean_team-to-digitalocean_region" fill="none" d="M158.64,47.13 C184.73,63.52 222.3,87.12 249.54,104.23" codeLine="34" style="stroke:#1a83af;stroke-width:2"/><polygon fill="#1A83AF" points="253.82 106.92 248.348 98.731 249.593 104.249 244.075 105.495 253.82 106.92" style="stroke:#1a83af;stroke-width:2"/></g></svg>