<svg xmlns="http://www.w3.org/2000/svg" xmlns:xlink="http://www.w3.org/1999/xlink" width="371" height="352" preserveAspectRatio="none" style="width:371px;height:352px;background:#00000000"><a xlink:actuate="onRequest" xlink:href="#a" xlink:show="new" xlink:title="#digitalocean_domain" xlink:type="simple" target="_top"><rect id="a" width="215" height="39.789" x="39.45" y="207" fill="#3D176E" rx="2.5" ry="2.5" style="stroke:#000d19;stroke-width:1.5"/><circle cx="54.45" cy="226.894" r="11" fill="#E98DF7" style="stroke:#000d19;stroke-width:1"/><path d="M57.419 232.535q-.578.297-1.219.438-.64.156-1.344.156-2.5 0-3.828-1.64-1.312-1.657-1.312-4.782t1.312-4.781q1.328-1.656 3.828-1.656.703 0 1.344.156.656.156 1.219.453v2.719q-.625-.579-1.219-.844-.594-.281-1.219-.281-1.343 0-2.031 1.078-.688 1.062-.688 3.156 0 2.094.688 3.172.688 1.062 2.031 1.062.625 0 1.219-.265.594-.281 1.219-.86v2.72Z"/><text x="73.45" y="232.78" fill="#D9B8FF" font-family="Helvetica" font-size="17" textLength="173">digitalocean_domain</text></a><a xlink:actuate="onRequest" xlink:href="#b" xlink:show="new" xlink:title="#digitalocean_domain_record" xlink:type="simple" target="_top"><rect id="b" width="276" height="39.789" x="88.95" y="307" fill="#3D176E" rx="2.5" ry="2.5" style="stroke:#000d19;stroke-width:1.5"/><circle cx="103.95" cy="326.894" r="11" fill="#E98DF7" style="stroke:#000d19;stroke-width:1"/><path d="M106.919 332.535q-.578.297-1.219.438-.64.156-1.344.156-2.5 0-3.828-1.64-1.312-1.657-1.312-4.782t1.312-4.781q1.328-1.656 3.828-1.656.703 0 1.344.156.656.156 1.219.453v2.719q-.625-.579-1.219-.844-.594-.281-1.219-.281-1.343 0-2.031 1.078-.688 1.062-.688 3.156 0 2.094.688 3.172.688 1.062 2.031 1.062.625 0 1.219-.265.594-.281 1.219-.86v2.72Z"/><text x="122.95" y="332.78" fill="#D9B8FF" font-family="Helvetica" font-size="17" textLength="234">digitalocean_domain_record</text></a><a xlink:actuate="onRequest" xlink:href="#c" xlink:show="new" xlink:title="#digitalocean_project" xlink:type="simple" target="_top"><rect id="c" width="209" height="39.789" x="45.45" y="107" fill="#3D176E" rx="2.5" ry="2.5" style="stroke:#000d19;stroke-width:1.5"/><circle cx="60.45" cy="126.894" r="11" fill="#E98DF7" style="stroke:#000d19;stroke-width:1"/><path d="M63.419 132.535q-.578.297-1.219.438-.64.156-1.344.156-2.5 0-3.828-1.64-1.312-1.657-1.312-4.782t1.312-4.781q1.328-1.657 3.828-1.657.703 0 1.344.157.656.156 1.219.453v2.719q-.625-.579-1.219-.844-.594-.281-1.219-.281-1.343 0-2.031 1.078-.688 1.062-.688 3.156 0 2.094.688 3.172.688 1.062 2.031 1.062.625 0 1.219-.265.594-.281 1.219-.86v2.72Z"/><text x="79.45" y="132.78" fill="#D9B8FF" font-family="Helvetica" font-size="17" textLength="167">digitalocean_project</text></a><a xlink:actuate="onRequest" xlink:href="#d" xlink:show="new" xlink:title="#digitalocean_team" xlink:type="simple" target="_top"><rect id="d" width="196" height="39.789" x="51.95" y="7" fill="#3D176E" rx="2.5" ry="2.5" style="stroke:#000d19;stroke-width:1.5"/><circle cx="66.95" cy="26.895" r="11" fill="#E98DF7" style="stroke:#000d19;stroke-width:1"/><path d="M69.919 32.535q-.578.297-1.219.438-.64.156-1.344.156-2.5 0-3.828-1.64-1.312-1.657-1.312-4.782t1.312-4.781q1.328-1.656 3.828-1.656.703 0 1.344.156.656.156 1.219.453v2.719q-.625-.578-1.219-.844-.594-.281-1.219-.281-1.343 0-2.031 1.078-.688 1.062-.688 3.156 0 2.094.688 3.172.688 1.062 2.031 1.062.625 0 1.219-.265.594-.281 1.219-.86v2.72Z"/><text x="85.95" y="32.78" fill="#D9B8FF" font-family="Helvetica" font-size="17" textLength="154">digitalocean_team</text></a><path fill="none" d="M162.76 247.36c12.93 15.84 31.26 38.3 45.02 55.16" style="stroke:#1a83af;stroke-width:2"/><path fill="#1A83AF" d="m211.18 306.68-2.588-9.503-.572 5.628-5.628-.572 8.788 4.447z" style="stroke:#1a83af;stroke-width:2"/><path fill="none" d="M149.36 147.36c-.48 15.57-1.15 37.54-1.66 54.3" style="stroke:#1a83af;stroke-width:2"/><path fill="#1A83AF" d="m147.54 206.68 4.255-8.882-4.112 3.884-3.884-4.113 3.741 9.111z" style="stroke:#1a83af;stroke-width:2"/><path fill="none" d="M149.95 47.36v54.3" style="stroke:#1a83af;stroke-width:2"/><path fill="#1A83AF" d="m149.95 106.68 4-9-4 4-4-4 4 9z" style="stroke:#1a83af;stroke-width:2"/><path fill="none" d="M201.26 47.12c26.18 12.69 55.62 32.17 70.69 59.88 29.73 54.66 15.93 79.85 0 140-5.31 20.05-17.02 40.33-27.17 55.32" style="stroke:#1a83af;stroke-width:2"/><path fill="#1A83AF" d="m241.69 306.8 8.407-5.13-5.565 1.017-1.017-5.565-1.825 9.678z" style="stroke:#1a83af;stroke-width:2"/><path fill="none" d="M98.65 47.12C72.46 59.81 43.02 79.29 27.95 107 6 147.37 55.93 183.05 97.71 204.57" style="stroke:#1a83af;stroke-width:2"/><path fill="#1A83AF" d="m102.24 206.86-6.222-7.635 1.761 5.376-5.375 1.762 9.836.497z" style="stroke:#1a83af;stroke-width:2"/></svg>