<svg xmlns="http://www.w3.org/2000/svg" xmlns:xlink="http://www.w3.org/1999/xlink" width="3571" height="652" preserveAspectRatio="none" style="width:3571px;height:652px;background:#00000000"><a xlink:actuate="onRequest" xlink:href="#a" xlink:show="new" xlink:title="#digitalocean_snapshot" xlink:type="simple" target="_top"><rect id="a" width="227" height="39.789" x="1689.12" y="607" fill="#3D176E" rx="2.5" ry="2.5" style="stroke:#000d19;stroke-width:1.5"/><circle cx="1704.12" cy="626.894" r="11" fill="#E98DF7" style="stroke:#000d19;stroke-width:1"/><path d="M1707.089 632.535q-.578.297-1.219.438-.64.156-1.344.156-2.5 0-3.828-1.64-1.312-1.657-1.312-4.782t1.312-4.781q1.328-1.657 3.828-1.657.703 0 1.344.157.656.156 1.219.453v2.719q-.625-.578-1.219-.844-.594-.281-1.219-.281-1.344 0-2.031 1.078-.688 1.062-.688 3.156 0 2.094.688 3.172.688 1.062 2.031 1.062.625 0 1.219-.265.594-.282 1.219-.86v2.72Z"/><text x="1723.12" y="632.78" fill="#D9B8FF" font-family="Helvetica" font-size="17" textLength="185">digitalocean_snapshot</text></a><a xlink:actuate="onRequest" xlink:href="#b" xlink:show="new" xlink:title="#digitalocean_resource" xlink:type="simple" target="_top"><rect id="b" width="223" height="39.789" x="67.12" y="107" fill="#3D176E" rx="2.5" ry="2.5" style="stroke:#000d19;stroke-width:1.5"/><circle cx="82.12" cy="126.894" r="11" fill="#E98DF7" style="stroke:#000d19;stroke-width:1"/><path d="M85.089 132.535q-.578.297-1.219.438-.64.156-1.344.156-2.5 0-3.828-1.64-1.312-1.657-1.312-4.782t1.312-4.781q1.328-1.657 3.828-1.657.703 0 1.344.157.656.156 1.219.453v2.719q-.625-.579-1.219-.844-.594-.281-1.219-.281-1.343 0-2.031 1.078-.688 1.062-.688 3.156 0 2.094.688 3.172.688 1.062 2.031 1.062.625 0 1.219-.265.594-.281 1.219-.86v2.72Z"/><text x="101.12" y="132.78" fill="#D9B8FF" font-family="Helvetica" font-size="17" textLength="181">digitalocean_resource</text></a><a xlink:actuate="onRequest" xlink:href="#c" xlink:show="new" xlink:title="#digitalocean_container_registry" xlink:type="simple" target="_top"><rect id="c" width="304" height="39.789" x="467.62" y="207" fill="#3D176E" rx="2.5" ry="2.5" style="stroke:#000d19;stroke-width:1.5"/><circle cx="482.62" cy="226.894" r="11" fill="#E98DF7" style="stroke:#000d19;stroke-width:1"/><path d="M485.589 232.535q-.578.297-1.219.438-.64.156-1.344.156-2.5 0-3.828-1.64-1.312-1.657-1.312-4.782t1.312-4.781q1.328-1.656 3.828-1.656.703 0 1.344.156.656.156 1.219.453v2.719q-.625-.579-1.219-.844-.594-.281-1.219-.281-1.344 0-2.031 1.078-.688 1.062-.688 3.156 0 2.094.688 3.172.688 1.062 2.031 1.062.625 0 1.219-.265.594-.281 1.219-.86v2.72Z"/><text x="501.62" y="232.78" fill="#D9B8FF" font-family="Helvetica" font-size="17" textLength="262">digitalocean_container_registry</text></a><a xlink:actuate="onRequest" xlink:href="#d" xlink:show="new" xlink:title="#digitalocean_container_registry_repository" xlink:type="simple" target="_top"><rect id="d" width="397" height="39.789" x="396.12" y="307" fill="#3D176E" rx="2.5" ry="2.5" style="stroke:#000d19;stroke-width:1.5"/><circle cx="411.12" cy="326.894" r="11" fill="#E98DF7" style="stroke:#000d19;stroke-width:1"/><path d="M414.089 332.535q-.578.297-1.219.438-.64.156-1.344.156-2.5 0-3.828-1.64-1.312-1.657-1.312-4.782t1.312-4.781q1.328-1.656 3.828-1.656.703 0 1.344.156.656.156 1.219.453v2.719q-.625-.579-1.219-.844-.594-.281-1.219-.281-1.344 0-2.031 1.078-.688 1.062-.688 3.156 0 2.094.688 3.172.688 1.062 2.031 1.062.625 0 1.219-.265.594-.281 1.219-.86v2.72Z"/><text x="430.12" y="332.78" fill="#D9B8FF" font-family="Helvetica" font-size="17" textLength="355">digitalocean_container_registry_repository</text></a><a xlink:actuate="onRequest" xlink:href="#e" xlink:show="new" xlink:title="#digitalocean_load_balancer" xlink:type="simple" target="_top"><rect id="e" width="267" height="39.789" x="1075.12" y="307" fill="#3D176E" rx="2.5" ry="2.5" style="stroke:#000d19;stroke-width:1.5"/><circle cx="1090.12" cy="326.894" r="11" fill="#E98DF7" style="stroke:#000d19;stroke-width:1"/><path d="M1093.089 332.535q-.578.297-1.219.438-.64.156-1.344.156-2.5 0-3.828-1.64-1.312-1.657-1.312-4.782t1.312-4.781q1.328-1.656 3.828-1.656.703 0 1.344.156.656.156 1.219.453v2.719q-.625-.579-1.219-.844-.594-.281-1.219-.281-1.344 0-2.031 1.078-.688 1.062-.688 3.156 0 2.094.688 3.172.688 1.062 2.031 1.062.625 0 1.219-.265.594-.281 1.219-.86v2.72Z"/><text x="1109.12" y="332.78" fill="#D9B8FF" font-family="Helvetica" font-size="17" textLength="225">digitalocean_load_balancer</text></a><a xlink:actuate="onRequest" xlink:href="#f" xlink:show="new" xlink:title="#digitalocean_droplet" xlink:type="simple" target="_top"><rect id="f" width="211" height="39.789" x="1361.12" y="407" fill="#3D176E" rx="2.5" ry="2.5" style="stroke:#000d19;stroke-width:1.5"/><circle cx="1376.12" cy="426.894" r="11" fill="#E98DF7" style="stroke:#000d19;stroke-width:1"/><path d="M1379.089 432.535q-.578.297-1.219.438-.64.156-1.344.156-2.5 0-3.828-1.64-1.312-1.657-1.312-4.782t1.312-4.781q1.328-1.656 3.828-1.656.703 0 1.344.156.656.156 1.219.453v2.719q-.625-.579-1.219-.844-.594-.281-1.219-.281-1.344 0-2.031 1.078-.688 1.062-.688 3.156 0 2.094.688 3.172.688 1.062 2.031 1.062.625 0 1.219-.265.594-.281 1.219-.86v2.72Z"/><text x="1395.12" y="432.78" fill="#D9B8FF" font-family="Helvetica" font-size="17" textLength="169">digitalocean_droplet</text></a><a xlink:actuate="onRequest" xlink:href="#g" xlink:show="new" xlink:title="#digitalocean_alert_policy" xlink:type="simple" target="_top"><rect id="g" width="248" height="39.789" x="877.62" y="107" fill="#3D176E" rx="2.5" ry="2.5" style="stroke:#000d19;stroke-width:1.5"/><circle cx="892.62" cy="126.894" r="11" fill="#E98DF7" style="stroke:#000d19;stroke-width:1"/><path d="M895.589 132.535q-.578.297-1.219.438-.64.156-1.344.156-2.5 0-3.828-1.64-1.312-1.657-1.312-4.782t1.312-4.781q1.328-1.657 3.828-1.657.703 0 1.344.157.656.156 1.219.453v2.719q-.625-.579-1.219-.844-.594-.281-1.219-.281-1.343 0-2.031 1.078-.688 1.062-.688 3.156 0 2.094.688 3.172.688 1.062 2.031 1.062.625 0 1.219-.265.594-.281 1.219-.86v2.72Z"/><text x="911.62" y="132.78" fill="#D9B8FF" font-family="Helvetica" font-size="17" textLength="206">digitalocean_alert_policy</text></a><a xlink:actuate="onRequest" xlink:href="#h" xlink:show="new" xlink:title="#digitalocean_firewall" xlink:type="simple" target="_top"><rect id="h" width="215" height="39.789" x="1117.12" y="207" fill="#3D176E" rx="2.5" ry="2.5" style="stroke:#000d19;stroke-width:1.5"/><circle cx="1132.12" cy="226.894" r="11" fill="#E98DF7" style="stroke:#000d19;stroke-width:1"/><path d="M1135.089 232.535q-.578.297-1.219.438-.64.156-1.344.156-2.5 0-3.828-1.64-1.312-1.657-1.312-4.782t1.312-4.781q1.328-1.656 3.828-1.656.703 0 1.344.156.656.156 1.219.453v2.719q-.625-.579-1.219-.844-.594-.281-1.219-.281-1.344 0-2.031 1.078-.688 1.062-.688 3.156 0 2.094.688 3.172.688 1.062 2.031 1.062.625 0 1.219-.265.594-.281 1.219-.86v2.72Z"/><text x="1151.12" y="232.78" fill="#D9B8FF" font-family="Helvetica" font-size="17" textLength="173">digitalocean_firewall</text></a><a xlink:actuate="onRequest" xlink:href="#i" xlink:show="new" xlink:title="#digitalocean_ssh_key" xlink:type="simple" target="_top"><rect id="i" width="218" height="39.789" x="1231.62" y="107" fill="#3D176E" rx="2.5" ry="2.5" style="stroke:#000d19;stroke-width:1.5"/><circle cx="1246.62" cy="126.894" r="11" fill="#E98DF7" style="stroke:#000d19;stroke-width:1"/><path d="M1249.589 132.535q-.578.297-1.219.438-.64.156-1.344.156-2.5 0-3.828-1.64-1.312-1.657-1.312-4.782t1.312-4.781q1.328-1.657 3.828-1.657.703 0 1.344.157.656.156 1.219.453v2.719q-.625-.579-1.219-.844-.594-.281-1.219-.281-1.344 0-2.031 1.078-.688 1.062-.688 3.156 0 2.094.688 3.172.688 1.062 2.031 1.062.625 0 1.219-.265.594-.281 1.219-.86v2.72Z"/><text x="1265.62" y="132.78" fill="#D9B8FF" font-family="Helvetica" font-size="17" textLength="176">digitalocean_ssh_key</text></a><a xlink:actuate="onRequest" xlink:href="#j" xlink:show="new" xlink:title="#digitalocean_domain_record" xlink:type="simple" target="_top"><rect id="j" width="276" height="39.789" x="2921.62" y="407" fill="#3D176E" rx="2.5" ry="2.5" style="stroke:#000d19;stroke-width:1.5"/><circle cx="2936.62" cy="426.894" r="11" fill="#E98DF7" style="stroke:#000d19;stroke-width:1"/><path d="M2939.589 432.535q-.578.297-1.219.438-.64.156-1.344.156-2.5 0-3.828-1.64-1.312-1.657-1.312-4.782t1.312-4.781q1.328-1.656 3.828-1.656.703 0 1.344.156.656.156 1.219.453v2.719q-.625-.579-1.219-.844-.594-.281-1.219-.281-1.343 0-2.031 1.078-.688 1.062-.688 3.156 0 2.094.688 3.172.688 1.062 2.031 1.062.625 0 1.219-.265.594-.281 1.219-.86v2.72Z"/><text x="2955.62" y="432.78" fill="#D9B8FF" font-family="Helvetica" font-size="17" textLength="234">digitalocean_domain_record</text></a><a xlink:actuate="onRequest" xlink:href="#k" xlink:show="new" xlink:title="#digitalocean_volume" xlink:type="simple" target="_top"><rect id="k" width="215" height="39.789" x="1406.12" y="507" fill="#3D176E" rx="2.5" ry="2.5" style="stroke:#000d19;stroke-width:1.5"/><circle cx="1421.12" cy="526.894" r="11" fill="#E98DF7" style="stroke:#000d19;stroke-width:1"/><path d="M1424.089 532.535q-.578.297-1.219.438-.64.156-1.344.156-2.5 0-3.828-1.64-1.312-1.657-1.312-4.782t1.312-4.781q1.328-1.657 3.828-1.657.703 0 1.344.157.656.156 1.219.453v2.719q-.625-.578-1.219-.844-.594-.281-1.219-.281-1.344 0-2.031 1.078-.688 1.062-.688 3.156 0 2.094.688 3.172.688 1.062 2.031 1.062.625 0 1.219-.265.594-.282 1.219-.86v2.72Z"/><text x="1440.12" y="532.78" fill="#D9B8FF" font-family="Helvetica" font-size="17" textLength="173">digitalocean_volume</text></a><a xlink:actuate="onRequest" xlink:href="#l" xlink:show="new" xlink:title="#digitalocean_floating_ip" xlink:type="simple" target="_top"><rect id="l" width="240" height="39.789" x="2346.62" y="507" fill="#3D176E" rx="2.5" ry="2.5" style="stroke:#000d19;stroke-width:1.5"/><circle cx="2361.62" cy="526.894" r="11" fill="#E98DF7" style="stroke:#000d19;stroke-width:1"/><path d="M2364.589 532.535q-.578.297-1.219.438-.64.156-1.344.156-2.5 0-3.828-1.64-1.312-1.657-1.312-4.782t1.312-4.781q1.328-1.657 3.828-1.657.703 0 1.344.157.656.156 1.219.453v2.719q-.625-.578-1.219-.844-.594-.281-1.219-.281-1.343 0-2.031 1.078-.688 1.062-.688 3.156 0 2.094.688 3.172.688 1.062 2.031 1.062.625 0 1.219-.265.594-.282 1.219-.86v2.72Z"/><text x="2380.62" y="532.78" fill="#D9B8FF" font-family="Helvetica" font-size="17" textLength="198">digitalocean_floating_ip</text></a><a xlink:actuate="onRequest" xlink:href="#m" xlink:show="new" xlink:title="#digitalocean_kubernetes_cluster" xlink:type="simple" target="_top"><rect id="m" width="311" height="39.789" x="1520.12" y="307" fill="#3D176E" rx="2.5" ry="2.5" style="stroke:#000d19;stroke-width:1.5"/><circle cx="1535.12" cy="326.894" r="11" fill="#E98DF7" style="stroke:#000d19;stroke-width:1"/><path d="M1538.089 332.535q-.578.297-1.219.438-.64.156-1.344.156-2.5 0-3.828-1.64-1.312-1.657-1.312-4.782t1.312-4.781q1.328-1.656 3.828-1.656.703 0 1.344.156.656.156 1.219.453v2.719q-.625-.579-1.219-.844-.594-.281-1.219-.281-1.344 0-2.031 1.078-.688 1.062-.688 3.156 0 2.094.688 3.172.688 1.062 2.031 1.062.625 0 1.219-.265.594-.281 1.219-.86v2.72Z"/><text x="1554.12" y="332.78" fill="#D9B8FF" font-family="Helvetica" font-size="17" textLength="269">digitalocean_kubernetes_cluster</text></a><a xlink:actuate="onRequest" xlink:href="#n" xlink:show="new" xlink:title="#digitalocean_container_registry_repository_tag" xlink:type="simple" target="_top"><rect id="n" width="433" height="39.789" x="253.12" y="407" fill="#3D176E" rx="2.5" ry="2.5" style="stroke:#000d19;stroke-width:1.5"/><circle cx="268.12" cy="426.894" r="11" fill="#E98DF7" style="stroke:#000d19;stroke-width:1"/><path d="M271.089 432.535q-.578.297-1.219.438-.64.156-1.344.156-2.5 0-3.828-1.64-1.312-1.657-1.312-4.782t1.312-4.781q1.328-1.656 3.828-1.656.703 0 1.344.156.656.156 1.219.453v2.719q-.625-.579-1.219-.844-.594-.281-1.219-.281-1.344 0-2.031 1.078-.688 1.062-.688 3.156 0 2.094.688 3.172.688 1.062 2.031 1.062.625 0 1.219-.265.594-.281 1.219-.86v2.72Z"/><text x="287.12" y="432.78" fill="#D9B8FF" font-family="Helvetica" font-size="17" textLength="391">digitalocean_container_registry_repository_tag</text></a><a xlink:actuate="onRequest" xlink:href="#o" xlink:show="new" xlink:title="#digitalocean_tag" xlink:type="simple" target="_top"><rect id="o" width="179" height="39.789" x="2010.12" y="107" fill="#3D176E" rx="2.5" ry="2.5" style="stroke:#000d19;stroke-width:1.5"/><circle cx="2025.12" cy="126.894" r="11" fill="#E98DF7" style="stroke:#000d19;stroke-width:1"/><path d="M2028.089 132.535q-.578.297-1.219.438-.64.156-1.344.156-2.5 0-3.828-1.64-1.312-1.657-1.312-4.782t1.312-4.781q1.328-1.657 3.828-1.657.703 0 1.344.157.656.156 1.219.453v2.719q-.625-.579-1.219-.844-.594-.281-1.219-.281-1.344 0-2.031 1.078-.688 1.062-.688 3.156 0 2.094.688 3.172.688 1.062 2.031 1.062.625 0 1.219-.265.594-.281 1.219-.86v2.72Z"/><text x="2044.12" y="132.78" fill="#D9B8FF" font-family="Helvetica" font-size="17" textLength="137">digitalocean_tag</text></a><a xlink:actuate="onRequest" xlink:href="#p" xlink:show="new" xlink:title="#digitalocean_team" xlink:type="simple" target="_top"><rect id="p" width="196" height="39.789" x="1702.62" y="7" fill="#3D176E" rx="2.5" ry="2.5" style="stroke:#000d19;stroke-width:1.5"/><circle cx="1717.62" cy="26.895" r="11" fill="#E98DF7" style="stroke:#000d19;stroke-width:1"/><path d="M1720.589 32.535q-.578.297-1.219.438-.64.156-1.344.156-2.5 0-3.828-1.64-1.312-1.657-1.312-4.782t1.312-4.781q1.328-1.656 3.828-1.656.703 0 1.344.156.656.156 1.219.453v2.719q-.625-.578-1.219-.844-.594-.281-1.219-.281-1.344 0-2.031 1.078-.688 1.062-.688 3.156 0 2.094.688 3.172.688 1.062 2.031 1.062.625 0 1.219-.265.594-.281 1.219-.86v2.72Z"/><text x="1736.62" y="32.78" fill="#D9B8FF" font-family="Helvetica" font-size="17" textLength="154">digitalocean_team</text></a><a xlink:actuate="onRequest" xlink:href="#q" xlink:show="new" xlink:title="#digitalocean_app" xlink:type="simple" target="_top"><rect id="q" width="182" height="39.789" x="2031.62" y="407" fill="#3D176E" rx="2.5" ry="2.5" style="stroke:#000d19;stroke-width:1.5"/><circle cx="2046.62" cy="426.894" r="11" fill="#E98DF7" style="stroke:#000d19;stroke-width:1"/><path d="M2049.589 432.535q-.578.297-1.219.438-.64.156-1.344.156-2.5 0-3.828-1.64-1.312-1.657-1.312-4.782t1.312-4.781q1.328-1.656 3.828-1.656.703 0 1.344.156.656.156 1.219.453v2.719q-.625-.579-1.219-.844-.594-.281-1.219-.281-1.344 0-2.031 1.078-.688 1.062-.688 3.156 0 2.094.688 3.172.688 1.062 2.031 1.062.625 0 1.219-.265.594-.281 1.219-.86v2.72Z"/><text x="2065.62" y="432.78" fill="#D9B8FF" font-family="Helvetica" font-size="17" textLength="140">digitalocean_app</text></a><a xlink:actuate="onRequest" xlink:href="#r" xlink:show="new" xlink:title="#digitalocean_database" xlink:type="simple" target="_top"><rect id="r" width="227" height="39.789" x="2009.12" y="307" fill="#3D176E" rx="2.5" ry="2.5" style="stroke:#000d19;stroke-width:1.5"/><circle cx="2024.12" cy="326.894" r="11" fill="#E98DF7" style="stroke:#000d19;stroke-width:1"/><path d="M2027.089 332.535q-.578.297-1.219.438-.64.156-1.344.156-2.5 0-3.828-1.64-1.312-1.657-1.312-4.782t1.312-4.781q1.328-1.656 3.828-1.656.703 0 1.344.156.656.156 1.219.453v2.719q-.625-.579-1.219-.844-.594-.281-1.219-.281-1.344 0-2.031 1.078-.688 1.062-.688 3.156 0 2.094.688 3.172.688 1.062 2.031 1.062.625 0 1.219-.265.594-.281 1.219-.86v2.72Z"/><text x="2043.12" y="332.78" fill="#D9B8FF" font-family="Helvetica" font-size="17" textLength="185">digitalocean_database</text></a><a xlink:actuate="onRequest" xlink:href="#s" xlink:show="new" xlink:title="#digitalocean_image" xlink:type="simple" target="_top"><rect id="s" width="204" height="39.789" x="877.62" y="207" fill="#3D176E" rx="2.5" ry="2.5" style="stroke:#000d19;stroke-width:1.5"/><circle cx="892.62" cy="226.894" r="11" fill="#E98DF7" style="stroke:#000d19;stroke-width:1"/><path d="M895.589 232.535q-.578.297-1.219.438-.64.156-1.344.156-2.5 0-3.828-1.64-1.312-1.657-1.312-4.782t1.312-4.781q1.328-1.656 3.828-1.656.703 0 1.344.156.656.156 1.219.453v2.719q-.625-.579-1.219-.844-.594-.281-1.219-.281-1.343 0-2.031 1.078-.688 1.062-.688 3.156 0 2.094.688 3.172.688 1.062 2.031 1.062.625 0 1.219-.265.594-.281 1.219-.86v2.72Z"/><text x="911.62" y="232.78" fill="#D9B8FF" font-family="Helvetica" font-size="17" textLength="162">digitalocean_image</text></a><a xlink:actuate="onRequest" xlink:href="#t" xlink:show="new" xlink:title="#digitalocean_project" xlink:type="simple" target="_top"><rect id="t" width="209" height="39.789" x="2235.12" y="207" fill="#3D176E" rx="2.5" ry="2.5" style="stroke:#000d19;stroke-width:1.5"/><circle cx="2250.12" cy="226.894" r="11" fill="#E98DF7" style="stroke:#000d19;stroke-width:1"/><path d="M2253.089 232.535q-.578.297-1.219.438-.64.156-1.344.156-2.5 0-3.828-1.64-1.312-1.657-1.312-4.782t1.312-4.781q1.328-1.656 3.828-1.656.703 0 1.344.156.656.156 1.219.453v2.719q-.625-.579-1.219-.844-.594-.281-1.219-.281-1.343 0-2.031 1.078-.688 1.062-.688 3.156 0 2.094.688 3.172.688 1.062 2.031 1.062.625 0 1.219-.265.594-.281 1.219-.86v2.72Z"/><text x="2269.12" y="232.78" fill="#D9B8FF" font-family="Helvetica" font-size="17" textLength="167">digitalocean_project</text></a><a xlink:actuate="onRequest" xlink:href="#u" xlink:show="new" xlink:title="#digitalocean_region" xlink:type="simple" target="_top"><rect id="u" width="205" height="39.789" x="1698.12" y="107" fill="#3D176E" rx="2.5" ry="2.5" style="stroke:#000d19;stroke-width:1.5"/><circle cx="1713.12" cy="126.894" r="11" fill="#E98DF7" style="stroke:#000d19;stroke-width:1"/><path d="M1716.089 132.535q-.578.297-1.219.438-.64.156-1.344.156-2.5 0-3.828-1.64-1.312-1.657-1.312-4.782t1.312-4.781q1.328-1.657 3.828-1.657.703 0 1.344.157.656.156 1.219.453v2.719q-.625-.579-1.219-.844-.594-.281-1.219-.281-1.344 0-2.031 1.078-.688 1.062-.688 3.156 0 2.094.688 3.172.688 1.062 2.031 1.062.625 0 1.219-.265.594-.281 1.219-.86v2.72Z"/><text x="1732.12" y="132.78" fill="#D9B8FF" font-family="Helvetica" font-size="17" textLength="163">digitalocean_region</text></a><a xlink:actuate="onRequest" xlink:href="#v" xlink:show="new" xlink:title="#digitalocean_cdn_endpoint" xlink:type="simple" target="_top"><rect id="v" width="264" height="39.789" x="2834.62" y="107" fill="#3D176E" rx="2.5" ry="2.5" style="stroke:#000d19;stroke-width:1.5"/><circle cx="2849.62" cy="126.894" r="11" fill="#E98DF7" style="stroke:#000d19;stroke-width:1"/><path d="M2852.589 132.535q-.578.297-1.219.438-.64.156-1.344.156-2.5 0-3.828-1.64-1.312-1.657-1.312-4.782t1.312-4.781q1.328-1.657 3.828-1.657.703 0 1.344.157.656.156 1.219.453v2.719q-.625-.579-1.219-.844-.594-.281-1.219-.281-1.343 0-2.031 1.078-.688 1.062-.688 3.156 0 2.094.688 3.172.688 1.062 2.031 1.062.625 0 1.219-.265.594-.281 1.219-.86v2.72Z"/><text x="2868.62" y="132.78" fill="#D9B8FF" font-family="Helvetica" font-size="17" textLength="222">digitalocean_cdn_endpoint</text></a><a xlink:actuate="onRequest" xlink:href="#w" xlink:show="new" xlink:title="#digitalocean_space" xlink:type="simple" target="_top"><rect id="w" width="198" height="39.789" x="2555.62" y="307" fill="#3D176E" rx="2.5" ry="2.5" style="stroke:#000d19;stroke-width:1.5"/><circle cx="2570.62" cy="326.894" r="11" fill="#E98DF7" style="stroke:#000d19;stroke-width:1"/><path d="M2573.589 332.535q-.578.297-1.219.438-.64.156-1.344.156-2.5 0-3.828-1.64-1.312-1.657-1.312-4.782t1.312-4.781q1.328-1.656 3.828-1.656.703 0 1.344.156.656.156 1.219.453v2.719q-.625-.579-1.219-.844-.594-.281-1.219-.281-1.343 0-2.031 1.078-.688 1.062-.688 3.156 0 2.094.688 3.172.688 1.062 2.031 1.062.625 0 1.219-.265.594-.281 1.219-.86v2.72Z"/><text x="2589.62" y="332.78" fill="#D9B8FF" font-family="Helvetica" font-size="17" textLength="156">digitalocean_space</text></a><a xlink:actuate="onRequest" xlink:href="#x" xlink:show="new" xlink:title="#digitalocean_certificate" xlink:type="simple" target="_top"><rect id="x" width="235" height="39.789" x="3205.12" y="107" fill="#3D176E" rx="2.5" ry="2.5" style="stroke:#000d19;stroke-width:1.5"/><circle cx="3220.12" cy="126.894" r="11" fill="#E98DF7" style="stroke:#000d19;stroke-width:1"/><path d="M3223.089 132.535q-.578.297-1.219.438-.64.156-1.344.156-2.5 0-3.828-1.64-1.312-1.657-1.312-4.782t1.312-4.781q1.328-1.657 3.828-1.657.703 0 1.344.157.656.156 1.219.453v2.719q-.625-.579-1.219-.844-.594-.281-1.219-.281-1.343 0-2.031 1.078-.688 1.062-.688 3.156 0 2.094.688 3.172.688 1.062 2.031 1.062.625 0 1.219-.265.594-.281 1.219-.86v2.72Z"/><text x="3239.12" y="132.78" fill="#D9B8FF" font-family="Helvetica" font-size="17" textLength="193">digitalocean_certificate</text></a><a xlink:actuate="onRequest" xlink:href="#y" xlink:show="new" xlink:title="#digitalocean_vpc" xlink:type="simple" target="_top"><rect id="y" width="180" height="39.789" x="1509.62" y="207" fill="#3D176E" rx="2.5" ry="2.5" style="stroke:#000d19;stroke-width:1.5"/><circle cx="1524.62" cy="226.894" r="11" fill="#E98DF7" style="stroke:#000d19;stroke-width:1"/><path d="M1527.589 232.535q-.578.297-1.219.438-.64.156-1.344.156-2.5 0-3.828-1.64-1.312-1.657-1.312-4.782t1.312-4.781q1.328-1.656 3.828-1.656.703 0 1.344.156.656.156 1.219.453v2.719q-.625-.579-1.219-.844-.594-.281-1.219-.281-1.344 0-2.031 1.078-.688 1.062-.688 3.156 0 2.094.688 3.172.688 1.062 2.031 1.062.625 0 1.219-.265.594-.281 1.219-.86v2.72Z"/><text x="1543.62" y="232.78" fill="#D9B8FF" font-family="Helvetica" font-size="17" textLength="138">digitalocean_vpc</text></a><a xlink:actuate="onRequest" xlink:href="#z" xlink:show="new" xlink:title="#digitalocean_domain" xlink:type="simple" target="_top"><rect id="z" width="215" height="39.789" x="2860.12" y="307" fill="#3D176E" rx="2.5" ry="2.5" style="stroke:#000d19;stroke-width:1.5"/><circle cx="2875.12" cy="326.894" r="11" fill="#E98DF7" style="stroke:#000d19;stroke-width:1"/><path d="M2878.089 332.535q-.578.297-1.219.438-.64.156-1.344.156-2.5 0-3.828-1.64-1.312-1.657-1.312-4.782t1.312-4.781q1.328-1.656 3.828-1.656.703 0 1.344.156.656.156 1.219.453v2.719q-.625-.579-1.219-.844-.594-.281-1.219-.281-1.343 0-2.031 1.078-.688 1.062-.688 3.156 0 2.094.688 3.172.688 1.062 2.031 1.062.625 0 1.219-.265.594-.281 1.219-.86v2.72Z"/><text x="2894.12" y="332.78" fill="#D9B8FF" font-family="Helvetica" font-size="17" textLength="173">digitalocean_domain</text></a><path fill="none" d="M614.68 247.36c-3.97 15.57-9.57 37.54-13.85 54.3" style="stroke:#1a83af;stroke-width:2"/><path fill="#1A83AF" d="m599.55 306.68 6.112-7.723-4.87 2.88-2.88-4.869 1.638 9.712z" style="stroke:#1a83af;stroke-width:2"/><path fill="none" d="M570.22 347.13c-20.73 16.25-50.51 39.6-72.29 56.68" style="stroke:#1a83af;stroke-width:2"/><path fill="#1A83AF" d="m493.96 406.92 9.549-2.414-5.617-.674.675-5.617-4.607 8.705z" style="stroke:#1a83af;stroke-width:2"/><path fill="none" d="M1258.67 347.01c43.83 16.65 107.42 40.8 152.72 58.01" style="stroke:#1a83af;stroke-width:2"/><path fill="#1A83AF" d="m1416.27 406.87-6.978-6.95 2.308 5.165-5.165 2.308 9.835-.523z" style="stroke:#1a83af;stroke-width:2"/><path fill="none" d="M1475.91 447.36c7.53 15.71 18.18 37.92 26.24 54.73" style="stroke:#1a83af;stroke-width:2"/><path fill="#1A83AF" d="m1504.35 506.68-.297-9.844-1.87 5.338-5.339-1.87 7.506 6.376z" style="stroke:#1a83af;stroke-width:2"/><path fill="none" d="M1572.22 438.35c185.75 18.2 570.06 55.86 768.99 75.36" style="stroke:#1a83af;stroke-width:2"/><path fill="#1A83AF" d="m2346.46 514.22-8.57-4.854 3.594 4.37-4.37 3.592 9.346-3.108z" style="stroke:#1a83af;stroke-width:2"/><path fill="none" d="M1514.6 447.03c35.23 14.69 83.74 36.42 124.02 59.97 50.71 29.66 105.05 71.26 136.71 96.61" style="stroke:#1a83af;stroke-width:2"/><path fill="#1A83AF" d="m1779.45 606.92-4.517-8.752.617 5.623-5.623.617 9.523 2.512z" style="stroke:#1a83af;stroke-width:2"/><path fill="none" d="M1156.77 247.02c-60.88 20.44-135.46 55.98-99.15 99.98 37.16 45.02 190.1 64.68 298.02 73.05" style="stroke:#1a83af;stroke-width:2"/><path fill="#1A83AF" d="m1360.75 420.45-8.678-4.658 3.692 4.287-4.286 3.691 9.272-3.32z" style="stroke:#1a83af;stroke-width:2"/><path fill="none" d="M1569.69 547.01c49.29 16.72 120.9 41 171.68 58.22" style="stroke:#1a83af;stroke-width:2"/><path fill="#1A83AF" d="m1746.22 606.87-7.231-6.687 2.498 5.076-5.076 2.498 9.809-.887z" style="stroke:#1a83af;stroke-width:2"/><path fill="none" d="M1634.83 347.13c-35.25 16.52-86.12 40.38-122.68 57.52" style="stroke:#1a83af;stroke-width:2"/><path fill="#1A83AF" d="m1507.31 406.92 9.847-.183-5.316-1.932 1.932-5.317-6.463 7.432z" style="stroke:#1a83af;stroke-width:2"/><path fill="none" d="M1702.37 30.43C1464.34 36.92 838.04 57.66 317.62 107c-7.19.68-14.58 1.46-22.03 2.3" style="stroke:#1a83af;stroke-width:2"/><path fill="#1A83AF" d="m290.43 109.9 9.398 2.946-4.43-3.517 3.516-4.43-8.484 5.001z" style="stroke:#1a83af;stroke-width:2"/><path fill="none" d="M1711.38 47.01c-79.38 16.91-195.11 41.57-276.09 58.82" style="stroke:#1a83af;stroke-width:2"/><path fill="#1A83AF" d="m1430 106.96 9.636 2.039-4.745-3.08 3.08-4.745-7.971 5.786z" style="stroke:#1a83af;stroke-width:2"/><path fill="none" d="M1898.66 30.51c123.84 5.42 342.32 22.54 520.96 76.49 95.9 28.96 115.26 49.89 202 100 69.38 40.08 112.19 29.36 150 100 8.39 15.67 11.79 26.69 0 40-36 40.65-380.82 64.67-552.65 74.21" style="stroke:#1a83af;stroke-width:2"/><path fill="#1A83AF" d="m2213.93 421.49 9.204 3.506-4.211-3.777 3.777-4.211-8.77 4.482z" style="stroke:#1a83af;stroke-width:2"/><path fill="none" d="M1702.52 29.31C1343.02 34.52 115.19 56 49.62 107c-43.62 33.92-36 63.74-36 119v102c0 111.95 114.32 88.4 222 119 217.26 61.74 894.82 75.24 1165.06 78.18" style="stroke:#1a83af;stroke-width:2"/><path fill="#1A83AF" d="m1405.81 525.24-8.954-4.103 3.954 4.046-4.045 3.954 9.045-3.897z" style="stroke:#1a83af;stroke-width:2"/><path fill="none" d="M1898.92 33.16c107.45 7.93 269.45 27.43 307.7 73.84 49.78 60.4-22.54 153.55-61.67 196.23" style="stroke:#1a83af;stroke-width:2"/><path fill="#1A83AF" d="m2141.5 306.95 9.05-3.885-5.653.216-.217-5.652-3.18 9.321z" style="stroke:#1a83af;stroke-width:2"/><path fill="none" d="M1702.29 28.9c-229.71 3.12-786.46 16.97-842.67 78.1-83.74 91.06 26.69 192.69 141 240 115.27 47.71 257.98 66.61 354.88 74.1" style="stroke:#1a83af;stroke-width:2"/><path fill="#1A83AF" d="m1360.66 421.49-8.665-4.682 3.68 4.296-4.297 3.68 9.282-3.294z" style="stroke:#1a83af;stroke-width:2"/><path fill="none" d="M1702.47 30.15c-118.46 5.09-322.34 21.9-487.85 76.85-34.74 11.53-39.52 23.12-72 40-39.23 20.38-84.53 42.2-117.4 57.74" style="stroke:#1a83af;stroke-width:2"/><path fill="#1A83AF" d="m1020.46 206.98 9.846-.22-5.323-1.912 1.912-5.324-6.435 7.456z" style="stroke:#1a83af;stroke-width:2"/><path fill="none" d="M1898.79 34.92c119.08 10.03 311.18 31.95 369.83 72.08 33.46 22.89 53.63 67.21 63.51 94.83" style="stroke:#1a83af;stroke-width:2"/><path fill="#1A83AF" d="m2333.86 206.78.825-9.814-2.466 5.09-5.091-2.465 6.732 7.189z" style="stroke:#1a83af;stroke-width:2"/><path fill="none" d="M1800.62 47.36v54.3" style="stroke:#1a83af;stroke-width:2"/><path fill="#1A83AF" d="m1800.62 106.68 4-9-4 4-4-4 4 9z" style="stroke:#1a83af;stroke-width:2"/><path fill="none" d="M1702.57 29.06C1418.26 32.83 607.07 48.61 503.62 107c-91.29 51.52-98.53 98.57-125 200-4.49 17.2-7.38 23.83 0 40 10.9 23.89 32.98 43.34 52.67 56.97" style="stroke:#1a83af;stroke-width:2"/><path fill="#1A83AF" d="m435.71 406.96-5.197-8.366 1.061 5.556-5.556 1.062 9.692 1.748z" style="stroke:#1a83af;stroke-width:2"/><path fill="none" d="M1898.66 34.36c180.18 11.99 576.08 39.71 908.96 72.64 7.08.7 14.34 1.45 21.66 2.23" style="stroke:#1a83af;stroke-width:2"/><path fill="#1A83AF" d="m2834.36 109.78-8.527-4.93 3.555 4.401-4.4 3.555 9.372-3.026z" style="stroke:#1a83af;stroke-width:2"/><path fill="none" d="M1898.85 37.14C2002.64 48.2 2170.5 70.08 2311.62 107c122.59 32.07 168.5 20.28 267 100 31.75 25.7 54.37 68.36 66.29 95.01" style="stroke:#1a83af;stroke-width:2"/><path fill="#1A83AF" d="m2647.01 306.8.031-9.849-2.047 5.273-5.273-2.047 7.289 6.623z" style="stroke:#1a83af;stroke-width:2"/><path fill="none" d="M1757.47 47.14c-95.16 42.27-317.19 141.35-349.85 159.86-27.24 15.44-31.42 23.44-58 40-33.12 20.64-71.86 42.16-100.34 57.52" style="stroke:#1a83af;stroke-width:2"/><path fill="#1A83AF" d="m1244.79 306.94 9.82-.749-5.419-1.623 1.624-5.42-6.025 7.792z" style="stroke:#1a83af;stroke-width:2"/><path fill="none" d="M1898.9 31.17C2124.99 39.01 2699.33 62 3177.62 107c7.19.68 14.57 1.44 22.01 2.25" style="stroke:#1a83af;stroke-width:2"/><path fill="#1A83AF" d="m3204.79 109.83-8.497-4.98 3.528 4.422-4.421 3.528 9.39-2.97z" style="stroke:#1a83af;stroke-width:2"/><path fill="none" d="M1764.09 47.02c-25.27 14.3-58.68 35.57-83.47 59.98-29.17 28.72-54.17 69.41-68.4 94.99" style="stroke:#1a83af;stroke-width:2"/><path fill="#1A83AF" d="m1609.69 206.58 7.844-5.955-5.433 1.575-1.575-5.433-.836 9.813z" style="stroke:#1a83af;stroke-width:2"/><path fill="none" d="M1702.35 39.86c-126.97 15.35-354.87 43-549.73 67.14-7.14.88-14.46 1.79-21.86 2.72" style="stroke:#1a83af;stroke-width:2"/><path fill="#1A83AF" d="m1125.63 110.36 9.424 2.863-4.462-3.478 3.478-4.461-8.44 5.076z" style="stroke:#1a83af;stroke-width:2"/><path fill="none" d="M1898.78 29.58C2245.62 35.55 3395.95 58.9 3457.62 107c43.57 33.98 36 63.74 36 119v102c0 134.4-147.94 85.13-278 119-214.46 55.85-473.26 72.38-623.68 77.17" style="stroke:#1a83af;stroke-width:2"/><path fill="#1A83AF" d="m2586.63 524.33 9.121 3.715-4.124-3.872 3.873-4.124-8.87 4.281z" style="stroke:#1a83af;stroke-width:2"/><path fill="none" d="M1898.75 29.93C2250.41 37.2 3430.39 64.65 3498.62 107c51.39 31.89 66 58.52 66 119v202c0 165.78-1247.71 192.76-1643.24 197.15" style="stroke:#1a83af;stroke-width:2"/><path fill="#1A83AF" d="m1916.2 625.21 9.045 3.897-4.045-3.954 3.954-4.046-8.954 4.103z" style="stroke:#1a83af;stroke-width:2"/><path fill="none" d="M1702.46 31.48C1471.64 40.24 899.84 65.54 712.62 107c-122.09 27.04-192-2.95-263 100-28.83 41.81 31.29 76.85 82.68 97.84" style="stroke:#1a83af;stroke-width:2"/><path fill="#1A83AF" d="m537.24 306.83-6.87-7.056 2.228 5.199-5.2 2.228 9.842-.371z" style="stroke:#1a83af;stroke-width:2"/><path fill="none" d="M1858.63 47.01c51.08 16.74 125.32 41.08 177.88 58.3" style="stroke:#1a83af;stroke-width:2"/><path fill="#1A83AF" d="m2041.52 106.96-7.303-6.608 2.553 5.048-5.049 2.553 9.799-.993z" style="stroke:#1a83af;stroke-width:2"/><path fill="none" d="M1898.88 30.25c298.36 7.32 1176.1 32.53 1217.74 76.75 78.76 83.62-4.38 236.78-41.26 295.36" style="stroke:#1a83af;stroke-width:2"/><path fill="#1A83AF" d="m3072.58 406.74 8.202-5.453-5.521 1.232-1.232-5.52-1.449 9.741z" style="stroke:#1a83af;stroke-width:2"/><path fill="none" d="M1702.25 29.49c-218.6 4.32-738.49 20.45-903.63 77.51-61.18 21.14-121.62 68.26-154.25 96.45" style="stroke:#1a83af;stroke-width:2"/><path fill="#1A83AF" d="m640.53 206.79 9.42-2.876-5.643-.4.4-5.643-4.177 8.919z" style="stroke:#1a83af;stroke-width:2"/><path fill="none" d="M1898.72 28.14c208.8 1.62 690.21 12.64 837.9 78.86 98.68 44.24 181.47 148.81 215.01 195.63" style="stroke:#1a83af;stroke-width:2"/><path fill="#1A83AF" d="m2954.72 306.97-1.963-9.651-.938 5.578-5.578-.937 8.479 5.01z" style="stroke:#1a83af;stroke-width:2"/><path fill="none" d="M1850.49 47.02c25.92 12.74 55.22 32.31 70.13 59.98 8.43 15.65 7.47 23.87 0 40-36.91 79.66-129.59 131.46-189.79 157.92" style="stroke:#1a83af;stroke-width:2"/><path fill="#1A83AF" d="m1726.19 306.93 9.848.094-5.26-2.08 2.082-5.26-6.67 7.246z" style="stroke:#1a83af;stroke-width:2"/><path fill="none" d="M1728.94 47.05c-51.25 14.42-121.46 35.82-181.32 59.95-36.87 14.86-43.22 24.92-80 40-56.05 22.97-121.45 43.92-170.27 58.46" style="stroke:#1a83af;stroke-width:2"/><path fill="#1A83AF" d="m1292.38 206.94 9.767 1.267-4.975-2.693 2.693-4.975-7.485 6.401z" style="stroke:#1a83af;stroke-width:2"/><path fill="none" d="M2122.62 347.36v54.3" style="stroke:#1a83af;stroke-width:2"/><path fill="#1A83AF" d="m2122.62 406.68 4-9-4 4-4-4 4 9z" style="stroke:#1a83af;stroke-width:2"/><path fill="none" d="M983.81 247.08c6.94 26.81 23.48 75.09 56.81 99.92 48.77 36.33 205.86 58.28 315 69.52" style="stroke:#1a83af;stroke-width:2"/><path fill="#1A83AF" d="m1360.78 417.05-8.54-4.905 3.566 4.39-4.39 3.568 9.364-3.053z" style="stroke:#1a83af;stroke-width:2"/><path fill="none" d="M2337.03 247.23c-7.21 44.79-32.03 155.63-105.41 199.77-99.29 59.74-429.39 74.39-605.32 77.93" style="stroke:#1a83af;stroke-width:2"/><path fill="#1A83AF" d="m1621.14 525.03 9.078 3.82-4.079-3.92 3.92-4.08-8.919 4.18z" style="stroke:#1a83af;stroke-width:2"/><path fill="none" d="M2400.73 247.01c53.92 16.78 132.34 41.18 187.73 58.41" style="stroke:#1a83af;stroke-width:2"/><path fill="#1A83AF" d="m2593.41 306.96-7.404-6.495 2.63 5.009-5.008 2.63 9.782-1.144z" style="stroke:#1a83af;stroke-width:2"/><path fill="none" d="M2297.52 247.01c-36.71 16.58-89.91 40.61-127.98 57.8" style="stroke:#1a83af;stroke-width:2"/><path fill="#1A83AF" d="m2164.97 306.87 9.849-.057-5.292-2 2-5.292-6.557 7.349z" style="stroke:#1a83af;stroke-width:2"/><path fill="none" d="M2331.9 247.18c-12.15 27.39-38.52 76.92-78.28 99.82-112.36 64.71-487.25 76.94-676.17 78.9" style="stroke:#1a83af;stroke-width:2"/><path fill="#1A83AF" d="m1572.19 425.95 9.045 3.897-4.045-3.954 3.954-4.046-8.954 4.103z" style="stroke:#1a83af;stroke-width:2"/><path fill="none" d="M2444.38 244.35c113.48 17.71 293.86 45.85 410.4 64.04" style="stroke:#1a83af;stroke-width:2"/><path fill="#1A83AF" d="m2859.93 309.2-8.273-5.344 3.333 4.57-4.57 3.334 9.51-2.56z" style="stroke:#1a83af;stroke-width:2"/><path fill="none" d="M2234.99 237.07c-204.66 17.73-657.96 57.01-887.46 76.89" style="stroke:#1a83af;stroke-width:2"/><path fill="#1A83AF" d="m1342.48 314.4 9.32 3.186-4.34-3.63 3.63-4.339-8.61 4.783z" style="stroke:#1a83af;stroke-width:2"/><path fill="none" d="M2234.77 243.47c-114.98 16.98-299.8 44.25-425.21 62.76" style="stroke:#1a83af;stroke-width:2"/><path fill="#1A83AF" d="m1804.38 307 9.486 2.649-4.54-3.376 3.377-4.54-8.323 5.267z" style="stroke:#1a83af;stroke-width:2"/><path fill="none" d="M2352.45 247.24c10.1 15.67 24.11 38.57 34.17 59.76 32.48 68.37 60.2 153.71 72.78 194.75" style="stroke:#1a83af;stroke-width:2"/><path fill="#1A83AF" d="m2460.93 506.77 1.17-9.78-2.643 5.002-5.002-2.644 6.475 7.422z" style="stroke:#1a83af;stroke-width:2"/><path fill="none" d="M1834.54 147.09c23.37 14.33 54.06 35.61 76.08 59.91 48.27 53.27 30.63 88.71 81 140 23.75 24.18 56.37 43.89 83.12 57.57" style="stroke:#1a83af;stroke-width:2"/><path fill="#1A83AF" d="m2079.33 406.88-6.222-7.635 1.761 5.376-5.375 1.762 9.836.497z" style="stroke:#1a83af;stroke-width:2"/><path fill="none" d="M1903.33 138.4c196.22 19.97 606.3 62.3 620.29 68.6 48.07 21.65 90.54 67.72 113.33 95.77" style="stroke:#1a83af;stroke-width:2"/><path fill="#1A83AF" d="m2640.17 306.77-2.55-9.513-.594 5.625-5.626-.594 8.77 4.482z" style="stroke:#1a83af;stroke-width:2"/><path fill="none" d="M1697.88 136.53c-206.92 17.17-675 56.01-920.79 76.4" style="stroke:#1a83af;stroke-width:2"/><path fill="#1A83AF" d="m772.04 213.35 9.3 3.241-4.317-3.655 3.655-4.317-8.638 4.731z" style="stroke:#1a83af;stroke-width:2"/><path fill="none" d="M1855.33 147.11c37.01 14.05 86.25 35 126.29 59.89 45.37 28.21 91.48 70.18 118.1 96" style="stroke:#1a83af;stroke-width:2"/><path fill="#1A83AF" d="m2103.5 306.69-3.665-9.142.08 5.657-5.657.08 9.242 3.405z" style="stroke:#1a83af;stroke-width:2"/><path fill="none" d="M1790.74 147.11c-14.62 26.39-44.5 73.69-83.12 99.89-78.56 53.3-137.57-6.82-205 60-25.44 25.21-33.02 67.74-35.21 94.54" style="stroke:#1a83af;stroke-width:2"/><path fill="#1A83AF" d="m1467.04 406.68 4.633-8.691-4.276 3.704-3.704-4.276 3.347 9.263z" style="stroke:#1a83af;stroke-width:2"/><path fill="none" d="M1705.39 147.06c-61.66 13.64-143.15 34.14-212.77 59.94-37.65 13.95-44.26 23.81-81 40-48.39 21.31-104.47 42.91-145.41 58.12" style="stroke:#1a83af;stroke-width:2"/><path fill="#1A83AF" d="m1261.29 306.95 9.83.612-5.144-2.355 2.355-5.144-7.041 6.887z" style="stroke:#1a83af;stroke-width:2"/><path fill="none" d="M1761.39 147.13c-33.9 16.52-82.83 40.38-117.99 57.52" style="stroke:#1a83af;stroke-width:2"/><path fill="#1A83AF" d="m1638.75 206.92 9.842-.372-5.353-1.83 1.83-5.352-6.319 7.554z" style="stroke:#1a83af;stroke-width:2"/><path fill="none" d="M1697.99 138.11c-136.75 13.81-386.13 40.14-598.37 68.89-4.21.57-8.49 1.17-12.82 1.78" style="stroke:#1a83af;stroke-width:2"/><path fill="#1A83AF" d="m1081.7 209.52 9.478 2.675-4.53-3.388 3.39-4.53-8.338 5.243z" style="stroke:#1a83af;stroke-width:2"/><path fill="none" d="M1903.24 138.52c183.36 19.05 549.11 58.2 558.38 68.48 75.58 83.82 34.01 236.32 13.9 295.05" style="stroke:#1a83af;stroke-width:2"/><path fill="#1A83AF" d="m2473.88 506.78 6.732-7.189-5.091 2.466-2.466-5.091.825 9.814z" style="stroke:#1a83af;stroke-width:2"/><path fill="none" d="M1799.01 147.13c-2.84 24.75-10.47 68.42-30.39 99.87-14.54 22.96-37.87 42.75-57.52 56.78" style="stroke:#1a83af;stroke-width:2"/><path fill="#1A83AF" d="m1706.71 306.86 9.663-1.902-5.572-.973.972-5.573-5.063 8.448z" style="stroke:#1a83af;stroke-width:2"/><path fill="none" d="M1814.87 147.09c23.97 34.05 69.75 108.34 69.75 178.91v102c0 67.57-41.27 138.92-65.25 174.68" style="stroke:#1a83af;stroke-width:2"/><path fill="#1A83AF" d="m1816.53 606.86 8.366-5.197-5.556 1.061-1.062-5.556-1.748 9.692z" style="stroke:#1a83af;stroke-width:2"/><path fill="none" d="M1614.64 247.36c12.28 15.84 29.69 38.3 42.77 55.16" style="stroke:#1a83af;stroke-width:2"/><path fill="#1A83AF" d="m1660.64 306.68-2.337-9.568-.72 5.611-5.61-.72 8.667 4.677z" style="stroke:#1a83af;stroke-width:2"/><path fill="none" d="M1523.77 247.01c-67.34 16.88-165.45 41.47-234.27 58.72" style="stroke:#1a83af;stroke-width:2"/><path fill="#1A83AF" d="m1284.6 306.96 9.701 1.698-4.85-2.91 2.91-4.851-7.761 6.063z" style="stroke:#1a83af;stroke-width:2"/><path fill="none" d="M1522.56 247.01c-31.05 11.86-63.75 30.65-81.94 59.99-18.25 29.44-2.5 69.93 11.21 95.27" style="stroke:#1a83af;stroke-width:2"/><path fill="#1A83AF" d="m1454.36 406.82-.874-9.81-1.554 5.44-5.44-1.555 7.868 5.925z" style="stroke:#1a83af;stroke-width:2"/><path fill="none" d="M1689.83 244.9c90.57 16.97 230.09 43.12 326.1 61.11" style="stroke:#1a83af;stroke-width:2"/><path fill="#1A83AF" d="m2021.05 306.97-8.116-5.579 3.2 4.664-4.664 3.201 9.58-2.286z" style="stroke:#1a83af;stroke-width:2"/><path fill="none" d="M2985.8 347.36c14.99 15.97 36.31 38.68 52.18 55.59" style="stroke:#1a83af;stroke-width:2"/><path fill="#1A83AF" d="m3041.48 406.68-3.218-9.308-.194 5.653-5.654-.194 9.066 3.849z" style="stroke:#1a83af;stroke-width:2"/></svg>