<svg xmlns="http://www.w3.org/2000/svg" xmlns:xlink="http://www.w3.org/1999/xlink" width="460" height="481" contentScriptType="application/ecmascript" contentStyleType="text/css" style="width:460px;height:481px;background:#00000000" preserveAspectRatio="none" version="1.1" viewBox="0 0 460 481" zoomAndPan="magnify"><g><a href="#resource" target="_top" title="#resource" xlink:actuate="onRequest" xlink:href="#resource" xlink:show="new" xlink:title="#resource" xlink:type="simple"><rect id="resource" width="256" height="253.031" x="7" y="7" fill="#3D176E" codeLine="17" rx="2.5" ry="2.5" style="stroke:#000d19;stroke-width:1.5"/><ellipse cx="90.25" cy="26.895" fill="#E98DF7" rx="11" ry="11" style="stroke:#000d19;stroke-width:1"/><path fill="#000" d="M93.2188,32.5352 Q92.6406,32.832 92,32.9727 Q91.3594,33.1289 90.6563,33.1289 Q88.1563,33.1289 86.8281,31.4883 Q85.5156,29.832 85.5156,26.707 Q85.5156,23.582 86.8281,21.9258 Q88.1563,20.2695 90.6563,20.2695 Q91.3594,20.2695 92,20.4258 Q92.6563,20.582 93.2188,20.8789 L93.2188,23.5977 Q92.5938,23.0195 92,22.7539 Q91.4063,22.4727 90.7813,22.4727 Q89.4375,22.4727 88.75,23.5508 Q88.0625,24.6133 88.0625,26.707 Q88.0625,28.8008 88.75,29.8789 Q89.4375,30.9414 90.7813,30.9414 Q91.4063,30.9414 92,30.6758 Q92.5938,30.3945 93.2188,29.8164 L93.2188,32.5352 Z"/><text x="115.75" y="32.78" fill="#D9B8FF" font-family="Helvetica" font-size="17" lengthAdjust="spacing" textLength="71">resource</text><line style="stroke:#000d19;stroke-width:1.5" x1="8" x2="262" y1="46.789" y2="46.789"/><text x="18" y="65.999" fill="#D9B8FF" font-family="sans-serif" font-size="11" font-weight="bold" lengthAdjust="spacing" textLength="12">id</text><text x="30" y="65.999" fill="#D9B8FF" font-family="sans-serif" font-size="11" lengthAdjust="spacing" textLength="41">: string</text><text x="18" y="88.804" fill="#D9B8FF" font-family="sans-serif" font-size="11" font-weight="bold" lengthAdjust="spacing" textLength="28">tags</text><text x="46" y="88.804" fill="#D9B8FF" font-family="sans-serif" font-size="11" lengthAdjust="spacing" textLength="145">: dictionary[string, string]</text><text x="18" y="111.609" fill="#D9B8FF" font-family="sans-serif" font-size="11" font-weight="bold" lengthAdjust="spacing" textLength="35">name</text><text x="53" y="111.609" fill="#D9B8FF" font-family="sans-serif" font-size="11" lengthAdjust="spacing" textLength="41">: string</text><text x="18" y="134.414" fill="#D9B8FF" font-family="sans-serif" font-size="11" font-weight="bold" lengthAdjust="spacing" textLength="35">ctime</text><text x="53" y="134.414" fill="#D9B8FF" font-family="sans-serif" font-size="11" lengthAdjust="spacing" textLength="58">: datetime</text><text x="18" y="157.218" fill="#D9B8FF" font-family="sans-serif" font-size="11" font-weight="bold" lengthAdjust="spacing" textLength="24">age</text><text x="42" y="157.218" fill="#D9B8FF" font-family="sans-serif" font-size="11" lengthAdjust="spacing" textLength="159">: trafo.duration_to_datetime</text><text x="18" y="180.023" fill="#D9B8FF" font-family="sans-serif" font-size="11" font-weight="bold" lengthAdjust="spacing" textLength="39">mtime</text><text x="57" y="180.023" fill="#D9B8FF" font-family="sans-serif" font-size="11" lengthAdjust="spacing" textLength="58">: datetime</text><text x="18" y="202.828" fill="#D9B8FF" font-family="sans-serif" font-size="11" font-weight="bold" lengthAdjust="spacing" textLength="75">last_update</text><text x="93" y="202.828" fill="#D9B8FF" font-family="sans-serif" font-size="11" lengthAdjust="spacing" textLength="159">: trafo.duration_to_datetime</text><text x="18" y="225.632" fill="#D9B8FF" font-family="sans-serif" font-size="11" font-weight="bold" lengthAdjust="spacing" textLength="36">atime</text><text x="54" y="225.632" fill="#D9B8FF" font-family="sans-serif" font-size="11" lengthAdjust="spacing" textLength="58">: datetime</text><text x="18" y="248.437" fill="#D9B8FF" font-family="sans-serif" font-size="11" font-weight="bold" lengthAdjust="spacing" textLength="74">last_access</text><text x="92" y="248.437" fill="#D9B8FF" font-family="sans-serif" font-size="11" lengthAdjust="spacing" textLength="159">: trafo.duration_to_datetime</text></a><a href="#aws_resource" target="_top" title="#aws_resource" xlink:actuate="onRequest" xlink:href="#aws_resource" xlink:show="new" xlink:title="#aws_resource" xlink:type="simple"><rect id="aws_resource" width="155" height="70.594" x="298.5" y="98" fill="#3D176E" codeLine="28" rx="2.5" ry="2.5" style="stroke:#000d19;stroke-width:1.5"/><ellipse cx="313.5" cy="117.894" fill="#E98DF7" rx="11" ry="11" style="stroke:#000d19;stroke-width:1"/><path fill="#000" d="M316.4688,123.5352 Q315.8906,123.832 315.25,123.9727 Q314.6094,124.1289 313.9063,124.1289 Q311.4063,124.1289 310.0781,122.4883 Q308.7656,120.832 308.7656,117.707 Q308.7656,114.582 310.0781,112.9258 Q311.4063,111.2695 313.9063,111.2695 Q314.6094,111.2695 315.25,111.4258 Q315.9063,111.582 316.4688,111.8789 L316.4688,114.5977 Q315.8438,114.0195 315.25,113.7539 Q314.6563,113.4727 314.0313,113.4727 Q312.6875,113.4727 312,114.5508 Q311.3125,115.6133 311.3125,117.707 Q311.3125,119.8008 312,120.8789 Q312.6875,121.9414 314.0313,121.9414 Q314.6563,121.9414 315.25,121.6758 Q315.8438,121.3945 316.4688,120.8164 L316.4688,123.5352 Z"/><text x="332.5" y="123.78" fill="#D9B8FF" font-family="Helvetica" font-size="17" lengthAdjust="spacing" textLength="113">aws_resource</text><line style="stroke:#000d19;stroke-width:1.5" x1="299.5" x2="452.5" y1="137.789" y2="137.789"/><text x="309.5" y="157" fill="#D9B8FF" font-family="sans-serif" font-size="11" font-weight="bold" lengthAdjust="spacing" textLength="21">arn</text><text x="330.5" y="157" fill="#D9B8FF" font-family="sans-serif" font-size="11" lengthAdjust="spacing" textLength="41">: string</text></a><a href="#aws_eks_cluster" target="_top" title="#aws_eks_cluster" xlink:actuate="onRequest" xlink:href="#aws_eks_cluster" xlink:show="new" xlink:title="#aws_eks_cluster" xlink:type="simple"><rect id="aws_eks_cluster" width="177" height="93.398" x="166.5" y="381" fill="#3D176E" codeLine="31" rx="2.5" ry="2.5" style="stroke:#000d19;stroke-width:1.5"/><ellipse cx="181.5" cy="400.894" fill="#E98DF7" rx="11" ry="11" style="stroke:#000d19;stroke-width:1"/><path fill="#000" d="M184.4688,406.5352 Q183.8906,406.832 183.25,406.9727 Q182.6094,407.1289 181.9063,407.1289 Q179.4063,407.1289 178.0781,405.4883 Q176.7656,403.832 176.7656,400.707 Q176.7656,397.582 178.0781,395.9258 Q179.4063,394.2695 181.9063,394.2695 Q182.6094,394.2695 183.25,394.4258 Q183.9063,394.582 184.4688,394.8789 L184.4688,397.5977 Q183.8438,397.0195 183.25,396.7539 Q182.6563,396.4727 182.0313,396.4727 Q180.6875,396.4727 180,397.5508 Q179.3125,398.6133 179.3125,400.707 Q179.3125,402.8008 180,403.8789 Q180.6875,404.9414 182.0313,404.9414 Q182.6563,404.9414 183.25,404.6758 Q183.8438,404.3945 184.4688,403.8164 L184.4688,406.5352 Z"/><text x="200.5" y="406.78" fill="#D9B8FF" font-family="Helvetica" font-size="17" lengthAdjust="spacing" textLength="135">aws_eks_cluster</text><line style="stroke:#000d19;stroke-width:1.5" x1="167.5" x2="342.5" y1="420.789" y2="420.789"/><text x="177.5" y="440" fill="#D9B8FF" font-family="sans-serif" font-size="11" font-weight="bold" lengthAdjust="spacing" textLength="90">cluster_status</text><text x="267.5" y="440" fill="#D9B8FF" font-family="sans-serif" font-size="11" lengthAdjust="spacing" textLength="41">: string</text><text x="177.5" y="462.804" fill="#D9B8FF" font-family="sans-serif" font-size="11" font-weight="bold" lengthAdjust="spacing" textLength="107">cluster_endpoint</text><text x="284.5" y="462.804" fill="#D9B8FF" font-family="sans-serif" font-size="11" lengthAdjust="spacing" textLength="41">: string</text></a><path id="aws_resource-backto-aws_eks_cluster" fill="none" d="M353.97,187.67 C331.06,242.96 295.57,328.58 273.9,380.89" codeLine="35" style="stroke:#ffaf37;stroke-width:2"/><polygon fill="none" points="347.52 184.94 361.64 169.14 360.45 190.3 347.52 184.94" style="stroke:#ffaf37;stroke-width:2"/><path id="resource-backto-aws_eks_cluster" fill="none" d="M194.29,278.77 C209.53,315.85 224.83,353.08 236.26,380.9" codeLine="36" style="stroke:#ffaf37;stroke-width:2"/><polygon fill="none" points="187.71 281.19 186.59 260.03 200.66 275.87 187.71 281.19" style="stroke:#ffaf37;stroke-width:2"/></g></svg>