<svg xmlns="http://www.w3.org/2000/svg" xmlns:xlink="http://www.w3.org/1999/xlink" width="1479" height="451" preserveAspectRatio="none" style="width:1479px;height:451px"><a xlink:actuate="onRequest" xlink:href="#a" xlink:show="new" xlink:title="#gcp_subnetwork" xlink:type="simple" target="_top"><rect id="a" width="178" height="39.789" x="897.5" y="206.58" fill="#3D176E" rx="2.5" ry="2.5" style="stroke:#000d19;stroke-width:.5"/><circle cx="912.5" cy="226.475" r="11" fill="#ADD1B2" style="stroke:#181818;stroke-width:1"/><path d="M915.469 232.115q-.578.297-1.219.438-.64.156-1.344.156-2.5 0-3.828-1.64-1.312-1.657-1.312-4.782t1.312-4.781q1.328-1.656 3.828-1.656.703 0 1.344.156.656.156 1.219.453v2.719q-.625-.578-1.219-.844-.594-.281-1.219-.281-1.343 0-2.031 1.078-.688 1.062-.688 3.156 0 2.094.688 3.172.688 1.062 2.031 1.062.625 0 1.219-.265.594-.281 1.219-.86v2.72Z"/><text x="931.5" y="232.36" fill="#D9B8FF" font-family="Helvetica" font-size="17" textLength="136">gcp_subnetwork</text></a><a xlink:actuate="onRequest" xlink:href="#b" xlink:show="new" xlink:title="#gcp_firewall_policy" xlink:type="simple" target="_top"><rect id="b" width="199" height="39.789" x="679" y="7" fill="#3D176E" rx="2.5" ry="2.5" style="stroke:#000d19;stroke-width:.5"/><circle cx="694" cy="26.895" r="11" fill="#ADD1B2" style="stroke:#181818;stroke-width:1"/><path d="M696.969 32.535q-.578.297-1.219.438-.64.156-1.344.156-2.5 0-3.828-1.64-1.312-1.657-1.312-4.782t1.312-4.781q1.328-1.656 3.828-1.656.703 0 1.344.156.656.156 1.219.453v2.719q-.625-.578-1.219-.844-.594-.281-1.219-.281-1.343 0-2.031 1.078-.688 1.062-.688 3.156 0 2.094.688 3.172.688 1.062 2.031 1.062.625 0 1.219-.265.594-.281 1.219-.86v2.72Z"/><text x="713" y="32.78" fill="#D9B8FF" font-family="Helvetica" font-size="17" textLength="157">gcp_firewall_policy</text></a><a xlink:actuate="onRequest" xlink:href="#c" xlink:show="new" xlink:title="#gcp_network" xlink:type="simple" target="_top"><rect id="c" width="149" height="39.789" x="701" y="106.79" fill="#3D176E" rx="2.5" ry="2.5" style="stroke:#000d19;stroke-width:.5"/><circle cx="716" cy="126.684" r="11" fill="#ADD1B2" style="stroke:#181818;stroke-width:1"/><path d="M718.969 132.325q-.578.297-1.219.438-.64.156-1.344.156-2.5 0-3.828-1.64-1.312-1.657-1.312-4.782t1.312-4.781q1.328-1.656 3.828-1.656.703 0 1.344.156.656.156 1.219.453v2.719q-.625-.579-1.219-.844-.594-.281-1.219-.281-1.343 0-2.031 1.078-.688 1.062-.688 3.156 0 2.094.688 3.172.688 1.062 2.031 1.062.625 0 1.219-.265.594-.281 1.219-.86v2.72Z"/><text x="735" y="132.57" fill="#D9B8FF" font-family="Helvetica" font-size="17" textLength="107">gcp_network</text></a><a xlink:actuate="onRequest" xlink:href="#d" xlink:show="new" xlink:title="#gcp_firewall" xlink:type="simple" target="_top"><rect id="d" width="142" height="39.789" x="502.5" y="7" fill="#3D176E" rx="2.5" ry="2.5" style="stroke:#000d19;stroke-width:.5"/><circle cx="517.5" cy="26.895" r="11" fill="#ADD1B2" style="stroke:#181818;stroke-width:1"/><path d="M520.469 32.535q-.578.297-1.219.438-.64.156-1.344.156-2.5 0-3.828-1.64-1.312-1.657-1.312-4.782t1.312-4.781q1.328-1.656 3.828-1.656.703 0 1.344.156.656.156 1.219.453v2.719q-.625-.578-1.219-.844-.594-.281-1.219-.281-1.343 0-2.031 1.078-.688 1.062-.688 3.156 0 2.094.688 3.172.688 1.062 2.031 1.062.625 0 1.219-.265.594-.281 1.219-.86v2.72Z"/><text x="536.5" y="32.78" fill="#D9B8FF" font-family="Helvetica" font-size="17" textLength="100">gcp_firewall</text></a><a xlink:actuate="onRequest" xlink:href="#e" xlink:show="new" xlink:title="#gcp_instance_group" xlink:type="simple" target="_top"><rect id="e" width="206" height="39.789" x="1266.5" y="306.37" fill="#3D176E" rx="2.5" ry="2.5" style="stroke:#000d19;stroke-width:.5"/><circle cx="1281.5" cy="326.264" r="11" fill="#ADD1B2" style="stroke:#181818;stroke-width:1"/><path d="M1284.469 331.905q-.578.297-1.219.438-.64.156-1.344.156-2.5 0-3.828-1.64-1.312-1.657-1.312-4.782t1.312-4.781q1.328-1.656 3.828-1.656.703 0 1.344.156.656.156 1.219.453v2.719q-.625-.579-1.219-.844-.594-.281-1.219-.281-1.343 0-2.031 1.078-.688 1.062-.688 3.156 0 2.094.688 3.172.688 1.062 2.031 1.062.625 0 1.219-.265.594-.281 1.219-.86v2.72Z"/><text x="1300.5" y="332.15" fill="#D9B8FF" font-family="Helvetica" font-size="17" textLength="164">gcp_instance_group</text></a><a xlink:actuate="onRequest" xlink:href="#f" xlink:show="new" xlink:title="#gcp_network_endpoint_group" xlink:type="simple" target="_top"><rect id="f" width="289" height="39.789" x="489" y="306.37" fill="#3D176E" rx="2.5" ry="2.5" style="stroke:#000d19;stroke-width:.5"/><circle cx="504" cy="326.264" r="11" fill="#ADD1B2" style="stroke:#181818;stroke-width:1"/><path d="M506.969 331.905q-.578.297-1.219.438-.64.156-1.344.156-2.5 0-3.828-1.64-1.312-1.657-1.312-4.782t1.312-4.781q1.328-1.656 3.828-1.656.703 0 1.344.156.656.156 1.219.453v2.719q-.625-.579-1.219-.844-.594-.281-1.219-.281-1.344 0-2.031 1.078-.688 1.062-.688 3.156 0 2.094.688 3.172.688 1.062 2.031 1.062.625 0 1.219-.265.594-.281 1.219-.86v2.72Z"/><text x="523" y="332.15" fill="#D9B8FF" font-family="Helvetica" font-size="17" textLength="247">gcp_network_endpoint_group</text></a><a xlink:actuate="onRequest" xlink:href="#g" xlink:show="new" xlink:title="#gcp_instance" xlink:type="simple" target="_top"><rect id="g" width="149" height="39.789" x="1139" y="406.16" fill="#3D176E" rx="2.5" ry="2.5" style="stroke:#000d19;stroke-width:.5"/><circle cx="1154" cy="426.055" r="11" fill="#ADD1B2" style="stroke:#181818;stroke-width:1"/><path d="M1156.969 431.695q-.578.297-1.219.438-.64.156-1.344.156-2.5 0-3.828-1.64-1.312-1.657-1.312-4.782t1.312-4.781q1.328-1.656 3.828-1.656.703 0 1.344.156.656.156 1.219.453v2.719q-.625-.578-1.219-.844-.594-.281-1.219-.281-1.343 0-2.031 1.078-.688 1.062-.688 3.156 0 2.094.688 3.172.688 1.062 2.031 1.062.625 0 1.219-.265.594-.281 1.219-.86v2.72Z"/><text x="1173" y="431.94" fill="#D9B8FF" font-family="Helvetica" font-size="17" textLength="107">gcp_instance</text></a><a xlink:actuate="onRequest" xlink:href="#h" xlink:show="new" xlink:title="#gcp_route" xlink:type="simple" target="_top"><rect id="h" width="124" height="39.789" x="1181.5" y="206.58" fill="#3D176E" rx="2.5" ry="2.5" style="stroke:#000d19;stroke-width:.5"/><circle cx="1196.5" cy="226.475" r="11" fill="#ADD1B2" style="stroke:#181818;stroke-width:1"/><path d="M1199.469 232.115q-.578.297-1.219.438-.64.156-1.344.156-2.5 0-3.828-1.64-1.312-1.657-1.312-4.782t1.312-4.781q1.328-1.656 3.828-1.656.703 0 1.344.156.656.156 1.219.453v2.719q-.625-.578-1.219-.844-.594-.281-1.219-.281-1.343 0-2.031 1.078-.688 1.062-.688 3.156 0 2.094.688 3.172.688 1.062 2.031 1.062.625 0 1.219-.265.594-.281 1.219-.86v2.72Z"/><text x="1215.5" y="232.36" fill="#D9B8FF" font-family="Helvetica" font-size="17" textLength="82">gcp_route</text></a><a xlink:actuate="onRequest" xlink:href="#i" xlink:show="new" xlink:title="#gcp_project" xlink:type="simple" target="_top"><rect id="i" width="136" height="39.789" x="918.5" y="7" fill="#3D176E" rx="2.5" ry="2.5" style="stroke:#000d19;stroke-width:.5"/><circle cx="933.5" cy="26.895" r="11" fill="#ADD1B2" style="stroke:#181818;stroke-width:1"/><path d="M936.469 32.535q-.578.297-1.219.438-.64.156-1.344.156-2.5 0-3.828-1.64-1.312-1.657-1.312-4.782t1.312-4.781q1.328-1.656 3.828-1.656.703 0 1.344.156.656.156 1.219.453v2.719q-.625-.578-1.219-.844-.594-.281-1.219-.281-1.343 0-2.031 1.078-.688 1.062-.688 3.156 0 2.094.688 3.172.688 1.062 2.031 1.062.625 0 1.219-.265.594-.281 1.219-.86v2.72Z"/><text x="952.5" y="32.78" fill="#D9B8FF" font-family="Helvetica" font-size="17" textLength="94">gcp_project</text></a><a xlink:actuate="onRequest" xlink:href="#j" xlink:show="new" xlink:title="#gcp_target_vpn_gateway" xlink:type="simple" target="_top"><rect id="j" width="251" height="39.789" x="304" y="206.58" fill="#3D176E" rx="2.5" ry="2.5" style="stroke:#000d19;stroke-width:.5"/><circle cx="319" cy="226.475" r="11" fill="#ADD1B2" style="stroke:#181818;stroke-width:1"/><path d="M321.969 232.115q-.578.297-1.219.438-.64.156-1.344.156-2.5 0-3.828-1.64-1.312-1.657-1.312-4.782t1.312-4.781q1.328-1.656 3.828-1.656.703 0 1.344.156.656.156 1.219.453v2.719q-.625-.578-1.219-.844-.594-.281-1.219-.281-1.344 0-2.031 1.078-.688 1.062-.688 3.156 0 2.094.688 3.172.688 1.062 2.031 1.062.625 0 1.219-.265.594-.281 1.219-.86v2.72Z"/><text x="338" y="232.36" fill="#D9B8FF" font-family="Helvetica" font-size="17" textLength="209">gcp_target_vpn_gateway</text></a><a xlink:actuate="onRequest" xlink:href="#k" xlink:show="new" xlink:title="#gcp_router" xlink:type="simple" target="_top"><rect id="k" width="131" height="39.789" x="590" y="206.58" fill="#3D176E" rx="2.5" ry="2.5" style="stroke:#000d19;stroke-width:.5"/><circle cx="605" cy="226.475" r="11" fill="#ADD1B2" style="stroke:#181818;stroke-width:1"/><path d="M607.969 232.115q-.578.297-1.219.438-.64.156-1.344.156-2.5 0-3.828-1.64-1.312-1.657-1.312-4.782t1.312-4.781q1.328-1.656 3.828-1.656.703 0 1.344.156.656.156 1.219.453v2.719q-.625-.578-1.219-.844-.594-.281-1.219-.281-1.343 0-2.031 1.078-.688 1.062-.688 3.156 0 2.094.688 3.172.688 1.062 2.031 1.062.625 0 1.219-.265.594-.281 1.219-.86v2.72Z"/><text x="624" y="232.36" fill="#D9B8FF" font-family="Helvetica" font-size="17" textLength="89">gcp_router</text></a><a xlink:actuate="onRequest" xlink:href="#l" xlink:show="new" xlink:title="#gcp_global_network_endpoint_group" xlink:type="simple" target="_top"><rect id="l" width="348" height="39.789" x="812.5" y="306.37" fill="#3D176E" rx="2.5" ry="2.5" style="stroke:#000d19;stroke-width:.5"/><circle cx="827.5" cy="326.264" r="11" fill="#ADD1B2" style="stroke:#181818;stroke-width:1"/><path d="M830.469 331.905q-.578.297-1.219.438-.64.156-1.344.156-2.5 0-3.828-1.64-1.312-1.657-1.312-4.782t1.312-4.781q1.328-1.656 3.828-1.656.703 0 1.344.156.656.156 1.219.453v2.719q-.625-.579-1.219-.844-.594-.281-1.219-.281-1.343 0-2.031 1.078-.688 1.062-.688 3.156 0 2.094.688 3.172.688 1.062 2.031 1.062.625 0 1.219-.265.594-.281 1.219-.86v2.72Z"/><text x="846.5" y="332.15" fill="#D9B8FF" font-family="Helvetica" font-size="17" textLength="306">gcp_global_network_endpoint_group</text></a><a xlink:actuate="onRequest" xlink:href="#m" xlink:show="new" xlink:title="#gcp_vpn_gateway" xlink:type="simple" target="_top"><rect id="m" width="191" height="39.789" x="7" y="206.58" fill="#3D176E" rx="2.5" ry="2.5" style="stroke:#000d19;stroke-width:.5"/><circle cx="22" cy="226.475" r="11" fill="#ADD1B2" style="stroke:#181818;stroke-width:1"/><path d="M24.969 232.115q-.578.297-1.219.438-.64.156-1.344.156-2.5 0-3.828-1.64-1.312-1.657-1.312-4.782t1.312-4.781q1.328-1.656 3.828-1.656.703 0 1.344.156.656.156 1.219.453v2.719q-.625-.578-1.219-.844-.594-.281-1.219-.281-1.343 0-2.031 1.078-.688 1.062-.688 3.156 0 2.094.688 3.172.688 1.062 2.031 1.062.625 0 1.219-.265.594-.281 1.219-.86v2.72Z"/><text x="41" y="232.36" fill="#D9B8FF" font-family="Helvetica" font-size="17" textLength="149">gcp_vpn_gateway</text></a><path fill="none" d="M986.5 246.8v53.31" style="stroke:#1a83af;stroke-width:2"/><path fill="#1A83AF" d="m986.5 304.99 4-9-4 4-4-4 4 9z" style="stroke:#1a83af;stroke-width:2"/><path fill="none" d="M1062.17 246.8c65.2 16.65 159.1 40.62 225.92 57.68" style="stroke:#1a83af;stroke-width:2"/><path fill="#1A83AF" d="m1292.66 305.9-7.723-6.112 2.88 4.87-4.869 2.88 9.712-1.638z" style="stroke:#1a83af;stroke-width:2"/><path fill="none" d="M1075.65 246.51c35.98 11.79 75.21 30.5 101.85 59.86 23.67 26.1 31.79 67.32 34.57 93.67" style="stroke:#1a83af;stroke-width:2"/><path fill="#1A83AF" d="m1212.61 404.75 3.135-9.337-3.606 4.36-4.358-3.607 4.829 8.584z" style="stroke:#1a83af;stroke-width:2"/><path fill="none" d="M916.76 246.8c-59.98 16.61-146.3 40.52-207.86 57.58" style="stroke:#1a83af;stroke-width:2"/><path fill="#1A83AF" d="m704.4 305.9 9.74 1.462-4.92-2.792 2.792-4.92-7.612 6.25z" style="stroke:#1a83af;stroke-width:2"/><path fill="none" d="m777.91 47.22-1.64 53.31" style="stroke:#1a83af;stroke-width:2"/><path fill="#1A83AF" d="m776.09 105.41 4.256-8.882-4.113 3.884-3.884-4.113 3.741 9.111z" style="stroke:#1a83af;stroke-width:2"/><path fill="none" d="M850.22 140.56c65.34 12.59 162.05 34.5 242.28 66.02 34.03 13.37 38.86 24.35 72 39.79 46.97 21.89 101.85 42.78 142.99 57.55" style="stroke:#1a83af;stroke-width:2"/><path fill="#1A83AF" d="m1311.95 305.87-7.128-6.797 2.42 5.114-5.113 2.42 9.821-.737z" style="stroke:#1a83af;stroke-width:2"/><path fill="none" d="M700.74 138.17c-105.84 14.9-305.4 43.19-475.24 68.41-7.07 1.05-14.36 2.15-21.71 3.26" style="stroke:#1a83af;stroke-width:2"/><path fill="#1A83AF" d="m199.17 210.69 9.502 2.591-4.56-3.348 3.349-4.56-8.291 5.317z" style="stroke:#1a83af;stroke-width:2"/><path fill="none" d="M700.92 128.42c-123.49 2.96-362.08 16.7-414.42 78.16-63.75 74.86 75.68 102.59 196.35 112.81" style="stroke:#1a83af;stroke-width:2"/><path fill="#1A83AF" d="m487.59 319.87-8.638-4.731 3.655 4.317-4.317 3.655 9.3-3.241z" style="stroke:#1a83af;stroke-width:2"/><path fill="none" d="M817.19 147.01c35.25 16.34 85.74 39.74 122.4 56.73" style="stroke:#1a83af;stroke-width:2"/><path fill="#1A83AF" d="m943.9 206.2-6.482-7.415 1.946 5.311-5.312 1.947 9.848.157z" style="stroke:#1a83af;stroke-width:2"/><path fill="none" d="M707.14 147.01c-58.67 16.58-143.05 40.43-203.37 57.48" style="stroke:#1a83af;stroke-width:2"/><path fill="#1A83AF" d="m499.01 206.11 9.748 1.408-4.936-2.765 2.765-4.935-7.577 6.292z" style="stroke:#1a83af;stroke-width:2"/><path fill="none" d="M790.4 146.87c19.42 24.42 55.05 67.3 90.1 99.5 22.61 20.78 50.56 41.4 72.09 56.35" style="stroke:#1a83af;stroke-width:2"/><path fill="#1A83AF" d="m956.35 306.01-5.13-8.407 1.016 5.565-5.564 1.017 9.678 1.825z" style="stroke:#1a83af;stroke-width:2"/><path fill="none" d="M775.15 146.78c-1.55 26.34-8.41 73.55-36.65 99.59-93.14 85.87-351.71 5.6-267 99.79 43.62 48.51 478.01 69.53 661.19 76.28" style="stroke:#1a83af;stroke-width:2"/><path fill="#1A83AF" d="m1137.57 422.66-8.845-4.332 3.849 4.146-4.147 3.848 9.143-3.662z" style="stroke:#1a83af;stroke-width:2"/><path fill="none" d="M850.31 143.17c76.46 15.84 198.63 41.22 304.19 63.41 6.9 1.45 14.1 2.97 21.28 4.49" style="stroke:#1a83af;stroke-width:2"/><path fill="#1A83AF" d="m1180.26 212.23-7.986-5.764 3.093 4.737-4.737 3.093 9.63-2.066z" style="stroke:#1a83af;stroke-width:2"/><path fill="none" d="M751.79 147.01c-19.56 15.94-47.36 38.59-68.06 55.46" style="stroke:#1a83af;stroke-width:2"/><path fill="#1A83AF" d="m680.16 206.2 9.507-2.57-5.626-.583.582-5.627-4.463 8.78z" style="stroke:#1a83af;stroke-width:2"/><path fill="none" d="M613.41 47.22c33.75 16.34 82.09 39.74 117.19 56.73" style="stroke:#1a83af;stroke-width:2"/><path fill="#1A83AF" d="m734.67 106.41-6.348-7.53 1.85 5.346-5.345 1.85 9.843.334z" style="stroke:#1a83af;stroke-width:2"/><path fill="none" d="M1338.68 346.59c-25.75 16.14-62.48 39.16-89.5 56.1" style="stroke:#1a83af;stroke-width:2"/><path fill="#1A83AF" d="m1245.26 405.78 9.749-1.402-5.515-1.258 1.258-5.515-5.492 8.175z" style="stroke:#1a83af;stroke-width:2"/><path fill="none" d="M1011.61 47.2c47.69 36.67 151.17 116.22 202.2 155.45" style="stroke:#1a83af;stroke-width:2"/><path fill="#1A83AF" d="m1217.29 206.09-4.696-8.657.732 5.61-5.609.732 9.573 2.315z" style="stroke:#1a83af;stroke-width:2"/><path fill="none" d="M986.5 47.2v153.28" style="stroke:#1a83af;stroke-width:2"/><path fill="#1A83AF" d="m986.5 205.09 4-9-4 4-4-4 4 9z" style="stroke:#1a83af;stroke-width:2"/><path fill="none" d="M944.81 47.22c-35.25 16.34-85.74 39.74-122.4 56.73" style="stroke:#1a83af;stroke-width:2"/><path fill="#1A83AF" d="m818.1 106.41 9.848-.157-5.312-1.947 1.946-5.311-6.482 7.415z" style="stroke:#1a83af;stroke-width:2"/></svg>