<svg xmlns="http://www.w3.org/2000/svg" xmlns:xlink="http://www.w3.org/1999/xlink" width="718" height="451" preserveAspectRatio="none" style="width:718px;height:451px"><a xlink:actuate="onRequest" xlink:href="#a" xlink:show="new" xlink:title="#digitalocean_droplet" xlink:type="simple" target="_top"><rect id="a" width="211" height="39.789" x="338.5" y="406.16" fill="#3D176E" rx="2.5" ry="2.5" style="stroke:#000d19;stroke-width:.5"/><circle cx="353.5" cy="426.055" r="11" fill="#ADD1B2" style="stroke:#181818;stroke-width:1"/><path d="M356.469 431.695q-.578.297-1.219.438-.64.156-1.344.156-2.5 0-3.828-1.64-1.312-1.657-1.312-4.782t1.312-4.781q1.328-1.656 3.828-1.656.703 0 1.344.156.656.156 1.219.453v2.719q-.625-.578-1.219-.844-.594-.281-1.219-.281-1.344 0-2.031 1.078-.688 1.062-.688 3.156 0 2.094.688 3.172.688 1.062 2.031 1.062.625 0 1.219-.265.594-.281 1.219-.86v2.72Z"/><text x="372.5" y="431.94" fill="#D9B8FF" font-family="Helvetica" font-size="17" textLength="169">digitalocean_droplet</text></a><a xlink:actuate="onRequest" xlink:href="#b" xlink:show="new" xlink:title="#digitalocean_region" xlink:type="simple" target="_top"><rect id="b" width="205" height="39.789" x="149.5" y="106.79" fill="#3D176E" rx="2.5" ry="2.5" style="stroke:#000d19;stroke-width:.5"/><circle cx="164.5" cy="126.684" r="11" fill="#ADD1B2" style="stroke:#181818;stroke-width:1"/><path d="M167.469 132.325q-.578.297-1.219.438-.64.156-1.344.156-2.5 0-3.828-1.64-1.312-1.657-1.312-4.782t1.312-4.781q1.328-1.656 3.828-1.656.703 0 1.344.156.656.156 1.219.453v2.719q-.625-.579-1.219-.844-.594-.281-1.219-.281-1.344 0-2.031 1.078-.688 1.062-.688 3.156 0 2.094.688 3.172.688 1.062 2.031 1.062.625 0 1.219-.265.594-.281 1.219-.86v2.72Z"/><text x="183.5" y="132.57" fill="#D9B8FF" font-family="Helvetica" font-size="17" textLength="163">digitalocean_region</text></a><a xlink:actuate="onRequest" xlink:href="#c" xlink:show="new" xlink:title="#digitalocean_vpc" xlink:type="simple" target="_top"><rect id="c" width="180" height="39.789" x="7" y="206.58" fill="#3D176E" rx="2.5" ry="2.5" style="stroke:#000d19;stroke-width:.5"/><circle cx="22" cy="226.475" r="11" fill="#ADD1B2" style="stroke:#181818;stroke-width:1"/><path d="M24.969 232.115q-.578.297-1.219.438-.64.156-1.344.156-2.5 0-3.828-1.64-1.312-1.657-1.312-4.782t1.312-4.781q1.328-1.656 3.828-1.656.703 0 1.344.156.656.156 1.219.453v2.719q-.625-.578-1.219-.844-.594-.281-1.219-.281-1.343 0-2.031 1.078-.688 1.062-.688 3.156 0 2.094.688 3.172.688 1.062 2.031 1.062.625 0 1.219-.265.594-.281 1.219-.86v2.72Z"/><text x="41" y="232.36" fill="#D9B8FF" font-family="Helvetica" font-size="17" textLength="138">digitalocean_vpc</text></a><a xlink:actuate="onRequest" xlink:href="#d" xlink:show="new" xlink:title="#digitalocean_kubernetes_cluster" xlink:type="simple" target="_top"><rect id="d" width="311" height="39.789" x="288.5" y="306.37" fill="#3D176E" rx="2.5" ry="2.5" style="stroke:#000d19;stroke-width:.5"/><circle cx="303.5" cy="326.264" r="11" fill="#ADD1B2" style="stroke:#181818;stroke-width:1"/><path d="M306.469 331.905q-.578.297-1.219.438-.64.156-1.344.156-2.5 0-3.828-1.64-1.312-1.657-1.312-4.782t1.312-4.781q1.328-1.656 3.828-1.656.703 0 1.344.156.656.156 1.219.453v2.719q-.625-.579-1.219-.844-.594-.281-1.219-.281-1.344 0-2.031 1.078-.688 1.062-.688 3.156 0 2.094.688 3.172.688 1.062 2.031 1.062.625 0 1.219-.265.594-.281 1.219-.86v2.72Z"/><text x="322.5" y="332.15" fill="#D9B8FF" font-family="Helvetica" font-size="17" textLength="269">digitalocean_kubernetes_cluster</text></a><a xlink:actuate="onRequest" xlink:href="#e" xlink:show="new" xlink:title="#digitalocean_project" xlink:type="simple" target="_top"><rect id="e" width="209" height="39.789" x="460.5" y="206.58" fill="#3D176E" rx="2.5" ry="2.5" style="stroke:#000d19;stroke-width:.5"/><circle cx="475.5" cy="226.475" r="11" fill="#ADD1B2" style="stroke:#181818;stroke-width:1"/><path d="M478.469 232.115q-.578.297-1.219.438-.64.156-1.344.156-2.5 0-3.828-1.64-1.312-1.657-1.312-4.782t1.312-4.781q1.328-1.656 3.828-1.656.703 0 1.344.156.656.156 1.219.453v2.719q-.625-.578-1.219-.844-.594-.281-1.219-.281-1.344 0-2.031 1.078-.688 1.062-.688 3.156 0 2.094.688 3.172.688 1.062 2.031 1.062.625 0 1.219-.265.594-.281 1.219-.86v2.72Z"/><text x="494.5" y="232.36" fill="#D9B8FF" font-family="Helvetica" font-size="17" textLength="167">digitalocean_project</text></a><a xlink:actuate="onRequest" xlink:href="#f" xlink:show="new" xlink:title="#digitalocean_team" xlink:type="simple" target="_top"><rect id="f" width="196" height="39.789" x="309" y="7" fill="#3D176E" rx="2.5" ry="2.5" style="stroke:#000d19;stroke-width:.5"/><circle cx="324" cy="26.895" r="11" fill="#ADD1B2" style="stroke:#181818;stroke-width:1"/><path d="M326.969 32.535q-.578.297-1.219.438-.64.156-1.344.156-2.5 0-3.828-1.64-1.312-1.657-1.312-4.782t1.312-4.781q1.328-1.656 3.828-1.656.703 0 1.344.156.656.156 1.219.453v2.719q-.625-.578-1.219-.844-.594-.281-1.219-.281-1.344 0-2.031 1.078-.688 1.062-.688 3.156 0 2.094.688 3.172.688 1.062 2.031 1.062.625 0 1.219-.265.594-.281 1.219-.86v2.72Z"/><text x="343" y="32.78" fill="#D9B8FF" font-family="Helvetica" font-size="17" textLength="154">digitalocean_team</text></a><path fill="none" d="M247.73 147.08c-7.86 40.98-20.1 137.66 23.27 199.08 19.53 27.66 51.18 45.82 82.1 57.65" style="stroke:#1a83af;stroke-width:2"/><path fill="#1A83AF" d="m357.46 405.8-7.06-6.868 2.369 5.137-5.137 2.369 9.828-.638z" style="stroke:#1a83af;stroke-width:2"/><path fill="none" d="M221.38 147.01c-25.58 16.14-62.08 39.16-88.93 56.1" style="stroke:#1a83af;stroke-width:2"/><path fill="#1A83AF" d="m128.56 206.2 9.745-1.425-5.518-1.245 1.245-5.519-5.472 8.189z" style="stroke:#1a83af;stroke-width:2"/><path fill="none" d="M270.76 146.99c35.41 36.45 112 115.26 150.37 154.74" style="stroke:#1a83af;stroke-width:2"/><path fill="#1A83AF" d="m424.16 304.88-3.405-9.241-.08 5.656-5.656-.08 9.141 3.665z" style="stroke:#1a83af;stroke-width:2"/><path fill="none" d="M110.51 246.67c19.26 26.05 57.03 72.42 99.49 99.49 42.03 26.8 94.16 45.53 138.54 57.99" style="stroke:#1a83af;stroke-width:2"/><path fill="#1A83AF" d="m353.19 405.72-7.594-6.271 2.778 4.928-4.928 2.778 9.744-1.435z" style="stroke:#1a83af;stroke-width:2"/><path fill="none" d="M165.56 246.8c58.95 16.61 143.8 40.52 204.32 57.58" style="stroke:#1a83af;stroke-width:2"/><path fill="#1A83AF" d="m374.29 305.9-7.577-6.292 2.765 4.935-4.936 2.765 9.748-1.408z" style="stroke:#1a83af;stroke-width:2"/><path fill="none" d="M444 346.59v53.31" style="stroke:#1a83af;stroke-width:2"/><path fill="#1A83AF" d="m444 404.78 4-9-4 4-4-4 4 9z" style="stroke:#1a83af;stroke-width:2"/><path fill="none" d="M584.49 246.49c22.41 24.24 53.56 66.94 32.51 99.67-17.81 27.69-47.99 45.78-78.21 57.55" style="stroke:#1a83af;stroke-width:2"/><path fill="#1A83AF" d="m534.54 405.69 9.833.559-5.156-2.327 2.327-5.156-7.004 6.924z" style="stroke:#1a83af;stroke-width:2"/><path fill="none" d="M541.09 246.8c-19.72 15.94-47.75 38.59-68.63 55.46" style="stroke:#1a83af;stroke-width:2"/><path fill="#1A83AF" d="m468.86 305.99 9.513-2.55-5.625-.594.594-5.626-4.482 8.77z" style="stroke:#1a83af;stroke-width:2"/><path fill="none" d="M468.82 47.28c67.47 24.85 172.03 75.11 218.18 159.3 24.28 44.29-36.57 135.22-41 139.58-28.15 27.67-67.13 45.91-103.34 57.8" style="stroke:#1a83af;stroke-width:2"/><path fill="#1A83AF" d="m538.34 405.67 9.792 1.055-5.032-2.585 2.585-5.031-7.345 6.561z" style="stroke:#1a83af;stroke-width:2"/><path fill="none" d="M409.37 46.95c6.45 51.81 24.29 195.22 31.52 253.36" style="stroke:#1a83af;stroke-width:2"/><path fill="#1A83AF" d="m441.6 304.99 2.863-9.424-3.478 4.462-4.461-3.478 5.076 8.44z" style="stroke:#1a83af;stroke-width:2"/><path fill="none" d="M422.44 47.2c29.02 36.3 91.66 114.62 123.35 154.26" style="stroke:#1a83af;stroke-width:2"/><path fill="#1A83AF" d="m549.5 205.09-2.49-9.529-.63 5.622-5.622-.63 8.742 4.537z" style="stroke:#1a83af;stroke-width:2"/><path fill="none" d="M376.38 47.22c-25.58 16.14-62.08 39.16-88.93 56.1" style="stroke:#1a83af;stroke-width:2"/><path fill="#1A83AF" d="m283.56 106.41 9.745-1.425-5.518-1.245 1.245-5.519-5.472 8.189z" style="stroke:#1a83af;stroke-width:2"/><path fill="none" d="M308.69 32.99c-58.5 8.08-130.16 27.62-176.69 73.8-25.09 24.91-32.38 66.83-34.4 93.61" style="stroke:#1a83af;stroke-width:2"/><path fill="#1A83AF" d="m97.23 205.2 4.558-8.73-4.243 3.74-3.74-4.244 3.425 9.234z" style="stroke:#1a83af;stroke-width:2"/></svg>