<svg xmlns="http://www.w3.org/2000/svg" xmlns:xlink="http://www.w3.org/1999/xlink" width="1025" height="252" preserveAspectRatio="none" style="width:1025px;height:252px"><a xlink:actuate="onRequest" xlink:href="#a" xlink:show="new" xlink:title="#aws_kms_key" xlink:type="simple" target="_top"><rect id="a" width="158" height="39.789" x="7" y="106.79" fill="#3D176E" rx="2.5" ry="2.5" style="stroke:#000d19;stroke-width:.5"/><circle cx="22" cy="126.684" r="11" fill="#ADD1B2" style="stroke:#181818;stroke-width:1"/><path d="M24.969 132.325q-.578.297-1.219.438-.64.156-1.344.156-2.5 0-3.828-1.64-1.312-1.657-1.312-4.782t1.312-4.781q1.328-1.656 3.828-1.656.703 0 1.344.156.656.156 1.219.453v2.719q-.625-.579-1.219-.844-.594-.281-1.219-.281-1.343 0-2.031 1.078-.688 1.062-.688 3.156 0 2.094.688 3.172.688 1.062 2.031 1.062.625 0 1.219-.265.594-.281 1.219-.86v2.72Z"/><text x="41" y="132.57" fill="#D9B8FF" font-family="Helvetica" font-size="17" textLength="116">aws_kms_key</text></a><a xlink:actuate="onRequest" xlink:href="#b" xlink:show="new" xlink:title="#aws_ecs_task" xlink:type="simple" target="_top"><rect id="b" width="154" height="39.789" x="685" y="106.79" fill="#3D176E" rx="2.5" ry="2.5" style="stroke:#000d19;stroke-width:.5"/><circle cx="700" cy="126.684" r="11" fill="#ADD1B2" style="stroke:#181818;stroke-width:1"/><path d="M702.969 132.325q-.578.297-1.219.438-.64.156-1.344.156-2.5 0-3.828-1.64-1.312-1.657-1.312-4.782t1.312-4.781q1.328-1.656 3.828-1.656.703 0 1.344.156.656.156 1.219.453v2.719q-.625-.579-1.219-.844-.594-.281-1.219-.281-1.343 0-2.031 1.078-.688 1.062-.688 3.156 0 2.094.688 3.172.688 1.062 2.031 1.062.625 0 1.219-.265.594-.281 1.219-.86v2.72Z"/><text x="719" y="132.57" fill="#D9B8FF" font-family="Helvetica" font-size="17" textLength="112">aws_ecs_task</text></a><a xlink:actuate="onRequest" xlink:href="#c" xlink:show="new" xlink:title="#aws_s3_bucket" xlink:type="simple" target="_top"><rect id="c" width="168" height="39.789" x="271" y="106.79" fill="#3D176E" rx="2.5" ry="2.5" style="stroke:#000d19;stroke-width:.5"/><circle cx="286" cy="126.684" r="11" fill="#ADD1B2" style="stroke:#181818;stroke-width:1"/><path d="M288.969 132.325q-.578.297-1.219.438-.64.156-1.344.156-2.5 0-3.828-1.64-1.312-1.657-1.312-4.782t1.312-4.781q1.328-1.656 3.828-1.656.703 0 1.344.156.656.156 1.219.453v2.719q-.625-.579-1.219-.844-.594-.281-1.219-.281-1.344 0-2.031 1.078-.688 1.062-.688 3.156 0 2.094.688 3.172.688 1.062 2.031 1.062.625 0 1.219-.265.594-.281 1.219-.86v2.72Z"/><text x="305" y="132.57" fill="#D9B8FF" font-family="Helvetica" font-size="17" textLength="126">aws_s3_bucket</text></a><a xlink:actuate="onRequest" xlink:href="#d" xlink:show="new" xlink:title="#aws_ecs_service" xlink:type="simple" target="_top"><rect id="d" width="177" height="39.789" x="473.5" y="106.79" fill="#3D176E" rx="2.5" ry="2.5" style="stroke:#000d19;stroke-width:.5"/><circle cx="488.5" cy="126.684" r="11" fill="#ADD1B2" style="stroke:#181818;stroke-width:1"/><path d="M491.469 132.325q-.578.297-1.219.438-.64.156-1.344.156-2.5 0-3.828-1.64-1.312-1.657-1.312-4.782t1.312-4.781q1.328-1.656 3.828-1.656.703 0 1.344.156.656.156 1.219.453v2.719q-.625-.579-1.219-.844-.594-.281-1.219-.281-1.344 0-2.031 1.078-.688 1.062-.688 3.156 0 2.094.688 3.172.688 1.062 2.031 1.062.625 0 1.219-.265.594-.281 1.219-.86v2.72Z"/><text x="507.5" y="132.57" fill="#D9B8FF" font-family="Helvetica" font-size="17" textLength="135">aws_ecs_service</text></a><a xlink:actuate="onRequest" xlink:href="#e" xlink:show="new" xlink:title="#aws_ecs_capacity_provider" xlink:type="simple" target="_top"><rect id="e" width="265" height="39.789" x="429.5" y="206.58" fill="#3D176E" rx="2.5" ry="2.5" style="stroke:#000d19;stroke-width:.5"/><circle cx="444.5" cy="226.475" r="11" fill="#ADD1B2" style="stroke:#181818;stroke-width:1"/><path d="M447.469 232.115q-.578.297-1.219.438-.64.156-1.344.156-2.5 0-3.828-1.64-1.312-1.657-1.312-4.782t1.312-4.781q1.328-1.656 3.828-1.656.703 0 1.344.156.656.156 1.219.453v2.719q-.625-.578-1.219-.844-.594-.281-1.219-.281-1.344 0-2.031 1.078-.688 1.062-.688 3.156 0 2.094.688 3.172.688 1.062 2.031 1.062.625 0 1.219-.265.594-.281 1.219-.86v2.72Z"/><text x="463.5" y="232.36" fill="#D9B8FF" font-family="Helvetica" font-size="17" textLength="223">aws_ecs_capacity_provider</text></a><a xlink:actuate="onRequest" xlink:href="#f" xlink:show="new" xlink:title="#aws_ecs_container_instance" xlink:type="simple" target="_top"><rect id="f" width="277" height="39.789" x="741.5" y="206.58" fill="#3D176E" rx="2.5" ry="2.5" style="stroke:#000d19;stroke-width:.5"/><circle cx="756.5" cy="226.475" r="11" fill="#ADD1B2" style="stroke:#181818;stroke-width:1"/><path d="M759.469 232.115q-.578.297-1.219.438-.64.156-1.344.156-2.5 0-3.828-1.64-1.312-1.657-1.312-4.782t1.312-4.781q1.328-1.656 3.828-1.656.703 0 1.344.156.656.156 1.219.453v2.719q-.625-.578-1.219-.844-.594-.281-1.219-.281-1.343 0-2.031 1.078-.688 1.062-.688 3.156 0 2.094.688 3.172.688 1.062 2.031 1.062.625 0 1.219-.265.594-.281 1.219-.86v2.72Z"/><text x="775.5" y="232.36" fill="#D9B8FF" font-family="Helvetica" font-size="17" textLength="235">aws_ecs_container_instance</text></a><a xlink:actuate="onRequest" xlink:href="#g" xlink:show="new" xlink:title="#aws_ecs_cluster" xlink:type="simple" target="_top"><rect id="g" width="175" height="39.789" x="370.5" y="7" fill="#3D176E" rx="2.5" ry="2.5" style="stroke:#000d19;stroke-width:.5"/><circle cx="385.5" cy="26.895" r="11" fill="#ADD1B2" style="stroke:#181818;stroke-width:1"/><path d="M388.469 32.535q-.578.297-1.219.438-.64.156-1.344.156-2.5 0-3.828-1.64-1.312-1.657-1.312-4.782t1.312-4.781q1.328-1.656 3.828-1.656.703 0 1.344.156.656.156 1.219.453v2.719q-.625-.578-1.219-.844-.594-.281-1.219-.281-1.344 0-2.031 1.078-.688 1.062-.688 3.156 0 2.094.688 3.172.688 1.062 2.031 1.062.625 0 1.219-.265.594-.281 1.219-.86v2.72Z"/><text x="404.5" y="32.78" fill="#D9B8FF" font-family="Helvetica" font-size="17" textLength="133">aws_ecs_cluster</text></a><path fill="none" d="M785.31 147.01c19.24 15.93 46.57 38.59 66.93 55.46" style="stroke:#1a83af;stroke-width:2"/><path fill="#1A83AF" d="m855.74 206.2-4.376-8.823.527 5.632-5.633.527 9.482 2.664z" style="stroke:#1a83af;stroke-width:2"/><path fill="none" d="m722.49 147.01-116.03 56.73" style="stroke:#1a83af;stroke-width:2"/><path fill="#1A83AF" d="m602.43 206.2 9.842-.372-5.353-1.83 1.83-5.352-6.319 7.554z" style="stroke:#1a83af;stroke-width:2"/><path fill="none" d="M562 147.01v53.31" style="stroke:#1a83af;stroke-width:2"/><path fill="#1A83AF" d="m562 205.2 4-9-4 4-4-4 4 9z" style="stroke:#1a83af;stroke-width:2"/><path fill="none" d="M478.55 47.22c16.95 15.94 41.04 38.59 58.99 55.46" style="stroke:#1a83af;stroke-width:2"/><path fill="#1A83AF" d="m540.5 105.41-3.812-9.081.171 5.654-5.654.171 9.295 3.256z" style="stroke:#1a83af;stroke-width:2"/><path fill="none" d="m437.65 47.22-58.42 55.46" style="stroke:#1a83af;stroke-width:2"/><path fill="#1A83AF" d="m376.31 105.41 9.282-3.293-5.655-.148.149-5.655-3.776 9.096z" style="stroke:#1a83af;stroke-width:2"/><path fill="none" d="M384.5 47.22c-63.2 16.61-154.16 40.52-219.04 57.58" style="stroke:#1a83af;stroke-width:2"/><path fill="#1A83AF" d="m160.66 106.32 9.722 1.576-4.887-2.85 2.85-4.886-7.685 6.16z" style="stroke:#1a83af;stroke-width:2"/><path fill="none" d="M518.06 47.22c51.34 16.51 125.09 40.24 178.04 57.27" style="stroke:#1a83af;stroke-width:2"/><path fill="#1A83AF" d="m700.8 106.32-7.345-6.561 2.585 5.031-5.032 2.585 9.792-1.055z" style="stroke:#1a83af;stroke-width:2"/><path fill="none" d="M545.75 33.99C649.72 43.07 814.27 63.9 857 106.79c24.51 24.61 26.95 67 25.6 93.89" style="stroke:#1a83af;stroke-width:2"/><path fill="#1A83AF" d="m882.24 205.51 4.557-8.731-4.243 3.74-3.741-4.242 3.427 9.233z" style="stroke:#1a83af;stroke-width:2"/><path fill="none" d="M370.3 45.14C298.6 63.27 214.93 96.25 254 146.58c21.6 27.84 98.27 47.53 169.7 60.28" style="stroke:#1a83af;stroke-width:2"/><path fill="#1A83AF" d="m428.27 207.84-8.166-5.506 3.242 4.635-4.635 3.243 9.559-2.372z" style="stroke:#1a83af;stroke-width:2"/></svg>