<svg xmlns="http://www.w3.org/2000/svg" width="329" height="252" viewBox="0 0 329 252"><rect width="229" height="39.789" x="7" y="106.79" fill="#3D176E" rx="2.5" ry="2.5" style="stroke:#000d19;stroke-width:.5"/><circle cx="22" cy="126.684" r="11" fill="#ADD1B2" style="stroke:#181818;stroke-width:1"/><path d="M24.969 132.325q-.578.297-1.219.438-.64.156-1.344.156-2.5 0-3.828-1.64-1.312-1.657-1.312-4.782t1.312-4.781q1.328-1.656 3.828-1.656.703 0 1.344.156.656.156 1.219.453v2.719q-.625-.579-1.219-.844-.594-.281-1.219-.281-1.343 0-2.031 1.078-.688 1.062-.688 3.156 0 2.094.688 3.172.688 1.062 2.031 1.062.625 0 1.219-.265.594-.281 1.219-.86v2.72Z"/><text x="41" y="132.57" fill="#D9B8FF" font-family="Helvetica" font-size="17" textLength="187">azure_network_profile</text><rect width="154" height="39.789" x="128.5" y="7" fill="#3D176E" rx="2.5" ry="2.5" style="stroke:#000d19;stroke-width:.5"/><circle cx="143.5" cy="26.895" r="11" fill="#ADD1B2" style="stroke:#181818;stroke-width:1"/><path d="M146.469 32.535q-.578.297-1.219.438-.64.156-1.344.156-2.5 0-3.828-1.64-1.312-1.657-1.312-4.782t1.312-4.781q1.328-1.656 3.828-1.656.703 0 1.344.156.656.156 1.219.453v2.719q-.625-.578-1.219-.844-.594-.281-1.219-.281-1.344 0-2.031 1.078-.688 1.062-.688 3.156 0 2.094.688 3.172.688 1.062 2.031 1.062.625 0 1.219-.265.594-.281 1.219-.86v2.72Z"/><text x="162.5" y="32.78" fill="#D9B8FF" font-family="Helvetica" font-size="17" textLength="112">azure_subnet</text><rect width="233" height="39.789" x="89" y="206.58" fill="#3D176E" rx="2.5" ry="2.5" style="stroke:#000d19;stroke-width:.5"/><circle cx="104" cy="226.475" r="11" fill="#ADD1B2" style="stroke:#181818;stroke-width:1"/><path d="M106.969 232.115q-.578.297-1.219.438-.64.156-1.344.156-2.5 0-3.828-1.64-1.312-1.657-1.312-4.782t1.312-4.781q1.328-1.656 3.828-1.656.703 0 1.344.156.656.156 1.219.453v2.719q-.625-.578-1.219-.844-.594-.281-1.219-.281-1.344 0-2.031 1.078-.688 1.062-.688 3.156 0 2.094.688 3.172.688 1.062 2.031 1.062.625 0 1.219-.265.594-.281 1.219-.86v2.72Z"/><text x="123" y="232.36" fill="#D9B8FF" font-family="Helvetica" font-size="17" textLength="191">azure_virtual_machine</text><path fill="none" d="M138.1 147.01c14.72 17.14 32.21 37.498 46.93 54.638" style="stroke:#1a83af;stroke-width:2"/><path fill="#1A83AF" d="m188.94 206.2-2.83-9.434-.428 5.64-5.64-.428 8.898 4.222z" style="stroke:#1a83af;stroke-width:2"/><path fill="none" d="M188.9 47.22c-14.72 17.14-32.21 37.498-46.93 54.638" style="stroke:#1a83af;stroke-width:2"/><path fill="#1A83AF" d="m138.06 106.41 8.898-4.222-5.64.429-.429-5.64-2.829 9.433z" style="stroke:#1a83af;stroke-width:2"/><path fill="none" d="M221.45 47.22c11.41 15.16 25.82 37.34 32.05 59.57 4.77 17.03 4.77 22.76 0 39.79-6.23 22.23-17.03 39.627-28.44 54.777" style="stroke:#1a83af;stroke-width:2"/><path fill="#1A83AF" d="m221.45 206.15 8.61-4.783-5.602.789-.789-5.602-2.219 9.596z" style="stroke:#1a83af;stroke-width:2"/></svg>