<svg xmlns="http://www.w3.org/2000/svg" width="4999" height="551" viewBox="0 0 4999 551"><rect width="285" height="39.789" x="3740" y="206.57" fill="#3D176E" rx="2.5" ry="2.5" style="stroke:#000d19;stroke-width:.5"/><circle cx="3755" cy="226.464" r="11" fill="#ADD1B2" style="stroke:#181818;stroke-width:1"/><path d="M3757.969 232.105q-.578.297-1.219.438-.64.156-1.344.156-2.5 0-3.828-1.64-1.312-1.657-1.312-4.782t1.312-4.781q1.328-1.657 3.828-1.657.703 0 1.344.157.656.156 1.219.453v2.719q-.625-.579-1.219-.844-.594-.281-1.219-.281-1.343 0-2.031 1.078-.687 1.062-.687 3.156t.687 3.172q.688 1.062 2.031 1.062.625 0 1.219-.265.594-.282 1.219-.86z"/><text x="3774" y="232.35" fill="#D9B8FF" font-family="Helvetica" font-size="17" textLength="243">aws_api_gateway_authorizer</text><rect width="202" height="39.789" x="4060.5" y="206.57" fill="#3D176E" rx="2.5" ry="2.5" style="stroke:#000d19;stroke-width:.5"/><circle cx="4075.5" cy="226.464" r="11" fill="#ADD1B2" style="stroke:#181818;stroke-width:1"/><path d="M4078.469 232.105q-.578.297-1.219.438-.64.156-1.344.156-2.5 0-3.828-1.64-1.312-1.657-1.312-4.782t1.312-4.781q1.328-1.657 3.828-1.657.703 0 1.344.157.656.156 1.219.453v2.719q-.625-.579-1.219-.844-.594-.281-1.219-.281-1.343 0-2.031 1.078-.687 1.062-.687 3.156t.687 3.172q.688 1.062 2.031 1.062.625 0 1.219-.265.594-.282 1.219-.86z"/><text x="4094.5" y="232.35" fill="#D9B8FF" font-family="Helvetica" font-size="17" textLength="160">aws_cognito_group</text><rect width="177" height="39.789" x="4298" y="206.57" fill="#3D176E" rx="2.5" ry="2.5" style="stroke:#000d19;stroke-width:.5"/><circle cx="4313" cy="226.464" r="11" fill="#ADD1B2" style="stroke:#181818;stroke-width:1"/><path d="M4315.969 232.105q-.578.297-1.219.438-.64.156-1.344.156-2.5 0-3.828-1.64-1.312-1.657-1.312-4.782t1.312-4.781q1.328-1.657 3.828-1.657.703 0 1.344.157.656.156 1.219.453v2.719q-.625-.579-1.219-.844-.594-.281-1.219-.281-1.343 0-2.031 1.078-.687 1.062-.687 3.156t.687 3.172q.688 1.062 2.031 1.062.625 0 1.219-.265.594-.282 1.219-.86z"/><text x="4332" y="232.35" fill="#D9B8FF" font-family="Helvetica" font-size="17" textLength="135">aws_ecs_service</text><rect width="154" height="39.789" x="4537.5" y="306.36" fill="#3D176E" rx="2.5" ry="2.5" style="stroke:#000d19;stroke-width:.5"/><circle cx="4552.5" cy="326.255" r="11" fill="#ADD1B2" style="stroke:#181818;stroke-width:1"/><path d="M4555.469 331.895q-.578.297-1.219.438-.64.156-1.344.156-2.5 0-3.828-1.64-1.312-1.657-1.312-4.782t1.312-4.781q1.328-1.656 3.828-1.656.703 0 1.344.156.656.156 1.219.453v2.719q-.625-.579-1.219-.844-.594-.281-1.219-.281-1.343 0-2.031 1.078-.687 1.062-.687 3.156t.687 3.172q.688 1.062 2.031 1.062.625 0 1.219-.265.594-.281 1.219-.86z"/><text x="4571.5" y="332.14" fill="#D9B8FF" font-family="Helvetica" font-size="17" textLength="112">aws_ecs_task</text><rect width="243" height="39.789" x="4581" y="206.57" fill="#3D176E" rx="2.5" ry="2.5" style="stroke:#000d19;stroke-width:.5"/><circle cx="4596" cy="226.464" r="11" fill="#ADD1B2" style="stroke:#181818;stroke-width:1"/><path d="M4598.969 232.105q-.578.297-1.219.438-.64.156-1.344.156-2.5 0-3.828-1.64-1.312-1.657-1.312-4.782t1.312-4.781q1.328-1.657 3.828-1.657.703 0 1.344.157.656.156 1.219.453v2.719q-.625-.579-1.219-.844-.594-.281-1.219-.281-1.343 0-2.031 1.078-.687 1.062-.687 3.156t.687 3.172q.688 1.062 2.031 1.062.625 0 1.219-.265.594-.282 1.219-.86z"/><text x="4615" y="232.35" fill="#D9B8FF" font-family="Helvetica" font-size="17" textLength="201">aws_ecs_task_definition</text><rect width="177" height="39.789" x="7" y="206.57" fill="#3D176E" rx="2.5" ry="2.5" style="stroke:#000d19;stroke-width:.5"/><circle cx="22" cy="226.464" r="11" fill="#ADD1B2" style="stroke:#181818;stroke-width:1"/><path d="M24.969 232.105q-.578.297-1.219.438-.64.156-1.344.156-2.5 0-3.828-1.64-1.312-1.657-1.312-4.782t1.312-4.781q1.328-1.657 3.828-1.657.703 0 1.344.157.656.156 1.219.453v2.719q-.625-.579-1.219-.844-.594-.281-1.219-.281-1.343 0-2.031 1.078-.687 1.062-.687 3.156t.687 3.172q.688 1.062 2.031 1.062.625 0 1.219-.265.594-.282 1.219-.86z"/><text x="41" y="232.35" fill="#D9B8FF" font-family="Helvetica" font-size="17" textLength="135">aws_eks_cluster</text><rect width="257" height="39.789" x="219" y="206.57" fill="#3D176E" rx="2.5" ry="2.5" style="stroke:#000d19;stroke-width:.5"/><circle cx="234" cy="226.464" r="11" fill="#ADD1B2" style="stroke:#181818;stroke-width:1"/><path d="M236.969 232.105q-.578.297-1.219.438-.64.156-1.344.156-2.5 0-3.828-1.64-1.312-1.657-1.312-4.782t1.312-4.781q1.328-1.657 3.828-1.657.703 0 1.344.157.656.156 1.219.453v2.719q-.625-.579-1.219-.844-.594-.281-1.219-.281-1.344 0-2.031 1.078-.687 1.062-.687 3.156t.687 3.172q.688 1.062 2.031 1.062.625 0 1.219-.265.594-.282 1.219-.86z"/><text x="253" y="232.35" fill="#D9B8FF" font-family="Helvetica" font-size="17" textLength="215">aws_iam_instance_profile</text><rect width="173" height="39.789" x="511" y="206.57" fill="#3D176E" rx="2.5" ry="2.5" style="stroke:#000d19;stroke-width:.5"/><circle cx="526" cy="226.464" r="11" fill="#ADD1B2" style="stroke:#181818;stroke-width:1"/><path d="M528.969 232.105q-.578.297-1.219.438-.64.156-1.344.156-2.5 0-3.828-1.64-1.312-1.657-1.312-4.782t1.312-4.781q1.328-1.657 3.828-1.657.703 0 1.344.157.656.156 1.219.453v2.719q-.625-.579-1.219-.844-.594-.281-1.219-.281-1.343 0-2.031 1.078-.687 1.062-.687 3.156t.687 3.172q.688 1.062 2.031 1.062.625 0 1.219-.265.594-.282 1.219-.86z"/><text x="545" y="232.35" fill="#D9B8FF" font-family="Helvetica" font-size="17" textLength="131">aws_iam_policy</text><rect width="157" height="39.789" x="2569" y="106.78" fill="#3D176E" rx="2.5" ry="2.5" style="stroke:#000d19;stroke-width:.5"/><circle cx="2584" cy="126.674" r="11" fill="#ADD1B2" style="stroke:#181818;stroke-width:1"/><path d="M2586.969 132.315q-.578.297-1.219.438-.64.156-1.344.156-2.5 0-3.828-1.64-1.312-1.657-1.312-4.782t1.312-4.781q1.328-1.657 3.828-1.657.703 0 1.344.157.656.156 1.219.453v2.719q-.625-.579-1.219-.844-.594-.281-1.219-.281-1.343 0-2.031 1.078-.687 1.062-.687 3.156t.687 3.172q.688 1.062 2.031 1.062.625 0 1.219-.265.594-.281 1.219-.86z"/><text x="2603" y="132.56" fill="#D9B8FF" font-family="Helvetica" font-size="17" textLength="115">aws_iam_role</text><rect width="213" height="39.789" x="790" y="206.57" fill="#3D176E" rx="2.5" ry="2.5" style="stroke:#000d19;stroke-width:.5"/><circle cx="805" cy="226.464" r="11" fill="#ADD1B2" style="stroke:#181818;stroke-width:1"/><path d="M807.969 232.105q-.578.297-1.219.438-.64.156-1.344.156-2.5 0-3.828-1.64-1.312-1.657-1.312-4.782t1.312-4.781q1.328-1.657 3.828-1.657.703 0 1.344.157.656.156 1.219.453v2.719q-.625-.579-1.219-.844-.594-.281-1.219-.281-1.343 0-2.031 1.078-.687 1.062-.687 3.156t.687 3.172q.688 1.062 2.031 1.062.625 0 1.219-.265.594-.282 1.219-.86z"/><text x="824" y="232.35" fill="#D9B8FF" font-family="Helvetica" font-size="17" textLength="171">aws_redshift_cluster</text><rect width="137" height="39.789" x="435" y="7" fill="#3D176E" rx="2.5" ry="2.5" style="stroke:#000d19;stroke-width:.5"/><circle cx="450" cy="26.895" r="11" fill="#ADD1B2" style="stroke:#181818;stroke-width:1"/><path d="M452.969 32.535q-.578.297-1.219.438-.64.156-1.344.156-2.5 0-3.828-1.64-1.312-1.657-1.312-4.782t1.312-4.781q1.328-1.656 3.828-1.656.703 0 1.344.156.656.156 1.219.453v2.719q-.625-.578-1.219-.844-.594-.281-1.219-.281-1.344 0-2.031 1.078-.687 1.062-.687 3.156t.687 3.172q.688 1.062 2.031 1.062.625 0 1.219-.265.594-.281 1.219-.86z"/><text x="469" y="32.78" fill="#D9B8FF" font-family="Helvetica" font-size="17" textLength="95">aws_region</text><rect width="267" height="39.789" x="3534" y="505.94" fill="#3D176E" rx="2.5" ry="2.5" style="stroke:#000d19;stroke-width:.5"/><circle cx="3549" cy="525.835" r="11" fill="#ADD1B2" style="stroke:#181818;stroke-width:1"/><path d="M3551.969 531.475q-.578.297-1.219.438-.64.156-1.344.156-2.5 0-3.828-1.64-1.312-1.657-1.312-4.782t1.312-4.781q1.328-1.656 3.828-1.656.703 0 1.344.156.656.156 1.219.453v2.719q-.625-.578-1.219-.844-.594-.281-1.219-.281-1.343 0-2.031 1.078-.687 1.062-.687 3.156t.687 3.172q.688 1.062 2.031 1.062.625 0 1.219-.265.594-.281 1.219-.86z"/><text x="3568" y="531.72" fill="#D9B8FF" font-family="Helvetica" font-size="17" textLength="225">aws_sagemaker_algorithm</text><rect width="288" height="39.789" x="1390.5" y="206.57" fill="#3D176E" rx="2.5" ry="2.5" style="stroke:#000d19;stroke-width:.5"/><circle cx="1405.5" cy="226.464" r="11" fill="#ADD1B2" style="stroke:#181818;stroke-width:1"/><path d="M1408.469 232.105q-.578.297-1.219.438-.64.156-1.344.156-2.5 0-3.828-1.64-1.312-1.657-1.312-4.782t1.312-4.781q1.328-1.657 3.828-1.657.703 0 1.344.157.656.156 1.219.453v2.719q-.625-.579-1.219-.844-.594-.281-1.219-.281-1.343 0-2.031 1.078-.687 1.062-.687 3.156t.687 3.172q.688 1.062 2.031 1.062.625 0 1.219-.265.594-.282 1.219-.86z"/><text x="1424.5" y="232.35" fill="#D9B8FF" font-family="Helvetica" font-size="17" textLength="246">aws_sagemaker_auto_ml_job</text><rect width="317" height="39.789" x="1038" y="206.57" fill="#3D176E" rx="2.5" ry="2.5" style="stroke:#000d19;stroke-width:.5"/><circle cx="1053" cy="226.464" r="11" fill="#ADD1B2" style="stroke:#181818;stroke-width:1"/><path d="M1055.969 232.105q-.578.297-1.219.438-.64.156-1.344.156-2.5 0-3.828-1.64-1.312-1.657-1.312-4.782t1.312-4.781q1.328-1.657 3.828-1.657.703 0 1.344.157.656.156 1.219.453v2.719q-.625-.579-1.219-.844-.594-.281-1.219-.281-1.343 0-2.031 1.078-.687 1.062-.687 3.156t.687 3.172q.688 1.062 2.031 1.062.625 0 1.219-.265.594-.282 1.219-.86z"/><text x="1072" y="232.35" fill="#D9B8FF" font-family="Helvetica" font-size="17" textLength="275">aws_sagemaker_compilation_job</text><rect width="248" height="39.789" x="1784.5" y="206.57" fill="#3D176E" rx="2.5" ry="2.5" style="stroke:#000d19;stroke-width:.5"/><circle cx="1799.5" cy="226.464" r="11" fill="#ADD1B2" style="stroke:#181818;stroke-width:1"/><path d="M1802.469 232.105q-.578.297-1.219.438-.64.156-1.344.156-2.5 0-3.828-1.64-1.312-1.657-1.312-4.782t1.312-4.781q1.328-1.657 3.828-1.657.703 0 1.344.157.656.156 1.219.453v2.719q-.625-.579-1.219-.844-.594-.281-1.219-.281-1.343 0-2.031 1.078-.687 1.062-.687 3.156t.687 3.172q.688 1.062 2.031 1.062.625 0 1.219-.265.594-.282 1.219-.86z"/><text x="1818.5" y="232.35" fill="#D9B8FF" font-family="Helvetica" font-size="17" textLength="206">aws_sagemaker_domain</text><rect width="352" height="39.789" x="2707.5" y="306.36" fill="#3D176E" rx="2.5" ry="2.5" style="stroke:#000d19;stroke-width:.5"/><circle cx="2722.5" cy="326.255" r="11" fill="#ADD1B2" style="stroke:#181818;stroke-width:1"/><path d="M2725.469 331.895q-.578.297-1.219.438-.64.156-1.344.156-2.5 0-3.828-1.64-1.312-1.657-1.312-4.782t1.312-4.781q1.328-1.656 3.828-1.656.703 0 1.344.156.656.156 1.219.453v2.719q-.625-.579-1.219-.844-.594-.281-1.219-.281-1.343 0-2.031 1.078-.687 1.062-.687 3.156t.687 3.172q.688 1.062 2.031 1.062.625 0 1.219-.265.594-.281 1.219-.86z"/><text x="2741.5" y="332.14" fill="#D9B8FF" font-family="Helvetica" font-size="17" textLength="310">aws_sagemaker_edge_packaging_job</text><rect width="428" height="39.789" x="2244.5" y="306.36" fill="#3D176E" rx="2.5" ry="2.5" style="stroke:#000d19;stroke-width:.5"/><circle cx="2259.5" cy="326.255" r="11" fill="#ADD1B2" style="stroke:#181818;stroke-width:1"/><path d="M2262.469 331.895q-.578.297-1.219.438-.64.156-1.344.156-2.5 0-3.828-1.64-1.312-1.657-1.312-4.782t1.312-4.781q1.328-1.656 3.828-1.656.703 0 1.344.156.656.156 1.219.453v2.719q-.625-.579-1.219-.844-.594-.281-1.219-.281-1.343 0-2.031 1.078-.687 1.062-.687 3.156t.687 3.172q.688 1.062 2.031 1.062.625 0 1.219-.265.594-.281 1.219-.86z"/><text x="2278.5" y="332.14" fill="#D9B8FF" font-family="Helvetica" font-size="17" textLength="386">aws_sagemaker_hyper_parameter_tuning_job</text><rect width="237" height="39.789" x="1650" y="306.36" fill="#3D176E" rx="2.5" ry="2.5" style="stroke:#000d19;stroke-width:.5"/><circle cx="1665" cy="326.255" r="11" fill="#ADD1B2" style="stroke:#181818;stroke-width:1"/><path d="M1667.969 331.895q-.578.297-1.219.438-.64.156-1.344.156-2.5 0-3.828-1.64-1.312-1.657-1.312-4.782t1.312-4.781q1.328-1.656 3.828-1.656.703 0 1.344.156.656.156 1.219.453v2.719q-.625-.579-1.219-.844-.594-.281-1.219-.281-1.343 0-2.031 1.078-.687 1.062-.687 3.156t.687 3.172q.688 1.062 2.031 1.062.625 0 1.219-.265.594-.281 1.219-.86z"/><text x="1684" y="332.14" fill="#D9B8FF" font-family="Helvetica" font-size="17" textLength="195">aws_sagemaker_image</text><rect width="457" height="39.789" x="2138" y="206.57" fill="#3D176E" rx="2.5" ry="2.5" style="stroke:#000d19;stroke-width:.5"/><circle cx="2153" cy="226.464" r="11" fill="#ADD1B2" style="stroke:#181818;stroke-width:1"/><path d="M2155.969 232.105q-.578.297-1.219.438-.64.156-1.344.156-2.5 0-3.828-1.64-1.312-1.657-1.312-4.782t1.312-4.781q1.328-1.657 3.828-1.657.703 0 1.344.157.656.156 1.219.453v2.719q-.625-.579-1.219-.844-.594-.281-1.219-.281-1.343 0-2.031 1.078-.687 1.062-.687 3.156t.687 3.172q.688 1.062 2.031 1.062.625 0 1.219-.265.594-.282 1.219-.86z"/><text x="2172" y="232.35" fill="#D9B8FF" font-family="Helvetica" font-size="17" textLength="415">aws_sagemaker_inference_recommendations_job</text><rect width="285" height="39.789" x="3094" y="306.36" fill="#3D176E" rx="2.5" ry="2.5" style="stroke:#000d19;stroke-width:.5"/><circle cx="3109" cy="326.255" r="11" fill="#ADD1B2" style="stroke:#181818;stroke-width:1"/><path d="M3111.969 331.895q-.578.297-1.219.438-.64.156-1.344.156-2.5 0-3.828-1.64-1.312-1.657-1.312-4.782t1.312-4.781q1.328-1.656 3.828-1.656.703 0 1.344.156.656.156 1.219.453v2.719q-.625-.579-1.219-.844-.594-.281-1.219-.281-1.343 0-2.031 1.078-.687 1.062-.687 3.156t.687 3.172q.688 1.062 2.031 1.062.625 0 1.219-.265.594-.281 1.219-.86z"/><text x="3128" y="332.14" fill="#D9B8FF" font-family="Helvetica" font-size="17" textLength="243">aws_sagemaker_labeling_job</text><rect width="237" height="39.789" x="3070" y="206.57" fill="#3D176E" rx="2.5" ry="2.5" style="stroke:#000d19;stroke-width:.5"/><circle cx="3085" cy="226.464" r="11" fill="#ADD1B2" style="stroke:#181818;stroke-width:1"/><path d="M3087.969 232.105q-.578.297-1.219.438-.64.156-1.344.156-2.5 0-3.828-1.64-1.312-1.657-1.312-4.782t1.312-4.781q1.328-1.657 3.828-1.657.703 0 1.344.157.656.156 1.219.453v2.719q-.625-.579-1.219-.844-.594-.281-1.219-.281-1.343 0-2.031 1.078-.687 1.062-.687 3.156t.687 3.172q.688 1.062 2.031 1.062.625 0 1.219-.265.594-.282 1.219-.86z"/><text x="3104" y="232.35" fill="#D9B8FF" font-family="Helvetica" font-size="17" textLength="195">aws_sagemaker_model</text><rect width="263" height="39.789" x="2772" y="206.57" fill="#3D176E" rx="2.5" ry="2.5" style="stroke:#000d19;stroke-width:.5"/><circle cx="2787" cy="226.464" r="11" fill="#ADD1B2" style="stroke:#181818;stroke-width:1"/><path d="M2789.969 232.105q-.578.297-1.219.438-.64.156-1.344.156-2.5 0-3.828-1.64-1.312-1.657-1.312-4.782t1.312-4.781q1.328-1.657 3.828-1.657.703 0 1.344.157.656.156 1.219.453v2.719q-.625-.579-1.219-.844-.594-.281-1.219-.281-1.343 0-2.031 1.078-.687 1.062-.687 3.156t.687 3.172q.688 1.062 2.031 1.062.625 0 1.219-.265.594-.282 1.219-.86z"/><text x="2806" y="232.35" fill="#D9B8FF" font-family="Helvetica" font-size="17" textLength="221">aws_sagemaker_notebook</text><rect width="251" height="39.789" x="1947" y="306.36" fill="#3D176E" rx="2.5" ry="2.5" style="stroke:#000d19;stroke-width:.5"/><circle cx="1962" cy="326.255" r="11" fill="#ADD1B2" style="stroke:#181818;stroke-width:1"/><path d="M1964.969 331.895q-.578.297-1.219.438-.64.156-1.344.156-2.5 0-3.828-1.64-1.312-1.657-1.312-4.782t1.312-4.781q1.328-1.656 3.828-1.656.703 0 1.344.156.656.156 1.219.453v2.719q-.625-.579-1.219-.844-.594-.281-1.219-.281-1.343 0-2.031 1.078-.687 1.062-.687 3.156t.687 3.172q.688 1.062 2.031 1.062.625 0 1.219-.265.594-.281 1.219-.86z"/><text x="1981" y="332.14" fill="#D9B8FF" font-family="Helvetica" font-size="17" textLength="209">aws_sagemaker_pipeline</text><rect width="306" height="39.789" x="923.5" y="306.36" fill="#3D176E" rx="2.5" ry="2.5" style="stroke:#000d19;stroke-width:.5"/><circle cx="938.5" cy="326.255" r="11" fill="#ADD1B2" style="stroke:#181818;stroke-width:1"/><path d="M941.469 331.895q-.578.297-1.219.438-.64.156-1.344.156-2.5 0-3.828-1.64-1.312-1.657-1.312-4.782t1.312-4.781q1.328-1.656 3.828-1.656.703 0 1.344.156.656.156 1.219.453v2.719q-.625-.579-1.219-.844-.594-.281-1.219-.281-1.343 0-2.031 1.078-.687 1.062-.687 3.156t.687 3.172q.688 1.062 2.031 1.062.625 0 1.219-.265.594-.281 1.219-.86z"/><text x="957.5" y="332.14" fill="#D9B8FF" font-family="Helvetica" font-size="17" textLength="264">aws_sagemaker_processing_job</text><rect width="285" height="39.789" x="2705" y="406.15" fill="#3D176E" rx="2.5" ry="2.5" style="stroke:#000d19;stroke-width:.5"/><circle cx="2720" cy="426.045" r="11" fill="#ADD1B2" style="stroke:#181818;stroke-width:1"/><path d="M2722.969 431.685q-.578.297-1.219.438-.64.156-1.344.156-2.5 0-3.828-1.64-1.312-1.657-1.312-4.782t1.312-4.781q1.328-1.656 3.828-1.656.703 0 1.344.156.656.156 1.219.453v2.719q-.625-.578-1.219-.844-.594-.281-1.219-.281-1.343 0-2.031 1.078-.687 1.062-.687 3.156t.687 3.172q.688 1.062 2.031 1.062.625 0 1.219-.265.594-.281 1.219-.86z"/><text x="2739" y="431.93" fill="#D9B8FF" font-family="Helvetica" font-size="17" textLength="243">aws_sagemaker_training_job</text><rect width="220" height="39.789" x="3484.5" y="206.57" fill="#3D176E" rx="2.5" ry="2.5" style="stroke:#000d19;stroke-width:.5"/><circle cx="3499.5" cy="226.464" r="11" fill="#ADD1B2" style="stroke:#181818;stroke-width:1"/><path d="M3502.469 232.105q-.578.297-1.219.438-.64.156-1.344.156-2.5 0-3.828-1.64-1.312-1.657-1.312-4.782t1.312-4.781q1.328-1.657 3.828-1.657.703 0 1.344.157.656.156 1.219.453v2.719q-.625-.579-1.219-.844-.594-.281-1.219-.281-1.343 0-2.031 1.078-.687 1.062-.687 3.156t.687 3.172q.688 1.062 2.031 1.062.625 0 1.219-.265.594-.282 1.219-.86z"/><text x="3518.5" y="232.35" fill="#D9B8FF" font-family="Helvetica" font-size="17" textLength="178">aws_sns_subscription</text><path fill="none" d="M4685.11 246.79c-15.42 17.14-33.826 37.6-49.246 54.73" style="stroke:#1a83af;stroke-width:2"/><path fill="#1A83AF" d="m4631.85 305.98 8.994-4.013-5.649.297-.297-5.65z" style="stroke:#1a83af;stroke-width:2"/><path fill="none" d="M2726.5 132.27c177.99 10.62 623.9 38.7 996 74.3 5.71.55 5.561.52 11.431 1.12" style="stroke:#1a83af;stroke-width:2"/><path fill="#1A83AF" d="m3739.9 208.3-8.547-4.894 3.573 4.386-4.386 3.572z" style="stroke:#1a83af;stroke-width:2"/><path fill="none" d="M2726.39 129.35c212.9 5.12 816.85 23.61 1316.11 77.22 5.82.63 5.85.569 11.87 1.349" style="stroke:#1a83af;stroke-width:2"/><path fill="#1A83AF" d="m4060.32 208.69-8.411-5.123 3.452 4.48-4.48 3.453z" style="stroke:#1a83af;stroke-width:2"/><path fill="none" d="M2726.39 127.91c236.39 1.48 959.34 11.57 1554.11 78.66 5.57.63 5.35.524 11.11 1.344" style="stroke:#1a83af;stroke-width:2"/><path fill="#1A83AF" d="m4297.55 208.76-8.346-5.228 3.396 4.523-4.524 3.397z" style="stroke:#1a83af;stroke-width:2"/><path fill="none" d="M2726.44 127.75c331.62.76 1602.44 8.26 1766.06 78.82 49.11 21.18 86.302 66.837 105.912 94.647" style="stroke:#1a83af;stroke-width:2"/><path fill="#1A83AF" d="m4601.87 306.12-1.917-9.66-.964 5.574-5.574-.964z" style="stroke:#1a83af;stroke-width:2"/><path fill="none" d="M2726.17 128.55c260.69 3.39 1119.84 18.63 1827.33 78.02 8.83.75 11.983.989 21.153 1.959" style="stroke:#1a83af;stroke-width:2"/><path fill="#1A83AF" d="m4580.62 209.16-8.53-4.924 3.558 4.398-4.399 3.557z" style="stroke:#1a83af;stroke-width:2"/><path fill="none" d="M2568.59 128.69c-365.03 4.92-1892.1 28.15-2367.09 77.88-5.58.59-5.357.466-11.127 1.266" style="stroke:#1a83af;stroke-width:2"/><path fill="#1A83AF" d="m184.43 208.66 9.464 2.726-4.511-3.413 3.412-4.511z" style="stroke:#1a83af;stroke-width:2"/><path fill="none" d="M2568.62 127.95c-281.99 1.52-1266.32 11.62-2075.12 78.62-5.6.47-5.349.401-11.129.971" style="stroke:#1a83af;stroke-width:2"/><path fill="#1A83AF" d="m476.4 208.13 9.35 3.097-4.374-3.588 3.588-4.373z" style="stroke:#1a83af;stroke-width:2"/><path fill="none" d="M2568.87 127.41c-263.43-.17-1138.76 5.26-1857.37 79.16-8.78.91-11.968 1.224-21.068 2.504" style="stroke:#1a83af;stroke-width:2"/><path fill="#1A83AF" d="m684.49 209.91 9.47 2.707-4.519-3.403 3.404-4.519z" style="stroke:#1a83af;stroke-width:2"/><path fill="none" d="M2568.56 128.63c-235.75 3.48-955.03 18.54-1548.06 77.94-5.63.57-5.444.483-11.264 1.193" style="stroke:#1a83af;stroke-width:2"/><path fill="#1A83AF" d="m1003.28 208.49 9.418 2.88-4.455-3.486 3.486-4.454z" style="stroke:#1a83af;stroke-width:2"/><path fill="none" d="M2726.47 127.48c383.94-.56 2040.19 1.51 2115.03 79.09 151.06 156.59-695.756 266.644-1034.206 303.874" style="stroke:#1a83af;stroke-width:2"/><path fill="#1A83AF" d="m3801.33 511.1 9.383 2.992-4.413-3.539 3.539-4.413z" style="stroke:#1a83af;stroke-width:2"/><path fill="none" d="M2568.66 133.57c-161.88 12.26-543.41 41.95-863.16 73-8.77.86-11.822 1.143-20.912 2.083" style="stroke:#1a83af;stroke-width:2"/><path fill="#1A83AF" d="m1678.62 209.27 9.364 3.053-4.39-3.567 3.567-4.39z" style="stroke:#1a83af;stroke-width:2"/><path fill="none" d="M2568.7 131.32c-200.1 9.5-744 37.01-1196.2 75.25-5.67.48-5.455.446-11.275.976" style="stroke:#1a83af;stroke-width:2"/><path fill="#1A83AF" d="m1355.25 208.09 9.326 3.167-4.347-3.62 3.621-4.347z" style="stroke:#1a83af;stroke-width:2"/><path fill="none" d="M2568.76 138.1c-128.21 16.96-377.172 49.903-530.022 70.133" style="stroke:#1a83af;stroke-width:2"/><path fill="#1A83AF" d="m2032.79 209.02 9.447 2.784-4.49-3.44 3.44-4.49z" style="stroke:#1a83af;stroke-width:2"/><path fill="none" d="M2661.97 146.92c19.31 24.86 55.39 68.6 92.53 99.44 28.38 23.57 59.19 42.163 85.98 56.733" style="stroke:#1a83af;stroke-width:2"/><path fill="#1A83AF" d="m2845.75 305.96-5.995-7.814 1.603 5.425-5.425 1.603z" style="stroke:#1a83af;stroke-width:2"/><path fill="none" d="M2646.45 146.68c-2.33 25.39-9.82 70.57-33.95 99.68-23.2 27.99-53.297 44.917-84.467 57.347" style="stroke:#1a83af;stroke-width:2"/><path fill="#1A83AF" d="m2522.46 305.93 9.841.382-5.197-2.234 2.234-5.197z" style="stroke:#1a83af;stroke-width:2"/><path fill="none" d="M2568.64 128.81c-205.92 3.77-747.61 19.22-801.14 77.76-24.61 26.92-16.558 67.642-8.108 93.742" style="stroke:#1a83af;stroke-width:2"/><path fill="#1A83AF" d="m1761.24 306.02 1.033-9.794-2.573 5.037-5.038-2.573z" style="stroke:#1a83af;stroke-width:2"/><path fill="none" d="M2591.98 147c-49.26 17.14-115.183 40.088-164.413 57.218" style="stroke:#1a83af;stroke-width:2"/><path fill="#1A83AF" d="m2421.9 206.19 9.815.82-5.093-2.463 2.464-5.093z" style="stroke:#1a83af;stroke-width:2"/><path fill="none" d="M2726.46 131.09c170.06 8.14 558.82 31.43 598.04 75.48 29.34 32.96-15.495 71.856-51.345 96.026" style="stroke:#1a83af;stroke-width:2"/><path fill="#1A83AF" d="m3268.18 305.95 9.698-1.714-5.552-1.081 1.08-5.553z" style="stroke:#1a83af;stroke-width:2"/><path fill="none" d="M2726.46 141.95c93.7 16.94 244.476 44.193 349.046 63.093" style="stroke:#1a83af;stroke-width:2"/><path fill="#1A83AF" d="m3081.41 206.11-8.145-5.537 3.225 4.648-4.648 3.225z" style="stroke:#1a83af;stroke-width:2"/><path fill="none" d="M2698.08 147c44.88 17.14 104.495 39.92 149.345 57.05" style="stroke:#1a83af;stroke-width:2"/><path fill="#1A83AF" d="m2853.03 206.19-6.98-6.948 2.31 5.164-5.165 2.31z" style="stroke:#1a83af;stroke-width:2"/><path fill="none" d="M2568.61 130.09c-129.62 5.47-380.09 22.86-448.11 76.48-31.24 24.63-41.417 66.9-45.217 93.68" style="stroke:#1a83af;stroke-width:2"/><path fill="#1A83AF" d="m2074.44 306.19 5.225-8.349-4.523 3.399-3.398-4.523z" style="stroke:#1a83af;stroke-width:2"/><path fill="none" d="M2568.73 127.99c-348 1.74-1733.16 12.81-1796.23 78.58-56.95 59.41 42.654 88.736 144.624 103.746" style="stroke:#1a83af;stroke-width:2"/><path fill="#1A83AF" d="m923.06 311.19-8.321-5.268 3.374 4.54-4.54 3.375z" style="stroke:#1a83af;stroke-width:2"/><path fill="none" d="M2726.39 126.72c163.13-.46 530.48 6.89 628.11 79.85 38.54 28.81 32.48 52.63 42 99.79 3.5 17.34 11.58 26.43 0 39.79-51.59 59.54-255.512 75.053-400.292 78.603" style="stroke:#1a83af;stroke-width:2"/><path fill="#1A83AF" d="m2990.21 424.9 9.095 3.778-4.096-3.9 3.9-4.097z" style="stroke:#1a83af;stroke-width:2"/><path fill="none" d="M2726.37 134.31c144.97 12.41 463.46 40.78 731.13 72.26 8.7 1.03 11.759 1.377 20.809 2.537" style="stroke:#1a83af;stroke-width:2"/><path fill="#1A83AF" d="m3484.26 209.87-8.418-5.112 3.459 4.476-4.476 3.46z" style="stroke:#1a83af;stroke-width:2"/><path fill="none" d="M932.06 246.79c31.56 17.14 72.148 39.196 103.678 56.326" style="stroke:#1a83af;stroke-width:2"/><path fill="#1A83AF" d="m1041.01 305.98-5.999-7.811 1.606 5.424-5.425 1.605z" style="stroke:#1a83af;stroke-width:2"/><path fill="none" d="M463.64 47.19c-78 37.78-244.58 118.445-322.71 156.285" style="stroke:#1a83af;stroke-width:2"/><path fill="#1A83AF" d="m135.53 206.09 9.844-.323-5.344-1.856 1.856-5.344z" style="stroke:#1a83af;stroke-width:2"/><path fill="none" d="M488.26 47.19c-29.83 37.78-91.862 116.351-121.742 154.191" style="stroke:#1a83af;stroke-width:2"/><path fill="#1A83AF" d="m362.8 206.09 8.717-4.584-5.618.66-.66-5.618z" style="stroke:#1a83af;stroke-width:2"/><path fill="none" d="M512.68 47.19c17.97 37.78 55.023 115.642 73.023 153.482" style="stroke:#1a83af;stroke-width:2"/><path fill="#1A83AF" d="m588.28 206.09-.254-9.846-1.894 5.33-5.33-1.893z" style="stroke:#1a83af;stroke-width:2"/><path fill="none" d="M572.41 31.03c319.58 14.58 1650.256 75.277 1990.196 90.777" style="stroke:#1a83af;stroke-width:2"/><path fill="#1A83AF" d="m2568.6 122.08-8.809-4.406 3.814 4.178-4.178 3.814z" style="stroke:#1a83af;stroke-width:2"/><path fill="none" d="M1443.74 246.85c-80.19 17.12-190.652 40.707-270.792 57.817" style="stroke:#1a83af;stroke-width:2"/><path fill="#1A83AF" d="m1167.08 305.92 9.637 2.033-4.747-3.077 3.076-4.747z" style="stroke:#1a83af;stroke-width:2"/><path fill="none" d="M1543.96 246.85c14.66 27.62 45.72 77.4 88.54 99.3 93.34 47.73 765.602 68.718 1066.212 75.818" style="stroke:#1a83af;stroke-width:2"/><path fill="#1A83AF" d="m2704.71 422.11-8.903-4.211 3.904 4.093-4.093 3.904z" style="stroke:#1a83af;stroke-width:2"/><path fill="none" d="M1880.84 246.79c-24.54 17.14-55.29 38.625-79.82 55.755" style="stroke:#1a83af;stroke-width:2"/><path fill="#1A83AF" d="m1796.1 305.98 9.669-1.873-5.57-.99.99-5.57z" style="stroke:#1a83af;stroke-width:2"/><path fill="none" d="M1940.9 246.79c28.75 17.14 65.386 38.987 94.116 56.117" style="stroke:#1a83af;stroke-width:2"/><path fill="#1A83AF" d="m2040.17 305.98-5.682-8.045 1.387 5.484-5.484 1.388z" style="stroke:#1a83af;stroke-width:2"/><path fill="none" d="M2535.35 346.58c68.09 17.11 161.171 40.507 229.301 57.637" style="stroke:#1a83af;stroke-width:2"/><path fill="#1A83AF" d="m2770.47 405.68-7.753-6.074 2.904 4.855-4.855 2.904z" style="stroke:#1a83af;stroke-width:2"/><path fill="none" d="M3159.65 346.58c-68.09 17.11-161.171 40.507-229.301 57.637" style="stroke:#1a83af;stroke-width:2"/><path fill="#1A83AF" d="m2924.53 405.68 9.704 1.685-4.855-2.904 2.904-4.855z" style="stroke:#1a83af;stroke-width:2"/><path fill="none" d="M3128.24 246.79c-53.38 17.11-125.206 40.138-178.636 57.268" style="stroke:#1a83af;stroke-width:2"/><path fill="#1A83AF" d="m2943.89 305.89 9.792 1.061-5.03-2.588 2.587-5.03z" style="stroke:#1a83af;stroke-width:2"/><path fill="none" d="M3197.98 246.79c8.42 17.14 18.006 36.674 26.416 53.804" style="stroke:#1a83af;stroke-width:2"/><path fill="#1A83AF" d="m3227.04 305.98-.376-9.842-1.828 5.354-5.353-1.828z" style="stroke:#1a83af;stroke-width:2"/><path fill="none" d="M1229.8 335.72c338.53 18.69 1139.92 62.95 1468.71 81.1" style="stroke:#1a83af;stroke-width:2"/><path fill="#1A83AF" d="m2704.5 417.15-8.766-4.49 3.774 4.214-4.215 3.774z" style="stroke:#1a83af;stroke-width:2"/><path fill="none" d="m2990.33 444.08 537.482 64.1" style="stroke:#1a83af;stroke-width:2"/><path fill="#1A83AF" d="m3533.77 508.89-8.463-5.038 3.498 4.446-4.445 3.498z" style="stroke:#1a83af;stroke-width:2"/></svg>