<svg xmlns="http://www.w3.org/2000/svg" width="953" height="1272" preserveAspectRatio="none" style="width:953px;height:1272px"><rect width="155" height="74.086" x="265.5" y="438.76" fill="#3D176E" rx="2.5" ry="2.5" style="stroke:#000d19;stroke-width:.5"/><circle cx="280.5" cy="458.654" r="11" fill="#ADD1B2" style="stroke:#181818;stroke-width:1"/><path d="M283.469 464.295q-.578.297-1.219.438-.64.156-1.344.156-2.5 0-3.828-1.64-1.312-1.657-1.312-4.782t1.312-4.781q1.328-1.656 3.828-1.656.703 0 1.344.156.656.156 1.219.453v2.719q-.625-.579-1.219-.844-.594-.281-1.219-.281-1.344 0-2.031 1.078-.688 1.062-.688 3.156 0 2.094.688 3.172.688 1.062 2.031 1.062.625 0 1.219-.265.594-.281 1.219-.86v2.72Z"/><text x="299.5" y="464.54" fill="#D9B8FF" font-family="Helvetica" font-size="17" textLength="113">aws_resource</text><path d="M266.5 478.549h153" style="stroke:#000d19;stroke-width:.5"/><text x="276.5" y="500.544" fill="#D9B8FF" font-family="sans-serif" font-size="14" font-weight="bold" textLength="26">arn</text><text x="302.5" y="500.544" fill="#D9B8FF" font-family="sans-serif" font-size="14" textLength="48">: string</text><rect width="543" height="152.977" x="178.5" y="633.85" fill="#3D176E" rx="2.5" ry="2.5" style="stroke:#000d19;stroke-width:.5"/><circle cx="319.75" cy="653.745" r="11" fill="#ADD1B2" style="stroke:#181818;stroke-width:1"/><path d="M322.719 659.385q-.578.297-1.219.438-.64.156-1.344.156-2.5 0-3.828-1.64-1.312-1.657-1.312-4.782t1.312-4.781q1.328-1.656 3.828-1.656.703 0 1.344.156.656.156 1.219.453v2.719q-.625-.578-1.219-.844-.594-.281-1.219-.281-1.344 0-2.031 1.078-.688 1.062-.688 3.156 0 2.094.688 3.172.688 1.062 2.031 1.062.625 0 1.219-.265.594-.281 1.219-.86v2.72Z"/><text x="345.25" y="659.63" fill="#D9B8FF" font-family="Helvetica" font-size="17" textLength="242">aws_vpc_peering_connection</text><path d="M179.5 673.639h541" style="stroke:#000d19;stroke-width:.5"/><text x="189.5" y="695.634" fill="#D9B8FF" font-family="sans-serif" font-size="14" font-weight="bold" textLength="237">connection_accepter_vpc_info</text><text x="426.5" y="695.634" fill="#D9B8FF" font-family="sans-serif" font-size="14" textLength="275">: aws_vpc_peering_connection_vpc_info</text><text x="189.5" y="721.931" fill="#D9B8FF" font-family="sans-serif" font-size="14" font-weight="bold" textLength="215">connection_expiration_time</text><text x="404.5" y="721.931" fill="#D9B8FF" font-family="sans-serif" font-size="14" textLength="70">: datetime</text><text x="189.5" y="748.228" fill="#D9B8FF" font-family="sans-serif" font-size="14" font-weight="bold" textLength="246">connection_requester_vpc_info</text><text x="435.5" y="748.228" fill="#D9B8FF" font-family="sans-serif" font-size="14" textLength="275">: aws_vpc_peering_connection_vpc_info</text><text x="189.5" y="774.525" fill="#D9B8FF" font-family="sans-serif" font-size="14" font-weight="bold" textLength="144">connection_status</text><text x="333.5" y="774.525" fill="#D9B8FF" font-family="sans-serif" font-size="14" textLength="309">: aws_vpc_peering_connection_state_reason</text><rect width="493" height="126.68" x="447.5" y="1138.69" fill="#3D176E" rx="2.5" ry="2.5" style="stroke:#000d19;stroke-width:.5"/><circle cx="480.05" cy="1158.584" r="11" fill="#ADD1B2" style="stroke:#181818;stroke-width:1"/><path d="M483.019 1164.225q-.578.297-1.219.438-.64.156-1.344.156-2.5 0-3.828-1.64-1.312-1.657-1.312-4.782t1.312-4.781q1.328-1.657 3.828-1.657.703 0 1.344.157.656.156 1.219.453v2.719q-.625-.579-1.219-.844-.594-.281-1.219-.281-1.344 0-2.031 1.078-.688 1.062-.688 3.156 0 2.094.688 3.172.688 1.062 2.031 1.062.625 0 1.219-.265.594-.282 1.219-.86v2.72Z"/><text x="502.95" y="1164.47" fill="#D9B8FF" font-family="Helvetica" font-size="17" textLength="412">aws_vpc_peering_connection_options_description</text><path d="M448.5 1178.479h491" style="stroke:#000d19;stroke-width:.5"/><text x="458.5" y="1200.474" fill="#D9B8FF" font-family="sans-serif" font-size="14" font-weight="bold" textLength="307">allow_dns_resolution_from_remote_vpc</text><text x="765.5" y="1200.474" fill="#D9B8FF" font-family="sans-serif" font-size="14" textLength="65">: boolean</text><text x="458.5" y="1226.771" fill="#D9B8FF" font-family="sans-serif" font-size="14" font-weight="bold" textLength="406">allow_egress_from_local_classic_link_to_remote_vpc</text><text x="864.5" y="1226.771" fill="#D9B8FF" font-family="sans-serif" font-size="14" textLength="65">: boolean</text><text x="458.5" y="1253.068" fill="#D9B8FF" font-family="sans-serif" font-size="14" font-weight="bold" textLength="406">allow_egress_from_local_vpc_to_remote_classic_link</text><text x="864.5" y="1253.068" fill="#D9B8FF" font-family="sans-serif" font-size="14" textLength="65">: boolean</text><rect width="400" height="100.383" x="7" y="912.57" fill="#3D176E" rx="2.5" ry="2.5" style="stroke:#000d19;stroke-width:.5"/><circle cx="22" cy="932.465" r="11" fill="#ADD1B2" style="stroke:#181818;stroke-width:1"/><path d="M24.969 938.105q-.578.297-1.219.438-.64.156-1.344.156-2.5 0-3.828-1.64-1.312-1.657-1.312-4.782t1.312-4.781q1.328-1.656 3.828-1.656.703 0 1.344.156.656.156 1.219.453v2.719q-.625-.578-1.219-.844-.594-.281-1.219-.281-1.343 0-2.031 1.078-.688 1.062-.688 3.156 0 2.094.688 3.172.688 1.062 2.031 1.062.625 0 1.219-.265.594-.281 1.219-.86v2.72Z"/><text x="41" y="938.35" fill="#D9B8FF" font-family="Helvetica" font-size="17" textLength="358">aws_vpc_peering_connection_state_reason</text><path d="M8 952.359h398" style="stroke:#000d19;stroke-width:.5"/><text x="18" y="974.354" fill="#D9B8FF" font-family="sans-serif" font-size="14" font-weight="bold" textLength="39">code</text><text x="57" y="974.354" fill="#D9B8FF" font-family="sans-serif" font-size="14" textLength="48">: string</text><text x="18" y="1000.651" fill="#D9B8FF" font-family="sans-serif" font-size="14" font-weight="bold" textLength="71">message</text><text x="89" y="1000.651" fill="#D9B8FF" font-family="sans-serif" font-size="14" textLength="48">: string</text><rect width="504" height="231.867" x="442" y="846.82" fill="#3D176E" rx="2.5" ry="2.5" style="stroke:#000d19;stroke-width:.5"/><circle cx="524.75" cy="866.715" r="11" fill="#ADD1B2" style="stroke:#181818;stroke-width:1"/><path d="M527.719 872.355q-.578.297-1.219.438-.64.156-1.344.156-2.5 0-3.828-1.64-1.312-1.657-1.312-4.782t1.312-4.781q1.328-1.656 3.828-1.656.703 0 1.344.156.656.156 1.219.453v2.719q-.625-.578-1.219-.844-.594-.281-1.219-.281-1.343 0-2.031 1.078-.688 1.062-.688 3.156 0 2.094.688 3.172.688 1.062 2.031 1.062.625 0 1.219-.265.594-.281 1.219-.86v2.72Z"/><text x="550.25" y="872.6" fill="#D9B8FF" font-family="Helvetica" font-size="17" textLength="320">aws_vpc_peering_connection_vpc_info</text><path d="M443 886.609h502" style="stroke:#000d19;stroke-width:.5"/><text x="453" y="908.604" fill="#D9B8FF" font-family="sans-serif" font-size="14" font-weight="bold" textLength="79">cidr_block</text><text x="532" y="908.604" fill="#D9B8FF" font-family="sans-serif" font-size="14" textLength="48">: string</text><text x="453" y="934.901" fill="#D9B8FF" font-family="sans-serif" font-size="14" font-weight="bold" textLength="111">cidr_block_set</text><text x="564" y="934.901" fill="#D9B8FF" font-family="sans-serif" font-size="14" textLength="58">: string[]</text><text x="453" y="961.198" fill="#D9B8FF" font-family="sans-serif" font-size="14" font-weight="bold" textLength="151">ipv6_cidr_block_set</text><text x="604" y="961.198" fill="#D9B8FF" font-family="sans-serif" font-size="14" textLength="58">: string[]</text><text x="453" y="987.495" fill="#D9B8FF" font-family="sans-serif" font-size="14" font-weight="bold" textLength="72">owner_id</text><text x="525" y="987.495" fill="#D9B8FF" font-family="sans-serif" font-size="14" textLength="48">: string</text><text x="453" y="1013.792" fill="#D9B8FF" font-family="sans-serif" font-size="14" font-weight="bold" textLength="127">peering_options</text><text x="580" y="1013.792" fill="#D9B8FF" font-family="sans-serif" font-size="14" textLength="355">: aws_vpc_peering_connection_options_description</text><text x="453" y="1040.089" fill="#D9B8FF" font-family="sans-serif" font-size="14" font-weight="bold" textLength="51">region</text><text x="504" y="1040.089" fill="#D9B8FF" font-family="sans-serif" font-size="14" textLength="48">: string</text><text x="453" y="1066.385" fill="#D9B8FF" font-family="sans-serif" font-size="14" font-weight="bold" textLength="49">vpc_id</text><text x="502" y="1066.385" fill="#D9B8FF" font-family="sans-serif" font-size="14" textLength="48">: string</text><rect width="205" height="39.789" x="455.5" y="455.91" fill="#3D176E" rx="2.5" ry="2.5" style="stroke:#000d19;stroke-width:.5"/><circle cx="470.5" cy="475.805" r="11" fill="#ADD1B2" style="stroke:#181818;stroke-width:1"/><path d="M473.469 481.445q-.578.297-1.219.438-.64.156-1.344.156-2.5 0-3.828-1.64-1.312-1.657-1.312-4.782t1.312-4.781q1.328-1.656 3.828-1.656.703 0 1.344.156.656.156 1.219.453v2.719q-.625-.578-1.219-.844-.594-.281-1.219-.281-1.344 0-2.031 1.078-.688 1.062-.688 3.156 0 2.094.688 3.172.688 1.062 2.031 1.062.625 0 1.219-.265.594-.281 1.219-.86v2.72Z"/><text x="489.5" y="481.69" fill="#D9B8FF" font-family="Helvetica" font-size="17" textLength="163">peering_connection</text><rect width="227" height="310.758" x="336.5" y="7" fill="#3D176E" rx="2.5" ry="2.5" style="stroke:#000d19;stroke-width:.5"/><circle cx="405.25" cy="26.895" r="11" fill="#ADD1B2" style="stroke:#181818;stroke-width:1"/><path d="M408.219 32.535q-.578.297-1.219.438-.64.156-1.344.156-2.5 0-3.828-1.64-1.312-1.657-1.312-4.782t1.312-4.781q1.328-1.656 3.828-1.656.703 0 1.344.156.656.156 1.219.453v2.719q-.625-.578-1.219-.844-.594-.281-1.219-.281-1.344 0-2.031 1.078-.688 1.062-.688 3.156 0 2.094.688 3.172.688 1.062 2.031 1.062.625 0 1.219-.265.594-.281 1.219-.86v2.72Z"/><text x="430.75" y="32.78" fill="#D9B8FF" font-family="Helvetica" font-size="17" textLength="71">resource</text><path d="M337.5 46.789h225" style="stroke:#000d19;stroke-width:.5"/><text x="347.5" y="68.784" fill="#D9B8FF" font-family="sans-serif" font-size="14" font-weight="bold" textLength="29">age</text><text x="376.5" y="68.784" fill="#D9B8FF" font-family="sans-serif" font-size="14" textLength="66">: duration</text><text x="347.5" y="95.081" fill="#D9B8FF" font-family="sans-serif" font-size="14" font-weight="bold" textLength="43">atime</text><text x="390.5" y="95.081" fill="#D9B8FF" font-family="sans-serif" font-size="14" textLength="70">: datetime</text><text x="347.5" y="121.378" fill="#D9B8FF" font-family="sans-serif" font-size="14" font-weight="bold" textLength="43">ctime</text><text x="390.5" y="121.378" fill="#D9B8FF" font-family="sans-serif" font-size="14" textLength="70">: datetime</text><text x="347.5" y="147.675" fill="#D9B8FF" font-family="sans-serif" font-size="14" font-weight="bold" textLength="14">id</text><text x="361.5" y="147.675" fill="#D9B8FF" font-family="sans-serif" font-size="14" textLength="48">: string</text><text x="347.5" y="173.972" fill="#D9B8FF" font-family="sans-serif" font-size="14" font-weight="bold" textLength="33">kind</text><text x="380.5" y="173.972" fill="#D9B8FF" font-family="sans-serif" font-size="14" textLength="48">: string</text><text x="347.5" y="200.269" fill="#D9B8FF" font-family="sans-serif" font-size="14" font-weight="bold" textLength="90">last_access</text><text x="437.5" y="200.269" fill="#D9B8FF" font-family="sans-serif" font-size="14" textLength="66">: duration</text><text x="347.5" y="226.565" fill="#D9B8FF" font-family="sans-serif" font-size="14" font-weight="bold" textLength="90">last_update</text><text x="437.5" y="226.565" fill="#D9B8FF" font-family="sans-serif" font-size="14" textLength="66">: duration</text><text x="347.5" y="252.862" fill="#D9B8FF" font-family="sans-serif" font-size="14" font-weight="bold" textLength="48">mtime</text><text x="395.5" y="252.862" fill="#D9B8FF" font-family="sans-serif" font-size="14" textLength="70">: datetime</text><text x="347.5" y="279.159" fill="#D9B8FF" font-family="sans-serif" font-size="14" font-weight="bold" textLength="43">name</text><text x="390.5" y="279.159" fill="#D9B8FF" font-family="sans-serif" font-size="14" textLength="48">: string</text><text x="347.5" y="305.456" fill="#D9B8FF" font-family="sans-serif" font-size="14" font-weight="bold" textLength="34">tags</text><text x="381.5" y="305.456" fill="#D9B8FF" font-family="sans-serif" font-size="14" textLength="171">: dictionary[string, string]</text><g fill="none"><path d="M390.03 337.93c-13.12 38.18-25.72 74.84-34.56 100.59" style="stroke:#ffaf37;stroke-width:2"/><path d="m383.69 335.82 13.12-16.64.12 21.19-13.24-4.55z" style="stroke:#ffaf37;stroke-width:2"/></g><g fill="none"><path d="M368.31 531.81c13.95 30.32 31.49 68.42 46.73 101.55" style="stroke:#ffaf37;stroke-width:2"/><path d="m361.72 535.23-2-21.09 14.72 15.24-12.72 5.85z" style="stroke:#ffaf37;stroke-width:2"/></g><path fill="none" d="M376.43 787.15c-37.85 39.01-83.1 85.64-117.31 120.89" style="stroke:#ffaf37;stroke-width:2"/><path fill="#FFAF37" d="m256.01 911.28 9.134-3.684-5.656.092-.092-5.656-3.386 9.248z" style="stroke:#ffaf37;stroke-width:2"/><path fill="none" d="M523.87 787.15c16.95 17.4 35.38 36.31 53.65 55.06" style="stroke:#ffaf37;stroke-width:2"/><path fill="#FFAF37" d="m580.66 845.46-3.424-9.235-.068 5.657-5.657-.068 9.149 3.646z" style="stroke:#ffaf37;stroke-width:2"/><g fill="none"><path d="M540.49 514.5c-14.88 32.04-36.71 79.04-55.2 118.86" style="stroke:#ffaf37;stroke-width:2"/><path d="m534.39 512.02 14.77-15.19-2.07 21.09-12.7-5.9z" style="stroke:#ffaf37;stroke-width:2"/></g><path fill="none" d="M694 1078.92v53.92" style="stroke:#ffaf37;stroke-width:2"/><path fill="#FFAF37" d="m694 1137.5 4-9-4 4-4-4 4 9z" style="stroke:#ffaf37;stroke-width:2"/><path fill="none" d="M510.55 337.99c16.55 47.72 32.27 93.03 40.81 117.66m-47.74-115.28.06-21.19 13.17 16.6-13.23 4.59z" style="stroke:#ffaf37;stroke-width:2"/></svg>