<svg xmlns="http://www.w3.org/2000/svg" xmlns:xlink="http://www.w3.org/1999/xlink" width="368" height="352" preserveAspectRatio="none" style="width:368px;height:352px"><a xlink:actuate="onRequest" xlink:href="#a" xlink:show="new" xlink:title="#kubernetes_pod" xlink:type="simple" target="_top"><rect id="a" width="175" height="39.789" x="26.5" y="106.79" fill="#3D176E" rx="2.5" ry="2.5" style="stroke:#000d19;stroke-width:.5"/><circle cx="41.5" cy="126.684" r="11" fill="#ADD1B2" style="stroke:#181818;stroke-width:1"/><path d="M44.469 132.325q-.578.297-1.219.438-.64.156-1.344.156-2.5 0-3.828-1.64-1.312-1.657-1.312-4.782t1.312-4.781q1.328-1.656 3.828-1.656.703 0 1.344.156.656.156 1.219.453v2.719q-.625-.579-1.219-.844-.594-.281-1.219-.281-1.343 0-2.031 1.078-.688 1.062-.688 3.156 0 2.094.688 3.172.688 1.062 2.031 1.062.625 0 1.219-.265.594-.281 1.219-.86v2.72Z"/><text x="60.5" y="132.57" fill="#D9B8FF" font-family="Helvetica" font-size="17" textLength="133">kubernetes_pod</text></a><a xlink:actuate="onRequest" xlink:href="#b" xlink:show="new" xlink:title="#kubernetes_persistent_volume" xlink:type="simple" target="_top"><rect id="b" width="300" height="39.789" x="34" y="306.37" fill="#3D176E" rx="2.5" ry="2.5" style="stroke:#000d19;stroke-width:.5"/><circle cx="49" cy="326.264" r="11" fill="#ADD1B2" style="stroke:#181818;stroke-width:1"/><path d="M51.969 331.905q-.578.297-1.219.438-.64.156-1.344.156-2.5 0-3.828-1.64-1.312-1.657-1.312-4.782t1.312-4.781q1.328-1.656 3.828-1.656.703 0 1.344.156.656.156 1.219.453v2.719q-.625-.579-1.219-.844-.594-.281-1.219-.281-1.343 0-2.031 1.078-.688 1.062-.688 3.156 0 2.094.688 3.172.688 1.062 2.031 1.062.625 0 1.219-.265.594-.281 1.219-.86v2.72Z"/><text x="68" y="332.15" fill="#D9B8FF" font-family="Helvetica" font-size="17" textLength="258">kubernetes_persistent_volume</text></a><a xlink:actuate="onRequest" xlink:href="#c" xlink:show="new" xlink:title="#kubernetes_namespace" xlink:type="simple" target="_top"><rect id="c" width="239" height="39.789" x="64.5" y="7" fill="#3D176E" rx="2.5" ry="2.5" style="stroke:#000d19;stroke-width:.5"/><circle cx="79.5" cy="26.895" r="11" fill="#ADD1B2" style="stroke:#181818;stroke-width:1"/><path d="M82.469 32.535q-.578.297-1.219.438-.64.156-1.344.156-2.5 0-3.828-1.64-1.312-1.657-1.312-4.782t1.312-4.781q1.328-1.656 3.828-1.656.703 0 1.344.156.656.156 1.219.453v2.719q-.625-.578-1.219-.844-.594-.281-1.219-.281-1.344 0-2.031 1.078-.688 1.062-.688 3.156 0 2.094.688 3.172.688 1.062 2.031 1.062.625 0 1.219-.265.594-.281 1.219-.86v2.72Z"/><text x="98.5" y="32.78" fill="#D9B8FF" font-family="Helvetica" font-size="17" textLength="197">kubernetes_namespace</text></a><a xlink:actuate="onRequest" xlink:href="#d" xlink:show="new" xlink:title="#kubernetes_persistent_volume_claim" xlink:type="simple" target="_top"><rect id="d" width="354" height="39.789" x="7" y="206.58" fill="#3D176E" rx="2.5" ry="2.5" style="stroke:#000d19;stroke-width:.5"/><circle cx="22" cy="226.475" r="11" fill="#ADD1B2" style="stroke:#181818;stroke-width:1"/><path d="M24.969 232.115q-.578.297-1.219.438-.64.156-1.344.156-2.5 0-3.828-1.64-1.312-1.657-1.312-4.782t1.312-4.781q1.328-1.656 3.828-1.656.703 0 1.344.156.656.156 1.219.453v2.719q-.625-.578-1.219-.844-.594-.281-1.219-.281-1.343 0-2.031 1.078-.688 1.062-.688 3.156 0 2.094.688 3.172.688 1.062 2.031 1.062.625 0 1.219-.265.594-.281 1.219-.86v2.72Z"/><text x="41" y="232.36" fill="#D9B8FF" font-family="Helvetica" font-size="17" textLength="312">kubernetes_persistent_volume_claim</text></a><path fill="none" d="M127.83 147.01c11.22 15.67 27.08 37.83 39.09 54.61" style="stroke:#1a83af;stroke-width:2"/><path fill="#1A83AF" d="m170.2 205.2-2.002-9.643-.915 5.582-5.582-.915 8.499 4.976z" style="stroke:#1a83af;stroke-width:2"/><path fill="none" d="M195.32 47.22c8.4 15.52 19.15 38.17 23.68 59.57 3.67 17.3 3.67 22.49 0 39.79-4.07 19.23-13.16 39.47-21.06 54.63" style="stroke:#1a83af;stroke-width:2"/><path fill="#1A83AF" d="m195.32 205.15 7.752-6.075-5.408 1.659-1.658-5.409-.686 9.825z" style="stroke:#1a83af;stroke-width:2"/><path fill="none" d="M170.17 47.22c-11.22 15.67-27.08 37.83-39.09 54.61" style="stroke:#1a83af;stroke-width:2"/><path fill="#1A83AF" d="m127.8 105.41 8.5-4.976-5.583.915-.915-5.582-2.002 9.643z" style="stroke:#1a83af;stroke-width:2"/><path fill="none" d="M184 246.8v53.31" style="stroke:#1a83af;stroke-width:2"/><path fill="#1A83AF" d="m184 304.99 4-9-4 4-4-4 4 9z" style="stroke:#1a83af;stroke-width:2"/></svg>