<svg xmlns="http://www.w3.org/2000/svg" width="639" height="352" viewBox="0 0 639 352"><rect width="219" height="39.789" x="289.5" y="106.79" fill="#3D176E" rx="2.5" ry="2.5" style="stroke:#000d19;stroke-width:.5"/><circle cx="304.5" cy="126.684" r="11" fill="#ADD1B2" style="stroke:#181818;stroke-width:1"/><path d="M307.469 132.325q-.578.297-1.219.438-.64.156-1.344.156-2.5 0-3.828-1.64-1.312-1.657-1.312-4.782t1.312-4.781q1.328-1.656 3.828-1.656.703 0 1.344.156.656.156 1.219.453v2.719q-.625-.579-1.219-.844-.594-.281-1.219-.281-1.344 0-2.031 1.078-.688 1.062-.688 3.156 0 2.094.688 3.172.688 1.062 2.031 1.062.625 0 1.219-.265.594-.281 1.219-.86v2.72Z"/><text x="323.5" y="132.57" fill="#D9B8FF" font-family="Helvetica" font-size="17" textLength="177">kubernetes_endpoint</text><rect width="264" height="39.789" x="7" y="206.58" fill="#3D176E" rx="2.5" ry="2.5" style="stroke:#000d19;stroke-width:.5"/><circle cx="22" cy="226.475" r="11" fill="#ADD1B2" style="stroke:#181818;stroke-width:1"/><path d="M24.969 232.115q-.578.297-1.219.438-.64.156-1.344.156-2.5 0-3.828-1.64-1.312-1.657-1.312-4.782t1.312-4.781q1.328-1.656 3.828-1.656.703 0 1.344.156.656.156 1.219.453v2.719q-.625-.578-1.219-.844-.594-.281-1.219-.281-1.343 0-2.031 1.078-.688 1.062-.688 3.156 0 2.094.688 3.172.688 1.062 2.031 1.062.625 0 1.219-.265.594-.281 1.219-.86v2.72Z"/><text x="41" y="232.36" fill="#D9B8FF" font-family="Helvetica" font-size="17" textLength="222">kubernetes_endpoint_slice</text><rect width="239" height="39.789" x="279.5" y="7" fill="#3D176E" rx="2.5" ry="2.5" style="stroke:#000d19;stroke-width:.5"/><circle cx="294.5" cy="26.895" r="11" fill="#ADD1B2" style="stroke:#181818;stroke-width:1"/><path d="M297.469 32.535q-.578.297-1.219.438-.64.156-1.344.156-2.5 0-3.828-1.64-1.312-1.657-1.312-4.782t1.312-4.781q1.328-1.656 3.828-1.656.703 0 1.344.156.656.156 1.219.453v2.719q-.625-.578-1.219-.844-.594-.281-1.219-.281-1.344 0-2.031 1.078-.688 1.062-.688 3.156 0 2.094.688 3.172.688 1.062 2.031 1.062.625 0 1.219-.265.594-.281 1.219-.86v2.72Z"/><text x="313.5" y="32.78" fill="#D9B8FF" font-family="Helvetica" font-size="17" textLength="197">kubernetes_namespace</text><rect width="186" height="39.789" x="306" y="206.58" fill="#3D176E" rx="2.5" ry="2.5" style="stroke:#000d19;stroke-width:.5"/><circle cx="321" cy="226.475" r="11" fill="#ADD1B2" style="stroke:#181818;stroke-width:1"/><path d="M323.969 232.115q-.578.297-1.219.438-.64.156-1.344.156-2.5 0-3.828-1.64-1.312-1.657-1.312-4.782t1.312-4.781q1.328-1.656 3.828-1.656.703 0 1.344.156.656.156 1.219.453v2.719q-.625-.578-1.219-.844-.594-.281-1.219-.281-1.344 0-2.031 1.078-.688 1.062-.688 3.156 0 2.094.688 3.172.688 1.062 2.031 1.062.625 0 1.219-.265.594-.281 1.219-.86v2.72Z"/><text x="340" y="232.36" fill="#D9B8FF" font-family="Helvetica" font-size="17" textLength="144">kubernetes_node</text><rect width="175" height="39.789" x="457.5" y="306.37" fill="#3D176E" rx="2.5" ry="2.5" style="stroke:#000d19;stroke-width:.5"/><circle cx="472.5" cy="326.264" r="11" fill="#ADD1B2" style="stroke:#181818;stroke-width:1"/><path d="M475.469 331.905q-.578.297-1.219.438-.64.156-1.344.156-2.5 0-3.828-1.64-1.312-1.657-1.312-4.782t1.312-4.781q1.328-1.656 3.828-1.656.703 0 1.344.156.656.156 1.219.453v2.719q-.625-.579-1.219-.844-.594-.281-1.219-.281-1.344 0-2.031 1.078-.688 1.062-.688 3.156 0 2.094.688 3.172.688 1.062 2.031 1.062.625 0 1.219-.265.594-.281 1.219-.86v2.72Z"/><text x="491.5" y="332.15" fill="#D9B8FF" font-family="Helvetica" font-size="17" textLength="133">kubernetes_pod</text><path fill="none" d="M347.63 147.01c-43.8 16.47-106.68 40.12-151.94 57.14" style="stroke:#1a83af;stroke-width:2"/><path fill="#1A83AF" d="m191.26 206.2 9.834.549-5.159-2.322 2.322-5.158-6.997 6.931z" style="stroke:#1a83af;stroke-width:2"/><path fill="none" d="M399 147.01v53.31" style="stroke:#1a83af;stroke-width:2"/><path fill="#1A83AF" d="m399 205.2 4-9-4 4-4-4 4 9z" style="stroke:#1a83af;stroke-width:2"/><path fill="none" d="M437.91 147.07c23.69 13.65 52.82 34.01 71.09 59.51 20.2 28.2 29.23 67.9 33.15 93.47" style="stroke:#1a83af;stroke-width:2"/><path fill="#1A83AF" d="m543 304.91 2.676-9.478-3.39 4.53-4.529-3.39L543 304.91z" style="stroke:#1a83af;stroke-width:2"/><path fill="none" d="M399 47.22v53.31" style="stroke:#1a83af;stroke-width:2"/><path fill="#1A83AF" d="m399 105.41 4-9-4 4-4-4 4 9z" style="stroke:#1a83af;stroke-width:2"/><path fill="none" d="M364.26 47.29c-26.14 15.1-62.43 37.19-92.26 59.5-40.53 30.32-83.55 70.33-109.34 95.29" style="stroke:#1a83af;stroke-width:2"/><path fill="#1A83AF" d="m159.36 205.25 9.241-3.405-5.656-.08.08-5.656-3.665 9.141z" style="stroke:#1a83af;stroke-width:2"/><path fill="none" d="M449.45 47.19c26.87 12.86 58.1 32.44 76.55 59.6 40.35 59.41 31.56 149.88 24.13 193.39" style="stroke:#1a83af;stroke-width:2"/><path fill="#1A83AF" d="m549.1 305 5.51-8.163-4.637 3.24-3.24-4.637L549.1 305z" style="stroke:#1a83af;stroke-width:2"/><path fill="none" d="M427.84 246.8c24 16.07 58.19 38.97 83.45 55.89" style="stroke:#1a83af;stroke-width:2"/><path fill="#1A83AF" d="m515.22 305.99-5.27-8.32 1.11 5.546-5.547 1.11 9.707 1.664z" style="stroke:#1a83af;stroke-width:2"/></svg>