<svg xmlns="http://www.w3.org/2000/svg" viewBox="0 0 3420 1961"><rect width="155" height="74.086" x="1803" y="438.76" fill="#3D176E" rx="2.5" ry="2.5" style="stroke:#000d19;stroke-width:.5"/><circle cx="1818" cy="458.654" r="11" fill="#ADD1B2" style="stroke:#181818;stroke-width:1"/><path d="M1820.969 464.295q-.578.297-1.219.438-.64.156-1.344.156-2.5 0-3.828-1.64-1.312-1.657-1.312-4.782t1.312-4.781q1.328-1.656 3.828-1.656.703 0 1.344.156.656.156 1.219.453v2.719q-.625-.579-1.219-.844-.594-.281-1.219-.281-1.343 0-2.031 1.078-.688 1.062-.688 3.156 0 2.094.688 3.172.688 1.062 2.031 1.062.625 0 1.219-.265.594-.281 1.219-.86v2.72Z"/><text x="1837" y="464.54" fill="#D9B8FF" font-family="Helvetica" font-size="17" textLength="113">aws_resource</text><path d="M1804 478.549h153" style="stroke:#000d19;stroke-width:.5"/><text x="1814" y="500.544" fill="#D9B8FF" font-family="sans-serif" font-size="14" font-weight="bold" textLength="26">arn</text><text x="1840" y="500.544" fill="#D9B8FF" font-family="sans-serif" font-size="14" textLength="48">: string</text><rect width="565" height="363.352" x="121" y="1244.29" fill="#3D176E" rx="2.5" ry="2.5" style="stroke:#000d19;stroke-width:.5"/><circle cx="241.25" cy="1264.185" r="11" fill="#ADD1B2" style="stroke:#181818;stroke-width:1"/><path d="M244.219 1269.825q-.578.297-1.219.438-.64.156-1.344.156-2.5 0-3.828-1.64-1.312-1.657-1.312-4.782t1.312-4.781q1.328-1.656 3.828-1.656.703 0 1.344.156.656.156 1.219.453v2.719q-.625-.578-1.219-.844-.594-.281-1.219-.281-1.344 0-2.031 1.078-.688 1.062-.688 3.156 0 2.094.688 3.172.688 1.062 2.031 1.062.625 0 1.219-.265.594-.281 1.219-.86v2.72Z"/><text x="266.75" y="1270.07" fill="#D9B8FF" font-family="Helvetica" font-size="17" textLength="306">aws_sagemaker_human_task_config</text><path d="M122 1284.079h563" style="stroke:#000d19;stroke-width:.5"/><text x="132" y="1306.074" fill="#D9B8FF" font-family="sans-serif" font-size="14" font-weight="bold" textLength="252">annotation_consolidation_config</text><text x="384" y="1306.074" fill="#D9B8FF" font-family="sans-serif" font-size="14" textLength="48">: string</text><text x="132" y="1332.371" fill="#D9B8FF" font-family="sans-serif" font-size="14" font-weight="bold" textLength="219">max_concurrent_task_count</text><text x="351" y="1332.371" fill="#D9B8FF" font-family="sans-serif" font-size="14" textLength="44">: int64</text><text x="132" y="1358.668" fill="#D9B8FF" font-family="sans-serif" font-size="14" font-weight="bold" textLength="348">number_of_human_workers_per_data_object</text><text x="480" y="1358.668" fill="#D9B8FF" font-family="sans-serif" font-size="14" textLength="44">: int64</text><text x="132" y="1384.965" fill="#D9B8FF" font-family="sans-serif" font-size="14" font-weight="bold" textLength="223">pre_human_task_lambda_arn</text><text x="355" y="1384.965" fill="#D9B8FF" font-family="sans-serif" font-size="14" textLength="48">: string</text><text x="132" y="1411.262" fill="#D9B8FF" font-family="sans-serif" font-size="14" font-weight="bold" textLength="223">public_workforce_task_price</text><text x="355" y="1411.262" fill="#D9B8FF" font-family="sans-serif" font-size="14" textLength="320">: aws_sagemaker_public_workforce_task_price</text><text x="132" y="1437.559" fill="#D9B8FF" font-family="sans-serif" font-size="14" font-weight="bold" textLength="281">task_availability_lifetime_in_seconds</text><text x="413" y="1437.559" fill="#D9B8FF" font-family="sans-serif" font-size="14" textLength="44">: int64</text><text x="132" y="1463.855" fill="#D9B8FF" font-family="sans-serif" font-size="14" font-weight="bold" textLength="129">task_description</text><text x="261" y="1463.855" fill="#D9B8FF" font-family="sans-serif" font-size="14" textLength="48">: string</text><text x="132" y="1490.152" fill="#D9B8FF" font-family="sans-serif" font-size="14" font-weight="bold" textLength="118">task_keywords</text><text x="250" y="1490.152" fill="#D9B8FF" font-family="sans-serif" font-size="14" textLength="58">: string[]</text><text x="132" y="1516.449" fill="#D9B8FF" font-family="sans-serif" font-size="14" font-weight="bold" textLength="208">task_time_limit_in_seconds</text><text x="340" y="1516.449" fill="#D9B8FF" font-family="sans-serif" font-size="14" textLength="44">: int64</text><text x="132" y="1542.746" fill="#D9B8FF" font-family="sans-serif" font-size="14" font-weight="bold" textLength="70">task_title</text><text x="202" y="1542.746" fill="#D9B8FF" font-family="sans-serif" font-size="14" textLength="48">: string</text><text x="132" y="1569.043" fill="#D9B8FF" font-family="sans-serif" font-size="14" font-weight="bold" textLength="70">ui_config</text><text x="202" y="1569.043" fill="#D9B8FF" font-family="sans-serif" font-size="14" textLength="188">: aws_sagemaker_ui_config</text><text x="132" y="1595.34" fill="#D9B8FF" font-family="sans-serif" font-size="14" font-weight="bold" textLength="112">workteam_arn</text><text x="244" y="1595.34" fill="#D9B8FF" font-family="sans-serif" font-size="14" textLength="48">: string</text><rect width="210" height="39.789" x="1775.5" y="633.85" fill="#3D176E" rx="2.5" ry="2.5" style="stroke:#000d19;stroke-width:.5"/><circle cx="1790.5" cy="653.745" r="11" fill="#ADD1B2" style="stroke:#181818;stroke-width:1"/><path d="M1793.469 659.385q-.578.297-1.219.438-.64.156-1.344.156-2.5 0-3.828-1.64-1.312-1.657-1.312-4.782t1.312-4.781q1.328-1.656 3.828-1.656.703 0 1.344.156.656.156 1.219.453v2.719q-.625-.578-1.219-.844-.594-.281-1.219-.281-1.343 0-2.031 1.078-.688 1.062-.688 3.156 0 2.094.688 3.172.688 1.062 2.031 1.062.625 0 1.219-.265.594-.281 1.219-.86v2.72Z"/><text x="1809.5" y="659.63" fill="#D9B8FF" font-family="Helvetica" font-size="17" textLength="168">aws_sagemaker_job</text><rect width="306" height="179.273" x="720.5" y="1336.33" fill="#3D176E" rx="2.5" ry="2.5" style="stroke:#000d19;stroke-width:.5"/><circle cx="735.5" cy="1356.225" r="11" fill="#ADD1B2" style="stroke:#181818;stroke-width:1"/><path d="M738.469 1361.865q-.578.297-1.219.438-.64.156-1.344.156-2.5 0-3.828-1.64-1.312-1.657-1.312-4.782t1.312-4.781q1.328-1.657 3.828-1.657.703 0 1.344.157.656.156 1.219.453v2.719q-.625-.579-1.219-.844-.594-.281-1.219-.281-1.343 0-2.031 1.078-.688 1.062-.688 3.156 0 2.094.688 3.172.688 1.062 2.031 1.062.625 0 1.219-.265.594-.282 1.219-.86v2.72Z"/><text x="754.5" y="1362.11" fill="#D9B8FF" font-family="Helvetica" font-size="17" textLength="264">aws_sagemaker_label_counters</text><path d="M721.5 1376.119h304" style="stroke:#000d19;stroke-width:.5"/><text x="731.5" y="1398.114" fill="#D9B8FF" font-family="sans-serif" font-size="14" font-weight="bold" textLength="207">failed_non_retryable_error</text><text x="938.5" y="1398.114" fill="#D9B8FF" font-family="sans-serif" font-size="14" textLength="44">: int64</text><text x="731.5" y="1424.411" fill="#D9B8FF" font-family="sans-serif" font-size="14" font-weight="bold" textLength="117">human_labeled</text><text x="848.5" y="1424.411" fill="#D9B8FF" font-family="sans-serif" font-size="14" textLength="44">: int64</text><text x="731.5" y="1450.708" fill="#D9B8FF" font-family="sans-serif" font-size="14" font-weight="bold" textLength="130">machine_labeled</text><text x="861.5" y="1450.708" fill="#D9B8FF" font-family="sans-serif" font-size="14" textLength="44">: int64</text><text x="731.5" y="1477.005" fill="#D9B8FF" font-family="sans-serif" font-size="14" font-weight="bold" textLength="99">total_labeled</text><text x="830.5" y="1477.005" fill="#D9B8FF" font-family="sans-serif" font-size="14" textLength="44">: int64</text><text x="731.5" y="1503.302" fill="#D9B8FF" font-family="sans-serif" font-size="14" font-weight="bold" textLength="77">unlabeled</text><text x="808.5" y="1503.302" fill="#D9B8FF" font-family="sans-serif" font-size="14" textLength="44">: int64</text><rect width="634" height="389.648" x="1563.5" y="794.64" fill="#3D176E" rx="2.5" ry="2.5" style="stroke:#000d19;stroke-width:.5"/><circle cx="1749.75" cy="814.534" r="11" fill="#ADD1B2" style="stroke:#181818;stroke-width:1"/><path d="M1752.719 820.175q-.578.297-1.219.438-.64.156-1.344.156-2.5 0-3.828-1.64-1.312-1.657-1.312-4.782t1.312-4.781q1.328-1.657 3.828-1.657.703 0 1.344.157.656.156 1.219.453v2.719q-.625-.579-1.219-.844-.594-.281-1.219-.281-1.343 0-2.031 1.078-.688 1.062-.688 3.156 0 2.094.688 3.172.688 1.062 2.031 1.062.625 0 1.219-.265.594-.282 1.219-.86v2.72Z"/><text x="1775.25" y="820.42" fill="#D9B8FF" font-family="Helvetica" font-size="17" textLength="243">aws_sagemaker_labeling_job</text><path d="M1564.5 834.429h632" style="stroke:#000d19;stroke-width:.5"/><text x="1574.5" y="856.424" fill="#D9B8FF" font-family="sans-serif" font-size="14" font-weight="bold" textLength="238">labeling_job_algorithms_config</text><text x="1812.5" y="856.424" fill="#D9B8FF" font-family="sans-serif" font-size="14" textLength="336">: aws_sagemaker_labeling_job_algorithms_config</text><text x="1574.5" y="882.721" fill="#D9B8FF" font-family="sans-serif" font-size="14" font-weight="bold" textLength="211">labeling_job_failure_reason</text><text x="1785.5" y="882.721" fill="#D9B8FF" font-family="sans-serif" font-size="14" textLength="48">: string</text><text x="1574.5" y="909.018" fill="#D9B8FF" font-family="sans-serif" font-size="14" font-weight="bold" textLength="248">labeling_job_human_task_config</text><text x="1822.5" y="909.018" fill="#D9B8FF" font-family="sans-serif" font-size="14" textLength="260">: aws_sagemaker_human_task_config</text><text x="1574.5" y="935.315" fill="#D9B8FF" font-family="sans-serif" font-size="14" font-weight="bold" textLength="195">labeling_job_input_config</text><text x="1769.5" y="935.315" fill="#D9B8FF" font-family="sans-serif" font-size="14" textLength="299">: aws_sagemaker_labeling_job_input_config</text><text x="1574.5" y="961.612" fill="#D9B8FF" font-family="sans-serif" font-size="14" font-weight="bold" textLength="255">labeling_job_job_reference_code</text><text x="1829.5" y="961.612" fill="#D9B8FF" font-family="sans-serif" font-size="14" textLength="48">: string</text><text x="1574.5" y="987.909" fill="#D9B8FF" font-family="sans-serif" font-size="14" font-weight="bold" textLength="261">labeling_job_label_attribute_name</text><text x="1835.5" y="987.909" fill="#D9B8FF" font-family="sans-serif" font-size="14" textLength="48">: string</text><text x="1574.5" y="1014.205" fill="#D9B8FF" font-family="sans-serif" font-size="14" font-weight="bold" textLength="323">labeling_job_label_category_config_s3_uri</text><text x="1897.5" y="1014.205" fill="#D9B8FF" font-family="sans-serif" font-size="14" textLength="48">: string</text><text x="1574.5" y="1040.502" fill="#D9B8FF" font-family="sans-serif" font-size="14" font-weight="bold" textLength="214">labeling_job_label_counters</text><text x="1788.5" y="1040.502" fill="#D9B8FF" font-family="sans-serif" font-size="14" textLength="228">: aws_sagemaker_label_counters</text><text x="1574.5" y="1066.799" fill="#D9B8FF" font-family="sans-serif" font-size="14" font-weight="bold" textLength="151">labeling_job_output</text><text x="1725.5" y="1066.799" fill="#D9B8FF" font-family="sans-serif" font-size="14" textLength="261">: aws_sagemaker_labeling_job_output</text><text x="1574.5" y="1093.096" fill="#D9B8FF" font-family="sans-serif" font-size="14" font-weight="bold" textLength="207">labeling_job_output_config</text><text x="1781.5" y="1093.096" fill="#D9B8FF" font-family="sans-serif" font-size="14" textLength="310">: aws_sagemaker_labeling_job_output_config</text><text x="1574.5" y="1119.393" fill="#D9B8FF" font-family="sans-serif" font-size="14" font-weight="bold" textLength="163">labeling_job_role_arn</text><text x="1737.5" y="1119.393" fill="#D9B8FF" font-family="sans-serif" font-size="14" textLength="48">: string</text><text x="1574.5" y="1145.69" fill="#D9B8FF" font-family="sans-serif" font-size="14" font-weight="bold" textLength="148">labeling_job_status</text><text x="1722.5" y="1145.69" fill="#D9B8FF" font-family="sans-serif" font-size="14" textLength="48">: string</text><text x="1574.5" y="1171.987" fill="#D9B8FF" font-family="sans-serif" font-size="14" font-weight="bold" textLength="257">labeling_job_stopping_conditions</text><text x="1831.5" y="1171.987" fill="#D9B8FF" font-family="sans-serif" font-size="14" textLength="355">: aws_sagemaker_labeling_job_stopping_conditions</text><rect width="575" height="126.68" x="1061" y="1362.62" fill="#3D176E" rx="2.5" ry="2.5" style="stroke:#000d19;stroke-width:.5"/><circle cx="1138.75" cy="1382.514" r="11" fill="#ADD1B2" style="stroke:#181818;stroke-width:1"/><path d="M1141.719 1388.155q-.578.297-1.219.438-.64.156-1.344.156-2.5 0-3.828-1.64-1.312-1.657-1.312-4.782t1.312-4.781q1.328-1.657 3.828-1.657.703 0 1.344.157.656.156 1.219.453v2.719q-.625-.579-1.219-.844-.594-.281-1.219-.281-1.343 0-2.031 1.078-.688 1.062-.688 3.156 0 2.094.688 3.172.688 1.062 2.031 1.062.625 0 1.219-.265.594-.282 1.219-.86v2.72Z"/><text x="1164.25" y="1388.4" fill="#D9B8FF" font-family="Helvetica" font-size="17" textLength="401">aws_sagemaker_labeling_job_algorithms_config</text><path d="M1062 1402.409h573" style="stroke:#000d19;stroke-width:.5"/><text x="1072" y="1424.404" fill="#D9B8FF" font-family="sans-serif" font-size="14" font-weight="bold" textLength="254">initial_active_learning_model_arn</text><text x="1326" y="1424.404" fill="#D9B8FF" font-family="sans-serif" font-size="14" textLength="48">: string</text><text x="1072" y="1450.701" fill="#D9B8FF" font-family="sans-serif" font-size="14" font-weight="bold" textLength="313">labeling_job_algorithm_specification_arn</text><text x="1385" y="1450.701" fill="#D9B8FF" font-family="sans-serif" font-size="14" textLength="48">: string</text><text x="1072" y="1476.998" fill="#D9B8FF" font-family="sans-serif" font-size="14" font-weight="bold" textLength="227">labeling_job_resource_config</text><text x="1299" y="1476.998" fill="#D9B8FF" font-family="sans-serif" font-size="14" textLength="326">: aws_sagemaker_labeling_job_resource_config</text><rect width="394" height="100.383" x="1683.5" y="1667.64" fill="#3D176E" rx="2.5" ry="2.5" style="stroke:#000d19;stroke-width:.5"/><circle cx="1698.5" cy="1687.534" r="11" fill="#ADD1B2" style="stroke:#181818;stroke-width:1"/><path d="M1701.469 1693.175q-.578.297-1.219.438-.64.156-1.344.156-2.5 0-3.828-1.64-1.312-1.657-1.312-4.782t1.312-4.781q1.328-1.657 3.828-1.657.703 0 1.344.157.656.156 1.219.453v2.719q-.625-.579-1.219-.844-.594-.281-1.219-.281-1.343 0-2.031 1.078-.688 1.062-.688 3.156 0 2.094.688 3.172.688 1.062 2.031 1.062.625 0 1.219-.265.594-.282 1.219-.86v2.72Z"/><text x="1717.5" y="1693.42" fill="#D9B8FF" font-family="Helvetica" font-size="17" textLength="352">aws_sagemaker_labeling_job_data_source</text><path d="M1684.5 1707.429h392" style="stroke:#000d19;stroke-width:.5"/><text x="1694.5" y="1729.424" fill="#D9B8FF" font-family="sans-serif" font-size="14" font-weight="bold" textLength="122">s3_data_source</text><text x="1816.5" y="1729.424" fill="#D9B8FF" font-family="sans-serif" font-size="14" textLength="48">: string</text><text x="1694.5" y="1755.721" fill="#D9B8FF" font-family="sans-serif" font-size="14" font-weight="bold" textLength="131">sns_data_source</text><text x="1825.5" y="1755.721" fill="#D9B8FF" font-family="sans-serif" font-size="14" textLength="48">: string</text><rect width="418" height="100.383" x="1671.5" y="1375.77" fill="#3D176E" rx="2.5" ry="2.5" style="stroke:#000d19;stroke-width:.5"/><circle cx="1695.95" cy="1395.665" r="11" fill="#ADD1B2" style="stroke:#181818;stroke-width:1"/><path d="M1698.919 1401.305q-.578.297-1.219.438-.64.156-1.344.156-2.5 0-3.828-1.64-1.312-1.657-1.312-4.782t1.312-4.781q1.328-1.656 3.828-1.656.703 0 1.344.156.656.156 1.219.453v2.719q-.625-.578-1.219-.844-.594-.281-1.219-.281-1.343 0-2.031 1.078-.688 1.062-.688 3.156 0 2.094.688 3.172.688 1.062 2.031 1.062.625 0 1.219-.265.594-.281 1.219-.86v2.72Z"/><text x="1717.05" y="1401.55" fill="#D9B8FF" font-family="Helvetica" font-size="17" textLength="355">aws_sagemaker_labeling_job_input_config</text><path d="M1672.5 1415.559h416" style="stroke:#000d19;stroke-width:.5"/><text x="1682.5" y="1437.554" fill="#D9B8FF" font-family="sans-serif" font-size="14" font-weight="bold" textLength="118">data_attributes</text><text x="1800.5" y="1437.554" fill="#D9B8FF" font-family="sans-serif" font-size="14" textLength="58">: string[]</text><text x="1682.5" y="1463.851" fill="#D9B8FF" font-family="sans-serif" font-size="14" font-weight="bold" textLength="96">data_source</text><text x="1778.5" y="1463.851" fill="#D9B8FF" font-family="sans-serif" font-size="14" textLength="300">: aws_sagemaker_labeling_job_data_source</text><rect width="350" height="100.383" x="2124.5" y="1375.77" fill="#3D176E" rx="2.5" ry="2.5" style="stroke:#000d19;stroke-width:.5"/><circle cx="2139.5" cy="1395.665" r="11" fill="#ADD1B2" style="stroke:#181818;stroke-width:1"/><path d="M2142.469 1401.305q-.578.297-1.219.438-.64.156-1.344.156-2.5 0-3.828-1.64-1.312-1.657-1.312-4.782t1.312-4.781q1.328-1.656 3.828-1.656.703 0 1.344.156.656.156 1.219.453v2.719q-.625-.578-1.219-.844-.594-.281-1.219-.281-1.343 0-2.031 1.078-.688 1.062-.688 3.156 0 2.094.688 3.172.688 1.062 2.031 1.062.625 0 1.219-.265.594-.281 1.219-.86v2.72Z"/><text x="2158.5" y="1401.55" fill="#D9B8FF" font-family="Helvetica" font-size="17" textLength="308">aws_sagemaker_labeling_job_output</text><path d="M2125.5 1415.559h348" style="stroke:#000d19;stroke-width:.5"/><text x="2135.5" y="1437.554" fill="#D9B8FF" font-family="sans-serif" font-size="14" font-weight="bold" textLength="246">final_active_learning_model_arn</text><text x="2381.5" y="1437.554" fill="#D9B8FF" font-family="sans-serif" font-size="14" textLength="48">: string</text><text x="2135.5" y="1463.851" fill="#D9B8FF" font-family="sans-serif" font-size="14" font-weight="bold" textLength="172">output_dataset_s3_uri</text><text x="2307.5" y="1463.851" fill="#D9B8FF" font-family="sans-serif" font-size="14" textLength="48">: string</text><rect width="409" height="126.68" x="2510" y="1362.62" fill="#3D176E" rx="2.5" ry="2.5" style="stroke:#000d19;stroke-width:.5"/><circle cx="2525" cy="1382.514" r="11" fill="#ADD1B2" style="stroke:#181818;stroke-width:1"/><path d="M2527.969 1388.155q-.578.297-1.219.438-.64.156-1.344.156-2.5 0-3.828-1.64-1.312-1.657-1.312-4.782t1.312-4.781q1.328-1.657 3.828-1.657.703 0 1.344.157.656.156 1.219.453v2.719q-.625-.579-1.219-.844-.594-.281-1.219-.281-1.343 0-2.031 1.078-.688 1.062-.688 3.156 0 2.094.688 3.172.688 1.062 2.031 1.062.625 0 1.219-.265.594-.282 1.219-.86v2.72Z"/><text x="2544" y="1388.4" fill="#D9B8FF" font-family="Helvetica" font-size="17" textLength="367">aws_sagemaker_labeling_job_output_config</text><path d="M2511 1402.409h407" style="stroke:#000d19;stroke-width:.5"/><text x="2521" y="1424.404" fill="#D9B8FF" font-family="sans-serif" font-size="14" font-weight="bold" textLength="88">kms_key_id</text><text x="2609" y="1424.404" fill="#D9B8FF" font-family="sans-serif" font-size="14" textLength="48">: string</text><text x="2521" y="1450.701" fill="#D9B8FF" font-family="sans-serif" font-size="14" font-weight="bold" textLength="120">s3_output_path</text><text x="2641" y="1450.701" fill="#D9B8FF" font-family="sans-serif" font-size="14" textLength="48">: string</text><text x="2521" y="1476.998" fill="#D9B8FF" font-family="sans-serif" font-size="14" font-weight="bold" textLength="107">sns_topic_arn</text><text x="2628" y="1476.998" fill="#D9B8FF" font-family="sans-serif" font-size="14" textLength="48">: string</text><rect width="424" height="100.383" x="1136.5" y="1667.64" fill="#3D176E" rx="2.5" ry="2.5" style="stroke:#000d19;stroke-width:.5"/><circle cx="1151.5" cy="1687.534" r="11" fill="#ADD1B2" style="stroke:#181818;stroke-width:1"/><path d="M1154.469 1693.175q-.578.297-1.219.438-.64.156-1.344.156-2.5 0-3.828-1.64-1.312-1.657-1.312-4.782t1.312-4.781q1.328-1.657 3.828-1.657.703 0 1.344.157.656.156 1.219.453v2.719q-.625-.579-1.219-.844-.594-.281-1.219-.281-1.343 0-2.031 1.078-.688 1.062-.688 3.156 0 2.094.688 3.172.688 1.062 2.031 1.062.625 0 1.219-.265.594-.282 1.219-.86v2.72Z"/><text x="1170.5" y="1693.42" fill="#D9B8FF" font-family="Helvetica" font-size="17" textLength="382">aws_sagemaker_labeling_job_resource_config</text><path d="M1137.5 1707.429h422" style="stroke:#000d19;stroke-width:.5"/><text x="1147.5" y="1729.424" fill="#D9B8FF" font-family="sans-serif" font-size="14" font-weight="bold" textLength="152">volume_kms_key_id</text><text x="1299.5" y="1729.424" fill="#D9B8FF" font-family="sans-serif" font-size="14" textLength="48">: string</text><text x="1147.5" y="1755.721" fill="#D9B8FF" font-family="sans-serif" font-size="14" font-weight="bold" textLength="84">vpc_config</text><text x="1231.5" y="1755.721" fill="#D9B8FF" font-family="sans-serif" font-size="14" textLength="200">: aws_sagemaker_vpc_config</text><rect width="459" height="100.383" x="2954" y="1375.77" fill="#3D176E" rx="2.5" ry="2.5" style="stroke:#000d19;stroke-width:.5"/><circle cx="2969" cy="1395.665" r="11" fill="#ADD1B2" style="stroke:#181818;stroke-width:1"/><path d="M2971.969 1401.305q-.578.297-1.219.438-.64.156-1.344.156-2.5 0-3.828-1.64-1.312-1.657-1.312-4.782t1.312-4.781q1.328-1.656 3.828-1.656.703 0 1.344.156.656.156 1.219.453v2.719q-.625-.578-1.219-.844-.594-.281-1.219-.281-1.343 0-2.031 1.078-.688 1.062-.688 3.156 0 2.094.688 3.172.688 1.062 2.031 1.062.625 0 1.219-.265.594-.281 1.219-.86v2.72Z"/><text x="2988" y="1401.55" fill="#D9B8FF" font-family="Helvetica" font-size="17" textLength="417">aws_sagemaker_labeling_job_stopping_conditions</text><path d="M2955 1415.559h457" style="stroke:#000d19;stroke-width:.5"/><text x="2965" y="1437.554" fill="#D9B8FF" font-family="sans-serif" font-size="14" font-weight="bold" textLength="264">max_human_labeled_object_count</text><text x="3229" y="1437.554" fill="#D9B8FF" font-family="sans-serif" font-size="14" textLength="44">: int64</text><text x="2965" y="1463.851" fill="#D9B8FF" font-family="sans-serif" font-size="14" font-weight="bold" textLength="330">max_percentage_of_input_dataset_labeled</text><text x="3295" y="1463.851" fill="#D9B8FF" font-family="sans-serif" font-size="14" textLength="44">: int64</text><rect width="419" height="74.086" x="7" y="1680.79" fill="#3D176E" rx="2.5" ry="2.5" style="stroke:#000d19;stroke-width:.5"/><circle cx="22" cy="1700.685" r="11" fill="#ADD1B2" style="stroke:#181818;stroke-width:1"/><path d="M24.969 1706.325q-.578.297-1.219.438-.64.156-1.344.156-2.5 0-3.828-1.64-1.312-1.657-1.312-4.782t1.312-4.781q1.328-1.656 3.828-1.656.703 0 1.344.156.656.156 1.219.453v2.719q-.625-.578-1.219-.844-.594-.281-1.219-.281-1.343 0-2.031 1.078-.688 1.062-.688 3.156 0 2.094.688 3.172.688 1.062 2.031 1.062.625 0 1.219-.265.594-.281 1.219-.86v2.72Z"/><text x="41" y="1706.57" fill="#D9B8FF" font-family="Helvetica" font-size="17" textLength="377">aws_sagemaker_public_workforce_task_price</text><path d="M8 1720.579h417" style="stroke:#000d19;stroke-width:.5"/><text x="18" y="1742.574" fill="#D9B8FF" font-family="sans-serif" font-size="14" font-weight="bold" textLength="116">amount_in_usd</text><text x="134" y="1742.574" fill="#D9B8FF" font-family="sans-serif" font-size="14" textLength="153">: aws_sagemaker_usd</text><rect width="260" height="100.383" x="460.5" y="1667.64" fill="#3D176E" rx="2.5" ry="2.5" style="stroke:#000d19;stroke-width:.5"/><circle cx="475.5" cy="1687.534" r="11" fill="#ADD1B2" style="stroke:#181818;stroke-width:1"/><path d="M478.469 1693.175q-.578.297-1.219.438-.64.156-1.344.156-2.5 0-3.828-1.64-1.312-1.657-1.312-4.782t1.312-4.781q1.328-1.657 3.828-1.657.703 0 1.344.157.656.156 1.219.453v2.719q-.625-.579-1.219-.844-.594-.281-1.219-.281-1.344 0-2.031 1.078-.688 1.062-.688 3.156 0 2.094.688 3.172.688 1.062 2.031 1.062.625 0 1.219-.265.594-.282 1.219-.86v2.72Z"/><text x="494.5" y="1693.42" fill="#D9B8FF" font-family="Helvetica" font-size="17" textLength="218">aws_sagemaker_ui_config</text><path d="M461.5 1707.429h258" style="stroke:#000d19;stroke-width:.5"/><text x="471.5" y="1729.424" fill="#D9B8FF" font-family="sans-serif" font-size="14" font-weight="bold" textLength="147">human_task_ui_arn</text><text x="618.5" y="1729.424" fill="#D9B8FF" font-family="sans-serif" font-size="14" textLength="48">: string</text><text x="471.5" y="1755.721" fill="#D9B8FF" font-family="sans-serif" font-size="14" font-weight="bold" textLength="144">ui_template_s3_uri</text><text x="615.5" y="1755.721" fill="#D9B8FF" font-family="sans-serif" font-size="14" textLength="48">: string</text><rect width="266" height="126.68" x="83.5" y="1828.02" fill="#3D176E" rx="2.5" ry="2.5" style="stroke:#000d19;stroke-width:.5"/><circle cx="121.9" cy="1847.915" r="11" fill="#ADD1B2" style="stroke:#181818;stroke-width:1"/><path d="M124.869 1853.555q-.578.297-1.219.438-.64.156-1.344.156-2.5 0-3.828-1.64-1.312-1.657-1.312-4.782t1.312-4.781q1.328-1.656 3.828-1.656.703 0 1.344.156.656.156 1.219.453v2.719q-.625-.578-1.219-.844-.594-.281-1.219-.281-1.343 0-2.031 1.078-.688 1.062-.688 3.156 0 2.094.688 3.172.688 1.062 2.031 1.062.625 0 1.219-.265.594-.281 1.219-.86v2.72Z"/><text x="146.1" y="1853.8" fill="#D9B8FF" font-family="Helvetica" font-size="17" textLength="172">aws_sagemaker_usd</text><path d="M84.5 1867.809h264" style="stroke:#000d19;stroke-width:.5"/><text x="94.5" y="1889.804" fill="#D9B8FF" font-family="sans-serif" font-size="14" font-weight="bold" textLength="44">cents</text><text x="138.5" y="1889.804" fill="#D9B8FF" font-family="sans-serif" font-size="14" textLength="44">: int64</text><text x="94.5" y="1916.101" fill="#D9B8FF" font-family="sans-serif" font-size="14" font-weight="bold" textLength="53">dollars</text><text x="147.5" y="1916.101" fill="#D9B8FF" font-family="sans-serif" font-size="14" textLength="44">: int64</text><text x="94.5" y="1942.398" fill="#D9B8FF" font-family="sans-serif" font-size="14" font-weight="bold" textLength="200">tenth_fractions_of_a_cent</text><text x="294.5" y="1942.398" fill="#D9B8FF" font-family="sans-serif" font-size="14" textLength="44">: int64</text><rect width="272" height="100.383" x="1212.5" y="1841.17" fill="#3D176E" rx="2.5" ry="2.5" style="stroke:#000d19;stroke-width:.5"/><circle cx="1227.5" cy="1861.064" r="11" fill="#ADD1B2" style="stroke:#181818;stroke-width:1"/><path d="M1230.469 1866.705q-.578.297-1.219.438-.64.156-1.344.156-2.5 0-3.828-1.64-1.312-1.657-1.312-4.782t1.312-4.781q1.328-1.657 3.828-1.657.703 0 1.344.157.656.156 1.219.453v2.719q-.625-.579-1.219-.844-.594-.281-1.219-.281-1.343 0-2.031 1.078-.688 1.062-.688 3.156 0 2.094.688 3.172.688 1.062 2.031 1.062.625 0 1.219-.265.594-.282 1.219-.86v2.72Z"/><text x="1246.5" y="1866.95" fill="#D9B8FF" font-family="Helvetica" font-size="17" textLength="230">aws_sagemaker_vpc_config</text><path d="M1213.5 1880.959h270" style="stroke:#000d19;stroke-width:.5"/><text x="1223.5" y="1902.954" fill="#D9B8FF" font-family="sans-serif" font-size="14" font-weight="bold" textLength="148">security_group_ids</text><text x="1371.5" y="1902.954" fill="#D9B8FF" font-family="sans-serif" font-size="14" textLength="58">: string[]</text><text x="1223.5" y="1929.251" fill="#D9B8FF" font-family="sans-serif" font-size="14" font-weight="bold" textLength="64">subnets</text><text x="1287.5" y="1929.251" fill="#D9B8FF" font-family="sans-serif" font-size="14" textLength="58">: string[]</text><rect width="227" height="310.758" x="1767" y="7" fill="#3D176E" rx="2.5" ry="2.5" style="stroke:#000d19;stroke-width:.5"/><circle cx="1835.75" cy="26.895" r="11" fill="#ADD1B2" style="stroke:#181818;stroke-width:1"/><path d="M1838.719 32.535q-.578.297-1.219.438-.64.156-1.344.156-2.5 0-3.828-1.64-1.312-1.657-1.312-4.782t1.312-4.781q1.328-1.656 3.828-1.656.703 0 1.344.156.656.156 1.219.453v2.719q-.625-.578-1.219-.844-.594-.281-1.219-.281-1.343 0-2.031 1.078-.688 1.062-.688 3.156 0 2.094.688 3.172.688 1.062 2.031 1.062.625 0 1.219-.265.594-.281 1.219-.86v2.72Z"/><text x="1861.25" y="32.78" fill="#D9B8FF" font-family="Helvetica" font-size="17" textLength="71">resource</text><path d="M1768 46.789h225" style="stroke:#000d19;stroke-width:.5"/><text x="1778" y="68.784" fill="#D9B8FF" font-family="sans-serif" font-size="14" font-weight="bold" textLength="29">age</text><text x="1807" y="68.784" fill="#D9B8FF" font-family="sans-serif" font-size="14" textLength="66">: duration</text><text x="1778" y="95.081" fill="#D9B8FF" font-family="sans-serif" font-size="14" font-weight="bold" textLength="43">atime</text><text x="1821" y="95.081" fill="#D9B8FF" font-family="sans-serif" font-size="14" textLength="70">: datetime</text><text x="1778" y="121.378" fill="#D9B8FF" font-family="sans-serif" font-size="14" font-weight="bold" textLength="43">ctime</text><text x="1821" y="121.378" fill="#D9B8FF" font-family="sans-serif" font-size="14" textLength="70">: datetime</text><text x="1778" y="147.675" fill="#D9B8FF" font-family="sans-serif" font-size="14" font-weight="bold" textLength="14">id</text><text x="1792" y="147.675" fill="#D9B8FF" font-family="sans-serif" font-size="14" textLength="48">: string</text><text x="1778" y="173.972" fill="#D9B8FF" font-family="sans-serif" font-size="14" font-weight="bold" textLength="33">kind</text><text x="1811" y="173.972" fill="#D9B8FF" font-family="sans-serif" font-size="14" textLength="48">: string</text><text x="1778" y="200.269" fill="#D9B8FF" font-family="sans-serif" font-size="14" font-weight="bold" textLength="90">last_access</text><text x="1868" y="200.269" fill="#D9B8FF" font-family="sans-serif" font-size="14" textLength="66">: duration</text><text x="1778" y="226.565" fill="#D9B8FF" font-family="sans-serif" font-size="14" font-weight="bold" textLength="90">last_update</text><text x="1868" y="226.565" fill="#D9B8FF" font-family="sans-serif" font-size="14" textLength="66">: duration</text><text x="1778" y="252.862" fill="#D9B8FF" font-family="sans-serif" font-size="14" font-weight="bold" textLength="48">mtime</text><text x="1826" y="252.862" fill="#D9B8FF" font-family="sans-serif" font-size="14" textLength="70">: datetime</text><text x="1778" y="279.159" fill="#D9B8FF" font-family="sans-serif" font-size="14" font-weight="bold" textLength="43">name</text><text x="1821" y="279.159" fill="#D9B8FF" font-family="sans-serif" font-size="14" textLength="48">: string</text><text x="1778" y="305.456" fill="#D9B8FF" font-family="sans-serif" font-size="14" font-weight="bold" textLength="34">tags</text><text x="1812" y="305.456" fill="#D9B8FF" font-family="sans-serif" font-size="14" textLength="171">: dictionary[string, string]</text><path fill="none" d="M1880.5 338.98v99.54m-7-99.34 7-20 7 20h-14zM286.66 1608.07c-16.33 25.32-31.65 49.06-43.78 67.87" style="stroke:#ffaf37;stroke-width:2"/><path fill="#FFAF37" d="m239.86 1679.61 8.236-5.4-5.529 1.196-1.197-5.528-1.51 9.732z" style="stroke:#ffaf37;stroke-width:2"/><path fill="none" d="M520.34 1608.07c12.57 19.5 24.55 38.06 34.93 54.15" style="stroke:#ffaf37;stroke-width:2"/><path fill="#FFAF37" d="m558.44 1666.14-1.526-9.73-1.188 5.53-5.53-1.188 8.244 5.388z" style="stroke:#ffaf37;stroke-width:2"/><path fill="none" d="M1880.5 534.04v99.66m-7-99.44 7-20 7 20h-14zm-310.41 495.47c-241.98 36.81-580.22 103.26-860.59 214.56-3.6 1.42-7.2 2.89-10.81 4.4" style="stroke:#ffaf37;stroke-width:2"/><path fill="#FFAF37" d="m687.4 1250.93 9.848.157-5.247-2.114 2.115-5.247-6.716 7.204z" style="stroke:#ffaf37;stroke-width:2"/><path fill="none" d="M1880.5 694.94v99.6m-7-99.41 7-20 7 20h-14zm-310.49 350.67c-163.79 38.37-361.75 100.65-519.51 198.49-36.96 22.92-71.2 55.86-99.13 87.36" style="stroke:#ffaf37;stroke-width:2"/><path fill="#FFAF37" d="m940.64 1334.88 8.945-4.122-5.645.365-.366-5.645-2.934 9.402z" style="stroke:#ffaf37;stroke-width:2"/><path fill="none" d="M1642.9 1184.52c-76.5 62.48-156.17 127.55-213.31 174.21" style="stroke:#ffaf37;stroke-width:2"/><path fill="#FFAF37" d="m1426.17 1362.34 9.507-2.57-5.626-.583.582-5.627-4.463 8.78z" style="stroke:#ffaf37;stroke-width:2"/><path fill="none" d="M1880.5 1184.52v184.97" style="stroke:#ffaf37;stroke-width:2"/><path fill="#FFAF37" d="m1880.5 1374.4 4-9-4 4-4-4 4 9z" style="stroke:#ffaf37;stroke-width:2"/><path fill="none" d="M2067.64 1184.52c65.83 68.27 134.64 139.62 180.02 186.69" style="stroke:#ffaf37;stroke-width:2"/><path fill="#FFAF37" d="m2250.71 1374.4-3.368-9.255-.103 5.656-5.656-.103 9.127 3.702z" style="stroke:#ffaf37;stroke-width:2"/><path fill="none" d="M2197.74 1102.11c97.11 39.44 202.36 87.72 293.76 142.18 54.42 32.42 109.79 77.2 151.74 114.07" style="stroke:#ffaf37;stroke-width:2"/><path fill="#FFAF37" d="m2646.51 1361.12-4.086-8.961.343 5.646-5.647.343 9.39 2.972z" style="stroke:#ffaf37;stroke-width:2"/><path fill="none" d="M2197.72 1033.08c215.56 36.94 503.2 102.1 738.78 211.21 70.29 32.55 140.63 86.63 188.17 127.15" style="stroke:#ffaf37;stroke-width:2"/><path fill="#FFAF37" d="m3128.2 1375.32-4.23-8.894.434 5.64-5.64.434 9.436 2.82z" style="stroke:#ffaf37;stroke-width:2"/><path fill="none" d="M1348.5 1489.5v171.99" style="stroke:#ffaf37;stroke-width:2"/><path fill="#FFAF37" d="m1348.5 1666.37 4-9-4 4-4-4 4 9z" style="stroke:#ffaf37;stroke-width:2"/><path fill="none" d="M1880.5 1476.46v185.34" style="stroke:#ffaf37;stroke-width:2"/><path fill="#FFAF37" d="m1880.5 1666.53 4-9-4 4-4-4 4 9z" style="stroke:#ffaf37;stroke-width:2"/><path fill="none" d="M1348.5 1768.44v66.47" style="stroke:#ffaf37;stroke-width:2"/><path fill="#FFAF37" d="m1348.5 1839.86 4-9-4 4-4-4 4 9z" style="stroke:#ffaf37;stroke-width:2"/><path fill="none" d="M216.5 1755.21v66.72" style="stroke:#ffaf37;stroke-width:2"/><path fill="#FFAF37" d="m216.5 1826.69 4-9-4 4-4-4 4 9z" style="stroke:#ffaf37;stroke-width:2"/></svg>