<?xml version="1.0" encoding="us-ascii" standalone="no"?><svg xmlns="http://www.w3.org/2000/svg" xmlns:xlink="http://www.w3.org/1999/xlink" contentStyleType="text/css" height="1190px" preserveAspectRatio="none" style="width:438px;height:1190px;" version="1.1" viewBox="0 0 438 1190" width="438px" zoomAndPan="magnify"><defs/><g><!--class gcp_deprecation_status--><g id="elem_gcp_deprecation_status"><rect codeLine="22" fill="#3D176E" height="179.2734" id="gcp_deprecation_status" rx="2.5" ry="2.5" style="stroke:#000D19;stroke-width:0.5;" width="237" x="111.5" y="1004.61"/><ellipse cx="126.5" cy="1024.5045" fill="#ADD1B2" rx="11" ry="11" style="stroke:#181818;stroke-width:1.0;"/><path d="M129.4688,1030.1452 Q128.8906,1030.442 128.25,1030.5827 Q127.6094,1030.7389 126.9063,1030.7389 Q124.4063,1030.7389 123.0781,1029.0983 Q121.7656,1027.442 121.7656,1024.317 Q121.7656,1021.192 123.0781,1019.5358 Q124.4063,1017.8795 126.9063,1017.8795 Q127.6094,1017.8795 128.25,1018.0358 Q128.9063,1018.192 129.4688,1018.4889 L129.4688,1021.2077 Q128.8438,1020.6295 128.25,1020.3639 Q127.6563,1020.0827 127.0313,1020.0827 Q125.6875,1020.0827 125,1021.1608 Q124.3125,1022.2233 124.3125,1024.317 Q124.3125,1026.4108 125,1027.4889 Q125.6875,1028.5514 127.0313,1028.5514 Q127.6563,1028.5514 128.25,1028.2858 Q128.8438,1028.0045 129.4688,1027.4264 L129.4688,1030.1452 Z " fill="#000000"/><text fill="#D9B8FF" font-family="Helvetica" font-size="17" lengthAdjust="spacing" textLength="195" x="145.5" y="1030.3898">gcp_deprecation_status</text><line style="stroke:#000D19;stroke-width:0.5;" x1="112.5" x2="347.5" y1="1044.3991" y2="1044.3991"/><text fill="#D9B8FF" font-family="sans-serif" font-size="14" font-weight="bold" lengthAdjust="spacing" textLength="60" x="122.5" y="1066.3942">deleted</text><text fill="#D9B8FF" font-family="sans-serif" font-size="14" lengthAdjust="spacing" textLength="48" x="182.5" y="1066.3942">: string</text><text fill="#D9B8FF" font-family="sans-serif" font-size="14" font-weight="bold" lengthAdjust="spacing" textLength="91" x="122.5" y="1092.6911">deprecated</text><text fill="#D9B8FF" font-family="sans-serif" font-size="14" lengthAdjust="spacing" textLength="48" x="213.5" y="1092.6911">: string</text><text fill="#D9B8FF" font-family="sans-serif" font-size="14" font-weight="bold" lengthAdjust="spacing" textLength="69" x="122.5" y="1118.9879">obsolete</text><text fill="#D9B8FF" font-family="sans-serif" font-size="14" lengthAdjust="spacing" textLength="48" x="191.5" y="1118.9879">: string</text><text fill="#D9B8FF" font-family="sans-serif" font-size="14" font-weight="bold" lengthAdjust="spacing" textLength="99" x="122.5" y="1145.2848">replacement</text><text fill="#D9B8FF" font-family="sans-serif" font-size="14" lengthAdjust="spacing" textLength="48" x="221.5" y="1145.2848">: string</text><text fill="#D9B8FF" font-family="sans-serif" font-size="14" font-weight="bold" lengthAdjust="spacing" textLength="40" x="122.5" y="1171.5817">state</text><text fill="#D9B8FF" font-family="sans-serif" font-size="14" lengthAdjust="spacing" textLength="48" x="162.5" y="1171.5817">: string</text></g><!--class gcp_http_health_check--><g id="elem_gcp_http_health_check"><rect codeLine="29" fill="#3D176E" height="231.8672" id="gcp_http_health_check" rx="2.5" ry="2.5" style="stroke:#000D19;stroke-width:0.5;" width="233" x="198.5" y="712.74"/><ellipse cx="213.5" cy="732.6345" fill="#ADD1B2" rx="11" ry="11" style="stroke:#181818;stroke-width:1.0;"/><path d="M216.4688,738.2752 Q215.8906,738.572 215.25,738.7127 Q214.6094,738.8689 213.9063,738.8689 Q211.4063,738.8689 210.0781,737.2283 Q208.7656,735.572 208.7656,732.447 Q208.7656,729.322 210.0781,727.6658 Q211.4063,726.0095 213.9063,726.0095 Q214.6094,726.0095 215.25,726.1658 Q215.9063,726.322 216.4688,726.6189 L216.4688,729.3377 Q215.8438,728.7595 215.25,728.4939 Q214.6563,728.2127 214.0313,728.2127 Q212.6875,728.2127 212,729.2908 Q211.3125,730.3533 211.3125,732.447 Q211.3125,734.5408 212,735.6189 Q212.6875,736.6814 214.0313,736.6814 Q214.6563,736.6814 215.25,736.4158 Q215.8438,736.1345 216.4688,735.5564 L216.4688,738.2752 Z " fill="#000000"/><text fill="#D9B8FF" font-family="Helvetica" font-size="17" lengthAdjust="spacing" textLength="191" x="232.5" y="738.5198">gcp_http_health_check</text><line style="stroke:#000D19;stroke-width:0.5;" x1="199.5" x2="430.5" y1="752.5291" y2="752.5291"/><text fill="#D9B8FF" font-family="sans-serif" font-size="14" font-weight="bold" lengthAdjust="spacing" textLength="148" x="209.5" y="774.5242">check_interval_sec</text><text fill="#D9B8FF" font-family="sans-serif" font-size="14" lengthAdjust="spacing" textLength="44" x="357.5" y="774.5242">: int64</text><text fill="#D9B8FF" font-family="sans-serif" font-size="14" font-weight="bold" lengthAdjust="spacing" textLength="141" x="209.5" y="800.8211">healthy_threshold</text><text fill="#D9B8FF" font-family="sans-serif" font-size="14" lengthAdjust="spacing" textLength="44" x="350.5" y="800.8211">: int64</text><text fill="#D9B8FF" font-family="sans-serif" font-size="14" font-weight="bold" lengthAdjust="spacing" textLength="35" x="209.5" y="827.1179">host</text><text fill="#D9B8FF" font-family="sans-serif" font-size="14" lengthAdjust="spacing" textLength="48" x="244.5" y="827.1179">: string</text><text fill="#D9B8FF" font-family="sans-serif" font-size="14" font-weight="bold" lengthAdjust="spacing" textLength="33" x="209.5" y="853.4148">port</text><text fill="#D9B8FF" font-family="sans-serif" font-size="14" lengthAdjust="spacing" textLength="44" x="242.5" y="853.4148">: int64</text><text fill="#D9B8FF" font-family="sans-serif" font-size="14" font-weight="bold" lengthAdjust="spacing" textLength="104" x="209.5" y="879.7117">request_path</text><text fill="#D9B8FF" font-family="sans-serif" font-size="14" lengthAdjust="spacing" textLength="48" x="313.5" y="879.7117">: string</text><text fill="#D9B8FF" font-family="sans-serif" font-size="14" font-weight="bold" lengthAdjust="spacing" textLength="95" x="209.5" y="906.0086">timeout_sec</text><text fill="#D9B8FF" font-family="sans-serif" font-size="14" lengthAdjust="spacing" textLength="44" x="304.5" y="906.0086">: int64</text><text fill="#D9B8FF" font-family="sans-serif" font-size="14" font-weight="bold" lengthAdjust="spacing" textLength="161" x="209.5" y="932.3054">unhealthy_threshold</text><text fill="#D9B8FF" font-family="sans-serif" font-size="14" lengthAdjust="spacing" textLength="44" x="370.5" y="932.3054">: int64</text></g><!--class gcp_resource--><g id="elem_gcp_resource"><rect codeLine="38" fill="#3D176E" height="152.9766" id="gcp_resource" rx="2.5" ry="2.5" style="stroke:#000D19;stroke-width:0.5;" width="348" x="7" y="438.76"/><ellipse cx="117.75" cy="458.6545" fill="#ADD1B2" rx="11" ry="11" style="stroke:#181818;stroke-width:1.0;"/><path d="M120.7188,464.2952 Q120.1406,464.592 119.5,464.7327 Q118.8594,464.8889 118.1563,464.8889 Q115.6563,464.8889 114.3281,463.2483 Q113.0156,461.592 113.0156,458.467 Q113.0156,455.342 114.3281,453.6858 Q115.6563,452.0295 118.1563,452.0295 Q118.8594,452.0295 119.5,452.1858 Q120.1563,452.342 120.7188,452.6389 L120.7188,455.3577 Q120.0938,454.7795 119.5,454.5139 Q118.9063,454.2327 118.2813,454.2327 Q116.9375,454.2327 116.25,455.3108 Q115.5625,456.3733 115.5625,458.467 Q115.5625,460.5608 116.25,461.6389 Q116.9375,462.7014 118.2813,462.7014 Q118.9063,462.7014 119.5,462.4358 Q120.0938,462.1545 120.7188,461.5764 L120.7188,464.2952 Z " fill="#000000"/><text fill="#D9B8FF" font-family="Helvetica" font-size="17" lengthAdjust="spacing" textLength="108" x="143.25" y="464.5398">gcp_resource</text><line style="stroke:#000D19;stroke-width:0.5;" x1="8" x2="354" y1="478.5491" y2="478.5491"/><text fill="#D9B8FF" font-family="sans-serif" font-size="14" font-weight="bold" lengthAdjust="spacing" textLength="151" x="18" y="500.5442">deprecation_status</text><text fill="#D9B8FF" font-family="sans-serif" font-size="14" lengthAdjust="spacing" textLength="175" x="169" y="500.5442">: gcp_deprecation_status</text><text fill="#D9B8FF" font-family="sans-serif" font-size="14" font-weight="bold" lengthAdjust="spacing" textLength="89" x="18" y="526.8411">description</text><text fill="#D9B8FF" font-family="sans-serif" font-size="14" lengthAdjust="spacing" textLength="48" x="107" y="526.8411">: string</text><text fill="#D9B8FF" font-family="sans-serif" font-size="14" font-weight="bold" lengthAdjust="spacing" textLength="128" x="18" y="553.1379">label_fingerprint</text><text fill="#D9B8FF" font-family="sans-serif" font-size="14" lengthAdjust="spacing" textLength="48" x="146" y="553.1379">: string</text><text fill="#D9B8FF" font-family="sans-serif" font-size="14" font-weight="bold" lengthAdjust="spacing" textLength="27" x="18" y="579.4348">link</text><text fill="#D9B8FF" font-family="sans-serif" font-size="14" lengthAdjust="spacing" textLength="48" x="45" y="579.4348">: string</text></g><!--class resource--><g id="elem_resource"><rect codeLine="44" fill="#3D176E" height="310.7578" id="resource" rx="2.5" ry="2.5" style="stroke:#000D19;stroke-width:0.5;" width="227" x="67.5" y="7"/><ellipse cx="136.25" cy="26.8945" fill="#ADD1B2" rx="11" ry="11" style="stroke:#181818;stroke-width:1.0;"/><path d="M139.2188,32.5352 Q138.6406,32.832 138,32.9727 Q137.3594,33.1289 136.6563,33.1289 Q134.1563,33.1289 132.8281,31.4883 Q131.5156,29.832 131.5156,26.707 Q131.5156,23.582 132.8281,21.9258 Q134.1563,20.2695 136.6563,20.2695 Q137.3594,20.2695 138,20.4258 Q138.6563,20.582 139.2188,20.8789 L139.2188,23.5977 Q138.5938,23.0195 138,22.7539 Q137.4063,22.4727 136.7813,22.4727 Q135.4375,22.4727 134.75,23.5508 Q134.0625,24.6133 134.0625,26.707 Q134.0625,28.8008 134.75,29.8789 Q135.4375,30.9414 136.7813,30.9414 Q137.4063,30.9414 138,30.6758 Q138.5938,30.3945 139.2188,29.8164 L139.2188,32.5352 Z " fill="#000000"/><text fill="#D9B8FF" font-family="Helvetica" font-size="17" lengthAdjust="spacing" textLength="71" x="161.75" y="32.7798">resource</text><line style="stroke:#000D19;stroke-width:0.5;" x1="68.5" x2="293.5" y1="46.7891" y2="46.7891"/><text fill="#D9B8FF" font-family="sans-serif" font-size="14" font-weight="bold" lengthAdjust="spacing" textLength="29" x="78.5" y="68.7842">age</text><text fill="#D9B8FF" font-family="sans-serif" font-size="14" lengthAdjust="spacing" textLength="66" x="107.5" y="68.7842">: duration</text><text fill="#D9B8FF" font-family="sans-serif" font-size="14" font-weight="bold" lengthAdjust="spacing" textLength="43" x="78.5" y="95.0811">atime</text><text fill="#D9B8FF" font-family="sans-serif" font-size="14" lengthAdjust="spacing" textLength="70" x="121.5" y="95.0811">: datetime</text><text fill="#D9B8FF" font-family="sans-serif" font-size="14" font-weight="bold" lengthAdjust="spacing" textLength="43" x="78.5" y="121.3779">ctime</text><text fill="#D9B8FF" font-family="sans-serif" font-size="14" lengthAdjust="spacing" textLength="70" x="121.5" y="121.3779">: datetime</text><text fill="#D9B8FF" font-family="sans-serif" font-size="14" font-weight="bold" lengthAdjust="spacing" textLength="14" x="78.5" y="147.6748">id</text><text fill="#D9B8FF" font-family="sans-serif" font-size="14" lengthAdjust="spacing" textLength="48" x="92.5" y="147.6748">: string</text><text fill="#D9B8FF" font-family="sans-serif" font-size="14" font-weight="bold" lengthAdjust="spacing" textLength="33" x="78.5" y="173.9717">kind</text><text fill="#D9B8FF" font-family="sans-serif" font-size="14" lengthAdjust="spacing" textLength="48" x="111.5" y="173.9717">: string</text><text fill="#D9B8FF" font-family="sans-serif" font-size="14" font-weight="bold" lengthAdjust="spacing" textLength="90" x="78.5" y="200.2686">last_access</text><text fill="#D9B8FF" font-family="sans-serif" font-size="14" lengthAdjust="spacing" textLength="66" x="168.5" y="200.2686">: duration</text><text fill="#D9B8FF" font-family="sans-serif" font-size="14" font-weight="bold" lengthAdjust="spacing" textLength="90" x="78.5" y="226.5654">last_update</text><text fill="#D9B8FF" font-family="sans-serif" font-size="14" lengthAdjust="spacing" textLength="66" x="168.5" y="226.5654">: duration</text><text fill="#D9B8FF" font-family="sans-serif" font-size="14" font-weight="bold" lengthAdjust="spacing" textLength="48" x="78.5" y="252.8623">mtime</text><text fill="#D9B8FF" font-family="sans-serif" font-size="14" lengthAdjust="spacing" textLength="70" x="126.5" y="252.8623">: datetime</text><text fill="#D9B8FF" font-family="sans-serif" font-size="14" font-weight="bold" lengthAdjust="spacing" textLength="43" x="78.5" y="279.1592">name</text><text fill="#D9B8FF" font-family="sans-serif" font-size="14" lengthAdjust="spacing" textLength="48" x="121.5" y="279.1592">: string</text><text fill="#D9B8FF" font-family="sans-serif" font-size="14" font-weight="bold" lengthAdjust="spacing" textLength="34" x="78.5" y="305.4561">tags</text><text fill="#D9B8FF" font-family="sans-serif" font-size="14" lengthAdjust="spacing" textLength="171" x="112.5" y="305.4561">: dictionary[string, string]</text></g><!--link gcp_http_health_check to gcp_deprecation_status--><g id="link_gcp_http_health_check_gcp_deprecation_status"><path codeLine="56" d="M277.84,944.9 C272.01,962.97 266.05,981.47 260.39,999 " fill="none" id="gcp_http_health_check-to-gcp_deprecation_status" style="stroke:#FFAF37;stroke-width:2.0;"/><polygon fill="#FFAF37" points="258.65,1003.41,265.2115,996.0651,260.1796,998.6497,257.595,993.6178,258.65,1003.41" style="stroke:#FFAF37;stroke-width:2.0;"/></g><!--reverse link gcp_resource to gcp_http_health_check--><g id="link_gcp_resource_gcp_http_health_check"><path codeLine="57" d="M221.72,610.88 C235.51,642.93 251.06,679.07 265.45,712.53 " fill="none" id="gcp_resource-backto-gcp_http_health_check" style="stroke:#FFAF37;stroke-width:2.0;"/><polygon fill="none" points="215.08,614.17,213.61,593.04,227.94,608.64,215.08,614.17" style="stroke:#FFAF37;stroke-width:2.0;"/></g><!--link gcp_resource to gcp_deprecation_status--><g id="link_gcp_resource_gcp_deprecation_status"><path codeLine="58" d="M173.8,591.88 C167.27,677.93 161.37,822.35 181,944.61 C183.87,962.48 188.56,981.11 193.94,998.9 " fill="none" id="gcp_resource-to-gcp_deprecation_status" style="stroke:#FFAF37;stroke-width:2.0;"/><polygon fill="#FFAF37" points="195.63,1003.39,196.8084,993.6119,194.1606,998.6108,189.1617,995.963,195.63,1003.39" style="stroke:#FFAF37;stroke-width:2.0;"/></g><!--reverse link resource to gcp_resource--><g id="link_resource_gcp_resource"><path codeLine="59" d="M181,338.66 C181,373.74 181,408.83 181,438.32 " fill="none" id="resource-backto-gcp_resource" style="stroke:#FFAF37;stroke-width:2.0;"/><polygon fill="none" points="174,339.05,181,319.05,188,339.05,174,339.05" style="stroke:#FFAF37;stroke-width:2.0;"/></g><!--SRC=[XPJVQzim4CVV-rSO-XOMIDQjQSOOT86nlPInxcqKSvREiOWiQQTpI_RZVvzafqDodFJ5sD_xwEvxfyEDabXWwtXVjDXMIFx2xvHnGD0MjqJsQMErfUAohg6-Mes3dwpX5u4xQB7uZFeHMGaO4zyR9NO6lIzU9w6F87PRifsHGtecC3w4q712RJHuVyjCgkeO4pDoNTtKzPWS9xsyailLDHvXbYJI0Lai5dAv7YClbZhRzt_YNlt2OfaExSuo7jayAj5JPrr68Z5vrEXp_AJ7ho2bCjlYRQ9z6poHGShq-mQaVOfq3TgdPJmZeUMzmyrHLxY-aVLg4lvo2XPnSiLMk5AY8nJ0ofhICt3dYzyNivb4ZOnoDdiNqb6mr6i3Ef9jvMs4Cv7GQH3OXZtBz5WY9VycLXhcy43Gt9IYGR7hdVHlfJAXgKVGfKSHZuVlwpSXEk3xaXj2trWjiw3rUNLdYLE0y6U7dai7t6GWgnPjn-DgdJbJBsqb16r70W-p78yu7feUVezxGSf5CVEaeK9Trk43oGKjRqqhivkOQsO4jltePKTzoQZ4HdijN4jyZmEVq5H-vM7LvCXRc2884Nu_emfzf7FoSEr9f9seOw3DzuXXEsHK8Xu3slyOOgyEp4DeTNfvvlCFfuQSNT7xF_FvV7e1S_1Cmebapz8_]--></g></svg>