<svg xmlns="http://www.w3.org/2000/svg" width="542" height="252" viewBox="0 0 542 252"><rect width="219" height="39.789" x="7" y="106.79" fill="#3D176E" rx="2.5" ry="2.5" style="stroke:#000d19;stroke-width:.5"/><circle cx="22" cy="126.684" r="11" fill="#ADD1B2" style="stroke:#181818;stroke-width:1"/><path d="M24.969 132.325q-.578.297-1.219.438-.64.156-1.344.156-2.5 0-3.828-1.64-1.312-1.657-1.312-4.782t1.312-4.781q1.328-1.656 3.828-1.656.703 0 1.344.156.656.156 1.219.453v2.719q-.625-.579-1.219-.844-.594-.281-1.219-.281-1.343 0-2.031 1.078-.687 1.062-.687 3.156t.687 3.172q.688 1.062 2.031 1.062.625 0 1.219-.265.594-.281 1.219-.86z"/><text x="41" y="132.57" fill="#D9B8FF" font-family="Helvetica" font-size="17" textLength="177">kubernetes_endpoint</text><rect width="264" height="39.789" x="147.5" y="206.58" fill="#3D176E" rx="2.5" ry="2.5" style="stroke:#000d19;stroke-width:.5"/><circle cx="162.5" cy="226.475" r="11" fill="#ADD1B2" style="stroke:#181818;stroke-width:1"/><path d="M165.469 232.115q-.578.297-1.219.438-.64.156-1.344.156-2.5 0-3.828-1.64-1.312-1.657-1.312-4.782t1.312-4.781q1.328-1.656 3.828-1.656.703 0 1.344.156.656.156 1.219.453v2.719q-.625-.578-1.219-.844-.594-.281-1.219-.281-1.344 0-2.031 1.078-.687 1.062-.687 3.156t.687 3.172q.688 1.062 2.031 1.062.625 0 1.219-.265.594-.281 1.219-.86z"/><text x="181.5" y="232.36" fill="#D9B8FF" font-family="Helvetica" font-size="17" textLength="222">kubernetes_endpoint_slice</text><rect width="239" height="39.789" x="160" y="7" fill="#3D176E" rx="2.5" ry="2.5" style="stroke:#000d19;stroke-width:.5"/><circle cx="175" cy="26.895" r="11" fill="#ADD1B2" style="stroke:#181818;stroke-width:1"/><path d="M177.969 32.535q-.578.297-1.219.438-.64.156-1.344.156-2.5 0-3.828-1.64-1.312-1.657-1.312-4.782t1.312-4.781q1.328-1.656 3.828-1.656.703 0 1.344.156.656.156 1.219.453v2.719q-.625-.578-1.219-.844-.594-.281-1.219-.281-1.344 0-2.031 1.078-.687 1.062-.687 3.156t.687 3.172q.688 1.062 2.031 1.062.625 0 1.219-.265.594-.281 1.219-.86z"/><text x="194" y="32.78" fill="#D9B8FF" font-family="Helvetica" font-size="17" textLength="197">kubernetes_namespace</text><rect width="203" height="39.789" x="332" y="106.79" fill="#3D176E" rx="2.5" ry="2.5" style="stroke:#000d19;stroke-width:.5"/><circle cx="347" cy="126.684" r="11" fill="#ADD1B2" style="stroke:#181818;stroke-width:1"/><path d="M349.969 132.325q-.578.297-1.219.438-.64.156-1.344.156-2.5 0-3.828-1.64-1.312-1.657-1.312-4.782t1.312-4.781q1.328-1.656 3.828-1.656.703 0 1.344.156.656.156 1.219.453v2.719q-.625-.579-1.219-.844-.594-.281-1.219-.281-1.344 0-2.031 1.078-.687 1.062-.687 3.156t.687 3.172q.688 1.062 2.031 1.062.625 0 1.219-.265.594-.281 1.219-.86z"/><text x="366" y="132.57" fill="#D9B8FF" font-family="Helvetica" font-size="17" textLength="161">kubernetes_service</text><path fill="none" d="M148.7 147.01a256860 256860 0 0 1 93.516 56.102" style="stroke:#1a83af;stroke-width:2"/><path fill="#1A83AF" d="m247.36 206.2-5.657-8.062 1.37 5.488-5.488 1.371z" style="stroke:#1a83af;stroke-width:2"/><path fill="none" d="M247.3 47.22a256860 256860 0 0 0-93.516 56.102" style="stroke:#1a83af;stroke-width:2"/><path fill="#1A83AF" d="m148.64 106.41 9.775-1.203-5.488-1.37 1.37-5.489z" style="stroke:#1a83af;stroke-width:2"/><path fill="none" d="M279.5 47.2v152.89" style="stroke:#1a83af;stroke-width:2"/><path fill="#1A83AF" d="m279.5 206.09 4-9-4 4-4-4z" style="stroke:#1a83af;stroke-width:2"/><path fill="none" d="M309.93 47.22c26.99 17.14 61.166 38.833 88.146 55.973" style="stroke:#1a83af;stroke-width:2"/><path fill="#1A83AF" d="m403.14 106.41-5.452-8.202 1.232 5.52-5.522 1.232z" style="stroke:#1a83af;stroke-width:2"/><path fill="none" d="M403.07 147.01c-26.99 17.14-61.166 38.833-88.146 55.973" style="stroke:#1a83af;stroke-width:2"/><path fill="#1A83AF" d="m309.86 206.2 9.742-1.45-5.522-1.231 1.232-5.521z" style="stroke:#1a83af;stroke-width:2"/></svg>