<svg xmlns="http://www.w3.org/2000/svg" width="555" height="352" viewBox="0 0 555 352"><rect width="304" height="39.789" x="29.5" y="106.79" fill="#3D176E" rx="2.5" ry="2.5" style="stroke:#000d19;stroke-width:.5"/><circle cx="44.5" cy="126.684" r="11" fill="#ADD1B2" style="stroke:#181818;stroke-width:1"/><path d="M47.469 132.325q-.578.297-1.219.438-.64.156-1.344.156-2.5 0-3.828-1.64-1.312-1.657-1.312-4.782t1.312-4.781q1.328-1.656 3.828-1.656.703 0 1.344.156.656.156 1.219.453v2.719q-.625-.579-1.219-.844-.594-.281-1.219-.281-1.343 0-2.031 1.078-.687 1.062-.687 3.156t.687 3.172q.688 1.062 2.031 1.062.625 0 1.219-.265.594-.281 1.219-.86z"/><text x="63.5" y="132.57" fill="#D9B8FF" font-family="Helvetica" font-size="17" textLength="262">digitalocean_container_registry</text><rect width="397" height="39.789" x="7" y="206.58" fill="#3D176E" rx="2.5" ry="2.5" style="stroke:#000d19;stroke-width:.5"/><circle cx="22" cy="226.475" r="11" fill="#ADD1B2" style="stroke:#181818;stroke-width:1"/><path d="M24.969 232.115q-.578.297-1.219.438-.64.156-1.344.156-2.5 0-3.828-1.64-1.312-1.657-1.312-4.782t1.312-4.781q1.328-1.656 3.828-1.656.703 0 1.344.156.656.156 1.219.453v2.719q-.625-.578-1.219-.844-.594-.281-1.219-.281-1.343 0-2.031 1.078-.687 1.062-.687 3.156t.687 3.172q.688 1.062 2.031 1.062.625 0 1.219-.265.594-.281 1.219-.86z"/><text x="41" y="232.36" fill="#D9B8FF" font-family="Helvetica" font-size="17" textLength="355">digitalocean_container_registry_repository</text><rect width="433" height="39.789" x="115" y="306.37" fill="#3D176E" rx="2.5" ry="2.5" style="stroke:#000d19;stroke-width:.5"/><circle cx="130" cy="326.264" r="11" fill="#ADD1B2" style="stroke:#181818;stroke-width:1"/><path d="M132.969 331.905q-.578.297-1.219.438-.64.156-1.344.156-2.5 0-3.828-1.64-1.312-1.657-1.312-4.782t1.312-4.781q1.328-1.656 3.828-1.656.703 0 1.344.156.656.156 1.219.453v2.719q-.625-.579-1.219-.844-.594-.281-1.219-.281-1.344 0-2.031 1.078-.687 1.062-.687 3.156t.687 3.172q.688 1.062 2.031 1.062.625 0 1.219-.265.594-.281 1.219-.86z"/><text x="149" y="332.15" fill="#D9B8FF" font-family="Helvetica" font-size="17" textLength="391">digitalocean_container_registry_repository_tag</text><rect width="196" height="39.789" x="288.5" y="7" fill="#3D176E" rx="2.5" ry="2.5" style="stroke:#000d19;stroke-width:.5"/><circle cx="303.5" cy="26.895" r="11" fill="#ADD1B2" style="stroke:#181818;stroke-width:1"/><path d="M306.469 32.535q-.578.297-1.219.438-.64.156-1.344.156-2.5 0-3.828-1.64-1.312-1.657-1.312-4.782t1.312-4.781q1.328-1.656 3.828-1.656.703 0 1.344.156.656.156 1.219.453v2.719q-.625-.578-1.219-.844-.594-.281-1.219-.281-1.344 0-2.031 1.078-.687 1.062-.687 3.156t.687 3.172q.688 1.062 2.031 1.062.625 0 1.219-.265.594-.281 1.219-.86z"/><text x="322.5" y="32.78" fill="#D9B8FF" font-family="Helvetica" font-size="17" textLength="154">digitalocean_team</text><path fill="none" d="M186.24 147.01c4.21 17.14 8.889 36.223 13.099 53.363" style="stroke:#1a83af;stroke-width:2"/><path fill="#1A83AF" d="m200.77 206.2 1.738-9.694-2.93 4.838-4.84-2.93z" style="stroke:#1a83af;stroke-width:2"/><path fill="none" d="M230.39 246.8c22.09 17.14 49.45 38.37 71.53 55.51" style="stroke:#1a83af;stroke-width:2"/><path fill="#1A83AF" d="m306.66 305.99-4.657-8.678.707 5.612-5.612.707z" style="stroke:#1a83af;stroke-width:2"/><path fill="none" d="M346 47.22c-35.94 17.14-82.755 39.477-118.665 56.607" style="stroke:#1a83af;stroke-width:2"/><path fill="#1A83AF" d="m221.92 106.41 9.845-.265-5.332-1.888 1.888-5.332z" style="stroke:#1a83af;stroke-width:2"/><path fill="none" d="M385.12 47.25c-2.74 25.38-10.82 70.12-34.62 99.33-22.44 27.56-51.636 44.588-81.476 57.238" style="stroke:#1a83af;stroke-width:2"/><path fill="#1A83AF" d="m263.5 206.16 9.847.17-5.244-2.122 2.122-5.244z" style="stroke:#1a83af;stroke-width:2"/><path fill="none" d="M396.63 47.28c19.11 39.35 55.87 130.69 24.87 199.09-11.58 25.55-30.984 42.752-51.464 56.462" style="stroke:#1a83af;stroke-width:2"/><path fill="#1A83AF" d="m365.05 306.17 9.704-1.683-5.55-1.099 1.1-5.549z" style="stroke:#1a83af;stroke-width:2"/></svg>