<svg xmlns="http://www.w3.org/2000/svg" width="287" height="252" viewBox="0 0 287 252"><rect width="257" height="39.789" x="7" y="206.58" fill="#3D176E" rx="2.5" ry="2.5" style="stroke:#000d19;stroke-width:.5"/><circle cx="22" cy="226.475" r="11" fill="#ADD1B2" style="stroke:#181818;stroke-width:1"/><path d="M24.969 232.115q-.578.297-1.219.438-.64.156-1.344.156-2.5 0-3.828-1.64-1.312-1.657-1.312-4.782t1.312-4.781q1.328-1.656 3.828-1.656.703 0 1.344.156.656.156 1.219.453v2.719q-.625-.578-1.219-.844-.594-.281-1.219-.281-1.343 0-2.031 1.078-.687 1.062-.687 3.156t.687 3.172q.688 1.062 2.031 1.062.625 0 1.219-.265.594-.281 1.219-.86z"/><text x="41" y="232.36" fill="#D9B8FF" font-family="Helvetica" font-size="17" textLength="215">aws_iam_instance_profile</text><rect width="157" height="39.789" x="123" y="106.79" fill="#3D176E" rx="2.5" ry="2.5" style="stroke:#000d19;stroke-width:.5"/><circle cx="138" cy="126.684" r="11" fill="#ADD1B2" style="stroke:#181818;stroke-width:1"/><path d="M140.969 132.325q-.578.297-1.219.438-.64.156-1.344.156-2.5 0-3.828-1.64-1.312-1.657-1.312-4.782t1.312-4.781q1.328-1.656 3.828-1.656.703 0 1.344.156.656.156 1.219.453v2.719q-.625-.579-1.219-.844-.594-.281-1.219-.281-1.344 0-2.031 1.078-.687 1.062-.687 3.156t.687 3.172q.688 1.062 2.031 1.062.625 0 1.219-.265.594-.281 1.219-.86z"/><text x="157" y="132.57" fill="#D9B8FF" font-family="Helvetica" font-size="17" textLength="115">aws_iam_role</text><rect width="137" height="39.789" x="67" y="7" fill="#3D176E" rx="2.5" ry="2.5" style="stroke:#000d19;stroke-width:.5"/><circle cx="82" cy="26.895" r="11" fill="#ADD1B2" style="stroke:#181818;stroke-width:1"/><path d="M84.969 32.535q-.578.297-1.219.438-.64.156-1.344.156-2.5 0-3.828-1.64-1.312-1.657-1.312-4.782t1.312-4.781q1.328-1.656 3.828-1.656.703 0 1.344.156.656.156 1.219.453v2.719q-.625-.578-1.219-.844-.594-.281-1.219-.281-1.344 0-2.031 1.078-.687 1.062-.687 3.156t.687 3.172q.688 1.062 2.031 1.062.625 0 1.219-.265.594-.281 1.219-.86z"/><text x="101" y="32.78" fill="#D9B8FF" font-family="Helvetica" font-size="17" textLength="95">aws_region</text><path fill="none" d="M188.46 147.01c-11.57 17.14-25.035 37.076-36.595 54.216" style="stroke:#1a83af;stroke-width:2"/><path fill="#1A83AF" d="m148.51 206.2 8.349-5.225-5.553 1.08-1.08-5.553z" style="stroke:#1a83af;stroke-width:2"/><path fill="none" d="M125.93 47.1c-7.22 15.64-16.54 38.51-20.43 59.69-3.2 17.39-3.2 22.4 0 39.79 3.89 21.19 10.694 38.613 17.914 54.243" style="stroke:#1a83af;stroke-width:2"/><path fill="#1A83AF" d="m125.93 206.27-.143-9.848-1.954 5.309-5.308-1.954z" style="stroke:#1a83af;stroke-width:2"/><path fill="none" d="M148.54 47.22c11.57 17.14 25.035 37.076 36.595 54.216" style="stroke:#1a83af;stroke-width:2"/><path fill="#1A83AF" d="m188.49 106.41-1.716-9.698-1.08 5.553-5.553-1.08z" style="stroke:#1a83af;stroke-width:2"/></svg>