<svg xmlns="http://www.w3.org/2000/svg" width="3571" height="2955" viewBox="0 0 3571 2955"><rect width="689" height="1625.602" x="1464.5" y="844.22" fill="#3D176E" rx="2.5" ry="2.5" style="stroke:#000d19;stroke-width:.5"/><circle cx="1733.75" cy="864.115" r="11" fill="#ADD1B2" style="stroke:#181818;stroke-width:1"/><path d="M1736.719 869.755q-.578.297-1.219.438-.64.156-1.344.156-2.5 0-3.828-1.64-1.312-1.657-1.312-4.782t1.312-4.781q1.328-1.656 3.828-1.656.703 0 1.344.156.656.156 1.219.453v2.719q-.625-.578-1.219-.844-.594-.281-1.219-.281-1.343 0-2.031 1.078-.687 1.062-.687 3.156t.687 3.172q.688 1.062 2.031 1.062.625 0 1.219-.265.594-.281 1.219-.86z"/><text x="1759.25" y="870" fill="#D9B8FF" font-family="Helvetica" font-size="17" textLength="132">aws_rds_cluster</text><path d="M1465.5 884.009h687" style="stroke:#000d19;stroke-width:.5"/><text x="1475.5" y="906.004" fill="#D9B8FF" font-family="sans-serif" font-size="14" font-weight="bold" textLength="325">rds_activity_stream_kinesis_stream_name</text><text x="1800.5" y="906.004" fill="#D9B8FF" font-family="sans-serif" font-size="14" textLength="48">: string</text><text x="1475.5" y="932.301" fill="#D9B8FF" font-family="sans-serif" font-size="14" font-weight="bold" textLength="246">rds_activity_stream_kms_key_id</text><text x="1721.5" y="932.301" fill="#D9B8FF" font-family="sans-serif" font-size="14" textLength="48">: string</text><text x="1475.5" y="958.598" fill="#D9B8FF" font-family="sans-serif" font-size="14" font-weight="bold" textLength="202">rds_activity_stream_mode</text><text x="1677.5" y="958.598" fill="#D9B8FF" font-family="sans-serif" font-size="14" textLength="48">: string</text><text x="1475.5" y="984.895" fill="#D9B8FF" font-family="sans-serif" font-size="14" font-weight="bold" textLength="207">rds_activity_stream_status</text><text x="1682.5" y="984.895" fill="#D9B8FF" font-family="sans-serif" font-size="14" textLength="48">: string</text><text x="1475.5" y="1011.192" fill="#D9B8FF" font-family="sans-serif" font-size="14" font-weight="bold" textLength="172">rds_allocated_storage</text><text x="1647.5" y="1011.192" fill="#D9B8FF" font-family="sans-serif" font-size="14" textLength="44">: int64</text><text x="1475.5" y="1037.489" fill="#D9B8FF" font-family="sans-serif" font-size="14" font-weight="bold" textLength="165">rds_associated_roles</text><text x="1640.5" y="1037.489" fill="#D9B8FF" font-family="sans-serif" font-size="14" textLength="133">: aws_rds_db_role[]</text><text x="1475.5" y="1063.785" fill="#D9B8FF" font-family="sans-serif" font-size="14" font-weight="bold" textLength="259">rds_auto_minor_version_upgrade</text><text x="1734.5" y="1063.785" fill="#D9B8FF" font-family="sans-serif" font-size="14" textLength="65">: boolean</text><text x="1475.5" y="1090.082" fill="#D9B8FF" font-family="sans-serif" font-size="14" font-weight="bold" textLength="212">rds_automatic_restart_time</text><text x="1687.5" y="1090.082" fill="#D9B8FF" font-family="sans-serif" font-size="14" textLength="70">: datetime</text><text x="1475.5" y="1116.379" fill="#D9B8FF" font-family="sans-serif" font-size="14" font-weight="bold" textLength="169">rds_availability_zones</text><text x="1644.5" y="1116.379" fill="#D9B8FF" font-family="sans-serif" font-size="14" textLength="58">: string[]</text><text x="1475.5" y="1142.676" fill="#D9B8FF" font-family="sans-serif" font-size="14" font-weight="bold" textLength="333">rds_backtrack_consumed_change_records</text><text x="1808.5" y="1142.676" fill="#D9B8FF" font-family="sans-serif" font-size="14" textLength="44">: int64</text><text x="1475.5" y="1168.973" fill="#D9B8FF" font-family="sans-serif" font-size="14" font-weight="bold" textLength="179">rds_backtrack_window</text><text x="1654.5" y="1168.973" fill="#D9B8FF" font-family="sans-serif" font-size="14" textLength="44">: int64</text><text x="1475.5" y="1195.27" fill="#D9B8FF" font-family="sans-serif" font-size="14" font-weight="bold" textLength="228">rds_backup_retention_period</text><text x="1703.5" y="1195.27" fill="#D9B8FF" font-family="sans-serif" font-size="14" textLength="44">: int64</text><text x="1475.5" y="1221.567" fill="#D9B8FF" font-family="sans-serif" font-size="14" font-weight="bold" textLength="98">rds_capacity</text><text x="1573.5" y="1221.567" fill="#D9B8FF" font-family="sans-serif" font-size="14" textLength="44">: int64</text><text x="1475.5" y="1247.864" fill="#D9B8FF" font-family="sans-serif" font-size="14" font-weight="bold" textLength="191">rds_character_set_name</text><text x="1666.5" y="1247.864" fill="#D9B8FF" font-family="sans-serif" font-size="14" textLength="48">: string</text><text x="1475.5" y="1274.16" fill="#D9B8FF" font-family="sans-serif" font-size="14" font-weight="bold" textLength="151">rds_clone_group_id</text><text x="1626.5" y="1274.16" fill="#D9B8FF" font-family="sans-serif" font-size="14" textLength="48">: string</text><text x="1475.5" y="1300.457" fill="#D9B8FF" font-family="sans-serif" font-size="14" font-weight="bold" textLength="292">rds_cluster_pending_modified_values</text><text x="1767.5" y="1300.457" fill="#D9B8FF" font-family="sans-serif" font-size="14" textLength="300">: aws_rds_cluster_pending_modified_values</text><text x="1475.5" y="1326.754" fill="#D9B8FF" font-family="sans-serif" font-size="14" font-weight="bold" textLength="215">rds_copy_tags_to_snapshot</text><text x="1690.5" y="1326.754" fill="#D9B8FF" font-family="sans-serif" font-size="14" textLength="65">: boolean</text><text x="1475.5" y="1353.051" fill="#D9B8FF" font-family="sans-serif" font-size="14" font-weight="bold" textLength="197">rds_cross_account_clone</text><text x="1672.5" y="1353.051" fill="#D9B8FF" font-family="sans-serif" font-size="14" textLength="65">: boolean</text><text x="1475.5" y="1379.348" fill="#D9B8FF" font-family="sans-serif" font-size="14" font-weight="bold" textLength="177">rds_custom_endpoints</text><text x="1652.5" y="1379.348" fill="#D9B8FF" font-family="sans-serif" font-size="14" textLength="58">: string[]</text><text x="1475.5" y="1405.645" fill="#D9B8FF" font-family="sans-serif" font-size="14" font-weight="bold" textLength="155">rds_database_name</text><text x="1630.5" y="1405.645" fill="#D9B8FF" font-family="sans-serif" font-size="14" textLength="48">: string</text><text x="1475.5" y="1431.942" fill="#D9B8FF" font-family="sans-serif" font-size="14" font-weight="bold" textLength="236">rds_db_cluster_instance_class</text><text x="1711.5" y="1431.942" fill="#D9B8FF" font-family="sans-serif" font-size="14" textLength="48">: string</text><text x="1475.5" y="1458.239" fill="#D9B8FF" font-family="sans-serif" font-size="14" font-weight="bold" textLength="196">rds_db_cluster_members</text><text x="1671.5" y="1458.239" fill="#D9B8FF" font-family="sans-serif" font-size="14" textLength="219">: aws_rds_db_cluster_member[]</text><text x="1475.5" y="1484.535" fill="#D9B8FF" font-family="sans-serif" font-size="14" font-weight="bold" textLength="340">rds_db_cluster_option_group_memberships</text><text x="1815.5" y="1484.535" fill="#D9B8FF" font-family="sans-serif" font-size="14" textLength="303">: aws_rds_db_cluster_option_group_status[]</text><text x="1475.5" y="1510.832" fill="#D9B8FF" font-family="sans-serif" font-size="14" font-weight="bold" textLength="258">rds_db_cluster_parameter_group</text><text x="1733.5" y="1510.832" fill="#D9B8FF" font-family="sans-serif" font-size="14" textLength="48">: string</text><text x="1475.5" y="1537.129" fill="#D9B8FF" font-family="sans-serif" font-size="14" font-weight="bold" textLength="215">rds_db_cluster_resource_id</text><text x="1690.5" y="1537.129" fill="#D9B8FF" font-family="sans-serif" font-size="14" textLength="48">: string</text><text x="1475.5" y="1563.426" fill="#D9B8FF" font-family="sans-serif" font-size="14" font-weight="bold" textLength="219">rds_db_subnet_group_name</text><text x="1694.5" y="1563.426" fill="#D9B8FF" font-family="sans-serif" font-size="14" textLength="48">: string</text><text x="1475.5" y="1589.723" fill="#D9B8FF" font-family="sans-serif" font-size="14" font-weight="bold" textLength="138">rds_db_system_id</text><text x="1613.5" y="1589.723" fill="#D9B8FF" font-family="sans-serif" font-size="14" textLength="48">: string</text><text x="1475.5" y="1616.02" fill="#D9B8FF" font-family="sans-serif" font-size="14" font-weight="bold" textLength="186">rds_deletion_protection</text><text x="1661.5" y="1616.02" fill="#D9B8FF" font-family="sans-serif" font-size="14" textLength="65">: boolean</text><text x="1475.5" y="1642.317" fill="#D9B8FF" font-family="sans-serif" font-size="14" font-weight="bold" textLength="204">rds_domain_memberships</text><text x="1679.5" y="1642.317" fill="#D9B8FF" font-family="sans-serif" font-size="14" textLength="227">: aws_rds_domain_membership[]</text><text x="1475.5" y="1668.614" fill="#D9B8FF" font-family="sans-serif" font-size="14" font-weight="bold" textLength="217">rds_earliest_backtrack_time</text><text x="1692.5" y="1668.614" fill="#D9B8FF" font-family="sans-serif" font-size="14" textLength="70">: datetime</text><text x="1475.5" y="1694.91" fill="#D9B8FF" font-family="sans-serif" font-size="14" font-weight="bold" textLength="222">rds_earliest_restorable_time</text><text x="1697.5" y="1694.91" fill="#D9B8FF" font-family="sans-serif" font-size="14" textLength="70">: datetime</text><text x="1475.5" y="1721.207" fill="#D9B8FF" font-family="sans-serif" font-size="14" font-weight="bold" textLength="302">rds_enabled_cloudwatch_logs_exports</text><text x="1777.5" y="1721.207" fill="#D9B8FF" font-family="sans-serif" font-size="14" textLength="58">: string[]</text><text x="1475.5" y="1747.504" fill="#D9B8FF" font-family="sans-serif" font-size="14" font-weight="bold" textLength="103">rds_endpoint</text><text x="1578.5" y="1747.504" fill="#D9B8FF" font-family="sans-serif" font-size="14" textLength="48">: string</text><text x="1475.5" y="1773.801" fill="#D9B8FF" font-family="sans-serif" font-size="14" font-weight="bold" textLength="138">rds_engine_mode</text><text x="1613.5" y="1773.801" fill="#D9B8FF" font-family="sans-serif" font-size="14" textLength="48">: string</text><text x="1475.5" y="1800.098" fill="#D9B8FF" font-family="sans-serif" font-size="14" font-weight="bold" textLength="311">rds_global_write_forwarding_requested</text><text x="1786.5" y="1800.098" fill="#D9B8FF" font-family="sans-serif" font-size="14" textLength="65">: boolean</text><text x="1475.5" y="1826.395" fill="#D9B8FF" font-family="sans-serif" font-size="14" font-weight="bold" textLength="278">rds_global_write_forwarding_status</text><text x="1753.5" y="1826.395" fill="#D9B8FF" font-family="sans-serif" font-size="14" textLength="48">: string</text><text x="1475.5" y="1852.692" fill="#D9B8FF" font-family="sans-serif" font-size="14" font-weight="bold" textLength="155">rds_hosted_zone_id</text><text x="1630.5" y="1852.692" fill="#D9B8FF" font-family="sans-serif" font-size="14" textLength="48">: string</text><text x="1475.5" y="1878.989" fill="#D9B8FF" font-family="sans-serif" font-size="14" font-weight="bold" textLength="212">rds_http_endpoint_enabled</text><text x="1687.5" y="1878.989" fill="#D9B8FF" font-family="sans-serif" font-size="14" textLength="65">: boolean</text><text x="1475.5" y="1905.285" fill="#D9B8FF" font-family="sans-serif" font-size="14" font-weight="bold" textLength="329">rds_iam_database_authentication_enabled</text><text x="1804.5" y="1905.285" fill="#D9B8FF" font-family="sans-serif" font-size="14" textLength="65">: boolean</text><text x="1475.5" y="1931.582" fill="#D9B8FF" font-family="sans-serif" font-size="14" font-weight="bold" textLength="121">rds_kms_key_id</text><text x="1596.5" y="1931.582" fill="#D9B8FF" font-family="sans-serif" font-size="14" textLength="48">: string</text><text x="1475.5" y="1957.879" fill="#D9B8FF" font-family="sans-serif" font-size="14" font-weight="bold" textLength="207">rds_latest_restorable_time</text><text x="1682.5" y="1957.879" fill="#D9B8FF" font-family="sans-serif" font-size="14" textLength="70">: datetime</text><text x="1475.5" y="1984.176" fill="#D9B8FF" font-family="sans-serif" font-size="14" font-weight="bold" textLength="189">rds_master_user_secret</text><text x="1664.5" y="1984.176" fill="#D9B8FF" font-family="sans-serif" font-size="14" textLength="209">: aws_rds_master_user_secret</text><text x="1475.5" y="2010.473" fill="#D9B8FF" font-family="sans-serif" font-size="14" font-weight="bold" textLength="174">rds_master_username</text><text x="1649.5" y="2010.473" fill="#D9B8FF" font-family="sans-serif" font-size="14" textLength="48">: string</text><text x="1475.5" y="2036.77" fill="#D9B8FF" font-family="sans-serif" font-size="14" font-weight="bold" textLength="184">rds_monitoring_interval</text><text x="1659.5" y="2036.77" fill="#D9B8FF" font-family="sans-serif" font-size="14" textLength="44">: int64</text><text x="1475.5" y="2063.067" fill="#D9B8FF" font-family="sans-serif" font-size="14" font-weight="bold" textLength="189">rds_monitoring_role_arn</text><text x="1664.5" y="2063.067" fill="#D9B8FF" font-family="sans-serif" font-size="14" textLength="48">: string</text><text x="1475.5" y="2089.364" fill="#D9B8FF" font-family="sans-serif" font-size="14" font-weight="bold" textLength="96">rds_multi_az</text><text x="1571.5" y="2089.364" fill="#D9B8FF" font-family="sans-serif" font-size="14" textLength="65">: boolean</text><text x="1475.5" y="2115.66" fill="#D9B8FF" font-family="sans-serif" font-size="14" font-weight="bold" textLength="141">rds_network_type</text><text x="1616.5" y="2115.66" fill="#D9B8FF" font-family="sans-serif" font-size="14" textLength="48">: string</text><text x="1475.5" y="2141.957" fill="#D9B8FF" font-family="sans-serif" font-size="14" font-weight="bold" textLength="274">rds_performance_insights_enabled</text><text x="1749.5" y="2141.957" fill="#D9B8FF" font-family="sans-serif" font-size="14" textLength="65">: boolean</text><text x="1475.5" y="2168.254" fill="#D9B8FF" font-family="sans-serif" font-size="14" font-weight="bold" textLength="299">rds_performance_insights_kms_key_id</text><text x="1774.5" y="2168.254" fill="#D9B8FF" font-family="sans-serif" font-size="14" textLength="48">: string</text><text x="1475.5" y="2194.551" fill="#D9B8FF" font-family="sans-serif" font-size="14" font-weight="bold" textLength="342">rds_performance_insights_retention_period</text><text x="1817.5" y="2194.551" fill="#D9B8FF" font-family="sans-serif" font-size="14" textLength="44">: int64</text><text x="1475.5" y="2220.848" fill="#D9B8FF" font-family="sans-serif" font-size="14" font-weight="bold" textLength="66">rds_port</text><text x="1541.5" y="2220.848" fill="#D9B8FF" font-family="sans-serif" font-size="14" textLength="44">: int64</text><text x="1475.5" y="2247.145" fill="#D9B8FF" font-family="sans-serif" font-size="14" font-weight="bold" textLength="243">rds_preferred_backup_window</text><text x="1718.5" y="2247.145" fill="#D9B8FF" font-family="sans-serif" font-size="14" textLength="48">: string</text><text x="1475.5" y="2273.442" fill="#D9B8FF" font-family="sans-serif" font-size="14" font-weight="bold" textLength="287">rds_preferred_maintenance_window</text><text x="1762.5" y="2273.442" fill="#D9B8FF" font-family="sans-serif" font-size="14" textLength="48">: string</text><text x="1475.5" y="2299.739" fill="#D9B8FF" font-family="sans-serif" font-size="14" font-weight="bold" textLength="216">rds_read_replica_identifiers</text><text x="1691.5" y="2299.739" fill="#D9B8FF" font-family="sans-serif" font-size="14" textLength="58">: string[]</text><text x="1475.5" y="2326.035" fill="#D9B8FF" font-family="sans-serif" font-size="14" font-weight="bold" textLength="163">rds_reader_endpoint</text><text x="1638.5" y="2326.035" fill="#D9B8FF" font-family="sans-serif" font-size="14" textLength="48">: string</text><text x="1475.5" y="2352.332" fill="#D9B8FF" font-family="sans-serif" font-size="14" font-weight="bold" textLength="256">rds_replication_source_identifier</text><text x="1731.5" y="2352.332" fill="#D9B8FF" font-family="sans-serif" font-size="14" textLength="48">: string</text><text x="1475.5" y="2378.629" fill="#D9B8FF" font-family="sans-serif" font-size="14" font-weight="bold" textLength="237">rds_scaling_configuration_info</text><text x="1712.5" y="2378.629" fill="#D9B8FF" font-family="sans-serif" font-size="14" textLength="249">: aws_rds_scaling_configuration_info</text><text x="1475.5" y="2404.926" fill="#D9B8FF" font-family="sans-serif" font-size="14" font-weight="bold" textLength="317">rds_serverless_v2_scaling_configuration</text><text x="1792.5" y="2404.926" fill="#D9B8FF" font-family="sans-serif" font-size="14" textLength="350">: aws_rds_serverless_v2_scaling_configuration_info</text><text x="1475.5" y="2431.223" fill="#D9B8FF" font-family="sans-serif" font-size="14" font-weight="bold" textLength="136">rds_storage_type</text><text x="1611.5" y="2431.223" fill="#D9B8FF" font-family="sans-serif" font-size="14" textLength="48">: string</text><text x="1475.5" y="2457.52" fill="#D9B8FF" font-family="sans-serif" font-size="14" font-weight="bold" textLength="195">rds_vpc_security_groups</text><text x="1670.5" y="2457.52" fill="#D9B8FF" font-family="sans-serif" font-size="14" textLength="309">: aws_rds_vpc_security_group_membership[]</text><rect width="602" height="258.164" x="7" y="2529.82" fill="#3D176E" rx="2.5" ry="2.5" style="stroke:#000d19;stroke-width:.5"/><circle cx="122.25" cy="2549.715" r="11" fill="#ADD1B2" style="stroke:#181818;stroke-width:1"/><path d="M125.219 2555.355q-.578.297-1.219.438-.64.156-1.344.156-2.5 0-3.828-1.64-1.312-1.657-1.312-4.782t1.312-4.781q1.328-1.657 3.828-1.657.703 0 1.344.157.656.156 1.219.453v2.719q-.625-.579-1.219-.844-.594-.281-1.219-.281-1.344 0-2.031 1.078-.687 1.062-.687 3.156t.687 3.172q.688 1.062 2.031 1.062.625 0 1.219-.265.594-.282 1.219-.86z"/><text x="147.75" y="2555.6" fill="#D9B8FF" font-family="Helvetica" font-size="17" textLength="353">aws_rds_cluster_pending_modified_values</text><path d="M8 2569.609h600" style="stroke:#000d19;stroke-width:.5"/><text x="18" y="2591.604" fill="#D9B8FF" font-family="sans-serif" font-size="14" font-weight="bold" textLength="139">allocated_storage</text><text x="157" y="2591.604" fill="#D9B8FF" font-family="sans-serif" font-size="14" textLength="44">: int64</text><text x="18" y="2617.901" fill="#D9B8FF" font-family="sans-serif" font-size="14" font-weight="bold" textLength="195">backup_retention_period</text><text x="213" y="2617.901" fill="#D9B8FF" font-family="sans-serif" font-size="14" textLength="44">: int64</text><text x="18" y="2644.198" fill="#D9B8FF" font-family="sans-serif" font-size="14" font-weight="bold" textLength="160">db_cluster_identifier</text><text x="178" y="2644.198" fill="#D9B8FF" font-family="sans-serif" font-size="14" textLength="48">: string</text><text x="18" y="2670.495" fill="#D9B8FF" font-family="sans-serif" font-size="14" font-weight="bold" textLength="120">engine_version</text><text x="138" y="2670.495" fill="#D9B8FF" font-family="sans-serif" font-size="14" textLength="48">: string</text><text x="18" y="2696.792" fill="#D9B8FF" font-family="sans-serif" font-size="14" font-weight="bold" textLength="296">iam_database_authentication_enabled</text><text x="314" y="2696.792" fill="#D9B8FF" font-family="sans-serif" font-size="14" textLength="65">: boolean</text><text x="18" y="2723.089" fill="#D9B8FF" font-family="sans-serif" font-size="14" font-weight="bold" textLength="33">iops</text><text x="51" y="2723.089" fill="#D9B8FF" font-family="sans-serif" font-size="14" textLength="44">: int64</text><text x="18" y="2749.385" fill="#D9B8FF" font-family="sans-serif" font-size="14" font-weight="bold" textLength="183">master_user_password</text><text x="201" y="2749.385" fill="#D9B8FF" font-family="sans-serif" font-size="14" textLength="48">: string</text><text x="18" y="2775.682" fill="#D9B8FF" font-family="sans-serif" font-size="14" font-weight="bold" textLength="270">pending_cloudwatch_logs_exports</text><text x="288" y="2775.682" fill="#D9B8FF" font-family="sans-serif" font-size="14" textLength="310">: aws_rds_pending_cloudwatch_logs_exports</text><rect width="351" height="152.977" x="643.5" y="2582.42" fill="#3D176E" rx="2.5" ry="2.5" style="stroke:#000d19;stroke-width:.5"/><circle cx="689.25" cy="2602.314" r="11" fill="#ADD1B2" style="stroke:#181818;stroke-width:1"/><path d="M692.219 2607.955q-.578.297-1.219.438-.64.156-1.344.156-2.5 0-3.828-1.64-1.312-1.657-1.312-4.782t1.312-4.781q1.328-1.657 3.828-1.657.703 0 1.344.157.656.156 1.219.453v2.719q-.625-.579-1.219-.844-.594-.281-1.219-.281-1.343 0-2.031 1.078-.687 1.062-.687 3.156t.687 3.172q.688 1.062 2.031 1.062.625 0 1.219-.265.594-.282 1.219-.86z"/><text x="714.75" y="2608.2" fill="#D9B8FF" font-family="Helvetica" font-size="17" textLength="241">aws_rds_db_cluster_member</text><path d="M644.5 2622.209h349" style="stroke:#000d19;stroke-width:.5"/><text x="654.5" y="2644.204" fill="#D9B8FF" font-family="sans-serif" font-size="14" font-weight="bold" textLength="281">db_cluster_parameter_group_status</text><text x="935.5" y="2644.204" fill="#D9B8FF" font-family="sans-serif" font-size="14" textLength="48">: string</text><text x="654.5" y="2670.501" fill="#D9B8FF" font-family="sans-serif" font-size="14" font-weight="bold" textLength="172">db_instance_identifier</text><text x="826.5" y="2670.501" fill="#D9B8FF" font-family="sans-serif" font-size="14" textLength="48">: string</text><text x="654.5" y="2696.798" fill="#D9B8FF" font-family="sans-serif" font-size="14" font-weight="bold" textLength="130">is_cluster_writer</text><text x="784.5" y="2696.798" fill="#D9B8FF" font-family="sans-serif" font-size="14" textLength="65">: boolean</text><text x="654.5" y="2723.095" fill="#D9B8FF" font-family="sans-serif" font-size="14" font-weight="bold" textLength="115">promotion_tier</text><text x="769.5" y="2723.095" fill="#D9B8FF" font-family="sans-serif" font-size="14" textLength="44">: int64</text><rect width="382" height="100.383" x="1030" y="2608.71" fill="#3D176E" rx="2.5" ry="2.5" style="stroke:#000d19;stroke-width:.5"/><circle cx="1045" cy="2628.604" r="11" fill="#ADD1B2" style="stroke:#181818;stroke-width:1"/><path d="M1047.969 2634.245q-.578.297-1.219.438-.64.156-1.344.156-2.5 0-3.828-1.64-1.312-1.657-1.312-4.782t1.312-4.781q1.328-1.657 3.828-1.657.703 0 1.344.157.656.156 1.219.453v2.719q-.625-.579-1.219-.844-.594-.281-1.219-.281-1.343 0-2.031 1.078-.687 1.062-.687 3.156t.687 3.172q.688 1.062 2.031 1.062.625 0 1.219-.265.594-.282 1.219-.86z"/><text x="1064" y="2634.49" fill="#D9B8FF" font-family="Helvetica" font-size="17" textLength="340">aws_rds_db_cluster_option_group_status</text><path d="M1031 2648.499h380" style="stroke:#000d19;stroke-width:.5"/><text x="1041" y="2670.494" fill="#D9B8FF" font-family="sans-serif" font-size="14" font-weight="bold" textLength="243">db_cluster_option_group_name</text><text x="1284" y="2670.494" fill="#D9B8FF" font-family="sans-serif" font-size="14" textLength="48">: string</text><text x="1041" y="2696.791" fill="#D9B8FF" font-family="sans-serif" font-size="14" font-weight="bold" textLength="49">status</text><text x="1090" y="2696.791" fill="#D9B8FF" font-family="sans-serif" font-size="14" textLength="48">: string</text><rect width="179" height="126.68" x="1447.5" y="2595.57" fill="#3D176E" rx="2.5" ry="2.5" style="stroke:#000d19;stroke-width:.5"/><circle cx="1462.5" cy="2615.465" r="11" fill="#ADD1B2" style="stroke:#181818;stroke-width:1"/><path d="M1465.469 2621.105q-.578.297-1.219.438-.64.156-1.344.156-2.5 0-3.828-1.64-1.312-1.657-1.312-4.782t1.312-4.781q1.328-1.657 3.828-1.657.703 0 1.344.157.656.156 1.219.453v2.719q-.625-.579-1.219-.844-.594-.281-1.219-.281-1.343 0-2.031 1.078-.687 1.062-.687 3.156t.687 3.172q.688 1.062 2.031 1.062.625 0 1.219-.265.594-.282 1.219-.86z"/><text x="1481.5" y="2621.35" fill="#D9B8FF" font-family="Helvetica" font-size="17" textLength="137">aws_rds_db_role</text><path d="M1448.5 2635.359h177" style="stroke:#000d19;stroke-width:.5"/><text x="1458.5" y="2657.354" fill="#D9B8FF" font-family="sans-serif" font-size="14" font-weight="bold" textLength="108">feature_name</text><text x="1566.5" y="2657.354" fill="#D9B8FF" font-family="sans-serif" font-size="14" textLength="48">: string</text><text x="1458.5" y="2683.651" fill="#D9B8FF" font-family="sans-serif" font-size="14" font-weight="bold" textLength="64">role_arn</text><text x="1522.5" y="2683.651" fill="#D9B8FF" font-family="sans-serif" font-size="14" textLength="48">: string</text><text x="1458.5" y="2709.948" fill="#D9B8FF" font-family="sans-serif" font-size="14" font-weight="bold" textLength="49">status</text><text x="1507.5" y="2709.948" fill="#D9B8FF" font-family="sans-serif" font-size="14" textLength="48">: string</text><rect width="295" height="152.977" x="1661.5" y="2582.42" fill="#3D176E" rx="2.5" ry="2.5" style="stroke:#000d19;stroke-width:.5"/><circle cx="1676.5" cy="2602.314" r="11" fill="#ADD1B2" style="stroke:#181818;stroke-width:1"/><path d="M1679.469 2607.955q-.578.297-1.219.438-.64.156-1.344.156-2.5 0-3.828-1.64-1.312-1.657-1.312-4.782t1.312-4.781q1.328-1.657 3.828-1.657.703 0 1.344.157.656.156 1.219.453v2.719q-.625-.579-1.219-.844-.594-.281-1.219-.281-1.343 0-2.031 1.078-.687 1.062-.687 3.156t.687 3.172q.688 1.062 2.031 1.062.625 0 1.219-.265.594-.282 1.219-.86z"/><text x="1695.5" y="2608.2" fill="#D9B8FF" font-family="Helvetica" font-size="17" textLength="253">aws_rds_domain_membership</text><path d="M1662.5 2622.209h293" style="stroke:#000d19;stroke-width:.5"/><text x="1672.5" y="2644.204" fill="#D9B8FF" font-family="sans-serif" font-size="14" font-weight="bold" textLength="57">domain</text><text x="1729.5" y="2644.204" fill="#D9B8FF" font-family="sans-serif" font-size="14" textLength="48">: string</text><text x="1672.5" y="2670.501" fill="#D9B8FF" font-family="sans-serif" font-size="14" font-weight="bold" textLength="36">fqdn</text><text x="1708.5" y="2670.501" fill="#D9B8FF" font-family="sans-serif" font-size="14" textLength="48">: string</text><text x="1672.5" y="2696.798" fill="#D9B8FF" font-family="sans-serif" font-size="14" font-weight="bold" textLength="115">iam_role_name</text><text x="1787.5" y="2696.798" fill="#D9B8FF" font-family="sans-serif" font-size="14" textLength="48">: string</text><text x="1672.5" y="2723.095" fill="#D9B8FF" font-family="sans-serif" font-size="14" font-weight="bold" textLength="49">status</text><text x="1721.5" y="2723.095" fill="#D9B8FF" font-family="sans-serif" font-size="14" textLength="48">: string</text><rect width="281" height="126.68" x="1991.5" y="2595.57" fill="#3D176E" rx="2.5" ry="2.5" style="stroke:#000d19;stroke-width:.5"/><circle cx="2006.5" cy="2615.465" r="11" fill="#ADD1B2" style="stroke:#181818;stroke-width:1"/><path d="M2009.469 2621.105q-.578.297-1.219.438-.64.156-1.344.156-2.5 0-3.828-1.64-1.312-1.657-1.312-4.782t1.312-4.781q1.328-1.657 3.828-1.657.703 0 1.344.157.656.156 1.219.453v2.719q-.625-.579-1.219-.844-.594-.281-1.219-.281-1.343 0-2.031 1.078-.687 1.062-.687 3.156t.687 3.172q.688 1.062 2.031 1.062.625 0 1.219-.265.594-.282 1.219-.86z"/><text x="2025.5" y="2621.35" fill="#D9B8FF" font-family="Helvetica" font-size="17" textLength="239">aws_rds_master_user_secret</text><path d="M1992.5 2635.359h279" style="stroke:#000d19;stroke-width:.5"/><text x="2002.5" y="2657.354" fill="#D9B8FF" font-family="sans-serif" font-size="14" font-weight="bold" textLength="88">kms_key_id</text><text x="2090.5" y="2657.354" fill="#D9B8FF" font-family="sans-serif" font-size="14" textLength="48">: string</text><text x="2002.5" y="2683.651" fill="#D9B8FF" font-family="sans-serif" font-size="14" font-weight="bold" textLength="84">secret_arn</text><text x="2086.5" y="2683.651" fill="#D9B8FF" font-family="sans-serif" font-size="14" textLength="48">: string</text><text x="2002.5" y="2709.948" fill="#D9B8FF" font-family="sans-serif" font-size="14" font-weight="bold" textLength="107">secret_status</text><text x="2109.5" y="2709.948" fill="#D9B8FF" font-family="sans-serif" font-size="14" textLength="48">: string</text><rect width="402" height="100.383" x="107" y="2847.99" fill="#3D176E" rx="2.5" ry="2.5" style="stroke:#000d19;stroke-width:.5"/><circle cx="122" cy="2867.885" r="11" fill="#ADD1B2" style="stroke:#181818;stroke-width:1"/><path d="M124.969 2873.525q-.578.297-1.219.438-.64.156-1.344.156-2.5 0-3.828-1.64-1.312-1.657-1.312-4.782t1.312-4.781q1.328-1.657 3.828-1.657.703 0 1.344.157.656.156 1.219.453v2.719q-.625-.579-1.219-.844-.594-.281-1.219-.281-1.344 0-2.031 1.078-.687 1.062-.687 3.156t.687 3.172q.688 1.062 2.031 1.062.625 0 1.219-.265.594-.282 1.219-.86z"/><text x="141" y="2873.77" fill="#D9B8FF" font-family="Helvetica" font-size="17" textLength="360">aws_rds_pending_cloudwatch_logs_exports</text><path d="M108 2887.779h400" style="stroke:#000d19;stroke-width:.5"/><text x="118" y="2909.774" fill="#D9B8FF" font-family="sans-serif" font-size="14" font-weight="bold" textLength="161">log_types_to_disable</text><text x="279" y="2909.774" fill="#D9B8FF" font-family="sans-serif" font-size="14" textLength="58">: string[]</text><text x="118" y="2936.071" fill="#D9B8FF" font-family="sans-serif" font-size="14" font-weight="bold" textLength="158">log_types_to_enable</text><text x="276" y="2936.071" fill="#D9B8FF" font-family="sans-serif" font-size="14" textLength="58">: string[]</text><rect width="336" height="205.57" x="2308" y="2556.12" fill="#3D176E" rx="2.5" ry="2.5" style="stroke:#000d19;stroke-width:.5"/><circle cx="2323" cy="2576.015" r="11" fill="#ADD1B2" style="stroke:#181818;stroke-width:1"/><path d="M2325.969 2581.655q-.578.297-1.219.438-.64.156-1.344.156-2.5 0-3.828-1.64-1.312-1.657-1.312-4.782t1.312-4.781q1.328-1.656 3.828-1.656.703 0 1.344.156.656.156 1.219.453v2.719q-.625-.578-1.219-.844-.594-.281-1.219-.281-1.343 0-2.031 1.078-.687 1.062-.687 3.156t.687 3.172q.688 1.062 2.031 1.062.625 0 1.219-.265.594-.281 1.219-.86z"/><text x="2342" y="2581.9" fill="#D9B8FF" font-family="Helvetica" font-size="17" textLength="294">aws_rds_scaling_configuration_info</text><path d="M2309 2595.909h334" style="stroke:#000d19;stroke-width:.5"/><text x="2319" y="2617.904" fill="#D9B8FF" font-family="sans-serif" font-size="14" font-weight="bold" textLength="90">auto_pause</text><text x="2409" y="2617.904" fill="#D9B8FF" font-family="sans-serif" font-size="14" textLength="65">: boolean</text><text x="2319" y="2644.201" fill="#D9B8FF" font-family="sans-serif" font-size="14" font-weight="bold" textLength="104">max_capacity</text><text x="2423" y="2644.201" fill="#D9B8FF" font-family="sans-serif" font-size="14" textLength="44">: int64</text><text x="2319" y="2670.498" fill="#D9B8FF" font-family="sans-serif" font-size="14" font-weight="bold" textLength="100">min_capacity</text><text x="2419" y="2670.498" fill="#D9B8FF" font-family="sans-serif" font-size="14" textLength="44">: int64</text><text x="2319" y="2696.795" fill="#D9B8FF" font-family="sans-serif" font-size="14" font-weight="bold" textLength="194">seconds_before_timeout</text><text x="2513" y="2696.795" fill="#D9B8FF" font-family="sans-serif" font-size="14" textLength="44">: int64</text><text x="2319" y="2723.092" fill="#D9B8FF" font-family="sans-serif" font-size="14" font-weight="bold" textLength="205">seconds_until_auto_pause</text><text x="2524" y="2723.092" fill="#D9B8FF" font-family="sans-serif" font-size="14" textLength="44">: int64</text><text x="2319" y="2749.389" fill="#D9B8FF" font-family="sans-serif" font-size="14" font-weight="bold" textLength="115">timeout_action</text><text x="2434" y="2749.389" fill="#D9B8FF" font-family="sans-serif" font-size="14" textLength="48">: string</text><rect width="458" height="100.383" x="2679" y="2608.71" fill="#3D176E" rx="2.5" ry="2.5" style="stroke:#000d19;stroke-width:.5"/><circle cx="2694" cy="2628.604" r="11" fill="#ADD1B2" style="stroke:#181818;stroke-width:1"/><path d="M2696.969 2634.245q-.578.297-1.219.438-.64.156-1.344.156-2.5 0-3.828-1.64-1.312-1.657-1.312-4.782t1.312-4.781q1.328-1.657 3.828-1.657.703 0 1.344.157.656.156 1.219.453v2.719q-.625-.579-1.219-.844-.594-.281-1.219-.281-1.343 0-2.031 1.078-.687 1.062-.687 3.156t.687 3.172q.688 1.062 2.031 1.062.625 0 1.219-.265.594-.282 1.219-.86z"/><text x="2713" y="2634.49" fill="#D9B8FF" font-family="Helvetica" font-size="17" textLength="416">aws_rds_serverless_v2_scaling_configuration_info</text><path d="M2680 2648.499h456" style="stroke:#000d19;stroke-width:.5"/><text x="2690" y="2670.494" fill="#D9B8FF" font-family="sans-serif" font-size="14" font-weight="bold" textLength="104">max_capacity</text><text x="2794" y="2670.494" fill="#D9B8FF" font-family="sans-serif" font-size="14" textLength="57">: double</text><text x="2690" y="2696.791" fill="#D9B8FF" font-family="sans-serif" font-size="14" font-weight="bold" textLength="100">min_capacity</text><text x="2790" y="2696.791" fill="#D9B8FF" font-family="sans-serif" font-size="14" textLength="57">: double</text><rect width="392" height="100.383" x="3172" y="2608.71" fill="#3D176E" rx="2.5" ry="2.5" style="stroke:#000d19;stroke-width:.5"/><circle cx="3187" cy="2628.604" r="11" fill="#ADD1B2" style="stroke:#181818;stroke-width:1"/><path d="M3189.969 2634.245q-.578.297-1.219.438-.64.156-1.344.156-2.5 0-3.828-1.64-1.312-1.657-1.312-4.782t1.312-4.781q1.328-1.657 3.828-1.657.703 0 1.344.157.656.156 1.219.453v2.719q-.625-.579-1.219-.844-.594-.281-1.219-.281-1.343 0-2.031 1.078-.687 1.062-.687 3.156t.687 3.172q.688 1.062 2.031 1.062.625 0 1.219-.265.594-.282 1.219-.86z"/><text x="3206" y="2634.49" fill="#D9B8FF" font-family="Helvetica" font-size="17" textLength="350">aws_rds_vpc_security_group_membership</text><path d="M3173 2648.499h390" style="stroke:#000d19;stroke-width:.5"/><text x="3183" y="2670.494" fill="#D9B8FF" font-family="sans-serif" font-size="14" font-weight="bold" textLength="49">status</text><text x="3232" y="2670.494" fill="#D9B8FF" font-family="sans-serif" font-size="14" textLength="48">: string</text><text x="3183" y="2696.791" fill="#D9B8FF" font-family="sans-serif" font-size="14" font-weight="bold" textLength="174">vpc_security_group_id</text><text x="3357" y="2696.791" fill="#D9B8FF" font-family="sans-serif" font-size="14" textLength="48">: string</text><rect width="155" height="74.086" x="1609.5" y="543.95" fill="#3D176E" rx="2.5" ry="2.5" style="stroke:#000d19;stroke-width:.5"/><circle cx="1624.5" cy="563.845" r="11" fill="#ADD1B2" style="stroke:#181818;stroke-width:1"/><path d="M1627.469 569.485q-.578.297-1.219.438-.64.156-1.344.156-2.5 0-3.828-1.64-1.312-1.657-1.312-4.782t1.312-4.781q1.328-1.656 3.828-1.656.703 0 1.344.156.656.156 1.219.453v2.719q-.625-.578-1.219-.844-.594-.281-1.219-.281-1.343 0-2.031 1.078-.687 1.062-.687 3.156t.687 3.172q.688 1.062 2.031 1.062.625 0 1.219-.265.594-.281 1.219-.86z"/><text x="1643.5" y="569.73" fill="#D9B8FF" font-family="Helvetica" font-size="17" textLength="113">aws_resource</text><path d="M1610.5 583.739h153" style="stroke:#000d19;stroke-width:.5"/><text x="1620.5" y="605.734" fill="#D9B8FF" font-family="sans-serif" font-size="14" font-weight="bold" textLength="26">arn</text><text x="1646.5" y="605.734" fill="#D9B8FF" font-family="sans-serif" font-size="14" textLength="48">: string</text><rect width="264" height="284.461" x="1800" y="438.76" fill="#3D176E" rx="2.5" ry="2.5" style="stroke:#000d19;stroke-width:.5"/><circle cx="1885.25" cy="458.654" r="11" fill="#ADD1B2" style="stroke:#181818;stroke-width:1"/><path d="M1888.219 464.295q-.578.297-1.219.438-.64.156-1.344.156-2.5 0-3.828-1.64-1.312-1.657-1.312-4.782t1.312-4.781q1.328-1.656 3.828-1.656.703 0 1.344.156.656.156 1.219.453v2.719q-.625-.579-1.219-.844-.594-.281-1.219-.281-1.343 0-2.031 1.078-.687 1.062-.687 3.156t.687 3.172q.688 1.062 2.031 1.062.625 0 1.219-.265.594-.281 1.219-.86z"/><text x="1910.75" y="464.54" fill="#D9B8FF" font-family="Helvetica" font-size="17" textLength="75">database</text><path d="M1801 478.549h262" style="stroke:#000d19;stroke-width:.5"/><text x="1811" y="500.544" fill="#D9B8FF" font-family="sans-serif" font-size="14" font-weight="bold" textLength="97">db_endpoint</text><text x="1908" y="500.544" fill="#D9B8FF" font-family="sans-serif" font-size="14" textLength="48">: string</text><text x="1811" y="526.841" fill="#D9B8FF" font-family="sans-serif" font-size="14" font-weight="bold" textLength="177">db_publicly_accessible</text><text x="1988" y="526.841" fill="#D9B8FF" font-family="sans-serif" font-size="14" textLength="65">: boolean</text><text x="1811" y="553.138" fill="#D9B8FF" font-family="sans-serif" font-size="14" font-weight="bold" textLength="76">db_status</text><text x="1887" y="553.138" fill="#D9B8FF" font-family="sans-serif" font-size="14" textLength="48">: string</text><text x="1811" y="579.435" fill="#D9B8FF" font-family="sans-serif" font-size="14" font-weight="bold" textLength="62">db_type</text><text x="1873" y="579.435" fill="#D9B8FF" font-family="sans-serif" font-size="14" textLength="48">: string</text><text x="1811" y="605.732" fill="#D9B8FF" font-family="sans-serif" font-size="14" font-weight="bold" textLength="86">db_version</text><text x="1897" y="605.732" fill="#D9B8FF" font-family="sans-serif" font-size="14" textLength="48">: string</text><text x="1811" y="632.029" fill="#D9B8FF" font-family="sans-serif" font-size="14" font-weight="bold" textLength="109">instance_type</text><text x="1920" y="632.029" fill="#D9B8FF" font-family="sans-serif" font-size="14" textLength="48">: string</text><text x="1811" y="658.325" fill="#D9B8FF" font-family="sans-serif" font-size="14" font-weight="bold" textLength="145">volume_encrypted</text><text x="1956" y="658.325" fill="#D9B8FF" font-family="sans-serif" font-size="14" textLength="65">: boolean</text><text x="1811" y="684.622" fill="#D9B8FF" font-family="sans-serif" font-size="14" font-weight="bold" textLength="97">volume_iops</text><text x="1908" y="684.622" fill="#D9B8FF" font-family="sans-serif" font-size="14" textLength="44">: int64</text><text x="1811" y="710.919" fill="#D9B8FF" font-family="sans-serif" font-size="14" font-weight="bold" textLength="96">volume_size</text><text x="1907" y="710.919" fill="#D9B8FF" font-family="sans-serif" font-size="14" textLength="44">: int64</text><rect width="227" height="310.758" x="1695.5" y="7" fill="#3D176E" rx="2.5" ry="2.5" style="stroke:#000d19;stroke-width:.5"/><circle cx="1764.25" cy="26.895" r="11" fill="#ADD1B2" style="stroke:#181818;stroke-width:1"/><path d="M1767.219 32.535q-.578.297-1.219.438-.64.156-1.344.156-2.5 0-3.828-1.64-1.312-1.657-1.312-4.782t1.312-4.781q1.328-1.656 3.828-1.656.703 0 1.344.156.656.156 1.219.453v2.719q-.625-.578-1.219-.844-.594-.281-1.219-.281-1.343 0-2.031 1.078-.687 1.062-.687 3.156t.687 3.172q.688 1.062 2.031 1.062.625 0 1.219-.265.594-.281 1.219-.86z"/><text x="1789.75" y="32.78" fill="#D9B8FF" font-family="Helvetica" font-size="17" textLength="71">resource</text><path d="M1696.5 46.789h225" style="stroke:#000d19;stroke-width:.5"/><text x="1706.5" y="68.784" fill="#D9B8FF" font-family="sans-serif" font-size="14" font-weight="bold" textLength="29">age</text><text x="1735.5" y="68.784" fill="#D9B8FF" font-family="sans-serif" font-size="14" textLength="66">: duration</text><text x="1706.5" y="95.081" fill="#D9B8FF" font-family="sans-serif" font-size="14" font-weight="bold" textLength="43">atime</text><text x="1749.5" y="95.081" fill="#D9B8FF" font-family="sans-serif" font-size="14" textLength="70">: datetime</text><text x="1706.5" y="121.378" fill="#D9B8FF" font-family="sans-serif" font-size="14" font-weight="bold" textLength="43">ctime</text><text x="1749.5" y="121.378" fill="#D9B8FF" font-family="sans-serif" font-size="14" textLength="70">: datetime</text><text x="1706.5" y="147.675" fill="#D9B8FF" font-family="sans-serif" font-size="14" font-weight="bold" textLength="14">id</text><text x="1720.5" y="147.675" fill="#D9B8FF" font-family="sans-serif" font-size="14" textLength="48">: string</text><text x="1706.5" y="173.972" fill="#D9B8FF" font-family="sans-serif" font-size="14" font-weight="bold" textLength="33">kind</text><text x="1739.5" y="173.972" fill="#D9B8FF" font-family="sans-serif" font-size="14" textLength="48">: string</text><text x="1706.5" y="200.269" fill="#D9B8FF" font-family="sans-serif" font-size="14" font-weight="bold" textLength="90">last_access</text><text x="1796.5" y="200.269" fill="#D9B8FF" font-family="sans-serif" font-size="14" textLength="66">: duration</text><text x="1706.5" y="226.565" fill="#D9B8FF" font-family="sans-serif" font-size="14" font-weight="bold" textLength="90">last_update</text><text x="1796.5" y="226.565" fill="#D9B8FF" font-family="sans-serif" font-size="14" textLength="66">: duration</text><text x="1706.5" y="252.862" fill="#D9B8FF" font-family="sans-serif" font-size="14" font-weight="bold" textLength="48">mtime</text><text x="1754.5" y="252.862" fill="#D9B8FF" font-family="sans-serif" font-size="14" textLength="70">: datetime</text><text x="1706.5" y="279.159" fill="#D9B8FF" font-family="sans-serif" font-size="14" font-weight="bold" textLength="43">name</text><text x="1749.5" y="279.159" fill="#D9B8FF" font-family="sans-serif" font-size="14" textLength="48">: string</text><text x="1706.5" y="305.456" fill="#D9B8FF" font-family="sans-serif" font-size="14" font-weight="bold" textLength="34">tags</text><text x="1740.5" y="305.456" fill="#D9B8FF" font-family="sans-serif" font-size="14" textLength="171">: dictionary[string, string]</text><path fill="none" d="M1464.17 1887.73c-298.84 199.07-715.377 476.544-958.247 638.334" style="stroke:#ffaf37;stroke-width:2"/><path fill="#FFAF37" d="m500.93 2529.39 9.708-1.66-5.547-1.112 1.112-5.547z" style="stroke:#ffaf37;stroke-width:2"/><path fill="none" d="M1464.14 2006.33c-205.64 207.69-445.239 449.676-565.749 571.396" style="stroke:#ffaf37;stroke-width:2"/><path fill="#FFAF37" d="m894.17 2581.99 9.175-3.581-5.657.028-.028-5.657z" style="stroke:#ffaf37;stroke-width:2"/><path fill="none" d="M1464.19 2244.36c-89.17 151.63-168.869 287.158-211.009 358.828" style="stroke:#ffaf37;stroke-width:2"/><path fill="#FFAF37" d="m1250.14 2608.36 8.01-5.73-5.476 1.42-1.42-5.476z" style="stroke:#ffaf37;stroke-width:2"/><path fill="none" d="M1588.08 2470.13c-13.56 49.86-23.674 87.03-32.434 119.22" style="stroke:#ffaf37;stroke-width:2"/><path fill="#FFAF37" d="m1554.07 2595.14 6.223-7.634-4.91 2.81-2.81-4.91z" style="stroke:#ffaf37;stroke-width:2"/><path fill="none" d="M1809 2470.13V2576" style="stroke:#ffaf37;stroke-width:2"/><path fill="#FFAF37" d="m1809 2582 4-9-4 4-4-4z" style="stroke:#ffaf37;stroke-width:2"/><path fill="none" d="m2071.34 2470.13 38.545 119.3" style="stroke:#ffaf37;stroke-width:2"/><path fill="#FFAF37" d="m2111.73 2595.14 1.04-9.794-2.577 5.036-5.036-2.576z" style="stroke:#ffaf37;stroke-width:2"/><path fill="none" d="M2153.98 2175.17c96.84 145.18 189.06 283.429 250.61 375.679" style="stroke:#ffaf37;stroke-width:2"/><path fill="#FFAF37" d="m2407.92 2555.84-1.668-9.707-1.107 5.548-5.548-1.108z" style="stroke:#ffaf37;stroke-width:2"/><path fill="none" d="M2153.72 1971.65c253.05 230.23 569.282 517.942 695.392 632.682" style="stroke:#ffaf37;stroke-width:2"/><path fill="#FFAF37" d="m2853.55 2608.37-3.965-9.015.267 5.65-5.65.267z" style="stroke:#ffaf37;stroke-width:2"/><path fill="none" d="M2153.54 1879c370.38 237.54 928.39 595.43 1132.29 726.21" style="stroke:#ffaf37;stroke-width:2"/><path fill="#FFAF37" d="m3290.88 2608.45-5.416-8.226 1.207 5.527-5.526 1.207z" style="stroke:#ffaf37;stroke-width:2"/><g fill="none"><path d="M1693.16 636.225c5.06 44.57 12.34 108.635 23.59 207.685" style="stroke:#ffaf37;stroke-width:2"/><path d="m1691.13 618.34-3.931 18.562 11.923-1.354z" style="stroke:#ffaf37;stroke-width:2"/></g><g fill="none"><path d="M1913.742 741.393c-4.07 35.53-6.682 58.357-11.732 102.467" style="stroke:#ffaf37;stroke-width:2"/><path d="m1915.79 723.51-8.01 17.2 11.923 1.366z" style="stroke:#ffaf37;stroke-width:2"/></g><path fill="none" d="M308 2788.26v53.31" style="stroke:#ffaf37;stroke-width:2"/><path fill="#FFAF37" d="m308 2847.57 4-9-4 4-4-4z" style="stroke:#ffaf37;stroke-width:2"/><g fill="none"><path d="M1758.6 335.494c-23.93 81.7-46.24 157.906-60.94 208.076" style="stroke:#ffaf37;stroke-width:2"/><path d="m1763.66 318.22-10.818 15.588 11.516 3.373z" style="stroke:#ffaf37;stroke-width:2"/></g><path fill="none" d="M1859.809 335.483c11.62 39.34 18.941 64.157 30.361 102.817m-35.46-120.08-.655 18.962 11.508-3.399z" style="stroke:#ffaf37;stroke-width:2"/></svg>