<svg xmlns="http://www.w3.org/2000/svg" width="346" height="352" viewBox="0 0 346 352"><rect width="185" height="39.789" x="7" y="306.37" fill="#3D176E" rx="2.5" ry="2.5" style="stroke:#000d19;stroke-width:.5"/><circle cx="22" cy="326.264" r="11" fill="#ADD1B2" style="stroke:#181818;stroke-width:1"/><path d="M24.969 331.905q-.578.297-1.219.438-.64.156-1.344.156-2.5 0-3.828-1.64-1.312-1.657-1.312-4.782t1.312-4.781q1.328-1.656 3.828-1.656.703 0 1.344.156.656.156 1.219.453v2.719q-.625-.579-1.219-.844-.594-.281-1.219-.281-1.343 0-2.031 1.078-.687 1.062-.687 3.156t.687 3.172q.688 1.062 2.031 1.062.625 0 1.219-.265.594-.281 1.219-.86z"/><text x="41" y="332.15" fill="#D9B8FF" font-family="Helvetica" font-size="17" textLength="143">aws_ec2_volume</text><rect width="231" height="39.789" x="68" y="206.58" fill="#3D176E" rx="2.5" ry="2.5" style="stroke:#000d19;stroke-width:.5"/><circle cx="83" cy="226.475" r="11" fill="#ADD1B2" style="stroke:#181818;stroke-width:1"/><path d="M85.969 232.115q-.578.297-1.219.438-.64.156-1.344.156-2.5 0-3.828-1.64-1.312-1.657-1.312-4.782t1.312-4.781q1.328-1.656 3.828-1.656.703 0 1.344.156.656.156 1.219.453v2.719q-.625-.578-1.219-.844-.594-.281-1.219-.281-1.344 0-2.031 1.078-.687 1.062-.687 3.156t.687 3.172q.688 1.062 2.031 1.062.625 0 1.219-.265.594-.281 1.219-.86z"/><text x="102" y="232.36" fill="#D9B8FF" font-family="Helvetica" font-size="17" textLength="189">aws_ec2_volume_type</text><rect width="137" height="39.789" x="18" y="7" fill="#3D176E" rx="2.5" ry="2.5" style="stroke:#000d19;stroke-width:.5"/><circle cx="33" cy="26.895" r="11" fill="#ADD1B2" style="stroke:#181818;stroke-width:1"/><path d="M35.969 32.535q-.578.297-1.219.438-.64.156-1.344.156-2.5 0-3.828-1.64-1.312-1.657-1.312-4.782t1.312-4.781q1.328-1.656 3.828-1.656.703 0 1.344.156.656.156 1.219.453v2.719q-.625-.578-1.219-.844-.594-.281-1.219-.281-1.343 0-2.031 1.078-.687 1.062-.687 3.156t.687 3.172q.688 1.062 2.031 1.062.625 0 1.219-.265.594-.281 1.219-.86z"/><text x="52" y="32.78" fill="#D9B8FF" font-family="Helvetica" font-size="17" textLength="95">aws_region</text><rect width="199" height="39.789" x="140" y="106.79" fill="#3D176E" rx="2.5" ry="2.5" style="stroke:#000d19;stroke-width:.5"/><circle cx="155" cy="126.684" r="11" fill="#ADD1B2" style="stroke:#181818;stroke-width:1"/><path d="M157.969 132.325q-.578.297-1.219.438-.64.156-1.344.156-2.5 0-3.828-1.64-1.312-1.657-1.312-4.782t1.312-4.781q1.328-1.656 3.828-1.656.703 0 1.344.156.656.156 1.219.453v2.719q-.625-.579-1.219-.844-.594-.281-1.219-.281-1.344 0-2.031 1.078-.687 1.062-.687 3.156t.687 3.172q.688 1.062 2.031 1.062.625 0 1.219-.265.594-.281 1.219-.86z"/><text x="174" y="132.57" fill="#D9B8FF" font-family="Helvetica" font-size="17" textLength="157">aws_service_quota</text><path fill="none" d="M166.9 246.8c-14.72 17.14-32.21 37.498-46.93 54.638" style="stroke:#1a83af;stroke-width:2"/><path fill="#1A83AF" d="m116.06 305.99 8.898-4.222-5.64.429-.429-5.64z" style="stroke:#1a83af;stroke-width:2"/><path fill="none" d="M77.71 47.22C61.43 85.71 29.99 174.47 50.5 246.37c6.37 22.33 17.42 39.746 29.07 54.876" style="stroke:#1a83af;stroke-width:2"/><path fill="#1A83AF" d="m83.23 306-2.322-9.571-.728 5.61-5.61-.73z" style="stroke:#1a83af;stroke-width:2"/><path fill="none" d="M90.1 47.22c5 24.19 15.42 66.45 32.4 99.36 11.43 22.16 25.321 39.86 38.771 55.04" style="stroke:#1a83af;stroke-width:2"/><path fill="#1A83AF" d="m165.25 206.11-2.975-9.389-.34 5.647-5.647-.341z" style="stroke:#1a83af;stroke-width:2"/><path fill="none" d="M116.73 47.22c26.82 17.14 60.745 38.829 87.544 55.959" style="stroke:#1a83af;stroke-width:2"/><path fill="#1A83AF" d="m209.33 106.41-5.429-8.217 1.216 5.524-5.524 1.216z" style="stroke:#1a83af;stroke-width:2"/><path fill="none" d="M228.44 147.01c-9.82 17.14-21.11 36.843-30.92 53.983" style="stroke:#1a83af;stroke-width:2"/><path fill="#1A83AF" d="m194.54 206.2 7.942-5.824-5.458 1.484-1.485-5.458z" style="stroke:#1a83af;stroke-width:2"/></svg>