<svg xmlns="http://www.w3.org/2000/svg" width="1013" height="1403" viewBox="0 0 1013 1403"><rect width="237" height="179.273" x="12.5" y="1057.19" fill="#3D176E" rx="2.5" ry="2.5" style="stroke:#000d19;stroke-width:.5"/><circle cx="27.5" cy="1077.084" r="11" fill="#ADD1B2" style="stroke:#181818;stroke-width:1"/><path d="M30.469 1082.725q-.578.297-1.219.438-.64.156-1.344.156-2.5 0-3.828-1.64-1.312-1.657-1.312-4.782t1.312-4.781q1.328-1.657 3.828-1.657.703 0 1.344.157.656.156 1.219.453v2.719q-.625-.579-1.219-.844-.594-.281-1.219-.281-1.343 0-2.031 1.078-.688 1.062-.688 3.156 0 2.094.688 3.172.688 1.062 2.031 1.062.625 0 1.219-.265.594-.282 1.219-.86v2.72Z"/><text x="46.5" y="1082.97" fill="#D9B8FF" font-family="Helvetica" font-size="17" textLength="195">gcp_deprecation_status</text><path d="M13.5 1096.979h235" style="stroke:#000d19;stroke-width:.5"/><text x="23.5" y="1118.974" fill="#D9B8FF" font-family="sans-serif" font-size="14" font-weight="bold" textLength="60">deleted</text><text x="83.5" y="1118.974" fill="#D9B8FF" font-family="sans-serif" font-size="14" textLength="48">: string</text><text x="23.5" y="1145.271" fill="#D9B8FF" font-family="sans-serif" font-size="14" font-weight="bold" textLength="91">deprecated</text><text x="114.5" y="1145.271" fill="#D9B8FF" font-family="sans-serif" font-size="14" textLength="48">: string</text><text x="23.5" y="1171.568" fill="#D9B8FF" font-family="sans-serif" font-size="14" font-weight="bold" textLength="69">obsolete</text><text x="92.5" y="1171.568" fill="#D9B8FF" font-family="sans-serif" font-size="14" textLength="48">: string</text><text x="23.5" y="1197.865" fill="#D9B8FF" font-family="sans-serif" font-size="14" font-weight="bold" textLength="99">replacement</text><text x="122.5" y="1197.865" fill="#D9B8FF" font-family="sans-serif" font-size="14" textLength="48">: string</text><text x="23.5" y="1224.162" fill="#D9B8FF" font-family="sans-serif" font-size="14" font-weight="bold" textLength="40">state</text><text x="63.5" y="1224.162" fill="#D9B8FF" font-family="sans-serif" font-size="14" textLength="48">: string</text><rect width="348" height="152.977" x="7" y="438.76" fill="#3D176E" rx="2.5" ry="2.5" style="stroke:#000d19;stroke-width:.5"/><circle cx="117.75" cy="458.654" r="11" fill="#ADD1B2" style="stroke:#181818;stroke-width:1"/><path d="M120.719 464.295q-.578.297-1.219.438-.64.156-1.344.156-2.5 0-3.828-1.64-1.312-1.657-1.312-4.782t1.312-4.781q1.328-1.656 3.828-1.656.703 0 1.344.156.656.156 1.219.453v2.719q-.625-.579-1.219-.844-.594-.281-1.219-.281-1.344 0-2.031 1.078-.688 1.062-.688 3.156 0 2.094.688 3.172.688 1.062 2.031 1.062.625 0 1.219-.265.594-.281 1.219-.86v2.72Z"/><text x="143.25" y="464.54" fill="#D9B8FF" font-family="Helvetica" font-size="17" textLength="108">gcp_resource</text><path d="M8 478.549h346" style="stroke:#000d19;stroke-width:.5"/><text x="18" y="500.544" fill="#D9B8FF" font-family="sans-serif" font-size="14" font-weight="bold" textLength="151">deprecation_status</text><text x="169" y="500.544" fill="#D9B8FF" font-family="sans-serif" font-size="14" textLength="175">: gcp_deprecation_status</text><text x="18" y="526.841" fill="#D9B8FF" font-family="sans-serif" font-size="14" font-weight="bold" textLength="89">description</text><text x="107" y="526.841" fill="#D9B8FF" font-family="sans-serif" font-size="14" textLength="48">: string</text><text x="18" y="553.138" fill="#D9B8FF" font-family="sans-serif" font-size="14" font-weight="bold" textLength="128">label_fingerprint</text><text x="146" y="553.138" fill="#D9B8FF" font-family="sans-serif" font-size="14" textLength="48">: string</text><text x="18" y="579.435" fill="#D9B8FF" font-family="sans-serif" font-size="14" font-weight="bold" textLength="27">link</text><text x="45" y="579.435" fill="#D9B8FF" font-family="sans-serif" font-size="14" textLength="48">: string</text><rect width="297" height="100.383" x="666.5" y="1296.47" fill="#3D176E" rx="2.5" ry="2.5" style="stroke:#000d19;stroke-width:.5"/><circle cx="703.1" cy="1316.364" r="11" fill="#ADD1B2" style="stroke:#181818;stroke-width:1"/><path d="M706.069 1322.005q-.578.297-1.219.438-.64.156-1.344.156-2.5 0-3.828-1.64-1.312-1.657-1.312-4.782t1.312-4.781q1.328-1.657 3.828-1.657.703 0 1.344.157.656.156 1.219.453v2.719q-.625-.579-1.219-.844-.594-.281-1.219-.281-1.343 0-2.031 1.078-.688 1.062-.688 3.156 0 2.094.688 3.172.688 1.062 2.031 1.062.625 0 1.219-.265.594-.282 1.219-.86v2.72Z"/><text x="726.9" y="1322.25" fill="#D9B8FF" font-family="Helvetica" font-size="17" textLength="207">gcp_sql_password_status</text><path d="M667.5 1336.259h295" style="stroke:#000d19;stroke-width:.5"/><text x="677.5" y="1358.254" fill="#D9B8FF" font-family="sans-serif" font-size="14" font-weight="bold" textLength="52">locked</text><text x="729.5" y="1358.254" fill="#D9B8FF" font-family="sans-serif" font-size="14" textLength="65">: boolean</text><text x="677.5" y="1384.551" fill="#D9B8FF" font-family="sans-serif" font-size="14" font-weight="bold" textLength="205">password_expiration_time</text><text x="882.5" y="1384.551" fill="#D9B8FF" font-family="sans-serif" font-size="14" textLength="70">: datetime</text><rect width="304" height="100.383" x="285" y="1096.64" fill="#3D176E" rx="2.5" ry="2.5" style="stroke:#000d19;stroke-width:.5"/><circle cx="300" cy="1116.534" r="11" fill="#ADD1B2" style="stroke:#181818;stroke-width:1"/><path d="M302.969 1122.175q-.578.297-1.219.438-.64.156-1.344.156-2.5 0-3.828-1.64-1.312-1.657-1.312-4.782t1.312-4.781q1.328-1.657 3.828-1.657.703 0 1.344.157.656.156 1.219.453v2.719q-.625-.579-1.219-.844-.594-.281-1.219-.281-1.344 0-2.031 1.078-.688 1.062-.688 3.156 0 2.094.688 3.172.688 1.062 2.031 1.062.625 0 1.219-.265.594-.282 1.219-.86v2.72Z"/><text x="319" y="1122.42" fill="#D9B8FF" font-family="Helvetica" font-size="17" textLength="262">gcp_sql_sql_server_user_details</text><path d="M286 1136.429h302" style="stroke:#000d19;stroke-width:.5"/><text x="296" y="1158.424" fill="#D9B8FF" font-family="sans-serif" font-size="14" font-weight="bold" textLength="66">disabled</text><text x="362" y="1158.424" fill="#D9B8FF" font-family="sans-serif" font-size="14" textLength="65">: boolean</text><text x="296" y="1184.721" fill="#D9B8FF" font-family="sans-serif" font-size="14" font-weight="bold" textLength="99">server_roles</text><text x="395" y="1184.721" fill="#D9B8FF" font-family="sans-serif" font-size="14" textLength="58">: string[]</text><rect width="444" height="284.461" x="207" y="712.73" fill="#3D176E" rx="2.5" ry="2.5" style="stroke:#000d19;stroke-width:.5"/><circle cx="367.25" cy="732.625" r="11" fill="#ADD1B2" style="stroke:#181818;stroke-width:1"/><path d="M370.219 738.265q-.578.297-1.219.438-.64.156-1.344.156-2.5 0-3.828-1.64-1.312-1.657-1.312-4.782t1.312-4.781q1.328-1.656 3.828-1.656.703 0 1.344.156.656.156 1.219.453v2.719q-.625-.578-1.219-.844-.594-.281-1.219-.281-1.344 0-2.031 1.078-.688 1.062-.688 3.156 0 2.094.688 3.172.688 1.062 2.031 1.062.625 0 1.219-.265.594-.281 1.219-.86v2.72Z"/><text x="392.75" y="738.51" fill="#D9B8FF" font-family="Helvetica" font-size="17" textLength="105">gcp_sql_user</text><path d="M208 752.519h442" style="stroke:#000d19;stroke-width:.5"/><text x="218" y="774.514" fill="#D9B8FF" font-family="sans-serif" font-size="14" font-weight="bold" textLength="160">dual_password_type</text><text x="378" y="774.514" fill="#D9B8FF" font-family="sans-serif" font-size="14" textLength="48">: string</text><text x="218" y="800.811" fill="#D9B8FF" font-family="sans-serif" font-size="14" font-weight="bold" textLength="35">etag</text><text x="253" y="800.811" fill="#D9B8FF" font-family="sans-serif" font-size="14" textLength="48">: string</text><text x="218" y="827.108" fill="#D9B8FF" font-family="sans-serif" font-size="14" font-weight="bold" textLength="35">host</text><text x="253" y="827.108" fill="#D9B8FF" font-family="sans-serif" font-size="14" textLength="48">: string</text><text x="218" y="853.405" fill="#D9B8FF" font-family="sans-serif" font-size="14" font-weight="bold" textLength="67">instance</text><text x="285" y="853.405" fill="#D9B8FF" font-family="sans-serif" font-size="14" textLength="48">: string</text><text x="218" y="879.702" fill="#D9B8FF" font-family="sans-serif" font-size="14" font-weight="bold" textLength="78">password</text><text x="296" y="879.702" fill="#D9B8FF" font-family="sans-serif" font-size="14" textLength="48">: string</text><text x="218" y="905.999" fill="#D9B8FF" font-family="sans-serif" font-size="14" font-weight="bold" textLength="131">password_policy</text><text x="349" y="905.999" fill="#D9B8FF" font-family="sans-serif" font-size="14" textLength="291">: gcp_sql_user_password_validation_policy</text><text x="218" y="932.295" fill="#D9B8FF" font-family="sans-serif" font-size="14" font-weight="bold" textLength="56">project</text><text x="274" y="932.295" fill="#D9B8FF" font-family="sans-serif" font-size="14" textLength="48">: string</text><text x="218" y="958.592" fill="#D9B8FF" font-family="sans-serif" font-size="14" font-weight="bold" textLength="177">sqlserver_user_details</text><text x="395" y="958.592" fill="#D9B8FF" font-family="sans-serif" font-size="14" textLength="229">: gcp_sql_sql_server_user_details</text><text x="218" y="984.889" fill="#D9B8FF" font-family="sans-serif" font-size="14" font-weight="bold" textLength="35">type</text><text x="253" y="984.889" fill="#D9B8FF" font-family="sans-serif" font-size="14" textLength="48">: string</text><rect width="383" height="179.273" x="623.5" y="1057.19" fill="#3D176E" rx="2.5" ry="2.5" style="stroke:#000d19;stroke-width:.5"/><circle cx="638.5" cy="1077.084" r="11" fill="#ADD1B2" style="stroke:#181818;stroke-width:1"/><path d="M641.469 1082.725q-.578.297-1.219.438-.64.156-1.344.156-2.5 0-3.828-1.64-1.312-1.657-1.312-4.782t1.312-4.781q1.328-1.657 3.828-1.657.703 0 1.344.157.656.156 1.219.453v2.719q-.625-.579-1.219-.844-.594-.281-1.219-.281-1.343 0-2.031 1.078-.688 1.062-.688 3.156 0 2.094.688 3.172.688 1.062 2.031 1.062.625 0 1.219-.265.594-.282 1.219-.86v2.72Z"/><text x="657.5" y="1082.97" fill="#D9B8FF" font-family="Helvetica" font-size="17" textLength="341">gcp_sql_user_password_validation_policy</text><path d="M624.5 1096.979h381" style="stroke:#000d19;stroke-width:.5"/><text x="634.5" y="1118.974" fill="#D9B8FF" font-family="sans-serif" font-size="14" font-weight="bold" textLength="188">allowed_failed_attempts</text><text x="822.5" y="1118.974" fill="#D9B8FF" font-family="sans-serif" font-size="14" textLength="44">: int64</text><text x="634.5" y="1145.271" fill="#D9B8FF" font-family="sans-serif" font-size="14" font-weight="bold" textLength="234">enable_failed_attempts_check</text><text x="868.5" y="1145.271" fill="#D9B8FF" font-family="sans-serif" font-size="14" textLength="65">: boolean</text><text x="634.5" y="1171.568" fill="#D9B8FF" font-family="sans-serif" font-size="14" font-weight="bold" textLength="233">enable_password_verification</text><text x="867.5" y="1171.568" fill="#D9B8FF" font-family="sans-serif" font-size="14" textLength="65">: boolean</text><text x="634.5" y="1197.865" fill="#D9B8FF" font-family="sans-serif" font-size="14" font-weight="bold" textLength="237">password_expiration_duration</text><text x="871.5" y="1197.865" fill="#D9B8FF" font-family="sans-serif" font-size="14" textLength="48">: string</text><text x="634.5" y="1224.162" fill="#D9B8FF" font-family="sans-serif" font-size="14" font-weight="bold" textLength="49">status</text><text x="683.5" y="1224.162" fill="#D9B8FF" font-family="sans-serif" font-size="14" textLength="186">: gcp_sql_password_status</text><rect width="227" height="310.758" x="67.5" y="7" fill="#3D176E" rx="2.5" ry="2.5" style="stroke:#000d19;stroke-width:.5"/><circle cx="136.25" cy="26.895" r="11" fill="#ADD1B2" style="stroke:#181818;stroke-width:1"/><path d="M139.219 32.535q-.578.297-1.219.438-.64.156-1.344.156-2.5 0-3.828-1.64-1.312-1.657-1.312-4.782t1.312-4.781q1.328-1.656 3.828-1.656.703 0 1.344.156.656.156 1.219.453v2.719q-.625-.578-1.219-.844-.594-.281-1.219-.281-1.344 0-2.031 1.078-.688 1.062-.688 3.156 0 2.094.688 3.172.688 1.062 2.031 1.062.625 0 1.219-.265.594-.281 1.219-.86v2.72Z"/><text x="161.75" y="32.78" fill="#D9B8FF" font-family="Helvetica" font-size="17" textLength="71">resource</text><path d="M68.5 46.789h225" style="stroke:#000d19;stroke-width:.5"/><text x="78.5" y="68.784" fill="#D9B8FF" font-family="sans-serif" font-size="14" font-weight="bold" textLength="29">age</text><text x="107.5" y="68.784" fill="#D9B8FF" font-family="sans-serif" font-size="14" textLength="66">: duration</text><text x="78.5" y="95.081" fill="#D9B8FF" font-family="sans-serif" font-size="14" font-weight="bold" textLength="43">atime</text><text x="121.5" y="95.081" fill="#D9B8FF" font-family="sans-serif" font-size="14" textLength="70">: datetime</text><text x="78.5" y="121.378" fill="#D9B8FF" font-family="sans-serif" font-size="14" font-weight="bold" textLength="43">ctime</text><text x="121.5" y="121.378" fill="#D9B8FF" font-family="sans-serif" font-size="14" textLength="70">: datetime</text><text x="78.5" y="147.675" fill="#D9B8FF" font-family="sans-serif" font-size="14" font-weight="bold" textLength="14">id</text><text x="92.5" y="147.675" fill="#D9B8FF" font-family="sans-serif" font-size="14" textLength="48">: string</text><text x="78.5" y="173.972" fill="#D9B8FF" font-family="sans-serif" font-size="14" font-weight="bold" textLength="33">kind</text><text x="111.5" y="173.972" fill="#D9B8FF" font-family="sans-serif" font-size="14" textLength="48">: string</text><text x="78.5" y="200.269" fill="#D9B8FF" font-family="sans-serif" font-size="14" font-weight="bold" textLength="90">last_access</text><text x="168.5" y="200.269" fill="#D9B8FF" font-family="sans-serif" font-size="14" textLength="66">: duration</text><text x="78.5" y="226.565" fill="#D9B8FF" font-family="sans-serif" font-size="14" font-weight="bold" textLength="90">last_update</text><text x="168.5" y="226.565" fill="#D9B8FF" font-family="sans-serif" font-size="14" textLength="66">: duration</text><text x="78.5" y="252.862" fill="#D9B8FF" font-family="sans-serif" font-size="14" font-weight="bold" textLength="48">mtime</text><text x="126.5" y="252.862" fill="#D9B8FF" font-family="sans-serif" font-size="14" textLength="70">: datetime</text><text x="78.5" y="279.159" fill="#D9B8FF" font-family="sans-serif" font-size="14" font-weight="bold" textLength="43">name</text><text x="121.5" y="279.159" fill="#D9B8FF" font-family="sans-serif" font-size="14" textLength="48">: string</text><text x="78.5" y="305.456" fill="#D9B8FF" font-family="sans-serif" font-size="14" font-weight="bold" textLength="34">tags</text><text x="112.5" y="305.456" fill="#D9B8FF" font-family="sans-serif" font-size="14" textLength="171">: dictionary[string, string]</text><path fill="none" d="M174.97 592.19c-9.14 115.01-26.46 333.22-36.42 458.6" style="stroke:#ffaf37;stroke-width:2"/><path fill="#FFAF37" d="m138.08 1055.69 4.707-8.651-4.307 3.667-3.667-4.307 3.267 9.291z" style="stroke:#ffaf37;stroke-width:2"/><path fill="none" d="M181 338.65v99.66m-7-99.27 7-20 7 20h-14zM283.49 997.5c-19.37 18.84-38.81 37.75-57.03 55.47" style="stroke:#ffaf37;stroke-width:2"/><path fill="#FFAF37" d="m223.35 1055.97 9.242-3.405-5.657-.08.08-5.656-3.665 9.141z" style="stroke:#ffaf37;stroke-width:2"/><g fill="none"><path d="M248.95 608.78c23.46 31.94 50.3 68.5 75.98 103.47" style="stroke:#ffaf37;stroke-width:2"/><path d="m242.85 613.3-6.19-20.26 17.48 11.97-11.29 8.29z" style="stroke:#ffaf37;stroke-width:2"/></g><path fill="none" d="M432.91 997.5c.91 33 1.82 66.24 2.56 92.86" style="stroke:#ffaf37;stroke-width:2"/><path fill="#FFAF37" d="m435.63 1095.28 3.767-9.1-3.896 4.102-4.102-3.896 4.231 8.894z" style="stroke:#ffaf37;stroke-width:2"/><path fill="none" d="M617.48 997.5c25.2 18.93 50.52 37.94 74.21 55.73" style="stroke:#ffaf37;stroke-width:2"/><path fill="#FFAF37" d="m695.4 1056.77-4.78-8.61.787 5.6-5.602.788 9.595 2.222z" style="stroke:#ffaf37;stroke-width:2"/><path fill="none" d="M815 1236.91v53.13" style="stroke:#ffaf37;stroke-width:2"/><path fill="#FFAF37" d="m815 1295.03 4-9-4 4-4-4 4 9z" style="stroke:#ffaf37;stroke-width:2"/></svg>