<svg xmlns="http://www.w3.org/2000/svg" width="692" height="352" preserveAspectRatio="none" style="width:692px;height:352px"><rect width="215" height="39.789" x="74.71" y="206.58" fill="#3D176E" rx="2.5" ry="2.5" style="stroke:#000d19;stroke-width:.5"/><circle cx="89.71" cy="226.475" r="11" fill="#ADD1B2" style="stroke:#181818;stroke-width:1"/><path d="M92.679 232.115q-.578.297-1.219.438-.64.156-1.344.156-2.5 0-3.828-1.64-1.312-1.657-1.312-4.782t1.312-4.781q1.328-1.656 3.828-1.656.703 0 1.344.156.656.156 1.219.453v2.719q-.625-.578-1.219-.844-.594-.281-1.219-.281-1.344 0-2.031 1.078-.688 1.062-.688 3.156 0 2.094.688 3.172.688 1.062 2.031 1.062.625 0 1.219-.265.594-.281 1.219-.86v2.72Z"/><text x="108.71" y="232.36" fill="#D9B8FF" font-family="Helvetica" font-size="17" textLength="173">gcp_backend_service</text><rect width="290" height="39.789" x="325.21" y="206.58" fill="#3D176E" rx="2.5" ry="2.5" style="stroke:#000d19;stroke-width:.5"/><circle cx="340.21" cy="226.475" r="11" fill="#ADD1B2" style="stroke:#181818;stroke-width:1"/><path d="M343.179 232.115q-.578.297-1.219.438-.64.156-1.344.156-2.5 0-3.828-1.64-1.312-1.657-1.312-4.782t1.312-4.781q1.328-1.656 3.828-1.656.703 0 1.344.156.656.156 1.219.453v2.719q-.625-.578-1.219-.844-.594-.281-1.219-.281-1.344 0-2.031 1.078-.688 1.062-.688 3.156 0 2.094.688 3.172.688 1.062 2.031 1.062.625 0 1.219-.265.594-.281 1.219-.86v2.72Z"/><text x="359.21" y="232.36" fill="#D9B8FF" font-family="Helvetica" font-size="17" textLength="248">gcp_instance_group_manager</text><rect width="189" height="39.789" x="231.71" y="306.37" fill="#3D176E" rx="2.5" ry="2.5" style="stroke:#000d19;stroke-width:.5"/><circle cx="246.71" cy="326.264" r="11" fill="#ADD1B2" style="stroke:#181818;stroke-width:1"/><path d="M249.679 331.905q-.578.297-1.219.438-.64.156-1.344.156-2.5 0-3.828-1.64-1.312-1.657-1.312-4.782t1.312-4.781q1.328-1.656 3.828-1.656.703 0 1.344.156.656.156 1.219.453v2.719q-.625-.579-1.219-.844-.594-.281-1.219-.281-1.344 0-2.031 1.078-.688 1.062-.688 3.156 0 2.094.688 3.172.688 1.062 2.031 1.062.625 0 1.219-.265.594-.281 1.219-.86v2.72Z"/><text x="265.71" y="332.15" fill="#D9B8FF" font-family="Helvetica" font-size="17" textLength="147">gcp_health_check</text><rect width="132" height="39.789" x="319.21" y="106.79" fill="#3D176E" rx="2.5" ry="2.5" style="stroke:#000d19;stroke-width:.5"/><circle cx="334.21" cy="126.684" r="11" fill="#ADD1B2" style="stroke:#181818;stroke-width:1"/><path d="M337.179 132.325q-.578.297-1.219.438-.64.156-1.344.156-2.5 0-3.828-1.64-1.312-1.657-1.312-4.782t1.312-4.781q1.328-1.656 3.828-1.656.703 0 1.344.156.656.156 1.219.453v2.719q-.625-.579-1.219-.844-.594-.281-1.219-.281-1.344 0-2.031 1.078-.688 1.062-.688 3.156 0 2.094.688 3.172.688 1.062 2.031 1.062.625 0 1.219-.265.594-.281 1.219-.86v2.72Z"/><text x="353.21" y="132.57" fill="#D9B8FF" font-family="Helvetica" font-size="17" textLength="90">gcp_region</text><rect width="136" height="39.789" x="114.21" y="7" fill="#3D176E" rx="2.5" ry="2.5" style="stroke:#000d19;stroke-width:.5"/><circle cx="129.21" cy="26.895" r="11" fill="#ADD1B2" style="stroke:#181818;stroke-width:1"/><path d="M132.179 32.535q-.578.297-1.219.438-.64.156-1.344.156-2.5 0-3.828-1.64-1.312-1.657-1.312-4.782t1.312-4.781q1.328-1.656 3.828-1.656.703 0 1.344.156.656.156 1.219.453v2.719q-.625-.578-1.219-.844-.594-.281-1.219-.281-1.344 0-2.031 1.078-.688 1.062-.688 3.156 0 2.094.688 3.172.688 1.062 2.031 1.062.625 0 1.219-.265.594-.281 1.219-.86v2.72Z"/><text x="148.21" y="32.78" fill="#D9B8FF" font-family="Helvetica" font-size="17" textLength="94">gcp_project</text><path fill="none" d="M210.66 246.8c23.66 16.07 57.39 38.97 82.3 55.89" style="stroke:#1a83af;stroke-width:2"/><path fill="#1A83AF" d="m296.82 305.99-5.203-8.362 1.065 5.555-5.556 1.066 9.694 1.741z" style="stroke:#1a83af;stroke-width:2"/><path fill="none" d="M441.76 246.8c-23.67 16.07-57.4 38.97-82.3 55.89" style="stroke:#1a83af;stroke-width:2"/><path fill="#1A83AF" d="m355.6 305.99 9.69-1.764-5.559-1.052 1.053-5.558-5.184 8.374z" style="stroke:#1a83af;stroke-width:2"/><path fill="none" d="M345.1 147.01c-33.92 16.34-82.49 39.74-117.77 56.73" style="stroke:#1a83af;stroke-width:2"/><path fill="#1A83AF" d="m223.23 206.2 9.844-.309-5.34-1.864 1.863-5.34-6.367 7.513z" style="stroke:#1a83af;stroke-width:2"/><path fill="none" d="M451.35 134.85c90.11 12.45 234.58 43.53 181.86 111.52-25.4 32.75-127.21 54.28-206.7 66.45" style="stroke:#1a83af;stroke-width:2"/><path fill="#1A83AF" d="m421.82 313.68 9.502 2.591-4.56-3.348 3.349-4.56-8.291 5.317z" style="stroke:#1a83af;stroke-width:2"/><path fill="none" d="M402 147.01c13.74 15.8 33.21 38.21 47.84 55.04" style="stroke:#1a83af;stroke-width:2"/><path fill="#1A83AF" d="m453.45 205.2-2.896-9.413-.388 5.643-5.644-.388 8.928 4.158z" style="stroke:#1a83af;stroke-width:2"/><path fill="none" d="M155.98 47.28C105.9 86.64 6 177.99 57.21 246.37c20.67 27.61 100.94 48.84 168.46 62.28" style="stroke:#1a83af;stroke-width:2"/><path fill="#1A83AF" d="m230.33 309.77-8.07-5.647 3.162 4.691-4.69 3.162 9.598-2.206z" style="stroke:#1a83af;stroke-width:2"/><path fill="none" d="m222.31 47.22 117.77 56.73" style="stroke:#1a83af;stroke-width:2"/><path fill="#1A83AF" d="m344.18 106.41-6.367-7.514 1.864 5.341-5.341 1.864 9.844.309z" style="stroke:#1a83af;stroke-width:2"/><path fill="none" d="M182.21 47.2v153.28" style="stroke:#1a83af;stroke-width:2"/><path fill="#1A83AF" d="m182.21 205.09 4-9-4 4-4-4 4 9z" style="stroke:#1a83af;stroke-width:2"/></svg>