<?xml version="1.0" encoding="us-ascii" standalone="no"?><svg xmlns="http://www.w3.org/2000/svg" xmlns:xlink="http://www.w3.org/1999/xlink" contentStyleType="text/css" height="651px" preserveAspectRatio="none" style="width:1132px;height:651px;" version="1.1" viewBox="0 0 1132 651" width="1132px" zoomAndPan="magnify"><defs/><g><!--class aws_ec2_elastic_ip--><g id="elem_aws_ec2_elastic_ip"><rect codeLine="22" fill="#3D176E" height="39.7891" id="aws_ec2_elastic_ip" rx="2.5" ry="2.5" style="stroke:#000D19;stroke-width:0.5;" width="199" x="55.5" y="605.73"/><ellipse cx="70.5" cy="625.6245" fill="#ADD1B2" rx="11" ry="11" style="stroke:#181818;stroke-width:1.0;"/><path d="M73.4688,631.2652 Q72.8906,631.562 72.25,631.7027 Q71.6094,631.8589 70.9063,631.8589 Q68.4063,631.8589 67.0781,630.2183 Q65.7656,628.562 65.7656,625.437 Q65.7656,622.312 67.0781,620.6558 Q68.4063,618.9995 70.9063,618.9995 Q71.6094,618.9995 72.25,619.1558 Q72.9063,619.312 73.4688,619.6089 L73.4688,622.3277 Q72.8438,621.7495 72.25,621.4839 Q71.6563,621.2027 71.0313,621.2027 Q69.6875,621.2027 69,622.2808 Q68.3125,623.3433 68.3125,625.437 Q68.3125,627.5308 69,628.6089 Q69.6875,629.6714 71.0313,629.6714 Q71.6563,629.6714 72.25,629.4058 Q72.8438,629.1245 73.4688,628.5464 L73.4688,631.2652 Z " fill="#000000"/><text fill="#D9B8FF" font-family="Helvetica" font-size="17" lengthAdjust="spacing" textLength="157" x="89.5" y="631.5098">aws_ec2_elastic_ip</text></g><!--class aws_ec2_instance--><g id="elem_aws_ec2_instance"><rect codeLine="24" fill="#3D176E" height="39.7891" id="aws_ec2_instance" rx="2.5" ry="2.5" style="stroke:#000D19;stroke-width:0.5;" width="192" x="59" y="406.15"/><ellipse cx="74" cy="426.0445" fill="#ADD1B2" rx="11" ry="11" style="stroke:#181818;stroke-width:1.0;"/><path d="M76.9688,431.6852 Q76.3906,431.982 75.75,432.1227 Q75.1094,432.2789 74.4063,432.2789 Q71.9063,432.2789 70.5781,430.6383 Q69.2656,428.982 69.2656,425.857 Q69.2656,422.732 70.5781,421.0758 Q71.9063,419.4195 74.4063,419.4195 Q75.1094,419.4195 75.75,419.5758 Q76.4063,419.732 76.9688,420.0289 L76.9688,422.7477 Q76.3438,422.1695 75.75,421.9039 Q75.1563,421.6227 74.5313,421.6227 Q73.1875,421.6227 72.5,422.7008 Q71.8125,423.7633 71.8125,425.857 Q71.8125,427.9508 72.5,429.0289 Q73.1875,430.0914 74.5313,430.0914 Q75.1563,430.0914 75.75,429.8258 Q76.3438,429.5445 76.9688,428.9664 L76.9688,431.6852 Z " fill="#000000"/><text fill="#D9B8FF" font-family="Helvetica" font-size="17" lengthAdjust="spacing" textLength="150" x="93" y="431.9298">aws_ec2_instance</text></g><!--class aws_ec2_nat_gateway--><g id="elem_aws_ec2_nat_gateway"><rect codeLine="26" fill="#3D176E" height="39.7891" id="aws_ec2_nat_gateway" rx="2.5" ry="2.5" style="stroke:#000D19;stroke-width:0.5;" width="231" x="770.5" y="106.79"/><ellipse cx="785.5" cy="126.6845" fill="#ADD1B2" rx="11" ry="11" style="stroke:#181818;stroke-width:1.0;"/><path d="M788.4688,132.3252 Q787.8906,132.622 787.25,132.7627 Q786.6094,132.9189 785.9063,132.9189 Q783.4063,132.9189 782.0781,131.2783 Q780.7656,129.622 780.7656,126.497 Q780.7656,123.372 782.0781,121.7158 Q783.4063,120.0595 785.9063,120.0595 Q786.6094,120.0595 787.25,120.2158 Q787.9063,120.372 788.4688,120.6689 L788.4688,123.3877 Q787.8438,122.8095 787.25,122.5439 Q786.6563,122.2627 786.0313,122.2627 Q784.6875,122.2627 784,123.3408 Q783.3125,124.4033 783.3125,126.497 Q783.3125,128.5908 784,129.6689 Q784.6875,130.7314 786.0313,130.7314 Q786.6563,130.7314 787.25,130.4658 Q787.8438,130.1845 788.4688,129.6064 L788.4688,132.3252 Z " fill="#000000"/><text fill="#D9B8FF" font-family="Helvetica" font-size="17" lengthAdjust="spacing" textLength="189" x="804.5" y="132.5698">aws_ec2_nat_gateway</text></g><!--class aws_ec2_network_interface--><g id="elem_aws_ec2_network_interface"><rect codeLine="28" fill="#3D176E" height="39.7891" id="aws_ec2_network_interface" rx="2.5" ry="2.5" style="stroke:#000D19;stroke-width:0.5;" width="275" x="387.5" y="505.94"/><ellipse cx="402.5" cy="525.8345" fill="#ADD1B2" rx="11" ry="11" style="stroke:#181818;stroke-width:1.0;"/><path d="M405.4688,531.4752 Q404.8906,531.772 404.25,531.9127 Q403.6094,532.0689 402.9063,532.0689 Q400.4063,532.0689 399.0781,530.4283 Q397.7656,528.772 397.7656,525.647 Q397.7656,522.522 399.0781,520.8658 Q400.4063,519.2095 402.9063,519.2095 Q403.6094,519.2095 404.25,519.3658 Q404.9063,519.522 405.4688,519.8189 L405.4688,522.5377 Q404.8438,521.9595 404.25,521.6939 Q403.6563,521.4127 403.0313,521.4127 Q401.6875,521.4127 401,522.4908 Q400.3125,523.5533 400.3125,525.647 Q400.3125,527.7408 401,528.8189 Q401.6875,529.8814 403.0313,529.8814 Q403.6563,529.8814 404.25,529.6158 Q404.8438,529.3345 405.4688,528.7564 L405.4688,531.4752 Z " fill="#000000"/><text fill="#D9B8FF" font-family="Helvetica" font-size="17" lengthAdjust="spacing" textLength="233" x="421.5" y="531.7198">aws_ec2_network_interface</text></g><!--class aws_ec2_security_group--><g id="elem_aws_ec2_security_group"><rect codeLine="30" fill="#3D176E" height="39.7891" id="aws_ec2_security_group" rx="2.5" ry="2.5" style="stroke:#000D19;stroke-width:0.5;" width="245" x="357.5" y="306.36"/><ellipse cx="372.5" cy="326.2545" fill="#ADD1B2" rx="11" ry="11" style="stroke:#181818;stroke-width:1.0;"/><path d="M375.4688,331.8952 Q374.8906,332.192 374.25,332.3327 Q373.6094,332.4889 372.9063,332.4889 Q370.4063,332.4889 369.0781,330.8483 Q367.7656,329.192 367.7656,326.067 Q367.7656,322.942 369.0781,321.2858 Q370.4063,319.6295 372.9063,319.6295 Q373.6094,319.6295 374.25,319.7858 Q374.9063,319.942 375.4688,320.2389 L375.4688,322.9577 Q374.8438,322.3795 374.25,322.1139 Q373.6563,321.8327 373.0313,321.8327 Q371.6875,321.8327 371,322.9108 Q370.3125,323.9733 370.3125,326.067 Q370.3125,328.1608 371,329.2389 Q371.6875,330.3014 373.0313,330.3014 Q373.6563,330.3014 374.25,330.0358 Q374.8438,329.7545 375.4688,329.1764 L375.4688,331.8952 Z " fill="#000000"/><text fill="#D9B8FF" font-family="Helvetica" font-size="17" lengthAdjust="spacing" textLength="203" x="391.5" y="332.1398">aws_ec2_security_group</text></g><!--class aws_ec2_subnet--><g id="elem_aws_ec2_subnet"><rect codeLine="32" fill="#3D176E" height="39.7891" id="aws_ec2_subnet" rx="2.5" ry="2.5" style="stroke:#000D19;stroke-width:0.5;" width="179" x="783.5" y="306.36"/><ellipse cx="798.5" cy="326.2545" fill="#ADD1B2" rx="11" ry="11" style="stroke:#181818;stroke-width:1.0;"/><path d="M801.4688,331.8952 Q800.8906,332.192 800.25,332.3327 Q799.6094,332.4889 798.9063,332.4889 Q796.4063,332.4889 795.0781,330.8483 Q793.7656,329.192 793.7656,326.067 Q793.7656,322.942 795.0781,321.2858 Q796.4063,319.6295 798.9063,319.6295 Q799.6094,319.6295 800.25,319.7858 Q800.9063,319.942 801.4688,320.2389 L801.4688,322.9577 Q800.8438,322.3795 800.25,322.1139 Q799.6563,321.8327 799.0313,321.8327 Q797.6875,321.8327 797,322.9108 Q796.3125,323.9733 796.3125,326.067 Q796.3125,328.1608 797,329.2389 Q797.6875,330.3014 799.0313,330.3014 Q799.6563,330.3014 800.25,330.0358 Q800.8438,329.7545 801.4688,329.1764 L801.4688,331.8952 Z " fill="#000000"/><text fill="#D9B8FF" font-family="Helvetica" font-size="17" lengthAdjust="spacing" textLength="137" x="817.5" y="332.1398">aws_ec2_subnet</text></g><!--class aws_efs_mount_target--><g id="elem_aws_efs_mount_target"><rect codeLine="34" fill="#3D176E" height="39.7891" id="aws_efs_mount_target" rx="2.5" ry="2.5" style="stroke:#000D19;stroke-width:0.5;" width="233" x="408.5" y="605.73"/><ellipse cx="423.5" cy="625.6245" fill="#ADD1B2" rx="11" ry="11" style="stroke:#181818;stroke-width:1.0;"/><path d="M426.4688,631.2652 Q425.8906,631.562 425.25,631.7027 Q424.6094,631.8589 423.9063,631.8589 Q421.4063,631.8589 420.0781,630.2183 Q418.7656,628.562 418.7656,625.437 Q418.7656,622.312 420.0781,620.6558 Q421.4063,618.9995 423.9063,618.9995 Q424.6094,618.9995 425.25,619.1558 Q425.9063,619.312 426.4688,619.6089 L426.4688,622.3277 Q425.8438,621.7495 425.25,621.4839 Q424.6563,621.2027 424.0313,621.2027 Q422.6875,621.2027 422,622.2808 Q421.3125,623.3433 421.3125,625.437 Q421.3125,627.5308 422,628.6089 Q422.6875,629.6714 424.0313,629.6714 Q424.6563,629.6714 425.25,629.4058 Q425.8438,629.1245 426.4688,628.5464 L426.4688,631.2652 Z " fill="#000000"/><text fill="#D9B8FF" font-family="Helvetica" font-size="17" lengthAdjust="spacing" textLength="191" x="442.5" y="631.5098">aws_efs_mount_target</text></g><!--class aws_region--><g id="elem_aws_region"><rect codeLine="36" fill="#3D176E" height="39.7891" id="aws_region" rx="2.5" ry="2.5" style="stroke:#000D19;stroke-width:0.5;" width="137" x="608.5" y="7"/><ellipse cx="623.5" cy="26.8945" fill="#ADD1B2" rx="11" ry="11" style="stroke:#181818;stroke-width:1.0;"/><path d="M626.4688,32.5352 Q625.8906,32.832 625.25,32.9727 Q624.6094,33.1289 623.9063,33.1289 Q621.4063,33.1289 620.0781,31.4883 Q618.7656,29.832 618.7656,26.707 Q618.7656,23.582 620.0781,21.9258 Q621.4063,20.2695 623.9063,20.2695 Q624.6094,20.2695 625.25,20.4258 Q625.9063,20.582 626.4688,20.8789 L626.4688,23.5977 Q625.8438,23.0195 625.25,22.7539 Q624.6563,22.4727 624.0313,22.4727 Q622.6875,22.4727 622,23.5508 Q621.3125,24.6133 621.3125,26.707 Q621.3125,28.8008 622,29.8789 Q622.6875,30.9414 624.0313,30.9414 Q624.6563,30.9414 625.25,30.6758 Q625.8438,30.3945 626.4688,29.8164 L626.4688,32.5352 Z " fill="#000000"/><text fill="#D9B8FF" font-family="Helvetica" font-size="17" lengthAdjust="spacing" textLength="95" x="642.5" y="32.7798">aws_region</text></g><!--class aws_sagemaker_notebook--><g id="elem_aws_sagemaker_notebook"><rect codeLine="38" fill="#3D176E" height="39.7891" id="aws_sagemaker_notebook" rx="2.5" ry="2.5" style="stroke:#000D19;stroke-width:0.5;" width="263" x="657.5" y="406.15"/><ellipse cx="672.5" cy="426.0445" fill="#ADD1B2" rx="11" ry="11" style="stroke:#181818;stroke-width:1.0;"/><path d="M675.4688,431.6852 Q674.8906,431.982 674.25,432.1227 Q673.6094,432.2789 672.9063,432.2789 Q670.4063,432.2789 669.0781,430.6383 Q667.7656,428.982 667.7656,425.857 Q667.7656,422.732 669.0781,421.0758 Q670.4063,419.4195 672.9063,419.4195 Q673.6094,419.4195 674.25,419.5758 Q674.9063,419.732 675.4688,420.0289 L675.4688,422.7477 Q674.8438,422.1695 674.25,421.9039 Q673.6563,421.6227 673.0313,421.6227 Q671.6875,421.6227 671,422.7008 Q670.3125,423.7633 670.3125,425.857 Q670.3125,427.9508 671,429.0289 Q671.6875,430.0914 673.0313,430.0914 Q673.6563,430.0914 674.25,429.8258 Q674.8438,429.5445 675.4688,428.9664 L675.4688,431.6852 Z " fill="#000000"/><text fill="#D9B8FF" font-family="Helvetica" font-size="17" lengthAdjust="spacing" textLength="221" x="691.5" y="431.9298">aws_sagemaker_notebook</text></g><!--class aws_vpc--><g id="elem_aws_vpc"><rect codeLine="40" fill="#3D176E" height="39.7891" id="aws_vpc" rx="2.5" ry="2.5" style="stroke:#000D19;stroke-width:0.5;" width="112" x="562" y="206.57"/><ellipse cx="577" cy="226.4645" fill="#ADD1B2" rx="11" ry="11" style="stroke:#181818;stroke-width:1.0;"/><path d="M579.9688,232.1052 Q579.3906,232.402 578.75,232.5427 Q578.1094,232.6989 577.4063,232.6989 Q574.9063,232.6989 573.5781,231.0583 Q572.2656,229.402 572.2656,226.277 Q572.2656,223.152 573.5781,221.4958 Q574.9063,219.8395 577.4063,219.8395 Q578.1094,219.8395 578.75,219.9958 Q579.4063,220.152 579.9688,220.4489 L579.9688,223.1677 Q579.3438,222.5895 578.75,222.3239 Q578.1563,222.0427 577.5313,222.0427 Q576.1875,222.0427 575.5,223.1208 Q574.8125,224.1833 574.8125,226.277 Q574.8125,228.3708 575.5,229.4489 Q576.1875,230.5114 577.5313,230.5114 Q578.1563,230.5114 578.75,230.2458 Q579.3438,229.9645 579.9688,229.3864 L579.9688,232.1052 Z " fill="#000000"/><text fill="#D9B8FF" font-family="Helvetica" font-size="17" lengthAdjust="spacing" textLength="70" x="596" y="232.3498">aws_vpc</text></g><!--class aws_vpc_endpoint--><g id="elem_aws_vpc_endpoint"><rect codeLine="42" fill="#3D176E" height="39.7891" id="aws_vpc_endpoint" rx="2.5" ry="2.5" style="stroke:#000D19;stroke-width:0.5;" width="195" x="427.5" y="406.15"/><ellipse cx="442.5" cy="426.0445" fill="#ADD1B2" rx="11" ry="11" style="stroke:#181818;stroke-width:1.0;"/><path d="M445.4688,431.6852 Q444.8906,431.982 444.25,432.1227 Q443.6094,432.2789 442.9063,432.2789 Q440.4063,432.2789 439.0781,430.6383 Q437.7656,428.982 437.7656,425.857 Q437.7656,422.732 439.0781,421.0758 Q440.4063,419.4195 442.9063,419.4195 Q443.6094,419.4195 444.25,419.5758 Q444.9063,419.732 445.4688,420.0289 L445.4688,422.7477 Q444.8438,422.1695 444.25,421.9039 Q443.6563,421.6227 443.0313,421.6227 Q441.6875,421.6227 441,422.7008 Q440.3125,423.7633 440.3125,425.857 Q440.3125,427.9508 441,429.0289 Q441.6875,430.0914 443.0313,430.0914 Q443.6563,430.0914 444.25,429.8258 Q444.8438,429.5445 445.4688,428.9664 L445.4688,431.6852 Z " fill="#000000"/><text fill="#D9B8FF" font-family="Helvetica" font-size="17" lengthAdjust="spacing" textLength="153" x="461.5" y="431.9298">aws_vpc_endpoint</text></g><!--link aws_ec2_instance to aws_ec2_elastic_ip--><g id="link_aws_ec2_instance_aws_ec2_elastic_ip"><path codeLine="44" d="M155,446.35 C155,482.35 155,559.7 155,599.63 " fill="none" id="aws_ec2_instance-to-aws_ec2_elastic_ip" style="stroke:#1A83AF;stroke-width:2.0;"/><polygon fill="#1A83AF" points="155,604.24,159,595.24,155,599.24,151,595.24,155,604.24" style="stroke:#1A83AF;stroke-width:2.0;"/></g><!--link aws_ec2_instance to aws_ec2_network_interface--><g id="link_aws_ec2_instance_aws_ec2_network_interface"><path codeLine="45" d="M228.1,446.37 C290.96,462.98 381.44,486.89 445.97,503.95 " fill="none" id="aws_ec2_instance-to-aws_ec2_network_interface" style="stroke:#1A83AF;stroke-width:2.0;"/><polygon fill="#1A83AF" points="450.74,505.47,443.0677,499.2945,445.9074,504.187,441.0149,507.0267,450.74,505.47" style="stroke:#1A83AF;stroke-width:2.0;"/></g><!--link aws_ec2_nat_gateway to aws_ec2_network_interface--><g id="link_aws_ec2_nat_gateway_aws_ec2_network_interface"><path codeLine="46" d="M901.26,146.77 C942.91,201.24 1050.1,359.06 968,445.94 C927.67,488.62 781.93,508.38 668.5,517.42 " fill="none" id="aws_ec2_nat_gateway-to-aws_ec2_network_interface" style="stroke:#1A83AF;stroke-width:2.0;"/><polygon fill="#1A83AF" points="663.78,517.87,673.0624,521.1618,668.765,517.4832,672.4436,513.1858,663.78,517.87" style="stroke:#1A83AF;stroke-width:2.0;"/></g><!--link aws_ec2_nat_gateway to aws_ec2_subnet--><g id="link_aws_ec2_nat_gateway_aws_ec2_subnet"><path codeLine="47" d="M884.73,146.98 C882.36,182.99 877.27,260.33 874.64,300.26 " fill="none" id="aws_ec2_nat_gateway-to-aws_ec2_subnet" style="stroke:#1A83AF;stroke-width:2.0;"/><polygon fill="#1A83AF" points="874.28,304.88,878.8632,296.1625,874.6088,299.8908,870.8805,295.6364,874.28,304.88" style="stroke:#1A83AF;stroke-width:2.0;"/></g><!--link aws_ec2_nat_gateway to aws_vpc--><g id="link_aws_ec2_nat_gateway_aws_vpc"><path codeLine="48" d="M833.05,147 C787.9,163.47 723.09,187.12 676.44,204.15 " fill="none" id="aws_ec2_nat_gateway-to-aws_vpc" style="stroke:#1A83AF;stroke-width:2.0;"/><polygon fill="#1A83AF" points="671.84,206.19,681.6658,206.8639,676.5373,204.4767,678.9245,199.3482,671.84,206.19" style="stroke:#1A83AF;stroke-width:2.0;"/></g><!--link aws_ec2_network_interface to aws_ec2_elastic_ip--><g id="link_aws_ec2_network_interface_aws_ec2_elastic_ip"><path codeLine="49" d="M451.9,546.16 C389.04,562.77 298.56,586.68 234.03,603.74 " fill="none" id="aws_ec2_network_interface-to-aws_ec2_elastic_ip" style="stroke:#1A83AF;stroke-width:2.0;"/><polygon fill="#1A83AF" points="229.26,605.26,238.9851,606.8167,234.0926,603.977,236.9323,599.0845,229.26,605.26" style="stroke:#1A83AF;stroke-width:2.0;"/></g><!--link aws_ec2_network_interface to aws_efs_mount_target--><g id="link_aws_ec2_network_interface_aws_efs_mount_target"><path codeLine="50" d="M525,546.16 C525,561.43 525,582.86 525,599.47 " fill="none" id="aws_ec2_network_interface-to-aws_efs_mount_target" style="stroke:#1A83AF;stroke-width:2.0;"/><polygon fill="#1A83AF" points="525,604.35,529,595.35,525,599.35,521,595.35,525,604.35" style="stroke:#1A83AF;stroke-width:2.0;"/></g><!--link aws_ec2_security_group to aws_ec2_network_interface--><g id="link_aws_ec2_security_group_aws_ec2_network_interface"><path codeLine="51" d="M455.19,346.26 C428.14,369.43 391.05,409.96 410,445.94 C423.32,471.24 448.83,489.99 472.44,502.85 " fill="none" id="aws_ec2_security_group-to-aws_ec2_network_interface" style="stroke:#1A83AF;stroke-width:2.0;"/><polygon fill="#1A83AF" points="476.45,505.5,470.3755,497.7475,472.0335,503.156,466.6251,504.8139,476.45,505.5" style="stroke:#1A83AF;stroke-width:2.0;"/></g><!--link aws_ec2_security_group to aws_sagemaker_notebook--><g id="link_aws_ec2_security_group_aws_sagemaker_notebook"><path codeLine="52" d="M541.05,346.58 C593.34,363.13 668.5,386.91 722.34,403.95 " fill="none" id="aws_ec2_security_group-to-aws_sagemaker_notebook" style="stroke:#1A83AF;stroke-width:2.0;"/><polygon fill="#1A83AF" points="726.81,405.68,719.4473,399.1386,722.0456,404.1634,717.0207,406.7617,726.81,405.68" style="stroke:#1A83AF;stroke-width:2.0;"/></g><!--link aws_ec2_security_group to aws_vpc_endpoint--><g id="link_aws_ec2_security_group_aws_vpc_endpoint"><path codeLine="53" d="M488.89,346.58 C495.98,361.98 505.95,383.66 513.62,400.32 " fill="none" id="aws_ec2_security_group-to-aws_vpc_endpoint" style="stroke:#1A83AF;stroke-width:2.0;"/><polygon fill="#1A83AF" points="516.13,404.77,515.9844,394.9222,514.032,400.2315,508.7228,398.279,516.13,404.77" style="stroke:#1A83AF;stroke-width:2.0;"/></g><!--link aws_ec2_subnet to aws_ec2_network_interface--><g id="link_aws_ec2_subnet_aws_ec2_network_interface"><path codeLine="54" d="M896.75,346.29 C924.66,370.93 964.05,414.44 938,445.94 C903.98,487.07 774.07,506.96 668.91,516.45 " fill="none" id="aws_ec2_subnet-to-aws_ec2_network_interface" style="stroke:#1A83AF;stroke-width:2.0;"/><polygon fill="#1A83AF" points="663.97,516.97,673.2894,520.1557,668.9503,516.5264,672.5796,512.1872,663.97,516.97" style="stroke:#1A83AF;stroke-width:2.0;"/></g><!--link aws_ec2_subnet to aws_sagemaker_notebook--><g id="link_aws_ec2_subnet_aws_sagemaker_notebook"><path codeLine="55" d="M856.4,346.58 C842.83,362.38 823.58,384.79 809.13,401.62 " fill="none" id="aws_ec2_subnet-to-aws_sagemaker_notebook" style="stroke:#1A83AF;stroke-width:2.0;"/><polygon fill="#1A83AF" points="805.56,404.77,814.4541,400.5399,808.814,400.9737,808.3801,395.3335,805.56,404.77" style="stroke:#1A83AF;stroke-width:2.0;"/></g><!--link aws_ec2_subnet to aws_vpc_endpoint--><g id="link_aws_ec2_subnet_aws_vpc_endpoint"><path codeLine="56" d="M804.25,346.58 C745.12,363.19 660.02,387.1 599.33,404.16 " fill="none" id="aws_ec2_subnet-to-aws_vpc_endpoint" style="stroke:#1A83AF;stroke-width:2.0;"/><polygon fill="#1A83AF" points="594.91,405.68,604.6538,407.1148,599.7262,404.3366,602.5044,399.409,594.91,405.68" style="stroke:#1A83AF;stroke-width:2.0;"/></g><!--link aws_region to aws_ec2_elastic_ip--><g id="link_aws_region_aws_ec2_elastic_ip"><path codeLine="57" d="M608.03,33.44 C436.8,49.11 6,100.92 6,225.47 C6,225.47 6,225.47 6,427.05 C6,503.32 77.66,568.82 121.58,601.81 " fill="none" id="aws_region-to-aws_ec2_elastic_ip" style="stroke:#1A83AF;stroke-width:2.0;"/><polygon fill="#1A83AF" points="125.27,605.29,120.4357,596.7093,121.258,602.306,115.6613,603.1284,125.27,605.29" style="stroke:#1A83AF;stroke-width:2.0;"/></g><!--link aws_region to aws_ec2_instance--><g id="link_aws_region_aws_ec2_instance"><path codeLine="58" d="M627.96,47.15 C537.11,84.9 340.7,176.42 218,306.36 C191.94,333.96 173.56,374.41 163.62,400.24 " fill="none" id="aws_region-to-aws_ec2_instance" style="stroke:#1A83AF;stroke-width:2.0;"/><polygon fill="#1A83AF" points="161.51,404.84,168.4225,397.8245,163.2703,400.1601,160.9347,395.008,161.51,404.84" style="stroke:#1A83AF;stroke-width:2.0;"/></g><!--link aws_region to aws_ec2_nat_gateway--><g id="link_aws_region_aws_ec2_nat_gateway"><path codeLine="59" d="M718.29,47.21 C753.21,63.55 803.22,86.95 839.54,103.94 " fill="none" id="aws_region-to-aws_ec2_nat_gateway" style="stroke:#1A83AF;stroke-width:2.0;"/><polygon fill="#1A83AF" points="843.79,106.4,837.3464,98.9515,839.2649,104.2731,833.9433,106.1916,843.79,106.4" style="stroke:#1A83AF;stroke-width:2.0;"/></g><!--link aws_region to aws_ec2_network_interface--><g id="link_aws_region_aws_ec2_network_interface"><path codeLine="60" d="M745.53,28.11 C871.03,32.5 1125,61.62 1125,225.47 C1125,225.47 1125,225.47 1125,327.26 C1125,402.27 1071.83,411.88 1005,445.94 C947.6,475.2 788.11,497.61 668.62,510.94 " fill="none" id="aws_region-to-aws_ec2_network_interface" style="stroke:#1A83AF;stroke-width:2.0;"/><polygon fill="#1A83AF" points="663.96,511.56,673.341,514.5594,668.9305,511.0172,672.4726,506.6067,663.96,511.56" style="stroke:#1A83AF;stroke-width:2.0;"/></g><!--link aws_region to aws_ec2_security_group--><g id="link_aws_region_aws_ec2_security_group"><path codeLine="61" d="M661.27,47.06 C635.34,79.07 582.65,145.91 544,206.57 C523.89,238.15 503.93,276.58 491.78,300.99 " fill="none" id="aws_region-to-aws_ec2_security_group" style="stroke:#1A83AF;stroke-width:2.0;"/><polygon fill="#1A83AF" points="489.16,305.28,496.7305,298.9803,491.3732,300.7965,489.5569,295.4391,489.16,305.28" style="stroke:#1A83AF;stroke-width:2.0;"/></g><!--link aws_region to aws_ec2_subnet--><g id="link_aws_region_aws_ec2_subnet"><path codeLine="62" d="M745.78,33.82 C835.64,43.15 985.52,64.7 1019,106.79 C1073.01,174.67 966.23,262.25 907.73,302.81 " fill="none" id="aws_region-to-aws_ec2_subnet" style="stroke:#1A83AF;stroke-width:2.0;"/><polygon fill="#1A83AF" points="903.91,306.11,913.5925,304.3074,908.0302,303.2774,909.0603,297.7151,903.91,306.11" style="stroke:#1A83AF;stroke-width:2.0;"/></g><!--link aws_region to aws_vpc--><g id="link_aws_region_aws_vpc"><path codeLine="63" d="M671.24,47.2 C660.48,83.2 637.39,160.54 625.46,200.48 " fill="none" id="aws_region-to-aws_vpc" style="stroke:#1A83AF;stroke-width:2.0;"/><polygon fill="#1A83AF" points="623.79,205.09,630.2115,197.6225,625.2294,200.3017,622.5502,195.3195,623.79,205.09" style="stroke:#1A83AF;stroke-width:2.0;"/></g><!--link aws_region to aws_vpc_endpoint--><g id="link_aws_region_aws_vpc_endpoint"><path codeLine="64" d="M681.71,47.11 C690.37,85.43 706.63,173.88 692,246.36 C682.48,293.53 681.11,309.45 650,346.15 C629.39,370.47 599.35,389.76 573.88,403.18 " fill="none" id="aws_region-to-aws_vpc_endpoint" style="stroke:#1A83AF;stroke-width:2.0;"/><polygon fill="#1A83AF" points="569.86,405.79,579.6907,405.1917,574.2973,403.4855,576.0035,398.0921,569.86,405.79" style="stroke:#1A83AF;stroke-width:2.0;"/></g><!--link aws_sagemaker_notebook to aws_ec2_network_interface--><g id="link_aws_sagemaker_notebook_aws_ec2_network_interface"><path codeLine="65" d="M736.84,446.37 C692.37,462.84 628.52,486.49 582.56,503.51 " fill="none" id="aws_sagemaker_notebook-to-aws_ec2_network_interface" style="stroke:#1A83AF;stroke-width:2.0;"/><polygon fill="#1A83AF" points="578.05,505.56,587.8799,506.1715,582.7363,503.8169,585.0909,498.6734,578.05,505.56" style="stroke:#1A83AF;stroke-width:2.0;"/></g><!--link aws_vpc to aws_ec2_instance--><g id="link_aws_vpc_aws_ec2_instance"><path codeLine="66" d="M561.78,231.3 C491.58,238.09 369.58,256.6 278,306.36 C234.13,330.2 194.79,373.98 172.98,401.18 " fill="none" id="aws_vpc-to-aws_ec2_instance" style="stroke:#1A83AF;stroke-width:2.0;"/><polygon fill="#1A83AF" points="169.37,404.73,178.0934,400.158,172.4742,400.8104,171.8219,395.1912,169.37,404.73" style="stroke:#1A83AF;stroke-width:2.0;"/></g><!--link aws_vpc to aws_ec2_network_interface--><g id="link_aws_vpc_aws_ec2_network_interface"><path codeLine="67" d="M561.63,235.4 C488.38,246.99 366.66,271.09 340,306.36 C283.52,381.1 410.49,464.21 481.39,502.85 " fill="none" id="aws_vpc-to-aws_ec2_network_interface" style="stroke:#1A83AF;stroke-width:2.0;"/><polygon fill="#1A83AF" points="485.4,505.56,479.3948,497.7538,481.0045,503.1767,475.5816,504.7865,485.4,505.56" style="stroke:#1A83AF;stroke-width:2.0;"/></g><!--link aws_vpc to aws_ec2_security_group--><g id="link_aws_vpc_aws_ec2_security_group"><path codeLine="68" d="M590.74,246.79 C568.05,262.86 535.74,285.76 511.86,302.68 " fill="none" id="aws_vpc-to-aws_ec2_security_group" style="stroke:#1A83AF;stroke-width:2.0;"/><polygon fill="#1A83AF" points="508.21,305.98,517.8689,304.0551,512.294,303.0955,513.2537,297.5206,508.21,305.98" style="stroke:#1A83AF;stroke-width:2.0;"/></g><!--link aws_vpc to aws_ec2_subnet--><g id="link_aws_vpc_aws_ec2_subnet"><path codeLine="69" d="M668.38,246.79 C711.25,263.23 772.76,286.82 817.13,303.83 " fill="none" id="aws_vpc-to-aws_ec2_subnet" style="stroke:#1A83AF;stroke-width:2.0;"/><polygon fill="#1A83AF" points="821.72,305.98,814.7415,299.0301,817.0496,304.1947,811.885,306.5027,821.72,305.98" style="stroke:#1A83AF;stroke-width:2.0;"/></g><!--link aws_vpc to aws_vpc_endpoint--><g id="link_aws_vpc_aws_vpc_endpoint"><path codeLine="70" d="M623.27,246.63 C628.91,271.03 635.15,313.88 620,346.15 C608.78,370.05 586.38,389.21 566.14,402.66 " fill="none" id="aws_vpc-to-aws_vpc_endpoint" style="stroke:#1A83AF;stroke-width:2.0;"/><polygon fill="#1A83AF" points="562.33,405.79,572.0576,404.2494,566.5252,403.0696,567.705,397.5371,562.33,405.79" style="stroke:#1A83AF;stroke-width:2.0;"/></g><!--link aws_vpc_endpoint to aws_ec2_network_interface--><g id="link_aws_vpc_endpoint_aws_ec2_network_interface"><path codeLine="71" d="M525,446.37 C525,461.64 525,483.07 525,499.68 " fill="none" id="aws_vpc_endpoint-to-aws_ec2_network_interface" style="stroke:#1A83AF;stroke-width:2.0;"/><polygon fill="#1A83AF" points="525,504.56,529,495.56,525,499.56,521,495.56,525,504.56" style="stroke:#1A83AF;stroke-width:2.0;"/></g><!--SRC=[hPHFYzim4CNl_XI2d1UI3MsIIo4RMDhBKhgzbMB6riWHZYKZAMlIqkzUURFfAlfZEz1Zz7upUlCqyPvJ9DYqvaGQR0fKEjCr5oqeQCXMATdjv44gCcCCs7BbYuzIc57W2Head_7mWeQNu1FVzxoi1MfDxXtf0SgwKl8ewBczKI2qbL0OXzeTGEkjCOeNHuEE6RefrepvfDzqjgIBrKSCCAaegZTaFf_JnSP7HgyQdFiVySn_8LcueJr9Wu7Du8fNQj1bJpWcWq4lUjBZLw2KYufySCw-dJqfWUhg_7aFL7OzpU2WtMkqGONId5hS1LFXPatPAWf_IS5bdno1JkTOtkTeVrdREM_9x-oF9tAX3OWI8v80arTWi8DJJ4NJILNR1jOFWsW7ZULHSNFAUvEns_Mni7ryWUcyiKEPt82g0bbXnQNm3ZLKs42DAXVsoGefQmzuQSlm94T1MsadU9M2IEv-p1RRzNBx-FFkKoJDYGL1K5aiuFzTUavs6c-JoDBFEZM5APNUosQ9HRanZB7gS3acbxfBadbRUwlBHDMGkqH9uEhjFp7bgORGooAFWiuwZRFHH8OghXzb77zVzHHssV01_JhGoFVaXk7wZyrum4dgngQHkDBiUrPH9WZYwYivpUrV]--></g></svg>