<svg xmlns="http://www.w3.org/2000/svg" width="4233" height="551" viewBox="0 0 4233 551"><rect width="109" height="39.789" x="4015.49" y="306.36" fill="#3D176E" rx="2.5" ry="2.5" style="stroke:#000d19;stroke-width:.5"/><circle cx="4030.49" cy="326.255" r="11" fill="#ADD1B2" style="stroke:#181818;stroke-width:1"/><path d="M4033.459 331.895q-.578.297-1.219.438-.64.156-1.344.156-2.5 0-3.828-1.64-1.312-1.657-1.312-4.782t1.312-4.781q1.328-1.656 3.828-1.656.703 0 1.344.156.656.156 1.219.453v2.719q-.625-.579-1.219-.844-.594-.281-1.219-.281-1.344 0-2.031 1.078-.687 1.062-.687 3.156t.687 3.172q.688 1.062 2.031 1.062.625 0 1.219-.265.594-.281 1.219-.86z"/><text x="4049.49" y="332.14" fill="#D9B8FF" font-family="Helvetica" font-size="17" textLength="67">aws_alb</text><rect width="275" height="39.789" x="164.49" y="406.15" fill="#3D176E" rx="2.5" ry="2.5" style="stroke:#000d19;stroke-width:.5"/><circle cx="179.49" cy="426.045" r="11" fill="#ADD1B2" style="stroke:#181818;stroke-width:1"/><path d="M182.459 431.685q-.578.297-1.219.438-.64.156-1.344.156-2.5 0-3.828-1.64-1.312-1.657-1.312-4.782t1.312-4.781q1.328-1.656 3.828-1.656.703 0 1.344.156.656.156 1.219.453v2.719q-.625-.578-1.219-.844-.594-.281-1.219-.281-1.343 0-2.031 1.078-.687 1.062-.687 3.156t.687 3.172q.688 1.062 2.031 1.062.625 0 1.219-.265.594-.281 1.219-.86z"/><text x="198.49" y="431.93" fill="#D9B8FF" font-family="Helvetica" font-size="17" textLength="233">aws_ec2_network_interface</text><rect width="245" height="39.789" x="2629.49" y="206.57" fill="#3D176E" rx="2.5" ry="2.5" style="stroke:#000d19;stroke-width:.5"/><circle cx="2644.49" cy="226.464" r="11" fill="#ADD1B2" style="stroke:#181818;stroke-width:1"/><path d="M2647.459 232.105q-.578.297-1.219.438-.64.156-1.344.156-2.5 0-3.828-1.64-1.312-1.657-1.312-4.782t1.312-4.781q1.328-1.657 3.828-1.657.703 0 1.344.157.656.156 1.219.453v2.719q-.625-.579-1.219-.844-.594-.281-1.219-.281-1.344 0-2.031 1.078-.687 1.062-.687 3.156t.687 3.172q.688 1.062 2.031 1.062.625 0 1.219-.265.594-.282 1.219-.86z"/><text x="2663.49" y="232.35" fill="#D9B8FF" font-family="Helvetica" font-size="17" textLength="203">aws_ec2_security_group</text><rect width="177" height="39.789" x="3661.49" y="306.36" fill="#3D176E" rx="2.5" ry="2.5" style="stroke:#000d19;stroke-width:.5"/><circle cx="3676.49" cy="326.255" r="11" fill="#ADD1B2" style="stroke:#181818;stroke-width:1"/><path d="M3679.459 331.895q-.578.297-1.219.438-.64.156-1.344.156-2.5 0-3.828-1.64-1.312-1.657-1.312-4.782t1.312-4.781q1.328-1.656 3.828-1.656.703 0 1.344.156.656.156 1.219.453v2.719q-.625-.579-1.219-.844-.594-.281-1.219-.281-1.344 0-2.031 1.078-.687 1.062-.687 3.156t.687 3.172q.688 1.062 2.031 1.062.625 0 1.219-.265.594-.281 1.219-.86z"/><text x="3695.49" y="332.14" fill="#D9B8FF" font-family="Helvetica" font-size="17" textLength="135">aws_ecs_service</text><rect width="297" height="39.789" x="355.49" y="306.36" fill="#3D176E" rx="2.5" ry="2.5" style="stroke:#000d19;stroke-width:.5"/><circle cx="370.49" cy="326.255" r="11" fill="#ADD1B2" style="stroke:#181818;stroke-width:1"/><path d="M373.459 331.895q-.578.297-1.219.438-.64.156-1.344.156-2.5 0-3.828-1.64-1.312-1.657-1.312-4.782t1.312-4.781q1.328-1.656 3.828-1.656.703 0 1.344.156.656.156 1.219.453v2.719q-.625-.579-1.219-.844-.594-.281-1.219-.281-1.344 0-2.031 1.078-.687 1.062-.687 3.156t.687 3.172q.688 1.062 2.031 1.062.625 0 1.219-.265.594-.281 1.219-.86z"/><text x="389.49" y="332.14" fill="#D9B8FF" font-family="Helvetica" font-size="17" textLength="255">aws_elasticache_cache_cluster</text><rect width="109" height="39.789" x="3979.49" y="406.15" fill="#3D176E" rx="2.5" ry="2.5" style="stroke:#000d19;stroke-width:.5"/><circle cx="3994.49" cy="426.045" r="11" fill="#ADD1B2" style="stroke:#181818;stroke-width:1"/><path d="M3997.459 431.685q-.578.297-1.219.438-.64.156-1.344.156-2.5 0-3.828-1.64-1.312-1.657-1.312-4.782t1.312-4.781q1.328-1.656 3.828-1.656.703 0 1.344.156.656.156 1.219.453v2.719q-.625-.578-1.219-.844-.594-.281-1.219-.281-1.344 0-2.031 1.078-.687 1.062-.687 3.156t.687 3.172q.688 1.062 2.031 1.062.625 0 1.219-.265.594-.281 1.219-.86z"/><text x="4013.49" y="431.93" fill="#D9B8FF" font-family="Helvetica" font-size="17" textLength="67">aws_elb</text><rect width="224" height="39.789" x="3215.99" y="505.94" fill="#3D176E" rx="2.5" ry="2.5" style="stroke:#000d19;stroke-width:.5"/><circle cx="3230.99" cy="525.835" r="11" fill="#ADD1B2" style="stroke:#181818;stroke-width:1"/><path d="M3233.959 531.475q-.578.297-1.219.438-.64.156-1.344.156-2.5 0-3.828-1.64-1.312-1.657-1.312-4.782t1.312-4.781q1.328-1.656 3.828-1.656.703 0 1.344.156.656.156 1.219.453v2.719q-.625-.578-1.219-.844-.594-.281-1.219-.281-1.344 0-2.031 1.078-.687 1.062-.687 3.156t.687 3.172q.688 1.062 2.031 1.062.625 0 1.219-.265.594-.281 1.219-.86z"/><text x="3249.99" y="531.72" fill="#D9B8FF" font-family="Helvetica" font-size="17" textLength="182">aws_lambda_function</text><rect width="174" height="39.789" x="3451.99" y="306.36" fill="#3D176E" rx="2.5" ry="2.5" style="stroke:#000d19;stroke-width:.5"/><circle cx="3466.99" cy="326.255" r="11" fill="#ADD1B2" style="stroke:#181818;stroke-width:1"/><path d="M3469.959 331.895q-.578.297-1.219.438-.64.156-1.344.156-2.5 0-3.828-1.64-1.312-1.657-1.312-4.782t1.312-4.781q1.328-1.656 3.828-1.656.703 0 1.344.156.656.156 1.219.453v2.719q-.625-.579-1.219-.844-.594-.281-1.219-.281-1.344 0-2.031 1.078-.687 1.062-.687 3.156t.687 3.172q.688 1.062 2.031 1.062.625 0 1.219-.265.594-.281 1.219-.86z"/><text x="3485.99" y="332.14" fill="#D9B8FF" font-family="Helvetica" font-size="17" textLength="132">aws_rds_cluster</text><rect width="188" height="39.789" x="3599.99" y="406.15" fill="#3D176E" rx="2.5" ry="2.5" style="stroke:#000d19;stroke-width:.5"/><circle cx="3614.99" cy="426.045" r="11" fill="#ADD1B2" style="stroke:#181818;stroke-width:1"/><path d="M3617.959 431.685q-.578.297-1.219.438-.64.156-1.344.156-2.5 0-3.828-1.64-1.312-1.657-1.312-4.782t1.312-4.781q1.328-1.656 3.828-1.656.703 0 1.344.156.656.156 1.219.453v2.719q-.625-.578-1.219-.844-.594-.281-1.219-.281-1.344 0-2.031 1.078-.687 1.062-.687 3.156t.687 3.172q.688 1.062 2.031 1.062.625 0 1.219-.265.594-.281 1.219-.86z"/><text x="3633.99" y="431.93" fill="#D9B8FF" font-family="Helvetica" font-size="17" textLength="146">aws_rds_instance</text><rect width="213" height="39.789" x="2991.49" y="306.36" fill="#3D176E" rx="2.5" ry="2.5" style="stroke:#000d19;stroke-width:.5"/><circle cx="3006.49" cy="326.255" r="11" fill="#ADD1B2" style="stroke:#181818;stroke-width:1"/><path d="M3009.459 331.895q-.578.297-1.219.438-.64.156-1.344.156-2.5 0-3.828-1.64-1.312-1.657-1.312-4.782t1.312-4.781q1.328-1.656 3.828-1.656.703 0 1.344.156.656.156 1.219.453v2.719q-.625-.579-1.219-.844-.594-.281-1.219-.281-1.344 0-2.031 1.078-.687 1.062-.687 3.156t.687 3.172q.688 1.062 2.031 1.062.625 0 1.219-.265.594-.281 1.219-.86z"/><text x="3025.49" y="332.14" fill="#D9B8FF" font-family="Helvetica" font-size="17" textLength="171">aws_redshift_cluster</text><rect width="137" height="39.789" x="3659.49" y="7" fill="#3D176E" rx="2.5" ry="2.5" style="stroke:#000d19;stroke-width:.5"/><circle cx="3674.49" cy="26.895" r="11" fill="#ADD1B2" style="stroke:#181818;stroke-width:1"/><path d="M3677.459 32.535q-.578.297-1.219.438-.64.156-1.344.156-2.5 0-3.828-1.64-1.312-1.657-1.312-4.782t1.312-4.781q1.328-1.656 3.828-1.656.703 0 1.344.156.656.156 1.219.453v2.719q-.625-.578-1.219-.844-.594-.281-1.219-.281-1.344 0-2.031 1.078-.687 1.062-.687 3.156t.687 3.172q.688 1.062 2.031 1.062.625 0 1.219-.265.594-.281 1.219-.86z"/><text x="3693.49" y="32.78" fill="#D9B8FF" font-family="Helvetica" font-size="17" textLength="95">aws_region</text><rect width="288" height="39.789" x="2324.99" y="306.36" fill="#3D176E" rx="2.5" ry="2.5" style="stroke:#000d19;stroke-width:.5"/><circle cx="2339.99" cy="326.255" r="11" fill="#ADD1B2" style="stroke:#181818;stroke-width:1"/><path d="M2342.959 331.895q-.578.297-1.219.438-.64.156-1.344.156-2.5 0-3.828-1.64-1.312-1.657-1.312-4.782t1.312-4.781q1.328-1.656 3.828-1.656.703 0 1.344.156.656.156 1.219.453v2.719q-.625-.579-1.219-.844-.594-.281-1.219-.281-1.344 0-2.031 1.078-.687 1.062-.687 3.156t.687 3.172q.688 1.062 2.031 1.062.625 0 1.219-.265.594-.281 1.219-.86z"/><text x="2358.99" y="332.14" fill="#D9B8FF" font-family="Helvetica" font-size="17" textLength="246">aws_sagemaker_auto_ml_job</text><rect width="317" height="39.789" x="985.49" y="306.36" fill="#3D176E" rx="2.5" ry="2.5" style="stroke:#000d19;stroke-width:.5"/><circle cx="1000.49" cy="326.255" r="11" fill="#ADD1B2" style="stroke:#181818;stroke-width:1"/><path d="M1003.459 331.895q-.578.297-1.219.438-.64.156-1.344.156-2.5 0-3.828-1.64-1.312-1.657-1.312-4.782t1.312-4.781q1.328-1.656 3.828-1.656.703 0 1.344.156.656.156 1.219.453v2.719q-.625-.579-1.219-.844-.594-.281-1.219-.281-1.343 0-2.031 1.078-.687 1.062-.687 3.156t.687 3.172q.688 1.062 2.031 1.062.625 0 1.219-.265.594-.281 1.219-.86z"/><text x="1019.49" y="332.14" fill="#D9B8FF" font-family="Helvetica" font-size="17" textLength="275">aws_sagemaker_compilation_job</text><rect width="248" height="39.789" x="1550.99" y="306.36" fill="#3D176E" rx="2.5" ry="2.5" style="stroke:#000d19;stroke-width:.5"/><circle cx="1565.99" cy="326.255" r="11" fill="#ADD1B2" style="stroke:#181818;stroke-width:1"/><path d="M1568.959 331.895q-.578.297-1.219.438-.64.156-1.344.156-2.5 0-3.828-1.64-1.312-1.657-1.312-4.782t1.312-4.781q1.328-1.656 3.828-1.656.703 0 1.344.156.656.156 1.219.453v2.719q-.625-.579-1.219-.844-.594-.281-1.219-.281-1.343 0-2.031 1.078-.687 1.062-.687 3.156t.687 3.172q.688 1.062 2.031 1.062.625 0 1.219-.265.594-.281 1.219-.86z"/><text x="1584.99" y="332.14" fill="#D9B8FF" font-family="Helvetica" font-size="17" textLength="206">aws_sagemaker_domain</text><rect width="428" height="39.789" x="1729.99" y="406.15" fill="#3D176E" rx="2.5" ry="2.5" style="stroke:#000d19;stroke-width:.5"/><circle cx="1744.99" cy="426.045" r="11" fill="#ADD1B2" style="stroke:#181818;stroke-width:1"/><path d="M1747.959 431.685q-.578.297-1.219.438-.64.156-1.344.156-2.5 0-3.828-1.64-1.312-1.657-1.312-4.782t1.312-4.781q1.328-1.656 3.828-1.656.703 0 1.344.156.656.156 1.219.453v2.719q-.625-.578-1.219-.844-.594-.281-1.219-.281-1.343 0-2.031 1.078-.687 1.062-.687 3.156t.687 3.172q.688 1.062 2.031 1.062.625 0 1.219-.265.594-.281 1.219-.86z"/><text x="1763.99" y="431.93" fill="#D9B8FF" font-family="Helvetica" font-size="17" textLength="386">aws_sagemaker_hyper_parameter_tuning_job</text><rect width="457" height="39.789" x="1833.49" y="306.36" fill="#3D176E" rx="2.5" ry="2.5" style="stroke:#000d19;stroke-width:.5"/><circle cx="1848.49" cy="326.255" r="11" fill="#ADD1B2" style="stroke:#181818;stroke-width:1"/><path d="M1851.459 331.895q-.578.297-1.219.438-.64.156-1.344.156-2.5 0-3.828-1.64-1.312-1.657-1.312-4.782t1.312-4.781q1.328-1.656 3.828-1.656.703 0 1.344.156.656.156 1.219.453v2.719q-.625-.579-1.219-.844-.594-.281-1.219-.281-1.343 0-2.031 1.078-.687 1.062-.687 3.156t.687 3.172q.688 1.062 2.031 1.062.625 0 1.219-.265.594-.281 1.219-.86z"/><text x="1867.49" y="332.14" fill="#D9B8FF" font-family="Helvetica" font-size="17" textLength="415">aws_sagemaker_inference_recommendations_job</text><rect width="285" height="39.789" x="2922.49" y="406.15" fill="#3D176E" rx="2.5" ry="2.5" style="stroke:#000d19;stroke-width:.5"/><circle cx="2937.49" cy="426.045" r="11" fill="#ADD1B2" style="stroke:#181818;stroke-width:1"/><path d="M2940.459 431.685q-.578.297-1.219.438-.64.156-1.344.156-2.5 0-3.828-1.64-1.312-1.657-1.312-4.782t1.312-4.781q1.328-1.656 3.828-1.656.703 0 1.344.156.656.156 1.219.453v2.719q-.625-.578-1.219-.844-.594-.281-1.219-.281-1.344 0-2.031 1.078-.687 1.062-.687 3.156t.687 3.172q.688 1.062 2.031 1.062.625 0 1.219-.265.594-.281 1.219-.86z"/><text x="2956.49" y="431.93" fill="#D9B8FF" font-family="Helvetica" font-size="17" textLength="243">aws_sagemaker_labeling_job</text><rect width="237" height="39.789" x="2719.49" y="306.36" fill="#3D176E" rx="2.5" ry="2.5" style="stroke:#000d19;stroke-width:.5"/><circle cx="2734.49" cy="326.255" r="11" fill="#ADD1B2" style="stroke:#181818;stroke-width:1"/><path d="M2737.459 331.895q-.578.297-1.219.438-.64.156-1.344.156-2.5 0-3.828-1.64-1.312-1.657-1.312-4.782t1.312-4.781q1.328-1.656 3.828-1.656.703 0 1.344.156.656.156 1.219.453v2.719q-.625-.579-1.219-.844-.594-.281-1.219-.281-1.344 0-2.031 1.078-.687 1.062-.687 3.156t.687 3.172q.688 1.062 2.031 1.062.625 0 1.219-.265.594-.281 1.219-.86z"/><text x="2753.49" y="332.14" fill="#D9B8FF" font-family="Helvetica" font-size="17" textLength="195">aws_sagemaker_model</text><rect width="263" height="39.789" x="687.49" y="306.36" fill="#3D176E" rx="2.5" ry="2.5" style="stroke:#000d19;stroke-width:.5"/><circle cx="702.49" cy="326.255" r="11" fill="#ADD1B2" style="stroke:#181818;stroke-width:1"/><path d="M705.459 331.895q-.578.297-1.219.438-.64.156-1.344.156-2.5 0-3.828-1.64-1.312-1.657-1.312-4.782t1.312-4.781q1.328-1.656 3.828-1.656.703 0 1.344.156.656.156 1.219.453v2.719q-.625-.579-1.219-.844-.594-.281-1.219-.281-1.343 0-2.031 1.078-.687 1.062-.687 3.156t.687 3.172q.688 1.062 2.031 1.062.625 0 1.219-.265.594-.281 1.219-.86z"/><text x="721.49" y="332.14" fill="#D9B8FF" font-family="Helvetica" font-size="17" textLength="221">aws_sagemaker_notebook</text><rect width="306" height="39.789" x="2512.99" y="406.15" fill="#3D176E" rx="2.5" ry="2.5" style="stroke:#000d19;stroke-width:.5"/><circle cx="2527.99" cy="426.045" r="11" fill="#ADD1B2" style="stroke:#181818;stroke-width:1"/><path d="M2530.959 431.685q-.578.297-1.219.438-.64.156-1.344.156-2.5 0-3.828-1.64-1.312-1.657-1.312-4.782t1.312-4.781q1.328-1.656 3.828-1.656.703 0 1.344.156.656.156 1.219.453v2.719q-.625-.578-1.219-.844-.594-.281-1.219-.281-1.344 0-2.031 1.078-.687 1.062-.687 3.156t.687 3.172q.688 1.062 2.031 1.062.625 0 1.219-.265.594-.281 1.219-.86z"/><text x="2546.99" y="431.93" fill="#D9B8FF" font-family="Helvetica" font-size="17" textLength="264">aws_sagemaker_processing_job</text><rect width="285" height="39.789" x="2317.49" y="505.94" fill="#3D176E" rx="2.5" ry="2.5" style="stroke:#000d19;stroke-width:.5"/><circle cx="2332.49" cy="525.835" r="11" fill="#ADD1B2" style="stroke:#181818;stroke-width:1"/><path d="M2335.459 531.475q-.578.297-1.219.438-.64.156-1.344.156-2.5 0-3.828-1.64-1.312-1.657-1.312-4.782t1.312-4.781q1.328-1.656 3.828-1.656.703 0 1.344.156.656.156 1.219.453v2.719q-.625-.578-1.219-.844-.594-.281-1.219-.281-1.344 0-2.031 1.078-.687 1.062-.687 3.156t.687 3.172q.688 1.062 2.031 1.062.625 0 1.219-.265.594-.281 1.219-.86z"/><text x="2351.49" y="531.72" fill="#D9B8FF" font-family="Helvetica" font-size="17" textLength="243">aws_sagemaker_training_job</text><rect width="112" height="39.789" x="3671.99" y="106.78" fill="#3D176E" rx="2.5" ry="2.5" style="stroke:#000d19;stroke-width:.5"/><circle cx="3686.99" cy="126.674" r="11" fill="#ADD1B2" style="stroke:#181818;stroke-width:1"/><path d="M3689.959 132.315q-.578.297-1.219.438-.64.156-1.344.156-2.5 0-3.828-1.64-1.312-1.657-1.312-4.782t1.312-4.781q1.328-1.657 3.828-1.657.703 0 1.344.157.656.156 1.219.453v2.719q-.625-.579-1.219-.844-.594-.281-1.219-.281-1.344 0-2.031 1.078-.687 1.062-.687 3.156t.687 3.172q.688 1.062 2.031 1.062.625 0 1.219-.265.594-.281 1.219-.86z"/><text x="3705.99" y="132.56" fill="#D9B8FF" font-family="Helvetica" font-size="17" textLength="70">aws_vpc</text><rect width="195" height="39.789" x="54.49" y="306.36" fill="#3D176E" rx="2.5" ry="2.5" style="stroke:#000d19;stroke-width:.5"/><circle cx="69.49" cy="326.255" r="11" fill="#ADD1B2" style="stroke:#181818;stroke-width:1"/><path d="M72.459 331.895q-.578.297-1.219.438-.64.156-1.344.156-2.5 0-3.828-1.64-1.312-1.657-1.312-4.782t1.312-4.781q1.328-1.656 3.828-1.656.703 0 1.344.156.656.156 1.219.453v2.719q-.625-.579-1.219-.844-.594-.281-1.219-.281-1.344 0-2.031 1.078-.687 1.062-.687 3.156t.687 3.172q.688 1.062 2.031 1.062.625 0 1.219-.265.594-.281 1.219-.86z"/><text x="88.49" y="332.14" fill="#D9B8FF" font-family="Helvetica" font-size="17" textLength="153">aws_vpc_endpoint</text><path fill="none" d="M2874.61 233.54c212.54 11.02 662.99 36.58 1042.38 72.82 32.64 3.12 63.12 6.802 92.25 10.612" style="stroke:#1a83af;stroke-width:2"/><path fill="#1A83AF" d="m4015.19 317.75-8.405-5.133 3.447 4.485-4.485 3.447z" style="stroke:#1a83af;stroke-width:2"/><path fill="none" d="M2629.25 228.43c-287.66 3.27-998.36 17.4-1228.26 77.93-38.79 10.22-42.31 29.21-81 39.79-162.01 44.31-635.984 66.039-874.414 74.449" style="stroke:#1a83af;stroke-width:2"/><path fill="#1A83AF" d="m439.58 420.81 9.135 3.68-4.138-3.856 3.856-4.139z" style="stroke:#1a83af;stroke-width:2"/><path fill="none" d="M2874.64 234.88c172.31 11.19 495.62 35.05 769.35 71.48 5.56.74 5.34.662 11.09 1.542" style="stroke:#1a83af;stroke-width:2"/><path fill="#1A83AF" d="m3661.01 308.81-8.291-5.315 3.349 4.559-4.56 3.348z" style="stroke:#1a83af;stroke-width:2"/><path fill="none" d="M2629.19 228.89c-321.91 4.42-1216.64 21.22-1959.2 77.47-5.64.43-5.413.373-11.203.883" style="stroke:#1a83af;stroke-width:2"/><path fill="#1A83AF" d="m652.81 307.77 9.316 3.195-4.335-3.634 3.633-4.335z" style="stroke:#1a83af;stroke-width:2"/><path fill="none" d="M2874.71 228.37c248.5 3.11 802.77 16.91 981.28 77.99 63.43 21.71 121.402 67.839 152.732 95.499" style="stroke:#1a83af;stroke-width:2"/><path fill="#1A83AF" d="m4013.22 405.83-4.1-8.955.352 5.646-5.646.351z" style="stroke:#1a83af;stroke-width:2"/><path fill="none" d="M2874.94 232.63c129.21 7.84 321.34 27.16 377.05 73.73 61.62 51.51 73.048 149.888 75.228 193.088" style="stroke:#1a83af;stroke-width:2"/><path fill="#1A83AF" d="m3327.52 505.44 3.541-9.19-3.793 4.196-4.197-3.793z" style="stroke:#1a83af;stroke-width:2"/><path fill="none" d="M2874.71 240.08c135.08 14.3 358.52 39.17 550.28 66.28 8.64 1.22 11.702 1.657 20.692 3.057" style="stroke:#1a83af;stroke-width:2"/><path fill="#1A83AF" d="m3451.61 310.34-8.277-5.337 3.336 4.568-4.567 3.337z" style="stroke:#1a83af;stroke-width:2"/><path fill="none" d="M2874.99 231.71c123.46 7.01 317.93 25.55 479 74.65 37.98 11.58 43.09 25.13 80 39.79 60.72 24.12 126.051 43.653 178.541 57.953" style="stroke:#1a83af;stroke-width:2"/><path fill="#1A83AF" d="m3618.32 405.68-7.632-6.225 2.808 4.91-4.91 2.809z" style="stroke:#1a83af;stroke-width:2"/><path fill="none" d="M2820.35 246.79c60.56 17.11 142.746 40.338 203.356 57.468" style="stroke:#1a83af;stroke-width:2"/><path fill="#1A83AF" d="m3029.48 305.89-7.573-6.297 2.762 4.937-4.938 2.762z" style="stroke:#1a83af;stroke-width:2"/><path fill="none" d="M2696.08 246.79c-49.62 17.14-116.049 40.1-165.629 57.23" style="stroke:#1a83af;stroke-width:2"/><path fill="#1A83AF" d="m2524.78 305.98 9.813.842-5.087-2.475 2.474-5.087z" style="stroke:#1a83af;stroke-width:2"/><path fill="none" d="M2629.18 232.39c-246.53 10.28-819.14 36.29-1299.19 73.97-8.9.7-12.053.945-21.273 1.755" style="stroke:#1a83af;stroke-width:2"/><path fill="#1A83AF" d="m1302.74 308.64 9.315 3.197-4.334-3.635 3.634-4.334z" style="stroke:#1a83af;stroke-width:2"/><path fill="none" d="M2629.15 235.89c-179.07 12.71-522.17 38.73-813.16 70.47-5.53.61-5.211.55-10.911 1.22" style="stroke:#1a83af;stroke-width:2"/><path fill="#1A83AF" d="m1799.12 308.28 9.405 2.922-4.44-3.506 3.506-4.44z" style="stroke:#1a83af;stroke-width:2"/><path fill="none" d="M2628.99 230.95c-301.94 9.13-1057.94 35.87-1095 75.41-71.96 76.78 56.076 104.46 189.706 114.27" style="stroke:#1a83af;stroke-width:2"/><path fill="#1A83AF" d="m1729.68 421.07-8.683-4.648 3.696 4.282-4.282 3.696z" style="stroke:#1a83af;stroke-width:2"/><path fill="none" d="M2629.03 244.89c-120.89 17.14-299.07 42.388-424.46 60.158" style="stroke:#1a83af;stroke-width:2"/><path fill="#1A83AF" d="m2198.63 305.89 9.472 2.698-4.521-3.4 3.399-4.521z" style="stroke:#1a83af;stroke-width:2"/><path fill="none" d="M2874.9 230.72c124.08 6.17 303.43 24.05 347.09 75.64 35.64 42.13-30.53 76.294-88.4 97.284" style="stroke:#1a83af;stroke-width:2"/><path fill="#1A83AF" d="m3127.95 405.69 9.825.692-5.125-2.397 2.397-5.124z" style="stroke:#1a83af;stroke-width:2"/><path fill="none" d="M2768.98 246.79c15.08 17.14 33.028 37.554 48.088 54.684" style="stroke:#1a83af;stroke-width:2"/><path fill="#1A83AF" d="m2821.03 305.98-2.938-9.4-.363 5.645-5.646-.363z" style="stroke:#1a83af;stroke-width:2"/><path fill="none" d="M2629.02 229.44c-289.82 5.4-1038.21 23.75-1661.03 76.92-5.59.48-5.32.418-11.07.988" style="stroke:#1a83af;stroke-width:2"/><path fill="#1A83AF" d="m950.95 307.94 9.35 3.093-4.374-3.586 3.585-4.375z" style="stroke:#1a83af;stroke-width:2"/><path fill="none" d="M2737.69 246.73c-10.96 15.48-25.84 38.11-35.7 59.63-15.43 33.67-25.032 69.823-30.552 93.763" style="stroke:#1a83af;stroke-width:2"/><path fill="#1A83AF" d="m2670.09 405.97 5.92-7.871-4.797 2.999-2.999-4.797z" style="stroke:#1a83af;stroke-width:2"/><path fill="none" d="M2629.17 230.75c-307.01 8.79-1086.08 35.02-1124.18 75.61-107.99 115.04-124.87 45.21 208 139.58 204.66 58.03 445.802 73.98 598.192 78.03" style="stroke:#1a83af;stroke-width:2"/><path fill="#1A83AF" d="m2317.18 524.13-8.89-4.238 3.892 4.105-4.105 3.893z" style="stroke:#1a83af;stroke-width:2"/><path fill="none" d="M2629.06 228.51c-355.34 3.66-1414.3 19.06-2291.07 77.85-28.66 1.92-53.771 4.17-82.161 7.07" style="stroke:#1a83af;stroke-width:2"/><path fill="#1A83AF" d="m249.86 314.04 9.36 3.065-4.386-3.573 3.573-4.386z" style="stroke:#1a83af;stroke-width:2"/><path fill="none" d="M3806.1 346.58c50.27 17.31 117.877 40.587 167.667 57.727" style="stroke:#1a83af;stroke-width:2"/><path fill="#1A83AF" d="m3979.44 406.26-7.208-6.712 2.48 5.084-5.084 2.48z" style="stroke:#1a83af;stroke-width:2"/><path fill="none" d="M3569.61 346.58c27.17 17.14 61.586 38.848 88.746 55.988" style="stroke:#1a83af;stroke-width:2"/><path fill="#1A83AF" d="m3663.43 405.77-5.476-8.186 1.248 5.518-5.518 1.248z" style="stroke:#1a83af;stroke-width:2"/><path fill="none" d="M3012.38 346.64c-75.64 17.12-179.518 40.635-255.098 57.745" style="stroke:#1a83af;stroke-width:2"/><path fill="#1A83AF" d="m2751.43 405.71 9.661 1.914-4.784-3.018 3.018-4.784z" style="stroke:#1a83af;stroke-width:2"/><path fill="none" d="M3786.15 47.18c68.73 25.72 181.93 77.72 246.84 159.39 23.5 29.57 31.422 68.226 34.552 93.486" style="stroke:#1a83af;stroke-width:2"/><path fill="#1A83AF" d="m4068.28 306.01 2.863-9.424-3.478 4.462-4.461-3.478z" style="stroke:#1a83af;stroke-width:2"/><path fill="none" d="M3659.17 28.12c-394.42 1.54-2371.48 12.48-2976.18 78.66-298.72 32.7-511.64-69.21-646 199.58-30.99 62 41.843 90.59 121.393 104.74" style="stroke:#1a83af;stroke-width:2"/><path fill="#1A83AF" d="m164.29 412.15-8.16-5.514 3.237 4.638-4.638 3.238z" style="stroke:#1a83af;stroke-width:2"/><path fill="none" d="M3659.36 41.78c-170.85 34.59-609.68 123.43-805.99 163.16" style="stroke:#1a83af;stroke-width:2"/><path fill="#1A83AF" d="m2847.49 206.13 9.615 2.135-4.714-3.127 3.127-4.714z" style="stroke:#1a83af;stroke-width:2"/><path fill="none" d="M3796.6 32.26c101.74 10.69 288.93 47.51 366.39 174.31 32.55 53.29 47.9 85.91 16 139.58-19.48 32.77-52.205 50.746-84.585 62.416" style="stroke:#1a83af;stroke-width:2"/><path fill="#1A83AF" d="m4088.76 410.6 9.823.712-5.12-2.407 2.408-5.12z" style="stroke:#1a83af;stroke-width:2"/><path fill="none" d="M3796.83 41.38c50.31 11.94 118.78 32.65 172.16 65.4 111.88 68.65 257.38 138.83 173 239.37-22.52 26.83-222.94 53.662-347.59 68.042" style="stroke:#1a83af;stroke-width:2"/><path fill="#1A83AF" d="m3788.44 414.88 9.4 2.942-4.433-3.515 3.515-4.432z" style="stroke:#1a83af;stroke-width:2"/><path fill="none" d="M3727.99 47.21v53.19" style="stroke:#1a83af;stroke-width:2"/><path fill="#1A83AF" d="m3727.99 106.4 4-9-4 4-4-4z" style="stroke:#1a83af;stroke-width:2"/><path fill="none" d="M3659 29.42C3179.7 40.33 360.68 108.48 210.99 206.57c-34.64 22.71-48.473 66.295-54.383 93.655" style="stroke:#1a83af;stroke-width:2"/><path fill="#1A83AF" d="m155.34 306.09 5.81-7.952-4.754 3.065-3.066-4.755z" style="stroke:#1a83af;stroke-width:2"/><path fill="none" d="M2507.91 346.58c34.54 17.14 79.356 39.381 113.866 56.521" style="stroke:#1a83af;stroke-width:2"/><path fill="#1A83AF" d="m2627.15 405.77-6.281-7.586 1.803 5.362-5.362 1.803z" style="stroke:#1a83af;stroke-width:2"/><path fill="none" d="M2468.11 346.56c-1.72 37.77-5.247 115.066-6.968 152.896" style="stroke:#1a83af;stroke-width:2"/><path fill="#1A83AF" d="m2460.87 505.45 4.405-8.809-4.178 3.814-3.814-4.177z" style="stroke:#1a83af;stroke-width:2"/><path fill="none" d="M2046.24 446.42c90.35 17.13 215.515 40.853 305.805 57.963" style="stroke:#1a83af;stroke-width:2"/><path fill="#1A83AF" d="m2357.94 505.5-8.098-5.606 3.185 4.675-4.674 3.185z" style="stroke:#1a83af;stroke-width:2"/><path fill="none" d="M3116.95 446.37c46.11 17.14 107.486 39.958 153.566 57.098" style="stroke:#1a83af;stroke-width:2"/><path fill="#1A83AF" d="m3276.14 505.56-7.04-6.887 2.354 5.144-5.144 2.354z" style="stroke:#1a83af;stroke-width:2"/><path fill="none" d="M2945.1 446.42c-105.84 17.11-253.427 40.963-359.277 58.073" style="stroke:#1a83af;stroke-width:2"/><path fill="#1A83AF" d="m2579.9 505.45 9.523 2.513-4.587-3.31 3.31-4.588z" style="stroke:#1a83af;stroke-width:2"/><path fill="none" d="M2882.84 346.58c39.79 17.14 92.12 39.675 131.88 56.815" style="stroke:#1a83af;stroke-width:2"/><path fill="#1A83AF" d="m3020.23 405.77-6.681-7.236 2.09 5.257-5.257 2.09z" style="stroke:#1a83af;stroke-width:2"/><path fill="none" d="M716.54 346.64c-90.52 17.12-215.944 40.845-306.404 57.955" style="stroke:#1a83af;stroke-width:2"/><path fill="#1A83AF" d="m404.24 405.71 9.587 2.258-4.674-3.187 3.187-4.674z" style="stroke:#1a83af;stroke-width:2"/><path fill="none" d="M2625.29 446.37c-36.12 17.14-83.18 39.476-119.27 56.616" style="stroke:#1a83af;stroke-width:2"/><path fill="#1A83AF" d="m2500.6 505.56 9.846-.248-5.33-1.897 1.898-5.33z" style="stroke:#1a83af;stroke-width:2"/><path fill="none" d="M3784.27 133.83c56.16 8.5 142.66 28.18 203.72 72.74 36.01 26.28 59.056 67.961 71.296 94.231" style="stroke:#1a83af;stroke-width:2"/><path fill="#1A83AF" d="m4061.82 306.24-.175-9.847-1.937 5.315-5.315-1.937z" style="stroke:#1a83af;stroke-width:2"/><path fill="none" d="M3671.65 128.82c-431.27 8.94-3196.79 70.33-3333.66 177.54-30.34 23.77-35.721 66.331-36.301 93.381" style="stroke:#1a83af;stroke-width:2"/><path fill="#1A83AF" d="m301.56 405.74 4.192-8.912-4.085 3.913-3.913-4.085z" style="stroke:#1a83af;stroke-width:2"/><path fill="none" d="M3671.65 133.32c-153.85 15.42-577.89 57.902-790.91 79.252" style="stroke:#1a83af;stroke-width:2"/><path fill="#1A83AF" d="m2874.77 213.17 9.354 3.083-4.379-3.582 3.581-4.379z" style="stroke:#1a83af;stroke-width:2"/><path fill="none" d="M3784.4 130.04c98.64 7.7 297.65 40.19 357.59 176.32 7.12 16.19 8.01 24.02 0 39.79-13.57 26.71-35.625 43.634-59.395 56.734" style="stroke:#1a83af;stroke-width:2"/><path fill="#1A83AF" d="m4077.34 405.78 9.813-.84-5.434-1.573 1.573-5.434z" style="stroke:#1a83af;stroke-width:2"/><path fill="none" d="M3784.22 130.52c129.59 9.41 434.53 49.29 385.77 215.63-14.82 50.56-19.11 72.22-64 99.79-108.75 66.79-471.35 77.99-659.5 79.25" style="stroke:#1a83af;stroke-width:2"/><path fill="#1A83AF" d="m3440.49 525.23 9.027 3.94-4.027-3.973 3.973-4.027z" style="stroke:#1a83af;stroke-width:2"/><path fill="none" d="M3754.45 146.9c49.43 38.31 146.87 126.76 101.54 199.25-18.25 29.18-45.11 45.722-76.22 57.522" style="stroke:#1a83af;stroke-width:2"/><path fill="#1A83AF" d="m3774.16 405.8 9.834.548-5.159-2.321 2.321-5.159z" style="stroke:#1a83af;stroke-width:2"/><path fill="none" d="M3671.53 145.39c-117.94 36.98-383.885 120.384-506.175 158.744" style="stroke:#1a83af;stroke-width:2"/><path fill="#1A83AF" d="m3159.63 305.93 9.785 1.123-5.014-2.62 2.62-5.013z" style="stroke:#1a83af;stroke-width:2"/><path fill="none" d="M3671.75 127.81c-433.58 1.12-3232.33 10.98-3395.76 78.76-49.82 20.67-87.696 66.556-107.656 94.536" style="stroke:#1a83af;stroke-width:2"/><path fill="#1A83AF" d="m164.85 305.99 8.483-5.004-5.58.934-.933-5.58z" style="stroke:#1a83af;stroke-width:2"/><path fill="none" d="M181.62 346.58c26.3 17.14 59.495 38.771 85.765 55.911" style="stroke:#1a83af;stroke-width:2"/><path fill="#1A83AF" d="m272.41 405.77-5.352-8.268 1.165 5.536-5.536 1.164z" style="stroke:#1a83af;stroke-width:2"/></svg>