<svg xmlns="http://www.w3.org/2000/svg" width="2657" height="1906" viewBox="0 0 2657 1906"><rect width="237" height="179.273" x="7" y="1175.53" fill="#3D176E" rx="2.5" ry="2.5" style="stroke:#000d19;stroke-width:.5"/><circle cx="22" cy="1195.425" r="11" fill="#ADD1B2" style="stroke:#181818;stroke-width:1"/><path d="M24.969 1201.065q-.578.297-1.219.438-.64.156-1.344.156-2.5 0-3.828-1.64-1.312-1.657-1.312-4.782t1.312-4.781q1.328-1.656 3.828-1.656.703 0 1.344.156.656.156 1.219.453v2.719q-.625-.578-1.219-.844-.594-.281-1.219-.281-1.343 0-2.031 1.078-.688 1.062-.688 3.156 0 2.094.688 3.172.688 1.062 2.031 1.062.625 0 1.219-.265.594-.281 1.219-.86v2.72Z"/><text x="41" y="1201.31" fill="#D9B8FF" font-family="Helvetica" font-size="17" textLength="195">gcp_deprecation_status</text><path d="M8 1215.319h235" style="stroke:#000d19;stroke-width:.5"/><text x="18" y="1237.314" fill="#D9B8FF" font-family="sans-serif" font-size="14" font-weight="bold" textLength="60">deleted</text><text x="78" y="1237.314" fill="#D9B8FF" font-family="sans-serif" font-size="14" textLength="48">: string</text><text x="18" y="1263.611" fill="#D9B8FF" font-family="sans-serif" font-size="14" font-weight="bold" textLength="91">deprecated</text><text x="109" y="1263.611" fill="#D9B8FF" font-family="sans-serif" font-size="14" textLength="48">: string</text><text x="18" y="1289.908" fill="#D9B8FF" font-family="sans-serif" font-size="14" font-weight="bold" textLength="69">obsolete</text><text x="87" y="1289.908" fill="#D9B8FF" font-family="sans-serif" font-size="14" textLength="48">: string</text><text x="18" y="1316.205" fill="#D9B8FF" font-family="sans-serif" font-size="14" font-weight="bold" textLength="99">replacement</text><text x="117" y="1316.205" fill="#D9B8FF" font-family="sans-serif" font-size="14" textLength="48">: string</text><text x="18" y="1342.502" fill="#D9B8FF" font-family="sans-serif" font-size="14" font-weight="bold" textLength="40">state</text><text x="58" y="1342.502" fill="#D9B8FF" font-family="sans-serif" font-size="14" textLength="48">: string</text><rect width="348" height="152.977" x="252.5" y="438.75" fill="#3D176E" rx="2.5" ry="2.5" style="stroke:#000d19;stroke-width:.5"/><circle cx="363.25" cy="458.644" r="11" fill="#ADD1B2" style="stroke:#181818;stroke-width:1"/><path d="M366.219 464.285q-.578.297-1.219.438-.64.156-1.344.156-2.5 0-3.828-1.64-1.312-1.657-1.312-4.782t1.312-4.781q1.328-1.656 3.828-1.656.703 0 1.344.156.656.156 1.219.453v2.719q-.625-.579-1.219-.844-.594-.281-1.219-.281-1.344 0-2.031 1.078-.688 1.062-.688 3.156 0 2.094.688 3.172.688 1.062 2.031 1.062.625 0 1.219-.265.594-.281 1.219-.86v2.72Z"/><text x="388.75" y="464.53" fill="#D9B8FF" font-family="Helvetica" font-size="17" textLength="108">gcp_resource</text><path d="M253.5 478.539h346" style="stroke:#000d19;stroke-width:.5"/><text x="263.5" y="500.534" fill="#D9B8FF" font-family="sans-serif" font-size="14" font-weight="bold" textLength="151">deprecation_status</text><text x="414.5" y="500.534" fill="#D9B8FF" font-family="sans-serif" font-size="14" textLength="175">: gcp_deprecation_status</text><text x="263.5" y="526.831" fill="#D9B8FF" font-family="sans-serif" font-size="14" font-weight="bold" textLength="89">description</text><text x="352.5" y="526.831" fill="#D9B8FF" font-family="sans-serif" font-size="14" textLength="48">: string</text><text x="263.5" y="553.128" fill="#D9B8FF" font-family="sans-serif" font-size="14" font-weight="bold" textLength="128">label_fingerprint</text><text x="391.5" y="553.128" fill="#D9B8FF" font-family="sans-serif" font-size="14" textLength="48">: string</text><text x="263.5" y="579.425" fill="#D9B8FF" font-family="sans-serif" font-size="14" font-weight="bold" textLength="27">link</text><text x="290.5" y="579.425" fill="#D9B8FF" font-family="sans-serif" font-size="14" textLength="48">: string</text><rect width="489" height="231.867" x="711" y="712.73" fill="#3D176E" rx="2.5" ry="2.5" style="stroke:#000d19;stroke-width:.5"/><circle cx="901.75" cy="732.625" r="11" fill="#ADD1B2" style="stroke:#181818;stroke-width:1"/><path d="M904.719 738.265q-.578.297-1.219.438-.64.156-1.344.156-2.5 0-3.828-1.64-1.312-1.657-1.312-4.782t1.312-4.781q1.328-1.656 3.828-1.656.703 0 1.344.156.656.156 1.219.453v2.719q-.625-.578-1.219-.844-.594-.281-1.219-.281-1.343 0-2.031 1.078-.688 1.062-.688 3.156 0 2.094.688 3.172.688 1.062 2.031 1.062.625 0 1.219-.265.594-.281 1.219-.86v2.72Z"/><text x="927.25" y="738.51" fill="#D9B8FF" font-family="Helvetica" font-size="17" textLength="89">gcp_router</text><path d="M712 752.519h487" style="stroke:#000d19;stroke-width:.5"/><text x="722" y="774.514" fill="#D9B8FF" font-family="sans-serif" font-size="14" font-weight="bold" textLength="30">bgp</text><text x="752" y="774.514" fill="#D9B8FF" font-family="sans-serif" font-size="14" textLength="118">: gcp_router_bgp</text><text x="722" y="800.811" fill="#D9B8FF" font-family="sans-serif" font-size="14" font-weight="bold" textLength="83">bgp_peers</text><text x="805" y="800.811" fill="#D9B8FF" font-family="sans-serif" font-size="14" textLength="167">: gcp_router_bgp_peer[]</text><text x="722" y="827.108" fill="#D9B8FF" font-family="sans-serif" font-size="14" font-weight="bold" textLength="246">encrypted_interconnect_router</text><text x="968" y="827.108" fill="#D9B8FF" font-family="sans-serif" font-size="14" textLength="65">: boolean</text><text x="722" y="853.405" fill="#D9B8FF" font-family="sans-serif" font-size="14" font-weight="bold" textLength="198">md5_authentication_keys</text><text x="920" y="853.405" fill="#D9B8FF" font-family="sans-serif" font-size="14" textLength="269">: gcp_router_md5_authentication_key[]</text><text x="722" y="879.702" fill="#D9B8FF" font-family="sans-serif" font-size="14" font-weight="bold" textLength="34">nats</text><text x="756" y="879.702" fill="#D9B8FF" font-family="sans-serif" font-size="14" textLength="123">: gcp_router_nat[]</text><text x="722" y="905.999" fill="#D9B8FF" font-family="sans-serif" font-size="14" font-weight="bold" textLength="66">network</text><text x="788" y="905.999" fill="#D9B8FF" font-family="sans-serif" font-size="14" textLength="48">: string</text><text x="722" y="932.295" fill="#D9B8FF" font-family="sans-serif" font-size="14" font-weight="bold" textLength="137">router_interfaces</text><text x="859" y="932.295" fill="#D9B8FF" font-family="sans-serif" font-size="14" textLength="161">: gcp_router_interface[]</text><rect width="308" height="100.383" x="405.5" y="1612.03" fill="#3D176E" rx="2.5" ry="2.5" style="stroke:#000d19;stroke-width:.5"/><circle cx="420.5" cy="1631.925" r="11" fill="#ADD1B2" style="stroke:#181818;stroke-width:1"/><path d="M423.469 1637.565q-.578.297-1.219.438-.64.156-1.344.156-2.5 0-3.828-1.64-1.312-1.657-1.312-4.782t1.312-4.781q1.328-1.656 3.828-1.656.703 0 1.344.156.656.156 1.219.453v2.719q-.625-.578-1.219-.844-.594-.281-1.219-.281-1.344 0-2.031 1.078-.688 1.062-.688 3.156 0 2.094.688 3.172.688 1.062 2.031 1.062.625 0 1.219-.265.594-.281 1.219-.86v2.72Z"/><text x="439.5" y="1637.81" fill="#D9B8FF" font-family="Helvetica" font-size="17" textLength="266">gcp_router_advertised_ip_range</text><path d="M406.5 1651.819h306" style="stroke:#000d19;stroke-width:.5"/><text x="416.5" y="1673.814" fill="#D9B8FF" font-family="sans-serif" font-size="14" font-weight="bold" textLength="89">description</text><text x="505.5" y="1673.814" fill="#D9B8FF" font-family="sans-serif" font-size="14" textLength="48">: string</text><text x="416.5" y="1700.111" fill="#D9B8FF" font-family="sans-serif" font-size="14" font-weight="bold" textLength="46">range</text><text x="462.5" y="1700.111" fill="#D9B8FF" font-family="sans-serif" font-size="14" textLength="48">: string</text><rect width="428" height="179.273" x="278.5" y="1175.53" fill="#3D176E" rx="2.5" ry="2.5" style="stroke:#000d19;stroke-width:.5"/><circle cx="419.25" cy="1195.425" r="11" fill="#ADD1B2" style="stroke:#181818;stroke-width:1"/><path d="M422.219 1201.065q-.578.297-1.219.438-.64.156-1.344.156-2.5 0-3.828-1.64-1.312-1.657-1.312-4.782t1.312-4.781q1.328-1.656 3.828-1.656.703 0 1.344.156.656.156 1.219.453v2.719q-.625-.578-1.219-.844-.594-.281-1.219-.281-1.344 0-2.031 1.078-.688 1.062-.688 3.156 0 2.094.688 3.172.688 1.062 2.031 1.062.625 0 1.219-.265.594-.281 1.219-.86v2.72Z"/><text x="444.75" y="1201.31" fill="#D9B8FF" font-family="Helvetica" font-size="17" textLength="128">gcp_router_bgp</text><path d="M279.5 1215.319h426" style="stroke:#000d19;stroke-width:.5"/><text x="289.5" y="1237.314" fill="#D9B8FF" font-family="sans-serif" font-size="14" font-weight="bold" textLength="125">advertise_mode</text><text x="414.5" y="1237.314" fill="#D9B8FF" font-family="sans-serif" font-size="14" textLength="48">: string</text><text x="289.5" y="1263.611" fill="#D9B8FF" font-family="sans-serif" font-size="14" font-weight="bold" textLength="147">advertised_groups</text><text x="436.5" y="1263.611" fill="#D9B8FF" font-family="sans-serif" font-size="14" textLength="58">: string[]</text><text x="289.5" y="1289.908" fill="#D9B8FF" font-family="sans-serif" font-size="14" font-weight="bold" textLength="167">advertised_ip_ranges</text><text x="456.5" y="1289.908" fill="#D9B8FF" font-family="sans-serif" font-size="14" textLength="239">: gcp_router_advertised_ip_range[]</text><text x="289.5" y="1316.205" fill="#D9B8FF" font-family="sans-serif" font-size="14" font-weight="bold" textLength="28">asn</text><text x="317.5" y="1316.205" fill="#D9B8FF" font-family="sans-serif" font-size="14" textLength="44">: int64</text><text x="289.5" y="1342.502" fill="#D9B8FF" font-family="sans-serif" font-size="14" font-weight="bold" textLength="141">keepalive_interval</text><text x="430.5" y="1342.502" fill="#D9B8FF" font-family="sans-serif" font-size="14" textLength="44">: int64</text><rect width="428" height="494.836" x="741.5" y="1017.75" fill="#3D176E" rx="2.5" ry="2.5" style="stroke:#000d19;stroke-width:.5"/><circle cx="859.25" cy="1037.645" r="11" fill="#ADD1B2" style="stroke:#181818;stroke-width:1"/><path d="M862.219 1043.285q-.578.297-1.219.438-.64.156-1.344.156-2.5 0-3.828-1.64-1.312-1.657-1.312-4.782t1.312-4.781q1.328-1.656 3.828-1.656.703 0 1.344.156.656.156 1.219.453v2.719q-.625-.578-1.219-.844-.594-.281-1.219-.281-1.343 0-2.031 1.078-.688 1.062-.688 3.156 0 2.094.688 3.172.688 1.062 2.031 1.062.625 0 1.219-.265.594-.281 1.219-.86v2.72Z"/><text x="884.75" y="1043.53" fill="#D9B8FF" font-family="Helvetica" font-size="17" textLength="174">gcp_router_bgp_peer</text><path d="M742.5 1057.539h426" style="stroke:#000d19;stroke-width:.5"/><text x="752.5" y="1079.534" fill="#D9B8FF" font-family="sans-serif" font-size="14" font-weight="bold" textLength="125">advertise_mode</text><text x="877.5" y="1079.534" fill="#D9B8FF" font-family="sans-serif" font-size="14" textLength="48">: string</text><text x="752.5" y="1105.831" fill="#D9B8FF" font-family="sans-serif" font-size="14" font-weight="bold" textLength="147">advertised_groups</text><text x="899.5" y="1105.831" fill="#D9B8FF" font-family="sans-serif" font-size="14" textLength="58">: string[]</text><text x="752.5" y="1132.128" fill="#D9B8FF" font-family="sans-serif" font-size="14" font-weight="bold" textLength="167">advertised_ip_ranges</text><text x="919.5" y="1132.128" fill="#D9B8FF" font-family="sans-serif" font-size="14" textLength="239">: gcp_router_advertised_ip_range[]</text><text x="752.5" y="1158.425" fill="#D9B8FF" font-family="sans-serif" font-size="14" font-weight="bold" textLength="198">advertised_route_priority</text><text x="950.5" y="1158.425" fill="#D9B8FF" font-family="sans-serif" font-size="14" textLength="44">: int64</text><text x="752.5" y="1184.722" fill="#D9B8FF" font-family="sans-serif" font-size="14" font-weight="bold" textLength="26">bfd</text><text x="778.5" y="1184.722" fill="#D9B8FF" font-family="sans-serif" font-size="14" textLength="186">: gcp_router_bgp_peer_bfd</text><text x="752.5" y="1211.019" fill="#D9B8FF" font-family="sans-serif" font-size="14" font-weight="bold" textLength="53">enable</text><text x="805.5" y="1211.019" fill="#D9B8FF" font-family="sans-serif" font-size="14" textLength="48">: string</text><text x="752.5" y="1237.315" fill="#D9B8FF" font-family="sans-serif" font-size="14" font-weight="bold" textLength="93">enable_ipv6</text><text x="845.5" y="1237.315" fill="#D9B8FF" font-family="sans-serif" font-size="14" textLength="65">: boolean</text><text x="752.5" y="1263.612" fill="#D9B8FF" font-family="sans-serif" font-size="14" font-weight="bold" textLength="121">interface_name</text><text x="873.5" y="1263.612" fill="#D9B8FF" font-family="sans-serif" font-size="14" textLength="48">: string</text><text x="752.5" y="1289.909" fill="#D9B8FF" font-family="sans-serif" font-size="14" font-weight="bold" textLength="85">ip_address</text><text x="837.5" y="1289.909" fill="#D9B8FF" font-family="sans-serif" font-size="14" textLength="48">: string</text><text x="752.5" y="1316.206" fill="#D9B8FF" font-family="sans-serif" font-size="14" font-weight="bold" textLength="176">ipv6_nexthop_address</text><text x="928.5" y="1316.206" fill="#D9B8FF" font-family="sans-serif" font-size="14" textLength="48">: string</text><text x="752.5" y="1342.503" fill="#D9B8FF" font-family="sans-serif" font-size="14" font-weight="bold" textLength="144">management_type</text><text x="896.5" y="1342.503" fill="#D9B8FF" font-family="sans-serif" font-size="14" textLength="48">: string</text><text x="752.5" y="1368.8" fill="#D9B8FF" font-family="sans-serif" font-size="14" font-weight="bold" textLength="239">md5_authentication_key_name</text><text x="991.5" y="1368.8" fill="#D9B8FF" font-family="sans-serif" font-size="14" textLength="48">: string</text><text x="752.5" y="1395.097" fill="#D9B8FF" font-family="sans-serif" font-size="14" font-weight="bold" textLength="43">name</text><text x="795.5" y="1395.097" fill="#D9B8FF" font-family="sans-serif" font-size="14" textLength="48">: string</text><text x="752.5" y="1421.394" fill="#D9B8FF" font-family="sans-serif" font-size="14" font-weight="bold" textLength="72">peer_asn</text><text x="824.5" y="1421.394" fill="#D9B8FF" font-family="sans-serif" font-size="14" textLength="44">: int64</text><text x="752.5" y="1447.69" fill="#D9B8FF" font-family="sans-serif" font-size="14" font-weight="bold" textLength="129">peer_ip_address</text><text x="881.5" y="1447.69" fill="#D9B8FF" font-family="sans-serif" font-size="14" textLength="48">: string</text><text x="752.5" y="1473.987" fill="#D9B8FF" font-family="sans-serif" font-size="14" font-weight="bold" textLength="220">peer_ipv6_nexthop_address</text><text x="972.5" y="1473.987" fill="#D9B8FF" font-family="sans-serif" font-size="14" textLength="48">: string</text><text x="752.5" y="1500.284" fill="#D9B8FF" font-family="sans-serif" font-size="14" font-weight="bold" textLength="206">router_appliance_instance</text><text x="958.5" y="1500.284" fill="#D9B8FF" font-family="sans-serif" font-size="14" textLength="48">: string</text><rect width="282" height="152.977" x="814.5" y="1585.73" fill="#3D176E" rx="2.5" ry="2.5" style="stroke:#000d19;stroke-width:.5"/><circle cx="843.45" cy="1605.624" r="11" fill="#ADD1B2" style="stroke:#181818;stroke-width:1"/><path d="M846.419 1611.265q-.578.297-1.219.438-.64.156-1.344.156-2.5 0-3.828-1.64-1.312-1.657-1.312-4.782t1.312-4.781q1.328-1.657 3.828-1.657.703 0 1.344.157.656.156 1.219.453v2.719q-.625-.579-1.219-.844-.594-.281-1.219-.281-1.343 0-2.031 1.078-.688 1.062-.688 3.156 0 2.094.688 3.172.688 1.062 2.031 1.062.625 0 1.219-.265.594-.282 1.219-.86v2.72Z"/><text x="865.55" y="1611.51" fill="#D9B8FF" font-family="Helvetica" font-size="17" textLength="209">gcp_router_bgp_peer_bfd</text><path d="M815.5 1625.519h280" style="stroke:#000d19;stroke-width:.5"/><text x="825.5" y="1647.514" fill="#D9B8FF" font-family="sans-serif" font-size="14" font-weight="bold" textLength="160">min_receive_interval</text><text x="985.5" y="1647.514" fill="#D9B8FF" font-family="sans-serif" font-size="14" textLength="44">: int64</text><text x="825.5" y="1673.811" fill="#D9B8FF" font-family="sans-serif" font-size="14" font-weight="bold" textLength="166">min_transmit_interval</text><text x="991.5" y="1673.811" fill="#D9B8FF" font-family="sans-serif" font-size="14" textLength="44">: int64</text><text x="825.5" y="1700.108" fill="#D9B8FF" font-family="sans-serif" font-size="14" font-weight="bold" textLength="73">multiplier</text><text x="898.5" y="1700.108" fill="#D9B8FF" font-family="sans-serif" font-size="14" textLength="44">: int64</text><text x="825.5" y="1726.405" fill="#D9B8FF" font-family="sans-serif" font-size="14" font-weight="bold" textLength="212">session_initialization_mode</text><text x="1037.5" y="1726.405" fill="#D9B8FF" font-family="sans-serif" font-size="14" textLength="48">: string</text><rect width="321" height="258.164" x="1204" y="1136.08" fill="#3D176E" rx="2.5" ry="2.5" style="stroke:#000d19;stroke-width:.5"/><circle cx="1269.25" cy="1155.975" r="11" fill="#ADD1B2" style="stroke:#181818;stroke-width:1"/><path d="M1272.219 1161.615q-.578.297-1.219.438-.64.156-1.344.156-2.5 0-3.828-1.64-1.312-1.657-1.312-4.782t1.312-4.781q1.328-1.657 3.828-1.657.703 0 1.344.157.656.156 1.219.453v2.719q-.625-.579-1.219-.844-.594-.281-1.219-.281-1.343 0-2.031 1.078-.688 1.062-.688 3.156 0 2.094.688 3.172.688 1.062 2.031 1.062.625 0 1.219-.265.594-.282 1.219-.86v2.72Z"/><text x="1294.75" y="1161.86" fill="#D9B8FF" font-family="Helvetica" font-size="17" textLength="172">gcp_router_interface</text><path d="M1205 1175.869h319" style="stroke:#000d19;stroke-width:.5"/><text x="1215" y="1197.864" fill="#D9B8FF" font-family="sans-serif" font-size="14" font-weight="bold" textLength="67">ip_range</text><text x="1282" y="1197.864" fill="#D9B8FF" font-family="sans-serif" font-size="14" textLength="48">: string</text><text x="1215" y="1224.161" fill="#D9B8FF" font-family="sans-serif" font-size="14" font-weight="bold" textLength="251">linked_interconnect_attachment</text><text x="1466" y="1224.161" fill="#D9B8FF" font-family="sans-serif" font-size="14" textLength="48">: string</text><text x="1215" y="1250.458" fill="#D9B8FF" font-family="sans-serif" font-size="14" font-weight="bold" textLength="140">linked_vpn_tunnel</text><text x="1355" y="1250.458" fill="#D9B8FF" font-family="sans-serif" font-size="14" textLength="48">: string</text><text x="1215" y="1276.755" fill="#D9B8FF" font-family="sans-serif" font-size="14" font-weight="bold" textLength="144">management_type</text><text x="1359" y="1276.755" fill="#D9B8FF" font-family="sans-serif" font-size="14" textLength="48">: string</text><text x="1215" y="1303.052" fill="#D9B8FF" font-family="sans-serif" font-size="14" font-weight="bold" textLength="43">name</text><text x="1258" y="1303.052" fill="#D9B8FF" font-family="sans-serif" font-size="14" textLength="48">: string</text><text x="1215" y="1329.349" fill="#D9B8FF" font-family="sans-serif" font-size="14" font-weight="bold" textLength="147">private_ip_address</text><text x="1362" y="1329.349" fill="#D9B8FF" font-family="sans-serif" font-size="14" textLength="48">: string</text><text x="1215" y="1355.645" fill="#D9B8FF" font-family="sans-serif" font-size="14" font-weight="bold" textLength="160">redundant_interface</text><text x="1375" y="1355.645" fill="#D9B8FF" font-family="sans-serif" font-size="14" textLength="48">: string</text><text x="1215" y="1381.942" fill="#D9B8FF" font-family="sans-serif" font-size="14" font-weight="bold" textLength="95">subnetwork</text><text x="1310" y="1381.942" fill="#D9B8FF" font-family="sans-serif" font-size="14" textLength="48">: string</text><rect width="349" height="100.383" x="1560" y="1214.97" fill="#3D176E" rx="2.5" ry="2.5" style="stroke:#000d19;stroke-width:.5"/><circle cx="1575" cy="1234.864" r="11" fill="#ADD1B2" style="stroke:#181818;stroke-width:1"/><path d="M1577.969 1240.505q-.578.297-1.219.438-.64.156-1.344.156-2.5 0-3.828-1.64-1.312-1.657-1.312-4.782t1.312-4.781q1.328-1.657 3.828-1.657.703 0 1.344.157.656.156 1.219.453v2.719q-.625-.579-1.219-.844-.594-.281-1.219-.281-1.343 0-2.031 1.078-.688 1.062-.688 3.156 0 2.094.688 3.172.688 1.062 2.031 1.062.625 0 1.219-.265.594-.282 1.219-.86v2.72Z"/><text x="1594" y="1240.75" fill="#D9B8FF" font-family="Helvetica" font-size="17" textLength="307">gcp_router_md5_authentication_key</text><path d="M1561 1254.759h347" style="stroke:#000d19;stroke-width:.5"/><text x="1571" y="1276.754" fill="#D9B8FF" font-family="sans-serif" font-size="14" font-weight="bold" textLength="28">key</text><text x="1599" y="1276.754" fill="#D9B8FF" font-family="sans-serif" font-size="14" textLength="48">: string</text><text x="1571" y="1303.051" fill="#D9B8FF" font-family="sans-serif" font-size="14" font-weight="bold" textLength="43">name</text><text x="1614" y="1303.051" fill="#D9B8FF" font-family="sans-serif" font-size="14" textLength="48">: string</text><rect width="398" height="521.133" x="1944.5" y="1004.6" fill="#3D176E" rx="2.5" ry="2.5" style="stroke:#000d19;stroke-width:.5"/><circle cx="2071.25" cy="1024.495" r="11" fill="#ADD1B2" style="stroke:#181818;stroke-width:1"/><path d="M2074.219 1030.135q-.578.297-1.219.438-.64.156-1.344.156-2.5 0-3.828-1.64-1.312-1.657-1.312-4.782t1.312-4.781q1.328-1.656 3.828-1.656.703 0 1.344.156.656.156 1.219.453v2.719q-.625-.578-1.219-.844-.594-.281-1.219-.281-1.343 0-2.031 1.078-.688 1.062-.688 3.156 0 2.094.688 3.172.688 1.062 2.031 1.062.625 0 1.219-.265.594-.282 1.219-.86v2.72Z"/><text x="2096.75" y="1030.38" fill="#D9B8FF" font-family="Helvetica" font-size="17" textLength="126">gcp_router_nat</text><path d="M1945.5 1044.389h396" style="stroke:#000d19;stroke-width:.5"/><text x="1955.5" y="1066.384" fill="#D9B8FF" font-family="sans-serif" font-size="14" font-weight="bold" textLength="102">drain_nat_ips</text><text x="2057.5" y="1066.384" fill="#D9B8FF" font-family="sans-serif" font-size="14" textLength="58">: string[]</text><text x="1955.5" y="1092.681" fill="#D9B8FF" font-family="sans-serif" font-size="14" font-weight="bold" textLength="247">enable_dynamic_port_allocation</text><text x="2202.5" y="1092.681" fill="#D9B8FF" font-family="sans-serif" font-size="14" textLength="65">: boolean</text><text x="1955.5" y="1118.978" fill="#D9B8FF" font-family="sans-serif" font-size="14" font-weight="bold" textLength="311">enable_endpoint_independent_mapping</text><text x="2266.5" y="1118.978" fill="#D9B8FF" font-family="sans-serif" font-size="14" textLength="65">: boolean</text><text x="1955.5" y="1145.275" fill="#D9B8FF" font-family="sans-serif" font-size="14" font-weight="bold" textLength="121">endpoint_types</text><text x="2076.5" y="1145.275" fill="#D9B8FF" font-family="sans-serif" font-size="14" textLength="58">: string[]</text><text x="1955.5" y="1171.572" fill="#D9B8FF" font-family="sans-serif" font-size="14" font-weight="bold" textLength="174">icmp_idle_timeout_sec</text><text x="2129.5" y="1171.572" fill="#D9B8FF" font-family="sans-serif" font-size="14" textLength="44">: int64</text><text x="1955.5" y="1197.869" fill="#D9B8FF" font-family="sans-serif" font-size="14" font-weight="bold" textLength="145">max_ports_per_vm</text><text x="2100.5" y="1197.869" fill="#D9B8FF" font-family="sans-serif" font-size="14" textLength="44">: int64</text><text x="1955.5" y="1224.165" fill="#D9B8FF" font-family="sans-serif" font-size="14" font-weight="bold" textLength="141">min_ports_per_vm</text><text x="2096.5" y="1224.165" fill="#D9B8FF" font-family="sans-serif" font-size="14" textLength="44">: int64</text><text x="1955.5" y="1250.462" fill="#D9B8FF" font-family="sans-serif" font-size="14" font-weight="bold" textLength="43">name</text><text x="1998.5" y="1250.462" fill="#D9B8FF" font-family="sans-serif" font-size="14" textLength="48">: string</text><text x="1955.5" y="1276.759" fill="#D9B8FF" font-family="sans-serif" font-size="14" font-weight="bold" textLength="171">nat_ip_allocate_option</text><text x="2126.5" y="1276.759" fill="#D9B8FF" font-family="sans-serif" font-size="14" textLength="48">: string</text><text x="1955.5" y="1303.056" fill="#D9B8FF" font-family="sans-serif" font-size="14" font-weight="bold" textLength="55">nat_ips</text><text x="2010.5" y="1303.056" fill="#D9B8FF" font-family="sans-serif" font-size="14" textLength="58">: string[]</text><text x="1955.5" y="1329.353" fill="#D9B8FF" font-family="sans-serif" font-size="14" font-weight="bold" textLength="169">router_nat_log_config</text><text x="2124.5" y="1329.353" fill="#D9B8FF" font-family="sans-serif" font-size="14" textLength="190">: gcp_router_nat_log_config</text><text x="1955.5" y="1355.65" fill="#D9B8FF" font-family="sans-serif" font-size="14" font-weight="bold" textLength="129">router_nat_rules</text><text x="2084.5" y="1355.65" fill="#D9B8FF" font-family="sans-serif" font-size="14" textLength="156">: gcp_router_nat_rule[]</text><text x="1955.5" y="1381.947" fill="#D9B8FF" font-family="sans-serif" font-size="14" font-weight="bold" textLength="295">source_subnetwork_ip_ranges_to_nat</text><text x="2250.5" y="1381.947" fill="#D9B8FF" font-family="sans-serif" font-size="14" textLength="48">: string</text><text x="1955.5" y="1408.244" fill="#D9B8FF" font-family="sans-serif" font-size="14" font-weight="bold" textLength="104">subnetworks</text><text x="2059.5" y="1408.244" fill="#D9B8FF" font-family="sans-serif" font-size="14" textLength="262">: gcp_router_nat_subnetwork_to_nat[]</text><text x="1955.5" y="1434.54" fill="#D9B8FF" font-family="sans-serif" font-size="14" font-weight="bold" textLength="260">tcp_established_idle_timeout_sec</text><text x="2215.5" y="1434.54" fill="#D9B8FF" font-family="sans-serif" font-size="14" textLength="44">: int64</text><text x="1955.5" y="1460.837" fill="#D9B8FF" font-family="sans-serif" font-size="14" font-weight="bold" textLength="208">tcp_time_wait_timeout_sec</text><text x="2163.5" y="1460.837" fill="#D9B8FF" font-family="sans-serif" font-size="14" textLength="44">: int64</text><text x="1955.5" y="1487.134" fill="#D9B8FF" font-family="sans-serif" font-size="14" font-weight="bold" textLength="246">tcp_transitory_idle_timeout_sec</text><text x="2201.5" y="1487.134" fill="#D9B8FF" font-family="sans-serif" font-size="14" textLength="44">: int64</text><text x="1955.5" y="1513.431" fill="#D9B8FF" font-family="sans-serif" font-size="14" font-weight="bold" textLength="167">udp_idle_timeout_sec</text><text x="2122.5" y="1513.431" fill="#D9B8FF" font-family="sans-serif" font-size="14" textLength="44">: int64</text><rect width="261" height="100.383" x="1715" y="1612.03" fill="#3D176E" rx="2.5" ry="2.5" style="stroke:#000d19;stroke-width:.5"/><circle cx="1730" cy="1631.925" r="11" fill="#ADD1B2" style="stroke:#181818;stroke-width:1"/><path d="M1732.969 1637.565q-.578.297-1.219.438-.64.156-1.344.156-2.5 0-3.828-1.64-1.312-1.657-1.312-4.782t1.312-4.781q1.328-1.656 3.828-1.656.703 0 1.344.156.656.156 1.219.453v2.719q-.625-.578-1.219-.844-.594-.281-1.219-.281-1.343 0-2.031 1.078-.688 1.062-.688 3.156 0 2.094.688 3.172.688 1.062 2.031 1.062.625 0 1.219-.265.594-.281 1.219-.86v2.72Z"/><text x="1749" y="1637.81" fill="#D9B8FF" font-family="Helvetica" font-size="17" textLength="219">gcp_router_nat_log_config</text><path d="M1716 1651.819h259" style="stroke:#000d19;stroke-width:.5"/><text x="1726" y="1673.814" fill="#D9B8FF" font-family="sans-serif" font-size="14" font-weight="bold" textLength="53">enable</text><text x="1779" y="1673.814" fill="#D9B8FF" font-family="sans-serif" font-size="14" textLength="65">: boolean</text><text x="1726" y="1700.111" fill="#D9B8FF" font-family="sans-serif" font-size="14" font-weight="bold" textLength="37">filter</text><text x="1763" y="1700.111" fill="#D9B8FF" font-family="sans-serif" font-size="14" textLength="48">: string</text><rect width="265" height="152.977" x="2011" y="1585.73" fill="#3D176E" rx="2.5" ry="2.5" style="stroke:#000d19;stroke-width:.5"/><circle cx="2050.75" cy="1605.624" r="11" fill="#ADD1B2" style="stroke:#181818;stroke-width:1"/><path d="M2053.719 1611.265q-.578.297-1.219.438-.64.156-1.344.156-2.5 0-3.828-1.64-1.312-1.657-1.312-4.782t1.312-4.781q1.328-1.657 3.828-1.657.703 0 1.344.157.656.156 1.219.453v2.719q-.625-.579-1.219-.844-.594-.281-1.219-.281-1.343 0-2.031 1.078-.688 1.062-.688 3.156 0 2.094.688 3.172.688 1.062 2.031 1.062.625 0 1.219-.265.594-.282 1.219-.86v2.72Z"/><text x="2075.25" y="1611.51" fill="#D9B8FF" font-family="Helvetica" font-size="17" textLength="168">gcp_router_nat_rule</text><path d="M2012 1625.519h263" style="stroke:#000d19;stroke-width:.5"/><text x="2022" y="1647.514" fill="#D9B8FF" font-family="sans-serif" font-size="14" font-weight="bold" textLength="48">action</text><text x="2070" y="1647.514" fill="#D9B8FF" font-family="sans-serif" font-size="14" textLength="195">: gcp_router_nat_rule_action</text><text x="2022" y="1673.811" fill="#D9B8FF" font-family="sans-serif" font-size="14" font-weight="bold" textLength="89">description</text><text x="2111" y="1673.811" fill="#D9B8FF" font-family="sans-serif" font-size="14" textLength="48">: string</text><text x="2022" y="1700.108" fill="#D9B8FF" font-family="sans-serif" font-size="14" font-weight="bold" textLength="48">match</text><text x="2070" y="1700.108" fill="#D9B8FF" font-family="sans-serif" font-size="14" textLength="48">: string</text><text x="2022" y="1726.405" fill="#D9B8FF" font-family="sans-serif" font-size="14" font-weight="bold" textLength="99">rule_number</text><text x="2121" y="1726.405" fill="#D9B8FF" font-family="sans-serif" font-size="14" textLength="44">: int64</text><rect width="270" height="100.383" x="2008.5" y="1798.71" fill="#3D176E" rx="2.5" ry="2.5" style="stroke:#000d19;stroke-width:.5"/><circle cx="2023.5" cy="1818.604" r="11" fill="#ADD1B2" style="stroke:#181818;stroke-width:1"/><path d="M2026.469 1824.245q-.578.297-1.219.438-.64.156-1.344.156-2.5 0-3.828-1.64-1.312-1.657-1.312-4.782t1.312-4.781q1.328-1.657 3.828-1.657.703 0 1.344.157.656.156 1.219.453v2.719q-.625-.579-1.219-.844-.594-.281-1.219-.281-1.343 0-2.031 1.078-.688 1.062-.688 3.156 0 2.094.688 3.172.688 1.062 2.031 1.062.625 0 1.219-.265.594-.282 1.219-.86v2.72Z"/><text x="2042.5" y="1824.49" fill="#D9B8FF" font-family="Helvetica" font-size="17" textLength="228">gcp_router_nat_rule_action</text><path d="M2009.5 1838.499h268" style="stroke:#000d19;stroke-width:.5"/><text x="2019.5" y="1860.494" fill="#D9B8FF" font-family="sans-serif" font-size="14" font-weight="bold" textLength="171">source_nat_active_ips</text><text x="2190.5" y="1860.494" fill="#D9B8FF" font-family="sans-serif" font-size="14" textLength="58">: string[]</text><text x="2019.5" y="1886.791" fill="#D9B8FF" font-family="sans-serif" font-size="14" font-weight="bold" textLength="164">source_nat_drain_ips</text><text x="2183.5" y="1886.791" fill="#D9B8FF" font-family="sans-serif" font-size="14" textLength="58">: string[]</text><rect width="339" height="126.68" x="2311" y="1598.88" fill="#3D176E" rx="2.5" ry="2.5" style="stroke:#000d19;stroke-width:.5"/><circle cx="2326" cy="1618.774" r="11" fill="#ADD1B2" style="stroke:#181818;stroke-width:1"/><path d="M2328.969 1624.415q-.578.297-1.219.438-.64.156-1.344.156-2.5 0-3.828-1.64-1.312-1.657-1.312-4.782t1.312-4.781q1.328-1.657 3.828-1.657.703 0 1.344.157.656.156 1.219.453v2.719q-.625-.579-1.219-.844-.594-.281-1.219-.281-1.343 0-2.031 1.078-.688 1.062-.688 3.156 0 2.094.688 3.172.688 1.062 2.031 1.062.625 0 1.219-.265.594-.282 1.219-.86v2.72Z"/><text x="2345" y="1624.66" fill="#D9B8FF" font-family="Helvetica" font-size="17" textLength="297">gcp_router_nat_subnetwork_to_nat</text><path d="M2312 1638.669h337" style="stroke:#000d19;stroke-width:.5"/><text x="2322" y="1660.664" fill="#D9B8FF" font-family="sans-serif" font-size="14" font-weight="bold" textLength="43">name</text><text x="2365" y="1660.664" fill="#D9B8FF" font-family="sans-serif" font-size="14" textLength="48">: string</text><text x="2322" y="1686.961" fill="#D9B8FF" font-family="sans-serif" font-size="14" font-weight="bold" textLength="216">secondary_ip_range_names</text><text x="2538" y="1686.961" fill="#D9B8FF" font-family="sans-serif" font-size="14" textLength="58">: string[]</text><text x="2322" y="1713.258" fill="#D9B8FF" font-family="sans-serif" font-size="14" font-weight="bold" textLength="193">source_ip_ranges_to_nat</text><text x="2515" y="1713.258" fill="#D9B8FF" font-family="sans-serif" font-size="14" textLength="58">: string[]</text><rect width="227" height="310.758" x="313" y="7" fill="#3D176E" rx="2.5" ry="2.5" style="stroke:#000d19;stroke-width:.5"/><circle cx="381.75" cy="26.895" r="11" fill="#ADD1B2" style="stroke:#181818;stroke-width:1"/><path d="M384.719 32.535q-.578.297-1.219.438-.64.156-1.344.156-2.5 0-3.828-1.64-1.312-1.657-1.312-4.782t1.312-4.781q1.328-1.656 3.828-1.656.703 0 1.344.156.656.156 1.219.453v2.719q-.625-.578-1.219-.844-.594-.281-1.219-.281-1.344 0-2.031 1.078-.688 1.062-.688 3.156 0 2.094.688 3.172.688 1.062 2.031 1.062.625 0 1.219-.265.594-.281 1.219-.86v2.72Z"/><text x="407.25" y="32.78" fill="#D9B8FF" font-family="Helvetica" font-size="17" textLength="71">resource</text><path d="M314 46.789h225" style="stroke:#000d19;stroke-width:.5"/><text x="324" y="68.784" fill="#D9B8FF" font-family="sans-serif" font-size="14" font-weight="bold" textLength="29">age</text><text x="353" y="68.784" fill="#D9B8FF" font-family="sans-serif" font-size="14" textLength="66">: duration</text><text x="324" y="95.081" fill="#D9B8FF" font-family="sans-serif" font-size="14" font-weight="bold" textLength="43">atime</text><text x="367" y="95.081" fill="#D9B8FF" font-family="sans-serif" font-size="14" textLength="70">: datetime</text><text x="324" y="121.378" fill="#D9B8FF" font-family="sans-serif" font-size="14" font-weight="bold" textLength="43">ctime</text><text x="367" y="121.378" fill="#D9B8FF" font-family="sans-serif" font-size="14" textLength="70">: datetime</text><text x="324" y="147.675" fill="#D9B8FF" font-family="sans-serif" font-size="14" font-weight="bold" textLength="14">id</text><text x="338" y="147.675" fill="#D9B8FF" font-family="sans-serif" font-size="14" textLength="48">: string</text><text x="324" y="173.972" fill="#D9B8FF" font-family="sans-serif" font-size="14" font-weight="bold" textLength="33">kind</text><text x="357" y="173.972" fill="#D9B8FF" font-family="sans-serif" font-size="14" textLength="48">: string</text><text x="324" y="200.269" fill="#D9B8FF" font-family="sans-serif" font-size="14" font-weight="bold" textLength="90">last_access</text><text x="414" y="200.269" fill="#D9B8FF" font-family="sans-serif" font-size="14" textLength="66">: duration</text><text x="324" y="226.565" fill="#D9B8FF" font-family="sans-serif" font-size="14" font-weight="bold" textLength="90">last_update</text><text x="414" y="226.565" fill="#D9B8FF" font-family="sans-serif" font-size="14" textLength="66">: duration</text><text x="324" y="252.862" fill="#D9B8FF" font-family="sans-serif" font-size="14" font-weight="bold" textLength="48">mtime</text><text x="372" y="252.862" fill="#D9B8FF" font-family="sans-serif" font-size="14" textLength="70">: datetime</text><text x="324" y="279.159" fill="#D9B8FF" font-family="sans-serif" font-size="14" font-weight="bold" textLength="43">name</text><text x="367" y="279.159" fill="#D9B8FF" font-family="sans-serif" font-size="14" textLength="48">: string</text><text x="324" y="305.456" fill="#D9B8FF" font-family="sans-serif" font-size="14" font-weight="bold" textLength="34">tags</text><text x="358" y="305.456" fill="#D9B8FF" font-family="sans-serif" font-size="14" textLength="171">: dictionary[string, string]</text><path fill="none" d="M395.98 592.07c-55.35 137.54-172.15 427.77-232.54 577.82" style="stroke:#ffaf37;stroke-width:2"/><path fill="#FFAF37" d="m161.32 1174.17 7.075-6.852-5.206 2.215-2.214-5.206.345 9.843z" style="stroke:#ffaf37;stroke-width:2"/><path fill="none" d="M426.5 338.65v99.66m-7-99.27 7-20 7 20h-14zm291.28 542.05c-184.95 40.57-413.02 94.93-449.28 123.51-52.74 41.57-87.25 109.27-108.3 165.11" style="stroke:#ffaf37;stroke-width:2"/><path fill="#FFAF37" d="m151.2 1174.08 6.887-7.04-5.144 2.354-2.355-5.144.612 9.83z" style="stroke:#ffaf37;stroke-width:2"/><g fill="none"><path d="M573.52 602.8c57.6 33.9 124.52 73.3 186.1 109.55" style="stroke:#ffaf37;stroke-width:2"/><path d="m570.25 608.4-13.68-16.17 20.79 4.11-7.11 12.06z" style="stroke:#ffaf37;stroke-width:2"/></g><path fill="none" d="M794.73 945.02c-24.17 19.15-48.32 39.37-70.23 59.58-55.87 51.5-112.81 115.02-156.3 166.32" style="stroke:#ffaf37;stroke-width:2"/><path fill="#FFAF37" d="m564.56 1174.22 8.86-4.302-5.637.48-.479-5.637-2.744 9.459z" style="stroke:#ffaf37;stroke-width:2"/><path fill="none" d="M955.5 944.96v66.76" style="stroke:#ffaf37;stroke-width:2"/><path fill="#FFAF37" d="m955.5 1016.62 4-9-4 4-4-4 4 9z" style="stroke:#ffaf37;stroke-width:2"/><path fill="none" d="M1121.66 945.08c22.81 18.77 45.13 38.86 64.84 59.52 36.14 37.88 70.16 83.76 98.58 126.35" style="stroke:#ffaf37;stroke-width:2"/><path fill="#FFAF37" d="m1288.34 1134.86-1.664-9.707-1.11 5.547-5.546-1.11 8.32 5.27z" style="stroke:#ffaf37;stroke-width:2"/><path fill="none" d="M1200.28 866c111.81 25.38 241.46 67.91 342.22 138.6 75.72 53.12 133.6 145.61 165.18 204.64" style="stroke:#ffaf37;stroke-width:2"/><path fill="#FFAF37" d="m1710.46 1213.49-.673-9.826-1.665 5.406-5.406-1.665 7.744 6.085z" style="stroke:#ffaf37;stroke-width:2"/><path fill="none" d="M1200.46 854.55c246.07 28.37 605.57 80.05 726.04 150.05 4.29 2.49 8.53 5.1 12.73 7.82" style="stroke:#ffaf37;stroke-width:2"/><path fill="#FFAF37" d="m1943.13 1015.66-5.303-8.3 1.132 5.543-5.543 1.131 9.714 1.626z" style="stroke:#ffaf37;stroke-width:2"/><path fill="none" d="M507.54 1354.82c13.05 76.96 31.54 185.98 42.58 251.1" style="stroke:#ffaf37;stroke-width:2"/><path fill="#FFAF37" d="m551.1 1610.69 2.426-9.545-3.269 4.617-4.617-3.269 5.46 8.197z" style="stroke:#ffaf37;stroke-width:2"/><path fill="none" d="M741.2 1508.41c-5.91 5.88-11.82 11.66-17.7 17.32-29.81 28.67-64.92 58.19-95 82.32" style="stroke:#ffaf37;stroke-width:2"/><path fill="#FFAF37" d="m625.1 1611.57 9.523-2.511-5.623-.618.617-5.623-4.517 8.752z" style="stroke:#ffaf37;stroke-width:2"/><path fill="none" d="M955.5 1512.99v66.6" style="stroke:#ffaf37;stroke-width:2"/><path fill="#FFAF37" d="m955.5 1584.49 4-9-4 4-4-4 4 9z" style="stroke:#ffaf37;stroke-width:2"/><path fill="none" d="M1947.43 1526.09c-22.83 30.26-44.01 58.35-61.09 80.99" style="stroke:#ffaf37;stroke-width:2"/><path fill="#FFAF37" d="m1882.76 1610.82 8.608-4.785-5.601.79-.79-5.601-2.217 9.596z" style="stroke:#ffaf37;stroke-width:2"/><path fill="none" d="M2143.5 1526.09v53.48" style="stroke:#ffaf37;stroke-width:2"/><path fill="#FFAF37" d="m2143.5 1584.54 4-9-4 4-4-4 4 9z" style="stroke:#ffaf37;stroke-width:2"/><path fill="none" d="M2342.94 1499.97c29.41 34.47 57.52 67.42 80.57 94.44" style="stroke:#ffaf37;stroke-width:2"/><path fill="#FFAF37" d="m2427.17 1597.7-2.8-9.443-.446 5.64-5.639-.446 8.885 4.249z" style="stroke:#ffaf37;stroke-width:2"/><path fill="none" d="M2143.5 1739.13v53.63" style="stroke:#ffaf37;stroke-width:2"/><path fill="#FFAF37" d="m2143.5 1797.4 4.026-8.989-4.012 3.989-3.988-4.011 3.974 9.011z" style="stroke:#ffaf37;stroke-width:2"/></svg>