<svg xmlns="http://www.w3.org/2000/svg" width="400" height="1074" viewBox="0 0 400 1074"><rect width="155" height="74.086" x="7" y="635.99" fill="#3D176E" rx="2.5" ry="2.5" style="stroke:#000d19;stroke-width:.5"/><circle cx="22" cy="655.885" r="11" fill="#ADD1B2" style="stroke:#181818;stroke-width:1"/><path d="M24.969 661.525q-.578.297-1.219.438-.64.156-1.344.156-2.5 0-3.828-1.64-1.312-1.657-1.312-4.782t1.312-4.781q1.328-1.657 3.828-1.657.703 0 1.344.157.656.156 1.219.453v2.719q-.625-.578-1.219-.844-.594-.281-1.219-.281-1.343 0-2.031 1.078-.688 1.062-.688 3.156 0 2.094.688 3.172.688 1.062 2.031 1.062.625 0 1.219-.265.594-.282 1.219-.86v2.72Z"/><text x="41" y="661.77" fill="#D9B8FF" font-family="Helvetica" font-size="17" textLength="113">aws_resource</text><path d="M8 675.779h153" style="stroke:#000d19;stroke-width:.5"/><text x="18" y="697.774" fill="#D9B8FF" font-family="sans-serif" font-size="14" font-weight="bold" textLength="26">arn</text><text x="44" y="697.774" fill="#D9B8FF" font-family="sans-serif" font-size="14" textLength="48">: string</text><rect width="292" height="39.789" x="43.5" y="1028.3" fill="#3D176E" rx="2.5" ry="2.5" style="stroke:#000d19;stroke-width:.5"/><circle cx="58.5" cy="1048.195" r="11" fill="#ADD1B2" style="stroke:#181818;stroke-width:1"/><path d="M61.469 1053.835q-.578.297-1.219.438-.64.156-1.344.156-2.5 0-3.828-1.64-1.312-1.657-1.312-4.782t1.312-4.781q1.328-1.657 3.828-1.657.703 0 1.344.157.656.156 1.219.453v2.719q-.625-.578-1.219-.844-.594-.281-1.219-.281-1.343 0-2.031 1.078-.688 1.062-.688 3.156 0 2.094.688 3.172.688 1.062 2.031 1.062.625 0 1.219-.265.594-.282 1.219-.86v2.72Z"/><text x="77.5" y="1054.08" fill="#D9B8FF" font-family="Helvetica" font-size="17" textLength="250">aws_route53_resource_record</text><rect width="196" height="468.539" x="197.5" y="438.76" fill="#3D176E" rx="2.5" ry="2.5" style="stroke:#000d19;stroke-width:.5"/><circle cx="241.3" cy="458.654" r="11" fill="#ADD1B2" style="stroke:#181818;stroke-width:1"/><path d="M244.269 464.295q-.578.297-1.219.438-.64.156-1.344.156-2.5 0-3.828-1.64-1.312-1.657-1.312-4.782t1.312-4.781q1.328-1.656 3.828-1.656.703 0 1.344.156.656.156 1.219.453v2.719q-.625-.579-1.219-.844-.594-.281-1.219-.281-1.343 0-2.031 1.078-.688 1.062-.688 3.156 0 2.094.688 3.172.688 1.062 2.031 1.062.625 0 1.219-.265.594-.281 1.219-.86v2.72Z"/><text x="266.7" y="464.54" fill="#D9B8FF" font-family="Helvetica" font-size="17" textLength="90">dns_record</text><path d="M198.5 478.549h194" style="stroke:#000d19;stroke-width:.5"/><text x="208.5" y="500.544" fill="#D9B8FF" font-family="sans-serif" font-size="14" font-weight="bold" textLength="94">record_data</text><text x="302.5" y="500.544" fill="#D9B8FF" font-family="sans-serif" font-size="14" textLength="48">: string</text><text x="208.5" y="526.841" fill="#D9B8FF" font-family="sans-serif" font-size="14" font-weight="bold" textLength="110">record_expire</text><text x="318.5" y="526.841" fill="#D9B8FF" font-family="sans-serif" font-size="14" textLength="44">: int64</text><text x="208.5" y="553.138" fill="#D9B8FF" font-family="sans-serif" font-size="14" font-weight="bold" textLength="98">record_flags</text><text x="306.5" y="553.138" fill="#D9B8FF" font-family="sans-serif" font-size="14" textLength="44">: int64</text><text x="208.5" y="579.435" fill="#D9B8FF" font-family="sans-serif" font-size="14" font-weight="bold" textLength="130">record_minimum</text><text x="338.5" y="579.435" fill="#D9B8FF" font-family="sans-serif" font-size="14" textLength="44">: int64</text><text x="208.5" y="605.732" fill="#D9B8FF" font-family="sans-serif" font-size="14" font-weight="bold" textLength="117">record_mname</text><text x="325.5" y="605.732" fill="#D9B8FF" font-family="sans-serif" font-size="14" textLength="48">: string</text><text x="208.5" y="632.029" fill="#D9B8FF" font-family="sans-serif" font-size="14" font-weight="bold" textLength="93">record_port</text><text x="301.5" y="632.029" fill="#D9B8FF" font-family="sans-serif" font-size="14" textLength="44">: int64</text><text x="208.5" y="658.325" fill="#D9B8FF" font-family="sans-serif" font-size="14" font-weight="bold" textLength="117">record_priority</text><text x="325.5" y="658.325" fill="#D9B8FF" font-family="sans-serif" font-size="14" textLength="44">: int64</text><text x="208.5" y="684.622" fill="#D9B8FF" font-family="sans-serif" font-size="14" font-weight="bold" textLength="119">record_refresh</text><text x="327.5" y="684.622" fill="#D9B8FF" font-family="sans-serif" font-size="14" textLength="44">: int64</text><text x="208.5" y="710.919" fill="#D9B8FF" font-family="sans-serif" font-size="14" font-weight="bold" textLength="99">record_retry</text><text x="307.5" y="710.919" fill="#D9B8FF" font-family="sans-serif" font-size="14" textLength="44">: int64</text><text x="208.5" y="737.216" fill="#D9B8FF" font-family="sans-serif" font-size="14" font-weight="bold" textLength="110">record_rname</text><text x="318.5" y="737.216" fill="#D9B8FF" font-family="sans-serif" font-size="14" textLength="48">: string</text><text x="208.5" y="763.513" fill="#D9B8FF" font-family="sans-serif" font-size="14" font-weight="bold" textLength="103">record_serial</text><text x="311.5" y="763.513" fill="#D9B8FF" font-family="sans-serif" font-size="14" textLength="44">: int64</text><text x="208.5" y="789.81" fill="#D9B8FF" font-family="sans-serif" font-size="14" font-weight="bold" textLength="85">record_tag</text><text x="293.5" y="789.81" fill="#D9B8FF" font-family="sans-serif" font-size="14" textLength="48">: string</text><text x="208.5" y="816.107" fill="#D9B8FF" font-family="sans-serif" font-size="14" font-weight="bold" textLength="76">record_ttl</text><text x="284.5" y="816.107" fill="#D9B8FF" font-family="sans-serif" font-size="14" textLength="44">: int64</text><text x="208.5" y="842.404" fill="#D9B8FF" font-family="sans-serif" font-size="14" font-weight="bold" textLength="95">record_type</text><text x="303.5" y="842.404" fill="#D9B8FF" font-family="sans-serif" font-size="14" textLength="48">: string</text><text x="208.5" y="868.7" fill="#D9B8FF" font-family="sans-serif" font-size="14" font-weight="bold" textLength="102">record_value</text><text x="310.5" y="868.7" fill="#D9B8FF" font-family="sans-serif" font-size="14" textLength="48">: string</text><text x="208.5" y="894.997" fill="#D9B8FF" font-family="sans-serif" font-size="14" font-weight="bold" textLength="114">record_weight</text><text x="322.5" y="894.997" fill="#D9B8FF" font-family="sans-serif" font-size="14" textLength="44">: int64</text><rect width="227" height="310.758" x="76" y="7" fill="#3D176E" rx="2.5" ry="2.5" style="stroke:#000d19;stroke-width:.5"/><circle cx="144.75" cy="26.895" r="11" fill="#ADD1B2" style="stroke:#181818;stroke-width:1"/><path d="M147.719 32.535q-.578.297-1.219.438-.64.156-1.344.156-2.5 0-3.828-1.64-1.312-1.657-1.312-4.782t1.312-4.781q1.328-1.656 3.828-1.656.703 0 1.344.156.656.156 1.219.453v2.719q-.625-.578-1.219-.844-.594-.281-1.219-.281-1.344 0-2.031 1.078-.688 1.062-.688 3.156 0 2.094.688 3.172.688 1.062 2.031 1.062.625 0 1.219-.265.594-.281 1.219-.86v2.72Z"/><text x="170.25" y="32.78" fill="#D9B8FF" font-family="Helvetica" font-size="17" textLength="71">resource</text><path d="M77 46.789h225" style="stroke:#000d19;stroke-width:.5"/><text x="87" y="68.784" fill="#D9B8FF" font-family="sans-serif" font-size="14" font-weight="bold" textLength="29">age</text><text x="116" y="68.784" fill="#D9B8FF" font-family="sans-serif" font-size="14" textLength="66">: duration</text><text x="87" y="95.081" fill="#D9B8FF" font-family="sans-serif" font-size="14" font-weight="bold" textLength="43">atime</text><text x="130" y="95.081" fill="#D9B8FF" font-family="sans-serif" font-size="14" textLength="70">: datetime</text><text x="87" y="121.378" fill="#D9B8FF" font-family="sans-serif" font-size="14" font-weight="bold" textLength="43">ctime</text><text x="130" y="121.378" fill="#D9B8FF" font-family="sans-serif" font-size="14" textLength="70">: datetime</text><text x="87" y="147.675" fill="#D9B8FF" font-family="sans-serif" font-size="14" font-weight="bold" textLength="14">id</text><text x="101" y="147.675" fill="#D9B8FF" font-family="sans-serif" font-size="14" textLength="48">: string</text><text x="87" y="173.972" fill="#D9B8FF" font-family="sans-serif" font-size="14" font-weight="bold" textLength="33">kind</text><text x="120" y="173.972" fill="#D9B8FF" font-family="sans-serif" font-size="14" textLength="48">: string</text><text x="87" y="200.269" fill="#D9B8FF" font-family="sans-serif" font-size="14" font-weight="bold" textLength="90">last_access</text><text x="177" y="200.269" fill="#D9B8FF" font-family="sans-serif" font-size="14" textLength="66">: duration</text><text x="87" y="226.565" fill="#D9B8FF" font-family="sans-serif" font-size="14" font-weight="bold" textLength="90">last_update</text><text x="177" y="226.565" fill="#D9B8FF" font-family="sans-serif" font-size="14" textLength="66">: duration</text><text x="87" y="252.862" fill="#D9B8FF" font-family="sans-serif" font-size="14" font-weight="bold" textLength="48">mtime</text><text x="135" y="252.862" fill="#D9B8FF" font-family="sans-serif" font-size="14" textLength="70">: datetime</text><text x="87" y="279.159" fill="#D9B8FF" font-family="sans-serif" font-size="14" font-weight="bold" textLength="43">name</text><text x="130" y="279.159" fill="#D9B8FF" font-family="sans-serif" font-size="14" textLength="48">: string</text><text x="87" y="305.456" fill="#D9B8FF" font-family="sans-serif" font-size="14" font-weight="bold" textLength="34">tags</text><text x="121" y="305.456" fill="#D9B8FF" font-family="sans-serif" font-size="14" textLength="171">: dictionary[string, string]</text><g fill="none"><path d="M153.34 338.55c-22.17 107.4-48.66 235.72-61.35 297.18" style="stroke:#ffaf37;stroke-width:2"/><path d="m146.67 337.24 10.9-18.17 2.81 21-13.71-2.83z" style="stroke:#ffaf37;stroke-width:2"/></g><path fill="none" d="m100.4 730.53 83.72 297.56M93.44 732.64l1.32-21.15 12.15 17.36-13.47 3.79z" style="stroke:#ffaf37;stroke-width:2"/><g fill="none"><path d="M223.44 927.72c-11.95 42.07-22.41 78.9-28.46 100.17" style="stroke:#ffaf37;stroke-width:2"/><path d="m216.92 926.04 12.2-17.33 1.27 21.15-13.47-3.82z" style="stroke:#ffaf37;stroke-width:2"/></g><g fill="none"><path d="M225.97 338.41c6.72 32.23 13.83 66.35 20.84 99.98" style="stroke:#ffaf37;stroke-width:2"/><path d="m218.96 340.07 2.78-21 10.93 18.15-13.71 2.85z" style="stroke:#ffaf37;stroke-width:2"/></g></svg>