<?xml version="1.0" encoding="us-ascii" standalone="no"?><svg xmlns="http://www.w3.org/2000/svg" xmlns:xlink="http://www.w3.org/1999/xlink" contentStyleType="text/css" height="1348px" preserveAspectRatio="none" style="width:481px;height:1348px;" version="1.1" viewBox="0 0 481 1348" width="481px" zoomAndPan="magnify"><defs/><g><!--class aws_resource--><g id="elem_aws_resource"><rect codeLine="22" fill="#3D176E" height="74.0859" id="aws_resource" rx="2.5" ry="2.5" style="stroke:#000D19;stroke-width:0.5;" width="155" x="163" y="438.76"/><ellipse cx="178" cy="458.6545" fill="#ADD1B2" rx="11" ry="11" style="stroke:#181818;stroke-width:1.0;"/><path d="M180.9688,464.2952 Q180.3906,464.592 179.75,464.7327 Q179.1094,464.8889 178.4063,464.8889 Q175.9063,464.8889 174.5781,463.2483 Q173.2656,461.592 173.2656,458.467 Q173.2656,455.342 174.5781,453.6858 Q175.9063,452.0295 178.4063,452.0295 Q179.1094,452.0295 179.75,452.1858 Q180.4063,452.342 180.9688,452.6389 L180.9688,455.3577 Q180.3438,454.7795 179.75,454.5139 Q179.1563,454.2327 178.5313,454.2327 Q177.1875,454.2327 176.5,455.3108 Q175.8125,456.3733 175.8125,458.467 Q175.8125,460.5608 176.5,461.6389 Q177.1875,462.7014 178.5313,462.7014 Q179.1563,462.7014 179.75,462.4358 Q180.3438,462.1545 180.9688,461.5764 L180.9688,464.2952 Z " fill="#000000"/><text fill="#D9B8FF" font-family="Helvetica" font-size="17" lengthAdjust="spacing" textLength="113" x="197" y="464.5398">aws_resource</text><line style="stroke:#000D19;stroke-width:0.5;" x1="164" x2="317" y1="478.5491" y2="478.5491"/><text fill="#D9B8FF" font-family="sans-serif" font-size="14" font-weight="bold" lengthAdjust="spacing" textLength="26" x="174" y="500.5442">arn</text><text fill="#D9B8FF" font-family="sans-serif" font-size="14" lengthAdjust="spacing" textLength="48" x="200" y="500.5442">: string</text></g><!--class aws_sqs_queue--><g id="elem_aws_sqs_queue"><rect codeLine="25" fill="#3D176E" height="547.4297" id="aws_sqs_queue" rx="2.5" ry="2.5" style="stroke:#000D19;stroke-width:0.5;" width="467" x="7" y="633.85"/><ellipse cx="166.75" cy="653.7445" fill="#ADD1B2" rx="11" ry="11" style="stroke:#181818;stroke-width:1.0;"/><path d="M169.7188,659.3852 Q169.1406,659.682 168.5,659.8227 Q167.8594,659.9789 167.1563,659.9789 Q164.6563,659.9789 163.3281,658.3383 Q162.0156,656.682 162.0156,653.557 Q162.0156,650.432 163.3281,648.7758 Q164.6563,647.1195 167.1563,647.1195 Q167.8594,647.1195 168.5,647.2758 Q169.1563,647.432 169.7188,647.7289 L169.7188,650.4477 Q169.0938,649.8695 168.5,649.6039 Q167.9063,649.3227 167.2813,649.3227 Q165.9375,649.3227 165.25,650.4008 Q164.5625,651.4633 164.5625,653.557 Q164.5625,655.6508 165.25,656.7289 Q165.9375,657.7914 167.2813,657.7914 Q167.9063,657.7914 168.5,657.5258 Q169.0938,657.2445 169.7188,656.6664 L169.7188,659.3852 Z " fill="#000000"/><text fill="#D9B8FF" font-family="Helvetica" font-size="17" lengthAdjust="spacing" textLength="129" x="192.25" y="659.6298">aws_sqs_queue</text><line style="stroke:#000D19;stroke-width:0.5;" x1="8" x2="473" y1="673.6391" y2="673.6391"/><text fill="#D9B8FF" font-family="sans-serif" font-size="14" font-weight="bold" lengthAdjust="spacing" textLength="311" x="18" y="695.6342">sqs_approximate_number_of_messages</text><text fill="#D9B8FF" font-family="sans-serif" font-size="14" lengthAdjust="spacing" textLength="44" x="329" y="695.6342">: int64</text><text fill="#D9B8FF" font-family="sans-serif" font-size="14" font-weight="bold" lengthAdjust="spacing" textLength="380" x="18" y="721.9311">sqs_approximate_number_of_messages_delayed</text><text fill="#D9B8FF" font-family="sans-serif" font-size="14" lengthAdjust="spacing" textLength="44" x="398" y="721.9311">: int64</text><text fill="#D9B8FF" font-family="sans-serif" font-size="14" font-weight="bold" lengthAdjust="spacing" textLength="401" x="18" y="748.2279">sqs_approximate_number_of_messages_not_visible</text><text fill="#D9B8FF" font-family="sans-serif" font-size="14" lengthAdjust="spacing" textLength="44" x="419" y="748.2279">: int64</text><text fill="#D9B8FF" font-family="sans-serif" font-size="14" font-weight="bold" lengthAdjust="spacing" textLength="264" x="18" y="774.5248">sqs_content_based_deduplication</text><text fill="#D9B8FF" font-family="sans-serif" font-size="14" lengthAdjust="spacing" textLength="65" x="282" y="774.5248">: boolean</text><text fill="#D9B8FF" font-family="sans-serif" font-size="14" font-weight="bold" lengthAdjust="spacing" textLength="196" x="18" y="800.8217">sqs_deduplication_scope</text><text fill="#D9B8FF" font-family="sans-serif" font-size="14" lengthAdjust="spacing" textLength="48" x="214" y="800.8217">: string</text><text fill="#D9B8FF" font-family="sans-serif" font-size="14" font-weight="bold" lengthAdjust="spacing" textLength="151" x="18" y="827.1186">sqs_delay_seconds</text><text fill="#D9B8FF" font-family="sans-serif" font-size="14" lengthAdjust="spacing" textLength="44" x="169" y="827.1186">: int64</text><text fill="#D9B8FF" font-family="sans-serif" font-size="14" font-weight="bold" lengthAdjust="spacing" textLength="118" x="18" y="853.4154">sqs_fifo_queue</text><text fill="#D9B8FF" font-family="sans-serif" font-size="14" lengthAdjust="spacing" textLength="65" x="136" y="853.4154">: boolean</text><text fill="#D9B8FF" font-family="sans-serif" font-size="14" font-weight="bold" lengthAdjust="spacing" textLength="196" x="18" y="879.7123">sqs_fifo_throughput_limit</text><text fill="#D9B8FF" font-family="sans-serif" font-size="14" lengthAdjust="spacing" textLength="48" x="214" y="879.7123">: string</text><text fill="#D9B8FF" font-family="sans-serif" font-size="14" font-weight="bold" lengthAdjust="spacing" textLength="328" x="18" y="906.0092">sqs_kms_data_key_reuse_period_seconds</text><text fill="#D9B8FF" font-family="sans-serif" font-size="14" lengthAdjust="spacing" textLength="44" x="346" y="906.0092">: int64</text><text fill="#D9B8FF" font-family="sans-serif" font-size="14" font-weight="bold" lengthAdjust="spacing" textLength="185" x="18" y="932.3061">sqs_kms_master_key_id</text><text fill="#D9B8FF" font-family="sans-serif" font-size="14" lengthAdjust="spacing" textLength="48" x="203" y="932.3061">: string</text><text fill="#D9B8FF" font-family="sans-serif" font-size="14" font-weight="bold" lengthAdjust="spacing" textLength="212" x="18" y="958.6029">sqs_managed_sse_enabled</text><text fill="#D9B8FF" font-family="sans-serif" font-size="14" lengthAdjust="spacing" textLength="65" x="230" y="958.6029">: boolean</text><text fill="#D9B8FF" font-family="sans-serif" font-size="14" font-weight="bold" lengthAdjust="spacing" textLength="226" x="18" y="984.8998">sqs_maximum_message_size</text><text fill="#D9B8FF" font-family="sans-serif" font-size="14" lengthAdjust="spacing" textLength="44" x="244" y="984.8998">: int64</text><text fill="#D9B8FF" font-family="sans-serif" font-size="14" font-weight="bold" lengthAdjust="spacing" textLength="244" x="18" y="1011.1967">sqs_message_retention_period</text><text fill="#D9B8FF" font-family="sans-serif" font-size="14" lengthAdjust="spacing" textLength="44" x="262" y="1011.1967">: int64</text><text fill="#D9B8FF" font-family="sans-serif" font-size="14" font-weight="bold" lengthAdjust="spacing" textLength="81" x="18" y="1037.4936">sqs_policy</text><text fill="#D9B8FF" font-family="sans-serif" font-size="14" lengthAdjust="spacing" textLength="156" x="99" y="1037.4936">: dictionary[string, any]</text><text fill="#D9B8FF" font-family="sans-serif" font-size="14" font-weight="bold" lengthAdjust="spacing" textLength="113" x="18" y="1063.7904">sqs_queue_url</text><text fill="#D9B8FF" font-family="sans-serif" font-size="14" lengthAdjust="spacing" textLength="48" x="131" y="1063.7904">: string</text><text fill="#D9B8FF" font-family="sans-serif" font-size="14" font-weight="bold" lengthAdjust="spacing" textLength="327" x="18" y="1090.0873">sqs_receive_message_wait_time_seconds</text><text fill="#D9B8FF" font-family="sans-serif" font-size="14" lengthAdjust="spacing" textLength="44" x="345" y="1090.0873">: int64</text><text fill="#D9B8FF" font-family="sans-serif" font-size="14" font-weight="bold" lengthAdjust="spacing" textLength="193" x="18" y="1116.3842">sqs_redrive_allow_policy</text><text fill="#D9B8FF" font-family="sans-serif" font-size="14" lengthAdjust="spacing" textLength="48" x="211" y="1116.3842">: string</text><text fill="#D9B8FF" font-family="sans-serif" font-size="14" font-weight="bold" lengthAdjust="spacing" textLength="145" x="18" y="1142.6811">sqs_redrive_policy</text><text fill="#D9B8FF" font-family="sans-serif" font-size="14" lengthAdjust="spacing" textLength="168" x="163" y="1142.6811">: aws_sqs_redrive_policy</text><text fill="#D9B8FF" font-family="sans-serif" font-size="14" font-weight="bold" lengthAdjust="spacing" textLength="165" x="18" y="1168.9779">sqs_visibility_timeout</text><text fill="#D9B8FF" font-family="sans-serif" font-size="14" lengthAdjust="spacing" textLength="44" x="183" y="1168.9779">: int64</text></g><!--class aws_sqs_redrive_policy--><g id="elem_aws_sqs_redrive_policy"><rect codeLine="46" fill="#3D176E" height="100.3828" id="aws_sqs_redrive_policy" rx="2.5" ry="2.5" style="stroke:#000D19;stroke-width:0.5;" width="247" x="117" y="1241.28"/><ellipse cx="137.4" cy="1261.1745" fill="#ADD1B2" rx="11" ry="11" style="stroke:#181818;stroke-width:1.0;"/><path d="M140.3688,1266.8152 Q139.7906,1267.112 139.15,1267.2527 Q138.5094,1267.4089 137.8063,1267.4089 Q135.3063,1267.4089 133.9781,1265.7683 Q132.6656,1264.112 132.6656,1260.987 Q132.6656,1257.862 133.9781,1256.2058 Q135.3063,1254.5495 137.8063,1254.5495 Q138.5094,1254.5495 139.15,1254.7058 Q139.8063,1254.862 140.3688,1255.1589 L140.3688,1257.8777 Q139.7438,1257.2995 139.15,1257.0339 Q138.5563,1256.7527 137.9313,1256.7527 Q136.5875,1256.7527 135.9,1257.8308 Q135.2125,1258.8933 135.2125,1260.987 Q135.2125,1263.0808 135.9,1264.1589 Q136.5875,1265.2214 137.9313,1265.2214 Q138.5563,1265.2214 139.15,1264.9558 Q139.7438,1264.6745 140.3688,1264.0964 L140.3688,1266.8152 Z " fill="#000000"/><text fill="#D9B8FF" font-family="Helvetica" font-size="17" lengthAdjust="spacing" textLength="193" x="157.6" y="1267.0598">aws_sqs_redrive_policy</text><line style="stroke:#000D19;stroke-width:0.5;" x1="118" x2="363" y1="1281.0691" y2="1281.0691"/><text fill="#D9B8FF" font-family="sans-serif" font-size="14" font-weight="bold" lengthAdjust="spacing" textLength="177" x="128" y="1303.0642">dead_letter_target_arn</text><text fill="#D9B8FF" font-family="sans-serif" font-size="14" lengthAdjust="spacing" textLength="48" x="305" y="1303.0642">: string</text><text fill="#D9B8FF" font-family="sans-serif" font-size="14" font-weight="bold" lengthAdjust="spacing" textLength="150" x="128" y="1329.3611">max_receive_count</text><text fill="#D9B8FF" font-family="sans-serif" font-size="14" lengthAdjust="spacing" textLength="44" x="278" y="1329.3611">: int64</text></g><!--class resource--><g id="elem_resource"><rect codeLine="50" fill="#3D176E" height="310.7578" id="resource" rx="2.5" ry="2.5" style="stroke:#000D19;stroke-width:0.5;" width="227" x="127" y="7"/><ellipse cx="195.75" cy="26.8945" fill="#ADD1B2" rx="11" ry="11" style="stroke:#181818;stroke-width:1.0;"/><path d="M198.7188,32.5352 Q198.1406,32.832 197.5,32.9727 Q196.8594,33.1289 196.1563,33.1289 Q193.6563,33.1289 192.3281,31.4883 Q191.0156,29.832 191.0156,26.707 Q191.0156,23.582 192.3281,21.9258 Q193.6563,20.2695 196.1563,20.2695 Q196.8594,20.2695 197.5,20.4258 Q198.1563,20.582 198.7188,20.8789 L198.7188,23.5977 Q198.0938,23.0195 197.5,22.7539 Q196.9063,22.4727 196.2813,22.4727 Q194.9375,22.4727 194.25,23.5508 Q193.5625,24.6133 193.5625,26.707 Q193.5625,28.8008 194.25,29.8789 Q194.9375,30.9414 196.2813,30.9414 Q196.9063,30.9414 197.5,30.6758 Q198.0938,30.3945 198.7188,29.8164 L198.7188,32.5352 Z " fill="#000000"/><text fill="#D9B8FF" font-family="Helvetica" font-size="17" lengthAdjust="spacing" textLength="71" x="221.25" y="32.7798">resource</text><line style="stroke:#000D19;stroke-width:0.5;" x1="128" x2="353" y1="46.7891" y2="46.7891"/><text fill="#D9B8FF" font-family="sans-serif" font-size="14" font-weight="bold" lengthAdjust="spacing" textLength="29" x="138" y="68.7842">age</text><text fill="#D9B8FF" font-family="sans-serif" font-size="14" lengthAdjust="spacing" textLength="66" x="167" y="68.7842">: duration</text><text fill="#D9B8FF" font-family="sans-serif" font-size="14" font-weight="bold" lengthAdjust="spacing" textLength="43" x="138" y="95.0811">atime</text><text fill="#D9B8FF" font-family="sans-serif" font-size="14" lengthAdjust="spacing" textLength="70" x="181" y="95.0811">: datetime</text><text fill="#D9B8FF" font-family="sans-serif" font-size="14" font-weight="bold" lengthAdjust="spacing" textLength="43" x="138" y="121.3779">ctime</text><text fill="#D9B8FF" font-family="sans-serif" font-size="14" lengthAdjust="spacing" textLength="70" x="181" y="121.3779">: datetime</text><text fill="#D9B8FF" font-family="sans-serif" font-size="14" font-weight="bold" lengthAdjust="spacing" textLength="14" x="138" y="147.6748">id</text><text fill="#D9B8FF" font-family="sans-serif" font-size="14" lengthAdjust="spacing" textLength="48" x="152" y="147.6748">: string</text><text fill="#D9B8FF" font-family="sans-serif" font-size="14" font-weight="bold" lengthAdjust="spacing" textLength="33" x="138" y="173.9717">kind</text><text fill="#D9B8FF" font-family="sans-serif" font-size="14" lengthAdjust="spacing" textLength="48" x="171" y="173.9717">: string</text><text fill="#D9B8FF" font-family="sans-serif" font-size="14" font-weight="bold" lengthAdjust="spacing" textLength="90" x="138" y="200.2686">last_access</text><text fill="#D9B8FF" font-family="sans-serif" font-size="14" lengthAdjust="spacing" textLength="66" x="228" y="200.2686">: duration</text><text fill="#D9B8FF" font-family="sans-serif" font-size="14" font-weight="bold" lengthAdjust="spacing" textLength="90" x="138" y="226.5654">last_update</text><text fill="#D9B8FF" font-family="sans-serif" font-size="14" lengthAdjust="spacing" textLength="66" x="228" y="226.5654">: duration</text><text fill="#D9B8FF" font-family="sans-serif" font-size="14" font-weight="bold" lengthAdjust="spacing" textLength="48" x="138" y="252.8623">mtime</text><text fill="#D9B8FF" font-family="sans-serif" font-size="14" lengthAdjust="spacing" textLength="70" x="186" y="252.8623">: datetime</text><text fill="#D9B8FF" font-family="sans-serif" font-size="14" font-weight="bold" lengthAdjust="spacing" textLength="43" x="138" y="279.1592">name</text><text fill="#D9B8FF" font-family="sans-serif" font-size="14" lengthAdjust="spacing" textLength="48" x="181" y="279.1592">: string</text><text fill="#D9B8FF" font-family="sans-serif" font-size="14" font-weight="bold" lengthAdjust="spacing" textLength="34" x="138" y="305.4561">tags</text><text fill="#D9B8FF" font-family="sans-serif" font-size="14" lengthAdjust="spacing" textLength="171" x="172" y="305.4561">: dictionary[string, string]</text></g><!--reverse link resource to aws_resource--><g id="link_resource_aws_resource"><path codeLine="62" d="M240.5,338.98 C240.5,376.79 240.5,413 240.5,438.52 " fill="none" id="resource-backto-aws_resource" style="stroke:#FFAF37;stroke-width:2.0;"/><polygon fill="none" points="233.5,339.18,240.5,319.18,247.5,339.18,233.5,339.18" style="stroke:#FFAF37;stroke-width:2.0;"/></g><!--reverse link aws_resource to aws_sqs_queue--><g id="link_aws_resource_aws_sqs_queue"><path codeLine="63" d="M240.5,533.71 C240.5,561.07 240.5,596.06 240.5,633.6 " fill="none" id="aws_resource-backto-aws_sqs_queue" style="stroke:#FFAF37;stroke-width:2.0;"/><polygon fill="none" points="233.5,534.08,240.5,514.08,247.5,534.08,233.5,534.08" style="stroke:#FFAF37;stroke-width:2.0;"/></g><!--link aws_sqs_queue to aws_sqs_redrive_policy--><g id="link_aws_sqs_queue_aws_sqs_redrive_policy"><path codeLine="64" d="M240.5,1181.54 C240.5,1201.21 240.5,1219.45 240.5,1235.16 " fill="none" id="aws_sqs_queue-to-aws_sqs_redrive_policy" style="stroke:#FFAF37;stroke-width:2.0;"/><polygon fill="#FFAF37" points="240.5,1239.83,244.5,1230.83,240.5,1234.83,236.5,1230.83,240.5,1239.83" style="stroke:#FFAF37;stroke-width:2.0;"/></g><!--SRC=[bLJBRjj03BpxAmJaPjH0qhHn4XG5qW15UmcAfhSYMD1QIbvu7yekrwxw-FTo9TlHmqxQKnnoTZWSabegYHcQYkhCe5cW3vEmKhO23oQxyTvjRfrsFZif2YZEvyFaHsVfHS0T6Cm-eLuZgHo6Y6zBbQyiXf2zxgG-GBuglOjMjlJamGPEeQKEwbP323T4NYqYOKUCl5fS5iKGEIGzEPTdymiSmPoNwBUGqzDJUNOrXBnOwjc-zuXxzHEpiwvfTuvm97DKea4zgp8XEY97ZUxoHpL-0IcLBREtdTZNLfEtw7ln-oL8jqde0dJebWc47XtL5TwEkiAhIrdC3u8_7mFdoRaCDa5u32xw7BDVa-aKl9rEhvd0iuZ9dmuiF0Rn636skFGVL9LtFvG1Gc5ZMddX2c5u0Q74a6YKfOit_uGM4ZNKAF_pbNKarYgeXSRXovndmZik5X1GChsCbUR1a79DXmldD8BTWdjf4N9NOSU67OOLYe1CB4VT5QfmhJrZyYP7Inv2kQmY2QsCeX7zod09810hh7acCQ2eq2idZvLC3moaKJTFb1nH6h3i4XCm5rfWa-HOdG6sDvgTfoBm9GrBxN8UawN9ebRQ45Svzh1EKQdoX0DVVsyblSh0rWzRN6EKY5wF97lCKQrnNt43YWGfWyTSy2XzUW1Qkqr7m82r1JsbTnlTpspXpKOfhQXkIhj8JrM79z4dQ6v38aYXaT9a27o99FfdDPsowVjMSpxE0mNwPrasCv7HDnkQ8abP4-FJIByvbX-83TQ2Fn7z0DTYUNdEVWygD9bO9Qv1nXoeOy7qJuQW34SseVtxmAtkctptUpQRzJv7azwtwIc_tvz9_wiqcxq_CfI_]--></g></svg>