<svg xmlns="http://www.w3.org/2000/svg" viewBox="0 0 403 152"><rect width="194" height="39.789" x="7" y="106.79" fill="#3D176E" rx="2.5" ry="2.5" style="stroke:#000d19;stroke-width:.5"/><circle cx="22" cy="126.684" r="11" fill="#ADD1B2" style="stroke:#181818;stroke-width:1"/><path d="M24.969 132.325q-.578.297-1.219.438-.64.156-1.344.156-2.5 0-3.828-1.64-1.312-1.657-1.312-4.782t1.312-4.781q1.328-1.656 3.828-1.656.703 0 1.344.156.656.156 1.219.453v2.719q-.625-.579-1.219-.844-.594-.281-1.219-.281-1.343 0-2.031 1.078-.688 1.062-.688 3.156 0 2.094.688 3.172.688 1.062 2.031 1.062.625 0 1.219-.265.594-.281 1.219-.86v2.72Z"/><text x="41" y="132.57" fill="#D9B8FF" font-family="Helvetica" font-size="17" textLength="152">aws_sns_endpoint</text><rect width="292" height="39.789" x="64" y="7" fill="#3D176E" rx="2.5" ry="2.5" style="stroke:#000d19;stroke-width:.5"/><circle cx="79" cy="26.895" r="11" fill="#ADD1B2" style="stroke:#181818;stroke-width:1"/><path d="M81.969 32.535q-.578.297-1.219.438-.64.156-1.344.156-2.5 0-3.828-1.64-1.312-1.657-1.312-4.782t1.312-4.781q1.328-1.656 3.828-1.656.703 0 1.344.156.656.156 1.219.453v2.719q-.625-.578-1.219-.844-.594-.281-1.219-.281-1.344 0-2.031 1.078-.688 1.062-.688 3.156 0 2.094.688 3.172.688 1.062 2.031 1.062.625 0 1.219-.265.594-.281 1.219-.86v2.72Z"/><text x="98" y="32.78" fill="#D9B8FF" font-family="Helvetica" font-size="17" textLength="250">aws_sns_platform_application</text><rect width="160" height="39.789" x="236" y="106.79" fill="#3D176E" rx="2.5" ry="2.5" style="stroke:#000d19;stroke-width:.5"/><circle cx="251" cy="126.684" r="11" fill="#ADD1B2" style="stroke:#181818;stroke-width:1"/><path d="M253.969 132.325q-.578.297-1.219.438-.64.156-1.344.156-2.5 0-3.828-1.64-1.312-1.657-1.312-4.782t1.312-4.781q1.328-1.656 3.828-1.656.703 0 1.344.156.656.156 1.219.453v2.719q-.625-.579-1.219-.844-.594-.281-1.219-.281-1.344 0-2.031 1.078-.688 1.062-.688 3.156 0 2.094.688 3.172.688 1.062 2.031 1.062.625 0 1.219-.265.594-.281 1.219-.86v2.72Z"/><text x="270" y="132.57" fill="#D9B8FF" font-family="Helvetica" font-size="17" textLength="118">aws_sns_topic</text><path fill="none" d="M189.06 47.22c-17.28 15.93-41.84 38.59-60.12 55.46" style="stroke:#1a83af;stroke-width:2"/><path fill="#1A83AF" d="m125.9 105.41 9.328-3.16-5.652-.23.228-5.652-3.904 9.042z" style="stroke:#1a83af;stroke-width:2"/><path fill="none" d="M230.94 47.22c17.28 15.93 41.84 38.59 60.12 55.46" style="stroke:#1a83af;stroke-width:2"/><path fill="#1A83AF" d="m294.1 105.41-3.905-9.042.23 5.652-5.653.23 9.328 3.16z" style="stroke:#1a83af;stroke-width:2"/></svg>