<svg xmlns="http://www.w3.org/2000/svg" xmlns:xlink="http://www.w3.org/1999/xlink" width="1016" height="252" preserveAspectRatio="none" style="width:1016px;height:252px"><a xlink:actuate="onRequest" xlink:href="#a" xlink:show="new" xlink:title="#aws_kms_key" xlink:type="simple" target="_top"><rect id="a" width="158" height="39.789" x="404" y="206.58" fill="#3D176E" rx="2.5" ry="2.5" style="stroke:#000d19;stroke-width:.5"/><circle cx="419" cy="226.475" r="11" fill="#ADD1B2" style="stroke:#181818;stroke-width:1"/><path d="M421.969 232.115q-.578.297-1.219.438-.64.156-1.344.156-2.5 0-3.828-1.64-1.312-1.657-1.312-4.782t1.312-4.781q1.328-1.656 3.828-1.656.703 0 1.344.156.656.156 1.219.453v2.719q-.625-.578-1.219-.844-.594-.281-1.219-.281-1.344 0-2.031 1.078-.688 1.062-.688 3.156 0 2.094.688 3.172.688 1.062 2.031 1.062.625 0 1.219-.265.594-.281 1.219-.86v2.72Z"/><text x="438" y="232.36" fill="#D9B8FF" font-family="Helvetica" font-size="17" textLength="116">aws_kms_key</text></a><a xlink:actuate="onRequest" xlink:href="#b" xlink:show="new" xlink:title="#aws_ec2_subnet" xlink:type="simple" target="_top"><rect id="b" width="179" height="39.789" x="830.5" y="7" fill="#3D176E" rx="2.5" ry="2.5" style="stroke:#000d19;stroke-width:.5"/><circle cx="845.5" cy="26.895" r="11" fill="#ADD1B2" style="stroke:#181818;stroke-width:1"/><path d="M848.469 32.535q-.578.297-1.219.438-.64.156-1.344.156-2.5 0-3.828-1.64-1.312-1.657-1.312-4.782t1.312-4.781q1.328-1.656 3.828-1.656.703 0 1.344.156.656.156 1.219.453v2.719q-.625-.578-1.219-.844-.594-.281-1.219-.281-1.343 0-2.031 1.078-.688 1.062-.688 3.156 0 2.094.688 3.172.688 1.062 2.031 1.062.625 0 1.219-.265.594-.281 1.219-.86v2.72Z"/><text x="864.5" y="32.78" fill="#D9B8FF" font-family="Helvetica" font-size="17" textLength="137">aws_ec2_subnet</text></a><a xlink:actuate="onRequest" xlink:href="#c" xlink:show="new" xlink:title="#aws_ec2_security_group" xlink:type="simple" target="_top"><rect id="c" width="245" height="39.789" x="550.5" y="7" fill="#3D176E" rx="2.5" ry="2.5" style="stroke:#000d19;stroke-width:.5"/><circle cx="565.5" cy="26.895" r="11" fill="#ADD1B2" style="stroke:#181818;stroke-width:1"/><path d="M568.469 32.535q-.578.297-1.219.438-.64.156-1.344.156-2.5 0-3.828-1.64-1.312-1.657-1.312-4.782t1.312-4.781q1.328-1.656 3.828-1.656.703 0 1.344.156.656.156 1.219.453v2.719q-.625-.578-1.219-.844-.594-.281-1.219-.281-1.343 0-2.031 1.078-.688 1.062-.688 3.156 0 2.094.688 3.172.688 1.062 2.031 1.062.625 0 1.219-.265.594-.281 1.219-.86v2.72Z"/><text x="584.5" y="32.78" fill="#D9B8FF" font-family="Helvetica" font-size="17" textLength="203">aws_ec2_security_group</text></a><a xlink:actuate="onRequest" xlink:href="#d" xlink:show="new" xlink:title="#aws_iam_role" xlink:type="simple" target="_top"><rect id="d" width="157" height="39.789" x="358.5" y="7" fill="#3D176E" rx="2.5" ry="2.5" style="stroke:#000d19;stroke-width:.5"/><circle cx="373.5" cy="26.895" r="11" fill="#ADD1B2" style="stroke:#181818;stroke-width:1"/><path d="M376.469 32.535q-.578.297-1.219.438-.64.156-1.344.156-2.5 0-3.828-1.64-1.312-1.657-1.312-4.782t1.312-4.781q1.328-1.656 3.828-1.656.703 0 1.344.156.656.156 1.219.453v2.719q-.625-.578-1.219-.844-.594-.281-1.219-.281-1.344 0-2.031 1.078-.688 1.062-.688 3.156 0 2.094.688 3.172.688 1.062 2.031 1.062.625 0 1.219-.265.594-.281 1.219-.86v2.72Z"/><text x="392.5" y="32.78" fill="#D9B8FF" font-family="Helvetica" font-size="17" textLength="115">aws_iam_role</text></a><a xlink:actuate="onRequest" xlink:href="#e" xlink:show="new" xlink:title="#aws_ec2_network_interface" xlink:type="simple" target="_top"><rect id="e" width="275" height="39.789" x="596.5" y="206.58" fill="#3D176E" rx="2.5" ry="2.5" style="stroke:#000d19;stroke-width:.5"/><circle cx="611.5" cy="226.475" r="11" fill="#ADD1B2" style="stroke:#181818;stroke-width:1"/><path d="M614.469 232.115q-.578.297-1.219.438-.64.156-1.344.156-2.5 0-3.828-1.64-1.312-1.657-1.312-4.782t1.312-4.781q1.328-1.656 3.828-1.656.703 0 1.344.156.656.156 1.219.453v2.719q-.625-.578-1.219-.844-.594-.281-1.219-.281-1.343 0-2.031 1.078-.688 1.062-.688 3.156 0 2.094.688 3.172.688 1.062 2.031 1.062.625 0 1.219-.265.594-.281 1.219-.86v2.72Z"/><text x="630.5" y="232.36" fill="#D9B8FF" font-family="Helvetica" font-size="17" textLength="233">aws_ec2_network_interface</text></a><a xlink:actuate="onRequest" xlink:href="#f" xlink:show="new" xlink:title="#aws_sagemaker_notebook" xlink:type="simple" target="_top"><rect id="f" width="263" height="39.789" x="384.5" y="106.79" fill="#3D176E" rx="2.5" ry="2.5" style="stroke:#000d19;stroke-width:.5"/><circle cx="399.5" cy="126.684" r="11" fill="#ADD1B2" style="stroke:#181818;stroke-width:1"/><path d="M402.469 132.325q-.578.297-1.219.438-.64.156-1.344.156-2.5 0-3.828-1.64-1.312-1.657-1.312-4.782t1.312-4.781q1.328-1.656 3.828-1.656.703 0 1.344.156.656.156 1.219.453v2.719q-.625-.579-1.219-.844-.594-.281-1.219-.281-1.344 0-2.031 1.078-.688 1.062-.688 3.156 0 2.094.688 3.172.688 1.062 2.031 1.062.625 0 1.219-.265.594-.281 1.219-.86v2.72Z"/><text x="418.5" y="132.57" fill="#D9B8FF" font-family="Helvetica" font-size="17" textLength="221">aws_sagemaker_notebook</text></a><a xlink:actuate="onRequest" xlink:href="#g" xlink:show="new" xlink:title="#aws_sagemaker_code_repository" xlink:type="simple" target="_top"><rect id="g" width="316" height="39.789" x="7" y="7" fill="#3D176E" rx="2.5" ry="2.5" style="stroke:#000d19;stroke-width:.5"/><circle cx="22" cy="26.895" r="11" fill="#ADD1B2" style="stroke:#181818;stroke-width:1"/><path d="M24.969 32.535q-.578.297-1.219.438-.64.156-1.344.156-2.5 0-3.828-1.64-1.312-1.657-1.312-4.782t1.312-4.781q1.328-1.656 3.828-1.656.703 0 1.344.156.656.156 1.219.453v2.719q-.625-.578-1.219-.844-.594-.281-1.219-.281-1.343 0-2.031 1.078-.688 1.062-.688 3.156 0 2.094.688 3.172.688 1.062 2.031 1.062.625 0 1.219-.265.594-.281 1.219-.86v2.72Z"/><text x="41" y="32.78" fill="#D9B8FF" font-family="Helvetica" font-size="17" textLength="274">aws_sagemaker_code_repository</text></a><path fill="none" d="M901.83 47.2c-34.31 36.45-108.51 115.26-145.67 154.74" style="stroke:#1a83af;stroke-width:2"/><path fill="#1A83AF" d="m753.25 205.09 9.081-3.812-5.654.171-.172-5.654-3.255 9.295z" style="stroke:#1a83af;stroke-width:2"/><path fill="none" d="M840.18 47.22C771.27 63.9 671.96 87.94 601.45 105" style="stroke:#1a83af;stroke-width:2"/><path fill="#1A83AF" d="m597 106.32 9.692 1.752-4.835-2.938 2.938-4.834-7.795 6.02z" style="stroke:#1a83af;stroke-width:2"/><path fill="none" d="M641.98 47.22c-25.91 16.14-62.88 39.16-90.07 56.1" style="stroke:#1a83af;stroke-width:2"/><path fill="#1A83AF" d="m547.95 106.41 9.754-1.363-5.51-1.28 1.28-5.51-5.524 8.153z" style="stroke:#1a83af;stroke-width:2"/><path fill="none" d="M678.96 47.2c11.12 36 34.99 113.35 47.32 153.28" style="stroke:#1a83af;stroke-width:2"/><path fill="#1A83AF" d="m728.02 205.09 1.17-9.78-2.643 5.002-5.002-2.644 6.475 7.422z" style="stroke:#1a83af;stroke-width:2"/><path fill="none" d="M452.61 47.22c12.66 15.67 30.56 37.83 44.12 54.61" style="stroke:#1a83af;stroke-width:2"/><path fill="#1A83AF" d="m500.42 105.41-2.55-9.513-.594 5.625-5.626-.594 8.77 4.482z" style="stroke:#1a83af;stroke-width:2"/><path fill="none" d="M559.07 147.01c36.58 16.4 89.02 39.93 126.93 56.94" style="stroke:#1a83af;stroke-width:2"/><path fill="#1A83AF" d="m690.02 206.2-6.585-7.324 2.02 5.284-5.284 2.02 9.849.02z" style="stroke:#1a83af;stroke-width:2"/><path fill="none" d="M509.48 147.01c-5.2 15.4-12.51 37.07-18.14 53.74" style="stroke:#1a83af;stroke-width:2"/><path fill="#1A83AF" d="m489.51 205.2 6.674-7.243-5.071 2.507-2.507-5.071.904 9.807z" style="stroke:#1a83af;stroke-width:2"/><path fill="none" d="M234.35 47.22c59.63 16.61 145.46 40.52 206.67 57.58" style="stroke:#1a83af;stroke-width:2"/><path fill="#1A83AF" d="m445.5 106.32-7.594-6.271 2.778 4.928-4.928 2.778 9.744-1.435z" style="stroke:#1a83af;stroke-width:2"/></svg>