<?xml version="1.0" encoding="us-ascii" standalone="no"?><svg xmlns="http://www.w3.org/2000/svg" xmlns:xlink="http://www.w3.org/1999/xlink" contentStyleType="text/css" height="1548px" preserveAspectRatio="none" style="width:364px;height:1548px;" version="1.1" viewBox="0 0 364 1548" width="364px" zoomAndPan="magnify"><defs/><g><!--class resource--><g id="elem_resource"><rect codeLine="22" fill="#3D176E" height="310.7578" id="resource" rx="2.5" ry="2.5" style="stroke:#000D19;stroke-width:0.5;" width="227" x="7" y="7"/><ellipse cx="75.75" cy="26.8945" fill="#ADD1B2" rx="11" ry="11" style="stroke:#181818;stroke-width:1.0;"/><path d="M78.7188,32.5352 Q78.1406,32.832 77.5,32.9727 Q76.8594,33.1289 76.1563,33.1289 Q73.6563,33.1289 72.3281,31.4883 Q71.0156,29.832 71.0156,26.707 Q71.0156,23.582 72.3281,21.9258 Q73.6563,20.2695 76.1563,20.2695 Q76.8594,20.2695 77.5,20.4258 Q78.1563,20.582 78.7188,20.8789 L78.7188,23.5977 Q78.0938,23.0195 77.5,22.7539 Q76.9063,22.4727 76.2813,22.4727 Q74.9375,22.4727 74.25,23.5508 Q73.5625,24.6133 73.5625,26.707 Q73.5625,28.8008 74.25,29.8789 Q74.9375,30.9414 76.2813,30.9414 Q76.9063,30.9414 77.5,30.6758 Q78.0938,30.3945 78.7188,29.8164 L78.7188,32.5352 Z " fill="#000000"/><text fill="#D9B8FF" font-family="Helvetica" font-size="17" lengthAdjust="spacing" textLength="71" x="101.25" y="32.7798">resource</text><line style="stroke:#000D19;stroke-width:0.5;" x1="8" x2="233" y1="46.7891" y2="46.7891"/><text fill="#D9B8FF" font-family="sans-serif" font-size="14" font-weight="bold" lengthAdjust="spacing" textLength="29" x="18" y="68.7842">age</text><text fill="#D9B8FF" font-family="sans-serif" font-size="14" lengthAdjust="spacing" textLength="66" x="47" y="68.7842">: duration</text><text fill="#D9B8FF" font-family="sans-serif" font-size="14" font-weight="bold" lengthAdjust="spacing" textLength="43" x="18" y="95.0811">atime</text><text fill="#D9B8FF" font-family="sans-serif" font-size="14" lengthAdjust="spacing" textLength="70" x="61" y="95.0811">: datetime</text><text fill="#D9B8FF" font-family="sans-serif" font-size="14" font-weight="bold" lengthAdjust="spacing" textLength="43" x="18" y="121.3779">ctime</text><text fill="#D9B8FF" font-family="sans-serif" font-size="14" lengthAdjust="spacing" textLength="70" x="61" y="121.3779">: datetime</text><text fill="#D9B8FF" font-family="sans-serif" font-size="14" font-weight="bold" lengthAdjust="spacing" textLength="14" x="18" y="147.6748">id</text><text fill="#D9B8FF" font-family="sans-serif" font-size="14" lengthAdjust="spacing" textLength="48" x="32" y="147.6748">: string</text><text fill="#D9B8FF" font-family="sans-serif" font-size="14" font-weight="bold" lengthAdjust="spacing" textLength="33" x="18" y="173.9717">kind</text><text fill="#D9B8FF" font-family="sans-serif" font-size="14" lengthAdjust="spacing" textLength="48" x="51" y="173.9717">: string</text><text fill="#D9B8FF" font-family="sans-serif" font-size="14" font-weight="bold" lengthAdjust="spacing" textLength="90" x="18" y="200.2686">last_access</text><text fill="#D9B8FF" font-family="sans-serif" font-size="14" lengthAdjust="spacing" textLength="66" x="108" y="200.2686">: duration</text><text fill="#D9B8FF" font-family="sans-serif" font-size="14" font-weight="bold" lengthAdjust="spacing" textLength="90" x="18" y="226.5654">last_update</text><text fill="#D9B8FF" font-family="sans-serif" font-size="14" lengthAdjust="spacing" textLength="66" x="108" y="226.5654">: duration</text><text fill="#D9B8FF" font-family="sans-serif" font-size="14" font-weight="bold" lengthAdjust="spacing" textLength="48" x="18" y="252.8623">mtime</text><text fill="#D9B8FF" font-family="sans-serif" font-size="14" lengthAdjust="spacing" textLength="70" x="66" y="252.8623">: datetime</text><text fill="#D9B8FF" font-family="sans-serif" font-size="14" font-weight="bold" lengthAdjust="spacing" textLength="43" x="18" y="279.1592">name</text><text fill="#D9B8FF" font-family="sans-serif" font-size="14" lengthAdjust="spacing" textLength="48" x="61" y="279.1592">: string</text><text fill="#D9B8FF" font-family="sans-serif" font-size="14" font-weight="bold" lengthAdjust="spacing" textLength="34" x="18" y="305.4561">tags</text><text fill="#D9B8FF" font-family="sans-serif" font-size="14" lengthAdjust="spacing" textLength="171" x="52" y="305.4561">: dictionary[string, string]</text></g><!--class slack_resource--><g id="elem_slack_resource"><rect codeLine="34" fill="#3D176E" height="39.7891" id="slack_resource" rx="2.5" ry="2.5" style="stroke:#000D19;stroke-width:0.5;" width="163" x="194" y="438.76"/><ellipse cx="209" cy="458.6545" fill="#ADD1B2" rx="11" ry="11" style="stroke:#181818;stroke-width:1.0;"/><path d="M211.9688,464.2952 Q211.3906,464.592 210.75,464.7327 Q210.1094,464.8889 209.4063,464.8889 Q206.9063,464.8889 205.5781,463.2483 Q204.2656,461.592 204.2656,458.467 Q204.2656,455.342 205.5781,453.6858 Q206.9063,452.0295 209.4063,452.0295 Q210.1094,452.0295 210.75,452.1858 Q211.4063,452.342 211.9688,452.6389 L211.9688,455.3577 Q211.3438,454.7795 210.75,454.5139 Q210.1563,454.2327 209.5313,454.2327 Q208.1875,454.2327 207.5,455.3108 Q206.8125,456.3733 206.8125,458.467 Q206.8125,460.5608 207.5,461.6389 Q208.1875,462.7014 209.5313,462.7014 Q210.1563,462.7014 210.75,462.4358 Q211.3438,462.1545 211.9688,461.5764 L211.9688,464.2952 Z " fill="#000000"/><text fill="#D9B8FF" font-family="Helvetica" font-size="17" lengthAdjust="spacing" textLength="121" x="228" y="464.5398">slack_resource</text></g><!--class slack_user--><g id="elem_slack_user"><rect codeLine="36" fill="#3D176E" height="941.8828" id="slack_user" rx="2.5" ry="2.5" style="stroke:#000D19;stroke-width:0.5;" width="269" x="84" y="599.55"/><ellipse cx="166.25" cy="619.4445" fill="#ADD1B2" rx="11" ry="11" style="stroke:#181818;stroke-width:1.0;"/><path d="M169.2188,625.0852 Q168.6406,625.382 168,625.5227 Q167.3594,625.6789 166.6563,625.6789 Q164.1563,625.6789 162.8281,624.0383 Q161.5156,622.382 161.5156,619.257 Q161.5156,616.132 162.8281,614.4758 Q164.1563,612.8195 166.6563,612.8195 Q167.3594,612.8195 168,612.9758 Q168.6563,613.132 169.2188,613.4289 L169.2188,616.1477 Q168.5938,615.5695 168,615.3039 Q167.4063,615.0227 166.7813,615.0227 Q165.4375,615.0227 164.75,616.1008 Q164.0625,617.1633 164.0625,619.257 Q164.0625,621.3508 164.75,622.4289 Q165.4375,623.4914 166.7813,623.4914 Q167.4063,623.4914 168,623.2258 Q168.5938,622.9445 169.2188,622.3664 L169.2188,625.0852 Z " fill="#000000"/><text fill="#D9B8FF" font-family="Helvetica" font-size="17" lengthAdjust="spacing" textLength="86" x="191.75" y="625.3298">slack_user</text><line style="stroke:#000D19;stroke-width:0.5;" x1="85" x2="352" y1="639.3391" y2="639.3391"/><text fill="#D9B8FF" font-family="sans-serif" font-size="14" font-weight="bold" lengthAdjust="spacing" textLength="40" x="95" y="661.3342">color</text><text fill="#D9B8FF" font-family="sans-serif" font-size="14" lengthAdjust="spacing" textLength="48" x="135" y="661.3342">: string</text><text fill="#D9B8FF" font-family="sans-serif" font-size="14" font-weight="bold" lengthAdjust="spacing" textLength="60" x="95" y="687.6311">deleted</text><text fill="#D9B8FF" font-family="sans-serif" font-size="14" lengthAdjust="spacing" textLength="65" x="155" y="687.6311">: boolean</text><text fill="#D9B8FF" font-family="sans-serif" font-size="14" font-weight="bold" lengthAdjust="spacing" textLength="105" x="95" y="713.9279">display_name</text><text fill="#D9B8FF" font-family="sans-serif" font-size="14" lengthAdjust="spacing" textLength="48" x="200" y="713.9279">: string</text><text fill="#D9B8FF" font-family="sans-serif" font-size="14" font-weight="bold" lengthAdjust="spacing" textLength="199" x="95" y="740.2248">display_name_normalized</text><text fill="#D9B8FF" font-family="sans-serif" font-size="14" lengthAdjust="spacing" textLength="48" x="294" y="740.2248">: string</text><text fill="#D9B8FF" font-family="sans-serif" font-size="14" font-weight="bold" lengthAdjust="spacing" textLength="41" x="95" y="766.5217">email</text><text fill="#D9B8FF" font-family="sans-serif" font-size="14" lengthAdjust="spacing" textLength="48" x="136" y="766.5217">: string</text><text fill="#D9B8FF" font-family="sans-serif" font-size="14" font-weight="bold" lengthAdjust="spacing" textLength="82" x="95" y="792.8186">first_name</text><text fill="#D9B8FF" font-family="sans-serif" font-size="14" lengthAdjust="spacing" textLength="48" x="177" y="792.8186">: string</text><text fill="#D9B8FF" font-family="sans-serif" font-size="14" font-weight="bold" lengthAdjust="spacing" textLength="131" x="95" y="819.1154">guest_invited_by</text><text fill="#D9B8FF" font-family="sans-serif" font-size="14" lengthAdjust="spacing" textLength="48" x="226" y="819.1154">: string</text><text fill="#D9B8FF" font-family="sans-serif" font-size="14" font-weight="bold" lengthAdjust="spacing" textLength="84" x="95" y="845.4123">image_192</text><text fill="#D9B8FF" font-family="sans-serif" font-size="14" lengthAdjust="spacing" textLength="48" x="179" y="845.4123">: string</text><text fill="#D9B8FF" font-family="sans-serif" font-size="14" font-weight="bold" lengthAdjust="spacing" textLength="74" x="95" y="871.7092">image_24</text><text fill="#D9B8FF" font-family="sans-serif" font-size="14" lengthAdjust="spacing" textLength="48" x="169" y="871.7092">: string</text><text fill="#D9B8FF" font-family="sans-serif" font-size="14" font-weight="bold" lengthAdjust="spacing" textLength="74" x="95" y="898.0061">image_32</text><text fill="#D9B8FF" font-family="sans-serif" font-size="14" lengthAdjust="spacing" textLength="48" x="169" y="898.0061">: string</text><text fill="#D9B8FF" font-family="sans-serif" font-size="14" font-weight="bold" lengthAdjust="spacing" textLength="74" x="95" y="924.3029">image_48</text><text fill="#D9B8FF" font-family="sans-serif" font-size="14" lengthAdjust="spacing" textLength="48" x="169" y="924.3029">: string</text><text fill="#D9B8FF" font-family="sans-serif" font-size="14" font-weight="bold" lengthAdjust="spacing" textLength="84" x="95" y="950.5998">image_512</text><text fill="#D9B8FF" font-family="sans-serif" font-size="14" lengthAdjust="spacing" textLength="48" x="179" y="950.5998">: string</text><text fill="#D9B8FF" font-family="sans-serif" font-size="14" font-weight="bold" lengthAdjust="spacing" textLength="74" x="95" y="976.8967">image_72</text><text fill="#D9B8FF" font-family="sans-serif" font-size="14" lengthAdjust="spacing" textLength="48" x="169" y="976.8967">: string</text><text fill="#D9B8FF" font-family="sans-serif" font-size="14" font-weight="bold" lengthAdjust="spacing" textLength="67" x="95" y="1003.1936">is_admin</text><text fill="#D9B8FF" font-family="sans-serif" font-size="14" lengthAdjust="spacing" textLength="65" x="162" y="1003.1936">: boolean</text><text fill="#D9B8FF" font-family="sans-serif" font-size="14" font-weight="bold" lengthAdjust="spacing" textLength="92" x="95" y="1029.4904">is_app_user</text><text fill="#D9B8FF" font-family="sans-serif" font-size="14" lengthAdjust="spacing" textLength="65" x="187" y="1029.4904">: boolean</text><text fill="#D9B8FF" font-family="sans-serif" font-size="14" font-weight="bold" lengthAdjust="spacing" textLength="46" x="95" y="1055.7873">is_bot</text><text fill="#D9B8FF" font-family="sans-serif" font-size="14" lengthAdjust="spacing" textLength="65" x="141" y="1055.7873">: boolean</text><text fill="#D9B8FF" font-family="sans-serif" font-size="14" font-weight="bold" lengthAdjust="spacing" textLength="71" x="95" y="1082.0842">is_owner</text><text fill="#D9B8FF" font-family="sans-serif" font-size="14" lengthAdjust="spacing" textLength="65" x="166" y="1082.0842">: boolean</text><text fill="#D9B8FF" font-family="sans-serif" font-size="14" font-weight="bold" lengthAdjust="spacing" textLength="138" x="95" y="1108.3811">is_primary_owner</text><text fill="#D9B8FF" font-family="sans-serif" font-size="14" lengthAdjust="spacing" textLength="65" x="233" y="1108.3811">: boolean</text><text fill="#D9B8FF" font-family="sans-serif" font-size="14" font-weight="bold" lengthAdjust="spacing" textLength="98" x="95" y="1134.6779">is_restricted</text><text fill="#D9B8FF" font-family="sans-serif" font-size="14" lengthAdjust="spacing" textLength="65" x="193" y="1134.6779">: boolean</text><text fill="#D9B8FF" font-family="sans-serif" font-size="14" font-weight="bold" lengthAdjust="spacing" textLength="141" x="95" y="1160.9748">is_ultra_restricted</text><text fill="#D9B8FF" font-family="sans-serif" font-size="14" lengthAdjust="spacing" textLength="65" x="236" y="1160.9748">: boolean</text><text fill="#D9B8FF" font-family="sans-serif" font-size="14" font-weight="bold" lengthAdjust="spacing" textLength="78" x="95" y="1187.2717">last_name</text><text fill="#D9B8FF" font-family="sans-serif" font-size="14" lengthAdjust="spacing" textLength="48" x="173" y="1187.2717">: string</text><text fill="#D9B8FF" font-family="sans-serif" font-size="14" font-weight="bold" lengthAdjust="spacing" textLength="50" x="95" y="1213.5686">phone</text><text fill="#D9B8FF" font-family="sans-serif" font-size="14" lengthAdjust="spacing" textLength="48" x="145" y="1213.5686">: string</text><text fill="#D9B8FF" font-family="sans-serif" font-size="14" font-weight="bold" lengthAdjust="spacing" textLength="80" x="95" y="1239.8654">real_name</text><text fill="#D9B8FF" font-family="sans-serif" font-size="14" lengthAdjust="spacing" textLength="48" x="175" y="1239.8654">: string</text><text fill="#D9B8FF" font-family="sans-serif" font-size="14" font-weight="bold" lengthAdjust="spacing" textLength="174" x="95" y="1266.1623">real_name_normalized</text><text fill="#D9B8FF" font-family="sans-serif" font-size="14" lengthAdjust="spacing" textLength="48" x="269" y="1266.1623">: string</text><text fill="#D9B8FF" font-family="sans-serif" font-size="14" font-weight="bold" lengthAdjust="spacing" textLength="47" x="95" y="1292.4592">skype</text><text fill="#D9B8FF" font-family="sans-serif" font-size="14" lengthAdjust="spacing" textLength="48" x="142" y="1292.4592">: string</text><text fill="#D9B8FF" font-family="sans-serif" font-size="14" font-weight="bold" lengthAdjust="spacing" textLength="98" x="95" y="1318.7561">status_emoji</text><text fill="#D9B8FF" font-family="sans-serif" font-size="14" lengthAdjust="spacing" textLength="48" x="193" y="1318.7561">: string</text><text fill="#D9B8FF" font-family="sans-serif" font-size="14" font-weight="bold" lengthAdjust="spacing" textLength="135" x="95" y="1345.0529">status_expiration</text><text fill="#D9B8FF" font-family="sans-serif" font-size="14" lengthAdjust="spacing" textLength="44" x="230" y="1345.0529">: int64</text><text fill="#D9B8FF" font-family="sans-serif" font-size="14" font-weight="bold" lengthAdjust="spacing" textLength="87" x="95" y="1371.3498">status_text</text><text fill="#D9B8FF" font-family="sans-serif" font-size="14" lengthAdjust="spacing" textLength="48" x="182" y="1371.3498">: string</text><text fill="#D9B8FF" font-family="sans-serif" font-size="14" font-weight="bold" lengthAdjust="spacing" textLength="168" x="95" y="1397.6467">status_text_canonical</text><text fill="#D9B8FF" font-family="sans-serif" font-size="14" lengthAdjust="spacing" textLength="48" x="263" y="1397.6467">: string</text><text fill="#D9B8FF" font-family="sans-serif" font-size="14" font-weight="bold" lengthAdjust="spacing" textLength="60" x="95" y="1423.9436">team_id</text><text fill="#D9B8FF" font-family="sans-serif" font-size="14" lengthAdjust="spacing" textLength="48" x="155" y="1423.9436">: string</text><text fill="#D9B8FF" font-family="sans-serif" font-size="14" font-weight="bold" lengthAdjust="spacing" textLength="30" x="95" y="1450.2404">title</text><text fill="#D9B8FF" font-family="sans-serif" font-size="14" lengthAdjust="spacing" textLength="48" x="125" y="1450.2404">: string</text><text fill="#D9B8FF" font-family="sans-serif" font-size="14" font-weight="bold" lengthAdjust="spacing" textLength="15" x="95" y="1476.5373">tz</text><text fill="#D9B8FF" font-family="sans-serif" font-size="14" lengthAdjust="spacing" textLength="48" x="110" y="1476.5373">: string</text><text fill="#D9B8FF" font-family="sans-serif" font-size="14" font-weight="bold" lengthAdjust="spacing" textLength="59" x="95" y="1502.8342">tz_label</text><text fill="#D9B8FF" font-family="sans-serif" font-size="14" lengthAdjust="spacing" textLength="48" x="154" y="1502.8342">: string</text><text fill="#D9B8FF" font-family="sans-serif" font-size="14" font-weight="bold" lengthAdjust="spacing" textLength="69" x="95" y="1529.1311">tz_offset</text><text fill="#D9B8FF" font-family="sans-serif" font-size="14" lengthAdjust="spacing" textLength="44" x="164" y="1529.1311">: int64</text></g><!--class user--><g id="elem_user"><rect codeLine="72" fill="#3D176E" height="39.7891" id="user" rx="2.5" ry="2.5" style="stroke:#000D19;stroke-width:0.5;" width="78" x="81.5" y="438.76"/><ellipse cx="96.5" cy="458.6545" fill="#ADD1B2" rx="11" ry="11" style="stroke:#181818;stroke-width:1.0;"/><path d="M99.4688,464.2952 Q98.8906,464.592 98.25,464.7327 Q97.6094,464.8889 96.9063,464.8889 Q94.4063,464.8889 93.0781,463.2483 Q91.7656,461.592 91.7656,458.467 Q91.7656,455.342 93.0781,453.6858 Q94.4063,452.0295 96.9063,452.0295 Q97.6094,452.0295 98.25,452.1858 Q98.9063,452.342 99.4688,452.6389 L99.4688,455.3577 Q98.8438,454.7795 98.25,454.5139 Q97.6563,454.2327 97.0313,454.2327 Q95.6875,454.2327 95,455.3108 Q94.3125,456.3733 94.3125,458.467 Q94.3125,460.5608 95,461.6389 Q95.6875,462.7014 97.0313,462.7014 Q97.6563,462.7014 98.25,462.4358 Q98.8438,462.1545 99.4688,461.5764 L99.4688,464.2952 Z " fill="#000000"/><text fill="#D9B8FF" font-family="Helvetica" font-size="17" lengthAdjust="spacing" textLength="36" x="115.5" y="464.5398">user</text></g><!--reverse link slack_resource to slack_user--><g id="link_slack_resource_slack_user"><path codeLine="74" d="M271.78,499.45 C269.47,524.21 266.21,558.99 262.45,599.29 " fill="none" id="slack_resource-backto-slack_user" style="stroke:#FFAF37;stroke-width:2.0;"/><polygon fill="none" points="264.87,499.17,273.7,479.91,278.81,500.48,264.87,499.17" style="stroke:#FFAF37;stroke-width:2.0;"/></g><!--reverse link user to slack_user--><g id="link_user_slack_user"><path codeLine="75" d="M126.89,499.45 C130.87,524.21 136.46,558.99 142.94,599.29 " fill="none" id="user-backto-slack_user" style="stroke:#FFAF37;stroke-width:2.0;"/><polygon fill="none" points="119.86,500.77,123.59,479.91,133.68,498.55,119.86,500.77" style="stroke:#FFAF37;stroke-width:2.0;"/></g><!--reverse link resource to user--><g id="link_resource_user"><path codeLine="76" d="M120.5,338.65 C120.5,379.33 120.5,417.02 120.5,438.67 " fill="none" id="resource-backto-user" style="stroke:#FFAF37;stroke-width:2.0;"/><polygon fill="none" points="113.5,338.84,120.5,318.84,127.5,338.84,113.5,338.84" style="stroke:#FFAF37;stroke-width:2.0;"/></g><!--SRC=[XPJBRjim44Nt_We1sHaru5TYk-WcDL2qcw1ekYiAOIIEPDPy2EGeZjFctqjAZYEHShAJphtYF3YZ7MUOeApec4YK6HexidkkAZ0WarjZz66hXJR9LL50iLY5uXUjw5t37KXClg9uGE8vX8wVEvxl5LgRp3lIPyZtfT6rOktnP41P9w6YZcihmDfR8iEpch2J3Djaww88dU6XLmisMzrWPDE6eJbPfjCfcsr2oxkXtgpxxBZdJvZCkasxquHHcb68nlLcbjxHIJ8gz4M_cEDtO8ohChdki1zjJaQXwV7x7J1zyEu2XEs6iOG6DHqht4PLuMRDYjMW-TibS-uxbnYqkZOv9dz7up6KE1v_J5XjWBXMdX2NBGD2_-nOFi0uyy2wwL6bUtLvz86BHIdakPlD84AZr9K_Ar3aG1m5BJeVJ52s9_BSVmRc-AlLFfmylqVFfrAjS9r8EmNtXTgwg_1To7sRUa4O2YHiAigq5WW-FSPj9U2OHYbrXLHf8q6usUpt0oLmqIC5DwuHqM5bZGvpzS1T0cbsx8bSkXjBPvlv09ql1-1YoBbS3y3hsP1r5K2R0fDSzHlZQLKr_Oo4J5F4z44DE2lZGfhZ1TNTeaiYZox5IRLmFxYBXcRSeYvNEwtwn228s7Ucb-xLxjtAzGa1rJP5gV_mGU6nukt8UvKhkbc-YeIFDFIHvsaEIYltf-dF4I78D5X7uYI2jNaANbC16OeGwgAmIA-9lMpCQLUUHy5EVVetcKmw-pHgZ14D_9xz1m00]--></g></svg>