<svg xmlns="http://www.w3.org/2000/svg" xmlns:xlink="http://www.w3.org/1999/xlink" width="2219" height="551" preserveAspectRatio="none" style="width:2219px;height:551px"><a xlink:actuate="onRequest" xlink:href="#a" xlink:show="new" xlink:title="#digitalocean_load_balancer" xlink:type="simple" target="_top"><rect id="a" width="267" height="39.789" x="463.5" y="306.36" fill="#3D176E" rx="2.5" ry="2.5" style="stroke:#000d19;stroke-width:.5"/><circle cx="478.5" cy="326.255" r="11" fill="#ADD1B2" style="stroke:#181818;stroke-width:1"/><path d="M481.469 331.895q-.578.297-1.219.438-.64.156-1.344.156-2.5 0-3.828-1.64-1.312-1.657-1.312-4.782t1.312-4.781q1.328-1.656 3.828-1.656.703 0 1.344.156.656.156 1.219.453v2.719q-.625-.579-1.219-.844-.594-.281-1.219-.281-1.344 0-2.031 1.078-.688 1.062-.688 3.156 0 2.094.688 3.172.688 1.062 2.031 1.062.625 0 1.219-.265.594-.281 1.219-.86v2.72Z"/><text x="497.5" y="332.14" fill="#D9B8FF" font-family="Helvetica" font-size="17" textLength="225">digitalocean_load_balancer</text></a><a xlink:actuate="onRequest" xlink:href="#b" xlink:show="new" xlink:title="#digitalocean_droplet" xlink:type="simple" target="_top"><rect id="b" width="211" height="39.789" x="1024.5" y="406.15" fill="#3D176E" rx="2.5" ry="2.5" style="stroke:#000d19;stroke-width:.5"/><circle cx="1039.5" cy="426.045" r="11" fill="#ADD1B2" style="stroke:#181818;stroke-width:1"/><path d="M1042.469 431.685q-.578.297-1.219.438-.64.156-1.344.156-2.5 0-3.828-1.64-1.312-1.657-1.312-4.782t1.312-4.781q1.328-1.656 3.828-1.656.703 0 1.344.156.656.156 1.219.453v2.719q-.625-.578-1.219-.844-.594-.281-1.219-.281-1.343 0-2.031 1.078-.688 1.062-.688 3.156 0 2.094.688 3.172.688 1.062 2.031 1.062.625 0 1.219-.265.594-.281 1.219-.86v2.72Z"/><text x="1058.5" y="431.93" fill="#D9B8FF" font-family="Helvetica" font-size="17" textLength="169">digitalocean_droplet</text></a><a xlink:actuate="onRequest" xlink:href="#c" xlink:show="new" xlink:title="#digitalocean_snapshot" xlink:type="simple" target="_top"><rect id="c" width="227" height="39.789" x="297.5" y="505.94" fill="#3D176E" rx="2.5" ry="2.5" style="stroke:#000d19;stroke-width:.5"/><circle cx="312.5" cy="525.835" r="11" fill="#ADD1B2" style="stroke:#181818;stroke-width:1"/><path d="M315.469 531.475q-.578.297-1.219.438-.64.156-1.344.156-2.5 0-3.828-1.64-1.312-1.657-1.312-4.782t1.312-4.781q1.328-1.656 3.828-1.656.703 0 1.344.156.656.156 1.219.453v2.719q-.625-.578-1.219-.844-.594-.281-1.219-.281-1.344 0-2.031 1.078-.688 1.062-.688 3.156 0 2.094.688 3.172.688 1.062 2.031 1.062.625 0 1.219-.265.594-.281 1.219-.86v2.72Z"/><text x="331.5" y="531.72" fill="#D9B8FF" font-family="Helvetica" font-size="17" textLength="185">digitalocean_snapshot</text></a><a xlink:actuate="onRequest" xlink:href="#d" xlink:show="new" xlink:title="#digitalocean_space" xlink:type="simple" target="_top"><rect id="d" width="198" height="39.789" x="1544" y="206.57" fill="#3D176E" rx="2.5" ry="2.5" style="stroke:#000d19;stroke-width:.5"/><circle cx="1559" cy="226.464" r="11" fill="#ADD1B2" style="stroke:#181818;stroke-width:1"/><path d="M1561.969 232.105q-.578.297-1.219.438-.64.156-1.344.156-2.5 0-3.828-1.64-1.312-1.657-1.312-4.782t1.312-4.781q1.328-1.657 3.828-1.657.703 0 1.344.157.656.156 1.219.453v2.719q-.625-.579-1.219-.844-.594-.281-1.219-.281-1.343 0-2.031 1.078-.688 1.062-.688 3.156 0 2.094.688 3.172.688 1.062 2.031 1.062.625 0 1.219-.265.594-.282 1.219-.86v2.72Z"/><text x="1578" y="232.35" fill="#D9B8FF" font-family="Helvetica" font-size="17" textLength="156">digitalocean_space</text></a><a xlink:actuate="onRequest" xlink:href="#e" xlink:show="new" xlink:title="#digitalocean_app" xlink:type="simple" target="_top"><rect id="e" width="182" height="39.789" x="153" y="406.15" fill="#3D176E" rx="2.5" ry="2.5" style="stroke:#000d19;stroke-width:.5"/><circle cx="168" cy="426.045" r="11" fill="#ADD1B2" style="stroke:#181818;stroke-width:1"/><path d="M170.969 431.685q-.578.297-1.219.438-.64.156-1.344.156-2.5 0-3.828-1.64-1.312-1.657-1.312-4.782t1.312-4.781q1.328-1.656 3.828-1.656.703 0 1.344.156.656.156 1.219.453v2.719q-.625-.578-1.219-.844-.594-.281-1.219-.281-1.344 0-2.031 1.078-.688 1.062-.688 3.156 0 2.094.688 3.172.688 1.062 2.031 1.062.625 0 1.219-.265.594-.281 1.219-.86v2.72Z"/><text x="187" y="431.93" fill="#D9B8FF" font-family="Helvetica" font-size="17" textLength="140">digitalocean_app</text></a><a xlink:actuate="onRequest" xlink:href="#f" xlink:show="new" xlink:title="#digitalocean_database" xlink:type="simple" target="_top"><rect id="f" width="227" height="39.789" x="130.5" y="306.36" fill="#3D176E" rx="2.5" ry="2.5" style="stroke:#000d19;stroke-width:.5"/><circle cx="145.5" cy="326.255" r="11" fill="#ADD1B2" style="stroke:#181818;stroke-width:1"/><path d="M148.469 331.895q-.578.297-1.219.438-.64.156-1.344.156-2.5 0-3.828-1.64-1.312-1.657-1.312-4.782t1.312-4.781q1.328-1.656 3.828-1.656.703 0 1.344.156.656.156 1.219.453v2.719q-.625-.579-1.219-.844-.594-.281-1.219-.281-1.344 0-2.031 1.078-.688 1.062-.688 3.156 0 2.094.688 3.172.688 1.062 2.031 1.062.625 0 1.219-.265.594-.281 1.219-.86v2.72Z"/><text x="164.5" y="332.14" fill="#D9B8FF" font-family="Helvetica" font-size="17" textLength="185">digitalocean_database</text></a><a xlink:actuate="onRequest" xlink:href="#g" xlink:show="new" xlink:title="#digitalocean_floating_ip" xlink:type="simple" target="_top"><rect id="g" width="240" height="39.789" x="1371" y="505.94" fill="#3D176E" rx="2.5" ry="2.5" style="stroke:#000d19;stroke-width:.5"/><circle cx="1386" cy="525.835" r="11" fill="#ADD1B2" style="stroke:#181818;stroke-width:1"/><path d="M1388.969 531.475q-.578.297-1.219.438-.64.156-1.344.156-2.5 0-3.828-1.64-1.312-1.657-1.312-4.782t1.312-4.781q1.328-1.656 3.828-1.656.703 0 1.344.156.656.156 1.219.453v2.719q-.625-.578-1.219-.844-.594-.281-1.219-.281-1.343 0-2.031 1.078-.688 1.062-.688 3.156 0 2.094.688 3.172.688 1.062 2.031 1.062.625 0 1.219-.265.594-.281 1.219-.86v2.72Z"/><text x="1405" y="531.72" fill="#D9B8FF" font-family="Helvetica" font-size="17" textLength="198">digitalocean_floating_ip</text></a><a xlink:actuate="onRequest" xlink:href="#h" xlink:show="new" xlink:title="#digitalocean_vpc" xlink:type="simple" target="_top"><rect id="h" width="180" height="39.789" x="664" y="206.57" fill="#3D176E" rx="2.5" ry="2.5" style="stroke:#000d19;stroke-width:.5"/><circle cx="679" cy="226.464" r="11" fill="#ADD1B2" style="stroke:#181818;stroke-width:1"/><path d="M681.969 232.105q-.578.297-1.219.438-.64.156-1.344.156-2.5 0-3.828-1.64-1.312-1.657-1.312-4.782t1.312-4.781q1.328-1.657 3.828-1.657.703 0 1.344.157.656.156 1.219.453v2.719q-.625-.579-1.219-.844-.594-.281-1.219-.281-1.343 0-2.031 1.078-.688 1.062-.688 3.156 0 2.094.688 3.172.688 1.062 2.031 1.062.625 0 1.219-.265.594-.282 1.219-.86v2.72Z"/><text x="698" y="232.35" fill="#D9B8FF" font-family="Helvetica" font-size="17" textLength="138">digitalocean_vpc</text></a><a xlink:actuate="onRequest" xlink:href="#i" xlink:show="new" xlink:title="#digitalocean_kubernetes_cluster" xlink:type="simple" target="_top"><rect id="i" width="311" height="39.789" x="835.5" y="306.36" fill="#3D176E" rx="2.5" ry="2.5" style="stroke:#000d19;stroke-width:.5"/><circle cx="850.5" cy="326.255" r="11" fill="#ADD1B2" style="stroke:#181818;stroke-width:1"/><path d="M853.469 331.895q-.578.297-1.219.438-.64.156-1.344.156-2.5 0-3.828-1.64-1.312-1.657-1.312-4.782t1.312-4.781q1.328-1.656 3.828-1.656.703 0 1.344.156.656.156 1.219.453v2.719q-.625-.579-1.219-.844-.594-.281-1.219-.281-1.343 0-2.031 1.078-.688 1.062-.688 3.156 0 2.094.688 3.172.688 1.062 2.031 1.062.625 0 1.219-.265.594-.281 1.219-.86v2.72Z"/><text x="869.5" y="332.14" fill="#D9B8FF" font-family="Helvetica" font-size="17" textLength="269">digitalocean_kubernetes_cluster</text></a><a xlink:actuate="onRequest" xlink:href="#j" xlink:show="new" xlink:title="#digitalocean_team" xlink:type="simple" target="_top"><rect id="j" width="196" height="39.789" x="905" y="7" fill="#3D176E" rx="2.5" ry="2.5" style="stroke:#000d19;stroke-width:.5"/><circle cx="920" cy="26.895" r="11" fill="#ADD1B2" style="stroke:#181818;stroke-width:1"/><path d="M922.969 32.535q-.578.297-1.219.438-.64.156-1.344.156-2.5 0-3.828-1.64-1.312-1.657-1.312-4.782t1.312-4.781q1.328-1.656 3.828-1.656.703 0 1.344.156.656.156 1.219.453v2.719q-.625-.578-1.219-.844-.594-.281-1.219-.281-1.343 0-2.031 1.078-.688 1.062-.688 3.156 0 2.094.688 3.172.688 1.062 2.031 1.062.625 0 1.219-.265.594-.281 1.219-.86v2.72Z"/><text x="939" y="32.78" fill="#D9B8FF" font-family="Helvetica" font-size="17" textLength="154">digitalocean_team</text></a><a xlink:actuate="onRequest" xlink:href="#k" xlink:show="new" xlink:title="#digitalocean_region" xlink:type="simple" target="_top"><rect id="k" width="205" height="39.789" x="978.5" y="106.78" fill="#3D176E" rx="2.5" ry="2.5" style="stroke:#000d19;stroke-width:.5"/><circle cx="993.5" cy="126.674" r="11" fill="#ADD1B2" style="stroke:#181818;stroke-width:1"/><path d="M996.469 132.315q-.578.297-1.219.438-.64.156-1.344.156-2.5 0-3.828-1.64-1.312-1.657-1.312-4.782t1.312-4.781q1.328-1.657 3.828-1.657.703 0 1.344.157.656.156 1.219.453v2.719q-.625-.579-1.219-.844-.594-.281-1.219-.281-1.343 0-2.031 1.078-.688 1.062-.688 3.156 0 2.094.688 3.172.688 1.062 2.031 1.062.625 0 1.219-.265.594-.281 1.219-.86v2.72Z"/><text x="1012.5" y="132.56" fill="#D9B8FF" font-family="Helvetica" font-size="17" textLength="163">digitalocean_region</text></a><a xlink:actuate="onRequest" xlink:href="#l" xlink:show="new" xlink:title="#digitalocean_image" xlink:type="simple" target="_top"><rect id="l" width="204" height="39.789" x="1234" y="206.57" fill="#3D176E" rx="2.5" ry="2.5" style="stroke:#000d19;stroke-width:.5"/><circle cx="1249" cy="226.464" r="11" fill="#ADD1B2" style="stroke:#181818;stroke-width:1"/><path d="M1251.969 232.105q-.578.297-1.219.438-.64.156-1.344.156-2.5 0-3.828-1.64-1.312-1.657-1.312-4.782t1.312-4.781q1.328-1.657 3.828-1.657.703 0 1.344.157.656.156 1.219.453v2.719q-.625-.579-1.219-.844-.594-.281-1.219-.281-1.343 0-2.031 1.078-.688 1.062-.688 3.156 0 2.094.688 3.172.688 1.062 2.031 1.062.625 0 1.219-.265.594-.282 1.219-.86v2.72Z"/><text x="1268" y="232.35" fill="#D9B8FF" font-family="Helvetica" font-size="17" textLength="162">digitalocean_image</text></a><a xlink:actuate="onRequest" xlink:href="#m" xlink:show="new" xlink:title="#digitalocean_container_registry" xlink:type="simple" target="_top"><rect id="m" width="304" height="39.789" x="1777" y="206.57" fill="#3D176E" rx="2.5" ry="2.5" style="stroke:#000d19;stroke-width:.5"/><circle cx="1792" cy="226.464" r="11" fill="#ADD1B2" style="stroke:#181818;stroke-width:1"/><path d="M1794.969 232.105q-.578.297-1.219.438-.64.156-1.344.156-2.5 0-3.828-1.64-1.312-1.657-1.312-4.782t1.312-4.781q1.328-1.657 3.828-1.657.703 0 1.344.157.656.156 1.219.453v2.719q-.625-.579-1.219-.844-.594-.281-1.219-.281-1.343 0-2.031 1.078-.688 1.062-.688 3.156 0 2.094.688 3.172.688 1.062 2.031 1.062.625 0 1.219-.265.594-.282 1.219-.86v2.72Z"/><text x="1811" y="232.35" fill="#D9B8FF" font-family="Helvetica" font-size="17" textLength="262">digitalocean_container_registry</text></a><path fill="none" d="M702.62 346.64c91.41 16.77 223.17 40.94 316.18 58" style="stroke:#1a83af;stroke-width:2"/><path fill="#1A83AF" d="m1023.59 405.71-8.12-5.575 3.204 4.663-4.663 3.203 9.579-2.291z" style="stroke:#1a83af;stroke-width:2"/><path fill="none" d="M1201.32 446.37c61.34 16.61 149.61 40.52 212.57 57.58" style="stroke:#1a83af;stroke-width:2"/><path fill="#1A83AF" d="m1418.52 505.47-7.629-6.229 2.805 4.912-4.912 2.806 9.736-1.489z" style="stroke:#1a83af;stroke-width:2"/><path fill="none" d="m1024.3 441.42-493.83 67.17" style="stroke:#1a83af;stroke-width:2"/><path fill="#1A83AF" d="m525.79 509.36 9.455 2.756-4.5-3.427 3.427-4.5-8.382 5.171z" style="stroke:#1a83af;stroke-width:2"/><path fill="none" d="M244 346.58v53.31" style="stroke:#1a83af;stroke-width:2"/><path fill="#1A83AF" d="m244 404.77 4-9-4 4-4-4 4 9z" style="stroke:#1a83af;stroke-width:2"/><path fill="none" d="M800.82 246.79c39.77 16.41 96.78 39.93 138 56.94" style="stroke:#1a83af;stroke-width:2"/><path fill="#1A83AF" d="m943.27 305.98-6.788-7.136 2.168 5.225-5.226 2.168 9.846-.257z" style="stroke:#1a83af;stroke-width:2"/><path fill="none" d="M759.05 246.67c7.98 26.5 26.08 73.87 58.95 99.48 57 44.42 136.05 64.1 200.32 72.69" style="stroke:#1a83af;stroke-width:2"/><path fill="#1A83AF" d="m1023.1 419.59-8.41-5.124 3.451 4.481-4.48 3.452 9.439-2.809z" style="stroke:#1a83af;stroke-width:2"/><path fill="none" d="M663.7 244.78c-87.57 16.79-220.44 42.27-313.15 60.05" style="stroke:#1a83af;stroke-width:2"/><path fill="#1A83AF" d="m345.78 305.93 9.586 2.26-4.673-3.188 3.188-4.673-8.101 5.601z" style="stroke:#1a83af;stroke-width:2"/><path fill="none" d="M722.98 246.79c-25.91 16.14-62.88 39.16-90.07 56.1" style="stroke:#1a83af;stroke-width:2"/><path fill="#1A83AF" d="m628.95 305.98 9.754-1.363-5.51-1.28 1.28-5.51-5.524 8.153z" style="stroke:#1a83af;stroke-width:2"/><path fill="none" d="M1018.46 346.58c22.85 16.07 55.4 38.97 79.45 55.89" style="stroke:#1a83af;stroke-width:2"/><path fill="#1A83AF" d="m1101.6 405.77-5.063-8.448.972 5.573-5.572.973 9.663 1.902z" style="stroke:#1a83af;stroke-width:2"/><path fill="none" d="M904.73 27.87C785.46 30.79 579.96 45.44 416 106.78c-151.03 56.51-226.52 57.62-303 199.58-22.38 41.54 29.37 75.99 74.29 96.89" style="stroke:#1a83af;stroke-width:2"/><path fill="#1A83AF" d="m191.73 405.73-6.538-7.366 1.986 5.297-5.297 1.986 9.849.083z" style="stroke:#1a83af;stroke-width:2"/><path fill="none" d="M1101.3 28.42c244.4 3.62 869.03 27.71 996.7 178.15 114.51 134.95-578.31 194.01-856.33 212.07" style="stroke:#1a83af;stroke-width:2"/><path fill="#1A83AF" d="m1236.99 419.01 9.244 3.4-4.255-3.729 3.728-4.254-8.717 4.583z" style="stroke:#1a83af;stroke-width:2"/><path fill="none" d="M1018.41 47.21c12.5 15.67 30.18 37.83 43.56 54.61" style="stroke:#1a83af;stroke-width:2"/><path fill="#1A83AF" d="m1065.62 105.4-2.49-9.529-.63 5.622-5.622-.63 8.742 4.537z" style="stroke:#1a83af;stroke-width:2"/><path fill="none" d="M904.55 30.41C766.87 35.85 509.88 52.96 298 106.78 162.22 141.27 6 85.38 6 225.47v101.79c0 128.22 166.01 173.25 285.46 189.05" style="stroke:#1a83af;stroke-width:2"/><path fill="#1A83AF" d="m296.11 517.04-8.41-5.124 3.452 4.481-4.482 3.452 9.44-2.809z" style="stroke:#1a83af;stroke-width:2"/><path fill="none" d="M904.55 31.14C762.09 40.45 496.08 75.58 318 206.57c-32.5 23.91-53.99 66.79-65.07 93.94" style="stroke:#1a83af;stroke-width:2"/><path fill="#1A83AF" d="m250.73 305.05 7.038-6.89-5.193 2.243-2.242-5.194.397 9.841z" style="stroke:#1a83af;stroke-width:2"/><path fill="none" d="M1101.43 30.91c213.53 7.35 713.16 29.1 875.57 75.87 109.78 31.62 228 4.45 228 118.69v101.79c0 120.57-383 170.51-587.98 188.61" style="stroke:#1a83af;stroke-width:2"/><path fill="#1A83AF" d="m1612.31 516.37 9.32 3.186-4.34-3.63 3.63-4.339-8.61 4.783z" style="stroke:#1a83af;stroke-width:2"/><path fill="none" d="M1067.15 47.21c40.09 13.55 91.9 33.84 133.85 59.57 44.44 27.26 88.37 69.49 113.53 95.54" style="stroke:#1a83af;stroke-width:2"/><path fill="#1A83AF" d="m1317.41 205.35-3.33-9.269-.126 5.656-5.656-.126 9.112 3.739z" style="stroke:#1a83af;stroke-width:2"/><path fill="none" d="M964.94 47.27c-27.3 14.69-64.33 36.27-93.94 59.51-37.43 29.39-75.06 70.01-97.19 95.3" style="stroke:#1a83af;stroke-width:2"/><path fill="#1A83AF" d="m770.13 205.31 8.928-4.158-5.644.388-.388-5.643-2.896 9.413z" style="stroke:#1a83af;stroke-width:2"/><path fill="none" d="M1065.53 47.19c120.56 37.22 384.26 118.63 509.21 157.2" style="stroke:#1a83af;stroke-width:2"/><path fill="#1A83AF" d="m1579.22 206.09-7.422-6.475 2.644 5.002-5.001 2.643 9.779-1.17z" style="stroke:#1a83af;stroke-width:2"/><path fill="none" d="M1093.47 47.19c175.13 37.37 559 119.28 738.9 157.66" style="stroke:#1a83af;stroke-width:2"/><path fill="#1A83AF" d="m1837.16 206.09-7.967-5.79 3.077 4.746-4.747 3.077 9.637-2.033z" style="stroke:#1a83af;stroke-width:2"/><path fill="none" d="M927.58 47.19C847.12 71.5 721.14 120.83 646 206.57c-23.9 27.28-37.21 67.82-43.74 93.75" style="stroke:#1a83af;stroke-width:2"/><path fill="#1A83AF" d="m600.89 304.94 6.02-7.795-4.834 2.938-2.938-4.835 1.752 9.692z" style="stroke:#1a83af;stroke-width:2"/><path fill="none" d="M989.23 47.21C979.2 62.54 966.45 84.95 961 106.78c-17.26 69.15 6.44 153.25 20.66 194" style="stroke:#1a83af;stroke-width:2"/><path fill="#1A83AF" d="m983.52 305 .763-9.82-2.434 5.107-5.107-2.433L983.52 305z" style="stroke:#1a83af;stroke-width:2"/><path fill="none" d="M1183.62 143.05c104.28 16.59 253.05 43.36 271.38 63.52 75.76 83.34 54.17 234.03 41.86 293.33" style="stroke:#1a83af;stroke-width:2"/><path fill="#1A83AF" d="m1495.62 504.68 5.786-7.97-4.745 3.08-3.08-4.745 2.039 9.635z" style="stroke:#1a83af;stroke-width:2"/><path fill="none" d="M1131.38 147c42.87 16.44 104.38 40.03 148.75 57.04" style="stroke:#1a83af;stroke-width:2"/><path fill="#1A83AF" d="m1284.72 206.19-6.978-6.95 2.308 5.165-5.165 2.308 9.835-.523z" style="stroke:#1a83af;stroke-width:2"/><path fill="none" d="M1050.29 146.86c-41.64 25.4-118.92 70.37-189.29 99.5-58 24.02-125.9 44.14-178.31 58.05" style="stroke:#1a83af;stroke-width:2"/><path fill="#1A83AF" d="m678.02 305.91 9.722 1.576-4.887-2.85 2.85-4.886-7.685 6.16z" style="stroke:#1a83af;stroke-width:2"/><path fill="none" d="M1016.4 147c-55.45 16.58-135.2 40.43-192.21 57.48" style="stroke:#1a83af;stroke-width:2"/><path fill="#1A83AF" d="m819.75 206.1 9.768 1.259-4.977-2.69 2.689-4.976-7.48 6.407z" style="stroke:#1a83af;stroke-width:2"/><path fill="none" d="M1183.75 145.56c100.57 17.5 253.01 44.02 354.32 61.65" style="stroke:#1a83af;stroke-width:2"/><path fill="#1A83AF" d="m1542.76 208.2-8.181-5.483 3.255 4.626-4.626 3.256 9.552-2.399z" style="stroke:#1a83af;stroke-width:2"/><path fill="none" d="M1093.13 146.94c29.19 47.5 98.92 168.65 70.87 199.21-54.83 59.74-597.68 74.33-822.88 77.82" style="stroke:#1a83af;stroke-width:2"/><path fill="#1A83AF" d="m336.21 424.06 9.056 3.871-4.057-3.942 3.943-4.057-8.942 4.128z" style="stroke:#1a83af;stroke-width:2"/><path fill="none" d="M1072.21 146.98c-16.47 36.15-51.92 113.99-70.05 153.77" style="stroke:#1a83af;stroke-width:2"/><path fill="#1A83AF" d="m999.83 304.87 7.373-6.53-5.299 1.98-1.98-5.298-.094 9.848z" style="stroke:#1a83af;stroke-width:2"/><path fill="none" d="M1104.38 146.94c34.23 29.92 96.56 91.23 120.62 159.42 5.88 16.68 7.51 23.78 0 39.79-11.22 23.9-33.62 43.06-53.86 56.51" style="stroke:#1a83af;stroke-width:2"/><path fill="#1A83AF" d="m1167.33 405.79 9.728-1.54-5.533-1.18 1.18-5.533-5.375 8.253z" style="stroke:#1a83af;stroke-width:2"/><path fill="none" d="M978.32 137.98c-89.46 10.93-221.8 31.83-332.32 68.59-94.26 31.36-141.2 19.73-200 99.79-43 58.55-41.57 149.81-37.89 193.51" style="stroke:#1a83af;stroke-width:2"/><path fill="#1A83AF" d="m408.64 504.71 3.186-9.32-3.63 4.34-4.339-3.63 4.783 8.61z" style="stroke:#1a83af;stroke-width:2"/><path fill="none" d="M978.33 132.04c-166.95 8.3-489.09 29.69-593.33 74.53-50.22 21.61-96.21 67.24-121.25 95.21" style="stroke:#1a83af;stroke-width:2"/><path fill="#1A83AF" d="m260.91 305.11 8.961-4.086-5.646.343-.343-5.647-2.972 9.39z" style="stroke:#1a83af;stroke-width:2"/><path fill="none" d="M1183.71 139.52c146.17 16.86 415.47 47.91 587.2 67.72" style="stroke:#1a83af;stroke-width:2"/><path fill="#1A83AF" d="m1775.72 207.91-8.483-5.004 3.516 4.431-4.432 3.516 9.399-2.943z" style="stroke:#1a83af;stroke-width:2"/><path fill="none" d="M1334.17 246.61c-3.38 25.56-12.76 70.93-38.17 99.54-23.73 26.73-58.48 45.17-90.06 57.46" style="stroke:#1a83af;stroke-width:2"/><path fill="#1A83AF" d="m1201.5 405.69 9.833.549-5.158-2.322 2.322-5.158-6.997 6.931z" style="stroke:#1a83af;stroke-width:2"/></svg>