<svg xmlns="http://www.w3.org/2000/svg" width="580" height="252" viewBox="0 0 580 252"><rect width="300" height="39.789" x="21.83" y="206.58" fill="#3D176E" rx="2.5" ry="2.5" style="stroke:#000d19;stroke-width:.5"/><circle cx="36.83" cy="226.475" r="11" fill="#ADD1B2" style="stroke:#181818;stroke-width:1"/><path d="M39.799 232.115q-.578.297-1.219.438-.64.156-1.344.156-2.5 0-3.828-1.64-1.312-1.657-1.312-4.782t1.312-4.781q1.328-1.656 3.828-1.656.703 0 1.344.156.656.156 1.219.453v2.719q-.625-.578-1.219-.844-.594-.281-1.219-.281-1.343 0-2.031 1.078-.688 1.062-.688 3.156 0 2.094.688 3.172.688 1.062 2.031 1.062.625 0 1.219-.265.594-.281 1.219-.86v2.72Z"/><text x="55.83" y="232.36" fill="#D9B8FF" font-family="Helvetica" font-size="17" textLength="258">kubernetes_controller_revision</text><rect width="247" height="39.789" x="48.33" y="106.79" fill="#3D176E" rx="2.5" ry="2.5" style="stroke:#000d19;stroke-width:.5"/><circle cx="63.33" cy="126.684" r="11" fill="#ADD1B2" style="stroke:#181818;stroke-width:1"/><path d="M66.299 132.325q-.578.297-1.219.438-.64.156-1.344.156-2.5 0-3.828-1.64-1.312-1.657-1.312-4.782t1.312-4.781q1.328-1.656 3.828-1.656.703 0 1.344.156.656.156 1.219.453v2.719q-.625-.579-1.219-.844-.594-.281-1.219-.281-1.343 0-2.031 1.078-.688 1.062-.688 3.156 0 2.094.688 3.172.688 1.062 2.031 1.062.625 0 1.219-.265.594-.281 1.219-.86v2.72Z"/><text x="82.33" y="132.57" fill="#D9B8FF" font-family="Helvetica" font-size="17" textLength="205">kubernetes_daemon_set</text><rect width="239" height="39.789" x="52.33" y="7" fill="#3D176E" rx="2.5" ry="2.5" style="stroke:#000d19;stroke-width:.5"/><circle cx="67.33" cy="26.895" r="11" fill="#ADD1B2" style="stroke:#181818;stroke-width:1"/><path d="M70.299 32.535q-.578.297-1.219.438-.64.156-1.344.156-2.5 0-3.828-1.64-1.312-1.657-1.312-4.782t1.312-4.781q1.328-1.656 3.828-1.656.703 0 1.344.156.656.156 1.219.453v2.719q-.625-.578-1.219-.844-.594-.281-1.219-.281-1.344 0-2.031 1.078-.688 1.062-.688 3.156 0 2.094.688 3.172.688 1.062 2.031 1.062.625 0 1.219-.265.594-.281 1.219-.86v2.72Z"/><text x="86.33" y="32.78" fill="#D9B8FF" font-family="Helvetica" font-size="17" textLength="197">kubernetes_namespace</text><rect width="243" height="39.789" x="330.33" y="106.79" fill="#3D176E" rx="2.5" ry="2.5" style="stroke:#000d19;stroke-width:.5"/><circle cx="345.33" cy="126.684" r="11" fill="#ADD1B2" style="stroke:#181818;stroke-width:1"/><path d="M348.299 132.325q-.578.297-1.219.438-.64.156-1.344.156-2.5 0-3.828-1.64-1.312-1.657-1.312-4.782t1.312-4.781q1.328-1.656 3.828-1.656.703 0 1.344.156.656.156 1.219.453v2.719q-.625-.579-1.219-.844-.594-.281-1.219-.281-1.344 0-2.031 1.078-.688 1.062-.688 3.156 0 2.094.688 3.172.688 1.062 2.031 1.062.625 0 1.219-.265.594-.281 1.219-.86v2.72Z"/><text x="364.33" y="132.57" fill="#D9B8FF" font-family="Helvetica" font-size="17" textLength="201">kubernetes_stateful_set</text><path fill="none" d="M171.83 147.01v53.31" style="stroke:#1a83af;stroke-width:2"/><path fill="#1A83AF" d="m171.83 205.2 4-9-4 4-4-4 4 9z" style="stroke:#1a83af;stroke-width:2"/><path fill="none" d="M107.31 47.22C78.57 59.41 47.5 78.36 30.83 106.79 6 149.14 61.56 183.35 110.09 203.97" style="stroke:#1a83af;stroke-width:2"/><path fill="#1A83AF" d="m114.36 206.17-6.761-7.161 2.148 5.233-5.233 2.148 9.846-.22z" style="stroke:#1a83af;stroke-width:2"/><path fill="none" d="M171.83 47.22v53.31" style="stroke:#1a83af;stroke-width:2"/><path fill="#1A83AF" d="m171.83 105.41 4-9-4 4-4-4 4 9z" style="stroke:#1a83af;stroke-width:2"/><path fill="none" d="M227.15 47.22c47.27 16.5 115.16 40.22 163.93 57.25" style="stroke:#1a83af;stroke-width:2"/><path fill="#1A83AF" d="m395.63 106.41-7.182-6.739 2.46 5.094-5.093 2.46 9.815-.815z" style="stroke:#1a83af;stroke-width:2"/><path fill="none" d="M396.51 147.01c-47.27 16.5-115.16 40.22-163.93 57.25" style="stroke:#1a83af;stroke-width:2"/><path fill="#1A83AF" d="m228.03 206.2 9.814.825-5.09-2.466 2.465-5.091-7.189 6.732z" style="stroke:#1a83af;stroke-width:2"/></svg>