<svg xmlns="http://www.w3.org/2000/svg" width="368" height="252" preserveAspectRatio="none" style="width:368px;height:252px"><rect width="239" height="39.789" x="7" y="7" fill="#3D176E" rx="2.5" ry="2.5" style="stroke:#000d19;stroke-width:.5"/><circle cx="22" cy="26.895" r="11" fill="#ADD1B2" style="stroke:#181818;stroke-width:1"/><path d="M24.969 32.535q-.578.297-1.219.438-.64.156-1.344.156-2.5 0-3.828-1.64-1.312-1.657-1.312-4.782t1.312-4.781q1.328-1.656 3.828-1.656.703 0 1.344.156.656.156 1.219.453v2.719q-.625-.578-1.219-.844-.594-.281-1.219-.281-1.343 0-2.031 1.078-.688 1.062-.688 3.156 0 2.094.688 3.172.688 1.062 2.031 1.062.625 0 1.219-.265.594-.281 1.219-.86v2.72Z"/><text x="41" y="32.78" fill="#D9B8FF" font-family="Helvetica" font-size="17" textLength="197">kubernetes_namespace</text><rect width="195" height="39.789" x="29" y="206.58" fill="#3D176E" rx="2.5" ry="2.5" style="stroke:#000d19;stroke-width:.5"/><circle cx="44" cy="226.475" r="11" fill="#ADD1B2" style="stroke:#181818;stroke-width:1"/><path d="M46.969 232.115q-.578.297-1.219.438-.64.156-1.344.156-2.5 0-3.828-1.64-1.312-1.657-1.312-4.782t1.312-4.781q1.328-1.656 3.828-1.656.703 0 1.344.156.656.156 1.219.453v2.719q-.625-.578-1.219-.844-.594-.281-1.219-.281-1.343 0-2.031 1.078-.688 1.062-.688 3.156 0 2.094.688 3.172.688 1.062 2.031 1.062.625 0 1.219-.265.594-.281 1.219-.86v2.72Z"/><text x="63" y="232.36" fill="#D9B8FF" font-family="Helvetica" font-size="17" textLength="153">kubernetes_secret</text><rect width="277" height="39.789" x="84" y="106.79" fill="#3D176E" rx="2.5" ry="2.5" style="stroke:#000d19;stroke-width:.5"/><circle cx="99" cy="126.684" r="11" fill="#ADD1B2" style="stroke:#181818;stroke-width:1"/><path d="M101.969 132.325q-.578.297-1.219.438-.64.156-1.344.156-2.5 0-3.828-1.64-1.312-1.657-1.312-4.782t1.312-4.781q1.328-1.656 3.828-1.656.703 0 1.344.156.656.156 1.219.453v2.719q-.625-.579-1.219-.844-.594-.281-1.219-.281-1.344 0-2.031 1.078-.688 1.062-.688 3.156 0 2.094.688 3.172.688 1.062 2.031 1.062.625 0 1.219-.265.594-.281 1.219-.86v2.72Z"/><text x="118" y="132.57" fill="#D9B8FF" font-family="Helvetica" font-size="17" textLength="235">kubernetes_service_account</text><path fill="none" d="M106.05 47.12C91.91 61.89 74.3 83.64 66.5 106.79c-5.65 16.76-5.65 23.03 0 39.79 7.07 20.99 22.2 40.81 35.49 55.34" style="stroke:#1a83af;stroke-width:2"/><path fill="#1A83AF" d="m105.05 205.25-3.218-9.308-.194 5.653-5.654-.194 9.066 3.849z" style="stroke:#1a83af;stroke-width:2"/><path fill="none" d="m145.47 47.22 54.03 55.04" style="stroke:#1a83af;stroke-width:2"/><path fill="#1A83AF" d="m202.57 105.41-3.442-9.228-.058 5.657-5.656-.057 9.156 3.628z" style="stroke:#1a83af;stroke-width:2"/><path fill="none" d="m203.53 147.01-54.03 55.04" style="stroke:#1a83af;stroke-width:2"/><path fill="#1A83AF" d="m146.43 205.2 9.156-3.628-5.656.057-.058-5.657-3.442 9.228z" style="stroke:#1a83af;stroke-width:2"/></svg>