<svg xmlns="http://www.w3.org/2000/svg" xmlns:xlink="http://www.w3.org/1999/xlink" width="1077" height="1290" preserveAspectRatio="none" style="width:1077px;height:1290px"><a xlink:actuate="onRequest" xlink:href="#a" xlink:show="new" xlink:title="#gcp_resource" xlink:type="simple" target="_top"><rect id="a" width="198" height="100.383" x="620.5" y="7" fill="#3D176E" rx="2.5" ry="2.5" style="stroke:#000d19;stroke-width:.5"/><circle cx="657.1" cy="26.895" r="11" fill="#ADD1B2" style="stroke:#181818;stroke-width:1"/><path d="M660.069 32.535q-.578.297-1.219.438-.64.156-1.344.156-2.5 0-3.828-1.64-1.312-1.657-1.312-4.782t1.312-4.781q1.328-1.656 3.828-1.656.703 0 1.344.156.656.156 1.219.453v2.719q-.625-.578-1.219-.844-.594-.281-1.219-.281-1.343 0-2.031 1.078-.688 1.062-.688 3.156 0 2.094.688 3.172.688 1.062 2.031 1.062.625 0 1.219-.265.594-.281 1.219-.86v2.72Z"/><text x="680.9" y="32.78" fill="#D9B8FF" font-family="Helvetica" font-size="17" textLength="108">gcp_resource</text><path d="M621.5 46.789h196" style="stroke:#000d19;stroke-width:.5"/><text x="631.5" y="68.784" fill="#D9B8FF" font-family="sans-serif" font-size="14" font-weight="bold" textLength="27">link</text><text x="658.5" y="68.784" fill="#D9B8FF" font-family="sans-serif" font-size="14" textLength="48">: string</text><text x="631.5" y="95.081" fill="#D9B8FF" font-family="sans-serif" font-size="14" font-weight="bold" textLength="128">label_fingerprint</text><text x="759.5" y="95.081" fill="#D9B8FF" font-family="sans-serif" font-size="14" textLength="48">: string</text></a><a xlink:actuate="onRequest" xlink:href="#b" xlink:show="new" xlink:title="#gcp_firewall_policy_rule" xlink:type="simple" target="_top"><rect id="b" width="434" height="363.352" x="301.5" y="546.55" fill="#3D176E" rx="2.5" ry="2.5" style="stroke:#000d19;stroke-width:.5"/><circle cx="409.75" cy="566.444" r="11" fill="#ADD1B2" style="stroke:#181818;stroke-width:1"/><path d="M412.719 572.085q-.578.297-1.219.438-.64.156-1.344.156-2.5 0-3.828-1.64-1.312-1.657-1.312-4.782t1.312-4.781q1.328-1.657 3.828-1.657.703 0 1.344.157.656.156 1.219.453v2.719q-.625-.579-1.219-.844-.594-.281-1.219-.281-1.344 0-2.031 1.078-.688 1.062-.688 3.156 0 2.094.688 3.172.688 1.062 2.031 1.062.625 0 1.219-.265.594-.282 1.219-.86v2.72Z"/><text x="435.25" y="572.33" fill="#D9B8FF" font-family="Helvetica" font-size="17" textLength="199">gcp_firewall_policy_rule</text><path d="M302.5 586.339h432" style="stroke:#000d19;stroke-width:.5"/><text x="312.5" y="608.334" fill="#D9B8FF" font-family="sans-serif" font-size="14" font-weight="bold" textLength="48">action</text><text x="360.5" y="608.334" fill="#D9B8FF" font-family="sans-serif" font-size="14" textLength="48">: string</text><text x="312.5" y="634.631" fill="#D9B8FF" font-family="sans-serif" font-size="14" font-weight="bold" textLength="89">description</text><text x="401.5" y="634.631" fill="#D9B8FF" font-family="sans-serif" font-size="14" textLength="48">: string</text><text x="312.5" y="660.928" fill="#D9B8FF" font-family="sans-serif" font-size="14" font-weight="bold" textLength="70">direction</text><text x="382.5" y="660.928" fill="#D9B8FF" font-family="sans-serif" font-size="14" textLength="48">: string</text><text x="312.5" y="687.225" fill="#D9B8FF" font-family="sans-serif" font-size="14" font-weight="bold" textLength="66">disabled</text><text x="378.5" y="687.225" fill="#D9B8FF" font-family="sans-serif" font-size="14" textLength="65">: boolean</text><text x="312.5" y="713.522" fill="#D9B8FF" font-family="sans-serif" font-size="14" font-weight="bold" textLength="118">enable_logging</text><text x="430.5" y="713.522" fill="#D9B8FF" font-family="sans-serif" font-size="14" textLength="65">: boolean</text><text x="312.5" y="739.819" fill="#D9B8FF" font-family="sans-serif" font-size="14" font-weight="bold" textLength="48">match</text><text x="360.5" y="739.819" fill="#D9B8FF" font-family="sans-serif" font-size="14" textLength="231">: gcp_firewall_policy_rule_matcher</text><text x="312.5" y="766.115" fill="#D9B8FF" font-family="sans-serif" font-size="14" font-weight="bold" textLength="57">priority</text><text x="369.5" y="766.115" fill="#D9B8FF" font-family="sans-serif" font-size="14" textLength="44">: int64</text><text x="312.5" y="792.412" fill="#D9B8FF" font-family="sans-serif" font-size="14" font-weight="bold" textLength="81">rule_name</text><text x="393.5" y="792.412" fill="#D9B8FF" font-family="sans-serif" font-size="14" textLength="48">: string</text><text x="312.5" y="818.709" fill="#D9B8FF" font-family="sans-serif" font-size="14" font-weight="bold" textLength="130">rule_tuple_count</text><text x="442.5" y="818.709" fill="#D9B8FF" font-family="sans-serif" font-size="14" textLength="44">: int64</text><text x="312.5" y="845.006" fill="#D9B8FF" font-family="sans-serif" font-size="14" font-weight="bold" textLength="136">target_resources</text><text x="448.5" y="845.006" fill="#D9B8FF" font-family="sans-serif" font-size="14" textLength="58">: string[]</text><text x="312.5" y="871.303" fill="#D9B8FF" font-family="sans-serif" font-size="14" font-weight="bold" textLength="151">target_secure_tags</text><text x="463.5" y="871.303" fill="#D9B8FF" font-family="sans-serif" font-size="14" textLength="261">: gcp_firewall_policy_rule_secure_tag[]</text><text x="312.5" y="897.6" fill="#D9B8FF" font-family="sans-serif" font-size="14" font-weight="bold" textLength="192">target_service_accounts</text><text x="504.5" y="897.6" fill="#D9B8FF" font-family="sans-serif" font-size="14" textLength="58">: string[]</text></a><a xlink:actuate="onRequest" xlink:href="#c" xlink:show="new" xlink:title="#gcp_firewall_policy_rule_matcher" xlink:type="simple" target="_top"><rect id="c" width="474" height="152.977" x="136.5" y="969.9" fill="#3D176E" rx="2.5" ry="2.5" style="stroke:#000d19;stroke-width:.5"/><circle cx="225.25" cy="989.794" r="11" fill="#ADD1B2" style="stroke:#181818;stroke-width:1"/><path d="M228.219 995.435q-.578.297-1.219.438-.64.156-1.344.156-2.5 0-3.828-1.64-1.312-1.657-1.312-4.782t1.312-4.781q1.328-1.657 3.828-1.657.703 0 1.344.157.656.156 1.219.453v2.719q-.625-.579-1.219-.844-.594-.281-1.219-.281-1.344 0-2.031 1.078-.688 1.062-.688 3.156 0 2.094.688 3.172.688 1.062 2.031 1.062.625 0 1.219-.265.594-.282 1.219-.86v2.72Z"/><text x="250.75" y="995.68" fill="#D9B8FF" font-family="Helvetica" font-size="17" textLength="278">gcp_firewall_policy_rule_matcher</text><path d="M137.5 1009.689h472" style="stroke:#000d19;stroke-width:.5"/><text x="147.5" y="1031.684" fill="#D9B8FF" font-family="sans-serif" font-size="14" font-weight="bold" textLength="118">dest_ip_ranges</text><text x="265.5" y="1031.684" fill="#D9B8FF" font-family="sans-serif" font-size="14" textLength="58">: string[]</text><text x="147.5" y="1057.981" fill="#D9B8FF" font-family="sans-serif" font-size="14" font-weight="bold" textLength="114">layer4_configs</text><text x="261.5" y="1057.981" fill="#D9B8FF" font-family="sans-serif" font-size="14" textLength="338">: gcp_firewall_policy_rule_matcher_layer4_config[]</text><text x="147.5" y="1084.278" fill="#D9B8FF" font-family="sans-serif" font-size="14" font-weight="bold" textLength="108">src_ip_ranges</text><text x="255.5" y="1084.278" fill="#D9B8FF" font-family="sans-serif" font-size="14" textLength="58">: string[]</text><text x="147.5" y="1110.575" fill="#D9B8FF" font-family="sans-serif" font-size="14" font-weight="bold" textLength="128">src_secure_tags</text><text x="275.5" y="1110.575" fill="#D9B8FF" font-family="sans-serif" font-size="14" textLength="261">: gcp_firewall_policy_rule_secure_tag[]</text></a><a xlink:actuate="onRequest" xlink:href="#d" xlink:show="new" xlink:title="#gcp_firewall_policy_rule_matcher_layer4_config" xlink:type="simple" target="_top"><rect id="d" width="441" height="100.383" x="7" y="1182.88" fill="#3D176E" rx="2.5" ry="2.5" style="stroke:#000d19;stroke-width:.5"/><circle cx="22" cy="1202.774" r="11" fill="#ADD1B2" style="stroke:#181818;stroke-width:1"/><path d="M24.969 1208.415q-.578.297-1.219.438-.64.156-1.344.156-2.5 0-3.828-1.64-1.312-1.657-1.312-4.782t1.312-4.781q1.328-1.657 3.828-1.657.703 0 1.344.157.656.156 1.219.453v2.719q-.625-.579-1.219-.844-.594-.281-1.219-.281-1.343 0-2.031 1.078-.688 1.062-.688 3.156 0 2.094.688 3.172.688 1.062 2.031 1.062.625 0 1.219-.265.594-.282 1.219-.86v2.72Z"/><text x="41" y="1208.66" fill="#D9B8FF" font-family="Helvetica" font-size="17" textLength="399">gcp_firewall_policy_rule_matcher_layer4_config</text><path d="M8 1222.669h439" style="stroke:#000d19;stroke-width:.5"/><text x="18" y="1244.664" fill="#D9B8FF" font-family="sans-serif" font-size="14" font-weight="bold" textLength="87">ip_protocol</text><text x="105" y="1244.664" fill="#D9B8FF" font-family="sans-serif" font-size="14" textLength="48">: string</text><text x="18" y="1270.961" fill="#D9B8FF" font-family="sans-serif" font-size="14" font-weight="bold" textLength="42">ports</text><text x="60" y="1270.961" fill="#D9B8FF" font-family="sans-serif" font-size="14" textLength="58">: string[]</text></a><a xlink:actuate="onRequest" xlink:href="#e" xlink:show="new" xlink:title="#gcp_firewall_policy_rule_secure_tag" xlink:type="simple" target="_top"><rect id="e" width="360" height="100.383" x="483.5" y="1182.88" fill="#3D176E" rx="2.5" ry="2.5" style="stroke:#000d19;stroke-width:.5"/><circle cx="507.5" cy="1202.774" r="11" fill="#ADD1B2" style="stroke:#181818;stroke-width:1"/><path d="M510.469 1208.415q-.578.297-1.219.438-.64.156-1.344.156-2.5 0-3.828-1.64-1.312-1.657-1.312-4.782t1.312-4.781q1.328-1.657 3.828-1.657.703 0 1.344.157.656.156 1.219.453v2.719q-.625-.579-1.219-.844-.594-.281-1.219-.281-1.344 0-2.031 1.078-.688 1.062-.688 3.156 0 2.094.688 3.172.688 1.062 2.031 1.062.625 0 1.219-.265.594-.282 1.219-.86v2.72Z"/><text x="528.5" y="1208.66" fill="#D9B8FF" font-family="Helvetica" font-size="17" textLength="298">gcp_firewall_policy_rule_secure_tag</text><path d="M484.5 1222.669h358" style="stroke:#000d19;stroke-width:.5"/><text x="494.5" y="1244.664" fill="#D9B8FF" font-family="sans-serif" font-size="14" font-weight="bold" textLength="43">name</text><text x="537.5" y="1244.664" fill="#D9B8FF" font-family="sans-serif" font-size="14" textLength="48">: string</text><text x="494.5" y="1270.961" fill="#D9B8FF" font-family="sans-serif" font-size="14" font-weight="bold" textLength="290">firewall_policy_rule_secure_tag_state</text><text x="784.5" y="1270.961" fill="#D9B8FF" font-family="sans-serif" font-size="14" textLength="48">: string</text></a><a xlink:actuate="onRequest" xlink:href="#f" xlink:show="new" xlink:title="#gcp_firewall_policy_association" xlink:type="simple" target="_top"><rect id="f" width="300" height="179.273" x="770.5" y="638.59" fill="#3D176E" rx="2.5" ry="2.5" style="stroke:#000d19;stroke-width:.5"/><circle cx="785.5" cy="658.485" r="11" fill="#ADD1B2" style="stroke:#181818;stroke-width:1"/><path d="M788.469 664.125q-.578.297-1.219.438-.64.156-1.344.156-2.5 0-3.828-1.64-1.312-1.657-1.312-4.782t1.312-4.781q1.328-1.656 3.828-1.656.703 0 1.344.156.656.156 1.219.453v2.719q-.625-.578-1.219-.844-.594-.281-1.219-.281-1.343 0-2.031 1.078-.688 1.062-.688 3.156 0 2.094.688 3.172.688 1.062 2.031 1.062.625 0 1.219-.265.594-.281 1.219-.86v2.72Z"/><text x="804.5" y="664.37" fill="#D9B8FF" font-family="Helvetica" font-size="17" textLength="258">gcp_firewall_policy_association</text><path d="M771.5 678.379h298" style="stroke:#000d19;stroke-width:.5"/><text x="781.5" y="700.374" fill="#D9B8FF" font-family="sans-serif" font-size="14" font-weight="bold" textLength="144">attachment_target</text><text x="925.5" y="700.374" fill="#D9B8FF" font-family="sans-serif" font-size="14" textLength="48">: string</text><text x="781.5" y="726.671" fill="#D9B8FF" font-family="sans-serif" font-size="14" font-weight="bold" textLength="105">display_name</text><text x="886.5" y="726.671" fill="#D9B8FF" font-family="sans-serif" font-size="14" textLength="48">: string</text><text x="781.5" y="752.968" fill="#D9B8FF" font-family="sans-serif" font-size="14" font-weight="bold" textLength="132">firewall_policy_id</text><text x="913.5" y="752.968" fill="#D9B8FF" font-family="sans-serif" font-size="14" textLength="48">: string</text><text x="781.5" y="779.265" fill="#D9B8FF" font-family="sans-serif" font-size="14" font-weight="bold" textLength="43">name</text><text x="824.5" y="779.265" fill="#D9B8FF" font-family="sans-serif" font-size="14" textLength="48">: string</text><text x="781.5" y="805.562" fill="#D9B8FF" font-family="sans-serif" font-size="14" font-weight="bold" textLength="92">short_name</text><text x="873.5" y="805.562" fill="#D9B8FF" font-family="sans-serif" font-size="14" textLength="48">: string</text></a><a xlink:actuate="onRequest" xlink:href="#g" xlink:show="new" xlink:title="#gcp_firewall_policy" xlink:type="simple" target="_top"><rect id="g" width="357" height="258.164" x="541" y="228.39" fill="#3D176E" rx="2.5" ry="2.5" style="stroke:#000d19;stroke-width:.5"/><circle cx="631.75" cy="248.285" r="11" fill="#ADD1B2" style="stroke:#181818;stroke-width:1"/><path d="M634.719 253.925q-.578.297-1.219.438-.64.156-1.344.156-2.5 0-3.828-1.64-1.312-1.657-1.312-4.782t1.312-4.781q1.328-1.656 3.828-1.656.703 0 1.344.156.656.156 1.219.453v2.719q-.625-.578-1.219-.844-.594-.281-1.219-.281-1.343 0-2.031 1.078-.688 1.062-.688 3.156 0 2.094.688 3.172.688 1.062 2.031 1.062.625 0 1.219-.265.594-.281 1.219-.86v2.72Z"/><text x="657.25" y="254.17" fill="#D9B8FF" font-family="Helvetica" font-size="17" textLength="157">gcp_firewall_policy</text><path d="M542 268.179h355" style="stroke:#000d19;stroke-width:.5"/><text x="552" y="290.174" fill="#D9B8FF" font-family="sans-serif" font-size="14" font-weight="bold" textLength="98">associations</text><text x="650" y="290.174" fill="#D9B8FF" font-family="sans-serif" font-size="14" textLength="229">: gcp_firewall_policy_association[]</text><text x="552" y="316.471" fill="#D9B8FF" font-family="sans-serif" font-size="14" font-weight="bold" textLength="105">display_name</text><text x="657" y="316.471" fill="#D9B8FF" font-family="sans-serif" font-size="14" textLength="48">: string</text><text x="552" y="342.768" fill="#D9B8FF" font-family="sans-serif" font-size="14" font-weight="bold" textLength="84">fingerprint</text><text x="636" y="342.768" fill="#D9B8FF" font-family="sans-serif" font-size="14" textLength="48">: string</text><text x="552" y="369.065" fill="#D9B8FF" font-family="sans-serif" font-size="14" font-weight="bold" textLength="52">parent</text><text x="604" y="369.065" fill="#D9B8FF" font-family="sans-serif" font-size="14" textLength="48">: string</text><text x="552" y="395.362" fill="#D9B8FF" font-family="sans-serif" font-size="14" font-weight="bold" textLength="130">rule_tuple_count</text><text x="682" y="395.362" fill="#D9B8FF" font-family="sans-serif" font-size="14" textLength="44">: int64</text><text x="552" y="421.659" fill="#D9B8FF" font-family="sans-serif" font-size="14" font-weight="bold" textLength="158">firewall_policy_rules</text><text x="710" y="421.659" fill="#D9B8FF" font-family="sans-serif" font-size="14" textLength="177">: gcp_firewall_policy_rule[]</text><text x="552" y="447.955" fill="#D9B8FF" font-family="sans-serif" font-size="14" font-weight="bold" textLength="125">self_link_with_id</text><text x="677" y="447.955" fill="#D9B8FF" font-family="sans-serif" font-size="14" textLength="48">: string</text><text x="552" y="474.252" fill="#D9B8FF" font-family="sans-serif" font-size="14" font-weight="bold" textLength="92">short_name</text><text x="644" y="474.252" fill="#D9B8FF" font-family="sans-serif" font-size="14" textLength="48">: string</text></a><path fill="none" d="M435.41 910.39c-8.66 18.88-17.11 37.31-24.85 54.19" style="stroke:#ffaf37;stroke-width:2"/><path fill="#FFAF37" d="m408.18 968.76 7.39-6.51-5.304 1.966-1.966-5.304-.12 9.848z" style="stroke:#ffaf37;stroke-width:2"/><path fill="none" d="M607.05 910.12c7.73 19.88 14.76 40.06 20.45 59.78 20.09 69.64 29.09 153 33.04 206.73" style="stroke:#ffaf37;stroke-width:2"/><path fill="#FFAF37" d="m660.95 1181.39 3.347-9.263-3.704 4.276-4.276-3.704 4.633 8.691z" style="stroke:#ffaf37;stroke-width:2"/><path fill="none" d="M313.48 1123.3c-14.57 18.44-29.86 37.78-43.43 54.95" style="stroke:#ffaf37;stroke-width:2"/><path fill="#FFAF37" d="m266.64 1181.57 8.715-4.587-5.618.662-.662-5.618-2.435 9.543z" style="stroke:#ffaf37;stroke-width:2"/><path fill="none" d="M492.71 1123.3c29.68 18.91 60.86 38.76 88.33 56.25" style="stroke:#ffaf37;stroke-width:2"/><path fill="#FFAF37" d="m584.77 1182.57-5.453-8.202 1.232 5.521-5.52 1.232 9.741 1.449z" style="stroke:#ffaf37;stroke-width:2"/><path fill="none" d="M719.5 128.74v99.18m-7-99.14 7-20 7 20h-14zm77.02 358.14c26.23 48.14 55.53 101.89 79.76 146.33" style="stroke:#ffaf37;stroke-width:2"/><path fill="#FFAF37" d="m872.05 637.34-.773-9.818-1.61 5.422-5.423-1.61 7.806 6.006z" style="stroke:#ffaf37;stroke-width:2"/><path fill="none" d="M649.48 486.92c-9.58 17.58-19.56 35.9-29.56 54.25" style="stroke:#ffaf37;stroke-width:2"/><path fill="#FFAF37" d="m617.1 545.34 7.83-5.975-5.43 1.589-1.588-5.43-.812 9.816z" style="stroke:#ffaf37;stroke-width:2"/></svg>