<svg xmlns="http://www.w3.org/2000/svg" xmlns:xlink="http://www.w3.org/1999/xlink" width="2982" height="851" preserveAspectRatio="none" style="width:2982px;height:851px"><a xlink:actuate="onRequest" xlink:href="#a" xlink:show="new" xlink:title="#gcp_subnetwork" xlink:type="simple" target="_top"><rect id="a" width="178" height="39.789" x="1880" y="505.94" fill="#3D176E" rx="2.5" ry="2.5" style="stroke:#000d19;stroke-width:.5"/><circle cx="1895" cy="525.835" r="11" fill="#ADD1B2" style="stroke:#181818;stroke-width:1"/><path d="M1897.969 531.475q-.578.297-1.219.438-.64.156-1.344.156-2.5 0-3.828-1.64-1.312-1.657-1.312-4.782t1.312-4.781q1.328-1.656 3.828-1.656.703 0 1.344.156.656.156 1.219.453v2.719q-.625-.578-1.219-.844-.594-.281-1.219-.281-1.343 0-2.031 1.078-.688 1.062-.688 3.156 0 2.094.688 3.172.688 1.062 2.031 1.062.625 0 1.219-.265.594-.281 1.219-.86v2.72Z"/><text x="1914" y="531.72" fill="#D9B8FF" font-family="Helvetica" font-size="17" textLength="136">gcp_subnetwork</text></a><a xlink:actuate="onRequest" xlink:href="#b" xlink:show="new" xlink:title="#gcp_target_https_proxy" xlink:type="simple" target="_top"><rect id="b" width="238" height="39.789" x="343" y="306.37" fill="#3D176E" rx="2.5" ry="2.5" style="stroke:#000d19;stroke-width:.5"/><circle cx="358" cy="326.264" r="11" fill="#ADD1B2" style="stroke:#181818;stroke-width:1"/><path d="M360.969 331.905q-.578.297-1.219.438-.64.156-1.344.156-2.5 0-3.828-1.64-1.312-1.657-1.312-4.782t1.312-4.781q1.328-1.656 3.828-1.656.703 0 1.344.156.656.156 1.219.453v2.719q-.625-.579-1.219-.844-.594-.281-1.219-.281-1.344 0-2.031 1.078-.688 1.062-.688 3.156 0 2.094.688 3.172.688 1.062 2.031 1.062.625 0 1.219-.265.594-.281 1.219-.86v2.72Z"/><text x="377" y="332.15" fill="#D9B8FF" font-family="Helvetica" font-size="17" textLength="196">gcp_target_https_proxy</text></a><a xlink:actuate="onRequest" xlink:href="#c" xlink:show="new" xlink:title="#gcp_backend_service" xlink:type="simple" target="_top"><rect id="c" width="215" height="39.789" x="949.5" y="505.94" fill="#3D176E" rx="2.5" ry="2.5" style="stroke:#000d19;stroke-width:.5"/><circle cx="964.5" cy="525.835" r="11" fill="#ADD1B2" style="stroke:#181818;stroke-width:1"/><path d="M967.469 531.475q-.578.297-1.219.438-.64.156-1.344.156-2.5 0-3.828-1.64-1.312-1.657-1.312-4.782t1.312-4.781q1.328-1.656 3.828-1.656.703 0 1.344.156.656.156 1.219.453v2.719q-.625-.578-1.219-.844-.594-.281-1.219-.281-1.343 0-2.031 1.078-.688 1.062-.688 3.156 0 2.094.688 3.172.688 1.062 2.031 1.062.625 0 1.219-.265.594-.281 1.219-.86v2.72Z"/><text x="983.5" y="531.72" fill="#D9B8FF" font-family="Helvetica" font-size="17" textLength="173">gcp_backend_service</text></a><a xlink:actuate="onRequest" xlink:href="#d" xlink:show="new" xlink:title="#gcp_disk" xlink:type="simple" target="_top"><rect id="d" width="112" height="39.789" x="1501" y="406.15" fill="#3D176E" rx="2.5" ry="2.5" style="stroke:#000d19;stroke-width:.5"/><circle cx="1516" cy="426.045" r="11" fill="#ADD1B2" style="stroke:#181818;stroke-width:1"/><path d="M1518.969 431.685q-.578.297-1.219.438-.64.156-1.344.156-2.5 0-3.828-1.64-1.312-1.657-1.312-4.782t1.312-4.781q1.328-1.656 3.828-1.656.703 0 1.344.156.656.156 1.219.453v2.719q-.625-.578-1.219-.844-.594-.281-1.219-.281-1.343 0-2.031 1.078-.688 1.062-.688 3.156 0 2.094.688 3.172.688 1.062 2.031 1.062.625 0 1.219-.265.594-.281 1.219-.86v2.72Z"/><text x="1535" y="431.93" fill="#D9B8FF" font-family="Helvetica" font-size="17" textLength="70">gcp_disk</text></a><a xlink:actuate="onRequest" xlink:href="#e" xlink:show="new" xlink:title="#gcp_database" xlink:type="simple" target="_top"><rect id="e" width="154" height="39.789" x="2450" y="306.37" fill="#3D176E" rx="2.5" ry="2.5" style="stroke:#000d19;stroke-width:.5"/><circle cx="2465" cy="326.264" r="11" fill="#ADD1B2" style="stroke:#181818;stroke-width:1"/><path d="M2467.969 331.905q-.578.297-1.219.438-.64.156-1.344.156-2.5 0-3.828-1.64-1.312-1.657-1.312-4.782t1.312-4.781q1.328-1.656 3.828-1.656.703 0 1.344.156.656.156 1.219.453v2.719q-.625-.579-1.219-.844-.594-.281-1.219-.281-1.343 0-2.031 1.078-.688 1.062-.688 3.156 0 2.094.688 3.172.688 1.062 2.031 1.062.625 0 1.219-.265.594-.281 1.219-.86v2.72Z"/><text x="2484" y="332.15" fill="#D9B8FF" font-family="Helvetica" font-size="17" textLength="112">gcp_database</text></a><a xlink:actuate="onRequest" xlink:href="#f" xlink:show="new" xlink:title="#gcp_url_map" xlink:type="simple" target="_top"><rect id="f" width="148" height="39.789" x="818" y="406.15" fill="#3D176E" rx="2.5" ry="2.5" style="stroke:#000d19;stroke-width:.5"/><circle cx="833" cy="426.045" r="11" fill="#ADD1B2" style="stroke:#181818;stroke-width:1"/><path d="M835.969 431.685q-.578.297-1.219.438-.64.156-1.344.156-2.5 0-3.828-1.64-1.312-1.657-1.312-4.782t1.312-4.781q1.328-1.656 3.828-1.656.703 0 1.344.156.656.156 1.219.453v2.719q-.625-.578-1.219-.844-.594-.281-1.219-.281-1.343 0-2.031 1.078-.688 1.062-.688 3.156 0 2.094.688 3.172.688 1.062 2.031 1.062.625 0 1.219-.265.594-.281 1.219-.86v2.72Z"/><text x="852" y="431.93" fill="#D9B8FF" font-family="Helvetica" font-size="17" textLength="106">gcp_url_map</text></a><a xlink:actuate="onRequest" xlink:href="#g" xlink:show="new" xlink:title="#gcp_target_http_proxy" xlink:type="simple" target="_top"><rect id="g" width="230" height="39.789" x="616" y="306.37" fill="#3D176E" rx="2.5" ry="2.5" style="stroke:#000d19;stroke-width:.5"/><circle cx="631" cy="326.264" r="11" fill="#ADD1B2" style="stroke:#181818;stroke-width:1"/><path d="M633.969 331.905q-.578.297-1.219.438-.64.156-1.344.156-2.5 0-3.828-1.64-1.312-1.657-1.312-4.782t1.312-4.781q1.328-1.656 3.828-1.656.703 0 1.344.156.656.156 1.219.453v2.719q-.625-.579-1.219-.844-.594-.281-1.219-.281-1.343 0-2.031 1.078-.688 1.062-.688 3.156 0 2.094.688 3.172.688 1.062 2.031 1.062.625 0 1.219-.265.594-.281 1.219-.86v2.72Z"/><text x="650" y="332.15" fill="#D9B8FF" font-family="Helvetica" font-size="17" textLength="188">gcp_target_http_proxy</text></a><a xlink:actuate="onRequest" xlink:href="#h" xlink:show="new" xlink:title="#gcp_instance_group_manager" xlink:type="simple" target="_top"><rect id="h" width="290" height="39.789" x="2149" y="705.52" fill="#3D176E" rx="2.5" ry="2.5" style="stroke:#000d19;stroke-width:.5"/><circle cx="2164" cy="725.414" r="11" fill="#ADD1B2" style="stroke:#181818;stroke-width:1"/><path d="M2166.969 731.055q-.578.297-1.219.438-.64.156-1.344.156-2.5 0-3.828-1.64-1.312-1.657-1.312-4.782t1.312-4.781q1.328-1.657 3.828-1.657.703 0 1.344.157.656.156 1.219.453v2.719q-.625-.579-1.219-.844-.594-.281-1.219-.281-1.343 0-2.031 1.078-.688 1.062-.688 3.156 0 2.094.688 3.172.688 1.062 2.031 1.062.625 0 1.219-.265.594-.282 1.219-.86v2.72Z"/><text x="2183" y="731.3" fill="#D9B8FF" font-family="Helvetica" font-size="17" textLength="248">gcp_instance_group_manager</text></a><a xlink:actuate="onRequest" xlink:href="#i" xlink:show="new" xlink:title="#gcp_health_check" xlink:type="simple" target="_top"><rect id="i" width="189" height="39.789" x="520.5" y="805.31" fill="#3D176E" rx="2.5" ry="2.5" style="stroke:#000d19;stroke-width:.5"/><circle cx="535.5" cy="825.205" r="11" fill="#ADD1B2" style="stroke:#181818;stroke-width:1"/><path d="M538.469 830.845q-.578.297-1.219.438-.64.156-1.344.156-2.5 0-3.828-1.64-1.312-1.657-1.312-4.782t1.312-4.781q1.328-1.656 3.828-1.656.703 0 1.344.156.656.156 1.219.453v2.719q-.625-.578-1.219-.844-.594-.281-1.219-.281-1.343 0-2.031 1.078-.688 1.062-.688 3.156 0 2.094.688 3.172.688 1.062 2.031 1.062.625 0 1.219-.265.594-.281 1.219-.86v2.72Z"/><text x="554.5" y="831.09" fill="#D9B8FF" font-family="Helvetica" font-size="17" textLength="147">gcp_health_check</text></a><a xlink:actuate="onRequest" xlink:href="#j" xlink:show="new" xlink:title="#gcp_ssl_certificate" xlink:type="simple" target="_top"><rect id="j" width="192" height="39.789" x="201" y="406.15" fill="#3D176E" rx="2.5" ry="2.5" style="stroke:#000d19;stroke-width:.5"/><circle cx="216" cy="426.045" r="11" fill="#ADD1B2" style="stroke:#181818;stroke-width:1"/><path d="M218.969 431.685q-.578.297-1.219.438-.64.156-1.344.156-2.5 0-3.828-1.64-1.312-1.657-1.312-4.782t1.312-4.781q1.328-1.656 3.828-1.656.703 0 1.344.156.656.156 1.219.453v2.719q-.625-.578-1.219-.844-.594-.281-1.219-.281-1.344 0-2.031 1.078-.688 1.062-.688 3.156 0 2.094.688 3.172.688 1.062 2.031 1.062.625 0 1.219-.265.594-.281 1.219-.86v2.72Z"/><text x="235" y="431.93" fill="#D9B8FF" font-family="Helvetica" font-size="17" textLength="150">gcp_ssl_certificate</text></a><a xlink:actuate="onRequest" xlink:href="#k" xlink:show="new" xlink:title="#gcp_forwarding_rule" xlink:type="simple" target="_top"><rect id="k" width="212" height="39.789" x="627" y="206.58" fill="#3D176E" rx="2.5" ry="2.5" style="stroke:#000d19;stroke-width:.5"/><circle cx="642" cy="226.475" r="11" fill="#ADD1B2" style="stroke:#181818;stroke-width:1"/><path d="M644.969 232.115q-.578.297-1.219.438-.64.156-1.344.156-2.5 0-3.828-1.64-1.312-1.657-1.312-4.782t1.312-4.781q1.328-1.656 3.828-1.656.703 0 1.344.156.656.156 1.219.453v2.719q-.625-.578-1.219-.844-.594-.281-1.219-.281-1.343 0-2.031 1.078-.688 1.062-.688 3.156 0 2.094.688 3.172.688 1.062 2.031 1.062.625 0 1.219-.265.594-.281 1.219-.86v2.72Z"/><text x="661" y="232.36" fill="#D9B8FF" font-family="Helvetica" font-size="17" textLength="170">gcp_forwarding_rule</text></a><a xlink:actuate="onRequest" xlink:href="#l" xlink:show="new" xlink:title="#gcp_region" xlink:type="simple" target="_top"><rect id="l" width="132" height="39.789" x="1438" y="106.79" fill="#3D176E" rx="2.5" ry="2.5" style="stroke:#000d19;stroke-width:.5"/><circle cx="1453" cy="126.684" r="11" fill="#ADD1B2" style="stroke:#181818;stroke-width:1"/><path d="M1455.969 132.325q-.578.297-1.219.438-.64.156-1.344.156-2.5 0-3.828-1.64-1.312-1.657-1.312-4.782t1.312-4.781q1.328-1.656 3.828-1.656.703 0 1.344.156.656.156 1.219.453v2.719q-.625-.579-1.219-.844-.594-.281-1.219-.281-1.343 0-2.031 1.078-.688 1.062-.688 3.156 0 2.094.688 3.172.688 1.062 2.031 1.062.625 0 1.219-.265.594-.281 1.219-.86v2.72Z"/><text x="1472" y="132.57" fill="#D9B8FF" font-family="Helvetica" font-size="17" textLength="90">gcp_region</text></a><a xlink:actuate="onRequest" xlink:href="#m" xlink:show="new" xlink:title="#gcp_zone" xlink:type="simple" target="_top"><rect id="m" width="118" height="39.789" x="1919" y="206.58" fill="#3D176E" rx="2.5" ry="2.5" style="stroke:#000d19;stroke-width:.5"/><circle cx="1934" cy="226.475" r="11" fill="#ADD1B2" style="stroke:#181818;stroke-width:1"/><path d="M1936.969 232.115q-.578.297-1.219.438-.64.156-1.344.156-2.5 0-3.828-1.64-1.312-1.657-1.312-4.782t1.312-4.781q1.328-1.656 3.828-1.656.703 0 1.344.156.656.156 1.219.453v2.719q-.625-.578-1.219-.844-.594-.281-1.219-.281-1.343 0-2.031 1.078-.688 1.062-.688 3.156 0 2.094.688 3.172.688 1.062 2.031 1.062.625 0 1.219-.265.594-.281 1.219-.86v2.72Z"/><text x="1953" y="232.36" fill="#D9B8FF" font-family="Helvetica" font-size="17" textLength="76">gcp_zone</text></a><a xlink:actuate="onRequest" xlink:href="#n" xlink:show="new" xlink:title="#gcp_quota" xlink:type="simple" target="_top"><rect id="n" width="127" height="39.789" x="1087.5" y="206.58" fill="#3D176E" rx="2.5" ry="2.5" style="stroke:#000d19;stroke-width:.5"/><circle cx="1102.5" cy="226.475" r="11" fill="#ADD1B2" style="stroke:#181818;stroke-width:1"/><path d="M1105.469 232.115q-.578.297-1.219.438-.64.156-1.344.156-2.5 0-3.828-1.64-1.312-1.657-1.312-4.782t1.312-4.781q1.328-1.656 3.828-1.656.703 0 1.344.156.656.156 1.219.453v2.719q-.625-.578-1.219-.844-.594-.281-1.219-.281-1.343 0-2.031 1.078-.688 1.062-.688 3.156 0 2.094.688 3.172.688 1.062 2.031 1.062.625 0 1.219-.265.594-.281 1.219-.86v2.72Z"/><text x="1121.5" y="232.36" fill="#D9B8FF" font-family="Helvetica" font-size="17" textLength="85">gcp_quota</text></a><a xlink:actuate="onRequest" xlink:href="#o" xlink:show="new" xlink:title="#gcp_disk_type" xlink:type="simple" target="_top"><rect id="o" width="158" height="39.789" x="1478" y="306.37" fill="#3D176E" rx="2.5" ry="2.5" style="stroke:#000d19;stroke-width:.5"/><circle cx="1493" cy="326.264" r="11" fill="#ADD1B2" style="stroke:#181818;stroke-width:1"/><path d="M1495.969 331.905q-.578.297-1.219.438-.64.156-1.344.156-2.5 0-3.828-1.64-1.312-1.657-1.312-4.782t1.312-4.781q1.328-1.656 3.828-1.656.703 0 1.344.156.656.156 1.219.453v2.719q-.625-.579-1.219-.844-.594-.281-1.219-.281-1.343 0-2.031 1.078-.688 1.062-.688 3.156 0 2.094.688 3.172.688 1.062 2.031 1.062.625 0 1.219-.265.594-.281 1.219-.86v2.72Z"/><text x="1512" y="332.15" fill="#D9B8FF" font-family="Helvetica" font-size="17" textLength="116">gcp_disk_type</text></a><a xlink:actuate="onRequest" xlink:href="#p" xlink:show="new" xlink:title="#gcp_network_endpoint_group" xlink:type="simple" target="_top"><rect id="p" width="289" height="39.789" x="1965.5" y="605.73" fill="#3D176E" rx="2.5" ry="2.5" style="stroke:#000d19;stroke-width:.5"/><circle cx="1980.5" cy="625.625" r="11" fill="#ADD1B2" style="stroke:#181818;stroke-width:1"/><path d="M1983.469 631.265q-.578.297-1.219.438-.64.156-1.344.156-2.5 0-3.828-1.64-1.312-1.657-1.312-4.782t1.312-4.781q1.328-1.656 3.828-1.656.703 0 1.344.156.656.156 1.219.453v2.719q-.625-.578-1.219-.844-.594-.281-1.219-.281-1.343 0-2.031 1.078-.688 1.062-.688 3.156 0 2.094.688 3.172.688 1.062 2.031 1.062.625 0 1.219-.265.594-.281 1.219-.86v2.72Z"/><text x="1999.5" y="631.51" fill="#D9B8FF" font-family="Helvetica" font-size="17" textLength="247">gcp_network_endpoint_group</text></a><a xlink:actuate="onRequest" xlink:href="#q" xlink:show="new" xlink:title="#gcp_router" xlink:type="simple" target="_top"><rect id="q" width="131" height="39.789" x="1320.5" y="206.58" fill="#3D176E" rx="2.5" ry="2.5" style="stroke:#000d19;stroke-width:.5"/><circle cx="1335.5" cy="226.475" r="11" fill="#ADD1B2" style="stroke:#181818;stroke-width:1"/><path d="M1338.469 232.115q-.578.297-1.219.438-.64.156-1.344.156-2.5 0-3.828-1.64-1.312-1.657-1.312-4.782t1.312-4.781q1.328-1.656 3.828-1.656.703 0 1.344.156.656.156 1.219.453v2.719q-.625-.578-1.219-.844-.594-.281-1.219-.281-1.343 0-2.031 1.078-.688 1.062-.688 3.156 0 2.094.688 3.172.688 1.062 2.031 1.062.625 0 1.219-.265.594-.281 1.219-.86v2.72Z"/><text x="1354.5" y="232.36" fill="#D9B8FF" font-family="Helvetica" font-size="17" textLength="89">gcp_router</text></a><a xlink:actuate="onRequest" xlink:href="#r" xlink:show="new" xlink:title="#gcp_autoscaler" xlink:type="simple" target="_top"><rect id="r" width="165" height="39.789" x="2710.5" y="306.37" fill="#3D176E" rx="2.5" ry="2.5" style="stroke:#000d19;stroke-width:.5"/><circle cx="2725.5" cy="326.264" r="11" fill="#ADD1B2" style="stroke:#181818;stroke-width:1"/><path d="M2728.469 331.905q-.578.297-1.219.438-.64.156-1.344.156-2.5 0-3.828-1.64-1.312-1.657-1.312-4.782t1.312-4.781q1.328-1.656 3.828-1.656.703 0 1.344.156.656.156 1.219.453v2.719q-.625-.579-1.219-.844-.594-.281-1.219-.281-1.343 0-2.031 1.078-.688 1.062-.688 3.156 0 2.094.688 3.172.688 1.062 2.031 1.062.625 0 1.219-.265.594-.281 1.219-.86v2.72Z"/><text x="2744.5" y="332.15" fill="#D9B8FF" font-family="Helvetica" font-size="17" textLength="123">gcp_autoscaler</text></a><a xlink:actuate="onRequest" xlink:href="#s" xlink:show="new" xlink:title="#gcp_target_pool" xlink:type="simple" target="_top"><rect id="s" width="174" height="39.789" x="881" y="306.37" fill="#3D176E" rx="2.5" ry="2.5" style="stroke:#000d19;stroke-width:.5"/><circle cx="896" cy="326.264" r="11" fill="#ADD1B2" style="stroke:#181818;stroke-width:1"/><path d="M898.969 331.905q-.578.297-1.219.438-.64.156-1.344.156-2.5 0-3.828-1.64-1.312-1.657-1.312-4.782t1.312-4.781q1.328-1.656 3.828-1.656.703 0 1.344.156.656.156 1.219.453v2.719q-.625-.579-1.219-.844-.594-.281-1.219-.281-1.343 0-2.031 1.078-.688 1.062-.688 3.156 0 2.094.688 3.172.688 1.062 2.031 1.062.625 0 1.219-.265.594-.281 1.219-.86v2.72Z"/><text x="915" y="332.15" fill="#D9B8FF" font-family="Helvetica" font-size="17" textLength="132">gcp_target_pool</text></a><a xlink:actuate="onRequest" xlink:href="#t" xlink:show="new" xlink:title="#gcp_gke_cluster" xlink:type="simple" target="_top"><rect id="t" width="174" height="39.789" x="1742" y="306.37" fill="#3D176E" rx="2.5" ry="2.5" style="stroke:#000d19;stroke-width:.5"/><circle cx="1757" cy="326.264" r="11" fill="#ADD1B2" style="stroke:#181818;stroke-width:1"/><path d="M1759.969 331.905q-.578.297-1.219.438-.64.156-1.344.156-2.5 0-3.828-1.64-1.312-1.657-1.312-4.782t1.312-4.781q1.328-1.656 3.828-1.656.703 0 1.344.156.656.156 1.219.453v2.719q-.625-.579-1.219-.844-.594-.281-1.219-.281-1.343 0-2.031 1.078-.688 1.062-.688 3.156 0 2.094.688 3.172.688 1.062 2.031 1.062.625 0 1.219-.265.594-.281 1.219-.86v2.72Z"/><text x="1776" y="332.15" fill="#D9B8FF" font-family="Helvetica" font-size="17" textLength="132">gcp_gke_cluster</text></a><a xlink:actuate="onRequest" xlink:href="#u" xlink:show="new" xlink:title="#gcp_instance_group" xlink:type="simple" target="_top"><rect id="u" width="206" height="39.789" x="1724" y="605.73" fill="#3D176E" rx="2.5" ry="2.5" style="stroke:#000d19;stroke-width:.5"/><circle cx="1739" cy="625.625" r="11" fill="#ADD1B2" style="stroke:#181818;stroke-width:1"/><path d="M1741.969 631.265q-.578.297-1.219.438-.64.156-1.344.156-2.5 0-3.828-1.64-1.312-1.657-1.312-4.782t1.312-4.781q1.328-1.656 3.828-1.656.703 0 1.344.156.656.156 1.219.453v2.719q-.625-.578-1.219-.844-.594-.281-1.219-.281-1.343 0-2.031 1.078-.688 1.062-.688 3.156 0 2.094.688 3.172.688 1.062 2.031 1.062.625 0 1.219-.265.594-.281 1.219-.86v2.72Z"/><text x="1758" y="631.51" fill="#D9B8FF" font-family="Helvetica" font-size="17" textLength="164">gcp_instance_group</text></a><a xlink:actuate="onRequest" xlink:href="#v" xlink:show="new" xlink:title="#gcp_target_vpn_gateway" xlink:type="simple" target="_top"><rect id="v" width="251" height="39.789" x="2163.5" y="306.37" fill="#3D176E" rx="2.5" ry="2.5" style="stroke:#000d19;stroke-width:.5"/><circle cx="2178.5" cy="326.264" r="11" fill="#ADD1B2" style="stroke:#181818;stroke-width:1"/><path d="M2181.469 331.905q-.578.297-1.219.438-.64.156-1.344.156-2.5 0-3.828-1.64-1.312-1.657-1.312-4.782t1.312-4.781q1.328-1.656 3.828-1.656.703 0 1.344.156.656.156 1.219.453v2.719q-.625-.579-1.219-.844-.594-.281-1.219-.281-1.343 0-2.031 1.078-.688 1.062-.688 3.156 0 2.094.688 3.172.688 1.062 2.031 1.062.625 0 1.219-.265.594-.281 1.219-.86v2.72Z"/><text x="2197.5" y="332.15" fill="#D9B8FF" font-family="Helvetica" font-size="17" textLength="209">gcp_target_vpn_gateway</text></a><a xlink:actuate="onRequest" xlink:href="#w" xlink:show="new" xlink:title="#gcp_vpn_tunnel" xlink:type="simple" target="_top"><rect id="w" width="174" height="39.789" x="2168" y="206.58" fill="#3D176E" rx="2.5" ry="2.5" style="stroke:#000d19;stroke-width:.5"/><circle cx="2183" cy="226.475" r="11" fill="#ADD1B2" style="stroke:#181818;stroke-width:1"/><path d="M2185.969 232.115q-.578.297-1.219.438-.64.156-1.344.156-2.5 0-3.828-1.64-1.312-1.657-1.312-4.782t1.312-4.781q1.328-1.656 3.828-1.656.703 0 1.344.156.656.156 1.219.453v2.719q-.625-.578-1.219-.844-.594-.281-1.219-.281-1.343 0-2.031 1.078-.688 1.062-.688 3.156 0 2.094.688 3.172.688 1.062 2.031 1.062.625 0 1.219-.265.594-.281 1.219-.86v2.72Z"/><text x="2202" y="232.36" fill="#D9B8FF" font-family="Helvetica" font-size="17" textLength="132">gcp_vpn_tunnel</text></a><a xlink:actuate="onRequest" xlink:href="#x" xlink:show="new" xlink:title="#gcp_project" xlink:type="simple" target="_top"><rect id="x" width="136" height="39.789" x="435" y="7" fill="#3D176E" rx="2.5" ry="2.5" style="stroke:#000d19;stroke-width:.5"/><circle cx="450" cy="26.895" r="11" fill="#ADD1B2" style="stroke:#181818;stroke-width:1"/><path d="M452.969 32.535q-.578.297-1.219.438-.64.156-1.344.156-2.5 0-3.828-1.64-1.312-1.657-1.312-4.782t1.312-4.781q1.328-1.656 3.828-1.656.703 0 1.344.156.656.156 1.219.453v2.719q-.625-.578-1.219-.844-.594-.281-1.219-.281-1.344 0-2.031 1.078-.688 1.062-.688 3.156 0 2.094.688 3.172.688 1.062 2.031 1.062.625 0 1.219-.265.594-.281 1.219-.86v2.72Z"/><text x="469" y="32.78" fill="#D9B8FF" font-family="Helvetica" font-size="17" textLength="94">gcp_project</text></a><path fill="none" d="M1996.86 546.16c23.17 16.07 56.19 38.97 80.58 55.89" style="stroke:#1a83af;stroke-width:2"/><path fill="#1A83AF" d="m2081.2 605.35-5.11-8.419 1.003 5.567-5.567 1.004 9.674 1.848z" style="stroke:#1a83af;stroke-width:2"/><path fill="none" d="M1940.95 546.16c-23.34 16.07-56.6 38.97-81.16 55.89" style="stroke:#1a83af;stroke-width:2"/><path fill="#1A83AF" d="m1856 605.35 9.678-1.825-5.565-1.017 1.017-5.565-5.13 8.407z" style="stroke:#1a83af;stroke-width:2"/><path fill="none" d="m547.21 346.64 264.7 60.19" style="stroke:#1a83af;stroke-width:2"/><path fill="#1A83AF" d="m816.72 408.16-7.882-5.906 3.008 4.791-4.791 3.007 9.665-1.892z" style="stroke:#1a83af;stroke-width:2"/><path fill="none" d="M429.4 346.58c-27.34 16.21-66.4 39.36-95.01 56.31" style="stroke:#1a83af;stroke-width:2"/><path fill="#1A83AF" d="m330.53 405.77 9.785-1.124-5.478-1.415 1.415-5.477-5.722 8.016z" style="stroke:#1a83af;stroke-width:2"/><path fill="none" d="M1164.98 535.46c167.54 13.6 500.2 41.45 782.02 70.27 4.09.42 8.24.85 12.43 1.29" style="stroke:#1a83af;stroke-width:2"/><path fill="#1A83AF" d="m1964.16 607.63-8.527-4.93 3.555 4.401-4.4 3.555 9.372-3.026z" style="stroke:#1a83af;stroke-width:2"/><path fill="none" d="M1028.34 546.12c-78.4 52.75-296.13 199.23-379.9 255.59" style="stroke:#1a83af;stroke-width:2"/><path fill="#1A83AF" d="m644.6 804.97 9.703-1.687-5.55-1.096 1.097-5.55-5.25 8.333z" style="stroke:#1a83af;stroke-width:2"/><path fill="none" d="M1164.88 540.54c146.29 18.58 406.15 51.58 553.05 70.24" style="stroke:#1a83af;stroke-width:2"/><path fill="#1A83AF" d="m1722.54 611.49-8.41-5.124 3.451 4.481-4.48 3.452 9.439-2.809z" style="stroke:#1a83af;stroke-width:2"/><path fill="none" d="M924.6 446.37c27.34 16.21 66.4 39.36 95.01 56.31" style="stroke:#1a83af;stroke-width:2"/><path fill="#1A83AF" d="m1023.47 505.56-5.71-8.024 1.406 5.479-5.479 1.407 9.783 1.138z" style="stroke:#1a83af;stroke-width:2"/><path fill="none" d="M762.81 346.58c26.57 16.14 64.48 39.16 92.36 56.1" style="stroke:#1a83af;stroke-width:2"/><path fill="#1A83AF" d="m859.26 405.77-5.628-8.083 1.35 5.494-5.493 1.35 9.771 1.239z" style="stroke:#1a83af;stroke-width:2"/><path fill="none" d="M2148.67 734.88c-333.69 19.44-1147.86 66.86-1433.02 83.46" style="stroke:#1a83af;stroke-width:2"/><path fill="#1A83AF" d="m710.84 818.68 9.213 3.48-4.221-3.765 3.765-4.222-8.757 4.507z" style="stroke:#1a83af;stroke-width:2"/><path fill="none" d="M679.46 246.79C633.71 263.3 568 287.01 520.8 304.04" style="stroke:#1a83af;stroke-width:2"/><path fill="#1A83AF" d="m516.43 305.98 9.824.7-5.122-2.4 2.4-5.123-7.102 6.823z" style="stroke:#1a83af;stroke-width:2"/><path fill="none" d="M732.6 246.79c-.31 15.27-.75 36.7-1.09 53.31" style="stroke:#1a83af;stroke-width:2"/><path fill="#1A83AF" d="m731.39 304.98 4.18-8.918-4.08 3.919-3.92-4.08 3.82 9.079z" style="stroke:#1a83af;stroke-width:2"/><path fill="none" d="M839.34 234.15 2157.53 317" style="stroke:#1a83af;stroke-width:2"/><path fill="#1A83AF" d="m2162.27 317.36-8.73-4.558 3.74 4.243-4.244 3.74 9.234-3.425z" style="stroke:#1a83af;stroke-width:2"/><path fill="none" d="M779.43 246.79c39.43 16.41 95.96 39.93 136.83 56.94" style="stroke:#1a83af;stroke-width:2"/><path fill="#1A83AF" d="m920.67 305.98-6.78-7.143 2.162 5.227-5.228 2.162 9.846-.246z" style="stroke:#1a83af;stroke-width:2"/><path fill="none" d="M1570.11 145.08c3 .55 5.97 1.06 8.89 1.5 254.37 38.27 910.29-16.13 1156 60 96.55 29.91 194 17.6 194 118.68v201.58c0 100.92-296.1 156.14-483.91 181.02" style="stroke:#1a83af;stroke-width:2"/><path fill="#1A83AF" d="m2440.28 708.62 9.448 2.783-4.491-3.44 3.44-4.491-8.397 5.148z" style="stroke:#1a83af;stroke-width:2"/><path fill="none" d="M1437.68 128.59c-180.52 3.24-677.22 17.55-827.68 77.99-52.22 20.97-100.66 66.82-127.11 94.99" style="stroke:#1a83af;stroke-width:2"/><path fill="#1A83AF" d="m479.84 304.93 9.05-3.885-5.653.216-.217-5.652-3.18 9.321z" style="stroke:#1a83af;stroke-width:2"/><path fill="none" d="M1570.41 141.38c90.75 18.72 252.49 52.09 342.53 70.67" style="stroke:#1a83af;stroke-width:2"/><path fill="#1A83AF" d="m1917.77 213.25-7.999-5.746 3.103 4.73-4.73 3.103 9.626-2.087z" style="stroke:#1a83af;stroke-width:2"/><path fill="none" d="M1437.64 128.05c-122.16 2.25-375.16 14.69-429.64 78.53-11.48 13.45-7.09 23.59 0 39.79 15.77 36.01 49.23 23.98 65 60 7.09 16.19 9.69 24.99 0 39.78-22.56 34.44-63.78 53.93-101.2 64.92" style="stroke:#1a83af;stroke-width:2"/><path fill="#1A83AF" d="m967.31 412.63 9.752 1.381-4.943-2.75 2.75-4.944-7.559 6.313z" style="stroke:#1a83af;stroke-width:2"/><path fill="none" d="M1543.89 147.04c26.4 14.09 60.7 34.95 86.11 59.54 53.76 51.99 42.11 85.71 94 139.57 63.91 66.35 154.92 125.49 206.13 156.27" style="stroke:#1a83af;stroke-width:2"/><path fill="#1A83AF" d="m1934.26 505.49-5.66-8.06 1.373 5.488-5.488 1.371 9.775 1.201z" style="stroke:#1a83af;stroke-width:2"/><path fill="none" d="M1437.6 146.08c-62.03 17.18-154.29 42.74-217.26 60.18" style="stroke:#1a83af;stroke-width:2"/><path fill="#1A83AF" d="m1215.72 207.82 9.744 1.435-4.928-2.778 2.778-4.928-7.594 6.271z" style="stroke:#1a83af;stroke-width:2"/><path fill="none" d="M1541.56 147.07c21.73 13.46 47.13 33.63 59.44 59.51 15.13 31.81-5.94 70.32-23.81 94.67" style="stroke:#1a83af;stroke-width:2"/><path fill="#1A83AF" d="m1573.67 304.92 8.61-4.78-5.6.787-.788-5.602-2.222 9.595z" style="stroke:#1a83af;stroke-width:2"/><path fill="none" d="M1570.18 130.14c182.7 7.31 691.2 31.24 851.82 76.44 112.64 31.69 235 1.67 235 118.68v101.79c0 88.25-255.04 148.1-416.82 177.19" style="stroke:#1a83af;stroke-width:2"/><path fill="#1A83AF" d="m2235.46 605.26 9.56 2.367-4.637-3.24 3.24-4.637-8.163 5.51z" style="stroke:#1a83af;stroke-width:2"/><path fill="none" d="M1480.69 147c-19.24 15.94-46.57 38.59-66.93 55.47" style="stroke:#1a83af;stroke-width:2"/><path fill="#1A83AF" d="m1410.26 206.19 9.486-2.647-5.63-.537.536-5.631-4.392 8.815z" style="stroke:#1a83af;stroke-width:2"/><path fill="none" d="M1437.82 135.47c-115.93 13.72-363.27 43.4-571.82 71.11-6.77.9-13.74 1.84-20.76 2.8" style="stroke:#1a83af;stroke-width:2"/><path fill="#1A83AF" d="m840.33 210.19 9.464 2.725-4.511-3.412 3.412-4.512-8.365 5.199z" style="stroke:#1a83af;stroke-width:2"/><path fill="none" d="M1570.35 129.27c234.01 5.99 1012.14 29.36 1112.65 77.31 43.21 20.61 77.63 66.36 95.82 94.66" style="stroke:#1a83af;stroke-width:2"/><path fill="#1A83AF" d="m2782.03 305.31-1.449-9.742-1.232 5.521-5.52-1.232 8.201 5.453z" style="stroke:#1a83af;stroke-width:2"/><path fill="none" d="M1570.47 129.36c174.98 5.11 644.78 23.58 789.53 77.22 57.22 21.2 112.75 67.29 143.16 95.38" style="stroke:#1a83af;stroke-width:2"/><path fill="#1A83AF" d="m2506.46 304.97-3.868-9.058.206 5.654-5.653.206 9.315 3.198z" style="stroke:#1a83af;stroke-width:2"/><path fill="none" d="M1437.92 128.74c-107.75 3.5-326.77 18.09-500.92 77.84-35.01 12.01-122.07 65.44-171.06 96.36" style="stroke:#1a83af;stroke-width:2"/><path fill="#1A83AF" d="m762.03 306.04 9.745-1.425-5.518-1.245 1.245-5.519-5.472 8.189z" style="stroke:#1a83af;stroke-width:2"/><path fill="none" d="M1515.42 146.97c12.71 24.15 29.62 66.38 14.58 99.4-16.85 36.98-52.15 23.01-69 60-7.33 16.09-7.56 23.8 0 39.78 11.35 24.02 33.99 43.19 54.43 56.61" style="stroke:#1a83af;stroke-width:2"/><path fill="#1A83AF" d="m1519.3 405.88-5.427-8.219 1.215 5.525-5.525 1.215 9.737 1.479z" style="stroke:#1a83af;stroke-width:2"/><path fill="none" d="M1448.97 146.97c-40.88 14.88-97.69 36.74-145.97 59.61-32.69 15.48-37.69 25.68-71 39.79-57.38 24.29-124.71 44.29-177.02 58.07" style="stroke:#1a83af;stroke-width:2"/><path fill="#1A83AF" d="m1050.33 305.92 9.72 1.583-4.884-2.853 2.853-4.884-7.689 6.154z" style="stroke:#1a83af;stroke-width:2"/><path fill="none" d="M1570.46 138.12c51.03 10.58 121.22 30.93 172.54 68.46 34.09 24.92 60.12 67.4 74.21 94.2" style="stroke:#1a83af;stroke-width:2"/><path fill="#1A83AF" d="m1819.87 304.92-.585-9.831-1.714 5.39-5.39-1.713 7.689 6.154z" style="stroke:#1a83af;stroke-width:2"/><path fill="none" d="M1437.7 129.99c-189.5 7.07-730.78 30.84-901.7 76.59-100.21 26.82-145.74 19.15-211 99.79-21.7 26.81-27.12 67.57-28.19 93.66" style="stroke:#1a83af;stroke-width:2"/><path fill="#1A83AF" d="m296.63 405.01 4.255-8.882-4.112 3.884-3.884-4.113 3.741 9.111z" style="stroke:#1a83af;stroke-width:2"/><path fill="none" d="M1437.72 127.74c-209.39.92-854.46 9.44-1049.72 78.84-159.17 56.57-311 49.55-311 218.47v201.58c0 92.19 281.88 154.44 437.57 181.79" style="stroke:#1a83af;stroke-width:2"/><path fill="#1A83AF" d="m519.05 809.37-8.181-5.483 3.255 4.626-4.626 3.256 9.552-2.399z" style="stroke:#1a83af;stroke-width:2"/><path fill="none" d="M1498.71 146.68c-6.61 23.51-18.44 64.72-29.71 99.69-8.67 26.89-16.27 32.14-21 60-10.72 63.05-6.91 91.26 35 139.57 71.59 82.54 190.74 132.26 268.32 157.58" style="stroke:#1a83af;stroke-width:2"/><path fill="#1A83AF" d="m1755.84 605.3-7.327-6.581 2.57 5.038-5.038 2.571 9.795-1.028z" style="stroke:#1a83af;stroke-width:2"/><path fill="none" d="M1570.43 130.21c105.12 5.55 315.24 22.91 484.57 76.37 39.11 12.34 138.97 66.04 194.77 96.81" style="stroke:#1a83af;stroke-width:2"/><path fill="#1A83AF" d="m2253.7 306.11-5.944-7.853 1.567 5.436-5.435 1.567 9.812.85z" style="stroke:#1a83af;stroke-width:2"/><path fill="none" d="M1570.19 135.35c114.73 13.43 357.9 42.51 562.81 71.23 9.4 1.31 19.21 2.74 28.99 4.2" style="stroke:#1a83af;stroke-width:2"/><path fill="#1A83AF" d="m2166.74 211.64-8.306-5.293 3.361 4.55-4.55 3.361 9.495-2.618z" style="stroke:#1a83af;stroke-width:2"/><path fill="none" d="M1437.73 129.75c-109.73 4.96-321.66 21.63-367.73 76.83-11.33 13.57-4.4 22.66 0 39.79 7.57 29.47 25.43 30.52 33 60 4.4 17.12 2.22 22.24 0 39.78-7.1 56.03-26.23 119.63-37.46 153.81" style="stroke:#1a83af;stroke-width:2"/><path fill="#1A83AF" d="m1063.67 504.58 6.628-7.285-5.055 2.539-2.54-5.055.967 9.801z" style="stroke:#1a83af;stroke-width:2"/><path fill="none" d="M1918.57 241.27c-72.15 16.77-194.37 45.15-276.5 64.23" style="stroke:#1a83af;stroke-width:2"/><path fill="#1A83AF" d="m1637.23 306.86 9.676 1.839-4.808-2.981 2.98-4.808-7.848 5.95z" style="stroke:#1a83af;stroke-width:2"/><path fill="none" d="M2008.81 246.67c19.72 14.03 43.99 34.87 57.19 59.7 52.3 98.36 49.77 236.96 46.14 293.14" style="stroke:#1a83af;stroke-width:2"/><path fill="#1A83AF" d="m2111.74 604.32 4.608-8.704-4.265 3.716-3.716-4.265 3.373 9.253z" style="stroke:#1a83af;stroke-width:2"/><path fill="none" d="M1948.56 246.79c-24.59 16.14-59.67 39.17-85.48 56.1" style="stroke:#1a83af;stroke-width:2"/><path fill="#1A83AF" d="m1859.38 305.98 9.72-1.587-5.538-1.153 1.153-5.538-5.335 8.278z" style="stroke:#1a83af;stroke-width:2"/><path fill="none" d="M2037.27 234.58c141.45 16.98 499.45 59.93 666.86 80.02" style="stroke:#1a83af;stroke-width:2"/><path fill="#1A83AF" d="m2709.01 315.3-8.454-5.053 3.49 4.452-4.451 3.49 9.415-2.889z" style="stroke:#1a83af;stroke-width:2"/><path fill="none" d="M2037.21 237.29c86.75 14.49 253.42 42.74 394.79 69.08 3.83.71 7.75 1.45 11.7 2.2" style="stroke:#1a83af;stroke-width:2"/><path fill="#1A83AF" d="m2448.52 309.69-8.085-5.624 3.175 4.682-4.683 3.175 9.593-2.233z" style="stroke:#1a83af;stroke-width:2"/><path fill="none" d="M1980.6 246.55c2.54 23.94 4.57 65.95-6.6 99.6-27.23 82.07-73.32 81.96-111 159.79-14.94 30.86-25.22 69.25-30.86 93.86" style="stroke:#1a83af;stroke-width:2"/><path fill="#1A83AF" d="m1830.87 604.45 5.88-7.902-4.782 3.024-3.024-4.78 1.926 9.658z" style="stroke:#1a83af;stroke-width:2"/><path fill="none" d="M1976.49 246.7c-3.16 26.52-12.85 73.93-42.49 99.45-46.53 40.08-220.32 63.26-314.84 73.16" style="stroke:#1a83af;stroke-width:2"/><path fill="#1A83AF" d="m1614.33 419.91 9.364 3.053-4.39-3.567 3.567-4.39-8.541 4.904z" style="stroke:#1a83af;stroke-width:2"/><path fill="none" d="M1557 346.58v53.31" style="stroke:#1a83af;stroke-width:2"/><path fill="#1A83AF" d="m1557 404.77 4-9-4 4-4-4 4 9z" style="stroke:#1a83af;stroke-width:2"/><path fill="none" d="M2788.03 346.52c-11.64 41.57-44.37 140.69-105.03 199.21-86.48 83.44-218.91 132.76-304.74 157.78" style="stroke:#1a83af;stroke-width:2"/><path fill="#1A83AF" d="m2373.67 705.12 9.756 1.347-4.952-2.734 2.733-4.952-7.537 6.339z" style="stroke:#1a83af;stroke-width:2"/><path fill="none" d="M1919.54 646.01c79.85 16.72 194.85 40.8 276.29 57.85" style="stroke:#1a83af;stroke-width:2"/><path fill="#1A83AF" d="m2200.64 705.08-7.983-5.768 3.09 4.738-4.738 3.09 9.631-2.06z" style="stroke:#1a83af;stroke-width:2"/><path fill="none" d="M2261.72 246.79c5.35 15.4 12.89 37.08 18.68 53.75" style="stroke:#1a83af;stroke-width:2"/><path fill="#1A83AF" d="m2282.3 304.98.825-9.814-2.466 5.09-5.091-2.465 6.732 7.189z" style="stroke:#1a83af;stroke-width:2"/><path fill="none" d="M500.37 46.95c-7.14 51.8-26.91 195.21-34.93 253.35" style="stroke:#1a83af;stroke-width:2"/><path fill="#1A83AF" d="m464.66 304.98 5.199-8.365-4.512 3.412-3.412-4.511 2.725 9.464z" style="stroke:#1a83af;stroke-width:2"/><path fill="none" d="M527.17 47.04c19.78 15.8 48.38 38.91 72.83 59.75 38.23 32.58 81.45 71.55 107.96 95.72" style="stroke:#1a83af;stroke-width:2"/><path fill="#1A83AF" d="m711.07 205.26-3.941-9.026.252 5.651-5.652.252 9.341 3.123z" style="stroke:#1a83af;stroke-width:2"/><path fill="none" d="M481.65 47.25C437.14 89.21 335.47 193.87 298 306.37c-10.32 30.99-8.24 69.12-5.16 93.66" style="stroke:#1a83af;stroke-width:2"/><path fill="#1A83AF" d="m293.63 404.96 2.756-9.455-3.427 4.5-4.5-3.427 5.171 8.382z" style="stroke:#1a83af;stroke-width:2"/><path fill="none" d="M571.41 34.58c181.54 17.73 674.3 65.87 860.25 84.03" style="stroke:#1a83af;stroke-width:2"/><path fill="#1A83AF" d="m1436.61 119.2-8.568-4.856 3.592 4.37-4.37 3.592 9.346-3.106z" style="stroke:#1a83af;stroke-width:2"/><path fill="none" d="M508.55 47.12C521.06 87.78 554.74 183.89 610 246.37c20.86 23.58 50.37 43.01 75.02 56.69" style="stroke:#1a83af;stroke-width:2"/><path fill="#1A83AF" d="m689.21 305.89-5.975-7.83 1.589 5.43-5.43 1.589 9.816.811z" style="stroke:#1a83af;stroke-width:2"/><path fill="none" d="M571.2 32.52c171 11.68 631.85 43.61 1015.8 74.27 292.66 23.37 1164.28-57.55 1306 199.58 82.65 149.95-577.29 200.4-829.05 214.09" style="stroke:#1a83af;stroke-width:2"/><path fill="#1A83AF" d="m2059.07 520.78 9.204 3.505-4.211-3.777 3.776-4.211-8.769 4.483z" style="stroke:#1a83af;stroke-width:2"/><path fill="none" d="M434.65 36.19C365.69 46.37 257.36 67.35 171 106.79 88.83 144.32 6 135.14 6 225.47v401.16c0 82.25 67.3 84.26 142 118.68 118.25 54.49 268.89 71.75 366.6 77" style="stroke:#1a83af;stroke-width:2"/><path fill="#1A83AF" d="m519.38 822.61-8.783-4.457 3.79 4.2-4.2 3.79 9.193-3.533z" style="stroke:#1a83af;stroke-width:2"/><path fill="none" d="M434.55 35.19C331.39 50.4 148 95.69 148 225.47v101.79c0 54.99-7.52 83.8 35 118.68 57.57 47.23 537 68.34 760.33 75.68" style="stroke:#1a83af;stroke-width:2"/><path fill="#1A83AF" d="m948.21 521.81-8.87-4.281 3.872 4.124-4.124 3.871 9.122-3.714z" style="stroke:#1a83af;stroke-width:2"/></svg>