<?xml version="1.0" encoding="us-ascii" standalone="no"?><svg xmlns="http://www.w3.org/2000/svg" xmlns:xlink="http://www.w3.org/1999/xlink" contentStyleType="text/css" height="1111px" preserveAspectRatio="none" style="width:575px;height:1111px;" version="1.1" viewBox="0 0 575 1111" width="575px" zoomAndPan="magnify"><defs/><g><!--class gcp_deprecation_status--><g id="elem_gcp_deprecation_status"><rect codeLine="22" fill="#3D176E" height="179.2734" id="gcp_deprecation_status" rx="2.5" ry="2.5" style="stroke:#000D19;stroke-width:0.5;" width="237" x="172.5" y="925.71"/><ellipse cx="187.5" cy="945.6045" fill="#ADD1B2" rx="11" ry="11" style="stroke:#181818;stroke-width:1.0;"/><path d="M190.4688,951.2452 Q189.8906,951.542 189.25,951.6827 Q188.6094,951.8389 187.9063,951.8389 Q185.4063,951.8389 184.0781,950.1983 Q182.7656,948.542 182.7656,945.417 Q182.7656,942.292 184.0781,940.6358 Q185.4063,938.9795 187.9063,938.9795 Q188.6094,938.9795 189.25,939.1358 Q189.9063,939.292 190.4688,939.5889 L190.4688,942.3077 Q189.8438,941.7295 189.25,941.4639 Q188.6563,941.1827 188.0313,941.1827 Q186.6875,941.1827 186,942.2608 Q185.3125,943.3233 185.3125,945.417 Q185.3125,947.5108 186,948.5889 Q186.6875,949.6514 188.0313,949.6514 Q188.6563,949.6514 189.25,949.3858 Q189.8438,949.1045 190.4688,948.5264 L190.4688,951.2452 Z " fill="#000000"/><text fill="#D9B8FF" font-family="Helvetica" font-size="17" lengthAdjust="spacing" textLength="195" x="206.5" y="951.4898">gcp_deprecation_status</text><line style="stroke:#000D19;stroke-width:0.5;" x1="173.5" x2="408.5" y1="965.4991" y2="965.4991"/><text fill="#D9B8FF" font-family="sans-serif" font-size="14" font-weight="bold" lengthAdjust="spacing" textLength="60" x="183.5" y="987.4942">deleted</text><text fill="#D9B8FF" font-family="sans-serif" font-size="14" lengthAdjust="spacing" textLength="48" x="243.5" y="987.4942">: string</text><text fill="#D9B8FF" font-family="sans-serif" font-size="14" font-weight="bold" lengthAdjust="spacing" textLength="91" x="183.5" y="1013.7911">deprecated</text><text fill="#D9B8FF" font-family="sans-serif" font-size="14" lengthAdjust="spacing" textLength="48" x="274.5" y="1013.7911">: string</text><text fill="#D9B8FF" font-family="sans-serif" font-size="14" font-weight="bold" lengthAdjust="spacing" textLength="69" x="183.5" y="1040.0879">obsolete</text><text fill="#D9B8FF" font-family="sans-serif" font-size="14" lengthAdjust="spacing" textLength="48" x="252.5" y="1040.0879">: string</text><text fill="#D9B8FF" font-family="sans-serif" font-size="14" font-weight="bold" lengthAdjust="spacing" textLength="99" x="183.5" y="1066.3848">replacement</text><text fill="#D9B8FF" font-family="sans-serif" font-size="14" lengthAdjust="spacing" textLength="48" x="282.5" y="1066.3848">: string</text><text fill="#D9B8FF" font-family="sans-serif" font-size="14" font-weight="bold" lengthAdjust="spacing" textLength="40" x="183.5" y="1092.6817">state</text><text fill="#D9B8FF" font-family="sans-serif" font-size="14" lengthAdjust="spacing" textLength="48" x="223.5" y="1092.6817">: string</text></g><!--class gcp_resource--><g id="elem_gcp_resource"><rect codeLine="29" fill="#3D176E" height="152.9766" id="gcp_resource" rx="2.5" ry="2.5" style="stroke:#000D19;stroke-width:0.5;" width="348" x="7" y="438.75"/><ellipse cx="117.75" cy="458.6445" fill="#ADD1B2" rx="11" ry="11" style="stroke:#181818;stroke-width:1.0;"/><path d="M120.7188,464.2852 Q120.1406,464.582 119.5,464.7227 Q118.8594,464.8789 118.1563,464.8789 Q115.6563,464.8789 114.3281,463.2383 Q113.0156,461.582 113.0156,458.457 Q113.0156,455.332 114.3281,453.6758 Q115.6563,452.0195 118.1563,452.0195 Q118.8594,452.0195 119.5,452.1758 Q120.1563,452.332 120.7188,452.6289 L120.7188,455.3477 Q120.0938,454.7695 119.5,454.5039 Q118.9063,454.2227 118.2813,454.2227 Q116.9375,454.2227 116.25,455.3008 Q115.5625,456.3633 115.5625,458.457 Q115.5625,460.5508 116.25,461.6289 Q116.9375,462.6914 118.2813,462.6914 Q118.9063,462.6914 119.5,462.4258 Q120.0938,462.1445 120.7188,461.5664 L120.7188,464.2852 Z " fill="#000000"/><text fill="#D9B8FF" font-family="Helvetica" font-size="17" lengthAdjust="spacing" textLength="108" x="143.25" y="464.5298">gcp_resource</text><line style="stroke:#000D19;stroke-width:0.5;" x1="8" x2="354" y1="478.5391" y2="478.5391"/><text fill="#D9B8FF" font-family="sans-serif" font-size="14" font-weight="bold" lengthAdjust="spacing" textLength="151" x="18" y="500.5342">deprecation_status</text><text fill="#D9B8FF" font-family="sans-serif" font-size="14" lengthAdjust="spacing" textLength="175" x="169" y="500.5342">: gcp_deprecation_status</text><text fill="#D9B8FF" font-family="sans-serif" font-size="14" font-weight="bold" lengthAdjust="spacing" textLength="89" x="18" y="526.8311">description</text><text fill="#D9B8FF" font-family="sans-serif" font-size="14" lengthAdjust="spacing" textLength="48" x="107" y="526.8311">: string</text><text fill="#D9B8FF" font-family="sans-serif" font-size="14" font-weight="bold" lengthAdjust="spacing" textLength="128" x="18" y="553.1279">label_fingerprint</text><text fill="#D9B8FF" font-family="sans-serif" font-size="14" lengthAdjust="spacing" textLength="48" x="146" y="553.1279">: string</text><text fill="#D9B8FF" font-family="sans-serif" font-size="14" font-weight="bold" lengthAdjust="spacing" textLength="27" x="18" y="579.4248">link</text><text fill="#D9B8FF" font-family="sans-serif" font-size="14" lengthAdjust="spacing" textLength="48" x="45" y="579.4248">: string</text></g><!--class gcp_zone--><g id="elem_gcp_zone"><rect codeLine="35" fill="#3D176E" height="152.9766" id="gcp_zone" rx="2.5" ry="2.5" style="stroke:#000D19;stroke-width:0.5;" width="334" x="234" y="712.73"/><ellipse cx="353.75" cy="732.6245" fill="#ADD1B2" rx="11" ry="11" style="stroke:#181818;stroke-width:1.0;"/><path d="M356.7188,738.2652 Q356.1406,738.562 355.5,738.7027 Q354.8594,738.8589 354.1563,738.8589 Q351.6563,738.8589 350.3281,737.2183 Q349.0156,735.562 349.0156,732.437 Q349.0156,729.312 350.3281,727.6558 Q351.6563,725.9995 354.1563,725.9995 Q354.8594,725.9995 355.5,726.1558 Q356.1563,726.312 356.7188,726.6089 L356.7188,729.3277 Q356.0938,728.7495 355.5,728.4839 Q354.9063,728.2027 354.2813,728.2027 Q352.9375,728.2027 352.25,729.2808 Q351.5625,730.3433 351.5625,732.437 Q351.5625,734.5308 352.25,735.6089 Q352.9375,736.6714 354.2813,736.6714 Q354.9063,736.6714 355.5,736.4058 Q356.0938,736.1245 356.7188,735.5464 L356.7188,738.2652 Z " fill="#000000"/><text fill="#D9B8FF" font-family="Helvetica" font-size="17" lengthAdjust="spacing" textLength="76" x="379.25" y="738.5098">gcp_zone</text><line style="stroke:#000D19;stroke-width:0.5;" x1="235" x2="567" y1="752.5191" y2="752.5191"/><text fill="#D9B8FF" font-family="sans-serif" font-size="14" font-weight="bold" lengthAdjust="spacing" textLength="49" x="245" y="774.5142">status</text><text fill="#D9B8FF" font-family="sans-serif" font-size="14" lengthAdjust="spacing" textLength="48" x="294" y="774.5142">: string</text><text fill="#D9B8FF" font-family="sans-serif" font-size="14" font-weight="bold" lengthAdjust="spacing" textLength="232" x="245" y="800.8111">zone_available_cpu_platforms</text><text fill="#D9B8FF" font-family="sans-serif" font-size="14" lengthAdjust="spacing" textLength="58" x="477" y="800.8111">: string[]</text><text fill="#D9B8FF" font-family="sans-serif" font-size="14" font-weight="bold" lengthAdjust="spacing" textLength="137" x="245" y="827.1079">zone_deprecated</text><text fill="#D9B8FF" font-family="sans-serif" font-size="14" lengthAdjust="spacing" textLength="175" x="382" y="827.1079">: gcp_deprecation_status</text><text fill="#D9B8FF" font-family="sans-serif" font-size="14" font-weight="bold" lengthAdjust="spacing" textLength="152" x="245" y="853.4048">zone_supports_pzs</text><text fill="#D9B8FF" font-family="sans-serif" font-size="14" lengthAdjust="spacing" textLength="65" x="397" y="853.4048">: boolean</text></g><!--class resource--><g id="elem_resource"><rect codeLine="41" fill="#3D176E" height="310.7578" id="resource" rx="2.5" ry="2.5" style="stroke:#000D19;stroke-width:0.5;" width="227" x="191.5" y="7"/><ellipse cx="260.25" cy="26.8945" fill="#ADD1B2" rx="11" ry="11" style="stroke:#181818;stroke-width:1.0;"/><path d="M263.2188,32.5352 Q262.6406,32.832 262,32.9727 Q261.3594,33.1289 260.6563,33.1289 Q258.1563,33.1289 256.8281,31.4883 Q255.5156,29.832 255.5156,26.707 Q255.5156,23.582 256.8281,21.9258 Q258.1563,20.2695 260.6563,20.2695 Q261.3594,20.2695 262,20.4258 Q262.6563,20.582 263.2188,20.8789 L263.2188,23.5977 Q262.5938,23.0195 262,22.7539 Q261.4063,22.4727 260.7813,22.4727 Q259.4375,22.4727 258.75,23.5508 Q258.0625,24.6133 258.0625,26.707 Q258.0625,28.8008 258.75,29.8789 Q259.4375,30.9414 260.7813,30.9414 Q261.4063,30.9414 262,30.6758 Q262.5938,30.3945 263.2188,29.8164 L263.2188,32.5352 Z " fill="#000000"/><text fill="#D9B8FF" font-family="Helvetica" font-size="17" lengthAdjust="spacing" textLength="71" x="285.75" y="32.7798">resource</text><line style="stroke:#000D19;stroke-width:0.5;" x1="192.5" x2="417.5" y1="46.7891" y2="46.7891"/><text fill="#D9B8FF" font-family="sans-serif" font-size="14" font-weight="bold" lengthAdjust="spacing" textLength="29" x="202.5" y="68.7842">age</text><text fill="#D9B8FF" font-family="sans-serif" font-size="14" lengthAdjust="spacing" textLength="66" x="231.5" y="68.7842">: duration</text><text fill="#D9B8FF" font-family="sans-serif" font-size="14" font-weight="bold" lengthAdjust="spacing" textLength="43" x="202.5" y="95.0811">atime</text><text fill="#D9B8FF" font-family="sans-serif" font-size="14" lengthAdjust="spacing" textLength="70" x="245.5" y="95.0811">: datetime</text><text fill="#D9B8FF" font-family="sans-serif" font-size="14" font-weight="bold" lengthAdjust="spacing" textLength="43" x="202.5" y="121.3779">ctime</text><text fill="#D9B8FF" font-family="sans-serif" font-size="14" lengthAdjust="spacing" textLength="70" x="245.5" y="121.3779">: datetime</text><text fill="#D9B8FF" font-family="sans-serif" font-size="14" font-weight="bold" lengthAdjust="spacing" textLength="14" x="202.5" y="147.6748">id</text><text fill="#D9B8FF" font-family="sans-serif" font-size="14" lengthAdjust="spacing" textLength="48" x="216.5" y="147.6748">: string</text><text fill="#D9B8FF" font-family="sans-serif" font-size="14" font-weight="bold" lengthAdjust="spacing" textLength="33" x="202.5" y="173.9717">kind</text><text fill="#D9B8FF" font-family="sans-serif" font-size="14" lengthAdjust="spacing" textLength="48" x="235.5" y="173.9717">: string</text><text fill="#D9B8FF" font-family="sans-serif" font-size="14" font-weight="bold" lengthAdjust="spacing" textLength="90" x="202.5" y="200.2686">last_access</text><text fill="#D9B8FF" font-family="sans-serif" font-size="14" lengthAdjust="spacing" textLength="66" x="292.5" y="200.2686">: duration</text><text fill="#D9B8FF" font-family="sans-serif" font-size="14" font-weight="bold" lengthAdjust="spacing" textLength="90" x="202.5" y="226.5654">last_update</text><text fill="#D9B8FF" font-family="sans-serif" font-size="14" lengthAdjust="spacing" textLength="66" x="292.5" y="226.5654">: duration</text><text fill="#D9B8FF" font-family="sans-serif" font-size="14" font-weight="bold" lengthAdjust="spacing" textLength="48" x="202.5" y="252.8623">mtime</text><text fill="#D9B8FF" font-family="sans-serif" font-size="14" lengthAdjust="spacing" textLength="70" x="250.5" y="252.8623">: datetime</text><text fill="#D9B8FF" font-family="sans-serif" font-size="14" font-weight="bold" lengthAdjust="spacing" textLength="43" x="202.5" y="279.1592">name</text><text fill="#D9B8FF" font-family="sans-serif" font-size="14" lengthAdjust="spacing" textLength="48" x="245.5" y="279.1592">: string</text><text fill="#D9B8FF" font-family="sans-serif" font-size="14" font-weight="bold" lengthAdjust="spacing" textLength="34" x="202.5" y="305.4561">tags</text><text fill="#D9B8FF" font-family="sans-serif" font-size="14" lengthAdjust="spacing" textLength="171" x="236.5" y="305.4561">: dictionary[string, string]</text></g><!--class zone--><g id="elem_zone"><rect codeLine="53" fill="#3D176E" height="39.7891" id="zone" rx="2.5" ry="2.5" style="stroke:#000D19;stroke-width:0.5;" width="81" x="389.5" y="495.35"/><ellipse cx="404.5" cy="515.2445" fill="#ADD1B2" rx="11" ry="11" style="stroke:#181818;stroke-width:1.0;"/><path d="M407.4688,520.8852 Q406.8906,521.182 406.25,521.3227 Q405.6094,521.4789 404.9063,521.4789 Q402.4063,521.4789 401.0781,519.8383 Q399.7656,518.182 399.7656,515.057 Q399.7656,511.932 401.0781,510.2758 Q402.4063,508.6195 404.9063,508.6195 Q405.6094,508.6195 406.25,508.7758 Q406.9063,508.932 407.4688,509.2289 L407.4688,511.9477 Q406.8438,511.3695 406.25,511.1039 Q405.6563,510.8227 405.0313,510.8227 Q403.6875,510.8227 403,511.9008 Q402.3125,512.9633 402.3125,515.057 Q402.3125,517.1508 403,518.2289 Q403.6875,519.2914 405.0313,519.2914 Q405.6563,519.2914 406.25,519.0258 Q406.8438,518.7445 407.4688,518.1664 L407.4688,520.8852 Z " fill="#000000"/><text fill="#D9B8FF" font-family="Helvetica" font-size="17" lengthAdjust="spacing" textLength="39" x="423.5" y="521.1298">zone</text></g><!--link gcp_resource to gcp_deprecation_status--><g id="link_gcp_resource_gcp_deprecation_status"><path codeLine="55" d="M180.65,592.06 C182.17,663.89 189.3,774.09 216,865.71 C221.28,883.81 228.74,902.35 236.92,919.91 " fill="none" id="gcp_resource-to-gcp_deprecation_status" style="stroke:#FFAF37;stroke-width:2.0;"/><polygon fill="#FFAF37" points="239.48,924.33,239.2462,914.4839,237.3414,919.8104,232.0149,917.9057,239.48,924.33" style="stroke:#FFAF37;stroke-width:2.0;"/></g><!--reverse link resource to gcp_resource--><g id="link_resource_gcp_resource"><path codeLine="56" d="M243.4,337.66 C230.89,373.07 218.35,408.54 207.84,438.31 " fill="none" id="resource-backto-gcp_resource" style="stroke:#FFAF37;stroke-width:2.0;"/><polygon fill="none" points="237.08,335.56,250.34,319.04,250.28,340.23,237.08,335.56" style="stroke:#FFAF37;stroke-width:2.0;"/></g><!--link gcp_zone to gcp_deprecation_status--><g id="link_gcp_zone_gcp_deprecation_status"><path codeLine="57" d="M363.76,866.1 C355.21,883.51 346.03,902.23 337.16,920.3 " fill="none" id="gcp_zone-to-gcp_deprecation_status" style="stroke:#FFAF37;stroke-width:2.0;"/><polygon fill="#FFAF37" points="334.66,924.38,342.2064,918.0514,336.8561,919.8881,335.0194,914.5377,334.66,924.38" style="stroke:#FFAF37;stroke-width:2.0;"/></g><!--reverse link gcp_resource to gcp_zone--><g id="link_gcp_resource_gcp_zone"><path codeLine="58" d="M255.44,608.26 C282.84,642.14 313.55,680.1 339.67,712.39 " fill="none" id="gcp_resource-backto-gcp_zone" style="stroke:#FFAF37;stroke-width:2.0;"/><polygon fill="none" points="249.42,612.95,242.28,593,260.3,604.15,249.42,612.95" style="stroke:#FFAF37;stroke-width:2.0;"/></g><!--reverse link zone to gcp_zone--><g id="link_zone_gcp_zone"><path codeLine="59" d="M425.74,556.19 C421.38,597.11 414.48,661.75 409.08,712.42 " fill="none" id="zone-backto-gcp_zone" style="stroke:#FFAF37;stroke-width:2.0;"/><polygon fill="none" points="418.88,555.51,427.96,536.37,432.8,557,418.88,555.51" style="stroke:#FFAF37;stroke-width:2.0;"/></g><!--reverse link resource to zone--><g id="link_resource_zone"><path codeLine="60" d="M367.07,337.59 C389.57,400.76 412.15,464.13 423.13,494.96 " fill="none" id="resource-backto-zone" style="stroke:#FFAF37;stroke-width:2.0;"/><polygon fill="none" points="360.22,340.23,360.1,319.04,373.41,335.53,360.22,340.23" style="stroke:#FFAF37;stroke-width:2.0;"/></g><!--SRC=[XPJVQzim4CVVyrSO-XOMI5gsD6KCsi3ONifOzrQAEKjdHyIMn4bkIRR-xvDirvMK7tsBl_Uvk- -TZcm4nmmRRNTPWqs1P2PcAwG6WYQx9L8lQrKhoYxA4ighPHhyhgJz4BY71hCVM3-Z5GnIuiz6iAr4OxBB87G7R5kHQYNlori2QLm8fGseTGt6t5fBecWj1cRughWkovHCYrvSySNo2nvWYZZIWCpdSxvOfSY7hSxEFH8FOe_P8bpQlR9uOFEWHKUTTUc9mEJ1e6_nanv_0UT2LjddGFlTUoA95EaF6-3gnTCbr2PiOomIAhlJk3wO2bVNl5mUXN-UWfdVN5OndNFKX0oiK38t5cnhih-JwPHZZHRvT7hZof6pr6azciYgCCh3aKYeQs3Ok3kBTDyY95y3AuH6jSHmC93wybd77NUuOIIq5wD-DHHOvwNxGD9EYztKGcvFcDahsHjvRpwc-LWEpo1SzHfpfjlSJMjBHKq0FZwzeV7YJixGiQRLMf4rkTvtjGhbbWjoz1Oj2QfkbxobhfHNh6XwpRNplvt6ZcWYVaDtEppPcx4vCER-Jv8ENQJLV7Z78D8SwIEXYG_3GjLN5Cod0UqU-zYdWNaQHnsUu7KI7STizktK2aVcwx_PR1RTr6HyqpFvKP_t6ZvjqkKcMi9wxJy0]--></g></svg>