<svg xmlns="http://www.w3.org/2000/svg" width="755" height="1272" viewBox="0 0 755 1272"><rect width="155" height="74.086" x="206" y="438.76" fill="#3D176E" rx="2.5" ry="2.5" style="stroke:#000d19;stroke-width:.5"/><circle cx="221" cy="458.654" r="11" fill="#ADD1B2" style="stroke:#181818;stroke-width:1"/><path d="M223.969 464.295q-.578.297-1.219.438-.64.156-1.344.156-2.5 0-3.828-1.64-1.312-1.657-1.312-4.782t1.312-4.781q1.328-1.656 3.828-1.656.703 0 1.344.156.656.156 1.219.453v2.719q-.625-.579-1.219-.844-.594-.281-1.219-.281-1.344 0-2.031 1.078-.688 1.062-.688 3.156 0 2.094.688 3.172.688 1.062 2.031 1.062.625 0 1.219-.265.594-.281 1.219-.86v2.72Z"/><text x="240" y="464.54" fill="#D9B8FF" font-family="Helvetica" font-size="17" textLength="113">aws_resource</text><path d="M207 478.549h153" style="stroke:#000d19;stroke-width:.5"/><text x="217" y="500.544" fill="#D9B8FF" font-family="sans-serif" font-size="14" font-weight="bold" textLength="26">arn</text><text x="243" y="500.544" fill="#D9B8FF" font-family="sans-serif" font-size="14" textLength="48">: string</text><rect width="577" height="231.867" x="79" y="633.85" fill="#3D176E" rx="2.5" ry="2.5" style="stroke:#000d19;stroke-width:.5"/><circle cx="323.25" cy="653.745" r="11" fill="#ADD1B2" style="stroke:#181818;stroke-width:1"/><path d="M326.219 659.385q-.578.297-1.219.438-.64.156-1.344.156-2.5 0-3.828-1.64-1.312-1.657-1.312-4.782t1.312-4.781q1.328-1.656 3.828-1.656.703 0 1.344.156.656.156 1.219.453v2.719q-.625-.578-1.219-.844-.594-.281-1.219-.281-1.344 0-2.031 1.078-.688 1.062-.688 3.156 0 2.094.688 3.172.688 1.062 2.031 1.062.625 0 1.219-.265.594-.281 1.219-.86z"/><text x="348.75" y="659.63" fill="#D9B8FF" font-family="Helvetica" font-size="17" textLength="70">aws_vpc</text><path d="M80 673.639h575" style="stroke:#000d19;stroke-width:.5"/><text x="90" y="695.634" fill="#D9B8FF" font-family="sans-serif" font-size="14" font-weight="bold" textLength="114">vpc_cidr_block</text><text x="204" y="695.634" fill="#D9B8FF" font-family="sans-serif" font-size="14" textLength="48">: string</text><text x="90" y="721.931" fill="#D9B8FF" font-family="sans-serif" font-size="14" font-weight="bold" textLength="242">vpc_cidr_block_association_set</text><text x="332" y="721.931" fill="#D9B8FF" font-family="sans-serif" font-size="14" textLength="238">: aws_vpc_cidr_block_association[]</text><text x="90" y="748.228" fill="#D9B8FF" font-family="sans-serif" font-size="14" font-weight="bold" textLength="161">vpc_dhcp_options_id</text><text x="251" y="748.228" fill="#D9B8FF" font-family="sans-serif" font-size="14" textLength="48">: string</text><text x="90" y="774.525" fill="#D9B8FF" font-family="sans-serif" font-size="14" font-weight="bold" textLength="172">vpc_instance_tenancy</text><text x="262" y="774.525" fill="#D9B8FF" font-family="sans-serif" font-size="14" textLength="48">: string</text><text x="90" y="800.822" fill="#D9B8FF" font-family="sans-serif" font-size="14" font-weight="bold" textLength="282">vpc_ipv6_cidr_block_association_set</text><text x="372" y="800.822" fill="#D9B8FF" font-family="sans-serif" font-size="14" textLength="273">: aws_vpc_ipv6_cidr_block_association[]</text><text x="90" y="827.119" fill="#D9B8FF" font-family="sans-serif" font-size="14" font-weight="bold" textLength="110">vpc_is_default</text><text x="200" y="827.119" fill="#D9B8FF" font-family="sans-serif" font-size="14" textLength="65">: boolean</text><text x="90" y="853.415" fill="#D9B8FF" font-family="sans-serif" font-size="14" font-weight="bold" textLength="75">vpc_state</text><text x="165" y="853.415" fill="#D9B8FF" font-family="sans-serif" font-size="14" textLength="48">: string</text><rect width="333" height="126.68" x="7" y="952.01" fill="#3D176E" rx="2.5" ry="2.5" style="stroke:#000d19;stroke-width:.5"/><circle cx="35.05" cy="971.904" r="11" fill="#ADD1B2" style="stroke:#181818;stroke-width:1"/><path d="M38.019 977.545q-.578.297-1.219.438-.64.156-1.344.156-2.5 0-3.828-1.64-1.312-1.657-1.312-4.782t1.312-4.781q1.328-1.657 3.828-1.657.703 0 1.344.157.656.156 1.219.453v2.719q-.625-.578-1.219-.844-.594-.281-1.219-.281-1.344 0-2.031 1.078-.688 1.062-.688 3.156 0 2.094.688 3.172.688 1.062 2.031 1.062.625 0 1.219-.265.594-.282 1.219-.86z"/><text x="56.95" y="977.79" fill="#D9B8FF" font-family="Helvetica" font-size="17" textLength="262">aws_vpc_cidr_block_association</text><path d="M8 991.799h331" style="stroke:#000d19;stroke-width:.5"/><text x="18" y="1013.794" fill="#D9B8FF" font-family="sans-serif" font-size="14" font-weight="bold" textLength="110">association_id</text><text x="128" y="1013.794" fill="#D9B8FF" font-family="sans-serif" font-size="14" textLength="48">: string</text><text x="18" y="1040.091" fill="#D9B8FF" font-family="sans-serif" font-size="14" font-weight="bold" textLength="79">cidr_block</text><text x="97" y="1040.091" fill="#D9B8FF" font-family="sans-serif" font-size="14" textLength="48">: string</text><text x="18" y="1066.388" fill="#D9B8FF" font-family="sans-serif" font-size="14" font-weight="bold" textLength="126">cidr_block_state</text><text x="144" y="1066.388" fill="#D9B8FF" font-family="sans-serif" font-size="14" textLength="185">: aws_vpc_cidr_block_state</text><rect width="254" height="100.383" x="240.5" y="1164.99" fill="#3D176E" rx="2.5" ry="2.5" style="stroke:#000d19;stroke-width:.5"/><circle cx="255.5" cy="1184.884" r="11" fill="#ADD1B2" style="stroke:#181818;stroke-width:1"/><path d="M258.469 1190.525q-.578.297-1.219.438-.64.156-1.344.156-2.5 0-3.828-1.64-1.312-1.657-1.312-4.782t1.312-4.781q1.328-1.657 3.828-1.657.703 0 1.344.157.656.156 1.219.453v2.719q-.625-.579-1.219-.844-.594-.281-1.219-.281-1.344 0-2.031 1.078-.688 1.062-.688 3.156 0 2.094.688 3.172.688 1.062 2.031 1.062.625 0 1.219-.265.594-.282 1.219-.86z"/><text x="274.5" y="1190.77" fill="#D9B8FF" font-family="Helvetica" font-size="17" textLength="212">aws_vpc_cidr_block_state</text><path d="M241.5 1204.779h252" style="stroke:#000d19;stroke-width:.5"/><text x="251.5" y="1226.774" fill="#D9B8FF" font-family="sans-serif" font-size="14" font-weight="bold" textLength="40">state</text><text x="291.5" y="1226.774" fill="#D9B8FF" font-family="sans-serif" font-size="14" textLength="48">: string</text><text x="251.5" y="1253.071" fill="#D9B8FF" font-family="sans-serif" font-size="14" font-weight="bold" textLength="127">status_message</text><text x="378.5" y="1253.071" fill="#D9B8FF" font-family="sans-serif" font-size="14" textLength="48">: string</text><rect width="373" height="179.273" x="375" y="925.71" fill="#3D176E" rx="2.5" ry="2.5" style="stroke:#000d19;stroke-width:.5"/><circle cx="400.8" cy="945.605" r="11" fill="#ADD1B2" style="stroke:#181818;stroke-width:1"/><path d="M403.769 951.245q-.578.297-1.219.438-.64.156-1.344.156-2.5 0-3.828-1.64-1.312-1.657-1.312-4.782t1.312-4.781q1.328-1.656 3.828-1.656.703 0 1.344.156.656.156 1.219.453v2.719q-.625-.578-1.219-.844-.594-.281-1.219-.281-1.344 0-2.031 1.078-.688 1.062-.688 3.156 0 2.094.688 3.172.688 1.062 2.031 1.062.625 0 1.219-.265.594-.281 1.219-.86z"/><text x="422.2" y="951.49" fill="#D9B8FF" font-family="Helvetica" font-size="17" textLength="307">aws_vpc_ipv6_cidr_block_association</text><path d="M376 965.499h371" style="stroke:#000d19;stroke-width:.5"/><text x="386" y="987.494" fill="#D9B8FF" font-family="sans-serif" font-size="14" font-weight="bold" textLength="110">association_id</text><text x="496" y="987.494" fill="#D9B8FF" font-family="sans-serif" font-size="14" textLength="48">: string</text><text x="386" y="1013.791" fill="#D9B8FF" font-family="sans-serif" font-size="14" font-weight="bold" textLength="119">ipv6_cidr_block</text><text x="505" y="1013.791" fill="#D9B8FF" font-family="sans-serif" font-size="14" textLength="48">: string</text><text x="386" y="1040.088" fill="#D9B8FF" font-family="sans-serif" font-size="14" font-weight="bold" textLength="166">ipv6_cidr_block_state</text><text x="552" y="1040.088" fill="#D9B8FF" font-family="sans-serif" font-size="14" textLength="185">: aws_vpc_cidr_block_state</text><text x="386" y="1066.385" fill="#D9B8FF" font-family="sans-serif" font-size="14" font-weight="bold" textLength="74">ipv6_pool</text><text x="460" y="1066.385" fill="#D9B8FF" font-family="sans-serif" font-size="14" textLength="48">: string</text><text x="386" y="1092.682" fill="#D9B8FF" font-family="sans-serif" font-size="14" font-weight="bold" textLength="181">network_border_group</text><text x="567" y="1092.682" fill="#D9B8FF" font-family="sans-serif" font-size="14" textLength="48">: string</text><rect width="112" height="39.789" x="396.5" y="455.91" fill="#3D176E" rx="2.5" ry="2.5" style="stroke:#000d19;stroke-width:.5"/><circle cx="411.5" cy="475.805" r="11" fill="#ADD1B2" style="stroke:#181818;stroke-width:1"/><path d="M414.469 481.445q-.578.297-1.219.438-.64.156-1.344.156-2.5 0-3.828-1.64-1.312-1.657-1.312-4.782t1.312-4.781q1.328-1.656 3.828-1.656.703 0 1.344.156.656.156 1.219.453v2.719q-.625-.578-1.219-.844-.594-.281-1.219-.281-1.344 0-2.031 1.078-.688 1.062-.688 3.156 0 2.094.688 3.172.688 1.062 2.031 1.062.625 0 1.219-.265.594-.281 1.219-.86v2.72Z"/><text x="430.5" y="481.69" fill="#D9B8FF" font-family="Helvetica" font-size="17" textLength="70">network</text><rect width="227" height="310.758" x="254" y="7" fill="#3D176E" rx="2.5" ry="2.5" style="stroke:#000d19;stroke-width:.5"/><circle cx="322.75" cy="26.895" r="11" fill="#ADD1B2" style="stroke:#181818;stroke-width:1"/><path d="M325.719 32.535q-.578.297-1.219.438-.64.156-1.344.156-2.5 0-3.828-1.64-1.312-1.657-1.312-4.782t1.312-4.781q1.328-1.656 3.828-1.656.703 0 1.344.156.656.156 1.219.453v2.719q-.625-.578-1.219-.844-.594-.281-1.219-.281-1.344 0-2.031 1.078-.688 1.062-.688 3.156 0 2.094.688 3.172.688 1.062 2.031 1.062.625 0 1.219-.265.594-.281 1.219-.86v2.72Z"/><text x="348.25" y="32.78" fill="#D9B8FF" font-family="Helvetica" font-size="17" textLength="71">resource</text><path d="M255 46.789h225" style="stroke:#000d19;stroke-width:.5"/><text x="265" y="68.784" fill="#D9B8FF" font-family="sans-serif" font-size="14" font-weight="bold" textLength="29">age</text><text x="294" y="68.784" fill="#D9B8FF" font-family="sans-serif" font-size="14" textLength="66">: duration</text><text x="265" y="95.081" fill="#D9B8FF" font-family="sans-serif" font-size="14" font-weight="bold" textLength="43">atime</text><text x="308" y="95.081" fill="#D9B8FF" font-family="sans-serif" font-size="14" textLength="70">: datetime</text><text x="265" y="121.378" fill="#D9B8FF" font-family="sans-serif" font-size="14" font-weight="bold" textLength="43">ctime</text><text x="308" y="121.378" fill="#D9B8FF" font-family="sans-serif" font-size="14" textLength="70">: datetime</text><text x="265" y="147.675" fill="#D9B8FF" font-family="sans-serif" font-size="14" font-weight="bold" textLength="14">id</text><text x="279" y="147.675" fill="#D9B8FF" font-family="sans-serif" font-size="14" textLength="48">: string</text><text x="265" y="173.972" fill="#D9B8FF" font-family="sans-serif" font-size="14" font-weight="bold" textLength="33">kind</text><text x="298" y="173.972" fill="#D9B8FF" font-family="sans-serif" font-size="14" textLength="48">: string</text><text x="265" y="200.269" fill="#D9B8FF" font-family="sans-serif" font-size="14" font-weight="bold" textLength="90">last_access</text><text x="355" y="200.269" fill="#D9B8FF" font-family="sans-serif" font-size="14" textLength="66">: duration</text><text x="265" y="226.565" fill="#D9B8FF" font-family="sans-serif" font-size="14" font-weight="bold" textLength="90">last_update</text><text x="355" y="226.565" fill="#D9B8FF" font-family="sans-serif" font-size="14" textLength="66">: duration</text><text x="265" y="252.862" fill="#D9B8FF" font-family="sans-serif" font-size="14" font-weight="bold" textLength="48">mtime</text><text x="313" y="252.862" fill="#D9B8FF" font-family="sans-serif" font-size="14" textLength="70">: datetime</text><text x="265" y="279.159" fill="#D9B8FF" font-family="sans-serif" font-size="14" font-weight="bold" textLength="43">name</text><text x="308" y="279.159" fill="#D9B8FF" font-family="sans-serif" font-size="14" textLength="48">: string</text><text x="265" y="305.456" fill="#D9B8FF" font-family="sans-serif" font-size="14" font-weight="bold" textLength="34">tags</text><text x="299" y="305.456" fill="#D9B8FF" font-family="sans-serif" font-size="14" textLength="171">: dictionary[string, string]</text><path fill="none" d="M320.28 338.45c-10.25 38-20.08 74.43-26.99 100.07m20.49-101.85 11.97-17.49 1.55 21.13z" style="stroke:#ffaf37;stroke-width:2"/><g fill="none"><path d="M300.83 532.91c8.98 29.09 20.3 65.73 31.05 100.53" style="stroke:#ffaf37;stroke-width:2"/><path d="m293.96 535.38.78-21.18 12.59 17.04z" style="stroke:#ffaf37;stroke-width:2"/></g><path fill="none" d="M282.69 866c-20.44 27.78-41.62 56.55-59.82 81.28" style="stroke:#ffaf37;stroke-width:2"/><path fill="#FFAF37" d="m219.5 950.85 8.55-4.888-5.591.857-.858-5.591z" style="stroke:#ffaf37;stroke-width:2"/><path fill="none" d="M452.31 866c13.53 18.39 27.39 37.22 40.49 55.02" style="stroke:#ffaf37;stroke-width:2"/><path fill="#FFAF37" d="m496.12 924.52-2.101-9.622-.858 5.591-5.591-.857z" style="stroke:#ffaf37;stroke-width:2"/><g fill="none"><path d="M440.35 515.69c-9.65 30.86-23.65 75.65-36.8 117.75" style="stroke:#ffaf37;stroke-width:2"/><path d="m433.88 513.93 12.64-17 .72 21.18z" style="stroke:#ffaf37;stroke-width:2"/></g><path fill="none" d="M234.88 1078.94c25.71 26.22 55.3 56.39 80 81.58" style="stroke:#ffaf37;stroke-width:2"/><path fill="#FFAF37" d="m317.8 1163.51-3.461-9.22-.046 5.656-5.656-.046z" style="stroke:#ffaf37;stroke-width:2"/><path fill="none" d="M474.15 1105.43c-18.36 18.72-37.18 37.91-53.81 54.86" style="stroke:#ffaf37;stroke-width:2"/><path fill="#FFAF37" d="m417.17 1163.55 9.156-3.628-5.656.057-.058-5.657z" style="stroke:#ffaf37;stroke-width:2"/><g fill="none"><path d="M415.25 338.31c12.99 47.6 25.32 92.77 32.02 117.34" style="stroke:#ffaf37;stroke-width:2"/><path d="m408.26 340.32 1.49-21.14 12.02 17.45z" style="stroke:#ffaf37;stroke-width:2"/></g></svg>