<svg xmlns="http://www.w3.org/2000/svg" xmlns:xlink="http://www.w3.org/1999/xlink" width="3421" height="1961" preserveAspectRatio="none" style="width:3421px;height:1961px"><a xlink:actuate="onRequest" xlink:href="#a" xlink:show="new" xlink:title="#aws_sagemaker_vpc_config" xlink:type="simple" target="_top"><rect id="a" width="272" height="100.383" x="158.5" y="1841.17" fill="#3D176E" rx="2.5" ry="2.5" style="stroke:#000d19;stroke-width:.5"/><circle cx="173.5" cy="1861.064" r="11" fill="#ADD1B2" style="stroke:#181818;stroke-width:1"/><path d="M176.469 1866.705q-.578.297-1.219.438-.64.156-1.344.156-2.5 0-3.828-1.64-1.312-1.657-1.312-4.782t1.312-4.781q1.328-1.657 3.828-1.657.703 0 1.344.157.656.156 1.219.453v2.719q-.625-.579-1.219-.844-.594-.281-1.219-.281-1.344 0-2.031 1.078-.688 1.062-.688 3.156 0 2.094.688 3.172.688 1.062 2.031 1.062.625 0 1.219-.265.594-.282 1.219-.86v2.72Z"/><text x="192.5" y="1866.95" fill="#D9B8FF" font-family="Helvetica" font-size="17" textLength="230">aws_sagemaker_vpc_config</text><path d="M159.5 1880.959h270" style="stroke:#000d19;stroke-width:.5"/><text x="169.5" y="1902.954" fill="#D9B8FF" font-family="sans-serif" font-size="14" font-weight="bold" textLength="148">security_group_ids</text><text x="317.5" y="1902.954" fill="#D9B8FF" font-family="sans-serif" font-size="14" textLength="58">: string[]</text><text x="169.5" y="1929.251" fill="#D9B8FF" font-family="sans-serif" font-size="14" font-weight="bold" textLength="64">subnets</text><text x="233.5" y="1929.251" fill="#D9B8FF" font-family="sans-serif" font-size="14" textLength="58">: string[]</text></a><a xlink:actuate="onRequest" xlink:href="#b" xlink:show="new" xlink:title="#resource" xlink:type="simple" target="_top"><rect id="b" width="227" height="310.758" x="1495" y="7" fill="#3D176E" rx="2.5" ry="2.5" style="stroke:#000d19;stroke-width:.5"/><circle cx="1563.75" cy="26.895" r="11" fill="#ADD1B2" style="stroke:#181818;stroke-width:1"/><path d="M1566.719 32.535q-.578.297-1.219.438-.64.156-1.344.156-2.5 0-3.828-1.64-1.312-1.657-1.312-4.782t1.312-4.781q1.328-1.656 3.828-1.656.703 0 1.344.156.656.156 1.219.453v2.719q-.625-.578-1.219-.844-.594-.281-1.219-.281-1.343 0-2.031 1.078-.688 1.062-.688 3.156 0 2.094.688 3.172.688 1.062 2.031 1.062.625 0 1.219-.265.594-.281 1.219-.86v2.72Z"/><text x="1589.25" y="32.78" fill="#D9B8FF" font-family="Helvetica" font-size="17" textLength="71">resource</text><path d="M1496 46.789h225" style="stroke:#000d19;stroke-width:.5"/><text x="1506" y="68.784" fill="#D9B8FF" font-family="sans-serif" font-size="14" font-weight="bold" textLength="14">id</text><text x="1520" y="68.784" fill="#D9B8FF" font-family="sans-serif" font-size="14" textLength="48">: string</text><text x="1506" y="95.081" fill="#D9B8FF" font-family="sans-serif" font-size="14" font-weight="bold" textLength="34">tags</text><text x="1540" y="95.081" fill="#D9B8FF" font-family="sans-serif" font-size="14" textLength="171">: dictionary[string, string]</text><text x="1506" y="121.378" fill="#D9B8FF" font-family="sans-serif" font-size="14" font-weight="bold" textLength="43">name</text><text x="1549" y="121.378" fill="#D9B8FF" font-family="sans-serif" font-size="14" textLength="48">: string</text><text x="1506" y="147.675" fill="#D9B8FF" font-family="sans-serif" font-size="14" font-weight="bold" textLength="43">ctime</text><text x="1549" y="147.675" fill="#D9B8FF" font-family="sans-serif" font-size="14" textLength="70">: datetime</text><text x="1506" y="173.972" fill="#D9B8FF" font-family="sans-serif" font-size="14" font-weight="bold" textLength="29">age</text><text x="1535" y="173.972" fill="#D9B8FF" font-family="sans-serif" font-size="14" textLength="66">: duration</text><text x="1506" y="200.269" fill="#D9B8FF" font-family="sans-serif" font-size="14" font-weight="bold" textLength="48">mtime</text><text x="1554" y="200.269" fill="#D9B8FF" font-family="sans-serif" font-size="14" textLength="70">: datetime</text><text x="1506" y="226.565" fill="#D9B8FF" font-family="sans-serif" font-size="14" font-weight="bold" textLength="90">last_update</text><text x="1596" y="226.565" fill="#D9B8FF" font-family="sans-serif" font-size="14" textLength="66">: duration</text><text x="1506" y="252.862" fill="#D9B8FF" font-family="sans-serif" font-size="14" font-weight="bold" textLength="43">atime</text><text x="1549" y="252.862" fill="#D9B8FF" font-family="sans-serif" font-size="14" textLength="70">: datetime</text><text x="1506" y="279.159" fill="#D9B8FF" font-family="sans-serif" font-size="14" font-weight="bold" textLength="90">last_access</text><text x="1596" y="279.159" fill="#D9B8FF" font-family="sans-serif" font-size="14" textLength="66">: duration</text><text x="1506" y="305.456" fill="#D9B8FF" font-family="sans-serif" font-size="14" font-weight="bold" textLength="33">kind</text><text x="1539" y="305.456" fill="#D9B8FF" font-family="sans-serif" font-size="14" textLength="48">: string</text></a><a xlink:actuate="onRequest" xlink:href="#c" xlink:show="new" xlink:title="#aws_resource" xlink:type="simple" target="_top"><rect id="c" width="155" height="74.086" x="1531" y="438.76" fill="#3D176E" rx="2.5" ry="2.5" style="stroke:#000d19;stroke-width:.5"/><circle cx="1546" cy="458.654" r="11" fill="#ADD1B2" style="stroke:#181818;stroke-width:1"/><path d="M1548.969 464.295q-.578.297-1.219.438-.64.156-1.344.156-2.5 0-3.828-1.64-1.312-1.657-1.312-4.782t1.312-4.781q1.328-1.656 3.828-1.656.703 0 1.344.156.656.156 1.219.453v2.719q-.625-.579-1.219-.844-.594-.281-1.219-.281-1.343 0-2.031 1.078-.688 1.062-.688 3.156 0 2.094.688 3.172.688 1.062 2.031 1.062.625 0 1.219-.265.594-.281 1.219-.86v2.72Z"/><text x="1565" y="464.54" fill="#D9B8FF" font-family="Helvetica" font-size="17" textLength="113">aws_resource</text><path d="M1532 478.549h153" style="stroke:#000d19;stroke-width:.5"/><text x="1542" y="500.544" fill="#D9B8FF" font-family="sans-serif" font-size="14" font-weight="bold" textLength="26">arn</text><text x="1568" y="500.544" fill="#D9B8FF" font-family="sans-serif" font-size="14" textLength="48">: string</text></a><a xlink:actuate="onRequest" xlink:href="#d" xlink:show="new" xlink:title="#aws_sagemaker_labeling_job_algorithms_config" xlink:type="simple" target="_top"><rect id="d" width="575" height="126.68" x="7" y="1362.62" fill="#3D176E" rx="2.5" ry="2.5" style="stroke:#000d19;stroke-width:.5"/><circle cx="84.75" cy="1382.514" r="11" fill="#ADD1B2" style="stroke:#181818;stroke-width:1"/><path d="M87.719 1388.155q-.578.297-1.219.438-.64.156-1.344.156-2.5 0-3.828-1.64-1.312-1.657-1.312-4.782t1.312-4.781q1.328-1.657 3.828-1.657.703 0 1.344.157.656.156 1.219.453v2.719q-.625-.579-1.219-.844-.594-.281-1.219-.281-1.344 0-2.031 1.078-.688 1.062-.688 3.156 0 2.094.688 3.172.688 1.062 2.031 1.062.625 0 1.219-.265.594-.282 1.219-.86v2.72Z"/><text x="110.25" y="1388.4" fill="#D9B8FF" font-family="Helvetica" font-size="17" textLength="401">aws_sagemaker_labeling_job_algorithms_config</text><path d="M8 1402.409h573" style="stroke:#000d19;stroke-width:.5"/><text x="18" y="1424.404" fill="#D9B8FF" font-family="sans-serif" font-size="14" font-weight="bold" textLength="313">labeling_job_algorithm_specification_arn</text><text x="331" y="1424.404" fill="#D9B8FF" font-family="sans-serif" font-size="14" textLength="48">: string</text><text x="18" y="1450.701" fill="#D9B8FF" font-family="sans-serif" font-size="14" font-weight="bold" textLength="254">initial_active_learning_model_arn</text><text x="272" y="1450.701" fill="#D9B8FF" font-family="sans-serif" font-size="14" textLength="48">: string</text><text x="18" y="1476.998" fill="#D9B8FF" font-family="sans-serif" font-size="14" font-weight="bold" textLength="227">labeling_job_resource_config</text><text x="245" y="1476.998" fill="#D9B8FF" font-family="sans-serif" font-size="14" textLength="326">: aws_sagemaker_labeling_job_resource_config</text></a><a xlink:actuate="onRequest" xlink:href="#e" xlink:show="new" xlink:title="#aws_sagemaker_labeling_job_resource_config" xlink:type="simple" target="_top"><rect id="e" width="424" height="100.383" x="82.5" y="1667.64" fill="#3D176E" rx="2.5" ry="2.5" style="stroke:#000d19;stroke-width:.5"/><circle cx="97.5" cy="1687.534" r="11" fill="#ADD1B2" style="stroke:#181818;stroke-width:1"/><path d="M100.469 1693.175q-.578.297-1.219.438-.64.156-1.344.156-2.5 0-3.828-1.64-1.312-1.657-1.312-4.782t1.312-4.781q1.328-1.657 3.828-1.657.703 0 1.344.157.656.156 1.219.453v2.719q-.625-.579-1.219-.844-.594-.281-1.219-.281-1.344 0-2.031 1.078-.688 1.062-.688 3.156 0 2.094.688 3.172.688 1.062 2.031 1.062.625 0 1.219-.265.594-.282 1.219-.86v2.72Z"/><text x="116.5" y="1693.42" fill="#D9B8FF" font-family="Helvetica" font-size="17" textLength="382">aws_sagemaker_labeling_job_resource_config</text><path d="M83.5 1707.429h422" style="stroke:#000d19;stroke-width:.5"/><text x="93.5" y="1729.424" fill="#D9B8FF" font-family="sans-serif" font-size="14" font-weight="bold" textLength="152">volume_kms_key_id</text><text x="245.5" y="1729.424" fill="#D9B8FF" font-family="sans-serif" font-size="14" textLength="48">: string</text><text x="93.5" y="1755.721" fill="#D9B8FF" font-family="sans-serif" font-size="14" font-weight="bold" textLength="84">vpc_config</text><text x="177.5" y="1755.721" fill="#D9B8FF" font-family="sans-serif" font-size="14" textLength="200">: aws_sagemaker_vpc_config</text></a><a xlink:actuate="onRequest" xlink:href="#f" xlink:show="new" xlink:title="#aws_sagemaker_labeling_job_input_config" xlink:type="simple" target="_top"><rect id="f" width="418" height="100.383" x="617.5" y="1375.77" fill="#3D176E" rx="2.5" ry="2.5" style="stroke:#000d19;stroke-width:.5"/><circle cx="641.95" cy="1395.665" r="11" fill="#ADD1B2" style="stroke:#181818;stroke-width:1"/><path d="M644.919 1401.305q-.578.297-1.219.438-.64.156-1.344.156-2.5 0-3.828-1.64-1.312-1.657-1.312-4.782t1.312-4.781q1.328-1.656 3.828-1.656.703 0 1.344.156.656.156 1.219.453v2.719q-.625-.578-1.219-.844-.594-.281-1.219-.281-1.343 0-2.031 1.078-.688 1.062-.688 3.156 0 2.094.688 3.172.688 1.062 2.031 1.062.625 0 1.219-.265.594-.281 1.219-.86v2.72Z"/><text x="663.05" y="1401.55" fill="#D9B8FF" font-family="Helvetica" font-size="17" textLength="355">aws_sagemaker_labeling_job_input_config</text><path d="M618.5 1415.559h416" style="stroke:#000d19;stroke-width:.5"/><text x="628.5" y="1437.554" fill="#D9B8FF" font-family="sans-serif" font-size="14" font-weight="bold" textLength="96">data_source</text><text x="724.5" y="1437.554" fill="#D9B8FF" font-family="sans-serif" font-size="14" textLength="300">: aws_sagemaker_labeling_job_data_source</text><text x="628.5" y="1463.851" fill="#D9B8FF" font-family="sans-serif" font-size="14" font-weight="bold" textLength="118">data_attributes</text><text x="746.5" y="1463.851" fill="#D9B8FF" font-family="sans-serif" font-size="14" textLength="58">: string[]</text></a><a xlink:actuate="onRequest" xlink:href="#g" xlink:show="new" xlink:title="#aws_sagemaker_labeling_job_data_source" xlink:type="simple" target="_top"><rect id="g" width="394" height="100.383" x="629.5" y="1667.64" fill="#3D176E" rx="2.5" ry="2.5" style="stroke:#000d19;stroke-width:.5"/><circle cx="644.5" cy="1687.534" r="11" fill="#ADD1B2" style="stroke:#181818;stroke-width:1"/><path d="M647.469 1693.175q-.578.297-1.219.438-.64.156-1.344.156-2.5 0-3.828-1.64-1.312-1.657-1.312-4.782t1.312-4.781q1.328-1.657 3.828-1.657.703 0 1.344.157.656.156 1.219.453v2.719q-.625-.579-1.219-.844-.594-.281-1.219-.281-1.343 0-2.031 1.078-.688 1.062-.688 3.156 0 2.094.688 3.172.688 1.062 2.031 1.062.625 0 1.219-.265.594-.282 1.219-.86v2.72Z"/><text x="663.5" y="1693.42" fill="#D9B8FF" font-family="Helvetica" font-size="17" textLength="352">aws_sagemaker_labeling_job_data_source</text><path d="M630.5 1707.429h392" style="stroke:#000d19;stroke-width:.5"/><text x="640.5" y="1729.424" fill="#D9B8FF" font-family="sans-serif" font-size="14" font-weight="bold" textLength="122">s3_data_source</text><text x="762.5" y="1729.424" fill="#D9B8FF" font-family="sans-serif" font-size="14" textLength="48">: string</text><text x="640.5" y="1755.721" fill="#D9B8FF" font-family="sans-serif" font-size="14" font-weight="bold" textLength="131">sns_data_source</text><text x="771.5" y="1755.721" fill="#D9B8FF" font-family="sans-serif" font-size="14" textLength="48">: string</text></a><a xlink:actuate="onRequest" xlink:href="#h" xlink:show="new" xlink:title="#aws_sagemaker_labeling_job_output" xlink:type="simple" target="_top"><rect id="h" width="350" height="100.383" x="1070.5" y="1375.77" fill="#3D176E" rx="2.5" ry="2.5" style="stroke:#000d19;stroke-width:.5"/><circle cx="1085.5" cy="1395.665" r="11" fill="#ADD1B2" style="stroke:#181818;stroke-width:1"/><path d="M1088.469 1401.305q-.578.297-1.219.438-.64.156-1.344.156-2.5 0-3.828-1.64-1.312-1.657-1.312-4.782t1.312-4.781q1.328-1.656 3.828-1.656.703 0 1.344.156.656.156 1.219.453v2.719q-.625-.578-1.219-.844-.594-.281-1.219-.281-1.343 0-2.031 1.078-.688 1.062-.688 3.156 0 2.094.688 3.172.688 1.062 2.031 1.062.625 0 1.219-.265.594-.281 1.219-.86v2.72Z"/><text x="1104.5" y="1401.55" fill="#D9B8FF" font-family="Helvetica" font-size="17" textLength="308">aws_sagemaker_labeling_job_output</text><path d="M1071.5 1415.559h348" style="stroke:#000d19;stroke-width:.5"/><text x="1081.5" y="1437.554" fill="#D9B8FF" font-family="sans-serif" font-size="14" font-weight="bold" textLength="172">output_dataset_s3_uri</text><text x="1253.5" y="1437.554" fill="#D9B8FF" font-family="sans-serif" font-size="14" textLength="48">: string</text><text x="1081.5" y="1463.851" fill="#D9B8FF" font-family="sans-serif" font-size="14" font-weight="bold" textLength="246">final_active_learning_model_arn</text><text x="1327.5" y="1463.851" fill="#D9B8FF" font-family="sans-serif" font-size="14" textLength="48">: string</text></a><a xlink:actuate="onRequest" xlink:href="#i" xlink:show="new" xlink:title="#aws_sagemaker_labeling_job" xlink:type="simple" target="_top"><rect id="i" width="634" height="389.648" x="1291.5" y="794.64" fill="#3D176E" rx="2.5" ry="2.5" style="stroke:#000d19;stroke-width:.5"/><circle cx="1477.75" cy="814.534" r="11" fill="#ADD1B2" style="stroke:#181818;stroke-width:1"/><path d="M1480.719 820.175q-.578.297-1.219.438-.64.156-1.344.156-2.5 0-3.828-1.64-1.312-1.657-1.312-4.782t1.312-4.781q1.328-1.657 3.828-1.657.703 0 1.344.157.656.156 1.219.453v2.719q-.625-.579-1.219-.844-.594-.281-1.219-.281-1.343 0-2.031 1.078-.688 1.062-.688 3.156 0 2.094.688 3.172.688 1.062 2.031 1.062.625 0 1.219-.265.594-.282 1.219-.86v2.72Z"/><text x="1503.25" y="820.42" fill="#D9B8FF" font-family="Helvetica" font-size="17" textLength="243">aws_sagemaker_labeling_job</text><path d="M1292.5 834.429h632" style="stroke:#000d19;stroke-width:.5"/><text x="1302.5" y="856.424" fill="#D9B8FF" font-family="sans-serif" font-size="14" font-weight="bold" textLength="148">labeling_job_status</text><text x="1450.5" y="856.424" fill="#D9B8FF" font-family="sans-serif" font-size="14" textLength="48">: string</text><text x="1302.5" y="882.721" fill="#D9B8FF" font-family="sans-serif" font-size="14" font-weight="bold" textLength="214">labeling_job_label_counters</text><text x="1516.5" y="882.721" fill="#D9B8FF" font-family="sans-serif" font-size="14" textLength="228">: aws_sagemaker_label_counters</text><text x="1302.5" y="909.018" fill="#D9B8FF" font-family="sans-serif" font-size="14" font-weight="bold" textLength="211">labeling_job_failure_reason</text><text x="1513.5" y="909.018" fill="#D9B8FF" font-family="sans-serif" font-size="14" textLength="48">: string</text><text x="1302.5" y="935.315" fill="#D9B8FF" font-family="sans-serif" font-size="14" font-weight="bold" textLength="255">labeling_job_job_reference_code</text><text x="1557.5" y="935.315" fill="#D9B8FF" font-family="sans-serif" font-size="14" textLength="48">: string</text><text x="1302.5" y="961.612" fill="#D9B8FF" font-family="sans-serif" font-size="14" font-weight="bold" textLength="261">labeling_job_label_attribute_name</text><text x="1563.5" y="961.612" fill="#D9B8FF" font-family="sans-serif" font-size="14" textLength="48">: string</text><text x="1302.5" y="987.909" fill="#D9B8FF" font-family="sans-serif" font-size="14" font-weight="bold" textLength="195">labeling_job_input_config</text><text x="1497.5" y="987.909" fill="#D9B8FF" font-family="sans-serif" font-size="14" textLength="299">: aws_sagemaker_labeling_job_input_config</text><text x="1302.5" y="1014.205" fill="#D9B8FF" font-family="sans-serif" font-size="14" font-weight="bold" textLength="207">labeling_job_output_config</text><text x="1509.5" y="1014.205" fill="#D9B8FF" font-family="sans-serif" font-size="14" textLength="310">: aws_sagemaker_labeling_job_output_config</text><text x="1302.5" y="1040.502" fill="#D9B8FF" font-family="sans-serif" font-size="14" font-weight="bold" textLength="163">labeling_job_role_arn</text><text x="1465.5" y="1040.502" fill="#D9B8FF" font-family="sans-serif" font-size="14" textLength="48">: string</text><text x="1302.5" y="1066.799" fill="#D9B8FF" font-family="sans-serif" font-size="14" font-weight="bold" textLength="323">labeling_job_label_category_config_s3_uri</text><text x="1625.5" y="1066.799" fill="#D9B8FF" font-family="sans-serif" font-size="14" textLength="48">: string</text><text x="1302.5" y="1093.096" fill="#D9B8FF" font-family="sans-serif" font-size="14" font-weight="bold" textLength="257">labeling_job_stopping_conditions</text><text x="1559.5" y="1093.096" fill="#D9B8FF" font-family="sans-serif" font-size="14" textLength="355">: aws_sagemaker_labeling_job_stopping_conditions</text><text x="1302.5" y="1119.393" fill="#D9B8FF" font-family="sans-serif" font-size="14" font-weight="bold" textLength="238">labeling_job_algorithms_config</text><text x="1540.5" y="1119.393" fill="#D9B8FF" font-family="sans-serif" font-size="14" textLength="336">: aws_sagemaker_labeling_job_algorithms_config</text><text x="1302.5" y="1145.69" fill="#D9B8FF" font-family="sans-serif" font-size="14" font-weight="bold" textLength="248">labeling_job_human_task_config</text><text x="1550.5" y="1145.69" fill="#D9B8FF" font-family="sans-serif" font-size="14" textLength="260">: aws_sagemaker_human_task_config</text><text x="1302.5" y="1171.987" fill="#D9B8FF" font-family="sans-serif" font-size="14" font-weight="bold" textLength="151">labeling_job_output</text><text x="1453.5" y="1171.987" fill="#D9B8FF" font-family="sans-serif" font-size="14" textLength="261">: aws_sagemaker_labeling_job_output</text></a><a xlink:actuate="onRequest" xlink:href="#j" xlink:show="new" xlink:title="#aws_sagemaker_job" xlink:type="simple" target="_top"><rect id="j" width="210" height="39.789" x="1503.5" y="633.85" fill="#3D176E" rx="2.5" ry="2.5" style="stroke:#000d19;stroke-width:.5"/><circle cx="1518.5" cy="653.745" r="11" fill="#ADD1B2" style="stroke:#181818;stroke-width:1"/><path d="M1521.469 659.385q-.578.297-1.219.438-.64.156-1.344.156-2.5 0-3.828-1.64-1.312-1.657-1.312-4.782t1.312-4.781q1.328-1.656 3.828-1.656.703 0 1.344.156.656.156 1.219.453v2.719q-.625-.578-1.219-.844-.594-.281-1.219-.281-1.343 0-2.031 1.078-.688 1.062-.688 3.156 0 2.094.688 3.172.688 1.062 2.031 1.062.625 0 1.219-.265.594-.281 1.219-.86v2.72Z"/><text x="1537.5" y="659.63" fill="#D9B8FF" font-family="Helvetica" font-size="17" textLength="168">aws_sagemaker_job</text></a><a xlink:actuate="onRequest" xlink:href="#k" xlink:show="new" xlink:title="#aws_sagemaker_label_counters" xlink:type="simple" target="_top"><rect id="k" width="306" height="179.273" x="1455.5" y="1336.33" fill="#3D176E" rx="2.5" ry="2.5" style="stroke:#000d19;stroke-width:.5"/><circle cx="1470.5" cy="1356.225" r="11" fill="#ADD1B2" style="stroke:#181818;stroke-width:1"/><path d="M1473.469 1361.865q-.578.297-1.219.438-.64.156-1.344.156-2.5 0-3.828-1.64-1.312-1.657-1.312-4.782t1.312-4.781q1.328-1.657 3.828-1.657.703 0 1.344.157.656.156 1.219.453v2.719q-.625-.579-1.219-.844-.594-.281-1.219-.281-1.343 0-2.031 1.078-.688 1.062-.688 3.156 0 2.094.688 3.172.688 1.062 2.031 1.062.625 0 1.219-.265.594-.282 1.219-.86v2.72Z"/><text x="1489.5" y="1362.11" fill="#D9B8FF" font-family="Helvetica" font-size="17" textLength="264">aws_sagemaker_label_counters</text><path d="M1456.5 1376.119h304" style="stroke:#000d19;stroke-width:.5"/><text x="1466.5" y="1398.114" fill="#D9B8FF" font-family="sans-serif" font-size="14" font-weight="bold" textLength="99">total_labeled</text><text x="1565.5" y="1398.114" fill="#D9B8FF" font-family="sans-serif" font-size="14" textLength="44">: int64</text><text x="1466.5" y="1424.411" fill="#D9B8FF" font-family="sans-serif" font-size="14" font-weight="bold" textLength="117">human_labeled</text><text x="1583.5" y="1424.411" fill="#D9B8FF" font-family="sans-serif" font-size="14" textLength="44">: int64</text><text x="1466.5" y="1450.708" fill="#D9B8FF" font-family="sans-serif" font-size="14" font-weight="bold" textLength="130">machine_labeled</text><text x="1596.5" y="1450.708" fill="#D9B8FF" font-family="sans-serif" font-size="14" textLength="44">: int64</text><text x="1466.5" y="1477.005" fill="#D9B8FF" font-family="sans-serif" font-size="14" font-weight="bold" textLength="207">failed_non_retryable_error</text><text x="1673.5" y="1477.005" fill="#D9B8FF" font-family="sans-serif" font-size="14" textLength="44">: int64</text><text x="1466.5" y="1503.302" fill="#D9B8FF" font-family="sans-serif" font-size="14" font-weight="bold" textLength="77">unlabeled</text><text x="1543.5" y="1503.302" fill="#D9B8FF" font-family="sans-serif" font-size="14" textLength="44">: int64</text></a><a xlink:actuate="onRequest" xlink:href="#l" xlink:show="new" xlink:title="#aws_sagemaker_labeling_job_output_config" xlink:type="simple" target="_top"><rect id="l" width="409" height="126.68" x="1797" y="1362.62" fill="#3D176E" rx="2.5" ry="2.5" style="stroke:#000d19;stroke-width:.5"/><circle cx="1812" cy="1382.514" r="11" fill="#ADD1B2" style="stroke:#181818;stroke-width:1"/><path d="M1814.969 1388.155q-.578.297-1.219.438-.64.156-1.344.156-2.5 0-3.828-1.64-1.312-1.657-1.312-4.782t1.312-4.781q1.328-1.657 3.828-1.657.703 0 1.344.157.656.156 1.219.453v2.719q-.625-.579-1.219-.844-.594-.281-1.219-.281-1.343 0-2.031 1.078-.688 1.062-.688 3.156 0 2.094.688 3.172.688 1.062 2.031 1.062.625 0 1.219-.265.594-.282 1.219-.86v2.72Z"/><text x="1831" y="1388.4" fill="#D9B8FF" font-family="Helvetica" font-size="17" textLength="367">aws_sagemaker_labeling_job_output_config</text><path d="M1798 1402.409h407" style="stroke:#000d19;stroke-width:.5"/><text x="1808" y="1424.404" fill="#D9B8FF" font-family="sans-serif" font-size="14" font-weight="bold" textLength="120">s3_output_path</text><text x="1928" y="1424.404" fill="#D9B8FF" font-family="sans-serif" font-size="14" textLength="48">: string</text><text x="1808" y="1450.701" fill="#D9B8FF" font-family="sans-serif" font-size="14" font-weight="bold" textLength="88">kms_key_id</text><text x="1896" y="1450.701" fill="#D9B8FF" font-family="sans-serif" font-size="14" textLength="48">: string</text><text x="1808" y="1476.998" fill="#D9B8FF" font-family="sans-serif" font-size="14" font-weight="bold" textLength="107">sns_topic_arn</text><text x="1915" y="1476.998" fill="#D9B8FF" font-family="sans-serif" font-size="14" textLength="48">: string</text></a><a xlink:actuate="onRequest" xlink:href="#m" xlink:show="new" xlink:title="#aws_sagemaker_labeling_job_stopping_conditions" xlink:type="simple" target="_top"><rect id="m" width="459" height="100.383" x="2241" y="1375.77" fill="#3D176E" rx="2.5" ry="2.5" style="stroke:#000d19;stroke-width:.5"/><circle cx="2256" cy="1395.665" r="11" fill="#ADD1B2" style="stroke:#181818;stroke-width:1"/><path d="M2258.969 1401.305q-.578.297-1.219.438-.64.156-1.344.156-2.5 0-3.828-1.64-1.312-1.657-1.312-4.782t1.312-4.781q1.328-1.656 3.828-1.656.703 0 1.344.156.656.156 1.219.453v2.719q-.625-.578-1.219-.844-.594-.281-1.219-.281-1.343 0-2.031 1.078-.688 1.062-.688 3.156 0 2.094.688 3.172.688 1.062 2.031 1.062.625 0 1.219-.265.594-.281 1.219-.86v2.72Z"/><text x="2275" y="1401.55" fill="#D9B8FF" font-family="Helvetica" font-size="17" textLength="417">aws_sagemaker_labeling_job_stopping_conditions</text><path d="M2242 1415.559h457" style="stroke:#000d19;stroke-width:.5"/><text x="2252" y="1437.554" fill="#D9B8FF" font-family="sans-serif" font-size="14" font-weight="bold" textLength="264">max_human_labeled_object_count</text><text x="2516" y="1437.554" fill="#D9B8FF" font-family="sans-serif" font-size="14" textLength="44">: int64</text><text x="2252" y="1463.851" fill="#D9B8FF" font-family="sans-serif" font-size="14" font-weight="bold" textLength="330">max_percentage_of_input_dataset_labeled</text><text x="2582" y="1463.851" fill="#D9B8FF" font-family="sans-serif" font-size="14" textLength="44">: int64</text></a><a xlink:actuate="onRequest" xlink:href="#n" xlink:show="new" xlink:title="#aws_sagemaker_human_task_config" xlink:type="simple" target="_top"><rect id="n" width="565" height="363.352" x="2735" y="1244.29" fill="#3D176E" rx="2.5" ry="2.5" style="stroke:#000d19;stroke-width:.5"/><circle cx="2855.25" cy="1264.185" r="11" fill="#ADD1B2" style="stroke:#181818;stroke-width:1"/><path d="M2858.219 1269.825q-.578.297-1.219.438-.64.156-1.344.156-2.5 0-3.828-1.64-1.312-1.657-1.312-4.782t1.312-4.781q1.328-1.656 3.828-1.656.703 0 1.344.156.656.156 1.219.453v2.719q-.625-.578-1.219-.844-.594-.281-1.219-.281-1.343 0-2.031 1.078-.688 1.062-.688 3.156 0 2.094.688 3.172.688 1.062 2.031 1.062.625 0 1.219-.265.594-.281 1.219-.86v2.72Z"/><text x="2880.75" y="1270.07" fill="#D9B8FF" font-family="Helvetica" font-size="17" textLength="306">aws_sagemaker_human_task_config</text><path d="M2736 1284.079h563" style="stroke:#000d19;stroke-width:.5"/><text x="2746" y="1306.074" fill="#D9B8FF" font-family="sans-serif" font-size="14" font-weight="bold" textLength="112">workteam_arn</text><text x="2858" y="1306.074" fill="#D9B8FF" font-family="sans-serif" font-size="14" textLength="48">: string</text><text x="2746" y="1332.371" fill="#D9B8FF" font-family="sans-serif" font-size="14" font-weight="bold" textLength="70">ui_config</text><text x="2816" y="1332.371" fill="#D9B8FF" font-family="sans-serif" font-size="14" textLength="188">: aws_sagemaker_ui_config</text><text x="2746" y="1358.668" fill="#D9B8FF" font-family="sans-serif" font-size="14" font-weight="bold" textLength="223">pre_human_task_lambda_arn</text><text x="2969" y="1358.668" fill="#D9B8FF" font-family="sans-serif" font-size="14" textLength="48">: string</text><text x="2746" y="1384.965" fill="#D9B8FF" font-family="sans-serif" font-size="14" font-weight="bold" textLength="118">task_keywords</text><text x="2864" y="1384.965" fill="#D9B8FF" font-family="sans-serif" font-size="14" textLength="58">: string[]</text><text x="2746" y="1411.262" fill="#D9B8FF" font-family="sans-serif" font-size="14" font-weight="bold" textLength="70">task_title</text><text x="2816" y="1411.262" fill="#D9B8FF" font-family="sans-serif" font-size="14" textLength="48">: string</text><text x="2746" y="1437.559" fill="#D9B8FF" font-family="sans-serif" font-size="14" font-weight="bold" textLength="129">task_description</text><text x="2875" y="1437.559" fill="#D9B8FF" font-family="sans-serif" font-size="14" textLength="48">: string</text><text x="2746" y="1463.855" fill="#D9B8FF" font-family="sans-serif" font-size="14" font-weight="bold" textLength="348">number_of_human_workers_per_data_object</text><text x="3094" y="1463.855" fill="#D9B8FF" font-family="sans-serif" font-size="14" textLength="44">: int64</text><text x="2746" y="1490.152" fill="#D9B8FF" font-family="sans-serif" font-size="14" font-weight="bold" textLength="208">task_time_limit_in_seconds</text><text x="2954" y="1490.152" fill="#D9B8FF" font-family="sans-serif" font-size="14" textLength="44">: int64</text><text x="2746" y="1516.449" fill="#D9B8FF" font-family="sans-serif" font-size="14" font-weight="bold" textLength="281">task_availability_lifetime_in_seconds</text><text x="3027" y="1516.449" fill="#D9B8FF" font-family="sans-serif" font-size="14" textLength="44">: int64</text><text x="2746" y="1542.746" fill="#D9B8FF" font-family="sans-serif" font-size="14" font-weight="bold" textLength="219">max_concurrent_task_count</text><text x="2965" y="1542.746" fill="#D9B8FF" font-family="sans-serif" font-size="14" textLength="44">: int64</text><text x="2746" y="1569.043" fill="#D9B8FF" font-family="sans-serif" font-size="14" font-weight="bold" textLength="252">annotation_consolidation_config</text><text x="2998" y="1569.043" fill="#D9B8FF" font-family="sans-serif" font-size="14" textLength="48">: string</text><text x="2746" y="1595.34" fill="#D9B8FF" font-family="sans-serif" font-size="14" font-weight="bold" textLength="223">public_workforce_task_price</text><text x="2969" y="1595.34" fill="#D9B8FF" font-family="sans-serif" font-size="14" textLength="320">: aws_sagemaker_public_workforce_task_price</text></a><a xlink:actuate="onRequest" xlink:href="#o" xlink:show="new" xlink:title="#aws_sagemaker_ui_config" xlink:type="simple" target="_top"><rect id="o" width="260" height="100.383" x="2700.5" y="1667.64" fill="#3D176E" rx="2.5" ry="2.5" style="stroke:#000d19;stroke-width:.5"/><circle cx="2715.5" cy="1687.534" r="11" fill="#ADD1B2" style="stroke:#181818;stroke-width:1"/><path d="M2718.469 1693.175q-.578.297-1.219.438-.64.156-1.344.156-2.5 0-3.828-1.64-1.312-1.657-1.312-4.782t1.312-4.781q1.328-1.657 3.828-1.657.703 0 1.344.157.656.156 1.219.453v2.719q-.625-.579-1.219-.844-.594-.281-1.219-.281-1.343 0-2.031 1.078-.688 1.062-.688 3.156 0 2.094.688 3.172.688 1.062 2.031 1.062.625 0 1.219-.265.594-.282 1.219-.86v2.72Z"/><text x="2734.5" y="1693.42" fill="#D9B8FF" font-family="Helvetica" font-size="17" textLength="218">aws_sagemaker_ui_config</text><path d="M2701.5 1707.429h258" style="stroke:#000d19;stroke-width:.5"/><text x="2711.5" y="1729.424" fill="#D9B8FF" font-family="sans-serif" font-size="14" font-weight="bold" textLength="144">ui_template_s3_uri</text><text x="2855.5" y="1729.424" fill="#D9B8FF" font-family="sans-serif" font-size="14" textLength="48">: string</text><text x="2711.5" y="1755.721" fill="#D9B8FF" font-family="sans-serif" font-size="14" font-weight="bold" textLength="147">human_task_ui_arn</text><text x="2858.5" y="1755.721" fill="#D9B8FF" font-family="sans-serif" font-size="14" textLength="48">: string</text></a><a xlink:actuate="onRequest" xlink:href="#p" xlink:show="new" xlink:title="#aws_sagemaker_public_workforce_task_price" xlink:type="simple" target="_top"><rect id="p" width="419" height="74.086" x="2995" y="1680.79" fill="#3D176E" rx="2.5" ry="2.5" style="stroke:#000d19;stroke-width:.5"/><circle cx="3010" cy="1700.685" r="11" fill="#ADD1B2" style="stroke:#181818;stroke-width:1"/><path d="M3012.969 1706.325q-.578.297-1.219.438-.64.156-1.344.156-2.5 0-3.828-1.64-1.312-1.657-1.312-4.782t1.312-4.781q1.328-1.656 3.828-1.656.703 0 1.344.156.656.156 1.219.453v2.719q-.625-.578-1.219-.844-.594-.281-1.219-.281-1.343 0-2.031 1.078-.688 1.062-.688 3.156 0 2.094.688 3.172.688 1.062 2.031 1.062.625 0 1.219-.265.594-.281 1.219-.86v2.72Z"/><text x="3029" y="1706.57" fill="#D9B8FF" font-family="Helvetica" font-size="17" textLength="377">aws_sagemaker_public_workforce_task_price</text><path d="M2996 1720.579h417" style="stroke:#000d19;stroke-width:.5"/><text x="3006" y="1742.574" fill="#D9B8FF" font-family="sans-serif" font-size="14" font-weight="bold" textLength="116">amount_in_usd</text><text x="3122" y="1742.574" fill="#D9B8FF" font-family="sans-serif" font-size="14" textLength="153">: aws_sagemaker_usd</text></a><a xlink:actuate="onRequest" xlink:href="#q" xlink:show="new" xlink:title="#aws_sagemaker_usd" xlink:type="simple" target="_top"><rect id="q" width="266" height="126.68" x="3071.5" y="1828.02" fill="#3D176E" rx="2.5" ry="2.5" style="stroke:#000d19;stroke-width:.5"/><circle cx="3109.9" cy="1847.915" r="11" fill="#ADD1B2" style="stroke:#181818;stroke-width:1"/><path d="M3112.869 1853.555q-.578.297-1.219.438-.64.156-1.344.156-2.5 0-3.828-1.64-1.312-1.657-1.312-4.782t1.312-4.781q1.328-1.656 3.828-1.656.703 0 1.344.156.656.156 1.219.453v2.719q-.625-.578-1.219-.844-.594-.281-1.219-.281-1.343 0-2.031 1.078-.688 1.062-.688 3.156 0 2.094.688 3.172.688 1.062 2.031 1.062.625 0 1.219-.265.594-.281 1.219-.86v2.72Z"/><text x="3134.1" y="1853.8" fill="#D9B8FF" font-family="Helvetica" font-size="17" textLength="172">aws_sagemaker_usd</text><path d="M3072.5 1867.809h264" style="stroke:#000d19;stroke-width:.5"/><text x="3082.5" y="1889.804" fill="#D9B8FF" font-family="sans-serif" font-size="14" font-weight="bold" textLength="53">dollars</text><text x="3135.5" y="1889.804" fill="#D9B8FF" font-family="sans-serif" font-size="14" textLength="44">: int64</text><text x="3082.5" y="1916.101" fill="#D9B8FF" font-family="sans-serif" font-size="14" font-weight="bold" textLength="44">cents</text><text x="3126.5" y="1916.101" fill="#D9B8FF" font-family="sans-serif" font-size="14" textLength="44">: int64</text><text x="3082.5" y="1942.398" fill="#D9B8FF" font-family="sans-serif" font-size="14" font-weight="bold" textLength="200">tenth_fractions_of_a_cent</text><text x="3282.5" y="1942.398" fill="#D9B8FF" font-family="sans-serif" font-size="14" textLength="44">: int64</text></a><path fill="none" d="M1608.5 338.98v99.54m-7-99.34 7-20 7 20h-14zM294.5 1489.5v171.99" style="stroke:#ffaf37;stroke-width:2"/><path fill="#FFAF37" d="m294.5 1666.37 4-9-4 4-4-4 4 9z" style="stroke:#ffaf37;stroke-width:2"/><path fill="none" d="M294.5 1768.44v66.47" style="stroke:#ffaf37;stroke-width:2"/><path fill="#FFAF37" d="m294.5 1839.86 4-9-4 4-4-4 4 9z" style="stroke:#ffaf37;stroke-width:2"/><path fill="none" d="M826.5 1476.46v185.34" style="stroke:#ffaf37;stroke-width:2"/><path fill="#FFAF37" d="m826.5 1666.53 4-9-4 4-4-4 4 9z" style="stroke:#ffaf37;stroke-width:2"/><path fill="none" d="M1608.5 694.94v99.6m-7-99.41 7-20 7 20h-14zm7 489.39v145.58" style="stroke:#ffaf37;stroke-width:2"/><path fill="#FFAF37" d="m1608.5 1335.08 4-9-4 4-4-4 4 9z" style="stroke:#ffaf37;stroke-width:2"/><path fill="none" d="M1291.19 1119.51c-79.59 36.68-163.42 79.18-237.69 124.78-61 37.45-124.24 89-168.42 127.45" style="stroke:#ffaf37;stroke-width:2"/><path fill="#FFAF37" d="m881.6 1375.66 9.413-2.896-5.643-.388.388-5.644-4.158 8.928z" style="stroke:#ffaf37;stroke-width:2"/><path fill="none" d="M1784.02 1184.52c56.39 62.34 115.1 127.25 157.29 173.9" style="stroke:#ffaf37;stroke-width:2"/><path fill="#FFAF37" d="m1944.09 1361.59-3.067-9.359-.286 5.65-5.65-.286 9.003 3.995z" style="stroke:#ffaf37;stroke-width:2"/><path fill="none" d="M1925.84 1104.5c97.78 39.59 204.24 87.35 297.66 139.79 65.98 37.03 134.98 88.77 183.23 127.4" style="stroke:#ffaf37;stroke-width:2"/><path fill="#FFAF37" d="m2410.34 1375.38-4.517-8.752.617 5.623-5.623.618 9.523 2.511z" style="stroke:#ffaf37;stroke-width:2"/><path fill="none" d="M1291.09 1045.84c-202.56 41.24-468.09 106.41-691.59 198.45-74.03 30.48-151.59 76.64-209.96 114.67" style="stroke:#ffaf37;stroke-width:2"/><path fill="#FFAF37" d="m385.66 1362.15 9.724-1.564-5.535-1.167 1.166-5.535-5.355 8.266z" style="stroke:#ffaf37;stroke-width:2"/><path fill="none" d="M1925.79 1035.58c226.28 38.73 534.71 105 791.71 208.71 3.97 1.6 7.95 3.25 11.94 4.95" style="stroke:#ffaf37;stroke-width:2"/><path fill="#FFAF37" d="m2733.88 1251.58-6.697-7.222 2.101 5.252-5.252 2.101 9.848-.131z" style="stroke:#ffaf37;stroke-width:2"/><path fill="none" d="M1446.38 1184.52c-56.92 68.13-116.41 139.33-155.73 186.4" style="stroke:#ffaf37;stroke-width:2"/><path fill="#FFAF37" d="m1286.9 1374.4 8.85-4.32-5.635.49-.492-5.635-2.723 9.465z" style="stroke:#ffaf37;stroke-width:2"/><path fill="none" d="M1608.5 534.04v99.66m-7-99.44 7-20 7 20h-14zm1299.16 1073.81c-12.57 19.5-24.55 38.06-34.93 54.15" style="stroke:#ffaf37;stroke-width:2"/><path fill="#FFAF37" d="m2862.56 1666.14 8.245-5.388-5.531 1.189-1.188-5.531-1.526 9.73z" style="stroke:#ffaf37;stroke-width:2"/><path fill="none" d="M3134.34 1608.07c16.33 25.32 31.65 49.06 43.78 67.87" style="stroke:#ffaf37;stroke-width:2"/><path fill="#FFAF37" d="m3181.14 1679.61-1.51-9.732-1.197 5.528-5.53-1.197 8.237 5.401z" style="stroke:#ffaf37;stroke-width:2"/><path fill="none" d="M3204.5 1755.21v66.72" style="stroke:#ffaf37;stroke-width:2"/><path fill="#FFAF37" d="m3204.5 1826.69 4-9-4 4-4-4 4 9z" style="stroke:#ffaf37;stroke-width:2"/></svg>