<svg xmlns="http://www.w3.org/2000/svg" xmlns:xlink="http://www.w3.org/1999/xlink" width="3463" height="1511" preserveAspectRatio="none" style="width:3463px;height:1511px"><a xlink:actuate="onRequest" xlink:href="#a" xlink:show="new" xlink:title="#resource" xlink:type="simple" target="_top"><rect id="a" width="227" height="310.758" x="2165.5" y="7" fill="#3D176E" rx="2.5" ry="2.5" style="stroke:#000d19;stroke-width:.5"/><circle cx="2234.25" cy="26.895" r="11" fill="#ADD1B2" style="stroke:#181818;stroke-width:1"/><path d="M2237.219 32.535q-.578.297-1.219.438-.64.156-1.344.156-2.5 0-3.828-1.64-1.312-1.657-1.312-4.782t1.312-4.781q1.328-1.656 3.828-1.656.703 0 1.344.156.656.156 1.219.453v2.719q-.625-.578-1.219-.844-.594-.281-1.219-.281-1.343 0-2.031 1.078-.688 1.062-.688 3.156 0 2.094.688 3.172.688 1.062 2.031 1.062.625 0 1.219-.265.594-.281 1.219-.86v2.72Z"/><text x="2259.75" y="32.78" fill="#D9B8FF" font-family="Helvetica" font-size="17" textLength="71">resource</text><path d="M2166.5 46.789h225" style="stroke:#000d19;stroke-width:.5"/><text x="2176.5" y="68.784" fill="#D9B8FF" font-family="sans-serif" font-size="14" font-weight="bold" textLength="14">id</text><text x="2190.5" y="68.784" fill="#D9B8FF" font-family="sans-serif" font-size="14" textLength="48">: string</text><text x="2176.5" y="95.081" fill="#D9B8FF" font-family="sans-serif" font-size="14" font-weight="bold" textLength="34">tags</text><text x="2210.5" y="95.081" fill="#D9B8FF" font-family="sans-serif" font-size="14" textLength="171">: dictionary[string, string]</text><text x="2176.5" y="121.378" fill="#D9B8FF" font-family="sans-serif" font-size="14" font-weight="bold" textLength="43">name</text><text x="2219.5" y="121.378" fill="#D9B8FF" font-family="sans-serif" font-size="14" textLength="48">: string</text><text x="2176.5" y="147.675" fill="#D9B8FF" font-family="sans-serif" font-size="14" font-weight="bold" textLength="43">ctime</text><text x="2219.5" y="147.675" fill="#D9B8FF" font-family="sans-serif" font-size="14" textLength="70">: datetime</text><text x="2176.5" y="173.972" fill="#D9B8FF" font-family="sans-serif" font-size="14" font-weight="bold" textLength="29">age</text><text x="2205.5" y="173.972" fill="#D9B8FF" font-family="sans-serif" font-size="14" textLength="66">: duration</text><text x="2176.5" y="200.269" fill="#D9B8FF" font-family="sans-serif" font-size="14" font-weight="bold" textLength="48">mtime</text><text x="2224.5" y="200.269" fill="#D9B8FF" font-family="sans-serif" font-size="14" textLength="70">: datetime</text><text x="2176.5" y="226.565" fill="#D9B8FF" font-family="sans-serif" font-size="14" font-weight="bold" textLength="90">last_update</text><text x="2266.5" y="226.565" fill="#D9B8FF" font-family="sans-serif" font-size="14" textLength="66">: duration</text><text x="2176.5" y="252.862" fill="#D9B8FF" font-family="sans-serif" font-size="14" font-weight="bold" textLength="43">atime</text><text x="2219.5" y="252.862" fill="#D9B8FF" font-family="sans-serif" font-size="14" textLength="70">: datetime</text><text x="2176.5" y="279.159" fill="#D9B8FF" font-family="sans-serif" font-size="14" font-weight="bold" textLength="90">last_access</text><text x="2266.5" y="279.159" fill="#D9B8FF" font-family="sans-serif" font-size="14" textLength="66">: duration</text><text x="2176.5" y="305.456" fill="#D9B8FF" font-family="sans-serif" font-size="14" font-weight="bold" textLength="33">kind</text><text x="2209.5" y="305.456" fill="#D9B8FF" font-family="sans-serif" font-size="14" textLength="48">: string</text></a><a xlink:actuate="onRequest" xlink:href="#b" xlink:show="new" xlink:title="#aws_resource" xlink:type="simple" target="_top"><rect id="b" width="155" height="74.086" x="2201.5" y="438.76" fill="#3D176E" rx="2.5" ry="2.5" style="stroke:#000d19;stroke-width:.5"/><circle cx="2216.5" cy="458.654" r="11" fill="#ADD1B2" style="stroke:#181818;stroke-width:1"/><path d="M2219.469 464.295q-.578.297-1.219.438-.64.156-1.344.156-2.5 0-3.828-1.64-1.312-1.657-1.312-4.782t1.312-4.781q1.328-1.656 3.828-1.656.703 0 1.344.156.656.156 1.219.453v2.719q-.625-.579-1.219-.844-.594-.281-1.219-.281-1.343 0-2.031 1.078-.688 1.062-.688 3.156 0 2.094.688 3.172.688 1.062 2.031 1.062.625 0 1.219-.265.594-.281 1.219-.86v2.72Z"/><text x="2235.5" y="464.54" fill="#D9B8FF" font-family="Helvetica" font-size="17" textLength="113">aws_resource</text><path d="M2202.5 478.549h153" style="stroke:#000d19;stroke-width:.5"/><text x="2212.5" y="500.544" fill="#D9B8FF" font-family="sans-serif" font-size="14" font-weight="bold" textLength="26">arn</text><text x="2238.5" y="500.544" fill="#D9B8FF" font-family="sans-serif" font-size="14" textLength="48">: string</text></a><a xlink:actuate="onRequest" xlink:href="#c" xlink:show="new" xlink:title="#aws_cloudfront_response_headers_policy_referrer_policy" xlink:type="simple" target="_top"><rect id="c" width="514" height="100.383" x="7" y="1377.96" fill="#3D176E" rx="2.5" ry="2.5" style="stroke:#000d19;stroke-width:.5"/><circle cx="22" cy="1397.854" r="11" fill="#ADD1B2" style="stroke:#181818;stroke-width:1"/><path d="M24.969 1403.495q-.578.297-1.219.438-.64.156-1.344.156-2.5 0-3.828-1.64-1.312-1.657-1.312-4.782t1.312-4.781q1.328-1.657 3.828-1.657.703 0 1.344.157.656.156 1.219.453v2.719q-.625-.579-1.219-.844-.594-.281-1.219-.281-1.343 0-2.031 1.078-.688 1.062-.688 3.156 0 2.094.688 3.172.688 1.062 2.031 1.062.625 0 1.219-.265.594-.282 1.219-.86v2.72Z"/><text x="41" y="1403.74" fill="#D9B8FF" font-family="Helvetica" font-size="17" textLength="472">aws_cloudfront_response_headers_policy_referrer_policy</text><path d="M8 1417.749h512" style="stroke:#000d19;stroke-width:.5"/><text x="18" y="1439.744" fill="#D9B8FF" font-family="sans-serif" font-size="14" font-weight="bold" textLength="67">override</text><text x="85" y="1439.744" fill="#D9B8FF" font-family="sans-serif" font-size="14" textLength="65">: boolean</text><text x="18" y="1466.041" fill="#D9B8FF" font-family="sans-serif" font-size="14" font-weight="bold" textLength="117">referrer_policy</text><text x="135" y="1466.041" fill="#D9B8FF" font-family="sans-serif" font-size="14" textLength="48">: string</text></a><a xlink:actuate="onRequest" xlink:href="#d" xlink:show="new" xlink:title="#aws_cloudfront_response_headers_policy_security_headers_config" xlink:type="simple" target="_top"><rect id="d" width="683" height="205.57" x="1019.5" y="1072.94" fill="#3D176E" rx="2.5" ry="2.5" style="stroke:#000d19;stroke-width:.5"/><circle cx="1076.25" cy="1092.834" r="11" fill="#ADD1B2" style="stroke:#181818;stroke-width:1"/><path d="M1079.219 1098.475q-.578.297-1.219.438-.64.156-1.344.156-2.5 0-3.828-1.64-1.312-1.657-1.312-4.782t1.312-4.781q1.328-1.657 3.828-1.657.703 0 1.344.157.656.156 1.219.453v2.719q-.625-.579-1.219-.844-.594-.281-1.219-.281-1.343 0-2.031 1.078-.688 1.062-.688 3.156 0 2.094.688 3.172.688 1.062 2.031 1.062.625 0 1.219-.265.594-.282 1.219-.86v2.72Z"/><text x="1101.75" y="1098.72" fill="#D9B8FF" font-family="Helvetica" font-size="17" textLength="551">aws_cloudfront_response_headers_policy_security_headers_config</text><path d="M1020.5 1112.729h681" style="stroke:#000d19;stroke-width:.5"/><text x="1030.5" y="1134.724" fill="#D9B8FF" font-family="sans-serif" font-size="14" font-weight="bold" textLength="116">xss_protection</text><text x="1146.5" y="1134.724" fill="#D9B8FF" font-family="sans-serif" font-size="14" textLength="404">: aws_cloudfront_response_headers_policy_xss_protection</text><text x="1030.5" y="1161.021" fill="#D9B8FF" font-family="sans-serif" font-size="14" font-weight="bold" textLength="112">frame_options</text><text x="1142.5" y="1161.021" fill="#D9B8FF" font-family="sans-serif" font-size="14" textLength="401">: aws_cloudfront_response_headers_policy_frame_options</text><text x="1030.5" y="1187.318" fill="#D9B8FF" font-family="sans-serif" font-size="14" font-weight="bold" textLength="117">referrer_policy</text><text x="1147.5" y="1187.318" fill="#D9B8FF" font-family="sans-serif" font-size="14" textLength="400">: aws_cloudfront_response_headers_policy_referrer_policy</text><text x="1030.5" y="1213.615" fill="#D9B8FF" font-family="sans-serif" font-size="14" font-weight="bold" textLength="185">content_security_policy</text><text x="1215.5" y="1213.615" fill="#D9B8FF" font-family="sans-serif" font-size="14" textLength="464">: aws_cloudfront_response_headers_policy_content_security_policy</text><text x="1030.5" y="1239.912" fill="#D9B8FF" font-family="sans-serif" font-size="14" font-weight="bold" textLength="169">content_type_options</text><text x="1199.5" y="1239.912" fill="#D9B8FF" font-family="sans-serif" font-size="14" textLength="65">: boolean</text><text x="1030.5" y="1266.209" fill="#D9B8FF" font-family="sans-serif" font-size="14" font-weight="bold" textLength="193">strict_transport_security</text><text x="1223.5" y="1266.209" fill="#D9B8FF" font-family="sans-serif" font-size="14" textLength="468">: aws_cloudfront_response_headers_policy_strict_transport_security</text></a><a xlink:actuate="onRequest" xlink:href="#e" xlink:show="new" xlink:title="#aws_cloudfront_response_headers_policy_xss_protection" xlink:type="simple" target="_top"><rect id="e" width="513" height="152.977" x="556.5" y="1351.66" fill="#3D176E" rx="2.5" ry="2.5" style="stroke:#000d19;stroke-width:.5"/><circle cx="571.5" cy="1371.554" r="11" fill="#ADD1B2" style="stroke:#181818;stroke-width:1"/><path d="M574.469 1377.195q-.578.297-1.219.438-.64.156-1.344.156-2.5 0-3.828-1.64-1.312-1.657-1.312-4.782t1.312-4.781q1.328-1.657 3.828-1.657.703 0 1.344.157.656.156 1.219.453v2.719q-.625-.579-1.219-.844-.594-.281-1.219-.281-1.343 0-2.031 1.078-.688 1.062-.688 3.156 0 2.094.688 3.172.688 1.062 2.031 1.062.625 0 1.219-.265.594-.282 1.219-.86v2.72Z"/><text x="590.5" y="1377.44" fill="#D9B8FF" font-family="Helvetica" font-size="17" textLength="471">aws_cloudfront_response_headers_policy_xss_protection</text><path d="M557.5 1391.449h511" style="stroke:#000d19;stroke-width:.5"/><text x="567.5" y="1413.444" fill="#D9B8FF" font-family="sans-serif" font-size="14" font-weight="bold" textLength="67">override</text><text x="634.5" y="1413.444" fill="#D9B8FF" font-family="sans-serif" font-size="14" textLength="65">: boolean</text><text x="567.5" y="1439.741" fill="#D9B8FF" font-family="sans-serif" font-size="14" font-weight="bold" textLength="82">protection</text><text x="649.5" y="1439.741" fill="#D9B8FF" font-family="sans-serif" font-size="14" textLength="65">: boolean</text><text x="567.5" y="1466.038" fill="#D9B8FF" font-family="sans-serif" font-size="14" font-weight="bold" textLength="93">mode_block</text><text x="660.5" y="1466.038" fill="#D9B8FF" font-family="sans-serif" font-size="14" textLength="65">: boolean</text><text x="567.5" y="1492.335" fill="#D9B8FF" font-family="sans-serif" font-size="14" font-weight="bold" textLength="78">report_uri</text><text x="645.5" y="1492.335" fill="#D9B8FF" font-family="sans-serif" font-size="14" textLength="48">: string</text></a><a xlink:actuate="onRequest" xlink:href="#f" xlink:show="new" xlink:title="#aws_cloudfront_response_headers_policy_frame_options" xlink:type="simple" target="_top"><rect id="f" width="513" height="100.383" x="1104.5" y="1377.96" fill="#3D176E" rx="2.5" ry="2.5" style="stroke:#000d19;stroke-width:.5"/><circle cx="1119.5" cy="1397.854" r="11" fill="#ADD1B2" style="stroke:#181818;stroke-width:1"/><path d="M1122.469 1403.495q-.578.297-1.219.438-.64.156-1.344.156-2.5 0-3.828-1.64-1.312-1.657-1.312-4.782t1.312-4.781q1.328-1.657 3.828-1.657.703 0 1.344.157.656.156 1.219.453v2.719q-.625-.579-1.219-.844-.594-.281-1.219-.281-1.343 0-2.031 1.078-.688 1.062-.688 3.156 0 2.094.688 3.172.688 1.062 2.031 1.062.625 0 1.219-.265.594-.282 1.219-.86v2.72Z"/><text x="1138.5" y="1403.74" fill="#D9B8FF" font-family="Helvetica" font-size="17" textLength="471">aws_cloudfront_response_headers_policy_frame_options</text><path d="M1105.5 1417.749h511" style="stroke:#000d19;stroke-width:.5"/><text x="1115.5" y="1439.744" fill="#D9B8FF" font-family="sans-serif" font-size="14" font-weight="bold" textLength="67">override</text><text x="1182.5" y="1439.744" fill="#D9B8FF" font-family="sans-serif" font-size="14" textLength="65">: boolean</text><text x="1115.5" y="1466.041" fill="#D9B8FF" font-family="sans-serif" font-size="14" font-weight="bold" textLength="103">frame_option</text><text x="1218.5" y="1466.041" fill="#D9B8FF" font-family="sans-serif" font-size="14" textLength="48">: string</text></a><a xlink:actuate="onRequest" xlink:href="#g" xlink:show="new" xlink:title="#aws_cloudfront_response_headers_policy_content_security_policy" xlink:type="simple" target="_top"><rect id="g" width="589" height="100.383" x="1652.5" y="1377.96" fill="#3D176E" rx="2.5" ry="2.5" style="stroke:#000d19;stroke-width:.5"/><circle cx="1667.5" cy="1397.854" r="11" fill="#ADD1B2" style="stroke:#181818;stroke-width:1"/><path d="M1670.469 1403.495q-.578.297-1.219.438-.64.156-1.344.156-2.5 0-3.828-1.64-1.312-1.657-1.312-4.782t1.312-4.781q1.328-1.657 3.828-1.657.703 0 1.344.157.656.156 1.219.453v2.719q-.625-.579-1.219-.844-.594-.281-1.219-.281-1.343 0-2.031 1.078-.688 1.062-.688 3.156 0 2.094.688 3.172.688 1.062 2.031 1.062.625 0 1.219-.265.594-.282 1.219-.86v2.72Z"/><text x="1686.5" y="1403.74" fill="#D9B8FF" font-family="Helvetica" font-size="17" textLength="547">aws_cloudfront_response_headers_policy_content_security_policy</text><path d="M1653.5 1417.749h587" style="stroke:#000d19;stroke-width:.5"/><text x="1663.5" y="1439.744" fill="#D9B8FF" font-family="sans-serif" font-size="14" font-weight="bold" textLength="67">override</text><text x="1730.5" y="1439.744" fill="#D9B8FF" font-family="sans-serif" font-size="14" textLength="65">: boolean</text><text x="1663.5" y="1466.041" fill="#D9B8FF" font-family="sans-serif" font-size="14" font-weight="bold" textLength="185">content_security_policy</text><text x="1848.5" y="1466.041" fill="#D9B8FF" font-family="sans-serif" font-size="14" textLength="48">: string</text></a><a xlink:actuate="onRequest" xlink:href="#h" xlink:show="new" xlink:title="#aws_cloudfront_response_headers_policy_strict_transport_security" xlink:type="simple" target="_top"><rect id="h" width="596" height="152.977" x="2277" y="1351.66" fill="#3D176E" rx="2.5" ry="2.5" style="stroke:#000d19;stroke-width:.5"/><circle cx="2292" cy="1371.554" r="11" fill="#ADD1B2" style="stroke:#181818;stroke-width:1"/><path d="M2294.969 1377.195q-.578.297-1.219.438-.64.156-1.344.156-2.5 0-3.828-1.64-1.312-1.657-1.312-4.782t1.312-4.781q1.328-1.657 3.828-1.657.703 0 1.344.157.656.156 1.219.453v2.719q-.625-.579-1.219-.844-.594-.281-1.219-.281-1.343 0-2.031 1.078-.688 1.062-.688 3.156 0 2.094.688 3.172.688 1.062 2.031 1.062.625 0 1.219-.265.594-.282 1.219-.86v2.72Z"/><text x="2311" y="1377.44" fill="#D9B8FF" font-family="Helvetica" font-size="17" textLength="554">aws_cloudfront_response_headers_policy_strict_transport_security</text><path d="M2278 1391.449h594" style="stroke:#000d19;stroke-width:.5"/><text x="2288" y="1413.444" fill="#D9B8FF" font-family="sans-serif" font-size="14" font-weight="bold" textLength="67">override</text><text x="2355" y="1413.444" fill="#D9B8FF" font-family="sans-serif" font-size="14" textLength="65">: boolean</text><text x="2288" y="1439.741" fill="#D9B8FF" font-family="sans-serif" font-size="14" font-weight="bold" textLength="159">include_subdomains</text><text x="2447" y="1439.741" fill="#D9B8FF" font-family="sans-serif" font-size="14" textLength="65">: boolean</text><text x="2288" y="1466.038" fill="#D9B8FF" font-family="sans-serif" font-size="14" font-weight="bold" textLength="60">preload</text><text x="2348" y="1466.038" fill="#D9B8FF" font-family="sans-serif" font-size="14" textLength="65">: boolean</text><text x="2288" y="1492.335" fill="#D9B8FF" font-family="sans-serif" font-size="14" font-weight="bold" textLength="228">access_control_max_age_sec</text><text x="2516" y="1492.335" fill="#D9B8FF" font-family="sans-serif" font-size="14" textLength="44">: int64</text></a><a xlink:actuate="onRequest" xlink:href="#i" xlink:show="new" xlink:title="#aws_cloudfront_response_headers_policy_cors_config" xlink:type="simple" target="_top"><rect id="i" width="485" height="231.867" x="1737.5" y="1059.8" fill="#3D176E" rx="2.5" ry="2.5" style="stroke:#000d19;stroke-width:.5"/><circle cx="1752.5" cy="1079.695" r="11" fill="#ADD1B2" style="stroke:#181818;stroke-width:1"/><path d="M1755.469 1085.335q-.578.297-1.219.438-.64.156-1.344.156-2.5 0-3.828-1.64-1.312-1.657-1.312-4.782t1.312-4.781q1.328-1.657 3.828-1.657.703 0 1.344.157.656.156 1.219.453v2.719q-.625-.578-1.219-.844-.594-.281-1.219-.281-1.343 0-2.031 1.078-.688 1.062-.688 3.156 0 2.094.688 3.172.688 1.062 2.031 1.062.625 0 1.219-.265.594-.282 1.219-.86v2.72Z"/><text x="1771.5" y="1085.58" fill="#D9B8FF" font-family="Helvetica" font-size="17" textLength="443">aws_cloudfront_response_headers_policy_cors_config</text><path d="M1738.5 1099.589h483" style="stroke:#000d19;stroke-width:.5"/><text x="1748.5" y="1121.584" fill="#D9B8FF" font-family="sans-serif" font-size="14" font-weight="bold" textLength="227">access_control_allow_origins</text><text x="1975.5" y="1121.584" fill="#D9B8FF" font-family="sans-serif" font-size="14" textLength="58">: string[]</text><text x="1748.5" y="1147.881" fill="#D9B8FF" font-family="sans-serif" font-size="14" font-weight="bold" textLength="238">access_control_allow_headers</text><text x="1986.5" y="1147.881" fill="#D9B8FF" font-family="sans-serif" font-size="14" textLength="58">: string[]</text><text x="1748.5" y="1174.178" fill="#D9B8FF" font-family="sans-serif" font-size="14" font-weight="bold" textLength="242">access_control_allow_methods</text><text x="1990.5" y="1174.178" fill="#D9B8FF" font-family="sans-serif" font-size="14" textLength="58">: string[]</text><text x="1748.5" y="1200.475" fill="#D9B8FF" font-family="sans-serif" font-size="14" font-weight="bold" textLength="261">access_control_allow_credentials</text><text x="2009.5" y="1200.475" fill="#D9B8FF" font-family="sans-serif" font-size="14" textLength="65">: boolean</text><text x="1748.5" y="1226.772" fill="#D9B8FF" font-family="sans-serif" font-size="14" font-weight="bold" textLength="255">access_control_expose_headers</text><text x="2003.5" y="1226.772" fill="#D9B8FF" font-family="sans-serif" font-size="14" textLength="58">: string[]</text><text x="1748.5" y="1253.069" fill="#D9B8FF" font-family="sans-serif" font-size="14" font-weight="bold" textLength="228">access_control_max_age_sec</text><text x="1976.5" y="1253.069" fill="#D9B8FF" font-family="sans-serif" font-size="14" textLength="44">: int64</text><text x="1748.5" y="1279.365" fill="#D9B8FF" font-family="sans-serif" font-size="14" font-weight="bold" textLength="119">origin_override</text><text x="1867.5" y="1279.365" fill="#D9B8FF" font-family="sans-serif" font-size="14" textLength="65">: boolean</text></a><a xlink:actuate="onRequest" xlink:href="#j" xlink:show="new" xlink:title="#aws_cloudfront_response_headers_policy_server_timing_headers_config" xlink:type="simple" target="_top"><rect id="j" width="643" height="100.383" x="2257.5" y="1125.54" fill="#3D176E" rx="2.5" ry="2.5" style="stroke:#000d19;stroke-width:.5"/><circle cx="2272.5" cy="1145.435" r="11" fill="#ADD1B2" style="stroke:#181818;stroke-width:1"/><path d="M2275.469 1151.075q-.578.297-1.219.438-.64.156-1.344.156-2.5 0-3.828-1.64-1.312-1.657-1.312-4.782t1.312-4.781q1.328-1.656 3.828-1.656.703 0 1.344.156.656.156 1.219.453v2.719q-.625-.578-1.219-.844-.594-.281-1.219-.281-1.343 0-2.031 1.078-.688 1.062-.688 3.156 0 2.094.688 3.172.688 1.062 2.031 1.062.625 0 1.219-.265.594-.281 1.219-.86v2.72Z"/><text x="2291.5" y="1151.32" fill="#D9B8FF" font-family="Helvetica" font-size="17" textLength="601">aws_cloudfront_response_headers_policy_server_timing_headers_config</text><path d="M2258.5 1165.329h641" style="stroke:#000d19;stroke-width:.5"/><text x="2268.5" y="1187.324" fill="#D9B8FF" font-family="sans-serif" font-size="14" font-weight="bold" textLength="63">enabled</text><text x="2331.5" y="1187.324" fill="#D9B8FF" font-family="sans-serif" font-size="14" textLength="65">: boolean</text><text x="2268.5" y="1213.621" fill="#D9B8FF" font-family="sans-serif" font-size="14" font-weight="bold" textLength="109">sampling_rate</text><text x="2377.5" y="1213.621" fill="#D9B8FF" font-family="sans-serif" font-size="14" textLength="57">: double</text></a><a xlink:actuate="onRequest" xlink:href="#k" xlink:show="new" xlink:title="#aws_cloudfront_response_headers_policy_custom_header" xlink:type="simple" target="_top"><rect id="k" width="521" height="126.68" x="2935.5" y="1112.39" fill="#3D176E" rx="2.5" ry="2.5" style="stroke:#000d19;stroke-width:.5"/><circle cx="2950.5" cy="1132.284" r="11" fill="#ADD1B2" style="stroke:#181818;stroke-width:1"/><path d="M2953.469 1137.925q-.578.297-1.219.438-.64.156-1.344.156-2.5 0-3.828-1.64-1.312-1.657-1.312-4.782t1.312-4.781q1.328-1.657 3.828-1.657.703 0 1.344.157.656.156 1.219.453v2.719q-.625-.579-1.219-.844-.594-.281-1.219-.281-1.343 0-2.031 1.078-.688 1.062-.688 3.156 0 2.094.688 3.172.688 1.062 2.031 1.062.625 0 1.219-.265.594-.282 1.219-.86v2.72Z"/><text x="2969.5" y="1138.17" fill="#D9B8FF" font-family="Helvetica" font-size="17" textLength="479">aws_cloudfront_response_headers_policy_custom_header</text><path d="M2936.5 1152.179h519" style="stroke:#000d19;stroke-width:.5"/><text x="2946.5" y="1174.174" fill="#D9B8FF" font-family="sans-serif" font-size="14" font-weight="bold" textLength="56">header</text><text x="3002.5" y="1174.174" fill="#D9B8FF" font-family="sans-serif" font-size="14" textLength="48">: string</text><text x="2946.5" y="1200.471" fill="#D9B8FF" font-family="sans-serif" font-size="14" font-weight="bold" textLength="42">value</text><text x="2988.5" y="1200.471" fill="#D9B8FF" font-family="sans-serif" font-size="14" textLength="48">: string</text><text x="2946.5" y="1226.768" fill="#D9B8FF" font-family="sans-serif" font-size="14" font-weight="bold" textLength="67">override</text><text x="3013.5" y="1226.768" fill="#D9B8FF" font-family="sans-serif" font-size="14" textLength="65">: boolean</text></a><a xlink:actuate="onRequest" xlink:href="#l" xlink:show="new" xlink:title="#aws_cloudfront_response_headers_policy" xlink:type="simple" target="_top"><rect id="l" width="623" height="100.383" x="1967.5" y="633.84" fill="#3D176E" rx="2.5" ry="2.5" style="stroke:#000d19;stroke-width:.5"/><circle cx="2098.75" cy="653.735" r="11" fill="#ADD1B2" style="stroke:#181818;stroke-width:1"/><path d="M2101.719 659.375q-.578.297-1.219.438-.64.156-1.344.156-2.5 0-3.828-1.64-1.312-1.657-1.312-4.782t1.312-4.781q1.328-1.656 3.828-1.656.703 0 1.344.156.656.156 1.219.453v2.719q-.625-.578-1.219-.844-.594-.281-1.219-.281-1.343 0-2.031 1.078-.688 1.062-.688 3.156 0 2.094.688 3.172.688 1.062 2.031 1.062.625 0 1.219-.265.594-.281 1.219-.86v2.72Z"/><text x="2124.25" y="659.62" fill="#D9B8FF" font-family="Helvetica" font-size="17" textLength="342">aws_cloudfront_response_headers_policy</text><path d="M1968.5 673.629h621" style="stroke:#000d19;stroke-width:.5"/><text x="1978.5" y="695.624" fill="#D9B8FF" font-family="sans-serif" font-size="14" font-weight="bold" textLength="242">response_headers_policy_type</text><text x="2220.5" y="695.624" fill="#D9B8FF" font-family="sans-serif" font-size="14" textLength="48">: string</text><text x="1978.5" y="721.921" fill="#D9B8FF" font-family="sans-serif" font-size="14" font-weight="bold" textLength="256">response_headers_policy_config</text><text x="2234.5" y="721.921" fill="#D9B8FF" font-family="sans-serif" font-size="14" textLength="345">: aws_cloudfront_response_headers_policy_config</text></a><a xlink:actuate="onRequest" xlink:href="#m" xlink:show="new" xlink:title="#aws_cloudfront_response_headers_policy_config" xlink:type="simple" target="_top"><rect id="m" width="765" height="205.57" x="1896.5" y="794.23" fill="#3D176E" rx="2.5" ry="2.5" style="stroke:#000d19;stroke-width:.5"/><circle cx="2069.25" cy="814.125" r="11" fill="#ADD1B2" style="stroke:#181818;stroke-width:1"/><path d="M2072.219 819.765q-.578.297-1.219.438-.64.156-1.344.156-2.5 0-3.828-1.64-1.312-1.657-1.312-4.782t1.312-4.781q1.328-1.656 3.828-1.656.703 0 1.344.156.656.156 1.219.453v2.719q-.625-.578-1.219-.844-.594-.281-1.219-.281-1.343 0-2.031 1.078-.688 1.062-.688 3.156 0 2.094.688 3.172.688 1.062 2.031 1.062.625 0 1.219-.265.594-.281 1.219-.86v2.72Z"/><text x="2094.75" y="820.01" fill="#D9B8FF" font-family="Helvetica" font-size="17" textLength="401">aws_cloudfront_response_headers_policy_config</text><path d="M1897.5 834.019h763" style="stroke:#000d19;stroke-width:.5"/><text x="1907.5" y="856.014" fill="#D9B8FF" font-family="sans-serif" font-size="14" font-weight="bold" textLength="73">comment</text><text x="1980.5" y="856.014" fill="#D9B8FF" font-family="sans-serif" font-size="14" textLength="48">: string</text><text x="1907.5" y="882.311" fill="#D9B8FF" font-family="sans-serif" font-size="14" font-weight="bold" textLength="43">name</text><text x="1950.5" y="882.311" fill="#D9B8FF" font-family="sans-serif" font-size="14" textLength="48">: string</text><text x="1907.5" y="908.608" fill="#D9B8FF" font-family="sans-serif" font-size="14" font-weight="bold" textLength="91">cors_config</text><text x="1998.5" y="908.608" fill="#D9B8FF" font-family="sans-serif" font-size="14" textLength="382">: aws_cloudfront_response_headers_policy_cors_config</text><text x="1907.5" y="934.905" fill="#D9B8FF" font-family="sans-serif" font-size="14" font-weight="bold" textLength="192">security_headers_config</text><text x="2099.5" y="934.905" fill="#D9B8FF" font-family="sans-serif" font-size="14" textLength="470">: aws_cloudfront_response_headers_policy_security_headers_config</text><text x="1907.5" y="961.202" fill="#D9B8FF" font-family="sans-serif" font-size="14" font-weight="bold" textLength="235">server_timing_headers_config</text><text x="2142.5" y="961.202" fill="#D9B8FF" font-family="sans-serif" font-size="14" textLength="508">: aws_cloudfront_response_headers_policy_server_timing_headers_config</text><text x="1907.5" y="987.499" fill="#D9B8FF" font-family="sans-serif" font-size="14" font-weight="bold" textLength="186">custom_headers_config</text><text x="2093.5" y="987.499" fill="#D9B8FF" font-family="sans-serif" font-size="14" textLength="421">: aws_cloudfront_response_headers_policy_custom_header[]</text></a><path fill="none" d="M2279 338.97v99.54m-7-99.33 7-20 7 20h-14zm-1134.68 939.77c-51.12 23.35-104.65 47.82-153.15 69.98" style="stroke:#ffaf37;stroke-width:2"/><path fill="#FFAF37" d="m979.89 1351.35 9.848-.094-5.299-1.98 1.98-5.3-6.529 7.374z" style="stroke:#ffaf37;stroke-width:2"/><path fill="none" d="M1361 1278.95v93" style="stroke:#ffaf37;stroke-width:2"/><path fill="#FFAF37" d="m1361 1376.68 4-9-4 4-4-4 4 9z" style="stroke:#ffaf37;stroke-width:2"/><path fill="none" d="M1019.05 1244.86C871.01 1275.55 696 1313.44 539 1351.66c-30.69 7.48-63.17 15.91-94.64 24.37" style="stroke:#ffaf37;stroke-width:2"/><path fill="#FFAF37" d="m439.91 1377.5 9.73 1.523-4.902-2.823 2.823-4.902-7.651 6.202z" style="stroke:#ffaf37;stroke-width:2"/><path fill="none" d="M1600.19 1278.95c77.42 33.08 160.03 68.38 225.19 96.23" style="stroke:#ffaf37;stroke-width:2"/><path fill="#FFAF37" d="m1829.84 1377.51-6.697-7.222 2.101 5.252-5.252 2.101 9.848-.131z" style="stroke:#ffaf37;stroke-width:2"/><path fill="none" d="M1666.4 1278.99c18.04 4.64 36 8.92 53.6 12.67 235.72 50.33 301.55 18.59 539 60 3.92.69 7.86 1.39 11.83 2.11" style="stroke:#ffaf37;stroke-width:2"/><path fill="#FFAF37" d="m2275.65 1354.84-8.117-5.579 3.201 4.665-4.664 3.2 9.58-2.286z" style="stroke:#ffaf37;stroke-width:2"/><path fill="none" d="M2279 533.98v99.48m-7-99.26 7-20 7 20h-14zm7 200.3v53.75" style="stroke:#ffaf37;stroke-width:2"/><path fill="#FFAF37" d="m2279 793.09 4-9-4 4-4-4 4 9z" style="stroke:#ffaf37;stroke-width:2"/><path fill="none" d="M2168.51 1000.26c-19.49 18.05-39.94 36.97-59.88 55.42" style="stroke:#ffaf37;stroke-width:2"/><path fill="#FFAF37" d="m2105.65 1058.37 9.321-3.18-5.653-.217.217-5.653-3.885 9.05z" style="stroke:#ffaf37;stroke-width:2"/><path fill="none" d="M1920.33 1000.2c-66.69 19.46-135.7 39.9-200.33 59.6-11.81 3.59-23.82 7.29-35.95 11.04" style="stroke:#ffaf37;stroke-width:2"/><path fill="#FFAF37" d="m1679.47 1072.57 9.782 1.144-5.008-2.63 2.63-5.009-7.404 6.495z" style="stroke:#ffaf37;stroke-width:2"/><path fill="none" d="M2389.86 1000.26c44.61 41.15 94.18 86.88 131.38 121.19" style="stroke:#ffaf37;stroke-width:2"/><path fill="#FFAF37" d="m2524.26 1124.16-3.922-9.034.24 5.651-5.652.24 9.334 3.143z" style="stroke:#ffaf37;stroke-width:2"/><path fill="none" d="M2661.73 985.35c85.04 22.05 174.26 47.27 256.27 74.45 43.5 14.41 89.84 32.45 131.96 49.93" style="stroke:#ffaf37;stroke-width:2"/><path fill="#FFAF37" d="m3054.35 1111.97-6.78-7.143 2.162 5.227-5.228 2.162 9.846-.246z" style="stroke:#ffaf37;stroke-width:2"/></svg>