<svg xmlns="http://www.w3.org/2000/svg" viewBox="0 0 956 1114"><rect width="350" height="126.68" x="63" y="980.91" fill="#3D176E" rx="2.5" ry="2.5" style="stroke:#000d19;stroke-width:.5"/><circle cx="78" cy="1000.804" r="11" fill="#ADD1B2" style="stroke:#181818;stroke-width:1"/><path d="M80.969 1006.445q-.578.297-1.219.438-.64.156-1.344.156-2.5 0-3.828-1.64-1.312-1.657-1.312-4.782t1.312-4.781q1.328-1.657 3.828-1.657.703 0 1.344.157.656.156 1.219.453v2.719q-.625-.579-1.219-.844-.594-.281-1.219-.281-1.344 0-2.031 1.078-.688 1.062-.688 3.156 0 2.094.688 3.172.688 1.062 2.031 1.062.625 0 1.219-.265.594-.282 1.219-.86v2.72Z"/><text x="97" y="1006.69" fill="#D9B8FF" font-family="Helvetica" font-size="17" textLength="308">aws_cloudfront_content_type_profile</text><path d="M64 1020.699h348" style="stroke:#000d19;stroke-width:.5"/><text x="74" y="1042.694" fill="#D9B8FF" font-family="sans-serif" font-size="14" font-weight="bold" textLength="103">content_type</text><text x="177" y="1042.694" fill="#D9B8FF" font-family="sans-serif" font-size="14" textLength="48">: string</text><text x="74" y="1068.991" fill="#D9B8FF" font-family="sans-serif" font-size="14" font-weight="bold" textLength="52">format</text><text x="126" y="1068.991" fill="#D9B8FF" font-family="sans-serif" font-size="14" textLength="48">: string</text><text x="74" y="1095.288" fill="#D9B8FF" font-family="sans-serif" font-size="14" font-weight="bold" textLength="72">profile_id</text><text x="146" y="1095.288" fill="#D9B8FF" font-family="sans-serif" font-size="14" textLength="48">: string</text><rect width="462" height="100.383" x="7" y="820.53" fill="#3D176E" rx="2.5" ry="2.5" style="stroke:#000d19;stroke-width:.5"/><circle cx="45.85" cy="840.424" r="11" fill="#ADD1B2" style="stroke:#181818;stroke-width:1"/><path d="M48.819 846.065q-.578.297-1.219.438-.64.156-1.344.156-2.5 0-3.828-1.64-1.312-1.657-1.312-4.782t1.312-4.781q1.328-1.657 3.828-1.657.703 0 1.344.157.656.156 1.219.453v2.719q-.625-.579-1.219-.844-.594-.281-1.219-.281-1.343 0-2.031 1.078-.688 1.062-.688 3.156 0 2.094.688 3.172.688 1.062 2.031 1.062.625 0 1.219-.265.594-.282 1.219-.86v2.72Z"/><text x="70.15" y="846.31" fill="#D9B8FF" font-family="Helvetica" font-size="17" textLength="367">aws_cloudfront_content_type_profile_config</text><path d="M8 860.319h460" style="stroke:#000d19;stroke-width:.5"/><text x="18" y="882.314" fill="#D9B8FF" font-family="sans-serif" font-size="14" font-weight="bold" textLength="170">content_type_profiles</text><text x="188" y="882.314" fill="#D9B8FF" font-family="sans-serif" font-size="14" textLength="270">: aws_cloudfront_content_type_profile[]</text><text x="18" y="908.611" fill="#D9B8FF" font-family="sans-serif" font-size="14" font-weight="bold" textLength="324">forward_when_content_type_is_unknown</text><text x="342" y="908.611" fill="#D9B8FF" font-family="sans-serif" font-size="14" textLength="65">: boolean</text><rect width="781" height="126.68" x="91.5" y="633.85" fill="#3D176E" rx="2.5" ry="2.5" style="stroke:#000d19;stroke-width:.5"/><circle cx="283.75" cy="653.745" r="11" fill="#ADD1B2" style="stroke:#181818;stroke-width:1"/><path d="M286.719 659.385q-.578.297-1.219.438-.64.156-1.344.156-2.5 0-3.828-1.64-1.312-1.657-1.312-4.782t1.312-4.781q1.328-1.656 3.828-1.656.703 0 1.344.156.656.156 1.219.453v2.719q-.625-.578-1.219-.844-.594-.281-1.219-.281-1.344 0-2.031 1.078-.688 1.062-.688 3.156 0 2.094.688 3.172.688 1.062 2.031 1.062.625 0 1.219-.265.594-.281 1.219-.86v2.72Z"/><text x="309.25" y="659.63" fill="#D9B8FF" font-family="Helvetica" font-size="17" textLength="378">aws_cloudfront_field_level_encryption_config</text><path d="M92.5 673.639h779" style="stroke:#000d19;stroke-width:.5"/><text x="102.5" y="695.634" fill="#D9B8FF" font-family="sans-serif" font-size="14" font-weight="bold" textLength="306">field_level_encryption_config_comment</text><text x="408.5" y="695.634" fill="#D9B8FF" font-family="sans-serif" font-size="14" textLength="48">: string</text><text x="102.5" y="721.931" fill="#D9B8FF" font-family="sans-serif" font-size="14" font-weight="bold" textLength="450">field_level_encryption_config_content_type_profile_config</text><text x="552.5" y="721.931" fill="#D9B8FF" font-family="sans-serif" font-size="14" textLength="309">: aws_cloudfront_content_type_profile_config</text><text x="102.5" y="748.228" fill="#D9B8FF" font-family="sans-serif" font-size="14" font-weight="bold" textLength="426">field_level_encryption_config_query_arg_profile_config</text><text x="528.5" y="748.228" fill="#D9B8FF" font-family="sans-serif" font-size="14" textLength="286">: aws_cloudfront_query_arg_profile_config</text><rect width="324" height="100.383" x="565" y="994.06" fill="#3D176E" rx="2.5" ry="2.5" style="stroke:#000d19;stroke-width:.5"/><circle cx="580" cy="1013.955" r="11" fill="#ADD1B2" style="stroke:#181818;stroke-width:1"/><path d="M582.969 1019.595q-.578.297-1.219.438-.64.156-1.344.156-2.5 0-3.828-1.64-1.312-1.657-1.312-4.782t1.312-4.781q1.328-1.656 3.828-1.656.703 0 1.344.156.656.156 1.219.453v2.719q-.625-.578-1.219-.844-.594-.281-1.219-.281-1.343 0-2.031 1.078-.688 1.062-.688 3.156 0 2.094.688 3.172.688 1.062 2.031 1.062.625 0 1.219-.265.594-.281 1.219-.86v2.72Z"/><text x="599" y="1019.84" fill="#D9B8FF" font-family="Helvetica" font-size="17" textLength="282">aws_cloudfront_query_arg_profile</text><path d="M566 1033.849h322" style="stroke:#000d19;stroke-width:.5"/><text x="576" y="1055.844" fill="#D9B8FF" font-family="sans-serif" font-size="14" font-weight="bold" textLength="72">profile_id</text><text x="648" y="1055.844" fill="#D9B8FF" font-family="sans-serif" font-size="14" textLength="48">: string</text><text x="576" y="1082.141" fill="#D9B8FF" font-family="sans-serif" font-size="14" font-weight="bold" textLength="79">query_arg</text><text x="655" y="1082.141" fill="#D9B8FF" font-family="sans-serif" font-size="14" textLength="48">: string</text><rect width="445" height="100.383" x="504.5" y="820.53" fill="#3D176E" rx="2.5" ry="2.5" style="stroke:#000d19;stroke-width:.5"/><circle cx="547.4" cy="840.424" r="11" fill="#ADD1B2" style="stroke:#181818;stroke-width:1"/><path d="M550.369 846.065q-.578.297-1.219.438-.64.156-1.344.156-2.5 0-3.828-1.64-1.312-1.657-1.312-4.782t1.312-4.781q1.328-1.657 3.828-1.657.703 0 1.344.157.656.156 1.219.453v2.719q-.625-.579-1.219-.844-.594-.281-1.219-.281-1.344 0-2.031 1.078-.688 1.062-.688 3.156 0 2.094.688 3.172.688 1.062 2.031 1.062.625 0 1.219-.265.594-.282 1.219-.86v2.72Z"/><text x="572.6" y="846.31" fill="#D9B8FF" font-family="Helvetica" font-size="17" textLength="341">aws_cloudfront_query_arg_profile_config</text><path d="M505.5 860.319h443" style="stroke:#000d19;stroke-width:.5"/><text x="515.5" y="882.314" fill="#D9B8FF" font-family="sans-serif" font-size="14" font-weight="bold" textLength="358">forward_when_query_arg_profile_is_unknown</text><text x="873.5" y="882.314" fill="#D9B8FF" font-family="sans-serif" font-size="14" textLength="65">: boolean</text><text x="515.5" y="908.611" fill="#D9B8FF" font-family="sans-serif" font-size="14" font-weight="bold" textLength="146">query_arg_profiles</text><text x="661.5" y="908.611" fill="#D9B8FF" font-family="sans-serif" font-size="14" textLength="247">: aws_cloudfront_query_arg_profile[]</text><rect width="155" height="74.086" x="404.5" y="438.76" fill="#3D176E" rx="2.5" ry="2.5" style="stroke:#000d19;stroke-width:.5"/><circle cx="419.5" cy="458.654" r="11" fill="#ADD1B2" style="stroke:#181818;stroke-width:1"/><path d="M422.469 464.295q-.578.297-1.219.438-.64.156-1.344.156-2.5 0-3.828-1.64-1.312-1.657-1.312-4.782t1.312-4.781q1.328-1.656 3.828-1.656.703 0 1.344.156.656.156 1.219.453v2.719q-.625-.579-1.219-.844-.594-.281-1.219-.281-1.344 0-2.031 1.078-.688 1.062-.688 3.156 0 2.094.688 3.172.688 1.062 2.031 1.062.625 0 1.219-.265.594-.281 1.219-.86v2.72Z"/><text x="438.5" y="464.54" fill="#D9B8FF" font-family="Helvetica" font-size="17" textLength="113">aws_resource</text><path d="M405.5 478.549h153" style="stroke:#000d19;stroke-width:.5"/><text x="415.5" y="500.544" fill="#D9B8FF" font-family="sans-serif" font-size="14" font-weight="bold" textLength="26">arn</text><text x="441.5" y="500.544" fill="#D9B8FF" font-family="sans-serif" font-size="14" textLength="48">: string</text><rect width="227" height="310.758" x="368.5" y="7" fill="#3D176E" rx="2.5" ry="2.5" style="stroke:#000d19;stroke-width:.5"/><circle cx="437.25" cy="26.895" r="11" fill="#ADD1B2" style="stroke:#181818;stroke-width:1"/><path d="M440.219 32.535q-.578.297-1.219.438-.64.156-1.344.156-2.5 0-3.828-1.64-1.312-1.657-1.312-4.782t1.312-4.781q1.328-1.656 3.828-1.656.703 0 1.344.156.656.156 1.219.453v2.719q-.625-.578-1.219-.844-.594-.281-1.219-.281-1.344 0-2.031 1.078-.688 1.062-.688 3.156 0 2.094.688 3.172.688 1.062 2.031 1.062.625 0 1.219-.265.594-.281 1.219-.86v2.72Z"/><text x="462.75" y="32.78" fill="#D9B8FF" font-family="Helvetica" font-size="17" textLength="71">resource</text><path d="M369.5 46.789h225" style="stroke:#000d19;stroke-width:.5"/><text x="379.5" y="68.784" fill="#D9B8FF" font-family="sans-serif" font-size="14" font-weight="bold" textLength="29">age</text><text x="408.5" y="68.784" fill="#D9B8FF" font-family="sans-serif" font-size="14" textLength="66">: duration</text><text x="379.5" y="95.081" fill="#D9B8FF" font-family="sans-serif" font-size="14" font-weight="bold" textLength="43">atime</text><text x="422.5" y="95.081" fill="#D9B8FF" font-family="sans-serif" font-size="14" textLength="70">: datetime</text><text x="379.5" y="121.378" fill="#D9B8FF" font-family="sans-serif" font-size="14" font-weight="bold" textLength="43">ctime</text><text x="422.5" y="121.378" fill="#D9B8FF" font-family="sans-serif" font-size="14" textLength="70">: datetime</text><text x="379.5" y="147.675" fill="#D9B8FF" font-family="sans-serif" font-size="14" font-weight="bold" textLength="14">id</text><text x="393.5" y="147.675" fill="#D9B8FF" font-family="sans-serif" font-size="14" textLength="48">: string</text><text x="379.5" y="173.972" fill="#D9B8FF" font-family="sans-serif" font-size="14" font-weight="bold" textLength="33">kind</text><text x="412.5" y="173.972" fill="#D9B8FF" font-family="sans-serif" font-size="14" textLength="48">: string</text><text x="379.5" y="200.269" fill="#D9B8FF" font-family="sans-serif" font-size="14" font-weight="bold" textLength="90">last_access</text><text x="469.5" y="200.269" fill="#D9B8FF" font-family="sans-serif" font-size="14" textLength="66">: duration</text><text x="379.5" y="226.565" fill="#D9B8FF" font-family="sans-serif" font-size="14" font-weight="bold" textLength="90">last_update</text><text x="469.5" y="226.565" fill="#D9B8FF" font-family="sans-serif" font-size="14" textLength="66">: duration</text><text x="379.5" y="252.862" fill="#D9B8FF" font-family="sans-serif" font-size="14" font-weight="bold" textLength="48">mtime</text><text x="427.5" y="252.862" fill="#D9B8FF" font-family="sans-serif" font-size="14" textLength="70">: datetime</text><text x="379.5" y="279.159" fill="#D9B8FF" font-family="sans-serif" font-size="14" font-weight="bold" textLength="43">name</text><text x="422.5" y="279.159" fill="#D9B8FF" font-family="sans-serif" font-size="14" textLength="48">: string</text><text x="379.5" y="305.456" fill="#D9B8FF" font-family="sans-serif" font-size="14" font-weight="bold" textLength="34">tags</text><text x="413.5" y="305.456" fill="#D9B8FF" font-family="sans-serif" font-size="14" textLength="171">: dictionary[string, string]</text><path fill="none" d="M238 921.33v53.28" style="stroke:#ffaf37;stroke-width:2"/><path fill="#FFAF37" d="m238 979.61 4-9-4 4-4-4 4 9z" style="stroke:#ffaf37;stroke-width:2"/><path fill="none" d="M392.87 760.84c-26.14 18.38-54.46 38.29-79.65 56" style="stroke:#ffaf37;stroke-width:2"/><path fill="#FFAF37" d="m309.56 820.12 9.663-1.902-5.572-.973.972-5.573-5.063 8.448z" style="stroke:#ffaf37;stroke-width:2"/><path fill="none" d="M571.49 760.84c26.25 18.38 54.69 38.29 79.98 56" style="stroke:#ffaf37;stroke-width:2"/><path fill="#FFAF37" d="m655.15 820.12-5.063-8.448.972 5.573-5.572.973 9.663 1.902z" style="stroke:#ffaf37;stroke-width:2"/><path fill="none" d="M482 533.87v99.83m-7-99.67 7-20 7 20h-14zm252 387.3v66.47" style="stroke:#ffaf37;stroke-width:2"/><path fill="#FFAF37" d="m727 992.75 4-9-4 4-4-4 4 9z" style="stroke:#ffaf37;stroke-width:2"/><path fill="none" d="M482 338.98v99.54m-7-99.34 7-20 7 20h-14z" style="stroke:#ffaf37;stroke-width:2"/></svg>