<svg xmlns="http://www.w3.org/2000/svg" width="866" height="451" viewBox="0 0 866 451"><rect width="245" height="39.789" x="7" y="7" fill="#3D176E" rx="2.5" ry="2.5" style="stroke:#000d19;stroke-width:.5"/><circle cx="22" cy="26.895" r="11" fill="#ADD1B2" style="stroke:#181818;stroke-width:1"/><path d="M24.969 32.535q-.578.297-1.219.438-.64.156-1.344.156-2.5 0-3.828-1.64-1.312-1.657-1.312-4.782t1.312-4.781q1.328-1.656 3.828-1.656.703 0 1.344.156.656.156 1.219.453v2.719q-.625-.578-1.219-.844-.594-.281-1.219-.281-1.343 0-2.031 1.078-.688 1.062-.688 3.156 0 2.094.688 3.172.688 1.062 2.031 1.062.625 0 1.219-.265.594-.281 1.219-.86v2.72Z"/><text x="41" y="32.78" fill="#D9B8FF" font-family="Helvetica" font-size="17" textLength="203">aws_ec2_security_group</text><rect width="179" height="39.789" x="287" y="7" fill="#3D176E" rx="2.5" ry="2.5" style="stroke:#000d19;stroke-width:.5"/><circle cx="302" cy="26.895" r="11" fill="#ADD1B2" style="stroke:#181818;stroke-width:1"/><path d="M304.969 32.535q-.578.297-1.219.438-.64.156-1.344.156-2.5 0-3.828-1.64-1.312-1.657-1.312-4.782t1.312-4.781q1.328-1.656 3.828-1.656.703 0 1.344.156.656.156 1.219.453v2.719q-.625-.578-1.219-.844-.594-.281-1.219-.281-1.344 0-2.031 1.078-.688 1.062-.688 3.156 0 2.094.688 3.172.688 1.062 2.031 1.062.625 0 1.219-.265.594-.281 1.219-.86v2.72Z"/><text x="321" y="32.78" fill="#D9B8FF" font-family="Helvetica" font-size="17" textLength="137">aws_ec2_subnet</text><rect width="157" height="39.789" x="501" y="7" fill="#3D176E" rx="2.5" ry="2.5" style="stroke:#000d19;stroke-width:.5"/><circle cx="516" cy="26.895" r="11" fill="#ADD1B2" style="stroke:#181818;stroke-width:1"/><path d="M518.969 32.535q-.578.297-1.219.438-.64.156-1.344.156-2.5 0-3.828-1.64-1.312-1.657-1.312-4.782t1.312-4.781q1.328-1.656 3.828-1.656.703 0 1.344.156.656.156 1.219.453v2.719q-.625-.578-1.219-.844-.594-.281-1.219-.281-1.343 0-2.031 1.078-.688 1.062-.688 3.156 0 2.094.688 3.172.688 1.062 2.031 1.062.625 0 1.219-.265.594-.281 1.219-.86v2.72Z"/><text x="535" y="32.78" fill="#D9B8FF" font-family="Helvetica" font-size="17" textLength="115">aws_iam_role</text><rect width="168" height="39.789" x="268.5" y="406.16" fill="#3D176E" rx="2.5" ry="2.5" style="stroke:#000d19;stroke-width:.5"/><circle cx="283.5" cy="426.055" r="11" fill="#ADD1B2" style="stroke:#181818;stroke-width:1"/><path d="M286.469 431.695q-.578.297-1.219.438-.64.156-1.344.156-2.5 0-3.828-1.64-1.312-1.657-1.312-4.782t1.312-4.781q1.328-1.656 3.828-1.656.703 0 1.344.156.656.156 1.219.453v2.719q-.625-.578-1.219-.844-.594-.281-1.219-.281-1.344 0-2.031 1.078-.688 1.062-.688 3.156 0 2.094.688 3.172.688 1.062 2.031 1.062.625 0 1.219-.265.594-.281 1.219-.86v2.72Z"/><text x="302.5" y="431.94" fill="#D9B8FF" font-family="Helvetica" font-size="17" textLength="126">aws_s3_bucket</text><rect width="352" height="39.789" x="507.5" y="206.58" fill="#3D176E" rx="2.5" ry="2.5" style="stroke:#000d19;stroke-width:.5"/><circle cx="522.5" cy="226.475" r="11" fill="#ADD1B2" style="stroke:#181818;stroke-width:1"/><path d="M525.469 232.115q-.578.297-1.219.438-.64.156-1.344.156-2.5 0-3.828-1.64-1.312-1.657-1.312-4.782t1.312-4.781q1.328-1.656 3.828-1.656.703 0 1.344.156.656.156 1.219.453v2.719q-.625-.578-1.219-.844-.594-.281-1.219-.281-1.343 0-2.031 1.078-.688 1.062-.688 3.156 0 2.094.688 3.172.688 1.062 2.031 1.062.625 0 1.219-.265.594-.281 1.219-.86v2.72Z"/><text x="541.5" y="232.36" fill="#D9B8FF" font-family="Helvetica" font-size="17" textLength="310">aws_sagemaker_edge_packaging_job</text><rect width="285" height="39.789" x="46" y="206.58" fill="#3D176E" rx="2.5" ry="2.5" style="stroke:#000d19;stroke-width:.5"/><circle cx="61" cy="226.475" r="11" fill="#ADD1B2" style="stroke:#181818;stroke-width:1"/><path d="M63.969 232.115q-.578.297-1.219.438-.64.156-1.344.156-2.5 0-3.828-1.64-1.312-1.657-1.312-4.782t1.312-4.781q1.328-1.656 3.828-1.656.703 0 1.344.156.656.156 1.219.453v2.719q-.625-.578-1.219-.844-.594-.281-1.219-.281-1.343 0-2.031 1.078-.688 1.062-.688 3.156 0 2.094.688 3.172.688 1.062 2.031 1.062.625 0 1.219-.265.594-.281 1.219-.86v2.72Z"/><text x="80" y="232.36" fill="#D9B8FF" font-family="Helvetica" font-size="17" textLength="243">aws_sagemaker_labeling_job</text><rect width="237" height="39.789" x="325" y="106.79" fill="#3D176E" rx="2.5" ry="2.5" style="stroke:#000d19;stroke-width:.5"/><circle cx="340" cy="126.684" r="11" fill="#ADD1B2" style="stroke:#181818;stroke-width:1"/><path d="M342.969 132.325q-.578.297-1.219.438-.64.156-1.344.156-2.5 0-3.828-1.64-1.312-1.657-1.312-4.782t1.312-4.781q1.328-1.656 3.828-1.656.703 0 1.344.156.656.156 1.219.453v2.719q-.625-.579-1.219-.844-.594-.281-1.219-.281-1.344 0-2.031 1.078-.688 1.062-.688 3.156 0 2.094.688 3.172.688 1.062 2.031 1.062.625 0 1.219-.265.594-.281 1.219-.86v2.72Z"/><text x="359" y="132.57" fill="#D9B8FF" font-family="Helvetica" font-size="17" textLength="195">aws_sagemaker_model</text><rect width="302" height="39.789" x="99.5" y="306.37" fill="#3D176E" rx="2.5" ry="2.5" style="stroke:#000d19;stroke-width:.5"/><circle cx="114.5" cy="326.264" r="11" fill="#ADD1B2" style="stroke:#181818;stroke-width:1"/><path d="M117.469 331.905q-.578.297-1.219.438-.64.156-1.344.156-2.5 0-3.828-1.64-1.312-1.657-1.312-4.782t1.312-4.781q1.328-1.656 3.828-1.656.703 0 1.344.156.656.156 1.219.453v2.719q-.625-.579-1.219-.844-.594-.281-1.219-.281-1.344 0-2.031 1.078-.688 1.062-.688 3.156 0 2.094.688 3.172.688 1.062 2.031 1.062.625 0 1.219-.265.594-.281 1.219-.86v2.72Z"/><text x="133.5" y="332.15" fill="#D9B8FF" font-family="Helvetica" font-size="17" textLength="260">aws_sagemaker_transform_job</text><path fill="none" d="M135.26 47.2c10.76 36.01 33.85 113.35 45.78 153.28" style="stroke:#1a83af;stroke-width:2"/><path fill="#1A83AF" d="m182.71 205.09 1.266-9.767-2.692 4.975-4.975-2.693 6.401 7.485z" style="stroke:#1a83af;stroke-width:2"/><path fill="none" d="M191.54 47.22c53.13 16.55 129.51 40.33 184.23 57.37" style="stroke:#1a83af;stroke-width:2"/><path fill="#1A83AF" d="m380.32 106.32-7.404-6.495 2.63 5.008-5.008 2.63 9.782-1.143z" style="stroke:#1a83af;stroke-width:2"/><path fill="none" d="M330.67 47.25c-27.49 13.46-61.59 33.62-85.17 59.54-25.03 27.51-41.27 67.99-49.78 93.84" style="stroke:#1a83af;stroke-width:2"/><path fill="#1A83AF" d="m193.92 205.24 6.562-7.345-5.032 2.585-2.585-5.032 1.055 9.792z" style="stroke:#1a83af;stroke-width:2"/><path fill="none" d="M389.74 47.22c10.73 15.67 25.92 37.83 37.41 54.61" style="stroke:#1a83af;stroke-width:2"/><path fill="#1A83AF" d="m430.29 105.41-1.787-9.685-1.039 5.56-5.56-1.039 8.386 5.164z" style="stroke:#1a83af;stroke-width:2"/><path fill="none" d="M589.66 47.2c19.03 36.15 60 113.99 80.94 153.77" style="stroke:#1a83af;stroke-width:2"/><path fill="#1A83AF" d="m673.3 205.09-.673-9.826-1.665 5.406-5.406-1.665 7.744 6.085z" style="stroke:#1a83af;stroke-width:2"/><path fill="none" d="M500.56 46.17c-68.05 16.58-160.35 41.32-193.06 60.62-42.28 24.96-80.39 68.38-101.55 95.22" style="stroke:#1a83af;stroke-width:2"/><path fill="#1A83AF" d="m202.45 205.49 8.686-4.642-5.613.697-.698-5.613-2.375 9.558z" style="stroke:#1a83af;stroke-width:2"/><path fill="none" d="M552.63 47.22c-22.35 16.07-54.2 38.97-77.73 55.89" style="stroke:#1a83af;stroke-width:2"/><path fill="#1A83AF" d="m471.31 106.41 9.643-2.002-5.582-.915.915-5.582-4.976 8.499z" style="stroke:#1a83af;stroke-width:2"/><path fill="none" d="M651.16 246.78c-61.67 36.81-195.77 116.86-261.22 155.92" style="stroke:#1a83af;stroke-width:2"/><path fill="#1A83AF" d="m385.97 405.67 9.778-1.177-5.484-1.385 1.385-5.485-5.679 8.047z" style="stroke:#1a83af;stroke-width:2"/><path fill="none" d="M149.67 246.74c-40.66 22.78-95.01 62.28-67.17 99.42 21.87 29.17 110.06 51.15 179.79 64.41" style="stroke:#1a83af;stroke-width:2"/><path fill="#1A83AF" d="m267.12 411.66-8.1-5.602 3.187 4.674-4.673 3.187 9.586-2.259z" style="stroke:#1a83af;stroke-width:2"/><path fill="none" d="M200.75 246.8c9.85 15.53 23.75 37.45 34.35 54.18" style="stroke:#1a83af;stroke-width:2"/><path fill="#1A83AF" d="m238.28 304.99-1.425-9.745-1.245 5.518-5.519-1.245 8.189 5.472z" style="stroke:#1a83af;stroke-width:2"/><path fill="none" d="M444.9 147.03c2.09 39.3 3.03 130.54-26.4 199.13-9.14 21.3-25.98 41.28-40.36 55.81" style="stroke:#1a83af;stroke-width:2"/><path fill="#1A83AF" d="m375.16 404.92 9.214-3.48-5.657-.034.034-5.657-3.591 9.171z" style="stroke:#1a83af;stroke-width:2"/><path fill="none" d="M490.92 147.01c40.26 16.41 98 39.93 139.74 56.94" style="stroke:#1a83af;stroke-width:2"/><path fill="#1A83AF" d="m635.18 206.2-6.826-7.1 2.195 5.214-5.213 2.195 9.844-.309z" style="stroke:#1a83af;stroke-width:2"/><path fill="none" d="M393.12 147.01c-42.87 16.44-104.38 40.03-148.75 57.04" style="stroke:#1a83af;stroke-width:2"/><path fill="#1A83AF" d="m239.78 206.2 9.835.523-5.165-2.308 2.309-5.165-6.979 6.95z" style="stroke:#1a83af;stroke-width:2"/><path fill="none" d="M430.18 146.83c-17.39 24.38-49.44 67.21-81.68 99.54-20.56 20.62-46.28 41.16-66.22 56.11" style="stroke:#1a83af;stroke-width:2"/><path fill="#1A83AF" d="m278.61 305.97 9.609-2.162-5.597-.822.822-5.597-4.834 8.581z" style="stroke:#1a83af;stroke-width:2"/><path fill="none" d="M270.65 346.59c16.49 15.8 39.86 38.21 57.41 55.04" style="stroke:#1a83af;stroke-width:2"/><path fill="#1A83AF" d="m331.39 404.78-3.739-9.112.126 5.656-5.656.126 9.269 3.33z" style="stroke:#1a83af;stroke-width:2"/></svg>