<?xml version="1.0" encoding="us-ascii" standalone="no"?><svg xmlns="http://www.w3.org/2000/svg" xmlns:xlink="http://www.w3.org/1999/xlink" contentStyleType="text/css" height="1033px" preserveAspectRatio="none" style="width:1032px;height:1033px;" version="1.1" viewBox="0 0 1032 1033" width="1032px" zoomAndPan="magnify"><defs/><g><!--class aws_iam_attached_permissions_boundary--><g id="elem_aws_iam_attached_permissions_boundary"><rect codeLine="22" fill="#3D176E" height="100.3828" id="aws_iam_attached_permissions_boundary" rx="2.5" ry="2.5" style="stroke:#000D19;stroke-width:0.5;" width="394" x="7" y="925.71"/><ellipse cx="22" cy="945.6045" fill="#ADD1B2" rx="11" ry="11" style="stroke:#181818;stroke-width:1.0;"/><path d="M24.9688,951.2452 Q24.3906,951.542 23.75,951.6827 Q23.1094,951.8389 22.4063,951.8389 Q19.9063,951.8389 18.5781,950.1983 Q17.2656,948.542 17.2656,945.417 Q17.2656,942.292 18.5781,940.6358 Q19.9063,938.9795 22.4063,938.9795 Q23.1094,938.9795 23.75,939.1358 Q24.4063,939.292 24.9688,939.5889 L24.9688,942.3077 Q24.3438,941.7295 23.75,941.4639 Q23.1563,941.1827 22.5313,941.1827 Q21.1875,941.1827 20.5,942.2608 Q19.8125,943.3233 19.8125,945.417 Q19.8125,947.5108 20.5,948.5889 Q21.1875,949.6514 22.5313,949.6514 Q23.1563,949.6514 23.75,949.3858 Q24.3438,949.1045 24.9688,948.5264 L24.9688,951.2452 Z " fill="#000000"/><text fill="#D9B8FF" font-family="Helvetica" font-size="17" lengthAdjust="spacing" textLength="352" x="41" y="951.4898">aws_iam_attached_permissions_boundary</text><line style="stroke:#000D19;stroke-width:0.5;" x1="8" x2="400" y1="965.4991" y2="965.4991"/><text fill="#D9B8FF" font-family="sans-serif" font-size="14" font-weight="bold" lengthAdjust="spacing" textLength="211" x="18" y="987.4942">permissions_boundary_arn</text><text fill="#D9B8FF" font-family="sans-serif" font-size="14" lengthAdjust="spacing" textLength="48" x="229" y="987.4942">: string</text><text fill="#D9B8FF" font-family="sans-serif" font-size="14" font-weight="bold" lengthAdjust="spacing" textLength="220" x="18" y="1013.7911">permissions_boundary_type</text><text fill="#D9B8FF" font-family="sans-serif" font-size="14" lengthAdjust="spacing" textLength="48" x="238" y="1013.7911">: string</text></g><!--class aws_iam_policy_detail--><g id="elem_aws_iam_policy_detail"><rect codeLine="26" fill="#3D176E" height="100.3828" id="aws_iam_policy_detail" rx="2.5" ry="2.5" style="stroke:#000D19;stroke-width:0.5;" width="310" x="436" y="925.71"/><ellipse cx="488.25" cy="945.6045" fill="#ADD1B2" rx="11" ry="11" style="stroke:#181818;stroke-width:1.0;"/><path d="M491.2188,951.2452 Q490.6406,951.542 490,951.6827 Q489.3594,951.8389 488.6563,951.8389 Q486.1563,951.8389 484.8281,950.1983 Q483.5156,948.542 483.5156,945.417 Q483.5156,942.292 484.8281,940.6358 Q486.1563,938.9795 488.6563,938.9795 Q489.3594,938.9795 490,939.1358 Q490.6563,939.292 491.2188,939.5889 L491.2188,942.3077 Q490.5938,941.7295 490,941.4639 Q489.4063,941.1827 488.7813,941.1827 Q487.4375,941.1827 486.75,942.2608 Q486.0625,943.3233 486.0625,945.417 Q486.0625,947.5108 486.75,948.5889 Q487.4375,949.6514 488.7813,949.6514 Q489.4063,949.6514 490,949.3858 Q490.5938,949.1045 491.2188,948.5264 L491.2188,951.2452 Z " fill="#000000"/><text fill="#D9B8FF" font-family="Helvetica" font-size="17" lengthAdjust="spacing" textLength="187" x="513.75" y="951.4898">aws_iam_policy_detail</text><line style="stroke:#000D19;stroke-width:0.5;" x1="437" x2="745" y1="965.4991" y2="965.4991"/><text fill="#D9B8FF" font-family="sans-serif" font-size="14" font-weight="bold" lengthAdjust="spacing" textLength="132" x="447" y="987.4942">policy_document</text><text fill="#D9B8FF" font-family="sans-serif" font-size="14" lengthAdjust="spacing" textLength="156" x="579" y="987.4942">: dictionary[string, any]</text><text fill="#D9B8FF" font-family="sans-serif" font-size="14" font-weight="bold" lengthAdjust="spacing" textLength="96" x="447" y="1013.7911">policy_name</text><text fill="#D9B8FF" font-family="sans-serif" font-size="14" lengthAdjust="spacing" textLength="48" x="543" y="1013.7911">: string</text></g><!--class aws_iam_role--><g id="elem_aws_iam_role"><rect codeLine="30" fill="#3D176E" height="231.8672" id="aws_iam_role" rx="2.5" ry="2.5" style="stroke:#000D19;stroke-width:0.5;" width="536" x="323" y="633.84"/><ellipse cx="524.25" cy="653.7345" fill="#ADD1B2" rx="11" ry="11" style="stroke:#181818;stroke-width:1.0;"/><path d="M527.2188,659.3752 Q526.6406,659.672 526,659.8127 Q525.3594,659.9689 524.6563,659.9689 Q522.1563,659.9689 520.8281,658.3283 Q519.5156,656.672 519.5156,653.547 Q519.5156,650.422 520.8281,648.7658 Q522.1563,647.1095 524.6563,647.1095 Q525.3594,647.1095 526,647.2658 Q526.6563,647.422 527.2188,647.7189 L527.2188,650.4377 Q526.5938,649.8595 526,649.5939 Q525.4063,649.3127 524.7813,649.3127 Q523.4375,649.3127 522.75,650.3908 Q522.0625,651.4533 522.0625,653.547 Q522.0625,655.6408 522.75,656.7189 Q523.4375,657.7814 524.7813,657.7814 Q525.4063,657.7814 526,657.5158 Q526.5938,657.2345 527.2188,656.6564 L527.2188,659.3752 Z " fill="#000000"/><text fill="#D9B8FF" font-family="Helvetica" font-size="17" lengthAdjust="spacing" textLength="115" x="549.75" y="659.6198">aws_iam_role</text><line style="stroke:#000D19;stroke-width:0.5;" x1="324" x2="858" y1="673.6291" y2="673.6291"/><text fill="#D9B8FF" font-family="sans-serif" font-size="14" font-weight="bold" lengthAdjust="spacing" textLength="89" x="334" y="695.6242">description</text><text fill="#D9B8FF" font-family="sans-serif" font-size="14" lengthAdjust="spacing" textLength="48" x="423" y="695.6242">: string</text><text fill="#D9B8FF" font-family="sans-serif" font-size="14" font-weight="bold" lengthAdjust="spacing" textLength="35" x="334" y="721.9211">path</text><text fill="#D9B8FF" font-family="sans-serif" font-size="14" lengthAdjust="spacing" textLength="48" x="369" y="721.9211">: string</text><text fill="#D9B8FF" font-family="sans-serif" font-size="14" font-weight="bold" lengthAdjust="spacing" textLength="276" x="334" y="748.2179">role_assume_role_policy_document</text><text fill="#D9B8FF" font-family="sans-serif" font-size="14" lengthAdjust="spacing" textLength="33" x="610" y="748.2179">: any</text><text fill="#D9B8FF" font-family="sans-serif" font-size="14" font-weight="bold" lengthAdjust="spacing" textLength="112" x="334" y="774.5148">role_last_used</text><text fill="#D9B8FF" font-family="sans-serif" font-size="14" lengthAdjust="spacing" textLength="173" x="446" y="774.5148">: aws_iam_role_last_used</text><text fill="#D9B8FF" font-family="sans-serif" font-size="14" font-weight="bold" lengthAdjust="spacing" textLength="211" x="334" y="800.8117">role_max_session_duration</text><text fill="#D9B8FF" font-family="sans-serif" font-size="14" lengthAdjust="spacing" textLength="44" x="545" y="800.8117">: int64</text><text fill="#D9B8FF" font-family="sans-serif" font-size="14" font-weight="bold" lengthAdjust="spacing" textLength="216" x="334" y="827.1086">role_permissions_boundary</text><text fill="#D9B8FF" font-family="sans-serif" font-size="14" lengthAdjust="spacing" textLength="298" x="550" y="827.1086">: aws_iam_attached_permissions_boundary</text><text fill="#D9B8FF" font-family="sans-serif" font-size="14" font-weight="bold" lengthAdjust="spacing" textLength="98" x="334" y="853.4054">role_policies</text><text fill="#D9B8FF" font-family="sans-serif" font-size="14" lengthAdjust="spacing" textLength="167" x="432" y="853.4054">: aws_iam_policy_detail[]</text></g><!--class aws_iam_role_last_used--><g id="elem_aws_iam_role_last_used"><rect codeLine="39" fill="#3D176E" height="100.3828" id="aws_iam_role_last_used" rx="2.5" ry="2.5" style="stroke:#000D19;stroke-width:0.5;" width="244" x="781" y="925.71"/><ellipse cx="796" cy="945.6045" fill="#ADD1B2" rx="11" ry="11" style="stroke:#181818;stroke-width:1.0;"/><path d="M798.9688,951.2452 Q798.3906,951.542 797.75,951.6827 Q797.1094,951.8389 796.4063,951.8389 Q793.9063,951.8389 792.5781,950.1983 Q791.2656,948.542 791.2656,945.417 Q791.2656,942.292 792.5781,940.6358 Q793.9063,938.9795 796.4063,938.9795 Q797.1094,938.9795 797.75,939.1358 Q798.4063,939.292 798.9688,939.5889 L798.9688,942.3077 Q798.3438,941.7295 797.75,941.4639 Q797.1563,941.1827 796.5313,941.1827 Q795.1875,941.1827 794.5,942.2608 Q793.8125,943.3233 793.8125,945.417 Q793.8125,947.5108 794.5,948.5889 Q795.1875,949.6514 796.5313,949.6514 Q797.1563,949.6514 797.75,949.3858 Q798.3438,949.1045 798.9688,948.5264 L798.9688,951.2452 Z " fill="#000000"/><text fill="#D9B8FF" font-family="Helvetica" font-size="17" lengthAdjust="spacing" textLength="202" x="815" y="951.4898">aws_iam_role_last_used</text><line style="stroke:#000D19;stroke-width:0.5;" x1="782" x2="1024" y1="965.4991" y2="965.4991"/><text fill="#D9B8FF" font-family="sans-serif" font-size="14" font-weight="bold" lengthAdjust="spacing" textLength="74" x="792" y="987.4942">last_used</text><text fill="#D9B8FF" font-family="sans-serif" font-size="14" lengthAdjust="spacing" textLength="70" x="866" y="987.4942">: datetime</text><text fill="#D9B8FF" font-family="sans-serif" font-size="14" font-weight="bold" lengthAdjust="spacing" textLength="51" x="792" y="1013.7911">region</text><text fill="#D9B8FF" font-family="sans-serif" font-size="14" lengthAdjust="spacing" textLength="48" x="843" y="1013.7911">: string</text></g><!--class aws_resource--><g id="elem_aws_resource"><rect codeLine="43" fill="#3D176E" height="74.0859" id="aws_resource" rx="2.5" ry="2.5" style="stroke:#000D19;stroke-width:0.5;" width="155" x="513.5" y="438.75"/><ellipse cx="528.5" cy="458.6445" fill="#ADD1B2" rx="11" ry="11" style="stroke:#181818;stroke-width:1.0;"/><path d="M531.4688,464.2852 Q530.8906,464.582 530.25,464.7227 Q529.6094,464.8789 528.9063,464.8789 Q526.4063,464.8789 525.0781,463.2383 Q523.7656,461.582 523.7656,458.457 Q523.7656,455.332 525.0781,453.6758 Q526.4063,452.0195 528.9063,452.0195 Q529.6094,452.0195 530.25,452.1758 Q530.9063,452.332 531.4688,452.6289 L531.4688,455.3477 Q530.8438,454.7695 530.25,454.5039 Q529.6563,454.2227 529.0313,454.2227 Q527.6875,454.2227 527,455.3008 Q526.3125,456.3633 526.3125,458.457 Q526.3125,460.5508 527,461.6289 Q527.6875,462.6914 529.0313,462.6914 Q529.6563,462.6914 530.25,462.4258 Q530.8438,462.1445 531.4688,461.5664 L531.4688,464.2852 Z " fill="#000000"/><text fill="#D9B8FF" font-family="Helvetica" font-size="17" lengthAdjust="spacing" textLength="113" x="547.5" y="464.5298">aws_resource</text><line style="stroke:#000D19;stroke-width:0.5;" x1="514.5" x2="667.5" y1="478.5391" y2="478.5391"/><text fill="#D9B8FF" font-family="sans-serif" font-size="14" font-weight="bold" lengthAdjust="spacing" textLength="26" x="524.5" y="500.5342">arn</text><text fill="#D9B8FF" font-family="sans-serif" font-size="14" lengthAdjust="spacing" textLength="48" x="550.5" y="500.5342">: string</text></g><!--class resource--><g id="elem_resource"><rect codeLine="46" fill="#3D176E" height="310.7578" id="resource" rx="2.5" ry="2.5" style="stroke:#000D19;stroke-width:0.5;" width="227" x="477.5" y="7"/><ellipse cx="546.25" cy="26.8945" fill="#ADD1B2" rx="11" ry="11" style="stroke:#181818;stroke-width:1.0;"/><path d="M549.2188,32.5352 Q548.6406,32.832 548,32.9727 Q547.3594,33.1289 546.6563,33.1289 Q544.1563,33.1289 542.8281,31.4883 Q541.5156,29.832 541.5156,26.707 Q541.5156,23.582 542.8281,21.9258 Q544.1563,20.2695 546.6563,20.2695 Q547.3594,20.2695 548,20.4258 Q548.6563,20.582 549.2188,20.8789 L549.2188,23.5977 Q548.5938,23.0195 548,22.7539 Q547.4063,22.4727 546.7813,22.4727 Q545.4375,22.4727 544.75,23.5508 Q544.0625,24.6133 544.0625,26.707 Q544.0625,28.8008 544.75,29.8789 Q545.4375,30.9414 546.7813,30.9414 Q547.4063,30.9414 548,30.6758 Q548.5938,30.3945 549.2188,29.8164 L549.2188,32.5352 Z " fill="#000000"/><text fill="#D9B8FF" font-family="Helvetica" font-size="17" lengthAdjust="spacing" textLength="71" x="571.75" y="32.7798">resource</text><line style="stroke:#000D19;stroke-width:0.5;" x1="478.5" x2="703.5" y1="46.7891" y2="46.7891"/><text fill="#D9B8FF" font-family="sans-serif" font-size="14" font-weight="bold" lengthAdjust="spacing" textLength="29" x="488.5" y="68.7842">age</text><text fill="#D9B8FF" font-family="sans-serif" font-size="14" lengthAdjust="spacing" textLength="66" x="517.5" y="68.7842">: duration</text><text fill="#D9B8FF" font-family="sans-serif" font-size="14" font-weight="bold" lengthAdjust="spacing" textLength="43" x="488.5" y="95.0811">atime</text><text fill="#D9B8FF" font-family="sans-serif" font-size="14" lengthAdjust="spacing" textLength="70" x="531.5" y="95.0811">: datetime</text><text fill="#D9B8FF" font-family="sans-serif" font-size="14" font-weight="bold" lengthAdjust="spacing" textLength="43" x="488.5" y="121.3779">ctime</text><text fill="#D9B8FF" font-family="sans-serif" font-size="14" lengthAdjust="spacing" textLength="70" x="531.5" y="121.3779">: datetime</text><text fill="#D9B8FF" font-family="sans-serif" font-size="14" font-weight="bold" lengthAdjust="spacing" textLength="14" x="488.5" y="147.6748">id</text><text fill="#D9B8FF" font-family="sans-serif" font-size="14" lengthAdjust="spacing" textLength="48" x="502.5" y="147.6748">: string</text><text fill="#D9B8FF" font-family="sans-serif" font-size="14" font-weight="bold" lengthAdjust="spacing" textLength="33" x="488.5" y="173.9717">kind</text><text fill="#D9B8FF" font-family="sans-serif" font-size="14" lengthAdjust="spacing" textLength="48" x="521.5" y="173.9717">: string</text><text fill="#D9B8FF" font-family="sans-serif" font-size="14" font-weight="bold" lengthAdjust="spacing" textLength="90" x="488.5" y="200.2686">last_access</text><text fill="#D9B8FF" font-family="sans-serif" font-size="14" lengthAdjust="spacing" textLength="66" x="578.5" y="200.2686">: duration</text><text fill="#D9B8FF" font-family="sans-serif" font-size="14" font-weight="bold" lengthAdjust="spacing" textLength="90" x="488.5" y="226.5654">last_update</text><text fill="#D9B8FF" font-family="sans-serif" font-size="14" lengthAdjust="spacing" textLength="66" x="578.5" y="226.5654">: duration</text><text fill="#D9B8FF" font-family="sans-serif" font-size="14" font-weight="bold" lengthAdjust="spacing" textLength="48" x="488.5" y="252.8623">mtime</text><text fill="#D9B8FF" font-family="sans-serif" font-size="14" lengthAdjust="spacing" textLength="70" x="536.5" y="252.8623">: datetime</text><text fill="#D9B8FF" font-family="sans-serif" font-size="14" font-weight="bold" lengthAdjust="spacing" textLength="43" x="488.5" y="279.1592">name</text><text fill="#D9B8FF" font-family="sans-serif" font-size="14" lengthAdjust="spacing" textLength="48" x="531.5" y="279.1592">: string</text><text fill="#D9B8FF" font-family="sans-serif" font-size="14" font-weight="bold" lengthAdjust="spacing" textLength="34" x="488.5" y="305.4561">tags</text><text fill="#D9B8FF" font-family="sans-serif" font-size="14" lengthAdjust="spacing" textLength="171" x="522.5" y="305.4561">: dictionary[string, string]</text></g><!--link aws_iam_role to aws_iam_attached_permissions_boundary--><g id="link_aws_iam_role_aws_iam_attached_permissions_boundary"><path codeLine="58" d="M391.83,866.12 C357.87,885.79 324.14,905.32 294.83,922.3 " fill="none" id="aws_iam_role-to-aws_iam_attached_permissions_boundary" style="stroke:#FFAF37;stroke-width:2.0;"/><polygon fill="#FFAF37" points="290.79,925.22,300.5841,924.1826,295.1197,922.7193,296.583,917.255,290.79,925.22" style="stroke:#FFAF37;stroke-width:2.0;"/></g><!--link aws_iam_role to aws_iam_policy_detail--><g id="link_aws_iam_role_aws_iam_policy_detail"><path codeLine="59" d="M591,866.12 C591,884.65 591,903.06 591,919.33 " fill="none" id="aws_iam_role-to-aws_iam_policy_detail" style="stroke:#FFAF37;stroke-width:2.0;"/><polygon fill="#FFAF37" points="591,924.22,595,915.22,591,919.22,587,915.22,591,924.22" style="stroke:#FFAF37;stroke-width:2.0;"/></g><!--link aws_iam_role to aws_iam_role_last_used--><g id="link_aws_iam_role_aws_iam_role_last_used"><path codeLine="60" d="M751.57,866.12 C778.73,885.63 805.7,905 829.19,921.88 " fill="none" id="aws_iam_role-to-aws_iam_role_last_used" style="stroke:#FFAF37;stroke-width:2.0;"/><polygon fill="#FFAF37" points="832.84,925.22,827.8639,916.7207,828.7791,922.303,823.1967,923.2181,832.84,925.22" style="stroke:#FFAF37;stroke-width:2.0;"/></g><!--reverse link aws_resource to aws_iam_role--><g id="link_aws_resource_aws_iam_role"><path codeLine="61" d="M591,534.18 C591,563.06 591,599.14 591,633.43 " fill="none" id="aws_resource-backto-aws_iam_role" style="stroke:#FFAF37;stroke-width:2.0;"/><polygon fill="none" points="584,534.19,591,514.19,598,534.19,584,534.19" style="stroke:#FFAF37;stroke-width:2.0;"/></g><!--reverse link resource to aws_resource--><g id="link_resource_aws_resource"><path codeLine="62" d="M591,338.97 C591,376.78 591,413 591,438.51 " fill="none" id="resource-backto-aws_resource" style="stroke:#FFAF37;stroke-width:2.0;"/><polygon fill="none" points="584,339.17,591,319.17,598,339.17,584,339.17" style="stroke:#FFAF37;stroke-width:2.0;"/></g><!--SRC=[ZLDTQnin47pthn3axQZ1Rj8uBgMG6aBx4ahJjn34MjgpXK_I8UdgkX__lT9TBfRaEwTF1xkpCwFPlQtWI53Mxa0aoZKQEx4xeMem8CcjCNg_qfKsvA8ieRnSvCqxhTohW7kGI3vZzGETO90Zlcy5socqbhoDMf-0xJP6DuftzCw0ihw5oaMeLGNMtZfdnBfn69dXo_LDMUR8dFJYaiyNrtW2quQZUORCPZC-N-QGLwNElli5yI1-8Pd7eTrhXoSsJoHQr5cN0H6PF7betn_r-1Ku5sf3taMrRvqdez0azOSjSBqFw18g6yjOXmQrEzIuEdaLBczukHW4Vna3iv0SWRsb0YG5vu1jaTCQZHJM2gqiNOSfC0VoUr8KGmqAHXN5UozdlEKnKB0HeVvcqhMk13jGZWv4rKazLpHhfB_ICCi5SvxLqprsD6y8gCFJ4Qny-cT4ZAwmvUPecH5r84kTWzicXJ11FOMtq4xJ0LVUGe_qQeus5dbRZrIFdHuguIUrsAP4UMEWzoAKkxxgGKD9njHd5_P24YmBjF5W4lVZqs1IHyzjPidRE3X_u1A31cxI66CkWrOtXdMfftVImrB8fjrV7qYe19bCaWtK14yMvt-2jD3Q1yPyv9b2zx0wS6KTEQ2JdLXHEDZOaUFilY7Tv0Adqu__kS7HiMH_ux3iz9ADVFWpdKuJv6IWrvV-0G00]--></g></svg>