<svg xmlns="http://www.w3.org/2000/svg" xmlns:xlink="http://www.w3.org/1999/xlink" width="1247" height="1535" preserveAspectRatio="none" style="width:1247px;height:1535px"><a xlink:actuate="onRequest" xlink:href="#a" xlink:show="new" xlink:title="#resource" xlink:type="simple" target="_top"><rect id="a" width="227" height="310.758" x="67.5" y="7" fill="#3D176E" rx="2.5" ry="2.5" style="stroke:#000d19;stroke-width:.5"/><circle cx="136.25" cy="26.895" r="11" fill="#ADD1B2" style="stroke:#181818;stroke-width:1"/><path d="M139.219 32.535q-.578.297-1.219.438-.64.156-1.344.156-2.5 0-3.828-1.64-1.312-1.657-1.312-4.782t1.312-4.781q1.328-1.656 3.828-1.656.703 0 1.344.156.656.156 1.219.453v2.719q-.625-.578-1.219-.844-.594-.281-1.219-.281-1.344 0-2.031 1.078-.688 1.062-.688 3.156 0 2.094.688 3.172.688 1.062 2.031 1.062.625 0 1.219-.265.594-.281 1.219-.86v2.72Z"/><text x="161.75" y="32.78" fill="#D9B8FF" font-family="Helvetica" font-size="17" textLength="71">resource</text><path d="M68.5 46.789h225" style="stroke:#000d19;stroke-width:.5"/><text x="78.5" y="68.784" fill="#D9B8FF" font-family="sans-serif" font-size="14" font-weight="bold" textLength="14">id</text><text x="92.5" y="68.784" fill="#D9B8FF" font-family="sans-serif" font-size="14" textLength="48">: string</text><text x="78.5" y="95.081" fill="#D9B8FF" font-family="sans-serif" font-size="14" font-weight="bold" textLength="34">tags</text><text x="112.5" y="95.081" fill="#D9B8FF" font-family="sans-serif" font-size="14" textLength="171">: dictionary[string, string]</text><text x="78.5" y="121.378" fill="#D9B8FF" font-family="sans-serif" font-size="14" font-weight="bold" textLength="43">name</text><text x="121.5" y="121.378" fill="#D9B8FF" font-family="sans-serif" font-size="14" textLength="48">: string</text><text x="78.5" y="147.675" fill="#D9B8FF" font-family="sans-serif" font-size="14" font-weight="bold" textLength="43">ctime</text><text x="121.5" y="147.675" fill="#D9B8FF" font-family="sans-serif" font-size="14" textLength="70">: datetime</text><text x="78.5" y="173.972" fill="#D9B8FF" font-family="sans-serif" font-size="14" font-weight="bold" textLength="29">age</text><text x="107.5" y="173.972" fill="#D9B8FF" font-family="sans-serif" font-size="14" textLength="66">: duration</text><text x="78.5" y="200.269" fill="#D9B8FF" font-family="sans-serif" font-size="14" font-weight="bold" textLength="48">mtime</text><text x="126.5" y="200.269" fill="#D9B8FF" font-family="sans-serif" font-size="14" textLength="70">: datetime</text><text x="78.5" y="226.565" fill="#D9B8FF" font-family="sans-serif" font-size="14" font-weight="bold" textLength="90">last_update</text><text x="168.5" y="226.565" fill="#D9B8FF" font-family="sans-serif" font-size="14" textLength="66">: duration</text><text x="78.5" y="252.862" fill="#D9B8FF" font-family="sans-serif" font-size="14" font-weight="bold" textLength="43">atime</text><text x="121.5" y="252.862" fill="#D9B8FF" font-family="sans-serif" font-size="14" textLength="70">: datetime</text><text x="78.5" y="279.159" fill="#D9B8FF" font-family="sans-serif" font-size="14" font-weight="bold" textLength="90">last_access</text><text x="168.5" y="279.159" fill="#D9B8FF" font-family="sans-serif" font-size="14" textLength="66">: duration</text><text x="78.5" y="305.456" fill="#D9B8FF" font-family="sans-serif" font-size="14" font-weight="bold" textLength="33">kind</text><text x="111.5" y="305.456" fill="#D9B8FF" font-family="sans-serif" font-size="14" textLength="48">: string</text></a><a xlink:actuate="onRequest" xlink:href="#b" xlink:show="new" xlink:title="#gcp_resource" xlink:type="simple" target="_top"><rect id="b" width="348" height="152.977" x="7" y="438.76" fill="#3D176E" rx="2.5" ry="2.5" style="stroke:#000d19;stroke-width:.5"/><circle cx="117.75" cy="458.654" r="11" fill="#ADD1B2" style="stroke:#181818;stroke-width:1"/><path d="M120.719 464.295q-.578.297-1.219.438-.64.156-1.344.156-2.5 0-3.828-1.64-1.312-1.657-1.312-4.782t1.312-4.781q1.328-1.656 3.828-1.656.703 0 1.344.156.656.156 1.219.453v2.719q-.625-.579-1.219-.844-.594-.281-1.219-.281-1.344 0-2.031 1.078-.688 1.062-.688 3.156 0 2.094.688 3.172.688 1.062 2.031 1.062.625 0 1.219-.265.594-.281 1.219-.86v2.72Z"/><text x="143.25" y="464.54" fill="#D9B8FF" font-family="Helvetica" font-size="17" textLength="108">gcp_resource</text><path d="M8 478.549h346" style="stroke:#000d19;stroke-width:.5"/><text x="18" y="500.544" fill="#D9B8FF" font-family="sans-serif" font-size="14" font-weight="bold" textLength="89">description</text><text x="107" y="500.544" fill="#D9B8FF" font-family="sans-serif" font-size="14" textLength="48">: string</text><text x="18" y="526.841" fill="#D9B8FF" font-family="sans-serif" font-size="14" font-weight="bold" textLength="151">deprecation_status</text><text x="169" y="526.841" fill="#D9B8FF" font-family="sans-serif" font-size="14" textLength="175">: gcp_deprecation_status</text><text x="18" y="553.138" fill="#D9B8FF" font-family="sans-serif" font-size="14" font-weight="bold" textLength="27">link</text><text x="45" y="553.138" fill="#D9B8FF" font-family="sans-serif" font-size="14" textLength="48">: string</text><text x="18" y="579.435" fill="#D9B8FF" font-family="sans-serif" font-size="14" font-weight="bold" textLength="128">label_fingerprint</text><text x="146" y="579.435" fill="#D9B8FF" font-family="sans-serif" font-size="14" textLength="48">: string</text></a><a xlink:actuate="onRequest" xlink:href="#c" xlink:show="new" xlink:title="#gcp_deprecation_status" xlink:type="simple" target="_top"><rect id="c" width="237" height="179.273" x="27.5" y="1136.09" fill="#3D176E" rx="2.5" ry="2.5" style="stroke:#000d19;stroke-width:.5"/><circle cx="42.5" cy="1155.985" r="11" fill="#ADD1B2" style="stroke:#181818;stroke-width:1"/><path d="M45.469 1161.625q-.578.297-1.219.438-.64.156-1.344.156-2.5 0-3.828-1.64-1.312-1.657-1.312-4.782t1.312-4.781q1.328-1.657 3.828-1.657.703 0 1.344.157.656.156 1.219.453v2.719q-.625-.579-1.219-.844-.594-.281-1.219-.281-1.343 0-2.031 1.078-.688 1.062-.688 3.156 0 2.094.688 3.172.688 1.062 2.031 1.062.625 0 1.219-.265.594-.282 1.219-.86v2.72Z"/><text x="61.5" y="1161.87" fill="#D9B8FF" font-family="Helvetica" font-size="17" textLength="195">gcp_deprecation_status</text><path d="M28.5 1175.879h235" style="stroke:#000d19;stroke-width:.5"/><text x="38.5" y="1197.874" fill="#D9B8FF" font-family="sans-serif" font-size="14" font-weight="bold" textLength="60">deleted</text><text x="98.5" y="1197.874" fill="#D9B8FF" font-family="sans-serif" font-size="14" textLength="48">: string</text><text x="38.5" y="1224.171" fill="#D9B8FF" font-family="sans-serif" font-size="14" font-weight="bold" textLength="91">deprecated</text><text x="129.5" y="1224.171" fill="#D9B8FF" font-family="sans-serif" font-size="14" textLength="48">: string</text><text x="38.5" y="1250.468" fill="#D9B8FF" font-family="sans-serif" font-size="14" font-weight="bold" textLength="69">obsolete</text><text x="107.5" y="1250.468" fill="#D9B8FF" font-family="sans-serif" font-size="14" textLength="48">: string</text><text x="38.5" y="1276.765" fill="#D9B8FF" font-family="sans-serif" font-size="14" font-weight="bold" textLength="99">replacement</text><text x="137.5" y="1276.765" fill="#D9B8FF" font-family="sans-serif" font-size="14" textLength="48">: string</text><text x="38.5" y="1303.062" fill="#D9B8FF" font-family="sans-serif" font-size="14" font-weight="bold" textLength="40">state</text><text x="78.5" y="1303.062" fill="#D9B8FF" font-family="sans-serif" font-size="14" textLength="48">: string</text></a><a xlink:actuate="onRequest" xlink:href="#d" xlink:show="new" xlink:title="#gcp_container_status" xlink:type="simple" target="_top"><rect id="d" width="240" height="126.68" x="300" y="1162.39" fill="#3D176E" rx="2.5" ry="2.5" style="stroke:#000d19;stroke-width:.5"/><circle cx="324.9" cy="1182.284" r="11" fill="#ADD1B2" style="stroke:#181818;stroke-width:1"/><path d="M327.869 1187.925q-.578.297-1.219.438-.64.156-1.344.156-2.5 0-3.828-1.64-1.312-1.657-1.312-4.782t1.312-4.781q1.328-1.657 3.828-1.657.703 0 1.344.157.656.156 1.219.453v2.719q-.625-.579-1.219-.844-.594-.281-1.219-.281-1.344 0-2.031 1.078-.688 1.062-.688 3.156 0 2.094.688 3.172.688 1.062 2.031 1.062.625 0 1.219-.265.594-.282 1.219-.86v2.72Z"/><text x="346.1" y="1188.17" fill="#D9B8FF" font-family="Helvetica" font-size="17" textLength="176">gcp_container_status</text><path d="M301 1202.179h238" style="stroke:#000d19;stroke-width:.5"/><text x="311" y="1224.174" fill="#D9B8FF" font-family="sans-serif" font-size="14" font-weight="bold" textLength="39">code</text><text x="350" y="1224.174" fill="#D9B8FF" font-family="sans-serif" font-size="14" textLength="44">: int64</text><text x="311" y="1250.471" fill="#D9B8FF" font-family="sans-serif" font-size="14" font-weight="bold" textLength="52">details</text><text x="363" y="1250.471" fill="#D9B8FF" font-family="sans-serif" font-size="14" textLength="166">: dictionary[string, any][]</text><text x="311" y="1276.768" fill="#D9B8FF" font-family="sans-serif" font-size="14" font-weight="bold" textLength="71">message</text><text x="382" y="1276.768" fill="#D9B8FF" font-family="sans-serif" font-size="14" textLength="48">: string</text></a><a xlink:actuate="onRequest" xlink:href="#e" xlink:show="new" xlink:title="#gcp_container_status_condition" xlink:type="simple" target="_top"><rect id="e" width="304" height="126.68" x="575" y="1162.39" fill="#3D176E" rx="2.5" ry="2.5" style="stroke:#000d19;stroke-width:.5"/><circle cx="590" cy="1182.284" r="11" fill="#ADD1B2" style="stroke:#181818;stroke-width:1"/><path d="M592.969 1187.925q-.578.297-1.219.438-.64.156-1.344.156-2.5 0-3.828-1.64-1.312-1.657-1.312-4.782t1.312-4.781q1.328-1.657 3.828-1.657.703 0 1.344.157.656.156 1.219.453v2.719q-.625-.579-1.219-.844-.594-.281-1.219-.281-1.343 0-2.031 1.078-.688 1.062-.688 3.156 0 2.094.688 3.172.688 1.062 2.031 1.062.625 0 1.219-.265.594-.282 1.219-.86v2.72Z"/><text x="609" y="1188.17" fill="#D9B8FF" font-family="Helvetica" font-size="17" textLength="262">gcp_container_status_condition</text><path d="M576 1202.179h302" style="stroke:#000d19;stroke-width:.5"/><text x="586" y="1224.174" fill="#D9B8FF" font-family="sans-serif" font-size="14" font-weight="bold" textLength="120">canonical_code</text><text x="706" y="1224.174" fill="#D9B8FF" font-family="sans-serif" font-size="14" textLength="48">: string</text><text x="586" y="1250.471" fill="#D9B8FF" font-family="sans-serif" font-size="14" font-weight="bold" textLength="39">code</text><text x="625" y="1250.471" fill="#D9B8FF" font-family="sans-serif" font-size="14" textLength="48">: string</text><text x="586" y="1276.768" fill="#D9B8FF" font-family="sans-serif" font-size="14" font-weight="bold" textLength="71">message</text><text x="657" y="1276.768" fill="#D9B8FF" font-family="sans-serif" font-size="14" textLength="48">: string</text></a><a xlink:actuate="onRequest" xlink:href="#f" xlink:show="new" xlink:title="#gcp_container_operation" xlink:type="simple" target="_top"><rect id="f" width="508" height="363.352" x="199" y="712.74" fill="#3D176E" rx="2.5" ry="2.5" style="stroke:#000d19;stroke-width:.5"/><circle cx="341.25" cy="732.635" r="11" fill="#ADD1B2" style="stroke:#181818;stroke-width:1"/><path d="M344.219 738.275q-.578.297-1.219.438-.64.156-1.344.156-2.5 0-3.828-1.64-1.312-1.657-1.312-4.782t1.312-4.781q1.328-1.657 3.828-1.657.703 0 1.344.157.656.156 1.219.453v2.719q-.625-.578-1.219-.844-.594-.281-1.219-.281-1.344 0-2.031 1.078-.688 1.062-.688 3.156 0 2.094.688 3.172.688 1.062 2.031 1.062.625 0 1.219-.265.594-.282 1.219-.86v2.72Z"/><text x="366.75" y="738.52" fill="#D9B8FF" font-family="Helvetica" font-size="17" textLength="205">gcp_container_operation</text><path d="M200 752.529h506" style="stroke:#000d19;stroke-width:.5"/><text x="210" y="774.524" fill="#D9B8FF" font-family="sans-serif" font-size="14" font-weight="bold" textLength="144">cluster_conditions</text><text x="354" y="774.524" fill="#D9B8FF" font-family="sans-serif" font-size="14" textLength="238">: gcp_container_status_condition[]</text><text x="210" y="800.821" fill="#D9B8FF" font-family="sans-serif" font-size="14" font-weight="bold" textLength="43">detail</text><text x="253" y="800.821" fill="#D9B8FF" font-family="sans-serif" font-size="14" textLength="48">: string</text><text x="210" y="827.118" fill="#D9B8FF" font-family="sans-serif" font-size="14" font-weight="bold" textLength="71">end_time</text><text x="281" y="827.118" fill="#D9B8FF" font-family="sans-serif" font-size="14" textLength="70">: datetime</text><text x="210" y="853.415" fill="#D9B8FF" font-family="sans-serif" font-size="14" font-weight="bold" textLength="206">container_operation_error</text><text x="416" y="853.415" fill="#D9B8FF" font-family="sans-serif" font-size="14" textLength="157">: gcp_container_status</text><text x="210" y="879.712" fill="#D9B8FF" font-family="sans-serif" font-size="14" font-weight="bold" textLength="62">location</text><text x="272" y="879.712" fill="#D9B8FF" font-family="sans-serif" font-size="14" textLength="48">: string</text><text x="210" y="906.009" fill="#D9B8FF" font-family="sans-serif" font-size="14" font-weight="bold" textLength="163">nodepool_conditions</text><text x="373" y="906.009" fill="#D9B8FF" font-family="sans-serif" font-size="14" textLength="238">: gcp_container_status_condition[]</text><text x="210" y="932.305" fill="#D9B8FF" font-family="sans-serif" font-size="14" font-weight="bold" textLength="118">operation_type</text><text x="328" y="932.305" fill="#D9B8FF" font-family="sans-serif" font-size="14" textLength="48">: string</text><text x="210" y="958.602" fill="#D9B8FF" font-family="sans-serif" font-size="14" font-weight="bold" textLength="237">container_operation_progress</text><text x="447" y="958.602" fill="#D9B8FF" font-family="sans-serif" font-size="14" textLength="249">: gcp_container_operation_progress</text><text x="210" y="984.899" fill="#D9B8FF" font-family="sans-serif" font-size="14" font-weight="bold" textLength="78">start_time</text><text x="288" y="984.899" fill="#D9B8FF" font-family="sans-serif" font-size="14" textLength="70">: datetime</text><text x="210" y="1011.196" fill="#D9B8FF" font-family="sans-serif" font-size="14" font-weight="bold" textLength="49">status</text><text x="259" y="1011.196" fill="#D9B8FF" font-family="sans-serif" font-size="14" textLength="48">: string</text><text x="210" y="1037.493" fill="#D9B8FF" font-family="sans-serif" font-size="14" font-weight="bold" textLength="127">status_message</text><text x="337" y="1037.493" fill="#D9B8FF" font-family="sans-serif" font-size="14" textLength="48">: string</text><text x="210" y="1063.79" fill="#D9B8FF" font-family="sans-serif" font-size="14" font-weight="bold" textLength="82">target_link</text><text x="292" y="1063.79" fill="#D9B8FF" font-family="sans-serif" font-size="14" textLength="48">: string</text></a><a xlink:actuate="onRequest" xlink:href="#g" xlink:show="new" xlink:title="#gcp_container_metric" xlink:type="simple" target="_top"><rect id="g" width="221" height="152.977" x="966.5" y="1375.36" fill="#3D176E" rx="2.5" ry="2.5" style="stroke:#000d19;stroke-width:.5"/><circle cx="981.5" cy="1395.255" r="11" fill="#ADD1B2" style="stroke:#181818;stroke-width:1"/><path d="M984.469 1400.895q-.578.297-1.219.438-.64.156-1.344.156-2.5 0-3.828-1.64-1.312-1.657-1.312-4.782t1.312-4.781q1.328-1.657 3.828-1.657.703 0 1.344.157.656.156 1.219.453v2.719q-.625-.579-1.219-.844-.594-.281-1.219-.281-1.343 0-2.031 1.078-.688 1.062-.688 3.156 0 2.094.688 3.172.688 1.062 2.031 1.062.625 0 1.219-.265.594-.282 1.219-.86v2.72Z"/><text x="1000.5" y="1401.14" fill="#D9B8FF" font-family="Helvetica" font-size="17" textLength="179">gcp_container_metric</text><path d="M967.5 1415.149h219" style="stroke:#000d19;stroke-width:.5"/><text x="977.5" y="1437.144" fill="#D9B8FF" font-family="sans-serif" font-size="14" font-weight="bold" textLength="103">double_value</text><text x="1080.5" y="1437.144" fill="#D9B8FF" font-family="sans-serif" font-size="14" textLength="57">: double</text><text x="977.5" y="1463.441" fill="#D9B8FF" font-family="sans-serif" font-size="14" font-weight="bold" textLength="69">int_value</text><text x="1046.5" y="1463.441" fill="#D9B8FF" font-family="sans-serif" font-size="14" textLength="48">: string</text><text x="977.5" y="1489.738" fill="#D9B8FF" font-family="sans-serif" font-size="14" font-weight="bold" textLength="43">name</text><text x="1020.5" y="1489.738" fill="#D9B8FF" font-family="sans-serif" font-size="14" textLength="48">: string</text><text x="977.5" y="1516.035" fill="#D9B8FF" font-family="sans-serif" font-size="14" font-weight="bold" textLength="95">string_value</text><text x="1072.5" y="1516.035" fill="#D9B8FF" font-family="sans-serif" font-size="14" textLength="48">: string</text></a><a xlink:actuate="onRequest" xlink:href="#h" xlink:show="new" xlink:title="#gcp_container_operation_progress" xlink:type="simple" target="_top"><rect id="h" width="326" height="126.68" x="914" y="1162.39" fill="#3D176E" rx="2.5" ry="2.5" style="stroke:#000d19;stroke-width:.5"/><circle cx="929" cy="1182.284" r="11" fill="#ADD1B2" style="stroke:#181818;stroke-width:1"/><path d="M931.969 1187.925q-.578.297-1.219.438-.64.156-1.344.156-2.5 0-3.828-1.64-1.312-1.657-1.312-4.782t1.312-4.781q1.328-1.657 3.828-1.657.703 0 1.344.157.656.156 1.219.453v2.719q-.625-.579-1.219-.844-.594-.281-1.219-.281-1.343 0-2.031 1.078-.688 1.062-.688 3.156 0 2.094.688 3.172.688 1.062 2.031 1.062.625 0 1.219-.265.594-.282 1.219-.86v2.72Z"/><text x="948" y="1188.17" fill="#D9B8FF" font-family="Helvetica" font-size="17" textLength="284">gcp_container_operation_progress</text><path d="M915 1202.179h324" style="stroke:#000d19;stroke-width:.5"/><text x="925" y="1224.174" fill="#D9B8FF" font-family="sans-serif" font-size="14" font-weight="bold" textLength="59">metrics</text><text x="984" y="1224.174" fill="#D9B8FF" font-family="sans-serif" font-size="14" textLength="167">: gcp_container_metric[]</text><text x="925" y="1250.471" fill="#D9B8FF" font-family="sans-serif" font-size="14" font-weight="bold" textLength="43">name</text><text x="968" y="1250.471" fill="#D9B8FF" font-family="sans-serif" font-size="14" textLength="48">: string</text><text x="925" y="1276.768" fill="#D9B8FF" font-family="sans-serif" font-size="14" font-weight="bold" textLength="49">status</text><text x="974" y="1276.768" fill="#D9B8FF" font-family="sans-serif" font-size="14" textLength="48">: string</text></a><path fill="none" d="M181 338.66v99.65m-7-99.27 7-20 7 20h-14zm3.25 253.03c-6.42 130.1-19.54 395.54-26.56 537.73" style="stroke:#ffaf37;stroke-width:2"/><path fill="#FFAF37" d="m150.4 1134.64 4.432-8.795-4.19 3.8-3.8-4.188 3.558 9.183z" style="stroke:#ffaf37;stroke-width:2"/><path fill="none" d="M247.9 609.02c22.62 31.36 48.71 67.54 74.54 103.36m-80.7-98.94-6.02-20.32 17.37 12.13-11.35 8.19zm361.89 463.01c24.11 28.98 47.66 57.28 67.61 81.26" style="stroke:#ffaf37;stroke-width:2"/><path fill="#FFAF37" d="m674.92 1161.13-2.685-9.476-.514 5.634-5.634-.514 8.833 4.356z" style="stroke:#ffaf37;stroke-width:2"/><path fill="none" d="M434.86 1076.45c-2.85 28.38-5.62 56.11-7.99 79.76" style="stroke:#ffaf37;stroke-width:2"/><path fill="#FFAF37" d="m426.27 1161.13 4.856-8.568-4.37 3.592-3.592-4.37 3.106 9.346z" style="stroke:#ffaf37;stroke-width:2"/><path fill="none" d="M707.25 1029.6c84.8 44.75 175.49 92.61 245.84 129.73" style="stroke:#ffaf37;stroke-width:2"/><path fill="#FFAF37" d="m957.11 1161.99-6.104-7.729 1.678 5.402-5.401 1.679 9.827.648z" style="stroke:#ffaf37;stroke-width:2"/><path fill="none" d="M284.23 1076.45c-17.87 19.17-35.47 38.05-51.81 55.57" style="stroke:#ffaf37;stroke-width:2"/><path fill="#FFAF37" d="m229.74 1134.97 9.066-3.849-5.654.194-.194-5.653-3.218 9.308z" style="stroke:#ffaf37;stroke-width:2"/><path fill="none" d="M1077 1289.46v79.62" style="stroke:#ffaf37;stroke-width:2"/><path fill="#FFAF37" d="m1077 1373.99 4-9-4 4-4-4 4 9z" style="stroke:#ffaf37;stroke-width:2"/></svg>