<svg xmlns="http://www.w3.org/2000/svg" xmlns:xlink="http://www.w3.org/1999/xlink" width="1113" height="3023" preserveAspectRatio="none" style="width:1113px;height:3023px"><a xlink:actuate="onRequest" xlink:href="#a" xlink:show="new" xlink:title="#resource" xlink:type="simple" target="_top"><rect id="a" width="227" height="310.758" x="320" y="7" fill="#3D176E" rx="2.5" ry="2.5" style="stroke:#000d19;stroke-width:.5"/><circle cx="388.75" cy="26.895" r="11" fill="#ADD1B2" style="stroke:#181818;stroke-width:1"/><path d="M391.719 32.535q-.578.297-1.219.438-.64.156-1.344.156-2.5 0-3.828-1.64-1.312-1.657-1.312-4.782t1.312-4.781q1.328-1.656 3.828-1.656.703 0 1.344.156.656.156 1.219.453v2.719q-.625-.578-1.219-.844-.594-.281-1.219-.281-1.344 0-2.031 1.078-.688 1.062-.688 3.156 0 2.094.688 3.172.688 1.062 2.031 1.062.625 0 1.219-.265.594-.281 1.219-.86v2.72Z"/><text x="414.25" y="32.78" fill="#D9B8FF" font-family="Helvetica" font-size="17" textLength="71">resource</text><path d="M321 46.789h225" style="stroke:#000d19;stroke-width:.5"/><text x="331" y="68.784" fill="#D9B8FF" font-family="sans-serif" font-size="14" font-weight="bold" textLength="14">id</text><text x="345" y="68.784" fill="#D9B8FF" font-family="sans-serif" font-size="14" textLength="48">: string</text><text x="331" y="95.081" fill="#D9B8FF" font-family="sans-serif" font-size="14" font-weight="bold" textLength="34">tags</text><text x="365" y="95.081" fill="#D9B8FF" font-family="sans-serif" font-size="14" textLength="171">: dictionary[string, string]</text><text x="331" y="121.378" fill="#D9B8FF" font-family="sans-serif" font-size="14" font-weight="bold" textLength="43">name</text><text x="374" y="121.378" fill="#D9B8FF" font-family="sans-serif" font-size="14" textLength="48">: string</text><text x="331" y="147.675" fill="#D9B8FF" font-family="sans-serif" font-size="14" font-weight="bold" textLength="43">ctime</text><text x="374" y="147.675" fill="#D9B8FF" font-family="sans-serif" font-size="14" textLength="70">: datetime</text><text x="331" y="173.972" fill="#D9B8FF" font-family="sans-serif" font-size="14" font-weight="bold" textLength="29">age</text><text x="360" y="173.972" fill="#D9B8FF" font-family="sans-serif" font-size="14" textLength="66">: duration</text><text x="331" y="200.269" fill="#D9B8FF" font-family="sans-serif" font-size="14" font-weight="bold" textLength="48">mtime</text><text x="379" y="200.269" fill="#D9B8FF" font-family="sans-serif" font-size="14" textLength="70">: datetime</text><text x="331" y="226.565" fill="#D9B8FF" font-family="sans-serif" font-size="14" font-weight="bold" textLength="90">last_update</text><text x="421" y="226.565" fill="#D9B8FF" font-family="sans-serif" font-size="14" textLength="66">: duration</text><text x="331" y="252.862" fill="#D9B8FF" font-family="sans-serif" font-size="14" font-weight="bold" textLength="43">atime</text><text x="374" y="252.862" fill="#D9B8FF" font-family="sans-serif" font-size="14" textLength="70">: datetime</text><text x="331" y="279.159" fill="#D9B8FF" font-family="sans-serif" font-size="14" font-weight="bold" textLength="90">last_access</text><text x="421" y="279.159" fill="#D9B8FF" font-family="sans-serif" font-size="14" textLength="66">: duration</text><text x="331" y="305.456" fill="#D9B8FF" font-family="sans-serif" font-size="14" font-weight="bold" textLength="33">kind</text><text x="364" y="305.456" fill="#D9B8FF" font-family="sans-serif" font-size="14" textLength="48">: string</text></a><a xlink:actuate="onRequest" xlink:href="#b" xlink:show="new" xlink:title="#github_repo" xlink:type="simple" target="_top"><rect id="b" width="318" height="2177.836" x="392.5" y="438.76" fill="#3D176E" rx="2.5" ry="2.5" style="stroke:#000d19;stroke-width:.5"/><circle cx="492.25" cy="458.654" r="11" fill="#ADD1B2" style="stroke:#181818;stroke-width:1"/><path d="M495.219 464.295q-.578.297-1.219.438-.64.156-1.344.156-2.5 0-3.828-1.64-1.312-1.657-1.312-4.782t1.312-4.781q1.328-1.656 3.828-1.656.703 0 1.344.156.656.156 1.219.453v2.719q-.625-.579-1.219-.844-.594-.281-1.219-.281-1.344 0-2.031 1.078-.688 1.062-.688 3.156 0 2.094.688 3.172.688 1.062 2.031 1.062.625 0 1.219-.265.594-.281 1.219-.86v2.72Z"/><text x="517.75" y="464.54" fill="#D9B8FF" font-family="Helvetica" font-size="17" textLength="100">github_repo</text><path d="M393.5 478.549h316" style="stroke:#000d19;stroke-width:.5"/><text x="403.5" y="500.544" fill="#D9B8FF" font-family="sans-serif" font-size="14" font-weight="bold" textLength="163">allow_merge_commit</text><text x="566.5" y="500.544" fill="#D9B8FF" font-family="sans-serif" font-size="14" textLength="65">: boolean</text><text x="403.5" y="526.841" fill="#D9B8FF" font-family="sans-serif" font-size="14" font-weight="bold" textLength="161">allow_rebase_merge</text><text x="564.5" y="526.841" fill="#D9B8FF" font-family="sans-serif" font-size="14" textLength="65">: boolean</text><text x="403.5" y="553.138" fill="#D9B8FF" font-family="sans-serif" font-size="14" font-weight="bold" textLength="163">allow_squash_merge</text><text x="566.5" y="553.138" fill="#D9B8FF" font-family="sans-serif" font-size="14" textLength="65">: boolean</text><text x="403.5" y="579.435" fill="#D9B8FF" font-family="sans-serif" font-size="14" font-weight="bold" textLength="68">archived</text><text x="471.5" y="579.435" fill="#D9B8FF" font-family="sans-serif" font-size="14" textLength="65">: boolean</text><text x="403.5" y="605.732" fill="#D9B8FF" font-family="sans-serif" font-size="14" font-weight="bold" textLength="86">archive_url</text><text x="489.5" y="605.732" fill="#D9B8FF" font-family="sans-serif" font-size="14" textLength="48">: string</text><text x="403.5" y="632.029" fill="#D9B8FF" font-family="sans-serif" font-size="14" font-weight="bold" textLength="108">assignees_url</text><text x="511.5" y="632.029" fill="#D9B8FF" font-family="sans-serif" font-size="14" textLength="48">: string</text><text x="403.5" y="658.325" fill="#D9B8FF" font-family="sans-serif" font-size="14" font-weight="bold" textLength="71">blobs_url</text><text x="474.5" y="658.325" fill="#D9B8FF" font-family="sans-serif" font-size="14" textLength="48">: string</text><text x="403.5" y="684.622" fill="#D9B8FF" font-family="sans-serif" font-size="14" font-weight="bold" textLength="102">branches_url</text><text x="505.5" y="684.622" fill="#D9B8FF" font-family="sans-serif" font-size="14" textLength="48">: string</text><text x="403.5" y="710.919" fill="#D9B8FF" font-family="sans-serif" font-size="14" font-weight="bold" textLength="71">clone_url</text><text x="474.5" y="710.919" fill="#D9B8FF" font-family="sans-serif" font-size="14" textLength="48">: string</text><text x="403.5" y="737.216" fill="#D9B8FF" font-family="sans-serif" font-size="14" font-weight="bold" textLength="106">clones_traffic</text><text x="509.5" y="737.216" fill="#D9B8FF" font-family="sans-serif" font-size="14" textLength="189">: github_repo_clones_traffic</text><text x="403.5" y="763.513" fill="#D9B8FF" font-family="sans-serif" font-size="14" font-weight="bold" textLength="132">collaborators_url</text><text x="535.5" y="763.513" fill="#D9B8FF" font-family="sans-serif" font-size="14" textLength="48">: string</text><text x="403.5" y="789.81" fill="#D9B8FF" font-family="sans-serif" font-size="14" font-weight="bold" textLength="110">comments_url</text><text x="513.5" y="789.81" fill="#D9B8FF" font-family="sans-serif" font-size="14" textLength="48">: string</text><text x="403.5" y="816.107" fill="#D9B8FF" font-family="sans-serif" font-size="14" font-weight="bold" textLength="94">commits_url</text><text x="497.5" y="816.107" fill="#D9B8FF" font-family="sans-serif" font-size="14" textLength="48">: string</text><text x="403.5" y="842.404" fill="#D9B8FF" font-family="sans-serif" font-size="14" font-weight="bold" textLength="97">compare_url</text><text x="500.5" y="842.404" fill="#D9B8FF" font-family="sans-serif" font-size="14" textLength="48">: string</text><text x="403.5" y="868.7" fill="#D9B8FF" font-family="sans-serif" font-size="14" font-weight="bold" textLength="98">contents_url</text><text x="501.5" y="868.7" fill="#D9B8FF" font-family="sans-serif" font-size="14" textLength="48">: string</text><text x="403.5" y="894.997" fill="#D9B8FF" font-family="sans-serif" font-size="14" font-weight="bold" textLength="150">contributors_count</text><text x="553.5" y="894.997" fill="#D9B8FF" font-family="sans-serif" font-size="14" textLength="44">: int64</text><text x="403.5" y="921.294" fill="#D9B8FF" font-family="sans-serif" font-size="14" font-weight="bold" textLength="126">contributors_url</text><text x="529.5" y="921.294" fill="#D9B8FF" font-family="sans-serif" font-size="14" textLength="48">: string</text><text x="403.5" y="947.591" fill="#D9B8FF" font-family="sans-serif" font-size="14" font-weight="bold" textLength="83">created_at</text><text x="486.5" y="947.591" fill="#D9B8FF" font-family="sans-serif" font-size="14" textLength="70">: datetime</text><text x="403.5" y="973.888" fill="#D9B8FF" font-family="sans-serif" font-size="14" font-weight="bold" textLength="117">default_branch</text><text x="520.5" y="973.888" fill="#D9B8FF" font-family="sans-serif" font-size="14" textLength="48">: string</text><text x="403.5" y="1000.185" fill="#D9B8FF" font-family="sans-serif" font-size="14" font-weight="bold" textLength="197">delete_branch_on_merge</text><text x="600.5" y="1000.185" fill="#D9B8FF" font-family="sans-serif" font-size="14" textLength="65">: boolean</text><text x="403.5" y="1026.482" fill="#D9B8FF" font-family="sans-serif" font-size="14" font-weight="bold" textLength="130">deployments_url</text><text x="533.5" y="1026.482" fill="#D9B8FF" font-family="sans-serif" font-size="14" textLength="48">: string</text><text x="403.5" y="1052.779" fill="#D9B8FF" font-family="sans-serif" font-size="14" font-weight="bold" textLength="89">description</text><text x="492.5" y="1052.779" fill="#D9B8FF" font-family="sans-serif" font-size="14" textLength="48">: string</text><text x="403.5" y="1079.075" fill="#D9B8FF" font-family="sans-serif" font-size="14" font-weight="bold" textLength="114">downloads_url</text><text x="517.5" y="1079.075" fill="#D9B8FF" font-family="sans-serif" font-size="14" textLength="48">: string</text><text x="403.5" y="1105.372" fill="#D9B8FF" font-family="sans-serif" font-size="14" font-weight="bold" textLength="82">events_url</text><text x="485.5" y="1105.372" fill="#D9B8FF" font-family="sans-serif" font-size="14" textLength="48">: string</text><text x="403.5" y="1131.669" fill="#D9B8FF" font-family="sans-serif" font-size="14" font-weight="bold" textLength="32">fork</text><text x="435.5" y="1131.669" fill="#D9B8FF" font-family="sans-serif" font-size="14" textLength="65">: boolean</text><text x="403.5" y="1157.966" fill="#D9B8FF" font-family="sans-serif" font-size="14" font-weight="bold" textLength="41">forks</text><text x="444.5" y="1157.966" fill="#D9B8FF" font-family="sans-serif" font-size="14" textLength="44">: int64</text><text x="403.5" y="1184.263" fill="#D9B8FF" font-family="sans-serif" font-size="14" font-weight="bold" textLength="93">forks_count</text><text x="496.5" y="1184.263" fill="#D9B8FF" font-family="sans-serif" font-size="14" textLength="44">: int64</text><text x="403.5" y="1210.56" fill="#D9B8FF" font-family="sans-serif" font-size="14" font-weight="bold" textLength="69">forks_url</text><text x="472.5" y="1210.56" fill="#D9B8FF" font-family="sans-serif" font-size="14" textLength="48">: string</text><text x="403.5" y="1236.857" fill="#D9B8FF" font-family="sans-serif" font-size="14" font-weight="bold" textLength="74">full_name</text><text x="477.5" y="1236.857" fill="#D9B8FF" font-family="sans-serif" font-size="14" textLength="48">: string</text><text x="403.5" y="1263.154" fill="#D9B8FF" font-family="sans-serif" font-size="14" font-weight="bold" textLength="121">git_commits_url</text><text x="524.5" y="1263.154" fill="#D9B8FF" font-family="sans-serif" font-size="14" textLength="48">: string</text><text x="403.5" y="1289.45" fill="#D9B8FF" font-family="sans-serif" font-size="14" font-weight="bold" textLength="87">git_refs_url</text><text x="490.5" y="1289.45" fill="#D9B8FF" font-family="sans-serif" font-size="14" textLength="48">: string</text><text x="403.5" y="1315.747" fill="#D9B8FF" font-family="sans-serif" font-size="14" font-weight="bold" textLength="89">git_tags_url</text><text x="492.5" y="1315.747" fill="#D9B8FF" font-family="sans-serif" font-size="14" textLength="48">: string</text><text x="403.5" y="1342.044" fill="#D9B8FF" font-family="sans-serif" font-size="14" font-weight="bold" textLength="48">git_url</text><text x="451.5" y="1342.044" fill="#D9B8FF" font-family="sans-serif" font-size="14" textLength="48">: string</text><text x="403.5" y="1368.341" fill="#D9B8FF" font-family="sans-serif" font-size="14" font-weight="bold" textLength="121">has_downloads</text><text x="524.5" y="1368.341" fill="#D9B8FF" font-family="sans-serif" font-size="14" textLength="65">: boolean</text><text x="403.5" y="1394.638" fill="#D9B8FF" font-family="sans-serif" font-size="14" font-weight="bold" textLength="86">has_issues</text><text x="489.5" y="1394.638" fill="#D9B8FF" font-family="sans-serif" font-size="14" textLength="65">: boolean</text><text x="403.5" y="1420.935" fill="#D9B8FF" font-family="sans-serif" font-size="14" font-weight="bold" textLength="83">has_pages</text><text x="486.5" y="1420.935" fill="#D9B8FF" font-family="sans-serif" font-size="14" textLength="65">: boolean</text><text x="403.5" y="1447.232" fill="#D9B8FF" font-family="sans-serif" font-size="14" font-weight="bold" textLength="100">has_projects</text><text x="503.5" y="1447.232" fill="#D9B8FF" font-family="sans-serif" font-size="14" textLength="65">: boolean</text><text x="403.5" y="1473.529" fill="#D9B8FF" font-family="sans-serif" font-size="14" font-weight="bold" textLength="66">has_wiki</text><text x="469.5" y="1473.529" fill="#D9B8FF" font-family="sans-serif" font-size="14" textLength="65">: boolean</text><text x="403.5" y="1499.825" fill="#D9B8FF" font-family="sans-serif" font-size="14" font-weight="bold" textLength="83">homepage</text><text x="486.5" y="1499.825" fill="#D9B8FF" font-family="sans-serif" font-size="14" textLength="48">: string</text><text x="403.5" y="1526.122" fill="#D9B8FF" font-family="sans-serif" font-size="14" font-weight="bold" textLength="76">hooks_url</text><text x="479.5" y="1526.122" fill="#D9B8FF" font-family="sans-serif" font-size="14" textLength="48">: string</text><text x="403.5" y="1552.419" fill="#D9B8FF" font-family="sans-serif" font-size="14" font-weight="bold" textLength="62">html_url</text><text x="465.5" y="1552.419" fill="#D9B8FF" font-family="sans-serif" font-size="14" textLength="48">: string</text><text x="403.5" y="1578.716" fill="#D9B8FF" font-family="sans-serif" font-size="14" font-weight="bold" textLength="58">repo_id</text><text x="461.5" y="1578.716" fill="#D9B8FF" font-family="sans-serif" font-size="14" textLength="44">: int64</text><text x="403.5" y="1605.013" fill="#D9B8FF" font-family="sans-serif" font-size="14" font-weight="bold" textLength="150">issue_comment_url</text><text x="553.5" y="1605.013" fill="#D9B8FF" font-family="sans-serif" font-size="14" textLength="48">: string</text><text x="403.5" y="1631.31" fill="#D9B8FF" font-family="sans-serif" font-size="14" font-weight="bold" textLength="131">issue_events_url</text><text x="534.5" y="1631.31" fill="#D9B8FF" font-family="sans-serif" font-size="14" textLength="48">: string</text><text x="403.5" y="1657.607" fill="#D9B8FF" font-family="sans-serif" font-size="14" font-weight="bold" textLength="79">issues_url</text><text x="482.5" y="1657.607" fill="#D9B8FF" font-family="sans-serif" font-size="14" textLength="48">: string</text><text x="403.5" y="1683.904" fill="#D9B8FF" font-family="sans-serif" font-size="14" font-weight="bold" textLength="65">keys_url</text><text x="468.5" y="1683.904" fill="#D9B8FF" font-family="sans-serif" font-size="14" textLength="48">: string</text><text x="403.5" y="1710.2" fill="#D9B8FF" font-family="sans-serif" font-size="14" font-weight="bold" textLength="74">labels_url</text><text x="477.5" y="1710.2" fill="#D9B8FF" font-family="sans-serif" font-size="14" textLength="48">: string</text><text x="403.5" y="1736.497" fill="#D9B8FF" font-family="sans-serif" font-size="14" font-weight="bold" textLength="72">language</text><text x="475.5" y="1736.497" fill="#D9B8FF" font-family="sans-serif" font-size="14" textLength="48">: string</text><text x="403.5" y="1762.794" fill="#D9B8FF" font-family="sans-serif" font-size="14" font-weight="bold" textLength="109">languages_url</text><text x="512.5" y="1762.794" fill="#D9B8FF" font-family="sans-serif" font-size="14" textLength="48">: string</text><text x="403.5" y="1789.091" fill="#D9B8FF" font-family="sans-serif" font-size="14" font-weight="bold" textLength="117">master_branch</text><text x="520.5" y="1789.091" fill="#D9B8FF" font-family="sans-serif" font-size="14" textLength="48">: string</text><text x="403.5" y="1815.388" fill="#D9B8FF" font-family="sans-serif" font-size="14" font-weight="bold" textLength="88">merges_url</text><text x="491.5" y="1815.388" fill="#D9B8FF" font-family="sans-serif" font-size="14" textLength="48">: string</text><text x="403.5" y="1841.685" fill="#D9B8FF" font-family="sans-serif" font-size="14" font-weight="bold" textLength="114">milestones_url</text><text x="517.5" y="1841.685" fill="#D9B8FF" font-family="sans-serif" font-size="14" textLength="48">: string</text><text x="403.5" y="1867.982" fill="#D9B8FF" font-family="sans-serif" font-size="14" font-weight="bold" textLength="77">mirror_url</text><text x="480.5" y="1867.982" fill="#D9B8FF" font-family="sans-serif" font-size="14" textLength="48">: string</text><text x="403.5" y="1894.279" fill="#D9B8FF" font-family="sans-serif" font-size="14" font-weight="bold" textLength="43">name</text><text x="446.5" y="1894.279" fill="#D9B8FF" font-family="sans-serif" font-size="14" textLength="48">: string</text><text x="403.5" y="1920.575" fill="#D9B8FF" font-family="sans-serif" font-size="14" font-weight="bold" textLength="118">network_count</text><text x="521.5" y="1920.575" fill="#D9B8FF" font-family="sans-serif" font-size="14" textLength="44">: int64</text><text x="403.5" y="1946.872" fill="#D9B8FF" font-family="sans-serif" font-size="14" font-weight="bold" textLength="125">notifications_url</text><text x="528.5" y="1946.872" fill="#D9B8FF" font-family="sans-serif" font-size="14" textLength="48">: string</text><text x="403.5" y="1973.169" fill="#D9B8FF" font-family="sans-serif" font-size="14" font-weight="bold" textLength="98">open_issues</text><text x="501.5" y="1973.169" fill="#D9B8FF" font-family="sans-serif" font-size="14" textLength="44">: int64</text><text x="403.5" y="1999.466" fill="#D9B8FF" font-family="sans-serif" font-size="14" font-weight="bold" textLength="150">open_issues_count</text><text x="553.5" y="1999.466" fill="#D9B8FF" font-family="sans-serif" font-size="14" textLength="44">: int64</text><text x="403.5" y="2025.763" fill="#D9B8FF" font-family="sans-serif" font-size="14" font-weight="bold" textLength="55">private</text><text x="458.5" y="2025.763" fill="#D9B8FF" font-family="sans-serif" font-size="14" textLength="65">: boolean</text><text x="403.5" y="2052.06" fill="#D9B8FF" font-family="sans-serif" font-size="14" font-weight="bold" textLength="65">pulls_url</text><text x="468.5" y="2052.06" fill="#D9B8FF" font-family="sans-serif" font-size="14" textLength="48">: string</text><text x="403.5" y="2078.357" fill="#D9B8FF" font-family="sans-serif" font-size="14" font-weight="bold" textLength="81">pushed_at</text><text x="484.5" y="2078.357" fill="#D9B8FF" font-family="sans-serif" font-size="14" textLength="70">: datetime</text><text x="403.5" y="2104.654" fill="#D9B8FF" font-family="sans-serif" font-size="14" font-weight="bold" textLength="96">releases_url</text><text x="499.5" y="2104.654" fill="#D9B8FF" font-family="sans-serif" font-size="14" textLength="48">: string</text><text x="403.5" y="2130.95" fill="#D9B8FF" font-family="sans-serif" font-size="14" font-weight="bold" textLength="32">size</text><text x="435.5" y="2130.95" fill="#D9B8FF" font-family="sans-serif" font-size="14" textLength="44">: int64</text><text x="403.5" y="2157.247" fill="#D9B8FF" font-family="sans-serif" font-size="14" font-weight="bold" textLength="56">ssh_url</text><text x="459.5" y="2157.247" fill="#D9B8FF" font-family="sans-serif" font-size="14" textLength="48">: string</text><text x="403.5" y="2183.544" fill="#D9B8FF" font-family="sans-serif" font-size="14" font-weight="bold" textLength="137">stargazers_count</text><text x="540.5" y="2183.544" fill="#D9B8FF" font-family="sans-serif" font-size="14" textLength="44">: int64</text><text x="403.5" y="2209.841" fill="#D9B8FF" font-family="sans-serif" font-size="14" font-weight="bold" textLength="113">stargazers_url</text><text x="516.5" y="2209.841" fill="#D9B8FF" font-family="sans-serif" font-size="14" textLength="48">: string</text><text x="403.5" y="2236.138" fill="#D9B8FF" font-family="sans-serif" font-size="14" font-weight="bold" textLength="96">statuses_url</text><text x="499.5" y="2236.138" fill="#D9B8FF" font-family="sans-serif" font-size="14" textLength="48">: string</text><text x="403.5" y="2262.435" fill="#D9B8FF" font-family="sans-serif" font-size="14" font-weight="bold" textLength="146">subscribers_count</text><text x="549.5" y="2262.435" fill="#D9B8FF" font-family="sans-serif" font-size="14" textLength="44">: int64</text><text x="403.5" y="2288.732" fill="#D9B8FF" font-family="sans-serif" font-size="14" font-weight="bold" textLength="122">subscribers_url</text><text x="525.5" y="2288.732" fill="#D9B8FF" font-family="sans-serif" font-size="14" textLength="48">: string</text><text x="403.5" y="2315.029" fill="#D9B8FF" font-family="sans-serif" font-size="14" font-weight="bold" textLength="126">subscription_url</text><text x="529.5" y="2315.029" fill="#D9B8FF" font-family="sans-serif" font-size="14" textLength="48">: string</text><text x="403.5" y="2341.325" fill="#D9B8FF" font-family="sans-serif" font-size="14" font-weight="bold" textLength="56">svn_url</text><text x="459.5" y="2341.325" fill="#D9B8FF" font-family="sans-serif" font-size="14" textLength="48">: string</text><text x="403.5" y="2367.622" fill="#D9B8FF" font-family="sans-serif" font-size="14" font-weight="bold" textLength="62">tags_url</text><text x="465.5" y="2367.622" fill="#D9B8FF" font-family="sans-serif" font-size="14" textLength="48">: string</text><text x="403.5" y="2393.919" fill="#D9B8FF" font-family="sans-serif" font-size="14" font-weight="bold" textLength="76">teams_url</text><text x="479.5" y="2393.919" fill="#D9B8FF" font-family="sans-serif" font-size="14" textLength="48">: string</text><text x="403.5" y="2420.216" fill="#D9B8FF" font-family="sans-serif" font-size="14" font-weight="bold" textLength="77">top_paths</text><text x="480.5" y="2420.216" fill="#D9B8FF" font-family="sans-serif" font-size="14" textLength="170">: github_repo_top_path[]</text><text x="403.5" y="2446.513" fill="#D9B8FF" font-family="sans-serif" font-size="14" font-weight="bold" textLength="106">top_referrers</text><text x="509.5" y="2446.513" fill="#D9B8FF" font-family="sans-serif" font-size="14" textLength="190">: github_repo_top_referrer[]</text><text x="403.5" y="2472.81" fill="#D9B8FF" font-family="sans-serif" font-size="14" font-weight="bold" textLength="70">trees_url</text><text x="473.5" y="2472.81" fill="#D9B8FF" font-family="sans-serif" font-size="14" textLength="48">: string</text><text x="403.5" y="2499.107" fill="#D9B8FF" font-family="sans-serif" font-size="14" font-weight="bold" textLength="87">updated_at</text><text x="490.5" y="2499.107" fill="#D9B8FF" font-family="sans-serif" font-size="14" textLength="70">: datetime</text><text x="403.5" y="2525.404" fill="#D9B8FF" font-family="sans-serif" font-size="14" font-weight="bold" textLength="21">url</text><text x="424.5" y="2525.404" fill="#D9B8FF" font-family="sans-serif" font-size="14" textLength="48">: string</text><text x="403.5" y="2551.7" fill="#D9B8FF" font-family="sans-serif" font-size="14" font-weight="bold" textLength="74">watchers</text><text x="477.5" y="2551.7" fill="#D9B8FF" font-family="sans-serif" font-size="14" textLength="44">: int64</text><text x="403.5" y="2577.997" fill="#D9B8FF" font-family="sans-serif" font-size="14" font-weight="bold" textLength="126">watchers_count</text><text x="529.5" y="2577.997" fill="#D9B8FF" font-family="sans-serif" font-size="14" textLength="44">: int64</text><text x="403.5" y="2604.294" fill="#D9B8FF" font-family="sans-serif" font-size="14" font-weight="bold" textLength="100">views_traffic</text><text x="503.5" y="2604.294" fill="#D9B8FF" font-family="sans-serif" font-size="14" textLength="181">: github_repo_views_traffic</text></a><a xlink:actuate="onRequest" xlink:href="#c" xlink:show="new" xlink:title="#github_resource" xlink:type="simple" target="_top"><rect id="c" width="176" height="39.789" x="581.5" y="142.48" fill="#3D176E" rx="2.5" ry="2.5" style="stroke:#000d19;stroke-width:.5"/><circle cx="596.5" cy="162.375" r="11" fill="#ADD1B2" style="stroke:#181818;stroke-width:1"/><path d="M599.469 168.015q-.578.297-1.219.438-.64.156-1.344.156-2.5 0-3.828-1.64-1.312-1.657-1.312-4.782t1.312-4.781q1.328-1.656 3.828-1.656.703 0 1.344.156.656.156 1.219.453v2.719q-.625-.578-1.219-.844-.594-.281-1.219-.281-1.343 0-2.031 1.078-.688 1.062-.688 3.156 0 2.094.688 3.172.688 1.062 2.031 1.062.625 0 1.219-.265.594-.281 1.219-.86v2.72Z"/><text x="615.5" y="168.26" fill="#D9B8FF" font-family="Helvetica" font-size="17" textLength="134">github_resource</text></a><a xlink:actuate="onRequest" xlink:href="#d" xlink:show="new" xlink:title="#github_repo_clones_traffic" xlink:type="simple" target="_top"><rect id="d" width="261" height="126.68" x="7" y="2689.74" fill="#3D176E" rx="2.5" ry="2.5" style="stroke:#000d19;stroke-width:.5"/><circle cx="22" cy="2709.635" r="11" fill="#ADD1B2" style="stroke:#181818;stroke-width:1"/><path d="M24.969 2715.275q-.578.297-1.219.438-.64.156-1.344.156-2.5 0-3.828-1.64-1.312-1.657-1.312-4.782t1.312-4.781q1.328-1.657 3.828-1.657.703 0 1.344.157.656.156 1.219.453v2.719q-.625-.579-1.219-.844-.594-.281-1.219-.281-1.343 0-2.031 1.078-.688 1.062-.688 3.156 0 2.094.688 3.172.688 1.062 2.031 1.062.625 0 1.219-.265.594-.282 1.219-.86v2.72Z"/><text x="41" y="2715.52" fill="#D9B8FF" font-family="Helvetica" font-size="17" textLength="219">github_repo_clones_traffic</text><path d="M8 2729.529h259" style="stroke:#000d19;stroke-width:.5"/><text x="18" y="2751.524" fill="#D9B8FF" font-family="sans-serif" font-size="14" font-weight="bold" textLength="45">count</text><text x="63" y="2751.524" fill="#D9B8FF" font-family="sans-serif" font-size="14" textLength="44">: int64</text><text x="18" y="2777.821" fill="#D9B8FF" font-family="sans-serif" font-size="14" font-weight="bold" textLength="63">uniques</text><text x="81" y="2777.821" fill="#D9B8FF" font-family="sans-serif" font-size="14" textLength="44">: int64</text><text x="18" y="2804.118" fill="#D9B8FF" font-family="sans-serif" font-size="14" font-weight="bold" textLength="52">clones</text><text x="70" y="2804.118" fill="#D9B8FF" font-family="sans-serif" font-size="14" textLength="155">: github_repo_clones[]</text></a><a xlink:actuate="onRequest" xlink:href="#e" xlink:show="new" xlink:title="#github_repo_clones" xlink:type="simple" target="_top"><rect id="e" width="203" height="126.68" x="36" y="2889.57" fill="#3D176E" rx="2.5" ry="2.5" style="stroke:#000d19;stroke-width:.5"/><circle cx="51" cy="2909.465" r="11" fill="#ADD1B2" style="stroke:#181818;stroke-width:1"/><path d="M53.969 2915.105q-.578.297-1.219.438-.64.156-1.344.156-2.5 0-3.828-1.64-1.312-1.657-1.312-4.782t1.312-4.781q1.328-1.657 3.828-1.657.703 0 1.344.157.656.156 1.219.453v2.719q-.625-.579-1.219-.844-.594-.281-1.219-.281-1.343 0-2.031 1.078-.688 1.062-.688 3.156 0 2.094.688 3.172.688 1.062 2.031 1.062.625 0 1.219-.265.594-.282 1.219-.86v2.72Z"/><text x="70" y="2915.35" fill="#D9B8FF" font-family="Helvetica" font-size="17" textLength="161">github_repo_clones</text><path d="M37 2929.359h201" style="stroke:#000d19;stroke-width:.5"/><text x="47" y="2951.354" fill="#D9B8FF" font-family="sans-serif" font-size="14" font-weight="bold" textLength="82">timestamp</text><text x="129" y="2951.354" fill="#D9B8FF" font-family="sans-serif" font-size="14" textLength="70">: datetime</text><text x="47" y="2977.651" fill="#D9B8FF" font-family="sans-serif" font-size="14" font-weight="bold" textLength="45">count</text><text x="92" y="2977.651" fill="#D9B8FF" font-family="sans-serif" font-size="14" textLength="44">: int64</text><text x="47" y="3003.948" fill="#D9B8FF" font-family="sans-serif" font-size="14" font-weight="bold" textLength="63">uniques</text><text x="110" y="3003.948" fill="#D9B8FF" font-family="sans-serif" font-size="14" textLength="44">: int64</text></a><a xlink:actuate="onRequest" xlink:href="#f" xlink:show="new" xlink:title="#github_repo_top_path" xlink:type="simple" target="_top"><rect id="f" width="225" height="152.977" x="303" y="2676.59" fill="#3D176E" rx="2.5" ry="2.5" style="stroke:#000d19;stroke-width:.5"/><circle cx="318" cy="2696.485" r="11" fill="#ADD1B2" style="stroke:#181818;stroke-width:1"/><path d="M320.969 2702.125q-.578.297-1.219.438-.64.156-1.344.156-2.5 0-3.828-1.64-1.312-1.657-1.312-4.782t1.312-4.781q1.328-1.657 3.828-1.657.703 0 1.344.157.656.156 1.219.453v2.719q-.625-.579-1.219-.844-.594-.281-1.219-.281-1.344 0-2.031 1.078-.688 1.062-.688 3.156 0 2.094.688 3.172.688 1.062 2.031 1.062.625 0 1.219-.265.594-.282 1.219-.86v2.72Z"/><text x="337" y="2702.37" fill="#D9B8FF" font-family="Helvetica" font-size="17" textLength="183">github_repo_top_path</text><path d="M304 2716.379h223" style="stroke:#000d19;stroke-width:.5"/><text x="314" y="2738.374" fill="#D9B8FF" font-family="sans-serif" font-size="14" font-weight="bold" textLength="30">title</text><text x="344" y="2738.374" fill="#D9B8FF" font-family="sans-serif" font-size="14" textLength="48">: string</text><text x="314" y="2764.671" fill="#D9B8FF" font-family="sans-serif" font-size="14" font-weight="bold" textLength="35">path</text><text x="349" y="2764.671" fill="#D9B8FF" font-family="sans-serif" font-size="14" textLength="48">: string</text><text x="314" y="2790.968" fill="#D9B8FF" font-family="sans-serif" font-size="14" font-weight="bold" textLength="45">count</text><text x="359" y="2790.968" fill="#D9B8FF" font-family="sans-serif" font-size="14" textLength="44">: int64</text><text x="314" y="2817.265" fill="#D9B8FF" font-family="sans-serif" font-size="14" font-weight="bold" textLength="63">uniques</text><text x="377" y="2817.265" fill="#D9B8FF" font-family="sans-serif" font-size="14" textLength="44">: int64</text></a><a xlink:actuate="onRequest" xlink:href="#g" xlink:show="new" xlink:title="#github_repo_top_referrer" xlink:type="simple" target="_top"><rect id="g" width="251" height="126.68" x="563" y="2689.74" fill="#3D176E" rx="2.5" ry="2.5" style="stroke:#000d19;stroke-width:.5"/><circle cx="578" cy="2709.635" r="11" fill="#ADD1B2" style="stroke:#181818;stroke-width:1"/><path d="M580.969 2715.275q-.578.297-1.219.438-.64.156-1.344.156-2.5 0-3.828-1.64-1.312-1.657-1.312-4.782t1.312-4.781q1.328-1.657 3.828-1.657.703 0 1.344.157.656.156 1.219.453v2.719q-.625-.579-1.219-.844-.594-.281-1.219-.281-1.343 0-2.031 1.078-.688 1.062-.688 3.156 0 2.094.688 3.172.688 1.062 2.031 1.062.625 0 1.219-.265.594-.282 1.219-.86v2.72Z"/><text x="597" y="2715.52" fill="#D9B8FF" font-family="Helvetica" font-size="17" textLength="209">github_repo_top_referrer</text><path d="M564 2729.529h249" style="stroke:#000d19;stroke-width:.5"/><text x="574" y="2751.524" fill="#D9B8FF" font-family="sans-serif" font-size="14" font-weight="bold" textLength="64">referrer</text><text x="638" y="2751.524" fill="#D9B8FF" font-family="sans-serif" font-size="14" textLength="48">: string</text><text x="574" y="2777.821" fill="#D9B8FF" font-family="sans-serif" font-size="14" font-weight="bold" textLength="45">count</text><text x="619" y="2777.821" fill="#D9B8FF" font-family="sans-serif" font-size="14" textLength="44">: int64</text><text x="574" y="2804.118" fill="#D9B8FF" font-family="sans-serif" font-size="14" font-weight="bold" textLength="63">uniques</text><text x="637" y="2804.118" fill="#D9B8FF" font-family="sans-serif" font-size="14" textLength="44">: int64</text></a><a xlink:actuate="onRequest" xlink:href="#h" xlink:show="new" xlink:title="#github_repo_views_traffic" xlink:type="simple" target="_top"><rect id="h" width="257" height="126.68" x="849" y="2689.74" fill="#3D176E" rx="2.5" ry="2.5" style="stroke:#000d19;stroke-width:.5"/><circle cx="864" cy="2709.635" r="11" fill="#ADD1B2" style="stroke:#181818;stroke-width:1"/><path d="M866.969 2715.275q-.578.297-1.219.438-.64.156-1.344.156-2.5 0-3.828-1.64-1.312-1.657-1.312-4.782t1.312-4.781q1.328-1.657 3.828-1.657.703 0 1.344.157.656.156 1.219.453v2.719q-.625-.579-1.219-.844-.594-.281-1.219-.281-1.343 0-2.031 1.078-.688 1.062-.688 3.156 0 2.094.688 3.172.688 1.062 2.031 1.062.625 0 1.219-.265.594-.282 1.219-.86v2.72Z"/><text x="883" y="2715.52" fill="#D9B8FF" font-family="Helvetica" font-size="17" textLength="215">github_repo_views_traffic</text><path d="M850 2729.529h255" style="stroke:#000d19;stroke-width:.5"/><text x="860" y="2751.524" fill="#D9B8FF" font-family="sans-serif" font-size="14" font-weight="bold" textLength="45">count</text><text x="905" y="2751.524" fill="#D9B8FF" font-family="sans-serif" font-size="14" textLength="44">: int64</text><text x="860" y="2777.821" fill="#D9B8FF" font-family="sans-serif" font-size="14" font-weight="bold" textLength="63">uniques</text><text x="923" y="2777.821" fill="#D9B8FF" font-family="sans-serif" font-size="14" textLength="44">: int64</text><text x="860" y="2804.118" fill="#D9B8FF" font-family="sans-serif" font-size="14" font-weight="bold" textLength="46">views</text><text x="906" y="2804.118" fill="#D9B8FF" font-family="sans-serif" font-size="14" textLength="139">: github_repo_view[]</text></a><a xlink:actuate="onRequest" xlink:href="#i" xlink:show="new" xlink:title="#github_repo_view" xlink:type="simple" target="_top"><rect id="i" width="191" height="126.68" x="882" y="2889.57" fill="#3D176E" rx="2.5" ry="2.5" style="stroke:#000d19;stroke-width:.5"/><circle cx="897" cy="2909.465" r="11" fill="#ADD1B2" style="stroke:#181818;stroke-width:1"/><path d="M899.969 2915.105q-.578.297-1.219.438-.64.156-1.344.156-2.5 0-3.828-1.64-1.312-1.657-1.312-4.782t1.312-4.781q1.328-1.657 3.828-1.657.703 0 1.344.157.656.156 1.219.453v2.719q-.625-.579-1.219-.844-.594-.281-1.219-.281-1.343 0-2.031 1.078-.688 1.062-.688 3.156 0 2.094.688 3.172.688 1.062 2.031 1.062.625 0 1.219-.265.594-.282 1.219-.86v2.72Z"/><text x="916" y="2915.35" fill="#D9B8FF" font-family="Helvetica" font-size="17" textLength="149">github_repo_view</text><path d="M883 2929.359h189" style="stroke:#000d19;stroke-width:.5"/><text x="893" y="2951.354" fill="#D9B8FF" font-family="sans-serif" font-size="14" font-weight="bold" textLength="82">timestamp</text><text x="975" y="2951.354" fill="#D9B8FF" font-family="sans-serif" font-size="14" textLength="70">: datetime</text><text x="893" y="2977.651" fill="#D9B8FF" font-family="sans-serif" font-size="14" font-weight="bold" textLength="45">count</text><text x="938" y="2977.651" fill="#D9B8FF" font-family="sans-serif" font-size="14" textLength="44">: int64</text><text x="893" y="3003.948" fill="#D9B8FF" font-family="sans-serif" font-size="14" font-weight="bold" textLength="63">uniques</text><text x="956" y="3003.948" fill="#D9B8FF" font-family="sans-serif" font-size="14" textLength="44">: int64</text></a><g fill="none"><path d="M666.05 203.26c-4.04 46.66-11.34 130.99-20.37 235.33" style="stroke:#ffaf37;stroke-width:2"/><path d="m659.13 202.97 8.7-19.32 5.25 20.53-13.95-1.21z" style="stroke:#ffaf37;stroke-width:2"/></g><g fill="none"><path d="M448.67 338.68c2.64 30.44 5.54 63.96 8.65 99.85" style="stroke:#ffaf37;stroke-width:2"/><path d="m441.64 339.64 5.25-20.53 8.7 19.32-13.95 1.21z" style="stroke:#ffaf37;stroke-width:2"/></g><path fill="none" d="M392.03 1999.93c-87.73 259.26-187.51 554.1-231.56 684.27" style="stroke:#ffaf37;stroke-width:2"/><path fill="#FFAF37" d="m158.67 2688.52 6.693-7.225-5.078 2.493-2.493-5.078.878 9.81z" style="stroke:#ffaf37;stroke-width:2"/><path fill="none" d="M430.51 2617.07c-2.18 19.59-4.17 37.47-5.93 53.35" style="stroke:#ffaf37;stroke-width:2"/><path fill="#FFAF37" d="m423.94 2675.18 4.953-8.513-4.41 3.543-3.542-4.411 2.999 9.381z" style="stroke:#ffaf37;stroke-width:2"/><path fill="none" d="M673.38 2617.07c2.82 25.21 5.33 47.59 7.45 66.52" style="stroke:#ffaf37;stroke-width:2"/><path fill="#FFAF37" d="m681.48 2688.35 2.973-9.39-3.53 4.421-4.42-3.53 4.977 8.499z" style="stroke:#ffaf37;stroke-width:2"/><path fill="none" d="M710.88 1986.4c91.35 262.35 196.78 565.11 242.93 697.64" style="stroke:#ffaf37;stroke-width:2"/><path fill="#FFAF37" d="m955.69 2688.45.825-9.814-2.466 5.09-5.091-2.465 6.732 7.189z" style="stroke:#ffaf37;stroke-width:2"/><path fill="none" d="M137.5 2816.68v66.94" style="stroke:#ffaf37;stroke-width:2"/><path fill="#FFAF37" d="m137.5 2888.38 4-9-4 4-4-4 4 9z" style="stroke:#ffaf37;stroke-width:2"/><path fill="none" d="M977.5 2816.68v66.94" style="stroke:#ffaf37;stroke-width:2"/><path fill="#FFAF37" d="m977.5 2888.38 4-9-4 4-4-4 4 9z" style="stroke:#ffaf37;stroke-width:2"/></svg>