<svg xmlns="http://www.w3.org/2000/svg" width="4575" height="2066" viewBox="0 0 4575 2066"><rect width="155" height="74.086" x="2824.5" y="438.76" fill="#3D176E" rx="2.5" ry="2.5" style="stroke:#000d19;stroke-width:.5"/><circle cx="2839.5" cy="458.654" r="11" fill="#ADD1B2" style="stroke:#181818;stroke-width:1"/><path d="M2842.469 464.295q-.578.297-1.219.438-.64.156-1.344.156-2.5 0-3.828-1.64-1.312-1.657-1.312-4.782t1.312-4.781q1.328-1.656 3.828-1.656.703 0 1.344.156.656.156 1.219.453v2.719q-.625-.579-1.219-.844-.594-.281-1.219-.281-1.343 0-2.031 1.078-.687 1.062-.687 3.156t.687 3.172q.688 1.062 2.031 1.062.625 0 1.219-.265.594-.281 1.219-.86z"/><text x="2858.5" y="464.54" fill="#D9B8FF" font-family="Helvetica" font-size="17" textLength="113">aws_resource</text><path d="M2825.5 478.549h153" style="stroke:#000d19;stroke-width:.5"/><text x="2835.5" y="500.544" fill="#D9B8FF" font-family="sans-serif" font-size="14" font-weight="bold" textLength="26">arn</text><text x="2861.5" y="500.544" fill="#D9B8FF" font-family="sans-serif" font-size="14" textLength="48">: string</text><rect width="651" height="337.055" x="849.5" y="1323.17" fill="#3D176E" rx="2.5" ry="2.5" style="stroke:#000d19;stroke-width:.5"/><circle cx="1014.75" cy="1343.064" r="11" fill="#ADD1B2" style="stroke:#181818;stroke-width:1"/><path d="M1017.719 1348.705q-.578.297-1.219.438-.64.156-1.344.156-2.5 0-3.828-1.64-1.312-1.657-1.312-4.782t1.312-4.781q1.328-1.657 3.828-1.657.703 0 1.344.157.656.156 1.219.453v2.719q-.625-.579-1.219-.844-.594-.281-1.219-.281-1.343 0-2.031 1.078-.687 1.062-.687 3.156t.687 3.172q.688 1.062 2.031 1.062.625 0 1.219-.265.594-.282 1.219-.86z"/><text x="1040.25" y="1348.95" fill="#D9B8FF" font-family="Helvetica" font-size="17" textLength="302">aws_sagemaker_auto_ml_candidate</text><path d="M850.5 1362.959h649" style="stroke:#000d19;stroke-width:.5"/><text x="860.5" y="1384.954" fill="#D9B8FF" font-family="sans-serif" font-size="14" font-weight="bold" textLength="127">candidate_name</text><text x="987.5" y="1384.954" fill="#D9B8FF" font-family="sans-serif" font-size="14" textLength="48">: string</text><text x="860.5" y="1411.251" fill="#D9B8FF" font-family="sans-serif" font-size="14" font-weight="bold" textLength="167">candidate_properties</text><text x="1027.5" y="1411.251" fill="#D9B8FF" font-family="sans-serif" font-size="14" textLength="273">: aws_sagemaker_candidate_properties</text><text x="860.5" y="1437.548" fill="#D9B8FF" font-family="sans-serif" font-size="14" font-weight="bold" textLength="133">candidate_status</text><text x="993.5" y="1437.548" fill="#D9B8FF" font-family="sans-serif" font-size="14" textLength="48">: string</text><text x="860.5" y="1463.845" fill="#D9B8FF" font-family="sans-serif" font-size="14" font-weight="bold" textLength="128">candidate_steps</text><text x="988.5" y="1463.845" fill="#D9B8FF" font-family="sans-serif" font-size="14" textLength="304">: aws_sagemaker_auto_ml_candidate_step[]</text><text x="860.5" y="1490.142" fill="#D9B8FF" font-family="sans-serif" font-size="14" font-weight="bold" textLength="106">creation_time</text><text x="966.5" y="1490.142" fill="#D9B8FF" font-family="sans-serif" font-size="14" textLength="70">: datetime</text><text x="860.5" y="1516.439" fill="#D9B8FF" font-family="sans-serif" font-size="14" font-weight="bold" textLength="71">end_time</text><text x="931.5" y="1516.439" fill="#D9B8FF" font-family="sans-serif" font-size="14" textLength="70">: datetime</text><text x="860.5" y="1542.735" fill="#D9B8FF" font-family="sans-serif" font-size="14" font-weight="bold" textLength="112">failure_reason</text><text x="972.5" y="1542.735" fill="#D9B8FF" font-family="sans-serif" font-size="14" textLength="48">: string</text><text x="860.5" y="1569.032" fill="#D9B8FF" font-family="sans-serif" font-size="14" font-weight="bold" textLength="267">final_auto_ml_job_objective_metric</text><text x="1127.5" y="1569.032" fill="#D9B8FF" font-family="sans-serif" font-size="14" textLength="362">: aws_sagemaker_final_auto_ml_job_objective_metric</text><text x="860.5" y="1595.329" fill="#D9B8FF" font-family="sans-serif" font-size="14" font-weight="bold" textLength="167">inference_containers</text><text x="1027.5" y="1595.329" fill="#D9B8FF" font-family="sans-serif" font-size="14" textLength="333">: aws_sagemaker_auto_ml_container_definition[]</text><text x="860.5" y="1621.626" fill="#D9B8FF" font-family="sans-serif" font-size="14" font-weight="bold" textLength="144">last_modified_time</text><text x="1004.5" y="1621.626" fill="#D9B8FF" font-family="sans-serif" font-size="14" textLength="70">: datetime</text><text x="860.5" y="1647.923" fill="#D9B8FF" font-family="sans-serif" font-size="14" font-weight="bold" textLength="128">objective_status</text><text x="988.5" y="1647.923" fill="#D9B8FF" font-family="sans-serif" font-size="14" textLength="48">: string</text><rect width="388" height="126.68" x="7" y="1720.22" fill="#3D176E" rx="2.5" ry="2.5" style="stroke:#000d19;stroke-width:.5"/><circle cx="22" cy="1740.114" r="11" fill="#ADD1B2" style="stroke:#181818;stroke-width:1"/><path d="M24.969 1745.755q-.578.297-1.219.438-.64.156-1.344.156-2.5 0-3.828-1.64-1.312-1.657-1.312-4.782t1.312-4.781q1.328-1.657 3.828-1.657.703 0 1.344.157.656.156 1.219.453v2.719q-.625-.579-1.219-.844-.594-.281-1.219-.281-1.343 0-2.031 1.078-.687 1.062-.687 3.156t.687 3.172q.688 1.062 2.031 1.062.625 0 1.219-.265.594-.282 1.219-.86z"/><text x="41" y="1746" fill="#D9B8FF" font-family="Helvetica" font-size="17" textLength="346">aws_sagemaker_auto_ml_candidate_step</text><path d="M8 1760.009h386" style="stroke:#000d19;stroke-width:.5"/><text x="18" y="1782.004" fill="#D9B8FF" font-family="sans-serif" font-size="14" font-weight="bold" textLength="152">candidate_step_arn</text><text x="170" y="1782.004" fill="#D9B8FF" font-family="sans-serif" font-size="14" textLength="48">: string</text><text x="18" y="1808.301" fill="#D9B8FF" font-family="sans-serif" font-size="14" font-weight="bold" textLength="169">candidate_step_name</text><text x="187" y="1808.301" fill="#D9B8FF" font-family="sans-serif" font-size="14" textLength="48">: string</text><text x="18" y="1834.598" fill="#D9B8FF" font-family="sans-serif" font-size="14" font-weight="bold" textLength="161">candidate_step_type</text><text x="179" y="1834.598" fill="#D9B8FF" font-family="sans-serif" font-size="14" textLength="48">: string</text><rect width="391" height="179.273" x="1803.5" y="1402.06" fill="#3D176E" rx="2.5" ry="2.5" style="stroke:#000d19;stroke-width:.5"/><circle cx="1846.4" cy="1421.955" r="11" fill="#ADD1B2" style="stroke:#181818;stroke-width:1"/><path d="M1849.369 1427.595q-.578.297-1.219.438-.64.156-1.344.156-2.5 0-3.828-1.64-1.312-1.657-1.312-4.782t1.312-4.781q1.328-1.657 3.828-1.657.703 0 1.344.157.656.156 1.219.453v2.719q-.625-.578-1.219-.844-.594-.281-1.219-.281-1.343 0-2.031 1.078-.687 1.062-.687 3.156t.687 3.172q.688 1.062 2.031 1.062.625 0 1.219-.265.594-.282 1.219-.86z"/><text x="1871.6" y="1427.84" fill="#D9B8FF" font-family="Helvetica" font-size="17" textLength="287">aws_sagemaker_auto_ml_channel</text><path d="M1804.5 1441.849h389" style="stroke:#000d19;stroke-width:.5"/><text x="1814.5" y="1463.844" fill="#D9B8FF" font-family="sans-serif" font-size="14" font-weight="bold" textLength="104">channel_type</text><text x="1918.5" y="1463.844" fill="#D9B8FF" font-family="sans-serif" font-size="14" textLength="48">: string</text><text x="1814.5" y="1490.141" fill="#D9B8FF" font-family="sans-serif" font-size="14" font-weight="bold" textLength="144">compression_type</text><text x="1958.5" y="1490.141" fill="#D9B8FF" font-family="sans-serif" font-size="14" textLength="48">: string</text><text x="1814.5" y="1516.438" fill="#D9B8FF" font-family="sans-serif" font-size="14" font-weight="bold" textLength="103">content_type</text><text x="1917.5" y="1516.438" fill="#D9B8FF" font-family="sans-serif" font-size="14" textLength="48">: string</text><text x="1814.5" y="1542.735" fill="#D9B8FF" font-family="sans-serif" font-size="14" font-weight="bold" textLength="96">data_source</text><text x="1910.5" y="1542.735" fill="#D9B8FF" font-family="sans-serif" font-size="14" textLength="273">: aws_sagemaker_auto_ml_data_source</text><text x="1814.5" y="1569.032" fill="#D9B8FF" font-family="sans-serif" font-size="14" font-weight="bold" textLength="173">target_attribute_name</text><text x="1987.5" y="1569.032" fill="#D9B8FF" font-family="sans-serif" font-size="14" textLength="48">: string</text><rect width="431" height="126.68" x="430.5" y="1720.22" fill="#3D176E" rx="2.5" ry="2.5" style="stroke:#000d19;stroke-width:.5"/><circle cx="445.5" cy="1740.114" r="11" fill="#ADD1B2" style="stroke:#181818;stroke-width:1"/><path d="M448.469 1745.755q-.578.297-1.219.438-.64.156-1.344.156-2.5 0-3.828-1.64-1.312-1.657-1.312-4.782t1.312-4.781q1.328-1.657 3.828-1.657.703 0 1.344.157.656.156 1.219.453v2.719q-.625-.579-1.219-.844-.594-.281-1.219-.281-1.344 0-2.031 1.078-.687 1.062-.687 3.156t.687 3.172q.688 1.062 2.031 1.062.625 0 1.219-.265.594-.282 1.219-.86z"/><text x="464.5" y="1746" fill="#D9B8FF" font-family="Helvetica" font-size="17" textLength="389">aws_sagemaker_auto_ml_container_definition</text><path d="M431.5 1760.009h429" style="stroke:#000d19;stroke-width:.5"/><text x="441.5" y="1782.004" fill="#D9B8FF" font-family="sans-serif" font-size="14" font-weight="bold" textLength="100">environment</text><text x="541.5" y="1782.004" fill="#D9B8FF" font-family="sans-serif" font-size="14" textLength="171">: dictionary[string, string]</text><text x="441.5" y="1808.301" fill="#D9B8FF" font-family="sans-serif" font-size="14" font-weight="bold" textLength="47">image</text><text x="488.5" y="1808.301" fill="#D9B8FF" font-family="sans-serif" font-size="14" textLength="48">: string</text><text x="441.5" y="1834.598" fill="#D9B8FF" font-family="sans-serif" font-size="14" font-weight="bold" textLength="117">model_data_url</text><text x="558.5" y="1834.598" fill="#D9B8FF" font-family="sans-serif" font-size="14" textLength="48">: string</text><rect width="434" height="74.086" x="2005" y="1746.52" fill="#3D176E" rx="2.5" ry="2.5" style="stroke:#000d19;stroke-width:.5"/><circle cx="2052.25" cy="1766.415" r="11" fill="#ADD1B2" style="stroke:#181818;stroke-width:1"/><path d="M2055.219 1772.055q-.578.297-1.219.438-.64.156-1.344.156-2.5 0-3.828-1.64-1.312-1.657-1.312-4.782t1.312-4.781q1.328-1.656 3.828-1.656.703 0 1.344.156.656.156 1.219.453v2.719q-.625-.578-1.219-.844-.594-.281-1.219-.281-1.343 0-2.031 1.078-.687 1.062-.687 3.156t.687 3.172q.688 1.062 2.031 1.062.625 0 1.219-.265.594-.281 1.219-.86z"/><text x="2077.75" y="1772.3" fill="#D9B8FF" font-family="Helvetica" font-size="17" textLength="321">aws_sagemaker_auto_ml_data_source</text><path d="M2006 1786.309h432" style="stroke:#000d19;stroke-width:.5"/><text x="2016" y="1808.304" fill="#D9B8FF" font-family="sans-serif" font-size="14" font-weight="bold" textLength="122">s3_data_source</text><text x="2138" y="1808.304" fill="#D9B8FF" font-family="sans-serif" font-size="14" textLength="290">: aws_sagemaker_auto_mls3_data_source</text><rect width="589" height="468.539" x="2607.5" y="794.63" fill="#3D176E" rx="2.5" ry="2.5" style="stroke:#000d19;stroke-width:.5"/><circle cx="2769.75" cy="814.524" r="11" fill="#ADD1B2" style="stroke:#181818;stroke-width:1"/><path d="M2772.719 820.165q-.578.297-1.219.438-.64.156-1.344.156-2.5 0-3.828-1.64-1.312-1.657-1.312-4.782t1.312-4.781q1.328-1.657 3.828-1.657.703 0 1.344.157.656.156 1.219.453v2.719q-.625-.578-1.219-.844-.594-.281-1.219-.281-1.343 0-2.031 1.078-.687 1.062-.687 3.156t.687 3.172q.688 1.062 2.031 1.062.625 0 1.219-.265.594-.282 1.219-.86z"/><text x="2795.25" y="820.41" fill="#D9B8FF" font-family="Helvetica" font-size="17" textLength="246">aws_sagemaker_auto_ml_job</text><path d="M2608.5 834.419h587" style="stroke:#000d19;stroke-width:.5"/><text x="2618.5" y="856.414" fill="#D9B8FF" font-family="sans-serif" font-size="14" font-weight="bold" textLength="163">auto_ml_job_artifacts</text><text x="2781.5" y="856.414" fill="#D9B8FF" font-family="sans-serif" font-size="14" textLength="270">: aws_sagemaker_auto_ml_job_artifacts</text><text x="2618.5" y="882.711" fill="#D9B8FF" font-family="sans-serif" font-size="14" font-weight="bold" textLength="217">auto_ml_job_best_candidate</text><text x="2835.5" y="882.711" fill="#D9B8FF" font-family="sans-serif" font-size="14" textLength="256">: aws_sagemaker_auto_ml_candidate</text><text x="2618.5" y="909.008" fill="#D9B8FF" font-family="sans-serif" font-size="14" font-weight="bold" textLength="147">auto_ml_job_config</text><text x="2765.5" y="909.008" fill="#D9B8FF" font-family="sans-serif" font-size="14" textLength="258">: aws_sagemaker_auto_ml_job_config</text><text x="2618.5" y="935.305" fill="#D9B8FF" font-family="sans-serif" font-size="14" font-weight="bold" textLength="169">auto_ml_job_end_time</text><text x="2787.5" y="935.305" fill="#D9B8FF" font-family="sans-serif" font-size="14" textLength="70">: datetime</text><text x="2618.5" y="961.602" fill="#D9B8FF" font-family="sans-serif" font-size="14" font-weight="bold" textLength="210">auto_ml_job_failure_reason</text><text x="2828.5" y="961.602" fill="#D9B8FF" font-family="sans-serif" font-size="14" textLength="48">: string</text><text x="2618.5" y="987.899" fill="#D9B8FF" font-family="sans-serif" font-size="14" font-weight="bold" textLength="384">auto_ml_job_generate_candidate_definitions_only</text><text x="3002.5" y="987.899" fill="#D9B8FF" font-family="sans-serif" font-size="14" textLength="65">: boolean</text><text x="2618.5" y="1014.195" fill="#D9B8FF" font-family="sans-serif" font-size="14" font-weight="bold" textLength="235">auto_ml_job_input_data_config</text><text x="2853.5" y="1014.195" fill="#D9B8FF" font-family="sans-serif" font-size="14" textLength="253">: aws_sagemaker_auto_ml_channel[]</text><text x="2618.5" y="1040.492" fill="#D9B8FF" font-family="sans-serif" font-size="14" font-weight="bold" textLength="262">auto_ml_job_model_deploy_config</text><text x="2880.5" y="1040.492" fill="#D9B8FF" font-family="sans-serif" font-size="14" textLength="272">: aws_sagemaker_model_deploy_config</text><text x="2618.5" y="1066.789" fill="#D9B8FF" font-family="sans-serif" font-size="14" font-weight="bold" textLength="259">auto_ml_job_model_deploy_result</text><text x="2877.5" y="1066.789" fill="#D9B8FF" font-family="sans-serif" font-size="14" textLength="48">: string</text><text x="2618.5" y="1093.086" fill="#D9B8FF" font-family="sans-serif" font-size="14" font-weight="bold" textLength="170">auto_ml_job_objective</text><text x="2788.5" y="1093.086" fill="#D9B8FF" font-family="sans-serif" font-size="14" textLength="48">: string</text><text x="2618.5" y="1119.383" fill="#D9B8FF" font-family="sans-serif" font-size="14" font-weight="bold" textLength="247">auto_ml_job_output_data_config</text><text x="2865.5" y="1119.383" fill="#D9B8FF" font-family="sans-serif" font-size="14" textLength="320">: aws_sagemaker_auto_ml_output_data_config</text><text x="2618.5" y="1145.68" fill="#D9B8FF" font-family="sans-serif" font-size="14" font-weight="bold" textLength="275">auto_ml_job_partial_failure_reasons</text><text x="2893.5" y="1145.68" fill="#D9B8FF" font-family="sans-serif" font-size="14" textLength="58">: string[]</text><text x="2618.5" y="1171.977" fill="#D9B8FF" font-family="sans-serif" font-size="14" font-weight="bold" textLength="205">auto_ml_job_problem_type</text><text x="2823.5" y="1171.977" fill="#D9B8FF" font-family="sans-serif" font-size="14" textLength="48">: string</text><text x="2618.5" y="1198.274" fill="#D9B8FF" font-family="sans-serif" font-size="14" font-weight="bold" textLength="251">auto_ml_job_resolved_attributes</text><text x="2869.5" y="1198.274" fill="#D9B8FF" font-family="sans-serif" font-size="14" textLength="259">: aws_sagemaker_resolved_attributes</text><text x="2618.5" y="1224.57" fill="#D9B8FF" font-family="sans-serif" font-size="14" font-weight="bold" textLength="237">auto_ml_job_secondary_status</text><text x="2855.5" y="1224.57" fill="#D9B8FF" font-family="sans-serif" font-size="14" textLength="48">: string</text><text x="2618.5" y="1250.867" fill="#D9B8FF" font-family="sans-serif" font-size="14" font-weight="bold" textLength="147">auto_ml_job_status</text><text x="2765.5" y="1250.867" fill="#D9B8FF" font-family="sans-serif" font-size="14" textLength="48">: string</text><rect width="379" height="100.383" x="2229.5" y="1441.51" fill="#3D176E" rx="2.5" ry="2.5" style="stroke:#000d19;stroke-width:.5"/><circle cx="2250.8" cy="1461.405" r="11" fill="#ADD1B2" style="stroke:#181818;stroke-width:1"/><path d="M2253.769 1467.045q-.578.297-1.219.438-.64.156-1.344.156-2.5 0-3.828-1.64-1.312-1.657-1.312-4.782t1.312-4.781q1.328-1.656 3.828-1.656.703 0 1.344.156.656.156 1.219.453v2.719q-.625-.578-1.219-.844-.594-.281-1.219-.281-1.343 0-2.031 1.078-.687 1.062-.687 3.156t.687 3.172q.688 1.062 2.031 1.062.625 0 1.219-.265.594-.281 1.219-.86z"/><text x="2271.2" y="1467.29" fill="#D9B8FF" font-family="Helvetica" font-size="17" textLength="323">aws_sagemaker_auto_ml_job_artifacts</text><path d="M2230.5 1481.299h377" style="stroke:#000d19;stroke-width:.5"/><text x="2240.5" y="1503.294" fill="#D9B8FF" font-family="sans-serif" font-size="14" font-weight="bold" textLength="309">candidate_definition_notebook_location</text><text x="2549.5" y="1503.294" fill="#D9B8FF" font-family="sans-serif" font-size="14" textLength="48">: string</text><text x="2240.5" y="1529.591" fill="#D9B8FF" font-family="sans-serif" font-size="14" font-weight="bold" textLength="281">data_exploration_notebook_location</text><text x="2521.5" y="1529.591" fill="#D9B8FF" font-family="sans-serif" font-size="14" textLength="48">: string</text><rect width="458" height="126.68" x="3612" y="1720.22" fill="#3D176E" rx="2.5" ry="2.5" style="stroke:#000d19;stroke-width:.5"/><circle cx="3627" cy="1740.114" r="11" fill="#ADD1B2" style="stroke:#181818;stroke-width:1"/><path d="M3629.969 1745.755q-.578.297-1.219.438-.64.156-1.344.156-2.5 0-3.828-1.64-1.312-1.657-1.312-4.782t1.312-4.781q1.328-1.657 3.828-1.657.703 0 1.344.157.656.156 1.219.453v2.719q-.625-.579-1.219-.844-.594-.281-1.219-.281-1.343 0-2.031 1.078-.687 1.062-.687 3.156t.687 3.172q.688 1.062 2.031 1.062.625 0 1.219-.265.594-.282 1.219-.86z"/><text x="3646" y="1746" fill="#D9B8FF" font-family="Helvetica" font-size="17" textLength="416">aws_sagemaker_auto_ml_job_completion_criteria</text><path d="M3613 1760.009h456" style="stroke:#000d19;stroke-width:.5"/><text x="3623" y="1782.004" fill="#D9B8FF" font-family="sans-serif" font-size="14" font-weight="bold" textLength="293">max_auto_ml_job_runtime_in_seconds</text><text x="3916" y="1782.004" fill="#D9B8FF" font-family="sans-serif" font-size="14" textLength="44">: int64</text><text x="3623" y="1808.301" fill="#D9B8FF" font-family="sans-serif" font-size="14" font-weight="bold" textLength="125">max_candidates</text><text x="3748" y="1808.301" fill="#D9B8FF" font-family="sans-serif" font-size="14" textLength="44">: int64</text><text x="3623" y="1834.598" fill="#D9B8FF" font-family="sans-serif" font-size="14" font-weight="bold" textLength="327">max_runtime_per_training_job_in_seconds</text><text x="3950" y="1834.598" fill="#D9B8FF" font-family="sans-serif" font-size="14" textLength="44">: int64</text><rect width="518" height="179.273" x="2643" y="1402.06" fill="#3D176E" rx="2.5" ry="2.5" style="stroke:#000d19;stroke-width:.5"/><circle cx="2740.25" cy="1421.955" r="11" fill="#ADD1B2" style="stroke:#181818;stroke-width:1"/><path d="M2743.219 1427.595q-.578.297-1.219.438-.64.156-1.344.156-2.5 0-3.828-1.64-1.312-1.657-1.312-4.782t1.312-4.781q1.328-1.657 3.828-1.657.703 0 1.344.157.656.156 1.219.453v2.719q-.625-.578-1.219-.844-.594-.281-1.219-.281-1.343 0-2.031 1.078-.687 1.062-.687 3.156t.687 3.172q.688 1.062 2.031 1.062.625 0 1.219-.265.594-.282 1.219-.86z"/><text x="2765.75" y="1427.84" fill="#D9B8FF" font-family="Helvetica" font-size="17" textLength="305">aws_sagemaker_auto_ml_job_config</text><path d="M2644 1441.849h516" style="stroke:#000d19;stroke-width:.5"/><text x="2654" y="1463.844" fill="#D9B8FF" font-family="sans-serif" font-size="14" font-weight="bold" textLength="226">candidate_generation_config</text><text x="2880" y="1463.844" fill="#D9B8FF" font-family="sans-serif" font-size="14" textLength="48">: string</text><text x="2654" y="1490.141" fill="#D9B8FF" font-family="sans-serif" font-size="14" font-weight="bold" textLength="150">completion_criteria</text><text x="2804" y="1490.141" fill="#D9B8FF" font-family="sans-serif" font-size="14" textLength="346">: aws_sagemaker_auto_ml_job_completion_criteria</text><text x="2654" y="1516.438" fill="#D9B8FF" font-family="sans-serif" font-size="14" font-weight="bold" textLength="130">data_split_config</text><text x="2784" y="1516.438" fill="#D9B8FF" font-family="sans-serif" font-size="14" textLength="57">: double</text><text x="2654" y="1542.735" fill="#D9B8FF" font-family="sans-serif" font-size="14" font-weight="bold" textLength="44">mode</text><text x="2698" y="1542.735" fill="#D9B8FF" font-family="sans-serif" font-size="14" textLength="48">: string</text><text x="2654" y="1569.032" fill="#D9B8FF" font-family="sans-serif" font-size="14" font-weight="bold" textLength="120">security_config</text><text x="2774" y="1569.032" fill="#D9B8FF" font-family="sans-serif" font-size="14" textLength="291">: aws_sagemaker_auto_ml_security_config</text><rect width="424" height="100.383" x="3196" y="1441.51" fill="#3D176E" rx="2.5" ry="2.5" style="stroke:#000d19;stroke-width:.5"/><circle cx="3211" cy="1461.405" r="11" fill="#ADD1B2" style="stroke:#181818;stroke-width:1"/><path d="M3213.969 1467.045q-.578.297-1.219.438-.64.156-1.344.156-2.5 0-3.828-1.64-1.312-1.657-1.312-4.782t1.312-4.781q1.328-1.656 3.828-1.656.703 0 1.344.156.656.156 1.219.453v2.719q-.625-.578-1.219-.844-.594-.281-1.219-.281-1.343 0-2.031 1.078-.687 1.062-.687 3.156t.687 3.172q.688 1.062 2.031 1.062.625 0 1.219-.265.594-.281 1.219-.86z"/><text x="3230" y="1467.29" fill="#D9B8FF" font-family="Helvetica" font-size="17" textLength="382">aws_sagemaker_auto_ml_output_data_config</text><path d="M3197 1481.299h422" style="stroke:#000d19;stroke-width:.5"/><text x="3207" y="1503.294" fill="#D9B8FF" font-family="sans-serif" font-size="14" font-weight="bold" textLength="88">kms_key_id</text><text x="3295" y="1503.294" fill="#D9B8FF" font-family="sans-serif" font-size="14" textLength="48">: string</text><text x="3207" y="1529.591" fill="#D9B8FF" font-family="sans-serif" font-size="14" font-weight="bold" textLength="120">s3_output_path</text><text x="3327" y="1529.591" fill="#D9B8FF" font-family="sans-serif" font-size="14" textLength="48">: string</text><rect width="412" height="126.68" x="2696" y="1720.22" fill="#3D176E" rx="2.5" ry="2.5" style="stroke:#000d19;stroke-width:.5"/><circle cx="2721.8" cy="1740.114" r="11" fill="#ADD1B2" style="stroke:#181818;stroke-width:1"/><path d="M2724.769 1745.755q-.578.297-1.219.438-.64.156-1.344.156-2.5 0-3.828-1.64-1.312-1.657-1.312-4.782t1.312-4.781q1.328-1.657 3.828-1.657.703 0 1.344.157.656.156 1.219.453v2.719q-.625-.579-1.219-.844-.594-.281-1.219-.281-1.343 0-2.031 1.078-.687 1.062-.687 3.156t.687 3.172q.688 1.062 2.031 1.062.625 0 1.219-.265.594-.282 1.219-.86z"/><text x="2743.2" y="1746" fill="#D9B8FF" font-family="Helvetica" font-size="17" textLength="346">aws_sagemaker_auto_ml_security_config</text><path d="M2697 1760.009h410" style="stroke:#000d19;stroke-width:.5"/><text x="2707" y="1782.004" fill="#D9B8FF" font-family="sans-serif" font-size="14" font-weight="bold" textLength="325">enable_inter_container_traffic_encryption</text><text x="3032" y="1782.004" fill="#D9B8FF" font-family="sans-serif" font-size="14" textLength="65">: boolean</text><text x="2707" y="1808.301" fill="#D9B8FF" font-family="sans-serif" font-size="14" font-weight="bold" textLength="152">volume_kms_key_id</text><text x="2859" y="1808.301" fill="#D9B8FF" font-family="sans-serif" font-size="14" textLength="48">: string</text><text x="2707" y="1834.598" fill="#D9B8FF" font-family="sans-serif" font-size="14" font-weight="bold" textLength="84">vpc_config</text><text x="2791" y="1834.598" fill="#D9B8FF" font-family="sans-serif" font-size="14" textLength="200">: aws_sagemaker_vpc_config</text><rect width="382" height="100.383" x="2031" y="1933.2" fill="#3D176E" rx="2.5" ry="2.5" style="stroke:#000d19;stroke-width:.5"/><circle cx="2046" cy="1953.094" r="11" fill="#ADD1B2" style="stroke:#181818;stroke-width:1"/><path d="M2048.969 1958.735q-.578.297-1.219.438-.64.156-1.344.156-2.5 0-3.828-1.64-1.312-1.657-1.312-4.782t1.312-4.781q1.328-1.657 3.828-1.657.703 0 1.344.157.656.156 1.219.453v2.719q-.625-.579-1.219-.844-.594-.281-1.219-.281-1.343 0-2.031 1.078-.687 1.062-.687 3.156t.687 3.172q.688 1.062 2.031 1.062.625 0 1.219-.265.594-.282 1.219-.86z"/><text x="2065" y="1958.98" fill="#D9B8FF" font-family="Helvetica" font-size="17" textLength="340">aws_sagemaker_auto_mls3_data_source</text><path d="M2032 1972.989h380" style="stroke:#000d19;stroke-width:.5"/><text x="2042" y="1994.984" fill="#D9B8FF" font-family="sans-serif" font-size="14" font-weight="bold" textLength="102">s3_data_type</text><text x="2144" y="1994.984" fill="#D9B8FF" font-family="sans-serif" font-size="14" textLength="48">: string</text><text x="2042" y="2021.281" fill="#D9B8FF" font-family="sans-serif" font-size="14" font-weight="bold" textLength="47">s3_uri</text><text x="2089" y="2021.281" fill="#D9B8FF" font-family="sans-serif" font-size="14" textLength="48">: string</text><rect width="418" height="100.383" x="768" y="1933.2" fill="#3D176E" rx="2.5" ry="2.5" style="stroke:#000d19;stroke-width:.5"/><circle cx="783" cy="1953.094" r="11" fill="#ADD1B2" style="stroke:#181818;stroke-width:1"/><path d="M785.969 1958.735q-.578.297-1.219.438-.64.156-1.344.156-2.5 0-3.828-1.64-1.312-1.657-1.312-4.782t1.312-4.781q1.328-1.657 3.828-1.657.703 0 1.344.157.656.156 1.219.453v2.719q-.625-.579-1.219-.844-.594-.281-1.219-.281-1.343 0-2.031 1.078-.687 1.062-.687 3.156t.687 3.172q.688 1.062 2.031 1.062.625 0 1.219-.265.594-.282 1.219-.86z"/><text x="802" y="1958.98" fill="#D9B8FF" font-family="Helvetica" font-size="17" textLength="376">aws_sagemaker_candidate_artifact_locations</text><path d="M769 1972.989h416" style="stroke:#000d19;stroke-width:.5"/><text x="779" y="1994.984" fill="#D9B8FF" font-family="sans-serif" font-size="14" font-weight="bold" textLength="102">explainability</text><text x="881" y="1994.984" fill="#D9B8FF" font-family="sans-serif" font-size="14" textLength="48">: string</text><text x="779" y="2021.281" fill="#D9B8FF" font-family="sans-serif" font-size="14" font-weight="bold" textLength="117">model_insights</text><text x="896" y="2021.281" fill="#D9B8FF" font-family="sans-serif" font-size="14" textLength="48">: string</text><rect width="557" height="100.383" x="896.5" y="1733.37" fill="#3D176E" rx="2.5" ry="2.5" style="stroke:#000d19;stroke-width:.5"/><circle cx="1007.25" cy="1753.264" r="11" fill="#ADD1B2" style="stroke:#181818;stroke-width:1"/><path d="M1010.219 1758.905q-.578.297-1.219.438-.64.156-1.344.156-2.5 0-3.828-1.64-1.312-1.657-1.312-4.782t1.312-4.781q1.328-1.657 3.828-1.657.703 0 1.344.157.656.156 1.219.453v2.719q-.625-.579-1.219-.844-.594-.281-1.219-.281-1.343 0-2.031 1.078-.687 1.062-.687 3.156t.687 3.172q.688 1.062 2.031 1.062.625 0 1.219-.265.594-.282 1.219-.86z"/><text x="1032.75" y="1759.15" fill="#D9B8FF" font-family="Helvetica" font-size="17" textLength="317">aws_sagemaker_candidate_properties</text><path d="M897.5 1773.159h555" style="stroke:#000d19;stroke-width:.5"/><text x="907.5" y="1795.154" fill="#D9B8FF" font-family="sans-serif" font-size="14" font-weight="bold" textLength="218">candidate_artifact_locations</text><text x="1125.5" y="1795.154" fill="#D9B8FF" font-family="sans-serif" font-size="14" textLength="317">: aws_sagemaker_candidate_artifact_locations</text><text x="907.5" y="1821.451" fill="#D9B8FF" font-family="sans-serif" font-size="14" font-weight="bold" textLength="143">candidate_metrics</text><text x="1050.5" y="1821.451" fill="#D9B8FF" font-family="sans-serif" font-size="14" textLength="231">: aws_sagemaker_metric_datum[]</text><rect width="481" height="126.68" x="1488.5" y="1720.22" fill="#3D176E" rx="2.5" ry="2.5" style="stroke:#000d19;stroke-width:.5"/><circle cx="1503.5" cy="1740.114" r="11" fill="#ADD1B2" style="stroke:#181818;stroke-width:1"/><path d="M1506.469 1745.755q-.578.297-1.219.438-.64.156-1.344.156-2.5 0-3.828-1.64-1.312-1.657-1.312-4.782t1.312-4.781q1.328-1.657 3.828-1.657.703 0 1.344.157.656.156 1.219.453v2.719q-.625-.579-1.219-.844-.594-.281-1.219-.281-1.343 0-2.031 1.078-.687 1.062-.687 3.156t.687 3.172q.688 1.062 2.031 1.062.625 0 1.219-.265.594-.282 1.219-.86z"/><text x="1522.5" y="1746" fill="#D9B8FF" font-family="Helvetica" font-size="17" textLength="439">aws_sagemaker_final_auto_ml_job_objective_metric</text><path d="M1489.5 1760.009h479" style="stroke:#000d19;stroke-width:.5"/><text x="1499.5" y="1782.004" fill="#D9B8FF" font-family="sans-serif" font-size="14" font-weight="bold" textLength="100">metric_name</text><text x="1599.5" y="1782.004" fill="#D9B8FF" font-family="sans-serif" font-size="14" textLength="48">: string</text><text x="1499.5" y="1808.301" fill="#D9B8FF" font-family="sans-serif" font-size="14" font-weight="bold" textLength="35">type</text><text x="1534.5" y="1808.301" fill="#D9B8FF" font-family="sans-serif" font-size="14" textLength="48">: string</text><text x="1499.5" y="1834.598" fill="#D9B8FF" font-family="sans-serif" font-size="14" font-weight="bold" textLength="42">value</text><text x="1541.5" y="1834.598" fill="#D9B8FF" font-family="sans-serif" font-size="14" textLength="57">: double</text><rect width="210" height="39.789" x="2797" y="633.84" fill="#3D176E" rx="2.5" ry="2.5" style="stroke:#000d19;stroke-width:.5"/><circle cx="2812" cy="653.735" r="11" fill="#ADD1B2" style="stroke:#181818;stroke-width:1"/><path d="M2814.969 659.375q-.578.297-1.219.438-.64.156-1.344.156-2.5 0-3.828-1.64-1.312-1.657-1.312-4.782t1.312-4.781q1.328-1.656 3.828-1.656.703 0 1.344.156.656.156 1.219.453v2.719q-.625-.578-1.219-.844-.594-.281-1.219-.281-1.343 0-2.031 1.078-.687 1.062-.687 3.156t.687 3.172q.688 1.062 2.031 1.062.625 0 1.219-.265.594-.281 1.219-.86z"/><text x="2831" y="659.62" fill="#D9B8FF" font-family="Helvetica" font-size="17" textLength="168">aws_sagemaker_job</text><rect width="303" height="152.977" x="1221.5" y="1906.9" fill="#3D176E" rx="2.5" ry="2.5" style="stroke:#000d19;stroke-width:.5"/><circle cx="1236.5" cy="1926.794" r="11" fill="#ADD1B2" style="stroke:#181818;stroke-width:1"/><path d="M1239.469 1932.435q-.578.297-1.219.438-.64.156-1.344.156-2.5 0-3.828-1.64-1.312-1.657-1.312-4.782t1.312-4.781q1.328-1.657 3.828-1.657.703 0 1.344.157.656.156 1.219.453v2.719q-.625-.579-1.219-.844-.594-.281-1.219-.281-1.343 0-2.031 1.078-.687 1.062-.687 3.156t.687 3.172q.688 1.062 2.031 1.062.625 0 1.219-.265.594-.282 1.219-.86z"/><text x="1255.5" y="1932.68" fill="#D9B8FF" font-family="Helvetica" font-size="17" textLength="261">aws_sagemaker_metric_datum</text><path d="M1222.5 1946.689h301" style="stroke:#000d19;stroke-width:.5"/><text x="1232.5" y="1968.684" fill="#D9B8FF" font-family="sans-serif" font-size="14" font-weight="bold" textLength="100">metric_name</text><text x="1332.5" y="1968.684" fill="#D9B8FF" font-family="sans-serif" font-size="14" textLength="48">: string</text><text x="1232.5" y="1994.981" fill="#D9B8FF" font-family="sans-serif" font-size="14" font-weight="bold" textLength="25">set</text><text x="1257.5" y="1994.981" fill="#D9B8FF" font-family="sans-serif" font-size="14" textLength="48">: string</text><text x="1232.5" y="2021.278" fill="#D9B8FF" font-family="sans-serif" font-size="14" font-weight="bold" textLength="177">standard_metric_name</text><text x="1409.5" y="2021.278" fill="#D9B8FF" font-family="sans-serif" font-size="14" textLength="48">: string</text><text x="1232.5" y="2047.575" fill="#D9B8FF" font-family="sans-serif" font-size="14" font-weight="bold" textLength="42">value</text><text x="1274.5" y="2047.575" fill="#D9B8FF" font-family="sans-serif" font-size="14" textLength="57">: double</text><rect width="360" height="100.383" x="3655" y="1441.51" fill="#3D176E" rx="2.5" ry="2.5" style="stroke:#000d19;stroke-width:.5"/><circle cx="3670" cy="1461.405" r="11" fill="#ADD1B2" style="stroke:#181818;stroke-width:1"/><path d="M3672.969 1467.045q-.578.297-1.219.438-.64.156-1.344.156-2.5 0-3.828-1.64-1.312-1.657-1.312-4.782t1.312-4.781q1.328-1.656 3.828-1.656.703 0 1.344.156.656.156 1.219.453v2.719q-.625-.578-1.219-.844-.594-.281-1.219-.281-1.343 0-2.031 1.078-.687 1.062-.687 3.156t.687 3.172q.688 1.062 2.031 1.062.625 0 1.219-.265.594-.281 1.219-.86z"/><text x="3689" y="1467.29" fill="#D9B8FF" font-family="Helvetica" font-size="17" textLength="318">aws_sagemaker_model_deploy_config</text><path d="M3656 1481.299h358" style="stroke:#000d19;stroke-width:.5"/><text x="3666" y="1503.294" fill="#D9B8FF" font-family="sans-serif" font-size="14" font-weight="bold" textLength="241">auto_generate_endpoint_name</text><text x="3907" y="1503.294" fill="#D9B8FF" font-family="sans-serif" font-size="14" textLength="65">: boolean</text><text x="3666" y="1529.591" fill="#D9B8FF" font-family="sans-serif" font-size="14" font-weight="bold" textLength="120">endpoint_name</text><text x="3786" y="1529.591" fill="#D9B8FF" font-family="sans-serif" font-size="14" textLength="48">: string</text><rect width="518" height="126.68" x="4050" y="1428.36" fill="#3D176E" rx="2.5" ry="2.5" style="stroke:#000d19;stroke-width:.5"/><circle cx="4147.75" cy="1448.255" r="11" fill="#ADD1B2" style="stroke:#181818;stroke-width:1"/><path d="M4150.719 1453.895q-.578.297-1.219.438-.64.156-1.344.156-2.5 0-3.828-1.64-1.312-1.657-1.312-4.782t1.312-4.781q1.328-1.657 3.828-1.657.703 0 1.344.157.656.156 1.219.453v2.719q-.625-.579-1.219-.844-.594-.281-1.219-.281-1.343 0-2.031 1.078-.687 1.062-.687 3.156t.687 3.172q.688 1.062 2.031 1.062.625 0 1.219-.265.594-.282 1.219-.86z"/><text x="4173.25" y="1454.14" fill="#D9B8FF" font-family="Helvetica" font-size="17" textLength="304">aws_sagemaker_resolved_attributes</text><path d="M4051 1468.149h516" style="stroke:#000d19;stroke-width:.5"/><text x="4061" y="1490.144" fill="#D9B8FF" font-family="sans-serif" font-size="14" font-weight="bold" textLength="170">auto_ml_job_objective</text><text x="4231" y="1490.144" fill="#D9B8FF" font-family="sans-serif" font-size="14" textLength="48">: string</text><text x="4061" y="1516.441" fill="#D9B8FF" font-family="sans-serif" font-size="14" font-weight="bold" textLength="150">completion_criteria</text><text x="4211" y="1516.441" fill="#D9B8FF" font-family="sans-serif" font-size="14" textLength="346">: aws_sagemaker_auto_ml_job_completion_criteria</text><text x="4061" y="1542.738" fill="#D9B8FF" font-family="sans-serif" font-size="14" font-weight="bold" textLength="107">problem_type</text><text x="4168" y="1542.738" fill="#D9B8FF" font-family="sans-serif" font-size="14" textLength="48">: string</text><rect width="272" height="100.383" x="2766" y="1933.2" fill="#3D176E" rx="2.5" ry="2.5" style="stroke:#000d19;stroke-width:.5"/><circle cx="2781" cy="1953.094" r="11" fill="#ADD1B2" style="stroke:#181818;stroke-width:1"/><path d="M2783.969 1958.735q-.578.297-1.219.438-.64.156-1.344.156-2.5 0-3.828-1.64-1.312-1.657-1.312-4.782t1.312-4.781q1.328-1.657 3.828-1.657.703 0 1.344.157.656.156 1.219.453v2.719q-.625-.579-1.219-.844-.594-.281-1.219-.281-1.343 0-2.031 1.078-.687 1.062-.687 3.156t.687 3.172q.688 1.062 2.031 1.062.625 0 1.219-.265.594-.282 1.219-.86z"/><text x="2800" y="1958.98" fill="#D9B8FF" font-family="Helvetica" font-size="17" textLength="230">aws_sagemaker_vpc_config</text><path d="M2767 1972.989h270" style="stroke:#000d19;stroke-width:.5"/><text x="2777" y="1994.984" fill="#D9B8FF" font-family="sans-serif" font-size="14" font-weight="bold" textLength="148">security_group_ids</text><text x="2925" y="1994.984" fill="#D9B8FF" font-family="sans-serif" font-size="14" textLength="58">: string[]</text><text x="2777" y="2021.281" fill="#D9B8FF" font-family="sans-serif" font-size="14" font-weight="bold" textLength="64">subnets</text><text x="2841" y="2021.281" fill="#D9B8FF" font-family="sans-serif" font-size="14" textLength="58">: string[]</text><rect width="227" height="310.758" x="2788.5" y="7" fill="#3D176E" rx="2.5" ry="2.5" style="stroke:#000d19;stroke-width:.5"/><circle cx="2857.25" cy="26.895" r="11" fill="#ADD1B2" style="stroke:#181818;stroke-width:1"/><path d="M2860.219 32.535q-.578.297-1.219.438-.64.156-1.344.156-2.5 0-3.828-1.64-1.312-1.657-1.312-4.782t1.312-4.781q1.328-1.656 3.828-1.656.703 0 1.344.156.656.156 1.219.453v2.719q-.625-.578-1.219-.844-.594-.281-1.219-.281-1.343 0-2.031 1.078-.687 1.062-.687 3.156t.687 3.172q.688 1.062 2.031 1.062.625 0 1.219-.265.594-.281 1.219-.86z"/><text x="2882.75" y="32.78" fill="#D9B8FF" font-family="Helvetica" font-size="17" textLength="71">resource</text><path d="M2789.5 46.789h225" style="stroke:#000d19;stroke-width:.5"/><text x="2799.5" y="68.784" fill="#D9B8FF" font-family="sans-serif" font-size="14" font-weight="bold" textLength="29">age</text><text x="2828.5" y="68.784" fill="#D9B8FF" font-family="sans-serif" font-size="14" textLength="66">: duration</text><text x="2799.5" y="95.081" fill="#D9B8FF" font-family="sans-serif" font-size="14" font-weight="bold" textLength="43">atime</text><text x="2842.5" y="95.081" fill="#D9B8FF" font-family="sans-serif" font-size="14" textLength="70">: datetime</text><text x="2799.5" y="121.378" fill="#D9B8FF" font-family="sans-serif" font-size="14" font-weight="bold" textLength="43">ctime</text><text x="2842.5" y="121.378" fill="#D9B8FF" font-family="sans-serif" font-size="14" textLength="70">: datetime</text><text x="2799.5" y="147.675" fill="#D9B8FF" font-family="sans-serif" font-size="14" font-weight="bold" textLength="14">id</text><text x="2813.5" y="147.675" fill="#D9B8FF" font-family="sans-serif" font-size="14" textLength="48">: string</text><text x="2799.5" y="173.972" fill="#D9B8FF" font-family="sans-serif" font-size="14" font-weight="bold" textLength="33">kind</text><text x="2832.5" y="173.972" fill="#D9B8FF" font-family="sans-serif" font-size="14" textLength="48">: string</text><text x="2799.5" y="200.269" fill="#D9B8FF" font-family="sans-serif" font-size="14" font-weight="bold" textLength="90">last_access</text><text x="2889.5" y="200.269" fill="#D9B8FF" font-family="sans-serif" font-size="14" textLength="66">: duration</text><text x="2799.5" y="226.565" fill="#D9B8FF" font-family="sans-serif" font-size="14" font-weight="bold" textLength="90">last_update</text><text x="2889.5" y="226.565" fill="#D9B8FF" font-family="sans-serif" font-size="14" textLength="66">: duration</text><text x="2799.5" y="252.862" fill="#D9B8FF" font-family="sans-serif" font-size="14" font-weight="bold" textLength="48">mtime</text><text x="2847.5" y="252.862" fill="#D9B8FF" font-family="sans-serif" font-size="14" textLength="70">: datetime</text><text x="2799.5" y="279.159" fill="#D9B8FF" font-family="sans-serif" font-size="14" font-weight="bold" textLength="43">name</text><text x="2842.5" y="279.159" fill="#D9B8FF" font-family="sans-serif" font-size="14" textLength="48">: string</text><text x="2799.5" y="305.456" fill="#D9B8FF" font-family="sans-serif" font-size="14" font-weight="bold" textLength="34">tags</text><text x="2833.5" y="305.456" fill="#D9B8FF" font-family="sans-serif" font-size="14" textLength="171">: dictionary[string, string]</text><path fill="none" d="M2902 336.17v102.34m0-120.34-6 18h12zM849.32 1589.62c-150.56 44.81-318.57 94.809-448.27 133.409" style="stroke:#ffaf37;stroke-width:2"/><path fill="#FFAF37" d="m395.3 1724.74 9.767 1.267-4.975-2.693 2.693-4.975z" style="stroke:#ffaf37;stroke-width:2"/><path fill="none" d="M868.43 1660.68c-38.22 20.95-69.978 38.347-102.498 56.167" style="stroke:#ffaf37;stroke-width:2"/><path fill="#FFAF37" d="m760.67 1719.73 9.815-.817-5.43-1.586 1.586-5.43z" style="stroke:#ffaf37;stroke-width:2"/><path fill="none" d="M1175 1660.47v66.51" style="stroke:#ffaf37;stroke-width:2"/><path fill="#FFAF37" d="m1175 1732.98 4-9-4 4-4-4z" style="stroke:#ffaf37;stroke-width:2"/><path fill="none" d="M1496.06 1660.68c40.03 20.95 73.484 38.448 107.534 56.268" style="stroke:#ffaf37;stroke-width:2"/><path fill="#FFAF37" d="m1608.91 1719.73-6.12-7.717 1.69 5.399-5.399 1.689z" style="stroke:#ffaf37;stroke-width:2"/><path fill="none" d="M2067.42 1581.64c42.64 55.41 91.542 118.984 123.082 159.984" style="stroke:#ffaf37;stroke-width:2"/><path fill="#FFAF37" d="m2194.16 1746.38-2.317-9.572-.732 5.609-5.609-.732z" style="stroke:#ffaf37;stroke-width:2"/><path fill="none" d="M2222 1820.85v106.08" style="stroke:#ffaf37;stroke-width:2"/><path fill="#FFAF37" d="m2222 1932.93 4-9-4 4-4-4z" style="stroke:#ffaf37;stroke-width:2"/><path fill="none" d="M2607.18 1106.46c-225.12 58.68-542.94 142.01-821.18 216.71-92.69 24.88-187.384 50.673-279.574 75.963" style="stroke:#ffaf37;stroke-width:2"/><path fill="#FFAF37" d="m1500.64 1400.72 9.737 1.476-4.915-2.799 2.8-4.915z" style="stroke:#ffaf37;stroke-width:2"/><path fill="none" d="M2607.08 1135.28c-125.48 49.86-271.15 114.58-395.08 187.89-38.16 22.57-72.418 47.478-106.378 74.688" style="stroke:#ffaf37;stroke-width:2"/><path fill="#FFAF37" d="m2100.94 1401.61 9.525-2.506-5.623-.62.62-5.623z" style="stroke:#ffaf37;stroke-width:2"/><path fill="none" d="M2657.32 1263.34c-70.6 67.34-136.49 130.198-182.22 173.838" style="stroke:#ffaf37;stroke-width:2"/><path fill="#FFAF37" d="m2470.76 1441.32 9.272-3.32-5.655-.132.133-5.655z" style="stroke:#ffaf37;stroke-width:2"/><path fill="none" d="M2902 1263.34v132.27" style="stroke:#ffaf37;stroke-width:2"/><path fill="#FFAF37" d="m2902 1401.61 4-9-4 4-4-4z" style="stroke:#ffaf37;stroke-width:2"/><path fill="none" d="M3158.34 1263.34c73.95 67.34 143.084 130.3 191.004 173.94" style="stroke:#ffaf37;stroke-width:2"/><path fill="#FFAF37" d="m3353.78 1441.32-3.96-9.017.263 5.65-5.65.265z" style="stroke:#ffaf37;stroke-width:2"/><path fill="none" d="M2902 692.01v102.51m0-120.51-6 18h12zm294.72 448.44c138.89 49.76 303.85 117.98 441.28 200.72 55.19 33.23 106.08 77.697 143.95 114.007" style="stroke:#ffaf37;stroke-width:2"/><path fill="#FFAF37" d="m3786.28 1441.33-3.728-9.116.119 5.656-5.656.119z" style="stroke:#ffaf37;stroke-width:2"/><path fill="none" d="M3196.97 1082.02c232.6 46.85 562.12 126.11 835.03 241.15 66.29 27.94 130.538 66.506 183.218 101.406" style="stroke:#ffaf37;stroke-width:2"/><path fill="#FFAF37" d="m4220.22 1427.89-5.294-8.305 1.126 5.544-5.544 1.125z" style="stroke:#ffaf37;stroke-width:2"/><path fill="none" d="M3026.89 1581.71c45.69 28.93 98.99 58.66 151.11 78.51 139.05 52.98 297.542 82.72 427.872 100.03" style="stroke:#ffaf37;stroke-width:2"/><path fill="#FFAF37" d="m3611.82 1761.04-8.395-5.15 3.438 4.492-4.491 3.438z" style="stroke:#ffaf37;stroke-width:2"/><path fill="none" d="M2902 1581.64V1714" style="stroke:#ffaf37;stroke-width:2"/><path fill="#FFAF37" d="m2902 1720 4-9-4 4-4-4z" style="stroke:#ffaf37;stroke-width:2"/><path fill="none" d="M2902 1847.16v79.57" style="stroke:#ffaf37;stroke-width:2"/><path fill="#FFAF37" d="m2902 1932.73 4-9-4 4-4-4z" style="stroke:#ffaf37;stroke-width:2"/><path fill="none" d="M1125.29 1834.23c-30.13 30.1-64.186 64.129-94.316 94.239" style="stroke:#ffaf37;stroke-width:2"/><path fill="#FFAF37" d="m1026.73 1932.71 9.194-3.533-5.657-.001.002-5.657z" style="stroke:#ffaf37;stroke-width:2"/><path fill="none" d="M1224.71 1834.23c21.88 21.86 43.826 43.79 68.066 68.01" style="stroke:#ffaf37;stroke-width:2"/><path fill="#FFAF37" d="m1297.02 1906.48-3.54-9.19.003 5.656-5.657.002z" style="stroke:#ffaf37;stroke-width:2"/><path fill="none" d="M2902 531.25v102.44m0-120.44-6 18h12zm1305.74 1042.16c-78.62 48.7-181.999 112.73-260.569 161.39" style="stroke:#ffaf37;stroke-width:2"/><path fill="#FFAF37" d="m3942.07 1719.96 9.757-1.338-5.506-1.295 1.294-5.506z" style="stroke:#ffaf37;stroke-width:2"/></svg>