<svg xmlns="http://www.w3.org/2000/svg" xmlns:xlink="http://www.w3.org/1999/xlink" width="725" height="451" preserveAspectRatio="none" style="width:725px;height:451px"><a xlink:actuate="onRequest" xlink:href="#a" xlink:show="new" xlink:title="#digitalocean_load_balancer" xlink:type="simple" target="_top"><rect id="a" width="267" height="39.789" x="106.5" y="306.37" fill="#3D176E" rx="2.5" ry="2.5" style="stroke:#000d19;stroke-width:.5"/><circle cx="121.5" cy="326.264" r="11" fill="#ADD1B2" style="stroke:#181818;stroke-width:1"/><path d="M124.469 331.905q-.578.297-1.219.438-.64.156-1.344.156-2.5 0-3.828-1.64-1.312-1.657-1.312-4.782t1.312-4.781q1.328-1.656 3.828-1.656.703 0 1.344.156.656.156 1.219.453v2.719q-.625-.579-1.219-.844-.594-.281-1.219-.281-1.344 0-2.031 1.078-.688 1.062-.688 3.156 0 2.094.688 3.172.688 1.062 2.031 1.062.625 0 1.219-.265.594-.281 1.219-.86v2.72Z"/><text x="140.5" y="332.15" fill="#D9B8FF" font-family="Helvetica" font-size="17" textLength="225">digitalocean_load_balancer</text></a><a xlink:actuate="onRequest" xlink:href="#b" xlink:show="new" xlink:title="#digitalocean_droplet" xlink:type="simple" target="_top"><rect id="b" width="211" height="39.789" x="320.5" y="406.16" fill="#3D176E" rx="2.5" ry="2.5" style="stroke:#000d19;stroke-width:.5"/><circle cx="335.5" cy="426.055" r="11" fill="#ADD1B2" style="stroke:#181818;stroke-width:1"/><path d="M338.469 431.695q-.578.297-1.219.438-.64.156-1.344.156-2.5 0-3.828-1.64-1.312-1.657-1.312-4.782t1.312-4.781q1.328-1.656 3.828-1.656.703 0 1.344.156.656.156 1.219.453v2.719q-.625-.578-1.219-.844-.594-.281-1.219-.281-1.344 0-2.031 1.078-.688 1.062-.688 3.156 0 2.094.688 3.172.688 1.062 2.031 1.062.625 0 1.219-.265.594-.281 1.219-.86v2.72Z"/><text x="354.5" y="431.94" fill="#D9B8FF" font-family="Helvetica" font-size="17" textLength="169">digitalocean_droplet</text></a><a xlink:actuate="onRequest" xlink:href="#c" xlink:show="new" xlink:title="#digitalocean_vpc" xlink:type="simple" target="_top"><rect id="c" width="180" height="39.789" x="7" y="206.58" fill="#3D176E" rx="2.5" ry="2.5" style="stroke:#000d19;stroke-width:.5"/><circle cx="22" cy="226.475" r="11" fill="#ADD1B2" style="stroke:#181818;stroke-width:1"/><path d="M24.969 232.115q-.578.297-1.219.438-.64.156-1.344.156-2.5 0-3.828-1.64-1.312-1.657-1.312-4.782t1.312-4.781q1.328-1.656 3.828-1.656.703 0 1.344.156.656.156 1.219.453v2.719q-.625-.578-1.219-.844-.594-.281-1.219-.281-1.343 0-2.031 1.078-.688 1.062-.688 3.156 0 2.094.688 3.172.688 1.062 2.031 1.062.625 0 1.219-.265.594-.281 1.219-.86v2.72Z"/><text x="41" y="232.36" fill="#D9B8FF" font-family="Helvetica" font-size="17" textLength="138">digitalocean_vpc</text></a><a xlink:actuate="onRequest" xlink:href="#d" xlink:show="new" xlink:title="#digitalocean_team" xlink:type="simple" target="_top"><rect id="d" width="196" height="39.789" x="297" y="7" fill="#3D176E" rx="2.5" ry="2.5" style="stroke:#000d19;stroke-width:.5"/><circle cx="312" cy="26.895" r="11" fill="#ADD1B2" style="stroke:#181818;stroke-width:1"/><path d="M314.969 32.535q-.578.297-1.219.438-.64.156-1.344.156-2.5 0-3.828-1.64-1.312-1.657-1.312-4.782t1.312-4.781q1.328-1.656 3.828-1.656.703 0 1.344.156.656.156 1.219.453v2.719q-.625-.578-1.219-.844-.594-.281-1.219-.281-1.344 0-2.031 1.078-.688 1.062-.688 3.156 0 2.094.688 3.172.688 1.062 2.031 1.062.625 0 1.219-.265.594-.281 1.219-.86v2.72Z"/><text x="331" y="32.78" fill="#D9B8FF" font-family="Helvetica" font-size="17" textLength="154">digitalocean_team</text></a><a xlink:actuate="onRequest" xlink:href="#e" xlink:show="new" xlink:title="#digitalocean_region" xlink:type="simple" target="_top"><rect id="e" width="205" height="39.789" x="292.5" y="106.79" fill="#3D176E" rx="2.5" ry="2.5" style="stroke:#000d19;stroke-width:.5"/><circle cx="307.5" cy="126.684" r="11" fill="#ADD1B2" style="stroke:#181818;stroke-width:1"/><path d="M310.469 132.325q-.578.297-1.219.438-.64.156-1.344.156-2.5 0-3.828-1.64-1.312-1.657-1.312-4.782t1.312-4.781q1.328-1.656 3.828-1.656.703 0 1.344.156.656.156 1.219.453v2.719q-.625-.579-1.219-.844-.594-.281-1.219-.281-1.344 0-2.031 1.078-.688 1.062-.688 3.156 0 2.094.688 3.172.688 1.062 2.031 1.062.625 0 1.219-.265.594-.281 1.219-.86v2.72Z"/><text x="326.5" y="132.57" fill="#D9B8FF" font-family="Helvetica" font-size="17" textLength="163">digitalocean_region</text></a><a xlink:actuate="onRequest" xlink:href="#f" xlink:show="new" xlink:title="#digitalocean_project" xlink:type="simple" target="_top"><rect id="f" width="209" height="39.789" x="447.5" y="206.58" fill="#3D176E" rx="2.5" ry="2.5" style="stroke:#000d19;stroke-width:.5"/><circle cx="462.5" cy="226.475" r="11" fill="#ADD1B2" style="stroke:#181818;stroke-width:1"/><path d="M465.469 232.115q-.578.297-1.219.438-.64.156-1.344.156-2.5 0-3.828-1.64-1.312-1.657-1.312-4.782t1.312-4.781q1.328-1.656 3.828-1.656.703 0 1.344.156.656.156 1.219.453v2.719q-.625-.578-1.219-.844-.594-.281-1.219-.281-1.344 0-2.031 1.078-.688 1.062-.688 3.156 0 2.094.688 3.172.688 1.062 2.031 1.062.625 0 1.219-.265.594-.281 1.219-.86v2.72Z"/><text x="481.5" y="232.36" fill="#D9B8FF" font-family="Helvetica" font-size="17" textLength="167">digitalocean_project</text></a><path fill="none" d="M276.75 346.59c30.95 16.27 75.22 39.54 107.5 56.52" style="stroke:#1a83af;stroke-width:2"/><path fill="#1A83AF" d="m388.33 405.78-6.104-7.729 1.678 5.402-5.401 1.679 9.827.648z" style="stroke:#1a83af;stroke-width:2"/><path fill="none" d="M88.53 246.66c-9.86 25.6-22.11 71.02.47 99.5 27.95 35.25 138.46 56.25 225.42 67.62" style="stroke:#1a83af;stroke-width:2"/><path fill="#1A83AF" d="m319.11 414.51-8.413-5.121 3.454 4.48-4.48 3.454 9.439-2.813z" style="stroke:#1a83af;stroke-width:2"/><path fill="none" d="M125.25 246.8c23.51 16.07 56.99 38.97 81.73 55.89" style="stroke:#1a83af;stroke-width:2"/><path fill="#1A83AF" d="m210.81 305.99-5.164-8.387 1.04 5.561-5.561 1.04 9.685 1.786z" style="stroke:#1a83af;stroke-width:2"/><path fill="none" d="M460.92 47.29C529.83 71.68 633.47 121.08 674 206.58c44.35 93.58-97.08 163.79-184.39 197.08" style="stroke:#1a83af;stroke-width:2"/><path fill="#1A83AF" d="m485.19 405.7 9.833.559-5.156-2.327 2.327-5.156-7.004 6.924z" style="stroke:#1a83af;stroke-width:2"/><path fill="none" d="M395 47.22v53.31" style="stroke:#1a83af;stroke-width:2"/><path fill="#1A83AF" d="m395 105.41 4-9-4 4-4-4 4 9z" style="stroke:#1a83af;stroke-width:2"/><path fill="none" d="M335.83 47.16C298.97 60.7 251.58 80.98 214 106.79c-39.68 27.26-77.2 69.21-98.61 95.25" style="stroke:#1a83af;stroke-width:2"/><path fill="#1A83AF" d="m111.84 205.4 8.788-4.447-5.628.572-.572-5.628-2.588 9.503z" style="stroke:#1a83af;stroke-width:2"/><path fill="none" d="M348 47.25c-25.67 13.02-55.67 32.75-73 59.54-39.25 60.69-39.71 150.19-37.2 193.36" style="stroke:#1a83af;stroke-width:2"/><path fill="#1A83AF" d="m238.17 304.93 3.426-9.234-3.74 4.244-4.244-3.74 4.558 8.73z" style="stroke:#1a83af;stroke-width:2"/><path fill="none" d="M438.54 47.15c25.61 13.36 56.73 33.46 76.46 59.64 21.04 27.93 30.27 68.04 34.21 93.73" style="stroke:#1a83af;stroke-width:2"/><path fill="#1A83AF" d="m550.06 205.41 2.676-9.478-3.39 4.53-4.529-3.39 5.243 8.338z" style="stroke:#1a83af;stroke-width:2"/><path fill="none" d="M379.86 146.99c-28.48 36.3-89.92 114.62-121.02 154.26" style="stroke:#1a83af;stroke-width:2"/><path fill="#1A83AF" d="m255.21 304.88 8.705-4.607-5.617.675-.674-5.616-2.414 9.548z" style="stroke:#1a83af;stroke-width:2"/><path fill="none" d="M336.12 147.01c-50.32 16.51-122.62 40.24-174.52 57.27" style="stroke:#1a83af;stroke-width:2"/><path fill="#1A83AF" d="m157.01 206.11 9.798 1.002-5.046-2.557 2.557-5.046-7.309 6.601z" style="stroke:#1a83af;stroke-width:2"/><path fill="none" d="m396.99 146.74 26.41 253.35" style="stroke:#1a83af;stroke-width:2"/><path fill="#1A83AF" d="m423.99 404.78 3.053-9.364-3.567 4.39-4.39-3.567 4.904 8.541z" style="stroke:#1a83af;stroke-width:2"/><path fill="none" d="M490.36 246.8c-52.8 16.54-128.69 40.33-183.06 57.37" style="stroke:#1a83af;stroke-width:2"/><path fill="#1A83AF" d="m302.78 305.9 9.782 1.144-5.008-2.63 2.63-5.009-7.404 6.495z" style="stroke:#1a83af;stroke-width:2"/><path fill="none" d="M539.69 246.78c-23.15 36.3-73.1 114.62-98.37 154.26" style="stroke:#1a83af;stroke-width:2"/><path fill="#1A83AF" d="m438.36 404.67 8.21-5.44-5.523 1.224-1.223-5.524-1.464 9.74z" style="stroke:#1a83af;stroke-width:2"/></svg>