<?xml version="1.0" encoding="us-ascii" standalone="no"?><svg xmlns="http://www.w3.org/2000/svg" xmlns:xlink="http://www.w3.org/1999/xlink" contentStyleType="text/css" height="1485px" preserveAspectRatio="none" style="width:1526px;height:1485px;" version="1.1" viewBox="0 0 1526 1485" width="1526px" zoomAndPan="magnify"><defs/><g><!--class aws_resource--><g id="elem_aws_resource"><rect codeLine="22" fill="#3D176E" height="74.0859" id="aws_resource" rx="2.5" ry="2.5" style="stroke:#000D19;stroke-width:0.5;" width="155" x="596" y="438.75"/><ellipse cx="611" cy="458.6445" fill="#ADD1B2" rx="11" ry="11" style="stroke:#181818;stroke-width:1.0;"/><path d="M613.9688,464.2852 Q613.3906,464.582 612.75,464.7227 Q612.1094,464.8789 611.4063,464.8789 Q608.9063,464.8789 607.5781,463.2383 Q606.2656,461.582 606.2656,458.457 Q606.2656,455.332 607.5781,453.6758 Q608.9063,452.0195 611.4063,452.0195 Q612.1094,452.0195 612.75,452.1758 Q613.4063,452.332 613.9688,452.6289 L613.9688,455.3477 Q613.3438,454.7695 612.75,454.5039 Q612.1563,454.2227 611.5313,454.2227 Q610.1875,454.2227 609.5,455.3008 Q608.8125,456.3633 608.8125,458.457 Q608.8125,460.5508 609.5,461.6289 Q610.1875,462.6914 611.5313,462.6914 Q612.1563,462.6914 612.75,462.4258 Q613.3438,462.1445 613.9688,461.5664 L613.9688,464.2852 Z " fill="#000000"/><text fill="#D9B8FF" font-family="Helvetica" font-size="17" lengthAdjust="spacing" textLength="113" x="630" y="464.5298">aws_resource</text><line style="stroke:#000D19;stroke-width:0.5;" x1="597" x2="750" y1="478.5391" y2="478.5391"/><text fill="#D9B8FF" font-family="sans-serif" font-size="14" font-weight="bold" lengthAdjust="spacing" textLength="26" x="607" y="500.5342">arn</text><text fill="#D9B8FF" font-family="sans-serif" font-size="14" lengthAdjust="spacing" textLength="48" x="633" y="500.5342">: string</text></g><!--class aws_s3_bucket--><g id="elem_aws_s3_bucket"><rect codeLine="25" fill="#3D176E" height="231.8672" id="aws_s3_bucket" rx="2.5" ry="2.5" style="stroke:#000D19;stroke-width:0.5;" width="658" x="424.5" y="633.84"/><ellipse cx="681.25" cy="653.7345" fill="#ADD1B2" rx="11" ry="11" style="stroke:#181818;stroke-width:1.0;"/><path d="M684.2188,659.3752 Q683.6406,659.672 683,659.8127 Q682.3594,659.9689 681.6563,659.9689 Q679.1563,659.9689 677.8281,658.3283 Q676.5156,656.672 676.5156,653.547 Q676.5156,650.422 677.8281,648.7658 Q679.1563,647.1095 681.6563,647.1095 Q682.3594,647.1095 683,647.2658 Q683.6563,647.422 684.2188,647.7189 L684.2188,650.4377 Q683.5938,649.8595 683,649.5939 Q682.4063,649.3127 681.7813,649.3127 Q680.4375,649.3127 679.75,650.3908 Q679.0625,651.4533 679.0625,653.547 Q679.0625,655.6408 679.75,656.7189 Q680.4375,657.7814 681.7813,657.7814 Q682.4063,657.7814 683,657.5158 Q683.5938,657.2345 684.2188,656.6564 L684.2188,659.3752 Z " fill="#000000"/><text fill="#D9B8FF" font-family="Helvetica" font-size="17" lengthAdjust="spacing" textLength="126" x="706.75" y="659.6198">aws_s3_bucket</text><line style="stroke:#000D19;stroke-width:0.5;" x1="425.5" x2="1081.5" y1="673.6291" y2="673.6291"/><text fill="#D9B8FF" font-family="sans-serif" font-size="14" font-weight="bold" lengthAdjust="spacing" textLength="83" x="435.5" y="695.6242">bucket_acl</text><text fill="#D9B8FF" font-family="sans-serif" font-size="14" lengthAdjust="spacing" textLength="141" x="518.5" y="695.6242">: aws_s3_bucket_acl</text><text fill="#D9B8FF" font-family="sans-serif" font-size="14" font-weight="bold" lengthAdjust="spacing" textLength="193" x="435.5" y="721.9211">bucket_encryption_rules</text><text fill="#D9B8FF" font-family="sans-serif" font-size="14" lengthAdjust="spacing" textLength="269" x="628.5" y="721.9211">: aws_s3_server_side_encryption_rule[]</text><text fill="#D9B8FF" font-family="sans-serif" font-size="14" font-weight="bold" lengthAdjust="spacing" textLength="119" x="435.5" y="748.2179">bucket_logging</text><text fill="#D9B8FF" font-family="sans-serif" font-size="14" lengthAdjust="spacing" textLength="118" x="554.5" y="748.2179">: aws_s3_logging</text><text fill="#D9B8FF" font-family="sans-serif" font-size="14" font-weight="bold" lengthAdjust="spacing" textLength="147" x="435.5" y="774.5148">bucket_mfa_delete</text><text fill="#D9B8FF" font-family="sans-serif" font-size="14" lengthAdjust="spacing" textLength="65" x="582.5" y="774.5148">: boolean</text><text fill="#D9B8FF" font-family="sans-serif" font-size="14" font-weight="bold" lengthAdjust="spacing" textLength="107" x="435.5" y="800.8117">bucket_policy</text><text fill="#D9B8FF" font-family="sans-serif" font-size="14" lengthAdjust="spacing" textLength="156" x="542.5" y="800.8117">: dictionary[string, any]</text><text fill="#D9B8FF" font-family="sans-serif" font-size="14" font-weight="bold" lengthAdjust="spacing" textLength="331" x="435.5" y="827.1086">bucket_public_access_block_configuration</text><text fill="#D9B8FF" font-family="sans-serif" font-size="14" lengthAdjust="spacing" textLength="305" x="766.5" y="827.1086">: aws_s3_public_access_block_configuration</text><text fill="#D9B8FF" font-family="sans-serif" font-size="14" font-weight="bold" lengthAdjust="spacing" textLength="144" x="435.5" y="853.4054">bucket_versioning</text><text fill="#D9B8FF" font-family="sans-serif" font-size="14" lengthAdjust="spacing" textLength="65" x="579.5" y="853.4054">: boolean</text></g><!--class aws_s3_bucket_acl--><g id="elem_aws_s3_bucket_acl"><rect codeLine="34" fill="#3D176E" height="100.3828" id="aws_s3_bucket_acl" rx="2.5" ry="2.5" style="stroke:#000D19;stroke-width:0.5;" width="200" x="185.5" y="952"/><ellipse cx="200.5" cy="971.8945" fill="#ADD1B2" rx="11" ry="11" style="stroke:#181818;stroke-width:1.0;"/><path d="M203.4688,977.5352 Q202.8906,977.832 202.25,977.9727 Q201.6094,978.1289 200.9063,978.1289 Q198.4063,978.1289 197.0781,976.4883 Q195.7656,974.832 195.7656,971.707 Q195.7656,968.582 197.0781,966.9258 Q198.4063,965.2695 200.9063,965.2695 Q201.6094,965.2695 202.25,965.4258 Q202.9063,965.582 203.4688,965.8789 L203.4688,968.5977 Q202.8438,968.0195 202.25,967.7539 Q201.6563,967.4727 201.0313,967.4727 Q199.6875,967.4727 199,968.5508 Q198.3125,969.6133 198.3125,971.707 Q198.3125,973.8008 199,974.8789 Q199.6875,975.9414 201.0313,975.9414 Q201.6563,975.9414 202.25,975.6758 Q202.8438,975.3945 203.4688,974.8164 L203.4688,977.5352 Z " fill="#000000"/><text fill="#D9B8FF" font-family="Helvetica" font-size="17" lengthAdjust="spacing" textLength="158" x="219.5" y="977.7798">aws_s3_bucket_acl</text><line style="stroke:#000D19;stroke-width:0.5;" x1="186.5" x2="384.5" y1="991.7891" y2="991.7891"/><text fill="#D9B8FF" font-family="sans-serif" font-size="14" font-weight="bold" lengthAdjust="spacing" textLength="51" x="196.5" y="1013.7842">grants</text><text fill="#D9B8FF" font-family="sans-serif" font-size="14" lengthAdjust="spacing" textLength="113" x="247.5" y="1013.7842">: aws_s3_grant[]</text><text fill="#D9B8FF" font-family="sans-serif" font-size="14" font-weight="bold" lengthAdjust="spacing" textLength="51" x="196.5" y="1040.0811">owner</text><text fill="#D9B8FF" font-family="sans-serif" font-size="14" lengthAdjust="spacing" textLength="110" x="247.5" y="1040.0811">: aws_s3_owner</text></g><!--class aws_s3_grant--><g id="elem_aws_s3_grant"><rect codeLine="38" fill="#3D176E" height="100.3828" id="aws_s3_grant" rx="2.5" ry="2.5" style="stroke:#000D19;stroke-width:0.5;" width="205" x="7" y="1138.68"/><ellipse cx="43.6" cy="1158.5745" fill="#ADD1B2" rx="11" ry="11" style="stroke:#181818;stroke-width:1.0;"/><path d="M46.5688,1164.2152 Q45.9906,1164.512 45.35,1164.6527 Q44.7094,1164.8089 44.0063,1164.8089 Q41.5063,1164.8089 40.1781,1163.1683 Q38.8656,1161.512 38.8656,1158.387 Q38.8656,1155.262 40.1781,1153.6058 Q41.5063,1151.9495 44.0063,1151.9495 Q44.7094,1151.9495 45.35,1152.1058 Q46.0063,1152.262 46.5688,1152.5589 L46.5688,1155.2777 Q45.9438,1154.6995 45.35,1154.4339 Q44.7563,1154.1527 44.1313,1154.1527 Q42.7875,1154.1527 42.1,1155.2308 Q41.4125,1156.2933 41.4125,1158.387 Q41.4125,1160.4808 42.1,1161.5589 Q42.7875,1162.6214 44.1313,1162.6214 Q44.7563,1162.6214 45.35,1162.3558 Q45.9438,1162.0745 46.5688,1161.4964 L46.5688,1164.2152 Z " fill="#000000"/><text fill="#D9B8FF" font-family="Helvetica" font-size="17" lengthAdjust="spacing" textLength="115" x="67.4" y="1164.4598">aws_s3_grant</text><line style="stroke:#000D19;stroke-width:0.5;" x1="8" x2="211" y1="1178.4691" y2="1178.4691"/><text fill="#D9B8FF" font-family="sans-serif" font-size="14" font-weight="bold" lengthAdjust="spacing" textLength="62" x="18" y="1200.4642">grantee</text><text fill="#D9B8FF" font-family="sans-serif" font-size="14" lengthAdjust="spacing" textLength="121" x="80" y="1200.4642">: aws_s3_grantee</text><text fill="#D9B8FF" font-family="sans-serif" font-size="14" font-weight="bold" lengthAdjust="spacing" textLength="87" x="18" y="1226.7611">permission</text><text fill="#D9B8FF" font-family="sans-serif" font-size="14" lengthAdjust="spacing" textLength="48" x="105" y="1226.7611">: string</text></g><!--class aws_s3_grantee--><g id="elem_aws_s3_grantee"><rect codeLine="42" fill="#3D176E" height="179.2734" id="aws_s3_grantee" rx="2.5" ry="2.5" style="stroke:#000D19;stroke-width:0.5;" width="182" x="246.5" y="1299.07"/><ellipse cx="263.75" cy="1318.9645" fill="#ADD1B2" rx="11" ry="11" style="stroke:#181818;stroke-width:1.0;"/><path d="M266.7188,1324.6052 Q266.1406,1324.902 265.5,1325.0427 Q264.8594,1325.1989 264.1563,1325.1989 Q261.6563,1325.1989 260.3281,1323.5583 Q259.0156,1321.902 259.0156,1318.777 Q259.0156,1315.652 260.3281,1313.9958 Q261.6563,1312.3395 264.1563,1312.3395 Q264.8594,1312.3395 265.5,1312.4958 Q266.1563,1312.652 266.7188,1312.9489 L266.7188,1315.6677 Q266.0938,1315.0895 265.5,1314.8239 Q264.9063,1314.5427 264.2813,1314.5427 Q262.9375,1314.5427 262.25,1315.6208 Q261.5625,1316.6833 261.5625,1318.777 Q261.5625,1320.8708 262.25,1321.9489 Q262.9375,1323.0114 264.2813,1323.0114 Q264.9063,1323.0114 265.5,1322.7458 Q266.0938,1322.4645 266.7188,1321.8864 L266.7188,1324.6052 Z " fill="#000000"/><text fill="#D9B8FF" font-family="Helvetica" font-size="17" lengthAdjust="spacing" textLength="135" x="283.25" y="1324.8498">aws_s3_grantee</text><line style="stroke:#000D19;stroke-width:0.5;" x1="247.5" x2="427.5" y1="1338.8591" y2="1338.8591"/><text fill="#D9B8FF" font-family="sans-serif" font-size="14" font-weight="bold" lengthAdjust="spacing" textLength="105" x="257.5" y="1360.8542">display_name</text><text fill="#D9B8FF" font-family="sans-serif" font-size="14" lengthAdjust="spacing" textLength="48" x="362.5" y="1360.8542">: string</text><text fill="#D9B8FF" font-family="sans-serif" font-size="14" font-weight="bold" lengthAdjust="spacing" textLength="112" x="257.5" y="1387.1511">email_address</text><text fill="#D9B8FF" font-family="sans-serif" font-size="14" lengthAdjust="spacing" textLength="48" x="369.5" y="1387.1511">: string</text><text fill="#D9B8FF" font-family="sans-serif" font-size="14" font-weight="bold" lengthAdjust="spacing" textLength="14" x="257.5" y="1413.4479">id</text><text fill="#D9B8FF" font-family="sans-serif" font-size="14" lengthAdjust="spacing" textLength="48" x="271.5" y="1413.4479">: string</text><text fill="#D9B8FF" font-family="sans-serif" font-size="14" font-weight="bold" lengthAdjust="spacing" textLength="35" x="257.5" y="1439.7448">type</text><text fill="#D9B8FF" font-family="sans-serif" font-size="14" lengthAdjust="spacing" textLength="48" x="292.5" y="1439.7448">: string</text><text fill="#D9B8FF" font-family="sans-serif" font-size="14" font-weight="bold" lengthAdjust="spacing" textLength="21" x="257.5" y="1466.0417">uri</text><text fill="#D9B8FF" font-family="sans-serif" font-size="14" lengthAdjust="spacing" textLength="48" x="278.5" y="1466.0417">: string</text></g><!--class aws_s3_logging--><g id="elem_aws_s3_logging"><rect codeLine="49" fill="#3D176E" height="126.6797" id="aws_s3_logging" rx="2.5" ry="2.5" style="stroke:#000D19;stroke-width:0.5;" width="289" x="421" y="938.86"/><ellipse cx="490.75" cy="958.7545" fill="#ADD1B2" rx="11" ry="11" style="stroke:#181818;stroke-width:1.0;"/><path d="M493.7188,964.3952 Q493.1406,964.692 492.5,964.8327 Q491.8594,964.9889 491.1563,964.9889 Q488.6563,964.9889 487.3281,963.3483 Q486.0156,961.692 486.0156,958.567 Q486.0156,955.442 487.3281,953.7858 Q488.6563,952.1295 491.1563,952.1295 Q491.8594,952.1295 492.5,952.2858 Q493.1563,952.442 493.7188,952.7389 L493.7188,955.4577 Q493.0938,954.8795 492.5,954.6139 Q491.9063,954.3327 491.2813,954.3327 Q489.9375,954.3327 489.25,955.4108 Q488.5625,956.4733 488.5625,958.567 Q488.5625,960.6608 489.25,961.7389 Q489.9375,962.8014 491.2813,962.8014 Q491.9063,962.8014 492.5,962.5358 Q493.0938,962.2545 493.7188,961.6764 L493.7188,964.3952 Z " fill="#000000"/><text fill="#D9B8FF" font-family="Helvetica" font-size="17" lengthAdjust="spacing" textLength="131" x="516.25" y="964.6398">aws_s3_logging</text><line style="stroke:#000D19;stroke-width:0.5;" x1="422" x2="709" y1="978.6491" y2="978.6491"/><text fill="#D9B8FF" font-family="sans-serif" font-size="14" font-weight="bold" lengthAdjust="spacing" textLength="109" x="432" y="1000.6442">target_bucket</text><text fill="#D9B8FF" font-family="sans-serif" font-size="14" lengthAdjust="spacing" textLength="48" x="541" y="1000.6442">: string</text><text fill="#D9B8FF" font-family="sans-serif" font-size="14" font-weight="bold" lengthAdjust="spacing" textLength="106" x="432" y="1026.9411">target_grants</text><text fill="#D9B8FF" font-family="sans-serif" font-size="14" lengthAdjust="spacing" textLength="161" x="538" y="1026.9411">: aws_s3_target_grant[]</text><text fill="#D9B8FF" font-family="sans-serif" font-size="14" font-weight="bold" lengthAdjust="spacing" textLength="101" x="432" y="1053.2379">target_prefix</text><text fill="#D9B8FF" font-family="sans-serif" font-size="14" lengthAdjust="spacing" textLength="48" x="533" y="1053.2379">: string</text></g><!--class aws_s3_owner--><g id="elem_aws_s3_owner"><rect codeLine="54" fill="#3D176E" height="100.3828" id="aws_s3_owner" rx="2.5" ry="2.5" style="stroke:#000D19;stroke-width:0.5;" width="175" x="247" y="1138.68"/><ellipse cx="266.5" cy="1158.5745" fill="#ADD1B2" rx="11" ry="11" style="stroke:#181818;stroke-width:1.0;"/><path d="M269.4688,1164.2152 Q268.8906,1164.512 268.25,1164.6527 Q267.6094,1164.8089 266.9063,1164.8089 Q264.4063,1164.8089 263.0781,1163.1683 Q261.7656,1161.512 261.7656,1158.387 Q261.7656,1155.262 263.0781,1153.6058 Q264.4063,1151.9495 266.9063,1151.9495 Q267.6094,1151.9495 268.25,1152.1058 Q268.9063,1152.262 269.4688,1152.5589 L269.4688,1155.2777 Q268.8438,1154.6995 268.25,1154.4339 Q267.6563,1154.1527 267.0313,1154.1527 Q265.6875,1154.1527 265,1155.2308 Q264.3125,1156.2933 264.3125,1158.387 Q264.3125,1160.4808 265,1161.5589 Q265.6875,1162.6214 267.0313,1162.6214 Q267.6563,1162.6214 268.25,1162.3558 Q268.8438,1162.0745 269.4688,1161.4964 L269.4688,1164.2152 Z " fill="#000000"/><text fill="#D9B8FF" font-family="Helvetica" font-size="17" lengthAdjust="spacing" textLength="123" x="286.5" y="1164.4598">aws_s3_owner</text><line style="stroke:#000D19;stroke-width:0.5;" x1="248" x2="421" y1="1178.4691" y2="1178.4691"/><text fill="#D9B8FF" font-family="sans-serif" font-size="14" font-weight="bold" lengthAdjust="spacing" textLength="105" x="258" y="1200.4642">display_name</text><text fill="#D9B8FF" font-family="sans-serif" font-size="14" lengthAdjust="spacing" textLength="48" x="363" y="1200.4642">: string</text><text fill="#D9B8FF" font-family="sans-serif" font-size="14" font-weight="bold" lengthAdjust="spacing" textLength="14" x="258" y="1226.7611">id</text><text fill="#D9B8FF" font-family="sans-serif" font-size="14" lengthAdjust="spacing" textLength="48" x="272" y="1226.7611">: string</text></g><!--class aws_s3_public_access_block_configuration--><g id="elem_aws_s3_public_access_block_configuration"><rect codeLine="58" fill="#3D176E" height="152.9766" id="aws_s3_public_access_block_configuration" rx="2.5" ry="2.5" style="stroke:#000D19;stroke-width:0.5;" width="394" x="744.5" y="925.71"/><ellipse cx="759.5" cy="945.6045" fill="#ADD1B2" rx="11" ry="11" style="stroke:#181818;stroke-width:1.0;"/><path d="M762.4688,951.2452 Q761.8906,951.542 761.25,951.6827 Q760.6094,951.8389 759.9063,951.8389 Q757.4063,951.8389 756.0781,950.1983 Q754.7656,948.542 754.7656,945.417 Q754.7656,942.292 756.0781,940.6358 Q757.4063,938.9795 759.9063,938.9795 Q760.6094,938.9795 761.25,939.1358 Q761.9063,939.292 762.4688,939.5889 L762.4688,942.3077 Q761.8438,941.7295 761.25,941.4639 Q760.6563,941.1827 760.0313,941.1827 Q758.6875,941.1827 758,942.2608 Q757.3125,943.3233 757.3125,945.417 Q757.3125,947.5108 758,948.5889 Q758.6875,949.6514 760.0313,949.6514 Q760.6563,949.6514 761.25,949.3858 Q761.8438,949.1045 762.4688,948.5264 L762.4688,951.2452 Z " fill="#000000"/><text fill="#D9B8FF" font-family="Helvetica" font-size="17" lengthAdjust="spacing" textLength="352" x="778.5" y="951.4898">aws_s3_public_access_block_configuration</text><line style="stroke:#000D19;stroke-width:0.5;" x1="745.5" x2="1137.5" y1="965.4991" y2="965.4991"/><text fill="#D9B8FF" font-family="sans-serif" font-size="14" font-weight="bold" lengthAdjust="spacing" textLength="134" x="755.5" y="987.4942">block_public_acls</text><text fill="#D9B8FF" font-family="sans-serif" font-size="14" lengthAdjust="spacing" textLength="65" x="889.5" y="987.4942">: boolean</text><text fill="#D9B8FF" font-family="sans-serif" font-size="14" font-weight="bold" lengthAdjust="spacing" textLength="149" x="755.5" y="1013.7911">block_public_policy</text><text fill="#D9B8FF" font-family="sans-serif" font-size="14" lengthAdjust="spacing" textLength="65" x="904.5" y="1013.7911">: boolean</text><text fill="#D9B8FF" font-family="sans-serif" font-size="14" font-weight="bold" lengthAdjust="spacing" textLength="143" x="755.5" y="1040.0879">ignore_public_acls</text><text fill="#D9B8FF" font-family="sans-serif" font-size="14" lengthAdjust="spacing" textLength="65" x="898.5" y="1040.0879">: boolean</text><text fill="#D9B8FF" font-family="sans-serif" font-size="14" font-weight="bold" lengthAdjust="spacing" textLength="182" x="755.5" y="1066.3848">restrict_public_buckets</text><text fill="#D9B8FF" font-family="sans-serif" font-size="14" lengthAdjust="spacing" textLength="65" x="937.5" y="1066.3848">: boolean</text></g><!--class aws_s3_server_side_encryption_rule--><g id="elem_aws_s3_server_side_encryption_rule"><rect codeLine="64" fill="#3D176E" height="126.6797" id="aws_s3_server_side_encryption_rule" rx="2.5" ry="2.5" style="stroke:#000D19;stroke-width:0.5;" width="346" x="1173.5" y="938.86"/><ellipse cx="1188.5" cy="958.7545" fill="#ADD1B2" rx="11" ry="11" style="stroke:#181818;stroke-width:1.0;"/><path d="M1191.4688,964.3952 Q1190.8906,964.692 1190.25,964.8327 Q1189.6094,964.9889 1188.9063,964.9889 Q1186.4063,964.9889 1185.0781,963.3483 Q1183.7656,961.692 1183.7656,958.567 Q1183.7656,955.442 1185.0781,953.7858 Q1186.4063,952.1295 1188.9063,952.1295 Q1189.6094,952.1295 1190.25,952.2858 Q1190.9063,952.442 1191.4688,952.7389 L1191.4688,955.4577 Q1190.8438,954.8795 1190.25,954.6139 Q1189.6563,954.3327 1189.0313,954.3327 Q1187.6875,954.3327 1187,955.4108 Q1186.3125,956.4733 1186.3125,958.567 Q1186.3125,960.6608 1187,961.7389 Q1187.6875,962.8014 1189.0313,962.8014 Q1189.6563,962.8014 1190.25,962.5358 Q1190.8438,962.2545 1191.4688,961.6764 L1191.4688,964.3952 Z " fill="#000000"/><text fill="#D9B8FF" font-family="Helvetica" font-size="17" lengthAdjust="spacing" textLength="304" x="1207.5" y="964.6398">aws_s3_server_side_encryption_rule</text><line style="stroke:#000D19;stroke-width:0.5;" x1="1174.5" x2="1518.5" y1="978.6491" y2="978.6491"/><text fill="#D9B8FF" font-family="sans-serif" font-size="14" font-weight="bold" lengthAdjust="spacing" textLength="159" x="1184.5" y="1000.6442">bucket_key_enabled</text><text fill="#D9B8FF" font-family="sans-serif" font-size="14" lengthAdjust="spacing" textLength="65" x="1343.5" y="1000.6442">: boolean</text><text fill="#D9B8FF" font-family="sans-serif" font-size="14" font-weight="bold" lengthAdjust="spacing" textLength="150" x="1184.5" y="1026.9411">kms_master_key_id</text><text fill="#D9B8FF" font-family="sans-serif" font-size="14" lengthAdjust="spacing" textLength="48" x="1334.5" y="1026.9411">: string</text><text fill="#D9B8FF" font-family="sans-serif" font-size="14" font-weight="bold" lengthAdjust="spacing" textLength="109" x="1184.5" y="1053.2379">sse_algorithm</text><text fill="#D9B8FF" font-family="sans-serif" font-size="14" lengthAdjust="spacing" textLength="48" x="1293.5" y="1053.2379">: string</text></g><!--class aws_s3_target_grant--><g id="elem_aws_s3_target_grant"><rect codeLine="69" fill="#3D176E" height="100.3828" id="aws_s3_target_grant" rx="2.5" ry="2.5" style="stroke:#000D19;stroke-width:0.5;" width="217" x="457" y="1138.68"/><ellipse cx="472" cy="1158.5745" fill="#ADD1B2" rx="11" ry="11" style="stroke:#181818;stroke-width:1.0;"/><path d="M474.9688,1164.2152 Q474.3906,1164.512 473.75,1164.6527 Q473.1094,1164.8089 472.4063,1164.8089 Q469.9063,1164.8089 468.5781,1163.1683 Q467.2656,1161.512 467.2656,1158.387 Q467.2656,1155.262 468.5781,1153.6058 Q469.9063,1151.9495 472.4063,1151.9495 Q473.1094,1151.9495 473.75,1152.1058 Q474.4063,1152.262 474.9688,1152.5589 L474.9688,1155.2777 Q474.3438,1154.6995 473.75,1154.4339 Q473.1563,1154.1527 472.5313,1154.1527 Q471.1875,1154.1527 470.5,1155.2308 Q469.8125,1156.2933 469.8125,1158.387 Q469.8125,1160.4808 470.5,1161.5589 Q471.1875,1162.6214 472.5313,1162.6214 Q473.1563,1162.6214 473.75,1162.3558 Q474.3438,1162.0745 474.9688,1161.4964 L474.9688,1164.2152 Z " fill="#000000"/><text fill="#D9B8FF" font-family="Helvetica" font-size="17" lengthAdjust="spacing" textLength="175" x="491" y="1164.4598">aws_s3_target_grant</text><line style="stroke:#000D19;stroke-width:0.5;" x1="458" x2="673" y1="1178.4691" y2="1178.4691"/><text fill="#D9B8FF" font-family="sans-serif" font-size="14" font-weight="bold" lengthAdjust="spacing" textLength="62" x="468" y="1200.4642">grantee</text><text fill="#D9B8FF" font-family="sans-serif" font-size="14" lengthAdjust="spacing" textLength="121" x="530" y="1200.4642">: aws_s3_grantee</text><text fill="#D9B8FF" font-family="sans-serif" font-size="14" font-weight="bold" lengthAdjust="spacing" textLength="87" x="468" y="1226.7611">permission</text><text fill="#D9B8FF" font-family="sans-serif" font-size="14" lengthAdjust="spacing" textLength="48" x="555" y="1226.7611">: string</text></g><!--class bucket--><g id="elem_bucket"><rect codeLine="73" fill="#3D176E" height="39.7891" id="bucket" rx="2.5" ry="2.5" style="stroke:#000D19;stroke-width:0.5;" width="98" x="786.5" y="455.9"/><ellipse cx="801.5" cy="475.7945" fill="#ADD1B2" rx="11" ry="11" style="stroke:#181818;stroke-width:1.0;"/><path d="M804.4688,481.4352 Q803.8906,481.732 803.25,481.8727 Q802.6094,482.0289 801.9063,482.0289 Q799.4063,482.0289 798.0781,480.3883 Q796.7656,478.732 796.7656,475.607 Q796.7656,472.482 798.0781,470.8258 Q799.4063,469.1695 801.9063,469.1695 Q802.6094,469.1695 803.25,469.3258 Q803.9063,469.482 804.4688,469.7789 L804.4688,472.4977 Q803.8438,471.9195 803.25,471.6539 Q802.6563,471.3727 802.0313,471.3727 Q800.6875,471.3727 800,472.4508 Q799.3125,473.5133 799.3125,475.607 Q799.3125,477.7008 800,478.7789 Q800.6875,479.8414 802.0313,479.8414 Q802.6563,479.8414 803.25,479.5758 Q803.8438,479.2945 804.4688,478.7164 L804.4688,481.4352 Z " fill="#000000"/><text fill="#D9B8FF" font-family="Helvetica" font-size="17" lengthAdjust="spacing" textLength="56" x="820.5" y="481.6798">bucket</text></g><!--class resource--><g id="elem_resource"><rect codeLine="75" fill="#3D176E" height="310.7578" id="resource" rx="2.5" ry="2.5" style="stroke:#000D19;stroke-width:0.5;" width="227" x="640" y="7"/><ellipse cx="708.75" cy="26.8945" fill="#ADD1B2" rx="11" ry="11" style="stroke:#181818;stroke-width:1.0;"/><path d="M711.7188,32.5352 Q711.1406,32.832 710.5,32.9727 Q709.8594,33.1289 709.1563,33.1289 Q706.6563,33.1289 705.3281,31.4883 Q704.0156,29.832 704.0156,26.707 Q704.0156,23.582 705.3281,21.9258 Q706.6563,20.2695 709.1563,20.2695 Q709.8594,20.2695 710.5,20.4258 Q711.1563,20.582 711.7188,20.8789 L711.7188,23.5977 Q711.0938,23.0195 710.5,22.7539 Q709.9063,22.4727 709.2813,22.4727 Q707.9375,22.4727 707.25,23.5508 Q706.5625,24.6133 706.5625,26.707 Q706.5625,28.8008 707.25,29.8789 Q707.9375,30.9414 709.2813,30.9414 Q709.9063,30.9414 710.5,30.6758 Q711.0938,30.3945 711.7188,29.8164 L711.7188,32.5352 Z " fill="#000000"/><text fill="#D9B8FF" font-family="Helvetica" font-size="17" lengthAdjust="spacing" textLength="71" x="734.25" y="32.7798">resource</text><line style="stroke:#000D19;stroke-width:0.5;" x1="641" x2="866" y1="46.7891" y2="46.7891"/><text fill="#D9B8FF" font-family="sans-serif" font-size="14" font-weight="bold" lengthAdjust="spacing" textLength="29" x="651" y="68.7842">age</text><text fill="#D9B8FF" font-family="sans-serif" font-size="14" lengthAdjust="spacing" textLength="66" x="680" y="68.7842">: duration</text><text fill="#D9B8FF" font-family="sans-serif" font-size="14" font-weight="bold" lengthAdjust="spacing" textLength="43" x="651" y="95.0811">atime</text><text fill="#D9B8FF" font-family="sans-serif" font-size="14" lengthAdjust="spacing" textLength="70" x="694" y="95.0811">: datetime</text><text fill="#D9B8FF" font-family="sans-serif" font-size="14" font-weight="bold" lengthAdjust="spacing" textLength="43" x="651" y="121.3779">ctime</text><text fill="#D9B8FF" font-family="sans-serif" font-size="14" lengthAdjust="spacing" textLength="70" x="694" y="121.3779">: datetime</text><text fill="#D9B8FF" font-family="sans-serif" font-size="14" font-weight="bold" lengthAdjust="spacing" textLength="14" x="651" y="147.6748">id</text><text fill="#D9B8FF" font-family="sans-serif" font-size="14" lengthAdjust="spacing" textLength="48" x="665" y="147.6748">: string</text><text fill="#D9B8FF" font-family="sans-serif" font-size="14" font-weight="bold" lengthAdjust="spacing" textLength="33" x="651" y="173.9717">kind</text><text fill="#D9B8FF" font-family="sans-serif" font-size="14" lengthAdjust="spacing" textLength="48" x="684" y="173.9717">: string</text><text fill="#D9B8FF" font-family="sans-serif" font-size="14" font-weight="bold" lengthAdjust="spacing" textLength="90" x="651" y="200.2686">last_access</text><text fill="#D9B8FF" font-family="sans-serif" font-size="14" lengthAdjust="spacing" textLength="66" x="741" y="200.2686">: duration</text><text fill="#D9B8FF" font-family="sans-serif" font-size="14" font-weight="bold" lengthAdjust="spacing" textLength="90" x="651" y="226.5654">last_update</text><text fill="#D9B8FF" font-family="sans-serif" font-size="14" lengthAdjust="spacing" textLength="66" x="741" y="226.5654">: duration</text><text fill="#D9B8FF" font-family="sans-serif" font-size="14" font-weight="bold" lengthAdjust="spacing" textLength="48" x="651" y="252.8623">mtime</text><text fill="#D9B8FF" font-family="sans-serif" font-size="14" lengthAdjust="spacing" textLength="70" x="699" y="252.8623">: datetime</text><text fill="#D9B8FF" font-family="sans-serif" font-size="14" font-weight="bold" lengthAdjust="spacing" textLength="43" x="651" y="279.1592">name</text><text fill="#D9B8FF" font-family="sans-serif" font-size="14" lengthAdjust="spacing" textLength="48" x="694" y="279.1592">: string</text><text fill="#D9B8FF" font-family="sans-serif" font-size="14" font-weight="bold" lengthAdjust="spacing" textLength="34" x="651" y="305.4561">tags</text><text fill="#D9B8FF" font-family="sans-serif" font-size="14" lengthAdjust="spacing" textLength="171" x="685" y="305.4561">: dictionary[string, string]</text></g><!--reverse link resource to aws_resource--><g id="link_resource_aws_resource"><path codeLine="87" d="M708.53,338.45 C698.77,376.44 689.41,412.88 682.82,438.51 " fill="none" id="resource-backto-aws_resource" style="stroke:#FFAF37;stroke-width:2.0;"/><polygon fill="none" points="701.98,336.8,713.73,319.17,715.54,340.29,701.98,336.8" style="stroke:#FFAF37;stroke-width:2.0;"/></g><!--reverse link aws_resource to aws_s3_bucket--><g id="link_aws_resource_aws_s3_bucket"><path codeLine="88" d="M690.13,533.33 C698.67,562.35 709.39,598.81 719.57,633.43 " fill="none" id="aws_resource-backto-aws_s3_bucket" style="stroke:#FFAF37;stroke-width:2.0;"/><polygon fill="none" points="683.13,535.36,684.21,514.19,696.57,531.41,683.13,535.36" style="stroke:#FFAF37;stroke-width:2.0;"/></g><!--link aws_s3_bucket to aws_s3_bucket_acl--><g id="link_aws_s3_bucket_aws_s3_bucket_acl"><path codeLine="89" d="M514.5,866 C477,885.29 438.95,905.59 403.5,925.71 C390.99,932.81 377.96,940.66 365.32,948.53 " fill="none" id="aws_s3_bucket-to-aws_s3_bucket_acl" style="stroke:#FFAF37;stroke-width:2.0;"/><polygon fill="#FFAF37" points="361.31,951.67,371.0607,950.2832,365.5476,949.0162,366.8146,943.503,361.31,951.67" style="stroke:#FFAF37;stroke-width:2.0;"/></g><!--link aws_s3_bucket to aws_s3_logging--><g id="link_aws_s3_bucket_aws_s3_logging"><path codeLine="90" d="M666.93,866.09 C649.55,889.24 631.83,912.85 616.16,933.71 " fill="none" id="aws_s3_bucket-to-aws_s3_logging" style="stroke:#FFAF37;stroke-width:2.0;"/><polygon fill="#FFAF37" points="612.64,937.4,621.24,932.6,615.64,933.4,614.84,927.8,612.64,937.4" style="stroke:#FFAF37;stroke-width:2.0;"/></g><!--link aws_s3_bucket to aws_s3_public_access_block_configuration--><g id="link_aws_s3_bucket_aws_s3_public_access_block_configuration"><path codeLine="91" d="M840.07,866.09 C854.02,884.67 868.19,903.54 881.33,921.05 " fill="none" id="aws_s3_bucket-to-aws_s3_public_access_block_configuration" style="stroke:#FFAF37;stroke-width:2.0;"/><polygon fill="#FFAF37" points="884.65,924.48,882.45,914.88,881.65,920.48,876.05,919.68,884.65,924.48" style="stroke:#FFAF37;stroke-width:2.0;"/></g><!--link aws_s3_bucket to aws_s3_server_side_encryption_rule--><g id="link_aws_s3_bucket_aws_s3_server_side_encryption_rule"><path codeLine="92" d="M1026.57,866.09 C1083.47,890.12 1141.52,914.63 1192.28,936.07 " fill="none" id="aws_s3_bucket-to-aws_s3_server_side_encryption_rule" style="stroke:#FFAF37;stroke-width:2.0;"/><polygon fill="#FFAF37" points="1196.8,938.4,1190.0575,931.2209,1192.1918,936.4597,1186.9531,938.594,1196.8,938.4" style="stroke:#FFAF37;stroke-width:2.0;"/></g><!--reverse link bucket to aws_s3_bucket--><g id="link_bucket_aws_s3_bucket"><path codeLine="93" d="M823.77,515.69 C814.47,546.54 800.97,591.34 788.28,633.43 " fill="none" id="bucket-backto-aws_s3_bucket" style="stroke:#FFAF37;stroke-width:2.0;"/><polygon fill="none" points="817.26,514.05,829.73,496.92,830.66,518.09,817.26,514.05" style="stroke:#FFAF37;stroke-width:2.0;"/></g><!--link aws_s3_bucket_acl to aws_s3_grant--><g id="link_aws_s3_bucket_acl_aws_s3_grant"><path codeLine="94" d="M238.34,1052.69 C214.37,1077.84 185.2,1108.44 160.69,1134.16 " fill="none" id="aws_s3_bucket_acl-to-aws_s3_grant" style="stroke:#FFAF37;stroke-width:2.0;"/><polygon fill="#FFAF37" points="157.79,1137.25,166.9016,1133.5111,161.2461,1133.6368,161.1204,1127.9813,157.79,1137.25" style="stroke:#FFAF37;stroke-width:2.0;"/></g><!--link aws_s3_bucket_acl to aws_s3_owner--><g id="link_aws_s3_bucket_acl_aws_s3_owner"><path codeLine="95" d="M298.63,1052.69 C305.17,1077.32 313.09,1107.18 319.83,1132.57 " fill="none" id="aws_s3_bucket_acl-to-aws_s3_owner" style="stroke:#FFAF37;stroke-width:2.0;"/><polygon fill="#FFAF37" points="321.33,1137.25,322.9064,1127.5281,320.0568,1132.4148,315.1701,1129.5652,321.33,1137.25" style="stroke:#FFAF37;stroke-width:2.0;"/></g><!--link aws_s3_grant to aws_s3_grantee--><g id="link_aws_s3_grant_aws_s3_grantee"><path codeLine="96" d="M166.74,1239.54 C189.43,1259.23 216.16,1282.42 241.64,1304.53 " fill="none" id="aws_s3_grant-to-aws_s3_grantee" style="stroke:#FFAF37;stroke-width:2.0;"/><polygon fill="#FFAF37" points="245.05,1308.36,240.8724,1299.4411,241.273,1305.0837,235.6303,1305.4843,245.05,1308.36" style="stroke:#FFAF37;stroke-width:2.0;"/></g><!--link aws_s3_logging to aws_s3_target_grant--><g id="link_aws_s3_logging_aws_s3_target_grant"><path codeLine="97" d="M565.5,1065.98 C565.5,1087.58 565.5,1111.59 565.5,1132.56 " fill="none" id="aws_s3_logging-to-aws_s3_target_grant" style="stroke:#FFAF37;stroke-width:2.0;"/><polygon fill="#FFAF37" points="565.5,1137.38,569.5,1128.38,565.5,1132.38,561.5,1128.38,565.5,1137.38" style="stroke:#FFAF37;stroke-width:2.0;"/></g><!--link aws_s3_target_grant to aws_s3_grantee--><g id="link_aws_s3_target_grant_aws_s3_grantee"><path codeLine="98" d="M508.26,1239.54 C485.57,1259.23 458.84,1282.42 433.36,1304.53 " fill="none" id="aws_s3_target_grant-to-aws_s3_grantee" style="stroke:#FFAF37;stroke-width:2.0;"/><polygon fill="#FFAF37" points="429.95,1308.36,439.3697,1305.4843,433.727,1305.0837,434.1276,1299.4411,429.95,1308.36" style="stroke:#FFAF37;stroke-width:2.0;"/></g><!--reverse link resource to bucket--><g id="link_resource_bucket"><path codeLine="99" d="M799.56,338.3 C812.09,385.9 823.99,431.07 830.46,455.64 " fill="none" id="resource-backto-bucket" style="stroke:#FFAF37;stroke-width:2.0;"/><polygon fill="none" points="792.58,340.3,794.26,319.17,806.12,336.73,792.58,340.3" style="stroke:#FFAF37;stroke-width:2.0;"/></g><!--SRC=[fPHBQzmm4CVl_XI6t9Ok90rjab8AQQ2qbr2Qta8niZJsYfKbCvApTH_VlRBiNKloOmyzhNVcf_yyD9eTPv12LPishQ3A0NMYzrpM14cLtYEgmuCI2jEBeY35zKti_AIaEGiyaWhIpo1Um71AOkBxZjEz1AtJrvxh8w7x4bKZMIzla4XjNI2DHpq8elMzCSZpne2N3BlBRuiY9cFHYsjsTVCM9fX21ZWWbvUNxEekHiw6MgtxH3pnNv1U-KrxL0OcQKv2E6erouxmafmKUlGlvlYLCCPbcRxnRD_wd5021lQd7M7gqD454TeFemqWADFMy32f2kvkMN4p2tzPWcdNkPGST8QWLOCKqj_9PaDGRZRlh03Q99A_7gQlixoXUp2EwpypGaM71_xEE18WARQruKfcs0ZG7gu1Nm0pRHzEZ3t_61M4AakRZ7Tmi8n8LP2CWG037PKh9O38qLqhmMdRkHYdNGo2xNDVugkKoDOBLZUvPMq9rBwZB1UAxZEgPC7B1abtr4lZB3lAsZgrDGnb71ESRM_NFjVYqZvKu_VB6LndrC4EZkTn_sCvXuzA0B4KWFNLW1NNUgXi_ju7scanhcj1sapQSVTER3PG4IuoE-jsddJWuIpusurbO6YGBySUxjh5DWHBsw2-Jw5cxvcqpBUxpWs66g7WFvUZkeQkrnjK5Hq_Endz6tBs4ojqDBo-UnpX4U2bL0ZB0lOYR7RqDDHzt_JA1AwyIF_Lxw6rRf8BO674VQMpYdJRnp7HnMiD6H6bGcvsrNBp_3lxl_4zxQkZ8LnrfPDausErl_qbCsAW-xOsEcEBwh9hDpJOM6Qu_2Y2ypHrfnLvgfauavapfDGBQwp__M5BFHNv_izskmrMV1Bi-z5_MZv9kEctsmypktsHEUxbHU3ynbmykZAQoK2VhSUjLa_JZT4wqc_MOAF60W19jAiymX_cP6x0PzIY2-eJ-mS0]--></g></svg>