<svg xmlns="http://www.w3.org/2000/svg" width="1526" height="1485" viewBox="0 0 1526 1485"><rect width="155" height="74.086" x="596" y="438.75" fill="#3D176E" rx="2.5" ry="2.5" style="stroke:#000d19;stroke-width:.5"/><circle cx="611" cy="458.644" r="11" fill="#ADD1B2" style="stroke:#181818;stroke-width:1"/><path d="M613.969 464.285q-.578.297-1.219.438-.64.156-1.344.156-2.5 0-3.828-1.64-1.312-1.657-1.312-4.782t1.312-4.781q1.328-1.656 3.828-1.656.703 0 1.344.156.656.156 1.219.453v2.719q-.625-.579-1.219-.844-.594-.281-1.219-.281-1.343 0-2.031 1.078-.687 1.062-.687 3.156t.687 3.172q.688 1.062 2.031 1.062.625 0 1.219-.265.594-.281 1.219-.86z"/><text x="630" y="464.53" fill="#D9B8FF" font-family="Helvetica" font-size="17" textLength="113">aws_resource</text><path d="M597 478.539h153" style="stroke:#000d19;stroke-width:.5"/><text x="607" y="500.534" fill="#D9B8FF" font-family="sans-serif" font-size="14" font-weight="bold" textLength="26">arn</text><text x="633" y="500.534" fill="#D9B8FF" font-family="sans-serif" font-size="14" textLength="48">: string</text><rect width="658" height="231.867" x="424.5" y="633.84" fill="#3D176E" rx="2.5" ry="2.5" style="stroke:#000d19;stroke-width:.5"/><circle cx="681.25" cy="653.735" r="11" fill="#ADD1B2" style="stroke:#181818;stroke-width:1"/><path d="M684.219 659.375q-.578.297-1.219.438-.64.156-1.344.156-2.5 0-3.828-1.64-1.312-1.657-1.312-4.782t1.312-4.781q1.328-1.656 3.828-1.656.703 0 1.344.156.656.156 1.219.453v2.719q-.625-.578-1.219-.844-.594-.281-1.219-.281-1.343 0-2.031 1.078-.687 1.062-.687 3.156t.687 3.172q.688 1.062 2.031 1.062.625 0 1.219-.265.594-.281 1.219-.86z"/><text x="706.75" y="659.62" fill="#D9B8FF" font-family="Helvetica" font-size="17" textLength="126">aws_s3_bucket</text><path d="M425.5 673.629h656" style="stroke:#000d19;stroke-width:.5"/><text x="435.5" y="695.624" fill="#D9B8FF" font-family="sans-serif" font-size="14" font-weight="bold" textLength="83">bucket_acl</text><text x="518.5" y="695.624" fill="#D9B8FF" font-family="sans-serif" font-size="14" textLength="141">: aws_s3_bucket_acl</text><text x="435.5" y="721.921" fill="#D9B8FF" font-family="sans-serif" font-size="14" font-weight="bold" textLength="193">bucket_encryption_rules</text><text x="628.5" y="721.921" fill="#D9B8FF" font-family="sans-serif" font-size="14" textLength="269">: aws_s3_server_side_encryption_rule[]</text><text x="435.5" y="748.218" fill="#D9B8FF" font-family="sans-serif" font-size="14" font-weight="bold" textLength="119">bucket_logging</text><text x="554.5" y="748.218" fill="#D9B8FF" font-family="sans-serif" font-size="14" textLength="118">: aws_s3_logging</text><text x="435.5" y="774.515" fill="#D9B8FF" font-family="sans-serif" font-size="14" font-weight="bold" textLength="147">bucket_mfa_delete</text><text x="582.5" y="774.515" fill="#D9B8FF" font-family="sans-serif" font-size="14" textLength="65">: boolean</text><text x="435.5" y="800.812" fill="#D9B8FF" font-family="sans-serif" font-size="14" font-weight="bold" textLength="107">bucket_policy</text><text x="542.5" y="800.812" fill="#D9B8FF" font-family="sans-serif" font-size="14" textLength="156">: dictionary[string, any]</text><text x="435.5" y="827.109" fill="#D9B8FF" font-family="sans-serif" font-size="14" font-weight="bold" textLength="331">bucket_public_access_block_configuration</text><text x="766.5" y="827.109" fill="#D9B8FF" font-family="sans-serif" font-size="14" textLength="305">: aws_s3_public_access_block_configuration</text><text x="435.5" y="853.405" fill="#D9B8FF" font-family="sans-serif" font-size="14" font-weight="bold" textLength="144">bucket_versioning</text><text x="579.5" y="853.405" fill="#D9B8FF" font-family="sans-serif" font-size="14" textLength="65">: boolean</text><rect width="200" height="100.383" x="185.5" y="952" fill="#3D176E" rx="2.5" ry="2.5" style="stroke:#000d19;stroke-width:.5"/><circle cx="200.5" cy="971.894" r="11" fill="#ADD1B2" style="stroke:#181818;stroke-width:1"/><path d="M203.469 977.535q-.578.297-1.219.438-.64.156-1.344.156-2.5 0-3.828-1.64-1.312-1.657-1.312-4.782t1.312-4.781q1.328-1.657 3.828-1.657.703 0 1.344.157.656.156 1.219.453v2.719q-.625-.578-1.219-.844-.594-.281-1.219-.281-1.344 0-2.031 1.078-.687 1.062-.687 3.156t.687 3.172q.688 1.062 2.031 1.062.625 0 1.219-.265.594-.282 1.219-.86z"/><text x="219.5" y="977.78" fill="#D9B8FF" font-family="Helvetica" font-size="17" textLength="158">aws_s3_bucket_acl</text><path d="M186.5 991.789h198" style="stroke:#000d19;stroke-width:.5"/><text x="196.5" y="1013.784" fill="#D9B8FF" font-family="sans-serif" font-size="14" font-weight="bold" textLength="51">grants</text><text x="247.5" y="1013.784" fill="#D9B8FF" font-family="sans-serif" font-size="14" textLength="113">: aws_s3_grant[]</text><text x="196.5" y="1040.081" fill="#D9B8FF" font-family="sans-serif" font-size="14" font-weight="bold" textLength="51">owner</text><text x="247.5" y="1040.081" fill="#D9B8FF" font-family="sans-serif" font-size="14" textLength="110">: aws_s3_owner</text><rect width="205" height="100.383" x="7" y="1138.68" fill="#3D176E" rx="2.5" ry="2.5" style="stroke:#000d19;stroke-width:.5"/><circle cx="43.6" cy="1158.574" r="11" fill="#ADD1B2" style="stroke:#181818;stroke-width:1"/><path d="M46.569 1164.215q-.578.297-1.219.438-.64.156-1.344.156-2.5 0-3.828-1.64-1.312-1.657-1.312-4.782t1.312-4.781q1.328-1.657 3.828-1.657.703 0 1.344.157.656.156 1.219.453v2.719q-.625-.579-1.219-.844-.594-.281-1.219-.281-1.343 0-2.031 1.078-.687 1.062-.687 3.156t.687 3.172q.688 1.062 2.031 1.062.625 0 1.219-.265.594-.282 1.219-.86z"/><text x="67.4" y="1164.46" fill="#D9B8FF" font-family="Helvetica" font-size="17" textLength="115">aws_s3_grant</text><path d="M8 1178.469h203" style="stroke:#000d19;stroke-width:.5"/><text x="18" y="1200.464" fill="#D9B8FF" font-family="sans-serif" font-size="14" font-weight="bold" textLength="62">grantee</text><text x="80" y="1200.464" fill="#D9B8FF" font-family="sans-serif" font-size="14" textLength="121">: aws_s3_grantee</text><text x="18" y="1226.761" fill="#D9B8FF" font-family="sans-serif" font-size="14" font-weight="bold" textLength="87">permission</text><text x="105" y="1226.761" fill="#D9B8FF" font-family="sans-serif" font-size="14" textLength="48">: string</text><rect width="182" height="179.273" x="246.5" y="1299.07" fill="#3D176E" rx="2.5" ry="2.5" style="stroke:#000d19;stroke-width:.5"/><circle cx="263.75" cy="1318.965" r="11" fill="#ADD1B2" style="stroke:#181818;stroke-width:1"/><path d="M266.719 1324.605q-.578.297-1.219.438-.64.156-1.344.156-2.5 0-3.828-1.64-1.312-1.657-1.312-4.782t1.312-4.781q1.328-1.657 3.828-1.657.703 0 1.344.157.656.156 1.219.453v2.719q-.625-.578-1.219-.844-.594-.281-1.219-.281-1.344 0-2.031 1.078-.687 1.062-.687 3.156t.687 3.172q.688 1.062 2.031 1.062.625 0 1.219-.265.594-.282 1.219-.86z"/><text x="283.25" y="1324.85" fill="#D9B8FF" font-family="Helvetica" font-size="17" textLength="135">aws_s3_grantee</text><path d="M247.5 1338.859h180" style="stroke:#000d19;stroke-width:.5"/><text x="257.5" y="1360.854" fill="#D9B8FF" font-family="sans-serif" font-size="14" font-weight="bold" textLength="105">display_name</text><text x="362.5" y="1360.854" fill="#D9B8FF" font-family="sans-serif" font-size="14" textLength="48">: string</text><text x="257.5" y="1387.151" fill="#D9B8FF" font-family="sans-serif" font-size="14" font-weight="bold" textLength="112">email_address</text><text x="369.5" y="1387.151" fill="#D9B8FF" font-family="sans-serif" font-size="14" textLength="48">: string</text><text x="257.5" y="1413.448" fill="#D9B8FF" font-family="sans-serif" font-size="14" font-weight="bold" textLength="14">id</text><text x="271.5" y="1413.448" fill="#D9B8FF" font-family="sans-serif" font-size="14" textLength="48">: string</text><text x="257.5" y="1439.745" fill="#D9B8FF" font-family="sans-serif" font-size="14" font-weight="bold" textLength="35">type</text><text x="292.5" y="1439.745" fill="#D9B8FF" font-family="sans-serif" font-size="14" textLength="48">: string</text><text x="257.5" y="1466.042" fill="#D9B8FF" font-family="sans-serif" font-size="14" font-weight="bold" textLength="21">uri</text><text x="278.5" y="1466.042" fill="#D9B8FF" font-family="sans-serif" font-size="14" textLength="48">: string</text><rect width="289" height="126.68" x="421" y="938.86" fill="#3D176E" rx="2.5" ry="2.5" style="stroke:#000d19;stroke-width:.5"/><circle cx="490.75" cy="958.755" r="11" fill="#ADD1B2" style="stroke:#181818;stroke-width:1"/><path d="M493.719 964.395q-.578.297-1.219.438-.64.156-1.344.156-2.5 0-3.828-1.64-1.312-1.657-1.312-4.782t1.312-4.781q1.328-1.656 3.828-1.656.703 0 1.344.156.656.156 1.219.453v2.719q-.625-.578-1.219-.844-.594-.281-1.219-.281-1.344 0-2.031 1.078-.687 1.062-.687 3.156t.687 3.172q.688 1.062 2.031 1.062.625 0 1.219-.265.594-.281 1.219-.86z"/><text x="516.25" y="964.64" fill="#D9B8FF" font-family="Helvetica" font-size="17" textLength="131">aws_s3_logging</text><path d="M422 978.649h287" style="stroke:#000d19;stroke-width:.5"/><text x="432" y="1000.644" fill="#D9B8FF" font-family="sans-serif" font-size="14" font-weight="bold" textLength="109">target_bucket</text><text x="541" y="1000.644" fill="#D9B8FF" font-family="sans-serif" font-size="14" textLength="48">: string</text><text x="432" y="1026.941" fill="#D9B8FF" font-family="sans-serif" font-size="14" font-weight="bold" textLength="106">target_grants</text><text x="538" y="1026.941" fill="#D9B8FF" font-family="sans-serif" font-size="14" textLength="161">: aws_s3_target_grant[]</text><text x="432" y="1053.238" fill="#D9B8FF" font-family="sans-serif" font-size="14" font-weight="bold" textLength="101">target_prefix</text><text x="533" y="1053.238" fill="#D9B8FF" font-family="sans-serif" font-size="14" textLength="48">: string</text><rect width="175" height="100.383" x="247" y="1138.68" fill="#3D176E" rx="2.5" ry="2.5" style="stroke:#000d19;stroke-width:.5"/><circle cx="266.5" cy="1158.574" r="11" fill="#ADD1B2" style="stroke:#181818;stroke-width:1"/><path d="M269.469 1164.215q-.578.297-1.219.438-.64.156-1.344.156-2.5 0-3.828-1.64-1.312-1.657-1.312-4.782t1.312-4.781q1.328-1.657 3.828-1.657.703 0 1.344.157.656.156 1.219.453v2.719q-.625-.579-1.219-.844-.594-.281-1.219-.281-1.344 0-2.031 1.078-.687 1.062-.687 3.156t.687 3.172q.688 1.062 2.031 1.062.625 0 1.219-.265.594-.282 1.219-.86z"/><text x="286.5" y="1164.46" fill="#D9B8FF" font-family="Helvetica" font-size="17" textLength="123">aws_s3_owner</text><path d="M248 1178.469h173" style="stroke:#000d19;stroke-width:.5"/><text x="258" y="1200.464" fill="#D9B8FF" font-family="sans-serif" font-size="14" font-weight="bold" textLength="105">display_name</text><text x="363" y="1200.464" fill="#D9B8FF" font-family="sans-serif" font-size="14" textLength="48">: string</text><text x="258" y="1226.761" fill="#D9B8FF" font-family="sans-serif" font-size="14" font-weight="bold" textLength="14">id</text><text x="272" y="1226.761" fill="#D9B8FF" font-family="sans-serif" font-size="14" textLength="48">: string</text><rect width="394" height="152.977" x="744.5" y="925.71" fill="#3D176E" rx="2.5" ry="2.5" style="stroke:#000d19;stroke-width:.5"/><circle cx="759.5" cy="945.605" r="11" fill="#ADD1B2" style="stroke:#181818;stroke-width:1"/><path d="M762.469 951.245q-.578.297-1.219.438-.64.156-1.344.156-2.5 0-3.828-1.64-1.312-1.657-1.312-4.782t1.312-4.781q1.328-1.656 3.828-1.656.703 0 1.344.156.656.156 1.219.453v2.719q-.625-.578-1.219-.844-.594-.281-1.219-.281-1.343 0-2.031 1.078-.687 1.062-.687 3.156t.687 3.172q.688 1.062 2.031 1.062.625 0 1.219-.265.594-.281 1.219-.86z"/><text x="778.5" y="951.49" fill="#D9B8FF" font-family="Helvetica" font-size="17" textLength="352">aws_s3_public_access_block_configuration</text><path d="M745.5 965.499h392" style="stroke:#000d19;stroke-width:.5"/><text x="755.5" y="987.494" fill="#D9B8FF" font-family="sans-serif" font-size="14" font-weight="bold" textLength="134">block_public_acls</text><text x="889.5" y="987.494" fill="#D9B8FF" font-family="sans-serif" font-size="14" textLength="65">: boolean</text><text x="755.5" y="1013.791" fill="#D9B8FF" font-family="sans-serif" font-size="14" font-weight="bold" textLength="149">block_public_policy</text><text x="904.5" y="1013.791" fill="#D9B8FF" font-family="sans-serif" font-size="14" textLength="65">: boolean</text><text x="755.5" y="1040.088" fill="#D9B8FF" font-family="sans-serif" font-size="14" font-weight="bold" textLength="143">ignore_public_acls</text><text x="898.5" y="1040.088" fill="#D9B8FF" font-family="sans-serif" font-size="14" textLength="65">: boolean</text><text x="755.5" y="1066.385" fill="#D9B8FF" font-family="sans-serif" font-size="14" font-weight="bold" textLength="182">restrict_public_buckets</text><text x="937.5" y="1066.385" fill="#D9B8FF" font-family="sans-serif" font-size="14" textLength="65">: boolean</text><rect width="346" height="126.68" x="1173.5" y="938.86" fill="#3D176E" rx="2.5" ry="2.5" style="stroke:#000d19;stroke-width:.5"/><circle cx="1188.5" cy="958.755" r="11" fill="#ADD1B2" style="stroke:#181818;stroke-width:1"/><path d="M1191.469 964.395q-.578.297-1.219.438-.64.156-1.344.156-2.5 0-3.828-1.64-1.312-1.657-1.312-4.782t1.312-4.781q1.328-1.656 3.828-1.656.703 0 1.344.156.656.156 1.219.453v2.719q-.625-.578-1.219-.844-.594-.281-1.219-.281-1.343 0-2.031 1.078-.687 1.062-.687 3.156t.687 3.172q.688 1.062 2.031 1.062.625 0 1.219-.265.594-.281 1.219-.86z"/><text x="1207.5" y="964.64" fill="#D9B8FF" font-family="Helvetica" font-size="17" textLength="304">aws_s3_server_side_encryption_rule</text><path d="M1174.5 978.649h344" style="stroke:#000d19;stroke-width:.5"/><text x="1184.5" y="1000.644" fill="#D9B8FF" font-family="sans-serif" font-size="14" font-weight="bold" textLength="159">bucket_key_enabled</text><text x="1343.5" y="1000.644" fill="#D9B8FF" font-family="sans-serif" font-size="14" textLength="65">: boolean</text><text x="1184.5" y="1026.941" fill="#D9B8FF" font-family="sans-serif" font-size="14" font-weight="bold" textLength="150">kms_master_key_id</text><text x="1334.5" y="1026.941" fill="#D9B8FF" font-family="sans-serif" font-size="14" textLength="48">: string</text><text x="1184.5" y="1053.238" fill="#D9B8FF" font-family="sans-serif" font-size="14" font-weight="bold" textLength="109">sse_algorithm</text><text x="1293.5" y="1053.238" fill="#D9B8FF" font-family="sans-serif" font-size="14" textLength="48">: string</text><rect width="217" height="100.383" x="457" y="1138.68" fill="#3D176E" rx="2.5" ry="2.5" style="stroke:#000d19;stroke-width:.5"/><circle cx="472" cy="1158.574" r="11" fill="#ADD1B2" style="stroke:#181818;stroke-width:1"/><path d="M474.969 1164.215q-.578.297-1.219.438-.64.156-1.344.156-2.5 0-3.828-1.64-1.312-1.657-1.312-4.782t1.312-4.781q1.328-1.657 3.828-1.657.703 0 1.344.157.656.156 1.219.453v2.719q-.625-.579-1.219-.844-.594-.281-1.219-.281-1.344 0-2.031 1.078-.687 1.062-.687 3.156t.687 3.172q.688 1.062 2.031 1.062.625 0 1.219-.265.594-.282 1.219-.86z"/><text x="491" y="1164.46" fill="#D9B8FF" font-family="Helvetica" font-size="17" textLength="175">aws_s3_target_grant</text><path d="M458 1178.469h215" style="stroke:#000d19;stroke-width:.5"/><text x="468" y="1200.464" fill="#D9B8FF" font-family="sans-serif" font-size="14" font-weight="bold" textLength="62">grantee</text><text x="530" y="1200.464" fill="#D9B8FF" font-family="sans-serif" font-size="14" textLength="121">: aws_s3_grantee</text><text x="468" y="1226.761" fill="#D9B8FF" font-family="sans-serif" font-size="14" font-weight="bold" textLength="87">permission</text><text x="555" y="1226.761" fill="#D9B8FF" font-family="sans-serif" font-size="14" textLength="48">: string</text><rect width="98" height="39.789" x="786.5" y="455.9" fill="#3D176E" rx="2.5" ry="2.5" style="stroke:#000d19;stroke-width:.5"/><circle cx="801.5" cy="475.795" r="11" fill="#ADD1B2" style="stroke:#181818;stroke-width:1"/><path d="M804.469 481.435q-.578.297-1.219.438-.64.156-1.344.156-2.5 0-3.828-1.64-1.312-1.657-1.312-4.782t1.312-4.781q1.328-1.656 3.828-1.656.703 0 1.344.156.656.156 1.219.453v2.719q-.625-.578-1.219-.844-.594-.281-1.219-.281-1.343 0-2.031 1.078-.687 1.062-.687 3.156t.687 3.172q.688 1.062 2.031 1.062.625 0 1.219-.265.594-.281 1.219-.86z"/><text x="820.5" y="481.68" fill="#D9B8FF" font-family="Helvetica" font-size="17" textLength="56">bucket</text><rect width="227" height="310.758" x="640" y="7" fill="#3D176E" rx="2.5" ry="2.5" style="stroke:#000d19;stroke-width:.5"/><circle cx="708.75" cy="26.895" r="11" fill="#ADD1B2" style="stroke:#181818;stroke-width:1"/><path d="M711.719 32.535q-.578.297-1.219.438-.64.156-1.344.156-2.5 0-3.828-1.64-1.312-1.657-1.312-4.782t1.312-4.781q1.328-1.656 3.828-1.656.703 0 1.344.156.656.156 1.219.453v2.719q-.625-.578-1.219-.844-.594-.281-1.219-.281-1.343 0-2.031 1.078-.687 1.062-.687 3.156t.687 3.172q.688 1.062 2.031 1.062.625 0 1.219-.265.594-.281 1.219-.86z"/><text x="734.25" y="32.78" fill="#D9B8FF" font-family="Helvetica" font-size="17" textLength="71">resource</text><path d="M641 46.789h225" style="stroke:#000d19;stroke-width:.5"/><text x="651" y="68.784" fill="#D9B8FF" font-family="sans-serif" font-size="14" font-weight="bold" textLength="29">age</text><text x="680" y="68.784" fill="#D9B8FF" font-family="sans-serif" font-size="14" textLength="66">: duration</text><text x="651" y="95.081" fill="#D9B8FF" font-family="sans-serif" font-size="14" font-weight="bold" textLength="43">atime</text><text x="694" y="95.081" fill="#D9B8FF" font-family="sans-serif" font-size="14" textLength="70">: datetime</text><text x="651" y="121.378" fill="#D9B8FF" font-family="sans-serif" font-size="14" font-weight="bold" textLength="43">ctime</text><text x="694" y="121.378" fill="#D9B8FF" font-family="sans-serif" font-size="14" textLength="70">: datetime</text><text x="651" y="147.675" fill="#D9B8FF" font-family="sans-serif" font-size="14" font-weight="bold" textLength="14">id</text><text x="665" y="147.675" fill="#D9B8FF" font-family="sans-serif" font-size="14" textLength="48">: string</text><text x="651" y="173.972" fill="#D9B8FF" font-family="sans-serif" font-size="14" font-weight="bold" textLength="33">kind</text><text x="684" y="173.972" fill="#D9B8FF" font-family="sans-serif" font-size="14" textLength="48">: string</text><text x="651" y="200.269" fill="#D9B8FF" font-family="sans-serif" font-size="14" font-weight="bold" textLength="90">last_access</text><text x="741" y="200.269" fill="#D9B8FF" font-family="sans-serif" font-size="14" textLength="66">: duration</text><text x="651" y="226.565" fill="#D9B8FF" font-family="sans-serif" font-size="14" font-weight="bold" textLength="90">last_update</text><text x="741" y="226.565" fill="#D9B8FF" font-family="sans-serif" font-size="14" textLength="66">: duration</text><text x="651" y="252.862" fill="#D9B8FF" font-family="sans-serif" font-size="14" font-weight="bold" textLength="48">mtime</text><text x="699" y="252.862" fill="#D9B8FF" font-family="sans-serif" font-size="14" textLength="70">: datetime</text><text x="651" y="279.159" fill="#D9B8FF" font-family="sans-serif" font-size="14" font-weight="bold" textLength="43">name</text><text x="694" y="279.159" fill="#D9B8FF" font-family="sans-serif" font-size="14" textLength="48">: string</text><text x="651" y="305.456" fill="#D9B8FF" font-family="sans-serif" font-size="14" font-weight="bold" textLength="34">tags</text><text x="685" y="305.456" fill="#D9B8FF" font-family="sans-serif" font-size="14" textLength="171">: dictionary[string, string]</text><path fill="none" d="M709.255 335.605c-11.56 45.04-18.685 72.735-26.435 102.905m30.91-120.34-10.287 15.943 11.624 2.983z" style="stroke:#ffaf37;stroke-width:2"/><g fill="none"><path d="M689.288 530.459c9.09 30.91 17.562 59.731 30.282 102.971" style="stroke:#ffaf37;stroke-width:2"/><path d="m684.21 513.19-.678 18.962 11.513-3.386z" style="stroke:#ffaf37;stroke-width:2"/></g><path fill="none" d="M514.5 866c-37.5 19.29-75.55 39.59-111 59.71-14.17 8.04-23.93 13.858-38.11 22.768" style="stroke:#ffaf37;stroke-width:2"/><path fill="#FFAF37" d="m360.31 951.67 9.749-1.401-5.515-1.26 1.258-5.514z" style="stroke:#ffaf37;stroke-width:2"/><path fill="none" d="M666.93 866.09c-18.7 24.9-34.188 45.532-50.688 67.512" style="stroke:#ffaf37;stroke-width:2"/><path fill="#FFAF37" d="m612.64 938.4 8.602-4.796-5.6.797-.798-5.6z" style="stroke:#ffaf37;stroke-width:2"/><path fill="none" d="M840.07 866.09c15.13 20.15 26.92 35.85 40.98 54.59" style="stroke:#ffaf37;stroke-width:2"/><path fill="#FFAF37" d="m884.65 925.48-2.202-9.6-.799 5.6-5.6-.798z" style="stroke:#ffaf37;stroke-width:2"/><path fill="none" d="M1026.57 866.09c58.97 24.9 113.653 47.996 165.703 69.976" style="stroke:#ffaf37;stroke-width:2"/><path fill="#FFAF37" d="m1197.8 938.4-6.735-7.186 2.129 5.24-5.241 2.13z" style="stroke:#ffaf37;stroke-width:2"/><g fill="none"><path d="M824.539 513.155c-8.65 28.72-20.489 67.965-36.259 120.275" style="stroke:#ffaf37;stroke-width:2"/><path d="m829.73 495.92-10.936 15.505 11.49 3.46z" style="stroke:#ffaf37;stroke-width:2"/></g><path fill="none" d="M238.34 1052.69c-25.26 26.49-52.13 54.697-77.41 81.217" style="stroke:#ffaf37;stroke-width:2"/><path fill="#FFAF37" d="m156.79 1138.25 9.105-3.755-5.655.136-.136-5.655z" style="stroke:#ffaf37;stroke-width:2"/><path fill="none" d="M298.63 1052.69c7.03 26.49 14.133 53.24 21.163 79.76" style="stroke:#ffaf37;stroke-width:2"/><path fill="#FFAF37" d="m321.33 1138.25 1.56-9.725-2.841 4.892-4.892-2.842z" style="stroke:#ffaf37;stroke-width:2"/><path fill="none" d="M166.74 1239.54c24.01 20.83 47.988 41.637 74.778 64.887" style="stroke:#ffaf37;stroke-width:2"/><path fill="#FFAF37" d="m246.05 1308.36-4.175-8.92.399 5.643-5.643.399z" style="stroke:#ffaf37;stroke-width:2"/><path fill="none" d="M565.5 1065.98v66.4" style="stroke:#ffaf37;stroke-width:2"/><path fill="#FFAF37" d="m565.5 1138.38 4-9-4 4-4-4z" style="stroke:#ffaf37;stroke-width:2"/><path fill="none" d="M508.26 1239.54c-24.01 20.83-47.988 41.637-74.779 64.887" style="stroke:#ffaf37;stroke-width:2"/><path fill="#FFAF37" d="m428.95 1308.36 9.419-2.878-5.643-.4.4-5.642z" style="stroke:#ffaf37;stroke-width:2"/><path fill="none" d="M798.843 335.577c14.39 54.65 24.237 92.043 31.617 120.063m-36.2-137.47-1.219 18.934 11.605-3.055z" style="stroke:#ffaf37;stroke-width:2"/></svg>