<svg xmlns="http://www.w3.org/2000/svg" xmlns:xlink="http://www.w3.org/1999/xlink" width="604" height="551" preserveAspectRatio="none" style="width:604px;height:551px"><a xlink:actuate="onRequest" xlink:href="#a" xlink:show="new" xlink:title="#aws_kms_key" xlink:type="simple" target="_top"><rect id="a" width="158" height="39.789" x="325.2" y="505.94" fill="#3D176E" rx="2.5" ry="2.5" style="stroke:#000d19;stroke-width:.5"/><circle cx="340.2" cy="525.835" r="11" fill="#ADD1B2" style="stroke:#181818;stroke-width:1"/><path d="M343.169 531.475q-.578.297-1.219.438-.64.156-1.344.156-2.5 0-3.828-1.64-1.312-1.657-1.312-4.782t1.312-4.781q1.328-1.656 3.828-1.656.703 0 1.344.156.656.156 1.219.453v2.719q-.625-.578-1.219-.844-.594-.281-1.219-.281-1.344 0-2.031 1.078-.688 1.062-.688 3.156 0 2.094.688 3.172.688 1.062 2.031 1.062.625 0 1.219-.265.594-.281 1.219-.86v2.72Z"/><text x="359.2" y="531.72" fill="#D9B8FF" font-family="Helvetica" font-size="17" textLength="116">aws_kms_key</text></a><a xlink:actuate="onRequest" xlink:href="#b" xlink:show="new" xlink:title="#aws_region" xlink:type="simple" target="_top"><rect id="b" width="137" height="39.789" x="150.7" y="7" fill="#3D176E" rx="2.5" ry="2.5" style="stroke:#000d19;stroke-width:.5"/><circle cx="165.7" cy="26.895" r="11" fill="#ADD1B2" style="stroke:#181818;stroke-width:1"/><path d="M168.669 32.535q-.578.297-1.219.438-.64.156-1.344.156-2.5 0-3.828-1.64-1.312-1.657-1.312-4.782t1.312-4.781q1.328-1.656 3.828-1.656.703 0 1.344.156.656.156 1.219.453v2.719q-.625-.578-1.219-.844-.594-.281-1.219-.281-1.344 0-2.031 1.078-.688 1.062-.688 3.156 0 2.094.688 3.172.688 1.062 2.031 1.062.625 0 1.219-.265.594-.281 1.219-.86v2.72Z"/><text x="184.7" y="32.78" fill="#D9B8FF" font-family="Helvetica" font-size="17" textLength="95">aws_region</text></a><a xlink:actuate="onRequest" xlink:href="#c" xlink:show="new" xlink:title="#aws_ec2_subnet" xlink:type="simple" target="_top"><rect id="c" width="179" height="39.789" x="67.7" y="206.57" fill="#3D176E" rx="2.5" ry="2.5" style="stroke:#000d19;stroke-width:.5"/><circle cx="82.7" cy="226.464" r="11" fill="#ADD1B2" style="stroke:#181818;stroke-width:1"/><path d="M85.669 232.105q-.578.297-1.219.438-.64.156-1.344.156-2.5 0-3.828-1.64-1.312-1.657-1.312-4.782t1.312-4.781q1.328-1.657 3.828-1.657.703 0 1.344.157.656.156 1.219.453v2.719q-.625-.579-1.219-.844-.594-.281-1.219-.281-1.343 0-2.031 1.078-.688 1.062-.688 3.156 0 2.094.688 3.172.688 1.062 2.031 1.062.625 0 1.219-.265.594-.282 1.219-.86v2.72Z"/><text x="101.7" y="232.35" fill="#D9B8FF" font-family="Helvetica" font-size="17" textLength="137">aws_ec2_subnet</text></a><a xlink:actuate="onRequest" xlink:href="#d" xlink:show="new" xlink:title="#aws_ec2_security_group" xlink:type="simple" target="_top"><rect id="d" width="245" height="39.789" x="352.7" y="206.57" fill="#3D176E" rx="2.5" ry="2.5" style="stroke:#000d19;stroke-width:.5"/><circle cx="367.7" cy="226.464" r="11" fill="#ADD1B2" style="stroke:#181818;stroke-width:1"/><path d="M370.669 232.105q-.578.297-1.219.438-.64.156-1.344.156-2.5 0-3.828-1.64-1.312-1.657-1.312-4.782t1.312-4.781q1.328-1.657 3.828-1.657.703 0 1.344.157.656.156 1.219.453v2.719q-.625-.579-1.219-.844-.594-.281-1.219-.281-1.344 0-2.031 1.078-.688 1.062-.688 3.156 0 2.094.688 3.172.688 1.062 2.031 1.062.625 0 1.219-.265.594-.282 1.219-.86v2.72Z"/><text x="386.7" y="232.35" fill="#D9B8FF" font-family="Helvetica" font-size="17" textLength="203">aws_ec2_security_group</text></a><a xlink:actuate="onRequest" xlink:href="#e" xlink:show="new" xlink:title="#aws_vpc" xlink:type="simple" target="_top"><rect id="e" width="112" height="39.789" x="234.2" y="106.78" fill="#3D176E" rx="2.5" ry="2.5" style="stroke:#000d19;stroke-width:.5"/><circle cx="249.2" cy="126.674" r="11" fill="#ADD1B2" style="stroke:#181818;stroke-width:1"/><path d="M252.169 132.315q-.578.297-1.219.438-.64.156-1.344.156-2.5 0-3.828-1.64-1.312-1.657-1.312-4.782t1.312-4.781q1.328-1.657 3.828-1.657.703 0 1.344.157.656.156 1.219.453v2.719q-.625-.579-1.219-.844-.594-.281-1.219-.281-1.344 0-2.031 1.078-.688 1.062-.688 3.156 0 2.094.688 3.172.688 1.062 2.031 1.062.625 0 1.219-.265.594-.281 1.219-.86v2.72Z"/><text x="268.2" y="132.56" fill="#D9B8FF" font-family="Helvetica" font-size="17" textLength="70">aws_vpc</text></a><a xlink:actuate="onRequest" xlink:href="#f" xlink:show="new" xlink:title="#aws_rds_instance" xlink:type="simple" target="_top"><rect id="f" width="188" height="39.789" x="237.2" y="406.15" fill="#3D176E" rx="2.5" ry="2.5" style="stroke:#000d19;stroke-width:.5"/><circle cx="252.2" cy="426.045" r="11" fill="#ADD1B2" style="stroke:#181818;stroke-width:1"/><path d="M255.169 431.685q-.578.297-1.219.438-.64.156-1.344.156-2.5 0-3.828-1.64-1.312-1.657-1.312-4.782t1.312-4.781q1.328-1.656 3.828-1.656.703 0 1.344.156.656.156 1.219.453v2.719q-.625-.578-1.219-.844-.594-.281-1.219-.281-1.344 0-2.031 1.078-.688 1.062-.688 3.156 0 2.094.688 3.172.688 1.062 2.031 1.062.625 0 1.219-.265.594-.281 1.219-.86v2.72Z"/><text x="271.2" y="431.93" fill="#D9B8FF" font-family="Helvetica" font-size="17" textLength="146">aws_rds_instance</text></a><a xlink:actuate="onRequest" xlink:href="#g" xlink:show="new" xlink:title="#aws_rds_cluster" xlink:type="simple" target="_top"><rect id="g" width="174" height="39.789" x="423.2" y="306.36" fill="#3D176E" rx="2.5" ry="2.5" style="stroke:#000d19;stroke-width:.5"/><circle cx="438.2" cy="326.255" r="11" fill="#ADD1B2" style="stroke:#181818;stroke-width:1"/><path d="M441.169 331.895q-.578.297-1.219.438-.64.156-1.344.156-2.5 0-3.828-1.64-1.312-1.657-1.312-4.782t1.312-4.781q1.328-1.656 3.828-1.656.703 0 1.344.156.656.156 1.219.453v2.719q-.625-.579-1.219-.844-.594-.281-1.219-.281-1.344 0-2.031 1.078-.688 1.062-.688 3.156 0 2.094.688 3.172.688 1.062 2.031 1.062.625 0 1.219-.265.594-.281 1.219-.86v2.72Z"/><text x="457.2" y="332.14" fill="#D9B8FF" font-family="Helvetica" font-size="17" textLength="132">aws_rds_cluster</text></a><path fill="none" d="m213.14 47.19-48.1 153.28" style="stroke:#1a83af;stroke-width:2"/><path fill="#1A83AF" d="m163.28 205.09 6.515-7.386-5.015 2.616-2.617-5.015 1.117 9.785z" style="stroke:#1a83af;stroke-width:2"/><path fill="none" d="M262.96 47.14c29.98 14.25 69.85 35.35 101.24 59.64 36.76 28.45 72.17 69.44 92.75 95.04" style="stroke:#1a83af;stroke-width:2"/><path fill="#1A83AF" d="m460.62 205.42-2.473-9.533-.64 5.62-5.62-.64 8.733 4.553z" style="stroke:#1a83af;stroke-width:2"/><path fill="none" d="M233.23 47.21c11.37 15.67 27.47 37.83 39.65 54.61" style="stroke:#1a83af;stroke-width:2"/><path fill="#1A83AF" d="m276.2 105.4-2.04-9.635-.893 5.586-5.586-.893 8.519 4.942z" style="stroke:#1a83af;stroke-width:2"/><path fill="none" d="M184 47.18C122.49 83.55 6 165.87 50.2 246.36c45.16 82.23 145.97 132.01 213.74 157.44" style="stroke:#1a83af;stroke-width:2"/><path fill="#1A83AF" d="m268.17 405.74-7.04-6.887 2.354 5.144-5.144 2.354 9.83-.611z" style="stroke:#1a83af;stroke-width:2"/><path fill="none" d="M174.2 246.77c32.1 36.45 101.5 115.26 136.27 154.74" style="stroke:#1a83af;stroke-width:2"/><path fill="#1A83AF" d="m313.13 404.66-2.954-9.395-.354 5.645-5.645-.353 8.953 4.103z" style="stroke:#1a83af;stroke-width:2"/><path fill="none" d="M482.11 246.79c5.52 15.4 13.27 37.08 19.24 53.74" style="stroke:#1a83af;stroke-width:2"/><path fill="#1A83AF" d="m503.3 304.98.727-9.822-2.415 5.116-5.116-2.415 6.804 7.121z" style="stroke:#1a83af;stroke-width:2"/><path fill="none" d="M456.4 246.79c-14.68 15.51-35.2 38.16-51.2 59.57-23.34 31.24-46.51 69.99-60.55 94.53" style="stroke:#1a83af;stroke-width:2"/><path fill="#1A83AF" d="m341.8 404.9 7.928-5.844-5.455 1.498-1.498-5.454-.975 9.8z" style="stroke:#1a83af;stroke-width:2"/><path fill="none" d="M263.92 147c-21.77 16-52.74 38.78-75.72 55.68" style="stroke:#1a83af;stroke-width:2"/><path fill="#1A83AF" d="m184.42 206.19 9.617-2.123-5.593-.845.845-5.593-4.869 8.561z" style="stroke:#1a83af;stroke-width:2"/><path fill="none" d="M326.75 147c30.79 16.27 74.82 39.55 106.93 56.52" style="stroke:#1a83af;stroke-width:2"/><path fill="#1A83AF" d="m437.73 206.19-6.104-7.729 1.679 5.402-5.403 1.679 9.828.648z" style="stroke:#1a83af;stroke-width:2"/><path fill="none" d="M292.83 146.73c7.14 51.81 26.91 195.22 34.93 253.36" style="stroke:#1a83af;stroke-width:2"/><path fill="#1A83AF" d="m328.54 404.77 2.73-9.463-3.415 4.51-4.51-3.414 5.195 8.367z" style="stroke:#1a83af;stroke-width:2"/><path fill="none" d="M345.62 446.37c11.7 15.67 28.24 37.83 40.77 54.61" style="stroke:#1a83af;stroke-width:2"/><path fill="#1A83AF" d="m389.81 504.56-2.184-9.604-.81 5.599-5.598-.81 8.592 4.815z" style="stroke:#1a83af;stroke-width:2"/><path fill="none" d="M499.84 346.56c-19.39 36.15-61.15 113.98-82.49 153.77" style="stroke:#1a83af;stroke-width:2"/><path fill="#1A83AF" d="m414.6 504.45 7.776-6.044-5.415 1.637-1.637-5.415-.724 9.822z" style="stroke:#1a83af;stroke-width:2"/><path fill="none" d="M474.83 346.58c-29.78 16.27-72.39 39.54-103.46 56.52" style="stroke:#1a83af;stroke-width:2"/><path fill="#1A83AF" d="m367.49 405.77 9.817-.798-5.428-1.596 1.597-5.427-5.986 7.821z" style="stroke:#1a83af;stroke-width:2"/></svg>