<svg xmlns="http://www.w3.org/2000/svg" xmlns:xlink="http://www.w3.org/1999/xlink" width="1391" height="451" preserveAspectRatio="none" style="width:1391px;height:451px"><a xlink:actuate="onRequest" xlink:href="#a" xlink:show="new" xlink:title="#aws_kms_key" xlink:type="simple" target="_top"><rect id="a" width="158" height="39.789" x="750" y="206.58" fill="#3D176E" rx="2.5" ry="2.5" style="stroke:#000d19;stroke-width:.5"/><circle cx="765" cy="226.475" r="11" fill="#ADD1B2" style="stroke:#181818;stroke-width:1"/><path d="M767.969 232.115q-.578.297-1.219.438-.64.156-1.344.156-2.5 0-3.828-1.64-1.312-1.657-1.312-4.782t1.312-4.781q1.328-1.656 3.828-1.656.703 0 1.344.156.656.156 1.219.453v2.719q-.625-.578-1.219-.844-.594-.281-1.219-.281-1.343 0-2.031 1.078-.688 1.062-.688 3.156 0 2.094.688 3.172.688 1.062 2.031 1.062.625 0 1.219-.265.594-.281 1.219-.86v2.72Z"/><text x="784" y="232.36" fill="#D9B8FF" font-family="Helvetica" font-size="17" textLength="116">aws_kms_key</text></a><a xlink:actuate="onRequest" xlink:href="#b" xlink:show="new" xlink:title="#aws_s3_bucket" xlink:type="simple" target="_top"><rect id="b" width="168" height="39.789" x="943" y="206.58" fill="#3D176E" rx="2.5" ry="2.5" style="stroke:#000d19;stroke-width:.5"/><circle cx="958" cy="226.475" r="11" fill="#ADD1B2" style="stroke:#181818;stroke-width:1"/><path d="M960.969 232.115q-.578.297-1.219.438-.64.156-1.344.156-2.5 0-3.828-1.64-1.312-1.657-1.312-4.782t1.312-4.781q1.328-1.656 3.828-1.656.703 0 1.344.156.656.156 1.219.453v2.719q-.625-.578-1.219-.844-.594-.281-1.219-.281-1.343 0-2.031 1.078-.688 1.062-.688 3.156 0 2.094.688 3.172.688 1.062 2.031 1.062.625 0 1.219-.265.594-.281 1.219-.86v2.72Z"/><text x="977" y="232.36" fill="#D9B8FF" font-family="Helvetica" font-size="17" textLength="126">aws_s3_bucket</text></a><a xlink:actuate="onRequest" xlink:href="#c" xlink:show="new" xlink:title="#aws_sagemaker_trial" xlink:type="simple" target="_top"><rect id="c" width="219" height="39.789" x="20.5" y="306.37" fill="#3D176E" rx="2.5" ry="2.5" style="stroke:#000d19;stroke-width:.5"/><circle cx="35.5" cy="326.264" r="11" fill="#ADD1B2" style="stroke:#181818;stroke-width:1"/><path d="M38.469 331.905q-.578.297-1.219.438-.64.156-1.344.156-2.5 0-3.828-1.64-1.312-1.657-1.312-4.782t1.312-4.781q1.328-1.656 3.828-1.656.703 0 1.344.156.656.156 1.219.453v2.719q-.625-.579-1.219-.844-.594-.281-1.219-.281-1.343 0-2.031 1.078-.688 1.062-.688 3.156 0 2.094.688 3.172.688 1.062 2.031 1.062.625 0 1.219-.265.594-.281 1.219-.86v2.72Z"/><text x="54.5" y="332.15" fill="#D9B8FF" font-family="Helvetica" font-size="17" textLength="177">aws_sagemaker_trial</text></a><a xlink:actuate="onRequest" xlink:href="#d" xlink:show="new" xlink:title="#aws_sagemaker_code_repository" xlink:type="simple" target="_top"><rect id="d" width="316" height="39.789" x="7" y="7" fill="#3D176E" rx="2.5" ry="2.5" style="stroke:#000d19;stroke-width:.5"/><circle cx="22" cy="26.895" r="11" fill="#ADD1B2" style="stroke:#181818;stroke-width:1"/><path d="M24.969 32.535q-.578.297-1.219.438-.64.156-1.344.156-2.5 0-3.828-1.64-1.312-1.657-1.312-4.782t1.312-4.781q1.328-1.656 3.828-1.656.703 0 1.344.156.656.156 1.219.453v2.719q-.625-.578-1.219-.844-.594-.281-1.219-.281-1.343 0-2.031 1.078-.688 1.062-.688 3.156 0 2.094.688 3.172.688 1.062 2.031 1.062.625 0 1.219-.265.594-.281 1.219-.86v2.72Z"/><text x="41" y="32.78" fill="#D9B8FF" font-family="Helvetica" font-size="17" textLength="274">aws_sagemaker_code_repository</text></a><a xlink:actuate="onRequest" xlink:href="#e" xlink:show="new" xlink:title="#aws_sagemaker_artifact" xlink:type="simple" target="_top"><rect id="e" width="245" height="39.789" x="274.5" y="306.37" fill="#3D176E" rx="2.5" ry="2.5" style="stroke:#000d19;stroke-width:.5"/><circle cx="289.5" cy="326.264" r="11" fill="#ADD1B2" style="stroke:#181818;stroke-width:1"/><path d="M292.469 331.905q-.578.297-1.219.438-.64.156-1.344.156-2.5 0-3.828-1.64-1.312-1.657-1.312-4.782t1.312-4.781q1.328-1.656 3.828-1.656.703 0 1.344.156.656.156 1.219.453v2.719q-.625-.579-1.219-.844-.594-.281-1.219-.281-1.344 0-2.031 1.078-.688 1.062-.688 3.156 0 2.094.688 3.172.688 1.062 2.031 1.062.625 0 1.219-.265.594-.281 1.219-.86v2.72Z"/><text x="308.5" y="332.15" fill="#D9B8FF" font-family="Helvetica" font-size="17" textLength="203">aws_sagemaker_artifact</text></a><a xlink:actuate="onRequest" xlink:href="#f" xlink:show="new" xlink:title="#aws_sagemaker_domain" xlink:type="simple" target="_top"><rect id="f" width="248" height="39.789" x="639" y="106.79" fill="#3D176E" rx="2.5" ry="2.5" style="stroke:#000d19;stroke-width:.5"/><circle cx="654" cy="126.684" r="11" fill="#ADD1B2" style="stroke:#181818;stroke-width:1"/><path d="M656.969 132.325q-.578.297-1.219.438-.64.156-1.344.156-2.5 0-3.828-1.64-1.312-1.657-1.312-4.782t1.312-4.781q1.328-1.656 3.828-1.656.703 0 1.344.156.656.156 1.219.453v2.719q-.625-.579-1.219-.844-.594-.281-1.219-.281-1.343 0-2.031 1.078-.688 1.062-.688 3.156 0 2.094.688 3.172.688 1.062 2.031 1.062.625 0 1.219-.265.594-.281 1.219-.86v2.72Z"/><text x="673" y="132.57" fill="#D9B8FF" font-family="Helvetica" font-size="17" textLength="206">aws_sagemaker_domain</text></a><a xlink:actuate="onRequest" xlink:href="#g" xlink:show="new" xlink:title="#aws_iam_role" xlink:type="simple" target="_top"><rect id="g" width="157" height="39.789" x="1227.5" y="7" fill="#3D176E" rx="2.5" ry="2.5" style="stroke:#000d19;stroke-width:.5"/><circle cx="1242.5" cy="26.895" r="11" fill="#ADD1B2" style="stroke:#181818;stroke-width:1"/><path d="M1245.469 32.535q-.578.297-1.219.438-.64.156-1.344.156-2.5 0-3.828-1.64-1.312-1.657-1.312-4.782t1.312-4.781q1.328-1.656 3.828-1.656.703 0 1.344.156.656.156 1.219.453v2.719q-.625-.578-1.219-.844-.594-.281-1.219-.281-1.343 0-2.031 1.078-.688 1.062-.688 3.156 0 2.094.688 3.172.688 1.062 2.031 1.062.625 0 1.219-.265.594-.281 1.219-.86v2.72Z"/><text x="1261.5" y="32.78" fill="#D9B8FF" font-family="Helvetica" font-size="17" textLength="115">aws_iam_role</text></a><a xlink:actuate="onRequest" xlink:href="#h" xlink:show="new" xlink:title="#aws_ec2_security_group" xlink:type="simple" target="_top"><rect id="h" width="245" height="39.789" x="532.5" y="7" fill="#3D176E" rx="2.5" ry="2.5" style="stroke:#000d19;stroke-width:.5"/><circle cx="547.5" cy="26.895" r="11" fill="#ADD1B2" style="stroke:#181818;stroke-width:1"/><path d="M550.469 32.535q-.578.297-1.219.438-.64.156-1.344.156-2.5 0-3.828-1.64-1.312-1.657-1.312-4.782t1.312-4.781q1.328-1.656 3.828-1.656.703 0 1.344.156.656.156 1.219.453v2.719q-.625-.578-1.219-.844-.594-.281-1.219-.281-1.343 0-2.031 1.078-.688 1.062-.688 3.156 0 2.094.688 3.172.688 1.062 2.031 1.062.625 0 1.219-.265.594-.281 1.219-.86v2.72Z"/><text x="566.5" y="32.78" fill="#D9B8FF" font-family="Helvetica" font-size="17" textLength="203">aws_ec2_security_group</text></a><a xlink:actuate="onRequest" xlink:href="#i" xlink:show="new" xlink:title="#aws_ec2_subnet" xlink:type="simple" target="_top"><rect id="i" width="179" height="39.789" x="812.5" y="7" fill="#3D176E" rx="2.5" ry="2.5" style="stroke:#000d19;stroke-width:.5"/><circle cx="827.5" cy="26.895" r="11" fill="#ADD1B2" style="stroke:#181818;stroke-width:1"/><path d="M830.469 32.535q-.578.297-1.219.438-.64.156-1.344.156-2.5 0-3.828-1.64-1.312-1.657-1.312-4.782t1.312-4.781q1.328-1.656 3.828-1.656.703 0 1.344.156.656.156 1.219.453v2.719q-.625-.578-1.219-.844-.594-.281-1.219-.281-1.343 0-2.031 1.078-.688 1.062-.688 3.156 0 2.094.688 3.172.688 1.062 2.031 1.062.625 0 1.219-.265.594-.281 1.219-.86v2.72Z"/><text x="846.5" y="32.78" fill="#D9B8FF" font-family="Helvetica" font-size="17" textLength="137">aws_ec2_subnet</text></a><a xlink:actuate="onRequest" xlink:href="#j" xlink:show="new" xlink:title="#aws_sagemaker_app" xlink:type="simple" target="_top"><rect id="j" width="215" height="39.789" x="589.5" y="306.37" fill="#3D176E" rx="2.5" ry="2.5" style="stroke:#000d19;stroke-width:.5"/><circle cx="604.5" cy="326.264" r="11" fill="#ADD1B2" style="stroke:#181818;stroke-width:1"/><path d="M607.469 331.905q-.578.297-1.219.438-.64.156-1.344.156-2.5 0-3.828-1.64-1.312-1.657-1.312-4.782t1.312-4.781q1.328-1.656 3.828-1.656.703 0 1.344.156.656.156 1.219.453v2.719q-.625-.579-1.219-.844-.594-.281-1.219-.281-1.343 0-2.031 1.078-.688 1.062-.688 3.156 0 2.094.688 3.172.688 1.062 2.031 1.062.625 0 1.219-.265.594-.281 1.219-.86v2.72Z"/><text x="623.5" y="332.15" fill="#D9B8FF" font-family="Helvetica" font-size="17" textLength="173">aws_sagemaker_app</text></a><a xlink:actuate="onRequest" xlink:href="#k" xlink:show="new" xlink:title="#aws_sagemaker_user_profile" xlink:type="simple" target="_top"><rect id="k" width="283" height="39.789" x="360.5" y="206.58" fill="#3D176E" rx="2.5" ry="2.5" style="stroke:#000d19;stroke-width:.5"/><circle cx="375.5" cy="226.475" r="11" fill="#ADD1B2" style="stroke:#181818;stroke-width:1"/><path d="M378.469 232.115q-.578.297-1.219.438-.64.156-1.344.156-2.5 0-3.828-1.64-1.312-1.657-1.312-4.782t1.312-4.781q1.328-1.656 3.828-1.656.703 0 1.344.156.656.156 1.219.453v2.719q-.625-.578-1.219-.844-.594-.281-1.219-.281-1.344 0-2.031 1.078-.688 1.062-.688 3.156 0 2.094.688 3.172.688 1.062 2.031 1.062.625 0 1.219-.265.594-.281 1.219-.86v2.72Z"/><text x="394.5" y="232.36" fill="#D9B8FF" font-family="Helvetica" font-size="17" textLength="241">aws_sagemaker_user_profile</text></a><a xlink:actuate="onRequest" xlink:href="#l" xlink:show="new" xlink:title="#aws_sagemaker_pipeline" xlink:type="simple" target="_top"><rect id="l" width="251" height="39.789" x="931.5" y="306.37" fill="#3D176E" rx="2.5" ry="2.5" style="stroke:#000d19;stroke-width:.5"/><circle cx="946.5" cy="326.264" r="11" fill="#ADD1B2" style="stroke:#181818;stroke-width:1"/><path d="M949.469 331.905q-.578.297-1.219.438-.64.156-1.344.156-2.5 0-3.828-1.64-1.312-1.657-1.312-4.782t1.312-4.781q1.328-1.656 3.828-1.656.703 0 1.344.156.656.156 1.219.453v2.719q-.625-.579-1.219-.844-.594-.281-1.219-.281-1.343 0-2.031 1.078-.688 1.062-.688 3.156 0 2.094.688 3.172.688 1.062 2.031 1.062.625 0 1.219-.265.594-.281 1.219-.86v2.72Z"/><text x="965.5" y="332.15" fill="#D9B8FF" font-family="Helvetica" font-size="17" textLength="209">aws_sagemaker_pipeline</text></a><a xlink:actuate="onRequest" xlink:href="#m" xlink:show="new" xlink:title="#aws_sagemaker_image" xlink:type="simple" target="_top"><rect id="m" width="237" height="39.789" x="1116.5" y="406.16" fill="#3D176E" rx="2.5" ry="2.5" style="stroke:#000d19;stroke-width:.5"/><circle cx="1131.5" cy="426.055" r="11" fill="#ADD1B2" style="stroke:#181818;stroke-width:1"/><path d="M1134.469 431.695q-.578.297-1.219.438-.64.156-1.344.156-2.5 0-3.828-1.64-1.312-1.657-1.312-4.782t1.312-4.781q1.328-1.656 3.828-1.656.703 0 1.344.156.656.156 1.219.453v2.719q-.625-.578-1.219-.844-.594-.281-1.219-.281-1.343 0-2.031 1.078-.688 1.062-.688 3.156 0 2.094.688 3.172.688 1.062 2.031 1.062.625 0 1.219-.265.594-.281 1.219-.86v2.72Z"/><text x="1150.5" y="431.94" fill="#D9B8FF" font-family="Helvetica" font-size="17" textLength="195">aws_sagemaker_image</text></a><path fill="none" d="M156.93 47.28c-6.13 15.74-14.14 38.66-17.93 59.51-12.56 69.1-11.66 152.43-10.2 193.33" style="stroke:#1a83af;stroke-width:2"/><path fill="#1A83AF" d="m129.02 305.08 3.637-9.153-3.837 4.157-4.156-3.837 4.356 8.833z" style="stroke:#1a83af;stroke-width:2"/><path fill="none" d="M178.33 47.02C205.35 85.54 268.97 174.88 327 246.37c15.51 19.1 34.02 39.89 48.11 55.33" style="stroke:#1a83af;stroke-width:2"/><path fill="#1A83AF" d="m377.96 304.9-3.143-9.334-.24 5.652-5.651-.24 9.034 3.922z" style="stroke:#1a83af;stroke-width:2"/><path fill="none" d="M283.5 47.28c102.68 16.79 250.74 41 355.1 58.07" style="stroke:#1a83af;stroke-width:2"/><path fill="#1A83AF" d="m643.48 106.31-8.245-5.387 3.31 4.588-4.588 3.31 9.523-2.511z" style="stroke:#1a83af;stroke-width:2"/><path fill="none" d="M755.23 147.01c-6.29 15.89-15.22 39.05-22.23 59.57-11.01 32.26-22.17 70.01-29.08 94.12" style="stroke:#1a83af;stroke-width:2"/><path fill="#1A83AF" d="m702.34 305.23 6.319-7.555-4.945 2.747-2.748-4.945 1.374 9.753z" style="stroke:#1a83af;stroke-width:2"/><path fill="none" d="M815.16 147.01c44.47 16.47 108.32 40.12 154.28 57.15" style="stroke:#1a83af;stroke-width:2"/><path fill="#1A83AF" d="m973.95 206.2-7.04-6.887 2.354 5.144-5.144 2.355 9.83-.612z" style="stroke:#1a83af;stroke-width:2"/><path fill="none" d="M638.59 138.09c-89.01 10.32-210.46 30.36-311.59 68.49-63.64 24-129.82 68.62-166.97 95.78" style="stroke:#1a83af;stroke-width:2"/><path fill="#1A83AF" d="m156.2 305.91 9.622-2.101-5.591-.858.857-5.591-4.888 8.55z" style="stroke:#1a83af;stroke-width:2"/><path fill="none" d="M776.04 147.01c10.58 15.67 25.53 37.83 36.86 54.61" style="stroke:#1a83af;stroke-width:2"/><path fill="#1A83AF" d="m815.99 205.2-1.726-9.696-1.074 5.553-5.554-1.074 8.354 5.217z" style="stroke:#1a83af;stroke-width:2"/><path fill="none" d="M711.43 147.01c-43.96 16.47-107.08 40.12-152.52 57.15" style="stroke:#1a83af;stroke-width:2"/><path fill="#1A83AF" d="m554.46 206.2 9.83.612-5.144-2.355 2.355-5.144-7.041 6.887z" style="stroke:#1a83af;stroke-width:2"/><path fill="none" d="M887.46 138.08c93.52 10.7 210.46 31.23 240.54 68.5 24.79 30.72-11.55 70.94-40.72 95.78" style="stroke:#1a83af;stroke-width:2"/><path fill="#1A83AF" d="m1084.03 305.91 9.47-2.703-5.634-.504.504-5.634-4.34 8.841z" style="stroke:#1a83af;stroke-width:2"/><path fill="none" d="M638.51 133.95C528.54 142.4 380.04 161.94 343 206.58c-23.91 28.82 5.63 69.96 29.53 95.45" style="stroke:#1a83af;stroke-width:2"/><path fill="#1A83AF" d="m375.61 305.3-3.33-9.269-.126 5.656-5.656-.126 9.112 3.739z" style="stroke:#1a83af;stroke-width:2"/><path fill="none" d="M887.2 139.76c99.83 11.98 229.9 33.43 270.8 66.82 59.77 48.81 73.2 147.19 76.18 193.41" style="stroke:#1a83af;stroke-width:2"/><path fill="#1A83AF" d="m1234.52 404.89 3.48-9.214-3.765 4.222-4.222-3.765 4.507 8.757z" style="stroke:#1a83af;stroke-width:2"/><path fill="none" d="M1227.04 42.12c-92.23 16.61-245.55 44.22-350.53 63.13" style="stroke:#1a83af;stroke-width:2"/><path fill="#1A83AF" d="m871.61 106.31 9.567 2.34-4.646-3.227 3.227-4.646-8.148 5.533z" style="stroke:#1a83af;stroke-width:2"/><path fill="none" d="M1302.58 47.05c-11.7 65.41-50.04 279.92-63.15 353.2" style="stroke:#1a83af;stroke-width:2"/><path fill="#1A83AF" d="m1238.39 405.09 5.533-8.148-4.646 3.227-3.227-4.646 2.34 9.567z" style="stroke:#1a83af;stroke-width:2"/><path fill="none" d="M1295.69 47.16c-21.92 39.92-76.23 133.44-137.69 199.21-19.97 21.37-46.07 41.6-66.73 56.22" style="stroke:#1a83af;stroke-width:2"/><path fill="#1A83AF" d="m1087.41 306 9.663-1.902-5.572-.973.972-5.573-5.063 8.448z" style="stroke:#1a83af;stroke-width:2"/><path fill="none" d="M676.34 47.22c17.6 15.94 42.62 38.59 61.25 55.46" style="stroke:#1a83af;stroke-width:2"/><path fill="#1A83AF" d="m740.71 105.41-3.977-9.01.274 5.65-5.65.275 9.353 3.085z" style="stroke:#1a83af;stroke-width:2"/><path fill="none" d="M874.54 47.22c-22.85 16.07-55.4 38.97-79.45 55.89" style="stroke:#1a83af;stroke-width:2"/><path fill="#1A83AF" d="m791.4 106.41 9.663-1.902-5.572-.973.972-5.573-5.063 8.448z" style="stroke:#1a83af;stroke-width:2"/><path fill="none" d="M803.61 346.64c92.27 16.78 225.27 40.95 319.14 58.01" style="stroke:#1a83af;stroke-width:2"/><path fill="#1A83AF" d="m1127.6 405.72-8.148-5.533 3.227 4.646-4.646 3.227 9.567-2.34z" style="stroke:#1a83af;stroke-width:2"/><path fill="none" d="M428.5 246.8c-63.2 16.61-154.16 40.52-219.04 57.58" style="stroke:#1a83af;stroke-width:2"/><path fill="#1A83AF" d="m204.66 305.9 9.722 1.576-4.887-2.85 2.85-4.886-7.685 6.16z" style="stroke:#1a83af;stroke-width:2"/><path fill="none" d="M481.26 246.8c-17.12 15.94-41.44 38.59-59.56 55.46" style="stroke:#1a83af;stroke-width:2"/><path fill="#1A83AF" d="m418.7 304.99 9.315-3.199-5.653-.205.206-5.654-3.868 9.058z" style="stroke:#1a83af;stroke-width:2"/><path fill="none" d="M611.98 246.86c95.28 16.78 232.66 40.99 329.52 58.06" style="stroke:#1a83af;stroke-width:2"/><path fill="#1A83AF" d="m946.24 305.93-8.163-5.51 3.24 4.637-4.637 3.24 9.56-2.367z" style="stroke:#1a83af;stroke-width:2"/><path fill="none" d="M540.53 246.8c32.45 16.27 78.86 39.54 112.7 56.52" style="stroke:#1a83af;stroke-width:2"/><path fill="#1A83AF" d="m657.55 305.99-6.251-7.61 1.782 5.368-5.37 1.782 9.839.46z" style="stroke:#1a83af;stroke-width:2"/></svg>