<svg xmlns="http://www.w3.org/2000/svg" width="1163" height="1774" viewBox="0 0 1163 1774"><rect width="237" height="179.273" x="7" y="1122.94" fill="#3D176E" rx="2.5" ry="2.5" style="stroke:#000d19;stroke-width:.5"/><circle cx="22" cy="1142.834" r="11" fill="#ADD1B2" style="stroke:#181818;stroke-width:1"/><path d="M24.969 1148.475q-.578.297-1.219.438-.64.156-1.344.156-2.5 0-3.828-1.64-1.312-1.657-1.312-4.782t1.312-4.781q1.328-1.657 3.828-1.657.703 0 1.344.157.656.156 1.219.453v2.719q-.625-.579-1.219-.844-.594-.281-1.219-.281-1.343 0-2.031 1.078-.687 1.062-.687 3.156t.687 3.172q.688 1.062 2.031 1.062.625 0 1.219-.265.594-.282 1.219-.86z"/><text x="41" y="1148.72" fill="#D9B8FF" font-family="Helvetica" font-size="17" textLength="195">gcp_deprecation_status</text><path d="M8 1162.729h235" style="stroke:#000d19;stroke-width:.5"/><text x="18" y="1184.724" fill="#D9B8FF" font-family="sans-serif" font-size="14" font-weight="bold" textLength="60">deleted</text><text x="78" y="1184.724" fill="#D9B8FF" font-family="sans-serif" font-size="14" textLength="48">: string</text><text x="18" y="1211.021" fill="#D9B8FF" font-family="sans-serif" font-size="14" font-weight="bold" textLength="91">deprecated</text><text x="109" y="1211.021" fill="#D9B8FF" font-family="sans-serif" font-size="14" textLength="48">: string</text><text x="18" y="1237.318" fill="#D9B8FF" font-family="sans-serif" font-size="14" font-weight="bold" textLength="69">obsolete</text><text x="87" y="1237.318" fill="#D9B8FF" font-family="sans-serif" font-size="14" textLength="48">: string</text><text x="18" y="1263.615" fill="#D9B8FF" font-family="sans-serif" font-size="14" font-weight="bold" textLength="99">replacement</text><text x="117" y="1263.615" fill="#D9B8FF" font-family="sans-serif" font-size="14" textLength="48">: string</text><text x="18" y="1289.912" fill="#D9B8FF" font-family="sans-serif" font-size="14" font-weight="bold" textLength="40">state</text><text x="58" y="1289.912" fill="#D9B8FF" font-family="sans-serif" font-size="14" textLength="48">: string</text><rect width="357" height="258.164" x="232" y="712.74" fill="#3D176E" rx="2.5" ry="2.5" style="stroke:#000d19;stroke-width:.5"/><circle cx="322.75" cy="732.635" r="11" fill="#ADD1B2" style="stroke:#181818;stroke-width:1"/><path d="M325.719 738.275q-.578.297-1.219.438-.64.156-1.344.156-2.5 0-3.828-1.64-1.312-1.657-1.312-4.782t1.312-4.781q1.328-1.657 3.828-1.657.703 0 1.344.157.656.156 1.219.453v2.719q-.625-.578-1.219-.844-.594-.281-1.219-.281-1.344 0-2.031 1.078-.687 1.062-.687 3.156t.687 3.172q.688 1.062 2.031 1.062.625 0 1.219-.265.594-.282 1.219-.86z"/><text x="348.25" y="738.52" fill="#D9B8FF" font-family="Helvetica" font-size="17" textLength="157">gcp_firewall_policy</text><path d="M233 752.529h355" style="stroke:#000d19;stroke-width:.5"/><text x="243" y="774.524" fill="#D9B8FF" font-family="sans-serif" font-size="14" font-weight="bold" textLength="98">associations</text><text x="341" y="774.524" fill="#D9B8FF" font-family="sans-serif" font-size="14" textLength="229">: gcp_firewall_policy_association[]</text><text x="243" y="800.821" fill="#D9B8FF" font-family="sans-serif" font-size="14" font-weight="bold" textLength="105">display_name</text><text x="348" y="800.821" fill="#D9B8FF" font-family="sans-serif" font-size="14" textLength="48">: string</text><text x="243" y="827.118" fill="#D9B8FF" font-family="sans-serif" font-size="14" font-weight="bold" textLength="84">fingerprint</text><text x="327" y="827.118" fill="#D9B8FF" font-family="sans-serif" font-size="14" textLength="48">: string</text><text x="243" y="853.415" fill="#D9B8FF" font-family="sans-serif" font-size="14" font-weight="bold" textLength="158">firewall_policy_rules</text><text x="401" y="853.415" fill="#D9B8FF" font-family="sans-serif" font-size="14" textLength="177">: gcp_firewall_policy_rule[]</text><text x="243" y="879.712" fill="#D9B8FF" font-family="sans-serif" font-size="14" font-weight="bold" textLength="52">parent</text><text x="295" y="879.712" fill="#D9B8FF" font-family="sans-serif" font-size="14" textLength="48">: string</text><text x="243" y="906.009" fill="#D9B8FF" font-family="sans-serif" font-size="14" font-weight="bold" textLength="130">rule_tuple_count</text><text x="373" y="906.009" fill="#D9B8FF" font-family="sans-serif" font-size="14" textLength="44">: int64</text><text x="243" y="932.305" fill="#D9B8FF" font-family="sans-serif" font-size="14" font-weight="bold" textLength="125">self_link_with_id</text><text x="368" y="932.305" fill="#D9B8FF" font-family="sans-serif" font-size="14" textLength="48">: string</text><text x="243" y="958.602" fill="#D9B8FF" font-family="sans-serif" font-size="14" font-weight="bold" textLength="92">short_name</text><text x="335" y="958.602" fill="#D9B8FF" font-family="sans-serif" font-size="14" textLength="48">: string</text><rect width="300" height="179.273" x="279.5" y="1122.94" fill="#3D176E" rx="2.5" ry="2.5" style="stroke:#000d19;stroke-width:.5"/><circle cx="294.5" cy="1142.834" r="11" fill="#ADD1B2" style="stroke:#181818;stroke-width:1"/><path d="M297.469 1148.475q-.578.297-1.219.438-.64.156-1.344.156-2.5 0-3.828-1.64-1.312-1.657-1.312-4.782t1.312-4.781q1.328-1.657 3.828-1.657.703 0 1.344.157.656.156 1.219.453v2.719q-.625-.579-1.219-.844-.594-.281-1.219-.281-1.344 0-2.031 1.078-.687 1.062-.687 3.156t.687 3.172q.688 1.062 2.031 1.062.625 0 1.219-.265.594-.282 1.219-.86z"/><text x="313.5" y="1148.72" fill="#D9B8FF" font-family="Helvetica" font-size="17" textLength="258">gcp_firewall_policy_association</text><path d="M280.5 1162.729h298" style="stroke:#000d19;stroke-width:.5"/><text x="290.5" y="1184.724" fill="#D9B8FF" font-family="sans-serif" font-size="14" font-weight="bold" textLength="144">attachment_target</text><text x="434.5" y="1184.724" fill="#D9B8FF" font-family="sans-serif" font-size="14" textLength="48">: string</text><text x="290.5" y="1211.021" fill="#D9B8FF" font-family="sans-serif" font-size="14" font-weight="bold" textLength="105">display_name</text><text x="395.5" y="1211.021" fill="#D9B8FF" font-family="sans-serif" font-size="14" textLength="48">: string</text><text x="290.5" y="1237.318" fill="#D9B8FF" font-family="sans-serif" font-size="14" font-weight="bold" textLength="132">firewall_policy_id</text><text x="422.5" y="1237.318" fill="#D9B8FF" font-family="sans-serif" font-size="14" textLength="48">: string</text><text x="290.5" y="1263.615" fill="#D9B8FF" font-family="sans-serif" font-size="14" font-weight="bold" textLength="43">name</text><text x="333.5" y="1263.615" fill="#D9B8FF" font-family="sans-serif" font-size="14" textLength="48">: string</text><text x="290.5" y="1289.912" fill="#D9B8FF" font-family="sans-serif" font-size="14" font-weight="bold" textLength="92">short_name</text><text x="382.5" y="1289.912" fill="#D9B8FF" font-family="sans-serif" font-size="14" textLength="48">: string</text><rect width="434" height="363.352" x="614.5" y="1030.9" fill="#3D176E" rx="2.5" ry="2.5" style="stroke:#000d19;stroke-width:.5"/><circle cx="722.75" cy="1050.794" r="11" fill="#ADD1B2" style="stroke:#181818;stroke-width:1"/><path d="M725.719 1056.435q-.578.297-1.219.438-.64.156-1.344.156-2.5 0-3.828-1.64-1.312-1.657-1.312-4.782t1.312-4.781q1.328-1.657 3.828-1.657.703 0 1.344.157.656.156 1.219.453v2.719q-.625-.579-1.219-.844-.594-.281-1.219-.281-1.343 0-2.031 1.078-.687 1.062-.687 3.156t.687 3.172q.688 1.062 2.031 1.062.625 0 1.219-.265.594-.282 1.219-.86z"/><text x="748.25" y="1056.68" fill="#D9B8FF" font-family="Helvetica" font-size="17" textLength="199">gcp_firewall_policy_rule</text><path d="M615.5 1070.689h432" style="stroke:#000d19;stroke-width:.5"/><text x="625.5" y="1092.684" fill="#D9B8FF" font-family="sans-serif" font-size="14" font-weight="bold" textLength="48">action</text><text x="673.5" y="1092.684" fill="#D9B8FF" font-family="sans-serif" font-size="14" textLength="48">: string</text><text x="625.5" y="1118.981" fill="#D9B8FF" font-family="sans-serif" font-size="14" font-weight="bold" textLength="89">description</text><text x="714.5" y="1118.981" fill="#D9B8FF" font-family="sans-serif" font-size="14" textLength="48">: string</text><text x="625.5" y="1145.278" fill="#D9B8FF" font-family="sans-serif" font-size="14" font-weight="bold" textLength="70">direction</text><text x="695.5" y="1145.278" fill="#D9B8FF" font-family="sans-serif" font-size="14" textLength="48">: string</text><text x="625.5" y="1171.575" fill="#D9B8FF" font-family="sans-serif" font-size="14" font-weight="bold" textLength="66">disabled</text><text x="691.5" y="1171.575" fill="#D9B8FF" font-family="sans-serif" font-size="14" textLength="65">: boolean</text><text x="625.5" y="1197.872" fill="#D9B8FF" font-family="sans-serif" font-size="14" font-weight="bold" textLength="118">enable_logging</text><text x="743.5" y="1197.872" fill="#D9B8FF" font-family="sans-serif" font-size="14" textLength="65">: boolean</text><text x="625.5" y="1224.169" fill="#D9B8FF" font-family="sans-serif" font-size="14" font-weight="bold" textLength="48">match</text><text x="673.5" y="1224.169" fill="#D9B8FF" font-family="sans-serif" font-size="14" textLength="231">: gcp_firewall_policy_rule_matcher</text><text x="625.5" y="1250.465" fill="#D9B8FF" font-family="sans-serif" font-size="14" font-weight="bold" textLength="57">priority</text><text x="682.5" y="1250.465" fill="#D9B8FF" font-family="sans-serif" font-size="14" textLength="44">: int64</text><text x="625.5" y="1276.762" fill="#D9B8FF" font-family="sans-serif" font-size="14" font-weight="bold" textLength="81">rule_name</text><text x="706.5" y="1276.762" fill="#D9B8FF" font-family="sans-serif" font-size="14" textLength="48">: string</text><text x="625.5" y="1303.059" fill="#D9B8FF" font-family="sans-serif" font-size="14" font-weight="bold" textLength="130">rule_tuple_count</text><text x="755.5" y="1303.059" fill="#D9B8FF" font-family="sans-serif" font-size="14" textLength="44">: int64</text><text x="625.5" y="1329.356" fill="#D9B8FF" font-family="sans-serif" font-size="14" font-weight="bold" textLength="136">target_resources</text><text x="761.5" y="1329.356" fill="#D9B8FF" font-family="sans-serif" font-size="14" textLength="58">: string[]</text><text x="625.5" y="1355.653" fill="#D9B8FF" font-family="sans-serif" font-size="14" font-weight="bold" textLength="151">target_secure_tags</text><text x="776.5" y="1355.653" fill="#D9B8FF" font-family="sans-serif" font-size="14" textLength="261">: gcp_firewall_policy_rule_secure_tag[]</text><text x="625.5" y="1381.95" fill="#D9B8FF" font-family="sans-serif" font-size="14" font-weight="bold" textLength="192">target_service_accounts</text><text x="817.5" y="1381.95" fill="#D9B8FF" font-family="sans-serif" font-size="14" textLength="58">: string[]</text><rect width="474" height="152.977" x="449.5" y="1454.25" fill="#3D176E" rx="2.5" ry="2.5" style="stroke:#000d19;stroke-width:.5"/><circle cx="538.25" cy="1474.145" r="11" fill="#ADD1B2" style="stroke:#181818;stroke-width:1"/><path d="M541.219 1479.785q-.578.297-1.219.438-.64.156-1.344.156-2.5 0-3.828-1.64-1.312-1.657-1.312-4.782t1.312-4.781q1.328-1.656 3.828-1.656.703 0 1.344.156.656.156 1.219.453v2.719q-.625-.578-1.219-.844-.594-.281-1.219-.281-1.343 0-2.031 1.078-.687 1.062-.687 3.156t.687 3.172q.688 1.062 2.031 1.062.625 0 1.219-.265.594-.281 1.219-.86z"/><text x="563.75" y="1480.03" fill="#D9B8FF" font-family="Helvetica" font-size="17" textLength="278">gcp_firewall_policy_rule_matcher</text><path d="M450.5 1494.039h472" style="stroke:#000d19;stroke-width:.5"/><text x="460.5" y="1516.034" fill="#D9B8FF" font-family="sans-serif" font-size="14" font-weight="bold" textLength="118">dest_ip_ranges</text><text x="578.5" y="1516.034" fill="#D9B8FF" font-family="sans-serif" font-size="14" textLength="58">: string[]</text><text x="460.5" y="1542.331" fill="#D9B8FF" font-family="sans-serif" font-size="14" font-weight="bold" textLength="114">layer4_configs</text><text x="574.5" y="1542.331" fill="#D9B8FF" font-family="sans-serif" font-size="14" textLength="338">: gcp_firewall_policy_rule_matcher_layer4_config[]</text><text x="460.5" y="1568.628" fill="#D9B8FF" font-family="sans-serif" font-size="14" font-weight="bold" textLength="108">src_ip_ranges</text><text x="568.5" y="1568.628" fill="#D9B8FF" font-family="sans-serif" font-size="14" textLength="58">: string[]</text><text x="460.5" y="1594.925" fill="#D9B8FF" font-family="sans-serif" font-size="14" font-weight="bold" textLength="128">src_secure_tags</text><text x="588.5" y="1594.925" fill="#D9B8FF" font-family="sans-serif" font-size="14" textLength="261">: gcp_firewall_policy_rule_secure_tag[]</text><rect width="441" height="100.383" x="320" y="1667.23" fill="#3D176E" rx="2.5" ry="2.5" style="stroke:#000d19;stroke-width:.5"/><circle cx="335" cy="1687.124" r="11" fill="#ADD1B2" style="stroke:#181818;stroke-width:1"/><path d="M337.969 1692.765q-.578.297-1.219.438-.64.156-1.344.156-2.5 0-3.828-1.64-1.312-1.657-1.312-4.782t1.312-4.781q1.328-1.657 3.828-1.657.703 0 1.344.157.656.156 1.219.453v2.719q-.625-.579-1.219-.844-.594-.281-1.219-.281-1.344 0-2.031 1.078-.687 1.062-.687 3.156t.687 3.172q.688 1.062 2.031 1.062.625 0 1.219-.265.594-.282 1.219-.86z"/><text x="354" y="1693.01" fill="#D9B8FF" font-family="Helvetica" font-size="17" textLength="399">gcp_firewall_policy_rule_matcher_layer4_config</text><path d="M321 1707.019h439" style="stroke:#000d19;stroke-width:.5"/><text x="331" y="1729.014" fill="#D9B8FF" font-family="sans-serif" font-size="14" font-weight="bold" textLength="87">ip_protocol</text><text x="418" y="1729.014" fill="#D9B8FF" font-family="sans-serif" font-size="14" textLength="48">: string</text><text x="331" y="1755.311" fill="#D9B8FF" font-family="sans-serif" font-size="14" font-weight="bold" textLength="42">ports</text><text x="373" y="1755.311" fill="#D9B8FF" font-family="sans-serif" font-size="14" textLength="58">: string[]</text><rect width="360" height="100.383" x="796.5" y="1667.23" fill="#3D176E" rx="2.5" ry="2.5" style="stroke:#000d19;stroke-width:.5"/><circle cx="820.5" cy="1687.124" r="11" fill="#ADD1B2" style="stroke:#181818;stroke-width:1"/><path d="M823.469 1692.765q-.578.297-1.219.438-.64.156-1.344.156-2.5 0-3.828-1.64-1.312-1.657-1.312-4.782t1.312-4.781q1.328-1.657 3.828-1.657.703 0 1.344.157.656.156 1.219.453v2.719q-.625-.579-1.219-.844-.594-.281-1.219-.281-1.343 0-2.031 1.078-.687 1.062-.687 3.156t.687 3.172q.688 1.062 2.031 1.062.625 0 1.219-.265.594-.282 1.219-.86z"/><text x="841.5" y="1693.01" fill="#D9B8FF" font-family="Helvetica" font-size="17" textLength="298">gcp_firewall_policy_rule_secure_tag</text><path d="M797.5 1707.019h358" style="stroke:#000d19;stroke-width:.5"/><text x="807.5" y="1729.014" fill="#D9B8FF" font-family="sans-serif" font-size="14" font-weight="bold" textLength="290">firewall_policy_rule_secure_tag_state</text><text x="1097.5" y="1729.014" fill="#D9B8FF" font-family="sans-serif" font-size="14" textLength="48">: string</text><text x="807.5" y="1755.311" fill="#D9B8FF" font-family="sans-serif" font-size="14" font-weight="bold" textLength="43">name</text><text x="850.5" y="1755.311" fill="#D9B8FF" font-family="sans-serif" font-size="14" textLength="48">: string</text><rect width="348" height="152.977" x="22.5" y="438.76" fill="#3D176E" rx="2.5" ry="2.5" style="stroke:#000d19;stroke-width:.5"/><circle cx="133.25" cy="458.654" r="11" fill="#ADD1B2" style="stroke:#181818;stroke-width:1"/><path d="M136.219 464.295q-.578.297-1.219.438-.64.156-1.344.156-2.5 0-3.828-1.64-1.312-1.657-1.312-4.782t1.312-4.781q1.328-1.656 3.828-1.656.703 0 1.344.156.656.156 1.219.453v2.719q-.625-.579-1.219-.844-.594-.281-1.219-.281-1.344 0-2.031 1.078-.687 1.062-.687 3.156t.687 3.172q.688 1.062 2.031 1.062.625 0 1.219-.265.594-.281 1.219-.86z"/><text x="158.75" y="464.54" fill="#D9B8FF" font-family="Helvetica" font-size="17" textLength="108">gcp_resource</text><path d="M23.5 478.549h346" style="stroke:#000d19;stroke-width:.5"/><text x="33.5" y="500.544" fill="#D9B8FF" font-family="sans-serif" font-size="14" font-weight="bold" textLength="151">deprecation_status</text><text x="184.5" y="500.544" fill="#D9B8FF" font-family="sans-serif" font-size="14" textLength="175">: gcp_deprecation_status</text><text x="33.5" y="526.841" fill="#D9B8FF" font-family="sans-serif" font-size="14" font-weight="bold" textLength="89">description</text><text x="122.5" y="526.841" fill="#D9B8FF" font-family="sans-serif" font-size="14" textLength="48">: string</text><text x="33.5" y="553.138" fill="#D9B8FF" font-family="sans-serif" font-size="14" font-weight="bold" textLength="128">label_fingerprint</text><text x="161.5" y="553.138" fill="#D9B8FF" font-family="sans-serif" font-size="14" textLength="48">: string</text><text x="33.5" y="579.435" fill="#D9B8FF" font-family="sans-serif" font-size="14" font-weight="bold" textLength="27">link</text><text x="60.5" y="579.435" fill="#D9B8FF" font-family="sans-serif" font-size="14" textLength="48">: string</text><rect width="227" height="310.758" x="83" y="7" fill="#3D176E" rx="2.5" ry="2.5" style="stroke:#000d19;stroke-width:.5"/><circle cx="151.75" cy="26.895" r="11" fill="#ADD1B2" style="stroke:#181818;stroke-width:1"/><path d="M154.719 32.535q-.578.297-1.219.438-.64.156-1.344.156-2.5 0-3.828-1.64-1.312-1.657-1.312-4.782t1.312-4.781q1.328-1.656 3.828-1.656.703 0 1.344.156.656.156 1.219.453v2.719q-.625-.578-1.219-.844-.594-.281-1.219-.281-1.344 0-2.031 1.078-.687 1.062-.687 3.156t.687 3.172q.688 1.062 2.031 1.062.625 0 1.219-.265.594-.281 1.219-.86z"/><text x="177.25" y="32.78" fill="#D9B8FF" font-family="Helvetica" font-size="17" textLength="71">resource</text><path d="M84 46.789h225" style="stroke:#000d19;stroke-width:.5"/><text x="94" y="68.784" fill="#D9B8FF" font-family="sans-serif" font-size="14" font-weight="bold" textLength="29">age</text><text x="123" y="68.784" fill="#D9B8FF" font-family="sans-serif" font-size="14" textLength="66">: duration</text><text x="94" y="95.081" fill="#D9B8FF" font-family="sans-serif" font-size="14" font-weight="bold" textLength="43">atime</text><text x="137" y="95.081" fill="#D9B8FF" font-family="sans-serif" font-size="14" textLength="70">: datetime</text><text x="94" y="121.378" fill="#D9B8FF" font-family="sans-serif" font-size="14" font-weight="bold" textLength="43">ctime</text><text x="137" y="121.378" fill="#D9B8FF" font-family="sans-serif" font-size="14" textLength="70">: datetime</text><text x="94" y="147.675" fill="#D9B8FF" font-family="sans-serif" font-size="14" font-weight="bold" textLength="14">id</text><text x="108" y="147.675" fill="#D9B8FF" font-family="sans-serif" font-size="14" textLength="48">: string</text><text x="94" y="173.972" fill="#D9B8FF" font-family="sans-serif" font-size="14" font-weight="bold" textLength="33">kind</text><text x="127" y="173.972" fill="#D9B8FF" font-family="sans-serif" font-size="14" textLength="48">: string</text><text x="94" y="200.269" fill="#D9B8FF" font-family="sans-serif" font-size="14" font-weight="bold" textLength="90">last_access</text><text x="184" y="200.269" fill="#D9B8FF" font-family="sans-serif" font-size="14" textLength="66">: duration</text><text x="94" y="226.565" fill="#D9B8FF" font-family="sans-serif" font-size="14" font-weight="bold" textLength="90">last_update</text><text x="184" y="226.565" fill="#D9B8FF" font-family="sans-serif" font-size="14" textLength="66">: duration</text><text x="94" y="252.862" fill="#D9B8FF" font-family="sans-serif" font-size="14" font-weight="bold" textLength="48">mtime</text><text x="142" y="252.862" fill="#D9B8FF" font-family="sans-serif" font-size="14" textLength="70">: datetime</text><text x="94" y="279.159" fill="#D9B8FF" font-family="sans-serif" font-size="14" font-weight="bold" textLength="43">name</text><text x="137" y="279.159" fill="#D9B8FF" font-family="sans-serif" font-size="14" textLength="48">: string</text><text x="94" y="305.456" fill="#D9B8FF" font-family="sans-serif" font-size="14" font-weight="bold" textLength="34">tags</text><text x="128" y="305.456" fill="#D9B8FF" font-family="sans-serif" font-size="14" textLength="171">: dictionary[string, string]</text><path fill="none" d="M308.08 971.23c-15.68 19.91-31.62 40.3-46.58 59.67-22.92 29.67-44.056 57.553-66.076 86.863" style="stroke:#ffaf37;stroke-width:2"/><path fill="#FFAF37" d="m191.82 1122.56 8.604-4.793-5.6.795-.796-5.6z" style="stroke:#ffaf37;stroke-width:2"/><path fill="none" d="M417.12 971.27c2.57 49.99 5.151 100.048 7.491 145.428" style="stroke:#ffaf37;stroke-width:2"/><path fill="#FFAF37" d="m424.92 1122.69 3.531-9.194-3.788 4.2-4.201-3.788z" style="stroke:#ffaf37;stroke-width:2"/><path fill="none" d="M557.15 971.27c21.96 19.23 40.417 35.396 63.327 55.466" style="stroke:#ffaf37;stroke-width:2"/><path fill="#FFAF37" d="m624.99 1030.69-4.134-8.94.373 5.645-5.644.373z" style="stroke:#ffaf37;stroke-width:2"/><g fill="none"><path d="M256.306 606.959c23.65 35.88 42.664 64.701 69.594 105.551" style="stroke:#ffaf37;stroke-width:2"/><path d="m246.4 591.93 4.897 18.331 10.019-6.604z" style="stroke:#ffaf37;stroke-width:2"/></g><path fill="none" d="M748.41 1394.74c-9.55 20.83-16.359 35.666-24.729 53.916" style="stroke:#ffaf37;stroke-width:2"/><path fill="#FFAF37" d="m721.18 1454.11 7.388-6.513-5.304 1.968-1.968-5.303z" style="stroke:#ffaf37;stroke-width:2"/><path fill="none" d="M920.05 1394.47c7.73 19.88 14.76 40.06 20.45 59.78 20.82 72.17 29.313 153.114 33.033 206.505" style="stroke:#ffaf37;stroke-width:2"/><path fill="#FFAF37" d="m973.95 1666.74 3.365-9.256-3.713 4.268-4.268-3.712z" style="stroke:#ffaf37;stroke-width:2"/><path fill="none" d="M626.48 1607.65c-15.8 20-28.73 36.352-43.12 54.562" style="stroke:#ffaf37;stroke-width:2"/><path fill="#FFAF37" d="m579.64 1666.92 8.719-4.581-5.619.658-.658-5.618z" style="stroke:#ffaf37;stroke-width:2"/><path fill="none" d="M805.71 1607.65c31.4 20 59.41 37.837 88 56.047" style="stroke:#ffaf37;stroke-width:2"/><path fill="#FFAF37" d="m898.77 1666.92-5.442-8.209 1.225 5.523-5.523 1.225z" style="stroke:#ffaf37;stroke-width:2"/><path fill="none" d="M188.77 591.98a22796597 22796597 0 0 0-53.57 524.621" style="stroke:#ffaf37;stroke-width:2"/><path fill="#FFAF37" d="m134.59 1122.57 4.893-8.547-4.385 3.573-3.573-4.386z" style="stroke:#ffaf37;stroke-width:2"/><path fill="none" d="M196.5 336.04v102.27m0-120.27-6 18h12z" style="stroke:#ffaf37;stroke-width:2"/></svg>