<svg xmlns="http://www.w3.org/2000/svg" width="557" height="1348" viewBox="0 0 557 1348"><rect width="237" height="179.273" x="27.5" y="1162.39" fill="#3D176E" rx="2.5" ry="2.5" style="stroke:#000d19;stroke-width:.5"/><circle cx="42.5" cy="1182.284" r="11" fill="#ADD1B2" style="stroke:#181818;stroke-width:1"/><path d="M45.469 1187.925q-.578.297-1.219.438-.64.156-1.344.156-2.5 0-3.828-1.64-1.312-1.657-1.312-4.782t1.312-4.781q1.328-1.657 3.828-1.657.703 0 1.344.157.656.156 1.219.453v2.719q-.625-.579-1.219-.844-.594-.281-1.219-.281-1.343 0-2.031 1.078-.688 1.062-.688 3.156 0 2.094.688 3.172.688 1.062 2.031 1.062.625 0 1.219-.265.594-.282 1.219-.86z"/><text x="61.5" y="1188.17" fill="#D9B8FF" font-family="Helvetica" font-size="17" textLength="195">gcp_deprecation_status</text><path d="M28.5 1202.179h235" style="stroke:#000d19;stroke-width:.5"/><text x="38.5" y="1224.174" fill="#D9B8FF" font-family="sans-serif" font-size="14" font-weight="bold" textLength="60">deleted</text><text x="98.5" y="1224.174" fill="#D9B8FF" font-family="sans-serif" font-size="14" textLength="48">: string</text><text x="38.5" y="1250.471" fill="#D9B8FF" font-family="sans-serif" font-size="14" font-weight="bold" textLength="91">deprecated</text><text x="129.5" y="1250.471" fill="#D9B8FF" font-family="sans-serif" font-size="14" textLength="48">: string</text><text x="38.5" y="1276.768" fill="#D9B8FF" font-family="sans-serif" font-size="14" font-weight="bold" textLength="69">obsolete</text><text x="107.5" y="1276.768" fill="#D9B8FF" font-family="sans-serif" font-size="14" textLength="48">: string</text><text x="38.5" y="1303.065" fill="#D9B8FF" font-family="sans-serif" font-size="14" font-weight="bold" textLength="99">replacement</text><text x="137.5" y="1303.065" fill="#D9B8FF" font-family="sans-serif" font-size="14" textLength="48">: string</text><text x="38.5" y="1329.362" fill="#D9B8FF" font-family="sans-serif" font-size="14" font-weight="bold" textLength="40">state</text><text x="78.5" y="1329.362" fill="#D9B8FF" font-family="sans-serif" font-size="14" textLength="48">: string</text><rect width="348" height="152.977" x="7" y="438.76" fill="#3D176E" rx="2.5" ry="2.5" style="stroke:#000d19;stroke-width:.5"/><circle cx="117.75" cy="458.654" r="11" fill="#ADD1B2" style="stroke:#181818;stroke-width:1"/><path d="M120.719 464.295q-.578.297-1.219.438-.64.156-1.344.156-2.5 0-3.828-1.64-1.312-1.657-1.312-4.782t1.312-4.781q1.328-1.656 3.828-1.656.703 0 1.344.156.656.156 1.219.453v2.719q-.625-.579-1.219-.844-.594-.281-1.219-.281-1.344 0-2.031 1.078-.688 1.062-.688 3.156 0 2.094.688 3.172.688 1.062 2.031 1.062.625 0 1.219-.265.594-.281 1.219-.86v2.72Z"/><text x="143.25" y="464.54" fill="#D9B8FF" font-family="Helvetica" font-size="17" textLength="108">gcp_resource</text><path d="M8 478.549h346" style="stroke:#000d19;stroke-width:.5"/><text x="18" y="500.544" fill="#D9B8FF" font-family="sans-serif" font-size="14" font-weight="bold" textLength="151">deprecation_status</text><text x="169" y="500.544" fill="#D9B8FF" font-family="sans-serif" font-size="14" textLength="175">: gcp_deprecation_status</text><text x="18" y="526.841" fill="#D9B8FF" font-family="sans-serif" font-size="14" font-weight="bold" textLength="89">description</text><text x="107" y="526.841" fill="#D9B8FF" font-family="sans-serif" font-size="14" textLength="48">: string</text><text x="18" y="553.138" fill="#D9B8FF" font-family="sans-serif" font-size="14" font-weight="bold" textLength="128">label_fingerprint</text><text x="146" y="553.138" fill="#D9B8FF" font-family="sans-serif" font-size="14" textLength="48">: string</text><text x="18" y="579.435" fill="#D9B8FF" font-family="sans-serif" font-size="14" font-weight="bold" textLength="27">link</text><text x="45" y="579.435" fill="#D9B8FF" font-family="sans-serif" font-size="14" textLength="48">: string</text><rect width="351" height="389.648" x="199.5" y="712.74" fill="#3D176E" rx="2.5" ry="2.5" style="stroke:#000d19;stroke-width:.5"/><circle cx="282.75" cy="732.635" r="11" fill="#ADD1B2" style="stroke:#181818;stroke-width:1"/><path d="M285.719 738.275q-.578.297-1.219.438-.64.156-1.344.156-2.5 0-3.828-1.64-1.312-1.657-1.312-4.782t1.312-4.781q1.328-1.657 3.828-1.657.703 0 1.344.157.656.156 1.219.453v2.719q-.625-.578-1.219-.844-.594-.281-1.219-.281-1.344 0-2.031 1.078-.688 1.062-.688 3.156 0 2.094.688 3.172.688 1.062 2.031 1.062.625 0 1.219-.265.594-.282 1.219-.86z"/><text x="308.25" y="738.52" fill="#D9B8FF" font-family="Helvetica" font-size="17" textLength="166">gcp_sql_backup_run</text><path d="M200.5 752.529h349" style="stroke:#000d19;stroke-width:.5"/><text x="210.5" y="774.524" fill="#D9B8FF" font-family="sans-serif" font-size="14" font-weight="bold" textLength="97">backup_kind</text><text x="307.5" y="774.524" fill="#D9B8FF" font-family="sans-serif" font-size="14" textLength="48">: string</text><text x="210.5" y="800.821" fill="#D9B8FF" font-family="sans-serif" font-size="14" font-weight="bold" textLength="236">disk_encryption_configuration</text><text x="446.5" y="800.821" fill="#D9B8FF" font-family="sans-serif" font-size="14" textLength="48">: string</text><text x="210.5" y="827.118" fill="#D9B8FF" font-family="sans-serif" font-size="14" font-weight="bold" textLength="180">disk_encryption_status</text><text x="390.5" y="827.118" fill="#D9B8FF" font-family="sans-serif" font-size="14" textLength="48">: string</text><text x="210.5" y="853.415" fill="#D9B8FF" font-family="sans-serif" font-size="14" font-weight="bold" textLength="71">end_time</text><text x="281.5" y="853.415" fill="#D9B8FF" font-family="sans-serif" font-size="14" textLength="70">: datetime</text><text x="210.5" y="879.712" fill="#D9B8FF" font-family="sans-serif" font-size="14" font-weight="bold" textLength="121">enqueued_time</text><text x="331.5" y="879.712" fill="#D9B8FF" font-family="sans-serif" font-size="14" textLength="70">: datetime</text><text x="210.5" y="906.009" fill="#D9B8FF" font-family="sans-serif" font-size="14" font-weight="bold" textLength="67">instance</text><text x="277.5" y="906.009" fill="#D9B8FF" font-family="sans-serif" font-size="14" textLength="48">: string</text><text x="210.5" y="932.305" fill="#D9B8FF" font-family="sans-serif" font-size="14" font-weight="bold" textLength="62">location</text><text x="272.5" y="932.305" fill="#D9B8FF" font-family="sans-serif" font-size="14" textLength="48">: string</text><text x="210.5" y="958.602" fill="#D9B8FF" font-family="sans-serif" font-size="14" font-weight="bold" textLength="154">sql_operation_error</text><text x="364.5" y="958.602" fill="#D9B8FF" font-family="sans-serif" font-size="14" textLength="175">: gcp_sql_operation_error</text><text x="210.5" y="984.899" fill="#D9B8FF" font-family="sans-serif" font-size="14" font-weight="bold" textLength="78">start_time</text><text x="288.5" y="984.899" fill="#D9B8FF" font-family="sans-serif" font-size="14" textLength="70">: datetime</text><text x="210.5" y="1011.196" fill="#D9B8FF" font-family="sans-serif" font-size="14" font-weight="bold" textLength="49">status</text><text x="259.5" y="1011.196" fill="#D9B8FF" font-family="sans-serif" font-size="14" textLength="48">: string</text><text x="210.5" y="1037.493" fill="#D9B8FF" font-family="sans-serif" font-size="14" font-weight="bold" textLength="80">time_zone</text><text x="290.5" y="1037.493" fill="#D9B8FF" font-family="sans-serif" font-size="14" textLength="48">: string</text><text x="210.5" y="1063.79" fill="#D9B8FF" font-family="sans-serif" font-size="14" font-weight="bold" textLength="35">type</text><text x="245.5" y="1063.79" fill="#D9B8FF" font-family="sans-serif" font-size="14" textLength="48">: string</text><text x="210.5" y="1090.087" fill="#D9B8FF" font-family="sans-serif" font-size="14" font-weight="bold" textLength="147">window_start_time</text><text x="357.5" y="1090.087" fill="#D9B8FF" font-family="sans-serif" font-size="14" textLength="70">: datetime</text><rect width="241" height="100.383" x="299.5" y="1201.83" fill="#3D176E" rx="2.5" ry="2.5" style="stroke:#000d19;stroke-width:.5"/><circle cx="314.5" cy="1221.725" r="11" fill="#ADD1B2" style="stroke:#181818;stroke-width:1"/><path d="M317.469 1227.365q-.578.297-1.219.438-.64.156-1.344.156-2.5 0-3.828-1.64-1.312-1.657-1.312-4.782t1.312-4.781q1.328-1.657 3.828-1.657.703 0 1.344.157.656.156 1.219.453v2.719q-.625-.579-1.219-.844-.594-.281-1.219-.281-1.344 0-2.031 1.078-.688 1.062-.688 3.156 0 2.094.688 3.172.688 1.062 2.031 1.062.625 0 1.219-.265.594-.282 1.219-.86z"/><text x="333.5" y="1227.61" fill="#D9B8FF" font-family="Helvetica" font-size="17" textLength="199">gcp_sql_operation_error</text><path d="M300.5 1241.619h239" style="stroke:#000d19;stroke-width:.5"/><text x="310.5" y="1263.614" fill="#D9B8FF" font-family="sans-serif" font-size="14" font-weight="bold" textLength="39">code</text><text x="349.5" y="1263.614" fill="#D9B8FF" font-family="sans-serif" font-size="14" textLength="48">: string</text><text x="310.5" y="1289.911" fill="#D9B8FF" font-family="sans-serif" font-size="14" font-weight="bold" textLength="71">message</text><text x="381.5" y="1289.911" fill="#D9B8FF" font-family="sans-serif" font-size="14" textLength="48">: string</text><rect width="227" height="310.758" x="67.5" y="7" fill="#3D176E" rx="2.5" ry="2.5" style="stroke:#000d19;stroke-width:.5"/><circle cx="136.25" cy="26.895" r="11" fill="#ADD1B2" style="stroke:#181818;stroke-width:1"/><path d="M139.219 32.535q-.578.297-1.219.438-.64.156-1.344.156-2.5 0-3.828-1.64-1.312-1.657-1.312-4.782t1.312-4.781q1.328-1.656 3.828-1.656.703 0 1.344.156.656.156 1.219.453v2.719q-.625-.578-1.219-.844-.594-.281-1.219-.281-1.344 0-2.031 1.078-.688 1.062-.688 3.156 0 2.094.688 3.172.688 1.062 2.031 1.062.625 0 1.219-.265.594-.281 1.219-.86v2.72Z"/><text x="161.75" y="32.78" fill="#D9B8FF" font-family="Helvetica" font-size="17" textLength="71">resource</text><path d="M68.5 46.789h225" style="stroke:#000d19;stroke-width:.5"/><text x="78.5" y="68.784" fill="#D9B8FF" font-family="sans-serif" font-size="14" font-weight="bold" textLength="29">age</text><text x="107.5" y="68.784" fill="#D9B8FF" font-family="sans-serif" font-size="14" textLength="66">: duration</text><text x="78.5" y="95.081" fill="#D9B8FF" font-family="sans-serif" font-size="14" font-weight="bold" textLength="43">atime</text><text x="121.5" y="95.081" fill="#D9B8FF" font-family="sans-serif" font-size="14" textLength="70">: datetime</text><text x="78.5" y="121.378" fill="#D9B8FF" font-family="sans-serif" font-size="14" font-weight="bold" textLength="43">ctime</text><text x="121.5" y="121.378" fill="#D9B8FF" font-family="sans-serif" font-size="14" textLength="70">: datetime</text><text x="78.5" y="147.675" fill="#D9B8FF" font-family="sans-serif" font-size="14" font-weight="bold" textLength="14">id</text><text x="92.5" y="147.675" fill="#D9B8FF" font-family="sans-serif" font-size="14" textLength="48">: string</text><text x="78.5" y="173.972" fill="#D9B8FF" font-family="sans-serif" font-size="14" font-weight="bold" textLength="33">kind</text><text x="111.5" y="173.972" fill="#D9B8FF" font-family="sans-serif" font-size="14" textLength="48">: string</text><text x="78.5" y="200.269" fill="#D9B8FF" font-family="sans-serif" font-size="14" font-weight="bold" textLength="90">last_access</text><text x="168.5" y="200.269" fill="#D9B8FF" font-family="sans-serif" font-size="14" textLength="66">: duration</text><text x="78.5" y="226.565" fill="#D9B8FF" font-family="sans-serif" font-size="14" font-weight="bold" textLength="90">last_update</text><text x="168.5" y="226.565" fill="#D9B8FF" font-family="sans-serif" font-size="14" textLength="66">: duration</text><text x="78.5" y="252.862" fill="#D9B8FF" font-family="sans-serif" font-size="14" font-weight="bold" textLength="48">mtime</text><text x="126.5" y="252.862" fill="#D9B8FF" font-family="sans-serif" font-size="14" textLength="70">: datetime</text><text x="78.5" y="279.159" fill="#D9B8FF" font-family="sans-serif" font-size="14" font-weight="bold" textLength="43">name</text><text x="121.5" y="279.159" fill="#D9B8FF" font-family="sans-serif" font-size="14" textLength="48">: string</text><text x="78.5" y="305.456" fill="#D9B8FF" font-family="sans-serif" font-size="14" font-weight="bold" textLength="34">tags</text><text x="112.5" y="305.456" fill="#D9B8FF" font-family="sans-serif" font-size="14" textLength="171">: dictionary[string, string]</text><path fill="none" d="M177.39 592.12c-6.44 135.03-19.85 416.69-26.88 564.2" style="stroke:#ffaf37;stroke-width:2"/><path fill="#FFAF37" d="m150.24 1160.94 4.432-8.795-4.19 3.8-3.8-4.188z" style="stroke:#ffaf37;stroke-width:2"/><path fill="none" d="M181 338.66v99.65m-7-99.27 7-20 7 20zm71.11 763.77c-12.64 18.9-25.03 37.43-36.53 54.62" style="stroke:#ffaf37;stroke-width:2"/><path fill="#FFAF37" d="m205.36 1161.25 8.32-5.27-5.547 1.11-1.109-5.547z" style="stroke:#ffaf37;stroke-width:2"/><g fill="none"><path d="M227.87 610.54c15.33 30.86 32.98 66.36 50.6 101.82" style="stroke:#ffaf37;stroke-width:2"/><path d="m221.27 613.99-2.63-21.02 15.17 14.79z" style="stroke:#ffaf37;stroke-width:2"/></g><path fill="none" d="M400.52 1102.81c4.49 34.1 8.8 66.97 12.23 93.05" style="stroke:#ffaf37;stroke-width:2"/><path fill="#FFAF37" d="m413.51 1200.65 2.81-9.44-3.453 4.481-4.481-3.452z" style="stroke:#ffaf37;stroke-width:2"/></svg>