<svg xmlns="http://www.w3.org/2000/svg" xmlns:xlink="http://www.w3.org/1999/xlink" width="1534" height="451" preserveAspectRatio="none" style="width:1534px;height:451px"><a xlink:actuate="onRequest" xlink:href="#a" xlink:show="new" xlink:title="#aws_kms_key" xlink:type="simple" target="_top"><rect id="a" width="158" height="39.789" x="700.5" y="406.16" fill="#3D176E" rx="2.5" ry="2.5" style="stroke:#000d19;stroke-width:.5"/><circle cx="715.5" cy="426.055" r="11" fill="#ADD1B2" style="stroke:#181818;stroke-width:1"/><path d="M718.469 431.695q-.578.297-1.219.438-.64.156-1.344.156-2.5 0-3.828-1.64-1.312-1.657-1.312-4.782t1.312-4.781q1.328-1.656 3.828-1.656.703 0 1.344.156.656.156 1.219.453v2.719q-.625-.578-1.219-.844-.594-.281-1.219-.281-1.343 0-2.031 1.078-.688 1.062-.688 3.156 0 2.094.688 3.172.688 1.062 2.031 1.062.625 0 1.219-.265.594-.281 1.219-.86v2.72Z"/><text x="734.5" y="431.94" fill="#D9B8FF" font-family="Helvetica" font-size="17" textLength="116">aws_kms_key</text></a><a xlink:actuate="onRequest" xlink:href="#b" xlink:show="new" xlink:title="#aws_vpc" xlink:type="simple" target="_top"><rect id="b" width="112" height="39.789" x="488.5" y="7" fill="#3D176E" rx="2.5" ry="2.5" style="stroke:#000d19;stroke-width:.5"/><circle cx="503.5" cy="26.895" r="11" fill="#ADD1B2" style="stroke:#181818;stroke-width:1"/><path d="M506.469 32.535q-.578.297-1.219.438-.64.156-1.344.156-2.5 0-3.828-1.64-1.312-1.657-1.312-4.782t1.312-4.781q1.328-1.656 3.828-1.656.703 0 1.344.156.656.156 1.219.453v2.719q-.625-.578-1.219-.844-.594-.281-1.219-.281-1.344 0-2.031 1.078-.688 1.062-.688 3.156 0 2.094.688 3.172.688 1.062 2.031 1.062.625 0 1.219-.265.594-.281 1.219-.86v2.72Z"/><text x="522.5" y="32.78" fill="#D9B8FF" font-family="Helvetica" font-size="17" textLength="70">aws_vpc</text></a><a xlink:actuate="onRequest" xlink:href="#c" xlink:show="new" xlink:title="#aws_ec2_subnet" xlink:type="simple" target="_top"><rect id="c" width="179" height="39.789" x="455" y="106.79" fill="#3D176E" rx="2.5" ry="2.5" style="stroke:#000d19;stroke-width:.5"/><circle cx="470" cy="126.684" r="11" fill="#ADD1B2" style="stroke:#181818;stroke-width:1"/><path d="M472.969 132.325q-.578.297-1.219.438-.64.156-1.344.156-2.5 0-3.828-1.64-1.312-1.657-1.312-4.782t1.312-4.781q1.328-1.656 3.828-1.656.703 0 1.344.156.656.156 1.219.453v2.719q-.625-.579-1.219-.844-.594-.281-1.219-.281-1.344 0-2.031 1.078-.688 1.062-.688 3.156 0 2.094.688 3.172.688 1.062 2.031 1.062.625 0 1.219-.265.594-.281 1.219-.86v2.72Z"/><text x="489" y="132.57" fill="#D9B8FF" font-family="Helvetica" font-size="17" textLength="137">aws_ec2_subnet</text></a><a xlink:actuate="onRequest" xlink:href="#d" xlink:show="new" xlink:title="#aws_sagemaker_labeling_job" xlink:type="simple" target="_top"><rect id="d" width="285" height="39.789" x="61" y="206.58" fill="#3D176E" rx="2.5" ry="2.5" style="stroke:#000d19;stroke-width:.5"/><circle cx="76" cy="226.475" r="11" fill="#ADD1B2" style="stroke:#181818;stroke-width:1"/><path d="M78.969 232.115q-.578.297-1.219.438-.64.156-1.344.156-2.5 0-3.828-1.64-1.312-1.657-1.312-4.782t1.312-4.781q1.328-1.656 3.828-1.656.703 0 1.344.156.656.156 1.219.453v2.719q-.625-.578-1.219-.844-.594-.281-1.219-.281-1.344 0-2.031 1.078-.688 1.062-.688 3.156 0 2.094.688 3.172.688 1.062 2.031 1.062.625 0 1.219-.265.594-.281 1.219-.86v2.72Z"/><text x="95" y="232.36" fill="#D9B8FF" font-family="Helvetica" font-size="17" textLength="243">aws_sagemaker_labeling_job</text></a><a xlink:actuate="onRequest" xlink:href="#e" xlink:show="new" xlink:title="#aws_lambda_function" xlink:type="simple" target="_top"><rect id="e" width="224" height="39.789" x="667.5" y="306.37" fill="#3D176E" rx="2.5" ry="2.5" style="stroke:#000d19;stroke-width:.5"/><circle cx="682.5" cy="326.264" r="11" fill="#ADD1B2" style="stroke:#181818;stroke-width:1"/><path d="M685.469 331.905q-.578.297-1.219.438-.64.156-1.344.156-2.5 0-3.828-1.64-1.312-1.657-1.312-4.782t1.312-4.781q1.328-1.656 3.828-1.656.703 0 1.344.156.656.156 1.219.453v2.719q-.625-.579-1.219-.844-.594-.281-1.219-.281-1.343 0-2.031 1.078-.688 1.062-.688 3.156 0 2.094.688 3.172.688 1.062 2.031 1.062.625 0 1.219-.265.594-.281 1.219-.86v2.72Z"/><text x="701.5" y="332.15" fill="#D9B8FF" font-family="Helvetica" font-size="17" textLength="182">aws_lambda_function</text></a><a xlink:actuate="onRequest" xlink:href="#f" xlink:show="new" xlink:title="#aws_api_gateway_authorizer" xlink:type="simple" target="_top"><rect id="f" width="285" height="39.789" x="832" y="206.58" fill="#3D176E" rx="2.5" ry="2.5" style="stroke:#000d19;stroke-width:.5"/><circle cx="847" cy="226.475" r="11" fill="#ADD1B2" style="stroke:#181818;stroke-width:1"/><path d="M849.969 232.115q-.578.297-1.219.438-.64.156-1.344.156-2.5 0-3.828-1.64-1.312-1.657-1.312-4.782t1.312-4.781q1.328-1.656 3.828-1.656.703 0 1.344.156.656.156 1.219.453v2.719q-.625-.578-1.219-.844-.594-.281-1.219-.281-1.343 0-2.031 1.078-.688 1.062-.688 3.156 0 2.094.688 3.172.688 1.062 2.031 1.062.625 0 1.219-.265.594-.281 1.219-.86v2.72Z"/><text x="866" y="232.36" fill="#D9B8FF" font-family="Helvetica" font-size="17" textLength="243">aws_api_gateway_authorizer</text></a><a xlink:actuate="onRequest" xlink:href="#g" xlink:show="new" xlink:title="#aws_ec2_security_group" xlink:type="simple" target="_top"><rect id="g" width="245" height="39.789" x="81" y="106.79" fill="#3D176E" rx="2.5" ry="2.5" style="stroke:#000d19;stroke-width:.5"/><circle cx="96" cy="126.684" r="11" fill="#ADD1B2" style="stroke:#181818;stroke-width:1"/><path d="M98.969 132.325q-.578.297-1.219.438-.64.156-1.344.156-2.5 0-3.828-1.64-1.312-1.657-1.312-4.782t1.312-4.781q1.328-1.656 3.828-1.656.703 0 1.344.156.656.156 1.219.453v2.719q-.625-.579-1.219-.844-.594-.281-1.219-.281-1.344 0-2.031 1.078-.688 1.062-.688 3.156 0 2.094.688 3.172.688 1.062 2.031 1.062.625 0 1.219-.265.594-.281 1.219-.86v2.72Z"/><text x="115" y="132.57" fill="#D9B8FF" font-family="Helvetica" font-size="17" textLength="203">aws_ec2_security_group</text></a><a xlink:actuate="onRequest" xlink:href="#h" xlink:show="new" xlink:title="#aws_cognito_user_pool" xlink:type="simple" target="_top"><rect id="h" width="234" height="39.789" x="1293.5" y="206.58" fill="#3D176E" rx="2.5" ry="2.5" style="stroke:#000d19;stroke-width:.5"/><circle cx="1308.5" cy="226.475" r="11" fill="#ADD1B2" style="stroke:#181818;stroke-width:1"/><path d="M1311.469 232.115q-.578.297-1.219.438-.64.156-1.344.156-2.5 0-3.828-1.64-1.312-1.657-1.312-4.782t1.312-4.781q1.328-1.656 3.828-1.656.703 0 1.344.156.656.156 1.219.453v2.719q-.625-.578-1.219-.844-.594-.281-1.219-.281-1.343 0-2.031 1.078-.688 1.062-.688 3.156 0 2.094.688 3.172.688 1.062 2.031 1.062.625 0 1.219-.265.594-.281 1.219-.86v2.72Z"/><text x="1327.5" y="232.36" fill="#D9B8FF" font-family="Helvetica" font-size="17" textLength="192">aws_cognito_user_pool</text></a><a xlink:actuate="onRequest" xlink:href="#i" xlink:show="new" xlink:title="#aws_api_gateway_resource" xlink:type="simple" target="_top"><rect id="i" width="270" height="39.789" x="917.5" y="106.79" fill="#3D176E" rx="2.5" ry="2.5" style="stroke:#000d19;stroke-width:.5"/><circle cx="932.5" cy="126.684" r="11" fill="#ADD1B2" style="stroke:#181818;stroke-width:1"/><path d="M935.469 132.325q-.578.297-1.219.438-.64.156-1.344.156-2.5 0-3.828-1.64-1.312-1.657-1.312-4.782t1.312-4.781q1.328-1.656 3.828-1.656.703 0 1.344.156.656.156 1.219.453v2.719q-.625-.579-1.219-.844-.594-.281-1.219-.281-1.343 0-2.031 1.078-.688 1.062-.688 3.156 0 2.094.688 3.172.688 1.062 2.031 1.062.625 0 1.219-.265.594-.281 1.219-.86v2.72Z"/><text x="951.5" y="132.57" fill="#D9B8FF" font-family="Helvetica" font-size="17" textLength="228">aws_api_gateway_resource</text></a><a xlink:actuate="onRequest" xlink:href="#j" xlink:show="new" xlink:title="#aws_api_gateway_rest_api" xlink:type="simple" target="_top"><rect id="j" width="265" height="39.789" x="920" y="7" fill="#3D176E" rx="2.5" ry="2.5" style="stroke:#000d19;stroke-width:.5"/><circle cx="935" cy="26.895" r="11" fill="#ADD1B2" style="stroke:#181818;stroke-width:1"/><path d="M937.969 32.535q-.578.297-1.219.438-.64.156-1.344.156-2.5 0-3.828-1.64-1.312-1.657-1.312-4.782t1.312-4.781q1.328-1.656 3.828-1.656.703 0 1.344.156.656.156 1.219.453v2.719q-.625-.578-1.219-.844-.594-.281-1.219-.281-1.343 0-2.031 1.078-.688 1.062-.688 3.156 0 2.094.688 3.172.688 1.062 2.031 1.062.625 0 1.219-.265.594-.281 1.219-.86v2.72Z"/><text x="954" y="32.78" fill="#D9B8FF" font-family="Helvetica" font-size="17" textLength="223">aws_api_gateway_rest_api</text></a><a xlink:actuate="onRequest" xlink:href="#k" xlink:show="new" xlink:title="#aws_cloudfront_distribution" xlink:type="simple" target="_top"><rect id="k" width="274" height="39.789" x="381.5" y="206.58" fill="#3D176E" rx="2.5" ry="2.5" style="stroke:#000d19;stroke-width:.5"/><circle cx="396.5" cy="226.475" r="11" fill="#ADD1B2" style="stroke:#181818;stroke-width:1"/><path d="M399.469 232.115q-.578.297-1.219.438-.64.156-1.344.156-2.5 0-3.828-1.64-1.312-1.657-1.312-4.782t1.312-4.781q1.328-1.656 3.828-1.656.703 0 1.344.156.656.156 1.219.453v2.719q-.625-.578-1.219-.844-.594-.281-1.219-.281-1.344 0-2.031 1.078-.688 1.062-.688 3.156 0 2.094.688 3.172.688 1.062 2.031 1.062.625 0 1.219-.265.594-.281 1.219-.86v2.72Z"/><text x="415.5" y="232.36" fill="#D9B8FF" font-family="Helvetica" font-size="17" textLength="232">aws_cloudfront_distribution</text></a><path fill="none" d="M544.5 47.22v53.31" style="stroke:#1a83af;stroke-width:2"/><path fill="#1A83AF" d="m544.5 105.41 4-9-4 4-4-4 4 9z" style="stroke:#1a83af;stroke-width:2"/><path fill="none" d="M576.21 47.17c22.55 14.64 52.71 36.19 75.29 59.62 57.65 59.84 99.95 150.42 118.14 193.72" style="stroke:#1a83af;stroke-width:2"/><path fill="#1A83AF" d="m771.94 305.05.246-9.846-2.162 5.228-5.227-2.162 7.143 6.78z" style="stroke:#1a83af;stroke-width:2"/><path fill="none" d="M488.19 44.05c-57.84 16.58-148.13 42.48-211.48 60.65" style="stroke:#1a83af;stroke-width:2"/><path fill="#1A83AF" d="m272.04 106.32 9.753 1.374-4.945-2.748 2.747-4.945-7.555 6.319z" style="stroke:#1a83af;stroke-width:2"/><path fill="none" d="M477.13 147.01c-57.82 16.58-140.98 40.43-200.43 57.48" style="stroke:#1a83af;stroke-width:2"/><path fill="#1A83AF" d="m272.02 206.11 9.752 1.381-4.943-2.75 2.75-4.944-7.559 6.313z" style="stroke:#1a83af;stroke-width:2"/><path fill="none" d="M582.29 146.95c26.8 14.55 62.89 36 91.21 59.63 34.75 28.99 68.43 69.48 88.18 94.87" style="stroke:#1a83af;stroke-width:2"/><path fill="#1A83AF" d="m765.2 305.02-2.337-9.568-.72 5.611-5.61-.72 8.667 4.677z" style="stroke:#1a83af;stroke-width:2"/><path fill="none" d="M259.78 246.78c108.29 37.15 344.89 118.3 457.61 156.97" style="stroke:#1a83af;stroke-width:2"/><path fill="#1A83AF" d="m722 405.67-7.225-6.693 2.493 5.078-5.078 2.493 9.81-.878z" style="stroke:#1a83af;stroke-width:2"/><path fill="none" d="M317.65 246.86c99.46 16.88 243.13 41.27 343.75 58.36" style="stroke:#1a83af;stroke-width:2"/><path fill="#1A83AF" d="m666.06 306.18-8.197-5.46 3.268 4.617-4.616 3.269 9.545-2.426z" style="stroke:#1a83af;stroke-width:2"/><path fill="none" d="M779.5 346.59v53.31" style="stroke:#1a83af;stroke-width:2"/><path fill="#1A83AF" d="m779.5 404.78 4-9-4 4-4-4 4 9z" style="stroke:#1a83af;stroke-width:2"/><path fill="none" d="M935.98 246.8c-32.45 16.27-78.86 39.54-112.71 56.52" style="stroke:#1a83af;stroke-width:2"/><path fill="#1A83AF" d="m818.95 305.99 9.838-.46-5.369-1.782 1.782-5.369-6.251 7.611z" style="stroke:#1a83af;stroke-width:2"/><path fill="none" d="M203.5 147.01v53.31" style="stroke:#1a83af;stroke-width:2"/><path fill="#1A83AF" d="m203.5 205.2 4-9-4 4-4-4 4 9z" style="stroke:#1a83af;stroke-width:2"/><path fill="none" d="M139.76 146.99C80.3 168.13 6 204.63 43.5 246.37c40.48 45.05 420.45 66.54 617.97 74.73" style="stroke:#1a83af;stroke-width:2"/><path fill="#1A83AF" d="m666.26 321.34-8.82-4.383 3.825 4.168-4.168 3.825 9.163-3.61z" style="stroke:#1a83af;stroke-width:2"/><path fill="none" d="M1293.29 245.64c-112.85 17.49-282.64 43.8-395.77 61.34" style="stroke:#1a83af;stroke-width:2"/><path fill="#1A83AF" d="m892.84 307.86 9.51 2.564-4.57-3.335 3.336-4.569-8.276 5.34z" style="stroke:#1a83af;stroke-width:2"/><path fill="none" d="M1348.85 246.78C1229.98 284 970 365.41 846.81 403.98" style="stroke:#1a83af;stroke-width:2"/><path fill="#1A83AF" d="m842.4 405.67 9.785 1.117-5.015-2.616 2.616-5.016-7.386 6.515z" style="stroke:#1a83af;stroke-width:2"/><path fill="none" d="M1082.19 146.99c33.25 24 79.19 65.88 52.31 99.38-29.5 36.78-145.44 57.5-236.9 68.38" style="stroke:#1a83af;stroke-width:2"/><path fill="#1A83AF" d="m892.89 315.42 9.406 2.92-4.44-3.505 3.504-4.44-8.47 5.025z" style="stroke:#1a83af;stroke-width:2"/><path fill="none" d="M1037.09 147.01c-12.5 15.67-30.18 37.83-43.56 54.61" style="stroke:#1a83af;stroke-width:2"/><path fill="#1A83AF" d="m989.88 205.2 8.734-4.552-5.621.64-.64-5.621-2.473 9.533z" style="stroke:#1a83af;stroke-width:2"/><path fill="none" d="M1052.5 47.22v53.31" style="stroke:#1a83af;stroke-width:2"/><path fill="#1A83AF" d="m1052.5 105.41 4-9-4 4-4-4 4 9z" style="stroke:#1a83af;stroke-width:2"/><path fill="none" d="M1125.94 47.25c30.12 11.96 61.99 30.71 79.56 59.54 26.19 42.97-31.39 131.63-41 139.58-40.13 33.22-169.37 54.88-267.14 66.96" style="stroke:#1a83af;stroke-width:2"/><path fill="#1A83AF" d="m892.55 314.03 9.424 2.863-4.462-3.478 3.478-4.461-8.44 5.076z" style="stroke:#1a83af;stroke-width:2"/><path fill="none" d="M979.93 47.21c-30.04 11.97-61.9 30.74-79.43 59.58-20.34 33.49 14.36 71.92 42.8 95.75" style="stroke:#1a83af;stroke-width:2"/><path fill="#1A83AF" d="m946.8 206.24-4.427-8.798.56 5.63-5.63.559 9.497 2.609z" style="stroke:#1a83af;stroke-width:2"/><path fill="none" d="M570.07 246.8c43.97 16.47 107.09 40.12 152.52 57.14" style="stroke:#1a83af;stroke-width:2"/><path fill="#1A83AF" d="m727.04 305.99-7.022-6.905 2.34 5.15-5.15 2.34 9.832-.585z" style="stroke:#1a83af;stroke-width:2"/></svg>