<svg xmlns="http://www.w3.org/2000/svg" xmlns:xlink="http://www.w3.org/1999/xlink" width="798" height="651" preserveAspectRatio="none" style="width:798px;height:651px"><a xlink:actuate="onRequest" xlink:href="#a" xlink:show="new" xlink:title="#aws_ecs_service" xlink:type="simple" target="_top"><rect id="a" width="177" height="39.789" x="166.86" y="406.15" fill="#3D176E" rx="2.5" ry="2.5" style="stroke:#000d19;stroke-width:.5"/><circle cx="181.86" cy="426.045" r="11" fill="#ADD1B2" style="stroke:#181818;stroke-width:1"/><path d="M184.829 431.685q-.578.297-1.219.438-.64.156-1.344.156-2.5 0-3.828-1.64-1.312-1.657-1.312-4.782t1.312-4.781q1.328-1.656 3.828-1.656.703 0 1.344.156.656.156 1.219.453v2.719q-.625-.578-1.219-.844-.594-.281-1.219-.281-1.343 0-2.031 1.078-.688 1.062-.688 3.156 0 2.094.688 3.172.688 1.062 2.031 1.062.625 0 1.219-.265.594-.281 1.219-.86v2.72Z"/><text x="200.86" y="431.93" fill="#D9B8FF" font-family="Helvetica" font-size="17" textLength="135">aws_ecs_service</text></a><a xlink:actuate="onRequest" xlink:href="#b" xlink:show="new" xlink:title="#aws_ec2_instance" xlink:type="simple" target="_top"><rect id="b" width="192" height="39.789" x="344.36" y="605.73" fill="#3D176E" rx="2.5" ry="2.5" style="stroke:#000d19;stroke-width:.5"/><circle cx="359.36" cy="625.625" r="11" fill="#ADD1B2" style="stroke:#181818;stroke-width:1"/><path d="M362.329 631.265q-.578.297-1.219.438-.64.156-1.344.156-2.5 0-3.828-1.64-1.312-1.657-1.312-4.782t1.312-4.781q1.328-1.656 3.828-1.656.703 0 1.344.156.656.156 1.219.453v2.719q-.625-.578-1.219-.844-.594-.281-1.219-.281-1.344 0-2.031 1.078-.688 1.062-.688 3.156 0 2.094.688 3.172.688 1.062 2.031 1.062.625 0 1.219-.265.594-.281 1.219-.86v2.72Z"/><text x="378.36" y="631.51" fill="#D9B8FF" font-family="Helvetica" font-size="17" textLength="150">aws_ec2_instance</text></a><a xlink:actuate="onRequest" xlink:href="#c" xlink:show="new" xlink:title="#aws_ec2_subnet" xlink:type="simple" target="_top"><rect id="c" width="179" height="39.789" x="412.86" y="306.36" fill="#3D176E" rx="2.5" ry="2.5" style="stroke:#000d19;stroke-width:.5"/><circle cx="427.86" cy="326.255" r="11" fill="#ADD1B2" style="stroke:#181818;stroke-width:1"/><path d="M430.829 331.895q-.578.297-1.219.438-.64.156-1.344.156-2.5 0-3.828-1.64-1.312-1.657-1.312-4.782t1.312-4.781q1.328-1.656 3.828-1.656.703 0 1.344.156.656.156 1.219.453v2.719q-.625-.579-1.219-.844-.594-.281-1.219-.281-1.344 0-2.031 1.078-.688 1.062-.688 3.156 0 2.094.688 3.172.688 1.062 2.031 1.062.625 0 1.219-.265.594-.281 1.219-.86v2.72Z"/><text x="446.86" y="332.14" fill="#D9B8FF" font-family="Helvetica" font-size="17" textLength="137">aws_ec2_subnet</text></a><a xlink:actuate="onRequest" xlink:href="#d" xlink:show="new" xlink:title="#aws_elb" xlink:type="simple" target="_top"><rect id="d" width="109" height="39.789" x="385.86" y="505.94" fill="#3D176E" rx="2.5" ry="2.5" style="stroke:#000d19;stroke-width:.5"/><circle cx="400.86" cy="525.835" r="11" fill="#ADD1B2" style="stroke:#181818;stroke-width:1"/><path d="M403.829 531.475q-.578.297-1.219.438-.64.156-1.344.156-2.5 0-3.828-1.64-1.312-1.657-1.312-4.782t1.312-4.781q1.328-1.656 3.828-1.656.703 0 1.344.156.656.156 1.219.453v2.719q-.625-.578-1.219-.844-.594-.281-1.219-.281-1.344 0-2.031 1.078-.688 1.062-.688 3.156 0 2.094.688 3.172.688 1.062 2.031 1.062.625 0 1.219-.265.594-.281 1.219-.86v2.72Z"/><text x="419.86" y="531.72" fill="#D9B8FF" font-family="Helvetica" font-size="17" textLength="67">aws_elb</text></a><a xlink:actuate="onRequest" xlink:href="#e" xlink:show="new" xlink:title="#aws_service_quota" xlink:type="simple" target="_top"><rect id="e" width="199" height="39.789" x="396.86" y="106.79" fill="#3D176E" rx="2.5" ry="2.5" style="stroke:#000d19;stroke-width:.5"/><circle cx="411.86" cy="126.684" r="11" fill="#ADD1B2" style="stroke:#181818;stroke-width:1"/><path d="M414.829 132.325q-.578.297-1.219.438-.64.156-1.344.156-2.5 0-3.828-1.64-1.312-1.657-1.312-4.782t1.312-4.781q1.328-1.656 3.828-1.656.703 0 1.344.156.656.156 1.219.453v2.719q-.625-.579-1.219-.844-.594-.281-1.219-.281-1.344 0-2.031 1.078-.688 1.062-.688 3.156 0 2.094.688 3.172.688 1.062 2.031 1.062.625 0 1.219-.265.594-.281 1.219-.86v2.72Z"/><text x="430.86" y="132.57" fill="#D9B8FF" font-family="Helvetica" font-size="17" textLength="157">aws_service_quota</text></a><a xlink:actuate="onRequest" xlink:href="#f" xlink:show="new" xlink:title="#aws_vpc" xlink:type="simple" target="_top"><rect id="f" width="112" height="39.789" x="293.36" y="206.57" fill="#3D176E" rx="2.5" ry="2.5" style="stroke:#000d19;stroke-width:.5"/><circle cx="308.36" cy="226.464" r="11" fill="#ADD1B2" style="stroke:#181818;stroke-width:1"/><path d="M311.329 232.105q-.578.297-1.219.438-.64.156-1.344.156-2.5 0-3.828-1.64-1.312-1.657-1.312-4.782t1.312-4.781q1.328-1.657 3.828-1.657.703 0 1.344.157.656.156 1.219.453v2.719q-.625-.579-1.219-.844-.594-.281-1.219-.281-1.344 0-2.031 1.078-.688 1.062-.688 3.156 0 2.094.688 3.172.688 1.062 2.031 1.062.625 0 1.219-.265.594-.282 1.219-.86v2.72Z"/><text x="327.36" y="232.35" fill="#D9B8FF" font-family="Helvetica" font-size="17" textLength="70">aws_vpc</text></a><a xlink:actuate="onRequest" xlink:href="#g" xlink:show="new" xlink:title="#aws_ec2_security_group" xlink:type="simple" target="_top"><rect id="g" width="245" height="39.789" x="61.86" y="306.36" fill="#3D176E" rx="2.5" ry="2.5" style="stroke:#000d19;stroke-width:.5"/><circle cx="76.86" cy="326.255" r="11" fill="#ADD1B2" style="stroke:#181818;stroke-width:1"/><path d="M79.829 331.895q-.578.297-1.219.438-.64.156-1.344.156-2.5 0-3.828-1.64-1.312-1.657-1.312-4.782t1.312-4.781q1.328-1.656 3.828-1.656.703 0 1.344.156.656.156 1.219.453v2.719q-.625-.579-1.219-.844-.594-.281-1.219-.281-1.344 0-2.031 1.078-.688 1.062-.688 3.156 0 2.094.688 3.172.688 1.062 2.031 1.062.625 0 1.219-.265.594-.281 1.219-.86v2.72Z"/><text x="95.86" y="332.14" fill="#D9B8FF" font-family="Helvetica" font-size="17" textLength="203">aws_ec2_security_group</text></a><a xlink:actuate="onRequest" xlink:href="#h" xlink:show="new" xlink:title="#aws_region" xlink:type="simple" target="_top"><rect id="h" width="137" height="39.789" x="503.86" y="7" fill="#3D176E" rx="2.5" ry="2.5" style="stroke:#000d19;stroke-width:.5"/><circle cx="518.86" cy="26.895" r="11" fill="#ADD1B2" style="stroke:#181818;stroke-width:1"/><path d="M521.829 32.535q-.578.297-1.219.438-.64.156-1.344.156-2.5 0-3.828-1.64-1.312-1.657-1.312-4.782t1.312-4.781q1.328-1.656 3.828-1.656.703 0 1.344.156.656.156 1.219.453v2.719q-.625-.578-1.219-.844-.594-.281-1.219-.281-1.343 0-2.031 1.078-.688 1.062-.688 3.156 0 2.094.688 3.172.688 1.062 2.031 1.062.625 0 1.219-.265.594-.281 1.219-.86v2.72Z"/><text x="537.86" y="32.78" fill="#D9B8FF" font-family="Helvetica" font-size="17" textLength="95">aws_region</text></a><path fill="none" d="M291.91 446.37c30.79 16.27 74.82 39.54 106.93 56.52" style="stroke:#1a83af;stroke-width:2"/><path fill="#1A83AF" d="m402.89 505.56-6.085-7.744 1.665 5.406-5.406 1.665 9.826.673z" style="stroke:#1a83af;stroke-width:2"/><path fill="none" d="M496.3 346.56c-11.29 36-35.56 113.35-48.09 153.28" style="stroke:#1a83af;stroke-width:2"/><path fill="#1A83AF" d="m446.44 504.45 6.515-7.386-5.015 2.616-2.617-5.015 1.117 9.785z" style="stroke:#1a83af;stroke-width:2"/><path fill="none" d="M453.56 346.58c-41.52 16.44-101.1 40.03-144.08 57.04" style="stroke:#1a83af;stroke-width:2"/><path fill="#1A83AF" d="m305.06 405.77 9.84.424-5.188-2.256 2.256-5.188-6.908 7.02z" style="stroke:#1a83af;stroke-width:2"/><path fill="none" d="M440.36 546.16v53.31" style="stroke:#1a83af;stroke-width:2"/><path fill="#1A83AF" d="m440.36 604.35 4-9-4 4-4-4 4 9z" style="stroke:#1a83af;stroke-width:2"/><path fill="none" d="M467.32 147c-24.16 16.07-58.59 38.97-84.02 55.89" style="stroke:#1a83af;stroke-width:2"/><path fill="#1A83AF" d="m379.34 206.19 9.71-1.649-5.545-1.118 1.118-5.545-5.283 8.312z" style="stroke:#1a83af;stroke-width:2"/><path fill="none" d="M519.06 146.95c41.08 37.34 120.78 122.63 90.3 199.2-27.34 68.71-95.04 126.23-135.97 156.26" style="stroke:#1a83af;stroke-width:2"/><path fill="#1A83AF" d="m470.02 505.58 9.63-2.063-5.588-.88.88-5.588-4.922 8.531z" style="stroke:#1a83af;stroke-width:2"/><path fill="none" d="M292.94 226.9C194.66 228.54 6 244.64 44.36 346.15c53.66 141.98 228.67 222.22 327.12 257.18" style="stroke:#1a83af;stroke-width:2"/><path fill="#1A83AF" d="m375.98 605.26-7.164-6.758 2.447 5.1-5.1 2.447 9.817-.789z" style="stroke:#1a83af;stroke-width:2"/><path fill="none" d="M379.59 246.79c25.25 16.14 61.28 39.16 87.78 56.1" style="stroke:#1a83af;stroke-width:2"/><path fill="#1A83AF" d="m471.2 305.98-5.42-8.223 1.21 5.526-5.526 1.21 9.736 1.487z" style="stroke:#1a83af;stroke-width:2"/><path fill="none" d="M355.19 246.52c15.86 51.81 59.74 195.22 77.53 253.36" style="stroke:#1a83af;stroke-width:2"/><path fill="#1A83AF" d="m434.46 504.56 1.17-9.78-2.643 5.002-5.002-2.644 6.475 7.422z" style="stroke:#1a83af;stroke-width:2"/><path fill="none" d="M316.76 246.79c-27.34 16.21-66.4 39.36-95.01 56.31" style="stroke:#1a83af;stroke-width:2"/><path fill="#1A83AF" d="m217.89 305.98 9.78-1.162-5.482-1.394 1.393-5.482-5.691 8.038z" style="stroke:#1a83af;stroke-width:2"/><path fill="none" d="M198.39 346.58c11.38 15.67 27.47 37.83 39.65 54.61" style="stroke:#1a83af;stroke-width:2"/><path fill="#1A83AF" d="m241.36 404.77-2.063-9.63-.88 5.588-5.588-.88 8.531 4.922z" style="stroke:#1a83af;stroke-width:2"/><path fill="none" d="M169.21 346.42c-17.95 25.17-42.69 69.66-19.85 99.52 27.82 36.37 153.51 59.87 230.32 71.11" style="stroke:#1a83af;stroke-width:2"/><path fill="#1A83AF" d="m384.58 517.91-8.335-5.246 3.386 4.53-4.53 3.388 9.479-2.672z" style="stroke:#1a83af;stroke-width:2"/><path fill="none" d="M503.38 39.86c-41.59 10.7-92.45 30.58-124.02 66.93-22.8 26.25-28.71 67.43-30.01 93.73" style="stroke:#1a83af;stroke-width:2"/><path fill="#1A83AF" d="m349.13 205.22 4.356-8.833-4.156 3.837-3.837-4.157 3.637 9.153z" style="stroke:#1a83af;stroke-width:2"/><path fill="none" d="M586.58 47.01c15.53 23.28 36.95 63.93 26.78 99.56-17.52 61.43-62.91 122.32-89.91 154.74" style="stroke:#1a83af;stroke-width:2"/><path fill="#1A83AF" d="m519.6 304.89 8.86-4.302-5.637.48-.479-5.637-2.744 9.459z" style="stroke:#1a83af;stroke-width:2"/><path fill="none" d="M600.9 47.27c43.01 31.77 119.46 99.34 119.46 178.2v101.79c0 106.68-137.37 160.85-219.67 183.73" style="stroke:#1a83af;stroke-width:2"/><path fill="#1A83AF" d="m496.35 512.45 9.735 1.496-4.91-2.81 2.808-4.91-7.633 6.224z" style="stroke:#1a83af;stroke-width:2"/><path fill="none" d="M503.48 41.66c-46.25 11.72-106.79 32.04-152.12 65.13-73.74 53.82-130.5 149.14-154.5 193.92" style="stroke:#1a83af;stroke-width:2"/><path fill="#1A83AF" d="m194.1 304.92 7.752-6.075-5.408 1.658-1.658-5.408-.686 9.825z" style="stroke:#1a83af;stroke-width:2"/><path fill="none" d="M622.88 47.19c64.68 28.4 168.48 88.03 168.48 178.28v201.58c0 115.13-145.17 163.89-248.79 184.03" style="stroke:#1a83af;stroke-width:2"/><path fill="#1A83AF" d="m537.74 612.2 9.592 2.232-4.682-3.174 3.175-4.682-8.085 5.624z" style="stroke:#1a83af;stroke-width:2"/><path fill="none" d="M557.35 47.21c-12.18 15.67-29.41 37.83-42.44 54.61" style="stroke:#1a83af;stroke-width:2"/><path fill="#1A83AF" d="m511.35 105.4 8.678-4.657-5.612.707-.708-5.612-2.358 9.562z" style="stroke:#1a83af;stroke-width:2"/></svg>