<svg xmlns="http://www.w3.org/2000/svg" xmlns:xlink="http://www.w3.org/1999/xlink" width="866" height="706" preserveAspectRatio="none" style="width:866px;height:706px"><a xlink:actuate="onRequest" xlink:href="#a" xlink:show="new" xlink:title="#gcp_resource" xlink:type="simple" target="_top"><rect id="a" width="198" height="100.383" x="367" y="7" fill="#3D176E" rx="2.5" ry="2.5" style="stroke:#000d19;stroke-width:.5"/><circle cx="403.6" cy="26.895" r="11" fill="#ADD1B2" style="stroke:#181818;stroke-width:1"/><path d="M406.569 32.535q-.578.297-1.219.438-.64.156-1.344.156-2.5 0-3.828-1.64-1.312-1.657-1.312-4.782t1.312-4.781q1.328-1.656 3.828-1.656.703 0 1.344.156.656.156 1.219.453v2.719q-.625-.578-1.219-.844-.594-.281-1.219-.281-1.343 0-2.031 1.078-.688 1.062-.688 3.156 0 2.094.688 3.172.688 1.062 2.031 1.062.625 0 1.219-.265.594-.281 1.219-.86v2.72Z"/><text x="427.4" y="32.78" fill="#D9B8FF" font-family="Helvetica" font-size="17" textLength="108">gcp_resource</text><path d="M368 46.789h196" style="stroke:#000d19;stroke-width:.5"/><text x="378" y="68.784" fill="#D9B8FF" font-family="sans-serif" font-size="14" font-weight="bold" textLength="27">link</text><text x="405" y="68.784" fill="#D9B8FF" font-family="sans-serif" font-size="14" textLength="48">: string</text><text x="378" y="95.081" fill="#D9B8FF" font-family="sans-serif" font-size="14" font-weight="bold" textLength="128">label_fingerprint</text><text x="506" y="95.081" fill="#D9B8FF" font-family="sans-serif" font-size="14" textLength="48">: string</text></a><a xlink:actuate="onRequest" xlink:href="#b" xlink:show="new" xlink:title="#gcp_accelerator_config" xlink:type="simple" target="_top"><rect id="b" width="230" height="100.383" x="7" y="585.99" fill="#3D176E" rx="2.5" ry="2.5" style="stroke:#000d19;stroke-width:.5"/><circle cx="22" cy="605.885" r="11" fill="#ADD1B2" style="stroke:#181818;stroke-width:1"/><path d="M24.969 611.525q-.578.297-1.219.438-.64.156-1.344.156-2.5 0-3.828-1.64-1.312-1.657-1.312-4.782t1.312-4.781q1.328-1.657 3.828-1.657.703 0 1.344.157.656.156 1.219.453v2.719q-.625-.578-1.219-.844-.594-.281-1.219-.281-1.343 0-2.031 1.078-.688 1.062-.688 3.156 0 2.094.688 3.172.688 1.062 2.031 1.062.625 0 1.219-.265.594-.282 1.219-.86v2.72Z"/><text x="41" y="611.77" fill="#D9B8FF" font-family="Helvetica" font-size="17" textLength="188">gcp_accelerator_config</text><path d="M8 625.779h228" style="stroke:#000d19;stroke-width:.5"/><text x="18" y="647.774" fill="#D9B8FF" font-family="sans-serif" font-size="14" font-weight="bold" textLength="142">accelerator_count</text><text x="160" y="647.774" fill="#D9B8FF" font-family="sans-serif" font-size="14" textLength="44">: int64</text><text x="18" y="674.071" fill="#D9B8FF" font-family="sans-serif" font-size="14" font-weight="bold" textLength="132">accelerator_type</text><text x="150" y="674.071" fill="#D9B8FF" font-family="sans-serif" font-size="14" textLength="48">: string</text></a><a xlink:actuate="onRequest" xlink:href="#c" xlink:show="new" xlink:title="#gcp_node_template_node_type_flexibility" xlink:type="simple" target="_top"><rect id="c" width="388" height="126.68" x="272" y="572.84" fill="#3D176E" rx="2.5" ry="2.5" style="stroke:#000d19;stroke-width:.5"/><circle cx="287" cy="592.735" r="11" fill="#ADD1B2" style="stroke:#181818;stroke-width:1"/><path d="M289.969 598.375q-.578.297-1.219.438-.64.156-1.344.156-2.5 0-3.828-1.64-1.312-1.657-1.312-4.782t1.312-4.781q1.328-1.656 3.828-1.656.703 0 1.344.156.656.156 1.219.453v2.719q-.625-.578-1.219-.844-.594-.281-1.219-.281-1.344 0-2.031 1.078-.688 1.062-.688 3.156 0 2.094.688 3.172.688 1.062 2.031 1.062.625 0 1.219-.265.594-.281 1.219-.86v2.72Z"/><text x="306" y="598.62" fill="#D9B8FF" font-family="Helvetica" font-size="17" textLength="346">gcp_node_template_node_type_flexibility</text><path d="M273 612.629h386" style="stroke:#000d19;stroke-width:.5"/><text x="283" y="634.624" fill="#D9B8FF" font-family="sans-serif" font-size="14" font-weight="bold" textLength="38">cpus</text><text x="321" y="634.624" fill="#D9B8FF" font-family="sans-serif" font-size="14" textLength="48">: string</text><text x="283" y="660.921" fill="#D9B8FF" font-family="sans-serif" font-size="14" font-weight="bold" textLength="71">local_ssd</text><text x="354" y="660.921" fill="#D9B8FF" font-family="sans-serif" font-size="14" textLength="48">: string</text><text x="283" y="687.218" fill="#D9B8FF" font-family="sans-serif" font-size="14" font-weight="bold" textLength="64">memory</text><text x="347" y="687.218" fill="#D9B8FF" font-family="sans-serif" font-size="14" textLength="48">: string</text></a><a xlink:actuate="onRequest" xlink:href="#d" xlink:show="new" xlink:title="#gcp_local_disk" xlink:type="simple" target="_top"><rect id="d" width="164" height="126.68" x="695" y="572.84" fill="#3D176E" rx="2.5" ry="2.5" style="stroke:#000d19;stroke-width:.5"/><circle cx="712.25" cy="592.735" r="11" fill="#ADD1B2" style="stroke:#181818;stroke-width:1"/><path d="M715.219 598.375q-.578.297-1.219.438-.64.156-1.344.156-2.5 0-3.828-1.64-1.312-1.657-1.312-4.782t1.312-4.781q1.328-1.656 3.828-1.656.703 0 1.344.156.656.156 1.219.453v2.719q-.625-.578-1.219-.844-.594-.281-1.219-.281-1.343 0-2.031 1.078-.688 1.062-.688 3.156 0 2.094.688 3.172.688 1.062 2.031 1.062.625 0 1.219-.265.594-.281 1.219-.86v2.72Z"/><text x="731.75" y="598.62" fill="#D9B8FF" font-family="Helvetica" font-size="17" textLength="117">gcp_local_disk</text><path d="M696 612.629h162" style="stroke:#000d19;stroke-width:.5"/><text x="706" y="634.624" fill="#D9B8FF" font-family="sans-serif" font-size="14" font-weight="bold" textLength="84">disk_count</text><text x="790" y="634.624" fill="#D9B8FF" font-family="sans-serif" font-size="14" textLength="44">: int64</text><text x="706" y="660.921" fill="#D9B8FF" font-family="sans-serif" font-size="14" font-weight="bold" textLength="98">disk_size_gb</text><text x="804" y="660.921" fill="#D9B8FF" font-family="sans-serif" font-size="14" textLength="44">: int64</text><text x="706" y="687.218" fill="#D9B8FF" font-family="sans-serif" font-size="14" font-weight="bold" textLength="74">disk_type</text><text x="780" y="687.218" fill="#D9B8FF" font-family="sans-serif" font-size="14" textLength="48">: string</text></a><a xlink:actuate="onRequest" xlink:href="#e" xlink:show="new" xlink:title="#gcp_node_template" xlink:type="simple" target="_top"><rect id="e" width="470" height="284.461" x="231" y="228.38" fill="#3D176E" rx="2.5" ry="2.5" style="stroke:#000d19;stroke-width:.5"/><circle cx="375.25" cy="248.274" r="11" fill="#ADD1B2" style="stroke:#181818;stroke-width:1"/><path d="M378.219 253.915q-.578.297-1.219.438-.64.156-1.344.156-2.5 0-3.828-1.64-1.312-1.657-1.312-4.782t1.312-4.781q1.328-1.657 3.828-1.657.703 0 1.344.157.656.156 1.219.453v2.719q-.625-.579-1.219-.844-.594-.281-1.219-.281-1.344 0-2.031 1.078-.688 1.062-.688 3.156 0 2.094.688 3.172.688 1.062 2.031 1.062.625 0 1.219-.265.594-.282 1.219-.86v2.72Z"/><text x="400.75" y="254.16" fill="#D9B8FF" font-family="Helvetica" font-size="17" textLength="163">gcp_node_template</text><path d="M232 268.169h468" style="stroke:#000d19;stroke-width:.5"/><text x="242" y="290.164" fill="#D9B8FF" font-family="sans-serif" font-size="14" font-weight="bold" textLength="151">guest_accelerators</text><text x="393" y="290.164" fill="#D9B8FF" font-family="sans-serif" font-size="14" textLength="178">: gcp_accelerator_config[]</text><text x="242" y="316.461" fill="#D9B8FF" font-family="sans-serif" font-size="14" font-weight="bold" textLength="171">cpu_overcommit_type</text><text x="413" y="316.461" fill="#D9B8FF" font-family="sans-serif" font-size="14" textLength="48">: string</text><text x="242" y="342.758" fill="#D9B8FF" font-family="sans-serif" font-size="14" font-weight="bold" textLength="84">local_disks</text><text x="326" y="342.758" fill="#D9B8FF" font-family="sans-serif" font-size="14" textLength="118">: gcp_local_disk[]</text><text x="242" y="369.055" fill="#D9B8FF" font-family="sans-serif" font-size="14" font-weight="bold" textLength="154">node_affinity_labels</text><text x="396" y="369.055" fill="#D9B8FF" font-family="sans-serif" font-size="14" textLength="171">: dictionary[string, string]</text><text x="242" y="395.352" fill="#D9B8FF" font-family="sans-serif" font-size="14" font-weight="bold" textLength="82">node_type</text><text x="324" y="395.352" fill="#D9B8FF" font-family="sans-serif" font-size="14" textLength="48">: string</text><text x="242" y="421.649" fill="#D9B8FF" font-family="sans-serif" font-size="14" font-weight="bold" textLength="159">node_type_flexibility</text><text x="401" y="421.649" fill="#D9B8FF" font-family="sans-serif" font-size="14" textLength="289">: gcp_node_template_node_type_flexibility</text><text x="242" y="447.945" fill="#D9B8FF" font-family="sans-serif" font-size="14" font-weight="bold" textLength="117">server_binding</text><text x="359" y="447.945" fill="#D9B8FF" font-family="sans-serif" font-size="14" textLength="48">: string</text><text x="242" y="474.242" fill="#D9B8FF" font-family="sans-serif" font-size="14" font-weight="bold" textLength="49">status</text><text x="291" y="474.242" fill="#D9B8FF" font-family="sans-serif" font-size="14" textLength="48">: string</text><text x="242" y="500.539" fill="#D9B8FF" font-family="sans-serif" font-size="14" font-weight="bold" textLength="127">status_message</text><text x="369" y="500.539" fill="#D9B8FF" font-family="sans-serif" font-size="14" textLength="48">: string</text></a><path fill="none" d="M466 128.68v99.29m-7-99.09 7-20 7 20h-14zM281.16 513.23c-32.06 24.56-63.51 48.67-89.89 68.87" style="stroke:#ffaf37;stroke-width:2"/><path fill="#FFAF37" d="m187.75 585.57 9.577-2.299-5.608-.742.742-5.608-4.711 8.649z" style="stroke:#ffaf37;stroke-width:2"/><path fill="none" d="M632.88 513.04c22.91 19.41 45.48 38.55 65.73 55.7" style="stroke:#ffaf37;stroke-width:2"/><path fill="#FFAF37" d="m702.16 572.6-4.266-8.877.457 5.638-5.639.457 9.448 2.782z" style="stroke:#ffaf37;stroke-width:2"/><path fill="none" d="M466 513.04v53.97" style="stroke:#ffaf37;stroke-width:2"/><path fill="#FFAF37" d="m466 571.6 4-9-4 4-4-4 4 9z" style="stroke:#ffaf37;stroke-width:2"/></svg>