<svg xmlns="http://www.w3.org/2000/svg" width="2660" height="2003" viewBox="0 0 2660 2003"><rect width="216" height="74.086" x="7" y="1669.77" fill="#3D176E" rx="2.5" ry="2.5" style="stroke:#000d19;stroke-width:.5"/><circle cx="22.45" cy="1689.665" r="11" fill="#ADD1B2" style="stroke:#181818;stroke-width:1"/><path d="M25.419 1695.305q-.578.297-1.219.438-.64.156-1.344.156-2.5 0-3.828-1.64-1.312-1.657-1.312-4.782t1.312-4.781q1.328-1.656 3.828-1.656.703 0 1.344.156.656.156 1.219.453v2.719q-.625-.578-1.219-.844-.594-.281-1.219-.281-1.344 0-2.031 1.078-.688 1.062-.688 3.156 0 2.094.688 3.172.688 1.062 2.031 1.062.625 0 1.219-.265.594-.281 1.219-.86z"/><text x="41.55" y="1695.55" fill="#D9B8FF" font-family="Helvetica" font-size="17" textLength="173">azure_address_space</text><path d="M8 1709.559h214" style="stroke:#000d19;stroke-width:.5"/><text x="18" y="1731.554" fill="#D9B8FF" font-family="sans-serif" font-size="14" font-weight="bold" textLength="136">address_prefixes</text><text x="154" y="1731.554" fill="#D9B8FF" font-family="sans-serif" font-size="14" textLength="58">: string[]</text><rect width="206" height="74.086" x="191" y="1312.16" fill="#3D176E" rx="2.5" ry="2.5" style="stroke:#000d19;stroke-width:.5"/><circle cx="206" cy="1332.054" r="11" fill="#ADD1B2" style="stroke:#181818;stroke-width:1"/><path d="M208.969 1337.695q-.578.297-1.219.438-.64.156-1.344.156-2.5 0-3.828-1.64-1.312-1.657-1.312-4.782t1.312-4.781q1.328-1.657 3.828-1.657.703 0 1.344.157.656.156 1.219.453v2.719q-.625-.579-1.219-.844-.594-.281-1.219-.281-1.344 0-2.031 1.078-.688 1.062-.688 3.156 0 2.094.688 3.172.688 1.062 2.031 1.062.625 0 1.219-.265.594-.282 1.219-.86z"/><text x="225" y="1337.94" fill="#D9B8FF" font-family="Helvetica" font-size="17" textLength="164">azure_dhcp_options</text><path d="M192 1351.949h204" style="stroke:#000d19;stroke-width:.5"/><text x="202" y="1373.944" fill="#D9B8FF" font-family="sans-serif" font-size="14" font-weight="bold" textLength="97">dns_servers</text><text x="299" y="1373.944" fill="#D9B8FF" font-family="sans-serif" font-size="14" textLength="58">: string[]</text><rect width="250" height="100.383" x="432" y="1299.01" fill="#3D176E" rx="2.5" ry="2.5" style="stroke:#000d19;stroke-width:.5"/><circle cx="447" cy="1318.905" r="11" fill="#ADD1B2" style="stroke:#181818;stroke-width:1"/><path d="M449.969 1324.545q-.578.297-1.219.438-.64.156-1.344.156-2.5 0-3.828-1.64-1.312-1.657-1.312-4.782t1.312-4.781q1.328-1.656 3.828-1.656.703 0 1.344.156.656.156 1.219.453v2.719q-.625-.578-1.219-.844-.594-.281-1.219-.281-1.344 0-2.031 1.078-.688 1.062-.688 3.156 0 2.094.688 3.172.688 1.062 2.031 1.062.625 0 1.219-.265.594-.281 1.219-.86z"/><text x="466" y="1324.79" fill="#D9B8FF" font-family="Helvetica" font-size="17" textLength="208">azure_extended_location</text><path d="M433 1338.799h248" style="stroke:#000d19;stroke-width:.5"/><text x="443" y="1360.794" fill="#D9B8FF" font-family="sans-serif" font-size="14" font-weight="bold" textLength="43">name</text><text x="486" y="1360.794" fill="#D9B8FF" font-family="sans-serif" font-size="14" textLength="48">: string</text><text x="443" y="1387.091" fill="#D9B8FF" font-family="sans-serif" font-size="14" font-weight="bold" textLength="35">type</text><text x="478" y="1387.091" fill="#D9B8FF" font-family="sans-serif" font-size="14" textLength="48">: string</text><rect width="480" height="415.945" x="1424" y="1141.23" fill="#3D176E" rx="2.5" ry="2.5" style="stroke:#000d19;stroke-width:.5"/><circle cx="1592.25" cy="1161.124" r="11" fill="#ADD1B2" style="stroke:#181818;stroke-width:1"/><path d="M1595.219 1166.765q-.578.297-1.219.438-.64.156-1.344.156-2.5 0-3.828-1.64-1.312-1.657-1.312-4.782t1.312-4.781q1.328-1.657 3.828-1.657.703 0 1.344.157.656.156 1.219.453v2.719q-.625-.579-1.219-.844-.594-.281-1.219-.281-1.343 0-2.031 1.078-.688 1.062-.688 3.156 0 2.094.688 3.172.688 1.062 2.031 1.062.625 0 1.219-.265.594-.282 1.219-.86z"/><text x="1617.75" y="1167.01" fill="#D9B8FF" font-family="Helvetica" font-size="17" textLength="125">azure_flow_log</text><path d="M1425 1181.019h478" style="stroke:#000d19;stroke-width:.5"/><text x="1435" y="1203.014" fill="#D9B8FF" font-family="sans-serif" font-size="14" font-weight="bold" textLength="63">enabled</text><text x="1498" y="1203.014" fill="#D9B8FF" font-family="sans-serif" font-size="14" textLength="65">: boolean</text><text x="1435" y="1229.311" fill="#D9B8FF" font-family="sans-serif" font-size="14" font-weight="bold" textLength="35">etag</text><text x="1470" y="1229.311" fill="#D9B8FF" font-family="sans-serif" font-size="14" textLength="48">: string</text><text x="1435" y="1255.608" fill="#D9B8FF" font-family="sans-serif" font-size="14" font-weight="bold" textLength="222">flow_analytics_configuration</text><text x="1657" y="1255.608" fill="#D9B8FF" font-family="sans-serif" font-size="14" textLength="236">: azure_traffic_analytics_properties</text><text x="1435" y="1281.905" fill="#D9B8FF" font-family="sans-serif" font-size="14" font-weight="bold" textLength="52">format</text><text x="1487" y="1281.905" fill="#D9B8FF" font-family="sans-serif" font-size="14" textLength="247">: azure_flow_log_format_parameters</text><text x="1435" y="1308.202" fill="#D9B8FF" font-family="sans-serif" font-size="14" font-weight="bold" textLength="14">id</text><text x="1449" y="1308.202" fill="#D9B8FF" font-family="sans-serif" font-size="14" textLength="48">: string</text><text x="1435" y="1334.499" fill="#D9B8FF" font-family="sans-serif" font-size="14" font-weight="bold" textLength="62">location</text><text x="1497" y="1334.499" fill="#D9B8FF" font-family="sans-serif" font-size="14" textLength="48">: string</text><text x="1435" y="1360.795" fill="#D9B8FF" font-family="sans-serif" font-size="14" font-weight="bold" textLength="43">name</text><text x="1478" y="1360.795" fill="#D9B8FF" font-family="sans-serif" font-size="14" textLength="48">: string</text><text x="1435" y="1387.092" fill="#D9B8FF" font-family="sans-serif" font-size="14" font-weight="bold" textLength="144">provisioning_state</text><text x="1579" y="1387.092" fill="#D9B8FF" font-family="sans-serif" font-size="14" textLength="48">: string</text><text x="1435" y="1413.389" fill="#D9B8FF" font-family="sans-serif" font-size="14" font-weight="bold" textLength="126">retention_policy</text><text x="1561" y="1413.389" fill="#D9B8FF" font-family="sans-serif" font-size="14" textLength="250">: azure_retention_policy_parameters</text><text x="1435" y="1439.686" fill="#D9B8FF" font-family="sans-serif" font-size="14" font-weight="bold" textLength="82">storage_id</text><text x="1517" y="1439.686" fill="#D9B8FF" font-family="sans-serif" font-size="14" textLength="48">: string</text><text x="1435" y="1465.983" fill="#D9B8FF" font-family="sans-serif" font-size="14" font-weight="bold" textLength="34">tags</text><text x="1469" y="1465.983" fill="#D9B8FF" font-family="sans-serif" font-size="14" textLength="171">: dictionary[string, string]</text><text x="1435" y="1492.28" fill="#D9B8FF" font-family="sans-serif" font-size="14" font-weight="bold" textLength="168">target_resource_guid</text><text x="1603" y="1492.28" fill="#D9B8FF" font-family="sans-serif" font-size="14" textLength="48">: string</text><text x="1435" y="1518.577" fill="#D9B8FF" font-family="sans-serif" font-size="14" font-weight="bold" textLength="148">target_resource_id</text><text x="1583" y="1518.577" fill="#D9B8FF" font-family="sans-serif" font-size="14" textLength="48">: string</text><text x="1435" y="1544.874" fill="#D9B8FF" font-family="sans-serif" font-size="14" font-weight="bold" textLength="35">type</text><text x="1470" y="1544.874" fill="#D9B8FF" font-family="sans-serif" font-size="14" textLength="48">: string</text><rect width="338" height="100.383" x="1185" y="1656.62" fill="#3D176E" rx="2.5" ry="2.5" style="stroke:#000d19;stroke-width:.5"/><circle cx="1200" cy="1676.514" r="11" fill="#ADD1B2" style="stroke:#181818;stroke-width:1"/><path d="M1202.969 1682.155q-.578.297-1.219.438-.64.156-1.344.156-2.5 0-3.828-1.64-1.312-1.657-1.312-4.782t1.312-4.781q1.328-1.657 3.828-1.657.703 0 1.344.157.656.156 1.219.453v2.719q-.625-.579-1.219-.844-.594-.281-1.219-.281-1.343 0-2.031 1.078-.688 1.062-.688 3.156 0 2.094.688 3.172.688 1.062 2.031 1.062.625 0 1.219-.265.594-.282 1.219-.86z"/><text x="1219" y="1682.4" fill="#D9B8FF" font-family="Helvetica" font-size="17" textLength="296">azure_flow_log_format_parameters</text><path d="M1186 1696.409h336" style="stroke:#000d19;stroke-width:.5"/><text x="1196" y="1718.404" fill="#D9B8FF" font-family="sans-serif" font-size="14" font-weight="bold" textLength="35">type</text><text x="1231" y="1718.404" fill="#D9B8FF" font-family="sans-serif" font-size="14" textLength="48">: string</text><text x="1196" y="1744.701" fill="#D9B8FF" font-family="sans-serif" font-size="14" font-weight="bold" textLength="59">version</text><text x="1255" y="1744.701" fill="#D9B8FF" font-family="sans-serif" font-size="14" textLength="44">: int64</text><rect width="168" height="39.789" x="386" y="438.76" fill="#3D176E" rx="2.5" ry="2.5" style="stroke:#000d19;stroke-width:.5"/><circle cx="401" cy="458.654" r="11" fill="#ADD1B2" style="stroke:#181818;stroke-width:1"/><path d="M403.969 464.295q-.578.297-1.219.438-.64.156-1.344.156-2.5 0-3.828-1.64-1.312-1.657-1.312-4.782t1.312-4.781q1.328-1.656 3.828-1.656.703 0 1.344.156.656.156 1.219.453v2.719q-.625-.579-1.219-.844-.594-.281-1.219-.281-1.344 0-2.031 1.078-.688 1.062-.688 3.156 0 2.094.688 3.172.688 1.062 2.031 1.062.625 0 1.219-.265.594-.281 1.219-.86v2.72Z"/><text x="420" y="464.54" fill="#D9B8FF" font-family="Helvetica" font-size="17" textLength="126">azure_resource</text><rect width="337" height="100.383" x="1558.5" y="1656.62" fill="#3D176E" rx="2.5" ry="2.5" style="stroke:#000d19;stroke-width:.5"/><circle cx="1573.5" cy="1676.514" r="11" fill="#ADD1B2" style="stroke:#181818;stroke-width:1"/><path d="M1576.469 1682.155q-.578.297-1.219.438-.64.156-1.344.156-2.5 0-3.828-1.64-1.312-1.657-1.312-4.782t1.312-4.781q1.328-1.657 3.828-1.657.703 0 1.344.157.656.156 1.219.453v2.719q-.625-.579-1.219-.844-.594-.281-1.219-.281-1.343 0-2.031 1.078-.688 1.062-.688 3.156 0 2.094.688 3.172.688 1.062 2.031 1.062.625 0 1.219-.265.594-.282 1.219-.86z"/><text x="1592.5" y="1682.4" fill="#D9B8FF" font-family="Helvetica" font-size="17" textLength="295">azure_retention_policy_parameters</text><path d="M1559.5 1696.409h335" style="stroke:#000d19;stroke-width:.5"/><text x="1569.5" y="1718.404" fill="#D9B8FF" font-family="sans-serif" font-size="14" font-weight="bold" textLength="37">days</text><text x="1606.5" y="1718.404" fill="#D9B8FF" font-family="sans-serif" font-size="14" textLength="44">: int64</text><text x="1569.5" y="1744.701" fill="#D9B8FF" font-family="sans-serif" font-size="14" font-weight="bold" textLength="63">enabled</text><text x="1632.5" y="1744.701" fill="#D9B8FF" font-family="sans-serif" font-size="14" textLength="65">: boolean</text><rect width="442" height="179.273" x="2071" y="1817.01" fill="#3D176E" rx="2.5" ry="2.5" style="stroke:#000d19;stroke-width:.5"/><circle cx="2086" cy="1836.905" r="11" fill="#ADD1B2" style="stroke:#181818;stroke-width:1"/><path d="M2088.969 1842.545q-.578.297-1.219.438-.64.156-1.344.156-2.5 0-3.828-1.64-1.312-1.657-1.312-4.782t1.312-4.781q1.328-1.656 3.828-1.656.703 0 1.344.156.656.156 1.219.453v2.719q-.625-.578-1.219-.844-.594-.281-1.219-.281-1.343 0-2.031 1.078-.688 1.062-.688 3.156 0 2.094.688 3.172.688 1.062 2.031 1.062.625 0 1.219-.265.594-.281 1.219-.86z"/><text x="2105" y="1842.79" fill="#D9B8FF" font-family="Helvetica" font-size="17" textLength="400">azure_traffic_analytics_configuration_properties</text><path d="M2072 1856.799h440" style="stroke:#000d19;stroke-width:.5"/><text x="2082" y="1878.794" fill="#D9B8FF" font-family="sans-serif" font-size="14" font-weight="bold" textLength="63">enabled</text><text x="2145" y="1878.794" fill="#D9B8FF" font-family="sans-serif" font-size="14" textLength="65">: boolean</text><text x="2082" y="1905.091" fill="#D9B8FF" font-family="sans-serif" font-size="14" font-weight="bold" textLength="189">traffic_analytics_interval</text><text x="2271" y="1905.091" fill="#D9B8FF" font-family="sans-serif" font-size="14" textLength="44">: int64</text><text x="2082" y="1931.388" fill="#D9B8FF" font-family="sans-serif" font-size="14" font-weight="bold" textLength="108">workspace_id</text><text x="2190" y="1931.388" fill="#D9B8FF" font-family="sans-serif" font-size="14" textLength="48">: string</text><text x="2082" y="1957.685" fill="#D9B8FF" font-family="sans-serif" font-size="14" font-weight="bold" textLength="145">workspace_region</text><text x="2227" y="1957.685" fill="#D9B8FF" font-family="sans-serif" font-size="14" textLength="48">: string</text><text x="2082" y="1983.982" fill="#D9B8FF" font-family="sans-serif" font-size="14" font-weight="bold" textLength="187">workspace_resource_id</text><text x="2269" y="1983.982" fill="#D9B8FF" font-family="sans-serif" font-size="14" textLength="48">: string</text><rect width="722" height="74.086" x="1931" y="1669.77" fill="#3D176E" rx="2.5" ry="2.5" style="stroke:#000d19;stroke-width:.5"/><circle cx="2142.75" cy="1689.665" r="11" fill="#ADD1B2" style="stroke:#181818;stroke-width:1"/><path d="M2145.719 1695.305q-.578.297-1.219.438-.64.156-1.344.156-2.5 0-3.828-1.64-1.312-1.657-1.312-4.782t1.312-4.781q1.328-1.656 3.828-1.656.703 0 1.344.156.656.156 1.219.453v2.719q-.625-.578-1.219-.844-.594-.281-1.219-.281-1.343 0-2.031 1.078-.688 1.062-.688 3.156 0 2.094.688 3.172.688 1.062 2.031 1.062.625 0 1.219-.265.594-.281 1.219-.86z"/><text x="2168.25" y="1695.55" fill="#D9B8FF" font-family="Helvetica" font-size="17" textLength="280">azure_traffic_analytics_properties</text><path d="M1932 1709.559h720" style="stroke:#000d19;stroke-width:.5"/><text x="1942" y="1731.554" fill="#D9B8FF" font-family="sans-serif" font-size="14" font-weight="bold" textLength="367">network_watcher_flow_analytics_configuration</text><text x="2309" y="1731.554" fill="#D9B8FF" font-family="sans-serif" font-size="14" textLength="333">: azure_traffic_analytics_configuration_properties</text><rect width="474" height="442.242" x="320" y="599.55" fill="#3D176E" rx="2.5" ry="2.5" style="stroke:#000d19;stroke-width:.5"/><circle cx="453.25" cy="619.444" r="11" fill="#ADD1B2" style="stroke:#181818;stroke-width:1"/><path d="M456.219 625.085q-.578.297-1.219.438-.64.156-1.344.156-2.5 0-3.828-1.64-1.312-1.657-1.312-4.782t1.312-4.781q1.328-1.657 3.828-1.657.703 0 1.344.157.656.156 1.219.453v2.719q-.625-.579-1.219-.844-.594-.281-1.219-.281-1.344 0-2.031 1.078-.688 1.062-.688 3.156 0 2.094.688 3.172.688 1.062 2.031 1.062.625 0 1.219-.265.594-.282 1.219-.86z"/><text x="478.75" y="625.33" fill="#D9B8FF" font-family="Helvetica" font-size="17" textLength="189">azure_virtual_network</text><path d="M321 639.339h472" style="stroke:#000d19;stroke-width:.5"/><text x="331" y="661.334" fill="#D9B8FF" font-family="sans-serif" font-size="14" font-weight="bold" textLength="118">address_space</text><text x="449" y="661.334" fill="#D9B8FF" font-family="sans-serif" font-size="14" textLength="160">: azure_address_space</text><text x="331" y="687.631" fill="#D9B8FF" font-family="sans-serif" font-size="14" font-weight="bold" textLength="137">bgp_communities</text><text x="468" y="687.631" fill="#D9B8FF" font-family="sans-serif" font-size="14" textLength="288">: azure_virtual_network_bgp_communities</text><text x="331" y="713.928" fill="#D9B8FF" font-family="sans-serif" font-size="14" font-weight="bold" textLength="168">ddos_protection_plan</text><text x="499" y="713.928" fill="#D9B8FF" font-family="sans-serif" font-size="14" textLength="48">: string</text><text x="331" y="740.225" fill="#D9B8FF" font-family="sans-serif" font-size="14" font-weight="bold" textLength="105">dhcp_options</text><text x="436" y="740.225" fill="#D9B8FF" font-family="sans-serif" font-size="14" textLength="149">: azure_dhcp_options</text><text x="331" y="766.522" fill="#D9B8FF" font-family="sans-serif" font-size="14" font-weight="bold" textLength="188">enable_ddos_protection</text><text x="519" y="766.522" fill="#D9B8FF" font-family="sans-serif" font-size="14" textLength="65">: boolean</text><text x="331" y="792.819" fill="#D9B8FF" font-family="sans-serif" font-size="14" font-weight="bold" textLength="172">enable_vm_protection</text><text x="503" y="792.819" fill="#D9B8FF" font-family="sans-serif" font-size="14" textLength="65">: boolean</text><text x="331" y="819.115" fill="#D9B8FF" font-family="sans-serif" font-size="14" font-weight="bold" textLength="35">etag</text><text x="366" y="819.115" fill="#D9B8FF" font-family="sans-serif" font-size="14" textLength="48">: string</text><text x="331" y="845.412" fill="#D9B8FF" font-family="sans-serif" font-size="14" font-weight="bold" textLength="144">extended_location</text><text x="475" y="845.412" fill="#D9B8FF" font-family="sans-serif" font-size="14" textLength="182">: azure_extended_location</text><text x="331" y="871.709" fill="#D9B8FF" font-family="sans-serif" font-size="14" font-weight="bold" textLength="74">flow_logs</text><text x="405" y="871.709" fill="#D9B8FF" font-family="sans-serif" font-size="14" textLength="120">: azure_flow_log[]</text><text x="331" y="898.006" fill="#D9B8FF" font-family="sans-serif" font-size="14" font-weight="bold" textLength="192">flow_timeout_in_minutes</text><text x="523" y="898.006" fill="#D9B8FF" font-family="sans-serif" font-size="14" textLength="44">: int64</text><text x="331" y="924.303" fill="#D9B8FF" font-family="sans-serif" font-size="14" font-weight="bold" textLength="105">ip_allocations</text><text x="436" y="924.303" fill="#D9B8FF" font-family="sans-serif" font-size="14" textLength="58">: string[]</text><text x="331" y="950.6" fill="#D9B8FF" font-family="sans-serif" font-size="14" font-weight="bold" textLength="144">provisioning_state</text><text x="475" y="950.6" fill="#D9B8FF" font-family="sans-serif" font-size="14" textLength="48">: string</text><text x="331" y="976.897" fill="#D9B8FF" font-family="sans-serif" font-size="14" font-weight="bold" textLength="113">resource_guid</text><text x="444" y="976.897" fill="#D9B8FF" font-family="sans-serif" font-size="14" textLength="48">: string</text><text x="331" y="1003.194" fill="#D9B8FF" font-family="sans-serif" font-size="14" font-weight="bold" textLength="214">virtual_network_encryption</text><text x="545" y="1003.194" fill="#D9B8FF" font-family="sans-serif" font-size="14" textLength="238">: azure_virtual_network_encryption</text><text x="331" y="1029.49" fill="#D9B8FF" font-family="sans-serif" font-size="14" font-weight="bold" textLength="199">virtual_network_peerings</text><text x="530" y="1029.49" fill="#D9B8FF" font-family="sans-serif" font-size="14" textLength="228">: azure_virtual_network_peering[]</text><rect width="388" height="100.383" x="352" y="1656.62" fill="#3D176E" rx="2.5" ry="2.5" style="stroke:#000d19;stroke-width:.5"/><circle cx="367" cy="1676.514" r="11" fill="#ADD1B2" style="stroke:#181818;stroke-width:1"/><path d="M369.969 1682.155q-.578.297-1.219.438-.64.156-1.344.156-2.5 0-3.828-1.64-1.312-1.657-1.312-4.782t1.312-4.781q1.328-1.657 3.828-1.657.703 0 1.344.157.656.156 1.219.453v2.719q-.625-.579-1.219-.844-.594-.281-1.219-.281-1.344 0-2.031 1.078-.688 1.062-.688 3.156 0 2.094.688 3.172.688 1.062 2.031 1.062.625 0 1.219-.265.594-.282 1.219-.86z"/><text x="386" y="1682.4" fill="#D9B8FF" font-family="Helvetica" font-size="17" textLength="346">azure_virtual_network_bgp_communities</text><path d="M353 1696.409h386" style="stroke:#000d19;stroke-width:.5"/><text x="363" y="1718.404" fill="#D9B8FF" font-family="sans-serif" font-size="14" font-weight="bold" textLength="157">regional_community</text><text x="520" y="1718.404" fill="#D9B8FF" font-family="sans-serif" font-size="14" textLength="48">: string</text><text x="363" y="1744.701" fill="#D9B8FF" font-family="sans-serif" font-size="14" font-weight="bold" textLength="215">virtual_network_community</text><text x="578" y="1744.701" fill="#D9B8FF" font-family="sans-serif" font-size="14" textLength="48">: string</text><rect width="329" height="100.383" x="821.5" y="1656.62" fill="#3D176E" rx="2.5" ry="2.5" style="stroke:#000d19;stroke-width:.5"/><circle cx="836.5" cy="1676.514" r="11" fill="#ADD1B2" style="stroke:#181818;stroke-width:1"/><path d="M839.469 1682.155q-.578.297-1.219.438-.64.156-1.344.156-2.5 0-3.828-1.64-1.312-1.657-1.312-4.782t1.312-4.781q1.328-1.657 3.828-1.657.703 0 1.344.157.656.156 1.219.453v2.719q-.625-.579-1.219-.844-.594-.281-1.219-.281-1.343 0-2.031 1.078-.688 1.062-.688 3.156 0 2.094.688 3.172.688 1.062 2.031 1.062.625 0 1.219-.265.594-.282 1.219-.86z"/><text x="855.5" y="1682.4" fill="#D9B8FF" font-family="Helvetica" font-size="17" textLength="287">azure_virtual_network_encryption</text><path d="M822.5 1696.409h327" style="stroke:#000d19;stroke-width:.5"/><text x="832.5" y="1718.404" fill="#D9B8FF" font-family="sans-serif" font-size="14" font-weight="bold" textLength="63">enabled</text><text x="895.5" y="1718.404" fill="#D9B8FF" font-family="sans-serif" font-size="14" textLength="65">: boolean</text><text x="832.5" y="1744.701" fill="#D9B8FF" font-family="sans-serif" font-size="14" font-weight="bold" textLength="102">enforcement</text><text x="934.5" y="1744.701" fill="#D9B8FF" font-family="sans-serif" font-size="14" textLength="48">: string</text><rect width="538" height="494.836" x="717" y="1101.79" fill="#3D176E" rx="2.5" ry="2.5" style="stroke:#000d19;stroke-width:.5"/><circle cx="846.25" cy="1121.685" r="11" fill="#ADD1B2" style="stroke:#181818;stroke-width:1"/><path d="M849.219 1127.325q-.578.297-1.219.438-.64.156-1.344.156-2.5 0-3.828-1.64-1.312-1.657-1.312-4.782t1.312-4.781q1.328-1.656 3.828-1.656.703 0 1.344.156.656.156 1.219.453v2.719q-.625-.578-1.219-.844-.594-.281-1.219-.281-1.343 0-2.031 1.078-.688 1.062-.688 3.156 0 2.094.688 3.172.688 1.062 2.031 1.062.625 0 1.219-.265.594-.281 1.219-.86z"/><text x="871.75" y="1127.57" fill="#D9B8FF" font-family="Helvetica" font-size="17" textLength="261">azure_virtual_network_peering</text><path d="M718 1141.579h536" style="stroke:#000d19;stroke-width:.5"/><text x="728" y="1163.574" fill="#D9B8FF" font-family="sans-serif" font-size="14" font-weight="bold" textLength="185">allow_forwarded_traffic</text><text x="913" y="1163.574" fill="#D9B8FF" font-family="sans-serif" font-size="14" textLength="65">: boolean</text><text x="728" y="1189.871" fill="#D9B8FF" font-family="sans-serif" font-size="14" font-weight="bold" textLength="173">allow_gateway_transit</text><text x="901" y="1189.871" fill="#D9B8FF" font-family="sans-serif" font-size="14" textLength="65">: boolean</text><text x="728" y="1216.168" fill="#D9B8FF" font-family="sans-serif" font-size="14" font-weight="bold" textLength="232">allow_virtual_network_access</text><text x="960" y="1216.168" fill="#D9B8FF" font-family="sans-serif" font-size="14" textLength="65">: boolean</text><text x="728" y="1242.465" fill="#D9B8FF" font-family="sans-serif" font-size="14" font-weight="bold" textLength="252">do_not_verify_remote_gateways</text><text x="980" y="1242.465" fill="#D9B8FF" font-family="sans-serif" font-size="14" textLength="65">: boolean</text><text x="728" y="1268.762" fill="#D9B8FF" font-family="sans-serif" font-size="14" font-weight="bold" textLength="35">etag</text><text x="763" y="1268.762" fill="#D9B8FF" font-family="sans-serif" font-size="14" textLength="48">: string</text><text x="728" y="1295.059" fill="#D9B8FF" font-family="sans-serif" font-size="14" font-weight="bold" textLength="43">name</text><text x="771" y="1295.059" fill="#D9B8FF" font-family="sans-serif" font-size="14" textLength="48">: string</text><text x="728" y="1321.355" fill="#D9B8FF" font-family="sans-serif" font-size="14" font-weight="bold" textLength="108">peering_state</text><text x="836" y="1321.355" fill="#D9B8FF" font-family="sans-serif" font-size="14" textLength="48">: string</text><text x="728" y="1347.652" fill="#D9B8FF" font-family="sans-serif" font-size="14" font-weight="bold" textLength="149">peering_sync_level</text><text x="877" y="1347.652" fill="#D9B8FF" font-family="sans-serif" font-size="14" textLength="48">: string</text><text x="728" y="1373.949" fill="#D9B8FF" font-family="sans-serif" font-size="14" font-weight="bold" textLength="144">provisioning_state</text><text x="872" y="1373.949" fill="#D9B8FF" font-family="sans-serif" font-size="14" textLength="48">: string</text><text x="728" y="1400.246" fill="#D9B8FF" font-family="sans-serif" font-size="14" font-weight="bold" textLength="182">remote_address_space</text><text x="910" y="1400.246" fill="#D9B8FF" font-family="sans-serif" font-size="14" textLength="160">: azure_address_space</text><text x="728" y="1426.543" fill="#D9B8FF" font-family="sans-serif" font-size="14" font-weight="bold" textLength="201">remote_bgp_communities</text><text x="929" y="1426.543" fill="#D9B8FF" font-family="sans-serif" font-size="14" textLength="288">: azure_virtual_network_bgp_communities</text><text x="728" y="1452.84" fill="#D9B8FF" font-family="sans-serif" font-size="14" font-weight="bold" textLength="186">remote_virtual_network</text><text x="914" y="1452.84" fill="#D9B8FF" font-family="sans-serif" font-size="14" textLength="48">: string</text><text x="728" y="1479.137" fill="#D9B8FF" font-family="sans-serif" font-size="14" font-weight="bold" textLength="311">remote_virtual_network_address_space</text><text x="1039" y="1479.137" fill="#D9B8FF" font-family="sans-serif" font-size="14" textLength="160">: azure_address_space</text><text x="728" y="1505.434" fill="#D9B8FF" font-family="sans-serif" font-size="14" font-weight="bold" textLength="278">remote_virtual_network_encryption</text><text x="1006" y="1505.434" fill="#D9B8FF" font-family="sans-serif" font-size="14" textLength="238">: azure_virtual_network_encryption</text><text x="728" y="1531.73" fill="#D9B8FF" font-family="sans-serif" font-size="14" font-weight="bold" textLength="113">resource_guid</text><text x="841" y="1531.73" fill="#D9B8FF" font-family="sans-serif" font-size="14" textLength="48">: string</text><text x="728" y="1558.027" fill="#D9B8FF" font-family="sans-serif" font-size="14" font-weight="bold" textLength="35">type</text><text x="763" y="1558.027" fill="#D9B8FF" font-family="sans-serif" font-size="14" textLength="48">: string</text><text x="728" y="1584.324" fill="#D9B8FF" font-family="sans-serif" font-size="14" font-weight="bold" textLength="176">use_remote_gateways</text><text x="904" y="1584.324" fill="#D9B8FF" font-family="sans-serif" font-size="14" textLength="65">: boolean</text><rect width="112" height="39.789" x="589" y="438.76" fill="#3D176E" rx="2.5" ry="2.5" style="stroke:#000d19;stroke-width:.5"/><circle cx="604" cy="458.654" r="11" fill="#ADD1B2" style="stroke:#181818;stroke-width:1"/><path d="M606.969 464.295q-.578.297-1.219.438-.64.156-1.344.156-2.5 0-3.828-1.64-1.312-1.657-1.312-4.782t1.312-4.781q1.328-1.656 3.828-1.656.703 0 1.344.156.656.156 1.219.453v2.719q-.625-.579-1.219-.844-.594-.281-1.219-.281-1.343 0-2.031 1.078-.688 1.062-.688 3.156 0 2.094.688 3.172.688 1.062 2.031 1.062.625 0 1.219-.265.594-.281 1.219-.86v2.72Z"/><text x="623" y="464.54" fill="#D9B8FF" font-family="Helvetica" font-size="17" textLength="70">network</text><rect width="227" height="310.758" x="443.5" y="7" fill="#3D176E" rx="2.5" ry="2.5" style="stroke:#000d19;stroke-width:.5"/><circle cx="512.25" cy="26.895" r="11" fill="#ADD1B2" style="stroke:#181818;stroke-width:1"/><path d="M515.219 32.535q-.578.297-1.219.438-.64.156-1.344.156-2.5 0-3.828-1.64-1.312-1.657-1.312-4.782t1.312-4.781q1.328-1.656 3.828-1.656.703 0 1.344.156.656.156 1.219.453v2.719q-.625-.578-1.219-.844-.594-.281-1.219-.281-1.343 0-2.031 1.078-.688 1.062-.688 3.156 0 2.094.688 3.172.688 1.062 2.031 1.062.625 0 1.219-.265.594-.281 1.219-.86v2.72Z"/><text x="537.75" y="32.78" fill="#D9B8FF" font-family="Helvetica" font-size="17" textLength="71">resource</text><path d="M444.5 46.789h225" style="stroke:#000d19;stroke-width:.5"/><text x="454.5" y="68.784" fill="#D9B8FF" font-family="sans-serif" font-size="14" font-weight="bold" textLength="29">age</text><text x="483.5" y="68.784" fill="#D9B8FF" font-family="sans-serif" font-size="14" textLength="66">: duration</text><text x="454.5" y="95.081" fill="#D9B8FF" font-family="sans-serif" font-size="14" font-weight="bold" textLength="43">atime</text><text x="497.5" y="95.081" fill="#D9B8FF" font-family="sans-serif" font-size="14" textLength="70">: datetime</text><text x="454.5" y="121.378" fill="#D9B8FF" font-family="sans-serif" font-size="14" font-weight="bold" textLength="43">ctime</text><text x="497.5" y="121.378" fill="#D9B8FF" font-family="sans-serif" font-size="14" textLength="70">: datetime</text><text x="454.5" y="147.675" fill="#D9B8FF" font-family="sans-serif" font-size="14" font-weight="bold" textLength="14">id</text><text x="468.5" y="147.675" fill="#D9B8FF" font-family="sans-serif" font-size="14" textLength="48">: string</text><text x="454.5" y="173.972" fill="#D9B8FF" font-family="sans-serif" font-size="14" font-weight="bold" textLength="33">kind</text><text x="487.5" y="173.972" fill="#D9B8FF" font-family="sans-serif" font-size="14" textLength="48">: string</text><text x="454.5" y="200.269" fill="#D9B8FF" font-family="sans-serif" font-size="14" font-weight="bold" textLength="90">last_access</text><text x="544.5" y="200.269" fill="#D9B8FF" font-family="sans-serif" font-size="14" textLength="66">: duration</text><text x="454.5" y="226.565" fill="#D9B8FF" font-family="sans-serif" font-size="14" font-weight="bold" textLength="90">last_update</text><text x="544.5" y="226.565" fill="#D9B8FF" font-family="sans-serif" font-size="14" textLength="66">: duration</text><text x="454.5" y="252.862" fill="#D9B8FF" font-family="sans-serif" font-size="14" font-weight="bold" textLength="48">mtime</text><text x="502.5" y="252.862" fill="#D9B8FF" font-family="sans-serif" font-size="14" textLength="70">: datetime</text><text x="454.5" y="279.159" fill="#D9B8FF" font-family="sans-serif" font-size="14" font-weight="bold" textLength="43">name</text><text x="497.5" y="279.159" fill="#D9B8FF" font-family="sans-serif" font-size="14" textLength="48">: string</text><text x="454.5" y="305.456" fill="#D9B8FF" font-family="sans-serif" font-size="14" font-weight="bold" textLength="34">tags</text><text x="488.5" y="305.456" fill="#D9B8FF" font-family="sans-serif" font-size="14" textLength="171">: dictionary[string, string]</text><path fill="none" d="M1483.22 1557.58c-32.15 36.88-58.828 67.487-82.188 94.287" style="stroke:#ffaf37;stroke-width:2"/><path fill="#FFAF37" d="m1397.09 1656.39 8.929-4.156-5.644.387-.387-5.644z" style="stroke:#ffaf37;stroke-width:2"/><path fill="none" d="M1700.74 1557.58c6.53 36.88 11.715 66.102 16.455 92.902" style="stroke:#ffaf37;stroke-width:2"/><path fill="#FFAF37" d="m1718.24 1656.39 2.371-9.56-3.242 4.636-4.635-3.242z" style="stroke:#ffaf37;stroke-width:2"/><path fill="none" d="M1904.11 1486.17c116.52 65.98 242.199 137.154 318.259 180.214" style="stroke:#ffaf37;stroke-width:2"/><path fill="#FFAF37" d="m2227.59 1669.34-5.861-7.915 1.51 5.452-5.452 1.51z" style="stroke:#ffaf37;stroke-width:2"/><g fill="none"><path d="M506.229 335.102c-14.27 48.29-23.139 78.258-30.619 103.568" style="stroke:#ffaf37;stroke-width:2"/><path d="m511.33 317.84-10.855 15.562 11.508 3.4z" style="stroke:#ffaf37;stroke-width:2"/></g><path fill="none" d="M2292 1744.1v66.44" style="stroke:#ffaf37;stroke-width:2"/><path fill="#FFAF37" d="m2292 1816.54 4-9-4 4-4-4z" style="stroke:#ffaf37;stroke-width:2"/><path fill="none" d="M319.73 918.72c-76.64 43.95-153.04 104.11-196.73 183.07-105.37 190.4-46.74 463.187-20.15 561.907" style="stroke:#ffaf37;stroke-width:2"/><path fill="#FFAF37" d="m104.41 1669.49 1.522-9.73-2.822 4.902-4.903-2.822z" style="stroke:#ffaf37;stroke-width:2"/><path fill="none" d="M444.92 1042.11c-10.15 20.16-20.24 40.28-29.92 59.68-37.13 74.42-77.232 156.486-100.682 204.626" style="stroke:#ffaf37;stroke-width:2"/><path fill="#FFAF37" d="m311.69 1311.81 7.537-6.34-5.347 1.845-1.845-5.348z" style="stroke:#ffaf37;stroke-width:2"/><path fill="none" d="M557 1041.92v250.68" style="stroke:#ffaf37;stroke-width:2"/><path fill="#FFAF37" d="m557 1298.6 4-9-4 4-4-4z" style="stroke:#ffaf37;stroke-width:2"/><path fill="none" d="M794.19 887.16c157.99 48.39 367.45 121.87 539.81 214.63 30.07 16.18 55.417 31.548 84.867 51.298" style="stroke:#ffaf37;stroke-width:2"/><path fill="#FFAF37" d="m1423.85 1156.43-5.247-8.335 1.094 5.55-5.55 1.094z" style="stroke:#ffaf37;stroke-width:2"/><g fill="none"><path d="M478.905 496.507c5.96 24.68 12.735 52.683 24.785 102.573" style="stroke:#ffaf37;stroke-width:2"/><path d="m474.68 479.01-1.607 18.906 11.665-2.817z" style="stroke:#ffaf37;stroke-width:2"/></g><path fill="none" d="M319.55 942.8c-58.18 41.95-113.02 94.89-145.55 158.99-49.77 98.05-65.9 406.81 0 494.83 23.07 30.82 93.94 54.515 171.75 72.835" style="stroke:#ffaf37;stroke-width:2"/><path fill="#FFAF37" d="m351.59 1670.83-7.844-5.956 2.977 4.81-4.81 2.977z" style="stroke:#ffaf37;stroke-width:2"/><path fill="none" d="M794.35 846.13c164.1 30.68 371.34 99.82 477.65 255.66 123.94 181.67 124.73 313.7 0 494.83-15.83 22.98-61.099 43.55-115.709 62.1" style="stroke:#ffaf37;stroke-width:2"/><path fill="#FFAF37" d="m1150.61 1660.65 9.808.893-5.074-2.501 2.501-5.074z" style="stroke:#ffaf37;stroke-width:2"/><path fill="none" d="M736.45 1041.92c16.07 19.72 28.62 35.129 44.86 55.059" style="stroke:#ffaf37;stroke-width:2"/><path fill="#FFAF37" d="m785.1 1101.63-2.584-9.504-.574 5.628-5.628-.574z" style="stroke:#ffaf37;stroke-width:2"/><g fill="none"><path d="M635.998 496.496c-6.03 24.68-12.888 52.694-25.078 102.584" style="stroke:#ffaf37;stroke-width:2"/><path d="m640.27 479.01-10.1 16.062 11.656 2.848z" style="stroke:#ffaf37;stroke-width:2"/></g><path fill="none" d="M716.77 1587.84c-5.89 3.08-11.82 6.01-17.77 8.78-149.01 69.46-203.62 28.64-365 60-36.15 7.03-69.599 14.243-104.798 22.223" style="stroke:#ffaf37;stroke-width:2"/><path fill="#FFAF37" d="m223.35 1680.17 9.662 1.911-4.786-3.016 3.017-4.786z" style="stroke:#ffaf37;stroke-width:2"/><path fill="none" d="M716.56 1582.74c-5.89 4.69-11.74 9.33-17.56 13.88-25.82 20.23-50.039 37.95-75.899 56.21" style="stroke:#ffaf37;stroke-width:2"/><path fill="#FFAF37" d="m618.2 1656.29 9.66-1.924-5.576-.96.96-5.575z" style="stroke:#ffaf37;stroke-width:2"/><path fill="none" d="M986 1596.7v53.65" style="stroke:#ffaf37;stroke-width:2"/><path fill="#FFAF37" d="m986 1656.35 4-9-4 4-4-4z" style="stroke:#ffaf37;stroke-width:2"/><path fill="none" d="M608.347 335.086c14.44 48.29 23.413 78.274 30.973 103.584m-36.13-120.83-.592 18.964 11.497-3.438z" style="stroke:#ffaf37;stroke-width:2"/></svg>