<?xml version="1.0" encoding="us-ascii" standalone="no"?><svg xmlns="http://www.w3.org/2000/svg" xmlns:xlink="http://www.w3.org/1999/xlink" contentStyleType="text/css" height="1958px" preserveAspectRatio="none" style="width:1035px;height:1958px;" version="1.1" viewBox="0 0 1035 1958" width="1035px" zoomAndPan="magnify"><defs/><g><!--class aws_api_gateway_integration--><g id="elem_aws_api_gateway_integration"><rect codeLine="22" fill="#3D176E" height="442.2422" id="aws_api_gateway_integration" rx="2.5" ry="2.5" style="stroke:#000D19;stroke-width:0.5;" width="603" x="7" y="1270.17"/><ellipse cx="174.25" cy="1290.0645" fill="#ADD1B2" rx="11" ry="11" style="stroke:#181818;stroke-width:1.0;"/><path d="M177.2188,1295.7052 Q176.6406,1296.002 176,1296.1427 Q175.3594,1296.2989 174.6563,1296.2989 Q172.1563,1296.2989 170.8281,1294.6583 Q169.5156,1293.002 169.5156,1289.877 Q169.5156,1286.752 170.8281,1285.0958 Q172.1563,1283.4395 174.6563,1283.4395 Q175.3594,1283.4395 176,1283.5958 Q176.6563,1283.752 177.2188,1284.0489 L177.2188,1286.7677 Q176.5938,1286.1895 176,1285.9239 Q175.4063,1285.6427 174.7813,1285.6427 Q173.4375,1285.6427 172.75,1286.7208 Q172.0625,1287.7833 172.0625,1289.877 Q172.0625,1291.9708 172.75,1293.0489 Q173.4375,1294.1114 174.7813,1294.1114 Q175.4063,1294.1114 176,1293.8458 Q176.5938,1293.5645 177.2188,1292.9864 L177.2188,1295.7052 Z " fill="#000000"/><text fill="#D9B8FF" font-family="Helvetica" font-size="17" lengthAdjust="spacing" textLength="250" x="199.75" y="1295.9498">aws_api_gateway_integration</text><line style="stroke:#000D19;stroke-width:0.5;" x1="8" x2="609" y1="1309.9591" y2="1309.9591"/><text fill="#D9B8FF" font-family="sans-serif" font-size="14" font-weight="bold" lengthAdjust="spacing" textLength="180" x="18" y="1331.9542">cache_key_parameters</text><text fill="#D9B8FF" font-family="sans-serif" font-size="14" lengthAdjust="spacing" textLength="58" x="198" y="1331.9542">: string[]</text><text fill="#D9B8FF" font-family="sans-serif" font-size="14" font-weight="bold" lengthAdjust="spacing" textLength="144" x="18" y="1358.2511">cache_namespace</text><text fill="#D9B8FF" font-family="sans-serif" font-size="14" lengthAdjust="spacing" textLength="48" x="162" y="1358.2511">: string</text><text fill="#D9B8FF" font-family="sans-serif" font-size="14" font-weight="bold" lengthAdjust="spacing" textLength="109" x="18" y="1384.5479">connection_id</text><text fill="#D9B8FF" font-family="sans-serif" font-size="14" lengthAdjust="spacing" textLength="48" x="127" y="1384.5479">: string</text><text fill="#D9B8FF" font-family="sans-serif" font-size="14" font-weight="bold" lengthAdjust="spacing" textLength="130" x="18" y="1410.8448">connection_type</text><text fill="#D9B8FF" font-family="sans-serif" font-size="14" lengthAdjust="spacing" textLength="48" x="148" y="1410.8448">: string</text><text fill="#D9B8FF" font-family="sans-serif" font-size="14" font-weight="bold" lengthAdjust="spacing" textLength="135" x="18" y="1437.1417">content_handling</text><text fill="#D9B8FF" font-family="sans-serif" font-size="14" lengthAdjust="spacing" textLength="48" x="153" y="1437.1417">: string</text><text fill="#D9B8FF" font-family="sans-serif" font-size="14" font-weight="bold" lengthAdjust="spacing" textLength="88" x="18" y="1463.4386">credentials</text><text fill="#D9B8FF" font-family="sans-serif" font-size="14" lengthAdjust="spacing" textLength="48" x="106" y="1463.4386">: string</text><text fill="#D9B8FF" font-family="sans-serif" font-size="14" font-weight="bold" lengthAdjust="spacing" textLength="99" x="18" y="1489.7354">http_method</text><text fill="#D9B8FF" font-family="sans-serif" font-size="14" lengthAdjust="spacing" textLength="48" x="117" y="1489.7354">: string</text><text fill="#D9B8FF" font-family="sans-serif" font-size="14" font-weight="bold" lengthAdjust="spacing" textLength="177" x="18" y="1516.0323">integration_responses</text><text fill="#D9B8FF" font-family="sans-serif" font-size="14" lengthAdjust="spacing" textLength="404" x="195" y="1516.0323">: dictionary[string, aws_api_gateway_integration_response]</text><text fill="#D9B8FF" font-family="sans-serif" font-size="14" font-weight="bold" lengthAdjust="spacing" textLength="128" x="18" y="1542.3292">integration_type</text><text fill="#D9B8FF" font-family="sans-serif" font-size="14" lengthAdjust="spacing" textLength="48" x="146" y="1542.3292">: string</text><text fill="#D9B8FF" font-family="sans-serif" font-size="14" font-weight="bold" lengthAdjust="spacing" textLength="176" x="18" y="1568.6261">passthrough_behavior</text><text fill="#D9B8FF" font-family="sans-serif" font-size="14" lengthAdjust="spacing" textLength="48" x="194" y="1568.6261">: string</text><text fill="#D9B8FF" font-family="sans-serif" font-size="14" font-weight="bold" lengthAdjust="spacing" textLength="160" x="18" y="1594.9229">request_parameters</text><text fill="#D9B8FF" font-family="sans-serif" font-size="14" lengthAdjust="spacing" textLength="171" x="178" y="1594.9229">: dictionary[string, string]</text><text fill="#D9B8FF" font-family="sans-serif" font-size="14" font-weight="bold" lengthAdjust="spacing" textLength="147" x="18" y="1621.2198">request_templates</text><text fill="#D9B8FF" font-family="sans-serif" font-size="14" lengthAdjust="spacing" textLength="171" x="165" y="1621.2198">: dictionary[string, string]</text><text fill="#D9B8FF" font-family="sans-serif" font-size="14" font-weight="bold" lengthAdjust="spacing" textLength="127" x="18" y="1647.5167">timeout_in_millis</text><text fill="#D9B8FF" font-family="sans-serif" font-size="14" lengthAdjust="spacing" textLength="44" x="145" y="1647.5167">: int64</text><text fill="#D9B8FF" font-family="sans-serif" font-size="14" font-weight="bold" lengthAdjust="spacing" textLength="75" x="18" y="1673.8136">tls_config</text><text fill="#D9B8FF" font-family="sans-serif" font-size="14" lengthAdjust="spacing" textLength="65" x="93" y="1673.8136">: boolean</text><text fill="#D9B8FF" font-family="sans-serif" font-size="14" font-weight="bold" lengthAdjust="spacing" textLength="21" x="18" y="1700.1104">uri</text><text fill="#D9B8FF" font-family="sans-serif" font-size="14" lengthAdjust="spacing" textLength="48" x="39" y="1700.1104">: string</text></g><!--class aws_api_gateway_integration_response--><g id="elem_aws_api_gateway_integration_response"><rect codeLine="39" fill="#3D176E" height="179.2734" id="aws_api_gateway_integration_response" rx="2.5" ry="2.5" style="stroke:#000D19;stroke-width:0.5;" width="375" x="121" y="1772.42"/><ellipse cx="136" cy="1792.3145" fill="#ADD1B2" rx="11" ry="11" style="stroke:#181818;stroke-width:1.0;"/><path d="M138.9688,1797.9552 Q138.3906,1798.252 137.75,1798.3927 Q137.1094,1798.5489 136.4063,1798.5489 Q133.9063,1798.5489 132.5781,1796.9083 Q131.2656,1795.252 131.2656,1792.127 Q131.2656,1789.002 132.5781,1787.3458 Q133.9063,1785.6895 136.4063,1785.6895 Q137.1094,1785.6895 137.75,1785.8458 Q138.4063,1786.002 138.9688,1786.2989 L138.9688,1789.0177 Q138.3438,1788.4395 137.75,1788.1739 Q137.1563,1787.8927 136.5313,1787.8927 Q135.1875,1787.8927 134.5,1788.9708 Q133.8125,1790.0333 133.8125,1792.127 Q133.8125,1794.2208 134.5,1795.2989 Q135.1875,1796.3614 136.5313,1796.3614 Q137.1563,1796.3614 137.75,1796.0958 Q138.3438,1795.8145 138.9688,1795.2364 L138.9688,1797.9552 Z " fill="#000000"/><text fill="#D9B8FF" font-family="Helvetica" font-size="17" lengthAdjust="spacing" textLength="333" x="155" y="1798.1998">aws_api_gateway_integration_response</text><line style="stroke:#000D19;stroke-width:0.5;" x1="122" x2="495" y1="1812.2091" y2="1812.2091"/><text fill="#D9B8FF" font-family="sans-serif" font-size="14" font-weight="bold" lengthAdjust="spacing" textLength="135" x="132" y="1834.2042">content_handling</text><text fill="#D9B8FF" font-family="sans-serif" font-size="14" lengthAdjust="spacing" textLength="48" x="267" y="1834.2042">: string</text><text fill="#D9B8FF" font-family="sans-serif" font-size="14" font-weight="bold" lengthAdjust="spacing" textLength="173" x="132" y="1860.5011">response_parameters</text><text fill="#D9B8FF" font-family="sans-serif" font-size="14" lengthAdjust="spacing" textLength="171" x="305" y="1860.5011">: dictionary[string, string]</text><text fill="#D9B8FF" font-family="sans-serif" font-size="14" font-weight="bold" lengthAdjust="spacing" textLength="160" x="132" y="1886.7979">response_templates</text><text fill="#D9B8FF" font-family="sans-serif" font-size="14" lengthAdjust="spacing" textLength="171" x="292" y="1886.7979">: dictionary[string, string]</text><text fill="#D9B8FF" font-family="sans-serif" font-size="14" font-weight="bold" lengthAdjust="spacing" textLength="137" x="132" y="1913.0948">selection_pattern</text><text fill="#D9B8FF" font-family="sans-serif" font-size="14" lengthAdjust="spacing" textLength="48" x="269" y="1913.0948">: string</text><text fill="#D9B8FF" font-family="sans-serif" font-size="14" font-weight="bold" lengthAdjust="spacing" textLength="95" x="132" y="1939.3917">status_code</text><text fill="#D9B8FF" font-family="sans-serif" font-size="14" lengthAdjust="spacing" textLength="48" x="227" y="1939.3917">: string</text></g><!--class aws_api_gateway_method--><g id="elem_aws_api_gateway_method"><rect codeLine="46" fill="#3D176E" height="337.0547" id="aws_api_gateway_method" rx="2.5" ry="2.5" style="stroke:#000D19;stroke-width:0.5;" width="557" x="294" y="873.12"/><ellipse cx="452.25" cy="893.0145" fill="#ADD1B2" rx="11" ry="11" style="stroke:#181818;stroke-width:1.0;"/><path d="M455.2188,898.6552 Q454.6406,898.952 454,899.0927 Q453.3594,899.2489 452.6563,899.2489 Q450.1563,899.2489 448.8281,897.6083 Q447.5156,895.952 447.5156,892.827 Q447.5156,889.702 448.8281,888.0458 Q450.1563,886.3895 452.6563,886.3895 Q453.3594,886.3895 454,886.5458 Q454.6563,886.702 455.2188,886.9989 L455.2188,889.7177 Q454.5938,889.1395 454,888.8739 Q453.4063,888.5927 452.7813,888.5927 Q451.4375,888.5927 450.75,889.6708 Q450.0625,890.7333 450.0625,892.827 Q450.0625,894.9208 450.75,895.9989 Q451.4375,897.0614 452.7813,897.0614 Q453.4063,897.0614 454,896.7958 Q454.5938,896.5145 455.2188,895.9364 L455.2188,898.6552 Z " fill="#000000"/><text fill="#D9B8FF" font-family="Helvetica" font-size="17" lengthAdjust="spacing" textLength="222" x="477.75" y="898.8998">aws_api_gateway_method</text><line style="stroke:#000D19;stroke-width:0.5;" x1="295" x2="850" y1="912.9091" y2="912.9091"/><text fill="#D9B8FF" font-family="sans-serif" font-size="14" font-weight="bold" lengthAdjust="spacing" textLength="133" x="305" y="934.9042">api_key_required</text><text fill="#D9B8FF" font-family="sans-serif" font-size="14" lengthAdjust="spacing" textLength="65" x="438" y="934.9042">: boolean</text><text fill="#D9B8FF" font-family="sans-serif" font-size="14" font-weight="bold" lengthAdjust="spacing" textLength="168" x="305" y="961.2011">authorization_scopes</text><text fill="#D9B8FF" font-family="sans-serif" font-size="14" lengthAdjust="spacing" textLength="58" x="473" y="961.2011">: string[]</text><text fill="#D9B8FF" font-family="sans-serif" font-size="14" font-weight="bold" lengthAdjust="spacing" textLength="146" x="305" y="987.4979">authorization_type</text><text fill="#D9B8FF" font-family="sans-serif" font-size="14" lengthAdjust="spacing" textLength="48" x="451" y="987.4979">: string</text><text fill="#D9B8FF" font-family="sans-serif" font-size="14" font-weight="bold" lengthAdjust="spacing" textLength="103" x="305" y="1013.7948">authorizer_id</text><text fill="#D9B8FF" font-family="sans-serif" font-size="14" lengthAdjust="spacing" textLength="48" x="408" y="1013.7948">: string</text><text fill="#D9B8FF" font-family="sans-serif" font-size="14" font-weight="bold" lengthAdjust="spacing" textLength="99" x="305" y="1040.0917">http_method</text><text fill="#D9B8FF" font-family="sans-serif" font-size="14" lengthAdjust="spacing" textLength="48" x="404" y="1040.0917">: string</text><text fill="#D9B8FF" font-family="sans-serif" font-size="14" font-weight="bold" lengthAdjust="spacing" textLength="153" x="305" y="1066.3886">method_integration</text><text fill="#D9B8FF" font-family="sans-serif" font-size="14" lengthAdjust="spacing" textLength="208" x="458" y="1066.3886">: aws_api_gateway_integration</text><text fill="#D9B8FF" font-family="sans-serif" font-size="14" font-weight="bold" lengthAdjust="spacing" textLength="151" x="305" y="1092.6854">method_responses</text><text fill="#D9B8FF" font-family="sans-serif" font-size="14" lengthAdjust="spacing" textLength="384" x="456" y="1092.6854">: dictionary[string, aws_api_gateway_method_response]</text><text fill="#D9B8FF" font-family="sans-serif" font-size="14" font-weight="bold" lengthAdjust="spacing" textLength="126" x="305" y="1118.9823">operation_name</text><text fill="#D9B8FF" font-family="sans-serif" font-size="14" lengthAdjust="spacing" textLength="48" x="431" y="1118.9823">: string</text><text fill="#D9B8FF" font-family="sans-serif" font-size="14" font-weight="bold" lengthAdjust="spacing" textLength="126" x="305" y="1145.2792">request_models</text><text fill="#D9B8FF" font-family="sans-serif" font-size="14" lengthAdjust="spacing" textLength="171" x="431" y="1145.2792">: dictionary[string, string]</text><text fill="#D9B8FF" font-family="sans-serif" font-size="14" font-weight="bold" lengthAdjust="spacing" textLength="160" x="305" y="1171.5761">request_parameters</text><text fill="#D9B8FF" font-family="sans-serif" font-size="14" lengthAdjust="spacing" textLength="188" x="465" y="1171.5761">: dictionary[string, boolean]</text><text fill="#D9B8FF" font-family="sans-serif" font-size="14" font-weight="bold" lengthAdjust="spacing" textLength="158" x="305" y="1197.8729">request_validator_id</text><text fill="#D9B8FF" font-family="sans-serif" font-size="14" lengthAdjust="spacing" textLength="48" x="463" y="1197.8729">: string</text></g><!--class aws_api_gateway_method_response--><g id="elem_aws_api_gateway_method_response"><rect codeLine="59" fill="#3D176E" height="126.6797" id="aws_api_gateway_method_response" rx="2.5" ry="2.5" style="stroke:#000D19;stroke-width:0.5;" width="383" x="645" y="1427.96"/><ellipse cx="676.2" cy="1447.8545" fill="#ADD1B2" rx="11" ry="11" style="stroke:#181818;stroke-width:1.0;"/><path d="M679.1688,1453.4952 Q678.5906,1453.792 677.95,1453.9327 Q677.3094,1454.0889 676.6063,1454.0889 Q674.1063,1454.0889 672.7781,1452.4483 Q671.4656,1450.792 671.4656,1447.667 Q671.4656,1444.542 672.7781,1442.8858 Q674.1063,1441.2295 676.6063,1441.2295 Q677.3094,1441.2295 677.95,1441.3858 Q678.6063,1441.542 679.1688,1441.8389 L679.1688,1444.5577 Q678.5438,1443.9795 677.95,1443.7139 Q677.3563,1443.4327 676.7313,1443.4327 Q675.3875,1443.4327 674.7,1444.5108 Q674.0125,1445.5733 674.0125,1447.667 Q674.0125,1449.7608 674.7,1450.8389 Q675.3875,1451.9014 676.7313,1451.9014 Q677.3563,1451.9014 677.95,1451.6358 Q678.5438,1451.3545 679.1688,1450.7764 L679.1688,1453.4952 Z " fill="#000000"/><text fill="#D9B8FF" font-family="Helvetica" font-size="17" lengthAdjust="spacing" textLength="305" x="698.8" y="1453.7398">aws_api_gateway_method_response</text><line style="stroke:#000D19;stroke-width:0.5;" x1="646" x2="1027" y1="1467.7491" y2="1467.7491"/><text fill="#D9B8FF" font-family="sans-serif" font-size="14" font-weight="bold" lengthAdjust="spacing" textLength="139" x="656" y="1489.7442">response_models</text><text fill="#D9B8FF" font-family="sans-serif" font-size="14" lengthAdjust="spacing" textLength="171" x="795" y="1489.7442">: dictionary[string, string]</text><text fill="#D9B8FF" font-family="sans-serif" font-size="14" font-weight="bold" lengthAdjust="spacing" textLength="173" x="656" y="1516.0411">response_parameters</text><text fill="#D9B8FF" font-family="sans-serif" font-size="14" lengthAdjust="spacing" textLength="188" x="829" y="1516.0411">: dictionary[string, boolean]</text><text fill="#D9B8FF" font-family="sans-serif" font-size="14" font-weight="bold" lengthAdjust="spacing" textLength="95" x="656" y="1542.3379">status_code</text><text fill="#D9B8FF" font-family="sans-serif" font-size="14" lengthAdjust="spacing" textLength="48" x="751" y="1542.3379">: string</text></g><!--class aws_api_gateway_resource--><g id="elem_aws_api_gateway_resource"><rect codeLine="64" fill="#3D176E" height="179.2734" id="aws_api_gateway_resource" rx="2.5" ry="2.5" style="stroke:#000D19;stroke-width:0.5;" width="481" x="332" y="633.85"/><ellipse cx="449.25" cy="653.7445" fill="#ADD1B2" rx="11" ry="11" style="stroke:#181818;stroke-width:1.0;"/><path d="M452.2188,659.3852 Q451.6406,659.682 451,659.8227 Q450.3594,659.9789 449.6563,659.9789 Q447.1563,659.9789 445.8281,658.3383 Q444.5156,656.682 444.5156,653.557 Q444.5156,650.432 445.8281,648.7758 Q447.1563,647.1195 449.6563,647.1195 Q450.3594,647.1195 451,647.2758 Q451.6563,647.432 452.2188,647.7289 L452.2188,650.4477 Q451.5938,649.8695 451,649.6039 Q450.4063,649.3227 449.7813,649.3227 Q448.4375,649.3227 447.75,650.4008 Q447.0625,651.4633 447.0625,653.557 Q447.0625,655.6508 447.75,656.7289 Q448.4375,657.7914 449.7813,657.7914 Q450.4063,657.7914 451,657.5258 Q451.5938,657.2445 452.2188,656.6664 L452.2188,659.3852 Z " fill="#000000"/><text fill="#D9B8FF" font-family="Helvetica" font-size="17" lengthAdjust="spacing" textLength="228" x="474.75" y="659.6298">aws_api_gateway_resource</text><line style="stroke:#000D19;stroke-width:0.5;" x1="333" x2="812" y1="673.6391" y2="673.6391"/><text fill="#D9B8FF" font-family="sans-serif" font-size="14" font-weight="bold" lengthAdjust="spacing" textLength="57" x="343" y="695.6342">api_link</text><text fill="#D9B8FF" font-family="sans-serif" font-size="14" lengthAdjust="spacing" textLength="48" x="400" y="695.6342">: string</text><text fill="#D9B8FF" font-family="sans-serif" font-size="14" font-weight="bold" lengthAdjust="spacing" textLength="148" x="343" y="721.9311">resource_methods</text><text fill="#D9B8FF" font-family="sans-serif" font-size="14" lengthAdjust="spacing" textLength="311" x="491" y="721.9311">: dictionary[string, aws_api_gateway_method]</text><text fill="#D9B8FF" font-family="sans-serif" font-size="14" font-weight="bold" lengthAdjust="spacing" textLength="152" x="343" y="748.2279">resource_parent_id</text><text fill="#D9B8FF" font-family="sans-serif" font-size="14" lengthAdjust="spacing" textLength="48" x="495" y="748.2279">: string</text><text fill="#D9B8FF" font-family="sans-serif" font-size="14" font-weight="bold" lengthAdjust="spacing" textLength="114" x="343" y="774.5248">resource_path</text><text fill="#D9B8FF" font-family="sans-serif" font-size="14" lengthAdjust="spacing" textLength="48" x="457" y="774.5248">: string</text><text fill="#D9B8FF" font-family="sans-serif" font-size="14" font-weight="bold" lengthAdjust="spacing" textLength="153" x="343" y="800.8217">resource_path_part</text><text fill="#D9B8FF" font-family="sans-serif" font-size="14" lengthAdjust="spacing" textLength="48" x="496" y="800.8217">: string</text></g><!--class aws_resource--><g id="elem_aws_resource"><rect codeLine="71" fill="#3D176E" height="74.0859" id="aws_resource" rx="2.5" ry="2.5" style="stroke:#000D19;stroke-width:0.5;" width="155" x="495" y="438.76"/><ellipse cx="510" cy="458.6545" fill="#ADD1B2" rx="11" ry="11" style="stroke:#181818;stroke-width:1.0;"/><path d="M512.9688,464.2952 Q512.3906,464.592 511.75,464.7327 Q511.1094,464.8889 510.4063,464.8889 Q507.9063,464.8889 506.5781,463.2483 Q505.2656,461.592 505.2656,458.467 Q505.2656,455.342 506.5781,453.6858 Q507.9063,452.0295 510.4063,452.0295 Q511.1094,452.0295 511.75,452.1858 Q512.4063,452.342 512.9688,452.6389 L512.9688,455.3577 Q512.3438,454.7795 511.75,454.5139 Q511.1563,454.2327 510.5313,454.2327 Q509.1875,454.2327 508.5,455.3108 Q507.8125,456.3733 507.8125,458.467 Q507.8125,460.5608 508.5,461.6389 Q509.1875,462.7014 510.5313,462.7014 Q511.1563,462.7014 511.75,462.4358 Q512.3438,462.1545 512.9688,461.5764 L512.9688,464.2952 Z " fill="#000000"/><text fill="#D9B8FF" font-family="Helvetica" font-size="17" lengthAdjust="spacing" textLength="113" x="529" y="464.5398">aws_resource</text><line style="stroke:#000D19;stroke-width:0.5;" x1="496" x2="649" y1="478.5491" y2="478.5491"/><text fill="#D9B8FF" font-family="sans-serif" font-size="14" font-weight="bold" lengthAdjust="spacing" textLength="26" x="506" y="500.5442">arn</text><text fill="#D9B8FF" font-family="sans-serif" font-size="14" lengthAdjust="spacing" textLength="48" x="532" y="500.5442">: string</text></g><!--class resource--><g id="elem_resource"><rect codeLine="74" fill="#3D176E" height="310.7578" id="resource" rx="2.5" ry="2.5" style="stroke:#000D19;stroke-width:0.5;" width="227" x="459" y="7"/><ellipse cx="527.75" cy="26.8945" fill="#ADD1B2" rx="11" ry="11" style="stroke:#181818;stroke-width:1.0;"/><path d="M530.7188,32.5352 Q530.1406,32.832 529.5,32.9727 Q528.8594,33.1289 528.1563,33.1289 Q525.6563,33.1289 524.3281,31.4883 Q523.0156,29.832 523.0156,26.707 Q523.0156,23.582 524.3281,21.9258 Q525.6563,20.2695 528.1563,20.2695 Q528.8594,20.2695 529.5,20.4258 Q530.1563,20.582 530.7188,20.8789 L530.7188,23.5977 Q530.0938,23.0195 529.5,22.7539 Q528.9063,22.4727 528.2813,22.4727 Q526.9375,22.4727 526.25,23.5508 Q525.5625,24.6133 525.5625,26.707 Q525.5625,28.8008 526.25,29.8789 Q526.9375,30.9414 528.2813,30.9414 Q528.9063,30.9414 529.5,30.6758 Q530.0938,30.3945 530.7188,29.8164 L530.7188,32.5352 Z " fill="#000000"/><text fill="#D9B8FF" font-family="Helvetica" font-size="17" lengthAdjust="spacing" textLength="71" x="553.25" y="32.7798">resource</text><line style="stroke:#000D19;stroke-width:0.5;" x1="460" x2="685" y1="46.7891" y2="46.7891"/><text fill="#D9B8FF" font-family="sans-serif" font-size="14" font-weight="bold" lengthAdjust="spacing" textLength="29" x="470" y="68.7842">age</text><text fill="#D9B8FF" font-family="sans-serif" font-size="14" lengthAdjust="spacing" textLength="66" x="499" y="68.7842">: duration</text><text fill="#D9B8FF" font-family="sans-serif" font-size="14" font-weight="bold" lengthAdjust="spacing" textLength="43" x="470" y="95.0811">atime</text><text fill="#D9B8FF" font-family="sans-serif" font-size="14" lengthAdjust="spacing" textLength="70" x="513" y="95.0811">: datetime</text><text fill="#D9B8FF" font-family="sans-serif" font-size="14" font-weight="bold" lengthAdjust="spacing" textLength="43" x="470" y="121.3779">ctime</text><text fill="#D9B8FF" font-family="sans-serif" font-size="14" lengthAdjust="spacing" textLength="70" x="513" y="121.3779">: datetime</text><text fill="#D9B8FF" font-family="sans-serif" font-size="14" font-weight="bold" lengthAdjust="spacing" textLength="14" x="470" y="147.6748">id</text><text fill="#D9B8FF" font-family="sans-serif" font-size="14" lengthAdjust="spacing" textLength="48" x="484" y="147.6748">: string</text><text fill="#D9B8FF" font-family="sans-serif" font-size="14" font-weight="bold" lengthAdjust="spacing" textLength="33" x="470" y="173.9717">kind</text><text fill="#D9B8FF" font-family="sans-serif" font-size="14" lengthAdjust="spacing" textLength="48" x="503" y="173.9717">: string</text><text fill="#D9B8FF" font-family="sans-serif" font-size="14" font-weight="bold" lengthAdjust="spacing" textLength="90" x="470" y="200.2686">last_access</text><text fill="#D9B8FF" font-family="sans-serif" font-size="14" lengthAdjust="spacing" textLength="66" x="560" y="200.2686">: duration</text><text fill="#D9B8FF" font-family="sans-serif" font-size="14" font-weight="bold" lengthAdjust="spacing" textLength="90" x="470" y="226.5654">last_update</text><text fill="#D9B8FF" font-family="sans-serif" font-size="14" lengthAdjust="spacing" textLength="66" x="560" y="226.5654">: duration</text><text fill="#D9B8FF" font-family="sans-serif" font-size="14" font-weight="bold" lengthAdjust="spacing" textLength="48" x="470" y="252.8623">mtime</text><text fill="#D9B8FF" font-family="sans-serif" font-size="14" lengthAdjust="spacing" textLength="70" x="518" y="252.8623">: datetime</text><text fill="#D9B8FF" font-family="sans-serif" font-size="14" font-weight="bold" lengthAdjust="spacing" textLength="43" x="470" y="279.1592">name</text><text fill="#D9B8FF" font-family="sans-serif" font-size="14" lengthAdjust="spacing" textLength="48" x="513" y="279.1592">: string</text><text fill="#D9B8FF" font-family="sans-serif" font-size="14" font-weight="bold" lengthAdjust="spacing" textLength="34" x="470" y="305.4561">tags</text><text fill="#D9B8FF" font-family="sans-serif" font-size="14" lengthAdjust="spacing" textLength="171" x="504" y="305.4561">: dictionary[string, string]</text></g><!--link aws_api_gateway_integration to aws_api_gateway_integration_response--><g id="link_aws_api_gateway_integration_aws_api_gateway_integration_response"><path codeLine="86" d="M308.5,1712.66 C308.5,1731.32 308.5,1749.46 308.5,1766.29 " fill="none" id="aws_api_gateway_integration-to-aws_api_gateway_integration_response" style="stroke:#FFAF37;stroke-width:2.0;"/><polygon fill="#FFAF37" points="308.5,1770.94,312.5,1761.94,308.5,1765.94,304.5,1761.94,308.5,1770.94" style="stroke:#FFAF37;stroke-width:2.0;"/></g><!--link aws_api_gateway_method to aws_api_gateway_integration--><g id="link_aws_api_gateway_method_aws_api_gateway_integration"><path codeLine="87" d="M473.45,1210.61 C463.01,1228.3 452.29,1246.48 441.55,1264.68 " fill="none" id="aws_api_gateway_method-to-aws_api_gateway_integration" style="stroke:#FFAF37;stroke-width:2.0;"/><polygon fill="#FFAF37" points="438.53,1268.82,446.5542,1263.1093,441.0751,1264.5162,439.6681,1259.0371,438.53,1268.82" style="stroke:#FFAF37;stroke-width:2.0;"/></g><!--link aws_api_gateway_method to aws_api_gateway_method_response--><g id="link_aws_api_gateway_method_aws_api_gateway_method_response"><path codeLine="88" d="M671.55,1210.61 C714.94,1284.18 763.41,1366.35 796.51,1422.48 " fill="none" id="aws_api_gateway_method-to-aws_api_gateway_method_response" style="stroke:#FFAF37;stroke-width:2.0;"/><polygon fill="#FFAF37" points="799.46,1426.49,798.3361,1416.7055,796.9212,1422.1825,791.4441,1420.7676,799.46,1426.49" style="stroke:#FFAF37;stroke-width:2.0;"/></g><!--link aws_api_gateway_resource to aws_api_gateway_method--><g id="link_aws_api_gateway_resource_aws_api_gateway_method"><path codeLine="89" d="M572.5,813.39 C572.5,830.28 572.5,848.47 572.5,866.95 " fill="none" id="aws_api_gateway_resource-to-aws_api_gateway_method" style="stroke:#FFAF37;stroke-width:2.0;"/><polygon fill="#FFAF37" points="572.5,871.7,576.5,862.7,572.5,866.7,568.5,862.7,572.5,871.7" style="stroke:#FFAF37;stroke-width:2.0;"/></g><!--reverse link aws_resource to aws_api_gateway_resource--><g id="link_aws_resource_aws_api_gateway_resource"><path codeLine="90" d="M572.5,534.32 C572.5,563.81 572.5,600.39 572.5,633.43 " fill="none" id="aws_resource-backto-aws_api_gateway_resource" style="stroke:#FFAF37;stroke-width:2.0;"/><polygon fill="none" points="565.5,534.32,572.5,514.32,579.5,534.32,565.5,534.32" style="stroke:#FFAF37;stroke-width:2.0;"/></g><!--reverse link resource to aws_resource--><g id="link_resource_aws_resource"><path codeLine="91" d="M572.5,338.98 C572.5,376.78 572.5,413 572.5,438.52 " fill="none" id="resource-backto-aws_resource" style="stroke:#FFAF37;stroke-width:2.0;"/><polygon fill="none" points="565.5,339.18,572.5,319.18,579.5,339.18,565.5,339.18" style="stroke:#FFAF37;stroke-width:2.0;"/></g><!--SRC=[bLPDRzim3BtdLnZeBLY0TjtwCGm3kWB3TYc6TRSYC1YBZeNOaYVH3TAj_tsKdRYo7CV9AG7Ve_X8FIh9fC08Yv8sKO750esTs9LK9HWeeZjZzFfUvzf4PsaAwULr27xJYaO93r1Wz1tpPoIPGCZudSbafT3QwBq7VOLajJIwKg8vdWmeon0gybZtELXxHsJaeYBqn8ZRnKsQXipmqBDBSN5zXJsQDWBDbd9-VYukRaFAQAc3VRUCH_c2qOK_j0TDs9FPAr6p3gfq34zahz4TFgZn9mWXrJBwwCL-DPgCGjE9FsOWzDgnKyYjNyOI6jIqAV6-rnNUteZqUY_vnn0vSPEBO6rZA6My1C8rR6Af29S6I6eL_PrCfmaa6SOhtCJrmSZdskdq4nSmBF9ftb8KW-og1DzGXscbC76dnL8C8KvcY16xCyv0YPn3NT2WO53oU3hnZAYCMM2ckuMyZcB34hMoM6SAMPS7itbgoEyEJQFDdGTdzjINF5VAUEBBB5vW1izIcmx1u9yABGKJtIEd-PnxASJlIyxYnZD85gWhuXRYGkQvh3DOzzK71-OsvY6diXxjGkiSGN6yCj9J-ZhkaNOgZLaEtTkEULhRsvpZ-xQORsrL0d4HrH5X2QXolGiyej76JNLhBkosm5s4P0TsvmOL4uryQMPY4rrYk2LTIiyqEnXDk2X3lcv2_cKu-C1TlUMSkWP1cck7Ezmwm2t-NdiNFEJyU6kFsc8xRZ_d6N8fW7GmjCFtsVLiQx6ZvHvhOq_lQRRZ4heo2RR6urrQXRjKCxOTdNQFS_-0vdz0w3aFfcmOSTaqq52tYSuQxcXToh8UZQXQiu9xmkeOotVVtGkp9nPevz_0Re1hKGn9ml-BWWerKfNkh00fzjJf6PrWEUQNrycX7zZPxCjHZ-jau64QoJybBLYDoQ0dXvCddMl__6yscmrQUxA7jmlz1m00]--></g></svg>