<svg xmlns="http://www.w3.org/2000/svg" xmlns:xlink="http://www.w3.org/1999/xlink" width="4609" height="252" preserveAspectRatio="none" style="width:4609px;height:252px"><a xlink:actuate="onRequest" xlink:href="#a" xlink:show="new" xlink:title="#kubernetes_mutating_webhook_configuration" xlink:type="simple" target="_top"><rect id="a" width="428" height="39.789" x="7" y="106.79" fill="#3D176E" rx="2.5" ry="2.5" style="stroke:#000d19;stroke-width:.5"/><circle cx="22" cy="126.684" r="11" fill="#ADD1B2" style="stroke:#181818;stroke-width:1"/><path d="M24.969 132.325q-.578.297-1.219.438-.64.156-1.344.156-2.5 0-3.828-1.64-1.312-1.657-1.312-4.782t1.312-4.781q1.328-1.656 3.828-1.656.703 0 1.344.156.656.156 1.219.453v2.719q-.625-.579-1.219-.844-.594-.281-1.219-.281-1.343 0-2.031 1.078-.688 1.062-.688 3.156 0 2.094.688 3.172.688 1.062 2.031 1.062.625 0 1.219-.265.594-.281 1.219-.86v2.72Z"/><text x="41" y="132.57" fill="#D9B8FF" font-family="Helvetica" font-size="17" textLength="386">kubernetes_mutating_webhook_configuration</text></a><a xlink:actuate="onRequest" xlink:href="#b" xlink:show="new" xlink:title="#kubernetes_csi_driver" xlink:type="simple" target="_top"><rect id="b" width="224" height="39.789" x="470" y="106.79" fill="#3D176E" rx="2.5" ry="2.5" style="stroke:#000d19;stroke-width:.5"/><circle cx="485" cy="126.684" r="11" fill="#ADD1B2" style="stroke:#181818;stroke-width:1"/><path d="M487.969 132.325q-.578.297-1.219.438-.64.156-1.344.156-2.5 0-3.828-1.64-1.312-1.657-1.312-4.782t1.312-4.781q1.328-1.656 3.828-1.656.703 0 1.344.156.656.156 1.219.453v2.719q-.625-.579-1.219-.844-.594-.281-1.219-.281-1.344 0-2.031 1.078-.688 1.062-.688 3.156 0 2.094.688 3.172.688 1.062 2.031 1.062.625 0 1.219-.265.594-.281 1.219-.86v2.72Z"/><text x="504" y="132.57" fill="#D9B8FF" font-family="Helvetica" font-size="17" textLength="182">kubernetes_csi_driver</text></a><a xlink:actuate="onRequest" xlink:href="#c" xlink:show="new" xlink:title="#kubernetes_priority_class" xlink:type="simple" target="_top"><rect id="c" width="254" height="39.789" x="729" y="106.79" fill="#3D176E" rx="2.5" ry="2.5" style="stroke:#000d19;stroke-width:.5"/><circle cx="744" cy="126.684" r="11" fill="#ADD1B2" style="stroke:#181818;stroke-width:1"/><path d="M746.969 132.325q-.578.297-1.219.438-.64.156-1.344.156-2.5 0-3.828-1.64-1.312-1.657-1.312-4.782t1.312-4.781q1.328-1.656 3.828-1.656.703 0 1.344.156.656.156 1.219.453v2.719q-.625-.579-1.219-.844-.594-.281-1.219-.281-1.343 0-2.031 1.078-.688 1.062-.688 3.156 0 2.094.688 3.172.688 1.062 2.031 1.062.625 0 1.219-.265.594-.281 1.219-.86v2.72Z"/><text x="763" y="132.57" fill="#D9B8FF" font-family="Helvetica" font-size="17" textLength="212">kubernetes_priority_class</text></a><a xlink:actuate="onRequest" xlink:href="#d" xlink:show="new" xlink:title="#kubernetes_volume_attachment" xlink:type="simple" target="_top"><rect id="d" width="315" height="39.789" x="1018.5" y="106.79" fill="#3D176E" rx="2.5" ry="2.5" style="stroke:#000d19;stroke-width:.5"/><circle cx="1033.5" cy="126.684" r="11" fill="#ADD1B2" style="stroke:#181818;stroke-width:1"/><path d="M1036.469 132.325q-.578.297-1.219.438-.64.156-1.344.156-2.5 0-3.828-1.64-1.312-1.657-1.312-4.782t1.312-4.781q1.328-1.656 3.828-1.656.703 0 1.344.156.656.156 1.219.453v2.719q-.625-.579-1.219-.844-.594-.281-1.219-.281-1.343 0-2.031 1.078-.688 1.062-.688 3.156 0 2.094.688 3.172.688 1.062 2.031 1.062.625 0 1.219-.265.594-.281 1.219-.86v2.72Z"/><text x="1052.5" y="132.57" fill="#D9B8FF" font-family="Helvetica" font-size="17" textLength="273">kubernetes_volume_attachment</text></a><a xlink:actuate="onRequest" xlink:href="#e" xlink:show="new" xlink:title="#kubernetes_csi_node" xlink:type="simple" target="_top"><rect id="e" width="216" height="39.789" x="2528" y="206.58" fill="#3D176E" rx="2.5" ry="2.5" style="stroke:#000d19;stroke-width:.5"/><circle cx="2543" cy="226.475" r="11" fill="#ADD1B2" style="stroke:#181818;stroke-width:1"/><path d="M2545.969 232.115q-.578.297-1.219.438-.64.156-1.344.156-2.5 0-3.828-1.64-1.312-1.657-1.312-4.782t1.312-4.781q1.328-1.656 3.828-1.656.703 0 1.344.156.656.156 1.219.453v2.719q-.625-.578-1.219-.844-.594-.281-1.219-.281-1.343 0-2.031 1.078-.688 1.062-.688 3.156 0 2.094.688 3.172.688 1.062 2.031 1.062.625 0 1.219-.265.594-.281 1.219-.86v2.72Z"/><text x="2562" y="232.36" fill="#D9B8FF" font-family="Helvetica" font-size="17" textLength="174">kubernetes_csi_node</text></a><a xlink:actuate="onRequest" xlink:href="#f" xlink:show="new" xlink:title="#kubernetes_namespace" xlink:type="simple" target="_top"><rect id="f" width="239" height="39.789" x="1439.5" y="106.79" fill="#3D176E" rx="2.5" ry="2.5" style="stroke:#000d19;stroke-width:.5"/><circle cx="1454.5" cy="126.684" r="11" fill="#ADD1B2" style="stroke:#181818;stroke-width:1"/><path d="M1457.469 132.325q-.578.297-1.219.438-.64.156-1.344.156-2.5 0-3.828-1.64-1.312-1.657-1.312-4.782t1.312-4.781q1.328-1.656 3.828-1.656.703 0 1.344.156.656.156 1.219.453v2.719q-.625-.579-1.219-.844-.594-.281-1.219-.281-1.343 0-2.031 1.078-.688 1.062-.688 3.156 0 2.094.688 3.172.688 1.062 2.031 1.062.625 0 1.219-.265.594-.281 1.219-.86v2.72Z"/><text x="1473.5" y="132.57" fill="#D9B8FF" font-family="Helvetica" font-size="17" textLength="197">kubernetes_namespace</text></a><a xlink:actuate="onRequest" xlink:href="#g" xlink:show="new" xlink:title="#kubernetes_flow_schema" xlink:type="simple" target="_top"><rect id="g" width="254" height="39.789" x="1713" y="106.79" fill="#3D176E" rx="2.5" ry="2.5" style="stroke:#000d19;stroke-width:.5"/><circle cx="1728" cy="126.684" r="11" fill="#ADD1B2" style="stroke:#181818;stroke-width:1"/><path d="M1730.969 132.325q-.578.297-1.219.438-.64.156-1.344.156-2.5 0-3.828-1.64-1.312-1.657-1.312-4.782t1.312-4.781q1.328-1.656 3.828-1.656.703 0 1.344.156.656.156 1.219.453v2.719q-.625-.579-1.219-.844-.594-.281-1.219-.281-1.343 0-2.031 1.078-.688 1.062-.688 3.156 0 2.094.688 3.172.688 1.062 2.031 1.062.625 0 1.219-.265.594-.281 1.219-.86v2.72Z"/><text x="1747" y="132.57" fill="#D9B8FF" font-family="Helvetica" font-size="17" textLength="212">kubernetes_flow_schema</text></a><a xlink:actuate="onRequest" xlink:href="#h" xlink:show="new" xlink:title="#kubernetes_priority_level_configuration" xlink:type="simple" target="_top"><rect id="h" width="375" height="39.789" x="2001.5" y="106.79" fill="#3D176E" rx="2.5" ry="2.5" style="stroke:#000d19;stroke-width:.5"/><circle cx="2016.5" cy="126.684" r="11" fill="#ADD1B2" style="stroke:#181818;stroke-width:1"/><path d="M2019.469 132.325q-.578.297-1.219.438-.64.156-1.344.156-2.5 0-3.828-1.64-1.312-1.657-1.312-4.782t1.312-4.781q1.328-1.656 3.828-1.656.703 0 1.344.156.656.156 1.219.453v2.719q-.625-.579-1.219-.844-.594-.281-1.219-.281-1.343 0-2.031 1.078-.688 1.062-.688 3.156 0 2.094.688 3.172.688 1.062 2.031 1.062.625 0 1.219-.265.594-.281 1.219-.86v2.72Z"/><text x="2035.5" y="132.57" fill="#D9B8FF" font-family="Helvetica" font-size="17" textLength="333">kubernetes_priority_level_configuration</text></a><a xlink:actuate="onRequest" xlink:href="#i" xlink:show="new" xlink:title="#kubernetes_ingress_class" xlink:type="simple" target="_top"><rect id="i" width="252" height="39.789" x="2411" y="106.79" fill="#3D176E" rx="2.5" ry="2.5" style="stroke:#000d19;stroke-width:.5"/><circle cx="2426" cy="126.684" r="11" fill="#ADD1B2" style="stroke:#181818;stroke-width:1"/><path d="M2428.969 132.325q-.578.297-1.219.438-.64.156-1.344.156-2.5 0-3.828-1.64-1.312-1.657-1.312-4.782t1.312-4.781q1.328-1.656 3.828-1.656.703 0 1.344.156.656.156 1.219.453v2.719q-.625-.579-1.219-.844-.594-.281-1.219-.281-1.343 0-2.031 1.078-.688 1.062-.688 3.156 0 2.094.688 3.172.688 1.062 2.031 1.062.625 0 1.219-.265.594-.281 1.219-.86v2.72Z"/><text x="2445" y="132.57" fill="#D9B8FF" font-family="Helvetica" font-size="17" textLength="210">kubernetes_ingress_class</text></a><a xlink:actuate="onRequest" xlink:href="#j" xlink:show="new" xlink:title="#kubernetes_storage_class" xlink:type="simple" target="_top"><rect id="j" width="255" height="39.789" x="2698.5" y="106.79" fill="#3D176E" rx="2.5" ry="2.5" style="stroke:#000d19;stroke-width:.5"/><circle cx="2713.5" cy="126.684" r="11" fill="#ADD1B2" style="stroke:#181818;stroke-width:1"/><path d="M2716.469 132.325q-.578.297-1.219.438-.64.156-1.344.156-2.5 0-3.828-1.64-1.312-1.657-1.312-4.782t1.312-4.781q1.328-1.656 3.828-1.656.703 0 1.344.156.656.156 1.219.453v2.719q-.625-.579-1.219-.844-.594-.281-1.219-.281-1.343 0-2.031 1.078-.688 1.062-.688 3.156 0 2.094.688 3.172.688 1.062 2.031 1.062.625 0 1.219-.265.594-.281 1.219-.86v2.72Z"/><text x="2732.5" y="132.57" fill="#D9B8FF" font-family="Helvetica" font-size="17" textLength="213">kubernetes_storage_class</text></a><a xlink:actuate="onRequest" xlink:href="#k" xlink:show="new" xlink:title="#kubernetes_persistent_volume" xlink:type="simple" target="_top"><rect id="k" width="300" height="39.789" x="2989" y="106.79" fill="#3D176E" rx="2.5" ry="2.5" style="stroke:#000d19;stroke-width:.5"/><circle cx="3004" cy="126.684" r="11" fill="#ADD1B2" style="stroke:#181818;stroke-width:1"/><path d="M3006.969 132.325q-.578.297-1.219.438-.64.156-1.344.156-2.5 0-3.828-1.64-1.312-1.657-1.312-4.782t1.312-4.781q1.328-1.656 3.828-1.656.703 0 1.344.156.656.156 1.219.453v2.719q-.625-.579-1.219-.844-.594-.281-1.219-.281-1.343 0-2.031 1.078-.688 1.062-.688 3.156 0 2.094.688 3.172.688 1.062 2.031 1.062.625 0 1.219-.265.594-.281 1.219-.86v2.72Z"/><text x="3023" y="132.57" fill="#D9B8FF" font-family="Helvetica" font-size="17" textLength="258">kubernetes_persistent_volume</text></a><a xlink:actuate="onRequest" xlink:href="#l" xlink:show="new" xlink:title="#kubernetes_validating_webhook_configuration" xlink:type="simple" target="_top"><rect id="l" width="433" height="39.789" x="3324.5" y="106.79" fill="#3D176E" rx="2.5" ry="2.5" style="stroke:#000d19;stroke-width:.5"/><circle cx="3339.5" cy="126.684" r="11" fill="#ADD1B2" style="stroke:#181818;stroke-width:1"/><path d="M3342.469 132.325q-.578.297-1.219.438-.64.156-1.344.156-2.5 0-3.828-1.64-1.312-1.657-1.312-4.782t1.312-4.781q1.328-1.656 3.828-1.656.703 0 1.344.156.656.156 1.219.453v2.719q-.625-.579-1.219-.844-.594-.281-1.219-.281-1.343 0-2.031 1.078-.688 1.062-.688 3.156 0 2.094.688 3.172.688 1.062 2.031 1.062.625 0 1.219-.265.594-.281 1.219-.86v2.72Z"/><text x="3358.5" y="132.57" fill="#D9B8FF" font-family="Helvetica" font-size="17" textLength="391">kubernetes_validating_webhook_configuration</text></a><a xlink:actuate="onRequest" xlink:href="#m" xlink:show="new" xlink:title="#kubernetes_node" xlink:type="simple" target="_top"><rect id="m" width="186" height="39.789" x="3792" y="106.79" fill="#3D176E" rx="2.5" ry="2.5" style="stroke:#000d19;stroke-width:.5"/><circle cx="3807" cy="126.684" r="11" fill="#ADD1B2" style="stroke:#181818;stroke-width:1"/><path d="M3809.969 132.325q-.578.297-1.219.438-.64.156-1.344.156-2.5 0-3.828-1.64-1.312-1.657-1.312-4.782t1.312-4.781q1.328-1.656 3.828-1.656.703 0 1.344.156.656.156 1.219.453v2.719q-.625-.579-1.219-.844-.594-.281-1.219-.281-1.343 0-2.031 1.078-.688 1.062-.688 3.156 0 2.094.688 3.172.688 1.062 2.031 1.062.625 0 1.219-.265.594-.281 1.219-.86v2.72Z"/><text x="3826" y="132.57" fill="#D9B8FF" font-family="Helvetica" font-size="17" textLength="144">kubernetes_node</text></a><a xlink:actuate="onRequest" xlink:href="#n" xlink:show="new" xlink:title="#kubernetes_cluster_role" xlink:type="simple" target="_top"><rect id="n" width="242" height="39.789" x="4013" y="106.79" fill="#3D176E" rx="2.5" ry="2.5" style="stroke:#000d19;stroke-width:.5"/><circle cx="4028" cy="126.684" r="11" fill="#ADD1B2" style="stroke:#181818;stroke-width:1"/><path d="M4030.969 132.325q-.578.297-1.219.438-.64.156-1.344.156-2.5 0-3.828-1.64-1.312-1.657-1.312-4.782t1.312-4.781q1.328-1.656 3.828-1.656.703 0 1.344.156.656.156 1.219.453v2.719q-.625-.579-1.219-.844-.594-.281-1.219-.281-1.343 0-2.031 1.078-.688 1.062-.688 3.156 0 2.094.688 3.172.688 1.062 2.031 1.062.625 0 1.219-.265.594-.281 1.219-.86v2.72Z"/><text x="4047" y="132.57" fill="#D9B8FF" font-family="Helvetica" font-size="17" textLength="200">kubernetes_cluster_role</text></a><a xlink:actuate="onRequest" xlink:href="#o" xlink:show="new" xlink:title="#kubernetes_cluster_role_binding" xlink:type="simple" target="_top"><rect id="o" width="313" height="39.789" x="4289.5" y="106.79" fill="#3D176E" rx="2.5" ry="2.5" style="stroke:#000d19;stroke-width:.5"/><circle cx="4304.5" cy="126.684" r="11" fill="#ADD1B2" style="stroke:#181818;stroke-width:1"/><path d="M4307.469 132.325q-.578.297-1.219.438-.64.156-1.344.156-2.5 0-3.828-1.64-1.312-1.657-1.312-4.782t1.312-4.781q1.328-1.656 3.828-1.656.703 0 1.344.156.656.156 1.219.453v2.719q-.625-.579-1.219-.844-.594-.281-1.219-.281-1.343 0-2.031 1.078-.688 1.062-.688 3.156 0 2.094.688 3.172.688 1.062 2.031 1.062.625 0 1.219-.265.594-.281 1.219-.86v2.72Z"/><text x="4323.5" y="132.57" fill="#D9B8FF" font-family="Helvetica" font-size="17" textLength="271">kubernetes_cluster_role_binding</text></a><a xlink:actuate="onRequest" xlink:href="#p" xlink:show="new" xlink:title="#kubernetes_cluster" xlink:type="simple" target="_top"><rect id="p" width="201" height="39.789" x="2088.5" y="7" fill="#3D176E" rx="2.5" ry="2.5" style="stroke:#000d19;stroke-width:.5"/><circle cx="2103.5" cy="26.895" r="11" fill="#ADD1B2" style="stroke:#181818;stroke-width:1"/><path d="M2106.469 32.535q-.578.297-1.219.438-.64.156-1.344.156-2.5 0-3.828-1.64-1.312-1.657-1.312-4.782t1.312-4.781q1.328-1.656 3.828-1.656.703 0 1.344.156.656.156 1.219.453v2.719q-.625-.578-1.219-.844-.594-.281-1.219-.281-1.343 0-2.031 1.078-.688 1.062-.688 3.156 0 2.094.688 3.172.688 1.062 2.031 1.062.625 0 1.219-.265.594-.281 1.219-.86v2.72Z"/><text x="2122.5" y="32.78" fill="#D9B8FF" font-family="Helvetica" font-size="17" textLength="159">kubernetes_cluster</text></a><path fill="none" d="M3791.78 144.37c-5.67.81-11.3 1.55-16.78 2.21-373.62 44.91-819.49 66.6-1024.98 74.81" style="stroke:#1a83af;stroke-width:2"/><path fill="#1A83AF" d="m2745.31 221.62 9.142 3.663-4.145-3.849 3.848-4.145-8.845 4.331z" style="stroke:#1a83af;stroke-width:2"/><path fill="none" d="M2088.3 32.43c-204.99 9.71-685.39 34.87-1087.3 74.36-3.9.39-7.87.79-11.86 1.22" style="stroke:#1a83af;stroke-width:2"/><path fill="#1A83AF" d="m984.26 108.64 9.381 3-4.41-3.543 3.542-4.41-8.513 4.953z" style="stroke:#1a83af;stroke-width:2"/><path fill="none" d="M2289.94 29.21c301.45 4.44 1221.41 21.95 1982.06 77.58 3.68.27 7.4.56 11.15.86" style="stroke:#1a83af;stroke-width:2"/><path fill="#1A83AF" d="m4288.07 108.13-8.638-4.731 3.655 4.317-4.317 3.655 9.3-3.241z" style="stroke:#1a83af;stroke-width:2"/><path fill="none" d="M2289.93 43.39c109.3 16.78 284.08 43.61 404.17 62.05" style="stroke:#1a83af;stroke-width:2"/><path fill="#1A83AF" d="m2698.78 106.31-8.29-5.317 3.348 4.56-4.56 3.348 9.502-2.591z" style="stroke:#1a83af;stroke-width:2"/><path fill="none" d="M2257.75 47.22c59.13 16.61 144.23 40.52 204.92 57.58" style="stroke:#1a83af;stroke-width:2"/><path fill="#1A83AF" d="m2467.09 106.32-7.594-6.271 2.778 4.928-4.928 2.778 9.744-1.435z" style="stroke:#1a83af;stroke-width:2"/><path fill="none" d="M2120.05 47.22c-59.3 16.61-144.64 40.52-205.5 57.58" style="stroke:#1a83af;stroke-width:2"/><path fill="#1A83AF" d="m1910.11 106.32 9.744 1.435-4.928-2.778 2.778-4.928-7.594 6.271z" style="stroke:#1a83af;stroke-width:2"/><path fill="none" d="M2088.17 28.26C1859.63 30.81 1329 47.34 1422 146.58c37.3 39.8 805.2 66.75 1100.07 75.66" style="stroke:#1a83af;stroke-width:2"/><path fill="#1A83AF" d="m2526.66 222.41-8.87-4.28 3.872 4.123-4.123 3.872 9.121-3.715z" style="stroke:#1a83af;stroke-width:2"/><path fill="none" d="M2088.13 43.55c-109.67 17.03-285.09 44.26-403.59 62.65" style="stroke:#1a83af;stroke-width:2"/><path fill="#1A83AF" d="m1679.94 107.07 9.51 2.564-4.57-3.335 3.335-4.569-8.275 5.34z" style="stroke:#1a83af;stroke-width:2"/><path fill="none" d="M2289.56 29.07c274.1 3.88 1057.21 19.63 1705.44 77.72 3.91.35 7.88.73 11.89 1.14" style="stroke:#1a83af;stroke-width:2"/><path fill="#1A83AF" d="m4011.78 108.54-8.54-4.905 3.567 4.39-4.39 3.568 9.363-3.053z" style="stroke:#1a83af;stroke-width:2"/><path fill="none" d="M2289.62 34.66c195.9 13.23 642.18 43.75 1017.38 72.13 3.73.28 7.5.57 11.29.86" style="stroke:#1a83af;stroke-width:2"/><path fill="#1A83AF" d="m3323.28 108.11-8.678-4.658 3.692 4.287-4.286 3.691 9.272-3.32z" style="stroke:#1a83af;stroke-width:2"/><path fill="none" d="M2289.96 37.71c149.02 14.57 436.64 43.01 681.04 69.08 3.92.42 7.89.85 11.9 1.28" style="stroke:#1a83af;stroke-width:2"/><path fill="#1A83AF" d="m2987.8 108.71-8.513-4.953 3.543 4.41-4.411 3.542 9.381-2.999z" style="stroke:#1a83af;stroke-width:2"/><path fill="none" d="M2088.29 37.27c-155.9 14.56-465.03 43.64-727.29 69.52-7.04.7-14.23 1.41-21.5 2.14" style="stroke:#1a83af;stroke-width:2"/><path fill="#1A83AF" d="m1334.94 109.48 9.354 3.082-4.379-3.58 3.58-4.38-8.555 4.878z" style="stroke:#1a83af;stroke-width:2"/><path fill="none" d="M2088.4 30.07c-239.27 5.87-860.9 25.22-1377.4 76.72-3.55.36-7.15.74-10.78 1.14" style="stroke:#1a83af;stroke-width:2"/><path fill="#1A83AF" d="m695.49 108.59 9.398 2.946-4.43-3.517 3.516-4.43-8.484 5.001z" style="stroke:#1a83af;stroke-width:2"/><path fill="none" d="M2290 28.71c251.6 2.94 926.33 16.43 1485 78.08 3.6.4 7.27.84 10.96 1.31" style="stroke:#1a83af;stroke-width:2"/><path fill="#1A83AF" d="m3790.79 108.88-8.394-5.151 3.438 4.492-4.493 3.438 9.449-2.779z" style="stroke:#1a83af;stroke-width:2"/><path fill="none" d="M2088.15 31.22C1821.2 40.27 1074.01 67.41 453 106.79c-3.93.25-7.9.51-11.89.77" style="stroke:#1a83af;stroke-width:2"/><path fill="#1A83AF" d="m436.24 107.96 9.244 3.4-4.255-3.729 3.728-4.254-8.717 4.583z" style="stroke:#1a83af;stroke-width:2"/><path fill="none" d="M2189 47.22v53.31" style="stroke:#1a83af;stroke-width:2"/><path fill="#1A83AF" d="m2189 105.41 4-9-4 4-4-4 4 9z" style="stroke:#1a83af;stroke-width:2"/></svg>