<svg xmlns="http://www.w3.org/2000/svg" width="480" height="451" viewBox="0 0 480 451"><rect width="231" height="39.789" x="7" y="106.79" fill="#3D176E" rx="2.5" ry="2.5" style="stroke:#000d19;stroke-width:.5"/><circle cx="22" cy="126.684" r="11" fill="#ADD1B2" style="stroke:#181818;stroke-width:1"/><path d="M24.969 132.325q-.578.297-1.219.438-.64.156-1.344.156-2.5 0-3.828-1.64-1.312-1.657-1.312-4.782t1.312-4.781q1.328-1.656 3.828-1.656.703 0 1.344.156.656.156 1.219.453v2.719q-.625-.579-1.219-.844-.594-.281-1.219-.281-1.343 0-2.031 1.078-.687 1.062-.687 3.156t.687 3.172q.688 1.062 2.031 1.062.625 0 1.219-.265.594-.281 1.219-.86z"/><text x="41" y="132.57" fill="#D9B8FF" font-family="Helvetica" font-size="17" textLength="189">aws_ec2_nat_gateway</text><rect width="275" height="39.789" x="198" y="406.16" fill="#3D176E" rx="2.5" ry="2.5" style="stroke:#000d19;stroke-width:.5"/><circle cx="213" cy="426.055" r="11" fill="#ADD1B2" style="stroke:#181818;stroke-width:1"/><path d="M215.969 431.695q-.578.297-1.219.438-.64.156-1.344.156-2.5 0-3.828-1.64-1.312-1.657-1.312-4.782t1.312-4.781q1.328-1.656 3.828-1.656.703 0 1.344.156.656.156 1.219.453v2.719q-.625-.578-1.219-.844-.594-.281-1.219-.281-1.344 0-2.031 1.078-.687 1.062-.687 3.156t.687 3.172q.688 1.062 2.031 1.062.625 0 1.219-.265.594-.281 1.219-.86z"/><text x="232" y="431.94" fill="#D9B8FF" font-family="Helvetica" font-size="17" textLength="233">aws_ec2_network_interface</text><rect width="179" height="39.789" x="175" y="306.37" fill="#3D176E" rx="2.5" ry="2.5" style="stroke:#000d19;stroke-width:.5"/><circle cx="190" cy="326.264" r="11" fill="#ADD1B2" style="stroke:#181818;stroke-width:1"/><path d="M192.969 331.905q-.578.297-1.219.438-.64.156-1.344.156-2.5 0-3.828-1.64-1.312-1.657-1.312-4.782t1.312-4.781q1.328-1.656 3.828-1.656.703 0 1.344.156.656.156 1.219.453v2.719q-.625-.579-1.219-.844-.594-.281-1.219-.281-1.344 0-2.031 1.078-.687 1.062-.687 3.156t.687 3.172q.688 1.062 2.031 1.062.625 0 1.219-.265.594-.281 1.219-.86z"/><text x="209" y="332.15" fill="#D9B8FF" font-family="Helvetica" font-size="17" textLength="137">aws_ec2_subnet</text><rect width="137" height="39.789" x="263" y="7" fill="#3D176E" rx="2.5" ry="2.5" style="stroke:#000d19;stroke-width:.5"/><circle cx="278" cy="26.895" r="11" fill="#ADD1B2" style="stroke:#181818;stroke-width:1"/><path d="M280.969 32.535q-.578.297-1.219.438-.64.156-1.344.156-2.5 0-3.828-1.64-1.312-1.657-1.312-4.782t1.312-4.781q1.328-1.656 3.828-1.656.703 0 1.344.156.656.156 1.219.453v2.719q-.625-.578-1.219-.844-.594-.281-1.219-.281-1.344 0-2.031 1.078-.687 1.062-.687 3.156t.687 3.172q.688 1.062 2.031 1.062.625 0 1.219-.265.594-.281 1.219-.86z"/><text x="297" y="32.78" fill="#D9B8FF" font-family="Helvetica" font-size="17" textLength="95">aws_region</text><rect width="112" height="39.789" x="317.5" y="206.58" fill="#3D176E" rx="2.5" ry="2.5" style="stroke:#000d19;stroke-width:.5"/><circle cx="332.5" cy="226.475" r="11" fill="#ADD1B2" style="stroke:#181818;stroke-width:1"/><path d="M335.469 232.115q-.578.297-1.219.438-.64.156-1.344.156-2.5 0-3.828-1.64-1.312-1.657-1.312-4.782t1.312-4.781q1.328-1.656 3.828-1.656.703 0 1.344.156.656.156 1.219.453v2.719q-.625-.578-1.219-.844-.594-.281-1.219-.281-1.344 0-2.031 1.078-.687 1.062-.687 3.156t.687 3.172q.688 1.062 2.031 1.062.625 0 1.219-.265.594-.281 1.219-.86z"/><text x="351.5" y="232.36" fill="#D9B8FF" font-family="Helvetica" font-size="17" textLength="70">aws_vpc</text><path fill="none" d="M119.93 146.97c-4.39 41.19-8.83 138.93 37.57 199.19 22.48 29.19 52.43 45.839 85.91 57.619" style="stroke:#1a83af;stroke-width:2"/><path fill="#1A83AF" d="m249.07 405.77-7.162-6.76 2.445 5.1-5.1 2.446z" style="stroke:#1a83af;stroke-width:2"/><path fill="none" d="M136.37 146.99c27.15 37.77 83.508 116.188 110.698 154.018" style="stroke:#1a83af;stroke-width:2"/><path fill="#1A83AF" d="m250.57 305.88-2.005-9.643-.913 5.583-5.583-.914z" style="stroke:#1a83af;stroke-width:2"/><path fill="none" d="M172.09 147.01c44 17.14 102.36 39.882 146.33 57.012" style="stroke:#1a83af;stroke-width:2"/><path fill="#1A83AF" d="m324.01 206.2-6.934-6.994 2.275 5.179-5.18 2.275z" style="stroke:#1a83af;stroke-width:2"/><path fill="none" d="M278.53 346.59c12.44 17.14 27.006 37.194 39.446 54.334" style="stroke:#1a83af;stroke-width:2"/><path fill="#1A83AF" d="m321.5 405.78-2.05-9.633-.887 5.587-5.587-.888z" style="stroke:#1a83af;stroke-width:2"/><path fill="none" d="M290.21 47.22c-36.64 17.14-84.455 39.517-121.065 56.647" style="stroke:#1a83af;stroke-width:2"/><path fill="#1A83AF" d="m163.71 106.41 9.847-.191-5.318-1.928 1.928-5.318z" style="stroke:#1a83af;stroke-width:2"/><path fill="none" d="M349.5 47.12c27.48 30.8 78.73 94.39 98 159.46 23.3 78.67-47.422 158.425-86.102 195.206" style="stroke:#1a83af;stroke-width:2"/><path fill="#1A83AF" d="m357.05 405.92 9.279-3.303-5.656-.142.143-5.656z" style="stroke:#1a83af;stroke-width:2"/><path fill="none" d="M327.21 46.95c-12.08 53.59-44.91 199.327-57.05 253.187" style="stroke:#1a83af;stroke-width:2"/><path fill="#1A83AF" d="m268.84 305.99 5.881-7.9-4.782 3.022-3.022-4.781z" style="stroke:#1a83af;stroke-width:2"/><path fill="none" d="M335.6 47.2c8.03 37.78 24.493 115.191 32.533 153.021" style="stroke:#1a83af;stroke-width:2"/><path fill="#1A83AF" d="m369.38 206.09 2.042-9.635-3.081 4.744-4.745-3.08z" style="stroke:#1a83af;stroke-width:2"/><path fill="none" d="M375.56 246.67c2 23.71 3.72 65.12-4.06 99.49-4.85 21.44-12.974 38.84-21.554 54.34" style="stroke:#1a83af;stroke-width:2"/><path fill="#1A83AF" d="m347.04 405.75 7.858-5.937-5.437 1.563-1.562-5.437z" style="stroke:#1a83af;stroke-width:2"/><path fill="none" d="M351.97 246.8c-19.11 17.14-42.414 38.043-61.514 55.183" style="stroke:#1a83af;stroke-width:2"/><path fill="#1A83AF" d="m285.99 305.99 9.37-3.034-5.649-.305.306-5.649z" style="stroke:#1a83af;stroke-width:2"/></svg>