<?xml version="1.0" encoding="us-ascii" standalone="no"?><svg xmlns="http://www.w3.org/2000/svg" xmlns:xlink="http://www.w3.org/1999/xlink" contentStyleType="text/css" height="1482px" preserveAspectRatio="none" style="width:817px;height:1482px;" version="1.1" viewBox="0 0 817 1482" width="817px" zoomAndPan="magnify"><defs/><g><!--class aws_ec2_route--><g id="elem_aws_ec2_route"><rect codeLine="22" fill="#3D176E" height="468.5391" id="aws_ec2_route" rx="2.5" ry="2.5" style="stroke:#000D19;stroke-width:0.5;" width="330" x="7" y="846.82"/><ellipse cx="100.25" cy="866.7145" fill="#ADD1B2" rx="11" ry="11" style="stroke:#181818;stroke-width:1.0;"/><path d="M103.2188,872.3552 Q102.6406,872.652 102,872.7927 Q101.3594,872.9489 100.6563,872.9489 Q98.1563,872.9489 96.8281,871.3083 Q95.5156,869.652 95.5156,866.527 Q95.5156,863.402 96.8281,861.7458 Q98.1563,860.0895 100.6563,860.0895 Q101.3594,860.0895 102,860.2458 Q102.6563,860.402 103.2188,860.6989 L103.2188,863.4177 Q102.5938,862.8395 102,862.5739 Q101.4063,862.2927 100.7813,862.2927 Q99.4375,862.2927 98.75,863.3708 Q98.0625,864.4333 98.0625,866.527 Q98.0625,868.6208 98.75,869.6989 Q99.4375,870.7614 100.7813,870.7614 Q101.4063,870.7614 102,870.4958 Q102.5938,870.2145 103.2188,869.6364 L103.2188,872.3552 Z " fill="#000000"/><text fill="#D9B8FF" font-family="Helvetica" font-size="17" lengthAdjust="spacing" textLength="125" x="125.75" y="872.5998">aws_ec2_route</text><line style="stroke:#000D19;stroke-width:0.5;" x1="8" x2="336" y1="886.6091" y2="886.6091"/><text fill="#D9B8FF" font-family="sans-serif" font-size="14" font-weight="bold" lengthAdjust="spacing" textLength="148" x="18" y="908.6042">carrier_gateway_id</text><text fill="#D9B8FF" font-family="sans-serif" font-size="14" lengthAdjust="spacing" textLength="48" x="166" y="908.6042">: string</text><text fill="#D9B8FF" font-family="sans-serif" font-size="14" font-weight="bold" lengthAdjust="spacing" textLength="142" x="18" y="934.9011">core_network_arn</text><text fill="#D9B8FF" font-family="sans-serif" font-size="14" lengthAdjust="spacing" textLength="48" x="160" y="934.9011">: string</text><text fill="#D9B8FF" font-family="sans-serif" font-size="14" font-weight="bold" lengthAdjust="spacing" textLength="174" x="18" y="961.1979">destination_cidr_block</text><text fill="#D9B8FF" font-family="sans-serif" font-size="14" lengthAdjust="spacing" textLength="48" x="192" y="961.1979">: string</text><text fill="#D9B8FF" font-family="sans-serif" font-size="14" font-weight="bold" lengthAdjust="spacing" textLength="214" x="18" y="987.4948">destination_ipv6_cidr_block</text><text fill="#D9B8FF" font-family="sans-serif" font-size="14" lengthAdjust="spacing" textLength="48" x="232" y="987.4948">: string</text><text fill="#D9B8FF" font-family="sans-serif" font-size="14" font-weight="bold" lengthAdjust="spacing" textLength="192" x="18" y="1013.7917">destination_prefix_list_id</text><text fill="#D9B8FF" font-family="sans-serif" font-size="14" lengthAdjust="spacing" textLength="48" x="210" y="1013.7917">: string</text><text fill="#D9B8FF" font-family="sans-serif" font-size="14" font-weight="bold" lengthAdjust="spacing" textLength="260" x="18" y="1040.0886">egress_only_internet_gateway_id</text><text fill="#D9B8FF" font-family="sans-serif" font-size="14" lengthAdjust="spacing" textLength="48" x="278" y="1040.0886">: string</text><text fill="#D9B8FF" font-family="sans-serif" font-size="14" font-weight="bold" lengthAdjust="spacing" textLength="88" x="18" y="1066.3854">gateway_id</text><text fill="#D9B8FF" font-family="sans-serif" font-size="14" lengthAdjust="spacing" textLength="48" x="106" y="1066.3854">: string</text><text fill="#D9B8FF" font-family="sans-serif" font-size="14" font-weight="bold" lengthAdjust="spacing" textLength="88" x="18" y="1092.6823">instance_id</text><text fill="#D9B8FF" font-family="sans-serif" font-size="14" lengthAdjust="spacing" textLength="48" x="106" y="1092.6823">: string</text><text fill="#D9B8FF" font-family="sans-serif" font-size="14" font-weight="bold" lengthAdjust="spacing" textLength="146" x="18" y="1118.9792">instance_owner_id</text><text fill="#D9B8FF" font-family="sans-serif" font-size="14" lengthAdjust="spacing" textLength="48" x="164" y="1118.9792">: string</text><text fill="#D9B8FF" font-family="sans-serif" font-size="14" font-weight="bold" lengthAdjust="spacing" textLength="131" x="18" y="1145.2761">local_gateway_id</text><text fill="#D9B8FF" font-family="sans-serif" font-size="14" lengthAdjust="spacing" textLength="48" x="149" y="1145.2761">: string</text><text fill="#D9B8FF" font-family="sans-serif" font-size="14" font-weight="bold" lengthAdjust="spacing" textLength="120" x="18" y="1171.5729">nat_gateway_id</text><text fill="#D9B8FF" font-family="sans-serif" font-size="14" lengthAdjust="spacing" textLength="48" x="138" y="1171.5729">: string</text><text fill="#D9B8FF" font-family="sans-serif" font-size="14" font-weight="bold" lengthAdjust="spacing" textLength="165" x="18" y="1197.8698">network_interface_id</text><text fill="#D9B8FF" font-family="sans-serif" font-size="14" lengthAdjust="spacing" textLength="48" x="183" y="1197.8698">: string</text><text fill="#D9B8FF" font-family="sans-serif" font-size="14" font-weight="bold" lengthAdjust="spacing" textLength="45" x="18" y="1224.1667">origin</text><text fill="#D9B8FF" font-family="sans-serif" font-size="14" lengthAdjust="spacing" textLength="48" x="63" y="1224.1667">: string</text><text fill="#D9B8FF" font-family="sans-serif" font-size="14" font-weight="bold" lengthAdjust="spacing" textLength="40" x="18" y="1250.4636">state</text><text fill="#D9B8FF" font-family="sans-serif" font-size="14" lengthAdjust="spacing" textLength="48" x="58" y="1250.4636">: string</text><text fill="#D9B8FF" font-family="sans-serif" font-size="14" font-weight="bold" lengthAdjust="spacing" textLength="146" x="18" y="1276.7604">transit_gateway_id</text><text fill="#D9B8FF" font-family="sans-serif" font-size="14" lengthAdjust="spacing" textLength="48" x="164" y="1276.7604">: string</text><text fill="#D9B8FF" font-family="sans-serif" font-size="14" font-weight="bold" lengthAdjust="spacing" textLength="212" x="18" y="1303.0573">vpc_peering_connection_id</text><text fill="#D9B8FF" font-family="sans-serif" font-size="14" lengthAdjust="spacing" textLength="48" x="230" y="1303.0573">: string</text></g><!--class aws_ec2_route_table--><g id="elem_aws_ec2_route_table"><rect codeLine="40" fill="#3D176E" height="152.9766" id="aws_ec2_route_table" rx="2.5" ry="2.5" style="stroke:#000D19;stroke-width:0.5;" width="465" x="148.5" y="633.84"/><ellipse cx="283.75" cy="653.7345" fill="#ADD1B2" rx="11" ry="11" style="stroke:#181818;stroke-width:1.0;"/><path d="M286.7188,659.3752 Q286.1406,659.672 285.5,659.8127 Q284.8594,659.9689 284.1563,659.9689 Q281.6563,659.9689 280.3281,658.3283 Q279.0156,656.672 279.0156,653.547 Q279.0156,650.422 280.3281,648.7658 Q281.6563,647.1095 284.1563,647.1095 Q284.8594,647.1095 285.5,647.2658 Q286.1563,647.422 286.7188,647.7189 L286.7188,650.4377 Q286.0938,649.8595 285.5,649.5939 Q284.9063,649.3127 284.2813,649.3127 Q282.9375,649.3127 282.25,650.3908 Q281.5625,651.4533 281.5625,653.547 Q281.5625,655.6408 282.25,656.7189 Q282.9375,657.7814 284.2813,657.7814 Q284.9063,657.7814 285.5,657.5158 Q286.0938,657.2345 286.7188,656.6564 L286.7188,659.3752 Z " fill="#000000"/><text fill="#D9B8FF" font-family="Helvetica" font-size="17" lengthAdjust="spacing" textLength="176" x="309.25" y="659.6198">aws_ec2_route_table</text><line style="stroke:#000D19;stroke-width:0.5;" x1="149.5" x2="612.5" y1="673.6291" y2="673.6291"/><text fill="#D9B8FF" font-family="sans-serif" font-size="14" font-weight="bold" lengthAdjust="spacing" textLength="72" x="159.5" y="695.6242">owner_id</text><text fill="#D9B8FF" font-family="sans-serif" font-size="14" lengthAdjust="spacing" textLength="48" x="231.5" y="695.6242">: string</text><text fill="#D9B8FF" font-family="sans-serif" font-size="14" font-weight="bold" lengthAdjust="spacing" textLength="194" x="159.5" y="721.9211">route_table_associations</text><text fill="#D9B8FF" font-family="sans-serif" font-size="14" lengthAdjust="spacing" textLength="249" x="353.5" y="721.9211">: aws_ec2_route_table_association[]</text><text fill="#D9B8FF" font-family="sans-serif" font-size="14" font-weight="bold" lengthAdjust="spacing" textLength="240" x="159.5" y="748.2179">route_table_propagating_vgws</text><text fill="#D9B8FF" font-family="sans-serif" font-size="14" lengthAdjust="spacing" textLength="58" x="399.5" y="748.2179">: string[]</text><text fill="#D9B8FF" font-family="sans-serif" font-size="14" font-weight="bold" lengthAdjust="spacing" textLength="148" x="159.5" y="774.5148">route_table_routes</text><text fill="#D9B8FF" font-family="sans-serif" font-size="14" lengthAdjust="spacing" textLength="123" x="307.5" y="774.5148">: aws_ec2_route[]</text></g><!--class aws_ec2_route_table_association--><g id="elem_aws_ec2_route_table_association"><rect codeLine="46" fill="#3D176E" height="205.5703" id="aws_ec2_route_table_association" rx="2.5" ry="2.5" style="stroke:#000D19;stroke-width:0.5;" width="439" x="371.5" y="978.3"/><ellipse cx="443.25" cy="998.1945" fill="#ADD1B2" rx="11" ry="11" style="stroke:#181818;stroke-width:1.0;"/><path d="M446.2188,1003.8352 Q445.6406,1004.132 445,1004.2727 Q444.3594,1004.4289 443.6563,1004.4289 Q441.1563,1004.4289 439.8281,1002.7883 Q438.5156,1001.132 438.5156,998.007 Q438.5156,994.882 439.8281,993.2258 Q441.1563,991.5695 443.6563,991.5695 Q444.3594,991.5695 445,991.7258 Q445.6563,991.882 446.2188,992.1789 L446.2188,994.8977 Q445.5938,994.3195 445,994.0539 Q444.4063,993.7727 443.7813,993.7727 Q442.4375,993.7727 441.75,994.8508 Q441.0625,995.9133 441.0625,998.007 Q441.0625,1000.1008 441.75,1001.1789 Q442.4375,1002.2414 443.7813,1002.2414 Q444.4063,1002.2414 445,1001.9758 Q445.5938,1001.6945 446.2188,1001.1164 L446.2188,1003.8352 Z " fill="#000000"/><text fill="#D9B8FF" font-family="Helvetica" font-size="17" lengthAdjust="spacing" textLength="277" x="468.75" y="1004.0798">aws_ec2_route_table_association</text><line style="stroke:#000D19;stroke-width:0.5;" x1="372.5" x2="809.5" y1="1018.0891" y2="1018.0891"/><text fill="#D9B8FF" font-family="sans-serif" font-size="14" font-weight="bold" lengthAdjust="spacing" textLength="136" x="382.5" y="1040.0842">association_state</text><text fill="#D9B8FF" font-family="sans-serif" font-size="14" lengthAdjust="spacing" textLength="281" x="518.5" y="1040.0842">: aws_ec2_route_table_association_state</text><text fill="#D9B8FF" font-family="sans-serif" font-size="14" font-weight="bold" lengthAdjust="spacing" textLength="88" x="382.5" y="1066.3811">gateway_id</text><text fill="#D9B8FF" font-family="sans-serif" font-size="14" lengthAdjust="spacing" textLength="48" x="470.5" y="1066.3811">: string</text><text fill="#D9B8FF" font-family="sans-serif" font-size="14" font-weight="bold" lengthAdjust="spacing" textLength="37" x="382.5" y="1092.6779">main</text><text fill="#D9B8FF" font-family="sans-serif" font-size="14" lengthAdjust="spacing" textLength="65" x="419.5" y="1092.6779">: boolean</text><text fill="#D9B8FF" font-family="sans-serif" font-size="14" font-weight="bold" lengthAdjust="spacing" textLength="206" x="382.5" y="1118.9748">route_table_association_id</text><text fill="#D9B8FF" font-family="sans-serif" font-size="14" lengthAdjust="spacing" textLength="48" x="588.5" y="1118.9748">: string</text><text fill="#D9B8FF" font-family="sans-serif" font-size="14" font-weight="bold" lengthAdjust="spacing" textLength="110" x="382.5" y="1145.2717">route_table_id</text><text fill="#D9B8FF" font-family="sans-serif" font-size="14" lengthAdjust="spacing" textLength="48" x="492.5" y="1145.2717">: string</text><text fill="#D9B8FF" font-family="sans-serif" font-size="14" font-weight="bold" lengthAdjust="spacing" textLength="76" x="382.5" y="1171.5686">subnet_id</text><text fill="#D9B8FF" font-family="sans-serif" font-size="14" lengthAdjust="spacing" textLength="48" x="458.5" y="1171.5686">: string</text></g><!--class aws_ec2_route_table_association_state--><g id="elem_aws_ec2_route_table_association_state"><rect codeLine="54" fill="#3D176E" height="100.3828" id="aws_ec2_route_table_association_state" rx="2.5" ry="2.5" style="stroke:#000D19;stroke-width:0.5;" width="370" x="406" y="1375.36"/><ellipse cx="421" cy="1395.2545" fill="#ADD1B2" rx="11" ry="11" style="stroke:#181818;stroke-width:1.0;"/><path d="M423.9688,1400.8952 Q423.3906,1401.192 422.75,1401.3327 Q422.1094,1401.4889 421.4063,1401.4889 Q418.9063,1401.4889 417.5781,1399.8483 Q416.2656,1398.192 416.2656,1395.067 Q416.2656,1391.942 417.5781,1390.2858 Q418.9063,1388.6295 421.4063,1388.6295 Q422.1094,1388.6295 422.75,1388.7858 Q423.4063,1388.942 423.9688,1389.2389 L423.9688,1391.9577 Q423.3438,1391.3795 422.75,1391.1139 Q422.1563,1390.8327 421.5313,1390.8327 Q420.1875,1390.8327 419.5,1391.9108 Q418.8125,1392.9733 418.8125,1395.067 Q418.8125,1397.1608 419.5,1398.2389 Q420.1875,1399.3014 421.5313,1399.3014 Q422.1563,1399.3014 422.75,1399.0358 Q423.3438,1398.7545 423.9688,1398.1764 L423.9688,1400.8952 Z " fill="#000000"/><text fill="#D9B8FF" font-family="Helvetica" font-size="17" lengthAdjust="spacing" textLength="328" x="440" y="1401.1398">aws_ec2_route_table_association_state</text><line style="stroke:#000D19;stroke-width:0.5;" x1="407" x2="775" y1="1415.1491" y2="1415.1491"/><text fill="#D9B8FF" font-family="sans-serif" font-size="14" font-weight="bold" lengthAdjust="spacing" textLength="40" x="417" y="1437.1442">state</text><text fill="#D9B8FF" font-family="sans-serif" font-size="14" lengthAdjust="spacing" textLength="48" x="457" y="1437.1442">: string</text><text fill="#D9B8FF" font-family="sans-serif" font-size="14" font-weight="bold" lengthAdjust="spacing" textLength="127" x="417" y="1463.4411">status_message</text><text fill="#D9B8FF" font-family="sans-serif" font-size="14" lengthAdjust="spacing" textLength="48" x="544" y="1463.4411">: string</text></g><!--class aws_resource--><g id="elem_aws_resource"><rect codeLine="58" fill="#3D176E" height="74.0859" id="aws_resource" rx="2.5" ry="2.5" style="stroke:#000D19;stroke-width:0.5;" width="155" x="209.5" y="438.76"/><ellipse cx="224.5" cy="458.6545" fill="#ADD1B2" rx="11" ry="11" style="stroke:#181818;stroke-width:1.0;"/><path d="M227.4688,464.2952 Q226.8906,464.592 226.25,464.7327 Q225.6094,464.8889 224.9063,464.8889 Q222.4063,464.8889 221.0781,463.2483 Q219.7656,461.592 219.7656,458.467 Q219.7656,455.342 221.0781,453.6858 Q222.4063,452.0295 224.9063,452.0295 Q225.6094,452.0295 226.25,452.1858 Q226.9063,452.342 227.4688,452.6389 L227.4688,455.3577 Q226.8438,454.7795 226.25,454.5139 Q225.6563,454.2327 225.0313,454.2327 Q223.6875,454.2327 223,455.3108 Q222.3125,456.3733 222.3125,458.467 Q222.3125,460.5608 223,461.6389 Q223.6875,462.7014 225.0313,462.7014 Q225.6563,462.7014 226.25,462.4358 Q226.8438,462.1545 227.4688,461.5764 L227.4688,464.2952 Z " fill="#000000"/><text fill="#D9B8FF" font-family="Helvetica" font-size="17" lengthAdjust="spacing" textLength="113" x="243.5" y="464.5398">aws_resource</text><line style="stroke:#000D19;stroke-width:0.5;" x1="210.5" x2="363.5" y1="478.5491" y2="478.5491"/><text fill="#D9B8FF" font-family="sans-serif" font-size="14" font-weight="bold" lengthAdjust="spacing" textLength="26" x="220.5" y="500.5442">arn</text><text fill="#D9B8FF" font-family="sans-serif" font-size="14" lengthAdjust="spacing" textLength="48" x="246.5" y="500.5442">: string</text></g><!--class resource--><g id="elem_resource"><rect codeLine="61" fill="#3D176E" height="310.7578" id="resource" rx="2.5" ry="2.5" style="stroke:#000D19;stroke-width:0.5;" width="227" x="267.5" y="7"/><ellipse cx="336.25" cy="26.8945" fill="#ADD1B2" rx="11" ry="11" style="stroke:#181818;stroke-width:1.0;"/><path d="M339.2188,32.5352 Q338.6406,32.832 338,32.9727 Q337.3594,33.1289 336.6563,33.1289 Q334.1563,33.1289 332.8281,31.4883 Q331.5156,29.832 331.5156,26.707 Q331.5156,23.582 332.8281,21.9258 Q334.1563,20.2695 336.6563,20.2695 Q337.3594,20.2695 338,20.4258 Q338.6563,20.582 339.2188,20.8789 L339.2188,23.5977 Q338.5938,23.0195 338,22.7539 Q337.4063,22.4727 336.7813,22.4727 Q335.4375,22.4727 334.75,23.5508 Q334.0625,24.6133 334.0625,26.707 Q334.0625,28.8008 334.75,29.8789 Q335.4375,30.9414 336.7813,30.9414 Q337.4063,30.9414 338,30.6758 Q338.5938,30.3945 339.2188,29.8164 L339.2188,32.5352 Z " fill="#000000"/><text fill="#D9B8FF" font-family="Helvetica" font-size="17" lengthAdjust="spacing" textLength="71" x="361.75" y="32.7798">resource</text><line style="stroke:#000D19;stroke-width:0.5;" x1="268.5" x2="493.5" y1="46.7891" y2="46.7891"/><text fill="#D9B8FF" font-family="sans-serif" font-size="14" font-weight="bold" lengthAdjust="spacing" textLength="29" x="278.5" y="68.7842">age</text><text fill="#D9B8FF" font-family="sans-serif" font-size="14" lengthAdjust="spacing" textLength="66" x="307.5" y="68.7842">: duration</text><text fill="#D9B8FF" font-family="sans-serif" font-size="14" font-weight="bold" lengthAdjust="spacing" textLength="43" x="278.5" y="95.0811">atime</text><text fill="#D9B8FF" font-family="sans-serif" font-size="14" lengthAdjust="spacing" textLength="70" x="321.5" y="95.0811">: datetime</text><text fill="#D9B8FF" font-family="sans-serif" font-size="14" font-weight="bold" lengthAdjust="spacing" textLength="43" x="278.5" y="121.3779">ctime</text><text fill="#D9B8FF" font-family="sans-serif" font-size="14" lengthAdjust="spacing" textLength="70" x="321.5" y="121.3779">: datetime</text><text fill="#D9B8FF" font-family="sans-serif" font-size="14" font-weight="bold" lengthAdjust="spacing" textLength="14" x="278.5" y="147.6748">id</text><text fill="#D9B8FF" font-family="sans-serif" font-size="14" lengthAdjust="spacing" textLength="48" x="292.5" y="147.6748">: string</text><text fill="#D9B8FF" font-family="sans-serif" font-size="14" font-weight="bold" lengthAdjust="spacing" textLength="33" x="278.5" y="173.9717">kind</text><text fill="#D9B8FF" font-family="sans-serif" font-size="14" lengthAdjust="spacing" textLength="48" x="311.5" y="173.9717">: string</text><text fill="#D9B8FF" font-family="sans-serif" font-size="14" font-weight="bold" lengthAdjust="spacing" textLength="90" x="278.5" y="200.2686">last_access</text><text fill="#D9B8FF" font-family="sans-serif" font-size="14" lengthAdjust="spacing" textLength="66" x="368.5" y="200.2686">: duration</text><text fill="#D9B8FF" font-family="sans-serif" font-size="14" font-weight="bold" lengthAdjust="spacing" textLength="90" x="278.5" y="226.5654">last_update</text><text fill="#D9B8FF" font-family="sans-serif" font-size="14" lengthAdjust="spacing" textLength="66" x="368.5" y="226.5654">: duration</text><text fill="#D9B8FF" font-family="sans-serif" font-size="14" font-weight="bold" lengthAdjust="spacing" textLength="48" x="278.5" y="252.8623">mtime</text><text fill="#D9B8FF" font-family="sans-serif" font-size="14" lengthAdjust="spacing" textLength="70" x="326.5" y="252.8623">: datetime</text><text fill="#D9B8FF" font-family="sans-serif" font-size="14" font-weight="bold" lengthAdjust="spacing" textLength="43" x="278.5" y="279.1592">name</text><text fill="#D9B8FF" font-family="sans-serif" font-size="14" lengthAdjust="spacing" textLength="48" x="321.5" y="279.1592">: string</text><text fill="#D9B8FF" font-family="sans-serif" font-size="14" font-weight="bold" lengthAdjust="spacing" textLength="34" x="278.5" y="305.4561">tags</text><text fill="#D9B8FF" font-family="sans-serif" font-size="14" lengthAdjust="spacing" textLength="171" x="312.5" y="305.4561">: dictionary[string, string]</text></g><!--class routing_table--><g id="elem_routing_table"><rect codeLine="73" fill="#3D176E" height="39.7891" id="routing_table" rx="2.5" ry="2.5" style="stroke:#000D19;stroke-width:0.5;" width="154" x="400" y="455.9"/><ellipse cx="415" cy="475.7945" fill="#ADD1B2" rx="11" ry="11" style="stroke:#181818;stroke-width:1.0;"/><path d="M417.9688,481.4352 Q417.3906,481.732 416.75,481.8727 Q416.1094,482.0289 415.4063,482.0289 Q412.9063,482.0289 411.5781,480.3883 Q410.2656,478.732 410.2656,475.607 Q410.2656,472.482 411.5781,470.8258 Q412.9063,469.1695 415.4063,469.1695 Q416.1094,469.1695 416.75,469.3258 Q417.4063,469.482 417.9688,469.7789 L417.9688,472.4977 Q417.3438,471.9195 416.75,471.6539 Q416.1563,471.3727 415.5313,471.3727 Q414.1875,471.3727 413.5,472.4508 Q412.8125,473.5133 412.8125,475.607 Q412.8125,477.7008 413.5,478.7789 Q414.1875,479.8414 415.5313,479.8414 Q416.1563,479.8414 416.75,479.5758 Q417.3438,479.2945 417.9688,478.7164 L417.9688,481.4352 Z " fill="#000000"/><text fill="#D9B8FF" font-family="Helvetica" font-size="17" lengthAdjust="spacing" textLength="112" x="434" y="481.6798">routing_table</text></g><!--link aws_ec2_route_table to aws_ec2_route--><g id="link_aws_ec2_route_table_aws_ec2_route"><path codeLine="75" d="M337.95,787.29 C328.53,803.91 318.08,822.35 307.13,841.66 " fill="none" id="aws_ec2_route_table-to-aws_ec2_route" style="stroke:#FFAF37;stroke-width:2.0;"/><polygon fill="#FFAF37" points="304.34,845.58,312.2679,839.7363,306.813,841.2344,305.3149,835.7795,304.34,845.58" style="stroke:#FFAF37;stroke-width:2.0;"/></g><!--link aws_ec2_route_table to aws_ec2_route_table_association--><g id="link_aws_ec2_route_table_aws_ec2_route_table_association"><path codeLine="76" d="M424.26,787.29 C454.8,840.92 496.14,913.52 530.02,973.01 " fill="none" id="aws_ec2_route_table-to-aws_ec2_route_table_association" style="stroke:#FFAF37;stroke-width:2.0;"/><polygon fill="#FFAF37" points="532.86,977,531.8851,967.1995,530.387,972.6544,524.9321,971.1563,532.86,977" style="stroke:#FFAF37;stroke-width:2.0;"/></g><!--reverse link aws_resource to aws_ec2_route_table--><g id="link_aws_resource_aws_ec2_route_table"><path codeLine="77" d="M309.41,532.24 C321.64,562.49 336.96,600.38 350.29,633.35 " fill="none" id="aws_resource-backto-aws_ec2_route_table" style="stroke:#FFAF37;stroke-width:2.0;"/><polygon fill="none" points="302.69,535.3,301.69,514.13,315.67,530.05,302.69,535.3" style="stroke:#FFAF37;stroke-width:2.0;"/></g><!--reverse link routing_table to aws_ec2_route_table--><g id="link_routing_table_aws_ec2_route_table"><path codeLine="78" d="M461.25,514.96 C448.02,546.99 428.73,593.73 412.37,633.35 " fill="none" id="routing_table-backto-aws_ec2_route_table" style="stroke:#FFAF37;stroke-width:2.0;"/><polygon fill="none" points="455.04,512.64,469.14,496.83,467.98,517.99,455.04,512.64" style="stroke:#FFAF37;stroke-width:2.0;"/></g><!--link aws_ec2_route_table_association to aws_ec2_route_table_association_state--><g id="link_aws_ec2_route_table_association_aws_ec2_route_table_association_state"><path codeLine="79" d="M591,1183.91 C591,1244.54 591,1319.14 591,1369.06 " fill="none" id="aws_ec2_route_table_association-to-aws_ec2_route_table_association_state" style="stroke:#FFAF37;stroke-width:2.0;"/><polygon fill="#FFAF37" points="591,1374.03,595,1365.03,591,1369.03,587,1365.03,591,1374.03" style="stroke:#FFAF37;stroke-width:2.0;"/></g><!--reverse link resource to aws_resource--><g id="link_resource_aws_resource"><path codeLine="80" d="M328.24,338.19 C316.74,376.28 305.71,412.82 297.95,438.51 " fill="none" id="resource-backto-aws_resource" style="stroke:#FFAF37;stroke-width:2.0;"/><polygon fill="none" points="321.79,336.3,334.28,319.18,335.2,340.34,321.79,336.3" style="stroke:#FFAF37;stroke-width:2.0;"/></g><!--reverse link resource to routing_table--><g id="link_resource_routing_table"><path codeLine="81" d="M434.83,337.99 C449.54,385.7 463.5,431.02 471.1,455.65 " fill="none" id="resource-backto-routing_table" style="stroke:#FFAF37;stroke-width:2.0;"/><polygon fill="none" points="427.92,340.35,428.72,319.18,441.3,336.23,427.92,340.35" style="stroke:#FFAF37;stroke-width:2.0;"/></g><!--SRC=[ZPJVQzim4CVVyrSO-XOMQ5hM7sCCki3ONifOzrQ6E4jdHyIMp4cEbstztoVPIIlBTf8t- -xZk-_zybeAJB2ix2ufiKoHpCnifAg0e4mUY7IpqeMcv2BB8Bk-ZPrVjB8dWKSeCVcAnHQjv10JFzUIRnGQarm5hi_0DpdfMeakl2LGnhbGsO1Q5M3CWxKaqzfY84RSftTP5fDnq8jhiRozmG6cII3jaSlBIx6yZv6JgOxM_KeyoJ-OBCEcFMgB0vc352rrLAKd0f63GW_-IOtVGGYfykHzOFlHQIA5rBC_hK7enjCP52PCOomIQhkhS3Me2k_lH7Ox2d-RWhdlN0ADOSYlc0Ci9dzdypa78ed4Sh3Om8v9CPz_S079YV9kJSWKsaRJXW6fdbEWiLA1bLenBWMnjD1yCud8Qdjp3bSHPl8tAwIniHpCoUqxqwfmIfMhsacRaZvXbifOK1mdxRfnKugzJZ0KKvcSxadNldMjs0o6QJN9NFRRwdHOx5dQ6vQJIROLPnMYVsDSAuMywtT8lOnj0BEG5jqUZ5OTGCnzhBbi9sGyD18eP9v_HTzNf2jm1NYHsxmnRua6QFiyJEAu8rM4oTkAWdVssj8J7tRWzFAKqCqgrRf0KDCjEjR9o6Ngr6_nkTCQocsh7IwDjzI6bUvW8CU9uEwST4syYz6_xmFMHxf8egPMWBTOMNOs9y0_-x_6Y2sgslsxeWi3T-x0kPCRPMWzTINs1GQUSYIFWZ8w7iYxYB8z2w3TS-TxjsVUrigtsU_duInUPcFdibXywW_cF6eulbbl0X__BHQBiKzcVLdJtAchE4FI_W16H1rCiQydxZy0]--></g></svg>