<svg xmlns="http://www.w3.org/2000/svg" xmlns:xlink="http://www.w3.org/1999/xlink" width="385" height="352" preserveAspectRatio="none" style="width:385px;height:352px;background:#00000000"><a xlink:actuate="onRequest" xlink:href="#a" xlink:show="new" xlink:title="#digitalocean_region" xlink:type="simple" target="_top"><rect id="a" width="205" height="39.789" x="7" y="107" fill="#3D176E" rx="2.5" ry="2.5" style="stroke:#000d19;stroke-width:1.5"/><circle cx="22" cy="126.894" r="11" fill="#E98DF7" style="stroke:#000d19;stroke-width:1"/><path d="M24.969 132.535q-.578.297-1.219.438-.64.156-1.344.156-2.5 0-3.828-1.64-1.312-1.657-1.312-4.782t1.312-4.781q1.328-1.657 3.828-1.657.703 0 1.344.157.656.156 1.219.453v2.719q-.625-.579-1.219-.844-.594-.281-1.219-.281-1.343 0-2.031 1.078-.688 1.062-.688 3.156 0 2.094.688 3.172.688 1.062 2.031 1.062.625 0 1.219-.265.594-.281 1.219-.86v2.72Z"/><text x="41" y="132.78" fill="#D9B8FF" font-family="Helvetica" font-size="17" textLength="163">digitalocean_region</text></a><a xlink:actuate="onRequest" xlink:href="#b" xlink:show="new" xlink:title="#digitalocean_droplet" xlink:type="simple" target="_top"><rect id="b" width="211" height="39.789" x="117" y="307" fill="#3D176E" rx="2.5" ry="2.5" style="stroke:#000d19;stroke-width:1.5"/><circle cx="132" cy="326.894" r="11" fill="#E98DF7" style="stroke:#000d19;stroke-width:1"/><path d="M134.969 332.535q-.578.297-1.219.438-.64.156-1.344.156-2.5 0-3.828-1.64-1.312-1.657-1.312-4.782t1.312-4.781q1.328-1.656 3.828-1.656.703 0 1.344.156.656.156 1.219.453v2.719q-.625-.579-1.219-.844-.594-.281-1.219-.281-1.344 0-2.031 1.078-.688 1.062-.688 3.156 0 2.094.688 3.172.688 1.062 2.031 1.062.625 0 1.219-.265.594-.281 1.219-.86v2.72Z"/><text x="151" y="332.78" fill="#D9B8FF" font-family="Helvetica" font-size="17" textLength="169">digitalocean_droplet</text></a><a xlink:actuate="onRequest" xlink:href="#c" xlink:show="new" xlink:title="#digitalocean_image" xlink:type="simple" target="_top"><rect id="c" width="204" height="39.789" x="120.5" y="207" fill="#3D176E" rx="2.5" ry="2.5" style="stroke:#000d19;stroke-width:1.5"/><circle cx="135.5" cy="226.894" r="11" fill="#E98DF7" style="stroke:#000d19;stroke-width:1"/><path d="M138.469 232.535q-.578.297-1.219.438-.64.156-1.344.156-2.5 0-3.828-1.64-1.312-1.657-1.312-4.782t1.312-4.781q1.328-1.656 3.828-1.656.703 0 1.344.156.656.156 1.219.453v2.719q-.625-.579-1.219-.844-.594-.281-1.219-.281-1.344 0-2.031 1.078-.688 1.062-.688 3.156 0 2.094.688 3.172.688 1.062 2.031 1.062.625 0 1.219-.265.594-.281 1.219-.86v2.72Z"/><text x="154.5" y="232.78" fill="#D9B8FF" font-family="Helvetica" font-size="17" textLength="162">digitalocean_image</text></a><a xlink:actuate="onRequest" xlink:href="#d" xlink:show="new" xlink:title="#digitalocean_team" xlink:type="simple" target="_top"><rect id="d" width="196" height="39.789" x="167.5" y="7" fill="#3D176E" rx="2.5" ry="2.5" style="stroke:#000d19;stroke-width:1.5"/><circle cx="182.5" cy="26.895" r="11" fill="#E98DF7" style="stroke:#000d19;stroke-width:1"/><path d="M185.469 32.535q-.578.297-1.219.438-.64.156-1.344.156-2.5 0-3.828-1.64-1.312-1.657-1.312-4.782t1.312-4.781q1.328-1.656 3.828-1.656.703 0 1.344.156.656.156 1.219.453v2.719q-.625-.578-1.219-.844-.594-.281-1.219-.281-1.344 0-2.031 1.078-.688 1.062-.688 3.156 0 2.094.688 3.172.688 1.062 2.031 1.062.625 0 1.219-.265.594-.281 1.219-.86v2.72Z"/><text x="201.5" y="32.78" fill="#D9B8FF" font-family="Helvetica" font-size="17" textLength="154">digitalocean_team</text></a><path fill="none" d="M102.55 147.05c-7.76 24.67-17.13 68.25-.05 99.95 14.04 26.04 40.83 44.91 65.54 57.67" style="stroke:#1a83af;stroke-width:2"/><path fill="#1A83AF" d="m172.63 306.98-6.242-7.619 1.776 5.372-5.371 1.775 9.837.472z" style="stroke:#1a83af;stroke-width:2"/><path fill="none" d="M131.56 147.13c18.66 16.19 45.44 39.41 65.11 56.47" style="stroke:#1a83af;stroke-width:2"/><path fill="#1A83AF" d="m200.5 206.92-4.194-8.911.41 5.642-5.641.41 9.425 2.859z" style="stroke:#1a83af;stroke-width:2"/><path fill="none" d="M222.5 247.36v54.3" style="stroke:#1a83af;stroke-width:2"/><path fill="#1A83AF" d="m222.5 306.68 4-9-4 4-4-4 4 9z" style="stroke:#1a83af;stroke-width:2"/><path fill="none" d="M282.46 47.3c32.3 39.21 96.23 130.37 59.04 199.7-13.9 25.92-40.47 44.78-64.98 57.56" style="stroke:#1a83af;stroke-width:2"/><path fill="#1A83AF" d="m271.97 306.88 9.835-.523-5.38-1.747 1.748-5.38-6.203 7.65z" style="stroke:#1a83af;stroke-width:2"/><path fill="none" d="M261.3 47.35c-7.89 36.32-24.9 114.62-33.53 154.4" style="stroke:#1a83af;stroke-width:2"/><path fill="#1A83AF" d="m226.66 206.87 5.813-7.95-4.756 3.063-3.063-4.755 2.006 9.642z" style="stroke:#1a83af;stroke-width:2"/><path fill="none" d="M235.05 47.13c-26.09 16.39-63.66 39.99-90.9 57.1" style="stroke:#1a83af;stroke-width:2"/><path fill="#1A83AF" d="m139.87 106.92 9.745-1.425-5.518-1.246 1.245-5.518-5.472 8.189z" style="stroke:#1a83af;stroke-width:2"/></svg>