<svg xmlns="http://www.w3.org/2000/svg" xmlns:xlink="http://www.w3.org/1999/xlink" width="1872" height="652" preserveAspectRatio="none" style="width:1872px;height:652px;background:#00000000"><a xlink:actuate="onRequest" xlink:href="#a" xlink:show="new" xlink:title="#digitalocean_floating_ip" xlink:type="simple" target="_top"><rect id="a" width="240" height="39.789" x="1096" y="507" fill="#3D176E" rx="2.5" ry="2.5" style="stroke:#000d19;stroke-width:1.5"/><circle cx="1111" cy="526.894" r="11" fill="#E98DF7" style="stroke:#000d19;stroke-width:1"/><path d="M1113.969 532.535q-.578.297-1.219.438-.64.156-1.344.156-2.5 0-3.828-1.64-1.312-1.657-1.312-4.782t1.312-4.781q1.328-1.657 3.828-1.657.703 0 1.344.157.656.156 1.219.453v2.719q-.625-.578-1.219-.844-.594-.281-1.219-.281-1.343 0-2.031 1.078-.688 1.062-.688 3.156 0 2.094.688 3.172.688 1.062 2.031 1.062.625 0 1.219-.265.594-.282 1.219-.86v2.72Z"/><text x="1130" y="532.78" fill="#D9B8FF" font-family="Helvetica" font-size="17" textLength="198">digitalocean_floating_ip</text></a><a xlink:actuate="onRequest" xlink:href="#b" xlink:show="new" xlink:title="#digitalocean_team" xlink:type="simple" target="_top"><rect id="b" width="196" height="39.789" x="753" y="7" fill="#3D176E" rx="2.5" ry="2.5" style="stroke:#000d19;stroke-width:1.5"/><circle cx="768" cy="26.895" r="11" fill="#E98DF7" style="stroke:#000d19;stroke-width:1"/><path d="M770.969 32.535q-.578.297-1.219.438-.64.156-1.344.156-2.5 0-3.828-1.64-1.312-1.657-1.312-4.782t1.312-4.781q1.328-1.656 3.828-1.656.703 0 1.344.156.656.156 1.219.453v2.719q-.625-.578-1.219-.844-.594-.281-1.219-.281-1.343 0-2.031 1.078-.688 1.062-.688 3.156 0 2.094.688 3.172.688 1.062 2.031 1.062.625 0 1.219-.265.594-.281 1.219-.86v2.72Z"/><text x="787" y="32.78" fill="#D9B8FF" font-family="Helvetica" font-size="17" textLength="154">digitalocean_team</text></a><a xlink:actuate="onRequest" xlink:href="#c" xlink:show="new" xlink:title="#digitalocean_snapshot" xlink:type="simple" target="_top"><rect id="c" width="227" height="39.789" x="1299.5" y="607" fill="#3D176E" rx="2.5" ry="2.5" style="stroke:#000d19;stroke-width:1.5"/><circle cx="1314.5" cy="626.894" r="11" fill="#E98DF7" style="stroke:#000d19;stroke-width:1"/><path d="M1317.469 632.535q-.578.297-1.219.438-.64.156-1.344.156-2.5 0-3.828-1.64-1.312-1.657-1.312-4.782t1.312-4.781q1.328-1.657 3.828-1.657.703 0 1.344.157.656.156 1.219.453v2.719q-.625-.578-1.219-.844-.594-.281-1.219-.281-1.343 0-2.031 1.078-.688 1.062-.688 3.156 0 2.094.688 3.172.688 1.062 2.031 1.062.625 0 1.219-.265.594-.282 1.219-.86v2.72Z"/><text x="1333.5" y="632.78" fill="#D9B8FF" font-family="Helvetica" font-size="17" textLength="185">digitalocean_snapshot</text></a><a xlink:actuate="onRequest" xlink:href="#d" xlink:show="new" xlink:title="#digitalocean_droplet" xlink:type="simple" target="_top"><rect id="d" width="211" height="39.789" x="739.5" y="407" fill="#3D176E" rx="2.5" ry="2.5" style="stroke:#000d19;stroke-width:1.5"/><circle cx="754.5" cy="426.894" r="11" fill="#E98DF7" style="stroke:#000d19;stroke-width:1"/><path d="M757.469 432.535q-.578.297-1.219.438-.64.156-1.344.156-2.5 0-3.828-1.64-1.312-1.657-1.312-4.782t1.312-4.781q1.328-1.656 3.828-1.656.703 0 1.344.156.656.156 1.219.453v2.719q-.625-.579-1.219-.844-.594-.281-1.219-.281-1.343 0-2.031 1.078-.688 1.062-.688 3.156 0 2.094.688 3.172.688 1.062 2.031 1.062.625 0 1.219-.265.594-.281 1.219-.86v2.72Z"/><text x="773.5" y="432.78" fill="#D9B8FF" font-family="Helvetica" font-size="17" textLength="169">digitalocean_droplet</text></a><a xlink:actuate="onRequest" xlink:href="#e" xlink:show="new" xlink:title="#digitalocean_vpc" xlink:type="simple" target="_top"><rect id="e" width="180" height="39.789" x="618" y="207" fill="#3D176E" rx="2.5" ry="2.5" style="stroke:#000d19;stroke-width:1.5"/><circle cx="633" cy="226.894" r="11" fill="#E98DF7" style="stroke:#000d19;stroke-width:1"/><path d="M635.969 232.535q-.578.297-1.219.438-.64.156-1.344.156-2.5 0-3.828-1.64-1.312-1.657-1.312-4.782t1.312-4.781q1.328-1.656 3.828-1.656.703 0 1.344.156.656.156 1.219.453v2.719q-.625-.579-1.219-.844-.594-.281-1.219-.281-1.343 0-2.031 1.078-.688 1.062-.688 3.156 0 2.094.688 3.172.688 1.062 2.031 1.062.625 0 1.219-.265.594-.281 1.219-.86v2.72Z"/><text x="652" y="232.78" fill="#D9B8FF" font-family="Helvetica" font-size="17" textLength="138">digitalocean_vpc</text></a><a xlink:actuate="onRequest" xlink:href="#f" xlink:show="new" xlink:title="#digitalocean_image" xlink:type="simple" target="_top"><rect id="f" width="204" height="39.789" x="1324" y="207" fill="#3D176E" rx="2.5" ry="2.5" style="stroke:#000d19;stroke-width:1.5"/><circle cx="1339" cy="226.894" r="11" fill="#E98DF7" style="stroke:#000d19;stroke-width:1"/><path d="M1341.969 232.535q-.578.297-1.219.438-.64.156-1.344.156-2.5 0-3.828-1.64-1.312-1.657-1.312-4.782t1.312-4.781q1.328-1.656 3.828-1.656.703 0 1.344.156.656.156 1.219.453v2.719q-.625-.579-1.219-.844-.594-.281-1.219-.281-1.343 0-2.031 1.078-.688 1.062-.688 3.156 0 2.094.688 3.172.688 1.062 2.031 1.062.625 0 1.219-.265.594-.281 1.219-.86v2.72Z"/><text x="1358" y="232.78" fill="#D9B8FF" font-family="Helvetica" font-size="17" textLength="162">digitalocean_image</text></a><a xlink:actuate="onRequest" xlink:href="#g" xlink:show="new" xlink:title="#digitalocean_firewall" xlink:type="simple" target="_top"><rect id="g" width="215" height="39.789" x="83.5" y="107" fill="#3D176E" rx="2.5" ry="2.5" style="stroke:#000d19;stroke-width:1.5"/><circle cx="98.5" cy="126.894" r="11" fill="#E98DF7" style="stroke:#000d19;stroke-width:1"/><path d="M101.469 132.535q-.578.297-1.219.438-.64.156-1.344.156-2.5 0-3.828-1.64-1.312-1.657-1.312-4.782t1.312-4.781q1.328-1.657 3.828-1.657.703 0 1.344.157.656.156 1.219.453v2.719q-.625-.579-1.219-.844-.594-.281-1.219-.281-1.344 0-2.031 1.078-.688 1.062-.688 3.156 0 2.094.688 3.172.688 1.062 2.031 1.062.625 0 1.219-.265.594-.281 1.219-.86v2.72Z"/><text x="117.5" y="132.78" fill="#D9B8FF" font-family="Helvetica" font-size="17" textLength="173">digitalocean_firewall</text></a><a xlink:actuate="onRequest" xlink:href="#h" xlink:show="new" xlink:title="#digitalocean_project" xlink:type="simple" target="_top"><rect id="h" width="209" height="39.789" x="216.5" y="207" fill="#3D176E" rx="2.5" ry="2.5" style="stroke:#000d19;stroke-width:1.5"/><circle cx="231.5" cy="226.894" r="11" fill="#E98DF7" style="stroke:#000d19;stroke-width:1"/><path d="M234.469 232.535q-.578.297-1.219.438-.64.156-1.344.156-2.5 0-3.828-1.64-1.312-1.657-1.312-4.782t1.312-4.781q1.328-1.656 3.828-1.656.703 0 1.344.156.656.156 1.219.453v2.719q-.625-.579-1.219-.844-.594-.281-1.219-.281-1.344 0-2.031 1.078-.688 1.062-.688 3.156 0 2.094.688 3.172.688 1.062 2.031 1.062.625 0 1.219-.265.594-.281 1.219-.86v2.72Z"/><text x="250.5" y="232.78" fill="#D9B8FF" font-family="Helvetica" font-size="17" textLength="167">digitalocean_project</text></a><a xlink:actuate="onRequest" xlink:href="#i" xlink:show="new" xlink:title="#digitalocean_load_balancer" xlink:type="simple" target="_top"><rect id="i" width="267" height="39.789" x="832.5" y="307" fill="#3D176E" rx="2.5" ry="2.5" style="stroke:#000d19;stroke-width:1.5"/><circle cx="847.5" cy="326.894" r="11" fill="#E98DF7" style="stroke:#000d19;stroke-width:1"/><path d="M850.469 332.535q-.578.297-1.219.438-.64.156-1.344.156-2.5 0-3.828-1.64-1.312-1.657-1.312-4.782t1.312-4.781q1.328-1.656 3.828-1.656.703 0 1.344.156.656.156 1.219.453v2.719q-.625-.579-1.219-.844-.594-.281-1.219-.281-1.343 0-2.031 1.078-.688 1.062-.688 3.156 0 2.094.688 3.172.688 1.062 2.031 1.062.625 0 1.219-.265.594-.281 1.219-.86v2.72Z"/><text x="866.5" y="332.78" fill="#D9B8FF" font-family="Helvetica" font-size="17" textLength="225">digitalocean_load_balancer</text></a><a xlink:actuate="onRequest" xlink:href="#j" xlink:show="new" xlink:title="#digitalocean_volume" xlink:type="simple" target="_top"><rect id="j" width="215" height="39.789" x="438.5" y="507" fill="#3D176E" rx="2.5" ry="2.5" style="stroke:#000d19;stroke-width:1.5"/><circle cx="453.5" cy="526.894" r="11" fill="#E98DF7" style="stroke:#000d19;stroke-width:1"/><path d="M456.469 532.535q-.578.297-1.219.438-.64.156-1.344.156-2.5 0-3.828-1.64-1.312-1.657-1.312-4.782t1.312-4.781q1.328-1.657 3.828-1.657.703 0 1.344.157.656.156 1.219.453v2.719q-.625-.578-1.219-.844-.594-.281-1.219-.281-1.344 0-2.031 1.078-.688 1.062-.688 3.156 0 2.094.688 3.172.688 1.062 2.031 1.062.625 0 1.219-.265.594-.282 1.219-.86v2.72Z"/><text x="472.5" y="532.78" fill="#D9B8FF" font-family="Helvetica" font-size="17" textLength="173">digitalocean_volume</text></a><a xlink:actuate="onRequest" xlink:href="#k" xlink:show="new" xlink:title="#digitalocean_kubernetes_cluster" xlink:type="simple" target="_top"><rect id="k" width="311" height="39.789" x="343.5" y="307" fill="#3D176E" rx="2.5" ry="2.5" style="stroke:#000d19;stroke-width:1.5"/><circle cx="358.5" cy="326.894" r="11" fill="#E98DF7" style="stroke:#000d19;stroke-width:1"/><path d="M361.469 332.535q-.578.297-1.219.438-.64.156-1.344.156-2.5 0-3.828-1.64-1.312-1.657-1.312-4.782t1.312-4.781q1.328-1.656 3.828-1.656.703 0 1.344.156.656.156 1.219.453v2.719q-.625-.579-1.219-.844-.594-.281-1.219-.281-1.344 0-2.031 1.078-.688 1.062-.688 3.156 0 2.094.688 3.172.688 1.062 2.031 1.062.625 0 1.219-.265.594-.281 1.219-.86v2.72Z"/><text x="377.5" y="332.78" fill="#D9B8FF" font-family="Helvetica" font-size="17" textLength="269">digitalocean_kubernetes_cluster</text></a><a xlink:actuate="onRequest" xlink:href="#l" xlink:show="new" xlink:title="#digitalocean_region" xlink:type="simple" target="_top"><rect id="l" width="205" height="39.789" x="1066.5" y="107" fill="#3D176E" rx="2.5" ry="2.5" style="stroke:#000d19;stroke-width:1.5"/><circle cx="1081.5" cy="126.894" r="11" fill="#E98DF7" style="stroke:#000d19;stroke-width:1"/><path d="M1084.469 132.535q-.578.297-1.219.438-.64.156-1.344.156-2.5 0-3.828-1.64-1.312-1.657-1.312-4.782t1.312-4.781q1.328-1.657 3.828-1.657.703 0 1.344.157.656.156 1.219.453v2.719q-.625-.579-1.219-.844-.594-.281-1.219-.281-1.343 0-2.031 1.078-.688 1.062-.688 3.156 0 2.094.688 3.172.688 1.062 2.031 1.062.625 0 1.219-.265.594-.281 1.219-.86v2.72Z"/><text x="1100.5" y="132.78" fill="#D9B8FF" font-family="Helvetica" font-size="17" textLength="163">digitalocean_region</text></a><a xlink:actuate="onRequest" xlink:href="#m" xlink:show="new" xlink:title="#digitalocean_droplet_size" xlink:type="simple" target="_top"><rect id="m" width="251" height="39.789" x="1134.5" y="307" fill="#3D176E" rx="2.5" ry="2.5" style="stroke:#000d19;stroke-width:1.5"/><circle cx="1149.5" cy="326.894" r="11" fill="#E98DF7" style="stroke:#000d19;stroke-width:1"/><path d="M1152.469 332.535q-.578.297-1.219.438-.64.156-1.344.156-2.5 0-3.828-1.64-1.312-1.657-1.312-4.782t1.312-4.781q1.328-1.656 3.828-1.656.703 0 1.344.156.656.156 1.219.453v2.719q-.625-.579-1.219-.844-.594-.281-1.219-.281-1.343 0-2.031 1.078-.688 1.062-.688 3.156 0 2.094.688 3.172.688 1.062 2.031 1.062.625 0 1.219-.265.594-.281 1.219-.86v2.72Z"/><text x="1168.5" y="332.78" fill="#D9B8FF" font-family="Helvetica" font-size="17" textLength="209">digitalocean_droplet_size</text></a><path fill="none" d="M949.25 28.04C1190.77 30.77 1794 54.74 1794 226v102c0 94.99-282.93 153.98-452.89 180.85" style="stroke:#1a83af;stroke-width:2"/><path fill="#1A83AF" d="m1336.11 509.64 9.51 2.564-4.57-3.335 3.336-4.569-8.276 5.34z" style="stroke:#1a83af;stroke-width:2"/><path fill="none" d="M949.06 29.75C1145.83 34.44 1581.69 50.99 1719 107c77.51 31.62 146 35.29 146 119v202c0 145.59-199.18 185.14-333.1 195.28" style="stroke:#1a83af;stroke-width:2"/><path fill="#1A83AF" d="m1526.77 623.65 9.263 3.347-4.276-3.704 3.704-4.276-8.691 4.633z" style="stroke:#1a83af;stroke-width:2"/><path fill="none" d="M847.39 47.04C836.32 106.55 804.29 288.62 815 347c3.53 19.22 11.51 39.83 18.35 55.18" style="stroke:#1a83af;stroke-width:2"/><path fill="#1A83AF" d="m835.43 406.77-.083-9.849-1.986 5.297-5.297-1.986 7.366 6.538z" style="stroke:#1a83af;stroke-width:2"/><path fill="none" d="M837.03 47.35c-26.45 36.61-83.71 115.9-112.21 155.37" style="stroke:#1a83af;stroke-width:2"/><path fill="#1A83AF" d="m721.82 206.87 8.52-4.942-5.587.893-.893-5.586-2.04 9.635z" style="stroke:#1a83af;stroke-width:2"/><path fill="none" d="M949.08 30.87c91.9 6.05 231.04 23.96 339.92 76.13 48.47 23.23 93.18 68.35 117.62 95.86" style="stroke:#1a83af;stroke-width:2"/><path fill="#1A83AF" d="m1410.08 206.79-2.934-9.402-.366 5.645-5.645-.365 8.945 4.122z" style="stroke:#1a83af;stroke-width:2"/><path fill="none" d="M752.9 42.57c-119.98 17.81-322.65 47.91-449 66.67" style="stroke:#1a83af;stroke-width:2"/><path fill="#1A83AF" d="m298.69 110.01 9.486 2.649-4.54-3.376 3.377-4.54-8.323 5.267z" style="stroke:#1a83af;stroke-width:2"/><path fill="none" d="M752.92 35.32C673.03 44.27 558.98 63.95 468 107c-50.35 23.83-98.53 68.34-125.3 95.65" style="stroke:#1a83af;stroke-width:2"/><path fill="#1A83AF" d="m338.91 206.55 9.141-3.665-5.656.08-.08-5.656-3.405 9.241z" style="stroke:#1a83af;stroke-width:2"/><path fill="none" d="M949.12 37.07C1125.34 55.79 1482.98 105.7 1546 207c9.39 15.09 11.69 26.61 0 40-3.64 4.17-270.76 39.23-441.18 61.22" style="stroke:#1a83af;stroke-width:2"/><path fill="#1A83AF" d="m1099.81 308.86 9.44 2.81-4.482-3.453 3.453-4.481-8.411 5.124z" style="stroke:#1a83af;stroke-width:2"/><path fill="none" d="M752.86 32.62C554.83 42.71 121.49 68.87 66 107 17.18 140.54 6 166.77 6 226v102c0 87.56 77.27 82.82 157 119 86.06 39.05 191.76 58.99 270.3 69.06" style="stroke:#1a83af;stroke-width:2"/><path fill="#1A83AF" d="m438.44 516.71-8.427-5.097 3.466 4.47-4.47 3.466 9.431-2.839z" style="stroke:#1a83af;stroke-width:2"/><path fill="none" d="M797.37 47.04C730.34 73.35 616.05 126.83 547 207c-23.85 27.69-36.85 68.77-43.1 94.69" style="stroke:#1a83af;stroke-width:2"/><path fill="#1A83AF" d="m502.73 306.67 5.95-7.849-4.808 2.981-2.98-4.808 1.838 9.676z" style="stroke:#1a83af;stroke-width:2"/><path fill="none" d="M912.69 47.01c54.44 16.78 133.61 41.18 189.52 58.41" style="stroke:#1a83af;stroke-width:2"/><path fill="#1A83AF" d="m1107.21 106.96-7.427-6.468 2.648 4.999-5 2.647 9.779-1.178z" style="stroke:#1a83af;stroke-width:2"/><path fill="none" d="M787 447.01c-51.09 16.74-125.33 41.08-177.89 58.3" style="stroke:#1a83af;stroke-width:2"/><path fill="#1A83AF" d="m604.1 506.96 9.799.993-5.048-2.553 2.552-5.048-7.303 6.608z" style="stroke:#1a83af;stroke-width:2"/><path fill="none" d="M916.97 447.01c63.77 16.85 156.62 41.37 221.9 58.62" style="stroke:#1a83af;stroke-width:2"/><path fill="#1A83AF" d="m1143.91 506.96-7.685-6.16 2.85 4.887-4.887 2.85 9.722-1.577z" style="stroke:#1a83af;stroke-width:2"/><path fill="none" d="M876.46 447.07c43.93 25.91 126.8 72.17 202.54 99.93 71.16 26.08 154.05 45.75 219.46 58.94" style="stroke:#1a83af;stroke-width:2"/><path fill="#1A83AF" d="m1303.53 606.95-8.038-5.692 3.136 4.709-4.709 3.135 9.611-2.152z" style="stroke:#1a83af;stroke-width:2"/><path fill="none" d="M667.21 247.13c-35.25 16.52-86.12 40.38-122.68 57.52" style="stroke:#1a83af;stroke-width:2"/><path fill="#1A83AF" d="m539.69 306.92 9.847-.208-5.322-1.919 1.919-5.322-6.444 7.449z" style="stroke:#1a83af;stroke-width:2"/><path fill="none" d="M758.05 247.01c43.83 16.65 107.42 40.8 152.72 58.01" style="stroke:#1a83af;stroke-width:2"/><path fill="#1A83AF" d="m915.65 306.87-6.978-6.95 2.308 5.165-5.165 2.308 9.835-.523z" style="stroke:#1a83af;stroke-width:2"/><path fill="none" d="M712.1 247.12c5.98 24.74 18.84 68.41 40.9 99.88 15.73 22.44 39.25 42.48 58.56 56.76" style="stroke:#1a83af;stroke-width:2"/><path fill="#1A83AF" d="m815.87 406.9-4.922-8.53.88 5.587-5.588.88 9.63 2.063z" style="stroke:#1a83af;stroke-width:2"/><path fill="none" d="M1442.45 247.19c19.92 25.62 47.84 71.09 22.55 99.81-33.05 37.53-339.98 61.97-509.22 72.72" style="stroke:#1a83af;stroke-width:2"/><path fill="#1A83AF" d="m950.56 420.05 9.233 3.428-4.243-3.742 3.741-4.243-8.731 4.557z" style="stroke:#1a83af;stroke-width:2"/><path fill="none" d="M188.23 147.16c-2.64 24.42-4.28 67.33 10.77 99.84 26.81 57.9 45.76 71.81 103 100 73.94 36.41 295.98 59.69 432.15 70.96" style="stroke:#1a83af;stroke-width:2"/><path fill="#1A83AF" d="m739.36 418.38-8.638-4.731 3.655 4.317-4.317 3.655 9.3-3.241z" style="stroke:#1a83af;stroke-width:2"/><path fill="none" d="M355.74 247.13c29.9 16.46 73 40.19 104.11 57.31" style="stroke:#1a83af;stroke-width:2"/><path fill="#1A83AF" d="m464.34 306.92-5.944-7.853 1.567 5.436-5.435 1.567 9.812.85z" style="stroke:#1a83af;stroke-width:2"/><path fill="none" d="M309.91 247.13C296.72 272.69 279.18 318.1 302 347c96.08 121.65 560.97 161.49 788.31 173.82" style="stroke:#1a83af;stroke-width:2"/><path fill="#1A83AF" d="m1095.63 521.11-8.77-4.482 3.777 4.211-4.21 3.777 9.203-3.506z" style="stroke:#1a83af;stroke-width:2"/><path fill="none" d="m425.71 243.91 410.24 62.33" style="stroke:#1a83af;stroke-width:2"/><path fill="#1A83AF" d="m840.94 307-8.29-5.317 3.348 4.56-4.56 3.348L840.94 307z" style="stroke:#1a83af;stroke-width:2"/><path fill="none" d="M265.92 247.1c-27.11 12.52-57.27 31.85-72.92 59.9-30.32 54.34-38.9 91.43 0 140 29.81 37.22 148.5 58.09 240.11 68.9" style="stroke:#1a83af;stroke-width:2"/><path fill="#1A83AF" d="m438.28 516.5-8.484-5.002 3.517 4.431-4.43 3.517 9.397-2.946z" style="stroke:#1a83af;stroke-width:2"/><path fill="none" d="M315.15 247.22c-6.62 26.07-13.58 72.53 10.85 99.78 52.75 58.84 272.14 74.21 408.24 78.01" style="stroke:#1a83af;stroke-width:2"/><path fill="#1A83AF" d="m739.44 425.15-8.894-4.23 3.896 4.101-4.102 3.896 9.1-3.767z" style="stroke:#1a83af;stroke-width:2"/><path fill="none" d="M942.38 347.13c-19.99 16.19-48.66 39.41-69.72 56.47" style="stroke:#1a83af;stroke-width:2"/><path fill="#1A83AF" d="m868.56 406.92 9.513-2.55-5.625-.594.594-5.626-4.482 8.77z" style="stroke:#1a83af;stroke-width:2"/><path fill="none" d="M653.62 540.16c162.93 18.42 471.12 53.26 640.48 72.4" style="stroke:#1a83af;stroke-width:2"/><path fill="#1A83AF" d="m1299.32 613.15-8.498-4.977 3.53 4.42-4.422 3.53 9.39-2.973z" style="stroke:#1a83af;stroke-width:2"/><path fill="none" d="M566.12 347.01c59.35 16.81 145.72 41.27 206.58 58.51" style="stroke:#1a83af;stroke-width:2"/><path fill="#1A83AF" d="m777.77 406.96-7.56-6.313 2.751 4.943-4.942 2.751 9.751-1.381z" style="stroke:#1a83af;stroke-width:2"/><path fill="none" d="M1066.47 133.49C924.9 142.55 678.17 164.04 600 207c-40.41 22.21-71.72 67.47-88.18 95.32" style="stroke:#1a83af;stroke-width:2"/><path fill="#1A83AF" d="m509.12 306.97 7.988-5.762-5.47 1.442-1.442-5.47-1.076 9.79z" style="stroke:#1a83af;stroke-width:2"/><path fill="none" d="M1271.73 135.26c99.53 9.42 240.28 29.89 274.27 71.74 100.71 124-158.68 249.41-275.94 297.99" style="stroke:#1a83af;stroke-width:2"/><path fill="#1A83AF" d="m1265.27 506.96 9.845.272-5.222-2.176 2.176-5.221-6.799 7.125z" style="stroke:#1a83af;stroke-width:2"/><path fill="none" d="M1149.17 147.35c-37.7 36.76-119.5 116.55-159.79 155.84" style="stroke:#1a83af;stroke-width:2"/><path fill="#1A83AF" d="m985.62 306.87 9.235-3.424-5.657-.069.068-5.656-3.646 9.149z" style="stroke:#1a83af;stroke-width:2"/><path fill="none" d="M1079.57 147.01c-79.56 16.91-195.54 41.57-276.7 58.82" style="stroke:#1a83af;stroke-width:2"/><path fill="#1A83AF" d="m797.58 206.96 9.637 2.033-4.747-3.077 3.077-4.747-7.967 5.791z" style="stroke:#1a83af;stroke-width:2"/><path fill="none" d="M1271.92 138.05c105.31 11.97 260.24 34.73 309.08 68.95 50.44 35.34 71 57.41 71 119v102c0 91.56-105.3 148.81-176.11 176.95" style="stroke:#1a83af;stroke-width:2"/><path fill="#1A83AF" d="m1470.86 606.93 9.84.434-5.186-2.261 2.262-5.186-6.916 7.013z" style="stroke:#1a83af;stroke-width:2"/><path fill="none" d="M1218.86 147.01c43.66 16.65 107 40.8 152.13 58.01" style="stroke:#1a83af;stroke-width:2"/><path fill="#1A83AF" d="m1375.84 206.87-6.978-6.95 2.308 5.165-5.165 2.308 9.835-.523z" style="stroke:#1a83af;stroke-width:2"/><path fill="none" d="M1189.22 147.18c26.19 24.42 73.72 67.35 117.78 99.82 40.5 29.85 71.61 15.99 96 60 8.62 15.55 11.66 26.58 0 40-56.7 65.3-301.18 78.08-447.05 79.75" style="stroke:#1a83af;stroke-width:2"/><path fill="#1A83AF" d="m950.8 426.8 9.045 3.897-4.045-3.954 3.954-4.046-8.954 4.103z" style="stroke:#1a83af;stroke-width:2"/><path fill="none" d="M1179.49 347.01c-71.47 16.88-175.61 41.47-248.65 58.72" style="stroke:#1a83af;stroke-width:2"/><path fill="#1A83AF" d="m925.64 406.96 9.682 1.805-4.818-2.964 2.964-4.818-7.828 5.977z" style="stroke:#1a83af;stroke-width:2"/></svg>