<svg xmlns="http://www.w3.org/2000/svg" xmlns:xlink="http://www.w3.org/1999/xlink" width="1820" height="652" preserveAspectRatio="none" style="width:1820px;height:652px;background:#00000000"><a xlink:actuate="onRequest" xlink:href="#a" xlink:show="new" xlink:title="#digitalocean_team" xlink:type="simple" target="_top"><rect id="a" width="196" height="39.789" x="913" y="7" fill="#3D176E" rx="2.5" ry="2.5" style="stroke:#000d19;stroke-width:1.5"/><circle cx="928" cy="26.895" r="11" fill="#E98DF7" style="stroke:#000d19;stroke-width:1"/><path d="M930.969 32.535q-.578.297-1.219.438-.64.156-1.344.156-2.5 0-3.828-1.64-1.312-1.657-1.312-4.782t1.312-4.781q1.328-1.656 3.828-1.656.703 0 1.344.156.656.156 1.219.453v2.719q-.625-.578-1.219-.844-.594-.281-1.219-.281-1.343 0-2.031 1.078-.688 1.062-.688 3.156 0 2.094.688 3.172.688 1.062 2.031 1.062.625 0 1.219-.265.594-.281 1.219-.86v2.72Z"/><text x="947" y="32.78" fill="#D9B8FF" font-family="Helvetica" font-size="17" textLength="154">digitalocean_team</text></a><a xlink:actuate="onRequest" xlink:href="#b" xlink:show="new" xlink:title="#digitalocean_vpc" xlink:type="simple" target="_top"><rect id="b" width="180" height="39.789" x="622" y="207" fill="#3D176E" rx="2.5" ry="2.5" style="stroke:#000d19;stroke-width:1.5"/><circle cx="637" cy="226.894" r="11" fill="#E98DF7" style="stroke:#000d19;stroke-width:1"/><path d="M639.969 232.535q-.578.297-1.219.438-.64.156-1.344.156-2.5 0-3.828-1.64-1.312-1.657-1.312-4.782t1.312-4.781q1.328-1.656 3.828-1.656.703 0 1.344.156.656.156 1.219.453v2.719q-.625-.579-1.219-.844-.594-.281-1.219-.281-1.343 0-2.031 1.078-.688 1.062-.688 3.156 0 2.094.688 3.172.688 1.062 2.031 1.062.625 0 1.219-.265.594-.281 1.219-.86v2.72Z"/><text x="656" y="232.78" fill="#D9B8FF" font-family="Helvetica" font-size="17" textLength="138">digitalocean_vpc</text></a><a xlink:actuate="onRequest" xlink:href="#c" xlink:show="new" xlink:title="#digitalocean_droplet" xlink:type="simple" target="_top"><rect id="c" width="211" height="39.789" x="995.5" y="407" fill="#3D176E" rx="2.5" ry="2.5" style="stroke:#000d19;stroke-width:1.5"/><circle cx="1010.5" cy="426.894" r="11" fill="#E98DF7" style="stroke:#000d19;stroke-width:1"/><path d="M1013.469 432.535q-.578.297-1.219.438-.64.156-1.344.156-2.5 0-3.828-1.64-1.312-1.657-1.312-4.782t1.312-4.781q1.328-1.656 3.828-1.656.703 0 1.344.156.656.156 1.219.453v2.719q-.625-.579-1.219-.844-.594-.281-1.219-.281-1.343 0-2.031 1.078-.688 1.062-.688 3.156 0 2.094.688 3.172.688 1.062 2.031 1.062.625 0 1.219-.265.594-.281 1.219-.86v2.72Z"/><text x="1029.5" y="432.78" fill="#D9B8FF" font-family="Helvetica" font-size="17" textLength="169">digitalocean_droplet</text></a><a xlink:actuate="onRequest" xlink:href="#d" xlink:show="new" xlink:title="#digitalocean_volume" xlink:type="simple" target="_top"><rect id="d" width="215" height="39.789" x="367.5" y="507" fill="#3D176E" rx="2.5" ry="2.5" style="stroke:#000d19;stroke-width:1.5"/><circle cx="382.5" cy="526.894" r="11" fill="#E98DF7" style="stroke:#000d19;stroke-width:1"/><path d="M385.469 532.535q-.578.297-1.219.438-.64.156-1.344.156-2.5 0-3.828-1.64-1.312-1.657-1.312-4.782t1.312-4.781q1.328-1.657 3.828-1.657.703 0 1.344.157.656.156 1.219.453v2.719q-.625-.578-1.219-.844-.594-.281-1.219-.281-1.344 0-2.031 1.078-.688 1.062-.688 3.156 0 2.094.688 3.172.688 1.062 2.031 1.062.625 0 1.219-.265.594-.282 1.219-.86v2.72Z"/><text x="401.5" y="532.78" fill="#D9B8FF" font-family="Helvetica" font-size="17" textLength="173">digitalocean_volume</text></a><a xlink:actuate="onRequest" xlink:href="#e" xlink:show="new" xlink:title="#digitalocean_floating_ip" xlink:type="simple" target="_top"><rect id="e" width="240" height="39.789" x="1266" y="507" fill="#3D176E" rx="2.5" ry="2.5" style="stroke:#000d19;stroke-width:1.5"/><circle cx="1281" cy="526.894" r="11" fill="#E98DF7" style="stroke:#000d19;stroke-width:1"/><path d="M1283.969 532.535q-.578.297-1.219.438-.64.156-1.344.156-2.5 0-3.828-1.64-1.312-1.657-1.312-4.782t1.312-4.781q1.328-1.657 3.828-1.657.703 0 1.344.157.656.156 1.219.453v2.719q-.625-.578-1.219-.844-.594-.281-1.219-.281-1.343 0-2.031 1.078-.688 1.062-.688 3.156 0 2.094.688 3.172.688 1.062 2.031 1.062.625 0 1.219-.265.594-.282 1.219-.86v2.72Z"/><text x="1300" y="532.78" fill="#D9B8FF" font-family="Helvetica" font-size="17" textLength="198">digitalocean_floating_ip</text></a><a xlink:actuate="onRequest" xlink:href="#f" xlink:show="new" xlink:title="#digitalocean_region" xlink:type="simple" target="_top"><rect id="f" width="205" height="39.789" x="908.5" y="107" fill="#3D176E" rx="2.5" ry="2.5" style="stroke:#000d19;stroke-width:1.5"/><circle cx="923.5" cy="126.894" r="11" fill="#E98DF7" style="stroke:#000d19;stroke-width:1"/><path d="M926.469 132.535q-.578.297-1.219.438-.64.156-1.344.156-2.5 0-3.828-1.64-1.312-1.657-1.312-4.782t1.312-4.781q1.328-1.657 3.828-1.657.703 0 1.344.157.656.156 1.219.453v2.719q-.625-.579-1.219-.844-.594-.281-1.219-.281-1.343 0-2.031 1.078-.688 1.062-.688 3.156 0 2.094.688 3.172.688 1.062 2.031 1.062.625 0 1.219-.265.594-.281 1.219-.86v2.72Z"/><text x="942.5" y="132.78" fill="#D9B8FF" font-family="Helvetica" font-size="17" textLength="163">digitalocean_region</text></a><a xlink:actuate="onRequest" xlink:href="#g" xlink:show="new" xlink:title="#digitalocean_firewall" xlink:type="simple" target="_top"><rect id="g" width="215" height="39.789" x="1455.5" y="107" fill="#3D176E" rx="2.5" ry="2.5" style="stroke:#000d19;stroke-width:1.5"/><circle cx="1470.5" cy="126.894" r="11" fill="#E98DF7" style="stroke:#000d19;stroke-width:1"/><path d="M1473.469 132.535q-.578.297-1.219.438-.64.156-1.344.156-2.5 0-3.828-1.64-1.312-1.657-1.312-4.782t1.312-4.781q1.328-1.657 3.828-1.657.703 0 1.344.157.656.156 1.219.453v2.719q-.625-.579-1.219-.844-.594-.281-1.219-.281-1.343 0-2.031 1.078-.688 1.062-.688 3.156 0 2.094.688 3.172.688 1.062 2.031 1.062.625 0 1.219-.265.594-.281 1.219-.86v2.72Z"/><text x="1489.5" y="132.78" fill="#D9B8FF" font-family="Helvetica" font-size="17" textLength="173">digitalocean_firewall</text></a><a xlink:actuate="onRequest" xlink:href="#h" xlink:show="new" xlink:title="#digitalocean_snapshot" xlink:type="simple" target="_top"><rect id="h" width="227" height="39.789" x="1194.5" y="607" fill="#3D176E" rx="2.5" ry="2.5" style="stroke:#000d19;stroke-width:1.5"/><circle cx="1209.5" cy="626.894" r="11" fill="#E98DF7" style="stroke:#000d19;stroke-width:1"/><path d="M1212.469 632.535q-.578.297-1.219.438-.64.156-1.344.156-2.5 0-3.828-1.64-1.312-1.657-1.312-4.782t1.312-4.781q1.328-1.657 3.828-1.657.703 0 1.344.157.656.156 1.219.453v2.719q-.625-.578-1.219-.844-.594-.281-1.219-.281-1.343 0-2.031 1.078-.688 1.062-.688 3.156 0 2.094.688 3.172.688 1.062 2.031 1.062.625 0 1.219-.265.594-.282 1.219-.86v2.72Z"/><text x="1228.5" y="632.78" fill="#D9B8FF" font-family="Helvetica" font-size="17" textLength="185">digitalocean_snapshot</text></a><a xlink:actuate="onRequest" xlink:href="#i" xlink:show="new" xlink:title="#digitalocean_kubernetes_cluster" xlink:type="simple" target="_top"><rect id="i" width="311" height="39.789" x="646.5" y="307" fill="#3D176E" rx="2.5" ry="2.5" style="stroke:#000d19;stroke-width:1.5"/><circle cx="661.5" cy="326.894" r="11" fill="#E98DF7" style="stroke:#000d19;stroke-width:1"/><path d="M664.469 332.535q-.578.297-1.219.438-.64.156-1.344.156-2.5 0-3.828-1.64-1.312-1.657-1.312-4.782t1.312-4.781q1.328-1.656 3.828-1.656.703 0 1.344.156.656.156 1.219.453v2.719q-.625-.579-1.219-.844-.594-.281-1.219-.281-1.343 0-2.031 1.078-.688 1.062-.688 3.156 0 2.094.688 3.172.688 1.062 2.031 1.062.625 0 1.219-.265.594-.281 1.219-.86v2.72Z"/><text x="680.5" y="332.78" fill="#D9B8FF" font-family="Helvetica" font-size="17" textLength="269">digitalocean_kubernetes_cluster</text></a><a xlink:actuate="onRequest" xlink:href="#j" xlink:show="new" xlink:title="#digitalocean_load_balancer" xlink:type="simple" target="_top"><rect id="j" width="267" height="39.789" x="272.5" y="307" fill="#3D176E" rx="2.5" ry="2.5" style="stroke:#000d19;stroke-width:1.5"/><circle cx="287.5" cy="326.894" r="11" fill="#E98DF7" style="stroke:#000d19;stroke-width:1"/><path d="M290.469 332.535q-.578.297-1.219.438-.64.156-1.344.156-2.5 0-3.828-1.64-1.312-1.657-1.312-4.782t1.312-4.781q1.328-1.656 3.828-1.656.703 0 1.344.156.656.156 1.219.453v2.719q-.625-.579-1.219-.844-.594-.281-1.219-.281-1.344 0-2.031 1.078-.688 1.062-.688 3.156 0 2.094.688 3.172.688 1.062 2.031 1.062.625 0 1.219-.265.594-.281 1.219-.86v2.72Z"/><text x="306.5" y="332.78" fill="#D9B8FF" font-family="Helvetica" font-size="17" textLength="225">digitalocean_load_balancer</text></a><a xlink:actuate="onRequest" xlink:href="#k" xlink:show="new" xlink:title="#digitalocean_project" xlink:type="simple" target="_top"><rect id="k" width="209" height="39.789" x="130.5" y="207" fill="#3D176E" rx="2.5" ry="2.5" style="stroke:#000d19;stroke-width:1.5"/><circle cx="145.5" cy="226.894" r="11" fill="#E98DF7" style="stroke:#000d19;stroke-width:1"/><path d="M148.469 232.535q-.578.297-1.219.438-.64.156-1.344.156-2.5 0-3.828-1.64-1.312-1.657-1.312-4.782t1.312-4.781q1.328-1.656 3.828-1.656.703 0 1.344.156.656.156 1.219.453v2.719q-.625-.579-1.219-.844-.594-.281-1.219-.281-1.344 0-2.031 1.078-.688 1.062-.688 3.156 0 2.094.688 3.172.688 1.062 2.031 1.062.625 0 1.219-.265.594-.281 1.219-.86v2.72Z"/><text x="164.5" y="232.78" fill="#D9B8FF" font-family="Helvetica" font-size="17" textLength="167">digitalocean_project</text></a><a xlink:actuate="onRequest" xlink:href="#l" xlink:show="new" xlink:title="#digitalocean_image" xlink:type="simple" target="_top"><rect id="l" width="204" height="39.789" x="1065" y="207" fill="#3D176E" rx="2.5" ry="2.5" style="stroke:#000d19;stroke-width:1.5"/><circle cx="1080" cy="226.894" r="11" fill="#E98DF7" style="stroke:#000d19;stroke-width:1"/><path d="M1082.969 232.535q-.578.297-1.219.438-.64.156-1.344.156-2.5 0-3.828-1.64-1.312-1.657-1.312-4.782t1.312-4.781q1.328-1.656 3.828-1.656.703 0 1.344.156.656.156 1.219.453v2.719q-.625-.579-1.219-.844-.594-.281-1.219-.281-1.343 0-2.031 1.078-.688 1.062-.688 3.156 0 2.094.688 3.172.688 1.062 2.031 1.062.625 0 1.219-.265.594-.281 1.219-.86v2.72Z"/><text x="1099" y="232.78" fill="#D9B8FF" font-family="Helvetica" font-size="17" textLength="162">digitalocean_image</text></a><a xlink:actuate="onRequest" xlink:href="#m" xlink:show="new" xlink:title="#digitalocean_droplet_size" xlink:type="simple" target="_top"><rect id="m" width="251" height="39.789" x="1064.5" y="307" fill="#3D176E" rx="2.5" ry="2.5" style="stroke:#000d19;stroke-width:1.5"/><circle cx="1079.5" cy="326.894" r="11" fill="#E98DF7" style="stroke:#000d19;stroke-width:1"/><path d="M1082.469 332.535q-.578.297-1.219.438-.64.156-1.344.156-2.5 0-3.828-1.64-1.312-1.657-1.312-4.782t1.312-4.781q1.328-1.656 3.828-1.656.703 0 1.344.156.656.156 1.219.453v2.719q-.625-.579-1.219-.844-.594-.281-1.219-.281-1.343 0-2.031 1.078-.688 1.062-.688 3.156 0 2.094.688 3.172.688 1.062 2.031 1.062.625 0 1.219-.265.594-.281 1.219-.86v2.72Z"/><text x="1098.5" y="332.78" fill="#D9B8FF" font-family="Helvetica" font-size="17" textLength="209">digitalocean_droplet_size</text></a><path fill="none" d="M951.9 47.08C914.77 60.61 866.91 80.97 829 107c-39.9 27.4-77.55 69.72-98.9 95.81" style="stroke:#1a83af;stroke-width:2"/><path fill="#1A83AF" d="m726.82 206.86 8.78-4.463-5.627.582-.582-5.626-2.571 9.507z" style="stroke:#1a83af;stroke-width:2"/><path fill="none" d="M1062.04 47.06C1147.81 82.53 1316.18 167.94 1364 307c24.4 70.95-69.69 99.62-152.02 111.19" style="stroke:#1a83af;stroke-width:2"/><path fill="#1A83AF" d="m1206.57 418.92 9.455 2.756-4.5-3.427 3.427-4.5-8.382 5.171z" style="stroke:#1a83af;stroke-width:2"/><path fill="none" d="M912.88 32.74C781.44 40.63 541.61 60.48 342 107 187.71 142.96 6 67.58 6 226v102c0 65.25 31.21 83.56 86 119 80.6 52.14 189.01 70.79 269.91 77.03" style="stroke:#1a83af;stroke-width:2"/><path fill="#1A83AF" d="m367.2 524.42-8.678-4.658 3.692 4.287-4.286 3.691 9.272-3.32z" style="stroke:#1a83af;stroke-width:2"/><path fill="none" d="M1109 32.35c178.36 8.94 541.19 32.17 579 74.65 125.4 140.88-159.13 333.11-264.63 397.21" style="stroke:#1a83af;stroke-width:2"/><path fill="#1A83AF" d="m1419.09 506.8 9.773-1.224-5.492-1.359 1.359-5.491-5.64 8.074z" style="stroke:#1a83af;stroke-width:2"/><path fill="none" d="M1011 47.36v54.3" style="stroke:#1a83af;stroke-width:2"/><path fill="#1A83AF" d="m1011 106.68 4-9-4 4-4-4 4 9z" style="stroke:#1a83af;stroke-width:2"/><path fill="none" d="M1109.05 45.41c95.82 17.01 241.52 42.88 341.87 60.69" style="stroke:#1a83af;stroke-width:2"/><path fill="#1A83AF" d="m1455.97 107-8.166-5.506 3.242 4.635-4.635 3.243 9.559-2.372z" style="stroke:#1a83af;stroke-width:2"/><path fill="none" d="M1109.25 28.13C1280.9 30.08 1626.61 42.21 1726 107c51.22 33.39 69 57.86 69 119v202c0 82.25-241.4 146.83-384.29 177.85" style="stroke:#1a83af;stroke-width:2"/><path fill="#1A83AF" d="m1405.67 606.94 9.642 2.006-4.755-3.063 3.063-4.756-7.95 5.813z" style="stroke:#1a83af;stroke-width:2"/><path fill="none" d="M969.66 47.12C944.09 60.73 912.21 81.17 891 107c-49.42 60.21-74.48 151.51-84.14 194.71" style="stroke:#1a83af;stroke-width:2"/><path fill="#1A83AF" d="m805.76 306.73 5.835-7.934-4.764 3.05-3.05-4.764 1.979 9.648z" style="stroke:#1a83af;stroke-width:2"/><path fill="none" d="M918.69 47.04C814.47 71.67 643.03 121.83 517 207c-39.33 26.58-74.84 69.53-94.61 95.91" style="stroke:#1a83af;stroke-width:2"/><path fill="#1A83AF" d="m419.35 307 8.58-4.834-5.596.822-.822-5.597L419.35 307z" style="stroke:#1a83af;stroke-width:2"/><path fill="none" d="M912.98 28.86C794.52 32.68 590.7 48.23 427 107c-63.67 22.85-128.7 68.94-164.36 96.57" style="stroke:#1a83af;stroke-width:2"/><path fill="#1A83AF" d="m258.44 206.84 9.558-2.375-5.613-.698.697-5.613-4.642 8.686z" style="stroke:#1a83af;stroke-width:2"/><path fill="none" d="M1054.33 47.08c25.69 13.36 56.98 33.53 76.67 59.92 21.09 28.26 29.93 68.92 33.56 94.64" style="stroke:#1a83af;stroke-width:2"/><path fill="#1A83AF" d="m1165.25 206.89 2.783-9.448-3.44 4.491-4.491-3.44 5.148 8.397z" style="stroke:#1a83af;stroke-width:2"/><path fill="none" d="M652.64 247.01c-52.39 16.78-128.57 41.18-182.37 58.41" style="stroke:#1a83af;stroke-width:2"/><path fill="#1A83AF" d="m465.46 306.96 9.79 1.082-5.026-2.599 2.599-5.024-7.363 6.541z" style="stroke:#1a83af;stroke-width:2"/><path fill="none" d="M729.78 247.36c14.67 15.97 35.52 38.68 51.05 55.59" style="stroke:#1a83af;stroke-width:2"/><path fill="#1A83AF" d="m784.26 306.68-3.143-9.334-.24 5.652-5.651-.24 9.034 3.922z" style="stroke:#1a83af;stroke-width:2"/><path fill="none" d="M682.31 247.14c-33.94 24.19-81.38 66.7-53.31 99.86 45.37 53.59 236.6 70.86 361.3 76.4" style="stroke:#1a83af;stroke-width:2"/><path fill="#1A83AF" d="m995.45 423.62-8.82-4.383 3.825 4.168-4.168 3.825 9.163-3.61z" style="stroke:#1a83af;stroke-width:2"/><path fill="none" d="M1156.29 447.01c48.61 16.72 119.23 41 169.31 58.22" style="stroke:#1a83af;stroke-width:2"/><path fill="#1A83AF" d="m1330.38 506.87-7.207-6.713 2.48 5.085-5.085 2.48 9.812-.852z" style="stroke:#1a83af;stroke-width:2"/><path fill="none" d="M1121.22 447.35c38.44 36.76 121.85 116.55 162.94 155.84" style="stroke:#1a83af;stroke-width:2"/><path fill="#1A83AF" d="m1288 606.87-3.739-9.112.126 5.656-5.656.126 9.269 3.33z" style="stroke:#1a83af;stroke-width:2"/><path fill="none" d="M995.16 444.57c-113.11 17.71-291.72 45.67-407.41 63.78" style="stroke:#1a83af;stroke-width:2"/><path fill="#1A83AF" d="m582.63 509.15 9.51 2.564-4.57-3.335 3.335-4.569-8.275 5.34z" style="stroke:#1a83af;stroke-width:2"/><path fill="none" d="M582.62 540.66c156.09 18.36 444.31 52.27 606.49 71.35" style="stroke:#1a83af;stroke-width:2"/><path fill="#1A83AF" d="m1194.35 612.63-8.468-5.028 3.502 4.441-4.441 3.503 9.407-2.916z" style="stroke:#1a83af;stroke-width:2"/><path fill="none" d="M953 147.01c-51.09 16.74-125.33 41.08-177.89 58.3" style="stroke:#1a83af;stroke-width:2"/><path fill="#1A83AF" d="m770.1 206.96 9.799.993-5.048-2.553 2.552-5.048-7.303 6.608z" style="stroke:#1a83af;stroke-width:2"/><path fill="none" d="M908.34 137.89C824.35 148.32 703.62 168.77 604 207c-64.22 24.65-131.27 69.69-168.53 96.73" style="stroke:#1a83af;stroke-width:2"/><path fill="#1A83AF" d="m431.08 306.94 9.622-2.101-5.591-.858.857-5.591-4.888 8.55z" style="stroke:#1a83af;stroke-width:2"/><path fill="none" d="M1011.39 147.2c1.37 39.03 7.58 129.88 35.61 199.8 8.19 20.44 22.38 40.89 34.15 55.86" style="stroke:#1a83af;stroke-width:2"/><path fill="#1A83AF" d="m1084.4 406.93-2.512-9.523-.617 5.623-5.623-.617 8.752 4.517z" style="stroke:#1a83af;stroke-width:2"/><path fill="none" d="M990.58 147.35c-38.81 36.76-123.03 116.55-164.51 155.84" style="stroke:#1a83af;stroke-width:2"/><path fill="#1A83AF" d="m822.2 306.87 9.282-3.293-5.655-.149.149-5.654-3.776 9.096z" style="stroke:#1a83af;stroke-width:2"/><path fill="none" d="M1113.57 141.72c54.74 11.03 121.18 30.66 172.43 65.28 46.71 31.55 57.03 47.68 78 100 26.66 66.5 26.07 153.05 23.84 194.62" style="stroke:#1a83af;stroke-width:2"/><path fill="#1A83AF" d="m1387.55 506.71 4.507-8.757-4.222 3.765-3.765-4.221 3.48 9.213z" style="stroke:#1a83af;stroke-width:2"/><path fill="none" d="M1041.45 147.13c26.09 16.39 63.66 39.99 90.9 57.1" style="stroke:#1a83af;stroke-width:2"/><path fill="#1A83AF" d="m1136.63 206.92-5.472-8.189 1.245 5.519-5.518 1.245 9.745 1.425z" style="stroke:#1a83af;stroke-width:2"/><path fill="none" d="M1113.85 133.04c68.49 7.87 157.44 27.19 222.15 73.96 127.33 92.05 143.78 148.95 187 300 4.89 17.09 10.17 25.42 0 40-22.38 32.07-59.29 51.15-96.27 62.5" style="stroke:#1a83af;stroke-width:2"/><path fill="#1A83AF" d="m1421.76 610.99 9.767 1.266-4.975-2.692 2.693-4.975-7.485 6.401z" style="stroke:#1a83af;stroke-width:2"/><path fill="none" d="M1567.41 147.16c8.48 42.28 21.93 144.2-30.41 199.84-43.34 46.07-210.88 65.55-325.19 73.59" style="stroke:#1a83af;stroke-width:2"/><path fill="#1A83AF" d="m1206.75 420.94 9.253 3.373-4.265-3.716 3.716-4.265-8.704 4.608z" style="stroke:#1a83af;stroke-width:2"/><path fill="none" d="M860 347.01c51.09 16.74 125.33 41.08 177.89 58.3" style="stroke:#1a83af;stroke-width:2"/><path fill="#1A83AF" d="m1042.9 406.96-7.303-6.608 2.553 5.048-5.049 2.553 9.799-.993z" style="stroke:#1a83af;stroke-width:2"/><path fill="none" d="M539.59 346.84c130.97 18.46 328.28 46.29 450.74 63.55" style="stroke:#1a83af;stroke-width:2"/><path fill="#1A83AF" d="m995.37 411.11-8.352-5.22 3.401 4.52-4.52 3.402 9.471-2.702z" style="stroke:#1a83af;stroke-width:2"/><path fill="none" d="M268.38 247.13c28.6 16.39 69.78 39.99 99.64 57.1" style="stroke:#1a83af;stroke-width:2"/><path fill="#1A83AF" d="m372.71 306.92-5.813-7.95 1.477 5.46-5.46 1.477 9.796 1.013z" style="stroke:#1a83af;stroke-width:2"/><path fill="none" d="M231.83 247.34C228.68 274 227.68 321.62 255 347c52.81 49.07 518.16 69.26 735.3 76.07" style="stroke:#1a83af;stroke-width:2"/><path fill="#1A83AF" d="m995.39 423.23-8.87-4.28 3.873 4.123-4.124 3.872 9.121-3.715z" style="stroke:#1a83af;stroke-width:2"/><path fill="none" d="M189.12 247.12C164.41 260.08 136.16 279.83 122 307c-28.75 55.18-38.9 91.43 0 140 29.81 37.22 148.5 58.09 240.11 68.9" style="stroke:#1a83af;stroke-width:2"/><path fill="#1A83AF" d="m367.28 516.5-8.484-5.002 3.517 4.431-4.43 3.517 9.397-2.946z" style="stroke:#1a83af;stroke-width:2"/><path fill="none" d="M339.66 246.09c98.33 17 245.19 42.38 346.89 59.96" style="stroke:#1a83af;stroke-width:2"/><path fill="#1A83AF" d="m691.66 306.93-8.197-5.46 3.269 4.617-4.617 3.269 9.545-2.426z" style="stroke:#1a83af;stroke-width:2"/><path fill="none" d="M226.37 247.05c-10.27 25.89-23.23 72.13.63 99.95 132.18 154.16 762.06 176.76 1033.77 179.22" style="stroke:#1a83af;stroke-width:2"/><path fill="#1A83AF" d="m1265.94 526.27-8.965-4.077 3.965 4.034-4.034 3.966 9.034-3.923z" style="stroke:#1a83af;stroke-width:2"/><path fill="none" d="M1235.97 247.03c58.99 19.87 129.59 54.49 97.03 99.97-27.9 38.97-76.17 58.94-121.47 69.09" style="stroke:#1a83af;stroke-width:2"/><path fill="#1A83AF" d="m1206.59 417.16 9.642 2.006-4.755-3.063 3.063-4.756-7.95 5.813z" style="stroke:#1a83af;stroke-width:2"/><path fill="none" d="M1172.42 347.36c-14.51 15.97-35.13 38.68-50.48 55.59" style="stroke:#1a83af;stroke-width:2"/><path fill="#1A83AF" d="m1118.55 406.68 9.01-3.977-5.65.274-.275-5.65-3.085 9.353z" style="stroke:#1a83af;stroke-width:2"/></svg>