<svg xmlns="http://www.w3.org/2000/svg" xmlns:xlink="http://www.w3.org/1999/xlink" width="4384" height="652" preserveAspectRatio="none" style="width:4384px;height:652px;background:#00000000"><a xlink:actuate="onRequest" xlink:href="#a" xlink:show="new" xlink:title="#digitalocean_snapshot" xlink:type="simple" target="_top"><rect id="a" width="227" height="39.789" x="1485.5" y="607" fill="#3D176E" rx="2.5" ry="2.5" style="stroke:#000d19;stroke-width:1.5"/><circle cx="1500.5" cy="626.894" r="11" fill="#E98DF7" style="stroke:#000d19;stroke-width:1"/><path d="M1503.469 632.535q-.578.297-1.219.438-.64.156-1.344.156-2.5 0-3.828-1.64-1.312-1.657-1.312-4.782t1.312-4.781q1.328-1.657 3.828-1.657.703 0 1.344.157.656.156 1.219.453v2.719q-.625-.578-1.219-.844-.594-.281-1.219-.281-1.343 0-2.031 1.078-.688 1.062-.688 3.156 0 2.094.688 3.172.688 1.062 2.031 1.062.625 0 1.219-.265.594-.282 1.219-.86v2.72Z"/><text x="1519.5" y="632.78" fill="#D9B8FF" font-family="Helvetica" font-size="17" textLength="185">digitalocean_snapshot</text></a><a xlink:actuate="onRequest" xlink:href="#b" xlink:show="new" xlink:title="#digitalocean_resource" xlink:type="simple" target="_top"><rect id="b" width="223" height="39.789" x="2289.5" y="107" fill="#3D176E" rx="2.5" ry="2.5" style="stroke:#000d19;stroke-width:1.5"/><circle cx="2304.5" cy="126.894" r="11" fill="#E98DF7" style="stroke:#000d19;stroke-width:1"/><path d="M2307.469 132.535q-.578.297-1.219.438-.64.156-1.344.156-2.5 0-3.828-1.64-1.312-1.657-1.312-4.782t1.312-4.781q1.328-1.657 3.828-1.657.703 0 1.344.157.656.156 1.219.453v2.719q-.625-.579-1.219-.844-.594-.281-1.219-.281-1.343 0-2.031 1.078-.688 1.062-.688 3.156 0 2.094.688 3.172.688 1.062 2.031 1.062.625 0 1.219-.265.594-.281 1.219-.86v2.72Z"/><text x="2323.5" y="132.78" fill="#D9B8FF" font-family="Helvetica" font-size="17" textLength="181">digitalocean_resource</text></a><a xlink:actuate="onRequest" xlink:href="#c" xlink:show="new" xlink:title="#digitalocean_firewall" xlink:type="simple" target="_top"><rect id="c" width="215" height="39.789" x="59.5" y="207" fill="#3D176E" rx="2.5" ry="2.5" style="stroke:#000d19;stroke-width:1.5"/><circle cx="74.5" cy="226.894" r="11" fill="#E98DF7" style="stroke:#000d19;stroke-width:1"/><path d="M77.469 232.535q-.578.297-1.219.438-.64.156-1.344.156-2.5 0-3.828-1.64-1.312-1.657-1.312-4.782t1.312-4.781q1.328-1.656 3.828-1.656.703 0 1.344.156.656.156 1.219.453v2.719q-.625-.579-1.219-.844-.594-.281-1.219-.281-1.344 0-2.031 1.078-.688 1.062-.688 3.156 0 2.094.688 3.172.688 1.062 2.031 1.062.625 0 1.219-.265.594-.281 1.219-.86v2.72Z"/><text x="93.5" y="232.78" fill="#D9B8FF" font-family="Helvetica" font-size="17" textLength="173">digitalocean_firewall</text></a><a xlink:actuate="onRequest" xlink:href="#d" xlink:show="new" xlink:title="#digitalocean_droplet" xlink:type="simple" target="_top"><rect id="d" width="211" height="39.789" x="808.5" y="407" fill="#3D176E" rx="2.5" ry="2.5" style="stroke:#000d19;stroke-width:1.5"/><circle cx="823.5" cy="426.894" r="11" fill="#E98DF7" style="stroke:#000d19;stroke-width:1"/><path d="M826.469 432.535q-.578.297-1.219.438-.64.156-1.344.156-2.5 0-3.828-1.64-1.312-1.657-1.312-4.782t1.312-4.781q1.328-1.656 3.828-1.656.703 0 1.344.156.656.156 1.219.453v2.719q-.625-.579-1.219-.844-.594-.281-1.219-.281-1.343 0-2.031 1.078-.688 1.062-.688 3.156 0 2.094.688 3.172.688 1.062 2.031 1.062.625 0 1.219-.265.594-.281 1.219-.86v2.72Z"/><text x="842.5" y="432.78" fill="#D9B8FF" font-family="Helvetica" font-size="17" textLength="169">digitalocean_droplet</text></a><a xlink:actuate="onRequest" xlink:href="#e" xlink:show="new" xlink:title="#digitalocean_floating_ip" xlink:type="simple" target="_top"><rect id="e" width="240" height="39.789" x="1838" y="507" fill="#3D176E" rx="2.5" ry="2.5" style="stroke:#000d19;stroke-width:1.5"/><circle cx="1853" cy="526.894" r="11" fill="#E98DF7" style="stroke:#000d19;stroke-width:1"/><path d="M1855.969 532.535q-.578.297-1.219.438-.64.156-1.344.156-2.5 0-3.828-1.64-1.312-1.657-1.312-4.782t1.312-4.781q1.328-1.657 3.828-1.657.703 0 1.344.157.656.156 1.219.453v2.719q-.625-.578-1.219-.844-.594-.281-1.219-.281-1.343 0-2.031 1.078-.688 1.062-.688 3.156 0 2.094.688 3.172.688 1.062 2.031 1.062.625 0 1.219-.265.594-.282 1.219-.86v2.72Z"/><text x="1872" y="532.78" fill="#D9B8FF" font-family="Helvetica" font-size="17" textLength="198">digitalocean_floating_ip</text></a><a xlink:actuate="onRequest" xlink:href="#f" xlink:show="new" xlink:title="#digitalocean_volume" xlink:type="simple" target="_top"><rect id="f" width="215" height="39.789" x="971.5" y="507" fill="#3D176E" rx="2.5" ry="2.5" style="stroke:#000d19;stroke-width:1.5"/><circle cx="986.5" cy="526.894" r="11" fill="#E98DF7" style="stroke:#000d19;stroke-width:1"/><path d="M989.469 532.535q-.578.297-1.219.438-.64.156-1.344.156-2.5 0-3.828-1.64-1.312-1.657-1.312-4.782t1.312-4.781q1.328-1.657 3.828-1.657.703 0 1.344.157.656.156 1.219.453v2.719q-.625-.578-1.219-.844-.594-.281-1.219-.281-1.343 0-2.031 1.078-.688 1.062-.688 3.156 0 2.094.688 3.172.688 1.062 2.031 1.062.625 0 1.219-.265.594-.282 1.219-.86v2.72Z"/><text x="1005.5" y="532.78" fill="#D9B8FF" font-family="Helvetica" font-size="17" textLength="173">digitalocean_volume</text></a><a xlink:actuate="onRequest" xlink:href="#g" xlink:show="new" xlink:title="#digitalocean_cdn_endpoint" xlink:type="simple" target="_top"><rect id="g" width="264" height="39.789" x="3092" y="107" fill="#3D176E" rx="2.5" ry="2.5" style="stroke:#000d19;stroke-width:1.5"/><circle cx="3107" cy="126.894" r="11" fill="#E98DF7" style="stroke:#000d19;stroke-width:1"/><path d="M3109.969 132.535q-.578.297-1.219.438-.64.156-1.344.156-2.5 0-3.828-1.64-1.312-1.657-1.312-4.782t1.312-4.781q1.328-1.657 3.828-1.657.703 0 1.344.157.656.156 1.219.453v2.719q-.625-.579-1.219-.844-.594-.281-1.219-.281-1.343 0-2.031 1.078-.688 1.062-.688 3.156 0 2.094.688 3.172.688 1.062 2.031 1.062.625 0 1.219-.265.594-.281 1.219-.86v2.72Z"/><text x="3126" y="132.78" fill="#D9B8FF" font-family="Helvetica" font-size="17" textLength="222">digitalocean_cdn_endpoint</text></a><a xlink:actuate="onRequest" xlink:href="#h" xlink:show="new" xlink:title="#digitalocean_region" xlink:type="simple" target="_top"><rect id="h" width="205" height="39.789" x="1480.5" y="107" fill="#3D176E" rx="2.5" ry="2.5" style="stroke:#000d19;stroke-width:1.5"/><circle cx="1495.5" cy="126.894" r="11" fill="#E98DF7" style="stroke:#000d19;stroke-width:1"/><path d="M1498.469 132.535q-.578.297-1.219.438-.64.156-1.344.156-2.5 0-3.828-1.64-1.312-1.657-1.312-4.782t1.312-4.781q1.328-1.657 3.828-1.657.703 0 1.344.157.656.156 1.219.453v2.719q-.625-.579-1.219-.844-.594-.281-1.219-.281-1.343 0-2.031 1.078-.688 1.062-.688 3.156 0 2.094.688 3.172.688 1.062 2.031 1.062.625 0 1.219-.265.594-.281 1.219-.86v2.72Z"/><text x="1514.5" y="132.78" fill="#D9B8FF" font-family="Helvetica" font-size="17" textLength="163">digitalocean_region</text></a><a xlink:actuate="onRequest" xlink:href="#i" xlink:show="new" xlink:title="#digitalocean_container_registry" xlink:type="simple" target="_top"><rect id="i" width="304" height="39.789" x="2611" y="207" fill="#3D176E" rx="2.5" ry="2.5" style="stroke:#000d19;stroke-width:1.5"/><circle cx="2626" cy="226.894" r="11" fill="#E98DF7" style="stroke:#000d19;stroke-width:1"/><path d="M2628.969 232.535q-.578.297-1.219.438-.64.156-1.344.156-2.5 0-3.828-1.64-1.312-1.657-1.312-4.782t1.312-4.781q1.328-1.656 3.828-1.656.703 0 1.344.156.656.156 1.219.453v2.719q-.625-.579-1.219-.844-.594-.281-1.219-.281-1.343 0-2.031 1.078-.688 1.062-.688 3.156 0 2.094.688 3.172.688 1.062 2.031 1.062.625 0 1.219-.265.594-.281 1.219-.86v2.72Z"/><text x="2645" y="232.78" fill="#D9B8FF" font-family="Helvetica" font-size="17" textLength="262">digitalocean_container_registry</text></a><a xlink:actuate="onRequest" xlink:href="#j" xlink:show="new" xlink:title="#digitalocean_space" xlink:type="simple" target="_top"><rect id="j" width="198" height="39.789" x="1772" y="307" fill="#3D176E" rx="2.5" ry="2.5" style="stroke:#000d19;stroke-width:1.5"/><circle cx="1787" cy="326.894" r="11" fill="#E98DF7" style="stroke:#000d19;stroke-width:1"/><path d="M1789.969 332.535q-.578.297-1.219.438-.64.156-1.344.156-2.5 0-3.828-1.64-1.312-1.657-1.312-4.782t1.312-4.781q1.328-1.656 3.828-1.656.703 0 1.344.156.656.156 1.219.453v2.719q-.625-.579-1.219-.844-.594-.281-1.219-.281-1.343 0-2.031 1.078-.688 1.062-.688 3.156 0 2.094.688 3.172.688 1.062 2.031 1.062.625 0 1.219-.265.594-.281 1.219-.86v2.72Z"/><text x="1806" y="332.78" fill="#D9B8FF" font-family="Helvetica" font-size="17" textLength="156">digitalocean_space</text></a><a xlink:actuate="onRequest" xlink:href="#k" xlink:show="new" xlink:title="#digitalocean_kubernetes_cluster" xlink:type="simple" target="_top"><rect id="k" width="311" height="39.789" x="362.5" y="307" fill="#3D176E" rx="2.5" ry="2.5" style="stroke:#000d19;stroke-width:1.5"/><circle cx="377.5" cy="326.894" r="11" fill="#E98DF7" style="stroke:#000d19;stroke-width:1"/><path d="M380.469 332.535q-.578.297-1.219.438-.64.156-1.344.156-2.5 0-3.828-1.64-1.312-1.657-1.312-4.782t1.312-4.781q1.328-1.656 3.828-1.656.703 0 1.344.156.656.156 1.219.453v2.719q-.625-.579-1.219-.844-.594-.281-1.219-.281-1.344 0-2.031 1.078-.688 1.062-.688 3.156 0 2.094.688 3.172.688 1.062 2.031 1.062.625 0 1.219-.265.594-.281 1.219-.86v2.72Z"/><text x="396.5" y="332.78" fill="#D9B8FF" font-family="Helvetica" font-size="17" textLength="269">digitalocean_kubernetes_cluster</text></a><a xlink:actuate="onRequest" xlink:href="#l" xlink:show="new" xlink:title="#digitalocean_database" xlink:type="simple" target="_top"><rect id="l" width="227" height="39.789" x="1367.5" y="307" fill="#3D176E" rx="2.5" ry="2.5" style="stroke:#000d19;stroke-width:1.5"/><circle cx="1382.5" cy="326.894" r="11" fill="#E98DF7" style="stroke:#000d19;stroke-width:1"/><path d="M1385.469 332.535q-.578.297-1.219.438-.64.156-1.344.156-2.5 0-3.828-1.64-1.312-1.657-1.312-4.782t1.312-4.781q1.328-1.656 3.828-1.656.703 0 1.344.156.656.156 1.219.453v2.719q-.625-.579-1.219-.844-.594-.281-1.219-.281-1.343 0-2.031 1.078-.688 1.062-.688 3.156 0 2.094.688 3.172.688 1.062 2.031 1.062.625 0 1.219-.265.594-.281 1.219-.86v2.72Z"/><text x="1401.5" y="332.78" fill="#D9B8FF" font-family="Helvetica" font-size="17" textLength="185">digitalocean_database</text></a><a xlink:actuate="onRequest" xlink:href="#m" xlink:show="new" xlink:title="#digitalocean_image" xlink:type="simple" target="_top"><rect id="m" width="204" height="39.789" x="391" y="207" fill="#3D176E" rx="2.5" ry="2.5" style="stroke:#000d19;stroke-width:1.5"/><circle cx="406" cy="226.894" r="11" fill="#E98DF7" style="stroke:#000d19;stroke-width:1"/><path d="M408.969 232.535q-.578.297-1.219.438-.64.156-1.344.156-2.5 0-3.828-1.64-1.312-1.657-1.312-4.782t1.312-4.781q1.328-1.656 3.828-1.656.703 0 1.344.156.656.156 1.219.453v2.719q-.625-.579-1.219-.844-.594-.281-1.219-.281-1.344 0-2.031 1.078-.688 1.062-.688 3.156 0 2.094.688 3.172.688 1.062 2.031 1.062.625 0 1.219-.265.594-.281 1.219-.86v2.72Z"/><text x="425" y="232.78" fill="#D9B8FF" font-family="Helvetica" font-size="17" textLength="162">digitalocean_image</text></a><a xlink:actuate="onRequest" xlink:href="#n" xlink:show="new" xlink:title="#digitalocean_app" xlink:type="simple" target="_top"><rect id="n" width="182" height="39.789" x="1484" y="407" fill="#3D176E" rx="2.5" ry="2.5" style="stroke:#000d19;stroke-width:1.5"/><circle cx="1499" cy="426.894" r="11" fill="#E98DF7" style="stroke:#000d19;stroke-width:1"/><path d="M1501.969 432.535q-.578.297-1.219.438-.64.156-1.344.156-2.5 0-3.828-1.64-1.312-1.657-1.312-4.782t1.312-4.781q1.328-1.656 3.828-1.656.703 0 1.344.156.656.156 1.219.453v2.719q-.625-.579-1.219-.844-.594-.281-1.219-.281-1.343 0-2.031 1.078-.688 1.062-.688 3.156 0 2.094.688 3.172.688 1.062 2.031 1.062.625 0 1.219-.265.594-.281 1.219-.86v2.72Z"/><text x="1518" y="432.78" fill="#D9B8FF" font-family="Helvetica" font-size="17" textLength="140">digitalocean_app</text></a><a xlink:actuate="onRequest" xlink:href="#o" xlink:show="new" xlink:title="#digitalocean_load_balancer" xlink:type="simple" target="_top"><rect id="o" width="267" height="39.789" x="780.5" y="307" fill="#3D176E" rx="2.5" ry="2.5" style="stroke:#000d19;stroke-width:1.5"/><circle cx="795.5" cy="326.894" r="11" fill="#E98DF7" style="stroke:#000d19;stroke-width:1"/><path d="M798.469 332.535q-.578.297-1.219.438-.64.156-1.344.156-2.5 0-3.828-1.64-1.312-1.657-1.312-4.782t1.312-4.781q1.328-1.656 3.828-1.656.703 0 1.344.156.656.156 1.219.453v2.719q-.625-.579-1.219-.844-.594-.281-1.219-.281-1.343 0-2.031 1.078-.688 1.062-.688 3.156 0 2.094.688 3.172.688 1.062 2.031 1.062.625 0 1.219-.265.594-.281 1.219-.86v2.72Z"/><text x="814.5" y="332.78" fill="#D9B8FF" font-family="Helvetica" font-size="17" textLength="225">digitalocean_load_balancer</text></a><a xlink:actuate="onRequest" xlink:href="#p" xlink:show="new" xlink:title="#digitalocean_vpc" xlink:type="simple" target="_top"><rect id="p" width="180" height="39.789" x="772" y="207" fill="#3D176E" rx="2.5" ry="2.5" style="stroke:#000d19;stroke-width:1.5"/><circle cx="787" cy="226.894" r="11" fill="#E98DF7" style="stroke:#000d19;stroke-width:1"/><path d="M789.969 232.535q-.578.297-1.219.438-.64.156-1.344.156-2.5 0-3.828-1.64-1.312-1.657-1.312-4.782t1.312-4.781q1.328-1.656 3.828-1.656.703 0 1.344.156.656.156 1.219.453v2.719q-.625-.579-1.219-.844-.594-.281-1.219-.281-1.343 0-2.031 1.078-.688 1.062-.688 3.156 0 2.094.688 3.172.688 1.062 2.031 1.062.625 0 1.219-.265.594-.281 1.219-.86v2.72Z"/><text x="806" y="232.78" fill="#D9B8FF" font-family="Helvetica" font-size="17" textLength="138">digitalocean_vpc</text></a><a xlink:actuate="onRequest" xlink:href="#q" xlink:show="new" xlink:title="#digitalocean_tag" xlink:type="simple" target="_top"><rect id="q" width="179" height="39.789" x="3391.5" y="107" fill="#3D176E" rx="2.5" ry="2.5" style="stroke:#000d19;stroke-width:1.5"/><circle cx="3406.5" cy="126.894" r="11" fill="#E98DF7" style="stroke:#000d19;stroke-width:1"/><path d="M3409.469 132.535q-.578.297-1.219.438-.64.156-1.344.156-2.5 0-3.828-1.64-1.312-1.657-1.312-4.782t1.312-4.781q1.328-1.657 3.828-1.657.703 0 1.344.157.656.156 1.219.453v2.719q-.625-.579-1.219-.844-.594-.281-1.219-.281-1.343 0-2.031 1.078-.688 1.062-.688 3.156 0 2.094.688 3.172.688 1.062 2.031 1.062.625 0 1.219-.265.594-.281 1.219-.86v2.72Z"/><text x="3425.5" y="132.78" fill="#D9B8FF" font-family="Helvetica" font-size="17" textLength="137">digitalocean_tag</text></a><a xlink:actuate="onRequest" xlink:href="#r" xlink:show="new" xlink:title="#digitalocean_team" xlink:type="simple" target="_top"><rect id="r" width="196" height="39.789" x="2067" y="7" fill="#3D176E" rx="2.5" ry="2.5" style="stroke:#000d19;stroke-width:1.5"/><circle cx="2082" cy="26.895" r="11" fill="#E98DF7" style="stroke:#000d19;stroke-width:1"/><path d="M2084.969 32.535q-.578.297-1.219.438-.64.156-1.344.156-2.5 0-3.828-1.64-1.312-1.657-1.312-4.782t1.312-4.781q1.328-1.656 3.828-1.656.703 0 1.344.156.656.156 1.219.453v2.719q-.625-.578-1.219-.844-.594-.281-1.219-.281-1.343 0-2.031 1.078-.688 1.062-.688 3.156 0 2.094.688 3.172.688 1.062 2.031 1.062.625 0 1.219-.265.594-.281 1.219-.86v2.72Z"/><text x="2101" y="32.78" fill="#D9B8FF" font-family="Helvetica" font-size="17" textLength="154">digitalocean_team</text></a><a xlink:actuate="onRequest" xlink:href="#s" xlink:show="new" xlink:title="#digitalocean_domain" xlink:type="simple" target="_top"><rect id="s" width="215" height="39.789" x="2289.5" y="307" fill="#3D176E" rx="2.5" ry="2.5" style="stroke:#000d19;stroke-width:1.5"/><circle cx="2304.5" cy="326.894" r="11" fill="#E98DF7" style="stroke:#000d19;stroke-width:1"/><path d="M2307.469 332.535q-.578.297-1.219.438-.64.156-1.344.156-2.5 0-3.828-1.64-1.312-1.657-1.312-4.782t1.312-4.781q1.328-1.656 3.828-1.656.703 0 1.344.156.656.156 1.219.453v2.719q-.625-.579-1.219-.844-.594-.281-1.219-.281-1.343 0-2.031 1.078-.688 1.062-.688 3.156 0 2.094.688 3.172.688 1.062 2.031 1.062.625 0 1.219-.265.594-.281 1.219-.86v2.72Z"/><text x="2323.5" y="332.78" fill="#D9B8FF" font-family="Helvetica" font-size="17" textLength="173">digitalocean_domain</text></a><a xlink:actuate="onRequest" xlink:href="#t" xlink:show="new" xlink:title="#digitalocean_certificate" xlink:type="simple" target="_top"><rect id="t" width="235" height="39.789" x="3605.5" y="107" fill="#3D176E" rx="2.5" ry="2.5" style="stroke:#000d19;stroke-width:1.5"/><circle cx="3620.5" cy="126.894" r="11" fill="#E98DF7" style="stroke:#000d19;stroke-width:1"/><path d="M3623.469 132.535q-.578.297-1.219.438-.64.156-1.344.156-2.5 0-3.828-1.64-1.312-1.657-1.312-4.782t1.312-4.781q1.328-1.657 3.828-1.657.703 0 1.344.157.656.156 1.219.453v2.719q-.625-.579-1.219-.844-.594-.281-1.219-.281-1.343 0-2.031 1.078-.688 1.062-.688 3.156 0 2.094.688 3.172.688 1.062 2.031 1.062.625 0 1.219-.265.594-.281 1.219-.86v2.72Z"/><text x="3639.5" y="132.78" fill="#D9B8FF" font-family="Helvetica" font-size="17" textLength="193">digitalocean_certificate</text></a><a xlink:actuate="onRequest" xlink:href="#u" xlink:show="new" xlink:title="#digitalocean_domain_record" xlink:type="simple" target="_top"><rect id="u" width="276" height="39.789" x="2354" y="407" fill="#3D176E" rx="2.5" ry="2.5" style="stroke:#000d19;stroke-width:1.5"/><circle cx="2369" cy="426.894" r="11" fill="#E98DF7" style="stroke:#000d19;stroke-width:1"/><path d="M2371.969 432.535q-.578.297-1.219.438-.64.156-1.344.156-2.5 0-3.828-1.64-1.312-1.657-1.312-4.782t1.312-4.781q1.328-1.656 3.828-1.656.703 0 1.344.156.656.156 1.219.453v2.719q-.625-.579-1.219-.844-.594-.281-1.219-.281-1.343 0-2.031 1.078-.688 1.062-.688 3.156 0 2.094.688 3.172.688 1.062 2.031 1.062.625 0 1.219-.265.594-.281 1.219-.86v2.72Z"/><text x="2388" y="432.78" fill="#D9B8FF" font-family="Helvetica" font-size="17" textLength="234">digitalocean_domain_record</text></a><a xlink:actuate="onRequest" xlink:href="#v" xlink:show="new" xlink:title="#digitalocean_container_registry_repository" xlink:type="simple" target="_top"><rect id="v" width="397" height="39.789" x="2610.5" y="307" fill="#3D176E" rx="2.5" ry="2.5" style="stroke:#000d19;stroke-width:1.5"/><circle cx="2625.5" cy="326.894" r="11" fill="#E98DF7" style="stroke:#000d19;stroke-width:1"/><path d="M2628.469 332.535q-.578.297-1.219.438-.64.156-1.344.156-2.5 0-3.828-1.64-1.312-1.657-1.312-4.782t1.312-4.781q1.328-1.656 3.828-1.656.703 0 1.344.156.656.156 1.219.453v2.719q-.625-.579-1.219-.844-.594-.281-1.219-.281-1.343 0-2.031 1.078-.688 1.062-.688 3.156 0 2.094.688 3.172.688 1.062 2.031 1.062.625 0 1.219-.265.594-.281 1.219-.86v2.72Z"/><text x="2644.5" y="332.78" fill="#D9B8FF" font-family="Helvetica" font-size="17" textLength="355">digitalocean_container_registry_repository</text></a><a xlink:actuate="onRequest" xlink:href="#w" xlink:show="new" xlink:title="#digitalocean_ssh_key" xlink:type="simple" target="_top"><rect id="w" width="218" height="39.789" x="3876" y="107" fill="#3D176E" rx="2.5" ry="2.5" style="stroke:#000d19;stroke-width:1.5"/><circle cx="3891" cy="126.894" r="11" fill="#E98DF7" style="stroke:#000d19;stroke-width:1"/><path d="M3893.969 132.535q-.578.297-1.219.438-.64.156-1.344.156-2.5 0-3.828-1.64-1.312-1.657-1.312-4.782t1.312-4.781q1.328-1.657 3.828-1.657.703 0 1.344.157.656.156 1.219.453v2.719q-.625-.579-1.219-.844-.594-.281-1.219-.281-1.343 0-2.031 1.078-.688 1.062-.688 3.156 0 2.094.688 3.172.688 1.062 2.031 1.062.625 0 1.219-.265.594-.281 1.219-.86v2.72Z"/><text x="3910" y="132.78" fill="#D9B8FF" font-family="Helvetica" font-size="17" textLength="176">digitalocean_ssh_key</text></a><a xlink:actuate="onRequest" xlink:href="#x" xlink:show="new" xlink:title="#digitalocean_container_registry_repository_tag" xlink:type="simple" target="_top"><rect id="x" width="433" height="39.789" x="2754.5" y="407" fill="#3D176E" rx="2.5" ry="2.5" style="stroke:#000d19;stroke-width:1.5"/><circle cx="2769.5" cy="426.894" r="11" fill="#E98DF7" style="stroke:#000d19;stroke-width:1"/><path d="M2772.469 432.535q-.578.297-1.219.438-.64.156-1.344.156-2.5 0-3.828-1.64-1.312-1.657-1.312-4.782t1.312-4.781q1.328-1.656 3.828-1.656.703 0 1.344.156.656.156 1.219.453v2.719q-.625-.579-1.219-.844-.594-.281-1.219-.281-1.343 0-2.031 1.078-.688 1.062-.688 3.156 0 2.094.688 3.172.688 1.062 2.031 1.062.625 0 1.219-.265.594-.281 1.219-.86v2.72Z"/><text x="2788.5" y="432.78" fill="#D9B8FF" font-family="Helvetica" font-size="17" textLength="391">digitalocean_container_registry_repository_tag</text></a><a xlink:actuate="onRequest" xlink:href="#y" xlink:show="new" xlink:title="#digitalocean_alert_policy" xlink:type="simple" target="_top"><rect id="y" width="248" height="39.789" x="4129" y="107" fill="#3D176E" rx="2.5" ry="2.5" style="stroke:#000d19;stroke-width:1.5"/><circle cx="4144" cy="126.894" r="11" fill="#E98DF7" style="stroke:#000d19;stroke-width:1"/><path d="M4146.969 132.535q-.578.297-1.219.438-.64.156-1.344.156-2.5 0-3.828-1.64-1.312-1.657-1.312-4.782t1.312-4.781q1.328-1.657 3.828-1.657.703 0 1.344.157.656.156 1.219.453v2.719q-.625-.579-1.219-.844-.594-.281-1.219-.281-1.343 0-2.031 1.078-.688 1.062-.688 3.156 0 2.094.688 3.172.688 1.062 2.031 1.062.625 0 1.219-.265.594-.281 1.219-.86v2.72Z"/><text x="4163" y="132.78" fill="#D9B8FF" font-family="Helvetica" font-size="17" textLength="206">digitalocean_alert_policy</text></a><a xlink:actuate="onRequest" xlink:href="#z" xlink:show="new" xlink:title="#digitalocean_project" xlink:type="simple" target="_top"><rect id="z" width="209" height="39.789" x="1209.5" y="207" fill="#3D176E" rx="2.5" ry="2.5" style="stroke:#000d19;stroke-width:1.5"/><circle cx="1224.5" cy="226.894" r="11" fill="#E98DF7" style="stroke:#000d19;stroke-width:1"/><path d="M1227.469 232.535q-.578.297-1.219.438-.64.156-1.344.156-2.5 0-3.828-1.64-1.312-1.657-1.312-4.782t1.312-4.781q1.328-1.656 3.828-1.656.703 0 1.344.156.656.156 1.219.453v2.719q-.625-.579-1.219-.844-.594-.281-1.219-.281-1.343 0-2.031 1.078-.688 1.062-.688 3.156 0 2.094.688 3.172.688 1.062 2.031 1.062.625 0 1.219-.265.594-.281 1.219-.86v2.72Z"/><text x="1243.5" y="232.78" fill="#D9B8FF" font-family="Helvetica" font-size="17" textLength="167">digitalocean_project</text></a><path fill="none" d="M168.29 247.24c2.93 26.99 12.49 75.5 43.71 99.76 45.66 35.49 405.09 61.57 591.16 72.84" style="stroke:#1a83af;stroke-width:2"/><path fill="#1A83AF" d="m808.34 420.15-8.744-4.533 3.753 4.233-4.233 3.752 9.224-3.452z" style="stroke:#1a83af;stroke-width:2"/><path fill="none" d="M1019.85 437.94c193.94 18.2 605.35 56.82 812.88 76.3" style="stroke:#1a83af;stroke-width:2"/><path fill="#1A83AF" d="m1837.9 514.73-8.582-4.832 3.604 4.36-4.36 3.604 9.338-3.132z" style="stroke:#1a83af;stroke-width:2"/><path fill="none" d="M985.95 447.03c58.77 15.68 143.94 38.72 218.05 59.97 115.87 33.23 250.12 74.2 328.49 98.37" style="stroke:#1a83af;stroke-width:2"/><path fill="#1A83AF" d="m1537.57 606.94-7.427-6.468 2.648 4.999-5 2.647 9.779-1.178z" style="stroke:#1a83af;stroke-width:2"/><path fill="none" d="M946.21 447.13c27.59 16.39 67.33 39.99 96.14 57.1" style="stroke:#1a83af;stroke-width:2"/><path fill="#1A83AF" d="m1046.88 506.92-5.691-8.038 1.393 5.482-5.482 1.394 9.78 1.162z" style="stroke:#1a83af;stroke-width:2"/><path fill="none" d="M1179.88 547.01c90 16.96 221.34 41.72 312.93 58.98" style="stroke:#1a83af;stroke-width:2"/><path fill="#1A83AF" d="m1497.96 606.96-8.1-5.601 3.187 4.673-4.673 3.187 9.586-2.259z" style="stroke:#1a83af;stroke-width:2"/><path fill="none" d="M1685.61 140.53c97.67 18.09 238.89 61.8 302.39 166.47 37.76 62.24 3.09 152.48-17.4 195.06" style="stroke:#1a83af;stroke-width:2"/><path fill="#1A83AF" d="m1968.29 506.76 7.554-6.32-5.352 1.83-1.83-5.352-.372 9.842z" style="stroke:#1a83af;stroke-width:2"/><path fill="none" d="M1685.65 136.53c206.75 17.17 674.44 56.01 920.02 76.4" style="stroke:#1a83af;stroke-width:2"/><path fill="#1A83AF" d="m2610.71 213.35-8.638-4.731 3.655 4.317-4.317 3.655 9.3-3.241z" style="stroke:#1a83af;stroke-width:2"/><path fill="none" d="M1480.11 131.32c-82.63 6.62-199.15 25.13-288.11 75.68-73.04 41.5-60.53 88.62-127 140-30.55 23.62-69.2 43.69-99.75 57.69" style="stroke:#1a83af;stroke-width:2"/><path fill="#1A83AF" d="m960.42 406.88 9.849-.083-5.297-1.986 1.986-5.297-6.538 7.366z" style="stroke:#1a83af;stroke-width:2"/><path fill="none" d="M1631.53 147.07c33.34 14.17 77.83 35.27 113.47 59.93 41.1 28.44 81.92 70.08 105.51 95.81" style="stroke:#1a83af;stroke-width:2"/><path fill="#1A83AF" d="m1854.14 306.8-3.105-9.347-.263 5.651-5.65-.262 9.018 3.958z" style="stroke:#1a83af;stroke-width:2"/><path fill="none" d="M1480.33 133.03C1289.59 143.15 887.78 168.38 754 207c-2.57.74-126.36 63.41-193.59 97.49" style="stroke:#1a83af;stroke-width:2"/><path fill="#1A83AF" d="m555.67 306.9 9.837-.485-5.373-1.768 1.768-5.373-6.232 7.626z" style="stroke:#1a83af;stroke-width:2"/><path fill="none" d="M1573.03 147.35c-18.78 36.46-59.38 115.26-79.79 154.89" style="stroke:#1a83af;stroke-width:2"/><path fill="#1A83AF" d="m1490.86 306.87 7.674-6.173-5.387 1.727-1.727-5.387-.56 9.833z" style="stroke:#1a83af;stroke-width:2"/><path fill="none" d="M1480.2 136.92C1314.48 151.34 978 180.81 693 207c-30.04 2.76-62.62 5.82-92.58 8.67" style="stroke:#1a83af;stroke-width:2"/><path fill="#1A83AF" d="m595.25 216.16 9.337 3.132-4.36-3.604 3.605-4.36-8.582 4.832z" style="stroke:#1a83af;stroke-width:2"/><path fill="none" d="M1590.02 147.24c13.03 38.36 38.19 126.95 21.98 199.76-4.35 19.56-14.09 40-22.48 55.19" style="stroke:#1a83af;stroke-width:2"/><path fill="#1A83AF" d="m1586.96 406.73 7.89-5.894-5.445 1.533-1.533-5.446-.912 9.807z" style="stroke:#1a83af;stroke-width:2"/><path fill="none" d="M1608.26 147.18C1647.59 179.43 1719 248.64 1719 326v102c0 72.52-59.61 141.17-94.8 175.38" style="stroke:#1a83af;stroke-width:2"/><path fill="#1A83AF" d="m1620.45 606.98 9.262-3.349-5.656-.114.115-5.656-3.721 9.119z" style="stroke:#1a83af;stroke-width:2"/><path fill="none" d="M1480.34 135.15c-95.4 9.05-240.29 28.99-359.34 71.85-67.17 24.18-137.65 69.69-176.59 96.88" style="stroke:#1a83af;stroke-width:2"/><path fill="#1A83AF" d="m940.29 306.78 9.667-1.886-5.572-.982.982-5.571-5.077 8.439z" style="stroke:#1a83af;stroke-width:2"/><path fill="none" d="M1480.46 141.94c-139.52 18.96-387.32 52.64-523.04 71.09" style="stroke:#1a83af;stroke-width:2"/><path fill="#1A83AF" d="m952.24 213.73 9.463 2.73-4.51-3.415 3.414-4.51-8.367 5.195z" style="stroke:#1a83af;stroke-width:2"/><path fill="none" d="M2772.09 247.36c7.37 15.71 17.79 37.92 25.69 54.73" style="stroke:#1a83af;stroke-width:2"/><path fill="#1A83AF" d="m2799.93 306.68-.208-9.847-1.919 5.322-5.322-1.919 7.449 6.444z" style="stroke:#1a83af;stroke-width:2"/><path fill="none" d="M594.82 347.01c68.2 16.88 167.57 41.47 237.27 58.72" style="stroke:#1a83af;stroke-width:2"/><path fill="#1A83AF" d="m837.05 406.96-7.778-6.042 2.924 4.843-4.843 2.924 9.697-1.725z" style="stroke:#1a83af;stroke-width:2"/><path fill="none" d="M1499.57 347.36c15.32 15.97 37.1 38.68 53.32 55.59" style="stroke:#1a83af;stroke-width:2"/><path fill="#1A83AF" d="m1556.47 406.68-3.33-9.269-.126 5.656-5.656-.126 9.112 3.739z" style="stroke:#1a83af;stroke-width:2"/><path fill="none" d="M436.14 247.06C380.65 268.63 309.38 306.1 345 347c29.6 33.99 301.16 59.37 458.18 71.35" style="stroke:#1a83af;stroke-width:2"/><path fill="#1A83AF" d="m808.25 418.74-8.665-4.682 3.68 4.296-4.297 3.68 9.282-3.294z" style="stroke:#1a83af;stroke-width:2"/><path fill="none" d="M914 347.36v54.3" style="stroke:#1a83af;stroke-width:2"/><path fill="#1A83AF" d="m914 406.68 4-9-4 4-4-4 4 9z" style="stroke:#1a83af;stroke-width:2"/><path fill="none" d="M952.01 242.25c108.39 17.16 290.79 46.04 410.53 65" style="stroke:#1a83af;stroke-width:2"/><path fill="#1A83AF" d="m1367.48 308.03-8.258-5.367 3.32 4.58-4.58 3.32 9.518-2.533z" style="stroke:#1a83af;stroke-width:2"/><path fill="none" d="M826.33 247.03c-37.07 22.4-86.64 61.46-63.33 99.97 16.66 27.51 46.4 45.91 75.1 57.96" style="stroke:#1a83af;stroke-width:2"/><path fill="#1A83AF" d="m843.07 406.99-6.807-7.118 2.181 5.22-5.219 2.18 9.845-.282z" style="stroke:#1a83af;stroke-width:2"/><path fill="none" d="M795.27 247.01c-59.01 16.81-144.88 41.27-205.39 58.51" style="stroke:#1a83af;stroke-width:2"/><path fill="#1A83AF" d="m584.84 306.96 9.751 1.381-4.942-2.75 2.75-4.944-7.559 6.313z" style="stroke:#1a83af;stroke-width:2"/><path fill="none" d="M872.27 247.36c8.34 15.71 20.12 37.92 29.04 54.73" style="stroke:#1a83af;stroke-width:2"/><path fill="#1A83AF" d="m903.75 306.68-.686-9.825-1.658 5.409-5.409-1.659 7.753 6.075z" style="stroke:#1a83af;stroke-width:2"/><path fill="none" d="M2210.78 47.01c40.01 16.62 98.03 40.71 139.45 57.91" style="stroke:#1a83af;stroke-width:2"/><path fill="#1A83AF" d="m2354.94 106.87-6.761-7.161 2.148 5.233-5.233 2.148 9.846-.22z" style="stroke:#1a83af;stroke-width:2"/><path fill="none" d="M2066.72 29.49C1698.21 35.45 410.54 59.47 233 107 122.96 136.46 6 112.09 6 226v102c0 96.82 684.33 165.28 959.97 188.92" style="stroke:#1a83af;stroke-width:2"/><path fill="#1A83AF" d="m971.2 517.37-8.624-4.756 3.642 4.328-4.327 3.643 9.309-3.215z" style="stroke:#1a83af;stroke-width:2"/><path fill="none" d="M2066.73 28.34C1705.82 30.13 465.97 41.05 302 107c-50.01 20.11-93.92 67.16-117.25 95.71" style="stroke:#1a83af;stroke-width:2"/><path fill="#1A83AF" d="m181.46 206.78 8.762-4.498-5.625.605-.604-5.625-2.533 9.518z" style="stroke:#1a83af;stroke-width:2"/><path fill="none" d="M2066.9 30.24C1739.97 38.08 699.95 65.99 555 107c-88.81 25.13-119.39 32.19-182 100-44.34 48.02-88.02 90.79-45 140 30.75 35.17 314.03 60.27 475.18 71.83" style="stroke:#1a83af;stroke-width:2"/><path fill="#1A83AF" d="m808.39 419.2-8.691-4.633 3.704 4.276-4.276 3.704 9.263-3.347z" style="stroke:#1a83af;stroke-width:2"/><path fill="none" d="M2139.38 47.11c-20.09 15.4-48.41 38.03-71.38 59.89-70.18 66.82-144.4 154.71-178.23 195.87" style="stroke:#1a83af;stroke-width:2"/><path fill="#1A83AF" d="m1886.43 306.94 8.806-4.411-5.63.549-.55-5.63-2.626 9.492z" style="stroke:#1a83af;stroke-width:2"/><path fill="none" d="M2066.57 30.14C1811.62 36.32 1134.43 57.09 916 107c-115.06 26.29-143.88 40.83-246 100-25.81 14.96-89.22 66.65-125.46 96.76" style="stroke:#1a83af;stroke-width:2"/><path fill="#1A83AF" d="m540.69 306.96 9.476-2.685-5.634-.514.514-5.634-4.356 8.833z" style="stroke:#1a83af;stroke-width:2"/><path fill="none" d="M2156.89 47.29C2130.1 110.13 2043.02 307.17 1988 347c-49.55 35.87-211.22 58.63-316.98 70.08" style="stroke:#1a83af;stroke-width:2"/><path fill="#1A83AF" d="m1666.03 417.61 9.381 3-4.41-3.543 3.542-4.41-8.513 4.953z" style="stroke:#1a83af;stroke-width:2"/><path fill="none" d="M2176.88 47.13C2197.1 81.55 2236 156.8 2236 226v202c0 81.66-65.81 84.88-140 119-120.99 55.64-274.1 73.03-378.18 77.99" style="stroke:#1a83af;stroke-width:2"/><path fill="#1A83AF" d="m1712.59 625.24 9.174 3.584-4.18-3.813 3.813-4.179-8.807 4.408z" style="stroke:#1a83af;stroke-width:2"/><path fill="none" d="M2263.26 35.42C2388.39 46.26 2596.37 69.32 2663 107c39.75 22.48 70.64 67.23 87.02 94.99" style="stroke:#1a83af;stroke-width:2"/><path fill="#1A83AF" d="m2752.71 206.63-1.062-9.791-1.45 5.468-5.467-1.45 7.979 5.773z" style="stroke:#1a83af;stroke-width:2"/><path fill="none" d="M2263.16 35.6c96.46 9.75 233.87 30.53 266.84 71.4 53.35 66.14-46.97 155.51-101.33 196.62" style="stroke:#1a83af;stroke-width:2"/><path fill="#1A83AF" d="m2424.51 306.73 9.6-2.2-5.6-.8.8-5.6-4.8 8.6z" style="stroke:#1a83af;stroke-width:2"/><path fill="none" d="M2263.31 35.61C2428.89 48.66 2773.84 76.83 3065 107c7.08.73 14.33 1.51 21.65 2.31" style="stroke:#1a83af;stroke-width:2"/><path fill="#1A83AF" d="m3091.73 109.87-8.497-4.98 3.528 4.422-4.421 3.528 9.39-2.97z" style="stroke:#1a83af;stroke-width:2"/><path fill="none" d="M2066.95 29.16C1748.27 33.46 754.59 51.23 622 107c-48.45 20.38-90.18 67.33-112.25 95.79" style="stroke:#1a83af;stroke-width:2"/><path fill="#1A83AF" d="m506.64 206.85 8.638-4.731-5.606.755-.755-5.606-2.277 9.582z" style="stroke:#1a83af;stroke-width:2"/><path fill="none" d="M2066.93 44.51c-104.12 17.54-268.21 45.17-375.96 63.31" style="stroke:#1a83af;stroke-width:2"/><path fill="#1A83AF" d="m1685.89 108.68 9.539 2.452-4.608-3.28 3.281-4.609-8.212 5.437z" style="stroke:#1a83af;stroke-width:2"/><path fill="none" d="M2165 47.11V328c0 86.52-95.59 146.88-156.86 176.69" style="stroke:#1a83af;stroke-width:2"/><path fill="#1A83AF" d="m2003.43 506.95 9.845-.271-5.334-1.885 1.885-5.333-6.396 7.489z" style="stroke:#1a83af;stroke-width:2"/><path fill="none" d="M2263.29 30.74C2469.69 37.31 2963.15 57.25 3374 107c4.11.5 8.29 1.05 12.52 1.64" style="stroke:#1a83af;stroke-width:2"/><path fill="#1A83AF" d="m3391.49 109.35-8.337-5.243 3.388 4.53-4.53 3.388 9.479-2.675z" style="stroke:#1a83af;stroke-width:2"/><path fill="none" d="M2263.12 30.6C2494.38 37.34 3091.5 58.37 3588 107c3.98.39 8.01.81 12.09 1.26" style="stroke:#1a83af;stroke-width:2"/><path fill="#1A83AF" d="m3605.27 108.83-8.499-4.977 3.53 4.42-4.42 3.53 9.389-2.973z" style="stroke:#1a83af;stroke-width:2"/><path fill="none" d="M2263.28 33.6c105.34 8.29 262.51 28.07 299.72 73.4 73.33 89.32-14.98 238.46-54.13 295.68" style="stroke:#1a83af;stroke-width:2"/><path fill="#1A83AF" d="m2505.91 406.96 8.407-5.13-5.565 1.017-1.017-5.565-1.825 9.678z" style="stroke:#1a83af;stroke-width:2"/><path fill="none" d="M2121.17 47.09c-121.83 53.08-463.94 202.13-591.45 257.69" style="stroke:#1a83af;stroke-width:2"/><path fill="#1A83AF" d="m1524.9 306.87 9.849.068-5.266-2.067 2.068-5.265-6.651 7.264z" style="stroke:#1a83af;stroke-width:2"/><path fill="none" d="M2263.06 34.58C2453.39 49.77 2860.59 94.96 2933 207c25.68 39.73-28.02 75.9-72.62 97.67" style="stroke:#1a83af;stroke-width:2"/><path fill="#1A83AF" d="m2855.82 306.86 9.844-.309-5.34-1.864 1.863-5.34-6.367 7.513z" style="stroke:#1a83af;stroke-width:2"/><path fill="none" d="M2066.76 32.79C1919.35 41.17 1632.68 62.05 1393 107c-164.48 30.85-218.91 14.9-363 100-41.97 24.79-79.07 68.69-99.45 95.68" style="stroke:#1a83af;stroke-width:2"/><path fill="#1A83AF" d="m927.43 306.86 8.6-4.8-5.6.8-.8-5.6-2.2 9.6z" style="stroke:#1a83af;stroke-width:2"/><path fill="none" d="M2066.8 30.54C1800.26 38.01 1076.65 62.19 979 107c-45.24 20.76-82.46 67.25-102.04 95.59" style="stroke:#1a83af;stroke-width:2"/><path fill="#1A83AF" d="m873.97 206.97 8.374-5.184-5.558 1.053-1.052-5.559-1.764 9.69z" style="stroke:#1a83af;stroke-width:2"/><path fill="none" d="M2263.06 29.09C2523.44 32.73 3253.64 47.85 3858 107c4.23.41 8.53.87 12.87 1.36" style="stroke:#1a83af;stroke-width:2"/><path fill="#1A83AF" d="m3875.98 108.96-8.484-5.002 3.517 4.431-4.43 3.517 9.397-2.946z" style="stroke:#1a83af;stroke-width:2"/><path fill="none" d="M2263.15 33.94C2420.26 44.44 2720.63 68.82 2820 107c118.82 45.65 169.69 77.71 205 200 4.93 17.08 5.25 23.02 0 40-6.46 20.89-20.55 41.18-32.72 55.97" style="stroke:#1a83af;stroke-width:2"/><path fill="#1A83AF" d="m2988.91 406.99 8.85-4.32-5.635.49-.492-5.635-2.723 9.465z" style="stroke:#1a83af;stroke-width:2"/><path fill="none" d="M2263.21 28.75C2549.03 31.62 3404.91 45.15 4112 107c3.89.34 7.84.71 11.83 1.11" style="stroke:#1a83af;stroke-width:2"/><path fill="#1A83AF" d="m4128.89 108.62-8.54-4.905 3.566 4.39-4.39 3.568 9.364-3.053z" style="stroke:#1a83af;stroke-width:2"/><path fill="none" d="M2066.92 32.33C1900.36 40.8 1569.85 62.7 1463 107c-52.68 21.84-101.93 68.17-128.51 96.14" style="stroke:#1a83af;stroke-width:2"/><path fill="#1A83AF" d="m1331.04 206.8 9.081-3.812-5.654.171-.172-5.654-3.255 9.295z" style="stroke:#1a83af;stroke-width:2"/><path fill="none" d="m2415.77 347.36 53.88 55.59" style="stroke:#1a83af;stroke-width:2"/><path fill="#1A83AF" d="m2473.27 406.68-3.387-9.248-.091 5.656-5.656-.091 9.134 3.683z" style="stroke:#1a83af;stroke-width:2"/><path fill="none" d="M2840.62 347.13c27.1 16.39 66.11 39.99 94.4 57.1" style="stroke:#1a83af;stroke-width:2"/><path fill="#1A83AF" d="m2939.46 406.92-5.64-8.074 1.359 5.491-5.492 1.359 9.773 1.224z" style="stroke:#1a83af;stroke-width:2"/><path fill="none" d="M1316.41 247.12c3.84 24.73 13.12 68.39 33.59 99.88 37.11 57.06 54.28 71.29 116 100 116.67 54.26 263.86 72.14 366.71 77.59" style="stroke:#1a83af;stroke-width:2"/><path fill="#1A83AF" d="m1837.88 524.86-8.782-4.458 3.789 4.2-4.201 3.79 9.194-3.532z" style="stroke:#1a83af;stroke-width:2"/><path fill="none" d="M1418.83 237.49c204.39 18.49 654.54 59.23 865.24 78.29" style="stroke:#1a83af;stroke-width:2"/><path fill="#1A83AF" d="m2289.31 316.26-8.61-4.78 3.63 4.338-4.339 3.63 9.319-3.188z" style="stroke:#1a83af;stroke-width:2"/><path fill="none" d="M1287.8 247.21c-35.25 25.23-100.49 69.84-160.8 99.79-47.28 23.48-103.34 44-146.08 58.24" style="stroke:#1a83af;stroke-width:2"/><path fill="#1A83AF" d="m976.04 406.86 9.801.966-5.055-2.539 2.54-5.055-7.286 6.628z" style="stroke:#1a83af;stroke-width:2"/><path fill="none" d="M1418.77 246.43c99.63 17.53 248.66 43.75 348.09 61.25" style="stroke:#1a83af;stroke-width:2"/><path fill="#1A83AF" d="m1771.85 308.56-8.163-5.51 3.24 4.637-4.637 3.24 9.56-2.367z" style="stroke:#1a83af;stroke-width:2"/><path fill="none" d="M1209.12 240.91c-135.73 16.71-373.52 45.99-531.67 65.46" style="stroke:#1a83af;stroke-width:2"/><path fill="#1A83AF" d="m672.33 307 9.414 2.893-4.45-3.492 3.492-4.45L672.33 307z" style="stroke:#1a83af;stroke-width:2"/><path fill="none" d="m1346.6 247.13 97.31 57.1" style="stroke:#1a83af;stroke-width:2"/><path fill="#1A83AF" d="m1448.49 306.92-5.742-8.002 1.428 5.474-5.473 1.428 9.787 1.1z" style="stroke:#1a83af;stroke-width:2"/><path fill="none" d="M1236.4 247.01c-68.89 16.88-169.26 41.47-239.66 58.72" style="stroke:#1a83af;stroke-width:2"/><path fill="#1A83AF" d="m991.72 306.96 9.697 1.725-4.843-2.924 2.924-4.843-7.778 6.042z" style="stroke:#1a83af;stroke-width:2"/><path fill="none" d="M1298.94 247.09c-41.35 52.44-156.57 198.55-201.59 255.64" style="stroke:#1a83af;stroke-width:2"/><path fill="#1A83AF" d="m1094.24 506.68 8.715-4.587-5.618.662-.662-5.618-2.435 9.543z" style="stroke:#1a83af;stroke-width:2"/></svg>