<svg xmlns="http://www.w3.org/2000/svg" xmlns:xlink="http://www.w3.org/1999/xlink" width="426" height="452" preserveAspectRatio="none" style="width:426px;height:452px;background:#00000000"><a xlink:actuate="onRequest" xlink:href="#a" xlink:show="new" xlink:title="#digitalocean_volume" xlink:type="simple" target="_top"><rect id="a" width="215" height="39.789" x="204.76" y="307" fill="#3D176E" rx="2.5" ry="2.5" style="stroke:#000d19;stroke-width:1.5"/><circle cx="219.76" cy="326.894" r="11" fill="#E98DF7" style="stroke:#000d19;stroke-width:1"/><path d="M222.729 332.535q-.578.297-1.219.438-.64.156-1.344.156-2.5 0-3.828-1.64-1.312-1.657-1.312-4.782t1.312-4.781q1.328-1.656 3.828-1.656.703 0 1.344.156.656.156 1.219.453v2.719q-.625-.579-1.219-.844-.594-.281-1.219-.281-1.344 0-2.031 1.078-.688 1.062-.688 3.156 0 2.094.688 3.172.688 1.062 2.031 1.062.625 0 1.219-.265.594-.281 1.219-.86v2.72Z"/><text x="238.76" y="332.78" fill="#D9B8FF" font-family="Helvetica" font-size="17" textLength="173">digitalocean_volume</text></a><a xlink:actuate="onRequest" xlink:href="#b" xlink:show="new" xlink:title="#digitalocean_snapshot" xlink:type="simple" target="_top"><rect id="b" width="227" height="39.789" x="37.76" y="407" fill="#3D176E" rx="2.5" ry="2.5" style="stroke:#000d19;stroke-width:1.5"/><circle cx="52.76" cy="426.894" r="11" fill="#E98DF7" style="stroke:#000d19;stroke-width:1"/><path d="M55.729 432.535q-.578.297-1.219.438-.64.156-1.344.156-2.5 0-3.828-1.64-1.312-1.657-1.312-4.782t1.312-4.781q1.328-1.656 3.828-1.656.703 0 1.344.156.656.156 1.219.453v2.719q-.625-.579-1.219-.844-.594-.281-1.219-.281-1.343 0-2.031 1.078-.688 1.062-.688 3.156 0 2.094.688 3.172.688 1.062 2.031 1.062.625 0 1.219-.265.594-.281 1.219-.86v2.72Z"/><text x="71.76" y="432.78" fill="#D9B8FF" font-family="Helvetica" font-size="17" textLength="185">digitalocean_snapshot</text></a><a xlink:actuate="onRequest" xlink:href="#c" xlink:show="new" xlink:title="#digitalocean_droplet" xlink:type="simple" target="_top"><rect id="c" width="211" height="39.789" x="47.76" y="207" fill="#3D176E" rx="2.5" ry="2.5" style="stroke:#000d19;stroke-width:1.5"/><circle cx="62.76" cy="226.894" r="11" fill="#E98DF7" style="stroke:#000d19;stroke-width:1"/><path d="M65.729 232.535q-.578.297-1.219.438-.64.156-1.344.156-2.5 0-3.828-1.64-1.312-1.657-1.312-4.782t1.312-4.781q1.328-1.656 3.828-1.656.703 0 1.344.156.656.156 1.219.453v2.719q-.625-.579-1.219-.844-.594-.281-1.219-.281-1.343 0-2.031 1.078-.688 1.062-.688 3.156 0 2.094.688 3.172.688 1.062 2.031 1.062.625 0 1.219-.265.594-.281 1.219-.86v2.72Z"/><text x="81.76" y="232.78" fill="#D9B8FF" font-family="Helvetica" font-size="17" textLength="169">digitalocean_droplet</text></a><a xlink:actuate="onRequest" xlink:href="#d" xlink:show="new" xlink:title="#digitalocean_project" xlink:type="simple" target="_top"><rect id="d" width="209" height="39.789" x="120.76" y="107" fill="#3D176E" rx="2.5" ry="2.5" style="stroke:#000d19;stroke-width:1.5"/><circle cx="135.76" cy="126.894" r="11" fill="#E98DF7" style="stroke:#000d19;stroke-width:1"/><path d="M138.729 132.535q-.578.297-1.219.438-.64.156-1.344.156-2.5 0-3.828-1.64-1.312-1.657-1.312-4.782t1.312-4.781q1.328-1.657 3.828-1.657.703 0 1.344.157.656.156 1.219.453v2.719q-.625-.579-1.219-.844-.594-.281-1.219-.281-1.344 0-2.031 1.078-.688 1.062-.688 3.156 0 2.094.688 3.172.688 1.062 2.031 1.062.625 0 1.219-.265.594-.281 1.219-.86v2.72Z"/><text x="154.76" y="132.78" fill="#D9B8FF" font-family="Helvetica" font-size="17" textLength="167">digitalocean_project</text></a><a xlink:actuate="onRequest" xlink:href="#e" xlink:show="new" xlink:title="#digitalocean_team" xlink:type="simple" target="_top"><rect id="e" width="196" height="39.789" x="48.26" y="7" fill="#3D176E" rx="2.5" ry="2.5" style="stroke:#000d19;stroke-width:1.5"/><circle cx="63.26" cy="26.895" r="11" fill="#E98DF7" style="stroke:#000d19;stroke-width:1"/><path d="M66.229 32.535q-.578.297-1.219.438-.64.156-1.344.156-2.5 0-3.828-1.64-1.312-1.657-1.312-4.782t1.312-4.781q1.328-1.656 3.828-1.656.703 0 1.344.156.656.156 1.219.453v2.719q-.625-.578-1.219-.844-.594-.281-1.219-.281-1.343 0-2.031 1.078-.688 1.062-.688 3.156 0 2.094.688 3.172.688 1.062 2.031 1.062.625 0 1.219-.265.594-.281 1.219-.86v2.72Z"/><text x="82.26" y="32.78" fill="#D9B8FF" font-family="Helvetica" font-size="17" textLength="154">digitalocean_team</text></a><path fill="none" d="M280.83 347.13c-26.92 16.39-65.7 39.99-93.81 57.1" style="stroke:#1a83af;stroke-width:2"/><path fill="#1A83AF" d="m182.6 406.92 9.768-1.263-5.497-1.337 1.337-5.496-5.608 8.096z" style="stroke:#1a83af;stroke-width:2"/><path fill="none" d="M184.29 247.13c26.6 16.39 64.89 39.99 92.65 57.1" style="stroke:#1a83af;stroke-width:2"/><path fill="#1A83AF" d="m281.3 306.92-5.556-8.132 1.302 5.505-5.505 1.302 9.759 1.325z" style="stroke:#1a83af;stroke-width:2"/><path fill="none" d="M153.06 247.35c-.36 36.32-1.15 114.62-1.56 154.4" style="stroke:#1a83af;stroke-width:2"/><path fill="#1A83AF" d="m151.45 406.87 4.103-8.954-4.046 3.954-3.954-4.045 3.897 9.045z" style="stroke:#1a83af;stroke-width:2"/><path fill="none" d="M239.87 147.24c11.2 15.48 26.38 38.13 36.39 59.76 14.56 31.45 25.02 70.27 30.79 94.84" style="stroke:#1a83af;stroke-width:2"/><path fill="#1A83AF" d="m308.21 306.85 1.865-9.67-2.993 4.799-4.8-2.994 5.928 7.865z" style="stroke:#1a83af;stroke-width:2"/><path fill="none" d="M211.03 147.36c-11.63 15.84-28.13 38.3-40.52 55.16" style="stroke:#1a83af;stroke-width:2"/><path fill="#1A83AF" d="m167.45 206.68 8.561-4.869-5.593.845-.845-5.593-2.123 9.617z" style="stroke:#1a83af;stroke-width:2"/><path fill="none" d="M161.87 47.36c12.77 15.84 30.87 38.3 44.46 55.16" style="stroke:#1a83af;stroke-width:2"/><path fill="#1A83AF" d="m209.68 106.68-2.512-9.523-.617 5.623-5.623-.617 8.752 4.517z" style="stroke:#1a83af;stroke-width:2"/><path fill="none" d="M131.44 47.12c-16.2 23.3-38.58 64.01-28.18 99.88 5.95 20.52 19 40.82 30.27 55.71" style="stroke:#1a83af;stroke-width:2"/><path fill="#1A83AF" d="m136.66 206.76-2.337-9.568-.72 5.611-5.61-.72 8.667 4.677z" style="stroke:#1a83af;stroke-width:2"/><path fill="none" d="M123.91 47.12C83.82 83.88 6 167.81 30.26 247c19.37 63.24 69.46 124.29 98.77 156.16" style="stroke:#1a83af;stroke-width:2"/><path fill="#1A83AF" d="m132.49 406.9-3.18-9.321-.217 5.652-5.653-.216 9.05 3.885z" style="stroke:#1a83af;stroke-width:2"/><path fill="none" d="M244.37 42.3c38.74 10.97 79.51 30.38 102.89 64.7 41.32 60.63 1.73 152.34-21.21 195.27" style="stroke:#1a83af;stroke-width:2"/><path fill="#1A83AF" d="m323.62 306.76 7.806-6.005-5.423 1.61-1.61-5.423-.773 9.818z" style="stroke:#1a83af;stroke-width:2"/></svg>