<svg xmlns="http://www.w3.org/2000/svg" xmlns:xlink="http://www.w3.org/1999/xlink" width="448" height="452" preserveAspectRatio="none" style="width:448px;height:452px;background:#00000000"><a xlink:actuate="onRequest" xlink:href="#a" xlink:show="new" xlink:title="#digitalocean_volume" xlink:type="simple" target="_top"><rect id="a" width="215" height="39.789" x="90.42" y="307" fill="#3D176E" rx="2.5" ry="2.5" style="stroke:#000d19;stroke-width:1.5"/><circle cx="105.42" cy="326.894" r="11" fill="#E98DF7" style="stroke:#000d19;stroke-width:1"/><path d="M108.389 332.535q-.578.297-1.219.438-.64.156-1.344.156-2.5 0-3.828-1.64-1.312-1.657-1.312-4.782t1.312-4.781q1.328-1.656 3.828-1.656.703 0 1.344.156.656.156 1.219.453v2.719q-.625-.579-1.219-.844-.594-.281-1.219-.281-1.343 0-2.031 1.078-.688 1.062-.688 3.156 0 2.094.688 3.172.688 1.062 2.031 1.062.625 0 1.219-.265.594-.281 1.219-.86v2.72Z"/><text x="124.42" y="332.78" fill="#D9B8FF" font-family="Helvetica" font-size="17" textLength="173">digitalocean_volume</text></a><a xlink:actuate="onRequest" xlink:href="#b" xlink:show="new" xlink:title="#digitalocean_snapshot" xlink:type="simple" target="_top"><rect id="b" width="227" height="39.789" x="164.42" y="407" fill="#3D176E" rx="2.5" ry="2.5" style="stroke:#000d19;stroke-width:1.5"/><circle cx="179.42" cy="426.894" r="11" fill="#E98DF7" style="stroke:#000d19;stroke-width:1"/><path d="M182.389 432.535q-.578.297-1.219.438-.64.156-1.344.156-2.5 0-3.828-1.64-1.312-1.657-1.312-4.782t1.312-4.781q1.328-1.656 3.828-1.656.703 0 1.344.156.656.156 1.219.453v2.719q-.625-.579-1.219-.844-.594-.281-1.219-.281-1.344 0-2.031 1.078-.688 1.062-.688 3.156 0 2.094.688 3.172.688 1.062 2.031 1.062.625 0 1.219-.265.594-.281 1.219-.86v2.72Z"/><text x="198.42" y="432.78" fill="#D9B8FF" font-family="Helvetica" font-size="17" textLength="185">digitalocean_snapshot</text></a><a xlink:actuate="onRequest" xlink:href="#c" xlink:show="new" xlink:title="#digitalocean_droplet" xlink:type="simple" target="_top"><rect id="c" width="211" height="39.789" x="165.42" y="207" fill="#3D176E" rx="2.5" ry="2.5" style="stroke:#000d19;stroke-width:1.5"/><circle cx="180.42" cy="226.894" r="11" fill="#E98DF7" style="stroke:#000d19;stroke-width:1"/><path d="M183.389 232.535q-.578.297-1.219.438-.64.156-1.344.156-2.5 0-3.828-1.64-1.312-1.657-1.312-4.782t1.312-4.781q1.328-1.656 3.828-1.656.703 0 1.344.156.656.156 1.219.453v2.719q-.625-.579-1.219-.844-.594-.281-1.219-.281-1.344 0-2.031 1.078-.688 1.062-.688 3.156 0 2.094.688 3.172.688 1.062 2.031 1.062.625 0 1.219-.265.594-.281 1.219-.86v2.72Z"/><text x="199.42" y="232.78" fill="#D9B8FF" font-family="Helvetica" font-size="17" textLength="169">digitalocean_droplet</text></a><a xlink:actuate="onRequest" xlink:href="#d" xlink:show="new" xlink:title="#digitalocean_team" xlink:type="simple" target="_top"><rect id="d" width="196" height="39.789" x="48.92" y="7" fill="#3D176E" rx="2.5" ry="2.5" style="stroke:#000d19;stroke-width:1.5"/><circle cx="63.92" cy="26.895" r="11" fill="#E98DF7" style="stroke:#000d19;stroke-width:1"/><path d="M66.889 32.535q-.578.297-1.219.438-.64.156-1.344.156-2.5 0-3.828-1.64-1.312-1.657-1.312-4.782t1.312-4.781q1.328-1.656 3.828-1.656.703 0 1.344.156.656.156 1.219.453v2.719q-.625-.578-1.219-.844-.594-.281-1.219-.281-1.343 0-2.031 1.078-.688 1.062-.688 3.156 0 2.094.688 3.172.688 1.062 2.031 1.062.625 0 1.219-.265.594-.281 1.219-.86v2.72Z"/><text x="82.92" y="32.78" fill="#D9B8FF" font-family="Helvetica" font-size="17" textLength="154">digitalocean_team</text></a><a xlink:actuate="onRequest" xlink:href="#e" xlink:show="new" xlink:title="#digitalocean_region" xlink:type="simple" target="_top"><rect id="e" width="205" height="39.789" x="236.42" y="107" fill="#3D176E" rx="2.5" ry="2.5" style="stroke:#000d19;stroke-width:1.5"/><circle cx="251.42" cy="126.894" r="11" fill="#E98DF7" style="stroke:#000d19;stroke-width:1"/><path d="M254.389 132.535q-.578.297-1.219.438-.64.156-1.344.156-2.5 0-3.828-1.64-1.312-1.657-1.312-4.782t1.312-4.781q1.328-1.657 3.828-1.657.703 0 1.344.157.656.156 1.219.453v2.719q-.625-.579-1.219-.844-.594-.281-1.219-.281-1.344 0-2.031 1.078-.688 1.062-.688 3.156 0 2.094.688 3.172.688 1.062 2.031 1.062.625 0 1.219-.265.594-.281 1.219-.86v2.72Z"/><text x="270.42" y="132.78" fill="#D9B8FF" font-family="Helvetica" font-size="17" textLength="163">digitalocean_region</text></a><path fill="none" d="M213.73 347.36c12.93 15.84 31.26 38.3 45.02 55.16" style="stroke:#1a83af;stroke-width:2"/><path fill="#1A83AF" d="m262.15 406.68-2.588-9.503-.572 5.628-5.628-.572 8.788 4.447z" style="stroke:#1a83af;stroke-width:2"/><path fill="none" d="M288.17 247.13c12.36 15.06 27.96 37.22 34.75 59.87 10.14 33.86-9.98 71.89-26.49 95.65" style="stroke:#1a83af;stroke-width:2"/><path fill="#1A83AF" d="m293.39 406.91 8.471-5.024-5.577.947-.947-5.577-1.947 9.654z" style="stroke:#1a83af;stroke-width:2"/><path fill="none" d="m256.5 247.36-41.09 55.16" style="stroke:#1a83af;stroke-width:2"/><path fill="#1A83AF" d="m212.31 306.68 8.589-4.82-5.598.813-.813-5.598-2.178 9.605z" style="stroke:#1a83af;stroke-width:2"/><path fill="none" d="M184.4 47.13c32.24 16.46 78.73 40.19 112.29 57.31" style="stroke:#1a83af;stroke-width:2"/><path fill="#1A83AF" d="m301.54 106.92-6.203-7.65 1.748 5.38-5.38 1.747 9.835.523z" style="stroke:#1a83af;stroke-width:2"/><path fill="none" d="M158.17 47.1c13.99 23.62 38.71 64.98 60.75 99.9 11.94 18.91 25.89 40.06 36.34 55.71" style="stroke:#1a83af;stroke-width:2"/><path fill="#1A83AF" d="m258.11 206.98-1.664-9.707-1.11 5.547-5.547-1.11 8.321 5.27z" style="stroke:#1a83af;stroke-width:2"/><path fill="none" d="M133.03 47.16C96.68 99.85 6 249.5 72.92 347c20.16 29.37 52.9 47.83 86.36 59.42" style="stroke:#1a83af;stroke-width:2"/><path fill="#1A83AF" d="m164.22 408.09-7.267-6.647 2.525 5.062-5.062 2.525 9.804-.94z" style="stroke:#1a83af;stroke-width:2"/><path fill="none" d="M143.52 47.26c-6.09 38.76-16.4 128.58 4.4 199.74 6 20.51 19.04 40.81 30.31 55.7" style="stroke:#1a83af;stroke-width:2"/><path fill="#1A83AF" d="m181.35 306.75-2.337-9.568-.72 5.611-5.61-.72 8.667 4.677z" style="stroke:#1a83af;stroke-width:2"/><path fill="none" d="M325.49 147.36c-10.99 15.84-26.58 38.3-38.28 55.16" style="stroke:#1a83af;stroke-width:2"/><path fill="#1A83AF" d="m284.33 206.68 8.419-5.11-5.567 1.003-1.004-5.567-1.848 9.674z" style="stroke:#1a83af;stroke-width:2"/><path fill="none" d="M357.43 147.26c13.01 14.96 29.33 36.94 36.49 59.74 5.32 16.96 3.59 22.59 0 40-9.76 47.39-16.65 59.43-43 100-13.5 20.79-32.63 41.26-47.92 56.15" style="stroke:#1a83af;stroke-width:2"/><path fill="#1A83AF" d="m299.2 406.82 9.255-3.368-5.656-.103.103-5.656-3.702 9.127z" style="stroke:#1a83af;stroke-width:2"/></svg>