<svg xmlns="http://www.w3.org/2000/svg" xmlns:xlink="http://www.w3.org/1999/xlink" width="463" height="352" preserveAspectRatio="none" style="width:463px;height:352px;background:#00000000"><a xlink:actuate="onRequest" xlink:href="#a" xlink:show="new" xlink:title="#slack_team" xlink:type="simple" target="_top"><rect id="a" width="136" height="39.789" x="250" y="7" fill="#3D176E" rx="2.5" ry="2.5" style="stroke:#000d19;stroke-width:1.5"/><circle cx="265" cy="26.895" r="11" fill="#E98DF7" style="stroke:#000d19;stroke-width:1"/><path d="M267.969 32.535q-.578.297-1.219.438-.64.156-1.344.156-2.5 0-3.828-1.64-1.312-1.657-1.312-4.782t1.312-4.781q1.328-1.656 3.828-1.656.703 0 1.344.156.656.156 1.219.453v2.719q-.625-.578-1.219-.844-.594-.281-1.219-.281-1.344 0-2.031 1.078-.688 1.062-.688 3.156 0 2.094.688 3.172.688 1.062 2.031 1.062.625 0 1.219-.265.594-.281 1.219-.86v2.72Z"/><text x="284" y="32.78" fill="#D9B8FF" font-family="Helvetica" font-size="17" textLength="94">slack_team</text></a><a xlink:actuate="onRequest" xlink:href="#b" xlink:show="new" xlink:title="#slack_region" xlink:type="simple" target="_top"><rect id="b" width="145" height="39.789" x="245.5" y="107" fill="#3D176E" rx="2.5" ry="2.5" style="stroke:#000d19;stroke-width:1.5"/><circle cx="260.5" cy="126.894" r="11" fill="#E98DF7" style="stroke:#000d19;stroke-width:1"/><path d="M263.469 132.535q-.578.297-1.219.438-.64.156-1.344.156-2.5 0-3.828-1.64-1.312-1.657-1.312-4.782t1.312-4.781q1.328-1.657 3.828-1.657.703 0 1.344.157.656.156 1.219.453v2.719q-.625-.579-1.219-.844-.594-.281-1.219-.281-1.344 0-2.031 1.078-.688 1.062-.688 3.156 0 2.094.688 3.172.688 1.062 2.031 1.062.625 0 1.219-.265.594-.281 1.219-.86v2.72Z"/><text x="279.5" y="132.78" fill="#D9B8FF" font-family="Helvetica" font-size="17" textLength="103">slack_region</text></a><a xlink:actuate="onRequest" xlink:href="#c" xlink:show="new" xlink:title="#slack_usergroup" xlink:type="simple" target="_top"><rect id="c" width="176" height="39.789" x="7" y="207" fill="#3D176E" rx="2.5" ry="2.5" style="stroke:#000d19;stroke-width:1.5"/><circle cx="22" cy="226.894" r="11" fill="#E98DF7" style="stroke:#000d19;stroke-width:1"/><path d="M24.969 232.535q-.578.297-1.219.438-.64.156-1.344.156-2.5 0-3.828-1.64-1.312-1.657-1.312-4.782t1.312-4.781q1.328-1.656 3.828-1.656.703 0 1.344.156.656.156 1.219.453v2.719q-.625-.579-1.219-.844-.594-.281-1.219-.281-1.343 0-2.031 1.078-.688 1.062-.688 3.156 0 2.094.688 3.172.688 1.062 2.031 1.062.625 0 1.219-.265.594-.281 1.219-.86v2.72Z"/><text x="41" y="232.78" fill="#D9B8FF" font-family="Helvetica" font-size="17" textLength="134">slack_usergroup</text></a><a xlink:actuate="onRequest" xlink:href="#d" xlink:show="new" xlink:title="#slack_conversation" xlink:type="simple" target="_top"><rect id="d" width="199" height="39.789" x="218.5" y="207" fill="#3D176E" rx="2.5" ry="2.5" style="stroke:#000d19;stroke-width:1.5"/><circle cx="233.5" cy="226.894" r="11" fill="#E98DF7" style="stroke:#000d19;stroke-width:1"/><path d="M236.469 232.535q-.578.297-1.219.438-.64.156-1.344.156-2.5 0-3.828-1.64-1.312-1.657-1.312-4.782t1.312-4.781q1.328-1.656 3.828-1.656.703 0 1.344.156.656.156 1.219.453v2.719q-.625-.579-1.219-.844-.594-.281-1.219-.281-1.344 0-2.031 1.078-.688 1.062-.688 3.156 0 2.094.688 3.172.688 1.062 2.031 1.062.625 0 1.219-.265.594-.281 1.219-.86v2.72Z"/><text x="252.5" y="232.78" fill="#D9B8FF" font-family="Helvetica" font-size="17" textLength="157">slack_conversation</text></a><a xlink:actuate="onRequest" xlink:href="#e" xlink:show="new" xlink:title="#slack_user" xlink:type="simple" target="_top"><rect id="e" width="128" height="39.789" x="254" y="307" fill="#3D176E" rx="2.5" ry="2.5" style="stroke:#000d19;stroke-width:1.5"/><circle cx="269" cy="326.894" r="11" fill="#E98DF7" style="stroke:#000d19;stroke-width:1"/><path d="M271.969 332.535q-.578.297-1.219.438-.64.156-1.344.156-2.5 0-3.828-1.64-1.312-1.657-1.312-4.782t1.312-4.781q1.328-1.656 3.828-1.656.703 0 1.344.156.656.156 1.219.453v2.719q-.625-.579-1.219-.844-.594-.281-1.219-.281-1.344 0-2.031 1.078-.688 1.062-.688 3.156 0 2.094.688 3.172.688 1.062 2.031 1.062.625 0 1.219-.265.594-.281 1.219-.86v2.72Z"/><text x="288" y="332.78" fill="#D9B8FF" font-family="Helvetica" font-size="17" textLength="86">slack_user</text></a><path fill="none" d="M318 47.36v54.3" style="stroke:#1a83af;stroke-width:2"/><path fill="#1A83AF" d="m318 106.68 4-9-4 4-4-4 4 9z" style="stroke:#1a83af;stroke-width:2"/><path fill="none" d="M274.74 147.01c-37.73 16.58-92.4 40.61-131.53 57.8" style="stroke:#1a83af;stroke-width:2"/><path fill="#1A83AF" d="m138.52 206.87 9.849.031-5.274-2.047 2.048-5.273-6.623 7.289z" style="stroke:#1a83af;stroke-width:2"/><path fill="none" d="M318 147.36v54.3" style="stroke:#1a83af;stroke-width:2"/><path fill="#1A83AF" d="m318 206.68 4-9-4 4-4-4 4 9z" style="stroke:#1a83af;stroke-width:2"/><path fill="none" d="M366.06 147.02c25.42 12.84 54.33 32.49 68.94 59.98 21.38 40.24-27.66 75.95-68.67 97.51" style="stroke:#1a83af;stroke-width:2"/><path fill="#1A83AF" d="m361.88 306.81 9.832-.573-5.389-1.72 1.72-5.39-6.163 7.683z" style="stroke:#1a83af;stroke-width:2"/><path fill="none" d="M138.26 247.01c37.73 16.58 92.4 40.61 131.53 57.8" style="stroke:#1a83af;stroke-width:2"/><path fill="#1A83AF" d="m274.48 306.87-6.623-7.29 2.047 5.274-5.273 2.048 9.849-.032z" style="stroke:#1a83af;stroke-width:2"/><path fill="none" d="M318 247.36v54.3" style="stroke:#1a83af;stroke-width:2"/><path fill="#1A83AF" d="m318 306.68 4-9-4 4-4-4 4 9z" style="stroke:#1a83af;stroke-width:2"/></svg>