<svg xmlns="http://www.w3.org/2000/svg" xmlns:xlink="http://www.w3.org/1999/xlink" width="2910" height="881" preserveAspectRatio="none" style="width:2910px;height:881px;background:#00000000"><a xlink:actuate="onRequest" xlink:href="#a" xlink:show="new" xlink:title="#gcp_ssl_certificate" xlink:type="simple" target="_top"><rect id="a" width="192" height="39.789" x="66.66" y="435.8" fill="#3D176E" rx="2.5" ry="2.5" style="stroke:#000d19;stroke-width:1.5"/><circle cx="81.66" cy="455.695" r="11" fill="#E98DF7" style="stroke:#000d19;stroke-width:1"/><path d="M84.629 461.335q-.578.297-1.219.438-.64.156-1.344.156-2.5 0-3.828-1.64-1.312-1.657-1.312-4.782t1.312-4.781q1.328-1.656 3.828-1.656.703 0 1.344.156.656.156 1.219.453v2.719q-.625-.579-1.219-.844-.594-.281-1.219-.281-1.344 0-2.031 1.078-.688 1.062-.688 3.156 0 2.094.688 3.172.688 1.062 2.031 1.062.625 0 1.219-.265.594-.281 1.219-.86v2.72Z"/><text x="100.66" y="461.58" fill="#D9B8FF" font-family="Helvetica" font-size="17" textLength="150">gcp_ssl_certificate</text></a><a xlink:actuate="onRequest" xlink:href="#b" xlink:show="new" xlink:title="#gcp_backend_service" xlink:type="simple" target="_top"><rect id="b" width="215" height="39.789" x="847.16" y="535.8" fill="#3D176E" rx="2.5" ry="2.5" style="stroke:#000d19;stroke-width:1.5"/><circle cx="862.16" cy="555.694" r="11" fill="#E98DF7" style="stroke:#000d19;stroke-width:1"/><path d="M865.129 561.335q-.578.297-1.219.438-.64.156-1.344.156-2.5 0-3.828-1.64-1.312-1.657-1.312-4.782t1.312-4.781q1.328-1.657 3.828-1.657.703 0 1.344.157.656.156 1.219.453v2.719q-.625-.579-1.219-.844-.594-.281-1.219-.281-1.344 0-2.031 1.078-.688 1.062-.688 3.156 0 2.094.688 3.172.688 1.062 2.031 1.062.625 0 1.219-.265.594-.282 1.219-.86v2.72Z"/><text x="881.16" y="561.58" fill="#D9B8FF" font-family="Helvetica" font-size="17" textLength="173">gcp_backend_service</text></a><a xlink:actuate="onRequest" xlink:href="#c" xlink:show="new" xlink:title="#gcp_forwarding_rule" xlink:type="simple" target="_top"><rect id="c" width="212" height="39.789" x="566.66" y="235.8" fill="#3D176E" rx="2.5" ry="2.5" style="stroke:#000d19;stroke-width:1.5"/><circle cx="581.66" cy="255.695" r="11" fill="#E98DF7" style="stroke:#000d19;stroke-width:1"/><path d="M584.629 261.335q-.578.297-1.219.438-.64.156-1.344.156-2.5 0-3.828-1.64-1.312-1.657-1.312-4.782t1.312-4.781q1.328-1.656 3.828-1.656.703 0 1.344.156.656.156 1.219.453v2.719q-.625-.578-1.219-.844-.594-.281-1.219-.281-1.344 0-2.031 1.078-.688 1.062-.688 3.156 0 2.094.688 3.172.688 1.062 2.031 1.062.625 0 1.219-.265.594-.281 1.219-.86v2.72Z"/><text x="600.66" y="261.58" fill="#D9B8FF" font-family="Helvetica" font-size="17" textLength="170">gcp_forwarding_rule</text></a><a xlink:actuate="onRequest" xlink:href="#d" xlink:show="new" xlink:title="#gcp_target_pool" xlink:type="simple" target="_top"><rect id="d" width="174" height="39.789" x="746.66" y="335.8" fill="#3D176E" rx="2.5" ry="2.5" style="stroke:#000d19;stroke-width:1.5"/><circle cx="761.66" cy="355.695" r="11" fill="#E98DF7" style="stroke:#000d19;stroke-width:1"/><path d="M764.629 361.335q-.578.297-1.219.438-.64.156-1.344.156-2.5 0-3.828-1.64-1.312-1.657-1.312-4.782t1.312-4.781q1.328-1.656 3.828-1.656.703 0 1.344.156.656.156 1.219.453v2.719q-.625-.579-1.219-.844-.594-.281-1.219-.281-1.344 0-2.031 1.078-.688 1.062-.688 3.156 0 2.094.688 3.172.688 1.062 2.031 1.062.625 0 1.219-.265.594-.281 1.219-.86v2.72Z"/><text x="780.66" y="361.58" fill="#D9B8FF" font-family="Helvetica" font-size="17" textLength="132">gcp_target_pool</text></a><a xlink:actuate="onRequest" xlink:href="#e" xlink:show="new" xlink:title="#gcp_target_https_proxy" xlink:type="simple" target="_top"><rect id="e" width="238" height="39.789" x="208.66" y="335.8" fill="#3D176E" rx="2.5" ry="2.5" style="stroke:#000d19;stroke-width:1.5"/><circle cx="223.66" cy="355.695" r="11" fill="#E98DF7" style="stroke:#000d19;stroke-width:1"/><path d="M226.629 361.335q-.578.297-1.219.438-.64.156-1.344.156-2.5 0-3.828-1.64-1.312-1.657-1.312-4.782t1.312-4.781q1.328-1.656 3.828-1.656.703 0 1.344.156.656.156 1.219.453v2.719q-.625-.579-1.219-.844-.594-.281-1.219-.281-1.344 0-2.031 1.078-.688 1.062-.688 3.156 0 2.094.688 3.172.688 1.062 2.031 1.062.625 0 1.219-.265.594-.281 1.219-.86v2.72Z"/><text x="242.66" y="361.58" fill="#D9B8FF" font-family="Helvetica" font-size="17" textLength="196">gcp_target_https_proxy</text></a><a xlink:actuate="onRequest" xlink:href="#f" xlink:show="new" xlink:title="#gcp_url_map" xlink:type="simple" target="_top"><rect id="f" width="148" height="39.789" x="683.66" y="435.8" fill="#3D176E" rx="2.5" ry="2.5" style="stroke:#000d19;stroke-width:1.5"/><circle cx="698.66" cy="455.695" r="11" fill="#E98DF7" style="stroke:#000d19;stroke-width:1"/><path d="M701.629 461.335q-.578.297-1.219.438-.64.156-1.344.156-2.5 0-3.828-1.64-1.312-1.657-1.312-4.782t1.312-4.781q1.328-1.656 3.828-1.656.703 0 1.344.156.656.156 1.219.453v2.719q-.625-.579-1.219-.844-.594-.281-1.219-.281-1.344 0-2.031 1.078-.688 1.062-.688 3.156 0 2.094.688 3.172.688 1.062 2.031 1.062.625 0 1.219-.265.594-.281 1.219-.86v2.72Z"/><text x="717.66" y="461.58" fill="#D9B8FF" font-family="Helvetica" font-size="17" textLength="106">gcp_url_map</text></a><a xlink:actuate="onRequest" xlink:href="#g" xlink:show="new" xlink:title="#gcp_vpn_tunnel" xlink:type="simple" target="_top"><rect id="g" width="174" height="39.789" x="1781.66" y="235.8" fill="#3D176E" rx="2.5" ry="2.5" style="stroke:#000d19;stroke-width:1.5"/><circle cx="1796.66" cy="255.695" r="11" fill="#E98DF7" style="stroke:#000d19;stroke-width:1"/><path d="M1799.629 261.335q-.578.297-1.219.438-.64.156-1.344.156-2.5 0-3.828-1.64-1.312-1.657-1.312-4.782t1.312-4.781q1.328-1.656 3.828-1.656.703 0 1.344.156.656.156 1.219.453v2.719q-.625-.578-1.219-.844-.594-.281-1.219-.281-1.343 0-2.031 1.078-.688 1.062-.688 3.156 0 2.094.688 3.172.688 1.062 2.031 1.062.625 0 1.219-.265.594-.281 1.219-.86v2.72Z"/><text x="1815.66" y="261.58" fill="#D9B8FF" font-family="Helvetica" font-size="17" textLength="132">gcp_vpn_tunnel</text></a><a xlink:actuate="onRequest" xlink:href="#h" xlink:show="new" xlink:title="#gcp_target_vpn_gateway" xlink:type="simple" target="_top"><rect id="h" width="251" height="39.789" x="1311.16" y="335.8" fill="#3D176E" rx="2.5" ry="2.5" style="stroke:#000d19;stroke-width:1.5"/><circle cx="1326.16" cy="355.695" r="11" fill="#E98DF7" style="stroke:#000d19;stroke-width:1"/><path d="M1329.129 361.335q-.578.297-1.219.438-.64.156-1.344.156-2.5 0-3.828-1.64-1.312-1.657-1.312-4.782t1.312-4.781q1.328-1.656 3.828-1.656.703 0 1.344.156.656.156 1.219.453v2.719q-.625-.579-1.219-.844-.594-.281-1.219-.281-1.343 0-2.031 1.078-.688 1.062-.688 3.156 0 2.094.688 3.172.688 1.062 2.031 1.062.625 0 1.219-.265.594-.281 1.219-.86v2.72Z"/><text x="1345.16" y="361.58" fill="#D9B8FF" font-family="Helvetica" font-size="17" textLength="209">gcp_target_vpn_gateway</text></a><a xlink:actuate="onRequest" xlink:href="#i" xlink:show="new" xlink:title="#gcp_router" xlink:type="simple" target="_top"><rect id="i" width="131" height="39.789" x="1382.16" y="235.8" fill="#3D176E" rx="2.5" ry="2.5" style="stroke:#000d19;stroke-width:1.5"/><circle cx="1397.16" cy="255.695" r="11" fill="#E98DF7" style="stroke:#000d19;stroke-width:1"/><path d="M1400.129 261.335q-.578.297-1.219.438-.64.156-1.344.156-2.5 0-3.828-1.64-1.312-1.657-1.312-4.782t1.312-4.781q1.328-1.656 3.828-1.656.703 0 1.344.156.656.156 1.219.453v2.719q-.625-.578-1.219-.844-.594-.281-1.219-.281-1.343 0-2.031 1.078-.688 1.062-.688 3.156 0 2.094.688 3.172.688 1.062 2.031 1.062.625 0 1.219-.265.594-.281 1.219-.86v2.72Z"/><text x="1416.16" y="261.58" fill="#D9B8FF" font-family="Helvetica" font-size="17" textLength="89">gcp_router</text></a><a xlink:actuate="onRequest" xlink:href="#j" xlink:show="new" xlink:title="#gcp_network_endpoint_group" xlink:type="simple" target="_top"><rect id="j" width="289" height="39.789" x="1855.16" y="635.8" fill="#3D176E" rx="2.5" ry="2.5" style="stroke:#000d19;stroke-width:1.5"/><circle cx="1870.16" cy="655.694" r="11" fill="#E98DF7" style="stroke:#000d19;stroke-width:1"/><path d="M1873.129 661.335q-.578.297-1.219.438-.64.156-1.344.156-2.5 0-3.828-1.64-1.312-1.657-1.312-4.782t1.312-4.781q1.328-1.657 3.828-1.657.703 0 1.344.157.656.156 1.219.453v2.719q-.625-.579-1.219-.844-.594-.281-1.219-.281-1.343 0-2.031 1.078-.688 1.062-.688 3.156 0 2.094.688 3.172.688 1.062 2.031 1.062.625 0 1.219-.265.594-.282 1.219-.86v2.72Z"/><text x="1889.16" y="661.58" fill="#D9B8FF" font-family="Helvetica" font-size="17" textLength="247">gcp_network_endpoint_group</text></a><a xlink:actuate="onRequest" xlink:href="#k" xlink:show="new" xlink:title="#gcp_instance_group" xlink:type="simple" target="_top"><rect id="k" width="206" height="39.789" x="1420.66" y="635.8" fill="#3D176E" rx="2.5" ry="2.5" style="stroke:#000d19;stroke-width:1.5"/><circle cx="1435.66" cy="655.694" r="11" fill="#E98DF7" style="stroke:#000d19;stroke-width:1"/><path d="M1438.629 661.335q-.578.297-1.219.438-.64.156-1.344.156-2.5 0-3.828-1.64-1.312-1.657-1.312-4.782t1.312-4.781q1.328-1.657 3.828-1.657.703 0 1.344.157.656.156 1.219.453v2.719q-.625-.579-1.219-.844-.594-.281-1.219-.281-1.343 0-2.031 1.078-.688 1.062-.688 3.156 0 2.094.688 3.172.688 1.062 2.031 1.062.625 0 1.219-.265.594-.282 1.219-.86v2.72Z"/><text x="1454.66" y="661.58" fill="#D9B8FF" font-family="Helvetica" font-size="17" textLength="164">gcp_instance_group</text></a><a xlink:actuate="onRequest" xlink:href="#l" xlink:show="new" xlink:title="#gcp_subnetwork" xlink:type="simple" target="_top"><rect id="l" width="178" height="39.789" x="1834.66" y="535.8" fill="#3D176E" rx="2.5" ry="2.5" style="stroke:#000d19;stroke-width:1.5"/><circle cx="1849.66" cy="555.694" r="11" fill="#E98DF7" style="stroke:#000d19;stroke-width:1"/><path d="M1852.629 561.335q-.578.297-1.219.438-.64.156-1.344.156-2.5 0-3.828-1.64-1.312-1.657-1.312-4.782t1.312-4.781q1.328-1.657 3.828-1.657.703 0 1.344.157.656.156 1.219.453v2.719q-.625-.579-1.219-.844-.594-.281-1.219-.281-1.343 0-2.031 1.078-.688 1.062-.688 3.156 0 2.094.688 3.172.688 1.062 2.031 1.062.625 0 1.219-.265.594-.282 1.219-.86v2.72Z"/><text x="1868.66" y="561.58" fill="#D9B8FF" font-family="Helvetica" font-size="17" textLength="136">gcp_subnetwork</text></a><a xlink:actuate="onRequest" xlink:href="#m" xlink:show="new" xlink:title="#gcp_instance_group_manager" xlink:type="simple" target="_top"><rect id="m" width="290" height="39.789" x="1456.66" y="735.8" fill="#3D176E" rx="2.5" ry="2.5" style="stroke:#000d19;stroke-width:1.5"/><circle cx="1471.66" cy="755.694" r="11" fill="#E98DF7" style="stroke:#000d19;stroke-width:1"/><path d="M1474.629 761.335q-.578.297-1.219.438-.64.156-1.344.156-2.5 0-3.828-1.64-1.312-1.657-1.312-4.782t1.312-4.781q1.328-1.657 3.828-1.657.703 0 1.344.157.656.156 1.219.453v2.719q-.625-.579-1.219-.844-.594-.281-1.219-.281-1.343 0-2.031 1.078-.688 1.062-.688 3.156 0 2.094.688 3.172.688 1.062 2.031 1.062.625 0 1.219-.265.594-.282 1.219-.86v2.72Z"/><text x="1490.66" y="761.58" fill="#D9B8FF" font-family="Helvetica" font-size="17" textLength="248">gcp_instance_group_manager</text></a><a xlink:actuate="onRequest" xlink:href="#n" xlink:show="new" xlink:title="#gcp_quota" xlink:type="simple" target="_top"><rect id="n" width="127" height="39.789" x="1548.16" y="235.8" fill="#3D176E" rx="2.5" ry="2.5" style="stroke:#000d19;stroke-width:1.5"/><circle cx="1563.16" cy="255.695" r="11" fill="#E98DF7" style="stroke:#000d19;stroke-width:1"/><path d="M1566.129 261.335q-.578.297-1.219.438-.64.156-1.344.156-2.5 0-3.828-1.64-1.312-1.657-1.312-4.782t1.312-4.781q1.328-1.656 3.828-1.656.703 0 1.344.156.656.156 1.219.453v2.719q-.625-.578-1.219-.844-.594-.281-1.219-.281-1.343 0-2.031 1.078-.688 1.062-.688 3.156 0 2.094.688 3.172.688 1.062 2.031 1.062.625 0 1.219-.265.594-.281 1.219-.86v2.72Z"/><text x="1582.16" y="261.58" fill="#D9B8FF" font-family="Helvetica" font-size="17" textLength="85">gcp_quota</text></a><a xlink:actuate="onRequest" xlink:href="#o" xlink:show="new" xlink:title="#gcp_target_http_proxy" xlink:type="simple" target="_top"><rect id="o" width="230" height="39.789" x="481.66" y="335.8" fill="#3D176E" rx="2.5" ry="2.5" style="stroke:#000d19;stroke-width:1.5"/><circle cx="496.66" cy="355.695" r="11" fill="#E98DF7" style="stroke:#000d19;stroke-width:1"/><path d="M499.629 361.335q-.578.297-1.219.438-.64.156-1.344.156-2.5 0-3.828-1.64-1.312-1.657-1.312-4.782t1.312-4.781q1.328-1.656 3.828-1.656.703 0 1.344.156.656.156 1.219.453v2.719q-.625-.579-1.219-.844-.594-.281-1.219-.281-1.343 0-2.031 1.078-.688 1.062-.688 3.156 0 2.094.688 3.172.688 1.062 2.031 1.062.625 0 1.219-.265.594-.281 1.219-.86v2.72Z"/><text x="515.66" y="361.58" fill="#D9B8FF" font-family="Helvetica" font-size="17" textLength="188">gcp_target_http_proxy</text></a><a xlink:actuate="onRequest" xlink:href="#p" xlink:show="new" xlink:title="#gcp_health_check" xlink:type="simple" target="_top"><rect id="p" width="189" height="39.789" x="1264.16" y="835.8" fill="#3D176E" rx="2.5" ry="2.5" style="stroke:#000d19;stroke-width:1.5"/><circle cx="1279.16" cy="855.694" r="11" fill="#E98DF7" style="stroke:#000d19;stroke-width:1"/><path d="M1282.129 861.335q-.578.297-1.219.438-.64.156-1.344.156-2.5 0-3.828-1.64-1.312-1.657-1.312-4.782t1.312-4.781q1.328-1.657 3.828-1.657.703 0 1.344.157.656.156 1.219.453v2.719q-.625-.579-1.219-.844-.594-.281-1.219-.281-1.343 0-2.031 1.078-.688 1.062-.688 3.156 0 2.094.688 3.172.688 1.062 2.031 1.062.625 0 1.219-.265.594-.282 1.219-.86v2.72Z"/><text x="1298.16" y="861.58" fill="#D9B8FF" font-family="Helvetica" font-size="17" textLength="147">gcp_health_check</text></a><a xlink:actuate="onRequest" xlink:href="#q" xlink:show="new" xlink:title="#gcp_region" xlink:type="simple" target="_top"><rect id="q" width="132" height="39.789" x="1262.66" y="135.8" fill="#3D176E" rx="2.5" ry="2.5" style="stroke:#000d19;stroke-width:1.5"/><circle cx="1277.66" cy="155.695" r="11" fill="#E98DF7" style="stroke:#000d19;stroke-width:1"/><path d="M1280.629 161.335q-.578.297-1.219.438-.64.156-1.344.156-2.5 0-3.828-1.64-1.312-1.657-1.312-4.782t1.312-4.781q1.328-1.656 3.828-1.656.703 0 1.344.156.656.156 1.219.453v2.719q-.625-.578-1.219-.844-.594-.281-1.219-.281-1.343 0-2.031 1.078-.688 1.062-.688 3.156 0 2.094.688 3.172.688 1.062 2.031 1.062.625 0 1.219-.265.594-.281 1.219-.86v2.72Z"/><text x="1296.66" y="161.58" fill="#D9B8FF" font-family="Helvetica" font-size="17" textLength="90">gcp_region</text></a><a xlink:actuate="onRequest" xlink:href="#r" xlink:show="new" xlink:title="#gcp_database" xlink:type="simple" target="_top"><rect id="r" width="154" height="39.789" x="1797.66" y="335.8" fill="#3D176E" rx="2.5" ry="2.5" style="stroke:#000d19;stroke-width:1.5"/><circle cx="1812.66" cy="355.695" r="11" fill="#E98DF7" style="stroke:#000d19;stroke-width:1"/><path d="M1815.629 361.335q-.578.297-1.219.438-.64.156-1.344.156-2.5 0-3.828-1.64-1.312-1.657-1.312-4.782t1.312-4.781q1.328-1.656 3.828-1.656.703 0 1.344.156.656.156 1.219.453v2.719q-.625-.579-1.219-.844-.594-.281-1.219-.281-1.343 0-2.031 1.078-.688 1.062-.688 3.156 0 2.094.688 3.172.688 1.062 2.031 1.062.625 0 1.219-.265.594-.281 1.219-.86v2.72Z"/><text x="1831.66" y="361.58" fill="#D9B8FF" font-family="Helvetica" font-size="17" textLength="112">gcp_database</text></a><a xlink:actuate="onRequest" xlink:href="#s" xlink:show="new" xlink:title="#gcp_zone" xlink:type="simple" target="_top"><rect id="s" width="118" height="39.789" x="2061.66" y="235.8" fill="#3D176E" rx="2.5" ry="2.5" style="stroke:#000d19;stroke-width:1.5"/><circle cx="2076.66" cy="255.695" r="11" fill="#E98DF7" style="stroke:#000d19;stroke-width:1"/><path d="M2079.629 261.335q-.578.297-1.219.438-.64.156-1.344.156-2.5 0-3.828-1.64-1.312-1.657-1.312-4.782t1.312-4.781q1.328-1.656 3.828-1.656.703 0 1.344.156.656.156 1.219.453v2.719q-.625-.578-1.219-.844-.594-.281-1.219-.281-1.343 0-2.031 1.078-.688 1.062-.688 3.156 0 2.094.688 3.172.688 1.062 2.031 1.062.625 0 1.219-.265.594-.281 1.219-.86v2.72Z"/><text x="2095.66" y="261.58" fill="#D9B8FF" font-family="Helvetica" font-size="17" textLength="76">gcp_zone</text></a><a xlink:actuate="onRequest" xlink:href="#t" xlink:show="new" xlink:title="#gcp_gke_cluster" xlink:type="simple" target="_top"><rect id="t" width="174" height="39.789" x="2199.66" y="335.8" fill="#3D176E" rx="2.5" ry="2.5" style="stroke:#000d19;stroke-width:1.5"/><circle cx="2214.66" cy="355.695" r="11" fill="#E98DF7" style="stroke:#000d19;stroke-width:1"/><path d="M2217.629 361.335q-.578.297-1.219.438-.64.156-1.344.156-2.5 0-3.828-1.64-1.312-1.657-1.312-4.782t1.312-4.781q1.328-1.656 3.828-1.656.703 0 1.344.156.656.156 1.219.453v2.719q-.625-.579-1.219-.844-.594-.281-1.219-.281-1.343 0-2.031 1.078-.688 1.062-.688 3.156 0 2.094.688 3.172.688 1.062 2.031 1.062.625 0 1.219-.265.594-.281 1.219-.86v2.72Z"/><text x="2233.66" y="361.58" fill="#D9B8FF" font-family="Helvetica" font-size="17" textLength="132">gcp_gke_cluster</text></a><a xlink:actuate="onRequest" xlink:href="#u" xlink:show="new" xlink:title="#gcp_autoscaler" xlink:type="simple" target="_top"><rect id="u" width="165" height="39.789" x="1597.16" y="335.8" fill="#3D176E" rx="2.5" ry="2.5" style="stroke:#000d19;stroke-width:1.5"/><circle cx="1612.16" cy="355.695" r="11" fill="#E98DF7" style="stroke:#000d19;stroke-width:1"/><path d="M1615.129 361.335q-.578.297-1.219.438-.64.156-1.344.156-2.5 0-3.828-1.64-1.312-1.657-1.312-4.782t1.312-4.781q1.328-1.656 3.828-1.656.703 0 1.344.156.656.156 1.219.453v2.719q-.625-.579-1.219-.844-.594-.281-1.219-.281-1.343 0-2.031 1.078-.688 1.062-.688 3.156 0 2.094.688 3.172.688 1.062 2.031 1.062.625 0 1.219-.265.594-.281 1.219-.86v2.72Z"/><text x="1631.16" y="361.58" fill="#D9B8FF" font-family="Helvetica" font-size="17" textLength="123">gcp_autoscaler</text></a><a xlink:actuate="onRequest" xlink:href="#v" xlink:show="new" xlink:title="#gcp_disk" xlink:type="simple" target="_top"><rect id="v" width="112" height="39.789" x="2431.66" y="435.8" fill="#3D176E" rx="2.5" ry="2.5" style="stroke:#000d19;stroke-width:1.5"/><circle cx="2446.66" cy="455.695" r="11" fill="#E98DF7" style="stroke:#000d19;stroke-width:1"/><path d="M2449.629 461.335q-.578.297-1.219.438-.64.156-1.344.156-2.5 0-3.828-1.64-1.312-1.657-1.312-4.782t1.312-4.781q1.328-1.656 3.828-1.656.703 0 1.344.156.656.156 1.219.453v2.719q-.625-.579-1.219-.844-.594-.281-1.219-.281-1.343 0-2.031 1.078-.688 1.062-.688 3.156 0 2.094.688 3.172.688 1.062 2.031 1.062.625 0 1.219-.265.594-.281 1.219-.86v2.72Z"/><text x="2465.66" y="461.58" fill="#D9B8FF" font-family="Helvetica" font-size="17" textLength="70">gcp_disk</text></a><a xlink:actuate="onRequest" xlink:href="#w" xlink:show="new" xlink:title="#gcp_disk_type" xlink:type="simple" target="_top"><rect id="w" width="158" height="39.789" x="2408.66" y="335.8" fill="#3D176E" rx="2.5" ry="2.5" style="stroke:#000d19;stroke-width:1.5"/><circle cx="2423.66" cy="355.695" r="11" fill="#E98DF7" style="stroke:#000d19;stroke-width:1"/><path d="M2426.629 361.335q-.578.297-1.219.438-.64.156-1.344.156-2.5 0-3.828-1.64-1.312-1.657-1.312-4.782t1.312-4.781q1.328-1.656 3.828-1.656.703 0 1.344.156.656.156 1.219.453v2.719q-.625-.579-1.219-.844-.594-.281-1.219-.281-1.343 0-2.031 1.078-.688 1.062-.688 3.156 0 2.094.688 3.172.688 1.062 2.031 1.062.625 0 1.219-.265.594-.281 1.219-.86v2.72Z"/><text x="2442.66" y="361.58" fill="#D9B8FF" font-family="Helvetica" font-size="17" textLength="116">gcp_disk_type</text></a><a xlink:actuate="onRequest" xlink:href="#x" xlink:show="new" xlink:title="#gcp_project" xlink:type="simple" target="_top"><rect id="x" width="136" height="39.789" x="489.66" y="35.8" fill="#3D176E" rx="2.5" ry="2.5" style="stroke:#000d19;stroke-width:1.5"/><circle cx="504.66" cy="55.694" r="11" fill="#E98DF7" style="stroke:#000d19;stroke-width:1"/><path d="M507.629 61.335q-.578.297-1.219.438-.64.156-1.344.156-2.5 0-3.828-1.64-1.312-1.657-1.312-4.782t1.312-4.781q1.328-1.657 3.828-1.657.703 0 1.344.157.656.156 1.219.453v2.719q-.625-.579-1.219-.844-.594-.281-1.219-.281-1.343 0-2.031 1.078-.688 1.062-.688 3.156 0 2.094.688 3.172.688 1.062 2.031 1.062.625 0 1.219-.265.594-.282 1.219-.86v2.72Z"/><text x="523.66" y="61.58" fill="#D9B8FF" font-family="Helvetica" font-size="17" textLength="94">gcp_project</text></a><path fill="none" d="M1062.56 566.92c187.56 17.59 574.04 53.83 787.41 73.84" style="stroke:#1a83af;stroke-width:2"/><path fill="#1A83AF" d="m1854.98 641.23-8.583-4.83 3.605 4.36-4.359 3.605 9.337-3.135z" style="stroke:#1a83af;stroke-width:2"/><path fill="none" d="M961.02 575.87c15.18 42.55 57.64 145.73 128.64 199.93 48.73 37.2 114.61 56.91 168.98 67.35" style="stroke:#1a83af;stroke-width:2"/><path fill="#1A83AF" d="m1263.87 844.13-8.1-5.601 3.187 4.673-4.673 3.187 9.586-2.259z" style="stroke:#1a83af;stroke-width:2"/><path fill="none" d="M1062.36 575.35c101.07 17.41 251.46 43.31 352.8 60.76" style="stroke:#1a83af;stroke-width:2"/><path fill="#1A83AF" d="m1420.25 636.99-8.181-5.483 3.255 4.626-4.626 3.256 9.552-2.399z" style="stroke:#1a83af;stroke-width:2"/><path fill="none" d="M778.89 270.43c137.77 17.67 378.02 48.49 526.89 67.58" style="stroke:#1a83af;stroke-width:2"/><path fill="#1A83AF" d="m1311.04 338.69-8.427-5.097 3.466 4.47-4.47 3.466 9.431-2.839z" style="stroke:#1a83af;stroke-width:2"/><path fill="none" d="M605.73 275.81c-59.18 16.81-145.29 41.27-205.97 58.51" style="stroke:#1a83af;stroke-width:2"/><path fill="#1A83AF" d="m394.7 335.76 9.753 1.374-4.945-2.748 2.747-4.945-7.555 6.319z" style="stroke:#1a83af;stroke-width:2"/><path fill="none" d="M704.09 275.93c26.93 16.39 65.7 39.99 93.81 57.1" style="stroke:#1a83af;stroke-width:2"/><path fill="#1A83AF" d="m802.32 335.72-5.608-8.096 1.337 5.496-5.497 1.337 9.768 1.263z" style="stroke:#1a83af;stroke-width:2"/><path fill="none" d="M657.65 276.16c-12.29 15.84-29.7 38.3-42.78 55.16" style="stroke:#1a83af;stroke-width:2"/><path fill="#1A83AF" d="m611.65 335.48 8.676-4.662-5.612.71-.71-5.612-2.354 9.564z" style="stroke:#1a83af;stroke-width:2"/><path fill="none" d="m295.46 375.93-96.15 57.1" style="stroke:#1a83af;stroke-width:2"/><path fill="#1A83AF" d="m194.79 435.72 9.78-1.162-5.482-1.394 1.393-5.482-5.691 8.038z" style="stroke:#1a83af;stroke-width:2"/><path fill="none" d="M411.08 375.81c77.31 17.62 191.51 43.65 267.42 60.95" style="stroke:#1a83af;stroke-width:2"/><path fill="#1A83AF" d="m683.45 437.89-7.882-5.906 3.008 4.791-4.791 3.008 9.665-1.893z" style="stroke:#1a83af;stroke-width:2"/><path fill="none" d="M796.11 475.93c33.22 16.52 81.18 40.38 115.64 57.52" style="stroke:#1a83af;stroke-width:2"/><path fill="#1A83AF" d="m916.31 535.72-6.27-7.595 1.795 5.365-5.364 1.795 9.839.435z" style="stroke:#1a83af;stroke-width:2"/><path fill="none" d="M1784.86 275.81c-74.55 16.91-183.24 41.57-259.29 58.82" style="stroke:#1a83af;stroke-width:2"/><path fill="#1A83AF" d="m1520.6 335.76 9.664 1.899-4.79-3.01 3.011-4.79-7.885 5.901z" style="stroke:#1a83af;stroke-width:2"/><path fill="none" d="M1539.07 676.16c12.61 15.84 30.48 38.3 43.9 55.16" style="stroke:#1a83af;stroke-width:2"/><path fill="#1A83AF" d="m1586.28 735.48-2.473-9.533-.64 5.62-5.62-.64 8.733 4.553z" style="stroke:#1a83af;stroke-width:2"/><path fill="none" d="M1846.06 575.81c-68.89 16.88-169.26 41.47-239.66 58.72" style="stroke:#1a83af;stroke-width:2"/><path fill="#1A83AF" d="m1601.39 635.76 9.692 1.751-4.835-2.937 2.938-4.834-7.795 6.02z" style="stroke:#1a83af;stroke-width:2"/><path fill="none" d="M1938.68 576.16c12.28 15.84 29.7 38.3 42.77 55.16" style="stroke:#1a83af;stroke-width:2"/><path fill="#1A83AF" d="m1984.68 635.48-2.337-9.568-.72 5.611-5.61-.72 8.667 4.677z" style="stroke:#1a83af;stroke-width:2"/><path fill="none" d="M1554.52 775.81c-41.2 16.62-100.93 40.71-143.58 57.91" style="stroke:#1a83af;stroke-width:2"/><path fill="#1A83AF" d="m1406.09 835.67 9.843.345-5.206-2.214 2.215-5.206-6.852 7.075z" style="stroke:#1a83af;stroke-width:2"/><path fill="none" d="M628.09 375.93c26.93 16.39 65.7 39.99 93.81 57.1" style="stroke:#1a83af;stroke-width:2"/><path fill="#1A83AF" d="m726.32 435.72-5.608-8.096 1.337 5.496-5.497 1.337 9.768 1.263z" style="stroke:#1a83af;stroke-width:2"/><path fill="none" d="M1262.6 163.66c-52.69 8.68-125.31 28.22-172.94 72.14-89.91 82.9-122.16 235.39-131.63 294.6" style="stroke:#1a83af;stroke-width:2"/><path fill="#1A83AF" d="m957.24 535.5 5.34-8.275-4.569 3.335-3.335-4.57 2.564 9.51z" style="stroke:#1a83af;stroke-width:2"/><path fill="none" d="M1262.57 158.72c-79.39 4.87-214.44 21.45-314.91 77.08-42.53 23.55-78.82 68.26-98.42 95.67" style="stroke:#1a83af;stroke-width:2"/><path fill="#1A83AF" d="m846.24 335.71 8.468-5.03-5.577.95-.95-5.576-1.941 9.656z" style="stroke:#1a83af;stroke-width:2"/><path fill="none" d="M1394.69 160.01c156.74 8.3 540.98 32.86 578.97 75.79 29.35 33.17-20.11 72.95-59.08 97.08" style="stroke:#1a83af;stroke-width:2"/><path fill="#1A83AF" d="m1909.88 335.74 9.766-1.277-5.499-1.33 1.329-5.498-5.596 8.105z" style="stroke:#1a83af;stroke-width:2"/><path fill="none" d="M1281.13 175.83c-62.78 28.65-165.47 89.23-165.47 178.97v302c0 92.39 106.87 149.32 178.87 177.19" style="stroke:#1a83af;stroke-width:2"/><path fill="#1A83AF" d="m1299.22 835.78-6.978-6.95 2.308 5.165-5.165 2.308 9.835-.523z" style="stroke:#1a83af;stroke-width:2"/><path fill="none" d="M1383.56 175.81c48.28 16.72 118.39 41 168.12 58.22" style="stroke:#1a83af;stroke-width:2"/><path fill="#1A83AF" d="m1556.43 235.67-7.189-6.732 2.466 5.091-5.091 2.466 9.814-.825z" style="stroke:#1a83af;stroke-width:2"/><path fill="none" d="M1262.31 164.15c-86.73 10.65-242.76 33.4-371.65 71.65-43.92 13.03-52.59 22.66-95 40-49.09 20.08-105.29 42.32-145.41 58.07" style="stroke:#1a83af;stroke-width:2"/><path fill="#1A83AF" d="m645.44 335.76 9.84.424-5.188-2.256 2.256-5.188-6.908 7.02z" style="stroke:#1a83af;stroke-width:2"/><path fill="none" d="M1317.01 176.06c-23.23 41.17-69.3 138.91-23.35 199.74 64.67 85.6 376.3 142.26 535.68 166.14" style="stroke:#1a83af;stroke-width:2"/><path fill="#1A83AF" d="m1834.48 542.71-8.32-5.27 3.373 4.54-4.54 3.375 9.487-2.645z" style="stroke:#1a83af;stroke-width:2"/><path fill="none" d="M1394.68 161.84c125.32 10.08 406.07 35.15 639.98 73.96 7.11 1.18 14.52 2.57 21.87 4.05" style="stroke:#1a83af;stroke-width:2"/><path fill="#1A83AF" d="m2061.61 240.89-8.018-5.719 3.119 4.72-4.72 3.119 9.619-2.12z" style="stroke:#1a83af;stroke-width:2"/><path fill="none" d="M1395.02 161.47c94.62 8.2 260.96 28.83 297.64 74.33 44.11 54.71-41.51 85.47-125.37 101.94" style="stroke:#1a83af;stroke-width:2"/><path fill="#1A83AF" d="m1562.28 338.71 9.592 2.233-4.682-3.175 3.175-4.682-8.085 5.624z" style="stroke:#1a83af;stroke-width:2"/><path fill="none" d="M1262.52 160.17c-163.09 8.84-580.88 34.87-713.86 75.63-72.35 22.18-148.25 69.03-189.58 96.88" style="stroke:#1a83af;stroke-width:2"/><path fill="#1A83AF" d="m354.7 335.64 9.697-1.726-5.554-1.074 1.074-5.554-5.217 8.354z" style="stroke:#1a83af;stroke-width:2"/><path fill="none" d="M1394.88 168.82c95.64 17.35 272.85 49.52 381.35 69.2" style="stroke:#1a83af;stroke-width:2"/><path fill="#1A83AF" d="m1781.34 238.95-8.148-5.533 3.227 4.646-4.646 3.227 9.567-2.34z" style="stroke:#1a83af;stroke-width:2"/><path fill="none" d="M1395.02 158.18c208.94 4.84 851.26 23.85 1051.64 77.62 116.53 31.27 244-1.65 244 119v102c0 111.69-337.84 163.99-541.07 185.35" style="stroke:#1a83af;stroke-width:2"/><path fill="#1A83AF" d="m2144.52 642.68 9.364 3.053-4.39-3.567 3.567-4.39-8.541 4.904z" style="stroke:#1a83af;stroke-width:2"/><path fill="none" d="M1262.46 166.69c-112.26 16.77-341.1 50.96-478.39 71.47" style="stroke:#1a83af;stroke-width:2"/><path fill="#1A83AF" d="m778.82 238.94 9.494 2.618-4.55-3.361 3.362-4.55-8.306 5.293z" style="stroke:#1a83af;stroke-width:2"/><path fill="none" d="M1301.95 175.98c-41.13 32.01-115.29 100.56-115.29 178.82v102c0 107.94 130.11 158.18 228.64 180.76" style="stroke:#1a83af;stroke-width:2"/><path fill="#1A83AF" d="m1420.26 638.68-7.902-5.88 3.024 4.782-4.78 3.024 9.658-1.926z" style="stroke:#1a83af;stroke-width:2"/><path fill="none" d="M1262.63 159.66c-135.08 6.7-452.33 26.73-713.97 76.14-162.33 30.66-243.62-19.2-358 100-24.38 25.41-28.92 67.88-29.09 94.61" style="stroke:#1a83af;stroke-width:2"/><path fill="#1A83AF" d="m161.59 435.54 3.948-9.023-3.977 4.023-4.022-3.977 4.051 8.977z" style="stroke:#1a83af;stroke-width:2"/><path fill="none" d="M1394.67 155.98c178.33-1.15 665.55 3 802.99 79.82 38.32 21.42 65.02 66.94 78.62 95.06" style="stroke:#1a83af;stroke-width:2"/><path fill="#1A83AF" d="m2278.51 335.55-.246-9.846-1.898 5.33-5.329-1.9 7.473 6.416z" style="stroke:#1a83af;stroke-width:2"/><path fill="none" d="M1328.91 175.83c1.4 26.29 7.94 73.46 35.75 99.97 16.65 15.87 140.04 43.6 227.34 61.63" style="stroke:#1a83af;stroke-width:2"/><path fill="#1A83AF" d="m1596.91 338.44-7.999-5.746 3.103 4.73-4.73 3.103 9.626-2.087z" style="stroke:#1a83af;stroke-width:2"/><path fill="none" d="M1262.36 159.02c-67.52 5.37-172.18 22.65-243.7 76.78-57.32 43.38-27.43 92.07-81 140-29.81 26.68-70.07 45.49-104.95 58.04" style="stroke:#1a83af;stroke-width:2"/><path fill="#1A83AF" d="m827.6 435.65 9.82.763-5.107-2.434 2.433-5.106-7.146 6.777z" style="stroke:#1a83af;stroke-width:2"/><path fill="none" d="M1351.89 175.93c19.66 16.19 47.86 39.41 68.57 56.47" style="stroke:#1a83af;stroke-width:2"/><path fill="#1A83AF" d="m1424.49 235.72-4.392-8.815.537 5.631-5.631.537 9.486 2.647z" style="stroke:#1a83af;stroke-width:2"/><path fill="none" d="M1394.77 156.72c224.47.39 955.76 7.27 1177.89 79.08 94.45 30.53 189 19.74 189 119v202c0 101.28-696.05 164.46-1009.79 187.8" style="stroke:#1a83af;stroke-width:2"/><path fill="#1A83AF" d="m1746.82 744.97 9.272 3.32-4.286-3.692 3.692-4.286-8.678 4.658z" style="stroke:#1a83af;stroke-width:2"/><path fill="none" d="M1394.86 159.6c192.56 8.53 750.07 36.09 927.8 76.2 121.58 27.44 191.31-2.65 262 100 24.55 35.65-21.08 73.96-57.73 97.2" style="stroke:#1a83af;stroke-width:2"/><path fill="#1A83AF" d="m2522.51 435.76 9.75-1.387-5.512-1.267 1.267-5.513-5.505 8.167z" style="stroke:#1a83af;stroke-width:2"/><path fill="none" d="M1394.75 159.32c182.47 7.47 690.33 31.78 850.91 76.48 78.87 21.95 162.9 69.44 208.25 97.33" style="stroke:#1a83af;stroke-width:2"/><path fill="#1A83AF" d="m2458.17 335.77-5.556-8.132 1.302 5.505-5.505 1.302 9.759 1.325z" style="stroke:#1a83af;stroke-width:2"/><path fill="none" d="M2153.06 275.93c27.77 16.39 67.75 39.99 96.73 57.1" style="stroke:#1a83af;stroke-width:2"/><path fill="#1A83AF" d="m2254.34 335.72-5.722-8.016 1.414 5.477-5.477 1.415 9.785 1.124z" style="stroke:#1a83af;stroke-width:2"/><path fill="none" d="M2115.94 276.06c-12.41 49.96-47.58 187.66-85.28 299.74-6.3 18.73-14.51 39.52-20.89 55.07" style="stroke:#1a83af;stroke-width:2"/><path fill="#1A83AF" d="m2007.85 635.52 7.126-6.8-5.222 2.177-2.176-5.222.272 9.845z" style="stroke:#1a83af;stroke-width:2"/><path fill="none" d="M2061.64 269.92c-75.55 16.78-207.1 46.02-294.36 65.41" style="stroke:#1a83af;stroke-width:2"/><path fill="#1A83AF" d="m1762.38 336.42 9.655 1.946-4.775-3.034 3.034-4.774-7.914 5.862z" style="stroke:#1a83af;stroke-width:2"/><path fill="none" d="M2072.94 275.81c-41.79 16.65-102.42 40.8-145.62 58.01" style="stroke:#1a83af;stroke-width:2"/><path fill="#1A83AF" d="m1922.67 335.67 9.84.397-5.193-2.242 2.242-5.193-6.889 7.038z" style="stroke:#1a83af;stroke-width:2"/><path fill="none" d="M2125.38 276.02c7.53 26.52 24.83 73.97 57.28 99.78 70.72 56.25 177.17 72.8 243.8 77.46" style="stroke:#1a83af;stroke-width:2"/><path fill="#1A83AF" d="m2431.58 453.61-8.717-4.583 3.728 4.254-4.255 3.728 9.244-3.399z" style="stroke:#1a83af;stroke-width:2"/><path fill="none" d="M2097.98 275.95c-29.04 24.2-81.23 66.71-128.32 99.85-146.46 103.07-330.23 211.94-408.22 257.25" style="stroke:#1a83af;stroke-width:2"/><path fill="#1A83AF" d="m1556.91 635.68 9.79-1.076-5.47-1.442 1.442-5.47-5.762 7.988z" style="stroke:#1a83af;stroke-width:2"/><path fill="none" d="M2180.04 272.65c63 16.83 162.74 43.46 231.49 61.82" style="stroke:#1a83af;stroke-width:2"/><path fill="#1A83AF" d="m2416.42 335.78-7.668-6.181 2.836 4.894-4.894 2.837 9.726-1.55z" style="stroke:#1a83af;stroke-width:2"/><path fill="none" d="M1680.11 376.02c.63 50.44-1.11 190.27-35.45 299.78-6.18 19.71-17.46 40.15-26.91 55.3" style="stroke:#1a83af;stroke-width:2"/><path fill="#1A83AF" d="m1614.88 735.63 8.197-5.46-5.52 1.237-1.237-5.52-1.44 9.743z" style="stroke:#1a83af;stroke-width:2"/><path fill="none" d="M2487.66 376.16v54.3" style="stroke:#1a83af;stroke-width:2"/><path fill="#1A83AF" d="m2487.66 435.48 4-9-4 4-4-4 4 9z" style="stroke:#1a83af;stroke-width:2"/><path fill="none" d="M503.73 75.83C413.43 111 234.37 195.64 161.66 335.8c-15.36 29.62-10.94 69.23-5.59 94.44" style="stroke:#1a83af;stroke-width:2"/><path fill="#1A83AF" d="m157.23 435.39 1.946-9.655-3.034 4.775-4.774-3.034 5.862 7.914z" style="stroke:#1a83af;stroke-width:2"/><path fill="none" d="M542.93 75.89c-40.4 52.34-152.79 197.97-197.04 255.29" style="stroke:#1a83af;stroke-width:2"/><path fill="#1A83AF" d="m342.57 335.48 8.66-4.692-5.61.73-.73-5.61-2.32 9.572z" style="stroke:#1a83af;stroke-width:2"/><path fill="none" d="M489.59 66.87C343.62 90.38 13.66 154.61 13.66 254.8v102c0 55.13-7.66 84.08 35 119 60.16 49.23 563.85 69.47 793.13 76.19" style="stroke:#1a83af;stroke-width:2"/><path fill="#1A83AF" d="m846.82 552.13-8.87-4.28 3.872 4.123-4.123 3.872 9.121-3.715z" style="stroke:#1a83af;stroke-width:2"/><path fill="none" d="M552.97 76.01c-8.62 38.67-24.31 128.33-4.31 199.79 5.74 20.48 18.4 40.93 29.28 55.89" style="stroke:#1a83af;stroke-width:2"/><path fill="#1A83AF" d="m580.95 335.76-2.162-9.609-.822 5.597-5.597-.822 8.581 4.834z" style="stroke:#1a83af;stroke-width:2"/><path fill="none" d="M625.75 65.45c145.11 18.45 483.64 61.48 631.58 80.28" style="stroke:#1a83af;stroke-width:2"/><path fill="#1A83AF" d="m1262.52 146.39-8.41-5.124 3.452 4.481-4.482 3.452 9.44-2.809z" style="stroke:#1a83af;stroke-width:2"/><path fill="none" d="M568.9 76.15c21.18 36.46 66.95 115.26 89.96 154.89" style="stroke:#1a83af;stroke-width:2"/><path fill="#1A83AF" d="m661.55 235.67-1.076-9.79-1.442 5.47-5.47-1.442 7.988 5.762z" style="stroke:#1a83af;stroke-width:2"/><path fill="none" d="M625.72 58.37c285.33 6.82 1386.29 35.38 1730.94 77.43 246.97 30.13 547-129.8 547 119v402c0 146.25-1103.19 186.71-1445.16 195.74" style="stroke:#1a83af;stroke-width:2"/><path fill="#1A83AF" d="m1453.27 852.68 9.1 3.767-4.102-3.895 3.896-4.102-8.894 4.23z" style="stroke:#1a83af;stroke-width:2"/><path fill="none" d="M625.75 59.07c378.53 13.05 2206.91 82 2206.91 195.73v102c0 165.44-582.12 192.89-814.68 197.26" style="stroke:#1a83af;stroke-width:2"/><path fill="#1A83AF" d="m2012.89 554.15 9.067 3.845-4.068-3.93 3.931-4.069-8.93 4.154z" style="stroke:#1a83af;stroke-width:2"/></svg>