<svg xmlns="http://www.w3.org/2000/svg" xmlns:xlink="http://www.w3.org/1999/xlink" width="385" height="873" preserveAspectRatio="none" style="width:385px;height:873px;background:#00000000"><a xlink:actuate="onRequest" xlink:href="#a" xlink:show="new" xlink:title="#resource" xlink:type="simple" target="_top"><rect id="a" width="195" height="275.836" x="88" y="7" fill="#3D176E" rx="2.5" ry="2.5" style="stroke:#000d19;stroke-width:1.5"/><circle cx="140.75" cy="26.895" r="11" fill="#E98DF7" style="stroke:#000d19;stroke-width:1"/><path d="M143.719 32.535q-.578.297-1.219.438-.64.156-1.344.156-2.5 0-3.828-1.64-1.312-1.657-1.312-4.782t1.312-4.781q1.328-1.656 3.828-1.656.703 0 1.344.156.656.156 1.219.453v2.719q-.625-.578-1.219-.844-.594-.281-1.219-.281-1.344 0-2.031 1.078-.688 1.062-.688 3.156 0 2.094.688 3.172.688 1.062 2.031 1.062.625 0 1.219-.265.594-.281 1.219-.86v2.72Z"/><text x="166.25" y="32.78" fill="#D9B8FF" font-family="Helvetica" font-size="17" textLength="71">resource</text><path d="M89 46.789h193" style="stroke:#000d19;stroke-width:1.5"/><text x="99" y="65.999" fill="#D9B8FF" font-family="sans-serif" font-size="11" font-weight="bold" textLength="12">id</text><text x="111" y="65.999" fill="#D9B8FF" font-family="sans-serif" font-size="11" textLength="41">: string</text><text x="99" y="88.804" fill="#D9B8FF" font-family="sans-serif" font-size="11" font-weight="bold" textLength="28">tags</text><text x="127" y="88.804" fill="#D9B8FF" font-family="sans-serif" font-size="11" textLength="145">: dictionary[string, string]</text><text x="99" y="111.609" fill="#D9B8FF" font-family="sans-serif" font-size="11" font-weight="bold" textLength="35">name</text><text x="134" y="111.609" fill="#D9B8FF" font-family="sans-serif" font-size="11" textLength="41">: string</text><text x="99" y="134.414" fill="#D9B8FF" font-family="sans-serif" font-size="11" font-weight="bold" textLength="35">ctime</text><text x="134" y="134.414" fill="#D9B8FF" font-family="sans-serif" font-size="11" textLength="58">: datetime</text><text x="99" y="157.218" fill="#D9B8FF" font-family="sans-serif" font-size="11" font-weight="bold" textLength="24">age</text><text x="123" y="157.218" fill="#D9B8FF" font-family="sans-serif" font-size="11" textLength="55">: duration</text><text x="99" y="180.023" fill="#D9B8FF" font-family="sans-serif" font-size="11" font-weight="bold" textLength="39">mtime</text><text x="138" y="180.023" fill="#D9B8FF" font-family="sans-serif" font-size="11" textLength="58">: datetime</text><text x="99" y="202.828" fill="#D9B8FF" font-family="sans-serif" font-size="11" font-weight="bold" textLength="75">last_update</text><text x="174" y="202.828" fill="#D9B8FF" font-family="sans-serif" font-size="11" textLength="55">: duration</text><text x="99" y="225.632" fill="#D9B8FF" font-family="sans-serif" font-size="11" font-weight="bold" textLength="36">atime</text><text x="135" y="225.632" fill="#D9B8FF" font-family="sans-serif" font-size="11" textLength="58">: datetime</text><text x="99" y="248.437" fill="#D9B8FF" font-family="sans-serif" font-size="11" font-weight="bold" textLength="74">last_access</text><text x="173" y="248.437" fill="#D9B8FF" font-family="sans-serif" font-size="11" textLength="55">: duration</text><text x="99" y="271.242" fill="#D9B8FF" font-family="sans-serif" font-size="11" font-weight="bold" textLength="27">kind</text><text x="126" y="271.242" fill="#D9B8FF" font-family="sans-serif" font-size="11" textLength="41">: string</text></a><a xlink:actuate="onRequest" xlink:href="#b" xlink:show="new" xlink:title="#aws_resource" xlink:type="simple" target="_top"><rect id="b" width="155" height="70.594" x="7" y="404" fill="#3D176E" rx="2.5" ry="2.5" style="stroke:#000d19;stroke-width:1.5"/><circle cx="22" cy="423.894" r="11" fill="#E98DF7" style="stroke:#000d19;stroke-width:1"/><path d="M24.969 429.535q-.578.297-1.219.438-.64.156-1.344.156-2.5 0-3.828-1.64-1.312-1.657-1.312-4.782t1.312-4.781q1.328-1.656 3.828-1.656.703 0 1.344.156.656.156 1.219.453v2.719q-.625-.579-1.219-.844-.594-.281-1.219-.281-1.343 0-2.031 1.078-.688 1.062-.688 3.156 0 2.094.688 3.172.688 1.062 2.031 1.062.625 0 1.219-.265.594-.281 1.219-.86v2.72Z"/><text x="41" y="429.78" fill="#D9B8FF" font-family="Helvetica" font-size="17" textLength="113">aws_resource</text><path d="M8 443.789h153" style="stroke:#000d19;stroke-width:1.5"/><text x="18" y="463" fill="#D9B8FF" font-family="sans-serif" font-size="11" font-weight="bold" textLength="21">arn</text><text x="39" y="463" fill="#D9B8FF" font-family="sans-serif" font-size="11" textLength="41">: string</text></a><a xlink:actuate="onRequest" xlink:href="#c" xlink:show="new" xlink:title="#access_key" xlink:type="simple" target="_top"><rect id="c" width="181" height="70.594" x="197" y="404" fill="#3D176E" rx="2.5" ry="2.5" style="stroke:#000d19;stroke-width:1.5"/><circle cx="233.6" cy="423.894" r="11" fill="#E98DF7" style="stroke:#000d19;stroke-width:1"/><path d="M236.569 429.535q-.578.297-1.219.438-.64.156-1.344.156-2.5 0-3.828-1.64-1.312-1.657-1.312-4.782t1.312-4.781q1.328-1.656 3.828-1.656.703 0 1.344.156.656.156 1.219.453v2.719q-.625-.579-1.219-.844-.594-.281-1.219-.281-1.344 0-2.031 1.078-.688 1.062-.688 3.156 0 2.094.688 3.172.688 1.062 2.031 1.062.625 0 1.219-.265.594-.281 1.219-.86v2.72Z"/><text x="257.4" y="429.78" fill="#D9B8FF" font-family="Helvetica" font-size="17" textLength="91">access_key</text><path d="M198 443.789h179" style="stroke:#000d19;stroke-width:1.5"/><text x="208" y="463" fill="#D9B8FF" font-family="sans-serif" font-size="11" font-weight="bold" textLength="118">access_key_status</text><text x="326" y="463" fill="#D9B8FF" font-family="sans-serif" font-size="11" textLength="41">: string</text></a><a xlink:actuate="onRequest" xlink:href="#d" xlink:show="new" xlink:title="#aws_iam_access_key" xlink:type="simple" target="_top"><rect id="d" width="351" height="70.594" x="10" y="596" fill="#3D176E" rx="2.5" ry="2.5" style="stroke:#000d19;stroke-width:1.5"/><circle cx="89.25" cy="615.894" r="11" fill="#E98DF7" style="stroke:#000d19;stroke-width:1"/><path d="M92.219 621.535q-.578.297-1.219.438-.64.156-1.344.156-2.5 0-3.828-1.64-1.312-1.657-1.312-4.782t1.312-4.781q1.328-1.657 3.828-1.657.703 0 1.344.157.656.156 1.219.453v2.719q-.625-.578-1.219-.844-.594-.281-1.219-.281-1.344 0-2.031 1.078-.688 1.062-.688 3.156 0 2.094.688 3.172.688 1.062 2.031 1.062.625 0 1.219-.265.594-.282 1.219-.86v2.72Z"/><text x="114.75" y="621.78" fill="#D9B8FF" font-family="Helvetica" font-size="17" textLength="174">aws_iam_access_key</text><path d="M11 635.789h349" style="stroke:#000d19;stroke-width:1.5"/><text x="21" y="655" fill="#D9B8FF" font-family="sans-serif" font-size="11" font-weight="bold" textLength="139">access_key_last_used</text><text x="160" y="655" fill="#D9B8FF" font-family="sans-serif" font-size="11" textLength="190">: aws_iam_access_key_last_used</text></a><a xlink:actuate="onRequest" xlink:href="#e" xlink:show="new" xlink:title="#aws_iam_access_key_last_used" xlink:type="simple" target="_top"><rect id="e" width="303" height="139.008" x="34" y="727" fill="#3D176E" rx="2.5" ry="2.5" style="stroke:#000d19;stroke-width:1.5"/><circle cx="49" cy="746.894" r="11" fill="#E98DF7" style="stroke:#000d19;stroke-width:1"/><path d="M51.969 752.535q-.578.297-1.219.438-.64.156-1.344.156-2.5 0-3.828-1.64-1.312-1.657-1.312-4.782t1.312-4.781q1.328-1.657 3.828-1.657.703 0 1.344.157.656.156 1.219.453v2.719q-.625-.578-1.219-.844-.594-.281-1.219-.281-1.343 0-2.031 1.078-.688 1.062-.688 3.156 0 2.094.688 3.172.688 1.062 2.031 1.062.625 0 1.219-.265.594-.282 1.219-.86v2.72Z"/><text x="68" y="752.78" fill="#D9B8FF" font-family="Helvetica" font-size="17" textLength="261">aws_iam_access_key_last_used</text><path d="M35 766.789h301" style="stroke:#000d19;stroke-width:1.5"/><text x="45" y="786" fill="#D9B8FF" font-family="sans-serif" font-size="11" font-weight="bold" textLength="61">last_used</text><text x="106" y="786" fill="#D9B8FF" font-family="sans-serif" font-size="11" textLength="58">: datetime</text><text x="45" y="808.804" fill="#D9B8FF" font-family="sans-serif" font-size="11" font-weight="bold" textLength="77">last_rotated</text><text x="122" y="808.804" fill="#D9B8FF" font-family="sans-serif" font-size="11" textLength="58">: datetime</text><text x="45" y="831.609" fill="#D9B8FF" font-family="sans-serif" font-size="11" font-weight="bold" textLength="87">service_name</text><text x="132" y="831.609" fill="#D9B8FF" font-family="sans-serif" font-size="11" textLength="41">: string</text><text x="45" y="854.414" fill="#D9B8FF" font-family="sans-serif" font-size="11" font-weight="bold" textLength="41">region</text><text x="86" y="854.414" fill="#D9B8FF" font-family="sans-serif" font-size="11" textLength="41">: string</text></a><path fill="none" d="M131.5 302.39 96.45 403.9m28.51-104.02 13.15-16.62.08 21.19-13.23-4.57zm115.08 2.51c13.35 38.29 26.38 75.65 35.39 101.51m-42.09-99.45.02-21.19 13.2 16.58-13.22 4.61zM112.43 493.04c17.44 32.8 39.39 74.1 54.66 102.83m-60.86-99.58-3.21-20.94 15.57 14.37-12.36 6.57zm153.06-3.25c-17.6 32.8-39.78 74.1-55.2 102.83m49.07-106.21 15.63-14.31-3.29 20.93-12.34-6.62zM185.5 667.07v54.34" style="stroke:#ffaf37;stroke-width:2"/><path fill="#FFAF37" d="m185.5 726.74 4-9-4 4-4-4 4 9z" style="stroke:#ffaf37;stroke-width:2"/></svg>