<svg xmlns="http://www.w3.org/2000/svg" xmlns:xlink="http://www.w3.org/1999/xlink" width="2606" height="2274" preserveAspectRatio="none" style="width:2606px;height:2274px;background:#00000000"><a xlink:actuate="onRequest" xlink:href="#a" xlink:show="new" xlink:title="#aws_ecs_placement_strategy" xlink:type="simple" target="_top"><rect id="a" width="285" height="93.398" x="7" y="1559.5" fill="#3D176E" rx="2.5" ry="2.5" style="stroke:#000d19;stroke-width:1.5"/><circle cx="22" cy="1579.395" r="11" fill="#E98DF7" style="stroke:#000d19;stroke-width:1"/><path d="M24.969 1585.035q-.578.297-1.219.438-.64.156-1.344.156-2.5 0-3.828-1.64-1.312-1.657-1.312-4.782t1.312-4.781q1.328-1.656 3.828-1.656.703 0 1.344.156.656.156 1.219.453v2.719q-.625-.578-1.219-.844-.594-.281-1.219-.281-1.343 0-2.031 1.078-.688 1.062-.688 3.156 0 2.094.688 3.172.688 1.062 2.031 1.062.625 0 1.219-.265.594-.281 1.219-.86v2.72Z"/><text x="41" y="1585.28" fill="#D9B8FF" font-family="Helvetica" font-size="17" textLength="243">aws_ecs_placement_strategy</text><path d="M8 1599.289h283" style="stroke:#000d19;stroke-width:1.5"/><text x="18" y="1618.499" fill="#D9B8FF" font-family="sans-serif" font-size="11" font-weight="bold" textLength="28">type</text><text x="46" y="1618.499" fill="#D9B8FF" font-family="sans-serif" font-size="11" textLength="41">: string</text><text x="18" y="1641.304" fill="#D9B8FF" font-family="sans-serif" font-size="11" font-weight="bold" textLength="29">field</text><text x="47" y="1641.304" fill="#D9B8FF" font-family="sans-serif" font-size="11" textLength="41">: string</text></a><a xlink:actuate="onRequest" xlink:href="#b" xlink:show="new" xlink:title="#aws_resource" xlink:type="simple" target="_top"><rect id="b" width="155" height="70.594" x="1237" y="404" fill="#3D176E" rx="2.5" ry="2.5" style="stroke:#000d19;stroke-width:1.5"/><circle cx="1252" cy="423.894" r="11" fill="#E98DF7" style="stroke:#000d19;stroke-width:1"/><path d="M1254.969 429.535q-.578.297-1.219.438-.64.156-1.344.156-2.5 0-3.828-1.64-1.312-1.657-1.312-4.782t1.312-4.781q1.328-1.656 3.828-1.656.703 0 1.344.156.656.156 1.219.453v2.719q-.625-.579-1.219-.844-.594-.281-1.219-.281-1.343 0-2.031 1.078-.688 1.062-.688 3.156 0 2.094.688 3.172.688 1.062 2.031 1.062.625 0 1.219-.265.594-.281 1.219-.86v2.72Z"/><text x="1271" y="429.78" fill="#D9B8FF" font-family="Helvetica" font-size="17" textLength="113">aws_resource</text><path d="M1238 443.789h153" style="stroke:#000d19;stroke-width:1.5"/><text x="1248" y="463" fill="#D9B8FF" font-family="sans-serif" font-size="11" font-weight="bold" textLength="21">arn</text><text x="1269" y="463" fill="#D9B8FF" font-family="sans-serif" font-size="11" textLength="41">: string</text></a><a xlink:actuate="onRequest" xlink:href="#c" xlink:show="new" xlink:title="#resource" xlink:type="simple" target="_top"><rect id="c" width="195" height="275.836" x="1217" y="7" fill="#3D176E" rx="2.5" ry="2.5" style="stroke:#000d19;stroke-width:1.5"/><circle cx="1269.75" cy="26.895" r="11" fill="#E98DF7" style="stroke:#000d19;stroke-width:1"/><path d="M1272.719 32.535q-.578.297-1.219.438-.64.156-1.344.156-2.5 0-3.828-1.64-1.312-1.657-1.312-4.782t1.312-4.781q1.328-1.656 3.828-1.656.703 0 1.344.156.656.156 1.219.453v2.719q-.625-.578-1.219-.844-.594-.281-1.219-.281-1.343 0-2.031 1.078-.688 1.062-.688 3.156 0 2.094.688 3.172.688 1.062 2.031 1.062.625 0 1.219-.265.594-.281 1.219-.86v2.72Z"/><text x="1295.25" y="32.78" fill="#D9B8FF" font-family="Helvetica" font-size="17" textLength="71">resource</text><path d="M1218 46.789h193" style="stroke:#000d19;stroke-width:1.5"/><text x="1228" y="65.999" fill="#D9B8FF" font-family="sans-serif" font-size="11" font-weight="bold" textLength="12">id</text><text x="1240" y="65.999" fill="#D9B8FF" font-family="sans-serif" font-size="11" textLength="41">: string</text><text x="1228" y="88.804" fill="#D9B8FF" font-family="sans-serif" font-size="11" font-weight="bold" textLength="28">tags</text><text x="1256" y="88.804" fill="#D9B8FF" font-family="sans-serif" font-size="11" textLength="145">: dictionary[string, string]</text><text x="1228" y="111.609" fill="#D9B8FF" font-family="sans-serif" font-size="11" font-weight="bold" textLength="35">name</text><text x="1263" y="111.609" fill="#D9B8FF" font-family="sans-serif" font-size="11" textLength="41">: string</text><text x="1228" y="134.414" fill="#D9B8FF" font-family="sans-serif" font-size="11" font-weight="bold" textLength="35">ctime</text><text x="1263" y="134.414" fill="#D9B8FF" font-family="sans-serif" font-size="11" textLength="58">: datetime</text><text x="1228" y="157.218" fill="#D9B8FF" font-family="sans-serif" font-size="11" font-weight="bold" textLength="24">age</text><text x="1252" y="157.218" fill="#D9B8FF" font-family="sans-serif" font-size="11" textLength="55">: duration</text><text x="1228" y="180.023" fill="#D9B8FF" font-family="sans-serif" font-size="11" font-weight="bold" textLength="39">mtime</text><text x="1267" y="180.023" fill="#D9B8FF" font-family="sans-serif" font-size="11" textLength="58">: datetime</text><text x="1228" y="202.828" fill="#D9B8FF" font-family="sans-serif" font-size="11" font-weight="bold" textLength="75">last_update</text><text x="1303" y="202.828" fill="#D9B8FF" font-family="sans-serif" font-size="11" textLength="55">: duration</text><text x="1228" y="225.632" fill="#D9B8FF" font-family="sans-serif" font-size="11" font-weight="bold" textLength="36">atime</text><text x="1264" y="225.632" fill="#D9B8FF" font-family="sans-serif" font-size="11" textLength="58">: datetime</text><text x="1228" y="248.437" fill="#D9B8FF" font-family="sans-serif" font-size="11" font-weight="bold" textLength="74">last_access</text><text x="1302" y="248.437" fill="#D9B8FF" font-family="sans-serif" font-size="11" textLength="55">: duration</text><text x="1228" y="271.242" fill="#D9B8FF" font-family="sans-serif" font-size="11" font-weight="bold" textLength="27">kind</text><text x="1255" y="271.242" fill="#D9B8FF" font-family="sans-serif" font-size="11" textLength="41">: string</text></a><a xlink:actuate="onRequest" xlink:href="#d" xlink:show="new" xlink:title="#aws_ecs_deployment" xlink:type="simple" target="_top"><rect id="d" width="448" height="412.664" x="398.5" y="1399.5" fill="#3D176E" rx="2.5" ry="2.5" style="stroke:#000d19;stroke-width:1.5"/><circle cx="524.75" cy="1419.395" r="11" fill="#E98DF7" style="stroke:#000d19;stroke-width:1"/><path d="M527.719 1425.035q-.578.297-1.219.438-.64.156-1.344.156-2.5 0-3.828-1.64-1.312-1.657-1.312-4.782t1.312-4.781q1.328-1.656 3.828-1.656.703 0 1.344.156.656.156 1.219.453v2.719q-.625-.578-1.219-.844-.594-.281-1.219-.281-1.343 0-2.031 1.078-.688 1.062-.688 3.156 0 2.094.688 3.172.688 1.062 2.031 1.062.625 0 1.219-.265.594-.281 1.219-.86v2.72Z"/><text x="550.25" y="1425.28" fill="#D9B8FF" font-family="Helvetica" font-size="17" textLength="177">aws_ecs_deployment</text><path d="M399.5 1439.289h446" style="stroke:#000d19;stroke-width:1.5"/><text x="409.5" y="1458.499" fill="#D9B8FF" font-family="sans-serif" font-size="11" font-weight="bold" textLength="12">id</text><text x="421.5" y="1458.499" fill="#D9B8FF" font-family="sans-serif" font-size="11" textLength="41">: string</text><text x="409.5" y="1481.304" fill="#D9B8FF" font-family="sans-serif" font-size="11" font-weight="bold" textLength="40">status</text><text x="449.5" y="1481.304" fill="#D9B8FF" font-family="sans-serif" font-size="11" textLength="41">: string</text><text x="409.5" y="1504.109" fill="#D9B8FF" font-family="sans-serif" font-size="11" font-weight="bold" textLength="95">task_definition</text><text x="504.5" y="1504.109" fill="#D9B8FF" font-family="sans-serif" font-size="11" textLength="41">: string</text><text x="409.5" y="1526.914" fill="#D9B8FF" font-family="sans-serif" font-size="11" font-weight="bold" textLength="90">desired_count</text><text x="499.5" y="1526.914" fill="#D9B8FF" font-family="sans-serif" font-size="11" textLength="36">: int64</text><text x="409.5" y="1549.718" fill="#D9B8FF" font-family="sans-serif" font-size="11" font-weight="bold" textLength="94">pending_count</text><text x="503.5" y="1549.718" fill="#D9B8FF" font-family="sans-serif" font-size="11" textLength="36">: int64</text><text x="409.5" y="1572.523" fill="#D9B8FF" font-family="sans-serif" font-size="11" font-weight="bold" textLength="91">running_count</text><text x="500.5" y="1572.523" fill="#D9B8FF" font-family="sans-serif" font-size="11" textLength="36">: int64</text><text x="409.5" y="1595.328" fill="#D9B8FF" font-family="sans-serif" font-size="11" font-weight="bold" textLength="77">failed_tasks</text><text x="486.5" y="1595.328" fill="#D9B8FF" font-family="sans-serif" font-size="11" textLength="36">: int64</text><text x="409.5" y="1618.132" fill="#D9B8FF" font-family="sans-serif" font-size="11" font-weight="bold" textLength="68">created_at</text><text x="477.5" y="1618.132" fill="#D9B8FF" font-family="sans-serif" font-size="11" textLength="58">: datetime</text><text x="409.5" y="1640.937" fill="#D9B8FF" font-family="sans-serif" font-size="11" font-weight="bold" textLength="72">updated_at</text><text x="481.5" y="1640.937" fill="#D9B8FF" font-family="sans-serif" font-size="11" textLength="58">: datetime</text><text x="409.5" y="1663.742" fill="#D9B8FF" font-family="sans-serif" font-size="11" font-weight="bold" textLength="172">capacity_provider_strategy</text><text x="581.5" y="1663.742" fill="#D9B8FF" font-family="sans-serif" font-size="11" textLength="254">: aws_ecs_capacity_provider_strategy_item[]</text><text x="409.5" y="1686.546" fill="#D9B8FF" font-family="sans-serif" font-size="11" font-weight="bold" textLength="77">launch_type</text><text x="486.5" y="1686.546" fill="#D9B8FF" font-family="sans-serif" font-size="11" textLength="41">: string</text><text x="409.5" y="1709.351" fill="#D9B8FF" font-family="sans-serif" font-size="11" font-weight="bold" textLength="107">platform_version</text><text x="516.5" y="1709.351" fill="#D9B8FF" font-family="sans-serif" font-size="11" textLength="41">: string</text><text x="409.5" y="1732.156" fill="#D9B8FF" font-family="sans-serif" font-size="11" font-weight="bold" textLength="99">platform_family</text><text x="508.5" y="1732.156" fill="#D9B8FF" font-family="sans-serif" font-size="11" textLength="41">: string</text><text x="409.5" y="1754.96" fill="#D9B8FF" font-family="sans-serif" font-size="11" font-weight="bold" textLength="144">network_configuration</text><text x="553.5" y="1754.96" fill="#D9B8FF" font-family="sans-serif" font-size="11" textLength="188">: aws_ecs_network_configuration</text><text x="409.5" y="1777.765" fill="#D9B8FF" font-family="sans-serif" font-size="11" font-weight="bold" textLength="81">rollout_state</text><text x="490.5" y="1777.765" fill="#D9B8FF" font-family="sans-serif" font-size="11" textLength="41">: string</text><text x="409.5" y="1800.57" fill="#D9B8FF" font-family="sans-serif" font-size="11" font-weight="bold" textLength="131">rollout_state_reason</text><text x="540.5" y="1800.57" fill="#D9B8FF" font-family="sans-serif" font-size="11" textLength="41">: string</text></a><a xlink:actuate="onRequest" xlink:href="#e" xlink:show="new" xlink:title="#aws_ecs_capacity_provider_strategy_item" xlink:type="simple" target="_top"><rect id="e" width="391" height="116.203" x="216" y="1963.5" fill="#3D176E" rx="2.5" ry="2.5" style="stroke:#000d19;stroke-width:1.5"/><circle cx="231" cy="1983.395" r="11" fill="#E98DF7" style="stroke:#000d19;stroke-width:1"/><path d="M233.969 1989.035q-.578.297-1.219.438-.64.156-1.344.156-2.5 0-3.828-1.64-1.312-1.657-1.312-4.782t1.312-4.781q1.328-1.656 3.828-1.656.703 0 1.344.156.656.156 1.219.453v2.719q-.625-.578-1.219-.844-.594-.281-1.219-.281-1.344 0-2.031 1.078-.688 1.062-.688 3.156 0 2.094.688 3.172.688 1.062 2.031 1.062.625 0 1.219-.265.594-.281 1.219-.86v2.72Z"/><text x="250" y="1989.28" fill="#D9B8FF" font-family="Helvetica" font-size="17" textLength="349">aws_ecs_capacity_provider_strategy_item</text><path d="M217 2003.289h389" style="stroke:#000d19;stroke-width:1.5"/><text x="227" y="2022.499" fill="#D9B8FF" font-family="sans-serif" font-size="11" font-weight="bold" textLength="113">capacity_provider</text><text x="340" y="2022.499" fill="#D9B8FF" font-family="sans-serif" font-size="11" textLength="41">: string</text><text x="227" y="2045.304" fill="#D9B8FF" font-family="sans-serif" font-size="11" font-weight="bold" textLength="44">weight</text><text x="271" y="2045.304" fill="#D9B8FF" font-family="sans-serif" font-size="11" textLength="36">: int64</text><text x="227" y="2068.109" fill="#D9B8FF" font-family="sans-serif" font-size="11" font-weight="bold" textLength="31">base</text><text x="258" y="2068.109" fill="#D9B8FF" font-family="sans-serif" font-size="11" textLength="36">: int64</text></a><a xlink:actuate="onRequest" xlink:href="#f" xlink:show="new" xlink:title="#aws_ecs_network_configuration" xlink:type="simple" target="_top"><rect id="f" width="353" height="70.594" x="642" y="1986" fill="#3D176E" rx="2.5" ry="2.5" style="stroke:#000d19;stroke-width:1.5"/><circle cx="676.8" cy="2005.895" r="11" fill="#E98DF7" style="stroke:#000d19;stroke-width:1"/><path d="M679.769 2011.535q-.578.297-1.219.438-.64.156-1.344.156-2.5 0-3.828-1.64-1.312-1.657-1.312-4.782t1.312-4.781q1.328-1.656 3.828-1.656.703 0 1.344.156.656.156 1.219.453v2.719q-.625-.578-1.219-.844-.594-.281-1.219-.281-1.344 0-2.031 1.078-.688 1.062-.688 3.156 0 2.094.688 3.172.688 1.062 2.031 1.062.625 0 1.219-.265.594-.281 1.219-.86v2.72Z"/><text x="700.2" y="2011.78" fill="#D9B8FF" font-family="Helvetica" font-size="17" textLength="267">aws_ecs_network_configuration</text><path d="M643 2025.789h351" style="stroke:#000d19;stroke-width:1.5"/><text x="653" y="2044.999" fill="#D9B8FF" font-family="sans-serif" font-size="11" font-weight="bold" textLength="140">awsvpc_configuration</text><text x="793" y="2044.999" fill="#D9B8FF" font-family="sans-serif" font-size="11" textLength="191">: aws_ecs_aws_vpc_configuration</text></a><a xlink:actuate="onRequest" xlink:href="#g" xlink:show="new" xlink:title="#aws_ecs_aws_vpc_configuration" xlink:type="simple" target="_top"><rect id="g" width="309" height="116.203" x="664" y="2151" fill="#3D176E" rx="2.5" ry="2.5" style="stroke:#000d19;stroke-width:1.5"/><circle cx="679" cy="2170.894" r="11" fill="#E98DF7" style="stroke:#000d19;stroke-width:1"/><path d="M681.969 2176.535q-.578.297-1.219.438-.64.156-1.344.156-2.5 0-3.828-1.64-1.312-1.657-1.312-4.782t1.312-4.781q1.328-1.657 3.828-1.657.703 0 1.344.157.656.156 1.219.453v2.719q-.625-.579-1.219-.844-.594-.281-1.219-.281-1.343 0-2.031 1.078-.688 1.062-.688 3.156 0 2.094.688 3.172.688 1.062 2.031 1.062.625 0 1.219-.265.594-.282 1.219-.86v2.72Z"/><text x="698" y="2176.78" fill="#D9B8FF" font-family="Helvetica" font-size="17" textLength="267">aws_ecs_aws_vpc_configuration</text><path d="M665 2190.789h307" style="stroke:#000d19;stroke-width:1.5"/><text x="675" y="2209.999" fill="#D9B8FF" font-family="sans-serif" font-size="11" font-weight="bold" textLength="51">subnets</text><text x="726" y="2209.999" fill="#D9B8FF" font-family="sans-serif" font-size="11" textLength="49">: string[]</text><text x="675" y="2232.804" fill="#D9B8FF" font-family="sans-serif" font-size="11" font-weight="bold" textLength="101">security_groups</text><text x="776" y="2232.804" fill="#D9B8FF" font-family="sans-serif" font-size="11" textLength="49">: string[]</text><text x="675" y="2255.609" fill="#D9B8FF" font-family="sans-serif" font-size="11" font-weight="bold" textLength="105">assign_public_ip</text><text x="780" y="2255.609" fill="#D9B8FF" font-family="sans-serif" font-size="11" textLength="41">: string</text></a><a xlink:actuate="onRequest" xlink:href="#h" xlink:show="new" xlink:title="#aws_ecs_service" xlink:type="simple" target="_top"><rect id="h" width="500" height="663.516" x="1064.5" y="596" fill="#3D176E" rx="2.5" ry="2.5" style="stroke:#000d19;stroke-width:1.5"/><circle cx="1237.75" cy="615.894" r="11" fill="#E98DF7" style="stroke:#000d19;stroke-width:1"/><path d="M1240.719 621.535q-.578.297-1.219.438-.64.156-1.344.156-2.5 0-3.828-1.64-1.312-1.657-1.312-4.782t1.312-4.781q1.328-1.657 3.828-1.657.703 0 1.344.157.656.156 1.219.453v2.719q-.625-.578-1.219-.844-.594-.281-1.219-.281-1.343 0-2.031 1.078-.688 1.062-.688 3.156 0 2.094.688 3.172.688 1.062 2.031 1.062.625 0 1.219-.265.594-.282 1.219-.86v2.72Z"/><text x="1263.25" y="621.78" fill="#D9B8FF" font-family="Helvetica" font-size="17" textLength="135">aws_ecs_service</text><path d="M1065.5 635.789h498" style="stroke:#000d19;stroke-width:1.5"/><text x="1075.5" y="655" fill="#D9B8FF" font-family="sans-serif" font-size="11" font-weight="bold" textLength="40">status</text><text x="1115.5" y="655" fill="#D9B8FF" font-family="sans-serif" font-size="11" textLength="41">: string</text><text x="1075.5" y="677.804" fill="#D9B8FF" font-family="sans-serif" font-size="11" font-weight="bold" textLength="71">cluster_arn</text><text x="1146.5" y="677.804" fill="#D9B8FF" font-family="sans-serif" font-size="11" textLength="41">: string</text><text x="1075.5" y="700.609" fill="#D9B8FF" font-family="sans-serif" font-size="11" font-weight="bold" textLength="149">service_load_balancers</text><text x="1224.5" y="700.609" fill="#D9B8FF" font-family="sans-serif" font-size="11" textLength="150">: aws_ecs_load_balancer[]</text><text x="1075.5" y="723.414" fill="#D9B8FF" font-family="sans-serif" font-size="11" font-weight="bold" textLength="113">service_registries</text><text x="1188.5" y="723.414" fill="#D9B8FF" font-family="sans-serif" font-size="11" textLength="162">: aws_ecs_service_registry[]</text><text x="1075.5" y="746.218" fill="#D9B8FF" font-family="sans-serif" font-size="11" font-weight="bold" textLength="142">service_desired_count</text><text x="1217.5" y="746.218" fill="#D9B8FF" font-family="sans-serif" font-size="11" textLength="36">: int64</text><text x="1075.5" y="769.023" fill="#D9B8FF" font-family="sans-serif" font-size="11" font-weight="bold" textLength="143">service_running_count</text><text x="1218.5" y="769.023" fill="#D9B8FF" font-family="sans-serif" font-size="11" textLength="36">: int64</text><text x="1075.5" y="791.828" fill="#D9B8FF" font-family="sans-serif" font-size="11" font-weight="bold" textLength="146">service_pending_count</text><text x="1221.5" y="791.828" fill="#D9B8FF" font-family="sans-serif" font-size="11" textLength="36">: int64</text><text x="1075.5" y="814.632" fill="#D9B8FF" font-family="sans-serif" font-size="11" font-weight="bold" textLength="129">service_launch_type</text><text x="1204.5" y="814.632" fill="#D9B8FF" font-family="sans-serif" font-size="11" textLength="41">: string</text><text x="1075.5" y="837.437" fill="#D9B8FF" font-family="sans-serif" font-size="11" font-weight="bold" textLength="224">service_capacity_provider_strategy</text><text x="1299.5" y="837.437" fill="#D9B8FF" font-family="sans-serif" font-size="11" textLength="254">: aws_ecs_capacity_provider_strategy_item[]</text><text x="1075.5" y="860.242" fill="#D9B8FF" font-family="sans-serif" font-size="11" font-weight="bold" textLength="159">service_platform_version</text><text x="1234.5" y="860.242" fill="#D9B8FF" font-family="sans-serif" font-size="11" textLength="41">: string</text><text x="1075.5" y="883.046" fill="#D9B8FF" font-family="sans-serif" font-size="11" font-weight="bold" textLength="151">service_platform_family</text><text x="1226.5" y="883.046" fill="#D9B8FF" font-family="sans-serif" font-size="11" textLength="41">: string</text><text x="1075.5" y="905.851" fill="#D9B8FF" font-family="sans-serif" font-size="11" font-weight="bold" textLength="147">service_task_definition</text><text x="1222.5" y="905.851" fill="#D9B8FF" font-family="sans-serif" font-size="11" textLength="41">: string</text><text x="1075.5" y="928.656" fill="#D9B8FF" font-family="sans-serif" font-size="11" font-weight="bold" textLength="219">service_deployment_configuration</text><text x="1294.5" y="928.656" fill="#D9B8FF" font-family="sans-serif" font-size="11" textLength="209">: aws_ecs_deployment_configuration</text><text x="1075.5" y="951.46" fill="#D9B8FF" font-family="sans-serif" font-size="11" font-weight="bold" textLength="112">service_task_sets</text><text x="1187.5" y="951.46" fill="#D9B8FF" font-family="sans-serif" font-size="11" textLength="119">: aws_ecs_task_set[]</text><text x="1075.5" y="974.265" fill="#D9B8FF" font-family="sans-serif" font-size="11" font-weight="bold" textLength="134">service_deployments</text><text x="1209.5" y="974.265" fill="#D9B8FF" font-family="sans-serif" font-size="11" textLength="137">: aws_ecs_deployment[]</text><text x="1075.5" y="997.07" fill="#D9B8FF" font-family="sans-serif" font-size="11" font-weight="bold" textLength="104">service_role_arn</text><text x="1179.5" y="997.07" fill="#D9B8FF" font-family="sans-serif" font-size="11" textLength="41">: string</text><text x="1075.5" y="1019.875" fill="#D9B8FF" font-family="sans-serif" font-size="11" font-weight="bold" textLength="95">service_events</text><text x="1170.5" y="1019.875" fill="#D9B8FF" font-family="sans-serif" font-size="11" textLength="149">: aws_ecs_service_event[]</text><text x="1075.5" y="1042.679" fill="#D9B8FF" font-family="sans-serif" font-size="11" font-weight="bold" textLength="197">service_placement_constraints</text><text x="1272.5" y="1042.679" fill="#D9B8FF" font-family="sans-serif" font-size="11" textLength="193">: aws_ecs_placement_constraint[]</text><text x="1075.5" y="1065.484" fill="#D9B8FF" font-family="sans-serif" font-size="11" font-weight="bold" textLength="178">service_placement_strategy</text><text x="1253.5" y="1065.484" fill="#D9B8FF" font-family="sans-serif" font-size="11" textLength="183">: aws_ecs_placement_strategy[]</text><text x="1075.5" y="1088.289" fill="#D9B8FF" font-family="sans-serif" font-size="11" font-weight="bold" textLength="196">service_network_configuration</text><text x="1271.5" y="1088.289" fill="#D9B8FF" font-family="sans-serif" font-size="11" textLength="188">: aws_ecs_network_configuration</text><text x="1075.5" y="1111.093" fill="#D9B8FF" font-family="sans-serif" font-size="11" font-weight="bold" textLength="284">service_health_check_grace_period_seconds</text><text x="1359.5" y="1111.093" fill="#D9B8FF" font-family="sans-serif" font-size="11" textLength="36">: int64</text><text x="1075.5" y="1133.898" fill="#D9B8FF" font-family="sans-serif" font-size="11" font-weight="bold" textLength="181">service_scheduling_strategy</text><text x="1256.5" y="1133.898" fill="#D9B8FF" font-family="sans-serif" font-size="11" textLength="41">: string</text><text x="1075.5" y="1156.703" fill="#D9B8FF" font-family="sans-serif" font-size="11" font-weight="bold" textLength="195">service_deployment_controller</text><text x="1270.5" y="1156.703" fill="#D9B8FF" font-family="sans-serif" font-size="11" textLength="41">: string</text><text x="1075.5" y="1179.507" fill="#D9B8FF" font-family="sans-serif" font-size="11" font-weight="bold" textLength="122">service_created_by</text><text x="1197.5" y="1179.507" fill="#D9B8FF" font-family="sans-serif" font-size="11" textLength="41">: string</text><text x="1075.5" y="1202.312" fill="#D9B8FF" font-family="sans-serif" font-size="11" font-weight="bold" textLength="223">service_enable_ecs_managed_tags</text><text x="1298.5" y="1202.312" fill="#D9B8FF" font-family="sans-serif" font-size="11" textLength="53">: boolean</text><text x="1075.5" y="1225.117" fill="#D9B8FF" font-family="sans-serif" font-size="11" font-weight="bold" textLength="152">service_propagate_tags</text><text x="1227.5" y="1225.117" fill="#D9B8FF" font-family="sans-serif" font-size="11" textLength="41">: string</text><text x="1075.5" y="1247.921" fill="#D9B8FF" font-family="sans-serif" font-size="11" font-weight="bold" textLength="220">service_enable_execute_command</text><text x="1295.5" y="1247.921" fill="#D9B8FF" font-family="sans-serif" font-size="11" textLength="53">: boolean</text></a><a xlink:actuate="onRequest" xlink:href="#i" xlink:show="new" xlink:title="#aws_ecs_task_set" xlink:type="simple" target="_top"><rect id="i" width="448" height="572.297" x="952.5" y="1320" fill="#3D176E" rx="2.5" ry="2.5" style="stroke:#000d19;stroke-width:1.5"/><circle cx="1094.25" cy="1339.895" r="11" fill="#E98DF7" style="stroke:#000d19;stroke-width:1"/><path d="M1097.219 1345.535q-.578.297-1.219.438-.64.156-1.344.156-2.5 0-3.828-1.64-1.312-1.657-1.312-4.782t1.312-4.781q1.328-1.656 3.828-1.656.703 0 1.344.156.656.156 1.219.453v2.719q-.625-.578-1.219-.844-.594-.281-1.219-.281-1.343 0-2.031 1.078-.688 1.062-.688 3.156 0 2.094.688 3.172.688 1.062 2.031 1.062.625 0 1.219-.265.594-.281 1.219-.86v2.72Z"/><text x="1119.75" y="1345.78" fill="#D9B8FF" font-family="Helvetica" font-size="17" textLength="146">aws_ecs_task_set</text><path d="M953.5 1359.789h446" style="stroke:#000d19;stroke-width:1.5"/><text x="963.5" y="1378.999" fill="#D9B8FF" font-family="sans-serif" font-size="11" font-weight="bold" textLength="12">id</text><text x="975.5" y="1378.999" fill="#D9B8FF" font-family="sans-serif" font-size="11" textLength="41">: string</text><text x="963.5" y="1401.804" fill="#D9B8FF" font-family="sans-serif" font-size="11" font-weight="bold" textLength="80">task_set_arn</text><text x="1043.5" y="1401.804" fill="#D9B8FF" font-family="sans-serif" font-size="11" textLength="41">: string</text><text x="963.5" y="1424.609" fill="#D9B8FF" font-family="sans-serif" font-size="11" font-weight="bold" textLength="73">service_arn</text><text x="1036.5" y="1424.609" fill="#D9B8FF" font-family="sans-serif" font-size="11" textLength="41">: string</text><text x="963.5" y="1447.414" fill="#D9B8FF" font-family="sans-serif" font-size="11" font-weight="bold" textLength="71">cluster_arn</text><text x="1034.5" y="1447.414" fill="#D9B8FF" font-family="sans-serif" font-size="11" textLength="41">: string</text><text x="963.5" y="1470.218" fill="#D9B8FF" font-family="sans-serif" font-size="11" font-weight="bold" textLength="67">started_by</text><text x="1030.5" y="1470.218" fill="#D9B8FF" font-family="sans-serif" font-size="11" textLength="41">: string</text><text x="963.5" y="1493.023" fill="#D9B8FF" font-family="sans-serif" font-size="11" font-weight="bold" textLength="71">external_id</text><text x="1034.5" y="1493.023" fill="#D9B8FF" font-family="sans-serif" font-size="11" textLength="41">: string</text><text x="963.5" y="1515.828" fill="#D9B8FF" font-family="sans-serif" font-size="11" font-weight="bold" textLength="40">status</text><text x="1003.5" y="1515.828" fill="#D9B8FF" font-family="sans-serif" font-size="11" textLength="41">: string</text><text x="963.5" y="1538.632" fill="#D9B8FF" font-family="sans-serif" font-size="11" font-weight="bold" textLength="95">task_definition</text><text x="1058.5" y="1538.632" fill="#D9B8FF" font-family="sans-serif" font-size="11" textLength="41">: string</text><text x="963.5" y="1561.437" fill="#D9B8FF" font-family="sans-serif" font-size="11" font-weight="bold" textLength="159">computed_desired_count</text><text x="1122.5" y="1561.437" fill="#D9B8FF" font-family="sans-serif" font-size="11" textLength="36">: int64</text><text x="963.5" y="1584.242" fill="#D9B8FF" font-family="sans-serif" font-size="11" font-weight="bold" textLength="94">pending_count</text><text x="1057.5" y="1584.242" fill="#D9B8FF" font-family="sans-serif" font-size="11" textLength="36">: int64</text><text x="963.5" y="1607.046" fill="#D9B8FF" font-family="sans-serif" font-size="11" font-weight="bold" textLength="91">running_count</text><text x="1054.5" y="1607.046" fill="#D9B8FF" font-family="sans-serif" font-size="11" textLength="36">: int64</text><text x="963.5" y="1629.851" fill="#D9B8FF" font-family="sans-serif" font-size="11" font-weight="bold" textLength="68">created_at</text><text x="1031.5" y="1629.851" fill="#D9B8FF" font-family="sans-serif" font-size="11" textLength="58">: datetime</text><text x="963.5" y="1652.656" fill="#D9B8FF" font-family="sans-serif" font-size="11" font-weight="bold" textLength="72">updated_at</text><text x="1035.5" y="1652.656" fill="#D9B8FF" font-family="sans-serif" font-size="11" textLength="58">: datetime</text><text x="963.5" y="1675.46" fill="#D9B8FF" font-family="sans-serif" font-size="11" font-weight="bold" textLength="77">launch_type</text><text x="1040.5" y="1675.46" fill="#D9B8FF" font-family="sans-serif" font-size="11" textLength="41">: string</text><text x="963.5" y="1698.265" fill="#D9B8FF" font-family="sans-serif" font-size="11" font-weight="bold" textLength="172">capacity_provider_strategy</text><text x="1135.5" y="1698.265" fill="#D9B8FF" font-family="sans-serif" font-size="11" textLength="254">: aws_ecs_capacity_provider_strategy_item[]</text><text x="963.5" y="1721.07" fill="#D9B8FF" font-family="sans-serif" font-size="11" font-weight="bold" textLength="107">platform_version</text><text x="1070.5" y="1721.07" fill="#D9B8FF" font-family="sans-serif" font-size="11" textLength="41">: string</text><text x="963.5" y="1743.874" fill="#D9B8FF" font-family="sans-serif" font-size="11" font-weight="bold" textLength="99">platform_family</text><text x="1062.5" y="1743.874" fill="#D9B8FF" font-family="sans-serif" font-size="11" textLength="41">: string</text><text x="963.5" y="1766.679" fill="#D9B8FF" font-family="sans-serif" font-size="11" font-weight="bold" textLength="144">network_configuration</text><text x="1107.5" y="1766.679" fill="#D9B8FF" font-family="sans-serif" font-size="11" textLength="188">: aws_ecs_network_configuration</text><text x="963.5" y="1789.484" fill="#D9B8FF" font-family="sans-serif" font-size="11" font-weight="bold" textLength="97">load_balancers</text><text x="1060.5" y="1789.484" fill="#D9B8FF" font-family="sans-serif" font-size="11" textLength="150">: aws_ecs_load_balancer[]</text><text x="963.5" y="1812.289" fill="#D9B8FF" font-family="sans-serif" font-size="11" font-weight="bold" textLength="113">service_registries</text><text x="1076.5" y="1812.289" fill="#D9B8FF" font-family="sans-serif" font-size="11" textLength="162">: aws_ecs_service_registry[]</text><text x="963.5" y="1835.093" fill="#D9B8FF" font-family="sans-serif" font-size="11" font-weight="bold" textLength="34">scale</text><text x="997.5" y="1835.093" fill="#D9B8FF" font-family="sans-serif" font-size="11" textLength="93">: aws_ecs_scale</text><text x="963.5" y="1857.898" fill="#D9B8FF" font-family="sans-serif" font-size="11" font-weight="bold" textLength="98">stability_status</text><text x="1061.5" y="1857.898" fill="#D9B8FF" font-family="sans-serif" font-size="11" textLength="41">: string</text><text x="963.5" y="1880.703" fill="#D9B8FF" font-family="sans-serif" font-size="11" font-weight="bold" textLength="117">stability_status_at</text><text x="1080.5" y="1880.703" fill="#D9B8FF" font-family="sans-serif" font-size="11" textLength="58">: datetime</text></a><a xlink:actuate="onRequest" xlink:href="#j" xlink:show="new" xlink:title="#aws_ecs_load_balancer" xlink:type="simple" target="_top"><rect id="j" width="234" height="139.008" x="1225.5" y="1952" fill="#3D176E" rx="2.5" ry="2.5" style="stroke:#000d19;stroke-width:1.5"/><circle cx="1240.5" cy="1971.895" r="11" fill="#E98DF7" style="stroke:#000d19;stroke-width:1"/><path d="M1243.469 1977.535q-.578.297-1.219.438-.64.156-1.344.156-2.5 0-3.828-1.64-1.312-1.657-1.312-4.782t1.312-4.781q1.328-1.656 3.828-1.656.703 0 1.344.156.656.156 1.219.453v2.719q-.625-.578-1.219-.844-.594-.281-1.219-.281-1.343 0-2.031 1.078-.688 1.062-.688 3.156 0 2.094.688 3.172.688 1.062 2.031 1.062.625 0 1.219-.265.594-.281 1.219-.86v2.72Z"/><text x="1259.5" y="1977.78" fill="#D9B8FF" font-family="Helvetica" font-size="17" textLength="192">aws_ecs_load_balancer</text><path d="M1226.5 1991.789h232" style="stroke:#000d19;stroke-width:1.5"/><text x="1236.5" y="2010.999" fill="#D9B8FF" font-family="sans-serif" font-size="11" font-weight="bold" textLength="109">target_group_arn</text><text x="1345.5" y="2010.999" fill="#D9B8FF" font-family="sans-serif" font-size="11" textLength="41">: string</text><text x="1236.5" y="2033.804" fill="#D9B8FF" font-family="sans-serif" font-size="11" font-weight="bold" textLength="131">load_balancer_name</text><text x="1367.5" y="2033.804" fill="#D9B8FF" font-family="sans-serif" font-size="11" textLength="41">: string</text><text x="1236.5" y="2056.609" fill="#D9B8FF" font-family="sans-serif" font-size="11" font-weight="bold" textLength="102">container_name</text><text x="1338.5" y="2056.609" fill="#D9B8FF" font-family="sans-serif" font-size="11" textLength="41">: string</text><text x="1236.5" y="2079.414" fill="#D9B8FF" font-family="sans-serif" font-size="11" font-weight="bold" textLength="93">container_port</text><text x="1329.5" y="2079.414" fill="#D9B8FF" font-family="sans-serif" font-size="11" textLength="36">: int64</text></a><a xlink:actuate="onRequest" xlink:href="#k" xlink:show="new" xlink:title="#aws_ecs_service_registry" xlink:type="simple" target="_top"><rect id="k" width="250" height="139.008" x="1494.5" y="1952" fill="#3D176E" rx="2.5" ry="2.5" style="stroke:#000d19;stroke-width:1.5"/><circle cx="1509.5" cy="1971.895" r="11" fill="#E98DF7" style="stroke:#000d19;stroke-width:1"/><path d="M1512.469 1977.535q-.578.297-1.219.438-.64.156-1.344.156-2.5 0-3.828-1.64-1.312-1.657-1.312-4.782t1.312-4.781q1.328-1.656 3.828-1.656.703 0 1.344.156.656.156 1.219.453v2.719q-.625-.578-1.219-.844-.594-.281-1.219-.281-1.343 0-2.031 1.078-.688 1.062-.688 3.156 0 2.094.688 3.172.688 1.062 2.031 1.062.625 0 1.219-.265.594-.281 1.219-.86v2.72Z"/><text x="1528.5" y="1977.78" fill="#D9B8FF" font-family="Helvetica" font-size="17" textLength="208">aws_ecs_service_registry</text><path d="M1495.5 1991.789h248" style="stroke:#000d19;stroke-width:1.5"/><text x="1505.5" y="2010.999" fill="#D9B8FF" font-family="sans-serif" font-size="11" font-weight="bold" textLength="76">registry_arn</text><text x="1581.5" y="2010.999" fill="#D9B8FF" font-family="sans-serif" font-size="11" textLength="41">: string</text><text x="1505.5" y="2033.804" fill="#D9B8FF" font-family="sans-serif" font-size="11" font-weight="bold" textLength="26">port</text><text x="1531.5" y="2033.804" fill="#D9B8FF" font-family="sans-serif" font-size="11" textLength="36">: int64</text><text x="1505.5" y="2056.609" fill="#D9B8FF" font-family="sans-serif" font-size="11" font-weight="bold" textLength="102">container_name</text><text x="1607.5" y="2056.609" fill="#D9B8FF" font-family="sans-serif" font-size="11" textLength="41">: string</text><text x="1505.5" y="2079.414" fill="#D9B8FF" font-family="sans-serif" font-size="11" font-weight="bold" textLength="93">container_port</text><text x="1598.5" y="2079.414" fill="#D9B8FF" font-family="sans-serif" font-size="11" textLength="36">: int64</text></a><a xlink:actuate="onRequest" xlink:href="#l" xlink:show="new" xlink:title="#aws_ecs_scale" xlink:type="simple" target="_top"><rect id="l" width="160" height="93.398" x="1030.5" y="1975" fill="#3D176E" rx="2.5" ry="2.5" style="stroke:#000d19;stroke-width:1.5"/><circle cx="1045.5" cy="1994.895" r="11" fill="#E98DF7" style="stroke:#000d19;stroke-width:1"/><path d="M1048.469 2000.535q-.578.297-1.219.438-.64.156-1.344.156-2.5 0-3.828-1.64-1.312-1.657-1.312-4.782t1.312-4.781q1.328-1.656 3.828-1.656.703 0 1.344.156.656.156 1.219.453v2.719q-.625-.578-1.219-.844-.594-.281-1.219-.281-1.343 0-2.031 1.078-.688 1.062-.688 3.156 0 2.094.688 3.172.688 1.062 2.031 1.062.625 0 1.219-.265.594-.281 1.219-.86v2.72Z"/><text x="1064.5" y="2000.78" fill="#D9B8FF" font-family="Helvetica" font-size="17" textLength="118">aws_ecs_scale</text><path d="M1031.5 2014.789h158" style="stroke:#000d19;stroke-width:1.5"/><text x="1041.5" y="2033.999" fill="#D9B8FF" font-family="sans-serif" font-size="11" font-weight="bold" textLength="35">value</text><text x="1076.5" y="2033.999" fill="#D9B8FF" font-family="sans-serif" font-size="11" textLength="46">: double</text><text x="1041.5" y="2056.804" fill="#D9B8FF" font-family="sans-serif" font-size="11" font-weight="bold" textLength="25">unit</text><text x="1066.5" y="2056.804" fill="#D9B8FF" font-family="sans-serif" font-size="11" textLength="41">: string</text></a><a xlink:actuate="onRequest" xlink:href="#m" xlink:show="new" xlink:title="#aws_ecs_deployment_configuration" xlink:type="simple" target="_top"><rect id="m" width="417" height="116.203" x="1578" y="1548" fill="#3D176E" rx="2.5" ry="2.5" style="stroke:#000d19;stroke-width:1.5"/><circle cx="1628.75" cy="1567.895" r="11" fill="#E98DF7" style="stroke:#000d19;stroke-width:1"/><path d="M1631.719 1573.535q-.578.297-1.219.438-.64.156-1.344.156-2.5 0-3.828-1.64-1.312-1.657-1.312-4.782t1.312-4.781q1.328-1.656 3.828-1.656.703 0 1.344.156.656.156 1.219.453v2.719q-.625-.578-1.219-.844-.594-.281-1.219-.281-1.343 0-2.031 1.078-.688 1.062-.688 3.156 0 2.094.688 3.172.688 1.062 2.031 1.062.625 0 1.219-.265.594-.281 1.219-.86v2.72Z"/><text x="1654.25" y="1573.78" fill="#D9B8FF" font-family="Helvetica" font-size="17" textLength="297">aws_ecs_deployment_configuration</text><path d="M1579 1587.789h415" style="stroke:#000d19;stroke-width:1.5"/><text x="1589" y="1606.999" fill="#D9B8FF" font-family="sans-serif" font-size="11" font-weight="bold" textLength="176">deployment_circuit_breaker</text><text x="1765" y="1606.999" fill="#D9B8FF" font-family="sans-serif" font-size="11" textLength="219">: aws_ecs_deployment_circuit_breaker</text><text x="1589" y="1629.804" fill="#D9B8FF" font-family="sans-serif" font-size="11" font-weight="bold" textLength="115">maximum_percent</text><text x="1704" y="1629.804" fill="#D9B8FF" font-family="sans-serif" font-size="11" textLength="36">: int64</text><text x="1589" y="1652.609" fill="#D9B8FF" font-family="sans-serif" font-size="11" font-weight="bold" textLength="166">minimum_healthy_percent</text><text x="1755" y="1652.609" fill="#D9B8FF" font-family="sans-serif" font-size="11" textLength="36">: int64</text></a><a xlink:actuate="onRequest" xlink:href="#n" xlink:show="new" xlink:title="#aws_ecs_deployment_circuit_breaker" xlink:type="simple" target="_top"><rect id="n" width="352" height="93.398" x="1779.5" y="1975" fill="#3D176E" rx="2.5" ry="2.5" style="stroke:#000d19;stroke-width:1.5"/><circle cx="1794.5" cy="1994.895" r="11" fill="#E98DF7" style="stroke:#000d19;stroke-width:1"/><path d="M1797.469 2000.535q-.578.297-1.219.438-.64.156-1.344.156-2.5 0-3.828-1.64-1.312-1.657-1.312-4.782t1.312-4.781q1.328-1.656 3.828-1.656.703 0 1.344.156.656.156 1.219.453v2.719q-.625-.578-1.219-.844-.594-.281-1.219-.281-1.343 0-2.031 1.078-.688 1.062-.688 3.156 0 2.094.688 3.172.688 1.062 2.031 1.062.625 0 1.219-.265.594-.281 1.219-.86v2.72Z"/><text x="1813.5" y="2000.78" fill="#D9B8FF" font-family="Helvetica" font-size="17" textLength="310">aws_ecs_deployment_circuit_breaker</text><path d="M1780.5 2014.789h350" style="stroke:#000d19;stroke-width:1.5"/><text x="1790.5" y="2033.999" fill="#D9B8FF" font-family="sans-serif" font-size="11" font-weight="bold" textLength="44">enable</text><text x="1834.5" y="2033.999" fill="#D9B8FF" font-family="sans-serif" font-size="11" textLength="53">: boolean</text><text x="1790.5" y="2056.804" fill="#D9B8FF" font-family="sans-serif" font-size="11" font-weight="bold" textLength="51">rollback</text><text x="1841.5" y="2056.804" fill="#D9B8FF" font-family="sans-serif" font-size="11" textLength="53">: boolean</text></a><a xlink:actuate="onRequest" xlink:href="#o" xlink:show="new" xlink:title="#aws_ecs_service_event" xlink:type="simple" target="_top"><rect id="o" width="234" height="116.203" x="2030.5" y="1548" fill="#3D176E" rx="2.5" ry="2.5" style="stroke:#000d19;stroke-width:1.5"/><circle cx="2045.5" cy="1567.895" r="11" fill="#E98DF7" style="stroke:#000d19;stroke-width:1"/><path d="M2048.469 1573.535q-.578.297-1.219.438-.64.156-1.344.156-2.5 0-3.828-1.64-1.312-1.657-1.312-4.782t1.312-4.781q1.328-1.656 3.828-1.656.703 0 1.344.156.656.156 1.219.453v2.719q-.625-.578-1.219-.844-.594-.281-1.219-.281-1.343 0-2.031 1.078-.688 1.062-.688 3.156 0 2.094.688 3.172.688 1.062 2.031 1.062.625 0 1.219-.265.594-.281 1.219-.86v2.72Z"/><text x="2064.5" y="1573.78" fill="#D9B8FF" font-family="Helvetica" font-size="17" textLength="192">aws_ecs_service_event</text><path d="M2031.5 1587.789h232" style="stroke:#000d19;stroke-width:1.5"/><text x="2041.5" y="1606.999" fill="#D9B8FF" font-family="sans-serif" font-size="11" font-weight="bold" textLength="12">id</text><text x="2053.5" y="1606.999" fill="#D9B8FF" font-family="sans-serif" font-size="11" textLength="41">: string</text><text x="2041.5" y="1629.804" fill="#D9B8FF" font-family="sans-serif" font-size="11" font-weight="bold" textLength="68">created_at</text><text x="2109.5" y="1629.804" fill="#D9B8FF" font-family="sans-serif" font-size="11" textLength="58">: datetime</text><text x="2041.5" y="1652.609" fill="#D9B8FF" font-family="sans-serif" font-size="11" font-weight="bold" textLength="57">message</text><text x="2098.5" y="1652.609" fill="#D9B8FF" font-family="sans-serif" font-size="11" textLength="41">: string</text></a><a xlink:actuate="onRequest" xlink:href="#p" xlink:show="new" xlink:title="#aws_ecs_placement_constraint" xlink:type="simple" target="_top"><rect id="p" width="300" height="93.398" x="2299.5" y="1559.5" fill="#3D176E" rx="2.5" ry="2.5" style="stroke:#000d19;stroke-width:1.5"/><circle cx="2314.5" cy="1579.395" r="11" fill="#E98DF7" style="stroke:#000d19;stroke-width:1"/><path d="M2317.469 1585.035q-.578.297-1.219.438-.64.156-1.344.156-2.5 0-3.828-1.64-1.312-1.657-1.312-4.782t1.312-4.781q1.328-1.656 3.828-1.656.703 0 1.344.156.656.156 1.219.453v2.719q-.625-.578-1.219-.844-.594-.281-1.219-.281-1.343 0-2.031 1.078-.688 1.062-.688 3.156 0 2.094.688 3.172.688 1.062 2.031 1.062.625 0 1.219-.265.594-.281 1.219-.86v2.72Z"/><text x="2333.5" y="1585.28" fill="#D9B8FF" font-family="Helvetica" font-size="17" textLength="258">aws_ecs_placement_constraint</text><path d="M2300.5 1599.289h298" style="stroke:#000d19;stroke-width:1.5"/><text x="2310.5" y="1618.499" fill="#D9B8FF" font-family="sans-serif" font-size="11" font-weight="bold" textLength="28">type</text><text x="2338.5" y="1618.499" fill="#D9B8FF" font-family="sans-serif" font-size="11" textLength="41">: string</text><text x="2310.5" y="1641.304" fill="#D9B8FF" font-family="sans-serif" font-size="11" font-weight="bold" textLength="70">expression</text><text x="2380.5" y="1641.304" fill="#D9B8FF" font-family="sans-serif" font-size="11" textLength="41">: string</text></a><path fill="none" d="M1314.5 303.43V403.9M1307.5 303.26l7-20 7 20h-14zM517.62 1812.54c-27.23 53.37-54.52 106.84-74.61 146.2" style="stroke:#ffaf37;stroke-width:2"/><path fill="#FFAF37" d="m440.6 1963.47 7.658-6.193-5.382 1.741-1.74-5.382-.536 9.834z" style="stroke:#ffaf37;stroke-width:2"/><path fill="none" d="M719.93 1812.54c30.46 64.27 61 128.7 79.84 168.44" style="stroke:#ffaf37;stroke-width:2"/><path fill="#FFAF37" d="m802.01 1985.7-.234-9.846-1.905 5.326-5.326-1.904 7.465 6.424z" style="stroke:#ffaf37;stroke-width:2"/><path fill="none" d="M818.5 2057.39v88.21" style="stroke:#ffaf37;stroke-width:2"/><path fill="#FFAF37" d="m818.5 2150.66 4-9-4 4-4-4 4 9z" style="stroke:#ffaf37;stroke-width:2"/><path fill="none" d="M1314.5 495.41v100.54M1307.5 495.1l7-20 7 20h-14zM1407.97 1260.07c3.74 20.18 6.98 40.26 9.53 59.93 32.65 252.12 66.38 326.6 0 572-5.13 18.96-13.83 38-23.53 55.4" style="stroke:#ffaf37;stroke-width:2"/><path fill="#FFAF37" d="m1391.49 1951.78 7.913-5.863-5.45 1.511-1.513-5.45-.95 9.802z" style="stroke:#ffaf37;stroke-width:2"/><path fill="none" d="M1445.73 1260.02c6.41 20.17 12.4 40.27 17.77 59.98 67.79 248.78 20.99 325.6 97 572 5.62 18.23 13.27 37.22 21.19 54.85" style="stroke:#ffaf37;stroke-width:2"/><path fill="#FFAF37" d="m1583.93 1951.78-.094-9.848-1.98 5.299-5.3-1.98 7.374 6.529z" style="stroke:#ffaf37;stroke-width:2"/><path fill="none" d="M1064.36 957.49c-221.6 39.95-532.73 135.4-683.86 362.51-133 199.87-42.69 507.51 5.81 638.27" style="stroke:#ffaf37;stroke-width:2"/><path fill="#FFAF37" d="m388.16 1963.22.611-9.83-2.354 5.144-5.144-2.355 6.887 7.041z" style="stroke:#ffaf37;stroke-width:2"/><path fill="none" d="M1545.66 1260.07c75.77 108.51 152.2 217.98 198.04 283.64" style="stroke:#ffaf37;stroke-width:2"/><path fill="#FFAF37" d="m1746.68 1547.97-1.887-9.667-.981 5.571-5.571-.981 8.439 5.077z" style="stroke:#ffaf37;stroke-width:2"/><path fill="none" d="M1246.91 1260.07c-3.71 18.19-7.43 36.41-11.11 54.45" style="stroke:#ffaf37;stroke-width:2"/><path fill="#FFAF37" d="m1234.76 1319.6 5.719-8.018-4.72 3.119-3.119-4.72 2.12 9.619z" style="stroke:#ffaf37;stroke-width:2"/><path fill="none" d="M1064.36 1141.19c-63.68 56.6-131 118.75-190.86 178.81-23.84 23.92-48.2 49.69-71.9 75.59" style="stroke:#ffaf37;stroke-width:2"/><path fill="#FFAF37" d="m798.11 1399.42 9.026-3.941-5.651.252-.252-5.652-3.123 9.341z" style="stroke:#ffaf37;stroke-width:2"/><path fill="none" d="M1564.91 1023.64c145.58 65.25 324.1 164.14 447.59 296.36 60.19 64.44 98.08 160.6 117.9 223.06" style="stroke:#ffaf37;stroke-width:2"/><path fill="#FFAF37" d="m2131.91 1547.88 1.108-9.786-2.612 5.017-5.017-2.612 6.521 7.381z" style="stroke:#ffaf37;stroke-width:2"/><path fill="none" d="M1564.54 982.29c210.6 55.26 509.81 159.22 716.96 337.71 75.06 64.67 125.25 171.6 150 234.46" style="stroke:#ffaf37;stroke-width:2"/><path fill="#FFAF37" d="m2433.38 1559.29.434-9.84-2.261 5.186-5.186-2.262 7.013 6.916z" style="stroke:#ffaf37;stroke-width:2"/><path fill="none" d="M1064.45 979.12C847.6 1032.99 535.49 1136.71 319.5 1320c-75.88 64.4-126.77 171.66-151.83 234.61" style="stroke:#ffaf37;stroke-width:2"/><path fill="#FFAF37" d="m165.76 1559.44 7.02-6.908-5.188 2.256-2.256-5.188.424 9.84z" style="stroke:#ffaf37;stroke-width:2"/><path fill="none" d="M1064.42 1137.46c-50.69 54.27-98.14 116.29-129.92 182.54-110.81 230.97-12.56 322.58-71 572-7.15 30.53-18.98 63.92-28.71 89.02" style="stroke:#ffaf37;stroke-width:2"/><path fill="#FFAF37" d="m832.87 1985.92 6.994-6.934-5.179 2.275-2.275-5.18.46 9.839z" style="stroke:#ffaf37;stroke-width:2"/><path fill="none" d="M952.14 1834.06c-28.39 21.68-58.2 41.61-88.64 57.94-96.51 51.76-133.7 29.89-239 60-11.11 3.18-22.52 6.54-34 10.01" style="stroke:#ffaf37;stroke-width:2"/><path fill="#FFAF37" d="m585.58 1963.5 9.771 1.232-4.984-2.675 2.675-4.985-7.462 6.428z" style="stroke:#ffaf37;stroke-width:2"/><path fill="none" d="M952.32 1865.94c-39.22 45.3-75.34 87.02-100.15 115.67" style="stroke:#ffaf37;stroke-width:2"/><path fill="#FFAF37" d="m848.6 1985.74 8.919-4.178-5.643.401-.4-5.643-2.876 9.42z" style="stroke:#ffaf37;stroke-width:2"/><path fill="none" d="M1291 1892.22c7.87 19.61 15.3 38.12 21.94 54.65" style="stroke:#ffaf37;stroke-width:2"/><path fill="#FFAF37" d="m1314.97 1951.93.345-9.843-2.214 5.206-5.206-2.215 7.075 6.852z" style="stroke:#ffaf37;stroke-width:2"/><path fill="none" d="M1400.6 1816.17c50.93 47.55 101.68 94.92 141.48 132.06" style="stroke:#ffaf37;stroke-width:2"/><path fill="#FFAF37" d="m1545.89 1951.79-3.849-9.066.194 5.654-5.653.194 9.308 3.218z" style="stroke:#ffaf37;stroke-width:2"/><path fill="none" d="M1130.98 1892.22c-4.69 29.34-8.98 56.21-12.4 77.69" style="stroke:#ffaf37;stroke-width:2"/><path fill="#FFAF37" d="m1117.77 1974.97 5.39-8.243-4.589 3.308-3.307-4.59 2.506 9.525z" style="stroke:#ffaf37;stroke-width:2"/><path fill="none" d="M1809.82 1664.06c33.14 81.08 93.33 228.36 124.97 305.78" style="stroke:#ffaf37;stroke-width:2"/><path fill="#FFAF37" d="m1936.84 1974.83.283-9.845-2.182 5.22-5.22-2.182 7.119 6.807z" style="stroke:#ffaf37;stroke-width:2"/></svg>