<svg xmlns="http://www.w3.org/2000/svg" xmlns:xlink="http://www.w3.org/1999/xlink" width="5815" height="352" preserveAspectRatio="none" style="width:5815px;height:352px;background:#00000000"><a xlink:actuate="onRequest" xlink:href="#a" xlink:show="new" xlink:title="#aws_sagemaker_domain" xlink:type="simple" target="_top"><rect id="a" width="248" height="39.789" x="7" y="207" fill="#3D176E" rx="2.5" ry="2.5" style="stroke:#000d19;stroke-width:1.5"/><circle cx="22" cy="226.894" r="11" fill="#E98DF7" style="stroke:#000d19;stroke-width:1"/><path d="M24.969 232.535q-.578.297-1.219.438-.64.156-1.344.156-2.5 0-3.828-1.64-1.312-1.657-1.312-4.782t1.312-4.781q1.328-1.656 3.828-1.656.703 0 1.344.156.656.156 1.219.453v2.719q-.625-.579-1.219-.844-.594-.281-1.219-.281-1.343 0-2.031 1.078-.688 1.062-.688 3.156 0 2.094.688 3.172.688 1.062 2.031 1.062.625 0 1.219-.265.594-.281 1.219-.86v2.72Z"/><text x="41" y="232.78" fill="#D9B8FF" font-family="Helvetica" font-size="17" textLength="206">aws_sagemaker_domain</text></a><a xlink:actuate="onRequest" xlink:href="#b" xlink:show="new" xlink:title="#aws_kms_key" xlink:type="simple" target="_top"><rect id="b" width="158" height="39.789" x="2384" y="307" fill="#3D176E" rx="2.5" ry="2.5" style="stroke:#000d19;stroke-width:1.5"/><circle cx="2399" cy="326.894" r="11" fill="#E98DF7" style="stroke:#000d19;stroke-width:1"/><path d="M2401.969 332.535q-.578.297-1.219.438-.64.156-1.344.156-2.5 0-3.828-1.64-1.312-1.657-1.312-4.782t1.312-4.781q1.328-1.656 3.828-1.656.703 0 1.344.156.656.156 1.219.453v2.719q-.625-.579-1.219-.844-.594-.281-1.219-.281-1.343 0-2.031 1.078-.688 1.062-.688 3.156 0 2.094.688 3.172.688 1.062 2.031 1.062.625 0 1.219-.265.594-.281 1.219-.86v2.72Z"/><text x="2418" y="332.78" fill="#D9B8FF" font-family="Helvetica" font-size="17" textLength="116">aws_kms_key</text></a><a xlink:actuate="onRequest" xlink:href="#c" xlink:show="new" xlink:title="#aws_sqs_queue" xlink:type="simple" target="_top"><rect id="c" width="171" height="39.789" x="290.5" y="207" fill="#3D176E" rx="2.5" ry="2.5" style="stroke:#000d19;stroke-width:1.5"/><circle cx="305.5" cy="226.894" r="11" fill="#E98DF7" style="stroke:#000d19;stroke-width:1"/><path d="M308.469 232.535q-.578.297-1.219.438-.64.156-1.344.156-2.5 0-3.828-1.64-1.312-1.657-1.312-4.782t1.312-4.781q1.328-1.656 3.828-1.656.703 0 1.344.156.656.156 1.219.453v2.719q-.625-.579-1.219-.844-.594-.281-1.219-.281-1.344 0-2.031 1.078-.688 1.062-.688 3.156 0 2.094.688 3.172.688 1.062 2.031 1.062.625 0 1.219-.265.594-.281 1.219-.86v2.72Z"/><text x="324.5" y="232.78" fill="#D9B8FF" font-family="Helvetica" font-size="17" textLength="129">aws_sqs_queue</text></a><a xlink:actuate="onRequest" xlink:href="#d" xlink:show="new" xlink:title="#aws_redshift_cluster" xlink:type="simple" target="_top"><rect id="d" width="213" height="39.789" x="671.5" y="7" fill="#3D176E" rx="2.5" ry="2.5" style="stroke:#000d19;stroke-width:1.5"/><circle cx="686.5" cy="26.895" r="11" fill="#E98DF7" style="stroke:#000d19;stroke-width:1"/><path d="M689.469 32.535q-.578.297-1.219.438-.64.156-1.344.156-2.5 0-3.828-1.64-1.312-1.657-1.312-4.782t1.312-4.781q1.328-1.656 3.828-1.656.703 0 1.344.156.656.156 1.219.453v2.719q-.625-.578-1.219-.844-.594-.281-1.219-.281-1.343 0-2.031 1.078-.688 1.062-.688 3.156 0 2.094.688 3.172.688 1.062 2.031 1.062.625 0 1.219-.265.594-.281 1.219-.86v2.72Z"/><text x="705.5" y="32.78" fill="#D9B8FF" font-family="Helvetica" font-size="17" textLength="171">aws_redshift_cluster</text></a><a xlink:actuate="onRequest" xlink:href="#e" xlink:show="new" xlink:title="#aws_sagemaker_processing_job" xlink:type="simple" target="_top"><rect id="e" width="306" height="39.789" x="1173" y="107" fill="#3D176E" rx="2.5" ry="2.5" style="stroke:#000d19;stroke-width:1.5"/><circle cx="1188" cy="126.894" r="11" fill="#E98DF7" style="stroke:#000d19;stroke-width:1"/><path d="M1190.969 132.535q-.578.297-1.219.438-.64.156-1.344.156-2.5 0-3.828-1.64-1.312-1.657-1.312-4.782t1.312-4.781q1.328-1.657 3.828-1.657.703 0 1.344.157.656.156 1.219.453v2.719q-.625-.579-1.219-.844-.594-.281-1.219-.281-1.343 0-2.031 1.078-.688 1.062-.688 3.156 0 2.094.688 3.172.688 1.062 2.031 1.062.625 0 1.219-.265.594-.281 1.219-.86v2.72Z"/><text x="1207" y="132.78" fill="#D9B8FF" font-family="Helvetica" font-size="17" textLength="264">aws_sagemaker_processing_job</text></a><a xlink:actuate="onRequest" xlink:href="#f" xlink:show="new" xlink:title="#aws_sns_topic" xlink:type="simple" target="_top"><rect id="f" width="160" height="39.789" x="2317" y="207" fill="#3D176E" rx="2.5" ry="2.5" style="stroke:#000d19;stroke-width:1.5"/><circle cx="2332" cy="226.894" r="11" fill="#E98DF7" style="stroke:#000d19;stroke-width:1"/><path d="M2334.969 232.535q-.578.297-1.219.438-.64.156-1.344.156-2.5 0-3.828-1.64-1.312-1.657-1.312-4.782t1.312-4.781q1.328-1.656 3.828-1.656.703 0 1.344.156.656.156 1.219.453v2.719q-.625-.579-1.219-.844-.594-.281-1.219-.281-1.343 0-2.031 1.078-.688 1.062-.688 3.156 0 2.094.688 3.172.688 1.062 2.031 1.062.625 0 1.219-.265.594-.281 1.219-.86v2.72Z"/><text x="2351" y="232.78" fill="#D9B8FF" font-family="Helvetica" font-size="17" textLength="118">aws_sns_topic</text></a><a xlink:actuate="onRequest" xlink:href="#g" xlink:show="new" xlink:title="#aws_elasticache_replication_group" xlink:type="simple" target="_top"><rect id="g" width="330" height="39.789" x="2654" y="207" fill="#3D176E" rx="2.5" ry="2.5" style="stroke:#000d19;stroke-width:1.5"/><circle cx="2669" cy="226.894" r="11" fill="#E98DF7" style="stroke:#000d19;stroke-width:1"/><path d="M2671.969 232.535q-.578.297-1.219.438-.64.156-1.344.156-2.5 0-3.828-1.64-1.312-1.657-1.312-4.782t1.312-4.781q1.328-1.656 3.828-1.656.703 0 1.344.156.656.156 1.219.453v2.719q-.625-.579-1.219-.844-.594-.281-1.219-.281-1.343 0-2.031 1.078-.688 1.062-.688 3.156 0 2.094.688 3.172.688 1.062 2.031 1.062.625 0 1.219-.265.594-.281 1.219-.86v2.72Z"/><text x="2688" y="232.78" fill="#D9B8FF" font-family="Helvetica" font-size="17" textLength="288">aws_elasticache_replication_group</text></a><a xlink:actuate="onRequest" xlink:href="#h" xlink:show="new" xlink:title="#aws_sagemaker_notebook" xlink:type="simple" target="_top"><rect id="h" width="263" height="39.789" x="3019.5" y="207" fill="#3D176E" rx="2.5" ry="2.5" style="stroke:#000d19;stroke-width:1.5"/><circle cx="3034.5" cy="226.894" r="11" fill="#E98DF7" style="stroke:#000d19;stroke-width:1"/><path d="M3037.469 232.535q-.578.297-1.219.438-.64.156-1.344.156-2.5 0-3.828-1.64-1.312-1.657-1.312-4.782t1.312-4.781q1.328-1.656 3.828-1.656.703 0 1.344.156.656.156 1.219.453v2.719q-.625-.579-1.219-.844-.594-.281-1.219-.281-1.343 0-2.031 1.078-.688 1.062-.688 3.156 0 2.094.688 3.172.688 1.062 2.031 1.062.625 0 1.219-.265.594-.281 1.219-.86v2.72Z"/><text x="3053.5" y="232.78" fill="#D9B8FF" font-family="Helvetica" font-size="17" textLength="221">aws_sagemaker_notebook</text></a><a xlink:actuate="onRequest" xlink:href="#i" xlink:show="new" xlink:title="#aws_sagemaker_auto_ml_job" xlink:type="simple" target="_top"><rect id="i" width="288" height="39.789" x="1079" y="7" fill="#3D176E" rx="2.5" ry="2.5" style="stroke:#000d19;stroke-width:1.5"/><circle cx="1094" cy="26.895" r="11" fill="#E98DF7" style="stroke:#000d19;stroke-width:1"/><path d="M1096.969 32.535q-.578.297-1.219.438-.64.156-1.344.156-2.5 0-3.828-1.64-1.312-1.657-1.312-4.782t1.312-4.781q1.328-1.656 3.828-1.656.703 0 1.344.156.656.156 1.219.453v2.719q-.625-.578-1.219-.844-.594-.281-1.219-.281-1.343 0-2.031 1.078-.688 1.062-.688 3.156 0 2.094.688 3.172.688 1.062 2.031 1.062.625 0 1.219-.265.594-.281 1.219-.86v2.72Z"/><text x="1113" y="32.78" fill="#D9B8FF" font-family="Helvetica" font-size="17" textLength="246">aws_sagemaker_auto_ml_job</text></a><a xlink:actuate="onRequest" xlink:href="#j" xlink:show="new" xlink:title="#aws_sagemaker_labeling_job" xlink:type="simple" target="_top"><rect id="j" width="285" height="39.789" x="1585.5" y="107" fill="#3D176E" rx="2.5" ry="2.5" style="stroke:#000d19;stroke-width:1.5"/><circle cx="1600.5" cy="126.894" r="11" fill="#E98DF7" style="stroke:#000d19;stroke-width:1"/><path d="M1603.469 132.535q-.578.297-1.219.438-.64.156-1.344.156-2.5 0-3.828-1.64-1.312-1.657-1.312-4.782t1.312-4.781q1.328-1.657 3.828-1.657.703 0 1.344.157.656.156 1.219.453v2.719q-.625-.579-1.219-.844-.594-.281-1.219-.281-1.343 0-2.031 1.078-.688 1.062-.688 3.156 0 2.094.688 3.172.688 1.062 2.031 1.062.625 0 1.219-.265.594-.281 1.219-.86v2.72Z"/><text x="1619.5" y="132.78" fill="#D9B8FF" font-family="Helvetica" font-size="17" textLength="243">aws_sagemaker_labeling_job</text></a><a xlink:actuate="onRequest" xlink:href="#k" xlink:show="new" xlink:title="#aws_sagemaker_hyper_parameter_tuning_job" xlink:type="simple" target="_top"><rect id="k" width="428" height="39.789" x="639" y="107" fill="#3D176E" rx="2.5" ry="2.5" style="stroke:#000d19;stroke-width:1.5"/><circle cx="654" cy="126.894" r="11" fill="#E98DF7" style="stroke:#000d19;stroke-width:1"/><path d="M656.969 132.535q-.578.297-1.219.438-.64.156-1.344.156-2.5 0-3.828-1.64-1.312-1.657-1.312-4.782t1.312-4.781q1.328-1.657 3.828-1.657.703 0 1.344.157.656.156 1.219.453v2.719q-.625-.579-1.219-.844-.594-.281-1.219-.281-1.343 0-2.031 1.078-.688 1.062-.688 3.156 0 2.094.688 3.172.688 1.062 2.031 1.062.625 0 1.219-.265.594-.281 1.219-.86v2.72Z"/><text x="673" y="132.78" fill="#D9B8FF" font-family="Helvetica" font-size="17" textLength="386">aws_sagemaker_hyper_parameter_tuning_job</text></a><a xlink:actuate="onRequest" xlink:href="#l" xlink:show="new" xlink:title="#aws_sagemaker_training_job" xlink:type="simple" target="_top"><rect id="l" width="285" height="39.789" x="1045.5" y="207" fill="#3D176E" rx="2.5" ry="2.5" style="stroke:#000d19;stroke-width:1.5"/><circle cx="1060.5" cy="226.894" r="11" fill="#E98DF7" style="stroke:#000d19;stroke-width:1"/><path d="M1063.469 232.535q-.578.297-1.219.438-.64.156-1.344.156-2.5 0-3.828-1.64-1.312-1.657-1.312-4.782t1.312-4.781q1.328-1.656 3.828-1.656.703 0 1.344.156.656.156 1.219.453v2.719q-.625-.579-1.219-.844-.594-.281-1.219-.281-1.343 0-2.031 1.078-.688 1.062-.688 3.156 0 2.094.688 3.172.688 1.062 2.031 1.062.625 0 1.219-.265.594-.281 1.219-.86v2.72Z"/><text x="1079.5" y="232.78" fill="#D9B8FF" font-family="Helvetica" font-size="17" textLength="243">aws_sagemaker_training_job</text></a><a xlink:actuate="onRequest" xlink:href="#m" xlink:show="new" xlink:title="#aws_sagemaker_inference_recommendations_job" xlink:type="simple" target="_top"><rect id="m" width="457" height="39.789" x="2444.5" y="7" fill="#3D176E" rx="2.5" ry="2.5" style="stroke:#000d19;stroke-width:1.5"/><circle cx="2459.5" cy="26.895" r="11" fill="#E98DF7" style="stroke:#000d19;stroke-width:1"/><path d="M2462.469 32.535q-.578.297-1.219.438-.64.156-1.344.156-2.5 0-3.828-1.64-1.312-1.657-1.312-4.782t1.312-4.781q1.328-1.656 3.828-1.656.703 0 1.344.156.656.156 1.219.453v2.719q-.625-.578-1.219-.844-.594-.281-1.219-.281-1.343 0-2.031 1.078-.688 1.062-.688 3.156 0 2.094.688 3.172.688 1.062 2.031 1.062.625 0 1.219-.265.594-.281 1.219-.86v2.72Z"/><text x="2478.5" y="32.78" fill="#D9B8FF" font-family="Helvetica" font-size="17" textLength="415">aws_sagemaker_inference_recommendations_job</text></a><a xlink:actuate="onRequest" xlink:href="#n" xlink:show="new" xlink:title="#aws_sagemaker_compilation_job" xlink:type="simple" target="_top"><rect id="n" width="317" height="39.789" x="3317.5" y="207" fill="#3D176E" rx="2.5" ry="2.5" style="stroke:#000d19;stroke-width:1.5"/><circle cx="3332.5" cy="226.894" r="11" fill="#E98DF7" style="stroke:#000d19;stroke-width:1"/><path d="M3335.469 232.535q-.578.297-1.219.438-.64.156-1.344.156-2.5 0-3.828-1.64-1.312-1.657-1.312-4.782t1.312-4.781q1.328-1.656 3.828-1.656.703 0 1.344.156.656.156 1.219.453v2.719q-.625-.579-1.219-.844-.594-.281-1.219-.281-1.343 0-2.031 1.078-.688 1.062-.688 3.156 0 2.094.688 3.172.688 1.062 2.031 1.062.625 0 1.219-.265.594-.281 1.219-.86v2.72Z"/><text x="3351.5" y="232.78" fill="#D9B8FF" font-family="Helvetica" font-size="17" textLength="275">aws_sagemaker_compilation_job</text></a><a xlink:actuate="onRequest" xlink:href="#o" xlink:show="new" xlink:title="#aws_rds_instance" xlink:type="simple" target="_top"><rect id="o" width="188" height="39.789" x="3670" y="207" fill="#3D176E" rx="2.5" ry="2.5" style="stroke:#000d19;stroke-width:1.5"/><circle cx="3685" cy="226.894" r="11" fill="#E98DF7" style="stroke:#000d19;stroke-width:1"/><path d="M3687.969 232.535q-.578.297-1.219.438-.64.156-1.344.156-2.5 0-3.828-1.64-1.312-1.657-1.312-4.782t1.312-4.781q1.328-1.656 3.828-1.656.703 0 1.344.156.656.156 1.219.453v2.719q-.625-.579-1.219-.844-.594-.281-1.219-.281-1.343 0-2.031 1.078-.688 1.062-.688 3.156 0 2.094.688 3.172.688 1.062 2.031 1.062.625 0 1.219-.265.594-.281 1.219-.86v2.72Z"/><text x="3704" y="232.78" fill="#D9B8FF" font-family="Helvetica" font-size="17" textLength="146">aws_rds_instance</text></a><a xlink:actuate="onRequest" xlink:href="#p" xlink:show="new" xlink:title="#aws_lambda_function" xlink:type="simple" target="_top"><rect id="p" width="224" height="39.789" x="1845" y="207" fill="#3D176E" rx="2.5" ry="2.5" style="stroke:#000d19;stroke-width:1.5"/><circle cx="1860" cy="226.894" r="11" fill="#E98DF7" style="stroke:#000d19;stroke-width:1"/><path d="M1862.969 232.535q-.578.297-1.219.438-.64.156-1.344.156-2.5 0-3.828-1.64-1.312-1.657-1.312-4.782t1.312-4.781q1.328-1.656 3.828-1.656.703 0 1.344.156.656.156 1.219.453v2.719q-.625-.579-1.219-.844-.594-.281-1.219-.281-1.343 0-2.031 1.078-.688 1.062-.688 3.156 0 2.094.688 3.172.688 1.062 2.031 1.062.625 0 1.219-.265.594-.281 1.219-.86v2.72Z"/><text x="1879" y="232.78" fill="#D9B8FF" font-family="Helvetica" font-size="17" textLength="182">aws_lambda_function</text></a><a xlink:actuate="onRequest" xlink:href="#q" xlink:show="new" xlink:title="#aws_glacier_job" xlink:type="simple" target="_top"><rect id="q" width="173" height="39.789" x="3893.5" y="207" fill="#3D176E" rx="2.5" ry="2.5" style="stroke:#000d19;stroke-width:1.5"/><circle cx="3908.5" cy="226.894" r="11" fill="#E98DF7" style="stroke:#000d19;stroke-width:1"/><path d="M3911.469 232.535q-.578.297-1.219.438-.64.156-1.344.156-2.5 0-3.828-1.64-1.312-1.657-1.312-4.782t1.312-4.781q1.328-1.656 3.828-1.656.703 0 1.344.156.656.156 1.219.453v2.719q-.625-.579-1.219-.844-.594-.281-1.219-.281-1.343 0-2.031 1.078-.688 1.062-.688 3.156 0 2.094.688 3.172.688 1.062 2.031 1.062.625 0 1.219-.265.594-.281 1.219-.86v2.72Z"/><text x="3927.5" y="232.78" fill="#D9B8FF" font-family="Helvetica" font-size="17" textLength="131">aws_glacier_job</text></a><a xlink:actuate="onRequest" xlink:href="#r" xlink:show="new" xlink:title="#aws_sagemaker_transform_job" xlink:type="simple" target="_top"><rect id="r" width="302" height="39.789" x="1437" y="207" fill="#3D176E" rx="2.5" ry="2.5" style="stroke:#000d19;stroke-width:1.5"/><circle cx="1452" cy="226.894" r="11" fill="#E98DF7" style="stroke:#000d19;stroke-width:1"/><path d="M1454.969 232.535q-.578.297-1.219.438-.64.156-1.344.156-2.5 0-3.828-1.64-1.312-1.657-1.312-4.782t1.312-4.781q1.328-1.656 3.828-1.656.703 0 1.344.156.656.156 1.219.453v2.719q-.625-.579-1.219-.844-.594-.281-1.219-.281-1.343 0-2.031 1.078-.688 1.062-.688 3.156 0 2.094.688 3.172.688 1.062 2.031 1.062.625 0 1.219-.265.594-.281 1.219-.86v2.72Z"/><text x="1471" y="232.78" fill="#D9B8FF" font-family="Helvetica" font-size="17" textLength="260">aws_sagemaker_transform_job</text></a><a xlink:actuate="onRequest" xlink:href="#s" xlink:show="new" xlink:title="#aws_cognito_user_pool" xlink:type="simple" target="_top"><rect id="s" width="234" height="39.789" x="1906" y="107" fill="#3D176E" rx="2.5" ry="2.5" style="stroke:#000d19;stroke-width:1.5"/><circle cx="1921" cy="126.894" r="11" fill="#E98DF7" style="stroke:#000d19;stroke-width:1"/><path d="M1923.969 132.535q-.578.297-1.219.438-.64.156-1.344.156-2.5 0-3.828-1.64-1.312-1.657-1.312-4.782t1.312-4.781q1.328-1.657 3.828-1.657.703 0 1.344.157.656.156 1.219.453v2.719q-.625-.579-1.219-.844-.594-.281-1.219-.281-1.343 0-2.031 1.078-.688 1.062-.688 3.156 0 2.094.688 3.172.688 1.062 2.031 1.062.625 0 1.219-.265.594-.281 1.219-.86v2.72Z"/><text x="1940" y="132.78" fill="#D9B8FF" font-family="Helvetica" font-size="17" textLength="192">aws_cognito_user_pool</text></a><a xlink:actuate="onRequest" xlink:href="#t" xlink:show="new" xlink:title="#aws_efs_file_system" xlink:type="simple" target="_top"><rect id="t" width="212" height="39.789" x="4102" y="207" fill="#3D176E" rx="2.5" ry="2.5" style="stroke:#000d19;stroke-width:1.5"/><circle cx="4117" cy="226.894" r="11" fill="#E98DF7" style="stroke:#000d19;stroke-width:1"/><path d="M4119.969 232.535q-.578.297-1.219.438-.64.156-1.344.156-2.5 0-3.828-1.64-1.312-1.657-1.312-4.782t1.312-4.781q1.328-1.656 3.828-1.656.703 0 1.344.156.656.156 1.219.453v2.719q-.625-.579-1.219-.844-.594-.281-1.219-.281-1.343 0-2.031 1.078-.688 1.062-.688 3.156 0 2.094.688 3.172.688 1.062 2.031 1.062.625 0 1.219-.265.594-.281 1.219-.86v2.72Z"/><text x="4136" y="232.78" fill="#D9B8FF" font-family="Helvetica" font-size="17" textLength="170">aws_efs_file_system</text></a><a xlink:actuate="onRequest" xlink:href="#u" xlink:show="new" xlink:title="#aws_sagemaker_edge_packaging_job" xlink:type="simple" target="_top"><rect id="u" width="352" height="39.789" x="4349" y="207" fill="#3D176E" rx="2.5" ry="2.5" style="stroke:#000d19;stroke-width:1.5"/><circle cx="4364" cy="226.894" r="11" fill="#E98DF7" style="stroke:#000d19;stroke-width:1"/><path d="M4366.969 232.535q-.578.297-1.219.438-.64.156-1.344.156-2.5 0-3.828-1.64-1.312-1.657-1.312-4.782t1.312-4.781q1.328-1.656 3.828-1.656.703 0 1.344.156.656.156 1.219.453v2.719q-.625-.579-1.219-.844-.594-.281-1.219-.281-1.343 0-2.031 1.078-.688 1.062-.688 3.156 0 2.094.688 3.172.688 1.062 2.031 1.062.625 0 1.219-.265.594-.281 1.219-.86v2.72Z"/><text x="4383" y="232.78" fill="#D9B8FF" font-family="Helvetica" font-size="17" textLength="310">aws_sagemaker_edge_packaging_job</text></a><a xlink:actuate="onRequest" xlink:href="#v" xlink:show="new" xlink:title="#aws_dynamo_db_table" xlink:type="simple" target="_top"><rect id="v" width="232" height="39.789" x="4736" y="207" fill="#3D176E" rx="2.5" ry="2.5" style="stroke:#000d19;stroke-width:1.5"/><circle cx="4751" cy="226.894" r="11" fill="#E98DF7" style="stroke:#000d19;stroke-width:1"/><path d="M4753.969 232.535q-.578.297-1.219.438-.64.156-1.344.156-2.5 0-3.828-1.64-1.312-1.657-1.312-4.782t1.312-4.781q1.328-1.656 3.828-1.656.703 0 1.344.156.656.156 1.219.453v2.719q-.625-.579-1.219-.844-.594-.281-1.219-.281-1.343 0-2.031 1.078-.688 1.062-.688 3.156 0 2.094.688 3.172.688 1.062 2.031 1.062.625 0 1.219-.265.594-.281 1.219-.86v2.72Z"/><text x="4770" y="232.78" fill="#D9B8FF" font-family="Helvetica" font-size="17" textLength="190">aws_dynamo_db_table</text></a><a xlink:actuate="onRequest" xlink:href="#w" xlink:show="new" xlink:title="#aws_sagemaker_endpoint" xlink:type="simple" target="_top"><rect id="w" width="259" height="39.789" x="2452.5" y="107" fill="#3D176E" rx="2.5" ry="2.5" style="stroke:#000d19;stroke-width:1.5"/><circle cx="2467.5" cy="126.894" r="11" fill="#E98DF7" style="stroke:#000d19;stroke-width:1"/><path d="M2470.469 132.535q-.578.297-1.219.438-.64.156-1.344.156-2.5 0-3.828-1.64-1.312-1.657-1.312-4.782t1.312-4.781q1.328-1.657 3.828-1.657.703 0 1.344.157.656.156 1.219.453v2.719q-.625-.579-1.219-.844-.594-.281-1.219-.281-1.343 0-2.031 1.078-.688 1.062-.688 3.156 0 2.094.688 3.172.688 1.062 2.031 1.062.625 0 1.219-.265.594-.281 1.219-.86v2.72Z"/><text x="2486.5" y="132.78" fill="#D9B8FF" font-family="Helvetica" font-size="17" textLength="217">aws_sagemaker_endpoint</text></a><a xlink:actuate="onRequest" xlink:href="#x" xlink:show="new" xlink:title="#aws_cloud_trail" xlink:type="simple" target="_top"><rect id="x" width="171" height="39.789" x="2246.5" y="107" fill="#3D176E" rx="2.5" ry="2.5" style="stroke:#000d19;stroke-width:1.5"/><circle cx="2261.5" cy="126.894" r="11" fill="#E98DF7" style="stroke:#000d19;stroke-width:1"/><path d="M2264.469 132.535q-.578.297-1.219.438-.64.156-1.344.156-2.5 0-3.828-1.64-1.312-1.657-1.312-4.782t1.312-4.781q1.328-1.657 3.828-1.657.703 0 1.344.157.656.156 1.219.453v2.719q-.625-.579-1.219-.844-.594-.281-1.219-.281-1.343 0-2.031 1.078-.688 1.062-.688 3.156 0 2.094.688 3.172.688 1.062 2.031 1.062.625 0 1.219-.265.594-.281 1.219-.86v2.72Z"/><text x="2280.5" y="132.78" fill="#D9B8FF" font-family="Helvetica" font-size="17" textLength="129">aws_cloud_trail</text></a><a xlink:actuate="onRequest" xlink:href="#y" xlink:show="new" xlink:title="#aws_ecs_cluster" xlink:type="simple" target="_top"><rect id="y" width="175" height="39.789" x="5003.5" y="207" fill="#3D176E" rx="2.5" ry="2.5" style="stroke:#000d19;stroke-width:1.5"/><circle cx="5018.5" cy="226.894" r="11" fill="#E98DF7" style="stroke:#000d19;stroke-width:1"/><path d="M5021.469 232.535q-.578.297-1.219.438-.64.156-1.344.156-2.5 0-3.828-1.64-1.312-1.657-1.312-4.782t1.312-4.781q1.328-1.656 3.828-1.656.703 0 1.344.156.656.156 1.219.453v2.719q-.625-.579-1.219-.844-.594-.281-1.219-.281-1.343 0-2.031 1.078-.688 1.062-.688 3.156 0 2.094.688 3.172.688 1.062 2.031 1.062.625 0 1.219-.265.594-.281 1.219-.86v2.72Z"/><text x="5037.5" y="232.78" fill="#D9B8FF" font-family="Helvetica" font-size="17" textLength="133">aws_ecs_cluster</text></a><a xlink:actuate="onRequest" xlink:href="#z" xlink:show="new" xlink:title="#aws_ec2_volume" xlink:type="simple" target="_top"><rect id="z" width="185" height="39.789" x="5215.5" y="107" fill="#3D176E" rx="2.5" ry="2.5" style="stroke:#000d19;stroke-width:1.5"/><circle cx="5230.5" cy="126.894" r="11" fill="#E98DF7" style="stroke:#000d19;stroke-width:1"/><path d="M5233.469 132.535q-.578.297-1.219.438-.64.156-1.344.156-2.5 0-3.828-1.64-1.312-1.657-1.312-4.782t1.312-4.781q1.328-1.657 3.828-1.657.703 0 1.344.157.656.156 1.219.453v2.719q-.625-.579-1.219-.844-.594-.281-1.219-.281-1.343 0-2.031 1.078-.688 1.062-.688 3.156 0 2.094.688 3.172.688 1.062 2.031 1.062.625 0 1.219-.265.594-.281 1.219-.86v2.72Z"/><text x="5249.5" y="132.78" fill="#D9B8FF" font-family="Helvetica" font-size="17" textLength="143">aws_ec2_volume</text></a><a xlink:actuate="onRequest" xlink:href="#A" xlink:show="new" xlink:title="#aws_ec2_snapshot" xlink:type="simple" target="_top"><rect id="A" width="197" height="39.789" x="5285.5" y="207" fill="#3D176E" rx="2.5" ry="2.5" style="stroke:#000d19;stroke-width:1.5"/><circle cx="5300.5" cy="226.894" r="11" fill="#E98DF7" style="stroke:#000d19;stroke-width:1"/><path d="M5303.469 232.535q-.578.297-1.219.438-.64.156-1.344.156-2.5 0-3.828-1.64-1.312-1.657-1.312-4.782t1.312-4.781q1.328-1.656 3.828-1.656.703 0 1.344.156.656.156 1.219.453v2.719q-.625-.579-1.219-.844-.594-.281-1.219-.281-1.343 0-2.031 1.078-.688 1.062-.688 3.156 0 2.094.688 3.172.688 1.062 2.031 1.062.625 0 1.219-.265.594-.281 1.219-.86v2.72Z"/><text x="5319.5" y="232.78" fill="#D9B8FF" font-family="Helvetica" font-size="17" textLength="155">aws_ec2_snapshot</text></a><a xlink:actuate="onRequest" xlink:href="#B" xlink:show="new" xlink:title="#aws_athena_work_group" xlink:type="simple" target="_top"><rect id="B" width="251" height="39.789" x="1774.5" y="7" fill="#3D176E" rx="2.5" ry="2.5" style="stroke:#000d19;stroke-width:1.5"/><circle cx="1789.5" cy="26.895" r="11" fill="#E98DF7" style="stroke:#000d19;stroke-width:1"/><path d="M1792.469 32.535q-.578.297-1.219.438-.64.156-1.344.156-2.5 0-3.828-1.64-1.312-1.657-1.312-4.782t1.312-4.781q1.328-1.656 3.828-1.656.703 0 1.344.156.656.156 1.219.453v2.719q-.625-.578-1.219-.844-.594-.281-1.219-.281-1.343 0-2.031 1.078-.688 1.062-.688 3.156 0 2.094.688 3.172.688 1.062 2.031 1.062.625 0 1.219-.265.594-.281 1.219-.86v2.72Z"/><text x="1808.5" y="32.78" fill="#D9B8FF" font-family="Helvetica" font-size="17" textLength="209">aws_athena_work_group</text></a><a xlink:actuate="onRequest" xlink:href="#C" xlink:show="new" xlink:title="#aws_dynamo_db_global_table" xlink:type="simple" target="_top"><rect id="C" width="291" height="39.789" x="5517.5" y="207" fill="#3D176E" rx="2.5" ry="2.5" style="stroke:#000d19;stroke-width:1.5"/><circle cx="5532.5" cy="226.894" r="11" fill="#E98DF7" style="stroke:#000d19;stroke-width:1"/><path d="M5535.469 232.535q-.578.297-1.219.438-.64.156-1.344.156-2.5 0-3.828-1.64-1.312-1.657-1.312-4.782t1.312-4.781q1.328-1.656 3.828-1.656.703 0 1.344.156.656.156 1.219.453v2.719q-.625-.579-1.219-.844-.594-.281-1.219-.281-1.343 0-2.031 1.078-.688 1.062-.688 3.156 0 2.094.688 3.172.688 1.062 2.031 1.062.625 0 1.219-.265.594-.281 1.219-.86v2.72Z"/><text x="5551.5" y="232.78" fill="#D9B8FF" font-family="Helvetica" font-size="17" textLength="249">aws_dynamo_db_global_table</text></a><path fill="none" d="M255.22 245.33c6 .61 11.96 1.18 17.78 1.67 818.29 69.34 1813.62 77.91 2105.69 78.9" style="stroke:#1a83af;stroke-width:2"/><path fill="#1A83AF" d="m2383.78 325.91-8.989-4.026 3.989 4.012-4.011 3.988 9.011-3.974z" style="stroke:#1a83af;stroke-width:2"/><path fill="none" d="M461.61 243.56c9.22 1.33 18.49 2.52 27.39 3.44 728.83 75.55 1615.94 80.02 1889.59 79.43" style="stroke:#1a83af;stroke-width:2"/><path fill="#1A83AF" d="m2383.76 326.42-9-4 4 4-4 4 9-4z" style="stroke:#1a83af;stroke-width:2"/><path fill="none" d="M689.36 47.09C657.15 58.78 624.01 77.42 605 107c-38.24 59.5 64.31 134.85 74 140 150.91 80.3 1366.02 80.87 1699.57 79.49" style="stroke:#1a83af;stroke-width:2"/><path fill="#1A83AF" d="m2383.89 326.47-9.011-3.974 4.011 3.988-3.988 4.012 8.988-4.026z" style="stroke:#1a83af;stroke-width:2"/><path fill="none" d="M884.31 47.01c94.94 16.98 233.54 41.77 330.07 59.03" style="stroke:#1a83af;stroke-width:2"/><path fill="#1A83AF" d="m1219.52 106.96-8.15-5.529 3.229 4.645-4.645 3.229 9.566-2.345z" style="stroke:#1a83af;stroke-width:2"/><path fill="none" d="M1334.72 147.35c13.6 27.59 42.67 77.38 84.28 99.65 83.72 44.81 726.33 69.1 959.68 76.52" style="stroke:#1a83af;stroke-width:2"/><path fill="#1A83AF" d="m2383.78 323.68-8.87-4.28 3.872 4.123-4.123 3.872 9.121-3.715z" style="stroke:#1a83af;stroke-width:2"/><path fill="none" d="M1299.06 147.13c-22.98 16.32-56.04 39.8-80.11 56.89" style="stroke:#1a83af;stroke-width:2"/><path fill="#1A83AF" d="m1214.87 206.92 9.651-1.963-5.578-.938.937-5.578-5.01 8.479z" style="stroke:#1a83af;stroke-width:2"/><path fill="none" d="M2410.04 247.36c10.67 15.84 25.79 38.3 37.15 55.16" style="stroke:#1a83af;stroke-width:2"/><path fill="#1A83AF" d="m2449.99 306.68-1.71-9.7-1.083 5.553-5.552-1.083 8.345 5.23z" style="stroke:#1a83af;stroke-width:2"/><path fill="none" d="M2749.94 247.01c-61.19 16.85-150.29 41.37-212.93 58.62" style="stroke:#1a83af;stroke-width:2"/><path fill="#1A83AF" d="m2532.17 306.96 9.739 1.47-4.918-2.796 2.795-4.918-7.616 6.244z" style="stroke:#1a83af;stroke-width:2"/><path fill="none" d="M3019.16 246.78c-138.98 19.8-353.77 50.39-471.62 67.18" style="stroke:#1a83af;stroke-width:2"/><path fill="#1A83AF" d="m2542.35 314.7 9.48 2.672-4.531-3.387 3.386-4.531-8.335 5.246z" style="stroke:#1a83af;stroke-width:2"/><path fill="none" d="M1078.91 37.06C910.47 49.15 650.78 73.05 621 107c-11.72 13.36-10.54 25.69 0 40 88.87 120.66 174.48 73.68 322 100 279.17 49.8 1158.65 71.62 1435.61 77.38" style="stroke:#1a83af;stroke-width:2"/><path fill="#1A83AF" d="m2383.85 324.49-8.918-4.18 3.919 4.08-4.08 3.92 9.079-3.82z" style="stroke:#1a83af;stroke-width:2"/><path fill="none" d="M1243.35 47.36c16.79 15.97 40.65 38.68 58.42 55.59" style="stroke:#1a83af;stroke-width:2"/><path fill="#1A83AF" d="m1305.69 106.68-3.757-9.104.137 5.655-5.655.137 9.275 3.312z" style="stroke:#1a83af;stroke-width:2"/><path fill="none" d="M1348.77 47.05C1397.74 58.73 1452.45 77.38 1496 107c36.34 24.71 64.65 68.35 79.79 95.36" style="stroke:#1a83af;stroke-width:2"/><path fill="#1A83AF" d="m1578.29 206.87-.85-9.812-1.567 5.435-5.436-1.567 7.853 5.944z" style="stroke:#1a83af;stroke-width:2"/><path fill="none" d="M1199.54 47.02C1183.6 61.54 1163.88 83.08 1155 107c-12.01 32.36 4.14 71.08 17.77 95.36" style="stroke:#1a83af;stroke-width:2"/><path fill="#1A83AF" d="m1175.28 206.72-1-9.798-1.484 5.459-5.458-1.485 7.942 5.824z" style="stroke:#1a83af;stroke-width:2"/><path fill="none" d="M1737.77 147.1c15.08 27.29 46.78 76.7 89.23 99.9 93.17 50.93 400.94 69.83 551.52 76.15" style="stroke:#1a83af;stroke-width:2"/><path fill="#1A83AF" d="m2383.81 323.37-8.82-4.382 3.825 4.168-4.168 3.825 9.163-3.611z" style="stroke:#1a83af;stroke-width:2"/><path fill="none" d="M1857.78 147.01c134.04 19.64 339.34 49.71 454.08 66.52" style="stroke:#1a83af;stroke-width:2"/><path fill="#1A83AF" d="m2316.92 214.27-8.338-5.243 3.39 4.53-4.53 3.389 9.478-2.676z" style="stroke:#1a83af;stroke-width:2"/><path fill="none" d="M1700.67 147.13c-23.32 16.32-56.85 39.8-81.27 56.89" style="stroke:#1a83af;stroke-width:2"/><path fill="#1A83AF" d="m1615.26 206.92 9.667-1.886-5.572-.982.982-5.571-5.077 8.439z" style="stroke:#1a83af;stroke-width:2"/><path fill="none" d="M1623.24 147.01c-93.56 16.98-230.13 41.77-325.25 59.03" style="stroke:#1a83af;stroke-width:2"/><path fill="#1A83AF" d="m1292.93 206.96 9.572 2.318-4.653-3.216 3.216-4.654-8.135 5.552z" style="stroke:#1a83af;stroke-width:2"/><path fill="none" d="M1772.43 147.01c38.74 16.58 94.88 40.61 135.06 57.8" style="stroke:#1a83af;stroke-width:2"/><path fill="#1A83AF" d="m1912.31 206.87-6.697-7.222 2.101 5.252-5.252 2.101 9.848-.131z" style="stroke:#1a83af;stroke-width:2"/><path fill="none" d="M873.04 147.17C903.61 175.03 965 225.7 1028 247c127.69 43.18 1062.36 69.75 1350.6 76.99" style="stroke:#1a83af;stroke-width:2"/><path fill="#1A83AF" d="m2383.63 324.11-8.906-4.205 3.907 4.09-4.09 3.908 9.089-3.793z" style="stroke:#1a83af;stroke-width:2"/><path fill="none" d="M917.99 147.01 1118 205.52" style="stroke:#1a83af;stroke-width:2"/><path fill="#1A83AF" d="m1122.91 206.96-7.52-6.36 2.72 4.96-4.96 2.72 9.76-1.32z" style="stroke:#1a83af;stroke-width:2"/><path fill="none" d="M1330.8 244.38c9.2.92 18.33 1.81 27.2 2.62 380.45 34.85 835.79 63.18 1020.73 74.13" style="stroke:#1a83af;stroke-width:2"/><path fill="#1A83AF" d="m2383.86 321.43-8.744-4.533 3.753 4.233-4.233 3.752 9.224-3.452z" style="stroke:#1a83af;stroke-width:2"/><path fill="none" d="M2693.6 47.31c22.82 23.83 54.08 65.41 35.4 99.69-23.54 43.19-52.07 32.73-93 60-49.79 33.18-106.85 72.73-141.39 96.84" style="stroke:#1a83af;stroke-width:2"/><path fill="#1A83AF" d="m2490.1 306.99 9.667-1.887-5.572-.981.982-5.571-5.077 8.439z" style="stroke:#1a83af;stroke-width:2"/><path fill="none" d="M2655.02 47.36c-14.83 15.97-35.91 38.68-51.61 55.59" style="stroke:#1a83af;stroke-width:2"/><path fill="#1A83AF" d="m2599.94 106.68 9.058-3.867-5.653.206-.205-5.654-3.2 9.315z" style="stroke:#1a83af;stroke-width:2"/><path fill="none" d="M3317.23 245.24c-5.81.6-11.57 1.19-17.23 1.76-275.19 27.84-601.61 57.75-752.62 71.41" style="stroke:#1a83af;stroke-width:2"/><path fill="#1A83AF" d="m2542.08 318.89 9.32 3.186-4.34-3.63 3.63-4.339-8.61 4.783z" style="stroke:#1a83af;stroke-width:2"/><path fill="none" d="M3669.99 244.66A768.3 768.3 0 0 1 3652 247c-412.65 48.58-909.66 69.56-1104.67 76.34" style="stroke:#1a83af;stroke-width:2"/><path fill="#1A83AF" d="m2542.21 323.52 9.132 3.69-4.135-3.861 3.86-4.135-8.857 4.306z" style="stroke:#1a83af;stroke-width:2"/><path fill="none" d="M2055.16 247.01c94.07 18.22 234.54 45.43 323.64 62.68" style="stroke:#1a83af;stroke-width:2"/><path fill="#1A83AF" d="m2383.8 310.66-8.07-5.647 3.162 4.691-4.69 3.162 9.598-2.206z" style="stroke:#1a83af;stroke-width:2"/><path fill="none" d="M3893.32 244.55c-6.19.91-12.34 1.74-18.32 2.45-501.39 59.16-1108.33 74.25-1327.75 77.9" style="stroke:#1a83af;stroke-width:2"/><path fill="#1A83AF" d="m2542.13 324.98 9.067 3.845-4.068-3.93 3.931-4.069-8.93 4.154z" style="stroke:#1a83af;stroke-width:2"/><path fill="none" d="M1739.41 244.96c185.03 20.72 491.61 55.06 639.15 71.58" style="stroke:#1a83af;stroke-width:2"/><path fill="#1A83AF" d="m2383.74 317.12-8.498-4.978 3.53 4.421-4.421 3.53 9.389-2.973z" style="stroke:#1a83af;stroke-width:2"/><path fill="none" d="M2009.96 147.36c-10.67 15.84-25.79 38.3-37.15 55.16" style="stroke:#1a83af;stroke-width:2"/><path fill="#1A83AF" d="m1970.01 206.68 8.345-5.23-5.552 1.083-1.083-5.552-1.71 9.699z" style="stroke:#1a83af;stroke-width:2"/><path fill="none" d="M2040.67 147.05c25.44 26.31 75.01 73.51 126.33 99.95 67.03 34.53 150.59 55.04 211.82 66.48" style="stroke:#1a83af;stroke-width:2"/><path fill="#1A83AF" d="m2383.93 314.42-8.132-5.556 3.214 4.655-4.655 3.214 9.573-2.313z" style="stroke:#1a83af;stroke-width:2"/><path fill="none" d="M4101.89 245c-6.04.73-12.04 1.41-17.89 2-586.14 59.03-1296.13 74.33-1536.68 77.96" style="stroke:#1a83af;stroke-width:2"/><path fill="#1A83AF" d="m2542.07 325.04 9.056 3.871-4.057-3.942 3.943-4.057-8.942 4.128z" style="stroke:#1a83af;stroke-width:2"/><path fill="none" d="M4348.98 245.67c-6.07.47-12.07.92-17.98 1.33-687.39 48.16-1519.29 70.77-1783.34 77.09" style="stroke:#1a83af;stroke-width:2"/><path fill="#1A83AF" d="m2542.29 324.22 9.09 3.793-4.091-3.907 3.907-4.09-8.906 4.204z" style="stroke:#1a83af;stroke-width:2"/><path fill="none" d="M4735.88 245.23c-6.04.66-12.03 1.25-17.88 1.77-844.72 74.47-1873.27 79.49-2170.74 79.26" style="stroke:#1a83af;stroke-width:2"/><path fill="#1A83AF" d="m2542.07 326.25 8.988 4.026-3.988-4.012 4.011-3.988-9.011 3.974z" style="stroke:#1a83af;stroke-width:2"/><path fill="none" d="M2570.37 147.35c-21.91 36.46-69.27 115.26-93.09 154.89" style="stroke:#1a83af;stroke-width:2"/><path fill="#1A83AF" d="m2474.5 306.87 8.06-5.66-5.487 1.373-1.372-5.488-1.201 9.775z" style="stroke:#1a83af;stroke-width:2"/><path fill="none" d="M2545.89 147.13c-31.07 16.46-75.86 40.19-108.2 57.31" style="stroke:#1a83af;stroke-width:2"/><path fill="#1A83AF" d="m2433.02 206.92 9.826-.673-5.406-1.665 1.665-5.406-6.085 7.744z" style="stroke:#1a83af;stroke-width:2"/><path fill="none" d="m2344.84 147.36 36.3 54.73" style="stroke:#1a83af;stroke-width:2"/><path fill="#1A83AF" d="m2384.18 206.68-1.649-9.71-1.118 5.545-5.545-1.118 8.312 5.283z" style="stroke:#1a83af;stroke-width:2"/><path fill="none" d="M2317.9 147.08c-16.37 24.71-38.75 68.33-18.9 99.92 17.87 28.45 49.19 46.89 79.69 58.74" style="stroke:#1a83af;stroke-width:2"/><path fill="#1A83AF" d="m2383.58 307.58-6.997-6.931 2.322 5.158-5.159 2.322 9.834-.549z" style="stroke:#1a83af;stroke-width:2"/><path fill="none" d="M5003.22 244.75c-6.15.86-12.27 1.63-18.22 2.25-488.41 51.15-2055.76 73.3-2437.56 78.01" style="stroke:#1a83af;stroke-width:2"/><path fill="#1A83AF" d="m2542.18 325.08 9.045 3.897-4.045-3.954 3.954-4.046-8.954 4.103z" style="stroke:#1a83af;stroke-width:2"/><path fill="none" d="M5296.85 147.24c-17.42 27.94-54.01 78.71-100.85 99.76-123.59 55.53-2201.29 74.85-2648.59 78.38" style="stroke:#1a83af;stroke-width:2"/><path fill="#1A83AF" d="m2542.22 325.42 9.023 3.948-4.023-3.977 3.977-4.022-8.977 4.051z" style="stroke:#1a83af;stroke-width:2"/><path fill="none" d="M5323.02 147.36c12.28 15.84 29.69 38.3 42.77 55.16" style="stroke:#1a83af;stroke-width:2"/><path fill="#1A83AF" d="m5369.02 206.68-2.354-9.564-.71 5.613-5.612-.71 8.676 4.661z" style="stroke:#1a83af;stroke-width:2"/><path fill="none" d="M5285.43 244.03c-9.25 1.15-18.51 2.17-27.43 2.97-546.21 48.72-2305.32 72.98-2711 78" style="stroke:#1a83af;stroke-width:2"/><path fill="#1A83AF" d="m2542 325.06 9.045 3.897-4.045-3.954 3.954-4.046-8.954 4.103z" style="stroke:#1a83af;stroke-width:2"/><path fill="none" d="M2005.83 47.06C2054.49 59.1 2111.4 78.02 2157 107c70.9 45.06 58.86 90.86 127 140 34.94 25.2 79.18 44.82 114.94 58.2" style="stroke:#1a83af;stroke-width:2"/><path fill="#1A83AF" d="m2403.7 306.96-7.06-6.868 2.369 5.137-5.137 2.369 9.828-.638z" style="stroke:#1a83af;stroke-width:2"/><path fill="none" d="M1788.65 47.01c-99.55 17-244.91 41.82-346.03 59.08" style="stroke:#1a83af;stroke-width:2"/><path fill="#1A83AF" d="m1437.53 106.96 9.545 2.426-4.617-3.269 3.269-4.617-8.197 5.46z" style="stroke:#1a83af;stroke-width:2"/><path fill="none" d="M5517.32 245.64c-5.85.5-11.64.96-17.32 1.36-597.43 42.5-2525.16 71.77-2952.56 77.83" style="stroke:#1a83af;stroke-width:2"/><path fill="#1A83AF" d="m2542.18 324.91 9.056 3.871-4.056-3.942 3.942-4.057-8.942 4.128z" style="stroke:#1a83af;stroke-width:2"/></svg>