<svg xmlns="http://www.w3.org/2000/svg" xmlns:xlink="http://www.w3.org/1999/xlink" width="3405" height="2667" preserveAspectRatio="none" style="width:3405px;height:2667px;background:#00000000"><a xlink:actuate="onRequest" xlink:href="#a" xlink:show="new" xlink:title="#aws_resource" xlink:type="simple" target="_top"><rect id="a" width="155" height="70.594" x="1694.5" y="495" fill="#3D176E" rx="2.5" ry="2.5" style="stroke:#000d19;stroke-width:1.5"/><circle cx="1709.5" cy="514.894" r="11" fill="#E98DF7" style="stroke:#000d19;stroke-width:1"/><path d="M1712.469 520.535q-.578.297-1.219.438-.64.156-1.344.156-2.5 0-3.828-1.64-1.312-1.657-1.312-4.782t1.312-4.781q1.328-1.656 3.828-1.656.703 0 1.344.156.656.156 1.219.453v2.719q-.625-.579-1.219-.844-.594-.281-1.219-.281-1.343 0-2.031 1.078-.688 1.062-.688 3.156 0 2.094.688 3.172.688 1.062 2.031 1.062.625 0 1.219-.265.594-.282 1.219-.86v2.72Z"/><text x="1728.5" y="520.78" fill="#D9B8FF" font-family="Helvetica" font-size="17" textLength="113">aws_resource</text><path d="M1695.5 534.789h153" style="stroke:#000d19;stroke-width:1.5"/><text x="1705.5" y="554" fill="#D9B8FF" font-family="sans-serif" font-size="11" font-weight="bold" textLength="21">arn</text><text x="1726.5" y="554" fill="#D9B8FF" font-family="sans-serif" font-size="11" textLength="41">: string</text></a><a xlink:actuate="onRequest" xlink:href="#b" xlink:show="new" xlink:title="#resource" xlink:type="simple" target="_top"><rect id="b" width="195" height="275.836" x="1785.5" y="7" fill="#3D176E" rx="2.5" ry="2.5" style="stroke:#000d19;stroke-width:1.5"/><circle cx="1838.25" cy="26.895" r="11" fill="#E98DF7" style="stroke:#000d19;stroke-width:1"/><path d="M1841.219 32.535q-.578.297-1.219.438-.64.156-1.344.156-2.5 0-3.828-1.64-1.312-1.657-1.312-4.782t1.312-4.781q1.328-1.656 3.828-1.656.703 0 1.344.156.656.156 1.219.453v2.719q-.625-.578-1.219-.844-.594-.281-1.219-.281-1.343 0-2.031 1.078-.688 1.062-.688 3.156 0 2.094.688 3.172.688 1.062 2.031 1.062.625 0 1.219-.265.594-.281 1.219-.86v2.72Z"/><text x="1863.75" y="32.78" fill="#D9B8FF" font-family="Helvetica" font-size="17" textLength="71">resource</text><path d="M1786.5 46.789h193" style="stroke:#000d19;stroke-width:1.5"/><text x="1796.5" y="65.999" fill="#D9B8FF" font-family="sans-serif" font-size="11" font-weight="bold" textLength="12">id</text><text x="1808.5" y="65.999" fill="#D9B8FF" font-family="sans-serif" font-size="11" textLength="41">: string</text><text x="1796.5" y="88.804" fill="#D9B8FF" font-family="sans-serif" font-size="11" font-weight="bold" textLength="28">tags</text><text x="1824.5" y="88.804" fill="#D9B8FF" font-family="sans-serif" font-size="11" textLength="145">: dictionary[string, string]</text><text x="1796.5" y="111.609" fill="#D9B8FF" font-family="sans-serif" font-size="11" font-weight="bold" textLength="35">name</text><text x="1831.5" y="111.609" fill="#D9B8FF" font-family="sans-serif" font-size="11" textLength="41">: string</text><text x="1796.5" y="134.414" fill="#D9B8FF" font-family="sans-serif" font-size="11" font-weight="bold" textLength="35">ctime</text><text x="1831.5" y="134.414" fill="#D9B8FF" font-family="sans-serif" font-size="11" textLength="58">: datetime</text><text x="1796.5" y="157.218" fill="#D9B8FF" font-family="sans-serif" font-size="11" font-weight="bold" textLength="24">age</text><text x="1820.5" y="157.218" fill="#D9B8FF" font-family="sans-serif" font-size="11" textLength="55">: duration</text><text x="1796.5" y="180.023" fill="#D9B8FF" font-family="sans-serif" font-size="11" font-weight="bold" textLength="39">mtime</text><text x="1835.5" y="180.023" fill="#D9B8FF" font-family="sans-serif" font-size="11" textLength="58">: datetime</text><text x="1796.5" y="202.828" fill="#D9B8FF" font-family="sans-serif" font-size="11" font-weight="bold" textLength="75">last_update</text><text x="1871.5" y="202.828" fill="#D9B8FF" font-family="sans-serif" font-size="11" textLength="55">: duration</text><text x="1796.5" y="225.632" fill="#D9B8FF" font-family="sans-serif" font-size="11" font-weight="bold" textLength="36">atime</text><text x="1832.5" y="225.632" fill="#D9B8FF" font-family="sans-serif" font-size="11" textLength="58">: datetime</text><text x="1796.5" y="248.437" fill="#D9B8FF" font-family="sans-serif" font-size="11" font-weight="bold" textLength="74">last_access</text><text x="1870.5" y="248.437" fill="#D9B8FF" font-family="sans-serif" font-size="11" textLength="55">: duration</text><text x="1796.5" y="271.242" fill="#D9B8FF" font-family="sans-serif" font-size="11" font-weight="bold" textLength="27">kind</text><text x="1823.5" y="271.242" fill="#D9B8FF" font-family="sans-serif" font-size="11" textLength="41">: string</text></a><a xlink:actuate="onRequest" xlink:href="#c" xlink:show="new" xlink:title="#aws_rds_pending_cloudwatch_logs_exports" xlink:type="simple" target="_top"><rect id="c" width="402" height="93.398" x="54" y="2567" fill="#3D176E" rx="2.5" ry="2.5" style="stroke:#000d19;stroke-width:1.5"/><circle cx="69" cy="2586.894" r="11" fill="#E98DF7" style="stroke:#000d19;stroke-width:1"/><path d="M71.969 2592.535q-.578.297-1.219.438-.64.156-1.344.156-2.5 0-3.828-1.64-1.312-1.657-1.312-4.782t1.312-4.781q1.328-1.657 3.828-1.657.703 0 1.344.157.656.156 1.219.453v2.719q-.625-.579-1.219-.844-.594-.281-1.219-.281-1.344 0-2.031 1.078-.688 1.062-.688 3.156 0 2.094.688 3.172.688 1.062 2.031 1.062.625 0 1.219-.265.594-.282 1.219-.86v2.72Z"/><text x="88" y="2592.78" fill="#D9B8FF" font-family="Helvetica" font-size="17" textLength="360">aws_rds_pending_cloudwatch_logs_exports</text><path d="M55 2606.789h400" style="stroke:#000d19;stroke-width:1.5"/><text x="65" y="2625.999" fill="#D9B8FF" font-family="sans-serif" font-size="11" font-weight="bold" textLength="130">log_types_to_enable</text><text x="195" y="2625.999" fill="#D9B8FF" font-family="sans-serif" font-size="11" textLength="49">: string[]</text><text x="65" y="2648.804" fill="#D9B8FF" font-family="sans-serif" font-size="11" font-weight="bold" textLength="133">log_types_to_disable</text><text x="198" y="2648.804" fill="#D9B8FF" font-family="sans-serif" font-size="11" textLength="49">: string[]</text></a><a xlink:actuate="onRequest" xlink:href="#d" xlink:show="new" xlink:title="#aws_rds_cluster_pending_modified_values" xlink:type="simple" target="_top"><rect id="d" width="496" height="230.227" x="7" y="2277" fill="#3D176E" rx="2.5" ry="2.5" style="stroke:#000d19;stroke-width:1.5"/><circle cx="69.25" cy="2296.894" r="11" fill="#E98DF7" style="stroke:#000d19;stroke-width:1"/><path d="M72.219 2302.535q-.578.297-1.219.438-.64.156-1.344.156-2.5 0-3.828-1.64-1.312-1.657-1.312-4.782t1.312-4.781q1.328-1.657 3.828-1.657.703 0 1.344.157.656.156 1.219.453v2.719q-.625-.579-1.219-.844-.594-.281-1.219-.281-1.344 0-2.031 1.078-.688 1.062-.688 3.156 0 2.094.688 3.172.688 1.062 2.031 1.062.625 0 1.219-.265.594-.282 1.219-.86v2.72Z"/><text x="94.75" y="2302.78" fill="#D9B8FF" font-family="Helvetica" font-size="17" textLength="353">aws_rds_cluster_pending_modified_values</text><path d="M8 2316.789h494" style="stroke:#000d19;stroke-width:1.5"/><text x="18" y="2335.999" fill="#D9B8FF" font-family="sans-serif" font-size="11" font-weight="bold" textLength="219">pending_cloudwatch_logs_exports</text><text x="237" y="2335.999" fill="#D9B8FF" font-family="sans-serif" font-size="11" textLength="255">: aws_rds_pending_cloudwatch_logs_exports</text><text x="18" y="2358.804" fill="#D9B8FF" font-family="sans-serif" font-size="11" font-weight="bold" textLength="131">db_cluster_identifier</text><text x="149" y="2358.804" fill="#D9B8FF" font-family="sans-serif" font-size="11" textLength="41">: string</text><text x="18" y="2381.609" fill="#D9B8FF" font-family="sans-serif" font-size="11" font-weight="bold" textLength="146">master_user_password</text><text x="164" y="2381.609" fill="#D9B8FF" font-family="sans-serif" font-size="11" textLength="41">: string</text><text x="18" y="2404.414" fill="#D9B8FF" font-family="sans-serif" font-size="11" font-weight="bold" textLength="247">iam_database_authentication_enabled</text><text x="265" y="2404.414" fill="#D9B8FF" font-family="sans-serif" font-size="11" textLength="53">: boolean</text><text x="18" y="2427.218" fill="#D9B8FF" font-family="sans-serif" font-size="11" font-weight="bold" textLength="97">engine_version</text><text x="115" y="2427.218" fill="#D9B8FF" font-family="sans-serif" font-size="11" textLength="41">: string</text><text x="18" y="2450.023" fill="#D9B8FF" font-family="sans-serif" font-size="11" font-weight="bold" textLength="158">backup_retention_period</text><text x="176" y="2450.023" fill="#D9B8FF" font-family="sans-serif" font-size="11" textLength="36">: int64</text><text x="18" y="2472.828" fill="#D9B8FF" font-family="sans-serif" font-size="11" font-weight="bold" textLength="115">allocated_storage</text><text x="133" y="2472.828" fill="#D9B8FF" font-family="sans-serif" font-size="11" textLength="36">: int64</text><text x="18" y="2495.632" fill="#D9B8FF" font-family="sans-serif" font-size="11" font-weight="bold" textLength="27">iops</text><text x="45" y="2495.632" fill="#D9B8FF" font-family="sans-serif" font-size="11" textLength="36">: int64</text></a><a xlink:actuate="onRequest" xlink:href="#e" xlink:show="new" xlink:title="#aws_rds_db_cluster_member" xlink:type="simple" target="_top"><rect id="e" width="290" height="139.008" x="538" y="2322.5" fill="#3D176E" rx="2.5" ry="2.5" style="stroke:#000d19;stroke-width:1.5"/><circle cx="556.15" cy="2342.394" r="11" fill="#E98DF7" style="stroke:#000d19;stroke-width:1"/><path d="M559.119 2348.035q-.578.297-1.219.438-.64.156-1.344.156-2.5 0-3.828-1.64-1.312-1.657-1.312-4.782t1.312-4.781q1.328-1.657 3.828-1.657.703 0 1.344.157.656.156 1.219.453v2.719q-.625-.579-1.219-.844-.594-.281-1.219-.281-1.344 0-2.031 1.078-.688 1.062-.688 3.156 0 2.094.688 3.172.688 1.062 2.031 1.062.625 0 1.219-.265.594-.282 1.219-.86v2.72Z"/><text x="575.85" y="2348.28" fill="#D9B8FF" font-family="Helvetica" font-size="17" textLength="241">aws_rds_db_cluster_member</text><path d="M539 2362.289h288" style="stroke:#000d19;stroke-width:1.5"/><text x="549" y="2381.499" fill="#D9B8FF" font-family="sans-serif" font-size="11" font-weight="bold" textLength="142">db_instance_identifier</text><text x="691" y="2381.499" fill="#D9B8FF" font-family="sans-serif" font-size="11" textLength="41">: string</text><text x="549" y="2404.304" fill="#D9B8FF" font-family="sans-serif" font-size="11" font-weight="bold" textLength="105">is_cluster_writer</text><text x="654" y="2404.304" fill="#D9B8FF" font-family="sans-serif" font-size="11" textLength="53">: boolean</text><text x="549" y="2427.109" fill="#D9B8FF" font-family="sans-serif" font-size="11" font-weight="bold" textLength="227">db_cluster_parameter_group_status</text><text x="776" y="2427.109" fill="#D9B8FF" font-family="sans-serif" font-size="11" textLength="41">: string</text><text x="549" y="2449.914" fill="#D9B8FF" font-family="sans-serif" font-size="11" font-weight="bold" textLength="93">promotion_tier</text><text x="642" y="2449.914" fill="#D9B8FF" font-family="sans-serif" font-size="11" textLength="36">: int64</text></a><a xlink:actuate="onRequest" xlink:href="#f" xlink:show="new" xlink:title="#aws_rds_domain_membership" xlink:type="simple" target="_top"><rect id="f" width="295" height="139.008" x="863.5" y="2322.5" fill="#3D176E" rx="2.5" ry="2.5" style="stroke:#000d19;stroke-width:1.5"/><circle cx="878.5" cy="2342.394" r="11" fill="#E98DF7" style="stroke:#000d19;stroke-width:1"/><path d="M881.469 2348.035q-.578.297-1.219.438-.64.156-1.344.156-2.5 0-3.828-1.64-1.312-1.657-1.312-4.782t1.312-4.781q1.328-1.657 3.828-1.657.703 0 1.344.157.656.156 1.219.453v2.719q-.625-.579-1.219-.844-.594-.281-1.219-.281-1.343 0-2.031 1.078-.688 1.062-.688 3.156 0 2.094.688 3.172.688 1.062 2.031 1.062.625 0 1.219-.265.594-.282 1.219-.86v2.72Z"/><text x="897.5" y="2348.28" fill="#D9B8FF" font-family="Helvetica" font-size="17" textLength="253">aws_rds_domain_membership</text><path d="M864.5 2362.289h293" style="stroke:#000d19;stroke-width:1.5"/><text x="874.5" y="2381.499" fill="#D9B8FF" font-family="sans-serif" font-size="11" font-weight="bold" textLength="47">domain</text><text x="921.5" y="2381.499" fill="#D9B8FF" font-family="sans-serif" font-size="11" textLength="41">: string</text><text x="874.5" y="2404.304" fill="#D9B8FF" font-family="sans-serif" font-size="11" font-weight="bold" textLength="40">status</text><text x="914.5" y="2404.304" fill="#D9B8FF" font-family="sans-serif" font-size="11" textLength="41">: string</text><text x="874.5" y="2427.109" fill="#D9B8FF" font-family="sans-serif" font-size="11" font-weight="bold" textLength="29">fqdn</text><text x="903.5" y="2427.109" fill="#D9B8FF" font-family="sans-serif" font-size="11" textLength="41">: string</text><text x="874.5" y="2449.914" fill="#D9B8FF" font-family="sans-serif" font-size="11" font-weight="bold" textLength="95">iam_role_name</text><text x="969.5" y="2449.914" fill="#D9B8FF" font-family="sans-serif" font-size="11" textLength="41">: string</text></a><a xlink:actuate="onRequest" xlink:href="#g" xlink:show="new" xlink:title="#aws_rds_serverless_v2_scaling_configuration_info" xlink:type="simple" target="_top"><rect id="g" width="458" height="93.398" x="1194" y="2345.5" fill="#3D176E" rx="2.5" ry="2.5" style="stroke:#000d19;stroke-width:1.5"/><circle cx="1209" cy="2365.394" r="11" fill="#E98DF7" style="stroke:#000d19;stroke-width:1"/><path d="M1211.969 2371.035q-.578.297-1.219.438-.64.156-1.344.156-2.5 0-3.828-1.64-1.312-1.657-1.312-4.782t1.312-4.781q1.328-1.657 3.828-1.657.703 0 1.344.157.656.156 1.219.453v2.719q-.625-.579-1.219-.844-.594-.281-1.219-.281-1.343 0-2.031 1.078-.688 1.062-.688 3.156 0 2.094.688 3.172.688 1.062 2.031 1.062.625 0 1.219-.265.594-.282 1.219-.86v2.72Z"/><text x="1228" y="2371.28" fill="#D9B8FF" font-family="Helvetica" font-size="17" textLength="416">aws_rds_serverless_v2_scaling_configuration_info</text><path d="M1195 2385.289h456" style="stroke:#000d19;stroke-width:1.5"/><text x="1205" y="2404.499" fill="#D9B8FF" font-family="sans-serif" font-size="11" font-weight="bold" textLength="83">min_capacity</text><text x="1288" y="2404.499" fill="#D9B8FF" font-family="sans-serif" font-size="11" textLength="46">: double</text><text x="1205" y="2427.304" fill="#D9B8FF" font-family="sans-serif" font-size="11" font-weight="bold" textLength="86">max_capacity</text><text x="1291" y="2427.304" fill="#D9B8FF" font-family="sans-serif" font-size="11" textLength="46">: double</text></a><a xlink:actuate="onRequest" xlink:href="#h" xlink:show="new" xlink:title="#database" xlink:type="simple" target="_top"><rect id="h" width="221" height="253.031" x="1884.5" y="404" fill="#3D176E" rx="2.5" ry="2.5" style="stroke:#000d19;stroke-width:1.5"/><circle cx="1948.25" cy="423.894" r="11" fill="#E98DF7" style="stroke:#000d19;stroke-width:1"/><path d="M1951.219 429.535q-.578.297-1.219.438-.64.156-1.344.156-2.5 0-3.828-1.64-1.312-1.657-1.312-4.782t1.312-4.781q1.328-1.656 3.828-1.656.703 0 1.344.156.656.156 1.219.453v2.719q-.625-.579-1.219-.844-.594-.281-1.219-.281-1.343 0-2.031 1.078-.688 1.062-.688 3.156 0 2.094.688 3.172.688 1.062 2.031 1.062.625 0 1.219-.265.594-.281 1.219-.86v2.72Z"/><text x="1973.75" y="429.78" fill="#D9B8FF" font-family="Helvetica" font-size="17" textLength="75">database</text><path d="M1885.5 443.789h219" style="stroke:#000d19;stroke-width:1.5"/><text x="1895.5" y="463" fill="#D9B8FF" font-family="sans-serif" font-size="11" font-weight="bold" textLength="50">db_type</text><text x="1945.5" y="463" fill="#D9B8FF" font-family="sans-serif" font-size="11" textLength="41">: string</text><text x="1895.5" y="485.804" fill="#D9B8FF" font-family="sans-serif" font-size="11" font-weight="bold" textLength="62">db_status</text><text x="1957.5" y="485.804" fill="#D9B8FF" font-family="sans-serif" font-size="11" textLength="41">: string</text><text x="1895.5" y="508.609" fill="#D9B8FF" font-family="sans-serif" font-size="11" font-weight="bold" textLength="79">db_endpoint</text><text x="1974.5" y="508.609" fill="#D9B8FF" font-family="sans-serif" font-size="11" textLength="41">: string</text><text x="1895.5" y="531.414" fill="#D9B8FF" font-family="sans-serif" font-size="11" font-weight="bold" textLength="69">db_version</text><text x="1964.5" y="531.414" fill="#D9B8FF" font-family="sans-serif" font-size="11" textLength="41">: string</text><text x="1895.5" y="554.218" fill="#D9B8FF" font-family="sans-serif" font-size="11" font-weight="bold" textLength="146">db_publicly_accessible</text><text x="2041.5" y="554.218" fill="#D9B8FF" font-family="sans-serif" font-size="11" textLength="53">: boolean</text><text x="1895.5" y="577.023" fill="#D9B8FF" font-family="sans-serif" font-size="11" font-weight="bold" textLength="89">instance_type</text><text x="1984.5" y="577.023" fill="#D9B8FF" font-family="sans-serif" font-size="11" textLength="41">: string</text><text x="1895.5" y="599.828" fill="#D9B8FF" font-family="sans-serif" font-size="11" font-weight="bold" textLength="78">volume_size</text><text x="1973.5" y="599.828" fill="#D9B8FF" font-family="sans-serif" font-size="11" textLength="36">: int64</text><text x="1895.5" y="622.632" fill="#D9B8FF" font-family="sans-serif" font-size="11" font-weight="bold" textLength="79">volume_iops</text><text x="1974.5" y="622.632" fill="#D9B8FF" font-family="sans-serif" font-size="11" textLength="36">: int64</text><text x="1895.5" y="645.437" fill="#D9B8FF" font-family="sans-serif" font-size="11" font-weight="bold" textLength="116">volume_encrypted</text><text x="2011.5" y="645.437" fill="#D9B8FF" font-family="sans-serif" font-size="11" textLength="53">: boolean</text></a><a xlink:actuate="onRequest" xlink:href="#i" xlink:show="new" xlink:title="#aws_rds_vpc_security_group_membership" xlink:type="simple" target="_top"><rect id="i" width="392" height="93.398" x="1687" y="2345.5" fill="#3D176E" rx="2.5" ry="2.5" style="stroke:#000d19;stroke-width:1.5"/><circle cx="1702" cy="2365.394" r="11" fill="#E98DF7" style="stroke:#000d19;stroke-width:1"/><path d="M1704.969 2371.035q-.578.297-1.219.438-.64.156-1.344.156-2.5 0-3.828-1.64-1.312-1.657-1.312-4.782t1.312-4.781q1.328-1.657 3.828-1.657.703 0 1.344.157.656.156 1.219.453v2.719q-.625-.579-1.219-.844-.594-.281-1.219-.281-1.343 0-2.031 1.078-.688 1.062-.688 3.156 0 2.094.688 3.172.688 1.062 2.031 1.062.625 0 1.219-.265.594-.282 1.219-.86v2.72Z"/><text x="1721" y="2371.28" fill="#D9B8FF" font-family="Helvetica" font-size="17" textLength="350">aws_rds_vpc_security_group_membership</text><path d="M1688 2385.289h390" style="stroke:#000d19;stroke-width:1.5"/><text x="1698" y="2404.499" fill="#D9B8FF" font-family="sans-serif" font-size="11" font-weight="bold" textLength="140">vpc_security_group_id</text><text x="1838" y="2404.499" fill="#D9B8FF" font-family="sans-serif" font-size="11" textLength="41">: string</text><text x="1698" y="2427.304" fill="#D9B8FF" font-family="sans-serif" font-size="11" font-weight="bold" textLength="40">status</text><text x="1738" y="2427.304" fill="#D9B8FF" font-family="sans-serif" font-size="11" textLength="41">: string</text></a><a xlink:actuate="onRequest" xlink:href="#j" xlink:show="new" xlink:title="#aws_rds_db_role" xlink:type="simple" target="_top"><rect id="j" width="179" height="116.203" x="2114.5" y="2334" fill="#3D176E" rx="2.5" ry="2.5" style="stroke:#000d19;stroke-width:1.5"/><circle cx="2129.5" cy="2353.894" r="11" fill="#E98DF7" style="stroke:#000d19;stroke-width:1"/><path d="M2132.469 2359.535q-.578.297-1.219.438-.64.156-1.344.156-2.5 0-3.828-1.64-1.312-1.657-1.312-4.782t1.312-4.781q1.328-1.657 3.828-1.657.703 0 1.344.157.656.156 1.219.453v2.719q-.625-.579-1.219-.844-.594-.281-1.219-.281-1.343 0-2.031 1.078-.688 1.062-.688 3.156 0 2.094.688 3.172.688 1.062 2.031 1.062.625 0 1.219-.265.594-.282 1.219-.86v2.72Z"/><text x="2148.5" y="2359.78" fill="#D9B8FF" font-family="Helvetica" font-size="17" textLength="137">aws_rds_db_role</text><path d="M2115.5 2373.789h177" style="stroke:#000d19;stroke-width:1.5"/><text x="2125.5" y="2392.999" fill="#D9B8FF" font-family="sans-serif" font-size="11" font-weight="bold" textLength="52">role_arn</text><text x="2177.5" y="2392.999" fill="#D9B8FF" font-family="sans-serif" font-size="11" textLength="41">: string</text><text x="2125.5" y="2415.804" fill="#D9B8FF" font-family="sans-serif" font-size="11" font-weight="bold" textLength="88">feature_name</text><text x="2213.5" y="2415.804" fill="#D9B8FF" font-family="sans-serif" font-size="11" textLength="41">: string</text><text x="2125.5" y="2438.609" fill="#D9B8FF" font-family="sans-serif" font-size="11" font-weight="bold" textLength="40">status</text><text x="2165.5" y="2438.609" fill="#D9B8FF" font-family="sans-serif" font-size="11" textLength="41">: string</text></a><a xlink:actuate="onRequest" xlink:href="#k" xlink:show="new" xlink:title="#aws_rds_db_cluster_option_group_status" xlink:type="simple" target="_top"><rect id="k" width="382" height="93.398" x="2329" y="2345.5" fill="#3D176E" rx="2.5" ry="2.5" style="stroke:#000d19;stroke-width:1.5"/><circle cx="2344" cy="2365.394" r="11" fill="#E98DF7" style="stroke:#000d19;stroke-width:1"/><path d="M2346.969 2371.035q-.578.297-1.219.438-.64.156-1.344.156-2.5 0-3.828-1.64-1.312-1.657-1.312-4.782t1.312-4.781q1.328-1.657 3.828-1.657.703 0 1.344.157.656.156 1.219.453v2.719q-.625-.579-1.219-.844-.594-.281-1.219-.281-1.343 0-2.031 1.078-.688 1.062-.688 3.156 0 2.094.688 3.172.688 1.062 2.031 1.062.625 0 1.219-.265.594-.282 1.219-.86v2.72Z"/><text x="2363" y="2371.28" fill="#D9B8FF" font-family="Helvetica" font-size="17" textLength="340">aws_rds_db_cluster_option_group_status</text><path d="M2330 2385.289h380" style="stroke:#000d19;stroke-width:1.5"/><text x="2340" y="2404.499" fill="#D9B8FF" font-family="sans-serif" font-size="11" font-weight="bold" textLength="197">db_cluster_option_group_name</text><text x="2537" y="2404.499" fill="#D9B8FF" font-family="sans-serif" font-size="11" textLength="41">: string</text><text x="2340" y="2427.304" fill="#D9B8FF" font-family="sans-serif" font-size="11" font-weight="bold" textLength="40">status</text><text x="2380" y="2427.304" fill="#D9B8FF" font-family="sans-serif" font-size="11" textLength="41">: string</text></a><a xlink:actuate="onRequest" xlink:href="#l" xlink:show="new" xlink:title="#aws_rds_scaling_configuration_info" xlink:type="simple" target="_top"><rect id="l" width="336" height="184.617" x="2746" y="2299.5" fill="#3D176E" rx="2.5" ry="2.5" style="stroke:#000d19;stroke-width:1.5"/><circle cx="2761" cy="2319.394" r="11" fill="#E98DF7" style="stroke:#000d19;stroke-width:1"/><path d="M2763.969 2325.035q-.578.297-1.219.438-.64.156-1.344.156-2.5 0-3.828-1.64-1.312-1.657-1.312-4.782t1.312-4.781q1.328-1.657 3.828-1.657.703 0 1.344.157.656.156 1.219.453v2.719q-.625-.579-1.219-.844-.594-.281-1.219-.281-1.343 0-2.031 1.078-.688 1.062-.688 3.156 0 2.094.688 3.172.688 1.062 2.031 1.062.625 0 1.219-.265.594-.282 1.219-.86v2.72Z"/><text x="2780" y="2325.28" fill="#D9B8FF" font-family="Helvetica" font-size="17" textLength="294">aws_rds_scaling_configuration_info</text><path d="M2747 2339.289h334" style="stroke:#000d19;stroke-width:1.5"/><text x="2757" y="2358.499" fill="#D9B8FF" font-family="sans-serif" font-size="11" font-weight="bold" textLength="83">min_capacity</text><text x="2840" y="2358.499" fill="#D9B8FF" font-family="sans-serif" font-size="11" textLength="36">: int64</text><text x="2757" y="2381.304" fill="#D9B8FF" font-family="sans-serif" font-size="11" font-weight="bold" textLength="86">max_capacity</text><text x="2843" y="2381.304" fill="#D9B8FF" font-family="sans-serif" font-size="11" textLength="36">: int64</text><text x="2757" y="2404.109" fill="#D9B8FF" font-family="sans-serif" font-size="11" font-weight="bold" textLength="74">auto_pause</text><text x="2831" y="2404.109" fill="#D9B8FF" font-family="sans-serif" font-size="11" textLength="53">: boolean</text><text x="2757" y="2426.914" fill="#D9B8FF" font-family="sans-serif" font-size="11" font-weight="bold" textLength="168">seconds_until_auto_pause</text><text x="2925" y="2426.914" fill="#D9B8FF" font-family="sans-serif" font-size="11" textLength="36">: int64</text><text x="2757" y="2449.718" fill="#D9B8FF" font-family="sans-serif" font-size="11" font-weight="bold" textLength="95">timeout_action</text><text x="2852" y="2449.718" fill="#D9B8FF" font-family="sans-serif" font-size="11" textLength="41">: string</text><text x="2757" y="2472.523" fill="#D9B8FF" font-family="sans-serif" font-size="11" font-weight="bold" textLength="156">seconds_before_timeout</text><text x="2913" y="2472.523" fill="#D9B8FF" font-family="sans-serif" font-size="11" textLength="36">: int64</text></a><a xlink:actuate="onRequest" xlink:href="#m" xlink:show="new" xlink:title="#aws_rds_cluster" xlink:type="simple" target="_top"><rect id="m" width="574" height="1438.875" x="1596" y="778" fill="#3D176E" rx="2.5" ry="2.5" style="stroke:#000d19;stroke-width:1.5"/><circle cx="1807.75" cy="797.894" r="11" fill="#E98DF7" style="stroke:#000d19;stroke-width:1"/><path d="M1810.719 803.535q-.578.297-1.219.438-.64.156-1.344.156-2.5 0-3.828-1.64-1.312-1.657-1.312-4.782t1.312-4.781q1.328-1.657 3.828-1.657.703 0 1.344.157.656.156 1.219.453v2.719q-.625-.578-1.219-.844-.594-.281-1.219-.281-1.343 0-2.031 1.078-.688 1.062-.688 3.156 0 2.094.688 3.172.688 1.062 2.031 1.062.625 0 1.219-.265.594-.282 1.219-.86v2.72Z"/><text x="1833.25" y="803.78" fill="#D9B8FF" font-family="Helvetica" font-size="17" textLength="132">aws_rds_cluster</text><path d="M1597 817.789h572" style="stroke:#000d19;stroke-width:1.5"/><text x="1607" y="837" fill="#D9B8FF" font-family="sans-serif" font-size="11" font-weight="bold" textLength="141">rds_allocated_storage</text><text x="1748" y="837" fill="#D9B8FF" font-family="sans-serif" font-size="11" textLength="36">: int64</text><text x="1607" y="859.804" fill="#D9B8FF" font-family="sans-serif" font-size="11" font-weight="bold" textLength="141">rds_availability_zones</text><text x="1748" y="859.804" fill="#D9B8FF" font-family="sans-serif" font-size="11" textLength="49">: string[]</text><text x="1607" y="882.609" fill="#D9B8FF" font-family="sans-serif" font-size="11" font-weight="bold" textLength="184">rds_backup_retention_period</text><text x="1791" y="882.609" fill="#D9B8FF" font-family="sans-serif" font-size="11" textLength="36">: int64</text><text x="1607" y="905.414" fill="#D9B8FF" font-family="sans-serif" font-size="11" font-weight="bold" textLength="154">rds_character_set_name</text><text x="1761" y="905.414" fill="#D9B8FF" font-family="sans-serif" font-size="11" textLength="41">: string</text><text x="1607" y="928.218" fill="#D9B8FF" font-family="sans-serif" font-size="11" font-weight="bold" textLength="127">rds_database_name</text><text x="1734" y="928.218" fill="#D9B8FF" font-family="sans-serif" font-size="11" textLength="41">: string</text><text x="1607" y="951.023" fill="#D9B8FF" font-family="sans-serif" font-size="11" font-weight="bold" textLength="207">rds_db_cluster_parameter_group</text><text x="1814" y="951.023" fill="#D9B8FF" font-family="sans-serif" font-size="11" textLength="41">: string</text><text x="1607" y="973.828" fill="#D9B8FF" font-family="sans-serif" font-size="11" font-weight="bold" textLength="176">rds_db_subnet_group_name</text><text x="1783" y="973.828" fill="#D9B8FF" font-family="sans-serif" font-size="11" textLength="41">: string</text><text x="1607" y="996.632" fill="#D9B8FF" font-family="sans-serif" font-size="11" font-weight="bold" textLength="173">rds_automatic_restart_time</text><text x="1780" y="996.632" fill="#D9B8FF" font-family="sans-serif" font-size="11" textLength="58">: datetime</text><text x="1607" y="1019.437" fill="#D9B8FF" font-family="sans-serif" font-size="11" font-weight="bold" textLength="137">rds_percent_progress</text><text x="1744" y="1019.437" fill="#D9B8FF" font-family="sans-serif" font-size="11" textLength="41">: string</text><text x="1607" y="1042.242" fill="#D9B8FF" font-family="sans-serif" font-size="11" font-weight="bold" textLength="181">rds_earliest_restorable_time</text><text x="1788" y="1042.242" fill="#D9B8FF" font-family="sans-serif" font-size="11" textLength="58">: datetime</text><text x="1607" y="1065.046" fill="#D9B8FF" font-family="sans-serif" font-size="11" font-weight="bold" textLength="83">rds_endpoint</text><text x="1690" y="1065.046" fill="#D9B8FF" font-family="sans-serif" font-size="11" textLength="41">: string</text><text x="1607" y="1087.851" fill="#D9B8FF" font-family="sans-serif" font-size="11" font-weight="bold" textLength="131">rds_reader_endpoint</text><text x="1738" y="1087.851" fill="#D9B8FF" font-family="sans-serif" font-size="11" textLength="41">: string</text><text x="1607" y="1110.656" fill="#D9B8FF" font-family="sans-serif" font-size="11" font-weight="bold" textLength="142">rds_custom_endpoints</text><text x="1749" y="1110.656" fill="#D9B8FF" font-family="sans-serif" font-size="11" textLength="49">: string[]</text><text x="1607" y="1133.46" fill="#D9B8FF" font-family="sans-serif" font-size="11" font-weight="bold" textLength="79">rds_multi_az</text><text x="1686" y="1133.46" fill="#D9B8FF" font-family="sans-serif" font-size="11" textLength="53">: boolean</text><text x="1607" y="1156.265" fill="#D9B8FF" font-family="sans-serif" font-size="11" font-weight="bold" textLength="169">rds_latest_restorable_time</text><text x="1776" y="1156.265" fill="#D9B8FF" font-family="sans-serif" font-size="11" textLength="58">: datetime</text><text x="1607" y="1179.07" fill="#D9B8FF" font-family="sans-serif" font-size="11" font-weight="bold" textLength="52">rds_port</text><text x="1659" y="1179.07" fill="#D9B8FF" font-family="sans-serif" font-size="11" textLength="36">: int64</text><text x="1607" y="1201.874" fill="#D9B8FF" font-family="sans-serif" font-size="11" font-weight="bold" textLength="139">rds_master_username</text><text x="1746" y="1201.874" fill="#D9B8FF" font-family="sans-serif" font-size="11" textLength="41">: string</text><text x="1607" y="1224.679" fill="#D9B8FF" font-family="sans-serif" font-size="11" font-weight="bold" textLength="273">rds_db_cluster_option_group_memberships</text><text x="1880" y="1224.679" fill="#D9B8FF" font-family="sans-serif" font-size="11" textLength="251">: aws_rds_db_cluster_option_group_status[]</text><text x="1607" y="1247.484" fill="#D9B8FF" font-family="sans-serif" font-size="11" font-weight="bold" textLength="194">rds_preferred_backup_window</text><text x="1801" y="1247.484" fill="#D9B8FF" font-family="sans-serif" font-size="11" textLength="41">: string</text><text x="1607" y="1270.289" fill="#D9B8FF" font-family="sans-serif" font-size="11" font-weight="bold" textLength="231">rds_preferred_maintenance_window</text><text x="1838" y="1270.289" fill="#D9B8FF" font-family="sans-serif" font-size="11" textLength="41">: string</text><text x="1607" y="1293.093" fill="#D9B8FF" font-family="sans-serif" font-size="11" font-weight="bold" textLength="209">rds_replication_source_identifier</text><text x="1816" y="1293.093" fill="#D9B8FF" font-family="sans-serif" font-size="11" textLength="41">: string</text><text x="1607" y="1315.898" fill="#D9B8FF" font-family="sans-serif" font-size="11" font-weight="bold" textLength="177">rds_read_replica_identifiers</text><text x="1784" y="1315.898" fill="#D9B8FF" font-family="sans-serif" font-size="11" textLength="49">: string[]</text><text x="1607" y="1338.703" fill="#D9B8FF" font-family="sans-serif" font-size="11" font-weight="bold" textLength="156">rds_db_cluster_members</text><text x="1763" y="1338.703" fill="#D9B8FF" font-family="sans-serif" font-size="11" textLength="183">: aws_rds_db_cluster_member[]</text><text x="1607" y="1361.507" fill="#D9B8FF" font-family="sans-serif" font-size="11" font-weight="bold" textLength="155">rds_vpc_security_groups</text><text x="1762" y="1361.507" fill="#D9B8FF" font-family="sans-serif" font-size="11" textLength="257">: aws_rds_vpc_security_group_membership[]</text><text x="1607" y="1384.312" fill="#D9B8FF" font-family="sans-serif" font-size="11" font-weight="bold" textLength="125">rds_hosted_zone_id</text><text x="1732" y="1384.312" fill="#D9B8FF" font-family="sans-serif" font-size="11" textLength="41">: string</text><text x="1607" y="1407.117" fill="#D9B8FF" font-family="sans-serif" font-size="11" font-weight="bold" textLength="97">rds_kms_key_id</text><text x="1704" y="1407.117" fill="#D9B8FF" font-family="sans-serif" font-size="11" textLength="41">: string</text><text x="1607" y="1429.921" fill="#D9B8FF" font-family="sans-serif" font-size="11" font-weight="bold" textLength="172">rds_db_cluster_resource_id</text><text x="1779" y="1429.921" fill="#D9B8FF" font-family="sans-serif" font-size="11" textLength="41">: string</text><text x="1607" y="1452.726" fill="#D9B8FF" font-family="sans-serif" font-size="11" font-weight="bold" textLength="134">rds_associated_roles</text><text x="1741" y="1452.726" fill="#D9B8FF" font-family="sans-serif" font-size="11" textLength="112">: aws_rds_db_role[]</text><text x="1607" y="1475.531" fill="#D9B8FF" font-family="sans-serif" font-size="11" font-weight="bold" textLength="273">rds_iam_database_authentication_enabled</text><text x="1880" y="1475.531" fill="#D9B8FF" font-family="sans-serif" font-size="11" textLength="53">: boolean</text><text x="1607" y="1498.335" fill="#D9B8FF" font-family="sans-serif" font-size="11" font-weight="bold" textLength="122">rds_clone_group_id</text><text x="1729" y="1498.335" fill="#D9B8FF" font-family="sans-serif" font-size="11" textLength="41">: string</text><text x="1607" y="1521.14" fill="#D9B8FF" font-family="sans-serif" font-size="11" font-weight="bold" textLength="177">rds_earliest_backtrack_time</text><text x="1784" y="1521.14" fill="#D9B8FF" font-family="sans-serif" font-size="11" textLength="58">: datetime</text><text x="1607" y="1543.945" fill="#D9B8FF" font-family="sans-serif" font-size="11" font-weight="bold" textLength="144">rds_backtrack_window</text><text x="1751" y="1543.945" fill="#D9B8FF" font-family="sans-serif" font-size="11" textLength="36">: int64</text><text x="1607" y="1566.749" fill="#D9B8FF" font-family="sans-serif" font-size="11" font-weight="bold" textLength="266">rds_backtrack_consumed_change_records</text><text x="1873" y="1566.749" fill="#D9B8FF" font-family="sans-serif" font-size="11" textLength="36">: int64</text><text x="1607" y="1589.554" fill="#D9B8FF" font-family="sans-serif" font-size="11" font-weight="bold" textLength="245">rds_enabled_cloudwatch_logs_exports</text><text x="1852" y="1589.554" fill="#D9B8FF" font-family="sans-serif" font-size="11" textLength="49">: string[]</text><text x="1607" y="1612.359" fill="#D9B8FF" font-family="sans-serif" font-size="11" font-weight="bold" textLength="80">rds_capacity</text><text x="1687" y="1612.359" fill="#D9B8FF" font-family="sans-serif" font-size="11" textLength="36">: int64</text><text x="1607" y="1635.164" fill="#D9B8FF" font-family="sans-serif" font-size="11" font-weight="bold" textLength="111">rds_engine_mode</text><text x="1718" y="1635.164" fill="#D9B8FF" font-family="sans-serif" font-size="11" textLength="41">: string</text><text x="1607" y="1657.968" fill="#D9B8FF" font-family="sans-serif" font-size="11" font-weight="bold" textLength="195">rds_scaling_configuration_info</text><text x="1802" y="1657.968" fill="#D9B8FF" font-family="sans-serif" font-size="11" textLength="209">: aws_rds_scaling_configuration_info</text><text x="1607" y="1680.773" fill="#D9B8FF" font-family="sans-serif" font-size="11" font-weight="bold" textLength="151">rds_deletion_protection</text><text x="1758" y="1680.773" fill="#D9B8FF" font-family="sans-serif" font-size="11" textLength="53">: boolean</text><text x="1607" y="1703.578" fill="#D9B8FF" font-family="sans-serif" font-size="11" font-weight="bold" textLength="173">rds_http_endpoint_enabled</text><text x="1780" y="1703.578" fill="#D9B8FF" font-family="sans-serif" font-size="11" textLength="53">: boolean</text><text x="1607" y="1726.382" fill="#D9B8FF" font-family="sans-serif" font-size="11" font-weight="bold" textLength="164">rds_activity_stream_mode</text><text x="1771" y="1726.382" fill="#D9B8FF" font-family="sans-serif" font-size="11" textLength="41">: string</text><text x="1607" y="1749.187" fill="#D9B8FF" font-family="sans-serif" font-size="11" font-weight="bold" textLength="169">rds_activity_stream_status</text><text x="1776" y="1749.187" fill="#D9B8FF" font-family="sans-serif" font-size="11" textLength="41">: string</text><text x="1607" y="1771.992" fill="#D9B8FF" font-family="sans-serif" font-size="11" font-weight="bold" textLength="200">rds_activity_stream_kms_key_id</text><text x="1807" y="1771.992" fill="#D9B8FF" font-family="sans-serif" font-size="11" textLength="41">: string</text><text x="1607" y="1794.796" fill="#D9B8FF" font-family="sans-serif" font-size="11" font-weight="bold" textLength="265">rds_activity_stream_kinesis_stream_name</text><text x="1872" y="1794.796" fill="#D9B8FF" font-family="sans-serif" font-size="11" textLength="41">: string</text><text x="1607" y="1817.601" fill="#D9B8FF" font-family="sans-serif" font-size="11" font-weight="bold" textLength="174">rds_copy_tags_to_snapshot</text><text x="1781" y="1817.601" fill="#D9B8FF" font-family="sans-serif" font-size="11" textLength="53">: boolean</text><text x="1607" y="1840.406" fill="#D9B8FF" font-family="sans-serif" font-size="11" font-weight="bold" textLength="158">rds_cross_account_clone</text><text x="1765" y="1840.406" fill="#D9B8FF" font-family="sans-serif" font-size="11" textLength="53">: boolean</text><text x="1607" y="1863.21" fill="#D9B8FF" font-family="sans-serif" font-size="11" font-weight="bold" textLength="164">rds_domain_memberships</text><text x="1771" y="1863.21" fill="#D9B8FF" font-family="sans-serif" font-size="11" textLength="190">: aws_rds_domain_membership[]</text><text x="1607" y="1886.015" fill="#D9B8FF" font-family="sans-serif" font-size="11" font-weight="bold" textLength="227">rds_global_write_forwarding_status</text><text x="1834" y="1886.015" fill="#D9B8FF" font-family="sans-serif" font-size="11" textLength="41">: string</text><text x="1607" y="1908.82" fill="#D9B8FF" font-family="sans-serif" font-size="11" font-weight="bold" textLength="252">rds_global_write_forwarding_requested</text><text x="1859" y="1908.82" fill="#D9B8FF" font-family="sans-serif" font-size="11" textLength="53">: boolean</text><text x="1607" y="1931.624" fill="#D9B8FF" font-family="sans-serif" font-size="11" font-weight="bold" textLength="238">rds_cluster_pending_modified_values</text><text x="1845" y="1931.624" fill="#D9B8FF" font-family="sans-serif" font-size="11" textLength="250">: aws_rds_cluster_pending_modified_values</text><text x="1607" y="1954.429" fill="#D9B8FF" font-family="sans-serif" font-size="11" font-weight="bold" textLength="192">rds_db_cluster_instance_class</text><text x="1799" y="1954.429" fill="#D9B8FF" font-family="sans-serif" font-size="11" textLength="41">: string</text><text x="1607" y="1977.234" fill="#D9B8FF" font-family="sans-serif" font-size="11" font-weight="bold" textLength="109">rds_storage_type</text><text x="1716" y="1977.234" fill="#D9B8FF" font-family="sans-serif" font-size="11" textLength="41">: string</text><text x="1607" y="2000.039" fill="#D9B8FF" font-family="sans-serif" font-size="11" font-weight="bold" textLength="209">rds_auto_minor_version_upgrade</text><text x="1816" y="2000.039" fill="#D9B8FF" font-family="sans-serif" font-size="11" textLength="53">: boolean</text><text x="1607" y="2022.843" fill="#D9B8FF" font-family="sans-serif" font-size="11" font-weight="bold" textLength="150">rds_monitoring_interval</text><text x="1757" y="2022.843" fill="#D9B8FF" font-family="sans-serif" font-size="11" textLength="36">: int64</text><text x="1607" y="2045.648" fill="#D9B8FF" font-family="sans-serif" font-size="11" font-weight="bold" textLength="153">rds_monitoring_role_arn</text><text x="1760" y="2045.648" fill="#D9B8FF" font-family="sans-serif" font-size="11" textLength="41">: string</text><text x="1607" y="2068.453" fill="#D9B8FF" font-family="sans-serif" font-size="11" font-weight="bold" textLength="222">rds_performance_insights_enabled</text><text x="1829" y="2068.453" fill="#D9B8FF" font-family="sans-serif" font-size="11" textLength="53">: boolean</text><text x="1607" y="2091.257" fill="#D9B8FF" font-family="sans-serif" font-size="11" font-weight="bold" textLength="241">rds_performance_insights_kms_key_id</text><text x="1848" y="2091.257" fill="#D9B8FF" font-family="sans-serif" font-size="11" textLength="41">: string</text><text x="1607" y="2114.062" fill="#D9B8FF" font-family="sans-serif" font-size="11" font-weight="bold" textLength="276">rds_performance_insights_retention_period</text><text x="1883" y="2114.062" fill="#D9B8FF" font-family="sans-serif" font-size="11" textLength="36">: int64</text><text x="1607" y="2136.867" fill="#D9B8FF" font-family="sans-serif" font-size="11" font-weight="bold" textLength="257">rds_serverless_v2_scaling_configuration</text><text x="1864" y="2136.867" fill="#D9B8FF" font-family="sans-serif" font-size="11" textLength="295">: aws_rds_serverless_v2_scaling_configuration_info</text><text x="1607" y="2159.671" fill="#D9B8FF" font-family="sans-serif" font-size="11" font-weight="bold" textLength="112">rds_network_type</text><text x="1719" y="2159.671" fill="#D9B8FF" font-family="sans-serif" font-size="11" textLength="41">: string</text><text x="1607" y="2182.476" fill="#D9B8FF" font-family="sans-serif" font-size="11" font-weight="bold" textLength="111">rds_db_system_id</text><text x="1718" y="2182.476" fill="#D9B8FF" font-family="sans-serif" font-size="11" textLength="41">: string</text><text x="1607" y="2205.281" fill="#D9B8FF" font-family="sans-serif" font-size="11" font-weight="bold" textLength="150">rds_master_user_secret</text><text x="1757" y="2205.281" fill="#D9B8FF" font-family="sans-serif" font-size="11" textLength="177">: aws_rds_master_user_secret</text></a><a xlink:actuate="onRequest" xlink:href="#n" xlink:show="new" xlink:title="#aws_rds_master_user_secret" xlink:type="simple" target="_top"><rect id="n" width="281" height="116.203" x="3117.5" y="2334" fill="#3D176E" rx="2.5" ry="2.5" style="stroke:#000d19;stroke-width:1.5"/><circle cx="3132.5" cy="2353.894" r="11" fill="#E98DF7" style="stroke:#000d19;stroke-width:1"/><path d="M3135.469 2359.535q-.578.297-1.219.438-.64.156-1.344.156-2.5 0-3.828-1.64-1.312-1.657-1.312-4.782t1.312-4.781q1.328-1.657 3.828-1.657.703 0 1.344.157.656.156 1.219.453v2.719q-.625-.579-1.219-.844-.594-.281-1.219-.281-1.343 0-2.031 1.078-.688 1.062-.688 3.156 0 2.094.688 3.172.688 1.062 2.031 1.062.625 0 1.219-.265.594-.282 1.219-.86v2.72Z"/><text x="3151.5" y="2359.78" fill="#D9B8FF" font-family="Helvetica" font-size="17" textLength="239">aws_rds_master_user_secret</text><path d="M3118.5 2373.789h279" style="stroke:#000d19;stroke-width:1.5"/><text x="3128.5" y="2392.999" fill="#D9B8FF" font-family="sans-serif" font-size="11" font-weight="bold" textLength="67">secret_arn</text><text x="3195.5" y="2392.999" fill="#D9B8FF" font-family="sans-serif" font-size="11" textLength="41">: string</text><text x="3128.5" y="2415.804" fill="#D9B8FF" font-family="sans-serif" font-size="11" font-weight="bold" textLength="86">secret_status</text><text x="3214.5" y="2415.804" fill="#D9B8FF" font-family="sans-serif" font-size="11" textLength="41">: string</text><text x="3128.5" y="2438.609" fill="#D9B8FF" font-family="sans-serif" font-size="11" font-weight="bold" textLength="71">kms_key_id</text><text x="3199.5" y="2438.609" fill="#D9B8FF" font-family="sans-serif" font-size="11" textLength="41">: string</text></a><path fill="none" d="M1837.72 302.45c-20.58 71.1-43.1 148.91-55.71 192.48m49.02-194.57 12.29-17.26 1.16 21.16-13.45-3.9zM255 2507.25v54.6" style="stroke:#ffaf37;stroke-width:2"/><path fill="#FFAF37" d="m255 2566.87 4-9-4 4-4-4 4 9z" style="stroke:#ffaf37;stroke-width:2"/><path fill="none" d="M1928.76 302.7c9.83 33.65 20.09 68.78 29.52 101.07m-36.35-99.51 1.11-21.16 12.33 17.23-13.44 3.93zM1778.3 586.23l22.04 191.63m-29.03-191.06 4.67-20.67 9.24 19.07-13.91 1.6zm206.79 90.33c-3.53 30.42-7.48 64.4-11.7 100.75m4.76-101.66 9.26-19.06 4.64 20.68-13.9-1.62zm198.89 1224.47c123.52 173.06 253.41 355.04 314.38 440.48" style="stroke:#ffaf37;stroke-width:2"/><path fill="#FFAF37" d="m2487.46 2345.41-1.986-9.647-.924 5.581-5.581-.924 8.491 4.99z" style="stroke:#ffaf37;stroke-width:2"/><path fill="none" d="M1595.95 1711.99c-264.33 196.6-641.21 476.9-816.46 607.24" style="stroke:#ffaf37;stroke-width:2"/><path fill="#FFAF37" d="m775.39 2322.29 9.609-2.162-5.597-.822.822-5.597-4.834 8.581z" style="stroke:#ffaf37;stroke-width:2"/><path fill="none" d="M1883 2217.06v123.06" style="stroke:#ffaf37;stroke-width:2"/><path fill="#FFAF37" d="m1883 2345.3 4-9-4 4-4-4 4 9z" style="stroke:#ffaf37;stroke-width:2"/><path fill="none" d="M2141.44 2217.06c15.86 44.09 29.65 82.43 40.22 111.82" style="stroke:#ffaf37;stroke-width:2"/><path fill="#FFAF37" d="m2183.46 2333.89.727-9.822-2.415 5.116-5.116-2.415 6.804 7.121z" style="stroke:#ffaf37;stroke-width:2"/><path fill="none" d="M2170.19 1747.11c210.25 182.01 484 418.98 633.85 548.7" style="stroke:#ffaf37;stroke-width:2"/><path fill="#FFAF37" d="m2808 2299.24-4.194-8.911.41 5.642-5.641.41 9.425 2.859z" style="stroke:#ffaf37;stroke-width:2"/><path fill="none" d="M1595.96 1792.28c-181.91 186.19-403.14 412.63-514.18 526.27" style="stroke:#ffaf37;stroke-width:2"/><path fill="#FFAF37" d="m1078.21 2322.21 9.156-3.628-5.656.057-.058-5.657-3.442 9.228z" style="stroke:#ffaf37;stroke-width:2"/><path fill="none" d="M1595.69 1656.01c-322.88 177.01-839.51 460.23-1128.09 618.44" style="stroke:#ffaf37;stroke-width:2"/><path fill="#FFAF37" d="m462.95 2277 9.815-.811-5.429-1.59 1.589-5.428-5.975 7.829z" style="stroke:#ffaf37;stroke-width:2"/><path fill="none" d="M1595.92 2055.49c-60.89 118.14-116.08 225.23-146.99 285.21" style="stroke:#ffaf37;stroke-width:2"/><path fill="#FFAF37" d="m1446.56 2345.29 7.682-6.164-5.39 1.72-1.72-5.388-.572 9.832z" style="stroke:#ffaf37;stroke-width:2"/><path fill="none" d="M2170.26 1675.93C2418.75 1830.9 2786.4 2063.81 3100 2277c25.12 17.08 52.06 36.2 76.45 53.84" style="stroke:#ffaf37;stroke-width:2"/><path fill="#FFAF37" d="m3180.66 2333.88-4.956-8.51.902 5.584-5.585.902 9.639 2.024z" style="stroke:#ffaf37;stroke-width:2"/></svg>