<svg xmlns="http://www.w3.org/2000/svg" xmlns:xlink="http://www.w3.org/1999/xlink" width="1276" height="452" preserveAspectRatio="none" style="width:1276px;height:452px;background:#00000000"><a xlink:actuate="onRequest" xlink:href="#a" xlink:show="new" xlink:title="#aws_kms_key" xlink:type="simple" target="_top"><rect id="a" width="158" height="39.789" x="377" y="407" fill="#3D176E" rx="2.5" ry="2.5" style="stroke:#000d19;stroke-width:1.5"/><circle cx="392" cy="426.894" r="11" fill="#E98DF7" style="stroke:#000d19;stroke-width:1"/><path d="M394.969 432.535q-.578.297-1.219.438-.64.156-1.344.156-2.5 0-3.828-1.64-1.312-1.657-1.312-4.782t1.312-4.781q1.328-1.656 3.828-1.656.703 0 1.344.156.656.156 1.219.453v2.719q-.625-.579-1.219-.844-.594-.281-1.219-.281-1.344 0-2.031 1.078-.688 1.062-.688 3.156 0 2.094.688 3.172.688 1.062 2.031 1.062.625 0 1.219-.265.594-.281 1.219-.86v2.72Z"/><text x="411" y="432.78" fill="#D9B8FF" font-family="Helvetica" font-size="17" textLength="116">aws_kms_key</text></a><a xlink:actuate="onRequest" xlink:href="#b" xlink:show="new" xlink:title="#aws_ec2_security_group" xlink:type="simple" target="_top"><rect id="b" width="245" height="39.789" x="276.5" y="207" fill="#3D176E" rx="2.5" ry="2.5" style="stroke:#000d19;stroke-width:1.5"/><circle cx="291.5" cy="226.894" r="11" fill="#E98DF7" style="stroke:#000d19;stroke-width:1"/><path d="M294.469 232.535q-.578.297-1.219.438-.64.156-1.344.156-2.5 0-3.828-1.64-1.312-1.657-1.312-4.782t1.312-4.781q1.328-1.656 3.828-1.656.703 0 1.344.156.656.156 1.219.453v2.719q-.625-.579-1.219-.844-.594-.281-1.219-.281-1.344 0-2.031 1.078-.688 1.062-.688 3.156 0 2.094.688 3.172.688 1.062 2.031 1.062.625 0 1.219-.265.594-.281 1.219-.86v2.72Z"/><text x="310.5" y="232.78" fill="#D9B8FF" font-family="Helvetica" font-size="17" textLength="203">aws_ec2_security_group</text></a><a xlink:actuate="onRequest" xlink:href="#c" xlink:show="new" xlink:title="#aws_ec2_subnet" xlink:type="simple" target="_top"><rect id="c" width="179" height="39.789" x="556.5" y="207" fill="#3D176E" rx="2.5" ry="2.5" style="stroke:#000d19;stroke-width:1.5"/><circle cx="571.5" cy="226.894" r="11" fill="#E98DF7" style="stroke:#000d19;stroke-width:1"/><path d="M574.469 232.535q-.578.297-1.219.438-.64.156-1.344.156-2.5 0-3.828-1.64-1.312-1.657-1.312-4.782t1.312-4.781q1.328-1.656 3.828-1.656.703 0 1.344.156.656.156 1.219.453v2.719q-.625-.579-1.219-.844-.594-.281-1.219-.281-1.343 0-2.031 1.078-.688 1.062-.688 3.156 0 2.094.688 3.172.688 1.062 2.031 1.062.625 0 1.219-.265.594-.281 1.219-.86v2.72Z"/><text x="590.5" y="232.78" fill="#D9B8FF" font-family="Helvetica" font-size="17" textLength="137">aws_ec2_subnet</text></a><a xlink:actuate="onRequest" xlink:href="#d" xlink:show="new" xlink:title="#aws_vpc" xlink:type="simple" target="_top"><rect id="d" width="112" height="39.789" x="590" y="107" fill="#3D176E" rx="2.5" ry="2.5" style="stroke:#000d19;stroke-width:1.5"/><circle cx="605" cy="126.894" r="11" fill="#E98DF7" style="stroke:#000d19;stroke-width:1"/><path d="M607.969 132.535q-.578.297-1.219.438-.64.156-1.344.156-2.5 0-3.828-1.64-1.312-1.657-1.312-4.782t1.312-4.781q1.328-1.657 3.828-1.657.703 0 1.344.157.656.156 1.219.453v2.719q-.625-.579-1.219-.844-.594-.281-1.219-.281-1.343 0-2.031 1.078-.688 1.062-.688 3.156 0 2.094.688 3.172.688 1.062 2.031 1.062.625 0 1.219-.265.594-.281 1.219-.86v2.72Z"/><text x="624" y="132.78" fill="#D9B8FF" font-family="Helvetica" font-size="17" textLength="70">aws_vpc</text></a><a xlink:actuate="onRequest" xlink:href="#e" xlink:show="new" xlink:title="#aws_cognito_user_pool" xlink:type="simple" target="_top"><rect id="e" width="234" height="39.789" x="7" y="207" fill="#3D176E" rx="2.5" ry="2.5" style="stroke:#000d19;stroke-width:1.5"/><circle cx="22" cy="226.894" r="11" fill="#E98DF7" style="stroke:#000d19;stroke-width:1"/><path d="M24.969 232.535q-.578.297-1.219.438-.64.156-1.344.156-2.5 0-3.828-1.64-1.312-1.657-1.312-4.782t1.312-4.781q1.328-1.656 3.828-1.656.703 0 1.344.156.656.156 1.219.453v2.719q-.625-.579-1.219-.844-.594-.281-1.219-.281-1.343 0-2.031 1.078-.688 1.062-.688 3.156 0 2.094.688 3.172.688 1.062 2.031 1.062.625 0 1.219-.265.594-.281 1.219-.86v2.72Z"/><text x="41" y="232.78" fill="#D9B8FF" font-family="Helvetica" font-size="17" textLength="192">aws_cognito_user_pool</text></a><a xlink:actuate="onRequest" xlink:href="#f" xlink:show="new" xlink:title="#aws_lambda_function" xlink:type="simple" target="_top"><rect id="f" width="224" height="39.789" x="605" y="307" fill="#3D176E" rx="2.5" ry="2.5" style="stroke:#000d19;stroke-width:1.5"/><circle cx="620" cy="326.894" r="11" fill="#E98DF7" style="stroke:#000d19;stroke-width:1"/><path d="M622.969 332.535q-.578.297-1.219.438-.64.156-1.344.156-2.5 0-3.828-1.64-1.312-1.657-1.312-4.782t1.312-4.781q1.328-1.656 3.828-1.656.703 0 1.344.156.656.156 1.219.453v2.719q-.625-.579-1.219-.844-.594-.281-1.219-.281-1.343 0-2.031 1.078-.688 1.062-.688 3.156 0 2.094.688 3.172.688 1.062 2.031 1.062.625 0 1.219-.265.594-.281 1.219-.86v2.72Z"/><text x="639" y="332.78" fill="#D9B8FF" font-family="Helvetica" font-size="17" textLength="182">aws_lambda_function</text></a><a xlink:actuate="onRequest" xlink:href="#g" xlink:show="new" xlink:title="#aws_api_gateway_resource" xlink:type="simple" target="_top"><rect id="g" width="270" height="39.789" x="913" y="107" fill="#3D176E" rx="2.5" ry="2.5" style="stroke:#000d19;stroke-width:1.5"/><circle cx="928" cy="126.894" r="11" fill="#E98DF7" style="stroke:#000d19;stroke-width:1"/><path d="M930.969 132.535q-.578.297-1.219.438-.64.156-1.344.156-2.5 0-3.828-1.64-1.312-1.657-1.312-4.782t1.312-4.781q1.328-1.657 3.828-1.657.703 0 1.344.157.656.156 1.219.453v2.719q-.625-.579-1.219-.844-.594-.281-1.219-.281-1.343 0-2.031 1.078-.688 1.062-.688 3.156 0 2.094.688 3.172.688 1.062 2.031 1.062.625 0 1.219-.265.594-.281 1.219-.86v2.72Z"/><text x="947" y="132.78" fill="#D9B8FF" font-family="Helvetica" font-size="17" textLength="228">aws_api_gateway_resource</text></a><a xlink:actuate="onRequest" xlink:href="#h" xlink:show="new" xlink:title="#aws_api_gateway_authorizer" xlink:type="simple" target="_top"><rect id="h" width="285" height="39.789" x="984.5" y="207" fill="#3D176E" rx="2.5" ry="2.5" style="stroke:#000d19;stroke-width:1.5"/><circle cx="999.5" cy="226.894" r="11" fill="#E98DF7" style="stroke:#000d19;stroke-width:1"/><path d="M1002.469 232.535q-.578.297-1.219.438-.64.156-1.344.156-2.5 0-3.828-1.64-1.312-1.657-1.312-4.782t1.312-4.781q1.328-1.656 3.828-1.656.703 0 1.344.156.656.156 1.219.453v2.719q-.625-.579-1.219-.844-.594-.281-1.219-.281-1.343 0-2.031 1.078-.688 1.062-.688 3.156 0 2.094.688 3.172.688 1.062 2.031 1.062.625 0 1.219-.265.594-.281 1.219-.86v2.72Z"/><text x="1018.5" y="232.78" fill="#D9B8FF" font-family="Helvetica" font-size="17" textLength="243">aws_api_gateway_authorizer</text></a><a xlink:actuate="onRequest" xlink:href="#i" xlink:show="new" xlink:title="#aws_api_gateway_rest_api" xlink:type="simple" target="_top"><rect id="i" width="265" height="39.789" x="915.5" y="7" fill="#3D176E" rx="2.5" ry="2.5" style="stroke:#000d19;stroke-width:1.5"/><circle cx="930.5" cy="26.895" r="11" fill="#E98DF7" style="stroke:#000d19;stroke-width:1"/><path d="M933.469 32.535q-.578.297-1.219.438-.64.156-1.344.156-2.5 0-3.828-1.64-1.312-1.657-1.312-4.782t1.312-4.781q1.328-1.656 3.828-1.656.703 0 1.344.156.656.156 1.219.453v2.719q-.625-.578-1.219-.844-.594-.281-1.219-.281-1.343 0-2.031 1.078-.688 1.062-.688 3.156 0 2.094.688 3.172.688 1.062 2.031 1.062.625 0 1.219-.265.594-.281 1.219-.86v2.72Z"/><text x="949.5" y="32.78" fill="#D9B8FF" font-family="Helvetica" font-size="17" textLength="223">aws_api_gateway_rest_api</text></a><path fill="none" d="M460.69 247.01c54.44 16.78 133.61 41.18 189.52 58.41" style="stroke:#1a83af;stroke-width:2"/><path fill="#1A83AF" d="m655.21 306.96-7.427-6.468 2.648 4.999-5 2.647 9.779-1.178z" style="stroke:#1a83af;stroke-width:2"/><path fill="none" d="M660.03 247.36c11.47 15.84 27.74 38.3 39.96 55.16" style="stroke:#1a83af;stroke-width:2"/><path fill="#1A83AF" d="m703 306.68-2.047-9.634-.889 5.587-5.586-.89L703 306.68z" style="stroke:#1a83af;stroke-width:2"/><path fill="none" d="M688.42 147.1c23.67 13.15 51.05 33.1 64.58 59.9 15.75 31.2-2.83 70.54-18.61 95.24" style="stroke:#1a83af;stroke-width:2"/><path fill="#1A83AF" d="m731.49 306.68 8.279-5.335-5.538 1.153-1.154-5.538-1.587 9.72z" style="stroke:#1a83af;stroke-width:2"/><path fill="none" d="M646 147.36v54.3" style="stroke:#1a83af;stroke-width:2"/><path fill="#1A83AF" d="m646 206.68 4-9-4 4-4-4 4 9z" style="stroke:#1a83af;stroke-width:2"/><path fill="none" d="M598.08 147.01c-41.96 16.65-102.83 40.8-146.21 58.01" style="stroke:#1a83af;stroke-width:2"/><path fill="#1A83AF" d="m447.2 206.87 9.84.408-5.19-2.248 2.247-5.19-6.897 7.03z" style="stroke:#1a83af;stroke-width:2"/><path fill="none" d="M239.04 247.01c103.94 17.18 256.22 42.35 360.81 59.63" style="stroke:#1a83af;stroke-width:2"/><path fill="#1A83AF" d="m604.79 307.46-8.23-5.41 3.297 4.597-4.597 3.297 9.53-2.484z" style="stroke:#1a83af;stroke-width:2"/><path fill="none" d="M156.14 247.16c61.97 36.97 197.67 117.9 263.12 156.93" style="stroke:#1a83af;stroke-width:2"/><path fill="#1A83AF" d="m423.85 406.82-5.691-8.038 1.394 5.482-5.483 1.394 9.78 1.162z" style="stroke:#1a83af;stroke-width:2"/><path fill="none" d="M666.37 347.01c-44.34 16.65-108.67 40.8-154.5 58.01" style="stroke:#1a83af;stroke-width:2"/><path fill="#1A83AF" d="m506.94 406.87 9.832.575-5.152-2.335 2.336-5.153-7.016 6.913z" style="stroke:#1a83af;stroke-width:2"/><path fill="none" d="M1063.61 147.36c12.77 15.84 30.87 38.3 44.46 55.16" style="stroke:#1a83af;stroke-width:2"/><path fill="#1A83AF" d="m1111.42 206.68-2.512-9.523-.617 5.623-5.623-.617 8.752 4.517z" style="stroke:#1a83af;stroke-width:2"/><path fill="none" d="M1025.12 147.06C994.62 171.93 938.37 215.93 886 247c-37.7 22.36-82.77 43.16-116.89 57.8" style="stroke:#1a83af;stroke-width:2"/><path fill="#1A83AF" d="m764.16 306.91 9.848.131-5.252-2.1 2.1-5.253-6.696 7.222z" style="stroke:#1a83af;stroke-width:2"/><path fill="none" d="M1047.46 247.01c-70.61 16.88-173.49 41.47-245.65 58.72" style="stroke:#1a83af;stroke-width:2"/><path fill="#1A83AF" d="m796.67 306.96 9.686 1.785-4.825-2.954 2.954-4.824-7.815 5.993z" style="stroke:#1a83af;stroke-width:2"/><path fill="none" d="M1120.64 47.09c30.35 11.96 62.63 30.8 80.36 59.91 20.57 33.77-14.8 72.62-43.37 96.49" style="stroke:#1a83af;stroke-width:2"/><path fill="#1A83AF" d="m1153.47 206.9 9.492-2.626-5.63-.55.55-5.63-4.412 8.806z" style="stroke:#1a83af;stroke-width:2"/><path fill="none" d="M1048 47.36v54.3" style="stroke:#1a83af;stroke-width:2"/><path fill="#1A83AF" d="m1048 106.68 4-9-4 4-4-4 4 9z" style="stroke:#1a83af;stroke-width:2"/><path fill="none" d="M999.08 47.02C967.41 60.77 926.39 81.4 895 107c-61.97 50.54-62.49 78.01-113 140-15.41 18.91-33 40.27-45.99 56.01" style="stroke:#1a83af;stroke-width:2"/><path fill="#1A83AF" d="m732.81 306.89 8.814-4.395-5.631.539-.54-5.632-2.643 9.488z" style="stroke:#1a83af;stroke-width:2"/></svg>