<svg xmlns="http://www.w3.org/2000/svg" xmlns:xlink="http://www.w3.org/1999/xlink" width="5404" height="1052" preserveAspectRatio="none" style="width:5404px;height:1052px;background:#00000000"><a xlink:actuate="onRequest" xlink:href="#a" xlink:show="new" xlink:title="#aws_iam_role" xlink:type="simple" target="_top"><rect id="a" width="157" height="39.789" x="622" y="207" fill="#3D176E" rx="2.5" ry="2.5" style="stroke:#000d19;stroke-width:1.5"/><circle cx="637" cy="226.894" r="11" fill="#E98DF7" style="stroke:#000d19;stroke-width:1"/><path d="M639.969 232.535q-.578.297-1.219.438-.64.156-1.344.156-2.5 0-3.828-1.64-1.312-1.657-1.312-4.782t1.312-4.781q1.328-1.656 3.828-1.656.703 0 1.344.156.656.156 1.219.453v2.719q-.625-.579-1.219-.844-.594-.281-1.219-.281-1.343 0-2.031 1.078-.688 1.062-.688 3.156 0 2.094.688 3.172.688 1.062 2.031 1.062.625 0 1.219-.265.594-.281 1.219-.86v2.72Z"/><text x="656" y="232.78" fill="#D9B8FF" font-family="Helvetica" font-size="17" textLength="115">aws_iam_role</text></a><a xlink:actuate="onRequest" xlink:href="#b" xlink:show="new" xlink:title="#aws_iam_instance_profile" xlink:type="simple" target="_top"><rect id="b" width="257" height="39.789" x="358" y="307" fill="#3D176E" rx="2.5" ry="2.5" style="stroke:#000d19;stroke-width:1.5"/><circle cx="373" cy="326.894" r="11" fill="#E98DF7" style="stroke:#000d19;stroke-width:1"/><path d="M375.969 332.535q-.578.297-1.219.438-.64.156-1.344.156-2.5 0-3.828-1.64-1.312-1.657-1.312-4.782t1.312-4.781q1.328-1.656 3.828-1.656.703 0 1.344.156.656.156 1.219.453v2.719q-.625-.579-1.219-.844-.594-.281-1.219-.281-1.344 0-2.031 1.078-.688 1.062-.688 3.156 0 2.094.688 3.172.688 1.062 2.031 1.062.625 0 1.219-.265.594-.281 1.219-.86v2.72Z"/><text x="392" y="332.78" fill="#D9B8FF" font-family="Helvetica" font-size="17" textLength="215">aws_iam_instance_profile</text></a><a xlink:actuate="onRequest" xlink:href="#c" xlink:show="new" xlink:title="#aws_iam_policy" xlink:type="simple" target="_top"><rect id="c" width="173" height="39.789" x="151" y="407" fill="#3D176E" rx="2.5" ry="2.5" style="stroke:#000d19;stroke-width:1.5"/><circle cx="166" cy="426.894" r="11" fill="#E98DF7" style="stroke:#000d19;stroke-width:1"/><path d="M168.969 432.535q-.578.297-1.219.438-.64.156-1.344.156-2.5 0-3.828-1.64-1.312-1.657-1.312-4.782t1.312-4.781q1.328-1.656 3.828-1.656.703 0 1.344.156.656.156 1.219.453v2.719q-.625-.579-1.219-.844-.594-.281-1.219-.281-1.344 0-2.031 1.078-.688 1.062-.688 3.156 0 2.094.688 3.172.688 1.062 2.031 1.062.625 0 1.219-.265.594-.281 1.219-.86v2.72Z"/><text x="185" y="432.78" fill="#D9B8FF" font-family="Helvetica" font-size="17" textLength="131">aws_iam_policy</text></a><a xlink:actuate="onRequest" xlink:href="#d" xlink:show="new" xlink:title="#aws_eks_cluster" xlink:type="simple" target="_top"><rect id="d" width="177" height="39.789" x="722" y="307" fill="#3D176E" rx="2.5" ry="2.5" style="stroke:#000d19;stroke-width:1.5"/><circle cx="737" cy="326.894" r="11" fill="#E98DF7" style="stroke:#000d19;stroke-width:1"/><path d="M739.969 332.535q-.578.297-1.219.438-.64.156-1.344.156-2.5 0-3.828-1.64-1.312-1.657-1.312-4.782t1.312-4.781q1.328-1.656 3.828-1.656.703 0 1.344.156.656.156 1.219.453v2.719q-.625-.579-1.219-.844-.594-.281-1.219-.281-1.343 0-2.031 1.078-.688 1.062-.688 3.156 0 2.094.688 3.172.688 1.062 2.031 1.062.625 0 1.219-.265.594-.281 1.219-.86v2.72Z"/><text x="756" y="332.78" fill="#D9B8FF" font-family="Helvetica" font-size="17" textLength="135">aws_eks_cluster</text></a><a xlink:actuate="onRequest" xlink:href="#e" xlink:show="new" xlink:title="#aws_ec2_elastic_ip" xlink:type="simple" target="_top"><rect id="e" width="199" height="39.789" x="1686" y="1007" fill="#3D176E" rx="2.5" ry="2.5" style="stroke:#000d19;stroke-width:1.5"/><circle cx="1701" cy="1026.895" r="11" fill="#E98DF7" style="stroke:#000d19;stroke-width:1"/><path d="M1703.969 1032.535q-.578.297-1.219.438-.64.156-1.344.156-2.5 0-3.828-1.64-1.312-1.657-1.312-4.782t1.312-4.781q1.328-1.657 3.828-1.657.703 0 1.344.157.656.156 1.219.453v2.719q-.625-.578-1.219-.844-.594-.281-1.219-.281-1.343 0-2.031 1.078-.688 1.062-.688 3.156 0 2.094.688 3.172.688 1.062 2.031 1.062.625 0 1.219-.265.594-.281 1.219-.86v2.72Z"/><text x="1720" y="1032.78" fill="#D9B8FF" font-family="Helvetica" font-size="17" textLength="157">aws_ec2_elastic_ip</text></a><a xlink:actuate="onRequest" xlink:href="#f" xlink:show="new" xlink:title="#aws_ec2_instance" xlink:type="simple" target="_top"><rect id="f" width="192" height="39.789" x="3556.5" y="807" fill="#3D176E" rx="2.5" ry="2.5" style="stroke:#000d19;stroke-width:1.5"/><circle cx="3571.5" cy="826.894" r="11" fill="#E98DF7" style="stroke:#000d19;stroke-width:1"/><path d="M3574.469 832.535q-.578.297-1.219.438-.64.156-1.344.156-2.5 0-3.828-1.64-1.312-1.657-1.312-4.782t1.312-4.781q1.328-1.657 3.828-1.657.703 0 1.344.157.656.156 1.219.453v2.719q-.625-.578-1.219-.844-.594-.281-1.219-.281-1.343 0-2.031 1.078-.688 1.062-.688 3.156 0 2.094.688 3.172.688 1.062 2.031 1.062.625 0 1.219-.265.594-.282 1.219-.86v2.72Z"/><text x="3590.5" y="832.78" fill="#D9B8FF" font-family="Helvetica" font-size="17" textLength="150">aws_ec2_instance</text></a><a xlink:actuate="onRequest" xlink:href="#g" xlink:show="new" xlink:title="#aws_ec2_network_interface" xlink:type="simple" target="_top"><rect id="g" width="275" height="39.789" x="1648" y="907" fill="#3D176E" rx="2.5" ry="2.5" style="stroke:#000d19;stroke-width:1.5"/><circle cx="1663" cy="926.894" r="11" fill="#E98DF7" style="stroke:#000d19;stroke-width:1"/><path d="M1665.969 932.535q-.578.297-1.219.438-.64.156-1.344.156-2.5 0-3.828-1.64-1.312-1.657-1.312-4.782t1.312-4.781q1.328-1.657 3.828-1.657.703 0 1.344.157.656.156 1.219.453v2.719q-.625-.578-1.219-.844-.594-.281-1.219-.281-1.343 0-2.031 1.078-.688 1.062-.688 3.156 0 2.094.688 3.172.688 1.062 2.031 1.062.625 0 1.219-.265.594-.282 1.219-.86v2.72Z"/><text x="1682" y="932.78" fill="#D9B8FF" font-family="Helvetica" font-size="17" textLength="233">aws_ec2_network_interface</text></a><a xlink:actuate="onRequest" xlink:href="#h" xlink:show="new" xlink:title="#aws_vpc" xlink:type="simple" target="_top"><rect id="h" width="112" height="39.789" x="2295.5" y="307" fill="#3D176E" rx="2.5" ry="2.5" style="stroke:#000d19;stroke-width:1.5"/><circle cx="2310.5" cy="326.894" r="11" fill="#E98DF7" style="stroke:#000d19;stroke-width:1"/><path d="M2313.469 332.535q-.578.297-1.219.438-.64.156-1.344.156-2.5 0-3.828-1.64-1.312-1.657-1.312-4.782t1.312-4.781q1.328-1.656 3.828-1.656.703 0 1.344.156.656.156 1.219.453v2.719q-.625-.579-1.219-.844-.594-.281-1.219-.281-1.343 0-2.031 1.078-.688 1.062-.688 3.156 0 2.094.688 3.172.688 1.062 2.031 1.062.625 0 1.219-.265.594-.281 1.219-.86v2.72Z"/><text x="2329.5" y="332.78" fill="#D9B8FF" font-family="Helvetica" font-size="17" textLength="70">aws_vpc</text></a><a xlink:actuate="onRequest" xlink:href="#i" xlink:show="new" xlink:title="#aws_ec2_network_acl" xlink:type="simple" target="_top"><rect id="i" width="224" height="39.789" x="1684.5" y="407" fill="#3D176E" rx="2.5" ry="2.5" style="stroke:#000d19;stroke-width:1.5"/><circle cx="1699.5" cy="426.894" r="11" fill="#E98DF7" style="stroke:#000d19;stroke-width:1"/><path d="M1702.469 432.535q-.578.297-1.219.438-.64.156-1.344.156-2.5 0-3.828-1.64-1.312-1.657-1.312-4.782t1.312-4.781q1.328-1.656 3.828-1.656.703 0 1.344.156.656.156 1.219.453v2.719q-.625-.579-1.219-.844-.594-.281-1.219-.281-1.343 0-2.031 1.078-.688 1.062-.688 3.156 0 2.094.688 3.172.688 1.062 2.031 1.062.625 0 1.219-.265.594-.281 1.219-.86v2.72Z"/><text x="1718.5" y="432.78" fill="#D9B8FF" font-family="Helvetica" font-size="17" textLength="182">aws_ec2_network_acl</text></a><a xlink:actuate="onRequest" xlink:href="#j" xlink:show="new" xlink:title="#aws_ec2_route_table" xlink:type="simple" target="_top"><rect id="j" width="218" height="39.789" x="1218.5" y="407" fill="#3D176E" rx="2.5" ry="2.5" style="stroke:#000d19;stroke-width:1.5"/><circle cx="1233.5" cy="426.894" r="11" fill="#E98DF7" style="stroke:#000d19;stroke-width:1"/><path d="M1236.469 432.535q-.578.297-1.219.438-.64.156-1.344.156-2.5 0-3.828-1.64-1.312-1.657-1.312-4.782t1.312-4.781q1.328-1.656 3.828-1.656.703 0 1.344.156.656.156 1.219.453v2.719q-.625-.579-1.219-.844-.594-.281-1.219-.281-1.343 0-2.031 1.078-.688 1.062-.688 3.156 0 2.094.688 3.172.688 1.062 2.031 1.062.625 0 1.219-.265.594-.281 1.219-.86v2.72Z"/><text x="1252.5" y="432.78" fill="#D9B8FF" font-family="Helvetica" font-size="17" textLength="176">aws_ec2_route_table</text></a><a xlink:actuate="onRequest" xlink:href="#k" xlink:show="new" xlink:title="#aws_vpc_endpoint" xlink:type="simple" target="_top"><rect id="k" width="195" height="39.789" x="1535" y="607" fill="#3D176E" rx="2.5" ry="2.5" style="stroke:#000d19;stroke-width:1.5"/><circle cx="1550" cy="626.894" r="11" fill="#E98DF7" style="stroke:#000d19;stroke-width:1"/><path d="M1552.969 632.535q-.578.297-1.219.438-.64.156-1.344.156-2.5 0-3.828-1.64-1.312-1.657-1.312-4.782t1.312-4.781q1.328-1.657 3.828-1.657.703 0 1.344.157.656.156 1.219.453v2.719q-.625-.578-1.219-.844-.594-.281-1.219-.281-1.343 0-2.031 1.078-.688 1.062-.688 3.156 0 2.094.688 3.172.688 1.062 2.031 1.062.625 0 1.219-.265.594-.282 1.219-.86v2.72Z"/><text x="1569" y="632.78" fill="#D9B8FF" font-family="Helvetica" font-size="17" textLength="153">aws_vpc_endpoint</text></a><a xlink:actuate="onRequest" xlink:href="#l" xlink:show="new" xlink:title="#aws_vpc_peering_connection" xlink:type="simple" target="_top"><rect id="l" width="284" height="39.789" x="2653.5" y="407" fill="#3D176E" rx="2.5" ry="2.5" style="stroke:#000d19;stroke-width:1.5"/><circle cx="2668.5" cy="426.894" r="11" fill="#E98DF7" style="stroke:#000d19;stroke-width:1"/><path d="M2671.469 432.535q-.578.297-1.219.438-.64.156-1.344.156-2.5 0-3.828-1.64-1.312-1.657-1.312-4.782t1.312-4.781q1.328-1.656 3.828-1.656.703 0 1.344.156.656.156 1.219.453v2.719q-.625-.579-1.219-.844-.594-.281-1.219-.281-1.343 0-2.031 1.078-.688 1.062-.688 3.156 0 2.094.688 3.172.688 1.062 2.031 1.062.625 0 1.219-.265.594-.281 1.219-.86v2.72Z"/><text x="2687.5" y="432.78" fill="#D9B8FF" font-family="Helvetica" font-size="17" textLength="242">aws_vpc_peering_connection</text></a><a xlink:actuate="onRequest" xlink:href="#m" xlink:show="new" xlink:title="#aws_ec2_internet_gateway" xlink:type="simple" target="_top"><rect id="m" width="271" height="39.789" x="3044" y="407" fill="#3D176E" rx="2.5" ry="2.5" style="stroke:#000d19;stroke-width:1.5"/><circle cx="3059" cy="426.894" r="11" fill="#E98DF7" style="stroke:#000d19;stroke-width:1"/><path d="M3061.969 432.535q-.578.297-1.219.438-.64.156-1.344.156-2.5 0-3.828-1.64-1.312-1.657-1.312-4.782t1.312-4.781q1.328-1.656 3.828-1.656.703 0 1.344.156.656.156 1.219.453v2.719q-.625-.579-1.219-.844-.594-.281-1.219-.281-1.343 0-2.031 1.078-.688 1.062-.688 3.156 0 2.094.688 3.172.688 1.062 2.031 1.062.625 0 1.219-.265.594-.281 1.219-.86v2.72Z"/><text x="3078" y="432.78" fill="#D9B8FF" font-family="Helvetica" font-size="17" textLength="229">aws_ec2_internet_gateway</text></a><a xlink:actuate="onRequest" xlink:href="#n" xlink:show="new" xlink:title="#aws_alb" xlink:type="simple" target="_top"><rect id="n" width="109" height="39.789" x="3006" y="607" fill="#3D176E" rx="2.5" ry="2.5" style="stroke:#000d19;stroke-width:1.5"/><circle cx="3021" cy="626.894" r="11" fill="#E98DF7" style="stroke:#000d19;stroke-width:1"/><path d="M3023.969 632.535q-.578.297-1.219.438-.64.156-1.344.156-2.5 0-3.828-1.64-1.312-1.657-1.312-4.782t1.312-4.781q1.328-1.657 3.828-1.657.703 0 1.344.157.656.156 1.219.453v2.719q-.625-.578-1.219-.844-.594-.281-1.219-.281-1.343 0-2.031 1.078-.688 1.062-.688 3.156 0 2.094.688 3.172.688 1.062 2.031 1.062.625 0 1.219-.265.594-.282 1.219-.86v2.72Z"/><text x="3040" y="632.78" fill="#D9B8FF" font-family="Helvetica" font-size="17" textLength="67">aws_alb</text></a><a xlink:actuate="onRequest" xlink:href="#o" xlink:show="new" xlink:title="#aws_rds_instance" xlink:type="simple" target="_top"><rect id="o" width="188" height="39.789" x="1838.5" y="607" fill="#3D176E" rx="2.5" ry="2.5" style="stroke:#000d19;stroke-width:1.5"/><circle cx="1853.5" cy="626.894" r="11" fill="#E98DF7" style="stroke:#000d19;stroke-width:1"/><path d="M1856.469 632.535q-.578.297-1.219.438-.64.156-1.344.156-2.5 0-3.828-1.64-1.312-1.657-1.312-4.782t1.312-4.781q1.328-1.657 3.828-1.657.703 0 1.344.157.656.156 1.219.453v2.719q-.625-.578-1.219-.844-.594-.281-1.219-.281-1.343 0-2.031 1.078-.688 1.062-.688 3.156 0 2.094.688 3.172.688 1.062 2.031 1.062.625 0 1.219-.265.594-.282 1.219-.86v2.72Z"/><text x="1872.5" y="632.78" fill="#D9B8FF" font-family="Helvetica" font-size="17" textLength="146">aws_rds_instance</text></a><a xlink:actuate="onRequest" xlink:href="#p" xlink:show="new" xlink:title="#aws_ec2_subnet" xlink:type="simple" target="_top"><rect id="p" width="179" height="39.789" x="1705" y="507" fill="#3D176E" rx="2.5" ry="2.5" style="stroke:#000d19;stroke-width:1.5"/><circle cx="1720" cy="526.894" r="11" fill="#E98DF7" style="stroke:#000d19;stroke-width:1"/><path d="M1722.969 532.535q-.578.297-1.219.438-.64.156-1.344.156-2.5 0-3.828-1.64-1.312-1.657-1.312-4.782t1.312-4.781q1.328-1.657 3.828-1.657.703 0 1.344.157.656.156 1.219.453v2.719q-.625-.578-1.219-.844-.594-.281-1.219-.281-1.343 0-2.031 1.078-.688 1.062-.688 3.156 0 2.094.688 3.172.688 1.062 2.031 1.062.625 0 1.219-.265.594-.282 1.219-.86v2.72Z"/><text x="1739" y="532.78" fill="#D9B8FF" font-family="Helvetica" font-size="17" textLength="137">aws_ec2_subnet</text></a><a xlink:actuate="onRequest" xlink:href="#q" xlink:show="new" xlink:title="#aws_ec2_security_group" xlink:type="simple" target="_top"><rect id="q" width="245" height="39.789" x="2133" y="507" fill="#3D176E" rx="2.5" ry="2.5" style="stroke:#000d19;stroke-width:1.5"/><circle cx="2148" cy="526.894" r="11" fill="#E98DF7" style="stroke:#000d19;stroke-width:1"/><path d="M2150.969 532.535q-.578.297-1.219.438-.64.156-1.344.156-2.5 0-3.828-1.64-1.312-1.657-1.312-4.782t1.312-4.781q1.328-1.657 3.828-1.657.703 0 1.344.157.656.156 1.219.453v2.719q-.625-.578-1.219-.844-.594-.281-1.219-.281-1.343 0-2.031 1.078-.688 1.062-.688 3.156 0 2.094.688 3.172.688 1.062 2.031 1.062.625 0 1.219-.265.594-.282 1.219-.86v2.72Z"/><text x="2167" y="532.78" fill="#D9B8FF" font-family="Helvetica" font-size="17" textLength="203">aws_ec2_security_group</text></a><a xlink:actuate="onRequest" xlink:href="#r" xlink:show="new" xlink:title="#aws_alb_target_group" xlink:type="simple" target="_top"><rect id="r" width="226" height="39.789" x="3178.5" y="707" fill="#3D176E" rx="2.5" ry="2.5" style="stroke:#000d19;stroke-width:1.5"/><circle cx="3193.5" cy="726.894" r="11" fill="#E98DF7" style="stroke:#000d19;stroke-width:1"/><path d="M3196.469 732.535q-.578.297-1.219.438-.64.156-1.344.156-2.5 0-3.828-1.64-1.312-1.657-1.312-4.782t1.312-4.781q1.328-1.657 3.828-1.657.703 0 1.344.157.656.156 1.219.453v2.719q-.625-.578-1.219-.844-.594-.281-1.219-.281-1.343 0-2.031 1.078-.688 1.062-.688 3.156 0 2.094.688 3.172.688 1.062 2.031 1.062.625 0 1.219-.265.594-.282 1.219-.86v2.72Z"/><text x="3212.5" y="732.78" fill="#D9B8FF" font-family="Helvetica" font-size="17" textLength="184">aws_alb_target_group</text></a><a xlink:actuate="onRequest" xlink:href="#s" xlink:show="new" xlink:title="#aws_elb" xlink:type="simple" target="_top"><rect id="s" width="109" height="39.789" x="2485" y="607" fill="#3D176E" rx="2.5" ry="2.5" style="stroke:#000d19;stroke-width:1.5"/><circle cx="2500" cy="626.894" r="11" fill="#E98DF7" style="stroke:#000d19;stroke-width:1"/><path d="M2502.969 632.535q-.578.297-1.219.438-.64.156-1.344.156-2.5 0-3.828-1.64-1.312-1.657-1.312-4.782t1.312-4.781q1.328-1.657 3.828-1.657.703 0 1.344.157.656.156 1.219.453v2.719q-.625-.578-1.219-.844-.594-.281-1.219-.281-1.343 0-2.031 1.078-.688 1.062-.688 3.156 0 2.094.688 3.172.688 1.062 2.031 1.062.625 0 1.219-.265.594-.282 1.219-.86v2.72Z"/><text x="2519" y="632.78" fill="#D9B8FF" font-family="Helvetica" font-size="17" textLength="67">aws_elb</text></a><a xlink:actuate="onRequest" xlink:href="#t" xlink:show="new" xlink:title="#aws_ec2_nat_gateway" xlink:type="simple" target="_top"><rect id="t" width="231" height="39.789" x="1577" y="207" fill="#3D176E" rx="2.5" ry="2.5" style="stroke:#000d19;stroke-width:1.5"/><circle cx="1592" cy="226.894" r="11" fill="#E98DF7" style="stroke:#000d19;stroke-width:1"/><path d="M1594.969 232.535q-.578.297-1.219.438-.64.156-1.344.156-2.5 0-3.828-1.64-1.312-1.657-1.312-4.782t1.312-4.781q1.328-1.656 3.828-1.656.703 0 1.344.156.656.156 1.219.453v2.719q-.625-.579-1.219-.844-.594-.281-1.219-.281-1.343 0-2.031 1.078-.688 1.062-.688 3.156 0 2.094.688 3.172.688 1.062 2.031 1.062.625 0 1.219-.265.594-.281 1.219-.86v2.72Z"/><text x="1611" y="232.78" fill="#D9B8FF" font-family="Helvetica" font-size="17" textLength="189">aws_ec2_nat_gateway</text></a><a xlink:actuate="onRequest" xlink:href="#u" xlink:show="new" xlink:title="#aws_s3_bucket" xlink:type="simple" target="_top"><rect id="u" width="168" height="39.789" x="4598.5" y="207" fill="#3D176E" rx="2.5" ry="2.5" style="stroke:#000d19;stroke-width:1.5"/><circle cx="4613.5" cy="226.894" r="11" fill="#E98DF7" style="stroke:#000d19;stroke-width:1"/><path d="M4616.469 232.535q-.578.297-1.219.438-.64.156-1.344.156-2.5 0-3.828-1.64-1.312-1.657-1.312-4.782t1.312-4.781q1.328-1.656 3.828-1.656.703 0 1.344.156.656.156 1.219.453v2.719q-.625-.579-1.219-.844-.594-.281-1.219-.281-1.343 0-2.031 1.078-.688 1.062-.688 3.156 0 2.094.688 3.172.688 1.062 2.031 1.062.625 0 1.219-.265.594-.281 1.219-.86v2.72Z"/><text x="4632.5" y="232.78" fill="#D9B8FF" font-family="Helvetica" font-size="17" textLength="126">aws_s3_bucket</text></a><a xlink:actuate="onRequest" xlink:href="#v" xlink:show="new" xlink:title="#aws_account" xlink:type="simple" target="_top"><rect id="v" width="149" height="39.789" x="2809" y="7" fill="#3D176E" rx="2.5" ry="2.5" style="stroke:#000d19;stroke-width:1.5"/><circle cx="2824" cy="26.895" r="11" fill="#E98DF7" style="stroke:#000d19;stroke-width:1"/><path d="M2826.969 32.535q-.578.297-1.219.438-.64.156-1.344.156-2.5 0-3.828-1.64-1.312-1.657-1.312-4.782t1.312-4.781q1.328-1.656 3.828-1.656.703 0 1.344.156.656.156 1.219.453v2.719q-.625-.578-1.219-.844-.594-.281-1.219-.281-1.343 0-2.031 1.078-.688 1.062-.688 3.156 0 2.094.688 3.172.688 1.062 2.031 1.062.625 0 1.219-.265.594-.281 1.219-.86v2.72Z"/><text x="2843" y="32.78" fill="#D9B8FF" font-family="Helvetica" font-size="17" textLength="107">aws_account</text></a><a xlink:actuate="onRequest" xlink:href="#w" xlink:show="new" xlink:title="#aws_cloudwatch_alarm" xlink:type="simple" target="_top"><rect id="w" width="237" height="39.789" x="3581" y="907" fill="#3D176E" rx="2.5" ry="2.5" style="stroke:#000d19;stroke-width:1.5"/><circle cx="3596" cy="926.894" r="11" fill="#E98DF7" style="stroke:#000d19;stroke-width:1"/><path d="M3598.969 932.535q-.578.297-1.219.438-.64.156-1.344.156-2.5 0-3.828-1.64-1.312-1.657-1.312-4.782t1.312-4.781q1.328-1.657 3.828-1.657.703 0 1.344.157.656.156 1.219.453v2.719q-.625-.578-1.219-.844-.594-.281-1.219-.281-1.343 0-2.031 1.078-.688 1.062-.688 3.156 0 2.094.688 3.172.688 1.062 2.031 1.062.625 0 1.219-.265.594-.282 1.219-.86v2.72Z"/><text x="3615" y="932.78" fill="#D9B8FF" font-family="Helvetica" font-size="17" textLength="195">aws_cloudwatch_alarm</text></a><a xlink:actuate="onRequest" xlink:href="#x" xlink:show="new" xlink:title="#aws_iam_server_certificate" xlink:type="simple" target="_top"><rect id="x" width="269" height="39.789" x="3115" y="307" fill="#3D176E" rx="2.5" ry="2.5" style="stroke:#000d19;stroke-width:1.5"/><circle cx="3130" cy="326.894" r="11" fill="#E98DF7" style="stroke:#000d19;stroke-width:1"/><path d="M3132.969 332.535q-.578.297-1.219.438-.64.156-1.344.156-2.5 0-3.828-1.64-1.312-1.657-1.312-4.782t1.312-4.781q1.328-1.656 3.828-1.656.703 0 1.344.156.656.156 1.219.453v2.719q-.625-.579-1.219-.844-.594-.281-1.219-.281-1.343 0-2.031 1.078-.688 1.062-.688 3.156 0 2.094.688 3.172.688 1.062 2.031 1.062.625 0 1.219-.265.594-.281 1.219-.86v2.72Z"/><text x="3149" y="332.78" fill="#D9B8FF" font-family="Helvetica" font-size="17" textLength="227">aws_iam_server_certificate</text></a><a xlink:actuate="onRequest" xlink:href="#y" xlink:show="new" xlink:title="#aws_iam_group" xlink:type="simple" target="_top"><rect id="y" width="173" height="39.789" x="7" y="207" fill="#3D176E" rx="2.5" ry="2.5" style="stroke:#000d19;stroke-width:1.5"/><circle cx="22" cy="226.894" r="11" fill="#E98DF7" style="stroke:#000d19;stroke-width:1"/><path d="M24.969 232.535q-.578.297-1.219.438-.64.156-1.344.156-2.5 0-3.828-1.64-1.312-1.657-1.312-4.782t1.312-4.781q1.328-1.656 3.828-1.656.703 0 1.344.156.656.156 1.219.453v2.719q-.625-.579-1.219-.844-.594-.281-1.219-.281-1.343 0-2.031 1.078-.688 1.062-.688 3.156 0 2.094.688 3.172.688 1.062 2.031 1.062.625 0 1.219-.265.594-.281 1.219-.86v2.72Z"/><text x="41" y="232.78" fill="#D9B8FF" font-family="Helvetica" font-size="17" textLength="131">aws_iam_group</text></a><a xlink:actuate="onRequest" xlink:href="#z" xlink:show="new" xlink:title="#aws_iam_user" xlink:type="simple" target="_top"><rect id="z" width="161" height="39.789" x="90" y="307" fill="#3D176E" rx="2.5" ry="2.5" style="stroke:#000d19;stroke-width:1.5"/><circle cx="105" cy="326.894" r="11" fill="#E98DF7" style="stroke:#000d19;stroke-width:1"/><path d="M107.969 332.535q-.578.297-1.219.438-.64.156-1.344.156-2.5 0-3.828-1.64-1.312-1.657-1.312-4.782t1.312-4.781q1.328-1.656 3.828-1.656.703 0 1.344.156.656.156 1.219.453v2.719q-.625-.579-1.219-.844-.594-.281-1.219-.281-1.344 0-2.031 1.078-.688 1.062-.688 3.156 0 2.094.688 3.172.688 1.062 2.031 1.062.625 0 1.219-.265.594-.281 1.219-.86v2.72Z"/><text x="124" y="332.78" fill="#D9B8FF" font-family="Helvetica" font-size="17" textLength="119">aws_iam_user</text></a><a xlink:actuate="onRequest" xlink:href="#A" xlink:show="new" xlink:title="#aws_ec2_instance_type" xlink:type="simple" target="_top"><rect id="A" width="238" height="39.789" x="3632.5" y="307" fill="#3D176E" rx="2.5" ry="2.5" style="stroke:#000d19;stroke-width:1.5"/><circle cx="3647.5" cy="326.894" r="11" fill="#E98DF7" style="stroke:#000d19;stroke-width:1"/><path d="M3650.469 332.535q-.578.297-1.219.438-.64.156-1.344.156-2.5 0-3.828-1.64-1.312-1.657-1.312-4.782t1.312-4.781q1.328-1.656 3.828-1.656.703 0 1.344.156.656.156 1.219.453v2.719q-.625-.579-1.219-.844-.594-.281-1.219-.281-1.343 0-2.031 1.078-.688 1.062-.688 3.156 0 2.094.688 3.172.688 1.062 2.031 1.062.625 0 1.219-.265.594-.281 1.219-.86v2.72Z"/><text x="3666.5" y="332.78" fill="#D9B8FF" font-family="Helvetica" font-size="17" textLength="196">aws_ec2_instance_type</text></a><a xlink:actuate="onRequest" xlink:href="#B" xlink:show="new" xlink:title="#aws_region" xlink:type="simple" target="_top"><rect id="B" width="137" height="39.789" x="2815" y="107" fill="#3D176E" rx="2.5" ry="2.5" style="stroke:#000d19;stroke-width:1.5"/><circle cx="2830" cy="126.894" r="11" fill="#E98DF7" style="stroke:#000d19;stroke-width:1"/><path d="M2832.969 132.535q-.578.297-1.219.438-.64.156-1.344.156-2.5 0-3.828-1.64-1.312-1.657-1.312-4.782t1.312-4.781q1.328-1.657 3.828-1.657.703 0 1.344.157.656.156 1.219.453v2.719q-.625-.579-1.219-.844-.594-.281-1.219-.281-1.343 0-2.031 1.078-.688 1.062-.688 3.156 0 2.094.688 3.172.688 1.062 2.031 1.062.625 0 1.219-.265.594-.281 1.219-.86v2.72Z"/><text x="2849" y="132.78" fill="#D9B8FF" font-family="Helvetica" font-size="17" textLength="95">aws_region</text></a><a xlink:actuate="onRequest" xlink:href="#C" xlink:show="new" xlink:title="#aws_ec2_volume_type" xlink:type="simple" target="_top"><rect id="C" width="231" height="39.789" x="4190" y="307" fill="#3D176E" rx="2.5" ry="2.5" style="stroke:#000d19;stroke-width:1.5"/><circle cx="4205" cy="326.894" r="11" fill="#E98DF7" style="stroke:#000d19;stroke-width:1"/><path d="M4207.969 332.535q-.578.297-1.219.438-.64.156-1.344.156-2.5 0-3.828-1.64-1.312-1.657-1.312-4.782t1.312-4.781q1.328-1.656 3.828-1.656.703 0 1.344.156.656.156 1.219.453v2.719q-.625-.579-1.219-.844-.594-.281-1.219-.281-1.343 0-2.031 1.078-.688 1.062-.688 3.156 0 2.094.688 3.172.688 1.062 2.031 1.062.625 0 1.219-.265.594-.281 1.219-.86v2.72Z"/><text x="4224" y="332.78" fill="#D9B8FF" font-family="Helvetica" font-size="17" textLength="189">aws_ec2_volume_type</text></a><a xlink:actuate="onRequest" xlink:href="#D" xlink:show="new" xlink:title="#aws_cloudformation_stack" xlink:type="simple" target="_top"><rect id="D" width="263" height="39.789" x="4802" y="207" fill="#3D176E" rx="2.5" ry="2.5" style="stroke:#000d19;stroke-width:1.5"/><circle cx="4817" cy="226.894" r="11" fill="#E98DF7" style="stroke:#000d19;stroke-width:1"/><path d="M4819.969 232.535q-.578.297-1.219.438-.64.156-1.344.156-2.5 0-3.828-1.64-1.312-1.657-1.312-4.782t1.312-4.781q1.328-1.656 3.828-1.656.703 0 1.344.156.656.156 1.219.453v2.719q-.625-.579-1.219-.844-.594-.281-1.219-.281-1.343 0-2.031 1.078-.688 1.062-.688 3.156 0 2.094.688 3.172.688 1.062 2.031 1.062.625 0 1.219-.265.594-.281 1.219-.86v2.72Z"/><text x="4836" y="232.78" fill="#D9B8FF" font-family="Helvetica" font-size="17" textLength="221">aws_cloudformation_stack</text></a><a xlink:actuate="onRequest" xlink:href="#E" xlink:show="new" xlink:title="#aws_ec2_volume" xlink:type="simple" target="_top"><rect id="E" width="185" height="39.789" x="4283" y="907" fill="#3D176E" rx="2.5" ry="2.5" style="stroke:#000d19;stroke-width:1.5"/><circle cx="4298" cy="926.894" r="11" fill="#E98DF7" style="stroke:#000d19;stroke-width:1"/><path d="M4300.969 932.535q-.578.297-1.219.438-.64.156-1.344.156-2.5 0-3.828-1.64-1.312-1.657-1.312-4.782t1.312-4.781q1.328-1.657 3.828-1.657.703 0 1.344.157.656.156 1.219.453v2.719q-.625-.578-1.219-.844-.594-.281-1.219-.281-1.343 0-2.031 1.078-.688 1.062-.688 3.156 0 2.094.688 3.172.688 1.062 2.031 1.062.625 0 1.219-.265.594-.282 1.219-.86v2.72Z"/><text x="4317" y="932.78" fill="#D9B8FF" font-family="Helvetica" font-size="17" textLength="143">aws_ec2_volume</text></a><a xlink:actuate="onRequest" xlink:href="#F" xlink:show="new" xlink:title="#aws_ec2_keypair" xlink:type="simple" target="_top"><rect id="F" width="184" height="39.789" x="3970.5" y="907" fill="#3D176E" rx="2.5" ry="2.5" style="stroke:#000d19;stroke-width:1.5"/><circle cx="3985.5" cy="926.894" r="11" fill="#E98DF7" style="stroke:#000d19;stroke-width:1"/><path d="M3988.469 932.535q-.578.297-1.219.438-.64.156-1.344.156-2.5 0-3.828-1.64-1.312-1.657-1.312-4.782t1.312-4.781q1.328-1.657 3.828-1.657.703 0 1.344.157.656.156 1.219.453v2.719q-.625-.578-1.219-.844-.594-.281-1.219-.281-1.343 0-2.031 1.078-.688 1.062-.688 3.156 0 2.094.688 3.172.688 1.062 2.031 1.062.625 0 1.219-.265.594-.282 1.219-.86v2.72Z"/><text x="4004.5" y="932.78" fill="#D9B8FF" font-family="Helvetica" font-size="17" textLength="142">aws_ec2_keypair</text></a><a xlink:actuate="onRequest" xlink:href="#G" xlink:show="new" xlink:title="#aws_cloudformation_stack_set" xlink:type="simple" target="_top"><rect id="G" width="297" height="39.789" x="5100" y="207" fill="#3D176E" rx="2.5" ry="2.5" style="stroke:#000d19;stroke-width:1.5"/><circle cx="5115" cy="226.894" r="11" fill="#E98DF7" style="stroke:#000d19;stroke-width:1"/><path d="M5117.969 232.535q-.578.297-1.219.438-.64.156-1.344.156-2.5 0-3.828-1.64-1.312-1.657-1.312-4.782t1.312-4.781q1.328-1.656 3.828-1.656.703 0 1.344.156.656.156 1.219.453v2.719q-.625-.579-1.219-.844-.594-.281-1.219-.281-1.343 0-2.031 1.078-.688 1.062-.688 3.156 0 2.094.688 3.172.688 1.062 2.031 1.062.625 0 1.219-.265.594-.281 1.219-.86v2.72Z"/><text x="5134" y="232.78" fill="#D9B8FF" font-family="Helvetica" font-size="17" textLength="255">aws_cloudformation_stack_set</text></a><a xlink:actuate="onRequest" xlink:href="#H" xlink:show="new" xlink:title="#aws_service_quota" xlink:type="simple" target="_top"><rect id="H" width="199" height="39.789" x="3327" y="207" fill="#3D176E" rx="2.5" ry="2.5" style="stroke:#000d19;stroke-width:1.5"/><circle cx="3342" cy="226.894" r="11" fill="#E98DF7" style="stroke:#000d19;stroke-width:1"/><path d="M3344.969 232.535q-.578.297-1.219.438-.64.156-1.344.156-2.5 0-3.828-1.64-1.312-1.657-1.312-4.782t1.312-4.781q1.328-1.656 3.828-1.656.703 0 1.344.156.656.156 1.219.453v2.719q-.625-.579-1.219-.844-.594-.281-1.219-.281-1.343 0-2.031 1.078-.688 1.062-.688 3.156 0 2.094.688 3.172.688 1.062 2.031 1.062.625 0 1.219-.265.594-.281 1.219-.86v2.72Z"/><text x="3361" y="232.78" fill="#D9B8FF" font-family="Helvetica" font-size="17" textLength="157">aws_service_quota</text></a><a xlink:actuate="onRequest" xlink:href="#I" xlink:show="new" xlink:title="#aws_autoscaling_group" xlink:type="simple" target="_top"><rect id="I" width="236" height="39.789" x="3776.5" y="707" fill="#3D176E" rx="2.5" ry="2.5" style="stroke:#000d19;stroke-width:1.5"/><circle cx="3791.5" cy="726.894" r="11" fill="#E98DF7" style="stroke:#000d19;stroke-width:1"/><path d="M3794.469 732.535q-.578.297-1.219.438-.64.156-1.344.156-2.5 0-3.828-1.64-1.312-1.657-1.312-4.782t1.312-4.781q1.328-1.657 3.828-1.657.703 0 1.344.157.656.156 1.219.453v2.719q-.625-.578-1.219-.844-.594-.281-1.219-.281-1.343 0-2.031 1.078-.688 1.062-.688 3.156 0 2.094.688 3.172.688 1.062 2.031 1.062.625 0 1.219-.265.594-.282 1.219-.86v2.72Z"/><text x="3810.5" y="732.78" fill="#D9B8FF" font-family="Helvetica" font-size="17" textLength="194">aws_autoscaling_group</text></a><a xlink:actuate="onRequest" xlink:href="#J" xlink:show="new" xlink:title="#aws_ec2_snapshot" xlink:type="simple" target="_top"><rect id="J" width="197" height="39.789" x="4373" y="1007" fill="#3D176E" rx="2.5" ry="2.5" style="stroke:#000d19;stroke-width:1.5"/><circle cx="4388" cy="1026.895" r="11" fill="#E98DF7" style="stroke:#000d19;stroke-width:1"/><path d="M4390.969 1032.535q-.578.297-1.219.438-.64.156-1.344.156-2.5 0-3.828-1.64-1.312-1.657-1.312-4.782t1.312-4.781q1.328-1.657 3.828-1.657.703 0 1.344.157.656.156 1.219.453v2.719q-.625-.578-1.219-.844-.594-.281-1.219-.281-1.343 0-2.031 1.078-.688 1.062-.688 3.156 0 2.094.688 3.172.688 1.062 2.031 1.062.625 0 1.219-.265.594-.281 1.219-.86v2.72Z"/><text x="4407" y="1032.78" fill="#D9B8FF" font-family="Helvetica" font-size="17" textLength="155">aws_ec2_snapshot</text></a><path fill="none" d="M658.98 247.01c-36.06 16.52-88.24 40.41-125.75 57.59" style="stroke:#1a83af;stroke-width:2"/><path fill="#1A83AF" d="m528.26 306.87 9.848-.12-5.304-1.966 1.966-5.304-6.51 7.39z" style="stroke:#1a83af;stroke-width:2"/><path fill="none" d="M695.12 247.06c-8.59 26.78-28.07 75.04-62.62 99.94-47.56 34.28-202.27 57.55-303.36 69.52" style="stroke:#1a83af;stroke-width:2"/><path fill="#1A83AF" d="m324.07 417.12 9.406 2.92-4.44-3.505 3.504-4.44-8.47 5.025z" style="stroke:#1a83af;stroke-width:2"/><path fill="none" d="M721.97 247.13c18.02 16.05 43.8 39.02 62.9 56.04" style="stroke:#1a83af;stroke-width:2"/><path fill="#1A83AF" d="m789.08 306.92-4.07-8.969.333 5.647-5.647.332 9.384 2.99z" style="stroke:#1a83af;stroke-width:2"/><path fill="none" d="M3748.51 841.01c137.76 18.68 390.16 52.89 529.01 71.71" style="stroke:#1a83af;stroke-width:2"/><path fill="#1A83AF" d="m4282.82 913.44-8.382-5.172 3.427 4.5-4.5 3.428 9.455-2.756z" style="stroke:#1a83af;stroke-width:2"/><path fill="none" d="M3556.38 833.05c-306.77 16.1-1263.61 66.32-1628 85.45" style="stroke:#1a83af;stroke-width:2"/><path fill="#1A83AF" d="m1923.32 918.77 9.204 3.505-4.211-3.777 3.776-4.211-8.769 4.483z" style="stroke:#1a83af;stroke-width:2"/><path fill="none" d="M3556.38 838.19c-318.14 33.74-1335.39 141.63-1666 176.69" style="stroke:#1a83af;stroke-width:2"/><path fill="#1A83AF" d="m1885.08 1015.44 9.373 3.026-4.401-3.555 3.555-4.4-8.527 4.929z" style="stroke:#1a83af;stroke-width:2"/><path fill="none" d="M3732.04 847.01c70.61 16.88 173.49 41.47 245.65 58.72" style="stroke:#1a83af;stroke-width:2"/><path fill="#1A83AF" d="m3982.83 906.96-7.815-5.993 2.954 4.824-4.825 2.954 9.686-1.785z" style="stroke:#1a83af;stroke-width:2"/><path fill="none" d="M3661.79 847.36c7.53 15.71 18.18 37.92 26.24 54.73" style="stroke:#1a83af;stroke-width:2"/><path fill="#1A83AF" d="m3690.23 906.68-.297-9.844-1.87 5.338-5.339-1.87 7.506 6.376z" style="stroke:#1a83af;stroke-width:2"/><path fill="none" d="M1785.5 947.36v54.3" style="stroke:#1a83af;stroke-width:2"/><path fill="#1A83AF" d="m1785.5 1006.68 4-9-4 4-4-4 4 9z" style="stroke:#1a83af;stroke-width:2"/><path fill="none" d="M2295.49 337.89c-90.04 15.9-268.73 47.45-386.03 68.16" style="stroke:#1a83af;stroke-width:2"/><path fill="#1A83AF" d="m1904.27 406.97 9.56 2.367-4.637-3.24 3.24-4.637-8.163 5.51z" style="stroke:#1a83af;stroke-width:2"/><path fill="none" d="M2295.35 333.37c-162.28 15.53-634.3 60.71-853.51 81.69" style="stroke:#1a83af;stroke-width:2"/><path fill="#1A83AF" d="m1436.71 415.55 9.346 3.106-4.37-3.592 3.592-4.37-8.568 4.856z" style="stroke:#1a83af;stroke-width:2"/><path fill="none" d="M2295.27 330.63c-155.65 7.8-583.68 33.02-628.77 76.37-53.41 51.36-45.7 149.38-38.61 194.79" style="stroke:#1a83af;stroke-width:2"/><path fill="#1A83AF" d="m1628.71 606.8 2.506-9.525-3.307 4.59-4.59-3.308 5.391 8.243z" style="stroke:#1a83af;stroke-width:2"/><path fill="none" d="M2407.73 340.41c74.66 16.48 207.44 45.79 296.54 65.45" style="stroke:#1a83af;stroke-width:2"/><path fill="#1A83AF" d="m2709.28 406.97-7.934-5.835 3.05 4.764-4.764 3.05 9.648-1.979z" style="stroke:#1a83af;stroke-width:2"/><path fill="none" d="M2407.76 334.66c128.29 15.18 445.65 52.75 630.99 74.68" style="stroke:#1a83af;stroke-width:2"/><path fill="#1A83AF" d="m3043.93 409.95-8.454-5.053 3.49 4.452-4.451 3.49 9.415-2.889z" style="stroke:#1a83af;stroke-width:2"/><path fill="none" d="M2404.89 347.11c41.49 15.22 100.25 37.61 150.61 59.89 36.35 16.08 43.89 23.39 80 40 132.29 60.85 291.13 125.59 372.01 157.98" style="stroke:#1a83af;stroke-width:2"/><path fill="#1A83AF" d="m3012.25 606.87-6.87-7.056 2.228 5.199-5.2 2.228 9.842-.371z" style="stroke:#1a83af;stroke-width:2"/><path fill="none" d="M2313.44 347.1c-58.51 30.17-172.9 92.4-259.94 159.9-38.46 29.82-77.66 70.7-100.63 95.95" style="stroke:#1a83af;stroke-width:2"/><path fill="#1A83AF" d="m1949.32 606.86 9.01-3.977-5.65.274-.275-5.65-3.085 9.353z" style="stroke:#1a83af;stroke-width:2"/><path fill="none" d="M2297.84 347.07c-104.91 37.3-336.42 119.59-444.99 158.19" style="stroke:#1a83af;stroke-width:2"/><path fill="#1A83AF" d="m1848.09 506.95 9.82.763-5.107-2.434 2.433-5.106-7.146 6.777z" style="stroke:#1a83af;stroke-width:2"/><path fill="none" d="M2342.12 347.35c-17.68 36.46-55.89 115.26-75.1 154.89" style="stroke:#1a83af;stroke-width:2"/><path fill="#1A83AF" d="m2264.78 506.87 7.53-6.348-5.345 1.85-1.85-5.345-.335 9.843z" style="stroke:#1a83af;stroke-width:2"/><path fill="none" d="M2355.91 347.15c14.73 62.4 64.02 258.24 111.59 299.85 160.87 140.73 826.82 170.87 1083.49 177.28" style="stroke:#1a83af;stroke-width:2"/><path fill="#1A83AF" d="m3556.23 824.41-8.894-4.23 3.896 4.102-4.102 3.895 9.1-3.767z" style="stroke:#1a83af;stroke-width:2"/><path fill="none" d="M2381.43 347.15c38.62 24.4 108.21 67.31 170.07 99.85 189.04 99.44 235.69 128.6 437 200 68.52 24.3 148.15 44.77 208.57 58.78" style="stroke:#1a83af;stroke-width:2"/><path fill="#1A83AF" d="m3202.12 706.95-7.865-5.928 2.994 4.8-4.8 2.994 9.671-1.866z" style="stroke:#1a83af;stroke-width:2"/><path fill="none" d="M2327.11 347.16c-30.23 23.68-83.43 65.11-129.61 99.84-36.09 27.14-55.89 23.15-82 60-31.95 45.09-36 63.74-36 119v102c0 99.35-116.93 152.14-203.31 177.58" style="stroke:#1a83af;stroke-width:2"/><path fill="#1A83AF" d="m1871.33 906.99 9.76 1.32-4.96-2.72 2.72-4.96-7.52 6.36z" style="stroke:#1a83af;stroke-width:2"/><path fill="none" d="M2367.85 347.22c13 15.64 31.31 38.54 45.65 59.78 46.1 68.3 92.4 154.29 113.77 195.23" style="stroke:#1a83af;stroke-width:2"/><path fill="#1A83AF" d="m2529.75 607-.61-9.83-1.7 5.396-5.395-1.7 7.705 6.134z" style="stroke:#1a83af;stroke-width:2"/><path fill="none" d="M1796.1 447.36c-.31 15.57-.76 37.54-1.1 54.3" style="stroke:#1a83af;stroke-width:2"/><path fill="#1A83AF" d="m1794.89 506.68 4.205-8.906-4.09 3.907-3.908-4.09 3.793 9.089z" style="stroke:#1a83af;stroke-width:2"/><path fill="none" d="M1357.02 447.16c56.94 36.97 181.6 117.9 241.73 156.93" style="stroke:#1a83af;stroke-width:2"/><path fill="#1A83AF" d="m1602.96 606.82-5.388-8.245 1.189 5.531-5.531 1.188 9.73 1.526z" style="stroke:#1a83af;stroke-width:2"/><path fill="none" d="M1642.3 647.09c26.82 52.23 101.34 197.38 130.9 254.95" style="stroke:#1a83af;stroke-width:2"/><path fill="#1A83AF" d="m1775.58 906.68-.56-9.833-1.727 5.387-5.387-1.727 7.674 6.173z" style="stroke:#1a83af;stroke-width:2"/><path fill="none" d="M3105.31 647.01c39.09 16.58 95.72 40.61 136.25 57.8" style="stroke:#1a83af;stroke-width:2"/><path fill="#1A83AF" d="m3246.42 706.87-6.716-7.204 2.115 5.246-5.247 2.115 9.848-.157z" style="stroke:#1a83af;stroke-width:2"/><path fill="none" d="M1762.88 547.13c-27.1 16.39-66.11 39.99-94.4 57.1" style="stroke:#1a83af;stroke-width:2"/><path fill="#1A83AF" d="m1664.04 606.92 9.773-1.224-5.492-1.359 1.359-5.491-5.64 8.074z" style="stroke:#1a83af;stroke-width:2"/><path fill="none" d="M1794.07 547.2c-1.49 65.68-6.37 281.37-8.02 354.39" style="stroke:#1a83af;stroke-width:2"/><path fill="#1A83AF" d="m1785.93 907 4.205-8.906-4.09 3.907-3.908-4.09 3.793 9.089z" style="stroke:#1a83af;stroke-width:2"/><path fill="none" d="M1884.03 534.93c243.38 18.84 912.54 70.64 1116.61 86.44" style="stroke:#1a83af;stroke-width:2"/><path fill="#1A83AF" d="m3005.66 621.76-8.665-4.682 3.68 4.296-4.297 3.68 9.282-3.294z" style="stroke:#1a83af;stroke-width:2"/><path fill="none" d="M1821.44 547.13c22.98 16.32 56.04 39.8 80.11 56.89" style="stroke:#1a83af;stroke-width:2"/><path fill="#1A83AF" d="m1905.63 606.92-5.01-8.48.938 5.58-5.58.937 9.652 1.963z" style="stroke:#1a83af;stroke-width:2"/><path fill="none" d="M1884.36 539.82c154.03 20.26 464.44 61.1 595.06 78.28" style="stroke:#1a83af;stroke-width:2"/><path fill="#1A83AF" d="m2484.75 618.8-8.396-5.148 3.44 4.49-4.492 3.44 9.448-2.782z" style="stroke:#1a83af;stroke-width:2"/><path fill="none" d="M2378.2 542.94c175.56 21.37 491.68 59.85 622.8 75.82" style="stroke:#1a83af;stroke-width:2"/><path fill="#1A83AF" d="m3005.97 619.36-8.44-5.076 3.478 4.461-4.462 3.478 9.424-2.863z" style="stroke:#1a83af;stroke-width:2"/><path fill="none" d="M2310.59 547.01c48.6 16.77 119.27 41.16 169.2 58.39" style="stroke:#1a83af;stroke-width:2"/><path fill="#1A83AF" d="m2484.56 607.04-7.2-6.72 2.474 5.087-5.087 2.475 9.813-.842z" style="stroke:#1a83af;stroke-width:2"/><path fill="none" d="M2252.34 547.31c-10.18 55.75-47.45 218.22-146.84 299.69-49.61 40.67-117.13 60.87-177.36 70.72" style="stroke:#1a83af;stroke-width:2"/><path fill="#1A83AF" d="m1923.07 918.53 9.518 2.533-4.58-3.32 3.32-4.58-8.258 5.367z" style="stroke:#1a83af;stroke-width:2"/><path fill="none" d="M2134.64 547.01c-116.16 18.27-289.8 45.59-399.46 62.84" style="stroke:#1a83af;stroke-width:2"/><path fill="#1A83AF" d="m1730.01 610.66 9.51 2.56-4.57-3.333 3.333-4.57-8.273 5.343z" style="stroke:#1a83af;stroke-width:2"/><path fill="none" d="M2192.84 547.01c-55.3 16.78-135.71 41.18-192.5 58.41" style="stroke:#1a83af;stroke-width:2"/><path fill="#1A83AF" d="m1995.26 606.96 9.772 1.232-4.985-2.675 2.675-4.985-7.462 6.428z" style="stroke:#1a83af;stroke-width:2"/><path fill="none" d="M3361.53 747.01c62.05 16.85 152.4 41.37 215.92 58.62" style="stroke:#1a83af;stroke-width:2"/><path fill="#1A83AF" d="m3582.35 806.96-7.633-6.223 2.809 4.91-4.91 2.809 9.734-1.496z" style="stroke:#1a83af;stroke-width:2"/><path fill="none" d="M2594.12 641.01c9.13 2.07 18.51 4.14 27.38 5.99 338.74 70.63 744.14 135.25 929.5 163.7" style="stroke:#1a83af;stroke-width:2"/><path fill="#1A83AF" d="m3556.15 811.49-8.29-5.317 3.348 4.56-4.56 3.348 9.502-2.591z" style="stroke:#1a83af;stroke-width:2"/><path fill="none" d="M1683.14 247.04c-18.18 39.91-53.39 134.09-16.64 199.96 14.73 26.41 42.33 45.09 68.13 57.63" style="stroke:#1a83af;stroke-width:2"/><path fill="#1A83AF" d="m1739.42 506.9-6.435-7.456 1.913 5.324-5.324 1.912 9.846.22z" style="stroke:#1a83af;stroke-width:2"/><path fill="none" d="M1576.99 240.2c-111.47 17.84-277.48 61.36-376.49 166.8-37.74 40.19-35 63.87-35 119v202c0 99.63 294.21 155.96 477.29 181.36" style="stroke:#1a83af;stroke-width:2"/><path fill="#1A83AF" d="m1647.9 910.07-8.367-5.196 3.414 4.51-4.51 3.415 9.463-2.729z" style="stroke:#1a83af;stroke-width:2"/><path fill="none" d="M1808.04 245.18c140.45 20.89 372.25 55.36 482.09 71.69" style="stroke:#1a83af;stroke-width:2"/><path fill="#1A83AF" d="m2295.27 317.64-8.306-5.293 3.361 4.55-4.55 3.361 9.495-2.618z" style="stroke:#1a83af;stroke-width:2"/><path fill="none" d="M2883.5 47.36v54.3" style="stroke:#1a83af;stroke-width:2"/><path fill="#1A83AF" d="m2883.5 106.68 4-9-4 4-4-4 4 9z" style="stroke:#1a83af;stroke-width:2"/><path fill="none" d="M108.71 247.36c12.45 15.84 30.09 38.3 43.34 55.16" style="stroke:#1a83af;stroke-width:2"/><path fill="#1A83AF" d="m155.32 306.68-2.397-9.553-.685 5.615-5.615-.684 8.697 4.622z" style="stroke:#1a83af;stroke-width:2"/><path fill="none" d="M82.43 247.3c-12.69 24.94-29.39 68.81-9.93 99.7 17.59 27.93 48.1 46.2 78.14 58.06" style="stroke:#1a83af;stroke-width:2"/><path fill="#1A83AF" d="m155.45 406.91-6.96-6.969 2.294 5.171-5.17 2.294 9.836-.496z" style="stroke:#1a83af;stroke-width:2"/><path fill="none" d="M183.74 347.36c10.83 15.84 26.18 38.3 37.71 55.16" style="stroke:#1a83af;stroke-width:2"/><path fill="#1A83AF" d="m224.29 406.68-1.787-9.685-1.039 5.56-5.56-1.039 8.386 5.164z" style="stroke:#1a83af;stroke-width:2"/><path fill="none" d="M3734.26 347.2c-28.37 33.63-81.76 106.55-81.76 178.8v275.64" style="stroke:#1a83af;stroke-width:2"/><path fill="#1A83AF" d="m3652.5 806.89 4-9-4 4-4-4 4 9z" style="stroke:#1a83af;stroke-width:2"/><path fill="none" d="M2952.09 130.56c156.68 6.64 536.29 27.42 653.41 76.44 51.75 21.66 99.71 67.74 125.72 95.77" style="stroke:#1a83af;stroke-width:2"/><path fill="#1A83AF" d="m3734.89 306.77-3.123-9.34-.252 5.65-5.651-.251 9.026 3.941z" style="stroke:#1a83af;stroke-width:2"/><path fill="none" d="M2814.8 133.3c-160 12.39-569.9 44.42-912.3 73.7-28.96 2.48-60.16 5.24-89.43 7.89" style="stroke:#1a83af;stroke-width:2"/><path fill="#1A83AF" d="m1808.02 215.34 9.319 3.188-4.339-3.63 3.63-4.339-8.61 4.781z" style="stroke:#1a83af;stroke-width:2"/><path fill="none" d="M2952.23 129.75c249.34 6.68 1097.58 32.52 1210.27 77.25 51.79 20.56 98.72 67.45 123.82 95.85" style="stroke:#1a83af;stroke-width:2"/><path fill="#1A83AF" d="m4289.86 306.9-2.916-9.407-.377 5.644-5.644-.376 8.937 4.139z" style="stroke:#1a83af;stroke-width:2"/><path fill="none" d="M2896.52 147.22c30.08 42.86 108.9 146.63 200.98 199.78 93.36 53.88 168.87-25.13 235 60 70.49 90.75-112.52 167.18-212.29 200.74" style="stroke:#1a83af;stroke-width:2"/><path fill="#1A83AF" d="m3115.23 609.4 9.804.94-5.062-2.525 2.525-5.062-7.267 6.647z" style="stroke:#1a83af;stroke-width:2"/><path fill="none" d="M2814.75 128.96C2445.28 134.28 708.19 161.67 604.5 207c-45.8 20.02-83.27 66.77-102.97 95.35" style="stroke:#1a83af;stroke-width:2"/><path fill="#1A83AF" d="m498.53 306.77 8.362-5.203-5.555 1.065-1.066-5.556-1.741 9.694z" style="stroke:#1a83af;stroke-width:2"/><path fill="none" d="M2832.01 147.16c-100.24 37.31-320.81 119.4-424.53 158" style="stroke:#1a83af;stroke-width:2"/><path fill="#1A83AF" d="m2402.63 306.97 9.83.611-5.144-2.354 2.355-5.144-7.041 6.887z" style="stroke:#1a83af;stroke-width:2"/><path fill="none" d="M2945.18 147.13c41.48 13.99 96.7 34.86 142.32 59.87 51.4 28.18 105.08 70.61 135.93 96.46" style="stroke:#1a83af;stroke-width:2"/><path fill="#1A83AF" d="m3227.45 306.83-4.305-8.858.482 5.636-5.637.481 9.46 2.741z" style="stroke:#1a83af;stroke-width:2"/><path fill="none" d="M2952.22 128.76c247.57 3.19 1116.96 18.26 1831.28 78.24 4.32.36 8.72.76 13.15 1.18" style="stroke:#1a83af;stroke-width:2"/><path fill="#1A83AF" d="m4801.87 208.69-8.57-4.854 3.594 4.37-4.37 3.593 9.346-3.109z" style="stroke:#1a83af;stroke-width:2"/><path fill="none" d="M2814.8 129.06c-302.74 4.97-1509.86 27.77-1671.3 77.94-95.51 29.68-191 18.98-191 119v502c0 148.04 504.27 185.58 728.11 194.95" style="stroke:#1a83af;stroke-width:2"/><path fill="#1A83AF" d="m1685.85 1023.16-8.832-4.357 3.836 4.157-4.157 3.836 9.153-3.636z" style="stroke:#1a83af;stroke-width:2"/><path fill="none" d="M2814.76 128.04c-180.85 1.08-665.74 10.45-808.26 78.96-92.67 44.55-166.12 148.49-195.77 195.35" style="stroke:#1a83af;stroke-width:2"/><path fill="#1A83AF" d="m1807.99 406.7 8.175-5.492-5.515 1.258-1.258-5.515-1.402 9.749z" style="stroke:#1a83af;stroke-width:2"/><path fill="none" d="M2952.19 128.7c237.86 2.93 1025.1 17.14 1269.31 78.3 120.54 30.19 253-5.26 253 119v402c0 69.43-49.3 139.47-78.32 174.69" style="stroke:#1a83af;stroke-width:2"/><path fill="#1A83AF" d="m4392.74 906.8 8.833-4.356-5.633.514-.515-5.634-2.685 9.476z" style="stroke:#1a83af;stroke-width:2"/><path fill="none" d="M2952.22 129.41c234.79 5.27 995.98 26.19 1092.28 77.59 58.98 31.48 92 52.15 92 119v402c0 66.55-37.14 138.18-58.8 174.29" style="stroke:#1a83af;stroke-width:2"/><path fill="#1A83AF" d="m4074.89 906.94 8.088-5.62-5.495 1.345-1.345-5.494-1.248 9.769z" style="stroke:#1a83af;stroke-width:2"/><path fill="none" d="M2952.01 128.51c270.76 2.45 1292.41 15.57 2130.49 78.49 3.97.3 7.98.62 12.04.96" style="stroke:#1a83af;stroke-width:2"/><path fill="#1A83AF" d="m5099.68 208.4-8.624-4.756 3.642 4.328-4.328 3.642 9.31-3.214z" style="stroke:#1a83af;stroke-width:2"/><path fill="none" d="m2952.27 140.41 369.1 66.62" style="stroke:#1a83af;stroke-width:2"/><path fill="#1A83AF" d="m3326.51 207.95-8.15-5.529 3.229 4.645-4.645 3.229 9.566-2.345z" style="stroke:#1a83af;stroke-width:2"/><path fill="none" d="M2814.84 128.58C2452.07 131.86 766.56 150.09 541.5 207c-96.73 24.46-122.15 38.86-201 100-35.72 27.7-68.29 69.29-86.86 95.25" style="stroke:#1a83af;stroke-width:2"/><path fill="#1A83AF" d="m250.56 406.6 8.468-5.03-5.577.95-.95-5.576-1.941 9.656z" style="stroke:#1a83af;stroke-width:2"/><path fill="none" d="M2952.13 128.07c209.57 1.95 833.18 21.12 935.37 178.93 58.95 91.04-155.55 406.96-218.26 495.67" style="stroke:#1a83af;stroke-width:2"/><path fill="#1A83AF" d="m3666.2 806.97 8.48-5.01-5.58.938-.937-5.58-1.963 9.652z" style="stroke:#1a83af;stroke-width:2"/><path fill="none" d="M2891.47 147.27c24.7 61.05 96.31 249.13 63.03 299.73-79.74 121.24-260.86 160.73-355.26 173.31" style="stroke:#1a83af;stroke-width:2"/><path fill="#1A83AF" d="m2594.26 620.96 9.44 2.81-4.481-3.453 3.452-4.481-8.411 5.124z" style="stroke:#1a83af;stroke-width:2"/><path fill="none" d="M2952.17 128.86c223.09 3.37 917.61 18.58 997.33 78.14 45.3 33.84 45 62.46 45 119v202c0 69.57-49.8 139.55-79.11 174.72" style="stroke:#1a83af;stroke-width:2"/><path fill="#1A83AF" d="m3911.92 706.84 8.85-4.32-5.635.49-.492-5.635-2.723 9.465z" style="stroke:#1a83af;stroke-width:2"/><path fill="none" d="M2815 128.13c-267.75 1.02-1234.57 9.52-1351.5 78.87-74.84 44.39-114.44 147.66-129.17 194.78" style="stroke:#1a83af;stroke-width:2"/><path fill="#1A83AF" d="m1332.82 406.7 6.475-7.422-5.002 2.644-2.643-5.001 1.17 9.779z" style="stroke:#1a83af;stroke-width:2"/><path fill="none" d="M2877.86 147.09c-15.39 52.13-58.11 196.8-75.18 254.6" style="stroke:#1a83af;stroke-width:2"/><path fill="#1A83AF" d="m2801.21 406.68 6.38-7.502-4.967 2.706-2.706-4.968 1.293 9.764z" style="stroke:#1a83af;stroke-width:2"/><path fill="none" d="M2814.89 129.51c-265.37 6.18-1211.97 31.4-1255.39 77.49-57 60.51-102.57 35.42 86 240 23.92 25.95 58.35 44.98 88.09 57.85" style="stroke:#1a83af;stroke-width:2"/><path fill="#1A83AF" d="m1738.32 506.87-6.716-7.204 2.115 5.247-5.247 2.114 9.848-.157z" style="stroke:#1a83af;stroke-width:2"/><path fill="none" d="M2814.89 138.21C2670.86 161.17 2344.71 221.6 2277.5 307c-45.08 57.28-35.19 150.78-27.23 194.73" style="stroke:#1a83af;stroke-width:2"/><path fill="#1A83AF" d="m2251.23 506.84 2.26-9.586-3.188 4.673-4.674-3.188 5.602 8.101z" style="stroke:#1a83af;stroke-width:2"/><path fill="none" d="M2952.25 131.15c161.11 8.1 552.42 32.1 591.25 75.85 143.47 161.67-133.99 419.56-224.69 496.58" style="stroke:#1a83af;stroke-width:2"/><path fill="#1A83AF" d="m3314.9 706.89 9.454-2.761-5.638-.47.47-5.637-4.286 8.868z" style="stroke:#1a83af;stroke-width:2"/><path fill="none" d="M2814.82 127.96c-336.1.67-1791.32 14.21-1791.32 198.04v402c0 126.55 398.66 173.62 619.27 189.98" style="stroke:#1a83af;stroke-width:2"/><path fill="#1A83AF" d="m1647.95 918.36-8.678-4.658 3.692 4.287-4.286 3.691 9.272-3.32z" style="stroke:#1a83af;stroke-width:2"/><path fill="none" d="M2814.98 128.23c-258.91 1.4-1202.04 11.12-1975.48 78.77-17.96 1.57-37.16 3.82-55.38 6.23" style="stroke:#1a83af;stroke-width:2"/><path fill="#1A83AF" d="m779.01 213.91 9.448 2.783-4.491-3.44 3.44-4.491-8.397 5.148z" style="stroke:#1a83af;stroke-width:2"/><path fill="none" d="M2814.79 128.9c-273.27 3.94-1274.52 22.11-1404.29 78.1-130.14 56.15-288.74 122.15-210 240 72.96 109.2 226.21 151.87 329.15 168.48" style="stroke:#1a83af;stroke-width:2"/><path fill="#1A83AF" d="m1534.82 616.3-8.275-5.34 3.335 4.569-4.57 3.335 9.51-2.564z" style="stroke:#1a83af;stroke-width:2"/><path fill="none" d="M2952.3 129.68c272.47 6.92 1267.67 34.9 1402.2 77.32 95.39 30.07 191 18.98 191 119v502c0 66.55-37.14 138.18-58.8 174.29" style="stroke:#1a83af;stroke-width:2"/><path fill="#1A83AF" d="m4483.89 1006.94 8.088-5.62-5.495 1.345-1.345-5.494-1.248 9.769z" style="stroke:#1a83af;stroke-width:2"/><path fill="none" d="M2901.91 147.23c36.81 38.35 122.22 126.92 195.59 199.77 19.3 19.16 41.54 40.55 57.99 56.23" style="stroke:#1a83af;stroke-width:2"/><path fill="#1A83AF" d="m3159.12 406.69-3.776-9.096.149 5.654-5.655.149 9.282 3.293z" style="stroke:#1a83af;stroke-width:2"/><path fill="none" d="M2814.96 128.57c-399.9 3.5-2418.04 23.82-2536.46 78.43-43.53 20.07-77.28 66.8-94.76 95.37" style="stroke:#1a83af;stroke-width:2"/><path fill="#1A83AF" d="m181.07 306.79 8.074-5.64-5.491 1.359-1.359-5.492-1.224 9.773z" style="stroke:#1a83af;stroke-width:2"/><path fill="none" d="M2952.07 128.2c229.74 1.29 993.09 10.8 1619.43 78.8 7.11.77 14.45 1.71 21.81 2.75" style="stroke:#1a83af;stroke-width:2"/><path fill="#1A83AF" d="m4598.41 210.49-8.337-5.243 3.388 4.53-4.53 3.389 9.479-2.676z" style="stroke:#1a83af;stroke-width:2"/><path fill="none" d="M2814.61 127.15c-102.25 1.2-298.2 13.06-448.11 79.85-192.12 85.6-230.24 139.36-366 300-25.05 29.65-45.79 69.83-57.54 95.08" style="stroke:#1a83af;stroke-width:2"/><path fill="#1A83AF" d="m1940.73 606.93 7.407-6.491-5.309 1.952-1.952-5.309-.146 9.848z" style="stroke:#1a83af;stroke-width:2"/><path fill="none" d="M2814.9 128.76C2450.19 133.01 735.57 155.44 207.5 207c-7.22.7-14.68 1.59-22.15 2.59" style="stroke:#1a83af;stroke-width:2"/><path fill="#1A83AF" d="m180.17 210.3 9.464 2.725-4.511-3.412 3.412-4.512-8.365 5.199z" style="stroke:#1a83af;stroke-width:2"/><path fill="none" d="M2814.78 127.78c-326.56-.67-1713.09 1.14-1888.28 79.22-45.28 20.18-82.03 66.87-101.3 95.4" style="stroke:#1a83af;stroke-width:2"/><path fill="#1A83AF" d="m822.25 306.82 8.32-5.27-5.547 1.11-1.109-5.547-1.664 9.707z" style="stroke:#1a83af;stroke-width:2"/><path fill="none" d="M2952.18 129.24c228.34 4.64 952.63 23.52 1041.32 77.76 52.74 32.25 72 57.18 72 119v402c0 112.81-136.17 161.66-242.39 182.62" style="stroke:#1a83af;stroke-width:2"/><path fill="#1A83AF" d="m3818.08 911.59 9.599 2.206-4.691-3.162 3.161-4.69-8.069 5.646z" style="stroke:#1a83af;stroke-width:2"/><path fill="none" d="M4313.16 347.03c13.31 34.89 39.34 111.67 39.34 178.97v202c0 63 11.63 136.53 18.35 173.75" style="stroke:#1a83af;stroke-width:2"/><path fill="#1A83AF" d="m4371.8 906.97 2.318-9.572-3.216 4.653-4.654-3.216 5.552 8.135z" style="stroke:#1a83af;stroke-width:2"/><path fill="none" d="M4394.47 947.36c15.64 15.97 37.88 38.68 54.45 55.59" style="stroke:#1a83af;stroke-width:2"/><path fill="#1A83AF" d="m4452.57 1006.68-3.443-9.228-.057 5.657-5.656-.057 9.156 3.628z" style="stroke:#1a83af;stroke-width:2"/><path fill="none" d="M3489.55 247.01c55.64 16.78 136.55 41.18 193.69 58.41" style="stroke:#1a83af;stroke-width:2"/><path fill="#1A83AF" d="m3688.35 306.96-7.462-6.428 2.675 4.985-4.985 2.675 9.772-1.232z" style="stroke:#1a83af;stroke-width:2"/><path fill="none" d="M3526.05 239.1c162.35 18.1 483.54 53.91 658.67 73.43" style="stroke:#1a83af;stroke-width:2"/><path fill="#1A83AF" d="m4189.85 313.11-8.499-4.978 3.53 4.421-4.42 3.53 9.389-2.973z" style="stroke:#1a83af;stroke-width:2"/><path fill="none" d="M3438.34 247.3c8.81 15.5 20.14 38.17 25.16 59.7 25.2 108.09 23.05 177.99-69 240-83.85 56.49-203.28 72.8-274.28 77.38" style="stroke:#1a83af;stroke-width:2"/><path fill="#1A83AF" d="m3115.19 624.69 9.233 3.427-4.243-3.74 3.741-4.244-8.731 4.557z" style="stroke:#1a83af;stroke-width:2"/><path fill="none" d="M3326.81 237.09c-218.92 19.96-736.34 67.12-914.1 83.33" style="stroke:#1a83af;stroke-width:2"/><path fill="#1A83AF" d="m2407.55 320.89 9.319 3.188-4.339-3.63 3.63-4.339-8.61 4.781z" style="stroke:#1a83af;stroke-width:2"/><path fill="none" d="M3391.95 247.13c-29.72 16.46-72.58 40.19-103.52 57.31" style="stroke:#1a83af;stroke-width:2"/><path fill="#1A83AF" d="m3283.96 306.92 9.812-.85-5.435-1.567 1.568-5.436-5.945 7.853z" style="stroke:#1a83af;stroke-width:2"/><path fill="none" d="M3424.82 247.25c-2.63 24.14-9 66.38-23.32 99.75-21.3 49.62-25.58 67.9-69 100-118.23 87.42-569.33 151.11-733.12 171.79" style="stroke:#1a83af;stroke-width:2"/><path fill="#1A83AF" d="m2594.14 619.45 9.424 2.863-4.462-3.478 3.478-4.461-8.44 5.076z" style="stroke:#1a83af;stroke-width:2"/><path fill="none" d="M3847.55 747.01c-41.03 16.62-100.51 40.71-142.99 57.91" style="stroke:#1a83af;stroke-width:2"/><path fill="#1A83AF" d="m3699.73 806.87 9.843.335-5.208-2.21 2.21-5.207-6.845 7.082z" style="stroke:#1a83af;stroke-width:2"/></svg>