<svg xmlns="http://www.w3.org/2000/svg" xmlns:xlink="http://www.w3.org/1999/xlink" width="3094" height="1818" preserveAspectRatio="none" style="width:3094px;height:1818px;background:#00000000"><a xlink:actuate="onRequest" xlink:href="#a" xlink:show="new" xlink:title="#resource" xlink:type="simple" target="_top"><rect id="a" width="195" height="275.836" x="1550" y="7" fill="#3D176E" rx="2.5" ry="2.5" style="stroke:#000d19;stroke-width:1.5"/><circle cx="1602.75" cy="26.895" r="11" fill="#E98DF7" style="stroke:#000d19;stroke-width:1"/><path d="M1605.719 32.535q-.578.297-1.219.438-.64.156-1.344.156-2.5 0-3.828-1.64-1.312-1.657-1.312-4.782t1.312-4.781q1.328-1.656 3.828-1.656.703 0 1.344.156.656.156 1.219.453v2.719q-.625-.578-1.219-.844-.594-.281-1.219-.281-1.343 0-2.031 1.078-.688 1.062-.688 3.156 0 2.094.688 3.172.688 1.062 2.031 1.062.625 0 1.219-.265.594-.281 1.219-.86v2.72Z"/><text x="1628.25" y="32.78" fill="#D9B8FF" font-family="Helvetica" font-size="17" textLength="71">resource</text><path d="M1551 46.789h193" style="stroke:#000d19;stroke-width:1.5"/><text x="1561" y="65.999" fill="#D9B8FF" font-family="sans-serif" font-size="11" font-weight="bold" textLength="12">id</text><text x="1573" y="65.999" fill="#D9B8FF" font-family="sans-serif" font-size="11" textLength="41">: string</text><text x="1561" y="88.804" fill="#D9B8FF" font-family="sans-serif" font-size="11" font-weight="bold" textLength="28">tags</text><text x="1589" y="88.804" fill="#D9B8FF" font-family="sans-serif" font-size="11" textLength="145">: dictionary[string, string]</text><text x="1561" y="111.609" fill="#D9B8FF" font-family="sans-serif" font-size="11" font-weight="bold" textLength="35">name</text><text x="1596" y="111.609" fill="#D9B8FF" font-family="sans-serif" font-size="11" textLength="41">: string</text><text x="1561" y="134.414" fill="#D9B8FF" font-family="sans-serif" font-size="11" font-weight="bold" textLength="35">ctime</text><text x="1596" y="134.414" fill="#D9B8FF" font-family="sans-serif" font-size="11" textLength="58">: datetime</text><text x="1561" y="157.218" fill="#D9B8FF" font-family="sans-serif" font-size="11" font-weight="bold" textLength="24">age</text><text x="1585" y="157.218" fill="#D9B8FF" font-family="sans-serif" font-size="11" textLength="55">: duration</text><text x="1561" y="180.023" fill="#D9B8FF" font-family="sans-serif" font-size="11" font-weight="bold" textLength="39">mtime</text><text x="1600" y="180.023" fill="#D9B8FF" font-family="sans-serif" font-size="11" textLength="58">: datetime</text><text x="1561" y="202.828" fill="#D9B8FF" font-family="sans-serif" font-size="11" font-weight="bold" textLength="75">last_update</text><text x="1636" y="202.828" fill="#D9B8FF" font-family="sans-serif" font-size="11" textLength="55">: duration</text><text x="1561" y="225.632" fill="#D9B8FF" font-family="sans-serif" font-size="11" font-weight="bold" textLength="36">atime</text><text x="1597" y="225.632" fill="#D9B8FF" font-family="sans-serif" font-size="11" textLength="58">: datetime</text><text x="1561" y="248.437" fill="#D9B8FF" font-family="sans-serif" font-size="11" font-weight="bold" textLength="74">last_access</text><text x="1635" y="248.437" fill="#D9B8FF" font-family="sans-serif" font-size="11" textLength="55">: duration</text><text x="1561" y="271.242" fill="#D9B8FF" font-family="sans-serif" font-size="11" font-weight="bold" textLength="27">kind</text><text x="1588" y="271.242" fill="#D9B8FF" font-family="sans-serif" font-size="11" textLength="41">: string</text></a><a xlink:actuate="onRequest" xlink:href="#b" xlink:show="new" xlink:title="#aws_resource" xlink:type="simple" target="_top"><rect id="b" width="155" height="70.594" x="1570" y="404" fill="#3D176E" rx="2.5" ry="2.5" style="stroke:#000d19;stroke-width:1.5"/><circle cx="1585" cy="423.894" r="11" fill="#E98DF7" style="stroke:#000d19;stroke-width:1"/><path d="M1587.969 429.535q-.578.297-1.219.438-.64.156-1.344.156-2.5 0-3.828-1.64-1.312-1.657-1.312-4.782t1.312-4.781q1.328-1.656 3.828-1.656.703 0 1.344.156.656.156 1.219.453v2.719q-.625-.579-1.219-.844-.594-.281-1.219-.281-1.343 0-2.031 1.078-.688 1.062-.688 3.156 0 2.094.688 3.172.688 1.062 2.031 1.062.625 0 1.219-.265.594-.281 1.219-.86v2.72Z"/><text x="1604" y="429.78" fill="#D9B8FF" font-family="Helvetica" font-size="17" textLength="113">aws_resource</text><path d="M1571 443.789h153" style="stroke:#000d19;stroke-width:1.5"/><text x="1581" y="463" fill="#D9B8FF" font-family="sans-serif" font-size="11" font-weight="bold" textLength="21">arn</text><text x="1602" y="463" fill="#D9B8FF" font-family="sans-serif" font-size="11" textLength="41">: string</text></a><a xlink:actuate="onRequest" xlink:href="#c" xlink:show="new" xlink:title="#aws_sagemaker_vpc_config" xlink:type="simple" target="_top"><rect id="c" width="272" height="93.398" x="2326.5" y="1706.5" fill="#3D176E" rx="2.5" ry="2.5" style="stroke:#000d19;stroke-width:1.5"/><circle cx="2341.5" cy="1726.395" r="11" fill="#E98DF7" style="stroke:#000d19;stroke-width:1"/><path d="M2344.469 1732.035q-.578.297-1.219.438-.64.156-1.344.156-2.5 0-3.828-1.64-1.312-1.657-1.312-4.782t1.312-4.781q1.328-1.656 3.828-1.656.703 0 1.344.156.656.156 1.219.453v2.719q-.625-.578-1.219-.844-.594-.281-1.219-.281-1.343 0-2.031 1.078-.688 1.062-.688 3.156 0 2.094.688 3.172.688 1.062 2.031 1.062.625 0 1.219-.265.594-.281 1.219-.86v2.72Z"/><text x="2360.5" y="1732.28" fill="#D9B8FF" font-family="Helvetica" font-size="17" textLength="230">aws_sagemaker_vpc_config</text><path d="M2327.5 1746.289h270" style="stroke:#000d19;stroke-width:1.5"/><text x="2337.5" y="1765.499" fill="#D9B8FF" font-family="sans-serif" font-size="11" font-weight="bold" textLength="119">security_group_ids</text><text x="2456.5" y="1765.499" fill="#D9B8FF" font-family="sans-serif" font-size="11" textLength="49">: string[]</text><text x="2337.5" y="1788.304" fill="#D9B8FF" font-family="sans-serif" font-size="11" font-weight="bold" textLength="51">subnets</text><text x="2388.5" y="1788.304" fill="#D9B8FF" font-family="sans-serif" font-size="11" textLength="49">: string[]</text></a><a xlink:actuate="onRequest" xlink:href="#d" xlink:show="new" xlink:title="#aws_sagemaker_labeling_job" xlink:type="simple" target="_top"><rect id="d" width="528" height="344.25" x="1383.5" y="757" fill="#3D176E" rx="2.5" ry="2.5" style="stroke:#000d19;stroke-width:1.5"/><circle cx="1516.75" cy="776.894" r="11" fill="#E98DF7" style="stroke:#000d19;stroke-width:1"/><path d="M1519.719 782.535q-.578.297-1.219.438-.64.156-1.344.156-2.5 0-3.828-1.64-1.312-1.657-1.312-4.782t1.312-4.781q1.328-1.657 3.828-1.657.703 0 1.344.157.656.156 1.219.453v2.719q-.625-.578-1.219-.844-.594-.281-1.219-.281-1.343 0-2.031 1.078-.688 1.062-.688 3.156 0 2.094.688 3.172.688 1.062 2.031 1.062.625 0 1.219-.265.594-.282 1.219-.86v2.72Z"/><text x="1542.25" y="782.78" fill="#D9B8FF" font-family="Helvetica" font-size="17" textLength="243">aws_sagemaker_labeling_job</text><path d="M1384.5 796.789h526" style="stroke:#000d19;stroke-width:1.5"/><text x="1394.5" y="816" fill="#D9B8FF" font-family="sans-serif" font-size="11" font-weight="bold" textLength="124">labeling_job_status</text><text x="1518.5" y="816" fill="#D9B8FF" font-family="sans-serif" font-size="11" textLength="41">: string</text><text x="1394.5" y="838.804" fill="#D9B8FF" font-family="sans-serif" font-size="11" font-weight="bold" textLength="178">labeling_job_label_counters</text><text x="1572.5" y="838.804" fill="#D9B8FF" font-family="sans-serif" font-size="11" textLength="190">: aws_sagemaker_label_counters</text><text x="1394.5" y="861.609" fill="#D9B8FF" font-family="sans-serif" font-size="11" font-weight="bold" textLength="176">labeling_job_failure_reason</text><text x="1570.5" y="861.609" fill="#D9B8FF" font-family="sans-serif" font-size="11" textLength="41">: string</text><text x="1394.5" y="884.414" fill="#D9B8FF" font-family="sans-serif" font-size="11" font-weight="bold" textLength="209">labeling_job_job_reference_code</text><text x="1603.5" y="884.414" fill="#D9B8FF" font-family="sans-serif" font-size="11" textLength="41">: string</text><text x="1394.5" y="907.218" fill="#D9B8FF" font-family="sans-serif" font-size="11" font-weight="bold" textLength="219">labeling_job_label_attribute_name</text><text x="1613.5" y="907.218" fill="#D9B8FF" font-family="sans-serif" font-size="11" textLength="41">: string</text><text x="1394.5" y="930.023" fill="#D9B8FF" font-family="sans-serif" font-size="11" font-weight="bold" textLength="163">labeling_job_input_config</text><text x="1557.5" y="930.023" fill="#D9B8FF" font-family="sans-serif" font-size="11" textLength="248">: aws_sagemaker_labeling_job_input_config</text><text x="1394.5" y="952.828" fill="#D9B8FF" font-family="sans-serif" font-size="11" font-weight="bold" textLength="172">labeling_job_output_config</text><text x="1566.5" y="952.828" fill="#D9B8FF" font-family="sans-serif" font-size="11" textLength="256">: aws_sagemaker_labeling_job_output_config</text><text x="1394.5" y="975.632" fill="#D9B8FF" font-family="sans-serif" font-size="11" font-weight="bold" textLength="136">labeling_job_role_arn</text><text x="1530.5" y="975.632" fill="#D9B8FF" font-family="sans-serif" font-size="11" textLength="41">: string</text><text x="1394.5" y="998.437" fill="#D9B8FF" font-family="sans-serif" font-size="11" font-weight="bold" textLength="268">labeling_job_label_category_config_s3_uri</text><text x="1662.5" y="998.437" fill="#D9B8FF" font-family="sans-serif" font-size="11" textLength="41">: string</text><text x="1394.5" y="1021.242" fill="#D9B8FF" font-family="sans-serif" font-size="11" font-weight="bold" textLength="213">labeling_job_stopping_conditions</text><text x="1607.5" y="1021.242" fill="#D9B8FF" font-family="sans-serif" font-size="11" textLength="293">: aws_sagemaker_labeling_job_stopping_conditions</text><text x="1394.5" y="1044.046" fill="#D9B8FF" font-family="sans-serif" font-size="11" font-weight="bold" textLength="198">labeling_job_algorithms_config</text><text x="1592.5" y="1044.046" fill="#D9B8FF" font-family="sans-serif" font-size="11" textLength="281">: aws_sagemaker_labeling_job_algorithms_config</text><text x="1394.5" y="1066.851" fill="#D9B8FF" font-family="sans-serif" font-size="11" font-weight="bold" textLength="206">labeling_job_human_task_config</text><text x="1600.5" y="1066.851" fill="#D9B8FF" font-family="sans-serif" font-size="11" textLength="216">: aws_sagemaker_human_task_config</text><text x="1394.5" y="1089.656" fill="#D9B8FF" font-family="sans-serif" font-size="11" font-weight="bold" textLength="126">labeling_job_output</text><text x="1520.5" y="1089.656" fill="#D9B8FF" font-family="sans-serif" font-size="11" textLength="216">: aws_sagemaker_labeling_job_output</text></a><a xlink:actuate="onRequest" xlink:href="#e" xlink:show="new" xlink:title="#aws_sagemaker_job" xlink:type="simple" target="_top"><rect id="e" width="210" height="39.789" x="1542.5" y="596" fill="#3D176E" rx="2.5" ry="2.5" style="stroke:#000d19;stroke-width:1.5"/><circle cx="1557.5" cy="615.894" r="11" fill="#E98DF7" style="stroke:#000d19;stroke-width:1"/><path d="M1560.469 621.535q-.578.297-1.219.438-.64.156-1.344.156-2.5 0-3.828-1.64-1.312-1.657-1.312-4.782t1.312-4.781q1.328-1.657 3.828-1.657.703 0 1.344.157.656.156 1.219.453v2.719q-.625-.578-1.219-.844-.594-.281-1.219-.281-1.343 0-2.031 1.078-.688 1.062-.688 3.156 0 2.094.688 3.172.688 1.062 2.031 1.062.625 0 1.219-.265.594-.282 1.219-.86v2.72Z"/><text x="1576.5" y="621.78" fill="#D9B8FF" font-family="Helvetica" font-size="17" textLength="168">aws_sagemaker_job</text></a><a xlink:actuate="onRequest" xlink:href="#f" xlink:show="new" xlink:title="#aws_sagemaker_labeling_job_stopping_conditions" xlink:type="simple" target="_top"><rect id="f" width="459" height="93.398" x="7" y="1275" fill="#3D176E" rx="2.5" ry="2.5" style="stroke:#000d19;stroke-width:1.5"/><circle cx="22" cy="1294.895" r="11" fill="#E98DF7" style="stroke:#000d19;stroke-width:1"/><path d="M24.969 1300.535q-.578.297-1.219.438-.64.156-1.344.156-2.5 0-3.828-1.64-1.312-1.657-1.312-4.782t1.312-4.781q1.328-1.656 3.828-1.656.703 0 1.344.156.656.156 1.219.453v2.719q-.625-.578-1.219-.844-.594-.281-1.219-.281-1.343 0-2.031 1.078-.688 1.062-.688 3.156 0 2.094.688 3.172.688 1.062 2.031 1.062.625 0 1.219-.265.594-.281 1.219-.86v2.72Z"/><text x="41" y="1300.78" fill="#D9B8FF" font-family="Helvetica" font-size="17" textLength="417">aws_sagemaker_labeling_job_stopping_conditions</text><path d="M8 1314.789h457" style="stroke:#000d19;stroke-width:1.5"/><text x="18" y="1333.999" fill="#D9B8FF" font-family="sans-serif" font-size="11" font-weight="bold" textLength="217">max_human_labeled_object_count</text><text x="235" y="1333.999" fill="#D9B8FF" font-family="sans-serif" font-size="11" textLength="36">: int64</text><text x="18" y="1356.804" fill="#D9B8FF" font-family="sans-serif" font-size="11" font-weight="bold" textLength="272">max_percentage_of_input_dataset_labeled</text><text x="290" y="1356.804" fill="#D9B8FF" font-family="sans-serif" font-size="11" textLength="36">: int64</text></a><a xlink:actuate="onRequest" xlink:href="#g" xlink:show="new" xlink:title="#aws_sagemaker_labeling_job_output_config" xlink:type="simple" target="_top"><rect id="g" width="409" height="116.203" x="501" y="1263.5" fill="#3D176E" rx="2.5" ry="2.5" style="stroke:#000d19;stroke-width:1.5"/><circle cx="516" cy="1283.395" r="11" fill="#E98DF7" style="stroke:#000d19;stroke-width:1"/><path d="M518.969 1289.035q-.578.297-1.219.438-.64.156-1.344.156-2.5 0-3.828-1.64-1.312-1.657-1.312-4.782t1.312-4.781q1.328-1.656 3.828-1.656.703 0 1.344.156.656.156 1.219.453v2.719q-.625-.578-1.219-.844-.594-.281-1.219-.281-1.343 0-2.031 1.078-.688 1.062-.688 3.156 0 2.094.688 3.172.688 1.062 2.031 1.062.625 0 1.219-.265.594-.281 1.219-.86v2.72Z"/><text x="535" y="1289.28" fill="#D9B8FF" font-family="Helvetica" font-size="17" textLength="367">aws_sagemaker_labeling_job_output_config</text><path d="M502 1303.289h407" style="stroke:#000d19;stroke-width:1.5"/><text x="512" y="1322.499" fill="#D9B8FF" font-family="sans-serif" font-size="11" font-weight="bold" textLength="98">s3_output_path</text><text x="610" y="1322.499" fill="#D9B8FF" font-family="sans-serif" font-size="11" textLength="41">: string</text><text x="512" y="1345.304" fill="#D9B8FF" font-family="sans-serif" font-size="11" font-weight="bold" textLength="71">kms_key_id</text><text x="583" y="1345.304" fill="#D9B8FF" font-family="sans-serif" font-size="11" textLength="41">: string</text><text x="512" y="1368.109" fill="#D9B8FF" font-family="sans-serif" font-size="11" font-weight="bold" textLength="87">sns_topic_arn</text><text x="599" y="1368.109" fill="#D9B8FF" font-family="sans-serif" font-size="11" textLength="41">: string</text></a><a xlink:actuate="onRequest" xlink:href="#h" xlink:show="new" xlink:title="#aws_sagemaker_labeling_job_resource_config" xlink:type="simple" target="_top"><rect id="h" width="424" height="93.398" x="2250.5" y="1542" fill="#3D176E" rx="2.5" ry="2.5" style="stroke:#000d19;stroke-width:1.5"/><circle cx="2265.5" cy="1561.895" r="11" fill="#E98DF7" style="stroke:#000d19;stroke-width:1"/><path d="M2268.469 1567.535q-.578.297-1.219.438-.64.156-1.344.156-2.5 0-3.828-1.64-1.312-1.657-1.312-4.782t1.312-4.781q1.328-1.656 3.828-1.656.703 0 1.344.156.656.156 1.219.453v2.719q-.625-.578-1.219-.844-.594-.281-1.219-.281-1.343 0-2.031 1.078-.688 1.062-.688 3.156 0 2.094.688 3.172.688 1.062 2.031 1.062.625 0 1.219-.265.594-.281 1.219-.86v2.72Z"/><text x="2284.5" y="1567.78" fill="#D9B8FF" font-family="Helvetica" font-size="17" textLength="382">aws_sagemaker_labeling_job_resource_config</text><path d="M2251.5 1581.789h422" style="stroke:#000d19;stroke-width:1.5"/><text x="2261.5" y="1600.999" fill="#D9B8FF" font-family="sans-serif" font-size="11" font-weight="bold" textLength="123">volume_kms_key_id</text><text x="2384.5" y="1600.999" fill="#D9B8FF" font-family="sans-serif" font-size="11" textLength="41">: string</text><text x="2261.5" y="1623.804" fill="#D9B8FF" font-family="sans-serif" font-size="11" font-weight="bold" textLength="68">vpc_config</text><text x="2329.5" y="1623.804" fill="#D9B8FF" font-family="sans-serif" font-size="11" textLength="166">: aws_sagemaker_vpc_config</text></a><a xlink:actuate="onRequest" xlink:href="#i" xlink:show="new" xlink:title="#aws_sagemaker_human_task_config" xlink:type="simple" target="_top"><rect id="i" width="468" height="321.445" x="945.5" y="1161" fill="#3D176E" rx="2.5" ry="2.5" style="stroke:#000d19;stroke-width:1.5"/><circle cx="1017.25" cy="1180.895" r="11" fill="#E98DF7" style="stroke:#000d19;stroke-width:1"/><path d="M1020.219 1186.535q-.578.297-1.219.438-.64.156-1.344.156-2.5 0-3.828-1.64-1.312-1.657-1.312-4.782t1.312-4.781q1.328-1.656 3.828-1.656.703 0 1.344.156.656.156 1.219.453v2.719q-.625-.578-1.219-.844-.594-.281-1.219-.281-1.343 0-2.031 1.078-.688 1.062-.688 3.156 0 2.094.688 3.172.688 1.062 2.031 1.062.625 0 1.219-.265.594-.281 1.219-.86v2.72Z"/><text x="1042.75" y="1186.78" fill="#D9B8FF" font-family="Helvetica" font-size="17" textLength="306">aws_sagemaker_human_task_config</text><path d="M946.5 1200.789h466" style="stroke:#000d19;stroke-width:1.5"/><text x="956.5" y="1219.999" fill="#D9B8FF" font-family="sans-serif" font-size="11" font-weight="bold" textLength="90">workteam_arn</text><text x="1046.5" y="1219.999" fill="#D9B8FF" font-family="sans-serif" font-size="11" textLength="41">: string</text><text x="956.5" y="1242.804" fill="#D9B8FF" font-family="sans-serif" font-size="11" font-weight="bold" textLength="58">ui_config</text><text x="1014.5" y="1242.804" fill="#D9B8FF" font-family="sans-serif" font-size="11" textLength="157">: aws_sagemaker_ui_config</text><text x="956.5" y="1265.609" fill="#D9B8FF" font-family="sans-serif" font-size="11" font-weight="bold" textLength="183">pre_human_task_lambda_arn</text><text x="1139.5" y="1265.609" fill="#D9B8FF" font-family="sans-serif" font-size="11" textLength="41">: string</text><text x="956.5" y="1288.414" fill="#D9B8FF" font-family="sans-serif" font-size="11" font-weight="bold" textLength="94">task_keywords</text><text x="1050.5" y="1288.414" fill="#D9B8FF" font-family="sans-serif" font-size="11" textLength="49">: string[]</text><text x="956.5" y="1311.218" fill="#D9B8FF" font-family="sans-serif" font-size="11" font-weight="bold" textLength="59">task_title</text><text x="1015.5" y="1311.218" fill="#D9B8FF" font-family="sans-serif" font-size="11" textLength="41">: string</text><text x="956.5" y="1334.023" fill="#D9B8FF" font-family="sans-serif" font-size="11" font-weight="bold" textLength="105">task_description</text><text x="1061.5" y="1334.023" fill="#D9B8FF" font-family="sans-serif" font-size="11" textLength="41">: string</text><text x="956.5" y="1356.828" fill="#D9B8FF" font-family="sans-serif" font-size="11" font-weight="bold" textLength="281">number_of_human_workers_per_data_object</text><text x="1237.5" y="1356.828" fill="#D9B8FF" font-family="sans-serif" font-size="11" textLength="36">: int64</text><text x="956.5" y="1379.632" fill="#D9B8FF" font-family="sans-serif" font-size="11" font-weight="bold" textLength="172">task_time_limit_in_seconds</text><text x="1128.5" y="1379.632" fill="#D9B8FF" font-family="sans-serif" font-size="11" textLength="36">: int64</text><text x="956.5" y="1402.437" fill="#D9B8FF" font-family="sans-serif" font-size="11" font-weight="bold" textLength="236">task_availability_lifetime_in_seconds</text><text x="1192.5" y="1402.437" fill="#D9B8FF" font-family="sans-serif" font-size="11" textLength="36">: int64</text><text x="956.5" y="1425.242" fill="#D9B8FF" font-family="sans-serif" font-size="11" font-weight="bold" textLength="176">max_concurrent_task_count</text><text x="1132.5" y="1425.242" fill="#D9B8FF" font-family="sans-serif" font-size="11" textLength="36">: int64</text><text x="956.5" y="1448.046" fill="#D9B8FF" font-family="sans-serif" font-size="11" font-weight="bold" textLength="209">annotation_consolidation_config</text><text x="1165.5" y="1448.046" fill="#D9B8FF" font-family="sans-serif" font-size="11" textLength="41">: string</text><text x="956.5" y="1470.851" fill="#D9B8FF" font-family="sans-serif" font-size="11" font-weight="bold" textLength="180">public_workforce_task_price</text><text x="1136.5" y="1470.851" fill="#D9B8FF" font-family="sans-serif" font-size="11" textLength="266">: aws_sagemaker_public_workforce_task_price</text></a><a xlink:actuate="onRequest" xlink:href="#j" xlink:show="new" xlink:title="#aws_sagemaker_ui_config" xlink:type="simple" target="_top"><rect id="j" width="260" height="93.398" x="687.5" y="1542" fill="#3D176E" rx="2.5" ry="2.5" style="stroke:#000d19;stroke-width:1.5"/><circle cx="702.5" cy="1561.895" r="11" fill="#E98DF7" style="stroke:#000d19;stroke-width:1"/><path d="M705.469 1567.535q-.578.297-1.219.438-.64.156-1.344.156-2.5 0-3.828-1.64-1.312-1.657-1.312-4.782t1.312-4.781q1.328-1.656 3.828-1.656.703 0 1.344.156.656.156 1.219.453v2.719q-.625-.578-1.219-.844-.594-.281-1.219-.281-1.343 0-2.031 1.078-.688 1.062-.688 3.156 0 2.094.688 3.172.688 1.062 2.031 1.062.625 0 1.219-.265.594-.281 1.219-.86v2.72Z"/><text x="721.5" y="1567.78" fill="#D9B8FF" font-family="Helvetica" font-size="17" textLength="218">aws_sagemaker_ui_config</text><path d="M688.5 1581.789h258" style="stroke:#000d19;stroke-width:1.5"/><text x="698.5" y="1600.999" fill="#D9B8FF" font-family="sans-serif" font-size="11" font-weight="bold" textLength="119">ui_template_s3_uri</text><text x="817.5" y="1600.999" fill="#D9B8FF" font-family="sans-serif" font-size="11" textLength="41">: string</text><text x="698.5" y="1623.804" fill="#D9B8FF" font-family="sans-serif" font-size="11" font-weight="bold" textLength="121">human_task_ui_arn</text><text x="819.5" y="1623.804" fill="#D9B8FF" font-family="sans-serif" font-size="11" textLength="41">: string</text></a><a xlink:actuate="onRequest" xlink:href="#k" xlink:show="new" xlink:title="#aws_sagemaker_public_workforce_task_price" xlink:type="simple" target="_top"><rect id="k" width="419" height="70.594" x="983" y="1553" fill="#3D176E" rx="2.5" ry="2.5" style="stroke:#000d19;stroke-width:1.5"/><circle cx="998" cy="1572.895" r="11" fill="#E98DF7" style="stroke:#000d19;stroke-width:1"/><path d="M1000.969 1578.535q-.578.297-1.219.438-.64.156-1.344.156-2.5 0-3.828-1.64-1.312-1.657-1.312-4.782t1.312-4.781q1.328-1.656 3.828-1.656.703 0 1.344.156.656.156 1.219.453v2.719q-.625-.578-1.219-.844-.594-.281-1.219-.281-1.343 0-2.031 1.078-.688 1.062-.688 3.156 0 2.094.688 3.172.688 1.062 2.031 1.062.625 0 1.219-.265.594-.281 1.219-.86v2.72Z"/><text x="1017" y="1578.78" fill="#D9B8FF" font-family="Helvetica" font-size="17" textLength="377">aws_sagemaker_public_workforce_task_price</text><path d="M984 1592.789h417" style="stroke:#000d19;stroke-width:1.5"/><text x="994" y="1611.999" fill="#D9B8FF" font-family="sans-serif" font-size="11" font-weight="bold" textLength="95">amount_in_usd</text><text x="1089" y="1611.999" fill="#D9B8FF" font-family="sans-serif" font-size="11" textLength="128">: aws_sagemaker_usd</text></a><a xlink:actuate="onRequest" xlink:href="#l" xlink:show="new" xlink:title="#aws_sagemaker_usd" xlink:type="simple" target="_top"><rect id="l" width="222" height="116.203" x="1081.5" y="1695" fill="#3D176E" rx="2.5" ry="2.5" style="stroke:#000d19;stroke-width:1.5"/><circle cx="1100.1" cy="1714.895" r="11" fill="#E98DF7" style="stroke:#000d19;stroke-width:1"/><path d="M1103.069 1720.535q-.578.297-1.219.438-.64.156-1.344.156-2.5 0-3.828-1.64-1.312-1.657-1.312-4.782t1.312-4.781q1.328-1.656 3.828-1.656.703 0 1.344.156.656.156 1.219.453v2.719q-.625-.578-1.219-.844-.594-.281-1.219-.281-1.344 0-2.031 1.078-.688 1.062-.688 3.156 0 2.094.688 3.172.688 1.062 2.031 1.062.625 0 1.219-.265.594-.281 1.219-.86v2.72Z"/><text x="1119.9" y="1720.78" fill="#D9B8FF" font-family="Helvetica" font-size="17" textLength="172">aws_sagemaker_usd</text><path d="M1082.5 1734.789h220" style="stroke:#000d19;stroke-width:1.5"/><text x="1092.5" y="1753.999" fill="#D9B8FF" font-family="sans-serif" font-size="11" font-weight="bold" textLength="44">dollars</text><text x="1136.5" y="1753.999" fill="#D9B8FF" font-family="sans-serif" font-size="11" textLength="36">: int64</text><text x="1092.5" y="1776.804" fill="#D9B8FF" font-family="sans-serif" font-size="11" font-weight="bold" textLength="35">cents</text><text x="1127.5" y="1776.804" fill="#D9B8FF" font-family="sans-serif" font-size="11" textLength="36">: int64</text><text x="1092.5" y="1799.609" fill="#D9B8FF" font-family="sans-serif" font-size="11" font-weight="bold" textLength="164">tenth_fractions_of_a_cent</text><text x="1256.5" y="1799.609" fill="#D9B8FF" font-family="sans-serif" font-size="11" textLength="36">: int64</text></a><a xlink:actuate="onRequest" xlink:href="#m" xlink:show="new" xlink:title="#aws_sagemaker_labeling_job_input_config" xlink:type="simple" target="_top"><rect id="m" width="397" height="93.398" x="1449" y="1275" fill="#3D176E" rx="2.5" ry="2.5" style="stroke:#000d19;stroke-width:1.5"/><circle cx="1464" cy="1294.895" r="11" fill="#E98DF7" style="stroke:#000d19;stroke-width:1"/><path d="M1466.969 1300.535q-.578.297-1.219.438-.64.156-1.344.156-2.5 0-3.828-1.64-1.312-1.657-1.312-4.782t1.312-4.781q1.328-1.656 3.828-1.656.703 0 1.344.156.656.156 1.219.453v2.719q-.625-.578-1.219-.844-.594-.281-1.219-.281-1.343 0-2.031 1.078-.688 1.062-.688 3.156 0 2.094.688 3.172.688 1.062 2.031 1.062.625 0 1.219-.265.594-.281 1.219-.86v2.72Z"/><text x="1483" y="1300.78" fill="#D9B8FF" font-family="Helvetica" font-size="17" textLength="355">aws_sagemaker_labeling_job_input_config</text><path d="M1450 1314.789h395" style="stroke:#000d19;stroke-width:1.5"/><text x="1460" y="1333.999" fill="#D9B8FF" font-family="sans-serif" font-size="11" font-weight="bold" textLength="78">data_source</text><text x="1538" y="1333.999" fill="#D9B8FF" font-family="sans-serif" font-size="11" textLength="250">: aws_sagemaker_labeling_job_data_source</text><text x="1460" y="1356.804" fill="#D9B8FF" font-family="sans-serif" font-size="11" font-weight="bold" textLength="98">data_attributes</text><text x="1558" y="1356.804" fill="#D9B8FF" font-family="sans-serif" font-size="11" textLength="49">: string[]</text></a><a xlink:actuate="onRequest" xlink:href="#n" xlink:show="new" xlink:title="#aws_sagemaker_labeling_job_data_source" xlink:type="simple" target="_top"><rect id="n" width="394" height="93.398" x="1450.5" y="1542" fill="#3D176E" rx="2.5" ry="2.5" style="stroke:#000d19;stroke-width:1.5"/><circle cx="1465.5" cy="1561.895" r="11" fill="#E98DF7" style="stroke:#000d19;stroke-width:1"/><path d="M1468.469 1567.535q-.578.297-1.219.438-.64.156-1.344.156-2.5 0-3.828-1.64-1.312-1.657-1.312-4.782t1.312-4.781q1.328-1.656 3.828-1.656.703 0 1.344.156.656.156 1.219.453v2.719q-.625-.578-1.219-.844-.594-.281-1.219-.281-1.343 0-2.031 1.078-.688 1.062-.688 3.156 0 2.094.688 3.172.688 1.062 2.031 1.062.625 0 1.219-.265.594-.281 1.219-.86v2.72Z"/><text x="1484.5" y="1567.78" fill="#D9B8FF" font-family="Helvetica" font-size="17" textLength="352">aws_sagemaker_labeling_job_data_source</text><path d="M1451.5 1581.789h392" style="stroke:#000d19;stroke-width:1.5"/><text x="1461.5" y="1600.999" fill="#D9B8FF" font-family="sans-serif" font-size="11" font-weight="bold" textLength="99">s3_data_source</text><text x="1560.5" y="1600.999" fill="#D9B8FF" font-family="sans-serif" font-size="11" textLength="41">: string</text><text x="1461.5" y="1623.804" fill="#D9B8FF" font-family="sans-serif" font-size="11" font-weight="bold" textLength="106">sns_data_source</text><text x="1567.5" y="1623.804" fill="#D9B8FF" font-family="sans-serif" font-size="11" textLength="41">: string</text></a><a xlink:actuate="onRequest" xlink:href="#o" xlink:show="new" xlink:title="#aws_sagemaker_label_counters" xlink:type="simple" target="_top"><rect id="o" width="306" height="161.813" x="1881.5" y="1240.5" fill="#3D176E" rx="2.5" ry="2.5" style="stroke:#000d19;stroke-width:1.5"/><circle cx="1896.5" cy="1260.395" r="11" fill="#E98DF7" style="stroke:#000d19;stroke-width:1"/><path d="M1899.469 1266.035q-.578.297-1.219.438-.64.156-1.344.156-2.5 0-3.828-1.64-1.312-1.657-1.312-4.782t1.312-4.781q1.328-1.656 3.828-1.656.703 0 1.344.156.656.156 1.219.453v2.719q-.625-.578-1.219-.844-.594-.281-1.219-.281-1.343 0-2.031 1.078-.688 1.062-.688 3.156 0 2.094.688 3.172.688 1.062 2.031 1.062.625 0 1.219-.265.594-.281 1.219-.86v2.72Z"/><text x="1915.5" y="1266.28" fill="#D9B8FF" font-family="Helvetica" font-size="17" textLength="264">aws_sagemaker_label_counters</text><path d="M1882.5 1280.289h304" style="stroke:#000d19;stroke-width:1.5"/><text x="1892.5" y="1299.499" fill="#D9B8FF" font-family="sans-serif" font-size="11" font-weight="bold" textLength="84">total_labeled</text><text x="1976.5" y="1299.499" fill="#D9B8FF" font-family="sans-serif" font-size="11" textLength="36">: int64</text><text x="1892.5" y="1322.304" fill="#D9B8FF" font-family="sans-serif" font-size="11" font-weight="bold" textLength="97">human_labeled</text><text x="1989.5" y="1322.304" fill="#D9B8FF" font-family="sans-serif" font-size="11" textLength="36">: int64</text><text x="1892.5" y="1345.109" fill="#D9B8FF" font-family="sans-serif" font-size="11" font-weight="bold" textLength="108">machine_labeled</text><text x="2000.5" y="1345.109" fill="#D9B8FF" font-family="sans-serif" font-size="11" textLength="36">: int64</text><text x="1892.5" y="1367.914" fill="#D9B8FF" font-family="sans-serif" font-size="11" font-weight="bold" textLength="168">failed_non_retryable_error</text><text x="2060.5" y="1367.914" fill="#D9B8FF" font-family="sans-serif" font-size="11" textLength="36">: int64</text><text x="1892.5" y="1390.718" fill="#D9B8FF" font-family="sans-serif" font-size="11" font-weight="bold" textLength="64">unlabeled</text><text x="1956.5" y="1390.718" fill="#D9B8FF" font-family="sans-serif" font-size="11" textLength="36">: int64</text></a><a xlink:actuate="onRequest" xlink:href="#p" xlink:show="new" xlink:title="#aws_sagemaker_labeling_job_algorithms_config" xlink:type="simple" target="_top"><rect id="p" width="479" height="116.203" x="2223" y="1263.5" fill="#3D176E" rx="2.5" ry="2.5" style="stroke:#000d19;stroke-width:1.5"/><circle cx="2254.2" cy="1283.395" r="11" fill="#E98DF7" style="stroke:#000d19;stroke-width:1"/><path d="M2257.169 1289.035q-.578.297-1.219.438-.64.156-1.344.156-2.5 0-3.828-1.64-1.312-1.657-1.312-4.782t1.312-4.781q1.328-1.656 3.828-1.656.703 0 1.344.156.656.156 1.219.453v2.719q-.625-.578-1.219-.844-.594-.281-1.219-.281-1.344 0-2.031 1.078-.688 1.062-.688 3.156 0 2.094.688 3.172.688 1.062 2.031 1.062.625 0 1.219-.265.594-.281 1.219-.86v2.72Z"/><text x="2276.8" y="1289.28" fill="#D9B8FF" font-family="Helvetica" font-size="17" textLength="401">aws_sagemaker_labeling_job_algorithms_config</text><path d="M2224 1303.289h477" style="stroke:#000d19;stroke-width:1.5"/><text x="2234" y="1322.499" fill="#D9B8FF" font-family="sans-serif" font-size="11" font-weight="bold" textLength="261">labeling_job_algorithm_specification_arn</text><text x="2495" y="1322.499" fill="#D9B8FF" font-family="sans-serif" font-size="11" textLength="41">: string</text><text x="2234" y="1345.304" fill="#D9B8FF" font-family="sans-serif" font-size="11" font-weight="bold" textLength="213">initial_active_learning_model_arn</text><text x="2447" y="1345.304" fill="#D9B8FF" font-family="sans-serif" font-size="11" textLength="41">: string</text><text x="2234" y="1368.109" fill="#D9B8FF" font-family="sans-serif" font-size="11" font-weight="bold" textLength="186">labeling_job_resource_config</text><text x="2420" y="1368.109" fill="#D9B8FF" font-family="sans-serif" font-size="11" textLength="271">: aws_sagemaker_labeling_job_resource_config</text></a><a xlink:actuate="onRequest" xlink:href="#q" xlink:show="new" xlink:title="#aws_sagemaker_labeling_job_output" xlink:type="simple" target="_top"><rect id="q" width="350" height="93.398" x="2737.5" y="1275" fill="#3D176E" rx="2.5" ry="2.5" style="stroke:#000d19;stroke-width:1.5"/><circle cx="2752.5" cy="1294.895" r="11" fill="#E98DF7" style="stroke:#000d19;stroke-width:1"/><path d="M2755.469 1300.535q-.578.297-1.219.438-.64.156-1.344.156-2.5 0-3.828-1.64-1.312-1.657-1.312-4.782t1.312-4.781q1.328-1.656 3.828-1.656.703 0 1.344.156.656.156 1.219.453v2.719q-.625-.578-1.219-.844-.594-.281-1.219-.281-1.343 0-2.031 1.078-.688 1.062-.688 3.156 0 2.094.688 3.172.688 1.062 2.031 1.062.625 0 1.219-.265.594-.281 1.219-.86v2.72Z"/><text x="2771.5" y="1300.78" fill="#D9B8FF" font-family="Helvetica" font-size="17" textLength="308">aws_sagemaker_labeling_job_output</text><path d="M2738.5 1314.789h348" style="stroke:#000d19;stroke-width:1.5"/><text x="2748.5" y="1333.999" fill="#D9B8FF" font-family="sans-serif" font-size="11" font-weight="bold" textLength="141">output_dataset_s3_uri</text><text x="2889.5" y="1333.999" fill="#D9B8FF" font-family="sans-serif" font-size="11" textLength="41">: string</text><text x="2748.5" y="1356.804" fill="#D9B8FF" font-family="sans-serif" font-size="11" font-weight="bold" textLength="205">final_active_learning_model_arn</text><text x="2953.5" y="1356.804" fill="#D9B8FF" font-family="sans-serif" font-size="11" textLength="41">: string</text></a><path fill="none" d="M1647.5 303.43V403.9m-7-100.64 7-20 7 20h-14zm7 353.38V756.7m-7-100.25 7-20 7 20h-14zm176.74 444.83c46.53 46.95 94.92 95.78 134.19 135.4" style="stroke:#ffaf37;stroke-width:2"/><path fill="#FFAF37" d="m1955.2 1240.49-3.498-9.207-.023 5.657-5.657-.023 9.178 3.573z" style="stroke:#ffaf37;stroke-width:2"/><path fill="none" d="M1647.5 1101.28v168.3" style="stroke:#ffaf37;stroke-width:2"/><path fill="#FFAF37" d="m1647.5 1274.72 4-9-4 4-4-4 4 9z" style="stroke:#ffaf37;stroke-width:2"/><path fill="none" d="M1383.18 993.43c-139.64 38.75-311.48 94.91-455.68 167.57-53.58 27-108.38 66.23-150.13 99.03" style="stroke:#ffaf37;stroke-width:2"/><path fill="#FFAF37" d="m773.37 1263.18 9.543-2.435-5.618-.662.662-5.618-4.587 8.715z" style="stroke:#ffaf37;stroke-width:2"/><path fill="none" d="M1383.39 953.75c-241.37 28.31-604.6 87.71-899.89 207.25-68.21 27.61-137.91 74.7-185.81 110.57" style="stroke:#ffaf37;stroke-width:2"/><path fill="#FFAF37" d="m293.41 1274.79 9.596-2.216-5.601-.79.79-5.602-4.785 8.608z" style="stroke:#ffaf37;stroke-width:2"/><path fill="none" d="M1911.78 1029.48c93.91 37.99 199.43 83.73 292.72 131.52 58.01 29.72 120.23 67.98 169.03 99.58" style="stroke:#ffaf37;stroke-width:2"/><path fill="#FFAF37" d="m2377.91 1263.42-5.388-8.245 1.189 5.531-5.531 1.189 9.73 1.525z" style="stroke:#ffaf37;stroke-width:2"/><path fill="none" d="M1442.23 1101.28c-22.41 18.69-45.17 37.68-67.45 56.27" style="stroke:#ffaf37;stroke-width:2"/><path fill="#FFAF37" d="m1370.92 1160.78 9.476-2.685-5.634-.514.514-5.634-4.356 8.833z" style="stroke:#ffaf37;stroke-width:2"/><path fill="none" d="M1911.71 951.61c224.25 26.43 549.75 84.28 807.79 209.39 56.04 27.17 109.81 73.89 146.29 109.77" style="stroke:#ffaf37;stroke-width:2"/><path fill="#FFAF37" d="m2869.71 1274.64-3.591-9.17.034 5.656-5.657.034 9.214 3.48z" style="stroke:#ffaf37;stroke-width:2"/><path fill="none" d="M1647.5 495.52v100.3m-7-100.43 7-20 7 20h-14zm822 1139.81v66.14" style="stroke:#ffaf37;stroke-width:2"/><path fill="#FFAF37" d="m2462.5 1706.36 4-9-4 4-4-4 4 9z" style="stroke:#ffaf37;stroke-width:2"/><path fill="none" d="M961.61 1482c-28.05 20.54-54.87 40.17-77.6 56.81" style="stroke:#ffaf37;stroke-width:2"/><path fill="#FFAF37" d="m879.82 1541.88 9.627-2.079-5.59-.87.871-5.59-4.908 8.539z" style="stroke:#ffaf37;stroke-width:2"/><path fill="none" d="M1187.32 1482c1.19 24.25 2.32 47.24 3.22 65.53" style="stroke:#ffaf37;stroke-width:2"/><path fill="#FFAF37" d="m1190.79 1552.56 3.559-9.183-3.802 4.189-4.189-3.801 4.432 8.795z" style="stroke:#ffaf37;stroke-width:2"/><path fill="none" d="M1192.5 1624.36v65.19" style="stroke:#ffaf37;stroke-width:2"/><path fill="#FFAF37" d="m1192.5 1694.83 4-9-4 4-4-4 4 9z" style="stroke:#ffaf37;stroke-width:2"/><path fill="none" d="M1647.5 1368.06v168.36" style="stroke:#ffaf37;stroke-width:2"/><path fill="#FFAF37" d="m1647.5 1541.65 4-9-4 4-4-4 4 9z" style="stroke:#ffaf37;stroke-width:2"/><path fill="none" d="M2462.5 1379.67v157.09" style="stroke:#ffaf37;stroke-width:2"/><path fill="#FFAF37" d="m2462.5 1541.86 4-9-4 4-4-4 4 9z" style="stroke:#ffaf37;stroke-width:2"/></svg>