<svg xmlns="http://www.w3.org/2000/svg" xmlns:xlink="http://www.w3.org/1999/xlink" width="1420" height="452" preserveAspectRatio="none" style="width:1420px;height:452px;background:#00000000"><a xlink:actuate="onRequest" xlink:href="#a" xlink:show="new" xlink:title="#aws_s3_bucket" xlink:type="simple" target="_top"><rect id="a" width="168" height="39.789" x="963.24" y="207" fill="#3D176E" rx="2.5" ry="2.5" style="stroke:#000d19;stroke-width:1.5"/><circle cx="978.24" cy="226.894" r="11" fill="#E98DF7" style="stroke:#000d19;stroke-width:1"/><path d="M981.209 232.535q-.578.297-1.219.438-.64.156-1.344.156-2.5 0-3.828-1.64-1.312-1.657-1.312-4.782t1.312-4.781q1.328-1.656 3.828-1.656.703 0 1.344.156.656.156 1.219.453v2.719q-.625-.579-1.219-.844-.594-.281-1.219-.281-1.343 0-2.031 1.078-.688 1.062-.688 3.156 0 2.094.688 3.172.688 1.062 2.031 1.062.625 0 1.219-.265.594-.281 1.219-.86v2.72Z"/><text x="997.24" y="232.78" fill="#D9B8FF" font-family="Helvetica" font-size="17" textLength="126">aws_s3_bucket</text></a><a xlink:actuate="onRequest" xlink:href="#b" xlink:show="new" xlink:title="#aws_kms_key" xlink:type="simple" target="_top"><rect id="b" width="158" height="39.789" x="238.24" y="207" fill="#3D176E" rx="2.5" ry="2.5" style="stroke:#000d19;stroke-width:1.5"/><circle cx="253.24" cy="226.894" r="11" fill="#E98DF7" style="stroke:#000d19;stroke-width:1"/><path d="M256.209 232.535q-.578.297-1.219.438-.64.156-1.344.156-2.5 0-3.828-1.64-1.312-1.657-1.312-4.782t1.312-4.781q1.328-1.656 3.828-1.656.703 0 1.344.156.656.156 1.219.453v2.719q-.625-.579-1.219-.844-.594-.281-1.219-.281-1.343 0-2.031 1.078-.688 1.062-.688 3.156 0 2.094.688 3.172.688 1.062 2.031 1.062.625 0 1.219-.265.594-.281 1.219-.86v2.72Z"/><text x="272.24" y="232.78" fill="#D9B8FF" font-family="Helvetica" font-size="17" textLength="116">aws_kms_key</text></a><a xlink:actuate="onRequest" xlink:href="#c" xlink:show="new" xlink:title="#aws_sagemaker_domain" xlink:type="simple" target="_top"><rect id="c" width="248" height="39.789" x="493.24" y="107" fill="#3D176E" rx="2.5" ry="2.5" style="stroke:#000d19;stroke-width:1.5"/><circle cx="508.24" cy="126.894" r="11" fill="#E98DF7" style="stroke:#000d19;stroke-width:1"/><path d="M511.209 132.535q-.578.297-1.219.438-.64.156-1.344.156-2.5 0-3.828-1.64-1.312-1.657-1.312-4.782t1.312-4.781q1.328-1.657 3.828-1.657.703 0 1.344.157.656.156 1.219.453v2.719q-.625-.579-1.219-.844-.594-.281-1.219-.281-1.344 0-2.031 1.078-.688 1.062-.688 3.156 0 2.094.688 3.172.688 1.062 2.031 1.062.625 0 1.219-.265.594-.281 1.219-.86v2.72Z"/><text x="527.24" y="132.78" fill="#D9B8FF" font-family="Helvetica" font-size="17" textLength="206">aws_sagemaker_domain</text></a><a xlink:actuate="onRequest" xlink:href="#d" xlink:show="new" xlink:title="#aws_sagemaker_user_profile" xlink:type="simple" target="_top"><rect id="d" width="283" height="39.789" x="573.74" y="207" fill="#3D176E" rx="2.5" ry="2.5" style="stroke:#000d19;stroke-width:1.5"/><circle cx="588.74" cy="226.894" r="11" fill="#E98DF7" style="stroke:#000d19;stroke-width:1"/><path d="M591.709 232.535q-.578.297-1.219.438-.64.156-1.344.156-2.5 0-3.828-1.64-1.312-1.657-1.312-4.782t1.312-4.781q1.328-1.656 3.828-1.656.703 0 1.344.156.656.156 1.219.453v2.719q-.625-.579-1.219-.844-.594-.281-1.219-.281-1.343 0-2.031 1.078-.688 1.062-.688 3.156 0 2.094.688 3.172.688 1.062 2.031 1.062.625 0 1.219-.265.594-.281 1.219-.86v2.72Z"/><text x="607.74" y="232.78" fill="#D9B8FF" font-family="Helvetica" font-size="17" textLength="241">aws_sagemaker_user_profile</text></a><a xlink:actuate="onRequest" xlink:href="#e" xlink:show="new" xlink:title="#aws_sagemaker_image" xlink:type="simple" target="_top"><rect id="e" width="237" height="39.789" x="330.74" y="407" fill="#3D176E" rx="2.5" ry="2.5" style="stroke:#000d19;stroke-width:1.5"/><circle cx="345.74" cy="426.894" r="11" fill="#E98DF7" style="stroke:#000d19;stroke-width:1"/><path d="M348.709 432.535q-.578.297-1.219.438-.64.156-1.344.156-2.5 0-3.828-1.64-1.312-1.657-1.312-4.782t1.312-4.781q1.328-1.656 3.828-1.656.703 0 1.344.156.656.156 1.219.453v2.719q-.625-.579-1.219-.844-.594-.281-1.219-.281-1.344 0-2.031 1.078-.688 1.062-.688 3.156 0 2.094.688 3.172.688 1.062 2.031 1.062.625 0 1.219-.265.594-.281 1.219-.86v2.72Z"/><text x="364.74" y="432.78" fill="#D9B8FF" font-family="Helvetica" font-size="17" textLength="195">aws_sagemaker_image</text></a><a xlink:actuate="onRequest" xlink:href="#f" xlink:show="new" xlink:title="#aws_sagemaker_app" xlink:type="simple" target="_top"><rect id="f" width="215" height="39.789" x="502.74" y="307" fill="#3D176E" rx="2.5" ry="2.5" style="stroke:#000d19;stroke-width:1.5"/><circle cx="517.74" cy="326.894" r="11" fill="#E98DF7" style="stroke:#000d19;stroke-width:1"/><path d="M520.709 332.535q-.578.297-1.219.438-.64.156-1.344.156-2.5 0-3.828-1.64-1.312-1.657-1.312-4.782t1.312-4.781q1.328-1.656 3.828-1.656.703 0 1.344.156.656.156 1.219.453v2.719q-.625-.579-1.219-.844-.594-.281-1.219-.281-1.343 0-2.031 1.078-.688 1.062-.688 3.156 0 2.094.688 3.172.688 1.062 2.031 1.062.625 0 1.219-.265.594-.281 1.219-.86v2.72Z"/><text x="536.74" y="332.78" fill="#D9B8FF" font-family="Helvetica" font-size="17" textLength="173">aws_sagemaker_app</text></a><a xlink:actuate="onRequest" xlink:href="#g" xlink:show="new" xlink:title="#aws_sagemaker_pipeline" xlink:type="simple" target="_top"><rect id="g" width="251" height="39.789" x="96.74" y="307" fill="#3D176E" rx="2.5" ry="2.5" style="stroke:#000d19;stroke-width:1.5"/><circle cx="111.74" cy="326.894" r="11" fill="#E98DF7" style="stroke:#000d19;stroke-width:1"/><path d="M114.709 332.535q-.578.297-1.219.438-.64.156-1.344.156-2.5 0-3.828-1.64-1.312-1.657-1.312-4.782t1.312-4.781q1.328-1.656 3.828-1.656.703 0 1.344.156.656.156 1.219.453v2.719q-.625-.579-1.219-.844-.594-.281-1.219-.281-1.344 0-2.031 1.078-.688 1.062-.688 3.156 0 2.094.688 3.172.688 1.062 2.031 1.062.625 0 1.219-.265.594-.281 1.219-.86v2.72Z"/><text x="130.74" y="332.78" fill="#D9B8FF" font-family="Helvetica" font-size="17" textLength="209">aws_sagemaker_pipeline</text></a><a xlink:actuate="onRequest" xlink:href="#h" xlink:show="new" xlink:title="#aws_sagemaker_trial" xlink:type="simple" target="_top"><rect id="h" width="219" height="39.789" x="1074.74" y="307" fill="#3D176E" rx="2.5" ry="2.5" style="stroke:#000d19;stroke-width:1.5"/><circle cx="1089.74" cy="326.894" r="11" fill="#E98DF7" style="stroke:#000d19;stroke-width:1"/><path d="M1092.709 332.535q-.578.297-1.219.438-.64.156-1.344.156-2.5 0-3.828-1.64-1.312-1.657-1.312-4.782t1.312-4.781q1.328-1.656 3.828-1.656.703 0 1.344.156.656.156 1.219.453v2.719q-.625-.579-1.219-.844-.594-.281-1.219-.281-1.343 0-2.031 1.078-.688 1.062-.688 3.156 0 2.094.688 3.172.688 1.062 2.031 1.062.625 0 1.219-.265.594-.281 1.219-.86v2.72Z"/><text x="1108.74" y="332.78" fill="#D9B8FF" font-family="Helvetica" font-size="17" textLength="177">aws_sagemaker_trial</text></a><a xlink:actuate="onRequest" xlink:href="#i" xlink:show="new" xlink:title="#aws_sagemaker_artifact" xlink:type="simple" target="_top"><rect id="i" width="245" height="39.789" x="787.74" y="307" fill="#3D176E" rx="2.5" ry="2.5" style="stroke:#000d19;stroke-width:1.5"/><circle cx="802.74" cy="326.894" r="11" fill="#E98DF7" style="stroke:#000d19;stroke-width:1"/><path d="M805.709 332.535q-.578.297-1.219.438-.64.156-1.344.156-2.5 0-3.828-1.64-1.312-1.657-1.312-4.782t1.312-4.781q1.328-1.656 3.828-1.656.703 0 1.344.156.656.156 1.219.453v2.719q-.625-.579-1.219-.844-.594-.281-1.219-.281-1.343 0-2.031 1.078-.688 1.062-.688 3.156 0 2.094.688 3.172.688 1.062 2.031 1.062.625 0 1.219-.265.594-.281 1.219-.86v2.72Z"/><text x="821.74" y="332.78" fill="#D9B8FF" font-family="Helvetica" font-size="17" textLength="203">aws_sagemaker_artifact</text></a><a xlink:actuate="onRequest" xlink:href="#j" xlink:show="new" xlink:title="#aws_ec2_security_group" xlink:type="simple" target="_top"><rect id="j" width="245" height="39.789" x="409.74" y="7" fill="#3D176E" rx="2.5" ry="2.5" style="stroke:#000d19;stroke-width:1.5"/><circle cx="424.74" cy="26.895" r="11" fill="#E98DF7" style="stroke:#000d19;stroke-width:1"/><path d="M427.709 32.535q-.578.297-1.219.438-.64.156-1.344.156-2.5 0-3.828-1.64-1.312-1.657-1.312-4.782t1.312-4.781q1.328-1.656 3.828-1.656.703 0 1.344.156.656.156 1.219.453v2.719q-.625-.578-1.219-.844-.594-.281-1.219-.281-1.344 0-2.031 1.078-.688 1.062-.688 3.156 0 2.094.688 3.172.688 1.062 2.031 1.062.625 0 1.219-.265.594-.281 1.219-.86v2.72Z"/><text x="443.74" y="32.78" fill="#D9B8FF" font-family="Helvetica" font-size="17" textLength="203">aws_ec2_security_group</text></a><a xlink:actuate="onRequest" xlink:href="#k" xlink:show="new" xlink:title="#aws_ec2_subnet" xlink:type="simple" target="_top"><rect id="k" width="179" height="39.789" x="689.74" y="7" fill="#3D176E" rx="2.5" ry="2.5" style="stroke:#000d19;stroke-width:1.5"/><circle cx="704.74" cy="26.895" r="11" fill="#E98DF7" style="stroke:#000d19;stroke-width:1"/><path d="M707.709 32.535q-.578.297-1.219.438-.64.156-1.344.156-2.5 0-3.828-1.64-1.312-1.657-1.312-4.782t1.312-4.781q1.328-1.656 3.828-1.656.703 0 1.344.156.656.156 1.219.453v2.719q-.625-.578-1.219-.844-.594-.281-1.219-.281-1.343 0-2.031 1.078-.688 1.062-.688 3.156 0 2.094.688 3.172.688 1.062 2.031 1.062.625 0 1.219-.265.594-.281 1.219-.86v2.72Z"/><text x="723.74" y="32.78" fill="#D9B8FF" font-family="Helvetica" font-size="17" textLength="137">aws_ec2_subnet</text></a><a xlink:actuate="onRequest" xlink:href="#l" xlink:show="new" xlink:title="#aws_iam_role" xlink:type="simple" target="_top"><rect id="l" width="157" height="39.789" x="35.74" y="7" fill="#3D176E" rx="2.5" ry="2.5" style="stroke:#000d19;stroke-width:1.5"/><circle cx="50.74" cy="26.895" r="11" fill="#E98DF7" style="stroke:#000d19;stroke-width:1"/><path d="M53.709 32.535q-.578.297-1.219.438-.64.156-1.344.156-2.5 0-3.828-1.64-1.312-1.657-1.312-4.782t1.312-4.781q1.328-1.656 3.828-1.656.703 0 1.344.156.656.156 1.219.453v2.719q-.625-.578-1.219-.844-.594-.281-1.219-.281-1.343 0-2.031 1.078-.688 1.062-.688 3.156 0 2.094.688 3.172.688 1.062 2.031 1.062.625 0 1.219-.265.594-.281 1.219-.86v2.72Z"/><text x="69.74" y="32.78" fill="#D9B8FF" font-family="Helvetica" font-size="17" textLength="115">aws_iam_role</text></a><a xlink:actuate="onRequest" xlink:href="#m" xlink:show="new" xlink:title="#aws_sagemaker_code_repository" xlink:type="simple" target="_top"><rect id="m" width="316" height="39.789" x="1097.24" y="7" fill="#3D176E" rx="2.5" ry="2.5" style="stroke:#000d19;stroke-width:1.5"/><circle cx="1112.24" cy="26.895" r="11" fill="#E98DF7" style="stroke:#000d19;stroke-width:1"/><path d="M1115.209 32.535q-.578.297-1.219.438-.64.156-1.344.156-2.5 0-3.828-1.64-1.312-1.657-1.312-4.782t1.312-4.781q1.328-1.656 3.828-1.656.703 0 1.344.156.656.156 1.219.453v2.719q-.625-.578-1.219-.844-.594-.281-1.219-.281-1.343 0-2.031 1.078-.688 1.062-.688 3.156 0 2.094.688 3.172.688 1.062 2.031 1.062.625 0 1.219-.265.594-.281 1.219-.86v2.72Z"/><text x="1131.24" y="32.78" fill="#D9B8FF" font-family="Helvetica" font-size="17" textLength="274">aws_sagemaker_code_repository</text></a><path fill="none" d="m636.6 147.36 55.59 55.59" style="stroke:#1a83af;stroke-width:2"/><path fill="#1A83AF" d="m695.92 206.68-3.535-9.192v5.656h-5.657l9.192 3.536z" style="stroke:#1a83af;stroke-width:2"/><path fill="none" d="M597.74 147.18c-15.18 15.45-36.33 38.08-52.5 59.82-30.94 41.58-39 52.61-60 100-14.04 31.69-24.63 70.44-30.58 94.93" style="stroke:#1a83af;stroke-width:2"/><path fill="#1A83AF" d="m453.47 406.93 5.999-7.811-4.827 2.95-2.95-4.826 1.778 9.687z" style="stroke:#1a83af;stroke-width:2"/><path fill="none" d="M596.45 147.19c-14.37 14.76-32.27 36.52-40.21 59.81-11.7 34.3 12.23 72.14 31.88 95.73" style="stroke:#1a83af;stroke-width:2"/><path fill="#1A83AF" d="m591.48 306.68-2.8-9.443-.446 5.64-5.639-.446 8.885 4.249z" style="stroke:#1a83af;stroke-width:2"/><path fill="none" d="M493.22 135.85C389.93 145.27 254.4 165.37 220.24 207c-21.63 26.36-14.55 68.17-6.78 94.57" style="stroke:#1a83af;stroke-width:2"/><path fill="#1A83AF" d="m215.02 306.64 1.17-9.78-2.643 5.002-5.002-2.644 6.475 7.422z" style="stroke:#1a83af;stroke-width:2"/><path fill="none" d="M700.66 147.01c74.2 16.91 182.39 41.57 258.09 58.82" style="stroke:#1a83af;stroke-width:2"/><path fill="#1A83AF" d="m963.69 206.96-7.882-5.906 3.008 4.791-4.791 3.007 9.665-1.892z" style="stroke:#1a83af;stroke-width:2"/><path fill="none" d="M741.33 131.32c137.8 6.23 348.7 24.15 407.91 75.68 27.11 23.59 33.75 66.99 35.08 94.35" style="stroke:#1a83af;stroke-width:2"/><path fill="#1A83AF" d="m1184.53 306.6 3.636-9.153-3.836 4.157-4.158-3.836 4.358 8.832z" style="stroke:#1a83af;stroke-width:2"/><path fill="none" d="M559.04 147.01c-51.25 16.74-125.74 41.08-178.47 58.3" style="stroke:#1a83af;stroke-width:2"/><path fill="#1A83AF" d="m375.53 206.96 9.798 1.002-5.046-2.557 2.557-5.046-7.309 6.601z" style="stroke:#1a83af;stroke-width:2"/><path fill="none" d="M741.27 141.16C788.32 152 839 171.6 874.24 207c25.27 25.38 32.91 67.86 35.15 94.6" style="stroke:#1a83af;stroke-width:2"/><path fill="#1A83AF" d="m909.77 306.73 3.32-9.272-3.692 4.286-4.286-3.692 4.658 8.678z" style="stroke:#1a83af;stroke-width:2"/><path fill="none" d="M806.22 247.01c80.94 16.91 198.93 41.57 281.5 58.82" style="stroke:#1a83af;stroke-width:2"/><path fill="#1A83AF" d="m1093.11 306.96-8.002-5.741 3.106 4.728-4.728 3.106 9.624-2.093z" style="stroke:#1a83af;stroke-width:2"/><path fill="none" d="M753.3 247.13c32.88 16.52 80.35 40.38 114.46 57.52" style="stroke:#1a83af;stroke-width:2"/><path fill="#1A83AF" d="m872.28 306.92-6.251-7.61 1.782 5.368-5.37 1.782 9.839.46z" style="stroke:#1a83af;stroke-width:2"/><path fill="none" d="M694.75 247.13c-17.2 16.05-41.82 39.02-60.05 56.04" style="stroke:#1a83af;stroke-width:2"/><path fill="#1A83AF" d="m630.68 306.92 9.308-3.218-5.653-.194.194-5.654-3.849 9.066z" style="stroke:#1a83af;stroke-width:2"/><path fill="none" d="M619.6 247.01c-85.25 16.95-209.6 41.67-296.42 58.93" style="stroke:#1a83af;stroke-width:2"/><path fill="#1A83AF" d="m318.03 306.96 9.606 2.173-4.702-3.145 3.146-4.702-8.05 5.674z" style="stroke:#1a83af;stroke-width:2"/><path fill="none" d="M578.82 347.13c-26.93 16.39-65.71 39.99-93.82 57.1" style="stroke:#1a83af;stroke-width:2"/><path fill="#1A83AF" d="m480.59 406.92 9.768-1.263-5.497-1.337 1.337-5.496-5.608 8.096z" style="stroke:#1a83af;stroke-width:2"/><path fill="none" d="M549.03 47.36c13.74 15.84 33.22 38.3 47.84 55.16" style="stroke:#1a83af;stroke-width:2"/><path fill="#1A83AF" d="m600.48 106.68-2.878-9.419-.4 5.643-5.642-.4 8.92 4.176z" style="stroke:#1a83af;stroke-width:2"/><path fill="none" d="M747.62 47.13c-27.1 16.39-66.11 39.99-94.4 57.1" style="stroke:#1a83af;stroke-width:2"/><path fill="#1A83AF" d="m648.78 106.92 9.773-1.224-5.492-1.359 1.359-5.491-5.64 8.074z" style="stroke:#1a83af;stroke-width:2"/><path fill="none" d="M103.73 47.16C75.68 101.14 6 256.47 79.24 347c30.8 38.06 151.2 58.59 246.41 69.09" style="stroke:#1a83af;stroke-width:2"/><path fill="#1A83AF" d="m330.73 416.64-8.513-4.953 3.543 4.41-4.411 3.542 9.381-2.999z" style="stroke:#1a83af;stroke-width:2"/><path fill="none" d="M192.83 43.31c86.6 16.87 226.19 44.07 321.46 62.63" style="stroke:#1a83af;stroke-width:2"/><path fill="#1A83AF" d="m519.36 106.93-8.066-5.651 3.159 4.692-4.693 3.16 9.6-2.201z" style="stroke:#1a83af;stroke-width:2"/><path fill="none" d="M121.16 47.09c18.89 52.13 71.32 196.8 92.27 254.6" style="stroke:#1a83af;stroke-width:2"/><path fill="#1A83AF" d="m215.24 306.68.7-9.824-2.4 5.122-5.123-2.4 6.823 7.102z" style="stroke:#1a83af;stroke-width:2"/><path fill="none" d="M1264.16 47.28c16.94 39.57 49.29 131.94 17.08 199.72-11.58 24.36-34.74 43.67-55.53 57.1" style="stroke:#1a83af;stroke-width:2"/><path fill="#1A83AF" d="m1221.31 306.88 9.745-1.425-5.518-1.245 1.245-5.519-5.472 8.189z" style="stroke:#1a83af;stroke-width:2"/><path fill="none" d="M1131.47 47.01c-110.96 17.05-273.12 41.95-385.55 59.22" style="stroke:#1a83af;stroke-width:2"/><path fill="#1A83AF" d="m740.94 107 9.502 2.591-4.56-3.348 3.349-4.56L740.94 107z" style="stroke:#1a83af;stroke-width:2"/><path fill="none" d="M1251.29 47.18c-9.7 42.3-38.67 144.28-102.05 199.82-32.61 28.58-75.84 46.87-116.56 58.56" style="stroke:#1a83af;stroke-width:2"/><path fill="#1A83AF" d="m1027.72 306.95 9.748 1.408-4.936-2.765 2.765-4.935-7.577 6.292z" style="stroke:#1a83af;stroke-width:2"/></svg>