<svg xmlns="http://www.w3.org/2000/svg" xmlns:xlink="http://www.w3.org/1999/xlink" width="775" height="1162" preserveAspectRatio="none" style="width:775px;height:1162px;background:#00000000"><a xlink:actuate="onRequest" xlink:href="#a" xlink:show="new" xlink:title="#resource" xlink:type="simple" target="_top"><rect id="a" width="195" height="275.836" x="339" y="7" fill="#3D176E" rx="2.5" ry="2.5" style="stroke:#000d19;stroke-width:1.5"/><circle cx="391.75" cy="26.895" r="11" fill="#E98DF7" style="stroke:#000d19;stroke-width:1"/><path d="M394.719 32.535q-.578.297-1.219.438-.64.156-1.344.156-2.5 0-3.828-1.64-1.312-1.657-1.312-4.782t1.312-4.781q1.328-1.656 3.828-1.656.703 0 1.344.156.656.156 1.219.453v2.719q-.625-.578-1.219-.844-.594-.281-1.219-.281-1.344 0-2.031 1.078-.688 1.062-.688 3.156 0 2.094.688 3.172.688 1.062 2.031 1.062.625 0 1.219-.265.594-.281 1.219-.86v2.72Z"/><text x="417.25" y="32.78" fill="#D9B8FF" font-family="Helvetica" font-size="17" textLength="71">resource</text><path d="M340 46.789h193" style="stroke:#000d19;stroke-width:1.5"/><text x="350" y="65.999" fill="#D9B8FF" font-family="sans-serif" font-size="11" font-weight="bold" textLength="12">id</text><text x="362" y="65.999" fill="#D9B8FF" font-family="sans-serif" font-size="11" textLength="41">: string</text><text x="350" y="88.804" fill="#D9B8FF" font-family="sans-serif" font-size="11" font-weight="bold" textLength="28">tags</text><text x="378" y="88.804" fill="#D9B8FF" font-family="sans-serif" font-size="11" textLength="145">: dictionary[string, string]</text><text x="350" y="111.609" fill="#D9B8FF" font-family="sans-serif" font-size="11" font-weight="bold" textLength="35">name</text><text x="385" y="111.609" fill="#D9B8FF" font-family="sans-serif" font-size="11" textLength="41">: string</text><text x="350" y="134.414" fill="#D9B8FF" font-family="sans-serif" font-size="11" font-weight="bold" textLength="35">ctime</text><text x="385" y="134.414" fill="#D9B8FF" font-family="sans-serif" font-size="11" textLength="58">: datetime</text><text x="350" y="157.218" fill="#D9B8FF" font-family="sans-serif" font-size="11" font-weight="bold" textLength="24">age</text><text x="374" y="157.218" fill="#D9B8FF" font-family="sans-serif" font-size="11" textLength="55">: duration</text><text x="350" y="180.023" fill="#D9B8FF" font-family="sans-serif" font-size="11" font-weight="bold" textLength="39">mtime</text><text x="389" y="180.023" fill="#D9B8FF" font-family="sans-serif" font-size="11" textLength="58">: datetime</text><text x="350" y="202.828" fill="#D9B8FF" font-family="sans-serif" font-size="11" font-weight="bold" textLength="75">last_update</text><text x="425" y="202.828" fill="#D9B8FF" font-family="sans-serif" font-size="11" textLength="55">: duration</text><text x="350" y="225.632" fill="#D9B8FF" font-family="sans-serif" font-size="11" font-weight="bold" textLength="36">atime</text><text x="386" y="225.632" fill="#D9B8FF" font-family="sans-serif" font-size="11" textLength="58">: datetime</text><text x="350" y="248.437" fill="#D9B8FF" font-family="sans-serif" font-size="11" font-weight="bold" textLength="74">last_access</text><text x="424" y="248.437" fill="#D9B8FF" font-family="sans-serif" font-size="11" textLength="55">: duration</text><text x="350" y="271.242" fill="#D9B8FF" font-family="sans-serif" font-size="11" font-weight="bold" textLength="27">kind</text><text x="377" y="271.242" fill="#D9B8FF" font-family="sans-serif" font-size="11" textLength="41">: string</text></a><a xlink:actuate="onRequest" xlink:href="#b" xlink:show="new" xlink:title="#aws_resource" xlink:type="simple" target="_top"><rect id="b" width="155" height="70.594" x="359" y="404" fill="#3D176E" rx="2.5" ry="2.5" style="stroke:#000d19;stroke-width:1.5"/><circle cx="374" cy="423.894" r="11" fill="#E98DF7" style="stroke:#000d19;stroke-width:1"/><path d="M376.969 429.535q-.578.297-1.219.438-.64.156-1.344.156-2.5 0-3.828-1.64-1.312-1.657-1.312-4.782t1.312-4.781q1.328-1.656 3.828-1.656.703 0 1.344.156.656.156 1.219.453v2.719q-.625-.579-1.219-.844-.594-.281-1.219-.281-1.344 0-2.031 1.078-.688 1.062-.688 3.156 0 2.094.688 3.172.688 1.062 2.031 1.062.625 0 1.219-.265.594-.281 1.219-.86v2.72Z"/><text x="393" y="429.78" fill="#D9B8FF" font-family="Helvetica" font-size="17" textLength="113">aws_resource</text><path d="M360 443.789h153" style="stroke:#000d19;stroke-width:1.5"/><text x="370" y="463" fill="#D9B8FF" font-family="sans-serif" font-size="11" font-weight="bold" textLength="21">arn</text><text x="391" y="463" fill="#D9B8FF" font-family="sans-serif" font-size="11" textLength="41">: string</text></a><a xlink:actuate="onRequest" xlink:href="#c" xlink:show="new" xlink:title="#aws_ec2_network_acl_entry" xlink:type="simple" target="_top"><rect id="c" width="278" height="230.227" x="129.5" y="772" fill="#3D176E" rx="2.5" ry="2.5" style="stroke:#000d19;stroke-width:1.5"/><circle cx="144.5" cy="791.894" r="11" fill="#E98DF7" style="stroke:#000d19;stroke-width:1"/><path d="M147.469 797.535q-.578.297-1.219.438-.64.156-1.344.156-2.5 0-3.828-1.64-1.312-1.657-1.312-4.782t1.312-4.781q1.328-1.657 3.828-1.657.703 0 1.344.157.656.156 1.219.453v2.719q-.625-.578-1.219-.844-.594-.281-1.219-.281-1.344 0-2.031 1.078-.688 1.062-.688 3.156 0 2.094.688 3.172.688 1.062 2.031 1.062.625 0 1.219-.265.594-.282 1.219-.86v2.72Z"/><text x="163.5" y="797.78" fill="#D9B8FF" font-family="Helvetica" font-size="17" textLength="236">aws_ec2_network_acl_entry</text><path d="M130.5 811.789h276" style="stroke:#000d19;stroke-width:1.5"/><text x="140.5" y="831" fill="#D9B8FF" font-family="sans-serif" font-size="11" font-weight="bold" textLength="64">cidr_block</text><text x="204.5" y="831" fill="#D9B8FF" font-family="sans-serif" font-size="11" textLength="41">: string</text><text x="140.5" y="853.804" fill="#D9B8FF" font-family="sans-serif" font-size="11" font-weight="bold" textLength="43">egress</text><text x="183.5" y="853.804" fill="#D9B8FF" font-family="sans-serif" font-size="11" textLength="53">: boolean</text><text x="140.5" y="876.609" fill="#D9B8FF" font-family="sans-serif" font-size="11" font-weight="bold" textLength="101">icmp_type_code</text><text x="241.5" y="876.609" fill="#D9B8FF" font-family="sans-serif" font-size="11" textLength="153">: aws_ec2_icmp_type_code</text><text x="140.5" y="899.414" fill="#D9B8FF" font-family="sans-serif" font-size="11" font-weight="bold" textLength="97">ipv6_cidr_block</text><text x="237.5" y="899.414" fill="#D9B8FF" font-family="sans-serif" font-size="11" textLength="41">: string</text><text x="140.5" y="922.218" fill="#D9B8FF" font-family="sans-serif" font-size="11" font-weight="bold" textLength="69">port_range</text><text x="209.5" y="922.218" fill="#D9B8FF" font-family="sans-serif" font-size="11" textLength="125">: aws_ec2_port_range</text><text x="140.5" y="945.023" fill="#D9B8FF" font-family="sans-serif" font-size="11" font-weight="bold" textLength="53">protocol</text><text x="193.5" y="945.023" fill="#D9B8FF" font-family="sans-serif" font-size="11" textLength="41">: string</text><text x="140.5" y="967.828" fill="#D9B8FF" font-family="sans-serif" font-size="11" font-weight="bold" textLength="71">rule_action</text><text x="211.5" y="967.828" fill="#D9B8FF" font-family="sans-serif" font-size="11" textLength="41">: string</text><text x="140.5" y="990.632" fill="#D9B8FF" font-family="sans-serif" font-size="11" font-weight="bold" textLength="79">rule_number</text><text x="219.5" y="990.632" fill="#D9B8FF" font-family="sans-serif" font-size="11" textLength="36">: int64</text></a><a xlink:actuate="onRequest" xlink:href="#d" xlink:show="new" xlink:title="#aws_ec2_icmp_type_code" xlink:type="simple" target="_top"><rect id="d" width="255" height="93.398" x="7" y="1062" fill="#3D176E" rx="2.5" ry="2.5" style="stroke:#000d19;stroke-width:1.5"/><circle cx="22" cy="1081.895" r="11" fill="#E98DF7" style="stroke:#000d19;stroke-width:1"/><path d="M24.969 1087.535q-.578.297-1.219.438-.64.156-1.344.156-2.5 0-3.828-1.64-1.312-1.657-1.312-4.782t1.312-4.781q1.328-1.656 3.828-1.656.703 0 1.344.156.656.156 1.219.453v2.719q-.625-.578-1.219-.844-.594-.281-1.219-.281-1.343 0-2.031 1.078-.688 1.062-.688 3.156 0 2.094.688 3.172.688 1.062 2.031 1.062.625 0 1.219-.265.594-.281 1.219-.86v2.72Z"/><text x="41" y="1087.78" fill="#D9B8FF" font-family="Helvetica" font-size="17" textLength="213">aws_ec2_icmp_type_code</text><path d="M8 1101.789h253" style="stroke:#000d19;stroke-width:1.5"/><text x="18" y="1120.999" fill="#D9B8FF" font-family="sans-serif" font-size="11" font-weight="bold" textLength="31">code</text><text x="49" y="1120.999" fill="#D9B8FF" font-family="sans-serif" font-size="11" textLength="36">: int64</text><text x="18" y="1143.804" fill="#D9B8FF" font-family="sans-serif" font-size="11" font-weight="bold" textLength="28">type</text><text x="46" y="1143.804" fill="#D9B8FF" font-family="sans-serif" font-size="11" textLength="36">: int64</text></a><a xlink:actuate="onRequest" xlink:href="#e" xlink:show="new" xlink:title="#aws_ec2_port_range" xlink:type="simple" target="_top"><rect id="e" width="213" height="93.398" x="297" y="1062" fill="#3D176E" rx="2.5" ry="2.5" style="stroke:#000d19;stroke-width:1.5"/><circle cx="312" cy="1081.895" r="11" fill="#E98DF7" style="stroke:#000d19;stroke-width:1"/><path d="M314.969 1087.535q-.578.297-1.219.438-.64.156-1.344.156-2.5 0-3.828-1.64-1.312-1.657-1.312-4.782t1.312-4.781q1.328-1.656 3.828-1.656.703 0 1.344.156.656.156 1.219.453v2.719q-.625-.578-1.219-.844-.594-.281-1.219-.281-1.344 0-2.031 1.078-.688 1.062-.688 3.156 0 2.094.688 3.172.688 1.062 2.031 1.062.625 0 1.219-.265.594-.281 1.219-.86v2.72Z"/><text x="331" y="1087.78" fill="#D9B8FF" font-family="Helvetica" font-size="17" textLength="171">aws_ec2_port_range</text><path d="M298 1101.789h211" style="stroke:#000d19;stroke-width:1.5"/><text x="308" y="1120.999" fill="#D9B8FF" font-family="sans-serif" font-size="11" font-weight="bold" textLength="72">from_range</text><text x="380" y="1120.999" fill="#D9B8FF" font-family="sans-serif" font-size="11" textLength="36">: int64</text><text x="308" y="1143.804" fill="#D9B8FF" font-family="sans-serif" font-size="11" font-weight="bold" textLength="56">to_range</text><text x="364" y="1143.804" fill="#D9B8FF" font-family="sans-serif" font-size="11" textLength="36">: int64</text></a><a xlink:actuate="onRequest" xlink:href="#f" xlink:show="new" xlink:title="#aws_ec2_network_acl" xlink:type="simple" target="_top"><rect id="f" width="337" height="116.203" x="268" y="596" fill="#3D176E" rx="2.5" ry="2.5" style="stroke:#000d19;stroke-width:1.5"/><circle cx="336.25" cy="615.894" r="11" fill="#E98DF7" style="stroke:#000d19;stroke-width:1"/><path d="M339.219 621.535q-.578.297-1.219.438-.64.156-1.344.156-2.5 0-3.828-1.64-1.312-1.657-1.312-4.782t1.312-4.781q1.328-1.657 3.828-1.657.703 0 1.344.157.656.156 1.219.453v2.719q-.625-.578-1.219-.844-.594-.281-1.219-.281-1.344 0-2.031 1.078-.688 1.062-.688 3.156 0 2.094.688 3.172.688 1.062 2.031 1.062.625 0 1.219-.265.594-.282 1.219-.86v2.72Z"/><text x="361.75" y="621.78" fill="#D9B8FF" font-family="Helvetica" font-size="17" textLength="182">aws_ec2_network_acl</text><path d="M269 635.789h335" style="stroke:#000d19;stroke-width:1.5"/><text x="279" y="655" fill="#D9B8FF" font-family="sans-serif" font-size="11" font-weight="bold" textLength="106">acl_associations</text><text x="385" y="655" fill="#D9B8FF" font-family="sans-serif" font-size="11" textLength="209">: aws_ec2_network_acl_association[]</text><text x="279" y="677.804" fill="#D9B8FF" font-family="sans-serif" font-size="11" font-weight="bold" textLength="70">acl_entries</text><text x="349" y="677.804" fill="#D9B8FF" font-family="sans-serif" font-size="11" textLength="173">: aws_ec2_network_acl_entry[]</text><text x="279" y="700.609" fill="#D9B8FF" font-family="sans-serif" font-size="11" font-weight="bold" textLength="63">is_default</text><text x="342" y="700.609" fill="#D9B8FF" font-family="sans-serif" font-size="11" textLength="53">: boolean</text></a><a xlink:actuate="onRequest" xlink:href="#g" xlink:show="new" xlink:title="#aws_ec2_network_acl_association" xlink:type="simple" target="_top"><rect id="g" width="325" height="116.203" x="443" y="829" fill="#3D176E" rx="2.5" ry="2.5" style="stroke:#000d19;stroke-width:1.5"/><circle cx="458" cy="848.894" r="11" fill="#E98DF7" style="stroke:#000d19;stroke-width:1"/><path d="M460.969 854.535q-.578.297-1.219.438-.64.156-1.344.156-2.5 0-3.828-1.64-1.312-1.657-1.312-4.782t1.312-4.781q1.328-1.657 3.828-1.657.703 0 1.344.157.656.156 1.219.453v2.719q-.625-.578-1.219-.844-.594-.281-1.219-.281-1.344 0-2.031 1.078-.688 1.062-.688 3.156 0 2.094.688 3.172.688 1.062 2.031 1.062.625 0 1.219-.265.594-.282 1.219-.86v2.72Z"/><text x="477" y="854.78" fill="#D9B8FF" font-family="Helvetica" font-size="17" textLength="283">aws_ec2_network_acl_association</text><path d="M444 868.789h323" style="stroke:#000d19;stroke-width:1.5"/><text x="454" y="888" fill="#D9B8FF" font-family="sans-serif" font-size="11" font-weight="bold" textLength="175">network_acl_association_id</text><text x="629" y="888" fill="#D9B8FF" font-family="sans-serif" font-size="11" textLength="41">: string</text><text x="454" y="910.804" fill="#D9B8FF" font-family="sans-serif" font-size="11" font-weight="bold" textLength="95">network_acl_id</text><text x="549" y="910.804" fill="#D9B8FF" font-family="sans-serif" font-size="11" textLength="41">: string</text><text x="454" y="933.609" fill="#D9B8FF" font-family="sans-serif" font-size="11" font-weight="bold" textLength="62">subnet_id</text><text x="516" y="933.609" fill="#D9B8FF" font-family="sans-serif" font-size="11" textLength="41">: string</text></a><path fill="none" d="M436.5 303.43V403.9m-7-100.64 7-20 7 20h-14zm-230.75 698.99c-11.8 19.33-23.48 38.47-33.59 55.02" style="stroke:#ffaf37;stroke-width:2"/><path fill="#FFAF37" d="m162.35 1061.87 8.118-5.576-5.501 1.315-1.316-5.501-1.301 9.762z" style="stroke:#ffaf37;stroke-width:2"/><path fill="none" d="m338.77 1002.25 33.84 55.02" style="stroke:#ffaf37;stroke-width:2"/><path fill="#FFAF37" d="m375.44 1061.87-1.301-9.762-1.315 5.501-5.502-1.315 8.118 5.576z" style="stroke:#ffaf37;stroke-width:2"/><path fill="none" d="M436.5 495.55v100.43m-7-100.87 7-20 7 20h-14zm48.78 216.99c24.98 34.15 56.73 77.55 82.26 112.44" style="stroke:#ffaf37;stroke-width:2"/><path fill="#FFAF37" d="m563.62 828.76-2.063-9.63-.88 5.588-5.588-.88 8.531 4.922z" style="stroke:#ffaf37;stroke-width:2"/><path fill="none" d="M394.97 712.1c-12.28 16.89-26.21 36.05-40.23 55.32" style="stroke:#ffaf37;stroke-width:2"/><path fill="#FFAF37" d="m351.56 771.79 8.53-4.922-5.587.88-.88-5.588-2.063 9.63z" style="stroke:#ffaf37;stroke-width:2"/></svg>