<svg xmlns="http://www.w3.org/2000/svg" xmlns:xlink="http://www.w3.org/1999/xlink" width="1870" height="452" preserveAspectRatio="none" style="width:1870px;height:452px;background:#00000000"><a xlink:actuate="onRequest" xlink:href="#a" xlink:show="new" xlink:title="#aws_iam_role" xlink:type="simple" target="_top"><rect id="a" width="157" height="39.789" x="14.85" y="7" fill="#3D176E" rx="2.5" ry="2.5" style="stroke:#000d19;stroke-width:1.5"/><circle cx="29.85" cy="26.895" r="11" fill="#E98DF7" style="stroke:#000d19;stroke-width:1"/><path d="M32.819 32.535q-.578.297-1.219.438-.64.156-1.344.156-2.5 0-3.828-1.64-1.312-1.657-1.312-4.782t1.312-4.781q1.328-1.656 3.828-1.656.703 0 1.344.156.656.156 1.219.453v2.719q-.625-.578-1.219-.844-.594-.281-1.219-.281-1.343 0-2.031 1.078-.688 1.062-.688 3.156 0 2.094.688 3.172.688 1.062 2.031 1.062.625 0 1.219-.265.594-.281 1.219-.86v2.72Z"/><text x="48.85" y="32.78" fill="#D9B8FF" font-family="Helvetica" font-size="17" textLength="115">aws_iam_role</text></a><a xlink:actuate="onRequest" xlink:href="#b" xlink:show="new" xlink:title="#aws_redshift_cluster" xlink:type="simple" target="_top"><rect id="b" width="213" height="39.789" x="66.85" y="107" fill="#3D176E" rx="2.5" ry="2.5" style="stroke:#000d19;stroke-width:1.5"/><circle cx="81.85" cy="126.894" r="11" fill="#E98DF7" style="stroke:#000d19;stroke-width:1"/><path d="M84.819 132.535q-.578.297-1.219.438-.64.156-1.344.156-2.5 0-3.828-1.64-1.312-1.657-1.312-4.782t1.312-4.781q1.328-1.657 3.828-1.657.703 0 1.344.157.656.156 1.219.453v2.719q-.625-.579-1.219-.844-.594-.281-1.219-.281-1.344 0-2.031 1.078-.688 1.062-.688 3.156 0 2.094.688 3.172.688 1.062 2.031 1.062.625 0 1.219-.265.594-.281 1.219-.86v2.72Z"/><text x="100.85" y="132.78" fill="#D9B8FF" font-family="Helvetica" font-size="17" textLength="171">aws_redshift_cluster</text></a><a xlink:actuate="onRequest" xlink:href="#c" xlink:show="new" xlink:title="#aws_sagemaker_auto_ml_job" xlink:type="simple" target="_top"><rect id="c" width="288" height="39.789" x="315.35" y="107" fill="#3D176E" rx="2.5" ry="2.5" style="stroke:#000d19;stroke-width:1.5"/><circle cx="330.35" cy="126.894" r="11" fill="#E98DF7" style="stroke:#000d19;stroke-width:1"/><path d="M333.319 132.535q-.578.297-1.219.438-.64.156-1.344.156-2.5 0-3.828-1.64-1.312-1.657-1.312-4.782t1.312-4.781q1.328-1.657 3.828-1.657.703 0 1.344.157.656.156 1.219.453v2.719q-.625-.579-1.219-.844-.594-.281-1.219-.281-1.343 0-2.031 1.078-.688 1.062-.688 3.156 0 2.094.688 3.172.688 1.062 2.031 1.062.625 0 1.219-.265.594-.281 1.219-.86v2.72Z"/><text x="349.35" y="132.78" fill="#D9B8FF" font-family="Helvetica" font-size="17" textLength="246">aws_sagemaker_auto_ml_job</text></a><a xlink:actuate="onRequest" xlink:href="#d" xlink:show="new" xlink:title="#aws_sagemaker_training_job" xlink:type="simple" target="_top"><rect id="d" width="285" height="39.789" x="690.85" y="307" fill="#3D176E" rx="2.5" ry="2.5" style="stroke:#000d19;stroke-width:1.5"/><circle cx="705.85" cy="326.894" r="11" fill="#E98DF7" style="stroke:#000d19;stroke-width:1"/><path d="M708.819 332.535q-.578.297-1.219.438-.64.156-1.344.156-2.5 0-3.828-1.64-1.312-1.657-1.312-4.782t1.312-4.781q1.328-1.656 3.828-1.656.703 0 1.344.156.656.156 1.219.453v2.719q-.625-.579-1.219-.844-.594-.281-1.219-.281-1.343 0-2.031 1.078-.688 1.062-.688 3.156 0 2.094.688 3.172.688 1.062 2.031 1.062.625 0 1.219-.265.594-.281 1.219-.86v2.72Z"/><text x="724.85" y="332.78" fill="#D9B8FF" font-family="Helvetica" font-size="17" textLength="243">aws_sagemaker_training_job</text></a><a xlink:actuate="onRequest" xlink:href="#e" xlink:show="new" xlink:title="#aws_sagemaker_processing_job" xlink:type="simple" target="_top"><rect id="e" width="306" height="39.789" x="733.35" y="207" fill="#3D176E" rx="2.5" ry="2.5" style="stroke:#000d19;stroke-width:1.5"/><circle cx="748.35" cy="226.894" r="11" fill="#E98DF7" style="stroke:#000d19;stroke-width:1"/><path d="M751.319 232.535q-.578.297-1.219.438-.64.156-1.344.156-2.5 0-3.828-1.64-1.312-1.657-1.312-4.782t1.312-4.781q1.328-1.656 3.828-1.656.703 0 1.344.156.656.156 1.219.453v2.719q-.625-.579-1.219-.844-.594-.281-1.219-.281-1.343 0-2.031 1.078-.688 1.062-.688 3.156 0 2.094.688 3.172.688 1.062 2.031 1.062.625 0 1.219-.265.594-.281 1.219-.86v2.72Z"/><text x="767.35" y="232.78" fill="#D9B8FF" font-family="Helvetica" font-size="17" textLength="264">aws_sagemaker_processing_job</text></a><a xlink:actuate="onRequest" xlink:href="#f" xlink:show="new" xlink:title="#aws_kms_key" xlink:type="simple" target="_top"><rect id="f" width="158" height="39.789" x="558.35" y="407" fill="#3D176E" rx="2.5" ry="2.5" style="stroke:#000d19;stroke-width:1.5"/><circle cx="573.35" cy="426.894" r="11" fill="#E98DF7" style="stroke:#000d19;stroke-width:1"/><path d="M576.319 432.535q-.578.297-1.219.438-.64.156-1.344.156-2.5 0-3.828-1.64-1.312-1.657-1.312-4.782t1.312-4.781q1.328-1.656 3.828-1.656.703 0 1.344.156.656.156 1.219.453v2.719q-.625-.579-1.219-.844-.594-.281-1.219-.281-1.343 0-2.031 1.078-.688 1.062-.688 3.156 0 2.094.688 3.172.688 1.062 2.031 1.062.625 0 1.219-.265.594-.281 1.219-.86v2.72Z"/><text x="592.35" y="432.78" fill="#D9B8FF" font-family="Helvetica" font-size="17" textLength="116">aws_kms_key</text></a><a xlink:actuate="onRequest" xlink:href="#g" xlink:show="new" xlink:title="#aws_ec2_subnet" xlink:type="simple" target="_top"><rect id="g" width="179" height="39.789" x="467.85" y="7" fill="#3D176E" rx="2.5" ry="2.5" style="stroke:#000d19;stroke-width:1.5"/><circle cx="482.85" cy="26.895" r="11" fill="#E98DF7" style="stroke:#000d19;stroke-width:1"/><path d="M485.819 32.535q-.578.297-1.219.438-.64.156-1.344.156-2.5 0-3.828-1.64-1.312-1.657-1.312-4.782t1.312-4.781q1.328-1.656 3.828-1.656.703 0 1.344.156.656.156 1.219.453v2.719q-.625-.578-1.219-.844-.594-.281-1.219-.281-1.343 0-2.031 1.078-.688 1.062-.688 3.156 0 2.094.688 3.172.688 1.062 2.031 1.062.625 0 1.219-.265.594-.281 1.219-.86v2.72Z"/><text x="501.85" y="32.78" fill="#D9B8FF" font-family="Helvetica" font-size="17" textLength="137">aws_ec2_subnet</text></a><a xlink:actuate="onRequest" xlink:href="#h" xlink:show="new" xlink:title="#aws_ec2_security_group" xlink:type="simple" target="_top"><rect id="h" width="245" height="39.789" x="825.85" y="7" fill="#3D176E" rx="2.5" ry="2.5" style="stroke:#000d19;stroke-width:1.5"/><circle cx="840.85" cy="26.895" r="11" fill="#E98DF7" style="stroke:#000d19;stroke-width:1"/><path d="M843.819 32.535q-.578.297-1.219.438-.64.156-1.344.156-2.5 0-3.828-1.64-1.312-1.657-1.312-4.782t1.312-4.781q1.328-1.656 3.828-1.656.703 0 1.344.156.656.156 1.219.453v2.719q-.625-.578-1.219-.844-.594-.281-1.219-.281-1.343 0-2.031 1.078-.688 1.062-.688 3.156 0 2.094.688 3.172.688 1.062 2.031 1.062.625 0 1.219-.265.594-.281 1.219-.86v2.72Z"/><text x="859.85" y="32.78" fill="#D9B8FF" font-family="Helvetica" font-size="17" textLength="203">aws_ec2_security_group</text></a><a xlink:actuate="onRequest" xlink:href="#i" xlink:show="new" xlink:title="#aws_s3_bucket" xlink:type="simple" target="_top"><rect id="i" width="168" height="39.789" x="848.35" y="407" fill="#3D176E" rx="2.5" ry="2.5" style="stroke:#000d19;stroke-width:1.5"/><circle cx="863.35" cy="426.894" r="11" fill="#E98DF7" style="stroke:#000d19;stroke-width:1"/><path d="M866.319 432.535q-.578.297-1.219.438-.64.156-1.344.156-2.5 0-3.828-1.64-1.312-1.657-1.312-4.782t1.312-4.781q1.328-1.656 3.828-1.656.703 0 1.344.156.656.156 1.219.453v2.719q-.625-.579-1.219-.844-.594-.281-1.219-.281-1.343 0-2.031 1.078-.688 1.062-.688 3.156 0 2.094.688 3.172.688 1.062 2.031 1.062.625 0 1.219-.265.594-.281 1.219-.86v2.72Z"/><text x="882.35" y="432.78" fill="#D9B8FF" font-family="Helvetica" font-size="17" textLength="126">aws_s3_bucket</text></a><a xlink:actuate="onRequest" xlink:href="#j" xlink:show="new" xlink:title="#aws_athena_work_group" xlink:type="simple" target="_top"><rect id="j" width="251" height="39.789" x="1612.85" y="107" fill="#3D176E" rx="2.5" ry="2.5" style="stroke:#000d19;stroke-width:1.5"/><circle cx="1627.85" cy="126.894" r="11" fill="#E98DF7" style="stroke:#000d19;stroke-width:1"/><path d="M1630.819 132.535q-.578.297-1.219.438-.64.156-1.344.156-2.5 0-3.828-1.64-1.312-1.657-1.312-4.782t1.312-4.781q1.328-1.657 3.828-1.657.703 0 1.344.157.656.156 1.219.453v2.719q-.625-.579-1.219-.844-.594-.281-1.219-.281-1.344 0-2.031 1.078-.688 1.062-.688 3.156 0 2.094.688 3.172.688 1.062 2.031 1.062.625 0 1.219-.265.594-.281 1.219-.86v2.72Z"/><text x="1646.85" y="132.78" fill="#D9B8FF" font-family="Helvetica" font-size="17" textLength="209">aws_athena_work_group</text></a><a xlink:actuate="onRequest" xlink:href="#k" xlink:show="new" xlink:title="#aws_sagemaker_trial" xlink:type="simple" target="_top"><rect id="k" width="219" height="39.789" x="1286.85" y="107" fill="#3D176E" rx="2.5" ry="2.5" style="stroke:#000d19;stroke-width:1.5"/><circle cx="1301.85" cy="126.894" r="11" fill="#E98DF7" style="stroke:#000d19;stroke-width:1"/><path d="M1304.819 132.535q-.578.297-1.219.438-.64.156-1.344.156-2.5 0-3.828-1.64-1.312-1.657-1.312-4.782t1.312-4.781q1.328-1.657 3.828-1.657.703 0 1.344.157.656.156 1.219.453v2.719q-.625-.579-1.219-.844-.594-.281-1.219-.281-1.344 0-2.031 1.078-.688 1.062-.688 3.156 0 2.094.688 3.172.688 1.062 2.031 1.062.625 0 1.219-.265.594-.281 1.219-.86v2.72Z"/><text x="1320.85" y="132.78" fill="#D9B8FF" font-family="Helvetica" font-size="17" textLength="177">aws_sagemaker_trial</text></a><a xlink:actuate="onRequest" xlink:href="#l" xlink:show="new" xlink:title="#aws_athena_data_catalog" xlink:type="simple" target="_top"><rect id="l" width="258" height="39.789" x="780.35" y="107" fill="#3D176E" rx="2.5" ry="2.5" style="stroke:#000d19;stroke-width:1.5"/><circle cx="795.35" cy="126.894" r="11" fill="#E98DF7" style="stroke:#000d19;stroke-width:1"/><path d="M798.319 132.535q-.578.297-1.219.438-.64.156-1.344.156-2.5 0-3.828-1.64-1.312-1.657-1.312-4.782t1.312-4.781q1.328-1.657 3.828-1.657.703 0 1.344.157.656.156 1.219.453v2.719q-.625-.579-1.219-.844-.594-.281-1.219-.281-1.343 0-2.031 1.078-.688 1.062-.688 3.156 0 2.094.688 3.172.688 1.062 2.031 1.062.625 0 1.219-.265.594-.281 1.219-.86v2.72Z"/><text x="814.35" y="132.78" fill="#D9B8FF" font-family="Helvetica" font-size="17" textLength="216">aws_athena_data_catalog</text></a><a xlink:actuate="onRequest" xlink:href="#m" xlink:show="new" xlink:title="#aws_sagemaker_experiment" xlink:type="simple" target="_top"><rect id="m" width="282" height="39.789" x="1255.35" y="7" fill="#3D176E" rx="2.5" ry="2.5" style="stroke:#000d19;stroke-width:1.5"/><circle cx="1270.35" cy="26.895" r="11" fill="#E98DF7" style="stroke:#000d19;stroke-width:1"/><path d="M1273.319 32.535q-.578.297-1.219.438-.64.156-1.344.156-2.5 0-3.828-1.64-1.312-1.657-1.312-4.782t1.312-4.781q1.328-1.656 3.828-1.656.703 0 1.344.156.656.156 1.219.453v2.719q-.625-.578-1.219-.844-.594-.281-1.219-.281-1.344 0-2.031 1.078-.688 1.062-.688 3.156 0 2.094.688 3.172.688 1.062 2.031 1.062.625 0 1.219-.265.594-.281 1.219-.86v2.72Z"/><text x="1289.35" y="32.78" fill="#D9B8FF" font-family="Helvetica" font-size="17" textLength="240">aws_sagemaker_experiment</text></a><path fill="none" d="M109.16 47.36c12.92 15.84 31.26 38.3 45.02 55.16" style="stroke:#1a83af;stroke-width:2"/><path fill="#1A83AF" d="m157.58 106.68-2.588-9.503-.572 5.628-5.628-.572 8.788 4.447z" style="stroke:#1a83af;stroke-width:2"/><path fill="none" d="M164.35 47.01c62.91 16.85 154.51 41.37 218.91 58.62" style="stroke:#1a83af;stroke-width:2"/><path fill="#1A83AF" d="m388.23 106.96-7.65-6.202 2.822 4.902-4.902 2.823 9.73-1.523z" style="stroke:#1a83af;stroke-width:2"/><path fill="none" d="M70.54 47.07C43.75 71.76 6 115.37 31.35 147c80.4 100.33 445.15 148.11 653.99 167.61" style="stroke:#1a83af;stroke-width:2"/><path fill="#1A83AF" d="m690.55 315.09-8.596-4.807 3.617 4.35-4.35 3.616 9.329-3.159z" style="stroke:#1a83af;stroke-width:2"/><path fill="none" d="M75.5 47.2C53.84 72.83 23.26 118.33 49.35 147c44.68 49.09 448.48 68.31 678.48 75.31" style="stroke:#1a83af;stroke-width:2"/><path fill="#1A83AF" d="m732.89 222.47-8.882-4.255 3.884 4.112-4.113 3.884 9.111-3.741z" style="stroke:#1a83af;stroke-width:2"/><path fill="none" d="M279.87 144.45c5.91.87 11.77 1.73 17.48 2.55 148.05 21.27 317.3 43.78 436.27 59.31" style="stroke:#1a83af;stroke-width:2"/><path fill="#1A83AF" d="m738.89 207-8.41-5.124 3.452 4.481-4.482 3.452 9.44-2.809z" style="stroke:#1a83af;stroke-width:2"/><path fill="none" d="M194.79 147.18C240.89 187.77 353.91 283.8 460.35 347c38.77 23.02 85.44 43.58 121.12 57.96" style="stroke:#1a83af;stroke-width:2"/><path fill="#1A83AF" d="m586.21 406.85-6.87-7.056 2.228 5.199-5.2 2.228 9.842-.371z" style="stroke:#1a83af;stroke-width:2"/><path fill="none" d="M456.47 147.03c-5.11 40.71-11.46 137.62 31.88 199.97 18.88 27.16 50.11 45.73 79.11 58" style="stroke:#1a83af;stroke-width:2"/><path fill="#1A83AF" d="m572.09 406.92-6.788-7.136 2.168 5.225-5.226 2.168 9.846-.257z" style="stroke:#1a83af;stroke-width:2"/><path fill="none" d="M472.02 147.13c29.64 43.14 108.1 148.22 201.33 199.87 52.98 29.35 118.24 49.17 170 61.62" style="stroke:#1a83af;stroke-width:2"/><path fill="#1A83AF" d="m848.31 409.8-7.828-5.977 2.964 4.818-4.818 2.964 9.682-1.805z" style="stroke:#1a83af;stroke-width:2"/><path fill="none" d="M482.82 147.05c31.93 25.25 91.51 70.1 147.53 99.95 44.42 23.67 97.52 44.08 138.27 58.22" style="stroke:#1a83af;stroke-width:2"/><path fill="#1A83AF" d="m773.53 306.92-7.207-6.713 2.48 5.085-5.085 2.48 9.812-.852z" style="stroke:#1a83af;stroke-width:2"/><path fill="none" d="M542.19 147.01c73.68 16.91 181.11 41.57 256.29 58.82" style="stroke:#1a83af;stroke-width:2"/><path fill="#1A83AF" d="m803.38 206.96-7.881-5.906 3.007 4.791-4.791 3.007 9.665-1.892z" style="stroke:#1a83af;stroke-width:2"/><path fill="none" d="M795.09 347.13c-33.05 16.52-80.76 40.38-115.05 57.52" style="stroke:#1a83af;stroke-width:2"/><path fill="#1A83AF" d="m675.51 406.92 9.84-.435-5.365-1.795 1.796-5.365-6.271 7.595z" style="stroke:#1a83af;stroke-width:2"/><path fill="none" d="m852.91 347.36 56.15 55.59" style="stroke:#1a83af;stroke-width:2"/><path fill="#1A83AF" d="m912.83 406.68-3.573-9.178.023 5.657-5.657.023 9.207 3.498z" style="stroke:#1a83af;stroke-width:2"/><path fill="none" d="M875.88 247.36c-8.49 15.71-20.51 37.92-29.6 54.73" style="stroke:#1a83af;stroke-width:2"/><path fill="#1A83AF" d="m843.8 306.68 7.791-6.025-5.419 1.624-1.623-5.42-.749 9.821z" style="stroke:#1a83af;stroke-width:2"/><path fill="none" d="M779.42 247.04c-37.94 11.62-78.1 30.22-106.07 59.96-24.54 26.09-32.39 68.36-34.88 94.87" style="stroke:#1a83af;stroke-width:2"/><path fill="#1A83AF" d="m638.04 406.95 4.731-8.638-4.317 3.655-3.655-4.317 3.241 9.3z" style="stroke:#1a83af;stroke-width:2"/><path fill="none" d="M928.77 247.1c23.67 13.15 51.05 33.1 64.58 59.9 16.88 33.44-11.76 72.01-35.24 95.95" style="stroke:#1a83af;stroke-width:2"/><path fill="#1A83AF" d="m954.4 406.66 9.2-3.517-5.657-.011.011-5.657-3.554 9.185z" style="stroke:#1a83af;stroke-width:2"/><path fill="none" d="M482.86 47.01c-66.01 16.85-162.11 41.37-229.67 58.62" style="stroke:#1a83af;stroke-width:2"/><path fill="#1A83AF" d="m247.96 106.96 9.707 1.664-4.86-2.893 2.893-4.861-7.74 6.09z" style="stroke:#1a83af;stroke-width:2"/><path fill="none" d="m537.99 47.36-55.59 55.59" style="stroke:#1a83af;stroke-width:2"/><path fill="#1A83AF" d="m478.67 106.68 9.192-3.536h-5.657v-5.656l-3.535 9.192z" style="stroke:#1a83af;stroke-width:2"/><path fill="none" d="M573.6 47.12c13.22 15.78 32.18 38.9 47.75 59.88 44.82 60.38 41.77 86.89 95 140 22.87 22.82 53.2 43.08 77.25 57.37" style="stroke:#1a83af;stroke-width:2"/><path fill="#1A83AF" d="m798.01 306.97-5.742-8.002 1.428 5.474-5.473 1.428 9.787 1.1z" style="stroke:#1a83af;stroke-width:2"/><path fill="none" d="M589.19 47.16c61.42 36.97 195.89 117.9 260.75 156.93" style="stroke:#1a83af;stroke-width:2"/><path fill="#1A83AF" d="m854.49 206.82-5.64-8.074 1.359 5.491-5.491 1.359 9.772 1.224z" style="stroke:#1a83af;stroke-width:2"/><path fill="none" d="M825.82 41.71C694.85 56.64 481.2 81.77 297.35 107c-4.11.56-8.29 1.15-12.52 1.75" style="stroke:#1a83af;stroke-width:2"/><path fill="#1A83AF" d="m279.85 109.46 9.47 2.702-4.52-3.401 3.402-4.52-8.352 5.219z" style="stroke:#1a83af;stroke-width:2"/><path fill="none" d="M853.49 47.01c-84.56 16.95-207.91 41.67-294.02 58.93" style="stroke:#1a83af;stroke-width:2"/><path fill="#1A83AF" d="m554.37 106.96 9.606 2.173-4.702-3.145 3.146-4.702-8.05 5.674z" style="stroke:#1a83af;stroke-width:2"/><path fill="none" d="M1009.31 47.04c28.43 12.29 59.56 31.43 76.04 59.96 21.03 36.4-15.53 126.68-28 140-26.7 28.52-64.32 46.76-101.12 58.41" style="stroke:#1a83af;stroke-width:2"/><path fill="#1A83AF" d="m951.28 306.94 9.782 1.144-5.008-2.63 2.63-5.009-7.404 6.495z" style="stroke:#1a83af;stroke-width:2"/><path fill="none" d="M987.88 47.11c40.26 22.17 93.45 60.73 68.47 99.89-17.86 28-48.49 46.23-78.88 58.03" style="stroke:#1a83af;stroke-width:2"/><path fill="#1A83AF" d="m972.6 206.87 9.833.559-5.156-2.327 2.327-5.156-7.004 6.924z" style="stroke:#1a83af;stroke-width:2"/><path fill="none" d="M1689.02 147.07c-65.38 24.89-184.64 68.92-288.67 99.93-243.39 72.56-537.5 134.47-678.96 162.69" style="stroke:#1a83af;stroke-width:2"/><path fill="#1A83AF" d="m716.42 410.68 9.605 2.179-4.7-3.149 3.148-4.7-8.053 5.67z" style="stroke:#1a83af;stroke-width:2"/><path fill="none" d="M1739.22 147.23c.81 43.35-3.94 148.83-64.87 199.77-49.21 41.13-466.25 65.9-652.63 75.01" style="stroke:#1a83af;stroke-width:2"/><path fill="#1A83AF" d="m1016.54 422.26 9.184 3.557-4.19-3.8 3.8-4.19-8.794 4.433z" style="stroke:#1a83af;stroke-width:2"/><path fill="none" d="M1612.63 142.46c-150.76 17.34-403.63 46.43-567.68 65.3" style="stroke:#1a83af;stroke-width:2"/><path fill="#1A83AF" d="m1039.64 208.37 9.398 2.946-4.43-3.517 3.516-4.43-8.484 5.001z" style="stroke:#1a83af;stroke-width:2"/><path fill="none" d="M1369.1 147.19c-38.52 26.25-111.88 73.15-180.75 99.81-70.73 27.38-153.24 46.46-220.91 59" style="stroke:#1a83af;stroke-width:2"/><path fill="#1A83AF" d="m962.18 306.96 9.58 2.286-4.664-3.2 3.2-4.665-8.116 5.579z" style="stroke:#1a83af;stroke-width:2"/><path fill="none" d="M1297.41 147.01c-88.27 16.96-217.09 41.72-306.91 58.98" style="stroke:#1a83af;stroke-width:2"/><path fill="#1A83AF" d="m985.45 206.96 9.594 2.227-4.684-3.172 3.172-4.683-8.082 5.628z" style="stroke:#1a83af;stroke-width:2"/><path fill="none" d="M904.81 147.36c-3.66 15.57-8.81 37.54-12.75 54.3" style="stroke:#1a83af;stroke-width:2"/><path fill="#1A83AF" d="m890.88 206.68 5.95-7.849-4.808 2.981-2.98-4.808 1.838 9.676z" style="stroke:#1a83af;stroke-width:2"/><path fill="none" d="M1444.29 47.09c46.88 21.59 107.4 59.08 79.06 99.91-61.44 88.51-358.5 139.42-542.25 162.94" style="stroke:#1a83af;stroke-width:2"/><path fill="#1A83AF" d="m975.97 310.59 9.432 2.836-4.472-3.465 3.465-4.471-8.425 5.1z" style="stroke:#1a83af;stroke-width:2"/><path fill="none" d="M1346.99 47.16c-96 37.27-307.13 119.24-406.68 157.89" style="stroke:#1a83af;stroke-width:2"/><path fill="#1A83AF" d="m935.37 206.97 9.838.46-5.18-2.275 2.276-5.18-6.934 6.995z" style="stroke:#1a83af;stroke-width:2"/><path fill="none" d="M1396.35 47.36v54.3" style="stroke:#1a83af;stroke-width:2"/><path fill="#1A83AF" d="m1396.35 106.68 4-9-4 4-4-4 4 9z" style="stroke:#1a83af;stroke-width:2"/></svg>