<svg xmlns="http://www.w3.org/2000/svg" xmlns:xlink="http://www.w3.org/1999/xlink" width="768" height="352" preserveAspectRatio="none" style="width:768px;height:352px;background:#00000000"><a xlink:actuate="onRequest" xlink:href="#a" xlink:show="new" xlink:title="#aws_sagemaker_domain" xlink:type="simple" target="_top"><rect id="a" width="248" height="39.789" x="391" y="107" fill="#3D176E" rx="2.5" ry="2.5" style="stroke:#000d19;stroke-width:1.5"/><circle cx="406" cy="126.894" r="11" fill="#E98DF7" style="stroke:#000d19;stroke-width:1"/><path d="M408.969 132.535q-.578.297-1.219.438-.64.156-1.344.156-2.5 0-3.828-1.64-1.312-1.657-1.312-4.782t1.312-4.781q1.328-1.657 3.828-1.657.703 0 1.344.157.656.156 1.219.453v2.719q-.625-.579-1.219-.844-.594-.281-1.219-.281-1.344 0-2.031 1.078-.688 1.062-.688 3.156 0 2.094.688 3.172.688 1.062 2.031 1.062.625 0 1.219-.265.594-.281 1.219-.86v2.72Z"/><text x="425" y="132.78" fill="#D9B8FF" font-family="Helvetica" font-size="17" textLength="206">aws_sagemaker_domain</text></a><a xlink:actuate="onRequest" xlink:href="#b" xlink:show="new" xlink:title="#aws_sagemaker_user_profile" xlink:type="simple" target="_top"><rect id="b" width="283" height="39.789" x="284.5" y="207" fill="#3D176E" rx="2.5" ry="2.5" style="stroke:#000d19;stroke-width:1.5"/><circle cx="299.5" cy="226.894" r="11" fill="#E98DF7" style="stroke:#000d19;stroke-width:1"/><path d="M302.469 232.535q-.578.297-1.219.438-.64.156-1.344.156-2.5 0-3.828-1.64-1.312-1.657-1.312-4.782t1.312-4.781q1.328-1.656 3.828-1.656.703 0 1.344.156.656.156 1.219.453v2.719q-.625-.579-1.219-.844-.594-.281-1.219-.281-1.344 0-2.031 1.078-.688 1.062-.688 3.156 0 2.094.688 3.172.688 1.062 2.031 1.062.625 0 1.219-.265.594-.281 1.219-.86v2.72Z"/><text x="318.5" y="232.78" fill="#D9B8FF" font-family="Helvetica" font-size="17" textLength="241">aws_sagemaker_user_profile</text></a><a xlink:actuate="onRequest" xlink:href="#c" xlink:show="new" xlink:title="#aws_sagemaker_artifact" xlink:type="simple" target="_top"><rect id="c" width="245" height="39.789" x="400.5" y="307" fill="#3D176E" rx="2.5" ry="2.5" style="stroke:#000d19;stroke-width:1.5"/><circle cx="415.5" cy="326.894" r="11" fill="#E98DF7" style="stroke:#000d19;stroke-width:1"/><path d="M418.469 332.535q-.578.297-1.219.438-.64.156-1.344.156-2.5 0-3.828-1.64-1.312-1.657-1.312-4.782t1.312-4.781q1.328-1.656 3.828-1.656.703 0 1.344.156.656.156 1.219.453v2.719q-.625-.579-1.219-.844-.594-.281-1.219-.281-1.344 0-2.031 1.078-.688 1.062-.688 3.156 0 2.094.688 3.172.688 1.062 2.031 1.062.625 0 1.219-.265.594-.281 1.219-.86v2.72Z"/><text x="434.5" y="332.78" fill="#D9B8FF" font-family="Helvetica" font-size="17" textLength="203">aws_sagemaker_artifact</text></a><a xlink:actuate="onRequest" xlink:href="#d" xlink:show="new" xlink:title="#aws_sagemaker_project" xlink:type="simple" target="_top"><rect id="d" width="242" height="39.789" x="7" y="207" fill="#3D176E" rx="2.5" ry="2.5" style="stroke:#000d19;stroke-width:1.5"/><circle cx="22" cy="226.894" r="11" fill="#E98DF7" style="stroke:#000d19;stroke-width:1"/><path d="M24.969 232.535q-.578.297-1.219.438-.64.156-1.344.156-2.5 0-3.828-1.64-1.312-1.657-1.312-4.782t1.312-4.781q1.328-1.656 3.828-1.656.703 0 1.344.156.656.156 1.219.453v2.719q-.625-.579-1.219-.844-.594-.281-1.219-.281-1.343 0-2.031 1.078-.688 1.062-.688 3.156 0 2.094.688 3.172.688 1.062 2.031 1.062.625 0 1.219-.265.594-.281 1.219-.86v2.72Z"/><text x="41" y="232.78" fill="#D9B8FF" font-family="Helvetica" font-size="17" textLength="200">aws_sagemaker_project</text></a><a xlink:actuate="onRequest" xlink:href="#e" xlink:show="new" xlink:title="#aws_sagemaker_code_repository" xlink:type="simple" target="_top"><rect id="e" width="316" height="39.789" x="445" y="7" fill="#3D176E" rx="2.5" ry="2.5" style="stroke:#000d19;stroke-width:1.5"/><circle cx="460" cy="26.895" r="11" fill="#E98DF7" style="stroke:#000d19;stroke-width:1"/><path d="M462.969 32.535q-.578.297-1.219.438-.64.156-1.344.156-2.5 0-3.828-1.64-1.312-1.657-1.312-4.782t1.312-4.781q1.328-1.656 3.828-1.656.703 0 1.344.156.656.156 1.219.453v2.719q-.625-.578-1.219-.844-.594-.281-1.219-.281-1.344 0-2.031 1.078-.688 1.062-.688 3.156 0 2.094.688 3.172.688 1.062 2.031 1.062.625 0 1.219-.265.594-.281 1.219-.86v2.72Z"/><text x="479" y="32.78" fill="#D9B8FF" font-family="Helvetica" font-size="17" textLength="274">aws_sagemaker_code_repository</text></a><path fill="none" d="M539.49 147.19C555.82 161.63 575.9 183.01 585 207c6.3 16.62 5.81 23.2 0 40-7.39 21.39-23.23 41.4-37.04 55.93" style="stroke:#1a83af;stroke-width:2"/><path fill="#1A83AF" d="m544.12 306.88 9.141-3.665-5.656.08-.08-5.656-3.405 9.241z" style="stroke:#1a83af;stroke-width:2"/><path fill="none" d="M497.42 147.36c-14.51 15.97-35.13 38.68-50.48 55.59" style="stroke:#1a83af;stroke-width:2"/><path fill="#1A83AF" d="m443.55 206.68 9.01-3.977-5.65.274-.275-5.65-3.085 9.353z" style="stroke:#1a83af;stroke-width:2"/><path fill="none" d="M445.16 247.36c15.81 15.97 38.29 38.68 55.02 55.59" style="stroke:#1a83af;stroke-width:2"/><path fill="#1A83AF" d="m503.88 306.68-3.498-9.207-.023 5.657-5.657-.023 9.178 3.573z" style="stroke:#1a83af;stroke-width:2"/><path fill="none" d="m204.63 247.01 236.66 58.72" style="stroke:#1a83af;stroke-width:2"/><path fill="#1A83AF" d="m446.25 306.96-7.757-6.069 2.907 4.853-4.853 2.907 9.703-1.691z" style="stroke:#1a83af;stroke-width:2"/><path fill="none" d="M620.58 47.07C633.17 62.1 649.07 84.25 656 107c5.18 17.01 3.51 22.57 0 40-9.52 47.26-13.73 60.96-42 100-16.09 22.21-39.56 42.39-58.63 56.79" style="stroke:#1a83af;stroke-width:2"/><path fill="#1A83AF" d="m551.12 306.96 9.609-2.162-5.597-.822.822-5.597-4.834 8.581z" style="stroke:#1a83af;stroke-width:2"/><path fill="none" d="M585.61 47.36c-14.34 15.97-34.73 38.68-49.91 55.59" style="stroke:#1a83af;stroke-width:2"/><path fill="#1A83AF" d="m532.35 106.68 8.994-4.014-5.65.297-.296-5.648-3.048 9.365z" style="stroke:#1a83af;stroke-width:2"/></svg>