<svg xmlns="http://www.w3.org/2000/svg" xmlns:xlink="http://www.w3.org/1999/xlink" width="1839" height="552" preserveAspectRatio="none" style="width:1839px;height:552px;background:#00000000"><a xlink:actuate="onRequest" xlink:href="#a" xlink:show="new" xlink:title="#aws_ec2_volume" xlink:type="simple" target="_top"><rect id="a" width="185" height="39.789" x="1472.39" y="407" fill="#3D176E" rx="2.5" ry="2.5" style="stroke:#000d19;stroke-width:1.5"/><circle cx="1487.39" cy="426.894" r="11" fill="#E98DF7" style="stroke:#000d19;stroke-width:1"/><path d="M1490.359 432.535q-.578.297-1.219.438-.64.156-1.344.156-2.5 0-3.828-1.64-1.312-1.657-1.312-4.782t1.312-4.781q1.328-1.656 3.828-1.656.703 0 1.344.156.656.156 1.219.453v2.719q-.625-.579-1.219-.844-.594-.281-1.219-.281-1.343 0-2.031 1.078-.688 1.062-.688 3.156 0 2.094.688 3.172.688 1.062 2.031 1.062.625 0 1.219-.265.594-.281 1.219-.86v2.72Z"/><text x="1506.39" y="432.78" fill="#D9B8FF" font-family="Helvetica" font-size="17" textLength="143">aws_ec2_volume</text></a><a xlink:actuate="onRequest" xlink:href="#b" xlink:show="new" xlink:title="#aws_ec2_instance" xlink:type="simple" target="_top"><rect id="b" width="192" height="39.789" x="719.89" y="307" fill="#3D176E" rx="2.5" ry="2.5" style="stroke:#000d19;stroke-width:1.5"/><circle cx="734.89" cy="326.894" r="11" fill="#E98DF7" style="stroke:#000d19;stroke-width:1"/><path d="M737.859 332.535q-.578.297-1.219.438-.64.156-1.344.156-2.5 0-3.828-1.64-1.312-1.657-1.312-4.782t1.312-4.781q1.328-1.656 3.828-1.656.703 0 1.344.156.656.156 1.219.453v2.719q-.625-.579-1.219-.844-.594-.281-1.219-.281-1.344 0-2.031 1.078-.688 1.062-.688 3.156 0 2.094.688 3.172.688 1.062 2.031 1.062.625 0 1.219-.265.594-.281 1.219-.86v2.72Z"/><text x="753.89" y="332.78" fill="#D9B8FF" font-family="Helvetica" font-size="17" textLength="150">aws_ec2_instance</text></a><a xlink:actuate="onRequest" xlink:href="#c" xlink:show="new" xlink:title="#aws_alb_target_group" xlink:type="simple" target="_top"><rect id="c" width="226" height="39.789" x="685.89" y="207" fill="#3D176E" rx="2.5" ry="2.5" style="stroke:#000d19;stroke-width:1.5"/><circle cx="700.89" cy="226.894" r="11" fill="#E98DF7" style="stroke:#000d19;stroke-width:1"/><path d="M703.859 232.535q-.578.297-1.219.438-.64.156-1.344.156-2.5 0-3.828-1.64-1.312-1.657-1.312-4.782t1.312-4.781q1.328-1.656 3.828-1.656.703 0 1.344.156.656.156 1.219.453v2.719q-.625-.579-1.219-.844-.594-.281-1.219-.281-1.344 0-2.031 1.078-.688 1.062-.688 3.156 0 2.094.688 3.172.688 1.062 2.031 1.062.625 0 1.219-.265.594-.281 1.219-.86v2.72Z"/><text x="719.89" y="232.78" fill="#D9B8FF" font-family="Helvetica" font-size="17" textLength="184">aws_alb_target_group</text></a><a xlink:actuate="onRequest" xlink:href="#d" xlink:show="new" xlink:title="#aws_elb" xlink:type="simple" target="_top"><rect id="d" width="109" height="39.789" x="206.39" y="207" fill="#3D176E" rx="2.5" ry="2.5" style="stroke:#000d19;stroke-width:1.5"/><circle cx="221.39" cy="226.894" r="11" fill="#E98DF7" style="stroke:#000d19;stroke-width:1"/><path d="M224.359 232.535q-.578.297-1.219.438-.64.156-1.344.156-2.5 0-3.828-1.64-1.312-1.657-1.312-4.782t1.312-4.781q1.328-1.656 3.828-1.656.703 0 1.344.156.656.156 1.219.453v2.719q-.625-.579-1.219-.844-.594-.281-1.219-.281-1.344 0-2.031 1.078-.688 1.062-.688 3.156 0 2.094.688 3.172.688 1.062 2.031 1.062.625 0 1.219-.265.594-.281 1.219-.86v2.72Z"/><text x="240.39" y="232.78" fill="#D9B8FF" font-family="Helvetica" font-size="17" textLength="67">aws_elb</text></a><a xlink:actuate="onRequest" xlink:href="#e" xlink:show="new" xlink:title="#aws_ec2_network_interface" xlink:type="simple" target="_top"><rect id="e" width="275" height="39.789" x="231.39" y="407" fill="#3D176E" rx="2.5" ry="2.5" style="stroke:#000d19;stroke-width:1.5"/><circle cx="246.39" cy="426.894" r="11" fill="#E98DF7" style="stroke:#000d19;stroke-width:1"/><path d="M249.359 432.535q-.578.297-1.219.438-.64.156-1.344.156-2.5 0-3.828-1.64-1.312-1.657-1.312-4.782t1.312-4.781q1.328-1.656 3.828-1.656.703 0 1.344.156.656.156 1.219.453v2.719q-.625-.579-1.219-.844-.594-.281-1.219-.281-1.344 0-2.031 1.078-.688 1.062-.688 3.156 0 2.094.688 3.172.688 1.062 2.031 1.062.625 0 1.219-.265.594-.281 1.219-.86v2.72Z"/><text x="265.39" y="432.78" fill="#D9B8FF" font-family="Helvetica" font-size="17" textLength="233">aws_ec2_network_interface</text></a><a xlink:actuate="onRequest" xlink:href="#f" xlink:show="new" xlink:title="#aws_ec2_elastic_ip" xlink:type="simple" target="_top"><rect id="f" width="199" height="39.789" x="732.39" y="507" fill="#3D176E" rx="2.5" ry="2.5" style="stroke:#000d19;stroke-width:1.5"/><circle cx="747.39" cy="526.894" r="11" fill="#E98DF7" style="stroke:#000d19;stroke-width:1"/><path d="M750.359 532.535q-.578.297-1.219.438-.64.156-1.344.156-2.5 0-3.828-1.64-1.312-1.657-1.312-4.782t1.312-4.781q1.328-1.657 3.828-1.657.703 0 1.344.157.656.156 1.219.453v2.719q-.625-.578-1.219-.844-.594-.281-1.219-.281-1.344 0-2.031 1.078-.688 1.062-.688 3.156 0 2.094.688 3.172.688 1.062 2.031 1.062.625 0 1.219-.265.594-.282 1.219-.86v2.72Z"/><text x="766.39" y="532.78" fill="#D9B8FF" font-family="Helvetica" font-size="17" textLength="157">aws_ec2_elastic_ip</text></a><a xlink:actuate="onRequest" xlink:href="#g" xlink:show="new" xlink:title="#aws_autoscaling_group" xlink:type="simple" target="_top"><rect id="g" width="236" height="39.789" x="1017.89" y="207" fill="#3D176E" rx="2.5" ry="2.5" style="stroke:#000d19;stroke-width:1.5"/><circle cx="1032.89" cy="226.894" r="11" fill="#E98DF7" style="stroke:#000d19;stroke-width:1"/><path d="M1035.859 232.535q-.578.297-1.219.438-.64.156-1.344.156-2.5 0-3.828-1.64-1.312-1.657-1.312-4.782t1.312-4.781q1.328-1.656 3.828-1.656.703 0 1.344.156.656.156 1.219.453v2.719q-.625-.579-1.219-.844-.594-.281-1.219-.281-1.343 0-2.031 1.078-.688 1.062-.688 3.156 0 2.094.688 3.172.688 1.062 2.031 1.062.625 0 1.219-.265.594-.281 1.219-.86v2.72Z"/><text x="1051.89" y="232.78" fill="#D9B8FF" font-family="Helvetica" font-size="17" textLength="194">aws_autoscaling_group</text></a><a xlink:actuate="onRequest" xlink:href="#h" xlink:show="new" xlink:title="#aws_vpc" xlink:type="simple" target="_top"><rect id="h" width="112" height="39.789" x="576.89" y="107" fill="#3D176E" rx="2.5" ry="2.5" style="stroke:#000d19;stroke-width:1.5"/><circle cx="591.89" cy="126.894" r="11" fill="#E98DF7" style="stroke:#000d19;stroke-width:1"/><path d="M594.859 132.535q-.578.297-1.219.438-.64.156-1.344.156-2.5 0-3.828-1.64-1.312-1.657-1.312-4.782t1.312-4.781q1.328-1.657 3.828-1.657.703 0 1.344.157.656.156 1.219.453v2.719q-.625-.579-1.219-.844-.594-.281-1.219-.281-1.344 0-2.031 1.078-.688 1.062-.688 3.156 0 2.094.688 3.172.688 1.062 2.031 1.062.625 0 1.219-.265.594-.281 1.219-.86v2.72Z"/><text x="610.89" y="132.78" fill="#D9B8FF" font-family="Helvetica" font-size="17" textLength="70">aws_vpc</text></a><a xlink:actuate="onRequest" xlink:href="#i" xlink:show="new" xlink:title="#aws_beanstalk_environment" xlink:type="simple" target="_top"><rect id="i" width="283" height="39.789" x="1247.39" y="107" fill="#3D176E" rx="2.5" ry="2.5" style="stroke:#000d19;stroke-width:1.5"/><circle cx="1262.39" cy="126.894" r="11" fill="#E98DF7" style="stroke:#000d19;stroke-width:1"/><path d="M1265.359 132.535q-.578.297-1.219.438-.64.156-1.344.156-2.5 0-3.828-1.64-1.312-1.657-1.312-4.782t1.312-4.781q1.328-1.657 3.828-1.657.703 0 1.344.157.656.156 1.219.453v2.719q-.625-.579-1.219-.844-.594-.281-1.219-.281-1.343 0-2.031 1.078-.688 1.062-.688 3.156 0 2.094.688 3.172.688 1.062 2.031 1.062.625 0 1.219-.265.594-.281 1.219-.86v2.72Z"/><text x="1281.39" y="132.78" fill="#D9B8FF" font-family="Helvetica" font-size="17" textLength="241">aws_beanstalk_environment</text></a><a xlink:actuate="onRequest" xlink:href="#j" xlink:show="new" xlink:title="#aws_ecs_container_instance" xlink:type="simple" target="_top"><rect id="j" width="277" height="39.789" x="1289.39" y="207" fill="#3D176E" rx="2.5" ry="2.5" style="stroke:#000d19;stroke-width:1.5"/><circle cx="1304.39" cy="226.894" r="11" fill="#E98DF7" style="stroke:#000d19;stroke-width:1"/><path d="M1307.359 232.535q-.578.297-1.219.438-.64.156-1.344.156-2.5 0-3.828-1.64-1.312-1.657-1.312-4.782t1.312-4.781q1.328-1.656 3.828-1.656.703 0 1.344.156.656.156 1.219.453v2.719q-.625-.579-1.219-.844-.594-.281-1.219-.281-1.343 0-2.031 1.078-.688 1.062-.688 3.156 0 2.094.688 3.172.688 1.062 2.031 1.062.625 0 1.219-.265.594-.281 1.219-.86v2.72Z"/><text x="1323.39" y="232.78" fill="#D9B8FF" font-family="Helvetica" font-size="17" textLength="235">aws_ecs_container_instance</text></a><a xlink:actuate="onRequest" xlink:href="#k" xlink:show="new" xlink:title="#aws_cloudwatch_alarm" xlink:type="simple" target="_top"><rect id="k" width="237" height="39.789" x="541.39" y="407" fill="#3D176E" rx="2.5" ry="2.5" style="stroke:#000d19;stroke-width:1.5"/><circle cx="556.39" cy="426.894" r="11" fill="#E98DF7" style="stroke:#000d19;stroke-width:1"/><path d="M559.359 432.535q-.578.297-1.219.438-.64.156-1.344.156-2.5 0-3.828-1.64-1.312-1.657-1.312-4.782t1.312-4.781q1.328-1.656 3.828-1.656.703 0 1.344.156.656.156 1.219.453v2.719q-.625-.579-1.219-.844-.594-.281-1.219-.281-1.344 0-2.031 1.078-.688 1.062-.688 3.156 0 2.094.688 3.172.688 1.062 2.031 1.062.625 0 1.219-.265.594-.281 1.219-.86v2.72Z"/><text x="575.39" y="432.78" fill="#D9B8FF" font-family="Helvetica" font-size="17" textLength="195">aws_cloudwatch_alarm</text></a><a xlink:actuate="onRequest" xlink:href="#l" xlink:show="new" xlink:title="#aws_ec2_keypair" xlink:type="simple" target="_top"><rect id="l" width="184" height="39.789" x="1007.89" y="407" fill="#3D176E" rx="2.5" ry="2.5" style="stroke:#000d19;stroke-width:1.5"/><circle cx="1022.89" cy="426.894" r="11" fill="#E98DF7" style="stroke:#000d19;stroke-width:1"/><path d="M1025.859 432.535q-.578.297-1.219.438-.64.156-1.344.156-2.5 0-3.828-1.64-1.312-1.657-1.312-4.782t1.312-4.781q1.328-1.656 3.828-1.656.703 0 1.344.156.656.156 1.219.453v2.719q-.625-.579-1.219-.844-.594-.281-1.219-.281-1.344 0-2.031 1.078-.688 1.062-.688 3.156 0 2.094.688 3.172.688 1.062 2.031 1.062.625 0 1.219-.265.594-.281 1.219-.86v2.72Z"/><text x="1041.89" y="432.78" fill="#D9B8FF" font-family="Helvetica" font-size="17" textLength="142">aws_ec2_keypair</text></a><a xlink:actuate="onRequest" xlink:href="#m" xlink:show="new" xlink:title="#aws_ec2_instance_type" xlink:type="simple" target="_top"><rect id="m" width="238" height="39.789" x="159.89" y="107" fill="#3D176E" rx="2.5" ry="2.5" style="stroke:#000d19;stroke-width:1.5"/><circle cx="174.89" cy="126.894" r="11" fill="#E98DF7" style="stroke:#000d19;stroke-width:1"/><path d="M177.859 132.535q-.578.297-1.219.438-.64.156-1.344.156-2.5 0-3.828-1.64-1.312-1.657-1.312-4.782t1.312-4.781q1.328-1.657 3.828-1.657.703 0 1.344.157.656.156 1.219.453v2.719q-.625-.579-1.219-.844-.594-.281-1.219-.281-1.344 0-2.031 1.078-.688 1.062-.688 3.156 0 2.094.688 3.172.688 1.062 2.031 1.062.625 0 1.219-.265.594-.281 1.219-.86v2.72Z"/><text x="193.89" y="132.78" fill="#D9B8FF" font-family="Helvetica" font-size="17" textLength="196">aws_ec2_instance_type</text></a><a xlink:actuate="onRequest" xlink:href="#n" xlink:show="new" xlink:title="#aws_region" xlink:type="simple" target="_top"><rect id="n" width="137" height="39.789" x="730.39" y="7" fill="#3D176E" rx="2.5" ry="2.5" style="stroke:#000d19;stroke-width:1.5"/><circle cx="745.39" cy="26.895" r="11" fill="#E98DF7" style="stroke:#000d19;stroke-width:1"/><path d="M748.359 32.535q-.578.297-1.219.438-.64.156-1.344.156-2.5 0-3.828-1.64-1.312-1.657-1.312-4.782t1.312-4.781q1.328-1.656 3.828-1.656.703 0 1.344.156.656.156 1.219.453v2.719q-.625-.578-1.219-.844-.594-.281-1.219-.281-1.344 0-2.031 1.078-.688 1.062-.688 3.156 0 2.094.688 3.172.688 1.062 2.031 1.062.625 0 1.219-.265.594-.281 1.219-.86v2.72Z"/><text x="764.39" y="32.78" fill="#D9B8FF" font-family="Helvetica" font-size="17" textLength="95">aws_region</text></a><a xlink:actuate="onRequest" xlink:href="#o" xlink:show="new" xlink:title="#aws_ec2_host" xlink:type="simple" target="_top"><rect id="o" width="158" height="39.789" x="421.89" y="207" fill="#3D176E" rx="2.5" ry="2.5" style="stroke:#000d19;stroke-width:1.5"/><circle cx="436.89" cy="226.894" r="11" fill="#E98DF7" style="stroke:#000d19;stroke-width:1"/><path d="M439.859 232.535q-.578.297-1.219.438-.64.156-1.344.156-2.5 0-3.828-1.64-1.312-1.657-1.312-4.782t1.312-4.781q1.328-1.656 3.828-1.656.703 0 1.344.156.656.156 1.219.453v2.719q-.625-.579-1.219-.844-.594-.281-1.219-.281-1.344 0-2.031 1.078-.688 1.062-.688 3.156 0 2.094.688 3.172.688 1.062 2.031 1.062.625 0 1.219-.265.594-.281 1.219-.86v2.72Z"/><text x="455.89" y="232.78" fill="#D9B8FF" font-family="Helvetica" font-size="17" textLength="116">aws_ec2_host</text></a><path fill="none" d="M785.45 347.13c-26.1 16.39-63.67 39.99-90.9 57.1" style="stroke:#1a83af;stroke-width:2"/><path fill="#1A83AF" d="m690.27 406.92 9.749-1.402-5.515-1.258 1.258-5.515-5.492 8.175z" style="stroke:#1a83af;stroke-width:2"/><path fill="none" d="M870.99 347.01c48.44 16.72 118.81 41 168.71 58.22" style="stroke:#1a83af;stroke-width:2"/><path fill="#1A83AF" d="m1044.47 406.87-7.207-6.713 2.48 5.085-5.085 2.48 9.812-.852z" style="stroke:#1a83af;stroke-width:2"/><path fill="none" d="M911.9 340.56c143.17 18.73 411.19 53.8 555.32 72.66" style="stroke:#1a83af;stroke-width:2"/><path fill="#1A83AF" d="m1472.3 413.88-8.396-5.148 3.44 4.49-4.492 3.44 9.448-2.782z" style="stroke:#1a83af;stroke-width:2"/><path fill="none" d="M817.46 347.35c2.93 36.32 9.26 114.62 12.47 154.4" style="stroke:#1a83af;stroke-width:2"/><path fill="#1A83AF" d="m830.35 506.87 3.267-9.291-3.667 4.307-4.307-3.667 4.707 8.651z" style="stroke:#1a83af;stroke-width:2"/><path fill="none" d="M729.18 347.01c-77.14 16.91-189.6 41.57-268.3 58.82" style="stroke:#1a83af;stroke-width:2"/><path fill="#1A83AF" d="m455.75 406.96 9.648 1.98-4.764-3.051 3.05-4.764-7.934 5.835z" style="stroke:#1a83af;stroke-width:2"/><path fill="none" d="M802.25 247.36c2.7 15.57 6.51 37.54 9.42 54.3" style="stroke:#1a83af;stroke-width:2"/><path fill="#1A83AF" d="m812.54 306.68 2.399-9.552-3.256 4.626-4.626-3.256 5.483 8.182z" style="stroke:#1a83af;stroke-width:2"/><path fill="none" d="M315.63 237.66c92.63 16.36 281.64 49.74 398.97 70.45" style="stroke:#1a83af;stroke-width:2"/><path fill="#1A83AF" d="m719.79 309.03-8.163-5.51 3.24 4.637-4.637 3.24 9.56-2.367z" style="stroke:#1a83af;stroke-width:2"/><path fill="none" d="M458.71 447.01c79.9 16.91 196.39 41.57 277.9 58.82" style="stroke:#1a83af;stroke-width:2"/><path fill="#1A83AF" d="m741.93 506.96-7.983-5.768 3.09 4.738-4.738 3.09 9.631-2.06z" style="stroke:#1a83af;stroke-width:2"/><path fill="none" d="M1073.82 247.01c-54.79 16.78-134.45 41.18-190.72 58.41" style="stroke:#1a83af;stroke-width:2"/><path fill="#1A83AF" d="m878.07 306.96 9.778 1.178-4.999-2.647 2.648-5-7.427 6.469z" style="stroke:#1a83af;stroke-width:2"/><path fill="none" d="M665.29 147.13c27.77 16.39 67.75 39.99 96.73 57.1" style="stroke:#1a83af;stroke-width:2"/><path fill="#1A83AF" d="m766.58 206.92-5.722-8.016 1.415 5.477-5.478 1.415 9.785 1.124z" style="stroke:#1a83af;stroke-width:2"/><path fill="none" d="M576.8 142.78c-68.98 18.17-185.57 48.88-256.17 67.48" style="stroke:#1a83af;stroke-width:2"/><path fill="#1A83AF" d="m315.62 211.58 9.726 1.55-4.894-2.837 2.836-4.894-7.668 6.181z" style="stroke:#1a83af;stroke-width:2"/><path fill="none" d="M634.24 147.42c2.7 25.47 10.74 70.35 34.65 99.58 21.69 26.5 54.68 45.37 83.91 58" style="stroke:#1a83af;stroke-width:2"/><path fill="#1A83AF" d="m757.46 306.98-6.716-7.204 2.115 5.246-5.247 2.115 9.848-.157z" style="stroke:#1a83af;stroke-width:2"/><path fill="none" d="M576.75 140.5c-59.97 14.51-149.42 39.87-171.86 66.5-47.47 56.35-44.11 150.71-39.37 194.86" style="stroke:#1a83af;stroke-width:2"/><path fill="#1A83AF" d="m366.11 406.99 2.973-9.39-3.53 4.421-4.42-3.53 4.977 8.499z" style="stroke:#1a83af;stroke-width:2"/><path fill="none" d="M1339.81 147.01c-42.98 16.65-105.33 40.8-149.76 58.01" style="stroke:#1a83af;stroke-width:2"/><path fill="#1A83AF" d="m1185.27 206.87 9.837.486-5.173-2.289 2.289-5.173-6.953 6.976z" style="stroke:#1a83af;stroke-width:2"/><path fill="none" d="M1473.21 147.07c70.13 19.64 152.27 53.85 110.68 99.93-43.86 48.61-468.17 69.04-666.62 75.99" style="stroke:#1a83af;stroke-width:2"/><path fill="#1A83AF" d="m912.05 323.17 9.132 3.688-4.135-3.86 3.86-4.135-8.857 4.307z" style="stroke:#1a83af;stroke-width:2"/><path fill="none" d="M1309.17 247.01c-113.94 18.25-284.18 45.51-391.92 62.76" style="stroke:#1a83af;stroke-width:2"/><path fill="#1A83AF" d="m912.17 310.58 9.518 2.533-4.58-3.32 3.32-4.58-8.258 5.367z" style="stroke:#1a83af;stroke-width:2"/><path fill="none" d="M246.98 147.03c-36.5 24.08-87.64 66.46-58.09 99.97 34.15 38.72 356.98 63.2 525.56 73.46" style="stroke:#1a83af;stroke-width:2"/><path fill="#1A83AF" d="m719.89 320.79-8.73-4.558 3.74 4.243-4.244 3.74 9.234-3.425z" style="stroke:#1a83af;stroke-width:2"/><path fill="none" d="M819.44 47.02C850.47 77.33 908 140.01 929.89 207c5.53 16.9 8.25 24.25 0 40-13.4 25.6-39.29 44.56-63.01 57.47" style="stroke:#1a83af;stroke-width:2"/><path fill="#1A83AF" d="m862.17 306.98 9.823-.71-5.412-1.645 1.644-5.413-6.055 7.768z" style="stroke:#1a83af;stroke-width:2"/><path fill="none" d="M730.22 30.78C564.02 38.22 150.77 61.17 109.89 107c-14.81 16.61-22.03 87.59 6 140 42.42 79.3 137.3 131.36 198.06 157.94" style="stroke:#1a83af;stroke-width:2"/><path fill="#1A83AF" d="m318.62 406.96-6.67-7.247 2.082 5.26-5.26 2.081 9.848-.094z" style="stroke:#1a83af;stroke-width:2"/><path fill="none" d="M766.49 47.13c-27.76 16.39-67.74 39.99-96.72 57.1" style="stroke:#1a83af;stroke-width:2"/><path fill="#1A83AF" d="m665.21 106.92 9.784-1.124-5.476-1.415 1.414-5.477-5.722 8.016z" style="stroke:#1a83af;stroke-width:2"/><path fill="none" d="M730.16 31.19C569.59 39.35 180.51 63.46 141.89 107 6 260.21 373.16 364.34 559.27 405.84" style="stroke:#1a83af;stroke-width:2"/><path fill="#1A83AF" d="m564.17 406.93-7.918-5.857 3.037 4.772-4.772 3.037 9.653-1.952z" style="stroke:#1a83af;stroke-width:2"/><path fill="none" d="M867.57 30.4c174.34 6.73 630.32 28.54 773.32 76.6 95.17 31.98 192 18.61 192 119v102c0 87.91-76.02 87.25-158 119-132.04 51.14-542.82 70.05-737.98 76.28" style="stroke:#1a83af;stroke-width:2"/><path fill="#1A83AF" d="m931.77 523.44 9.121 3.715-4.123-3.872 3.872-4.124-8.87 4.281z" style="stroke:#1a83af;stroke-width:2"/><path fill="none" d="M867.6 27.94c162.77 1.01 566.72 10.55 680.29 79.06 45.81 27.63 51.44 48.82 67 100 53.51 175.98-253.78 211.45-417.49 217.99" style="stroke:#1a83af;stroke-width:2"/><path fill="#1A83AF" d="m1192.12 425.19 9.153 3.636-4.157-3.836 3.836-4.158-8.832 4.358z" style="stroke:#1a83af;stroke-width:2"/><path fill="none" d="M857.74 47.07c39.14 13.9 90.92 34.69 133.15 59.93 46.63 27.87 94.05 69.94 121.44 95.88" style="stroke:#1a83af;stroke-width:2"/><path fill="#1A83AF" d="m1116.22 206.58-3.739-9.112.126 5.656-5.656.126 9.269 3.33z" style="stroke:#1a83af;stroke-width:2"/><path fill="none" d="M798.89 47.35v154.4" style="stroke:#1a83af;stroke-width:2"/><path fill="#1A83AF" d="m798.89 206.87 4-9-4 4-4-4 4 9z" style="stroke:#1a83af;stroke-width:2"/><path fill="none" d="M737.65 47.14C689.16 62.55 619.85 85.18 559.89 107c-88.21 32.1-189.44 73.33-248.59 97.87" style="stroke:#1a83af;stroke-width:2"/><path fill="#1A83AF" d="m306.41 206.9 9.846.246-5.228-2.162 2.162-5.227-6.78 7.143z" style="stroke:#1a83af;stroke-width:2"/><path fill="none" d="M730.38 40.91c-88.14 16.61-242.17 45.64-345.48 65.11" style="stroke:#1a83af;stroke-width:2"/><path fill="#1A83AF" d="m379.71 107 9.586 2.26-4.673-3.188 3.188-4.674L379.71 107z" style="stroke:#1a83af;stroke-width:2"/><path fill="none" d="M867.41 31.01c182.1 8.52 668.31 34.89 727.48 75.99 54.15 37.61 60.91 75.16 49 140-10.84 59.07-44.39 121.93-64.11 155.17" style="stroke:#1a83af;stroke-width:2"/><path fill="#1A83AF" d="m1576.98 406.85 8.06-5.66-5.487 1.373-1.373-5.488-1.2 9.775z" style="stroke:#1a83af;stroke-width:2"/><path fill="none" d="M562 247.01c53.93 16.78 132.35 41.18 187.74 58.41" style="stroke:#1a83af;stroke-width:2"/><path fill="#1A83AF" d="m754.69 306.96-7.404-6.495 2.63 5.009-5.008 2.63 9.782-1.144z" style="stroke:#1a83af;stroke-width:2"/></svg>