<svg xmlns="http://www.w3.org/2000/svg" xmlns:xlink="http://www.w3.org/1999/xlink" width="3094" height="1818" preserveAspectRatio="none" style="width:3094px;height:1818px;background:#00000000"><a xlink:actuate="onRequest" xlink:href="#a" xlink:show="new" xlink:title="#aws_sagemaker_vpc_config" xlink:type="simple" target="_top"><rect id="a" width="272" height="93.398" x="2711.5" y="1706.5" fill="#3D176E" rx="2.5" ry="2.5" style="stroke:#000d19;stroke-width:1.5"/><circle cx="2726.5" cy="1726.395" r="11" fill="#E98DF7" style="stroke:#000d19;stroke-width:1"/><path d="M2729.469 1732.035q-.578.297-1.219.438-.64.156-1.344.156-2.5 0-3.828-1.64-1.312-1.657-1.312-4.782t1.312-4.781q1.328-1.656 3.828-1.656.703 0 1.344.156.656.156 1.219.453v2.719q-.625-.578-1.219-.844-.594-.281-1.219-.281-1.343 0-2.031 1.078-.688 1.062-.688 3.156 0 2.094.688 3.172.688 1.062 2.031 1.062.625 0 1.219-.265.594-.281 1.219-.86v2.72Z"/><text x="2745.5" y="1732.28" fill="#D9B8FF" font-family="Helvetica" font-size="17" textLength="230">aws_sagemaker_vpc_config</text><path d="M2712.5 1746.289h270" style="stroke:#000d19;stroke-width:1.5"/><text x="2722.5" y="1765.499" fill="#D9B8FF" font-family="sans-serif" font-size="11" font-weight="bold" textLength="119">security_group_ids</text><text x="2841.5" y="1765.499" fill="#D9B8FF" font-family="sans-serif" font-size="11" textLength="49">: string[]</text><text x="2722.5" y="1788.304" fill="#D9B8FF" font-family="sans-serif" font-size="11" font-weight="bold" textLength="51">subnets</text><text x="2773.5" y="1788.304" fill="#D9B8FF" font-family="sans-serif" font-size="11" textLength="49">: string[]</text></a><a xlink:actuate="onRequest" xlink:href="#b" xlink:show="new" xlink:title="#aws_resource" xlink:type="simple" target="_top"><rect id="b" width="155" height="70.594" x="1299" y="404" fill="#3D176E" rx="2.5" ry="2.5" style="stroke:#000d19;stroke-width:1.5"/><circle cx="1314" cy="423.894" r="11" fill="#E98DF7" style="stroke:#000d19;stroke-width:1"/><path d="M1316.969 429.535q-.578.297-1.219.438-.64.156-1.344.156-2.5 0-3.828-1.64-1.312-1.657-1.312-4.782t1.312-4.781q1.328-1.656 3.828-1.656.703 0 1.344.156.656.156 1.219.453v2.719q-.625-.579-1.219-.844-.594-.281-1.219-.281-1.343 0-2.031 1.078-.688 1.062-.688 3.156 0 2.094.688 3.172.688 1.062 2.031 1.062.625 0 1.219-.265.594-.281 1.219-.86v2.72Z"/><text x="1333" y="429.78" fill="#D9B8FF" font-family="Helvetica" font-size="17" textLength="113">aws_resource</text><path d="M1300 443.789h153" style="stroke:#000d19;stroke-width:1.5"/><text x="1310" y="463" fill="#D9B8FF" font-family="sans-serif" font-size="11" font-weight="bold" textLength="21">arn</text><text x="1331" y="463" fill="#D9B8FF" font-family="sans-serif" font-size="11" textLength="41">: string</text></a><a xlink:actuate="onRequest" xlink:href="#c" xlink:show="new" xlink:title="#aws_sagemaker_labeling_job_output_config" xlink:type="simple" target="_top"><rect id="c" width="409" height="116.203" x="7" y="1263.5" fill="#3D176E" rx="2.5" ry="2.5" style="stroke:#000d19;stroke-width:1.5"/><circle cx="22" cy="1283.395" r="11" fill="#E98DF7" style="stroke:#000d19;stroke-width:1"/><path d="M24.969 1289.035q-.578.297-1.219.438-.64.156-1.344.156-2.5 0-3.828-1.64-1.312-1.657-1.312-4.782t1.312-4.781q1.328-1.656 3.828-1.656.703 0 1.344.156.656.156 1.219.453v2.719q-.625-.578-1.219-.844-.594-.281-1.219-.281-1.343 0-2.031 1.078-.688 1.062-.688 3.156 0 2.094.688 3.172.688 1.062 2.031 1.062.625 0 1.219-.265.594-.281 1.219-.86v2.72Z"/><text x="41" y="1289.28" fill="#D9B8FF" font-family="Helvetica" font-size="17" textLength="367">aws_sagemaker_labeling_job_output_config</text><path d="M8 1303.289h407" style="stroke:#000d19;stroke-width:1.5"/><text x="18" y="1322.499" fill="#D9B8FF" font-family="sans-serif" font-size="11" font-weight="bold" textLength="98">s3_output_path</text><text x="116" y="1322.499" fill="#D9B8FF" font-family="sans-serif" font-size="11" textLength="41">: string</text><text x="18" y="1345.304" fill="#D9B8FF" font-family="sans-serif" font-size="11" font-weight="bold" textLength="71">kms_key_id</text><text x="89" y="1345.304" fill="#D9B8FF" font-family="sans-serif" font-size="11" textLength="41">: string</text><text x="18" y="1368.109" fill="#D9B8FF" font-family="sans-serif" font-size="11" font-weight="bold" textLength="87">sns_topic_arn</text><text x="105" y="1368.109" fill="#D9B8FF" font-family="sans-serif" font-size="11" textLength="41">: string</text></a><a xlink:actuate="onRequest" xlink:href="#d" xlink:show="new" xlink:title="#resource" xlink:type="simple" target="_top"><rect id="d" width="195" height="275.836" x="1279" y="7" fill="#3D176E" rx="2.5" ry="2.5" style="stroke:#000d19;stroke-width:1.5"/><circle cx="1331.75" cy="26.895" r="11" fill="#E98DF7" style="stroke:#000d19;stroke-width:1"/><path d="M1334.719 32.535q-.578.297-1.219.438-.64.156-1.344.156-2.5 0-3.828-1.64-1.312-1.657-1.312-4.782t1.312-4.781q1.328-1.656 3.828-1.656.703 0 1.344.156.656.156 1.219.453v2.719q-.625-.578-1.219-.844-.594-.281-1.219-.281-1.343 0-2.031 1.078-.688 1.062-.688 3.156 0 2.094.688 3.172.688 1.062 2.031 1.062.625 0 1.219-.265.594-.281 1.219-.86v2.72Z"/><text x="1357.25" y="32.78" fill="#D9B8FF" font-family="Helvetica" font-size="17" textLength="71">resource</text><path d="M1280 46.789h193" style="stroke:#000d19;stroke-width:1.5"/><text x="1290" y="65.999" fill="#D9B8FF" font-family="sans-serif" font-size="11" font-weight="bold" textLength="12">id</text><text x="1302" y="65.999" fill="#D9B8FF" font-family="sans-serif" font-size="11" textLength="41">: string</text><text x="1290" y="88.804" fill="#D9B8FF" font-family="sans-serif" font-size="11" font-weight="bold" textLength="28">tags</text><text x="1318" y="88.804" fill="#D9B8FF" font-family="sans-serif" font-size="11" textLength="145">: dictionary[string, string]</text><text x="1290" y="111.609" fill="#D9B8FF" font-family="sans-serif" font-size="11" font-weight="bold" textLength="35">name</text><text x="1325" y="111.609" fill="#D9B8FF" font-family="sans-serif" font-size="11" textLength="41">: string</text><text x="1290" y="134.414" fill="#D9B8FF" font-family="sans-serif" font-size="11" font-weight="bold" textLength="35">ctime</text><text x="1325" y="134.414" fill="#D9B8FF" font-family="sans-serif" font-size="11" textLength="58">: datetime</text><text x="1290" y="157.218" fill="#D9B8FF" font-family="sans-serif" font-size="11" font-weight="bold" textLength="24">age</text><text x="1314" y="157.218" fill="#D9B8FF" font-family="sans-serif" font-size="11" textLength="55">: duration</text><text x="1290" y="180.023" fill="#D9B8FF" font-family="sans-serif" font-size="11" font-weight="bold" textLength="39">mtime</text><text x="1329" y="180.023" fill="#D9B8FF" font-family="sans-serif" font-size="11" textLength="58">: datetime</text><text x="1290" y="202.828" fill="#D9B8FF" font-family="sans-serif" font-size="11" font-weight="bold" textLength="75">last_update</text><text x="1365" y="202.828" fill="#D9B8FF" font-family="sans-serif" font-size="11" textLength="55">: duration</text><text x="1290" y="225.632" fill="#D9B8FF" font-family="sans-serif" font-size="11" font-weight="bold" textLength="36">atime</text><text x="1326" y="225.632" fill="#D9B8FF" font-family="sans-serif" font-size="11" textLength="58">: datetime</text><text x="1290" y="248.437" fill="#D9B8FF" font-family="sans-serif" font-size="11" font-weight="bold" textLength="74">last_access</text><text x="1364" y="248.437" fill="#D9B8FF" font-family="sans-serif" font-size="11" textLength="55">: duration</text><text x="1290" y="271.242" fill="#D9B8FF" font-family="sans-serif" font-size="11" font-weight="bold" textLength="27">kind</text><text x="1317" y="271.242" fill="#D9B8FF" font-family="sans-serif" font-size="11" textLength="41">: string</text></a><a xlink:actuate="onRequest" xlink:href="#e" xlink:show="new" xlink:title="#aws_sagemaker_labeling_job_data_source" xlink:type="simple" target="_top"><rect id="e" width="394" height="93.398" x="1179.5" y="1542" fill="#3D176E" rx="2.5" ry="2.5" style="stroke:#000d19;stroke-width:1.5"/><circle cx="1194.5" cy="1561.895" r="11" fill="#E98DF7" style="stroke:#000d19;stroke-width:1"/><path d="M1197.469 1567.535q-.578.297-1.219.438-.64.156-1.344.156-2.5 0-3.828-1.64-1.312-1.657-1.312-4.782t1.312-4.781q1.328-1.656 3.828-1.656.703 0 1.344.156.656.156 1.219.453v2.719q-.625-.578-1.219-.844-.594-.281-1.219-.281-1.343 0-2.031 1.078-.688 1.062-.688 3.156 0 2.094.688 3.172.688 1.062 2.031 1.062.625 0 1.219-.265.594-.281 1.219-.86v2.72Z"/><text x="1213.5" y="1567.78" fill="#D9B8FF" font-family="Helvetica" font-size="17" textLength="352">aws_sagemaker_labeling_job_data_source</text><path d="M1180.5 1581.789h392" style="stroke:#000d19;stroke-width:1.5"/><text x="1190.5" y="1600.999" fill="#D9B8FF" font-family="sans-serif" font-size="11" font-weight="bold" textLength="99">s3_data_source</text><text x="1289.5" y="1600.999" fill="#D9B8FF" font-family="sans-serif" font-size="11" textLength="41">: string</text><text x="1190.5" y="1623.804" fill="#D9B8FF" font-family="sans-serif" font-size="11" font-weight="bold" textLength="106">sns_data_source</text><text x="1296.5" y="1623.804" fill="#D9B8FF" font-family="sans-serif" font-size="11" textLength="41">: string</text></a><a xlink:actuate="onRequest" xlink:href="#f" xlink:show="new" xlink:title="#aws_sagemaker_labeling_job" xlink:type="simple" target="_top"><rect id="f" width="528" height="344.25" x="1112.5" y="757" fill="#3D176E" rx="2.5" ry="2.5" style="stroke:#000d19;stroke-width:1.5"/><circle cx="1245.75" cy="776.894" r="11" fill="#E98DF7" style="stroke:#000d19;stroke-width:1"/><path d="M1248.719 782.535q-.578.297-1.219.438-.64.156-1.344.156-2.5 0-3.828-1.64-1.312-1.657-1.312-4.782t1.312-4.781q1.328-1.657 3.828-1.657.703 0 1.344.157.656.156 1.219.453v2.719q-.625-.578-1.219-.844-.594-.281-1.219-.281-1.343 0-2.031 1.078-.688 1.062-.688 3.156 0 2.094.688 3.172.688 1.062 2.031 1.062.625 0 1.219-.265.594-.282 1.219-.86v2.72Z"/><text x="1271.25" y="782.78" fill="#D9B8FF" font-family="Helvetica" font-size="17" textLength="243">aws_sagemaker_labeling_job</text><path d="M1113.5 796.789h526" style="stroke:#000d19;stroke-width:1.5"/><text x="1123.5" y="816" fill="#D9B8FF" font-family="sans-serif" font-size="11" font-weight="bold" textLength="124">labeling_job_status</text><text x="1247.5" y="816" fill="#D9B8FF" font-family="sans-serif" font-size="11" textLength="41">: string</text><text x="1123.5" y="838.804" fill="#D9B8FF" font-family="sans-serif" font-size="11" font-weight="bold" textLength="178">labeling_job_label_counters</text><text x="1301.5" y="838.804" fill="#D9B8FF" font-family="sans-serif" font-size="11" textLength="190">: aws_sagemaker_label_counters</text><text x="1123.5" y="861.609" fill="#D9B8FF" font-family="sans-serif" font-size="11" font-weight="bold" textLength="176">labeling_job_failure_reason</text><text x="1299.5" y="861.609" fill="#D9B8FF" font-family="sans-serif" font-size="11" textLength="41">: string</text><text x="1123.5" y="884.414" fill="#D9B8FF" font-family="sans-serif" font-size="11" font-weight="bold" textLength="209">labeling_job_job_reference_code</text><text x="1332.5" y="884.414" fill="#D9B8FF" font-family="sans-serif" font-size="11" textLength="41">: string</text><text x="1123.5" y="907.218" fill="#D9B8FF" font-family="sans-serif" font-size="11" font-weight="bold" textLength="219">labeling_job_label_attribute_name</text><text x="1342.5" y="907.218" fill="#D9B8FF" font-family="sans-serif" font-size="11" textLength="41">: string</text><text x="1123.5" y="930.023" fill="#D9B8FF" font-family="sans-serif" font-size="11" font-weight="bold" textLength="163">labeling_job_input_config</text><text x="1286.5" y="930.023" fill="#D9B8FF" font-family="sans-serif" font-size="11" textLength="248">: aws_sagemaker_labeling_job_input_config</text><text x="1123.5" y="952.828" fill="#D9B8FF" font-family="sans-serif" font-size="11" font-weight="bold" textLength="172">labeling_job_output_config</text><text x="1295.5" y="952.828" fill="#D9B8FF" font-family="sans-serif" font-size="11" textLength="256">: aws_sagemaker_labeling_job_output_config</text><text x="1123.5" y="975.632" fill="#D9B8FF" font-family="sans-serif" font-size="11" font-weight="bold" textLength="136">labeling_job_role_arn</text><text x="1259.5" y="975.632" fill="#D9B8FF" font-family="sans-serif" font-size="11" textLength="41">: string</text><text x="1123.5" y="998.437" fill="#D9B8FF" font-family="sans-serif" font-size="11" font-weight="bold" textLength="268">labeling_job_label_category_config_s3_uri</text><text x="1391.5" y="998.437" fill="#D9B8FF" font-family="sans-serif" font-size="11" textLength="41">: string</text><text x="1123.5" y="1021.242" fill="#D9B8FF" font-family="sans-serif" font-size="11" font-weight="bold" textLength="213">labeling_job_stopping_conditions</text><text x="1336.5" y="1021.242" fill="#D9B8FF" font-family="sans-serif" font-size="11" textLength="293">: aws_sagemaker_labeling_job_stopping_conditions</text><text x="1123.5" y="1044.046" fill="#D9B8FF" font-family="sans-serif" font-size="11" font-weight="bold" textLength="198">labeling_job_algorithms_config</text><text x="1321.5" y="1044.046" fill="#D9B8FF" font-family="sans-serif" font-size="11" textLength="281">: aws_sagemaker_labeling_job_algorithms_config</text><text x="1123.5" y="1066.851" fill="#D9B8FF" font-family="sans-serif" font-size="11" font-weight="bold" textLength="206">labeling_job_human_task_config</text><text x="1329.5" y="1066.851" fill="#D9B8FF" font-family="sans-serif" font-size="11" textLength="216">: aws_sagemaker_human_task_config</text><text x="1123.5" y="1089.656" fill="#D9B8FF" font-family="sans-serif" font-size="11" font-weight="bold" textLength="126">labeling_job_output</text><text x="1249.5" y="1089.656" fill="#D9B8FF" font-family="sans-serif" font-size="11" textLength="216">: aws_sagemaker_labeling_job_output</text></a><a xlink:actuate="onRequest" xlink:href="#g" xlink:show="new" xlink:title="#aws_sagemaker_job" xlink:type="simple" target="_top"><rect id="g" width="210" height="39.789" x="1271.5" y="596" fill="#3D176E" rx="2.5" ry="2.5" style="stroke:#000d19;stroke-width:1.5"/><circle cx="1286.5" cy="615.894" r="11" fill="#E98DF7" style="stroke:#000d19;stroke-width:1"/><path d="M1289.469 621.535q-.578.297-1.219.438-.64.156-1.344.156-2.5 0-3.828-1.64-1.312-1.657-1.312-4.782t1.312-4.781q1.328-1.657 3.828-1.657.703 0 1.344.157.656.156 1.219.453v2.719q-.625-.578-1.219-.844-.594-.281-1.219-.281-1.343 0-2.031 1.078-.688 1.062-.688 3.156 0 2.094.688 3.172.688 1.062 2.031 1.062.625 0 1.219-.265.594-.282 1.219-.86v2.72Z"/><text x="1305.5" y="621.78" fill="#D9B8FF" font-family="Helvetica" font-size="17" textLength="168">aws_sagemaker_job</text></a><a xlink:actuate="onRequest" xlink:href="#h" xlink:show="new" xlink:title="#aws_sagemaker_labeling_job_output" xlink:type="simple" target="_top"><rect id="h" width="350" height="93.398" x="451.5" y="1275" fill="#3D176E" rx="2.5" ry="2.5" style="stroke:#000d19;stroke-width:1.5"/><circle cx="466.5" cy="1294.895" r="11" fill="#E98DF7" style="stroke:#000d19;stroke-width:1"/><path d="M469.469 1300.535q-.578.297-1.219.438-.64.156-1.344.156-2.5 0-3.828-1.64-1.312-1.657-1.312-4.782t1.312-4.781q1.328-1.656 3.828-1.656.703 0 1.344.156.656.156 1.219.453v2.719q-.625-.578-1.219-.844-.594-.281-1.219-.281-1.344 0-2.031 1.078-.688 1.062-.688 3.156 0 2.094.688 3.172.688 1.062 2.031 1.062.625 0 1.219-.265.594-.281 1.219-.86v2.72Z"/><text x="485.5" y="1300.78" fill="#D9B8FF" font-family="Helvetica" font-size="17" textLength="308">aws_sagemaker_labeling_job_output</text><path d="M452.5 1314.789h348" style="stroke:#000d19;stroke-width:1.5"/><text x="462.5" y="1333.999" fill="#D9B8FF" font-family="sans-serif" font-size="11" font-weight="bold" textLength="141">output_dataset_s3_uri</text><text x="603.5" y="1333.999" fill="#D9B8FF" font-family="sans-serif" font-size="11" textLength="41">: string</text><text x="462.5" y="1356.804" fill="#D9B8FF" font-family="sans-serif" font-size="11" font-weight="bold" textLength="205">final_active_learning_model_arn</text><text x="667.5" y="1356.804" fill="#D9B8FF" font-family="sans-serif" font-size="11" textLength="41">: string</text></a><a xlink:actuate="onRequest" xlink:href="#i" xlink:show="new" xlink:title="#aws_sagemaker_usd" xlink:type="simple" target="_top"><rect id="i" width="222" height="116.203" x="1720.5" y="1695" fill="#3D176E" rx="2.5" ry="2.5" style="stroke:#000d19;stroke-width:1.5"/><circle cx="1739.1" cy="1714.895" r="11" fill="#E98DF7" style="stroke:#000d19;stroke-width:1"/><path d="M1742.069 1720.535q-.578.297-1.219.438-.64.156-1.344.156-2.5 0-3.828-1.64-1.312-1.657-1.312-4.782t1.312-4.781q1.328-1.656 3.828-1.656.703 0 1.344.156.656.156 1.219.453v2.719q-.625-.578-1.219-.844-.594-.281-1.219-.281-1.344 0-2.031 1.078-.688 1.062-.688 3.156 0 2.094.688 3.172.688 1.062 2.031 1.062.625 0 1.219-.265.594-.281 1.219-.86v2.72Z"/><text x="1758.9" y="1720.78" fill="#D9B8FF" font-family="Helvetica" font-size="17" textLength="172">aws_sagemaker_usd</text><path d="M1721.5 1734.789h220" style="stroke:#000d19;stroke-width:1.5"/><text x="1731.5" y="1753.999" fill="#D9B8FF" font-family="sans-serif" font-size="11" font-weight="bold" textLength="44">dollars</text><text x="1775.5" y="1753.999" fill="#D9B8FF" font-family="sans-serif" font-size="11" textLength="36">: int64</text><text x="1731.5" y="1776.804" fill="#D9B8FF" font-family="sans-serif" font-size="11" font-weight="bold" textLength="35">cents</text><text x="1766.5" y="1776.804" fill="#D9B8FF" font-family="sans-serif" font-size="11" textLength="36">: int64</text><text x="1731.5" y="1799.609" fill="#D9B8FF" font-family="sans-serif" font-size="11" font-weight="bold" textLength="164">tenth_fractions_of_a_cent</text><text x="1895.5" y="1799.609" fill="#D9B8FF" font-family="sans-serif" font-size="11" textLength="36">: int64</text></a><a xlink:actuate="onRequest" xlink:href="#j" xlink:show="new" xlink:title="#aws_sagemaker_label_counters" xlink:type="simple" target="_top"><rect id="j" width="306" height="161.813" x="836.5" y="1240.5" fill="#3D176E" rx="2.5" ry="2.5" style="stroke:#000d19;stroke-width:1.5"/><circle cx="851.5" cy="1260.395" r="11" fill="#E98DF7" style="stroke:#000d19;stroke-width:1"/><path d="M854.469 1266.035q-.578.297-1.219.438-.64.156-1.344.156-2.5 0-3.828-1.64-1.312-1.657-1.312-4.782t1.312-4.781q1.328-1.656 3.828-1.656.703 0 1.344.156.656.156 1.219.453v2.719q-.625-.578-1.219-.844-.594-.281-1.219-.281-1.343 0-2.031 1.078-.688 1.062-.688 3.156 0 2.094.688 3.172.688 1.062 2.031 1.062.625 0 1.219-.265.594-.281 1.219-.86v2.72Z"/><text x="870.5" y="1266.28" fill="#D9B8FF" font-family="Helvetica" font-size="17" textLength="264">aws_sagemaker_label_counters</text><path d="M837.5 1280.289h304" style="stroke:#000d19;stroke-width:1.5"/><text x="847.5" y="1299.499" fill="#D9B8FF" font-family="sans-serif" font-size="11" font-weight="bold" textLength="84">total_labeled</text><text x="931.5" y="1299.499" fill="#D9B8FF" font-family="sans-serif" font-size="11" textLength="36">: int64</text><text x="847.5" y="1322.304" fill="#D9B8FF" font-family="sans-serif" font-size="11" font-weight="bold" textLength="97">human_labeled</text><text x="944.5" y="1322.304" fill="#D9B8FF" font-family="sans-serif" font-size="11" textLength="36">: int64</text><text x="847.5" y="1345.109" fill="#D9B8FF" font-family="sans-serif" font-size="11" font-weight="bold" textLength="108">machine_labeled</text><text x="955.5" y="1345.109" fill="#D9B8FF" font-family="sans-serif" font-size="11" textLength="36">: int64</text><text x="847.5" y="1367.914" fill="#D9B8FF" font-family="sans-serif" font-size="11" font-weight="bold" textLength="168">failed_non_retryable_error</text><text x="1015.5" y="1367.914" fill="#D9B8FF" font-family="sans-serif" font-size="11" textLength="36">: int64</text><text x="847.5" y="1390.718" fill="#D9B8FF" font-family="sans-serif" font-size="11" font-weight="bold" textLength="64">unlabeled</text><text x="911.5" y="1390.718" fill="#D9B8FF" font-family="sans-serif" font-size="11" textLength="36">: int64</text></a><a xlink:actuate="onRequest" xlink:href="#k" xlink:show="new" xlink:title="#aws_sagemaker_public_workforce_task_price" xlink:type="simple" target="_top"><rect id="k" width="419" height="70.594" x="1622" y="1553" fill="#3D176E" rx="2.5" ry="2.5" style="stroke:#000d19;stroke-width:1.5"/><circle cx="1637" cy="1572.895" r="11" fill="#E98DF7" style="stroke:#000d19;stroke-width:1"/><path d="M1639.969 1578.535q-.578.297-1.219.438-.64.156-1.344.156-2.5 0-3.828-1.64-1.312-1.657-1.312-4.782t1.312-4.781q1.328-1.656 3.828-1.656.703 0 1.344.156.656.156 1.219.453v2.719q-.625-.578-1.219-.844-.594-.281-1.219-.281-1.343 0-2.031 1.078-.688 1.062-.688 3.156 0 2.094.688 3.172.688 1.062 2.031 1.062.625 0 1.219-.265.594-.281 1.219-.86v2.72Z"/><text x="1656" y="1578.78" fill="#D9B8FF" font-family="Helvetica" font-size="17" textLength="377">aws_sagemaker_public_workforce_task_price</text><path d="M1623 1592.789h417" style="stroke:#000d19;stroke-width:1.5"/><text x="1633" y="1611.999" fill="#D9B8FF" font-family="sans-serif" font-size="11" font-weight="bold" textLength="95">amount_in_usd</text><text x="1728" y="1611.999" fill="#D9B8FF" font-family="sans-serif" font-size="11" textLength="128">: aws_sagemaker_usd</text></a><a xlink:actuate="onRequest" xlink:href="#l" xlink:show="new" xlink:title="#aws_sagemaker_labeling_job_input_config" xlink:type="simple" target="_top"><rect id="l" width="397" height="93.398" x="1178" y="1275" fill="#3D176E" rx="2.5" ry="2.5" style="stroke:#000d19;stroke-width:1.5"/><circle cx="1193" cy="1294.895" r="11" fill="#E98DF7" style="stroke:#000d19;stroke-width:1"/><path d="M1195.969 1300.535q-.578.297-1.219.438-.64.156-1.344.156-2.5 0-3.828-1.64-1.312-1.657-1.312-4.782t1.312-4.781q1.328-1.656 3.828-1.656.703 0 1.344.156.656.156 1.219.453v2.719q-.625-.578-1.219-.844-.594-.281-1.219-.281-1.343 0-2.031 1.078-.688 1.062-.688 3.156 0 2.094.688 3.172.688 1.062 2.031 1.062.625 0 1.219-.265.594-.281 1.219-.86v2.72Z"/><text x="1212" y="1300.78" fill="#D9B8FF" font-family="Helvetica" font-size="17" textLength="355">aws_sagemaker_labeling_job_input_config</text><path d="M1179 1314.789h395" style="stroke:#000d19;stroke-width:1.5"/><text x="1189" y="1333.999" fill="#D9B8FF" font-family="sans-serif" font-size="11" font-weight="bold" textLength="78">data_source</text><text x="1267" y="1333.999" fill="#D9B8FF" font-family="sans-serif" font-size="11" textLength="250">: aws_sagemaker_labeling_job_data_source</text><text x="1189" y="1356.804" fill="#D9B8FF" font-family="sans-serif" font-size="11" font-weight="bold" textLength="98">data_attributes</text><text x="1287" y="1356.804" fill="#D9B8FF" font-family="sans-serif" font-size="11" textLength="49">: string[]</text></a><a xlink:actuate="onRequest" xlink:href="#m" xlink:show="new" xlink:title="#aws_sagemaker_human_task_config" xlink:type="simple" target="_top"><rect id="m" width="468" height="321.445" x="1610.5" y="1161" fill="#3D176E" rx="2.5" ry="2.5" style="stroke:#000d19;stroke-width:1.5"/><circle cx="1682.25" cy="1180.895" r="11" fill="#E98DF7" style="stroke:#000d19;stroke-width:1"/><path d="M1685.219 1186.535q-.578.297-1.219.438-.64.156-1.344.156-2.5 0-3.828-1.64-1.312-1.657-1.312-4.782t1.312-4.781q1.328-1.656 3.828-1.656.703 0 1.344.156.656.156 1.219.453v2.719q-.625-.578-1.219-.844-.594-.281-1.219-.281-1.343 0-2.031 1.078-.688 1.062-.688 3.156 0 2.094.688 3.172.688 1.062 2.031 1.062.625 0 1.219-.265.594-.281 1.219-.86v2.72Z"/><text x="1707.75" y="1186.78" fill="#D9B8FF" font-family="Helvetica" font-size="17" textLength="306">aws_sagemaker_human_task_config</text><path d="M1611.5 1200.789h466" style="stroke:#000d19;stroke-width:1.5"/><text x="1621.5" y="1219.999" fill="#D9B8FF" font-family="sans-serif" font-size="11" font-weight="bold" textLength="90">workteam_arn</text><text x="1711.5" y="1219.999" fill="#D9B8FF" font-family="sans-serif" font-size="11" textLength="41">: string</text><text x="1621.5" y="1242.804" fill="#D9B8FF" font-family="sans-serif" font-size="11" font-weight="bold" textLength="58">ui_config</text><text x="1679.5" y="1242.804" fill="#D9B8FF" font-family="sans-serif" font-size="11" textLength="157">: aws_sagemaker_ui_config</text><text x="1621.5" y="1265.609" fill="#D9B8FF" font-family="sans-serif" font-size="11" font-weight="bold" textLength="183">pre_human_task_lambda_arn</text><text x="1804.5" y="1265.609" fill="#D9B8FF" font-family="sans-serif" font-size="11" textLength="41">: string</text><text x="1621.5" y="1288.414" fill="#D9B8FF" font-family="sans-serif" font-size="11" font-weight="bold" textLength="94">task_keywords</text><text x="1715.5" y="1288.414" fill="#D9B8FF" font-family="sans-serif" font-size="11" textLength="49">: string[]</text><text x="1621.5" y="1311.218" fill="#D9B8FF" font-family="sans-serif" font-size="11" font-weight="bold" textLength="59">task_title</text><text x="1680.5" y="1311.218" fill="#D9B8FF" font-family="sans-serif" font-size="11" textLength="41">: string</text><text x="1621.5" y="1334.023" fill="#D9B8FF" font-family="sans-serif" font-size="11" font-weight="bold" textLength="105">task_description</text><text x="1726.5" y="1334.023" fill="#D9B8FF" font-family="sans-serif" font-size="11" textLength="41">: string</text><text x="1621.5" y="1356.828" fill="#D9B8FF" font-family="sans-serif" font-size="11" font-weight="bold" textLength="281">number_of_human_workers_per_data_object</text><text x="1902.5" y="1356.828" fill="#D9B8FF" font-family="sans-serif" font-size="11" textLength="36">: int64</text><text x="1621.5" y="1379.632" fill="#D9B8FF" font-family="sans-serif" font-size="11" font-weight="bold" textLength="172">task_time_limit_in_seconds</text><text x="1793.5" y="1379.632" fill="#D9B8FF" font-family="sans-serif" font-size="11" textLength="36">: int64</text><text x="1621.5" y="1402.437" fill="#D9B8FF" font-family="sans-serif" font-size="11" font-weight="bold" textLength="236">task_availability_lifetime_in_seconds</text><text x="1857.5" y="1402.437" fill="#D9B8FF" font-family="sans-serif" font-size="11" textLength="36">: int64</text><text x="1621.5" y="1425.242" fill="#D9B8FF" font-family="sans-serif" font-size="11" font-weight="bold" textLength="176">max_concurrent_task_count</text><text x="1797.5" y="1425.242" fill="#D9B8FF" font-family="sans-serif" font-size="11" textLength="36">: int64</text><text x="1621.5" y="1448.046" fill="#D9B8FF" font-family="sans-serif" font-size="11" font-weight="bold" textLength="209">annotation_consolidation_config</text><text x="1830.5" y="1448.046" fill="#D9B8FF" font-family="sans-serif" font-size="11" textLength="41">: string</text><text x="1621.5" y="1470.851" fill="#D9B8FF" font-family="sans-serif" font-size="11" font-weight="bold" textLength="180">public_workforce_task_price</text><text x="1801.5" y="1470.851" fill="#D9B8FF" font-family="sans-serif" font-size="11" textLength="266">: aws_sagemaker_public_workforce_task_price</text></a><a xlink:actuate="onRequest" xlink:href="#n" xlink:show="new" xlink:title="#aws_sagemaker_ui_config" xlink:type="simple" target="_top"><rect id="n" width="260" height="93.398" x="2076.5" y="1542" fill="#3D176E" rx="2.5" ry="2.5" style="stroke:#000d19;stroke-width:1.5"/><circle cx="2091.5" cy="1561.895" r="11" fill="#E98DF7" style="stroke:#000d19;stroke-width:1"/><path d="M2094.469 1567.535q-.578.297-1.219.438-.64.156-1.344.156-2.5 0-3.828-1.64-1.312-1.657-1.312-4.782t1.312-4.781q1.328-1.656 3.828-1.656.703 0 1.344.156.656.156 1.219.453v2.719q-.625-.578-1.219-.844-.594-.281-1.219-.281-1.343 0-2.031 1.078-.688 1.062-.688 3.156 0 2.094.688 3.172.688 1.062 2.031 1.062.625 0 1.219-.265.594-.281 1.219-.86v2.72Z"/><text x="2110.5" y="1567.78" fill="#D9B8FF" font-family="Helvetica" font-size="17" textLength="218">aws_sagemaker_ui_config</text><path d="M2077.5 1581.789h258" style="stroke:#000d19;stroke-width:1.5"/><text x="2087.5" y="1600.999" fill="#D9B8FF" font-family="sans-serif" font-size="11" font-weight="bold" textLength="119">ui_template_s3_uri</text><text x="2206.5" y="1600.999" fill="#D9B8FF" font-family="sans-serif" font-size="11" textLength="41">: string</text><text x="2087.5" y="1623.804" fill="#D9B8FF" font-family="sans-serif" font-size="11" font-weight="bold" textLength="121">human_task_ui_arn</text><text x="2208.5" y="1623.804" fill="#D9B8FF" font-family="sans-serif" font-size="11" textLength="41">: string</text></a><a xlink:actuate="onRequest" xlink:href="#o" xlink:show="new" xlink:title="#aws_sagemaker_labeling_job_stopping_conditions" xlink:type="simple" target="_top"><rect id="o" width="459" height="93.398" x="2114" y="1275" fill="#3D176E" rx="2.5" ry="2.5" style="stroke:#000d19;stroke-width:1.5"/><circle cx="2129" cy="1294.895" r="11" fill="#E98DF7" style="stroke:#000d19;stroke-width:1"/><path d="M2131.969 1300.535q-.578.297-1.219.438-.64.156-1.344.156-2.5 0-3.828-1.64-1.312-1.657-1.312-4.782t1.312-4.781q1.328-1.656 3.828-1.656.703 0 1.344.156.656.156 1.219.453v2.719q-.625-.578-1.219-.844-.594-.281-1.219-.281-1.343 0-2.031 1.078-.688 1.062-.688 3.156 0 2.094.688 3.172.688 1.062 2.031 1.062.625 0 1.219-.265.594-.281 1.219-.86v2.72Z"/><text x="2148" y="1300.78" fill="#D9B8FF" font-family="Helvetica" font-size="17" textLength="417">aws_sagemaker_labeling_job_stopping_conditions</text><path d="M2115 1314.789h457" style="stroke:#000d19;stroke-width:1.5"/><text x="2125" y="1333.999" fill="#D9B8FF" font-family="sans-serif" font-size="11" font-weight="bold" textLength="217">max_human_labeled_object_count</text><text x="2342" y="1333.999" fill="#D9B8FF" font-family="sans-serif" font-size="11" textLength="36">: int64</text><text x="2125" y="1356.804" fill="#D9B8FF" font-family="sans-serif" font-size="11" font-weight="bold" textLength="272">max_percentage_of_input_dataset_labeled</text><text x="2397" y="1356.804" fill="#D9B8FF" font-family="sans-serif" font-size="11" textLength="36">: int64</text></a><a xlink:actuate="onRequest" xlink:href="#p" xlink:show="new" xlink:title="#aws_sagemaker_labeling_job_algorithms_config" xlink:type="simple" target="_top"><rect id="p" width="479" height="116.203" x="2608" y="1263.5" fill="#3D176E" rx="2.5" ry="2.5" style="stroke:#000d19;stroke-width:1.5"/><circle cx="2639.2" cy="1283.395" r="11" fill="#E98DF7" style="stroke:#000d19;stroke-width:1"/><path d="M2642.169 1289.035q-.578.297-1.219.438-.64.156-1.344.156-2.5 0-3.828-1.64-1.312-1.657-1.312-4.782t1.312-4.781q1.328-1.656 3.828-1.656.703 0 1.344.156.656.156 1.219.453v2.719q-.625-.578-1.219-.844-.594-.281-1.219-.281-1.344 0-2.031 1.078-.688 1.062-.688 3.156 0 2.094.688 3.172.688 1.062 2.031 1.062.625 0 1.219-.265.594-.281 1.219-.86v2.72Z"/><text x="2661.8" y="1289.28" fill="#D9B8FF" font-family="Helvetica" font-size="17" textLength="401">aws_sagemaker_labeling_job_algorithms_config</text><path d="M2609 1303.289h477" style="stroke:#000d19;stroke-width:1.5"/><text x="2619" y="1322.499" fill="#D9B8FF" font-family="sans-serif" font-size="11" font-weight="bold" textLength="261">labeling_job_algorithm_specification_arn</text><text x="2880" y="1322.499" fill="#D9B8FF" font-family="sans-serif" font-size="11" textLength="41">: string</text><text x="2619" y="1345.304" fill="#D9B8FF" font-family="sans-serif" font-size="11" font-weight="bold" textLength="213">initial_active_learning_model_arn</text><text x="2832" y="1345.304" fill="#D9B8FF" font-family="sans-serif" font-size="11" textLength="41">: string</text><text x="2619" y="1368.109" fill="#D9B8FF" font-family="sans-serif" font-size="11" font-weight="bold" textLength="186">labeling_job_resource_config</text><text x="2805" y="1368.109" fill="#D9B8FF" font-family="sans-serif" font-size="11" textLength="271">: aws_sagemaker_labeling_job_resource_config</text></a><a xlink:actuate="onRequest" xlink:href="#q" xlink:show="new" xlink:title="#aws_sagemaker_labeling_job_resource_config" xlink:type="simple" target="_top"><rect id="q" width="424" height="93.398" x="2635.5" y="1542" fill="#3D176E" rx="2.5" ry="2.5" style="stroke:#000d19;stroke-width:1.5"/><circle cx="2650.5" cy="1561.895" r="11" fill="#E98DF7" style="stroke:#000d19;stroke-width:1"/><path d="M2653.469 1567.535q-.578.297-1.219.438-.64.156-1.344.156-2.5 0-3.828-1.64-1.312-1.657-1.312-4.782t1.312-4.781q1.328-1.656 3.828-1.656.703 0 1.344.156.656.156 1.219.453v2.719q-.625-.578-1.219-.844-.594-.281-1.219-.281-1.343 0-2.031 1.078-.688 1.062-.688 3.156 0 2.094.688 3.172.688 1.062 2.031 1.062.625 0 1.219-.265.594-.281 1.219-.86v2.72Z"/><text x="2669.5" y="1567.78" fill="#D9B8FF" font-family="Helvetica" font-size="17" textLength="382">aws_sagemaker_labeling_job_resource_config</text><path d="M2636.5 1581.789h422" style="stroke:#000d19;stroke-width:1.5"/><text x="2646.5" y="1600.999" fill="#D9B8FF" font-family="sans-serif" font-size="11" font-weight="bold" textLength="123">volume_kms_key_id</text><text x="2769.5" y="1600.999" fill="#D9B8FF" font-family="sans-serif" font-size="11" textLength="41">: string</text><text x="2646.5" y="1623.804" fill="#D9B8FF" font-family="sans-serif" font-size="11" font-weight="bold" textLength="68">vpc_config</text><text x="2714.5" y="1623.804" fill="#D9B8FF" font-family="sans-serif" font-size="11" textLength="166">: aws_sagemaker_vpc_config</text></a><path fill="none" d="M1376.5 303.43V403.9m-7-100.64 7-20 7 20h-14zm7 353.38V756.7m-7-100.25 7-20 7 20h-14zm-162.74 444.83c-46.53 46.95-94.92 95.78-134.19 135.4" style="stroke:#ffaf37;stroke-width:2"/><path fill="#FFAF37" d="m1068.8 1240.49 9.178-3.573-5.657.023-.023-5.657-3.498 9.207z" style="stroke:#ffaf37;stroke-width:2"/><path fill="none" d="M1376.5 1101.28v168.3" style="stroke:#ffaf37;stroke-width:2"/><path fill="#FFAF37" d="m1376.5 1274.72 4-9-4 4-4-4 4 9z" style="stroke:#ffaf37;stroke-width:2"/><path fill="none" d="M1112.4 966.88c-194.2 33.66-461.12 93.81-678.9 194.12-55.33 25.48-110.99 65.51-152.73 99.09" style="stroke:#ffaf37;stroke-width:2"/><path fill="#FFAF37" d="m276.77 1263.32 9.513-2.55-5.625-.594.594-5.626-4.482 8.77z" style="stroke:#ffaf37;stroke-width:2"/><path fill="none" d="M1640.67 996.99c138.72 39.58 309.6 95.43 454.83 164.01 65.49 30.93 134.34 76.39 182.83 110.87" style="stroke:#ffaf37;stroke-width:2"/><path fill="#FFAF37" d="m2282.67 1274.96-5.01-8.48.938 5.58-5.58.937 9.652 1.963z" style="stroke:#ffaf37;stroke-width:2"/><path fill="none" d="M1640.54 952.09c251.24 27.49 636.38 86.66 949.96 208.91 63.4 24.72 128.47 65.28 177.27 99.32" style="stroke:#ffaf37;stroke-width:2"/><path fill="#FFAF37" d="m2772.14 1263.38-5.083-8.436.986 5.57-5.57.986 9.667 1.88z" style="stroke:#ffaf37;stroke-width:2"/><path fill="none" d="M1581.77 1101.28c22.41 18.69 45.17 37.68 67.45 56.27" style="stroke:#ffaf37;stroke-width:2"/><path fill="#FFAF37" d="m1653.08 1160.78-4.356-8.833.514 5.634-5.634.514 9.476 2.685z" style="stroke:#ffaf37;stroke-width:2"/><path fill="none" d="M1112.37 1020.51c-95.64 37.59-202.52 85.38-293.87 140.49-51.91 31.32-104.43 76.04-141.38 110.16" style="stroke:#ffaf37;stroke-width:2"/><path fill="#FFAF37" d="m673.14 1274.85 9.321-3.18-5.653-.217.217-5.653-3.885 9.05z" style="stroke:#ffaf37;stroke-width:2"/><path fill="none" d="M1376.5 495.52v100.3m-7-100.43 7-20 7 20h-14zm462 1128.97v65.19" style="stroke:#ffaf37;stroke-width:2"/><path fill="#FFAF37" d="m1831.5 1694.83 4-9-4 4-4-4 4 9z" style="stroke:#ffaf37;stroke-width:2"/><path fill="none" d="M1376.5 1368.06v168.36" style="stroke:#ffaf37;stroke-width:2"/><path fill="#FFAF37" d="m1376.5 1541.65 4-9-4 4-4-4 4 9z" style="stroke:#ffaf37;stroke-width:2"/><path fill="none" d="M2062.39 1482c28.05 20.54 54.87 40.17 77.6 56.81" style="stroke:#ffaf37;stroke-width:2"/><path fill="#FFAF37" d="m2144.18 1541.88-4.908-8.539.87 5.59-5.589.87 9.627 2.079z" style="stroke:#ffaf37;stroke-width:2"/><path fill="none" d="M1836.68 1482c-1.19 24.25-2.32 47.24-3.22 65.53" style="stroke:#ffaf37;stroke-width:2"/><path fill="#FFAF37" d="m1833.21 1552.56 4.432-8.795-4.19 3.8-3.8-4.188 3.558 9.183z" style="stroke:#ffaf37;stroke-width:2"/><path fill="none" d="M2847.5 1379.67v157.09" style="stroke:#ffaf37;stroke-width:2"/><path fill="#FFAF37" d="m2847.5 1541.86 4-9-4 4-4-4 4 9z" style="stroke:#ffaf37;stroke-width:2"/><path fill="none" d="M2847.5 1635.2v66.14" style="stroke:#ffaf37;stroke-width:2"/><path fill="#FFAF37" d="m2847.5 1706.36 4-9-4 4-4-4 4 9z" style="stroke:#ffaf37;stroke-width:2"/></svg>