<svg xmlns="http://www.w3.org/2000/svg" xmlns:xlink="http://www.w3.org/1999/xlink" width="835" height="552" preserveAspectRatio="none" style="width:835px;height:552px;background:#00000000"><a xlink:actuate="onRequest" xlink:href="#a" xlink:show="new" xlink:title="#aws_ecs_service" xlink:type="simple" target="_top"><rect id="a" width="177" height="39.789" x="201.5" y="207" fill="#3D176E" rx="2.5" ry="2.5" style="stroke:#000d19;stroke-width:1.5"/><circle cx="216.5" cy="226.894" r="11" fill="#E98DF7" style="stroke:#000d19;stroke-width:1"/><path d="M219.469 232.535q-.578.297-1.219.438-.64.156-1.344.156-2.5 0-3.828-1.64-1.312-1.657-1.312-4.782t1.312-4.781q1.328-1.656 3.828-1.656.703 0 1.344.156.656.156 1.219.453v2.719q-.625-.579-1.219-.844-.594-.281-1.219-.281-1.344 0-2.031 1.078-.688 1.062-.688 3.156 0 2.094.688 3.172.688 1.062 2.031 1.062.625 0 1.219-.265.594-.281 1.219-.86v2.72Z"/><text x="235.5" y="232.78" fill="#D9B8FF" font-family="Helvetica" font-size="17" textLength="135">aws_ecs_service</text></a><a xlink:actuate="onRequest" xlink:href="#b" xlink:show="new" xlink:title="#aws_ec2_instance" xlink:type="simple" target="_top"><rect id="b" width="192" height="39.789" x="211" y="507" fill="#3D176E" rx="2.5" ry="2.5" style="stroke:#000d19;stroke-width:1.5"/><circle cx="226" cy="526.894" r="11" fill="#E98DF7" style="stroke:#000d19;stroke-width:1"/><path d="M228.969 532.535q-.578.297-1.219.438-.64.156-1.344.156-2.5 0-3.828-1.64-1.312-1.657-1.312-4.782t1.312-4.781q1.328-1.657 3.828-1.657.703 0 1.344.157.656.156 1.219.453v2.719q-.625-.578-1.219-.844-.594-.281-1.219-.281-1.344 0-2.031 1.078-.688 1.062-.688 3.156 0 2.094.688 3.172.688 1.062 2.031 1.062.625 0 1.219-.265.594-.282 1.219-.86v2.72Z"/><text x="245" y="532.78" fill="#D9B8FF" font-family="Helvetica" font-size="17" textLength="150">aws_ec2_instance</text></a><a xlink:actuate="onRequest" xlink:href="#c" xlink:show="new" xlink:title="#aws_ec2_subnet" xlink:type="simple" target="_top"><rect id="c" width="179" height="39.789" x="552.5" y="307" fill="#3D176E" rx="2.5" ry="2.5" style="stroke:#000d19;stroke-width:1.5"/><circle cx="567.5" cy="326.894" r="11" fill="#E98DF7" style="stroke:#000d19;stroke-width:1"/><path d="M570.469 332.535q-.578.297-1.219.438-.64.156-1.344.156-2.5 0-3.828-1.64-1.312-1.657-1.312-4.782t1.312-4.781q1.328-1.656 3.828-1.656.703 0 1.344.156.656.156 1.219.453v2.719q-.625-.579-1.219-.844-.594-.281-1.219-.281-1.343 0-2.031 1.078-.688 1.062-.688 3.156 0 2.094.688 3.172.688 1.062 2.031 1.062.625 0 1.219-.265.594-.281 1.219-.86v2.72Z"/><text x="586.5" y="332.78" fill="#D9B8FF" font-family="Helvetica" font-size="17" textLength="137">aws_ec2_subnet</text></a><a xlink:actuate="onRequest" xlink:href="#d" xlink:show="new" xlink:title="#aws_ec2_security_group" xlink:type="simple" target="_top"><rect id="d" width="245" height="39.789" x="272.5" y="307" fill="#3D176E" rx="2.5" ry="2.5" style="stroke:#000d19;stroke-width:1.5"/><circle cx="287.5" cy="326.894" r="11" fill="#E98DF7" style="stroke:#000d19;stroke-width:1"/><path d="M290.469 332.535q-.578.297-1.219.438-.64.156-1.344.156-2.5 0-3.828-1.64-1.312-1.657-1.312-4.782t1.312-4.781q1.328-1.656 3.828-1.656.703 0 1.344.156.656.156 1.219.453v2.719q-.625-.579-1.219-.844-.594-.281-1.219-.281-1.344 0-2.031 1.078-.688 1.062-.688 3.156 0 2.094.688 3.172.688 1.062 2.031 1.062.625 0 1.219-.265.594-.281 1.219-.86v2.72Z"/><text x="306.5" y="332.78" fill="#D9B8FF" font-family="Helvetica" font-size="17" textLength="203">aws_ec2_security_group</text></a><a xlink:actuate="onRequest" xlink:href="#e" xlink:show="new" xlink:title="#aws_elb" xlink:type="simple" target="_top"><rect id="e" width="109" height="39.789" x="252.5" y="407" fill="#3D176E" rx="2.5" ry="2.5" style="stroke:#000d19;stroke-width:1.5"/><circle cx="267.5" cy="426.894" r="11" fill="#E98DF7" style="stroke:#000d19;stroke-width:1"/><path d="M270.469 432.535q-.578.297-1.219.438-.64.156-1.344.156-2.5 0-3.828-1.64-1.312-1.657-1.312-4.782t1.312-4.781q1.328-1.656 3.828-1.656.703 0 1.344.156.656.156 1.219.453v2.719q-.625-.579-1.219-.844-.594-.281-1.219-.281-1.344 0-2.031 1.078-.688 1.062-.688 3.156 0 2.094.688 3.172.688 1.062 2.031 1.062.625 0 1.219-.265.594-.281 1.219-.86v2.72Z"/><text x="286.5" y="432.78" fill="#D9B8FF" font-family="Helvetica" font-size="17" textLength="67">aws_elb</text></a><a xlink:actuate="onRequest" xlink:href="#f" xlink:show="new" xlink:title="#aws_region" xlink:type="simple" target="_top"><rect id="f" width="137" height="39.789" x="286.5" y="7" fill="#3D176E" rx="2.5" ry="2.5" style="stroke:#000d19;stroke-width:1.5"/><circle cx="301.5" cy="26.895" r="11" fill="#E98DF7" style="stroke:#000d19;stroke-width:1"/><path d="M304.469 32.535q-.578.297-1.219.438-.64.156-1.344.156-2.5 0-3.828-1.64-1.312-1.657-1.312-4.782t1.312-4.781q1.328-1.656 3.828-1.656.703 0 1.344.156.656.156 1.219.453v2.719q-.625-.578-1.219-.844-.594-.281-1.219-.281-1.344 0-2.031 1.078-.688 1.062-.688 3.156 0 2.094.688 3.172.688 1.062 2.031 1.062.625 0 1.219-.265.594-.281 1.219-.86v2.72Z"/><text x="320.5" y="32.78" fill="#D9B8FF" font-family="Helvetica" font-size="17" textLength="95">aws_region</text></a><a xlink:actuate="onRequest" xlink:href="#g" xlink:show="new" xlink:title="#aws_service_quota" xlink:type="simple" target="_top"><rect id="g" width="199" height="39.789" x="179.5" y="107" fill="#3D176E" rx="2.5" ry="2.5" style="stroke:#000d19;stroke-width:1.5"/><circle cx="194.5" cy="126.894" r="11" fill="#E98DF7" style="stroke:#000d19;stroke-width:1"/><path d="M197.469 132.535q-.578.297-1.219.438-.64.156-1.344.156-2.5 0-3.828-1.64-1.312-1.657-1.312-4.782t1.312-4.781q1.328-1.657 3.828-1.657.703 0 1.344.157.656.156 1.219.453v2.719q-.625-.579-1.219-.844-.594-.281-1.219-.281-1.344 0-2.031 1.078-.688 1.062-.688 3.156 0 2.094.688 3.172.688 1.062 2.031 1.062.625 0 1.219-.265.594-.281 1.219-.86v2.72Z"/><text x="213.5" y="132.78" fill="#D9B8FF" font-family="Helvetica" font-size="17" textLength="157">aws_service_quota</text></a><a xlink:actuate="onRequest" xlink:href="#h" xlink:show="new" xlink:title="#aws_vpc" xlink:type="simple" target="_top"><rect id="h" width="112" height="39.789" x="485" y="207" fill="#3D176E" rx="2.5" ry="2.5" style="stroke:#000d19;stroke-width:1.5"/><circle cx="500" cy="226.894" r="11" fill="#E98DF7" style="stroke:#000d19;stroke-width:1"/><path d="M502.969 232.535q-.578.297-1.219.438-.64.156-1.344.156-2.5 0-3.828-1.64-1.312-1.657-1.312-4.782t1.312-4.781q1.328-1.656 3.828-1.656.703 0 1.344.156.656.156 1.219.453v2.719q-.625-.579-1.219-.844-.594-.281-1.219-.281-1.344 0-2.031 1.078-.688 1.062-.688 3.156 0 2.094.688 3.172.688 1.062 2.031 1.062.625 0 1.219-.265.594-.281 1.219-.86v2.72Z"/><text x="519" y="232.78" fill="#D9B8FF" font-family="Helvetica" font-size="17" textLength="70">aws_vpc</text></a><path fill="none" d="M277.25 247.39C263.38 270.96 244.49 311.93 255 347c6.2 20.7 19.77 41 31.5 55.84" style="stroke:#1a83af;stroke-width:2"/><path fill="#1A83AF" d="m289.75 406.87-2.55-9.513-.594 5.625-5.626-.594 8.77 4.482z" style="stroke:#1a83af;stroke-width:2"/><path fill="none" d="M358.29 247.01c60.38 16.81 148.24 41.27 210.15 58.51" style="stroke:#1a83af;stroke-width:2"/><path fill="#1A83AF" d="m573.6 306.96-7.594-6.271 2.778 4.928-4.928 2.778 9.744-1.435z" style="stroke:#1a83af;stroke-width:2"/><path fill="none" d="M310.49 247.13c17.2 16.05 41.82 39.02 60.05 56.04" style="stroke:#1a83af;stroke-width:2"/><path fill="#1A83AF" d="m374.56 306.92-3.849-9.066.194 5.654-5.653.194 9.308 3.218z" style="stroke:#1a83af;stroke-width:2"/><path fill="none" d="M577.01 347.01c-60.98 17.84-151.41 44.3-210.54 61.59" style="stroke:#1a83af;stroke-width:2"/><path fill="#1A83AF" d="m361.56 410.04 9.76 1.32-4.96-2.72 2.72-4.96-7.52 6.36z" style="stroke:#1a83af;stroke-width:2"/><path fill="none" d="M377.61 347.36c-14.34 15.97-34.73 38.68-49.91 55.59" style="stroke:#1a83af;stroke-width:2"/><path fill="#1A83AF" d="m324.35 406.68 8.994-4.014-5.65.298-.297-5.65-3.047 9.366z" style="stroke:#1a83af;stroke-width:2"/><path fill="none" d="M307 447.36v54.3" style="stroke:#1a83af;stroke-width:2"/><path fill="#1A83AF" d="m307 506.68 4-9-4 4-4-4 4 9z" style="stroke:#1a83af;stroke-width:2"/><path fill="none" d="M404.98 47.04C465.88 73.11 566.61 126.11 615 207c17.67 29.53 23.78 69.5 25.9 94.77" style="stroke:#1a83af;stroke-width:2"/><path fill="#1A83AF" d="m641.29 306.93 3.294-9.282-3.68 4.297-4.296-3.68 4.682 8.665z" style="stroke:#1a83af;stroke-width:2"/><path fill="none" d="M286.47 35.95C184.83 51.99 6 98.34 6 226v102c0 100.06 117.54 152.39 205.72 177.56" style="stroke:#1a83af;stroke-width:2"/><path fill="#1A83AF" d="m216.69 506.96-7.577-6.292 2.765 4.935-4.936 2.765 9.748-1.408z" style="stroke:#1a83af;stroke-width:2"/><path fill="none" d="M339.98 47.36c-12.28 15.84-29.69 38.3-42.77 55.16" style="stroke:#1a83af;stroke-width:2"/><path fill="#1A83AF" d="m293.98 106.68 8.676-4.662-5.612.71-.71-5.611-2.354 9.563z" style="stroke:#1a83af;stroke-width:2"/><path fill="none" d="M384.93 47.28C406.62 62.09 435.89 83.87 458 107c28.51 29.83 54.52 70.21 69.55 95.42" style="stroke:#1a83af;stroke-width:2"/><path fill="#1A83AF" d="m530.23 206.95-1.138-9.783-1.407 5.48-5.48-1.408 8.025 5.711z" style="stroke:#1a83af;stroke-width:2"/><path fill="none" d="M286.1 36.75C242.58 46.23 189.54 65.97 162 107c-60.27 89.79-21.83 151.28 40 240 16.63 23.86 42.74 43.55 64.76 57.31" style="stroke:#1a83af;stroke-width:2"/><path fill="#1A83AF" d="m271.11 406.98-5.576-8.118 1.315 5.501-5.501 1.316 9.762 1.301z" style="stroke:#1a83af;stroke-width:2"/><path fill="none" d="M368.24 47.08c9.83 15.39 22.41 38 27.76 59.92 16.82 68.93 8.59 153.75 2.89 194.65" style="stroke:#1a83af;stroke-width:2"/><path fill="#1A83AF" d="m398.14 306.89 5.243-8.337-4.53 3.388-3.389-4.53 2.676 9.479z" style="stroke:#1a83af;stroke-width:2"/><path fill="none" d="M242.67 147.3c-21.39 13.56-46.56 33.87-58.67 59.7-7.55 16.1-4.68 22.85 0 40 17.46 63.97 68.97 124.52 99.52 156.16" style="stroke:#1a83af;stroke-width:2"/><path fill="#1A83AF" d="m287.13 406.87-3.405-9.242-.08 5.657-5.656-.08 9.141 3.665z" style="stroke:#1a83af;stroke-width:2"/><path fill="none" d="M329.83 147.01c44.51 16.65 109.08 40.8 155.08 58.01" style="stroke:#1a83af;stroke-width:2"/><path fill="#1A83AF" d="m489.87 206.87-7.022-6.905 2.34 5.15-5.15 2.34 9.832-.585z" style="stroke:#1a83af;stroke-width:2"/><path fill="none" d="M560.95 247.36c16.47 15.97 39.86 38.68 57.29 55.59" style="stroke:#1a83af;stroke-width:2"/><path fill="#1A83AF" d="m622.09 306.68-3.665-9.142.08 5.657-5.657.08 9.242 3.405z" style="stroke:#1a83af;stroke-width:2"/><path fill="none" d="M597.18 237.92C674.03 253.88 797.2 289.42 749 347c-48.09 57.44-273.11 73.16-382.28 77.43" style="stroke:#1a83af;stroke-width:2"/><path fill="#1A83AF" d="m361.61 424.62 9.142 3.663-4.145-3.849 3.848-4.145-8.845 4.331z" style="stroke:#1a83af;stroke-width:2"/><path fill="none" d="M597.2 234.1C682.22 245.72 828.74 276.45 780 347c-83.39 120.71-259.44 160.1-371.66 172.91" style="stroke:#1a83af;stroke-width:2"/><path fill="#1A83AF" d="m403.05 520.5 9.39 2.973-4.421-3.53 3.53-4.42-8.499 4.977z" style="stroke:#1a83af;stroke-width:2"/><path fill="none" d="M512.5 247.13c-24.32 16.32-59.29 39.8-84.75 56.89" style="stroke:#1a83af;stroke-width:2"/><path fill="#1A83AF" d="m423.42 306.92 9.703-1.687-5.55-1.096 1.097-5.55-5.25 8.333z" style="stroke:#1a83af;stroke-width:2"/></svg>