<svg xmlns="http://www.w3.org/2000/svg" xmlns:xlink="http://www.w3.org/1999/xlink" width="4425" height="1750" preserveAspectRatio="none" style="width:4425px;height:1750px;background:#00000000"><a xlink:actuate="onRequest" xlink:href="#a" xlink:show="new" xlink:title="#resource" xlink:type="simple" target="_top"><rect id="a" width="195" height="275.836" x="1926" y="7" fill="#3D176E" rx="2.5" ry="2.5" style="stroke:#000d19;stroke-width:1.5"/><circle cx="1978.75" cy="26.895" r="11" fill="#E98DF7" style="stroke:#000d19;stroke-width:1"/><path d="M1981.719 32.535q-.578.297-1.219.438-.64.156-1.344.156-2.5 0-3.828-1.64-1.312-1.657-1.312-4.782t1.312-4.781q1.328-1.656 3.828-1.656.703 0 1.344.156.656.156 1.219.453v2.719q-.625-.578-1.219-.844-.594-.281-1.219-.281-1.343 0-2.031 1.078-.688 1.062-.688 3.156 0 2.094.688 3.172.688 1.062 2.031 1.062.625 0 1.219-.265.594-.281 1.219-.86v2.72Z"/><text x="2004.25" y="32.78" fill="#D9B8FF" font-family="Helvetica" font-size="17" textLength="71">resource</text><path d="M1927 46.789h193" style="stroke:#000d19;stroke-width:1.5"/><text x="1937" y="65.999" fill="#D9B8FF" font-family="sans-serif" font-size="11" font-weight="bold" textLength="12">id</text><text x="1949" y="65.999" fill="#D9B8FF" font-family="sans-serif" font-size="11" textLength="41">: string</text><text x="1937" y="88.804" fill="#D9B8FF" font-family="sans-serif" font-size="11" font-weight="bold" textLength="28">tags</text><text x="1965" y="88.804" fill="#D9B8FF" font-family="sans-serif" font-size="11" textLength="145">: dictionary[string, string]</text><text x="1937" y="111.609" fill="#D9B8FF" font-family="sans-serif" font-size="11" font-weight="bold" textLength="35">name</text><text x="1972" y="111.609" fill="#D9B8FF" font-family="sans-serif" font-size="11" textLength="41">: string</text><text x="1937" y="134.414" fill="#D9B8FF" font-family="sans-serif" font-size="11" font-weight="bold" textLength="35">ctime</text><text x="1972" y="134.414" fill="#D9B8FF" font-family="sans-serif" font-size="11" textLength="58">: datetime</text><text x="1937" y="157.218" fill="#D9B8FF" font-family="sans-serif" font-size="11" font-weight="bold" textLength="24">age</text><text x="1961" y="157.218" fill="#D9B8FF" font-family="sans-serif" font-size="11" textLength="55">: duration</text><text x="1937" y="180.023" fill="#D9B8FF" font-family="sans-serif" font-size="11" font-weight="bold" textLength="39">mtime</text><text x="1976" y="180.023" fill="#D9B8FF" font-family="sans-serif" font-size="11" textLength="58">: datetime</text><text x="1937" y="202.828" fill="#D9B8FF" font-family="sans-serif" font-size="11" font-weight="bold" textLength="75">last_update</text><text x="2012" y="202.828" fill="#D9B8FF" font-family="sans-serif" font-size="11" textLength="55">: duration</text><text x="1937" y="225.632" fill="#D9B8FF" font-family="sans-serif" font-size="11" font-weight="bold" textLength="36">atime</text><text x="1973" y="225.632" fill="#D9B8FF" font-family="sans-serif" font-size="11" textLength="58">: datetime</text><text x="1937" y="248.437" fill="#D9B8FF" font-family="sans-serif" font-size="11" font-weight="bold" textLength="74">last_access</text><text x="2011" y="248.437" fill="#D9B8FF" font-family="sans-serif" font-size="11" textLength="55">: duration</text><text x="1937" y="271.242" fill="#D9B8FF" font-family="sans-serif" font-size="11" font-weight="bold" textLength="27">kind</text><text x="1964" y="271.242" fill="#D9B8FF" font-family="sans-serif" font-size="11" textLength="41">: string</text></a><a xlink:actuate="onRequest" xlink:href="#b" xlink:show="new" xlink:title="#aws_resource" xlink:type="simple" target="_top"><rect id="b" width="155" height="70.594" x="1946" y="404" fill="#3D176E" rx="2.5" ry="2.5" style="stroke:#000d19;stroke-width:1.5"/><circle cx="1961" cy="423.894" r="11" fill="#E98DF7" style="stroke:#000d19;stroke-width:1"/><path d="M1963.969 429.535q-.578.297-1.219.438-.64.156-1.344.156-2.5 0-3.828-1.64-1.312-1.657-1.312-4.782t1.312-4.781q1.328-1.656 3.828-1.656.703 0 1.344.156.656.156 1.219.453v2.719q-.625-.579-1.219-.844-.594-.281-1.219-.281-1.343 0-2.031 1.078-.688 1.062-.688 3.156 0 2.094.688 3.172.688 1.062 2.031 1.062.625 0 1.219-.265.594-.281 1.219-.86v2.72Z"/><text x="1980" y="429.78" fill="#D9B8FF" font-family="Helvetica" font-size="17" textLength="113">aws_resource</text><path d="M1947 443.789h153" style="stroke:#000d19;stroke-width:1.5"/><text x="1957" y="463" fill="#D9B8FF" font-family="sans-serif" font-size="11" font-weight="bold" textLength="21">arn</text><text x="1978" y="463" fill="#D9B8FF" font-family="sans-serif" font-size="11" textLength="41">: string</text></a><a xlink:actuate="onRequest" xlink:href="#c" xlink:show="new" xlink:title="#aws_sagemaker_model_configuration" xlink:type="simple" target="_top"><rect id="c" width="433" height="93.398" x="7" y="1417" fill="#3D176E" rx="2.5" ry="2.5" style="stroke:#000d19;stroke-width:1.5"/><circle cx="56.75" cy="1436.895" r="11" fill="#E98DF7" style="stroke:#000d19;stroke-width:1"/><path d="M59.719 1442.535q-.578.297-1.219.438-.64.156-1.344.156-2.5 0-3.828-1.64-1.312-1.657-1.312-4.782t1.312-4.781q1.328-1.656 3.828-1.656.703 0 1.344.156.656.156 1.219.453v2.719q-.625-.578-1.219-.844-.594-.281-1.219-.281-1.343 0-2.031 1.078-.688 1.062-.688 3.156 0 2.094.688 3.172.688 1.062 2.031 1.062.625 0 1.219-.265.594-.281 1.219-.86v2.72Z"/><text x="82.25" y="1442.78" fill="#D9B8FF" font-family="Helvetica" font-size="17" textLength="315">aws_sagemaker_model_configuration</text><path d="M8 1456.789h431" style="stroke:#000d19;stroke-width:1.5"/><text x="18" y="1475.999" fill="#D9B8FF" font-family="sans-serif" font-size="11" font-weight="bold" textLength="191">inference_specification_name</text><text x="209" y="1475.999" fill="#D9B8FF" font-family="sans-serif" font-size="11" textLength="41">: string</text><text x="18" y="1498.804" fill="#D9B8FF" font-family="sans-serif" font-size="11" font-weight="bold" textLength="159">environment_parameters</text><text x="177" y="1498.804" fill="#D9B8FF" font-family="sans-serif" font-size="11" textLength="252">: aws_sagemaker_environment_parameter[]</text></a><a xlink:actuate="onRequest" xlink:href="#d" xlink:show="new" xlink:title="#aws_sagemaker_environment_parameter" xlink:type="simple" target="_top"><rect id="d" width="391" height="116.203" x="28" y="1627" fill="#3D176E" rx="2.5" ry="2.5" style="stroke:#000d19;stroke-width:1.5"/><circle cx="43" cy="1646.895" r="11" fill="#E98DF7" style="stroke:#000d19;stroke-width:1"/><path d="M45.969 1652.535q-.578.297-1.219.438-.64.156-1.344.156-2.5 0-3.828-1.64-1.312-1.657-1.312-4.782t1.312-4.781q1.328-1.656 3.828-1.656.703 0 1.344.156.656.156 1.219.453v2.719q-.625-.578-1.219-.844-.594-.281-1.219-.281-1.343 0-2.031 1.078-.688 1.062-.688 3.156 0 2.094.688 3.172.688 1.062 2.031 1.062.625 0 1.219-.265.594-.281 1.219-.86v2.72Z"/><text x="62" y="1652.78" fill="#D9B8FF" font-family="Helvetica" font-size="17" textLength="349">aws_sagemaker_environment_parameter</text><path d="M29 1666.789h389" style="stroke:#000d19;stroke-width:1.5"/><text x="39" y="1685.999" fill="#D9B8FF" font-family="sans-serif" font-size="11" font-weight="bold" textLength="22">key</text><text x="61" y="1685.999" fill="#D9B8FF" font-family="sans-serif" font-size="11" textLength="41">: string</text><text x="39" y="1708.804" fill="#D9B8FF" font-family="sans-serif" font-size="11" font-weight="bold" textLength="69">value_type</text><text x="108" y="1708.804" fill="#D9B8FF" font-family="sans-serif" font-size="11" textLength="41">: string</text><text x="39" y="1731.609" fill="#D9B8FF" font-family="sans-serif" font-size="11" font-weight="bold" textLength="35">value</text><text x="74" y="1731.609" fill="#D9B8FF" font-family="sans-serif" font-size="11" textLength="41">: string</text></a><a xlink:actuate="onRequest" xlink:href="#e" xlink:show="new" xlink:title="#aws_sagemaker_job" xlink:type="simple" target="_top"><rect id="e" width="210" height="39.789" x="1918.5" y="596" fill="#3D176E" rx="2.5" ry="2.5" style="stroke:#000d19;stroke-width:1.5"/><circle cx="1933.5" cy="615.894" r="11" fill="#E98DF7" style="stroke:#000d19;stroke-width:1"/><path d="M1936.469 621.535q-.578.297-1.219.438-.64.156-1.344.156-2.5 0-3.828-1.64-1.312-1.657-1.312-4.782t1.312-4.781q1.328-1.657 3.828-1.657.703 0 1.344.157.656.156 1.219.453v2.719q-.625-.578-1.219-.844-.594-.281-1.219-.281-1.343 0-2.031 1.078-.688 1.062-.688 3.156 0 2.094.688 3.172.688 1.062 2.031 1.062.625 0 1.219-.265.594-.282 1.219-.86v2.72Z"/><text x="1952.5" y="621.78" fill="#D9B8FF" font-family="Helvetica" font-size="17" textLength="168">aws_sagemaker_job</text></a><a xlink:actuate="onRequest" xlink:href="#f" xlink:show="new" xlink:title="#aws_sagemaker_traffic_pattern" xlink:type="simple" target="_top"><rect id="f" width="305" height="93.398" x="1818" y="1417" fill="#3D176E" rx="2.5" ry="2.5" style="stroke:#000d19;stroke-width:1.5"/><circle cx="1833" cy="1436.895" r="11" fill="#E98DF7" style="stroke:#000d19;stroke-width:1"/><path d="M1835.969 1442.535q-.578.297-1.219.438-.64.156-1.344.156-2.5 0-3.828-1.64-1.312-1.657-1.312-4.782t1.312-4.781q1.328-1.656 3.828-1.656.703 0 1.344.156.656.156 1.219.453v2.719q-.625-.578-1.219-.844-.594-.281-1.219-.281-1.343 0-2.031 1.078-.688 1.062-.688 3.156 0 2.094.688 3.172.688 1.062 2.031 1.062.625 0 1.219-.265.594-.281 1.219-.86v2.72Z"/><text x="1852" y="1442.78" fill="#D9B8FF" font-family="Helvetica" font-size="17" textLength="263">aws_sagemaker_traffic_pattern</text><path d="M1819 1456.789h303" style="stroke:#000d19;stroke-width:1.5"/><text x="1829" y="1475.999" fill="#D9B8FF" font-family="sans-serif" font-size="11" font-weight="bold" textLength="73">traffic_type</text><text x="1902" y="1475.999" fill="#D9B8FF" font-family="sans-serif" font-size="11" textLength="41">: string</text><text x="1829" y="1498.804" fill="#D9B8FF" font-family="sans-serif" font-size="11" font-weight="bold" textLength="46">phases</text><text x="1875" y="1498.804" fill="#D9B8FF" font-family="sans-serif" font-size="11" textLength="150">: aws_sagemaker_phase[]</text></a><a xlink:actuate="onRequest" xlink:href="#g" xlink:show="new" xlink:title="#aws_sagemaker_phase" xlink:type="simple" target="_top"><rect id="g" width="234" height="116.203" x="1853.5" y="1627" fill="#3D176E" rx="2.5" ry="2.5" style="stroke:#000d19;stroke-width:1.5"/><circle cx="1868.5" cy="1646.895" r="11" fill="#E98DF7" style="stroke:#000d19;stroke-width:1"/><path d="M1871.469 1652.535q-.578.297-1.219.438-.64.156-1.344.156-2.5 0-3.828-1.64-1.312-1.657-1.312-4.782t1.312-4.781q1.328-1.656 3.828-1.656.703 0 1.344.156.656.156 1.219.453v2.719q-.625-.578-1.219-.844-.594-.281-1.219-.281-1.343 0-2.031 1.078-.688 1.062-.688 3.156 0 2.094.688 3.172.688 1.062 2.031 1.062.625 0 1.219-.265.594-.281 1.219-.86v2.72Z"/><text x="1887.5" y="1652.78" fill="#D9B8FF" font-family="Helvetica" font-size="17" textLength="192">aws_sagemaker_phase</text><path d="M1854.5 1666.789h232" style="stroke:#000d19;stroke-width:1.5"/><text x="1864.5" y="1685.999" fill="#D9B8FF" font-family="sans-serif" font-size="11" font-weight="bold" textLength="151">initial_number_of_users</text><text x="2015.5" y="1685.999" fill="#D9B8FF" font-family="sans-serif" font-size="11" textLength="36">: int64</text><text x="1864.5" y="1708.804" fill="#D9B8FF" font-family="sans-serif" font-size="11" font-weight="bold" textLength="74">spawn_rate</text><text x="1938.5" y="1708.804" fill="#D9B8FF" font-family="sans-serif" font-size="11" textLength="36">: int64</text><text x="1864.5" y="1731.609" fill="#D9B8FF" font-family="sans-serif" font-size="11" font-weight="bold" textLength="131">duration_in_seconds</text><text x="1995.5" y="1731.609" fill="#D9B8FF" font-family="sans-serif" font-size="11" textLength="36">: int64</text></a><a xlink:actuate="onRequest" xlink:href="#h" xlink:show="new" xlink:title="#aws_sagemaker_vpc_config" xlink:type="simple" target="_top"><rect id="h" width="272" height="93.398" x="2158.5" y="1417" fill="#3D176E" rx="2.5" ry="2.5" style="stroke:#000d19;stroke-width:1.5"/><circle cx="2173.5" cy="1436.895" r="11" fill="#E98DF7" style="stroke:#000d19;stroke-width:1"/><path d="M2176.469 1442.535q-.578.297-1.219.438-.64.156-1.344.156-2.5 0-3.828-1.64-1.312-1.657-1.312-4.782t1.312-4.781q1.328-1.656 3.828-1.656.703 0 1.344.156.656.156 1.219.453v2.719q-.625-.578-1.219-.844-.594-.281-1.219-.281-1.343 0-2.031 1.078-.688 1.062-.688 3.156 0 2.094.688 3.172.688 1.062 2.031 1.062.625 0 1.219-.265.594-.281 1.219-.86v2.72Z"/><text x="2192.5" y="1442.78" fill="#D9B8FF" font-family="Helvetica" font-size="17" textLength="230">aws_sagemaker_vpc_config</text><path d="M2159.5 1456.789h270" style="stroke:#000d19;stroke-width:1.5"/><text x="2169.5" y="1475.999" fill="#D9B8FF" font-family="sans-serif" font-size="11" font-weight="bold" textLength="119">security_group_ids</text><text x="2288.5" y="1475.999" fill="#D9B8FF" font-family="sans-serif" font-size="11" textLength="49">: string[]</text><text x="2169.5" y="1498.804" fill="#D9B8FF" font-family="sans-serif" font-size="11" font-weight="bold" textLength="51">subnets</text><text x="2220.5" y="1498.804" fill="#D9B8FF" font-family="sans-serif" font-size="11" textLength="49">: string[]</text></a><a xlink:actuate="onRequest" xlink:href="#i" xlink:show="new" xlink:title="#aws_sagemaker_recommendation_job_payload_config" xlink:type="simple" target="_top"><rect id="i" width="495" height="93.398" x="3547" y="1638.5" fill="#3D176E" rx="2.5" ry="2.5" style="stroke:#000d19;stroke-width:1.5"/><circle cx="3562" cy="1658.395" r="11" fill="#E98DF7" style="stroke:#000d19;stroke-width:1"/><path d="M3564.969 1664.035q-.578.297-1.219.438-.64.156-1.344.156-2.5 0-3.828-1.64-1.312-1.657-1.312-4.782t1.312-4.781q1.328-1.656 3.828-1.656.703 0 1.344.156.656.156 1.219.453v2.719q-.625-.578-1.219-.844-.594-.281-1.219-.281-1.343 0-2.031 1.078-.688 1.062-.688 3.156 0 2.094.688 3.172.688 1.062 2.031 1.062.625 0 1.219-.265.594-.281 1.219-.86v2.72Z"/><text x="3581" y="1664.28" fill="#D9B8FF" font-family="Helvetica" font-size="17" textLength="453">aws_sagemaker_recommendation_job_payload_config</text><path d="M3548 1678.289h493" style="stroke:#000d19;stroke-width:1.5"/><text x="3558" y="1697.499" fill="#D9B8FF" font-family="sans-serif" font-size="11" font-weight="bold" textLength="126">sample_payload_url</text><text x="3684" y="1697.499" fill="#D9B8FF" font-family="sans-serif" font-size="11" textLength="41">: string</text><text x="3558" y="1720.304" fill="#D9B8FF" font-family="sans-serif" font-size="11" font-weight="bold" textLength="161">supported_content_types</text><text x="3719" y="1720.304" fill="#D9B8FF" font-family="sans-serif" font-size="11" textLength="49">: string[]</text></a><a xlink:actuate="onRequest" xlink:href="#j" xlink:show="new" xlink:title="#aws_sagemaker_inference_recommendations_job" xlink:type="simple" target="_top"><rect id="j" width="709" height="253.031" x="1669" y="757" fill="#3D176E" rx="2.5" ry="2.5" style="stroke:#000d19;stroke-width:1.5"/><circle cx="1806.75" cy="776.894" r="11" fill="#E98DF7" style="stroke:#000d19;stroke-width:1"/><path d="M1809.719 782.535q-.578.297-1.219.438-.64.156-1.344.156-2.5 0-3.828-1.64-1.312-1.657-1.312-4.782t1.312-4.781q1.328-1.657 3.828-1.657.703 0 1.344.157.656.156 1.219.453v2.719q-.625-.578-1.219-.844-.594-.281-1.219-.281-1.343 0-2.031 1.078-.688 1.062-.688 3.156 0 2.094.688 3.172.688 1.062 2.031 1.062.625 0 1.219-.265.594-.282 1.219-.86v2.72Z"/><text x="1832.25" y="782.78" fill="#D9B8FF" font-family="Helvetica" font-size="17" textLength="415">aws_sagemaker_inference_recommendations_job</text><path d="M1670 796.789h707" style="stroke:#000d19;stroke-width:1.5"/><text x="1680" y="816" fill="#D9B8FF" font-family="sans-serif" font-size="11" font-weight="bold" textLength="285">inference_recommendations_job_description</text><text x="1965" y="816" fill="#D9B8FF" font-family="sans-serif" font-size="11" textLength="41">: string</text><text x="1680" y="838.804" fill="#D9B8FF" font-family="sans-serif" font-size="11" font-weight="bold" textLength="241">inference_recommendations_job_type</text><text x="1921" y="838.804" fill="#D9B8FF" font-family="sans-serif" font-size="11" textLength="41">: string</text><text x="1680" y="861.609" fill="#D9B8FF" font-family="sans-serif" font-size="11" font-weight="bold" textLength="253">inference_recommendations_job_status</text><text x="1933" y="861.609" fill="#D9B8FF" font-family="sans-serif" font-size="11" textLength="41">: string</text><text x="1680" y="884.414" fill="#D9B8FF" font-family="sans-serif" font-size="11" font-weight="bold" textLength="318">inference_recommendations_job_completion_time</text><text x="1998" y="884.414" fill="#D9B8FF" font-family="sans-serif" font-size="11" textLength="58">: datetime</text><text x="1680" y="907.218" fill="#D9B8FF" font-family="sans-serif" font-size="11" font-weight="bold" textLength="305">inference_recommendations_job_failure_reason</text><text x="1985" y="907.218" fill="#D9B8FF" font-family="sans-serif" font-size="11" textLength="41">: string</text><text x="1680" y="930.023" fill="#D9B8FF" font-family="sans-serif" font-size="11" font-weight="bold" textLength="292">inference_recommendations_job_input_config</text><text x="1972" y="930.023" fill="#D9B8FF" font-family="sans-serif" font-size="11" textLength="300">: aws_sagemaker_recommendation_job_input_config</text><text x="1680" y="952.828" fill="#D9B8FF" font-family="sans-serif" font-size="11" font-weight="bold" textLength="342">inference_recommendations_job_stopping_conditions</text><text x="2022" y="952.828" fill="#D9B8FF" font-family="sans-serif" font-size="11" textLength="345">: aws_sagemaker_recommendation_job_stopping_conditions</text><text x="1680" y="975.632" fill="#D9B8FF" font-family="sans-serif" font-size="11" font-weight="bold" textLength="394">inference_recommendations_job_inference_recommendations</text><text x="2074" y="975.632" fill="#D9B8FF" font-family="sans-serif" font-size="11" textLength="270">: aws_sagemaker_inference_recommendation[]</text><text x="1680" y="998.437" fill="#D9B8FF" font-family="sans-serif" font-size="11" font-weight="bold" textLength="364">inference_recommendations_job_endpoint_performances</text><text x="2044" y="998.437" fill="#D9B8FF" font-family="sans-serif" font-size="11" textLength="243">: aws_sagemaker_endpoint_performance[]</text></a><a xlink:actuate="onRequest" xlink:href="#k" xlink:show="new" xlink:title="#aws_sagemaker_inference_recommendation" xlink:type="simple" target="_top"><rect id="k" width="449" height="116.203" x="726" y="1127" fill="#3D176E" rx="2.5" ry="2.5" style="stroke:#000d19;stroke-width:1.5"/><circle cx="756.3" cy="1146.895" r="11" fill="#E98DF7" style="stroke:#000d19;stroke-width:1"/><path d="M759.269 1152.535q-.578.297-1.219.438-.64.156-1.344.156-2.5 0-3.828-1.64-1.312-1.657-1.312-4.782t1.312-4.781q1.328-1.656 3.828-1.656.703 0 1.344.156.656.156 1.219.453v2.719q-.625-.578-1.219-.844-.594-.281-1.219-.281-1.344 0-2.031 1.078-.688 1.062-.688 3.156 0 2.094.688 3.172.688 1.062 2.031 1.062.625 0 1.219-.265.594-.281 1.219-.86v2.72Z"/><text x="778.7" y="1152.78" fill="#D9B8FF" font-family="Helvetica" font-size="17" textLength="373">aws_sagemaker_inference_recommendation</text><path d="M727 1166.789h447" style="stroke:#000d19;stroke-width:1.5"/><text x="737" y="1185.999" fill="#D9B8FF" font-family="sans-serif" font-size="11" font-weight="bold" textLength="47">metrics</text><text x="784" y="1185.999" fill="#D9B8FF" font-family="sans-serif" font-size="11" textLength="252">: aws_sagemaker_recommendation_metrics</text><text x="737" y="1208.804" fill="#D9B8FF" font-family="sans-serif" font-size="11" font-weight="bold" textLength="149">endpoint_configuration</text><text x="886" y="1208.804" fill="#D9B8FF" font-family="sans-serif" font-size="11" textLength="278">: aws_sagemaker_endpoint_output_configuration</text><text x="737" y="1231.609" fill="#D9B8FF" font-family="sans-serif" font-size="11" font-weight="bold" textLength="131">model_configuration</text><text x="868" y="1231.609" fill="#D9B8FF" font-family="sans-serif" font-size="11" textLength="222">: aws_sagemaker_model_configuration</text></a><a xlink:actuate="onRequest" xlink:href="#l" xlink:show="new" xlink:title="#aws_sagemaker_recommendation_metrics" xlink:type="simple" target="_top"><rect id="l" width="399" height="139.008" x="475" y="1394" fill="#3D176E" rx="2.5" ry="2.5" style="stroke:#000d19;stroke-width:1.5"/><circle cx="490" cy="1413.895" r="11" fill="#E98DF7" style="stroke:#000d19;stroke-width:1"/><path d="M492.969 1419.535q-.578.297-1.219.438-.64.156-1.344.156-2.5 0-3.828-1.64-1.312-1.657-1.312-4.782t1.312-4.781q1.328-1.656 3.828-1.656.703 0 1.344.156.656.156 1.219.453v2.719q-.625-.578-1.219-.844-.594-.281-1.219-.281-1.344 0-2.031 1.078-.688 1.062-.688 3.156 0 2.094.688 3.172.688 1.062 2.031 1.062.625 0 1.219-.265.594-.281 1.219-.86v2.72Z"/><text x="509" y="1419.78" fill="#D9B8FF" font-family="Helvetica" font-size="17" textLength="357">aws_sagemaker_recommendation_metrics</text><path d="M476 1433.789h397" style="stroke:#000d19;stroke-width:1.5"/><text x="486" y="1452.999" fill="#D9B8FF" font-family="sans-serif" font-size="11" font-weight="bold" textLength="89">cost_per_hour</text><text x="575" y="1452.999" fill="#D9B8FF" font-family="sans-serif" font-size="11" textLength="46">: double</text><text x="486" y="1475.804" fill="#D9B8FF" font-family="sans-serif" font-size="11" font-weight="bold" textLength="121">cost_per_inference</text><text x="607" y="1475.804" fill="#D9B8FF" font-family="sans-serif" font-size="11" textLength="46">: double</text><text x="486" y="1498.609" fill="#D9B8FF" font-family="sans-serif" font-size="11" font-weight="bold" textLength="106">max_invocations</text><text x="592" y="1498.609" fill="#D9B8FF" font-family="sans-serif" font-size="11" textLength="36">: int64</text><text x="486" y="1521.414" fill="#D9B8FF" font-family="sans-serif" font-size="11" font-weight="bold" textLength="92">model_latency</text><text x="578" y="1521.414" fill="#D9B8FF" font-family="sans-serif" font-size="11" textLength="36">: int64</text></a><a xlink:actuate="onRequest" xlink:href="#m" xlink:show="new" xlink:title="#aws_sagemaker_endpoint_output_configuration" xlink:type="simple" target="_top"><rect id="m" width="444" height="139.008" x="908.5" y="1394" fill="#3D176E" rx="2.5" ry="2.5" style="stroke:#000d19;stroke-width:1.5"/><circle cx="923.5" cy="1413.895" r="11" fill="#E98DF7" style="stroke:#000d19;stroke-width:1"/><path d="M926.469 1419.535q-.578.297-1.219.438-.64.156-1.344.156-2.5 0-3.828-1.64-1.312-1.657-1.312-4.782t1.312-4.781q1.328-1.656 3.828-1.656.703 0 1.344.156.656.156 1.219.453v2.719q-.625-.578-1.219-.844-.594-.281-1.219-.281-1.343 0-2.031 1.078-.688 1.062-.688 3.156 0 2.094.688 3.172.688 1.062 2.031 1.062.625 0 1.219-.265.594-.281 1.219-.86v2.72Z"/><text x="942.5" y="1419.78" fill="#D9B8FF" font-family="Helvetica" font-size="17" textLength="402">aws_sagemaker_endpoint_output_configuration</text><path d="M909.5 1433.789h442" style="stroke:#000d19;stroke-width:1.5"/><text x="919.5" y="1452.999" fill="#D9B8FF" font-family="sans-serif" font-size="11" font-weight="bold" textLength="98">endpoint_name</text><text x="1017.5" y="1452.999" fill="#D9B8FF" font-family="sans-serif" font-size="11" textLength="41">: string</text><text x="919.5" y="1475.804" fill="#D9B8FF" font-family="sans-serif" font-size="11" font-weight="bold" textLength="86">variant_name</text><text x="1005.5" y="1475.804" fill="#D9B8FF" font-family="sans-serif" font-size="11" textLength="41">: string</text><text x="919.5" y="1498.609" fill="#D9B8FF" font-family="sans-serif" font-size="11" font-weight="bold" textLength="89">instance_type</text><text x="1008.5" y="1498.609" fill="#D9B8FF" font-family="sans-serif" font-size="11" textLength="41">: string</text><text x="919.5" y="1521.414" fill="#D9B8FF" font-family="sans-serif" font-size="11" font-weight="bold" textLength="140">initial_instance_count</text><text x="1059.5" y="1521.414" fill="#D9B8FF" font-family="sans-serif" font-size="11" textLength="36">: int64</text></a><a xlink:actuate="onRequest" xlink:href="#n" xlink:show="new" xlink:title="#aws_sagemaker_recommendation_job_stopping_conditions" xlink:type="simple" target="_top"><rect id="n" width="536" height="93.398" x="1401.5" y="1138.5" fill="#3D176E" rx="2.5" ry="2.5" style="stroke:#000d19;stroke-width:1.5"/><circle cx="1416.5" cy="1158.395" r="11" fill="#E98DF7" style="stroke:#000d19;stroke-width:1"/><path d="M1419.469 1164.035q-.578.297-1.219.438-.64.156-1.344.156-2.5 0-3.828-1.64-1.312-1.657-1.312-4.782t1.312-4.781q1.328-1.656 3.828-1.656.703 0 1.344.156.656.156 1.219.453v2.719q-.625-.578-1.219-.844-.594-.281-1.219-.281-1.343 0-2.031 1.078-.688 1.062-.688 3.156 0 2.094.688 3.172.688 1.062 2.031 1.062.625 0 1.219-.265.594-.281 1.219-.86v2.72Z"/><text x="1435.5" y="1164.28" fill="#D9B8FF" font-family="Helvetica" font-size="17" textLength="494">aws_sagemaker_recommendation_job_stopping_conditions</text><path d="M1402.5 1178.289h534" style="stroke:#000d19;stroke-width:1.5"/><text x="1412.5" y="1197.499" fill="#D9B8FF" font-family="sans-serif" font-size="11" font-weight="bold" textLength="106">max_invocations</text><text x="1518.5" y="1197.499" fill="#D9B8FF" font-family="sans-serif" font-size="11" textLength="36">: int64</text><text x="1412.5" y="1220.304" fill="#D9B8FF" font-family="sans-serif" font-size="11" font-weight="bold" textLength="166">model_latency_thresholds</text><text x="1578.5" y="1220.304" fill="#D9B8FF" font-family="sans-serif" font-size="11" textLength="256">: aws_sagemaker_model_latency_threshold[]</text></a><a xlink:actuate="onRequest" xlink:href="#o" xlink:show="new" xlink:title="#aws_sagemaker_model_latency_threshold" xlink:type="simple" target="_top"><rect id="o" width="395" height="93.398" x="1388" y="1417" fill="#3D176E" rx="2.5" ry="2.5" style="stroke:#000d19;stroke-width:1.5"/><circle cx="1403" cy="1436.895" r="11" fill="#E98DF7" style="stroke:#000d19;stroke-width:1"/><path d="M1405.969 1442.535q-.578.297-1.219.438-.64.156-1.344.156-2.5 0-3.828-1.64-1.312-1.657-1.312-4.782t1.312-4.781q1.328-1.656 3.828-1.656.703 0 1.344.156.656.156 1.219.453v2.719q-.625-.578-1.219-.844-.594-.281-1.219-.281-1.343 0-2.031 1.078-.688 1.062-.688 3.156 0 2.094.688 3.172.688 1.062 2.031 1.062.625 0 1.219-.265.594-.281 1.219-.86v2.72Z"/><text x="1422" y="1442.78" fill="#D9B8FF" font-family="Helvetica" font-size="17" textLength="353">aws_sagemaker_model_latency_threshold</text><path d="M1389 1456.789h393" style="stroke:#000d19;stroke-width:1.5"/><text x="1399" y="1475.999" fill="#D9B8FF" font-family="sans-serif" font-size="11" font-weight="bold" textLength="65">percentile</text><text x="1464" y="1475.999" fill="#D9B8FF" font-family="sans-serif" font-size="11" textLength="41">: string</text><text x="1399" y="1498.804" fill="#D9B8FF" font-family="sans-serif" font-size="11" font-weight="bold" textLength="139">value_in_milliseconds</text><text x="1538" y="1498.804" fill="#D9B8FF" font-family="sans-serif" font-size="11" textLength="36">: int64</text></a><a xlink:actuate="onRequest" xlink:href="#p" xlink:show="new" xlink:title="#aws_sagemaker_recommendation_job_input_config" xlink:type="simple" target="_top"><rect id="p" width="474" height="230.227" x="2265.5" y="1070" fill="#3D176E" rx="2.5" ry="2.5" style="stroke:#000d19;stroke-width:1.5"/><circle cx="2280.5" cy="1089.895" r="11" fill="#E98DF7" style="stroke:#000d19;stroke-width:1"/><path d="M2283.469 1095.535q-.578.297-1.219.438-.64.156-1.344.156-2.5 0-3.828-1.64-1.312-1.657-1.312-4.782t1.312-4.781q1.328-1.656 3.828-1.656.703 0 1.344.156.656.156 1.219.453v2.719q-.625-.578-1.219-.844-.594-.281-1.219-.281-1.343 0-2.031 1.078-.688 1.062-.688 3.156 0 2.094.688 3.172.688 1.062 2.031 1.062.625 0 1.219-.265.594-.281 1.219-.86v2.72Z"/><text x="2299.5" y="1095.78" fill="#D9B8FF" font-family="Helvetica" font-size="17" textLength="432">aws_sagemaker_recommendation_job_input_config</text><path d="M2266.5 1109.789h472" style="stroke:#000d19;stroke-width:1.5"/><text x="2276.5" y="1128.999" fill="#D9B8FF" font-family="sans-serif" font-size="11" font-weight="bold" textLength="179">model_package_version_arn</text><text x="2455.5" y="1128.999" fill="#D9B8FF" font-family="sans-serif" font-size="11" textLength="41">: string</text><text x="2276.5" y="1151.804" fill="#D9B8FF" font-family="sans-serif" font-size="11" font-weight="bold" textLength="157">job_duration_in_seconds</text><text x="2433.5" y="1151.804" fill="#D9B8FF" font-family="sans-serif" font-size="11" textLength="36">: int64</text><text x="2276.5" y="1174.609" fill="#D9B8FF" font-family="sans-serif" font-size="11" font-weight="bold" textLength="92">traffic_pattern</text><text x="2368.5" y="1174.609" fill="#D9B8FF" font-family="sans-serif" font-size="11" textLength="187">: aws_sagemaker_traffic_pattern</text><text x="2276.5" y="1197.414" fill="#D9B8FF" font-family="sans-serif" font-size="11" font-weight="bold" textLength="90">resource_limit</text><text x="2366.5" y="1197.414" fill="#D9B8FF" font-family="sans-serif" font-size="11" textLength="313">: aws_sagemaker_recommendation_job_resource_limit</text><text x="2276.5" y="1220.218" fill="#D9B8FF" font-family="sans-serif" font-size="11" font-weight="bold" textLength="156">endpoint_configurations</text><text x="2432.5" y="1220.218" fill="#D9B8FF" font-family="sans-serif" font-size="11" textLength="278">: aws_sagemaker_endpoint_input_configuration[]</text><text x="2276.5" y="1243.023" fill="#D9B8FF" font-family="sans-serif" font-size="11" font-weight="bold" textLength="107">container_config</text><text x="2383.5" y="1243.023" fill="#D9B8FF" font-family="sans-serif" font-size="11" textLength="325">: aws_sagemaker_recommendation_job_container_config</text><text x="2276.5" y="1265.828" fill="#D9B8FF" font-family="sans-serif" font-size="11" font-weight="bold" textLength="64">endpoints</text><text x="2340.5" y="1265.828" fill="#D9B8FF" font-family="sans-serif" font-size="11" textLength="49">: string[]</text><text x="2276.5" y="1288.632" fill="#D9B8FF" font-family="sans-serif" font-size="11" font-weight="bold" textLength="68">vpc_config</text><text x="2344.5" y="1288.632" fill="#D9B8FF" font-family="sans-serif" font-size="11" textLength="166">: aws_sagemaker_vpc_config</text></a><a xlink:actuate="onRequest" xlink:href="#q" xlink:show="new" xlink:title="#aws_sagemaker_recommendation_job_resource_limit" xlink:type="simple" target="_top"><rect id="q" width="490" height="93.398" x="2465.5" y="1417" fill="#3D176E" rx="2.5" ry="2.5" style="stroke:#000d19;stroke-width:1.5"/><circle cx="2480.5" cy="1436.895" r="11" fill="#E98DF7" style="stroke:#000d19;stroke-width:1"/><path d="M2483.469 1442.535q-.578.297-1.219.438-.64.156-1.344.156-2.5 0-3.828-1.64-1.312-1.657-1.312-4.782t1.312-4.781q1.328-1.656 3.828-1.656.703 0 1.344.156.656.156 1.219.453v2.719q-.625-.578-1.219-.844-.594-.281-1.219-.281-1.343 0-2.031 1.078-.688 1.062-.688 3.156 0 2.094.688 3.172.688 1.062 2.031 1.062.625 0 1.219-.265.594-.281 1.219-.86v2.72Z"/><text x="2499.5" y="1442.78" fill="#D9B8FF" font-family="Helvetica" font-size="17" textLength="448">aws_sagemaker_recommendation_job_resource_limit</text><path d="M2466.5 1456.789h488" style="stroke:#000d19;stroke-width:1.5"/><text x="2476.5" y="1475.999" fill="#D9B8FF" font-family="sans-serif" font-size="11" font-weight="bold" textLength="137">max_number_of_tests</text><text x="2613.5" y="1475.999" fill="#D9B8FF" font-family="sans-serif" font-size="11" textLength="36">: int64</text><text x="2476.5" y="1498.804" fill="#D9B8FF" font-family="sans-serif" font-size="11" font-weight="bold" textLength="138">max_parallel_of_tests</text><text x="2614.5" y="1498.804" fill="#D9B8FF" font-family="sans-serif" font-size="11" textLength="36">: int64</text></a><a xlink:actuate="onRequest" xlink:href="#r" xlink:show="new" xlink:title="#aws_sagemaker_endpoint_input_configuration" xlink:type="simple" target="_top"><rect id="r" width="514" height="116.203" x="2990.5" y="1405.5" fill="#3D176E" rx="2.5" ry="2.5" style="stroke:#000d19;stroke-width:1.5"/><circle cx="3043.25" cy="1425.395" r="11" fill="#E98DF7" style="stroke:#000d19;stroke-width:1"/><path d="M3046.219 1431.035q-.578.297-1.219.438-.64.156-1.344.156-2.5 0-3.828-1.64-1.312-1.657-1.312-4.782t1.312-4.781q1.328-1.656 3.828-1.656.703 0 1.344.156.656.156 1.219.453v2.719q-.625-.578-1.219-.844-.594-.281-1.219-.281-1.343 0-2.031 1.078-.688 1.062-.688 3.156 0 2.094.688 3.172.688 1.062 2.031 1.062.625 0 1.219-.265.594-.281 1.219-.86v2.72Z"/><text x="3068.75" y="1431.28" fill="#D9B8FF" font-family="Helvetica" font-size="17" textLength="390">aws_sagemaker_endpoint_input_configuration</text><path d="M2991.5 1445.289h512" style="stroke:#000d19;stroke-width:1.5"/><text x="3001.5" y="1464.499" fill="#D9B8FF" font-family="sans-serif" font-size="11" font-weight="bold" textLength="89">instance_type</text><text x="3090.5" y="1464.499" fill="#D9B8FF" font-family="sans-serif" font-size="11" textLength="41">: string</text><text x="3001.5" y="1487.304" fill="#D9B8FF" font-family="sans-serif" font-size="11" font-weight="bold" textLength="191">inference_specification_name</text><text x="3192.5" y="1487.304" fill="#D9B8FF" font-family="sans-serif" font-size="11" textLength="41">: string</text><text x="3001.5" y="1510.109" fill="#D9B8FF" font-family="sans-serif" font-size="11" font-weight="bold" textLength="202">environment_parameter_ranges</text><text x="3203.5" y="1510.109" fill="#D9B8FF" font-family="sans-serif" font-size="11" textLength="290">: aws_sagemaker_environment_parameter_ranges</text></a><a xlink:actuate="onRequest" xlink:href="#s" xlink:show="new" xlink:title="#aws_sagemaker_environment_parameter_ranges" xlink:type="simple" target="_top"><rect id="s" width="456" height="70.594" x="3019.5" y="1649.5" fill="#3D176E" rx="2.5" ry="2.5" style="stroke:#000d19;stroke-width:1.5"/><circle cx="3034.5" cy="1669.395" r="11" fill="#E98DF7" style="stroke:#000d19;stroke-width:1"/><path d="M3037.469 1675.035q-.578.297-1.219.438-.64.156-1.344.156-2.5 0-3.828-1.64-1.312-1.657-1.312-4.782t1.312-4.781q1.328-1.656 3.828-1.656.703 0 1.344.156.656.156 1.219.453v2.719q-.625-.578-1.219-.844-.594-.281-1.219-.281-1.343 0-2.031 1.078-.688 1.062-.688 3.156 0 2.094.688 3.172.688 1.062 2.031 1.062.625 0 1.219-.265.594-.281 1.219-.86v2.72Z"/><text x="3053.5" y="1675.28" fill="#D9B8FF" font-family="Helvetica" font-size="17" textLength="414">aws_sagemaker_environment_parameter_ranges</text><path d="M3020.5 1689.289h454" style="stroke:#000d19;stroke-width:1.5"/><text x="3030.5" y="1708.499" fill="#D9B8FF" font-family="sans-serif" font-size="11" font-weight="bold" textLength="194">categorical_parameter_ranges</text><text x="3224.5" y="1708.499" fill="#D9B8FF" font-family="sans-serif" font-size="11" textLength="49">: string[]</text></a><a xlink:actuate="onRequest" xlink:href="#t" xlink:show="new" xlink:title="#aws_sagemaker_recommendation_job_container_config" xlink:type="simple" target="_top"><rect id="t" width="509" height="207.422" x="3540" y="1360" fill="#3D176E" rx="2.5" ry="2.5" style="stroke:#000d19;stroke-width:1.5"/><circle cx="3555" cy="1379.895" r="11" fill="#E98DF7" style="stroke:#000d19;stroke-width:1"/><path d="M3557.969 1385.535q-.578.297-1.219.438-.64.156-1.344.156-2.5 0-3.828-1.64-1.312-1.657-1.312-4.782t1.312-4.781q1.328-1.656 3.828-1.656.703 0 1.344.156.656.156 1.219.453v2.719q-.625-.578-1.219-.844-.594-.281-1.219-.281-1.343 0-2.031 1.078-.688 1.062-.688 3.156 0 2.094.688 3.172.688 1.062 2.031 1.062.625 0 1.219-.265.594-.281 1.219-.86v2.72Z"/><text x="3574" y="1385.78" fill="#D9B8FF" font-family="Helvetica" font-size="17" textLength="467">aws_sagemaker_recommendation_job_container_config</text><path d="M3541 1399.789h507" style="stroke:#000d19;stroke-width:1.5"/><text x="3551" y="1418.999" fill="#D9B8FF" font-family="sans-serif" font-size="11" font-weight="bold" textLength="47">domain</text><text x="3598" y="1418.999" fill="#D9B8FF" font-family="sans-serif" font-size="11" textLength="41">: string</text><text x="3551" y="1441.804" fill="#D9B8FF" font-family="sans-serif" font-size="11" font-weight="bold" textLength="27">task</text><text x="3578" y="1441.804" fill="#D9B8FF" font-family="sans-serif" font-size="11" textLength="41">: string</text><text x="3551" y="1464.609" fill="#D9B8FF" font-family="sans-serif" font-size="11" font-weight="bold" textLength="68">framework</text><text x="3619" y="1464.609" fill="#D9B8FF" font-family="sans-serif" font-size="11" textLength="41">: string</text><text x="3551" y="1487.414" fill="#D9B8FF" font-family="sans-serif" font-size="11" font-weight="bold" textLength="121">framework_version</text><text x="3672" y="1487.414" fill="#D9B8FF" font-family="sans-serif" font-size="11" textLength="41">: string</text><text x="3551" y="1510.218" fill="#D9B8FF" font-family="sans-serif" font-size="11" font-weight="bold" textLength="97">payload_config</text><text x="3648" y="1510.218" fill="#D9B8FF" font-family="sans-serif" font-size="11" textLength="316">: aws_sagemaker_recommendation_job_payload_config</text><text x="3551" y="1533.023" fill="#D9B8FF" font-family="sans-serif" font-size="11" font-weight="bold" textLength="135">nearest_model_name</text><text x="3686" y="1533.023" fill="#D9B8FF" font-family="sans-serif" font-size="11" textLength="41">: string</text><text x="3551" y="1555.828" fill="#D9B8FF" font-family="sans-serif" font-size="11" font-weight="bold" textLength="167">supported_instance_types</text><text x="3718" y="1555.828" fill="#D9B8FF" font-family="sans-serif" font-size="11" textLength="49">: string[]</text></a><a xlink:actuate="onRequest" xlink:href="#u" xlink:show="new" xlink:title="#aws_sagemaker_endpoint_performance" xlink:type="simple" target="_top"><rect id="u" width="374" height="93.398" x="3523.5" y="1138.5" fill="#3D176E" rx="2.5" ry="2.5" style="stroke:#000d19;stroke-width:1.5"/><circle cx="3538.5" cy="1158.395" r="11" fill="#E98DF7" style="stroke:#000d19;stroke-width:1"/><path d="M3541.469 1164.035q-.578.297-1.219.438-.64.156-1.344.156-2.5 0-3.828-1.64-1.312-1.657-1.312-4.782t1.312-4.781q1.328-1.656 3.828-1.656.703 0 1.344.156.656.156 1.219.453v2.719q-.625-.578-1.219-.844-.594-.281-1.219-.281-1.343 0-2.031 1.078-.688 1.062-.688 3.156 0 2.094.688 3.172.688 1.062 2.031 1.062.625 0 1.219-.265.594-.281 1.219-.86v2.72Z"/><text x="3557.5" y="1164.28" fill="#D9B8FF" font-family="Helvetica" font-size="17" textLength="332">aws_sagemaker_endpoint_performance</text><path d="M3524.5 1178.289h372" style="stroke:#000d19;stroke-width:1.5"/><text x="3534.5" y="1197.499" fill="#D9B8FF" font-family="sans-serif" font-size="11" font-weight="bold" textLength="47">metrics</text><text x="3581.5" y="1197.499" fill="#D9B8FF" font-family="sans-serif" font-size="11" textLength="209">: aws_sagemaker_inference_metrics</text><text x="3534.5" y="1220.304" fill="#D9B8FF" font-family="sans-serif" font-size="11" font-weight="bold" textLength="88">endpoint_info</text><text x="3622.5" y="1220.304" fill="#D9B8FF" font-family="sans-serif" font-size="11" textLength="41">: string</text></a><a xlink:actuate="onRequest" xlink:href="#v" xlink:show="new" xlink:title="#aws_sagemaker_inference_metrics" xlink:type="simple" target="_top"><rect id="v" width="334" height="93.398" x="4084.5" y="1417" fill="#3D176E" rx="2.5" ry="2.5" style="stroke:#000d19;stroke-width:1.5"/><circle cx="4099.5" cy="1436.895" r="11" fill="#E98DF7" style="stroke:#000d19;stroke-width:1"/><path d="M4102.469 1442.535q-.578.297-1.219.438-.64.156-1.344.156-2.5 0-3.828-1.64-1.312-1.657-1.312-4.782t1.312-4.781q1.328-1.656 3.828-1.656.703 0 1.344.156.656.156 1.219.453v2.719q-.625-.578-1.219-.844-.594-.281-1.219-.281-1.343 0-2.031 1.078-.688 1.062-.688 3.156 0 2.094.688 3.172.688 1.062 2.031 1.062.625 0 1.219-.265.594-.281 1.219-.86v2.72Z"/><text x="4118.5" y="1442.78" fill="#D9B8FF" font-family="Helvetica" font-size="17" textLength="292">aws_sagemaker_inference_metrics</text><path d="M4085.5 1456.789h332" style="stroke:#000d19;stroke-width:1.5"/><text x="4095.5" y="1475.999" fill="#D9B8FF" font-family="sans-serif" font-size="11" font-weight="bold" textLength="106">max_invocations</text><text x="4201.5" y="1475.999" fill="#D9B8FF" font-family="sans-serif" font-size="11" textLength="36">: int64</text><text x="4095.5" y="1498.804" fill="#D9B8FF" font-family="sans-serif" font-size="11" font-weight="bold" textLength="92">model_latency</text><text x="4187.5" y="1498.804" fill="#D9B8FF" font-family="sans-serif" font-size="11" textLength="36">: int64</text></a><path fill="none" d="M2023.5 303.43V403.9m-7-100.64 7-20 7 20h-14zm-1793 1206.99v111.55" style="stroke:#ffaf37;stroke-width:2"/><path fill="#FFAF37" d="m223.5 1626.98 4-9-4 4-4-4 4 9z" style="stroke:#ffaf37;stroke-width:2"/><path fill="none" d="M2023.5 495.52v100.3m-7-100.43 7-20 7 20h-14zm-46 1014.86v111.55" style="stroke:#ffaf37;stroke-width:2"/><path fill="#FFAF37" d="m1970.5 1626.98 4-9-4 4-4-4 4 9z" style="stroke:#ffaf37;stroke-width:2"/><path fill="none" d="M2023.5 656.34v100.39m-7-100.64 7-20 7 20h-14zm208.06 354.12c30.13 18.85 61.1 38.21 90.93 56.86" style="stroke:#ffaf37;stroke-width:2"/><path fill="#FFAF37" d="m2319.88 1069.82-5.524-8.154 1.28 5.51-5.51 1.28 9.754 1.364z" style="stroke:#ffaf37;stroke-width:2"/><path fill="none" d="M1874.91 1010.21c-52.06 44.05-107.48 90.94-147.62 124.9" style="stroke:#ffaf37;stroke-width:2"/><path fill="#FFAF37" d="m1723.45 1138.35 9.454-2.761-5.638-.47.47-5.637-4.286 8.868z" style="stroke:#ffaf37;stroke-width:2"/><path fill="none" d="M1668.81 983.5c-168.59 47.06-364.34 101.7-508.88 142.04" style="stroke:#ffaf37;stroke-width:2"/><path fill="#FFAF37" d="m1154.81 1126.97 9.744 1.435-4.928-2.778 2.778-4.928-7.594 6.271z" style="stroke:#ffaf37;stroke-width:2"/><path fill="none" d="M2378.18 947.47c347.15 61.63 862.97 153.2 1139.93 202.37" style="stroke:#ffaf37;stroke-width:2"/><path fill="#FFAF37" d="m3523.38 1150.78-8.15-5.529 3.229 4.645-4.645 3.229 9.566-2.345z" style="stroke:#ffaf37;stroke-width:2"/><path fill="none" d="M893.31 1243.29c-42.55 42.63-100.92 101.11-146.68 146.95" style="stroke:#ffaf37;stroke-width:2"/><path fill="#FFAF37" d="m743.08 1393.79 9.192-3.535h-5.657v-5.657l-3.535 9.192z" style="stroke:#ffaf37;stroke-width:2"/><path fill="none" d="M987.8 1243.29c27.58 42.37 65.36 100.41 95.12 146.12" style="stroke:#ffaf37;stroke-width:2"/><path fill="#FFAF37" d="m1085.77 1393.79-1.564-9.724-1.166 5.535-5.536-1.166 8.266 5.355z" style="stroke:#ffaf37;stroke-width:2"/><path fill="none" d="M779.09 1243.03c-95.33 32.58-215.75 75.18-321.59 116.97-42.81 16.91-89.37 36.95-129.6 54.81" style="stroke:#ffaf37;stroke-width:2"/><path fill="#FFAF37" d="m323.03 1416.98 9.849-.032-5.287-2.013 2.014-5.286-6.576 7.331z" style="stroke:#ffaf37;stroke-width:2"/><path fill="none" d="M1655.63 1231.66c-15.08 49.63-39.11 128.72-54.75 180.22" style="stroke:#ffaf37;stroke-width:2"/><path fill="#FFAF37" d="m1599.39 1416.77 6.448-7.445-4.992 2.662-2.661-4.992 1.205 9.775z" style="stroke:#ffaf37;stroke-width:2"/><path fill="none" d="M2265.26 1296.07c-41.92 20.57-84.88 42.39-124.76 63.93-30.94 16.72-64.22 36.39-93.07 54.01" style="stroke:#ffaf37;stroke-width:2"/><path fill="#FFAF37" d="m2042.84 1416.82 9.763-1.301-5.502-1.315 1.315-5.502-5.576 8.118z" style="stroke:#ffaf37;stroke-width:2"/><path fill="none" d="M2588.3 1300.06c29.56 39.29 61.14 81.28 84.8 112.72" style="stroke:#ffaf37;stroke-width:2"/><path fill="#FFAF37" d="m2676.23 1416.95-2.2-9.6-.8 5.6-5.6-.8 8.6 4.8z" style="stroke:#ffaf37;stroke-width:2"/><path fill="none" d="M2739.53 1273.64c74.57 27.6 157.22 58.22 232.97 86.36 37.83 14.05 78.57 29.22 116.8 43.47" style="stroke:#ffaf37;stroke-width:2"/><path fill="#FFAF37" d="m3094.43 1405.38-7.023-6.905 2.341 5.15-5.15 2.34 9.832-.585z" style="stroke:#ffaf37;stroke-width:2"/><path fill="none" d="M2739.74 1213.39c208.53 27.15 519 75.12 782.76 146.61 4.11 1.11 8.25 2.27 12.41 3.45" style="stroke:#ffaf37;stroke-width:2"/><path fill="#FFAF37" d="m3539.8 1364.86-7.537-6.34 2.733 4.953-4.952 2.734 9.756-1.347z" style="stroke:#ffaf37;stroke-width:2"/><path fill="none" d="M2416.7 1300.06c-29.56 39.29-61.14 81.28-84.8 112.72" style="stroke:#ffaf37;stroke-width:2"/><path fill="#FFAF37" d="m2328.77 1416.95 8.6-4.8-5.6.8-.8-5.6-2.2 9.6z" style="stroke:#ffaf37;stroke-width:2"/><path fill="none" d="M3247.5 1521.6v122.48" style="stroke:#ffaf37;stroke-width:2"/><path fill="#FFAF37" d="m3247.5 1649.44 4-9-4 4-4-4 4 9z" style="stroke:#ffaf37;stroke-width:2"/><path fill="none" d="M3794.5 1567.18v66.04" style="stroke:#ffaf37;stroke-width:2"/><path fill="#FFAF37" d="m3794.5 1638.42 4-9-4 4-4-4 4 9z" style="stroke:#ffaf37;stroke-width:2"/><path fill="none" d="M3807.12 1231.57c71.98 34.35 172.44 83.14 259.38 128.43 33.06 17.22 68.98 36.9 100.31 54.38" style="stroke:#ffaf37;stroke-width:2"/><path fill="#FFAF37" d="m4171.4 1416.94-5.914-7.876 1.547 5.442-5.442 1.546 9.809.888z" style="stroke:#ffaf37;stroke-width:2"/></svg>