<svg xmlns="http://www.w3.org/2000/svg" xmlns:xlink="http://www.w3.org/1999/xlink" width="5000" height="552" preserveAspectRatio="none" style="width:5000px;height:552px;background:#00000000"><a xlink:actuate="onRequest" xlink:href="#a" xlink:show="new" xlink:title="#aws_sagemaker_inference_recommendations_job" xlink:type="simple" target="_top"><rect id="a" width="457" height="39.789" x="2477.64" y="207" fill="#3D176E" rx="2.5" ry="2.5" style="stroke:#000d19;stroke-width:1.5"/><circle cx="2492.64" cy="226.894" r="11" fill="#E98DF7" style="stroke:#000d19;stroke-width:1"/><path d="M2495.609 232.535q-.578.297-1.219.438-.64.156-1.344.156-2.5 0-3.828-1.64-1.312-1.657-1.312-4.782t1.312-4.781q1.328-1.656 3.828-1.656.703 0 1.344.156.656.156 1.219.453v2.719q-.625-.579-1.219-.844-.594-.281-1.219-.281-1.343 0-2.031 1.078-.688 1.062-.688 3.156 0 2.094.688 3.172.688 1.062 2.031 1.062.625 0 1.219-.265.594-.281 1.219-.86v2.72Z"/><text x="2511.64" y="232.78" fill="#D9B8FF" font-family="Helvetica" font-size="17" textLength="415">aws_sagemaker_inference_recommendations_job</text></a><a xlink:actuate="onRequest" xlink:href="#b" xlink:show="new" xlink:title="#aws_ecs_service" xlink:type="simple" target="_top"><rect id="b" width="177" height="39.789" x="2969.64" y="207" fill="#3D176E" rx="2.5" ry="2.5" style="stroke:#000d19;stroke-width:1.5"/><circle cx="2984.64" cy="226.894" r="11" fill="#E98DF7" style="stroke:#000d19;stroke-width:1"/><path d="M2987.609 232.535q-.578.297-1.219.438-.64.156-1.344.156-2.5 0-3.828-1.64-1.312-1.657-1.312-4.782t1.312-4.781q1.328-1.656 3.828-1.656.703 0 1.344.156.656.156 1.219.453v2.719q-.625-.579-1.219-.844-.594-.281-1.219-.281-1.343 0-2.031 1.078-.688 1.062-.688 3.156 0 2.094.688 3.172.688 1.062 2.031 1.062.625 0 1.219-.265.594-.281 1.219-.86v2.72Z"/><text x="3003.64" y="232.78" fill="#D9B8FF" font-family="Helvetica" font-size="17" textLength="135">aws_ecs_service</text></a><a xlink:actuate="onRequest" xlink:href="#c" xlink:show="new" xlink:title="#aws_sagemaker_labeling_job" xlink:type="simple" target="_top"><rect id="c" width="285" height="39.789" x="337.64" y="307" fill="#3D176E" rx="2.5" ry="2.5" style="stroke:#000d19;stroke-width:1.5"/><circle cx="352.64" cy="326.894" r="11" fill="#E98DF7" style="stroke:#000d19;stroke-width:1"/><path d="M355.609 332.535q-.578.297-1.219.438-.64.156-1.344.156-2.5 0-3.828-1.64-1.312-1.657-1.312-4.782t1.312-4.781q1.328-1.656 3.828-1.656.703 0 1.344.156.656.156 1.219.453v2.719q-.625-.579-1.219-.844-.594-.281-1.219-.281-1.344 0-2.031 1.078-.688 1.062-.688 3.156 0 2.094.688 3.172.688 1.062 2.031 1.062.625 0 1.219-.265.594-.281 1.219-.86v2.72Z"/><text x="371.64" y="332.78" fill="#D9B8FF" font-family="Helvetica" font-size="17" textLength="243">aws_sagemaker_labeling_job</text></a><a xlink:actuate="onRequest" xlink:href="#d" xlink:show="new" xlink:title="#aws_sagemaker_training_job" xlink:type="simple" target="_top"><rect id="d" width="285" height="39.789" x="3343.64" y="407" fill="#3D176E" rx="2.5" ry="2.5" style="stroke:#000d19;stroke-width:1.5"/><circle cx="3358.64" cy="426.894" r="11" fill="#E98DF7" style="stroke:#000d19;stroke-width:1"/><path d="M3361.609 432.535q-.578.297-1.219.438-.64.156-1.344.156-2.5 0-3.828-1.64-1.312-1.657-1.312-4.782t1.312-4.781q1.328-1.656 3.828-1.656.703 0 1.344.156.656.156 1.219.453v2.719q-.625-.579-1.219-.844-.594-.281-1.219-.281-1.343 0-2.031 1.078-.688 1.062-.688 3.156 0 2.094.688 3.172.688 1.062 2.031 1.062.625 0 1.219-.265.594-.281 1.219-.86v2.72Z"/><text x="3377.64" y="432.78" fill="#D9B8FF" font-family="Helvetica" font-size="17" textLength="243">aws_sagemaker_training_job</text></a><a xlink:actuate="onRequest" xlink:href="#e" xlink:show="new" xlink:title="#aws_sagemaker_processing_job" xlink:type="simple" target="_top"><rect id="e" width="306" height="39.789" x="3878.14" y="307" fill="#3D176E" rx="2.5" ry="2.5" style="stroke:#000d19;stroke-width:1.5"/><circle cx="3893.14" cy="326.894" r="11" fill="#E98DF7" style="stroke:#000d19;stroke-width:1"/><path d="M3896.109 332.535q-.578.297-1.219.438-.64.156-1.344.156-2.5 0-3.828-1.64-1.312-1.657-1.312-4.782t1.312-4.781q1.328-1.656 3.828-1.656.703 0 1.344.156.656.156 1.219.453v2.719q-.625-.579-1.219-.844-.594-.281-1.219-.281-1.343 0-2.031 1.078-.688 1.062-.688 3.156 0 2.094.688 3.172.688 1.062 2.031 1.062.625 0 1.219-.265.594-.281 1.219-.86v2.72Z"/><text x="3912.14" y="332.78" fill="#D9B8FF" font-family="Helvetica" font-size="17" textLength="264">aws_sagemaker_processing_job</text></a><a xlink:actuate="onRequest" xlink:href="#f" xlink:show="new" xlink:title="#aws_sagemaker_notebook" xlink:type="simple" target="_top"><rect id="f" width="263" height="39.789" x="245.64" y="207" fill="#3D176E" rx="2.5" ry="2.5" style="stroke:#000d19;stroke-width:1.5"/><circle cx="260.64" cy="226.894" r="11" fill="#E98DF7" style="stroke:#000d19;stroke-width:1"/><path d="M263.609 232.535q-.578.297-1.219.438-.64.156-1.344.156-2.5 0-3.828-1.64-1.312-1.657-1.312-4.782t1.312-4.781q1.328-1.656 3.828-1.656.703 0 1.344.156.656.156 1.219.453v2.719q-.625-.579-1.219-.844-.594-.281-1.219-.281-1.344 0-2.031 1.078-.688 1.062-.688 3.156 0 2.094.688 3.172.688 1.062 2.031 1.062.625 0 1.219-.265.594-.281 1.219-.86v2.72Z"/><text x="279.64" y="232.78" fill="#D9B8FF" font-family="Helvetica" font-size="17" textLength="221">aws_sagemaker_notebook</text></a><a xlink:actuate="onRequest" xlink:href="#g" xlink:show="new" xlink:title="#aws_sagemaker_image" xlink:type="simple" target="_top"><rect id="g" width="237" height="39.789" x="1408.64" y="307" fill="#3D176E" rx="2.5" ry="2.5" style="stroke:#000d19;stroke-width:1.5"/><circle cx="1423.64" cy="326.894" r="11" fill="#E98DF7" style="stroke:#000d19;stroke-width:1"/><path d="M1426.609 332.535q-.578.297-1.219.438-.64.156-1.344.156-2.5 0-3.828-1.64-1.312-1.657-1.312-4.782t1.312-4.781q1.328-1.656 3.828-1.656.703 0 1.344.156.656.156 1.219.453v2.719q-.625-.579-1.219-.844-.594-.281-1.219-.281-1.343 0-2.031 1.078-.688 1.062-.688 3.156 0 2.094.688 3.172.688 1.062 2.031 1.062.625 0 1.219-.265.594-.281 1.219-.86v2.72Z"/><text x="1442.64" y="332.78" fill="#D9B8FF" font-family="Helvetica" font-size="17" textLength="195">aws_sagemaker_image</text></a><a xlink:actuate="onRequest" xlink:href="#h" xlink:show="new" xlink:title="#aws_sagemaker_model" xlink:type="simple" target="_top"><rect id="h" width="237" height="39.789" x="543.64" y="207" fill="#3D176E" rx="2.5" ry="2.5" style="stroke:#000d19;stroke-width:1.5"/><circle cx="558.64" cy="226.894" r="11" fill="#E98DF7" style="stroke:#000d19;stroke-width:1"/><path d="M561.609 232.535q-.578.297-1.219.438-.64.156-1.344.156-2.5 0-3.828-1.64-1.312-1.657-1.312-4.782t1.312-4.781q1.328-1.656 3.828-1.656.703 0 1.344.156.656.156 1.219.453v2.719q-.625-.579-1.219-.844-.594-.281-1.219-.281-1.344 0-2.031 1.078-.688 1.062-.688 3.156 0 2.094.688 3.172.688 1.062 2.031 1.062.625 0 1.219-.265.594-.281 1.219-.86v2.72Z"/><text x="577.64" y="232.78" fill="#D9B8FF" font-family="Helvetica" font-size="17" textLength="195">aws_sagemaker_model</text></a><a xlink:actuate="onRequest" xlink:href="#i" xlink:show="new" xlink:title="#aws_sagemaker_edge_packaging_job" xlink:type="simple" target="_top"><rect id="i" width="352" height="39.789" x="658.14" y="307" fill="#3D176E" rx="2.5" ry="2.5" style="stroke:#000d19;stroke-width:1.5"/><circle cx="673.14" cy="326.894" r="11" fill="#E98DF7" style="stroke:#000d19;stroke-width:1"/><path d="M676.109 332.535q-.578.297-1.219.438-.64.156-1.344.156-2.5 0-3.828-1.64-1.312-1.657-1.312-4.782t1.312-4.781q1.328-1.656 3.828-1.656.703 0 1.344.156.656.156 1.219.453v2.719q-.625-.579-1.219-.844-.594-.281-1.219-.281-1.344 0-2.031 1.078-.688 1.062-.688 3.156 0 2.094.688 3.172.688 1.062 2.031 1.062.625 0 1.219-.265.594-.281 1.219-.86v2.72Z"/><text x="692.14" y="332.78" fill="#D9B8FF" font-family="Helvetica" font-size="17" textLength="310">aws_sagemaker_edge_packaging_job</text></a><a xlink:actuate="onRequest" xlink:href="#j" xlink:show="new" xlink:title="#aws_cognito_group" xlink:type="simple" target="_top"><rect id="j" width="202" height="39.789" x="958.14" y="207" fill="#3D176E" rx="2.5" ry="2.5" style="stroke:#000d19;stroke-width:1.5"/><circle cx="973.14" cy="226.894" r="11" fill="#E98DF7" style="stroke:#000d19;stroke-width:1"/><path d="M976.109 232.535q-.578.297-1.219.438-.64.156-1.344.156-2.5 0-3.828-1.64-1.312-1.657-1.312-4.782t1.312-4.781q1.328-1.656 3.828-1.656.703 0 1.344.156.656.156 1.219.453v2.719q-.625-.579-1.219-.844-.594-.281-1.219-.281-1.344 0-2.031 1.078-.688 1.062-.688 3.156 0 2.094.688 3.172.688 1.062 2.031 1.062.625 0 1.219-.265.594-.281 1.219-.86v2.72Z"/><text x="992.14" y="232.78" fill="#D9B8FF" font-family="Helvetica" font-size="17" textLength="160">aws_cognito_group</text></a><a xlink:actuate="onRequest" xlink:href="#k" xlink:show="new" xlink:title="#aws_sagemaker_hyper_parameter_tuning_job" xlink:type="simple" target="_top"><rect id="k" width="428" height="39.789" x="3139.14" y="307" fill="#3D176E" rx="2.5" ry="2.5" style="stroke:#000d19;stroke-width:1.5"/><circle cx="3154.14" cy="326.894" r="11" fill="#E98DF7" style="stroke:#000d19;stroke-width:1"/><path d="M3157.109 332.535q-.578.297-1.219.438-.64.156-1.344.156-2.5 0-3.828-1.64-1.312-1.657-1.312-4.782t1.312-4.781q1.328-1.656 3.828-1.656.703 0 1.344.156.656.156 1.219.453v2.719q-.625-.579-1.219-.844-.594-.281-1.219-.281-1.343 0-2.031 1.078-.688 1.062-.688 3.156 0 2.094.688 3.172.688 1.062 2.031 1.062.625 0 1.219-.265.594-.281 1.219-.86v2.72Z"/><text x="3173.14" y="332.78" fill="#D9B8FF" font-family="Helvetica" font-size="17" textLength="386">aws_sagemaker_hyper_parameter_tuning_job</text></a><a xlink:actuate="onRequest" xlink:href="#l" xlink:show="new" xlink:title="#aws_iam_policy" xlink:type="simple" target="_top"><rect id="l" width="173" height="39.789" x="4316.64" y="207" fill="#3D176E" rx="2.5" ry="2.5" style="stroke:#000d19;stroke-width:1.5"/><circle cx="4331.64" cy="226.894" r="11" fill="#E98DF7" style="stroke:#000d19;stroke-width:1"/><path d="M4334.609 232.535q-.578.297-1.219.438-.64.156-1.344.156-2.5 0-3.828-1.64-1.312-1.657-1.312-4.782t1.312-4.781q1.328-1.656 3.828-1.656.703 0 1.344.156.656.156 1.219.453v2.719q-.625-.579-1.219-.844-.594-.281-1.219-.281-1.343 0-2.031 1.078-.688 1.062-.688 3.156 0 2.094.688 3.172.688 1.062 2.031 1.062.625 0 1.219-.265.594-.281 1.219-.86v2.72Z"/><text x="4350.64" y="232.78" fill="#D9B8FF" font-family="Helvetica" font-size="17" textLength="131">aws_iam_policy</text></a><a xlink:actuate="onRequest" xlink:href="#m" xlink:show="new" xlink:title="#aws_redshift_cluster" xlink:type="simple" target="_top"><rect id="m" width="213" height="39.789" x="3996.64" y="207" fill="#3D176E" rx="2.5" ry="2.5" style="stroke:#000d19;stroke-width:1.5"/><circle cx="4011.64" cy="226.894" r="11" fill="#E98DF7" style="stroke:#000d19;stroke-width:1"/><path d="M4014.609 232.535q-.578.297-1.219.438-.64.156-1.344.156-2.5 0-3.828-1.64-1.312-1.657-1.312-4.782t1.312-4.781q1.328-1.656 3.828-1.656.703 0 1.344.156.656.156 1.219.453v2.719q-.625-.579-1.219-.844-.594-.281-1.219-.281-1.343 0-2.031 1.078-.688 1.062-.688 3.156 0 2.094.688 3.172.688 1.062 2.031 1.062.625 0 1.219-.265.594-.281 1.219-.86v2.72Z"/><text x="4030.64" y="232.78" fill="#D9B8FF" font-family="Helvetica" font-size="17" textLength="171">aws_redshift_cluster</text></a><a xlink:actuate="onRequest" xlink:href="#n" xlink:show="new" xlink:title="#aws_sagemaker_domain" xlink:type="simple" target="_top"><rect id="n" width="248" height="39.789" x="1868.14" y="207" fill="#3D176E" rx="2.5" ry="2.5" style="stroke:#000d19;stroke-width:1.5"/><circle cx="1883.14" cy="226.894" r="11" fill="#E98DF7" style="stroke:#000d19;stroke-width:1"/><path d="M1886.109 232.535q-.578.297-1.219.438-.64.156-1.344.156-2.5 0-3.828-1.64-1.312-1.657-1.312-4.782t1.312-4.781q1.328-1.656 3.828-1.656.703 0 1.344.156.656.156 1.219.453v2.719q-.625-.579-1.219-.844-.594-.281-1.219-.281-1.343 0-2.031 1.078-.688 1.062-.688 3.156 0 2.094.688 3.172.688 1.062 2.031 1.062.625 0 1.219-.265.594-.281 1.219-.86v2.72Z"/><text x="1902.14" y="232.78" fill="#D9B8FF" font-family="Helvetica" font-size="17" textLength="206">aws_sagemaker_domain</text></a><a xlink:actuate="onRequest" xlink:href="#o" xlink:show="new" xlink:title="#aws_sagemaker_pipeline" xlink:type="simple" target="_top"><rect id="o" width="251" height="39.789" x="1954.64" y="307" fill="#3D176E" rx="2.5" ry="2.5" style="stroke:#000d19;stroke-width:1.5"/><circle cx="1969.64" cy="326.894" r="11" fill="#E98DF7" style="stroke:#000d19;stroke-width:1"/><path d="M1972.609 332.535q-.578.297-1.219.438-.64.156-1.344.156-2.5 0-3.828-1.64-1.312-1.657-1.312-4.782t1.312-4.781q1.328-1.656 3.828-1.656.703 0 1.344.156.656.156 1.219.453v2.719q-.625-.579-1.219-.844-.594-.281-1.219-.281-1.343 0-2.031 1.078-.688 1.062-.688 3.156 0 2.094.688 3.172.688 1.062 2.031 1.062.625 0 1.219-.265.594-.281 1.219-.86v2.72Z"/><text x="1988.64" y="332.78" fill="#D9B8FF" font-family="Helvetica" font-size="17" textLength="209">aws_sagemaker_pipeline</text></a><a xlink:actuate="onRequest" xlink:href="#p" xlink:show="new" xlink:title="#aws_region" xlink:type="simple" target="_top"><rect id="p" width="137" height="39.789" x="4404.64" y="7" fill="#3D176E" rx="2.5" ry="2.5" style="stroke:#000d19;stroke-width:1.5"/><circle cx="4419.64" cy="26.895" r="11" fill="#E98DF7" style="stroke:#000d19;stroke-width:1"/><path d="M4422.609 32.535q-.578.297-1.219.438-.64.156-1.344.156-2.5 0-3.828-1.64-1.312-1.657-1.312-4.782t1.312-4.781q1.328-1.656 3.828-1.656.703 0 1.344.156.656.156 1.219.453v2.719q-.625-.578-1.219-.844-.594-.281-1.219-.281-1.343 0-2.031 1.078-.688 1.062-.688 3.156 0 2.094.688 3.172.688 1.062 2.031 1.062.625 0 1.219-.265.594-.281 1.219-.86v2.72Z"/><text x="4438.64" y="32.78" fill="#D9B8FF" font-family="Helvetica" font-size="17" textLength="95">aws_region</text></a><a xlink:actuate="onRequest" xlink:href="#q" xlink:show="new" xlink:title="#aws_iam_role" xlink:type="simple" target="_top"><rect id="q" width="157" height="39.789" x="2627.64" y="107" fill="#3D176E" rx="2.5" ry="2.5" style="stroke:#000d19;stroke-width:1.5"/><circle cx="2642.64" cy="126.894" r="11" fill="#E98DF7" style="stroke:#000d19;stroke-width:1"/><path d="M2645.609 132.535q-.578.297-1.219.438-.64.156-1.344.156-2.5 0-3.828-1.64-1.312-1.657-1.312-4.782t1.312-4.781q1.328-1.657 3.828-1.657.703 0 1.344.157.656.156 1.219.453v2.719q-.625-.579-1.219-.844-.594-.281-1.219-.281-1.343 0-2.031 1.078-.688 1.062-.688 3.156 0 2.094.688 3.172.688 1.062 2.031 1.062.625 0 1.219-.265.594-.281 1.219-.86v2.72Z"/><text x="2661.64" y="132.78" fill="#D9B8FF" font-family="Helvetica" font-size="17" textLength="115">aws_iam_role</text></a><a xlink:actuate="onRequest" xlink:href="#r" xlink:show="new" xlink:title="#aws_eks_cluster" xlink:type="simple" target="_top"><rect id="r" width="177" height="39.789" x="4524.64" y="207" fill="#3D176E" rx="2.5" ry="2.5" style="stroke:#000d19;stroke-width:1.5"/><circle cx="4539.64" cy="226.894" r="11" fill="#E98DF7" style="stroke:#000d19;stroke-width:1"/><path d="M4542.609 232.535q-.578.297-1.219.438-.64.156-1.344.156-2.5 0-3.828-1.64-1.312-1.657-1.312-4.782t1.312-4.781q1.328-1.656 3.828-1.656.703 0 1.344.156.656.156 1.219.453v2.719q-.625-.579-1.219-.844-.594-.281-1.219-.281-1.343 0-2.031 1.078-.688 1.062-.688 3.156 0 2.094.688 3.172.688 1.062 2.031 1.062.625 0 1.219-.265.594-.281 1.219-.86v2.72Z"/><text x="4558.64" y="232.78" fill="#D9B8FF" font-family="Helvetica" font-size="17" textLength="135">aws_eks_cluster</text></a><a xlink:actuate="onRequest" xlink:href="#s" xlink:show="new" xlink:title="#aws_iam_instance_profile" xlink:type="simple" target="_top"><rect id="s" width="257" height="39.789" x="4736.64" y="207" fill="#3D176E" rx="2.5" ry="2.5" style="stroke:#000d19;stroke-width:1.5"/><circle cx="4751.64" cy="226.894" r="11" fill="#E98DF7" style="stroke:#000d19;stroke-width:1"/><path d="M4754.609 232.535q-.578.297-1.219.438-.64.156-1.344.156-2.5 0-3.828-1.64-1.312-1.657-1.312-4.782t1.312-4.781q1.328-1.656 3.828-1.656.703 0 1.344.156.656.156 1.219.453v2.719q-.625-.579-1.219-.844-.594-.281-1.219-.281-1.343 0-2.031 1.078-.688 1.062-.688 3.156 0 2.094.688 3.172.688 1.062 2.031 1.062.625 0 1.219-.265.594-.281 1.219-.86v2.72Z"/><text x="4770.64" y="232.78" fill="#D9B8FF" font-family="Helvetica" font-size="17" textLength="215">aws_iam_instance_profile</text></a><a xlink:actuate="onRequest" xlink:href="#t" xlink:show="new" xlink:title="#aws_sagemaker_algorithm" xlink:type="simple" target="_top"><rect id="t" width="267" height="39.789" x="1603.64" y="507" fill="#3D176E" rx="2.5" ry="2.5" style="stroke:#000d19;stroke-width:1.5"/><circle cx="1618.64" cy="526.894" r="11" fill="#E98DF7" style="stroke:#000d19;stroke-width:1"/><path d="M1621.609 532.535q-.578.297-1.219.438-.64.156-1.344.156-2.5 0-3.828-1.64-1.312-1.657-1.312-4.782t1.312-4.781q1.328-1.657 3.828-1.657.703 0 1.344.157.656.156 1.219.453v2.719q-.625-.578-1.219-.844-.594-.281-1.219-.281-1.343 0-2.031 1.078-.688 1.062-.688 3.156 0 2.094.688 3.172.688 1.062 2.031 1.062.625 0 1.219-.265.594-.282 1.219-.86v2.72Z"/><text x="1637.64" y="532.78" fill="#D9B8FF" font-family="Helvetica" font-size="17" textLength="225">aws_sagemaker_algorithm</text></a><a xlink:actuate="onRequest" xlink:href="#u" xlink:show="new" xlink:title="#aws_api_gateway_authorizer" xlink:type="simple" target="_top"><rect id="u" width="285" height="39.789" x="1195.64" y="207" fill="#3D176E" rx="2.5" ry="2.5" style="stroke:#000d19;stroke-width:1.5"/><circle cx="1210.64" cy="226.894" r="11" fill="#E98DF7" style="stroke:#000d19;stroke-width:1"/><path d="M1213.609 232.535q-.578.297-1.219.438-.64.156-1.344.156-2.5 0-3.828-1.64-1.312-1.657-1.312-4.782t1.312-4.781q1.328-1.656 3.828-1.656.703 0 1.344.156.656.156 1.219.453v2.719q-.625-.579-1.219-.844-.594-.281-1.219-.281-1.343 0-2.031 1.078-.688 1.062-.688 3.156 0 2.094.688 3.172.688 1.062 2.031 1.062.625 0 1.219-.265.594-.281 1.219-.86v2.72Z"/><text x="1229.64" y="232.78" fill="#D9B8FF" font-family="Helvetica" font-size="17" textLength="243">aws_api_gateway_authorizer</text></a><a xlink:actuate="onRequest" xlink:href="#v" xlink:show="new" xlink:title="#aws_sagemaker_auto_ml_job" xlink:type="simple" target="_top"><rect id="v" width="288" height="39.789" x="3673.14" y="207" fill="#3D176E" rx="2.5" ry="2.5" style="stroke:#000d19;stroke-width:1.5"/><circle cx="3688.14" cy="226.894" r="11" fill="#E98DF7" style="stroke:#000d19;stroke-width:1"/><path d="M3691.109 232.535q-.578.297-1.219.438-.64.156-1.344.156-2.5 0-3.828-1.64-1.312-1.657-1.312-4.782t1.312-4.781q1.328-1.656 3.828-1.656.703 0 1.344.156.656.156 1.219.453v2.719q-.625-.579-1.219-.844-.594-.281-1.219-.281-1.343 0-2.031 1.078-.688 1.062-.688 3.156 0 2.094.688 3.172.688 1.062 2.031 1.062.625 0 1.219-.265.594-.281 1.219-.86v2.72Z"/><text x="3707.14" y="232.78" fill="#D9B8FF" font-family="Helvetica" font-size="17" textLength="246">aws_sagemaker_auto_ml_job</text></a><a xlink:actuate="onRequest" xlink:href="#w" xlink:show="new" xlink:title="#aws_sagemaker_compilation_job" xlink:type="simple" target="_top"><rect id="w" width="317" height="39.789" x="1515.64" y="207" fill="#3D176E" rx="2.5" ry="2.5" style="stroke:#000d19;stroke-width:1.5"/><circle cx="1530.64" cy="226.894" r="11" fill="#E98DF7" style="stroke:#000d19;stroke-width:1"/><path d="M1533.609 232.535q-.578.297-1.219.438-.64.156-1.344.156-2.5 0-3.828-1.64-1.312-1.657-1.312-4.782t1.312-4.781q1.328-1.656 3.828-1.656.703 0 1.344.156.656.156 1.219.453v2.719q-.625-.579-1.219-.844-.594-.281-1.219-.281-1.343 0-2.031 1.078-.688 1.062-.688 3.156 0 2.094.688 3.172.688 1.062 2.031 1.062.625 0 1.219-.265.594-.281 1.219-.86v2.72Z"/><text x="1549.64" y="232.78" fill="#D9B8FF" font-family="Helvetica" font-size="17" textLength="275">aws_sagemaker_compilation_job</text></a><a xlink:actuate="onRequest" xlink:href="#x" xlink:show="new" xlink:title="#aws_ecs_task" xlink:type="simple" target="_top"><rect id="x" width="154" height="39.789" x="2950.14" y="307" fill="#3D176E" rx="2.5" ry="2.5" style="stroke:#000d19;stroke-width:1.5"/><circle cx="2965.14" cy="326.894" r="11" fill="#E98DF7" style="stroke:#000d19;stroke-width:1"/><path d="M2968.109 332.535q-.578.297-1.219.438-.64.156-1.344.156-2.5 0-3.828-1.64-1.312-1.657-1.312-4.782t1.312-4.781q1.328-1.656 3.828-1.656.703 0 1.344.156.656.156 1.219.453v2.719q-.625-.579-1.219-.844-.594-.281-1.219-.281-1.343 0-2.031 1.078-.688 1.062-.688 3.156 0 2.094.688 3.172.688 1.062 2.031 1.062.625 0 1.219-.265.594-.281 1.219-.86v2.72Z"/><text x="2984.14" y="332.78" fill="#D9B8FF" font-family="Helvetica" font-size="17" textLength="112">aws_ecs_task</text></a><a xlink:actuate="onRequest" xlink:href="#y" xlink:show="new" xlink:title="#aws_sns_subscription" xlink:type="simple" target="_top"><rect id="y" width="220" height="39.789" x="2222.14" y="207" fill="#3D176E" rx="2.5" ry="2.5" style="stroke:#000d19;stroke-width:1.5"/><circle cx="2237.14" cy="226.894" r="11" fill="#E98DF7" style="stroke:#000d19;stroke-width:1"/><path d="M2240.109 232.535q-.578.297-1.219.438-.64.156-1.344.156-2.5 0-3.828-1.64-1.312-1.657-1.312-4.782t1.312-4.781q1.328-1.656 3.828-1.656.703 0 1.344.156.656.156 1.219.453v2.719q-.625-.579-1.219-.844-.594-.281-1.219-.281-1.343 0-2.031 1.078-.688 1.062-.688 3.156 0 2.094.688 3.172.688 1.062 2.031 1.062.625 0 1.219-.265.594-.281 1.219-.86v2.72Z"/><text x="2256.14" y="232.78" fill="#D9B8FF" font-family="Helvetica" font-size="17" textLength="178">aws_sns_subscription</text></a><a xlink:actuate="onRequest" xlink:href="#z" xlink:show="new" xlink:title="#aws_ecs_task_definition" xlink:type="simple" target="_top"><rect id="z" width="243" height="39.789" x="3181.64" y="207" fill="#3D176E" rx="2.5" ry="2.5" style="stroke:#000d19;stroke-width:1.5"/><circle cx="3196.64" cy="226.894" r="11" fill="#E98DF7" style="stroke:#000d19;stroke-width:1"/><path d="M3199.609 232.535q-.578.297-1.219.438-.64.156-1.344.156-2.5 0-3.828-1.64-1.312-1.657-1.312-4.782t1.312-4.781q1.328-1.656 3.828-1.656.703 0 1.344.156.656.156 1.219.453v2.719q-.625-.579-1.219-.844-.594-.281-1.219-.281-1.343 0-2.031 1.078-.688 1.062-.688 3.156 0 2.094.688 3.172.688 1.062 2.031 1.062.625 0 1.219-.265.594-.281 1.219-.86v2.72Z"/><text x="3215.64" y="232.78" fill="#D9B8FF" font-family="Helvetica" font-size="17" textLength="201">aws_ecs_task_definition</text></a><path fill="none" d="M622.7 345.59c5.89.52 11.72.99 17.44 1.41 1030.63 75.34 2276.02 80.31 2698.02 79.6" style="stroke:#1a83af;stroke-width:2"/><path fill="#1A83AF" d="m3343.39 426.6-9-4 4 4-4 4 9-4z" style="stroke:#1a83af;stroke-width:2"/><path fill="none" d="M3343.38 436c-329.8 18.48-1141.29 63.95-1467.32 82.22" style="stroke:#1a83af;stroke-width:2"/><path fill="#1A83AF" d="m1870.82 518.51 9.204 3.506-4.211-3.777 3.777-4.211-8.77 4.482z" style="stroke:#1a83af;stroke-width:2"/><path fill="none" d="M3925.41 347.01c-94.43 16.98-232.26 41.77-328.26 59.03" style="stroke:#1a83af;stroke-width:2"/><path fill="#1A83AF" d="m3592.03 406.96 9.566 2.345-4.645-3.23 3.23-4.644-8.151 5.529z" style="stroke:#1a83af;stroke-width:2"/><path fill="none" d="M695.71 247.13c28.88 16.46 70.53 40.19 100.59 57.31" style="stroke:#1a83af;stroke-width:2"/><path fill="#1A83AF" d="m800.65 306.92-5.855-7.92 1.506 5.453-5.453 1.506 9.802.961z" style="stroke:#1a83af;stroke-width:2"/><path fill="none" d="M626.61 247.13c-30.56 16.46-74.63 40.19-106.44 57.31" style="stroke:#1a83af;stroke-width:2"/><path fill="#1A83AF" d="m515.57 306.92 9.82-.749-5.419-1.623 1.624-5.42-6.025 7.792z" style="stroke:#1a83af;stroke-width:2"/><path fill="none" d="M3379.1 347.13c22.06 16.25 53.75 39.6 76.92 56.68" style="stroke:#1a83af;stroke-width:2"/><path fill="#1A83AF" d="m3460.24 406.92-4.874-8.558.848 5.592-5.593.849 9.619 2.117z" style="stroke:#1a83af;stroke-width:2"/><path fill="none" d="M4088.91 247.36c-11.64 15.84-28.13 38.3-40.52 55.16" style="stroke:#1a83af;stroke-width:2"/><path fill="#1A83AF" d="m4045.33 306.68 8.561-4.869-5.593.845-.845-5.593-2.123 9.617z" style="stroke:#1a83af;stroke-width:2"/><path fill="none" d="M2009.52 247.36c14.34 15.97 34.73 38.68 49.91 55.59" style="stroke:#1a83af;stroke-width:2"/><path fill="#1A83AF" d="m2062.79 306.68-3.03-9.371-.308 5.648-5.648-.308 8.986 4.031z" style="stroke:#1a83af;stroke-width:2"/><path fill="none" d="M1901.93 247.01c-80.25 16.91-197.23 41.57-279.1 58.82" style="stroke:#1a83af;stroke-width:2"/><path fill="#1A83AF" d="m1617.49 306.96 9.63 2.066-4.737-3.093 3.093-4.737-7.986 5.764z" style="stroke:#1a83af;stroke-width:2"/><path fill="none" d="M4404.41 31.81c-277.01 15.36-1311.17 72.72-1614.28 89.53" style="stroke:#1a83af;stroke-width:2"/><path fill="#1A83AF" d="m2784.85 121.63 9.214 3.479-4.222-3.765 3.764-4.222-8.756 4.508z" style="stroke:#1a83af;stroke-width:2"/><path fill="none" d="M4466.3 47.35c-12.84 36.32-40.53 114.62-54.59 154.4" style="stroke:#1a83af;stroke-width:2"/><path fill="#1A83AF" d="m4409.9 206.87 6.778-7.146-5.107 2.433-2.434-5.106.763 9.819z" style="stroke:#1a83af;stroke-width:2"/><path fill="none" d="M4486.81 47.35c25.89 36.61 81.96 115.9 109.86 155.37" style="stroke:#1a83af;stroke-width:2"/><path fill="#1A83AF" d="m4599.61 206.87-1.947-9.654-.947 5.577-5.577-.947 8.471 5.024z" style="stroke:#1a83af;stroke-width:2"/><path fill="none" d="M4511.08 47.16c73.56 37.16 235.1 118.75 311.89 157.54" style="stroke:#1a83af;stroke-width:2"/><path fill="#1A83AF" d="m4827.46 206.97-6.232-7.626 1.769 5.373-5.374 1.768 9.837.485z" style="stroke:#1a83af;stroke-width:2"/><path fill="none" d="M2784.93 130.42c200.06 6.68 743.69 28.19 1194.21 76.58 3.95.43 7.98.89 12.04 1.38" style="stroke:#1a83af;stroke-width:2"/><path fill="#1A83AF" d="m3996.35 209.01-8.441-5.073 3.479 4.46-4.46 3.48 9.422-2.867z" style="stroke:#1a83af;stroke-width:2"/><path fill="none" d="M2627.59 131.7c-192.69 9.37-704.08 36.16-1129.45 75.3-4.02.37-8.09.76-12.2 1.16" style="stroke:#1a83af;stroke-width:2"/><path fill="#1A83AF" d="m1480.72 208.68 9.345 3.108-4.369-3.593 3.594-4.369-8.57 4.854z" style="stroke:#1a83af;stroke-width:2"/><path fill="none" d="M2627.29 128.28C2343.23 129.83 1345.7 140.03 526.14 207c-4.02.33-8.1.69-12.22 1.07" style="stroke:#1a83af;stroke-width:2"/><path fill="#1A83AF" d="m508.69 208.57 9.337 3.135-4.36-3.606 3.606-4.358-8.583 4.829z" style="stroke:#1a83af;stroke-width:2"/><path fill="none" d="M2627.59 134.58c-121.98 11.18-350.54 36.25-423.45 72.42-45.42 22.53-85.17 67.57-106.78 95.32" style="stroke:#1a83af;stroke-width:2"/><path fill="#1A83AF" d="m2094.06 306.62 8.668-4.677-5.611.72-.72-5.61-2.337 9.567z" style="stroke:#1a83af;stroke-width:2"/><path fill="none" d="M2627.33 128.8c-260.16 3.18-1115.18 17.86-1819.19 78.2-7.25.62-14.68 1.34-22.18 2.12" style="stroke:#1a83af;stroke-width:2"/><path fill="#1A83AF" d="m780.77 209.68 9.373 3.026-4.401-3.555 3.555-4.4-8.527 4.929z" style="stroke:#1a83af;stroke-width:2"/><path fill="none" d="M2785.04 128.72c231.58 2.82 929.24 16.24 1504.1 78.28 7.21.78 14.66 1.72 22.13 2.75" style="stroke:#1a83af;stroke-width:2"/><path fill="#1A83AF" d="m4316.45 210.48-8.352-5.22 3.401 4.52-4.52 3.402 9.471-2.702z" style="stroke:#1a83af;stroke-width:2"/><path fill="none" d="M2706.14 147.36v54.3" style="stroke:#1a83af;stroke-width:2"/><path fill="#1A83AF" d="m2706.14 206.68 4-9-4 4-4-4 4 9z" style="stroke:#1a83af;stroke-width:2"/><path fill="none" d="M2784.75 131.69c192.35 9.57 675.49 37.14 737.39 75.31 58.07 35.81 92.59 78.52 63 140-11.8 24.51-35.31 43.78-56.46 57.15" style="stroke:#1a83af;stroke-width:2"/><path fill="#1A83AF" d="m3524.2 406.91 9.76-1.325-5.506-1.302 1.302-5.505-5.556 8.132z" style="stroke:#1a83af;stroke-width:2"/><path fill="none" d="M2774.42 147.01c60.38 16.81 148.25 41.27 210.16 58.51" style="stroke:#1a83af;stroke-width:2"/><path fill="#1A83AF" d="m2989.74 206.96-7.594-6.271 2.778 4.928-4.928 2.778 9.744-1.435z" style="stroke:#1a83af;stroke-width:2"/><path fill="none" d="M2627.63 128.99C2208.22 134.48 249.3 162.45 206.14 207 6 413.56 1185.76 496.71 1598.48 519.24" style="stroke:#1a83af;stroke-width:2"/><path fill="#1A83AF" d="m1603.6 519.52-8.77-4.482 3.777 4.211-4.21 3.777 9.203-3.506z" style="stroke:#1a83af;stroke-width:2"/><path fill="none" d="M2627.34 138.82c-122.13 16.76-358.4 49.19-505.83 69.42" style="stroke:#1a83af;stroke-width:2"/><path fill="#1A83AF" d="m2116.31 208.96 9.463 2.73-4.51-3.415 3.414-4.51-8.367 5.195z" style="stroke:#1a83af;stroke-width:2"/><path fill="none" d="M2627.42 127.58c-324.86-1.22-1551.27-.46-1703.28 79.42-39.24 20.62-66.23 66.83-79.82 95.22" style="stroke:#1a83af;stroke-width:2"/><path fill="#1A83AF" d="m842.1 306.96 7.456-6.434-5.324 1.911-1.912-5.323-.22 9.846z" style="stroke:#1a83af;stroke-width:2"/><path fill="none" d="M2627.61 134.84c-150.77 13.21-491.24 43.5-777.47 72.16-3.98.4-8.01.81-12.07 1.22" style="stroke:#1a83af;stroke-width:2"/><path fill="#1A83AF" d="m1832.9 208.75 9.364 3.053-4.39-3.567 3.567-4.39-8.541 4.904z" style="stroke:#1a83af;stroke-width:2"/><path fill="none" d="M2633.58 147.01c-64.28 16.85-157.88 41.37-223.69 58.62" style="stroke:#1a83af;stroke-width:2"/><path fill="#1A83AF" d="m2404.81 206.96 9.722 1.576-4.887-2.85 2.85-4.886-7.685 6.16z" style="stroke:#1a83af;stroke-width:2"/><path fill="none" d="M2784.79 130.04c189.74 5.74 660.45 25.12 707.35 76.96 34.44 38.08-30.01 75.51-82.21 97.93" style="stroke:#1a83af;stroke-width:2"/><path fill="#1A83AF" d="m3405.24 306.92 9.847.183-5.241-2.128 2.128-5.242-6.734 7.187z" style="stroke:#1a83af;stroke-width:2"/><path fill="none" d="M2784.77 130.62c180.82 6.83 613.99 28.1 657.37 76.38 151.79 168.96 471.41-53.33-320 100-4.16.8-8.41 1.63-12.71 2.48" style="stroke:#1a83af;stroke-width:2"/><path fill="#1A83AF" d="m3104.37 310.47 9.606 2.173-4.702-3.145 3.146-4.702-8.05 5.674z" style="stroke:#1a83af;stroke-width:2"/><path fill="none" d="M2627.49 128.53c-334.97 2.62-1628.3 16.71-1687.35 78.47-12.29 12.85-11.71 26.62 0 40 29.98 34.29 299.7 58.96 462.91 70.9" style="stroke:#1a83af;stroke-width:2"/><path fill="#1A83AF" d="m1408.33 318.28-8.678-4.658 3.692 4.286-4.286 3.692 9.272-3.32z" style="stroke:#1a83af;stroke-width:2"/><path fill="none" d="M2784.98 127.71c251.84-.12 1059.2 5.67 1722.16 79.29 3.98.44 8.04.94 12.14 1.49" style="stroke:#1a83af;stroke-width:2"/><path fill="#1A83AF" d="m4524.48 209.21-8.367-5.196 3.414 4.51-4.51 3.415 9.463-2.729z" style="stroke:#1a83af;stroke-width:2"/><path fill="none" d="M2627.63 129.02C2210.47 134.59 270.89 162.86 228.14 207c-48.11 49.66 36.02 80.96 119.74 98.92" style="stroke:#1a83af;stroke-width:2"/><path fill="#1A83AF" d="m352.88 306.98-7.97-5.786 3.08 4.745-4.745 3.08 9.635-2.039z" style="stroke:#1a83af;stroke-width:2"/><path fill="none" d="M2784.81 133.9c161.53 12.26 542.26 41.97 861.33 73.1 7.12.7 14.41 1.43 21.77 2.18" style="stroke:#1a83af;stroke-width:2"/><path fill="#1A83AF" d="m3673.02 209.71-8.542-4.902 3.568 4.389-4.389 3.568 9.363-3.055z" style="stroke:#1a83af;stroke-width:2"/><path fill="none" d="M2784.68 129.11c304.46 4.7 1392.38 25.14 1442.46 77.89 42.22 44.47-37.35 78.52-107.42 98.57" style="stroke:#1a83af;stroke-width:2"/><path fill="#1A83AF" d="m4114.69 306.99 9.748 1.408-4.936-2.765 2.765-4.935-7.577 6.292z" style="stroke:#1a83af;stroke-width:2"/><path fill="none" d="M2784.95 128.54c270.1 2.39 1183.16 14.98 1934.19 78.46 4.03.34 8.11.71 12.24 1.11" style="stroke:#1a83af;stroke-width:2"/><path fill="#1A83AF" d="m4736.62 208.62-8.57-4.854 3.594 4.37-4.37 3.593 9.346-3.109z" style="stroke:#1a83af;stroke-width:2"/><path fill="none" d="M2627.58 129.11c-225.87 3.81-896.34 19.6-1449.44 77.89-4.19.44-8.46.93-12.76 1.46" style="stroke:#1a83af;stroke-width:2"/><path fill="#1A83AF" d="m1160.31 209.09 9.423 2.866-4.46-3.48 3.479-4.46-8.442 5.074z" style="stroke:#1a83af;stroke-width:2"/><path fill="none" d="M2784.8 140.91c101.39 16.65 278.73 45.76 397.34 65.23" style="stroke:#1a83af;stroke-width:2"/><path fill="#1A83AF" d="m3187.39 207-8.23-5.41 3.296 4.597-4.597 3.297 9.531-2.484z" style="stroke:#1a83af;stroke-width:2"/><path fill="none" d="M3858.65 247.01c36.06 16.52 88.25 40.41 125.76 57.59" style="stroke:#1a83af;stroke-width:2"/><path fill="#1A83AF" d="m3989.37 306.87-6.53-7.373 1.98 5.299-5.298 1.98 9.848.094z" style="stroke:#1a83af;stroke-width:2"/><path fill="none" d="M3792.14 247.17c-32.63 24.61-91.97 67.93-146 99.83-36.62 21.62-79.96 42.76-112.3 57.73" style="stroke:#1a83af;stroke-width:2"/><path fill="#1A83AF" d="m3529.15 406.89 9.848-.146-5.31-1.952 1.953-5.31-6.491 7.408z" style="stroke:#1a83af;stroke-width:2"/><path fill="none" d="M3249.59 247.01c-46.98 16.68-115.18 40.9-163.67 58.12" style="stroke:#1a83af;stroke-width:2"/><path fill="#1A83AF" d="m3081 306.87 9.82.763-5.107-2.434 2.433-5.107-7.146 6.778z" style="stroke:#1a83af;stroke-width:2"/></svg>