<svg xmlns="http://www.w3.org/2000/svg" xmlns:xlink="http://www.w3.org/1999/xlink" width="1665" height="452" preserveAspectRatio="none" style="width:1665px;height:452px;background:#00000000"><a xlink:actuate="onRequest" xlink:href="#a" xlink:show="new" xlink:title="#aws_ec2_network_interface" xlink:type="simple" target="_top"><rect id="a" width="275" height="39.789" x="173.86" y="407" fill="#3D176E" rx="2.5" ry="2.5" style="stroke:#000d19;stroke-width:1.5"/><circle cx="188.86" cy="426.894" r="11" fill="#E98DF7" style="stroke:#000d19;stroke-width:1"/><path d="M191.829 432.535q-.578.297-1.219.438-.64.156-1.344.156-2.5 0-3.828-1.64-1.312-1.657-1.312-4.782t1.312-4.781q1.328-1.656 3.828-1.656.703 0 1.344.156.656.156 1.219.453v2.719q-.625-.579-1.219-.844-.594-.281-1.219-.281-1.343 0-2.031 1.078-.688 1.062-.688 3.156 0 2.094.688 3.172.688 1.062 2.031 1.062.625 0 1.219-.265.594-.281 1.219-.86v2.72Z"/><text x="207.86" y="432.78" fill="#D9B8FF" font-family="Helvetica" font-size="17" textLength="233">aws_ec2_network_interface</text></a><a xlink:actuate="onRequest" xlink:href="#b" xlink:show="new" xlink:title="#aws_api_gateway_rest_api" xlink:type="simple" target="_top"><rect id="b" width="265" height="39.789" x="1113.86" y="207" fill="#3D176E" rx="2.5" ry="2.5" style="stroke:#000d19;stroke-width:1.5"/><circle cx="1128.86" cy="226.894" r="11" fill="#E98DF7" style="stroke:#000d19;stroke-width:1"/><path d="M1131.829 232.535q-.578.297-1.219.438-.64.156-1.344.156-2.5 0-3.828-1.64-1.312-1.657-1.312-4.782t1.312-4.781q1.328-1.656 3.828-1.656.703 0 1.344.156.656.156 1.219.453v2.719q-.625-.579-1.219-.844-.594-.281-1.219-.281-1.344 0-2.031 1.078-.688 1.062-.688 3.156 0 2.094.688 3.172.688 1.062 2.031 1.062.625 0 1.219-.265.594-.281 1.219-.86v2.72Z"/><text x="1147.86" y="232.78" fill="#D9B8FF" font-family="Helvetica" font-size="17" textLength="223">aws_api_gateway_rest_api</text></a><a xlink:actuate="onRequest" xlink:href="#c" xlink:show="new" xlink:title="#aws_vpc" xlink:type="simple" target="_top"><rect id="c" width="112" height="39.789" x="339.36" y="107" fill="#3D176E" rx="2.5" ry="2.5" style="stroke:#000d19;stroke-width:1.5"/><circle cx="354.36" cy="126.894" r="11" fill="#E98DF7" style="stroke:#000d19;stroke-width:1"/><path d="M357.329 132.535q-.578.297-1.219.438-.64.156-1.344.156-2.5 0-3.828-1.64-1.312-1.657-1.312-4.782t1.312-4.781q1.328-1.657 3.828-1.657.703 0 1.344.157.656.156 1.219.453v2.719q-.625-.579-1.219-.844-.594-.281-1.219-.281-1.344 0-2.031 1.078-.688 1.062-.688 3.156 0 2.094.688 3.172.688 1.062 2.031 1.062.625 0 1.219-.265.594-.281 1.219-.86v2.72Z"/><text x="373.36" y="132.78" fill="#D9B8FF" font-family="Helvetica" font-size="17" textLength="70">aws_vpc</text></a><a xlink:actuate="onRequest" xlink:href="#d" xlink:show="new" xlink:title="#aws_ec2_route_table" xlink:type="simple" target="_top"><rect id="d" width="218" height="39.789" x="435.36" y="207" fill="#3D176E" rx="2.5" ry="2.5" style="stroke:#000d19;stroke-width:1.5"/><circle cx="450.36" cy="226.894" r="11" fill="#E98DF7" style="stroke:#000d19;stroke-width:1"/><path d="M453.329 232.535q-.578.297-1.219.438-.64.156-1.344.156-2.5 0-3.828-1.64-1.312-1.657-1.312-4.782t1.312-4.781q1.328-1.656 3.828-1.656.703 0 1.344.156.656.156 1.219.453v2.719q-.625-.579-1.219-.844-.594-.281-1.219-.281-1.344 0-2.031 1.078-.688 1.062-.688 3.156 0 2.094.688 3.172.688 1.062 2.031 1.062.625 0 1.219-.265.594-.281 1.219-.86v2.72Z"/><text x="469.36" y="232.78" fill="#D9B8FF" font-family="Helvetica" font-size="17" textLength="176">aws_ec2_route_table</text></a><a xlink:actuate="onRequest" xlink:href="#e" xlink:show="new" xlink:title="#aws_vpc_endpoint" xlink:type="simple" target="_top"><rect id="e" width="195" height="39.789" x="527.86" y="307" fill="#3D176E" rx="2.5" ry="2.5" style="stroke:#000d19;stroke-width:1.5"/><circle cx="542.86" cy="326.894" r="11" fill="#E98DF7" style="stroke:#000d19;stroke-width:1"/><path d="M545.829 332.535q-.578.297-1.219.438-.64.156-1.344.156-2.5 0-3.828-1.64-1.312-1.657-1.312-4.782t1.312-4.781q1.328-1.656 3.828-1.656.703 0 1.344.156.656.156 1.219.453v2.719q-.625-.579-1.219-.844-.594-.281-1.219-.281-1.343 0-2.031 1.078-.688 1.062-.688 3.156 0 2.094.688 3.172.688 1.062 2.031 1.062.625 0 1.219-.265.594-.281 1.219-.86v2.72Z"/><text x="561.86" y="332.78" fill="#D9B8FF" font-family="Helvetica" font-size="17" textLength="153">aws_vpc_endpoint</text></a><a xlink:actuate="onRequest" xlink:href="#f" xlink:show="new" xlink:title="#aws_ec2_subnet" xlink:type="simple" target="_top"><rect id="f" width="179" height="39.789" x="78.86" y="207" fill="#3D176E" rx="2.5" ry="2.5" style="stroke:#000d19;stroke-width:1.5"/><circle cx="93.86" cy="226.894" r="11" fill="#E98DF7" style="stroke:#000d19;stroke-width:1"/><path d="M96.829 232.535q-.578.297-1.219.438-.64.156-1.344.156-2.5 0-3.828-1.64-1.312-1.657-1.312-4.782t1.312-4.781q1.328-1.656 3.828-1.656.703 0 1.344.156.656.156 1.219.453v2.719q-.625-.579-1.219-.844-.594-.281-1.219-.281-1.344 0-2.031 1.078-.688 1.062-.688 3.156 0 2.094.688 3.172.688 1.062 2.031 1.062.625 0 1.219-.265.594-.281 1.219-.86v2.72Z"/><text x="112.86" y="232.78" fill="#D9B8FF" font-family="Helvetica" font-size="17" textLength="137">aws_ec2_subnet</text></a><a xlink:actuate="onRequest" xlink:href="#g" xlink:show="new" xlink:title="#aws_ec2_security_group" xlink:type="simple" target="_top"><rect id="g" width="245" height="39.789" x="1413.86" y="207" fill="#3D176E" rx="2.5" ry="2.5" style="stroke:#000d19;stroke-width:1.5"/><circle cx="1428.86" cy="226.894" r="11" fill="#E98DF7" style="stroke:#000d19;stroke-width:1"/><path d="M1431.829 232.535q-.578.297-1.219.438-.64.156-1.344.156-2.5 0-3.828-1.64-1.312-1.657-1.312-4.782t1.312-4.781q1.328-1.656 3.828-1.656.703 0 1.344.156.656.156 1.219.453v2.719q-.625-.579-1.219-.844-.594-.281-1.219-.281-1.344 0-2.031 1.078-.688 1.062-.688 3.156 0 2.094.688 3.172.688 1.062 2.031 1.062.625 0 1.219-.265.594-.281 1.219-.86v2.72Z"/><text x="1447.86" y="232.78" fill="#D9B8FF" font-family="Helvetica" font-size="17" textLength="203">aws_ec2_security_group</text></a><a xlink:actuate="onRequest" xlink:href="#h" xlink:show="new" xlink:title="#aws_region" xlink:type="simple" target="_top"><rect id="h" width="137" height="39.789" x="407.86" y="7" fill="#3D176E" rx="2.5" ry="2.5" style="stroke:#000d19;stroke-width:1.5"/><circle cx="422.86" cy="26.895" r="11" fill="#E98DF7" style="stroke:#000d19;stroke-width:1"/><path d="M425.829 32.535q-.578.297-1.219.438-.64.156-1.344.156-2.5 0-3.828-1.64-1.312-1.657-1.312-4.782t1.312-4.781q1.328-1.656 3.828-1.656.703 0 1.344.156.656.156 1.219.453v2.719q-.625-.578-1.219-.844-.594-.281-1.219-.281-1.344 0-2.031 1.078-.688 1.062-.688 3.156 0 2.094.688 3.172.688 1.062 2.031 1.062.625 0 1.219-.265.594-.281 1.219-.86v2.72Z"/><text x="441.86" y="32.78" fill="#D9B8FF" font-family="Helvetica" font-size="17" textLength="95">aws_region</text></a><a xlink:actuate="onRequest" xlink:href="#i" xlink:show="new" xlink:title="#aws_api_gateway_domain_name" xlink:type="simple" target="_top"><rect id="i" width="319" height="39.789" x="759.86" y="207" fill="#3D176E" rx="2.5" ry="2.5" style="stroke:#000d19;stroke-width:1.5"/><circle cx="774.86" cy="226.894" r="11" fill="#E98DF7" style="stroke:#000d19;stroke-width:1"/><path d="M777.829 232.535q-.578.297-1.219.438-.64.156-1.344.156-2.5 0-3.828-1.64-1.312-1.657-1.312-4.782t1.312-4.781q1.328-1.656 3.828-1.656.703 0 1.344.156.656.156 1.219.453v2.719q-.625-.579-1.219-.844-.594-.281-1.219-.281-1.343 0-2.031 1.078-.688 1.062-.688 3.156 0 2.094.688 3.172.688 1.062 2.031 1.062.625 0 1.219-.265.594-.281 1.219-.86v2.72Z"/><text x="793.86" y="232.78" fill="#D9B8FF" font-family="Helvetica" font-size="17" textLength="277">aws_api_gateway_domain_name</text></a><path fill="none" d="M1125.89 247.01c-115.62 18.25-288.36 45.51-397.68 62.76" style="stroke:#1a83af;stroke-width:2"/><path fill="#1A83AF" d="m723.05 310.58 9.51 2.56-4.57-3.333 3.333-4.57-8.273 5.343z" style="stroke:#1a83af;stroke-width:2"/><path fill="none" d="M424.44 147.13c24.82 16.32 60.51 39.8 86.5 56.89" style="stroke:#1a83af;stroke-width:2"/><path fill="#1A83AF" d="m515.35 206.92-5.303-8.3 1.132 5.543-5.543 1.131 9.714 1.626z" style="stroke:#1a83af;stroke-width:2"/><path fill="none" d="M393.72 147.29c-1.12 25.74.82 71.35 24.64 99.71 26.28 31.29 66.39 50.22 104.33 61.65" style="stroke:#1a83af;stroke-width:2"/><path fill="#1A83AF" d="m527.79 310.15-7.502-6.38 2.706 4.967-4.968 2.706 9.764-1.293z" style="stroke:#1a83af;stroke-width:2"/><path fill="none" d="M351.32 147.01c-38.4 16.58-94.05 40.61-133.88 57.8" style="stroke:#1a83af;stroke-width:2"/><path fill="#1A83AF" d="m212.66 206.87 9.848.094-5.26-2.08 2.082-5.26-6.67 7.246z" style="stroke:#1a83af;stroke-width:2"/><path fill="none" d="M451.63 131.33c152.38 9.26 585.72 37.17 944.73 75.67 3.94.42 7.95.87 11.99 1.33" style="stroke:#1a83af;stroke-width:2"/><path fill="#1A83AF" d="m1413.49 208.93-8.484-5.002 3.517 4.431-4.43 3.517 9.397-2.946z" style="stroke:#1a83af;stroke-width:2"/><path fill="none" d="M389.98 147.09c-14.69 52.13-55.47 196.8-71.77 254.6" style="stroke:#1a83af;stroke-width:2"/><path fill="#1A83AF" d="m316.81 406.68 6.292-7.577-4.935 2.765-2.765-4.936 1.408 9.748z" style="stroke:#1a83af;stroke-width:2"/><path fill="none" d="M560.36 247.36c13.09 15.84 31.65 38.3 45.59 55.16" style="stroke:#1a83af;stroke-width:2"/><path fill="#1A83AF" d="m609.39 306.68-2.664-9.482-.527 5.633-5.632-.527 8.823 4.376z" style="stroke:#1a83af;stroke-width:2"/><path fill="none" d="M564.45 347.01c-53.76 16.78-131.93 41.18-187.14 58.41" style="stroke:#1a83af;stroke-width:2"/><path fill="#1A83AF" d="m372.37 406.96 9.785 1.117-5.015-2.616 2.616-5.016-7.386 6.515z" style="stroke:#1a83af;stroke-width:2"/><path fill="none" d="M257.02 247.01c78.86 16.91 193.84 41.57 274.29 58.82" style="stroke:#1a83af;stroke-width:2"/><path fill="#1A83AF" d="m536.56 306.96-7.967-5.79 3.077 4.746-4.747 3.077 9.637-2.033z" style="stroke:#1a83af;stroke-width:2"/><path fill="none" d="M182.33 247.35c26.45 36.61 83.71 115.9 112.21 155.37" style="stroke:#1a83af;stroke-width:2"/><path fill="#1A83AF" d="m297.54 406.87-2.04-9.635-.893 5.586-5.586-.893 8.519 4.942z" style="stroke:#1a83af;stroke-width:2"/><path fill="none" d="M1418.62 247.03c-232.29 37.55-747.54 120.83-984.13 159.07" style="stroke:#1a83af;stroke-width:2"/><path fill="#1A83AF" d="m429.3 406.94 9.524 2.51-4.588-3.309 3.31-4.588-8.246 5.387z" style="stroke:#1a83af;stroke-width:2"/><path fill="none" d="M1413.85 244.86c-5.91.74-11.77 1.46-17.49 2.14-238.84 28.44-520.05 55.68-668.01 69.53" style="stroke:#1a83af;stroke-width:2"/><path fill="#1A83AF" d="m723.14 317.02 9.337 3.132-4.36-3.604 3.605-4.36-8.582 4.832z" style="stroke:#1a83af;stroke-width:2"/><path fill="none" d="M460.36 47.36c-13.09 15.84-31.65 38.3-45.59 55.16" style="stroke:#1a83af;stroke-width:2"/><path fill="#1A83AF" d="m411.33 106.68 8.823-4.376-5.632.527-.526-5.633-2.665 9.482z" style="stroke:#1a83af;stroke-width:2"/><path fill="none" d="M483 47.35c12.48 36.32 39.37 114.62 53.03 154.4" style="stroke:#1a83af;stroke-width:2"/><path fill="#1A83AF" d="m537.79 206.87.851-9.812-2.48 5.085-5.084-2.48 6.713 7.207z" style="stroke:#1a83af;stroke-width:2"/><path fill="none" d="M434.03 47.12c-31.6 14.89-75.4 36.84-111.67 59.88-47.49 30.17-98.36 71.44-128.12 96.61" style="stroke:#1a83af;stroke-width:2"/><path fill="#1A83AF" d="m190.36 206.9 9.454-2.762-5.638-.468.47-5.638-4.286 8.868z" style="stroke:#1a83af;stroke-width:2"/><path fill="none" d="M545.09 40.84c180.14 33.65 667 124.59 884.17 165.15" style="stroke:#1a83af;stroke-width:2"/><path fill="#1A83AF" d="m1434.34 206.94-8.104-5.597 3.19 4.671-4.671 3.19 9.585-2.264z" style="stroke:#1a83af;stroke-width:2"/><path fill="none" d="M407.85 34.12C310.33 46.99 135.12 86.56 61.36 207 6 297.4 158.84 370.83 249.57 405.1" style="stroke:#1a83af;stroke-width:2"/><path fill="#1A83AF" d="m254.38 406.9-7.023-6.905 2.341 5.15-5.15 2.34 9.832-.585z" style="stroke:#1a83af;stroke-width:2"/><path fill="none" d="M510.86 47.11c46.63 28.04 127.68 85.21 160.5 159.89 14.41 32.78-7.72 71.61-25.99 95.78" style="stroke:#1a83af;stroke-width:2"/><path fill="#1A83AF" d="m642.25 306.82 8.668-4.677-5.611.72-.72-5.61-2.337 9.567z" style="stroke:#1a83af;stroke-width:2"/><path fill="none" d="M862.33 247.01c-50.23 16.74-123.23 41.08-174.91 58.3" style="stroke:#1a83af;stroke-width:2"/><path fill="#1A83AF" d="m682.49 306.96 9.801.966-5.055-2.539 2.54-5.055-7.286 6.628z" style="stroke:#1a83af;stroke-width:2"/></svg>