<svg xmlns="http://www.w3.org/2000/svg" xmlns:xlink="http://www.w3.org/1999/xlink" width="2877" height="1955" preserveAspectRatio="none" style="width:2877px;height:1955px;background:#00000000"><a xlink:actuate="onRequest" xlink:href="#a" xlink:show="new" xlink:title="#aws_resource" xlink:type="simple" target="_top"><rect id="a" width="155" height="70.594" x="1239.04" y="404" fill="#3D176E" rx="2.5" ry="2.5" style="stroke:#000d19;stroke-width:1.5"/><circle cx="1254.04" cy="423.894" r="11" fill="#E98DF7" style="stroke:#000d19;stroke-width:1"/><path d="M1257.009 429.535q-.578.297-1.219.438-.64.156-1.344.156-2.5 0-3.828-1.64-1.312-1.657-1.312-4.782t1.312-4.781q1.328-1.656 3.828-1.656.703 0 1.344.156.656.156 1.219.453v2.719q-.625-.579-1.219-.844-.594-.281-1.219-.281-1.343 0-2.031 1.078-.688 1.062-.688 3.156 0 2.094.688 3.172.688 1.062 2.031 1.062.625 0 1.219-.265.594-.281 1.219-.86v2.72Z"/><text x="1273.04" y="429.78" fill="#D9B8FF" font-family="Helvetica" font-size="17" textLength="113">aws_resource</text><path d="M1240.04 443.789h153" style="stroke:#000d19;stroke-width:1.5"/><text x="1250.04" y="463" fill="#D9B8FF" font-family="sans-serif" font-size="11" font-weight="bold" textLength="21">arn</text><text x="1271.04" y="463" fill="#D9B8FF" font-family="sans-serif" font-size="11" textLength="41">: string</text></a><a xlink:actuate="onRequest" xlink:href="#b" xlink:show="new" xlink:title="#resource" xlink:type="simple" target="_top"><rect id="b" width="195" height="275.836" x="1219.04" y="7" fill="#3D176E" rx="2.5" ry="2.5" style="stroke:#000d19;stroke-width:1.5"/><circle cx="1271.79" cy="26.895" r="11" fill="#E98DF7" style="stroke:#000d19;stroke-width:1"/><path d="M1274.759 32.535q-.578.297-1.219.438-.64.156-1.344.156-2.5 0-3.828-1.64-1.312-1.657-1.312-4.782t1.312-4.781q1.328-1.656 3.828-1.656.703 0 1.344.156.656.156 1.219.453v2.719q-.625-.578-1.219-.844-.594-.281-1.219-.281-1.343 0-2.031 1.078-.688 1.062-.688 3.156 0 2.094.688 3.172.688 1.062 2.031 1.062.625 0 1.219-.265.594-.281 1.219-.86v2.72Z"/><text x="1297.29" y="32.78" fill="#D9B8FF" font-family="Helvetica" font-size="17" textLength="71">resource</text><path d="M1220.04 46.789h193" style="stroke:#000d19;stroke-width:1.5"/><text x="1230.04" y="65.999" fill="#D9B8FF" font-family="sans-serif" font-size="11" font-weight="bold" textLength="12">id</text><text x="1242.04" y="65.999" fill="#D9B8FF" font-family="sans-serif" font-size="11" textLength="41">: string</text><text x="1230.04" y="88.804" fill="#D9B8FF" font-family="sans-serif" font-size="11" font-weight="bold" textLength="28">tags</text><text x="1258.04" y="88.804" fill="#D9B8FF" font-family="sans-serif" font-size="11" textLength="145">: dictionary[string, string]</text><text x="1230.04" y="111.609" fill="#D9B8FF" font-family="sans-serif" font-size="11" font-weight="bold" textLength="35">name</text><text x="1265.04" y="111.609" fill="#D9B8FF" font-family="sans-serif" font-size="11" textLength="41">: string</text><text x="1230.04" y="134.414" fill="#D9B8FF" font-family="sans-serif" font-size="11" font-weight="bold" textLength="35">ctime</text><text x="1265.04" y="134.414" fill="#D9B8FF" font-family="sans-serif" font-size="11" textLength="58">: datetime</text><text x="1230.04" y="157.218" fill="#D9B8FF" font-family="sans-serif" font-size="11" font-weight="bold" textLength="24">age</text><text x="1254.04" y="157.218" fill="#D9B8FF" font-family="sans-serif" font-size="11" textLength="55">: duration</text><text x="1230.04" y="180.023" fill="#D9B8FF" font-family="sans-serif" font-size="11" font-weight="bold" textLength="39">mtime</text><text x="1269.04" y="180.023" fill="#D9B8FF" font-family="sans-serif" font-size="11" textLength="58">: datetime</text><text x="1230.04" y="202.828" fill="#D9B8FF" font-family="sans-serif" font-size="11" font-weight="bold" textLength="75">last_update</text><text x="1305.04" y="202.828" fill="#D9B8FF" font-family="sans-serif" font-size="11" textLength="55">: duration</text><text x="1230.04" y="225.632" fill="#D9B8FF" font-family="sans-serif" font-size="11" font-weight="bold" textLength="36">atime</text><text x="1266.04" y="225.632" fill="#D9B8FF" font-family="sans-serif" font-size="11" textLength="58">: datetime</text><text x="1230.04" y="248.437" fill="#D9B8FF" font-family="sans-serif" font-size="11" font-weight="bold" textLength="74">last_access</text><text x="1304.04" y="248.437" fill="#D9B8FF" font-family="sans-serif" font-size="11" textLength="55">: duration</text><text x="1230.04" y="271.242" fill="#D9B8FF" font-family="sans-serif" font-size="11" font-weight="bold" textLength="27">kind</text><text x="1257.04" y="271.242" fill="#D9B8FF" font-family="sans-serif" font-size="11" textLength="41">: string</text></a><a xlink:actuate="onRequest" xlink:href="#c" xlink:show="new" xlink:title="#aws_elasticache_endpoint" xlink:type="simple" target="_top"><rect id="c" width="259" height="93.398" x="1187.04" y="1656" fill="#3D176E" rx="2.5" ry="2.5" style="stroke:#000d19;stroke-width:1.5"/><circle cx="1202.04" cy="1675.895" r="11" fill="#E98DF7" style="stroke:#000d19;stroke-width:1"/><path d="M1205.009 1681.535q-.578.297-1.219.438-.64.156-1.344.156-2.5 0-3.828-1.64-1.312-1.657-1.312-4.782t1.312-4.781q1.328-1.656 3.828-1.656.703 0 1.344.156.656.156 1.219.453v2.719q-.625-.578-1.219-.844-.594-.281-1.219-.281-1.343 0-2.031 1.078-.688 1.062-.688 3.156 0 2.094.688 3.172.688 1.062 2.031 1.062.625 0 1.219-.265.594-.281 1.219-.86v2.72Z"/><text x="1221.04" y="1681.78" fill="#D9B8FF" font-family="Helvetica" font-size="17" textLength="217">aws_elasticache_endpoint</text><path d="M1188.04 1695.789h257" style="stroke:#000d19;stroke-width:1.5"/><text x="1198.04" y="1714.999" fill="#D9B8FF" font-family="sans-serif" font-size="11" font-weight="bold" textLength="51">address</text><text x="1249.04" y="1714.999" fill="#D9B8FF" font-family="sans-serif" font-size="11" textLength="41">: string</text><text x="1198.04" y="1737.804" fill="#D9B8FF" font-family="sans-serif" font-size="11" font-weight="bold" textLength="26">port</text><text x="1224.04" y="1737.804" fill="#D9B8FF" font-family="sans-serif" font-size="11" textLength="36">: int64</text></a><a xlink:actuate="onRequest" xlink:href="#d" xlink:show="new" xlink:title="#aws_elasticache_cache_security_group_membership" xlink:type="simple" target="_top"><rect id="d" width="478" height="93.398" x="84.54" y="1388.5" fill="#3D176E" rx="2.5" ry="2.5" style="stroke:#000d19;stroke-width:1.5"/><circle cx="99.54" cy="1408.395" r="11" fill="#E98DF7" style="stroke:#000d19;stroke-width:1"/><path d="M102.509 1414.035q-.578.297-1.219.438-.64.156-1.344.156-2.5 0-3.828-1.64-1.312-1.657-1.312-4.782t1.312-4.781q1.328-1.656 3.828-1.656.703 0 1.344.156.656.156 1.219.453v2.719q-.625-.578-1.219-.844-.594-.281-1.219-.281-1.343 0-2.031 1.078-.688 1.062-.688 3.156 0 2.094.688 3.172.688 1.062 2.031 1.062.625 0 1.219-.265.594-.281 1.219-.86v2.72Z"/><text x="118.54" y="1414.28" fill="#D9B8FF" font-family="Helvetica" font-size="17" textLength="436">aws_elasticache_cache_security_group_membership</text><path d="M85.54 1428.289h476" style="stroke:#000d19;stroke-width:1.5"/><text x="95.54" y="1447.499" fill="#D9B8FF" font-family="sans-serif" font-size="11" font-weight="bold" textLength="179">cache_security_group_name</text><text x="274.54" y="1447.499" fill="#D9B8FF" font-family="sans-serif" font-size="11" textLength="41">: string</text><text x="95.54" y="1470.304" fill="#D9B8FF" font-family="sans-serif" font-size="11" font-weight="bold" textLength="40">status</text><text x="135.54" y="1470.304" fill="#D9B8FF" font-family="sans-serif" font-size="11" textLength="41">: string</text></a><a xlink:actuate="onRequest" xlink:href="#e" xlink:show="new" xlink:title="#aws_elasticache_cache_parameter_group_status" xlink:type="simple" target="_top"><rect id="e" width="446" height="116.203" x="597.54" y="1377" fill="#3D176E" rx="2.5" ry="2.5" style="stroke:#000d19;stroke-width:1.5"/><circle cx="612.54" cy="1396.895" r="11" fill="#E98DF7" style="stroke:#000d19;stroke-width:1"/><path d="M615.509 1402.535q-.578.297-1.219.438-.64.156-1.344.156-2.5 0-3.828-1.64-1.312-1.657-1.312-4.782t1.312-4.781q1.328-1.656 3.828-1.656.703 0 1.344.156.656.156 1.219.453v2.719q-.625-.578-1.219-.844-.594-.281-1.219-.281-1.344 0-2.031 1.078-.688 1.062-.688 3.156 0 2.094.688 3.172.688 1.062 2.031 1.062.625 0 1.219-.265.594-.281 1.219-.86v2.72Z"/><text x="631.54" y="1402.78" fill="#D9B8FF" font-family="Helvetica" font-size="17" textLength="404">aws_elasticache_cache_parameter_group_status</text><path d="M598.54 1416.789h444" style="stroke:#000d19;stroke-width:1.5"/><text x="608.54" y="1435.999" fill="#D9B8FF" font-family="sans-serif" font-size="11" font-weight="bold" textLength="194">cache_parameter_group_name</text><text x="802.54" y="1435.999" fill="#D9B8FF" font-family="sans-serif" font-size="11" textLength="41">: string</text><text x="608.54" y="1458.804" fill="#D9B8FF" font-family="sans-serif" font-size="11" font-weight="bold" textLength="153">parameter_apply_status</text><text x="761.54" y="1458.804" fill="#D9B8FF" font-family="sans-serif" font-size="11" textLength="41">: string</text><text x="608.54" y="1481.609" fill="#D9B8FF" font-family="sans-serif" font-size="11" font-weight="bold" textLength="168">cache_node_ids_to_reboot</text><text x="776.54" y="1481.609" fill="#D9B8FF" font-family="sans-serif" font-size="11" textLength="49">: string[]</text></a><a xlink:actuate="onRequest" xlink:href="#f" xlink:show="new" xlink:title="#aws_elasticache_pending_modified_values" xlink:type="simple" target="_top"><rect id="f" width="511" height="184.617" x="1902.04" y="1342.5" fill="#3D176E" rx="2.5" ry="2.5" style="stroke:#000d19;stroke-width:1.5"/><circle cx="1970.79" cy="1362.395" r="11" fill="#E98DF7" style="stroke:#000d19;stroke-width:1"/><path d="M1973.759 1368.035q-.578.297-1.219.438-.64.156-1.344.156-2.5 0-3.828-1.64-1.312-1.657-1.312-4.782t1.312-4.781q1.328-1.656 3.828-1.656.703 0 1.344.156.656.156 1.219.453v2.719q-.625-.578-1.219-.844-.594-.281-1.219-.281-1.343 0-2.031 1.078-.688 1.062-.688 3.156 0 2.094.688 3.172.688 1.062 2.031 1.062.625 0 1.219-.265.594-.281 1.219-.86v2.72Z"/><text x="1996.29" y="1368.28" fill="#D9B8FF" font-family="Helvetica" font-size="17" textLength="355">aws_elasticache_pending_modified_values</text><path d="M1903.04 1382.289h509" style="stroke:#000d19;stroke-width:1.5"/><text x="1913.04" y="1401.499" fill="#D9B8FF" font-family="sans-serif" font-size="11" font-weight="bold" textLength="116">num_cache_nodes</text><text x="2029.04" y="1401.499" fill="#D9B8FF" font-family="sans-serif" font-size="11" textLength="36">: int64</text><text x="1913.04" y="1424.304" fill="#D9B8FF" font-family="sans-serif" font-size="11" font-weight="bold" textLength="173">cache_node_ids_to_remove</text><text x="2086.04" y="1424.304" fill="#D9B8FF" font-family="sans-serif" font-size="11" textLength="49">: string[]</text><text x="1913.04" y="1447.109" fill="#D9B8FF" font-family="sans-serif" font-size="11" font-weight="bold" textLength="97">engine_version</text><text x="2010.04" y="1447.109" fill="#D9B8FF" font-family="sans-serif" font-size="11" textLength="41">: string</text><text x="1913.04" y="1469.914" fill="#D9B8FF" font-family="sans-serif" font-size="11" font-weight="bold" textLength="110">cache_node_type</text><text x="2023.04" y="1469.914" fill="#D9B8FF" font-family="sans-serif" font-size="11" textLength="41">: string</text><text x="1913.04" y="1492.718" fill="#D9B8FF" font-family="sans-serif" font-size="11" font-weight="bold" textLength="117">auth_token_status</text><text x="2030.04" y="1492.718" fill="#D9B8FF" font-family="sans-serif" font-size="11" textLength="41">: string</text><text x="1913.04" y="1515.523" fill="#D9B8FF" font-family="sans-serif" font-size="11" font-weight="bold" textLength="176">log_delivery_configurations</text><text x="2089.04" y="1515.523" fill="#D9B8FF" font-family="sans-serif" font-size="11" textLength="313">: aws_elasticache_pending_log_delivery_configuration[]</text></a><a xlink:actuate="onRequest" xlink:href="#g" xlink:show="new" xlink:title="#aws_elasticache_pending_log_delivery_configuration" xlink:type="simple" target="_top"><rect id="g" width="482" height="139.008" x="1747.54" y="1633" fill="#3D176E" rx="2.5" ry="2.5" style="stroke:#000d19;stroke-width:1.5"/><circle cx="1762.54" cy="1652.895" r="11" fill="#E98DF7" style="stroke:#000d19;stroke-width:1"/><path d="M1765.509 1658.535q-.578.297-1.219.438-.64.156-1.344.156-2.5 0-3.828-1.64-1.312-1.657-1.312-4.782t1.312-4.781q1.328-1.656 3.828-1.656.703 0 1.344.156.656.156 1.219.453v2.719q-.625-.578-1.219-.844-.594-.281-1.219-.281-1.343 0-2.031 1.078-.688 1.062-.688 3.156 0 2.094.688 3.172.688 1.062 2.031 1.062.625 0 1.219-.265.594-.281 1.219-.86v2.72Z"/><text x="1781.54" y="1658.78" fill="#D9B8FF" font-family="Helvetica" font-size="17" textLength="440">aws_elasticache_pending_log_delivery_configuration</text><path d="M1748.54 1672.789h480" style="stroke:#000d19;stroke-width:1.5"/><text x="1758.54" y="1691.999" fill="#D9B8FF" font-family="sans-serif" font-size="11" font-weight="bold" textLength="54">log_type</text><text x="1812.54" y="1691.999" fill="#D9B8FF" font-family="sans-serif" font-size="11" textLength="41">: string</text><text x="1758.54" y="1714.804" fill="#D9B8FF" font-family="sans-serif" font-size="11" font-weight="bold" textLength="107">destination_type</text><text x="1865.54" y="1714.804" fill="#D9B8FF" font-family="sans-serif" font-size="11" textLength="41">: string</text><text x="1758.54" y="1737.609" fill="#D9B8FF" font-family="sans-serif" font-size="11" font-weight="bold" textLength="123">destination_details</text><text x="1881.54" y="1737.609" fill="#D9B8FF" font-family="sans-serif" font-size="11" textLength="214">: aws_elasticache_destination_details</text><text x="1758.54" y="1760.414" fill="#D9B8FF" font-family="sans-serif" font-size="11" font-weight="bold" textLength="68">log_format</text><text x="1826.54" y="1760.414" fill="#D9B8FF" font-family="sans-serif" font-size="11" textLength="41">: string</text></a><a xlink:actuate="onRequest" xlink:href="#h" xlink:show="new" xlink:title="#aws_elasticache_destination_details" xlink:type="simple" target="_top"><rect id="h" width="343" height="93.398" x="754.04" y="1855" fill="#3D176E" rx="2.5" ry="2.5" style="stroke:#000d19;stroke-width:1.5"/><circle cx="769.04" cy="1874.895" r="11" fill="#E98DF7" style="stroke:#000d19;stroke-width:1"/><path d="M772.009 1880.535q-.578.297-1.219.438-.64.156-1.344.156-2.5 0-3.828-1.64-1.312-1.657-1.312-4.782t1.312-4.781q1.328-1.656 3.828-1.656.703 0 1.344.156.656.156 1.219.453v2.719q-.625-.578-1.219-.844-.594-.281-1.219-.281-1.344 0-2.031 1.078-.688 1.062-.688 3.156 0 2.094.688 3.172.688 1.062 2.031 1.062.625 0 1.219-.265.594-.281 1.219-.86v2.72Z"/><text x="788.04" y="1880.78" fill="#D9B8FF" font-family="Helvetica" font-size="17" textLength="301">aws_elasticache_destination_details</text><path d="M755.04 1894.789h341" style="stroke:#000d19;stroke-width:1.5"/><text x="765.04" y="1913.999" fill="#D9B8FF" font-family="sans-serif" font-size="11" font-weight="bold" textLength="163">cloud_watch_logs_details</text><text x="928.04" y="1913.999" fill="#D9B8FF" font-family="sans-serif" font-size="11" textLength="41">: string</text><text x="765.04" y="1936.804" fill="#D9B8FF" font-family="sans-serif" font-size="11" font-weight="bold" textLength="154">kinesis_firehose_details</text><text x="919.04" y="1936.804" fill="#D9B8FF" font-family="sans-serif" font-size="11" textLength="41">: string</text></a><a xlink:actuate="onRequest" xlink:href="#i" xlink:show="new" xlink:title="#aws_elasticache_log_delivery_configuration" xlink:type="simple" target="_top"><rect id="i" width="406" height="184.617" x="335.54" y="1610" fill="#3D176E" rx="2.5" ry="2.5" style="stroke:#000d19;stroke-width:1.5"/><circle cx="350.54" cy="1629.895" r="11" fill="#E98DF7" style="stroke:#000d19;stroke-width:1"/><path d="M353.509 1635.535q-.578.297-1.219.438-.64.156-1.344.156-2.5 0-3.828-1.64-1.312-1.657-1.312-4.782t1.312-4.781q1.328-1.656 3.828-1.656.703 0 1.344.156.656.156 1.219.453v2.719q-.625-.578-1.219-.844-.594-.281-1.219-.281-1.344 0-2.031 1.078-.688 1.062-.688 3.156 0 2.094.688 3.172.688 1.062 2.031 1.062.625 0 1.219-.265.594-.281 1.219-.86v2.72Z"/><text x="369.54" y="1635.78" fill="#D9B8FF" font-family="Helvetica" font-size="17" textLength="364">aws_elasticache_log_delivery_configuration</text><path d="M336.54 1649.789h404" style="stroke:#000d19;stroke-width:1.5"/><text x="346.54" y="1668.999" fill="#D9B8FF" font-family="sans-serif" font-size="11" font-weight="bold" textLength="54">log_type</text><text x="400.54" y="1668.999" fill="#D9B8FF" font-family="sans-serif" font-size="11" textLength="41">: string</text><text x="346.54" y="1691.804" fill="#D9B8FF" font-family="sans-serif" font-size="11" font-weight="bold" textLength="107">destination_type</text><text x="453.54" y="1691.804" fill="#D9B8FF" font-family="sans-serif" font-size="11" textLength="41">: string</text><text x="346.54" y="1714.609" fill="#D9B8FF" font-family="sans-serif" font-size="11" font-weight="bold" textLength="123">destination_details</text><text x="469.54" y="1714.609" fill="#D9B8FF" font-family="sans-serif" font-size="11" textLength="214">: aws_elasticache_destination_details</text><text x="346.54" y="1737.414" fill="#D9B8FF" font-family="sans-serif" font-size="11" font-weight="bold" textLength="68">log_format</text><text x="414.54" y="1737.414" fill="#D9B8FF" font-family="sans-serif" font-size="11" textLength="41">: string</text><text x="346.54" y="1760.218" fill="#D9B8FF" font-family="sans-serif" font-size="11" font-weight="bold" textLength="40">status</text><text x="386.54" y="1760.218" fill="#D9B8FF" font-family="sans-serif" font-size="11" textLength="41">: string</text><text x="346.54" y="1783.023" fill="#D9B8FF" font-family="sans-serif" font-size="11" font-weight="bold" textLength="57">message</text><text x="403.54" y="1783.023" fill="#D9B8FF" font-family="sans-serif" font-size="11" textLength="41">: string</text></a><a xlink:actuate="onRequest" xlink:href="#j" xlink:show="new" xlink:title="#aws_elasticache_cache_cluster" xlink:type="simple" target="_top"><rect id="j" width="533" height="663.516" x="1050.04" y="596" fill="#3D176E" rx="2.5" ry="2.5" style="stroke:#000d19;stroke-width:1.5"/><circle cx="1179.79" cy="615.894" r="11" fill="#E98DF7" style="stroke:#000d19;stroke-width:1"/><path d="M1182.759 621.535q-.578.297-1.219.438-.64.156-1.344.156-2.5 0-3.828-1.64-1.312-1.657-1.312-4.782t1.312-4.781q1.328-1.657 3.828-1.657.703 0 1.344.157.656.156 1.219.453v2.719q-.625-.578-1.219-.844-.594-.281-1.219-.281-1.343 0-2.031 1.078-.688 1.062-.688 3.156 0 2.094.688 3.172.688 1.062 2.031 1.062.625 0 1.219-.265.594-.282 1.219-.86v2.72Z"/><text x="1205.29" y="621.78" fill="#D9B8FF" font-family="Helvetica" font-size="17" textLength="255">aws_elasticache_cache_cluster</text><path d="M1051.04 635.789h531" style="stroke:#000d19;stroke-width:1.5"/><text x="1061.04" y="655" fill="#D9B8FF" font-family="sans-serif" font-size="11" font-weight="bold" textLength="199">cluster_configuration_endpoint</text><text x="1260.04" y="655" fill="#D9B8FF" font-family="sans-serif" font-size="11" textLength="156">: aws_elasticache_endpoint</text><text x="1061.04" y="677.804" fill="#D9B8FF" font-family="sans-serif" font-size="11" font-weight="bold" textLength="247">cluster_client_download_landing_page</text><text x="1308.04" y="677.804" fill="#D9B8FF" font-family="sans-serif" font-size="11" textLength="41">: string</text><text x="1061.04" y="700.609" fill="#D9B8FF" font-family="sans-serif" font-size="11" font-weight="bold" textLength="160">cluster_cache_node_type</text><text x="1221.04" y="700.609" fill="#D9B8FF" font-family="sans-serif" font-size="11" textLength="41">: string</text><text x="1061.04" y="723.414" fill="#D9B8FF" font-family="sans-serif" font-size="11" font-weight="bold" textLength="94">cluster_engine</text><text x="1155.04" y="723.414" fill="#D9B8FF" font-family="sans-serif" font-size="11" textLength="41">: string</text><text x="1061.04" y="746.218" fill="#D9B8FF" font-family="sans-serif" font-size="11" font-weight="bold" textLength="147">cluster_engine_version</text><text x="1208.04" y="746.218" fill="#D9B8FF" font-family="sans-serif" font-size="11" textLength="41">: string</text><text x="1061.04" y="769.023" fill="#D9B8FF" font-family="sans-serif" font-size="11" font-weight="bold" textLength="184">cluster_cache_cluster_status</text><text x="1245.04" y="769.023" fill="#D9B8FF" font-family="sans-serif" font-size="11" textLength="41">: string</text><text x="1061.04" y="791.828" fill="#D9B8FF" font-family="sans-serif" font-size="11" font-weight="bold" textLength="166">cluster_num_cache_nodes</text><text x="1227.04" y="791.828" fill="#D9B8FF" font-family="sans-serif" font-size="11" textLength="36">: int64</text><text x="1061.04" y="814.632" fill="#D9B8FF" font-family="sans-serif" font-size="11" font-weight="bold" textLength="224">cluster_preferred_availability_zone</text><text x="1285.04" y="814.632" fill="#D9B8FF" font-family="sans-serif" font-size="11" textLength="41">: string</text><text x="1061.04" y="837.437" fill="#D9B8FF" font-family="sans-serif" font-size="11" font-weight="bold" textLength="192">cluster_preferred_outpost_arn</text><text x="1253.04" y="837.437" fill="#D9B8FF" font-family="sans-serif" font-size="11" textLength="41">: string</text><text x="1061.04" y="860.242" fill="#D9B8FF" font-family="sans-serif" font-size="11" font-weight="bold" textLength="255">cluster_preferred_maintenance_window</text><text x="1316.04" y="860.242" fill="#D9B8FF" font-family="sans-serif" font-size="11" textLength="41">: string</text><text x="1061.04" y="883.046" fill="#D9B8FF" font-family="sans-serif" font-size="11" font-weight="bold" textLength="212">cluster_pending_modified_values</text><text x="1273.04" y="883.046" fill="#D9B8FF" font-family="sans-serif" font-size="11" textLength="250">: aws_elasticache_pending_modified_values</text><text x="1061.04" y="905.851" fill="#D9B8FF" font-family="sans-serif" font-size="11" font-weight="bold" textLength="216">cluster_notification_configuration</text><text x="1277.04" y="905.851" fill="#D9B8FF" font-family="sans-serif" font-size="11" textLength="249">: aws_elasticache_notification_configuration</text><text x="1061.04" y="928.656" fill="#D9B8FF" font-family="sans-serif" font-size="11" font-weight="bold" textLength="195">cluster_cache_security_groups</text><text x="1256.04" y="928.656" fill="#D9B8FF" font-family="sans-serif" font-size="11" textLength="316">: aws_elasticache_cache_security_group_membership[]</text><text x="1061.04" y="951.46" fill="#D9B8FF" font-family="sans-serif" font-size="11" font-weight="bold" textLength="203">cluster_cache_parameter_group</text><text x="1264.04" y="951.46" fill="#D9B8FF" font-family="sans-serif" font-size="11" textLength="287">: aws_elasticache_cache_parameter_group_status</text><text x="1061.04" y="974.265" fill="#D9B8FF" font-family="sans-serif" font-size="11" font-weight="bold" textLength="222">cluster_cache_subnet_group_name</text><text x="1283.04" y="974.265" fill="#D9B8FF" font-family="sans-serif" font-size="11" textLength="41">: string</text><text x="1061.04" y="997.07" fill="#D9B8FF" font-family="sans-serif" font-size="11" font-weight="bold" textLength="133">cluster_cache_nodes</text><text x="1194.04" y="997.07" fill="#D9B8FF" font-family="sans-serif" font-size="11" textLength="182">: aws_elasticache_cache_node[]</text><text x="1061.04" y="1019.875" fill="#D9B8FF" font-family="sans-serif" font-size="11" font-weight="bold" textLength="233">cluster_auto_minor_version_upgrade</text><text x="1294.04" y="1019.875" fill="#D9B8FF" font-family="sans-serif" font-size="11" textLength="53">: boolean</text><text x="1061.04" y="1042.679" fill="#D9B8FF" font-family="sans-serif" font-size="11" font-weight="bold" textLength="151">cluster_security_groups</text><text x="1212.04" y="1042.679" fill="#D9B8FF" font-family="sans-serif" font-size="11" textLength="277">: aws_elasticache_security_group_membership[]</text><text x="1061.04" y="1065.484" fill="#D9B8FF" font-family="sans-serif" font-size="11" font-weight="bold" textLength="180">cluster_replication_group_id</text><text x="1241.04" y="1065.484" fill="#D9B8FF" font-family="sans-serif" font-size="11" textLength="41">: string</text><text x="1061.04" y="1088.289" fill="#D9B8FF" font-family="sans-serif" font-size="11" font-weight="bold" textLength="208">cluster_snapshot_retention_limit</text><text x="1269.04" y="1088.289" fill="#D9B8FF" font-family="sans-serif" font-size="11" textLength="36">: int64</text><text x="1061.04" y="1111.093" fill="#D9B8FF" font-family="sans-serif" font-size="11" font-weight="bold" textLength="165">cluster_snapshot_window</text><text x="1226.04" y="1111.093" fill="#D9B8FF" font-family="sans-serif" font-size="11" textLength="41">: string</text><text x="1061.04" y="1133.898" fill="#D9B8FF" font-family="sans-serif" font-size="11" font-weight="bold" textLength="179">cluster_auth_token_enabled</text><text x="1240.04" y="1133.898" fill="#D9B8FF" font-family="sans-serif" font-size="11" textLength="53">: boolean</text><text x="1061.04" y="1156.703" fill="#D9B8FF" font-family="sans-serif" font-size="11" font-weight="bold" textLength="248">cluster_auth_token_last_modified_date</text><text x="1309.04" y="1156.703" fill="#D9B8FF" font-family="sans-serif" font-size="11" textLength="58">: datetime</text><text x="1061.04" y="1179.507" fill="#D9B8FF" font-family="sans-serif" font-size="11" font-weight="bold" textLength="224">cluster_transit_encryption_enabled</text><text x="1285.04" y="1179.507" fill="#D9B8FF" font-family="sans-serif" font-size="11" textLength="53">: boolean</text><text x="1061.04" y="1202.312" fill="#D9B8FF" font-family="sans-serif" font-size="11" font-weight="bold" textLength="226">cluster_at_rest_encryption_enabled</text><text x="1287.04" y="1202.312" fill="#D9B8FF" font-family="sans-serif" font-size="11" textLength="53">: boolean</text><text x="1061.04" y="1225.117" fill="#D9B8FF" font-family="sans-serif" font-size="11" font-weight="bold" textLength="303">cluster_replication_group_log_delivery_enabled</text><text x="1364.04" y="1225.117" fill="#D9B8FF" font-family="sans-serif" font-size="11" textLength="53">: boolean</text><text x="1061.04" y="1247.921" fill="#D9B8FF" font-family="sans-serif" font-size="11" font-weight="bold" textLength="226">cluster_log_delivery_configurations</text><text x="1287.04" y="1247.921" fill="#D9B8FF" font-family="sans-serif" font-size="11" textLength="262">: aws_elasticache_log_delivery_configuration[]</text></a><a xlink:actuate="onRequest" xlink:href="#k" xlink:show="new" xlink:title="#aws_elasticache_notification_configuration" xlink:type="simple" target="_top"><rect id="k" width="400" height="93.398" x="1466.54" y="1388.5" fill="#3D176E" rx="2.5" ry="2.5" style="stroke:#000d19;stroke-width:1.5"/><circle cx="1481.54" cy="1408.395" r="11" fill="#E98DF7" style="stroke:#000d19;stroke-width:1"/><path d="M1484.509 1414.035q-.578.297-1.219.438-.64.156-1.344.156-2.5 0-3.828-1.64-1.312-1.657-1.312-4.782t1.312-4.781q1.328-1.656 3.828-1.656.703 0 1.344.156.656.156 1.219.453v2.719q-.625-.578-1.219-.844-.594-.281-1.219-.281-1.343 0-2.031 1.078-.688 1.062-.688 3.156 0 2.094.688 3.172.688 1.062 2.031 1.062.625 0 1.219-.265.594-.281 1.219-.86v2.72Z"/><text x="1500.54" y="1414.28" fill="#D9B8FF" font-family="Helvetica" font-size="17" textLength="358">aws_elasticache_notification_configuration</text><path d="M1467.54 1428.289h398" style="stroke:#000d19;stroke-width:1.5"/><text x="1477.54" y="1447.499" fill="#D9B8FF" font-family="sans-serif" font-size="11" font-weight="bold" textLength="59">topic_arn</text><text x="1536.54" y="1447.499" fill="#D9B8FF" font-family="sans-serif" font-size="11" textLength="41">: string</text><text x="1477.54" y="1470.304" fill="#D9B8FF" font-family="sans-serif" font-size="11" font-weight="bold" textLength="78">topic_status</text><text x="1555.54" y="1470.304" fill="#D9B8FF" font-family="sans-serif" font-size="11" textLength="41">: string</text></a><a xlink:actuate="onRequest" xlink:href="#l" xlink:show="new" xlink:title="#aws_elasticache_cache_node" xlink:type="simple" target="_top"><rect id="l" width="282" height="230.227" x="1078.54" y="1320" fill="#3D176E" rx="2.5" ry="2.5" style="stroke:#000d19;stroke-width:1.5"/><circle cx="1093.54" cy="1339.895" r="11" fill="#E98DF7" style="stroke:#000d19;stroke-width:1"/><path d="M1096.509 1345.535q-.578.297-1.219.438-.64.156-1.344.156-2.5 0-3.828-1.64-1.312-1.657-1.312-4.782t1.312-4.781q1.328-1.656 3.828-1.656.703 0 1.344.156.656.156 1.219.453v2.719q-.625-.578-1.219-.844-.594-.281-1.219-.281-1.343 0-2.031 1.078-.688 1.062-.688 3.156 0 2.094.688 3.172.688 1.062 2.031 1.062.625 0 1.219-.265.594-.281 1.219-.86v2.72Z"/><text x="1112.54" y="1345.78" fill="#D9B8FF" font-family="Helvetica" font-size="17" textLength="240">aws_elasticache_cache_node</text><path d="M1079.54 1359.789h280" style="stroke:#000d19;stroke-width:1.5"/><text x="1089.54" y="1378.999" fill="#D9B8FF" font-family="sans-serif" font-size="11" font-weight="bold" textLength="94">cache_node_id</text><text x="1183.54" y="1378.999" fill="#D9B8FF" font-family="sans-serif" font-size="11" textLength="41">: string</text><text x="1089.54" y="1401.804" fill="#D9B8FF" font-family="sans-serif" font-size="11" font-weight="bold" textLength="122">cache_node_status</text><text x="1211.54" y="1401.804" fill="#D9B8FF" font-family="sans-serif" font-size="11" textLength="41">: string</text><text x="1089.54" y="1424.609" fill="#D9B8FF" font-family="sans-serif" font-size="11" font-weight="bold" textLength="157">cache_node_create_time</text><text x="1246.54" y="1424.609" fill="#D9B8FF" font-family="sans-serif" font-size="11" textLength="58">: datetime</text><text x="1089.54" y="1447.414" fill="#D9B8FF" font-family="sans-serif" font-size="11" font-weight="bold" textLength="57">endpoint</text><text x="1146.54" y="1447.414" fill="#D9B8FF" font-family="sans-serif" font-size="11" textLength="156">: aws_elasticache_endpoint</text><text x="1089.54" y="1470.218" fill="#D9B8FF" font-family="sans-serif" font-size="11" font-weight="bold" textLength="155">parameter_group_status</text><text x="1244.54" y="1470.218" fill="#D9B8FF" font-family="sans-serif" font-size="11" textLength="41">: string</text><text x="1089.54" y="1493.023" fill="#D9B8FF" font-family="sans-serif" font-size="11" font-weight="bold" textLength="143">source_cache_node_id</text><text x="1232.54" y="1493.023" fill="#D9B8FF" font-family="sans-serif" font-size="11" textLength="41">: string</text><text x="1089.54" y="1515.828" fill="#D9B8FF" font-family="sans-serif" font-size="11" font-weight="bold" textLength="173">customer_availability_zone</text><text x="1262.54" y="1515.828" fill="#D9B8FF" font-family="sans-serif" font-size="11" textLength="41">: string</text><text x="1089.54" y="1538.632" fill="#D9B8FF" font-family="sans-serif" font-size="11" font-weight="bold" textLength="141">customer_outpost_arn</text><text x="1230.54" y="1538.632" fill="#D9B8FF" font-family="sans-serif" font-size="11" textLength="41">: string</text></a><a xlink:actuate="onRequest" xlink:href="#m" xlink:show="new" xlink:title="#aws_elasticache_security_group_membership" xlink:type="simple" target="_top"><rect id="m" width="422" height="93.398" x="2448.54" y="1388.5" fill="#3D176E" rx="2.5" ry="2.5" style="stroke:#000d19;stroke-width:1.5"/><circle cx="2463.54" cy="1408.395" r="11" fill="#E98DF7" style="stroke:#000d19;stroke-width:1"/><path d="M2466.509 1414.035q-.578.297-1.219.438-.64.156-1.344.156-2.5 0-3.828-1.64-1.312-1.657-1.312-4.782t1.312-4.781q1.328-1.656 3.828-1.656.703 0 1.344.156.656.156 1.219.453v2.719q-.625-.578-1.219-.844-.594-.281-1.219-.281-1.343 0-2.031 1.078-.688 1.062-.688 3.156 0 2.094.688 3.172.688 1.062 2.031 1.062.625 0 1.219-.265.594-.281 1.219-.86v2.72Z"/><text x="2482.54" y="1414.28" fill="#D9B8FF" font-family="Helvetica" font-size="17" textLength="380">aws_elasticache_security_group_membership</text><path d="M2449.54 1428.289h420" style="stroke:#000d19;stroke-width:1.5"/><text x="2459.54" y="1447.499" fill="#D9B8FF" font-family="sans-serif" font-size="11" font-weight="bold" textLength="112">security_group_id</text><text x="2571.54" y="1447.499" fill="#D9B8FF" font-family="sans-serif" font-size="11" textLength="41">: string</text><text x="2459.54" y="1470.304" fill="#D9B8FF" font-family="sans-serif" font-size="11" font-weight="bold" textLength="40">status</text><text x="2499.54" y="1470.304" fill="#D9B8FF" font-family="sans-serif" font-size="11" textLength="41">: string</text></a><path fill="none" d="M1316.54 303.43V403.9M1309.54 303.26l7-20 7 20h-14zM2099.14 1527.74c-20.91 32.86-44.19 69.43-63.98 100.52" style="stroke:#ffaf37;stroke-width:2"/><path fill="#FFAF37" d="m2032.27 1632.8 8.202-5.453-5.521 1.232-1.232-5.52-1.449 9.741z" style="stroke:#ffaf37;stroke-width:2"/><path fill="none" d="M1747.33 1748.2c-196.33 36.39-468.88 86.9-645.29 119.59" style="stroke:#ffaf37;stroke-width:2"/><path fill="#FFAF37" d="m1097.11 1868.7 9.573 2.313-4.655-3.214 3.214-4.655-8.132 5.556z" style="stroke:#ffaf37;stroke-width:2"/><path fill="none" d="M718.44 1795.08c39.11 19.9 78.95 40.19 113.12 57.58" style="stroke:#ffaf37;stroke-width:2"/><path fill="#FFAF37" d="m836.12 1854.98-6.193-7.658 1.741 5.382-5.382 1.74 9.834.536z" style="stroke:#ffaf37;stroke-width:2"/><path fill="none" d="M1316.54 495.41v100.54M1309.54 495.1l7-20 7 20h-14zM1384.38 1260.19c9.76 94.18 11.24 196.48-6.84 289.81-6.81 35.14-21.74 72.47-35.12 101.28" style="stroke:#ffaf37;stroke-width:2"/><path fill="#FFAF37" d="m1340.28 1655.83 7.432-6.463-5.317 1.932-1.932-5.316-.183 9.847z" style="stroke:#ffaf37;stroke-width:2"/><path fill="none" d="M1583.21 1089.13c137.39 82.5 300.2 180.26 417.32 250.59" style="stroke:#ffaf37;stroke-width:2"/><path fill="#FFAF37" d="m2005.03 1342.42-5.66-8.06 1.373 5.488-5.488 1.371 9.775 1.201z" style="stroke:#ffaf37;stroke-width:2"/><path fill="none" d="M1546.09 1260.21c33.42 48.21 63.89 92.18 85.82 123.82" style="stroke:#ffaf37;stroke-width:2"/><path fill="#FFAF37" d="m1634.81 1388.22-1.848-9.674-1.004 5.567-5.567-1.004 8.419 5.111z" style="stroke:#ffaf37;stroke-width:2"/><path fill="none" d="M1049.78 1064.66c-209.27 106.43-488.41 248.39-632.04 321.43" style="stroke:#ffaf37;stroke-width:2"/><path fill="#FFAF37" d="m413.11 1388.45 9.835-.523-5.38-1.747 1.748-5.38-6.203 7.65z" style="stroke:#ffaf37;stroke-width:2"/><path fill="none" d="M1050.03 1200.35c-63.86 65.01-126.07 128.35-169.58 172.65" style="stroke:#ffaf37;stroke-width:2"/><path fill="#FFAF37" d="m876.83 1376.69 9.17-3.591-5.656.034-.034-5.657-3.48 9.214z" style="stroke:#ffaf37;stroke-width:2"/><path fill="none" d="M1252.92 1260.21c-3.62 18.87-7.12 37.09-10.4 54.17" style="stroke:#ffaf37;stroke-width:2"/><path fill="#FFAF37" d="m1241.5 1319.64 5.624-8.085-4.682 3.175-3.175-4.683 2.233 9.593z" style="stroke:#ffaf37;stroke-width:2"/><path fill="none" d="M1583.12 1012.23c227.91 73.59 563.14 187.67 847.42 307.77 46.77 19.76 97.44 44.61 139.2 66.06" style="stroke:#ffaf37;stroke-width:2"/><path fill="#FFAF37" d="m2574.27 1388.39-6.154-7.69 1.714 5.391-5.391 1.714 9.831.585z" style="stroke:#ffaf37;stroke-width:2"/><path fill="none" d="M1050.01 974.59C719.06 1037.25 183.69 1160.6 66.54 1320c-60.54 82.37-60.23 147.41 0 230 32.79 44.96 152.91 83.16 263.76 109.96" style="stroke:#ffaf37;stroke-width:2"/><path fill="#FFAF37" d="m335.23 1661.14-7.815-5.993 2.954 4.824-4.825 2.954 9.686-1.785z" style="stroke:#ffaf37;stroke-width:2"/><path fill="none" d="M1261.24 1550.14c12.86 35.2 26.38 72.19 36.82 100.79" style="stroke:#ffaf37;stroke-width:2"/><path fill="#FFAF37" d="m1299.85 1655.81.638-9.828-2.369 5.137-5.137-2.368 6.868 7.059z" style="stroke:#ffaf37;stroke-width:2"/></svg>