<svg xmlns="http://www.w3.org/2000/svg" xmlns:xlink="http://www.w3.org/1999/xlink" width="3533" height="352" preserveAspectRatio="none" style="width:3533px;height:352px;background:#00000000"><a xlink:actuate="onRequest" xlink:href="#a" xlink:show="new" xlink:title="#aws_sagemaker_inference_recommendations_job" xlink:type="simple" target="_top"><rect id="a" width="457" height="39.789" x="7" y="107" fill="#3D176E" rx="2.5" ry="2.5" style="stroke:#000d19;stroke-width:1.5"/><circle cx="22" cy="126.894" r="11" fill="#E98DF7" style="stroke:#000d19;stroke-width:1"/><path d="M24.969 132.535q-.578.297-1.219.438-.64.156-1.344.156-2.5 0-3.828-1.64-1.312-1.657-1.312-4.782t1.312-4.781q1.328-1.657 3.828-1.657.703 0 1.344.157.656.156 1.219.453v2.719q-.625-.579-1.219-.844-.594-.281-1.219-.281-1.343 0-2.031 1.078-.688 1.062-.688 3.156 0 2.094.688 3.172.688 1.062 2.031 1.062.625 0 1.219-.265.594-.281 1.219-.86v2.72Z"/><text x="41" y="132.78" fill="#D9B8FF" font-family="Helvetica" font-size="17" textLength="415">aws_sagemaker_inference_recommendations_job</text></a><a xlink:actuate="onRequest" xlink:href="#b" xlink:show="new" xlink:title="#aws_sagemaker_auto_ml_job" xlink:type="simple" target="_top"><rect id="b" width="288" height="39.789" x="1922.5" y="7" fill="#3D176E" rx="2.5" ry="2.5" style="stroke:#000d19;stroke-width:1.5"/><circle cx="1937.5" cy="26.895" r="11" fill="#E98DF7" style="stroke:#000d19;stroke-width:1"/><path d="M1940.469 32.535q-.578.297-1.219.438-.64.156-1.344.156-2.5 0-3.828-1.64-1.312-1.657-1.312-4.782t1.312-4.781q1.328-1.656 3.828-1.656.703 0 1.344.156.656.156 1.219.453v2.719q-.625-.578-1.219-.844-.594-.281-1.219-.281-1.343 0-2.031 1.078-.688 1.062-.688 3.156 0 2.094.688 3.172.688 1.062 2.031 1.062.625 0 1.219-.265.594-.281 1.219-.86v2.72Z"/><text x="1956.5" y="32.78" fill="#D9B8FF" font-family="Helvetica" font-size="17" textLength="246">aws_sagemaker_auto_ml_job</text></a><a xlink:actuate="onRequest" xlink:href="#c" xlink:show="new" xlink:title="#aws_sagemaker_labeling_job" xlink:type="simple" target="_top"><rect id="c" width="285" height="39.789" x="1142" y="107" fill="#3D176E" rx="2.5" ry="2.5" style="stroke:#000d19;stroke-width:1.5"/><circle cx="1157" cy="126.894" r="11" fill="#E98DF7" style="stroke:#000d19;stroke-width:1"/><path d="M1159.969 132.535q-.578.297-1.219.438-.64.156-1.344.156-2.5 0-3.828-1.64-1.312-1.657-1.312-4.782t1.312-4.781q1.328-1.657 3.828-1.657.703 0 1.344.157.656.156 1.219.453v2.719q-.625-.579-1.219-.844-.594-.281-1.219-.281-1.343 0-2.031 1.078-.688 1.062-.688 3.156 0 2.094.688 3.172.688 1.062 2.031 1.062.625 0 1.219-.265.594-.281 1.219-.86v2.72Z"/><text x="1176" y="132.78" fill="#D9B8FF" font-family="Helvetica" font-size="17" textLength="243">aws_sagemaker_labeling_job</text></a><a xlink:actuate="onRequest" xlink:href="#d" xlink:show="new" xlink:title="#aws_sagemaker_hyper_parameter_tuning_job" xlink:type="simple" target="_top"><rect id="d" width="428" height="39.789" x="1637.5" y="107" fill="#3D176E" rx="2.5" ry="2.5" style="stroke:#000d19;stroke-width:1.5"/><circle cx="1652.5" cy="126.894" r="11" fill="#E98DF7" style="stroke:#000d19;stroke-width:1"/><path d="M1655.469 132.535q-.578.297-1.219.438-.64.156-1.344.156-2.5 0-3.828-1.64-1.312-1.657-1.312-4.782t1.312-4.781q1.328-1.657 3.828-1.657.703 0 1.344.157.656.156 1.219.453v2.719q-.625-.579-1.219-.844-.594-.281-1.219-.281-1.343 0-2.031 1.078-.688 1.062-.688 3.156 0 2.094.688 3.172.688 1.062 2.031 1.062.625 0 1.219-.265.594-.281 1.219-.86v2.72Z"/><text x="1671.5" y="132.78" fill="#D9B8FF" font-family="Helvetica" font-size="17" textLength="386">aws_sagemaker_hyper_parameter_tuning_job</text></a><a xlink:actuate="onRequest" xlink:href="#e" xlink:show="new" xlink:title="#aws_sagemaker_model" xlink:type="simple" target="_top"><rect id="e" width="237" height="39.789" x="785" y="7" fill="#3D176E" rx="2.5" ry="2.5" style="stroke:#000d19;stroke-width:1.5"/><circle cx="800" cy="26.895" r="11" fill="#E98DF7" style="stroke:#000d19;stroke-width:1"/><path d="M802.969 32.535q-.578.297-1.219.438-.64.156-1.344.156-2.5 0-3.828-1.64-1.312-1.657-1.312-4.782t1.312-4.781q1.328-1.656 3.828-1.656.703 0 1.344.156.656.156 1.219.453v2.719q-.625-.578-1.219-.844-.594-.281-1.219-.281-1.343 0-2.031 1.078-.688 1.062-.688 3.156 0 2.094.688 3.172.688 1.062 2.031 1.062.625 0 1.219-.265.594-.281 1.219-.86v2.72Z"/><text x="819" y="32.78" fill="#D9B8FF" font-family="Helvetica" font-size="17" textLength="195">aws_sagemaker_model</text></a><a xlink:actuate="onRequest" xlink:href="#f" xlink:show="new" xlink:title="#aws_sagemaker_edge_packaging_job" xlink:type="simple" target="_top"><rect id="f" width="352" height="39.789" x="612.5" y="107" fill="#3D176E" rx="2.5" ry="2.5" style="stroke:#000d19;stroke-width:1.5"/><circle cx="627.5" cy="126.894" r="11" fill="#E98DF7" style="stroke:#000d19;stroke-width:1"/><path d="M630.469 132.535q-.578.297-1.219.438-.64.156-1.344.156-2.5 0-3.828-1.64-1.312-1.657-1.312-4.782t1.312-4.781q1.328-1.657 3.828-1.657.703 0 1.344.157.656.156 1.219.453v2.719q-.625-.579-1.219-.844-.594-.281-1.219-.281-1.343 0-2.031 1.078-.688 1.062-.688 3.156 0 2.094.688 3.172.688 1.062 2.031 1.062.625 0 1.219-.265.594-.281 1.219-.86v2.72Z"/><text x="646.5" y="132.78" fill="#D9B8FF" font-family="Helvetica" font-size="17" textLength="310">aws_sagemaker_edge_packaging_job</text></a><a xlink:actuate="onRequest" xlink:href="#g" xlink:show="new" xlink:title="#aws_sagemaker_training_job" xlink:type="simple" target="_top"><rect id="g" width="285" height="39.789" x="1196" y="207" fill="#3D176E" rx="2.5" ry="2.5" style="stroke:#000d19;stroke-width:1.5"/><circle cx="1211" cy="226.894" r="11" fill="#E98DF7" style="stroke:#000d19;stroke-width:1"/><path d="M1213.969 232.535q-.578.297-1.219.438-.64.156-1.344.156-2.5 0-3.828-1.64-1.312-1.657-1.312-4.782t1.312-4.781q1.328-1.656 3.828-1.656.703 0 1.344.156.656.156 1.219.453v2.719q-.625-.579-1.219-.844-.594-.281-1.219-.281-1.343 0-2.031 1.078-.688 1.062-.688 3.156 0 2.094.688 3.172.688 1.062 2.031 1.062.625 0 1.219-.265.594-.281 1.219-.86v2.72Z"/><text x="1230" y="232.78" fill="#D9B8FF" font-family="Helvetica" font-size="17" textLength="243">aws_sagemaker_training_job</text></a><a xlink:actuate="onRequest" xlink:href="#h" xlink:show="new" xlink:title="#aws_sagemaker_compilation_job" xlink:type="simple" target="_top"><rect id="h" width="317" height="39.789" x="1516" y="207" fill="#3D176E" rx="2.5" ry="2.5" style="stroke:#000d19;stroke-width:1.5"/><circle cx="1531" cy="226.894" r="11" fill="#E98DF7" style="stroke:#000d19;stroke-width:1"/><path d="M1533.969 232.535q-.578.297-1.219.438-.64.156-1.344.156-2.5 0-3.828-1.64-1.312-1.657-1.312-4.782t1.312-4.781q1.328-1.656 3.828-1.656.703 0 1.344.156.656.156 1.219.453v2.719q-.625-.579-1.219-.844-.594-.281-1.219-.281-1.343 0-2.031 1.078-.688 1.062-.688 3.156 0 2.094.688 3.172.688 1.062 2.031 1.062.625 0 1.219-.265.594-.281 1.219-.86v2.72Z"/><text x="1550" y="232.78" fill="#D9B8FF" font-family="Helvetica" font-size="17" textLength="275">aws_sagemaker_compilation_job</text></a><a xlink:actuate="onRequest" xlink:href="#i" xlink:show="new" xlink:title="#aws_sagemaker_processing_job" xlink:type="simple" target="_top"><rect id="i" width="306" height="39.789" x="2770.5" y="107" fill="#3D176E" rx="2.5" ry="2.5" style="stroke:#000d19;stroke-width:1.5"/><circle cx="2785.5" cy="126.894" r="11" fill="#E98DF7" style="stroke:#000d19;stroke-width:1"/><path d="M2788.469 132.535q-.578.297-1.219.438-.64.156-1.344.156-2.5 0-3.828-1.64-1.312-1.657-1.312-4.782t1.312-4.781q1.328-1.657 3.828-1.657.703 0 1.344.157.656.156 1.219.453v2.719q-.625-.579-1.219-.844-.594-.281-1.219-.281-1.343 0-2.031 1.078-.688 1.062-.688 3.156 0 2.094.688 3.172.688 1.062 2.031 1.062.625 0 1.219-.265.594-.281 1.219-.86v2.72Z"/><text x="2804.5" y="132.78" fill="#D9B8FF" font-family="Helvetica" font-size="17" textLength="264">aws_sagemaker_processing_job</text></a><a xlink:actuate="onRequest" xlink:href="#j" xlink:show="new" xlink:title="#aws_sagemaker_domain" xlink:type="simple" target="_top"><rect id="j" width="248" height="39.789" x="1939.5" y="207" fill="#3D176E" rx="2.5" ry="2.5" style="stroke:#000d19;stroke-width:1.5"/><circle cx="1954.5" cy="226.894" r="11" fill="#E98DF7" style="stroke:#000d19;stroke-width:1"/><path d="M1957.469 232.535q-.578.297-1.219.438-.64.156-1.344.156-2.5 0-3.828-1.64-1.312-1.657-1.312-4.782t1.312-4.781q1.328-1.656 3.828-1.656.703 0 1.344.156.656.156 1.219.453v2.719q-.625-.579-1.219-.844-.594-.281-1.219-.281-1.343 0-2.031 1.078-.688 1.062-.688 3.156 0 2.094.688 3.172.688 1.062 2.031 1.062.625 0 1.219-.265.594-.281 1.219-.86v2.72Z"/><text x="1973.5" y="232.78" fill="#D9B8FF" font-family="Helvetica" font-size="17" textLength="206">aws_sagemaker_domain</text></a><a xlink:actuate="onRequest" xlink:href="#k" xlink:show="new" xlink:title="#aws_cloudfront_distribution" xlink:type="simple" target="_top"><rect id="k" width="274" height="39.789" x="2222.5" y="207" fill="#3D176E" rx="2.5" ry="2.5" style="stroke:#000d19;stroke-width:1.5"/><circle cx="2237.5" cy="226.894" r="11" fill="#E98DF7" style="stroke:#000d19;stroke-width:1"/><path d="M2240.469 232.535q-.578.297-1.219.438-.64.156-1.344.156-2.5 0-3.828-1.64-1.312-1.657-1.312-4.782t1.312-4.781q1.328-1.656 3.828-1.656.703 0 1.344.156.656.156 1.219.453v2.719q-.625-.579-1.219-.844-.594-.281-1.219-.281-1.343 0-2.031 1.078-.688 1.062-.688 3.156 0 2.094.688 3.172.688 1.062 2.031 1.062.625 0 1.219-.265.594-.281 1.219-.86v2.72Z"/><text x="2256.5" y="232.78" fill="#D9B8FF" font-family="Helvetica" font-size="17" textLength="232">aws_cloudfront_distribution</text></a><a xlink:actuate="onRequest" xlink:href="#l" xlink:show="new" xlink:title="#aws_ec2_flow_log" xlink:type="simple" target="_top"><rect id="l" width="192" height="39.789" x="2531.5" y="207" fill="#3D176E" rx="2.5" ry="2.5" style="stroke:#000d19;stroke-width:1.5"/><circle cx="2546.5" cy="226.894" r="11" fill="#E98DF7" style="stroke:#000d19;stroke-width:1"/><path d="M2549.469 232.535q-.578.297-1.219.438-.64.156-1.344.156-2.5 0-3.828-1.64-1.312-1.657-1.312-4.782t1.312-4.781q1.328-1.656 3.828-1.656.703 0 1.344.156.656.156 1.219.453v2.719q-.625-.579-1.219-.844-.594-.281-1.219-.281-1.343 0-2.031 1.078-.688 1.062-.688 3.156 0 2.094.688 3.172.688 1.062 2.031 1.062.625 0 1.219-.265.594-.281 1.219-.86v2.72Z"/><text x="2565.5" y="232.78" fill="#D9B8FF" font-family="Helvetica" font-size="17" textLength="150">aws_ec2_flow_log</text></a><a xlink:actuate="onRequest" xlink:href="#m" xlink:show="new" xlink:title="#aws_s3_bucket" xlink:type="simple" target="_top"><rect id="m" width="168" height="39.789" x="1890.5" y="307" fill="#3D176E" rx="2.5" ry="2.5" style="stroke:#000d19;stroke-width:1.5"/><circle cx="1905.5" cy="326.894" r="11" fill="#E98DF7" style="stroke:#000d19;stroke-width:1"/><path d="M1908.469 332.535q-.578.297-1.219.438-.64.156-1.344.156-2.5 0-3.828-1.64-1.312-1.657-1.312-4.782t1.312-4.781q1.328-1.656 3.828-1.656.703 0 1.344.156.656.156 1.219.453v2.719q-.625-.579-1.219-.844-.594-.281-1.219-.281-1.343 0-2.031 1.078-.688 1.062-.688 3.156 0 2.094.688 3.172.688 1.062 2.031 1.062.625 0 1.219-.265.594-.281 1.219-.86v2.72Z"/><text x="1924.5" y="332.78" fill="#D9B8FF" font-family="Helvetica" font-size="17" textLength="126">aws_s3_bucket</text></a><a xlink:actuate="onRequest" xlink:href="#n" xlink:show="new" xlink:title="#aws_athena_work_group" xlink:type="simple" target="_top"><rect id="n" width="251" height="39.789" x="2901" y="7" fill="#3D176E" rx="2.5" ry="2.5" style="stroke:#000d19;stroke-width:1.5"/><circle cx="2916" cy="26.895" r="11" fill="#E98DF7" style="stroke:#000d19;stroke-width:1"/><path d="M2918.969 32.535q-.578.297-1.219.438-.64.156-1.344.156-2.5 0-3.828-1.64-1.312-1.657-1.312-4.782t1.312-4.781q1.328-1.656 3.828-1.656.703 0 1.344.156.656.156 1.219.453v2.719q-.625-.578-1.219-.844-.594-.281-1.219-.281-1.343 0-2.031 1.078-.688 1.062-.688 3.156 0 2.094.688 3.172.688 1.062 2.031 1.062.625 0 1.219-.265.594-.281 1.219-.86v2.72Z"/><text x="2935" y="32.78" fill="#D9B8FF" font-family="Helvetica" font-size="17" textLength="209">aws_athena_work_group</text></a><a xlink:actuate="onRequest" xlink:href="#o" xlink:show="new" xlink:title="#aws_ecs_cluster" xlink:type="simple" target="_top"><rect id="o" width="175" height="39.789" x="2830" y="207" fill="#3D176E" rx="2.5" ry="2.5" style="stroke:#000d19;stroke-width:1.5"/><circle cx="2845" cy="226.894" r="11" fill="#E98DF7" style="stroke:#000d19;stroke-width:1"/><path d="M2847.969 232.535q-.578.297-1.219.438-.64.156-1.344.156-2.5 0-3.828-1.64-1.312-1.657-1.312-4.782t1.312-4.781q1.328-1.656 3.828-1.656.703 0 1.344.156.656.156 1.219.453v2.719q-.625-.579-1.219-.844-.594-.281-1.219-.281-1.343 0-2.031 1.078-.688 1.062-.688 3.156 0 2.094.688 3.172.688 1.062 2.031 1.062.625 0 1.219-.265.594-.281 1.219-.86v2.72Z"/><text x="2864" y="232.78" fill="#D9B8FF" font-family="Helvetica" font-size="17" textLength="133">aws_ecs_cluster</text></a><a xlink:actuate="onRequest" xlink:href="#p" xlink:show="new" xlink:title="#aws_sagemaker_endpoint" xlink:type="simple" target="_top"><rect id="p" width="259" height="39.789" x="247" y="207" fill="#3D176E" rx="2.5" ry="2.5" style="stroke:#000d19;stroke-width:1.5"/><circle cx="262" cy="226.894" r="11" fill="#E98DF7" style="stroke:#000d19;stroke-width:1"/><path d="M264.969 232.535q-.578.297-1.219.438-.64.156-1.344.156-2.5 0-3.828-1.64-1.312-1.657-1.312-4.782t1.312-4.781q1.328-1.656 3.828-1.656.703 0 1.344.156.656.156 1.219.453v2.719q-.625-.579-1.219-.844-.594-.281-1.219-.281-1.344 0-2.031 1.078-.688 1.062-.688 3.156 0 2.094.688 3.172.688 1.062 2.031 1.062.625 0 1.219-.265.594-.281 1.219-.86v2.72Z"/><text x="281" y="232.78" fill="#D9B8FF" font-family="Helvetica" font-size="17" textLength="217">aws_sagemaker_endpoint</text></a><a xlink:actuate="onRequest" xlink:href="#q" xlink:show="new" xlink:title="#aws_sagemaker_transform_job" xlink:type="simple" target="_top"><rect id="q" width="302" height="39.789" x="787.5" y="207" fill="#3D176E" rx="2.5" ry="2.5" style="stroke:#000d19;stroke-width:1.5"/><circle cx="802.5" cy="226.894" r="11" fill="#E98DF7" style="stroke:#000d19;stroke-width:1"/><path d="M805.469 232.535q-.578.297-1.219.438-.64.156-1.344.156-2.5 0-3.828-1.64-1.312-1.657-1.312-4.782t1.312-4.781q1.328-1.656 3.828-1.656.703 0 1.344.156.656.156 1.219.453v2.719q-.625-.579-1.219-.844-.594-.281-1.219-.281-1.343 0-2.031 1.078-.688 1.062-.688 3.156 0 2.094.688 3.172.688 1.062 2.031 1.062.625 0 1.219-.265.594-.281 1.219-.86v2.72Z"/><text x="821.5" y="232.78" fill="#D9B8FF" font-family="Helvetica" font-size="17" textLength="260">aws_sagemaker_transform_job</text></a><a xlink:actuate="onRequest" xlink:href="#r" xlink:show="new" xlink:title="#aws_region" xlink:type="simple" target="_top"><rect id="r" width="137" height="39.789" x="3183" y="207" fill="#3D176E" rx="2.5" ry="2.5" style="stroke:#000d19;stroke-width:1.5"/><circle cx="3198" cy="226.894" r="11" fill="#E98DF7" style="stroke:#000d19;stroke-width:1"/><path d="M3200.969 232.535q-.578.297-1.219.438-.64.156-1.344.156-2.5 0-3.828-1.64-1.312-1.657-1.312-4.782t1.312-4.781q1.328-1.656 3.828-1.656.703 0 1.344.156.656.156 1.219.453v2.719q-.625-.579-1.219-.844-.594-.281-1.219-.281-1.343 0-2.031 1.078-.688 1.062-.688 3.156 0 2.094.688 3.172.688 1.062 2.031 1.062.625 0 1.219-.265.594-.281 1.219-.86v2.72Z"/><text x="3217" y="232.78" fill="#D9B8FF" font-family="Helvetica" font-size="17" textLength="95">aws_region</text></a><a xlink:actuate="onRequest" xlink:href="#s" xlink:show="new" xlink:title="#aws_cloud_trail" xlink:type="simple" target="_top"><rect id="s" width="171" height="39.789" x="3355" y="207" fill="#3D176E" rx="2.5" ry="2.5" style="stroke:#000d19;stroke-width:1.5"/><circle cx="3370" cy="226.894" r="11" fill="#E98DF7" style="stroke:#000d19;stroke-width:1"/><path d="M3372.969 232.535q-.578.297-1.219.438-.64.156-1.344.156-2.5 0-3.828-1.64-1.312-1.657-1.312-4.782t1.312-4.781q1.328-1.656 3.828-1.656.703 0 1.344.156.656.156 1.219.453v2.719q-.625-.579-1.219-.844-.594-.281-1.219-.281-1.343 0-2.031 1.078-.688 1.062-.688 3.156 0 2.094.688 3.172.688 1.062 2.031 1.062.625 0 1.219-.265.594-.281 1.219-.86v2.72Z"/><text x="3389" y="232.78" fill="#D9B8FF" font-family="Helvetica" font-size="17" textLength="129">aws_cloud_trail</text></a><path fill="none" d="M263.02 147.13c23.49 16.32 57.26 39.8 81.86 56.89" style="stroke:#1a83af;stroke-width:2"/><path fill="#1A83AF" d="m349.05 206.92-5.097-8.427.995 5.568-5.569.995 9.671 1.864z" style="stroke:#1a83af;stroke-width:2"/><path fill="none" d="M226.91 147.44c-10.16 26.34-22.71 73.09 2.59 99.56 57.68 60.35 1307.56 75.33 1655.7 78.34" style="stroke:#1a83af;stroke-width:2"/><path fill="#1A83AF" d="m1890.26 325.38-8.965-4.077 3.965 4.034-4.034 3.966 9.034-3.923z" style="stroke:#1a83af;stroke-width:2"/><path fill="none" d="M2194.69 47.06C2411.22 81.93 2818.64 160.39 2740.5 247c-44.63 49.47-484.28 69.8-676.65 76.37" style="stroke:#1a83af;stroke-width:2"/><path fill="#1A83AF" d="m2058.79 323.55 9.132 3.69-4.135-3.861 3.86-4.135-8.857 4.306z" style="stroke:#1a83af;stroke-width:2"/><path fill="none" d="M1922.42 45.05c-88.54 12.54-203.64 32.57-302.92 61.95-87.53 25.91-184.53 70.85-238.6 97.46" style="stroke:#1a83af;stroke-width:2"/><path fill="#1A83AF" d="m1376.13 206.82 9.84-.397-5.357-1.816 1.817-5.357-6.3 7.57z" style="stroke:#1a83af;stroke-width:2"/><path fill="none" d="M1922.5 31.63c-226.3 7.11-654.21 26.69-798 75.37-62.98 21.32-126 68.38-160.1 96.51" style="stroke:#1a83af;stroke-width:2"/><path fill="#1A83AF" d="m960.39 206.84 9.482-2.665-5.633-.526.527-5.632-4.376 8.823z" style="stroke:#1a83af;stroke-width:2"/><path fill="none" d="M2210.91 44.51c153.49 17.56 395.48 45.23 554.13 63.37" style="stroke:#1a83af;stroke-width:2"/><path fill="#1A83AF" d="m2770.17 108.47-8.484-5.002 3.517 4.431-4.43 3.517 9.397-2.946z" style="stroke:#1a83af;stroke-width:2"/><path fill="none" d="M1246.7 147.05c-41.99 23.57-99.96 64.88-68.2 99.95 46.72 51.59 508.41 70.83 706.49 76.74" style="stroke:#1a83af;stroke-width:2"/><path fill="#1A83AF" d="m1890.2 323.9-8.882-4.255 3.884 4.112-4.113 3.884 9.111-3.741z" style="stroke:#1a83af;stroke-width:2"/><path fill="none" d="M1295.17 147.36c8.65 15.71 20.89 37.92 30.15 54.73" style="stroke:#1a83af;stroke-width:2"/><path fill="#1A83AF" d="m1327.85 206.68-.85-9.812-1.567 5.435-5.436-1.567 7.853 5.944z" style="stroke:#1a83af;stroke-width:2"/><path fill="none" d="M1217.38 147.01c-59.35 16.81-145.72 41.27-206.58 58.51" style="stroke:#1a83af;stroke-width:2"/><path fill="#1A83AF" d="m1005.73 206.96 9.751 1.381-4.942-2.75 2.75-4.944-7.559 6.313z" style="stroke:#1a83af;stroke-width:2"/><path fill="none" d="M1751.98 147.01c-88.79 16.96-218.36 41.72-308.72 58.98" style="stroke:#1a83af;stroke-width:2"/><path fill="#1A83AF" d="m1438.18 206.96 9.592 2.232-4.682-3.174 3.175-4.682-8.085 5.624z" style="stroke:#1a83af;stroke-width:2"/><path fill="none" d="M1862.31 147.17c13.47 23.69 37.37 65.13 59.19 99.83 11.89 18.91 26.02 39.9 36.69 55.48" style="stroke:#1a83af;stroke-width:2"/><path fill="#1A83AF" d="m1961.11 306.73-1.803-9.683-1.03 5.563-5.562-1.03 8.395 5.15z" style="stroke:#1a83af;stroke-width:2"/><path fill="none" d="M881.05 47.13c-18.99 16.19-46.24 39.41-66.26 56.47" style="stroke:#1a83af;stroke-width:2"/><path fill="#1A83AF" d="m810.89 106.92 9.443-2.8-5.64-.446.446-5.639-4.249 8.885z" style="stroke:#1a83af;stroke-width:2"/><path fill="none" d="M784.7 31.78C680.15 40.35 550.83 66.86 594.5 147c39.23 71.99 77.15 74.31 155 100 210.93 69.59 890.49 78.23 1135.71 79.04" style="stroke:#1a83af;stroke-width:2"/><path fill="#1A83AF" d="m1890.21 326.05-8.988-4.026 3.988 4.012-4.011 3.988 9.011-3.974z" style="stroke:#1a83af;stroke-width:2"/><path fill="none" d="M931.5 47.2c18.02 14.16 39.9 35.19 50 59.8 13.43 32.71-7.03 71.34-24.08 95.51" style="stroke:#1a83af;stroke-width:2"/><path fill="#1A83AF" d="m954.29 206.85 8.51-4.956-5.584.902-.902-5.585-2.024 9.639z" style="stroke:#1a83af;stroke-width:2"/><path fill="none" d="M977.41 47.01c65.49 16.85 160.84 41.37 227.88 58.62" style="stroke:#1a83af;stroke-width:2"/><path fill="#1A83AF" d="m1210.47 106.96-7.723-6.112 2.88 4.87-4.869 2.88 9.712-1.638z" style="stroke:#1a83af;stroke-width:2"/><path fill="none" d="M776.96 147.28c-14 26.15-32.77 72.69-7.46 99.72 38.07 40.65 843.35 68.25 1115.81 76.45" style="stroke:#1a83af;stroke-width:2"/><path fill="#1A83AF" d="m1890.47 323.61-8.882-4.255 3.884 4.112-4.113 3.884 9.111-3.741z" style="stroke:#1a83af;stroke-width:2"/><path fill="none" d="M1461.88 247.01c124.1 19.12 312.46 48.15 422.97 65.18" style="stroke:#1a83af;stroke-width:2"/><path fill="#1A83AF" d="m1890.05 312.99-8.29-5.317 3.348 4.56-4.56 3.348 9.502-2.591z" style="stroke:#1a83af;stroke-width:2"/><path fill="none" d="M1732.7 247.01c51.25 16.74 125.74 41.08 178.47 58.3" style="stroke:#1a83af;stroke-width:2"/><path fill="#1A83AF" d="m1916.21 306.96-7.31-6.601 2.558 5.046-5.046 2.557 9.798-1.002z" style="stroke:#1a83af;stroke-width:2"/><path fill="none" d="M2770.39 133.33c-261.24 9.8-809.68 33.45-1271.89 73.67-4.02.35-8.09.72-12.2 1.11" style="stroke:#1a83af;stroke-width:2"/><path fill="#1A83AF" d="m1481.08 208.61 9.346 3.106-4.37-3.592 3.592-4.37-8.568 4.856z" style="stroke:#1a83af;stroke-width:2"/><path fill="none" d="M2958.63 147.08c39.81 23.96 95.3 66.03 63.87 99.92-64.55 69.6-716.6 78.25-958.4 79.05" style="stroke:#1a83af;stroke-width:2"/><path fill="#1A83AF" d="m2058.81 326.06 9.011 3.974-4.011-3.988 3.988-4.012-8.988 4.026z" style="stroke:#1a83af;stroke-width:2"/><path fill="none" d="M2045.92 247.36c-14.51 15.97-35.13 38.68-50.48 55.59" style="stroke:#1a83af;stroke-width:2"/><path fill="#1A83AF" d="m1992.05 306.68 9.01-3.977-5.65.274-.275-5.65-3.085 9.353z" style="stroke:#1a83af;stroke-width:2"/><path fill="none" d="M2284.81 247.01c-66.17 16.85-162.53 41.37-230.27 58.62" style="stroke:#1a83af;stroke-width:2"/><path fill="#1A83AF" d="m2049.31 306.96 9.712 1.637-4.869-2.88 2.88-4.869-7.723 6.112z" style="stroke:#1a83af;stroke-width:2"/><path fill="none" d="M2531.43 244.15c-6.07.98-12.08 1.93-17.93 2.85-158.2 24.77-342.91 51.33-449.86 66.48" style="stroke:#1a83af;stroke-width:2"/><path fill="#1A83AF" d="m2058.6 314.19 9.47 2.702-4.52-3.401 3.402-4.52-8.352 5.219z" style="stroke:#1a83af;stroke-width:2"/><path fill="none" d="M3049.63 47.09c15.7 14.56 35.13 36.11 43.87 59.91 22.29 60.75 12.22 101.79-40 140-79 57.8-744.82 73.85-989.37 77.82" style="stroke:#1a83af;stroke-width:2"/><path fill="#1A83AF" d="m2058.79 324.9 9.056 3.871-4.057-3.942 3.943-4.057-8.942 4.128z" style="stroke:#1a83af;stroke-width:2"/><path fill="none" d="M3006.15 47.36c-16.79 15.97-40.65 38.68-58.42 55.59" style="stroke:#1a83af;stroke-width:2"/><path fill="#1A83AF" d="m2943.81 106.68 9.275-3.312-5.655-.137.137-5.655-3.757 9.104z" style="stroke:#1a83af;stroke-width:2"/><path fill="none" d="M2829.69 243.14c-9.17 1.4-18.36 2.71-27.19 3.86-267.82 34.86-586.27 60.95-738.41 72.48" style="stroke:#1a83af;stroke-width:2"/><path fill="#1A83AF" d="m2058.75 319.88 9.282 3.294-4.297-3.68 3.68-4.296-8.665 4.682z" style="stroke:#1a83af;stroke-width:2"/><path fill="none" d="M506.23 244.37c9.22.96 18.38 1.85 27.27 2.63 510.45 44.83 1124.99 68.45 1351.53 76.14" style="stroke:#1a83af;stroke-width:2"/><path fill="#1A83AF" d="m1890.31 323.32-8.858-4.306 3.86 4.135-4.134 3.86 9.132-3.689z" style="stroke:#1a83af;stroke-width:2"/><path fill="none" d="M1089.97 244.32c8.98.92 17.87 1.82 26.53 2.68 280.52 27.88 612.99 57.53 768.91 71.23" style="stroke:#1a83af;stroke-width:2"/><path fill="#1A83AF" d="m1890.43 318.67-8.61-4.783 3.63 4.34-4.34 3.629 9.32-3.186z" style="stroke:#1a83af;stroke-width:2"/><path fill="none" d="M3182.98 242.67c-9.21 1.65-18.55 3.15-27.48 4.33-405.39 53.45-894.1 71.54-1091.68 76.94" style="stroke:#1a83af;stroke-width:2"/><path fill="#1A83AF" d="m2058.63 324.08 9.11 3.741-4.112-3.884 3.884-4.112-8.882 4.255z" style="stroke:#1a83af;stroke-width:2"/><path fill="none" d="M3354.91 244.62c-5.88.89-11.72 1.69-17.41 2.38-478.05 57.72-1055.71 73.58-1273.84 77.67" style="stroke:#1a83af;stroke-width:2"/><path fill="#1A83AF" d="m2058.58 324.76 9.078 3.82-4.079-3.92 3.92-4.08-8.919 4.18z" style="stroke:#1a83af;stroke-width:2"/></svg>