<svg xmlns="http://www.w3.org/2000/svg" xmlns:xlink="http://www.w3.org/1999/xlink" width="1885" height="2364" preserveAspectRatio="none" style="width:1885px;height:2364px;background:#00000000"><a xlink:actuate="onRequest" xlink:href="#a" xlink:show="new" xlink:title="#aws_resource" xlink:type="simple" target="_top"><rect id="a" width="155" height="70.594" x="613.5" y="404" fill="#3D176E" rx="2.5" ry="2.5" style="stroke:#000d19;stroke-width:1.5"/><circle cx="628.5" cy="423.894" r="11" fill="#E98DF7" style="stroke:#000d19;stroke-width:1"/><path d="M631.469 429.535q-.578.297-1.219.438-.64.156-1.344.156-2.5 0-3.828-1.64-1.312-1.657-1.312-4.782t1.312-4.781q1.328-1.656 3.828-1.656.703 0 1.344.156.656.156 1.219.453v2.719q-.625-.579-1.219-.844-.594-.281-1.219-.281-1.343 0-2.031 1.078-.688 1.062-.688 3.156 0 2.094.688 3.172.688 1.062 2.031 1.062.625 0 1.219-.265.594-.281 1.219-.86v2.72Z"/><text x="647.5" y="429.78" fill="#D9B8FF" font-family="Helvetica" font-size="17" textLength="113">aws_resource</text><path d="M614.5 443.789h153" style="stroke:#000d19;stroke-width:1.5"/><text x="624.5" y="463" fill="#D9B8FF" font-family="sans-serif" font-size="11" font-weight="bold" textLength="21">arn</text><text x="645.5" y="463" fill="#D9B8FF" font-family="sans-serif" font-size="11" textLength="41">: string</text></a><a xlink:actuate="onRequest" xlink:href="#b" xlink:show="new" xlink:title="#resource" xlink:type="simple" target="_top"><rect id="b" width="195" height="275.836" x="593.5" y="7" fill="#3D176E" rx="2.5" ry="2.5" style="stroke:#000d19;stroke-width:1.5"/><circle cx="646.25" cy="26.895" r="11" fill="#E98DF7" style="stroke:#000d19;stroke-width:1"/><path d="M649.219 32.535q-.578.297-1.219.438-.64.156-1.344.156-2.5 0-3.828-1.64-1.312-1.657-1.312-4.782t1.312-4.781q1.328-1.656 3.828-1.656.703 0 1.344.156.656.156 1.219.453v2.719q-.625-.578-1.219-.844-.594-.281-1.219-.281-1.343 0-2.031 1.078-.688 1.062-.688 3.156 0 2.094.688 3.172.688 1.062 2.031 1.062.625 0 1.219-.265.594-.281 1.219-.86v2.72Z"/><text x="671.75" y="32.78" fill="#D9B8FF" font-family="Helvetica" font-size="17" textLength="71">resource</text><path d="M594.5 46.789h193" style="stroke:#000d19;stroke-width:1.5"/><text x="604.5" y="65.999" fill="#D9B8FF" font-family="sans-serif" font-size="11" font-weight="bold" textLength="12">id</text><text x="616.5" y="65.999" fill="#D9B8FF" font-family="sans-serif" font-size="11" textLength="41">: string</text><text x="604.5" y="88.804" fill="#D9B8FF" font-family="sans-serif" font-size="11" font-weight="bold" textLength="28">tags</text><text x="632.5" y="88.804" fill="#D9B8FF" font-family="sans-serif" font-size="11" textLength="145">: dictionary[string, string]</text><text x="604.5" y="111.609" fill="#D9B8FF" font-family="sans-serif" font-size="11" font-weight="bold" textLength="35">name</text><text x="639.5" y="111.609" fill="#D9B8FF" font-family="sans-serif" font-size="11" textLength="41">: string</text><text x="604.5" y="134.414" fill="#D9B8FF" font-family="sans-serif" font-size="11" font-weight="bold" textLength="35">ctime</text><text x="639.5" y="134.414" fill="#D9B8FF" font-family="sans-serif" font-size="11" textLength="58">: datetime</text><text x="604.5" y="157.218" fill="#D9B8FF" font-family="sans-serif" font-size="11" font-weight="bold" textLength="24">age</text><text x="628.5" y="157.218" fill="#D9B8FF" font-family="sans-serif" font-size="11" textLength="55">: duration</text><text x="604.5" y="180.023" fill="#D9B8FF" font-family="sans-serif" font-size="11" font-weight="bold" textLength="39">mtime</text><text x="643.5" y="180.023" fill="#D9B8FF" font-family="sans-serif" font-size="11" textLength="58">: datetime</text><text x="604.5" y="202.828" fill="#D9B8FF" font-family="sans-serif" font-size="11" font-weight="bold" textLength="75">last_update</text><text x="679.5" y="202.828" fill="#D9B8FF" font-family="sans-serif" font-size="11" textLength="55">: duration</text><text x="604.5" y="225.632" fill="#D9B8FF" font-family="sans-serif" font-size="11" font-weight="bold" textLength="36">atime</text><text x="640.5" y="225.632" fill="#D9B8FF" font-family="sans-serif" font-size="11" textLength="58">: datetime</text><text x="604.5" y="248.437" fill="#D9B8FF" font-family="sans-serif" font-size="11" font-weight="bold" textLength="74">last_access</text><text x="678.5" y="248.437" fill="#D9B8FF" font-family="sans-serif" font-size="11" textLength="55">: duration</text><text x="604.5" y="271.242" fill="#D9B8FF" font-family="sans-serif" font-size="11" font-weight="bold" textLength="27">kind</text><text x="631.5" y="271.242" fill="#D9B8FF" font-family="sans-serif" font-size="11" textLength="41">: string</text></a><a xlink:actuate="onRequest" xlink:href="#c" xlink:show="new" xlink:title="#aws_ecs_key_value_pair" xlink:type="simple" target="_top"><rect id="c" width="245" height="93.398" x="569.5" y="2264" fill="#3D176E" rx="2.5" ry="2.5" style="stroke:#000d19;stroke-width:1.5"/><circle cx="584.5" cy="2283.894" r="11" fill="#E98DF7" style="stroke:#000d19;stroke-width:1"/><path d="M587.469 2289.535q-.578.297-1.219.438-.64.156-1.344.156-2.5 0-3.828-1.64-1.312-1.657-1.312-4.782t1.312-4.781q1.328-1.657 3.828-1.657.703 0 1.344.157.656.156 1.219.453v2.719q-.625-.579-1.219-.844-.594-.281-1.219-.281-1.343 0-2.031 1.078-.688 1.062-.688 3.156 0 2.094.688 3.172.688 1.062 2.031 1.062.625 0 1.219-.265.594-.282 1.219-.86v2.72Z"/><text x="603.5" y="2289.78" fill="#D9B8FF" font-family="Helvetica" font-size="17" textLength="203">aws_ecs_key_value_pair</text><path d="M570.5 2303.789h243" style="stroke:#000d19;stroke-width:1.5"/><text x="580.5" y="2322.999" fill="#D9B8FF" font-family="sans-serif" font-size="11" font-weight="bold" textLength="35">name</text><text x="615.5" y="2322.999" fill="#D9B8FF" font-family="sans-serif" font-size="11" textLength="41">: string</text><text x="580.5" y="2345.804" fill="#D9B8FF" font-family="sans-serif" font-size="11" font-weight="bold" textLength="35">value</text><text x="615.5" y="2345.804" fill="#D9B8FF" font-family="sans-serif" font-size="11" textLength="41">: string</text></a><a xlink:actuate="onRequest" xlink:href="#d" xlink:show="new" xlink:title="#aws_ecs_environment_file" xlink:type="simple" target="_top"><rect id="d" width="263" height="93.398" x="1275.5" y="2264" fill="#3D176E" rx="2.5" ry="2.5" style="stroke:#000d19;stroke-width:1.5"/><circle cx="1290.5" cy="2283.894" r="11" fill="#E98DF7" style="stroke:#000d19;stroke-width:1"/><path d="M1293.469 2289.535q-.578.297-1.219.438-.64.156-1.344.156-2.5 0-3.828-1.64-1.312-1.657-1.312-4.782t1.312-4.781q1.328-1.657 3.828-1.657.703 0 1.344.157.656.156 1.219.453v2.719q-.625-.579-1.219-.844-.594-.281-1.219-.281-1.343 0-2.031 1.078-.688 1.062-.688 3.156 0 2.094.688 3.172.688 1.062 2.031 1.062.625 0 1.219-.265.594-.282 1.219-.86v2.72Z"/><text x="1309.5" y="2289.78" fill="#D9B8FF" font-family="Helvetica" font-size="17" textLength="221">aws_ecs_environment_file</text><path d="M1276.5 2303.789h261" style="stroke:#000d19;stroke-width:1.5"/><text x="1286.5" y="2322.999" fill="#D9B8FF" font-family="sans-serif" font-size="11" font-weight="bold" textLength="35">value</text><text x="1321.5" y="2322.999" fill="#D9B8FF" font-family="sans-serif" font-size="11" textLength="41">: string</text><text x="1286.5" y="2345.804" fill="#D9B8FF" font-family="sans-serif" font-size="11" font-weight="bold" textLength="28">type</text><text x="1314.5" y="2345.804" fill="#D9B8FF" font-family="sans-serif" font-size="11" textLength="41">: string</text></a><a xlink:actuate="onRequest" xlink:href="#e" xlink:show="new" xlink:title="#aws_ecs_managed_agent" xlink:type="simple" target="_top"><rect id="e" width="254" height="139.008" x="159" y="2019.5" fill="#3D176E" rx="2.5" ry="2.5" style="stroke:#000d19;stroke-width:1.5"/><circle cx="174" cy="2039.395" r="11" fill="#E98DF7" style="stroke:#000d19;stroke-width:1"/><path d="M176.969 2045.035q-.578.297-1.219.438-.64.156-1.344.156-2.5 0-3.828-1.64-1.312-1.657-1.312-4.782t1.312-4.781q1.328-1.656 3.828-1.656.703 0 1.344.156.656.156 1.219.453v2.719q-.625-.578-1.219-.844-.594-.281-1.219-.281-1.344 0-2.031 1.078-.688 1.062-.688 3.156 0 2.094.688 3.172.688 1.062 2.031 1.062.625 0 1.219-.265.594-.281 1.219-.86v2.72Z"/><text x="193" y="2045.28" fill="#D9B8FF" font-family="Helvetica" font-size="17" textLength="212">aws_ecs_managed_agent</text><path d="M160 2059.289h252" style="stroke:#000d19;stroke-width:1.5"/><text x="170" y="2078.499" fill="#D9B8FF" font-family="sans-serif" font-size="11" font-weight="bold" textLength="95">last_started_at</text><text x="265" y="2078.499" fill="#D9B8FF" font-family="sans-serif" font-size="11" textLength="58">: datetime</text><text x="170" y="2101.304" fill="#D9B8FF" font-family="sans-serif" font-size="11" font-weight="bold" textLength="35">name</text><text x="205" y="2101.304" fill="#D9B8FF" font-family="sans-serif" font-size="11" textLength="41">: string</text><text x="170" y="2124.109" fill="#D9B8FF" font-family="sans-serif" font-size="11" font-weight="bold" textLength="44">reason</text><text x="214" y="2124.109" fill="#D9B8FF" font-family="sans-serif" font-size="11" textLength="41">: string</text><text x="170" y="2146.914" fill="#D9B8FF" font-family="sans-serif" font-size="11" font-weight="bold" textLength="70">last_status</text><text x="240" y="2146.914" fill="#D9B8FF" font-family="sans-serif" font-size="11" textLength="41">: string</text></a><a xlink:actuate="onRequest" xlink:href="#f" xlink:show="new" xlink:title="#aws_ecs_task" xlink:type="simple" target="_top"><rect id="f" width="396" height="823.148" x="493" y="596" fill="#3D176E" rx="2.5" ry="2.5" style="stroke:#000d19;stroke-width:1.5"/><circle cx="625.75" cy="615.894" r="11" fill="#E98DF7" style="stroke:#000d19;stroke-width:1"/><path d="M628.719 621.535q-.578.297-1.219.438-.64.156-1.344.156-2.5 0-3.828-1.64-1.312-1.657-1.312-4.782t1.312-4.781q1.328-1.657 3.828-1.657.703 0 1.344.157.656.156 1.219.453v2.719q-.625-.578-1.219-.844-.594-.281-1.219-.281-1.343 0-2.031 1.078-.688 1.062-.688 3.156 0 2.094.688 3.172.688 1.062 2.031 1.062.625 0 1.219-.265.594-.282 1.219-.86v2.72Z"/><text x="651.25" y="621.78" fill="#D9B8FF" font-family="Helvetica" font-size="17" textLength="112">aws_ecs_task</text><path d="M494 635.789h394" style="stroke:#000d19;stroke-width:1.5"/><text x="504" y="655" fill="#D9B8FF" font-family="sans-serif" font-size="11" font-weight="bold" textLength="21">arn</text><text x="525" y="655" fill="#D9B8FF" font-family="sans-serif" font-size="11" textLength="41">: string</text><text x="504" y="677.804" fill="#D9B8FF" font-family="sans-serif" font-size="11" font-weight="bold" textLength="113">task_attachments</text><text x="617" y="677.804" fill="#D9B8FF" font-family="sans-serif" font-size="11" textLength="135">: aws_ecs_attachment[]</text><text x="504" y="700.609" fill="#D9B8FF" font-family="sans-serif" font-size="11" font-weight="bold" textLength="96">task_attributes</text><text x="600" y="700.609" fill="#D9B8FF" font-family="sans-serif" font-size="11" textLength="119">: aws_ecs_attribute[]</text><text x="504" y="723.414" fill="#D9B8FF" font-family="sans-serif" font-size="11" font-weight="bold" textLength="141">task_availability_zone</text><text x="645" y="723.414" fill="#D9B8FF" font-family="sans-serif" font-size="11" textLength="41">: string</text><text x="504" y="746.218" fill="#D9B8FF" font-family="sans-serif" font-size="11" font-weight="bold" textLength="187">task_capacity_provider_name</text><text x="691" y="746.218" fill="#D9B8FF" font-family="sans-serif" font-size="11" textLength="41">: string</text><text x="504" y="769.023" fill="#D9B8FF" font-family="sans-serif" font-size="11" font-weight="bold" textLength="104">task_cluster_arn</text><text x="608" y="769.023" fill="#D9B8FF" font-family="sans-serif" font-size="11" textLength="41">: string</text><text x="504" y="791.828" fill="#D9B8FF" font-family="sans-serif" font-size="11" font-weight="bold" textLength="111">task_connectivity</text><text x="615" y="791.828" fill="#D9B8FF" font-family="sans-serif" font-size="11" textLength="41">: string</text><text x="504" y="814.632" fill="#D9B8FF" font-family="sans-serif" font-size="11" font-weight="bold" textLength="130">task_connectivity_at</text><text x="634" y="814.632" fill="#D9B8FF" font-family="sans-serif" font-size="11" textLength="58">: datetime</text><text x="504" y="837.437" fill="#D9B8FF" font-family="sans-serif" font-size="11" font-weight="bold" textLength="182">task_container_instance_arn</text><text x="686" y="837.437" fill="#D9B8FF" font-family="sans-serif" font-size="11" textLength="41">: string</text><text x="504" y="860.242" fill="#D9B8FF" font-family="sans-serif" font-size="11" font-weight="bold" textLength="101">task_containers</text><text x="605" y="860.242" fill="#D9B8FF" font-family="sans-serif" font-size="11" textLength="124">: aws_ecs_container[]</text><text x="504" y="883.046" fill="#D9B8FF" font-family="sans-serif" font-size="11" font-weight="bold" textLength="56">task_cpu</text><text x="560" y="883.046" fill="#D9B8FF" font-family="sans-serif" font-size="11" textLength="41">: string</text><text x="504" y="905.851" fill="#D9B8FF" font-family="sans-serif" font-size="11" font-weight="bold" textLength="127">task_desired_status</text><text x="631" y="905.851" fill="#D9B8FF" font-family="sans-serif" font-size="11" textLength="41">: string</text><text x="504" y="928.656" fill="#D9B8FF" font-family="sans-serif" font-size="11" font-weight="bold" textLength="201">task_enable_execute_command</text><text x="705" y="928.656" fill="#D9B8FF" font-family="sans-serif" font-size="11" textLength="53">: boolean</text><text x="504" y="951.46" fill="#D9B8FF" font-family="sans-serif" font-size="11" font-weight="bold" textLength="173">task_execution_stopped_at</text><text x="677" y="951.46" fill="#D9B8FF" font-family="sans-serif" font-size="11" textLength="58">: datetime</text><text x="504" y="974.265" fill="#D9B8FF" font-family="sans-serif" font-size="11" font-weight="bold" textLength="70">task_group</text><text x="574" y="974.265" fill="#D9B8FF" font-family="sans-serif" font-size="11" textLength="41">: string</text><text x="504" y="997.07" fill="#D9B8FF" font-family="sans-serif" font-size="11" font-weight="bold" textLength="120">task_health_status</text><text x="624" y="997.07" fill="#D9B8FF" font-family="sans-serif" font-size="11" textLength="41">: string</text><text x="504" y="1019.875" fill="#D9B8FF" font-family="sans-serif" font-size="11" font-weight="bold" textLength="180">task_inference_accelerators</text><text x="684" y="1019.875" fill="#D9B8FF" font-family="sans-serif" font-size="11" textLength="194">: aws_ecs_inference_accelerator[]</text><text x="504" y="1042.679" fill="#D9B8FF" font-family="sans-serif" font-size="11" font-weight="bold" textLength="103">task_last_status</text><text x="607" y="1042.679" fill="#D9B8FF" font-family="sans-serif" font-size="11" textLength="41">: string</text><text x="504" y="1065.484" fill="#D9B8FF" font-family="sans-serif" font-size="11" font-weight="bold" textLength="110">task_launch_type</text><text x="614" y="1065.484" fill="#D9B8FF" font-family="sans-serif" font-size="11" textLength="41">: string</text><text x="504" y="1088.289" fill="#D9B8FF" font-family="sans-serif" font-size="11" font-weight="bold" textLength="83">task_memory</text><text x="587" y="1088.289" fill="#D9B8FF" font-family="sans-serif" font-size="11" textLength="41">: string</text><text x="504" y="1111.093" fill="#D9B8FF" font-family="sans-serif" font-size="11" font-weight="bold" textLength="93">task_overrides</text><text x="597" y="1111.093" fill="#D9B8FF" font-family="sans-serif" font-size="11" textLength="140">: aws_ecs_task_override</text><text x="504" y="1133.898" fill="#D9B8FF" font-family="sans-serif" font-size="11" font-weight="bold" textLength="140">task_platform_version</text><text x="644" y="1133.898" fill="#D9B8FF" font-family="sans-serif" font-size="11" textLength="41">: string</text><text x="504" y="1156.703" fill="#D9B8FF" font-family="sans-serif" font-size="11" font-weight="bold" textLength="132">task_platform_family</text><text x="636" y="1156.703" fill="#D9B8FF" font-family="sans-serif" font-size="11" textLength="41">: string</text><text x="504" y="1179.507" fill="#D9B8FF" font-family="sans-serif" font-size="11" font-weight="bold" textLength="128">task_pull_started_at</text><text x="632" y="1179.507" fill="#D9B8FF" font-family="sans-serif" font-size="11" textLength="58">: datetime</text><text x="504" y="1202.312" fill="#D9B8FF" font-family="sans-serif" font-size="11" font-weight="bold" textLength="134">task_pull_stopped_at</text><text x="638" y="1202.312" fill="#D9B8FF" font-family="sans-serif" font-size="11" textLength="58">: datetime</text><text x="504" y="1225.117" fill="#D9B8FF" font-family="sans-serif" font-size="11" font-weight="bold" textLength="98">task_started_at</text><text x="602" y="1225.117" fill="#D9B8FF" font-family="sans-serif" font-size="11" textLength="58">: datetime</text><text x="504" y="1247.921" fill="#D9B8FF" font-family="sans-serif" font-size="11" font-weight="bold" textLength="100">task_started_by</text><text x="604" y="1247.921" fill="#D9B8FF" font-family="sans-serif" font-size="11" textLength="41">: string</text><text x="504" y="1270.726" fill="#D9B8FF" font-family="sans-serif" font-size="11" font-weight="bold" textLength="98">task_stop_code</text><text x="602" y="1270.726" fill="#D9B8FF" font-family="sans-serif" font-size="11" textLength="41">: string</text><text x="504" y="1293.531" fill="#D9B8FF" font-family="sans-serif" font-size="11" font-weight="bold" textLength="104">task_stopped_at</text><text x="608" y="1293.531" fill="#D9B8FF" font-family="sans-serif" font-size="11" textLength="58">: datetime</text><text x="504" y="1316.335" fill="#D9B8FF" font-family="sans-serif" font-size="11" font-weight="bold" textLength="135">task_stopped_reason</text><text x="639" y="1316.335" fill="#D9B8FF" font-family="sans-serif" font-size="11" textLength="41">: string</text><text x="504" y="1339.14" fill="#D9B8FF" font-family="sans-serif" font-size="11" font-weight="bold" textLength="108">task_stopping_at</text><text x="612" y="1339.14" fill="#D9B8FF" font-family="sans-serif" font-size="11" textLength="58">: datetime</text><text x="504" y="1361.945" fill="#D9B8FF" font-family="sans-serif" font-size="11" font-weight="bold" textLength="122">task_definition_arn</text><text x="626" y="1361.945" fill="#D9B8FF" font-family="sans-serif" font-size="11" textLength="41">: string</text><text x="504" y="1384.749" fill="#D9B8FF" font-family="sans-serif" font-size="11" font-weight="bold" textLength="80">task_version</text><text x="584" y="1384.749" fill="#D9B8FF" font-family="sans-serif" font-size="11" textLength="36">: int64</text><text x="504" y="1407.554" fill="#D9B8FF" font-family="sans-serif" font-size="11" font-weight="bold" textLength="156">task_ephemeral_storage</text><text x="660" y="1407.554" fill="#D9B8FF" font-family="sans-serif" font-size="11" textLength="36">: int64</text></a><a xlink:actuate="onRequest" xlink:href="#g" xlink:show="new" xlink:title="#aws_ecs_attachment" xlink:type="simple" target="_top"><rect id="g" width="220" height="139.008" x="7" y="1627" fill="#3D176E" rx="2.5" ry="2.5" style="stroke:#000d19;stroke-width:1.5"/><circle cx="23.35" cy="1646.895" r="11" fill="#E98DF7" style="stroke:#000d19;stroke-width:1"/><path d="M26.319 1652.535q-.578.297-1.219.438-.64.156-1.344.156-2.5 0-3.828-1.64-1.312-1.657-1.312-4.782t1.312-4.781q1.328-1.656 3.828-1.656.703 0 1.344.156.656.156 1.219.453v2.719q-.625-.578-1.219-.844-.594-.281-1.219-.281-1.343 0-2.031 1.078-.688 1.062-.688 3.156 0 2.094.688 3.172.688 1.062 2.031 1.062.625 0 1.219-.265.594-.281 1.219-.86v2.72Z"/><text x="42.65" y="1652.78" fill="#D9B8FF" font-family="Helvetica" font-size="17" textLength="175">aws_ecs_attachment</text><path d="M8 1666.789h218" style="stroke:#000d19;stroke-width:1.5"/><text x="18" y="1685.999" fill="#D9B8FF" font-family="sans-serif" font-size="11" font-weight="bold" textLength="12">id</text><text x="30" y="1685.999" fill="#D9B8FF" font-family="sans-serif" font-size="11" textLength="41">: string</text><text x="18" y="1708.804" fill="#D9B8FF" font-family="sans-serif" font-size="11" font-weight="bold" textLength="28">type</text><text x="46" y="1708.804" fill="#D9B8FF" font-family="sans-serif" font-size="11" textLength="41">: string</text><text x="18" y="1731.609" fill="#D9B8FF" font-family="sans-serif" font-size="11" font-weight="bold" textLength="40">status</text><text x="58" y="1731.609" fill="#D9B8FF" font-family="sans-serif" font-size="11" textLength="41">: string</text><text x="18" y="1754.414" fill="#D9B8FF" font-family="sans-serif" font-size="11" font-weight="bold" textLength="44">details</text><text x="62" y="1754.414" fill="#D9B8FF" font-family="sans-serif" font-size="11" textLength="154">: aws_ecs_key_value_pair[]</text></a><a xlink:actuate="onRequest" xlink:href="#h" xlink:show="new" xlink:title="#aws_ecs_attribute" xlink:type="simple" target="_top"><rect id="h" width="193" height="139.008" x="304.5" y="1627" fill="#3D176E" rx="2.5" ry="2.5" style="stroke:#000d19;stroke-width:1.5"/><circle cx="319.5" cy="1646.895" r="11" fill="#E98DF7" style="stroke:#000d19;stroke-width:1"/><path d="M322.469 1652.535q-.578.297-1.219.438-.64.156-1.344.156-2.5 0-3.828-1.64-1.312-1.657-1.312-4.782t1.312-4.781q1.328-1.656 3.828-1.656.703 0 1.344.156.656.156 1.219.453v2.719q-.625-.578-1.219-.844-.594-.281-1.219-.281-1.344 0-2.031 1.078-.688 1.062-.688 3.156 0 2.094.688 3.172.688 1.062 2.031 1.062.625 0 1.219-.265.594-.281 1.219-.86v2.72Z"/><text x="338.5" y="1652.78" fill="#D9B8FF" font-family="Helvetica" font-size="17" textLength="151">aws_ecs_attribute</text><path d="M305.5 1666.789h191" style="stroke:#000d19;stroke-width:1.5"/><text x="315.5" y="1685.999" fill="#D9B8FF" font-family="sans-serif" font-size="11" font-weight="bold" textLength="35">name</text><text x="350.5" y="1685.999" fill="#D9B8FF" font-family="sans-serif" font-size="11" textLength="41">: string</text><text x="315.5" y="1708.804" fill="#D9B8FF" font-family="sans-serif" font-size="11" font-weight="bold" textLength="35">value</text><text x="350.5" y="1708.804" fill="#D9B8FF" font-family="sans-serif" font-size="11" textLength="41">: string</text><text x="315.5" y="1731.609" fill="#D9B8FF" font-family="sans-serif" font-size="11" font-weight="bold" textLength="73">target_type</text><text x="388.5" y="1731.609" fill="#D9B8FF" font-family="sans-serif" font-size="11" textLength="41">: string</text><text x="315.5" y="1754.414" fill="#D9B8FF" font-family="sans-serif" font-size="11" font-weight="bold" textLength="57">target_id</text><text x="372.5" y="1754.414" fill="#D9B8FF" font-family="sans-serif" font-size="11" textLength="41">: string</text></a><a xlink:actuate="onRequest" xlink:href="#i" xlink:show="new" xlink:title="#aws_ecs_container" xlink:type="simple" target="_top"><rect id="i" width="317" height="435.469" x="532.5" y="1479" fill="#3D176E" rx="2.5" ry="2.5" style="stroke:#000d19;stroke-width:1.5"/><circle cx="603.75" cy="1498.895" r="11" fill="#E98DF7" style="stroke:#000d19;stroke-width:1"/><path d="M606.719 1504.535q-.578.297-1.219.438-.64.156-1.344.156-2.5 0-3.828-1.64-1.312-1.657-1.312-4.782t1.312-4.781q1.328-1.656 3.828-1.656.703 0 1.344.156.656.156 1.219.453v2.719q-.625-.578-1.219-.844-.594-.281-1.219-.281-1.343 0-2.031 1.078-.688 1.062-.688 3.156 0 2.094.688 3.172.688 1.062 2.031 1.062.625 0 1.219-.265.594-.281 1.219-.86v2.72Z"/><text x="629.25" y="1504.78" fill="#D9B8FF" font-family="Helvetica" font-size="17" textLength="156">aws_ecs_container</text><path d="M533.5 1518.789h315" style="stroke:#000d19;stroke-width:1.5"/><text x="543.5" y="1537.999" fill="#D9B8FF" font-family="sans-serif" font-size="11" font-weight="bold" textLength="88">container_arn</text><text x="631.5" y="1537.999" fill="#D9B8FF" font-family="sans-serif" font-size="11" textLength="41">: string</text><text x="543.5" y="1560.804" fill="#D9B8FF" font-family="sans-serif" font-size="11" font-weight="bold" textLength="54">task_arn</text><text x="597.5" y="1560.804" fill="#D9B8FF" font-family="sans-serif" font-size="11" textLength="41">: string</text><text x="543.5" y="1583.609" fill="#D9B8FF" font-family="sans-serif" font-size="11" font-weight="bold" textLength="35">name</text><text x="578.5" y="1583.609" fill="#D9B8FF" font-family="sans-serif" font-size="11" textLength="41">: string</text><text x="543.5" y="1606.414" fill="#D9B8FF" font-family="sans-serif" font-size="11" font-weight="bold" textLength="39">image</text><text x="582.5" y="1606.414" fill="#D9B8FF" font-family="sans-serif" font-size="11" textLength="41">: string</text><text x="543.5" y="1629.218" fill="#D9B8FF" font-family="sans-serif" font-size="11" font-weight="bold" textLength="85">image_digest</text><text x="628.5" y="1629.218" fill="#D9B8FF" font-family="sans-serif" font-size="11" textLength="41">: string</text><text x="543.5" y="1652.023" fill="#D9B8FF" font-family="sans-serif" font-size="11" font-weight="bold" textLength="67">runtime_id</text><text x="610.5" y="1652.023" fill="#D9B8FF" font-family="sans-serif" font-size="11" textLength="41">: string</text><text x="543.5" y="1674.828" fill="#D9B8FF" font-family="sans-serif" font-size="11" font-weight="bold" textLength="70">last_status</text><text x="613.5" y="1674.828" fill="#D9B8FF" font-family="sans-serif" font-size="11" textLength="41">: string</text><text x="543.5" y="1697.632" fill="#D9B8FF" font-family="sans-serif" font-size="11" font-weight="bold" textLength="61">exit_code</text><text x="604.5" y="1697.632" fill="#D9B8FF" font-family="sans-serif" font-size="11" textLength="36">: int64</text><text x="543.5" y="1720.437" fill="#D9B8FF" font-family="sans-serif" font-size="11" font-weight="bold" textLength="44">reason</text><text x="587.5" y="1720.437" fill="#D9B8FF" font-family="sans-serif" font-size="11" textLength="41">: string</text><text x="543.5" y="1743.242" fill="#D9B8FF" font-family="sans-serif" font-size="11" font-weight="bold" textLength="113">network_bindings</text><text x="656.5" y="1743.242" fill="#D9B8FF" font-family="sans-serif" font-size="11" textLength="163">: aws_ecs_network_binding[]</text><text x="543.5" y="1766.046" fill="#D9B8FF" font-family="sans-serif" font-size="11" font-weight="bold" textLength="123">network_interfaces</text><text x="666.5" y="1766.046" fill="#D9B8FF" font-family="sans-serif" font-size="11" textLength="172">: aws_ecs_network_interface[]</text><text x="543.5" y="1788.851" fill="#D9B8FF" font-family="sans-serif" font-size="11" font-weight="bold" textLength="87">health_status</text><text x="630.5" y="1788.851" fill="#D9B8FF" font-family="sans-serif" font-size="11" textLength="41">: string</text><text x="543.5" y="1811.656" fill="#D9B8FF" font-family="sans-serif" font-size="11" font-weight="bold" textLength="109">managed_agents</text><text x="652.5" y="1811.656" fill="#D9B8FF" font-family="sans-serif" font-size="11" textLength="162">: aws_ecs_managed_agent[]</text><text x="543.5" y="1834.46" fill="#D9B8FF" font-family="sans-serif" font-size="11" font-weight="bold" textLength="23">cpu</text><text x="566.5" y="1834.46" fill="#D9B8FF" font-family="sans-serif" font-size="11" textLength="41">: string</text><text x="543.5" y="1857.265" fill="#D9B8FF" font-family="sans-serif" font-size="11" font-weight="bold" textLength="50">memory</text><text x="593.5" y="1857.265" fill="#D9B8FF" font-family="sans-serif" font-size="11" textLength="41">: string</text><text x="543.5" y="1880.07" fill="#D9B8FF" font-family="sans-serif" font-size="11" font-weight="bold" textLength="129">memory_reservation</text><text x="672.5" y="1880.07" fill="#D9B8FF" font-family="sans-serif" font-size="11" textLength="41">: string</text><text x="543.5" y="1902.874" fill="#D9B8FF" font-family="sans-serif" font-size="11" font-weight="bold" textLength="49">gpu_ids</text><text x="592.5" y="1902.874" fill="#D9B8FF" font-family="sans-serif" font-size="11" textLength="49">: string[]</text></a><a xlink:actuate="onRequest" xlink:href="#j" xlink:show="new" xlink:title="#aws_ecs_network_binding" xlink:type="simple" target="_top"><rect id="j" width="260" height="139.008" x="448" y="2019.5" fill="#3D176E" rx="2.5" ry="2.5" style="stroke:#000d19;stroke-width:1.5"/><circle cx="463" cy="2039.395" r="11" fill="#E98DF7" style="stroke:#000d19;stroke-width:1"/><path d="M465.969 2045.035q-.578.297-1.219.438-.64.156-1.344.156-2.5 0-3.828-1.64-1.312-1.657-1.312-4.782t1.312-4.781q1.328-1.656 3.828-1.656.703 0 1.344.156.656.156 1.219.453v2.719q-.625-.578-1.219-.844-.594-.281-1.219-.281-1.344 0-2.031 1.078-.688 1.062-.688 3.156 0 2.094.688 3.172.688 1.062 2.031 1.062.625 0 1.219-.265.594-.281 1.219-.86v2.72Z"/><text x="482" y="2045.28" fill="#D9B8FF" font-family="Helvetica" font-size="17" textLength="218">aws_ecs_network_binding</text><path d="M449 2059.289h258" style="stroke:#000d19;stroke-width:1.5"/><text x="459" y="2078.499" fill="#D9B8FF" font-family="sans-serif" font-size="11" font-weight="bold" textLength="46">bind_ip</text><text x="505" y="2078.499" fill="#D9B8FF" font-family="sans-serif" font-size="11" textLength="41">: string</text><text x="459" y="2101.304" fill="#D9B8FF" font-family="sans-serif" font-size="11" font-weight="bold" textLength="93">container_port</text><text x="552" y="2101.304" fill="#D9B8FF" font-family="sans-serif" font-size="11" textLength="36">: int64</text><text x="459" y="2124.109" fill="#D9B8FF" font-family="sans-serif" font-size="11" font-weight="bold" textLength="60">host_port</text><text x="519" y="2124.109" fill="#D9B8FF" font-family="sans-serif" font-size="11" textLength="36">: int64</text><text x="459" y="2146.914" fill="#D9B8FF" font-family="sans-serif" font-size="11" font-weight="bold" textLength="53">protocol</text><text x="512" y="2146.914" fill="#D9B8FF" font-family="sans-serif" font-size="11" textLength="41">: string</text></a><a xlink:actuate="onRequest" xlink:href="#k" xlink:show="new" xlink:title="#aws_ecs_network_interface" xlink:type="simple" target="_top"><rect id="k" width="272" height="116.203" x="743" y="2031" fill="#3D176E" rx="2.5" ry="2.5" style="stroke:#000d19;stroke-width:1.5"/><circle cx="758" cy="2050.894" r="11" fill="#E98DF7" style="stroke:#000d19;stroke-width:1"/><path d="M760.969 2056.535q-.578.297-1.219.438-.64.156-1.344.156-2.5 0-3.828-1.64-1.312-1.657-1.312-4.782t1.312-4.781q1.328-1.656 3.828-1.656.703 0 1.344.156.656.156 1.219.453v2.719q-.625-.578-1.219-.844-.594-.281-1.219-.281-1.343 0-2.031 1.078-.688 1.062-.688 3.156 0 2.094.688 3.172.688 1.062 2.031 1.062.625 0 1.219-.265.594-.282 1.219-.86v2.72Z"/><text x="777" y="2056.78" fill="#D9B8FF" font-family="Helvetica" font-size="17" textLength="230">aws_ecs_network_interface</text><path d="M744 2070.789h270" style="stroke:#000d19;stroke-width:1.5"/><text x="754" y="2089.999" fill="#D9B8FF" font-family="sans-serif" font-size="11" font-weight="bold" textLength="91">attachment_id</text><text x="845" y="2089.999" fill="#D9B8FF" font-family="sans-serif" font-size="11" textLength="41">: string</text><text x="754" y="2112.804" fill="#D9B8FF" font-family="sans-serif" font-size="11" font-weight="bold" textLength="135">private_ipv4_address</text><text x="889" y="2112.804" fill="#D9B8FF" font-family="sans-serif" font-size="11" textLength="41">: string</text><text x="754" y="2135.609" fill="#D9B8FF" font-family="sans-serif" font-size="11" font-weight="bold" textLength="84">ipv6_address</text><text x="838" y="2135.609" fill="#D9B8FF" font-family="sans-serif" font-size="11" textLength="41">: string</text></a><a xlink:actuate="onRequest" xlink:href="#l" xlink:show="new" xlink:title="#aws_ecs_inference_accelerator" xlink:type="simple" target="_top"><rect id="l" width="298" height="93.398" x="1050" y="2042.5" fill="#3D176E" rx="2.5" ry="2.5" style="stroke:#000d19;stroke-width:1.5"/><circle cx="1065" cy="2062.394" r="11" fill="#E98DF7" style="stroke:#000d19;stroke-width:1"/><path d="M1067.969 2068.035q-.578.297-1.219.438-.64.156-1.344.156-2.5 0-3.828-1.64-1.312-1.657-1.312-4.782t1.312-4.781q1.328-1.657 3.828-1.657.703 0 1.344.157.656.156 1.219.453v2.719q-.625-.579-1.219-.844-.594-.281-1.219-.281-1.343 0-2.031 1.078-.688 1.062-.688 3.156 0 2.094.688 3.172.688 1.062 2.031 1.062.625 0 1.219-.265.594-.282 1.219-.86v2.72Z"/><text x="1084" y="2068.28" fill="#D9B8FF" font-family="Helvetica" font-size="17" textLength="256">aws_ecs_inference_accelerator</text><path d="M1051 2082.289h296" style="stroke:#000d19;stroke-width:1.5"/><text x="1061" y="2101.499" fill="#D9B8FF" font-family="sans-serif" font-size="11" font-weight="bold" textLength="83">device_name</text><text x="1144" y="2101.499" fill="#D9B8FF" font-family="sans-serif" font-size="11" textLength="41">: string</text><text x="1061" y="2124.304" fill="#D9B8FF" font-family="sans-serif" font-size="11" font-weight="bold" textLength="76">device_type</text><text x="1137" y="2124.304" fill="#D9B8FF" font-family="sans-serif" font-size="11" textLength="41">: string</text></a><a xlink:actuate="onRequest" xlink:href="#m" xlink:show="new" xlink:title="#aws_ecs_task_override" xlink:type="simple" target="_top"><rect id="m" width="422" height="207.422" x="988" y="1593" fill="#3D176E" rx="2.5" ry="2.5" style="stroke:#000d19;stroke-width:1.5"/><circle cx="1094.75" cy="1612.895" r="11" fill="#E98DF7" style="stroke:#000d19;stroke-width:1"/><path d="M1097.719 1618.535q-.578.297-1.219.438-.64.156-1.344.156-2.5 0-3.828-1.64-1.312-1.657-1.312-4.782t1.312-4.781q1.328-1.656 3.828-1.656.703 0 1.344.156.656.156 1.219.453v2.719q-.625-.578-1.219-.844-.594-.281-1.219-.281-1.343 0-2.031 1.078-.688 1.062-.688 3.156 0 2.094.688 3.172.688 1.062 2.031 1.062.625 0 1.219-.265.594-.281 1.219-.86v2.72Z"/><text x="1120.25" y="1618.78" fill="#D9B8FF" font-family="Helvetica" font-size="17" textLength="190">aws_ecs_task_override</text><path d="M989 1632.789h420" style="stroke:#000d19;stroke-width:1.5"/><text x="999" y="1651.999" fill="#D9B8FF" font-family="sans-serif" font-size="11" font-weight="bold" textLength="127">container_overrides</text><text x="1126" y="1651.999" fill="#D9B8FF" font-family="sans-serif" font-size="11" textLength="177">: aws_ecs_container_override[]</text><text x="999" y="1674.804" fill="#D9B8FF" font-family="sans-serif" font-size="11" font-weight="bold" textLength="23">cpu</text><text x="1022" y="1674.804" fill="#D9B8FF" font-family="sans-serif" font-size="11" textLength="41">: string</text><text x="999" y="1697.609" fill="#D9B8FF" font-family="sans-serif" font-size="11" font-weight="bold" textLength="206">inference_accelerator_overrides</text><text x="1205" y="1697.609" fill="#D9B8FF" font-family="sans-serif" font-size="11" textLength="194">: aws_ecs_inference_accelerator[]</text><text x="999" y="1720.414" fill="#D9B8FF" font-family="sans-serif" font-size="11" font-weight="bold" textLength="121">execution_role_arn</text><text x="1120" y="1720.414" fill="#D9B8FF" font-family="sans-serif" font-size="11" textLength="41">: string</text><text x="999" y="1743.218" fill="#D9B8FF" font-family="sans-serif" font-size="11" font-weight="bold" textLength="50">memory</text><text x="1049" y="1743.218" fill="#D9B8FF" font-family="sans-serif" font-size="11" textLength="41">: string</text><text x="999" y="1766.023" fill="#D9B8FF" font-family="sans-serif" font-size="11" font-weight="bold" textLength="85">task_role_arn</text><text x="1084" y="1766.023" fill="#D9B8FF" font-family="sans-serif" font-size="11" textLength="41">: string</text><text x="999" y="1788.828" fill="#D9B8FF" font-family="sans-serif" font-size="11" font-weight="bold" textLength="123">ephemeral_storage</text><text x="1122" y="1788.828" fill="#D9B8FF" font-family="sans-serif" font-size="11" textLength="36">: int64</text></a><a xlink:actuate="onRequest" xlink:href="#n" xlink:show="new" xlink:title="#aws_ecs_container_override" xlink:type="simple" target="_top"><rect id="n" width="367" height="230.227" x="1383.5" y="1974" fill="#3D176E" rx="2.5" ry="2.5" style="stroke:#000d19;stroke-width:1.5"/><circle cx="1440.75" cy="1993.895" r="11" fill="#E98DF7" style="stroke:#000d19;stroke-width:1"/><path d="M1443.719 1999.535q-.578.297-1.219.438-.64.156-1.344.156-2.5 0-3.828-1.64-1.312-1.657-1.312-4.782t1.312-4.781q1.328-1.656 3.828-1.656.703 0 1.344.156.656.156 1.219.453v2.719q-.625-.578-1.219-.844-.594-.281-1.219-.281-1.343 0-2.031 1.078-.688 1.062-.688 3.156 0 2.094.688 3.172.688 1.062 2.031 1.062.625 0 1.219-.265.594-.281 1.219-.86v2.72Z"/><text x="1466.25" y="1999.78" fill="#D9B8FF" font-family="Helvetica" font-size="17" textLength="234">aws_ecs_container_override</text><path d="M1384.5 2013.789h365" style="stroke:#000d19;stroke-width:1.5"/><text x="1394.5" y="2032.999" fill="#D9B8FF" font-family="sans-serif" font-size="11" font-weight="bold" textLength="35">name</text><text x="1429.5" y="2032.999" fill="#D9B8FF" font-family="sans-serif" font-size="11" textLength="41">: string</text><text x="1394.5" y="2055.804" fill="#D9B8FF" font-family="sans-serif" font-size="11" font-weight="bold" textLength="61">command</text><text x="1455.5" y="2055.804" fill="#D9B8FF" font-family="sans-serif" font-size="11" textLength="49">: string[]</text><text x="1394.5" y="2078.609" fill="#D9B8FF" font-family="sans-serif" font-size="11" font-weight="bold" textLength="80">environment</text><text x="1474.5" y="2078.609" fill="#D9B8FF" font-family="sans-serif" font-size="11" textLength="154">: aws_ecs_key_value_pair[]</text><text x="1394.5" y="2101.414" fill="#D9B8FF" font-family="sans-serif" font-size="11" font-weight="bold" textLength="114">environment_files</text><text x="1508.5" y="2101.414" fill="#D9B8FF" font-family="sans-serif" font-size="11" textLength="165">: aws_ecs_environment_file[]</text><text x="1394.5" y="2124.218" fill="#D9B8FF" font-family="sans-serif" font-size="11" font-weight="bold" textLength="23">cpu</text><text x="1417.5" y="2124.218" fill="#D9B8FF" font-family="sans-serif" font-size="11" textLength="36">: int64</text><text x="1394.5" y="2147.023" fill="#D9B8FF" font-family="sans-serif" font-size="11" font-weight="bold" textLength="50">memory</text><text x="1444.5" y="2147.023" fill="#D9B8FF" font-family="sans-serif" font-size="11" textLength="36">: int64</text><text x="1394.5" y="2169.828" fill="#D9B8FF" font-family="sans-serif" font-size="11" font-weight="bold" textLength="129">memory_reservation</text><text x="1523.5" y="2169.828" fill="#D9B8FF" font-family="sans-serif" font-size="11" textLength="36">: int64</text><text x="1394.5" y="2192.632" fill="#D9B8FF" font-family="sans-serif" font-size="11" font-weight="bold" textLength="147">resource_requirements</text><text x="1541.5" y="2192.632" fill="#D9B8FF" font-family="sans-serif" font-size="11" textLength="198">: aws_ecs_resource_requirement[]</text></a><a xlink:actuate="onRequest" xlink:href="#o" xlink:show="new" xlink:title="#aws_ecs_resource_requirement" xlink:type="simple" target="_top"><rect id="o" width="304" height="93.398" x="1574" y="2264" fill="#3D176E" rx="2.5" ry="2.5" style="stroke:#000d19;stroke-width:1.5"/><circle cx="1589" cy="2283.894" r="11" fill="#E98DF7" style="stroke:#000d19;stroke-width:1"/><path d="M1591.969 2289.535q-.578.297-1.219.438-.64.156-1.344.156-2.5 0-3.828-1.64-1.312-1.657-1.312-4.782t1.312-4.781q1.328-1.657 3.828-1.657.703 0 1.344.157.656.156 1.219.453v2.719q-.625-.579-1.219-.844-.594-.281-1.219-.281-1.343 0-2.031 1.078-.688 1.062-.688 3.156 0 2.094.688 3.172.688 1.062 2.031 1.062.625 0 1.219-.265.594-.282 1.219-.86v2.72Z"/><text x="1608" y="2289.78" fill="#D9B8FF" font-family="Helvetica" font-size="17" textLength="262">aws_ecs_resource_requirement</text><path d="M1575 2303.789h302" style="stroke:#000d19;stroke-width:1.5"/><text x="1585" y="2322.999" fill="#D9B8FF" font-family="sans-serif" font-size="11" font-weight="bold" textLength="35">value</text><text x="1620" y="2322.999" fill="#D9B8FF" font-family="sans-serif" font-size="11" textLength="41">: string</text><text x="1585" y="2345.804" fill="#D9B8FF" font-family="sans-serif" font-size="11" font-weight="bold" textLength="28">type</text><text x="1613" y="2345.804" fill="#D9B8FF" font-family="sans-serif" font-size="11" textLength="41">: string</text></a><path fill="none" d="M691 303.43V403.9M684 303.26l7-20 7 20h-14zM691 495.14v100.63M684 495.05l7-20 7 20h-14zM492.99 1235.04C426.76 1311.87 353.03 1398.61 287 1479c-38.79 47.23-81.24 101.29-114.02 143.58" style="stroke:#ffaf37;stroke-width:2"/><path fill="#FFAF37" d="m169.84 1626.63 8.676-4.662-5.612.71-.71-5.612-2.354 9.564z" style="stroke:#ffaf37;stroke-width:2"/><path fill="none" d="M517.7 1419.04c-32.99 78.15-63.94 151.48-85.67 202.95" style="stroke:#ffaf37;stroke-width:2"/><path fill="#FFAF37" d="m429.96 1626.9 7.187-6.735-5.242 2.129-2.128-5.241.183 9.847z" style="stroke:#ffaf37;stroke-width:2"/><path fill="none" d="M691 1419.04v54.74" style="stroke:#ffaf37;stroke-width:2"/><path fill="#FFAF37" d="m691 1478.8 4-9-4 4-4-4 4 9z" style="stroke:#ffaf37;stroke-width:2"/><path fill="none" d="M848.07 1419.31c6.62 20.11 12.97 40.08 18.93 59.69 57.81 190.08-5.34 268.46 103 435 20.47 31.47 95.92 86.02 154.69 125.66" style="stroke:#ffaf37;stroke-width:2"/><path fill="#FFAF37" d="m1128.89 2042.49-5.237-8.341 1.088 5.551-5.552 1.087 9.701 1.703z" style="stroke:#ffaf37;stroke-width:2"/><path fill="none" d="M889.22 1276.57c80.56 108.94 168.99 228.54 230.68 311.95" style="stroke:#ffaf37;stroke-width:2"/><path fill="#FFAF37" d="m1123.18 1592.97-2.123-9.617-.845 5.593-5.593-.845 8.561 4.869z" style="stroke:#ffaf37;stroke-width:2"/><path fill="none" d="M96.44 1766.12C68.9 1873.51 34.87 2081.63 141 2204c54.08 62.35 278.08 88.39 423.29 98.86" style="stroke:#ffaf37;stroke-width:2"/><path fill="#FFAF37" d="m569.42 2303.23-8.691-4.633 3.704 4.276-4.276 3.704 9.263-3.347z" style="stroke:#ffaf37;stroke-width:2"/><path fill="none" d="M628.3 1914.16c-10.43 36.06-20.58 71.13-28.99 100.21" style="stroke:#ffaf37;stroke-width:2"/><path fill="#FFAF37" d="m597.86 2019.36 6.34-7.537-4.953 2.733-2.734-4.952 1.347 9.756z" style="stroke:#ffaf37;stroke-width:2"/><path fill="none" d="m795.31 1914.16 53.88 111.93" style="stroke:#ffaf37;stroke-width:2"/><path fill="#FFAF37" d="m851.37 2030.61-.309-9.844-1.864 5.34-5.34-1.863 7.513 6.367z" style="stroke:#ffaf37;stroke-width:2"/><path fill="none" d="M532.43 1897.09c-5.77 5.8-11.59 11.45-17.43 16.91-33.79 31.57-47.97 32.31-85 60-17.92 13.4-36.84 28.03-54.87 42.2" style="stroke:#ffaf37;stroke-width:2"/><path fill="#FFAF37" d="m371.06 2019.4 9.548-2.414-5.616-.675.675-5.616-4.607 8.705z" style="stroke:#ffaf37;stroke-width:2"/><path fill="none" d="M1295.69 1800.1c49.08 52.08 108.95 115.61 159.94 169.73" style="stroke:#ffaf37;stroke-width:2"/><path fill="#FFAF37" d="m1459.29 1973.71-3.255-9.295-.172 5.654-5.654-.171 9.081 3.812z" style="stroke:#ffaf37;stroke-width:2"/><path fill="none" d="M1199 1800.1v236.85" style="stroke:#ffaf37;stroke-width:2"/><path fill="#FFAF37" d="m1199 2042.26 4-9-4 4-4-4 4 9z" style="stroke:#ffaf37;stroke-width:2"/><path fill="none" d="M1383.31 2197.14c-6.11 2.45-12.22 4.74-18.31 6.86-182.94 63.61-407.24 89.01-545.12 99.06" style="stroke:#ffaf37;stroke-width:2"/><path fill="#FFAF37" d="m814.61 2303.44 9.263 3.347-4.276-3.704 3.704-4.276-8.691 4.633z" style="stroke:#ffaf37;stroke-width:2"/><path fill="none" d="M1483.72 2204.25c-14.21 19.49-28.28 38.8-40.42 55.45" style="stroke:#ffaf37;stroke-width:2"/><path fill="#FFAF37" d="m1440.26 2263.87 8.53-4.922-5.587.88-.88-5.588-2.063 9.63z" style="stroke:#ffaf37;stroke-width:2"/><path fill="none" d="M1649.76 2204.25c14.12 19.49 28.1 38.8 40.17 55.45" style="stroke:#ffaf37;stroke-width:2"/><path fill="#FFAF37" d="m1692.95 2263.87-2.04-9.635-.893 5.586-5.586-.893 8.519 4.942z" style="stroke:#ffaf37;stroke-width:2"/></svg>