<svg xmlns="http://www.w3.org/2000/svg" xmlns:xlink="http://www.w3.org/1999/xlink" width="1525" height="1520" preserveAspectRatio="none" style="width:1525px;height:1520px;background:#00000000"><a xlink:actuate="onRequest" xlink:href="#a" xlink:show="new" xlink:title="#aws_resource" xlink:type="simple" target="_top"><rect id="a" width="155" height="70.594" x="451.5" y="404" fill="#3D176E" rx="2.5" ry="2.5" style="stroke:#000d19;stroke-width:1.5"/><circle cx="466.5" cy="423.894" r="11" fill="#E98DF7" style="stroke:#000d19;stroke-width:1"/><path d="M469.469 429.535q-.578.297-1.219.438-.64.156-1.344.156-2.5 0-3.828-1.64-1.312-1.657-1.312-4.782t1.312-4.781q1.328-1.656 3.828-1.656.703 0 1.344.156.656.156 1.219.453v2.719q-.625-.579-1.219-.844-.594-.281-1.219-.281-1.344 0-2.031 1.078-.688 1.062-.688 3.156 0 2.094.688 3.172.688 1.062 2.031 1.062.625 0 1.219-.265.594-.281 1.219-.86v2.72Z"/><text x="485.5" y="429.78" fill="#D9B8FF" font-family="Helvetica" font-size="17" textLength="113">aws_resource</text><path d="M452.5 443.789h153" style="stroke:#000d19;stroke-width:1.5"/><text x="462.5" y="463" fill="#D9B8FF" font-family="sans-serif" font-size="11" font-weight="bold" textLength="21">arn</text><text x="483.5" y="463" fill="#D9B8FF" font-family="sans-serif" font-size="11" textLength="41">: string</text></a><a xlink:actuate="onRequest" xlink:href="#b" xlink:show="new" xlink:title="#resource" xlink:type="simple" target="_top"><rect id="b" width="195" height="275.836" x="431.5" y="7" fill="#3D176E" rx="2.5" ry="2.5" style="stroke:#000d19;stroke-width:1.5"/><circle cx="484.25" cy="26.895" r="11" fill="#E98DF7" style="stroke:#000d19;stroke-width:1"/><path d="M487.219 32.535q-.578.297-1.219.438-.64.156-1.344.156-2.5 0-3.828-1.64-1.312-1.657-1.312-4.782t1.312-4.781q1.328-1.656 3.828-1.656.703 0 1.344.156.656.156 1.219.453v2.719q-.625-.578-1.219-.844-.594-.281-1.219-.281-1.344 0-2.031 1.078-.688 1.062-.688 3.156 0 2.094.688 3.172.688 1.062 2.031 1.062.625 0 1.219-.265.594-.281 1.219-.86v2.72Z"/><text x="509.75" y="32.78" fill="#D9B8FF" font-family="Helvetica" font-size="17" textLength="71">resource</text><path d="M432.5 46.789h193" style="stroke:#000d19;stroke-width:1.5"/><text x="442.5" y="65.999" fill="#D9B8FF" font-family="sans-serif" font-size="11" font-weight="bold" textLength="12">id</text><text x="454.5" y="65.999" fill="#D9B8FF" font-family="sans-serif" font-size="11" textLength="41">: string</text><text x="442.5" y="88.804" fill="#D9B8FF" font-family="sans-serif" font-size="11" font-weight="bold" textLength="28">tags</text><text x="470.5" y="88.804" fill="#D9B8FF" font-family="sans-serif" font-size="11" textLength="145">: dictionary[string, string]</text><text x="442.5" y="111.609" fill="#D9B8FF" font-family="sans-serif" font-size="11" font-weight="bold" textLength="35">name</text><text x="477.5" y="111.609" fill="#D9B8FF" font-family="sans-serif" font-size="11" textLength="41">: string</text><text x="442.5" y="134.414" fill="#D9B8FF" font-family="sans-serif" font-size="11" font-weight="bold" textLength="35">ctime</text><text x="477.5" y="134.414" fill="#D9B8FF" font-family="sans-serif" font-size="11" textLength="58">: datetime</text><text x="442.5" y="157.218" fill="#D9B8FF" font-family="sans-serif" font-size="11" font-weight="bold" textLength="24">age</text><text x="466.5" y="157.218" fill="#D9B8FF" font-family="sans-serif" font-size="11" textLength="55">: duration</text><text x="442.5" y="180.023" fill="#D9B8FF" font-family="sans-serif" font-size="11" font-weight="bold" textLength="39">mtime</text><text x="481.5" y="180.023" fill="#D9B8FF" font-family="sans-serif" font-size="11" textLength="58">: datetime</text><text x="442.5" y="202.828" fill="#D9B8FF" font-family="sans-serif" font-size="11" font-weight="bold" textLength="75">last_update</text><text x="517.5" y="202.828" fill="#D9B8FF" font-family="sans-serif" font-size="11" textLength="55">: duration</text><text x="442.5" y="225.632" fill="#D9B8FF" font-family="sans-serif" font-size="11" font-weight="bold" textLength="36">atime</text><text x="478.5" y="225.632" fill="#D9B8FF" font-family="sans-serif" font-size="11" textLength="58">: datetime</text><text x="442.5" y="248.437" fill="#D9B8FF" font-family="sans-serif" font-size="11" font-weight="bold" textLength="74">last_access</text><text x="516.5" y="248.437" fill="#D9B8FF" font-family="sans-serif" font-size="11" textLength="55">: duration</text><text x="442.5" y="271.242" fill="#D9B8FF" font-family="sans-serif" font-size="11" font-weight="bold" textLength="27">kind</text><text x="469.5" y="271.242" fill="#D9B8FF" font-family="sans-serif" font-size="11" textLength="41">: string</text></a><a xlink:actuate="onRequest" xlink:href="#c" xlink:show="new" xlink:title="#aws_ecs_attachment" xlink:type="simple" target="_top"><rect id="c" width="220" height="139.008" x="7" y="977" fill="#3D176E" rx="2.5" ry="2.5" style="stroke:#000d19;stroke-width:1.5"/><circle cx="23.35" cy="996.894" r="11" fill="#E98DF7" style="stroke:#000d19;stroke-width:1"/><path d="M26.319 1002.535q-.578.297-1.219.438-.64.156-1.344.156-2.5 0-3.828-1.64-1.312-1.657-1.312-4.782t1.312-4.781q1.328-1.657 3.828-1.657.703 0 1.344.157.656.156 1.219.453v2.719q-.625-.578-1.219-.844-.594-.281-1.219-.281-1.343 0-2.031 1.078-.688 1.062-.688 3.156 0 2.094.688 3.172.688 1.062 2.031 1.062.625 0 1.219-.265.594-.282 1.219-.86v2.72Z"/><text x="42.65" y="1002.78" fill="#D9B8FF" font-family="Helvetica" font-size="17" textLength="175">aws_ecs_attachment</text><path d="M8 1016.789h218" style="stroke:#000d19;stroke-width:1.5"/><text x="18" y="1035.999" fill="#D9B8FF" font-family="sans-serif" font-size="11" font-weight="bold" textLength="12">id</text><text x="30" y="1035.999" fill="#D9B8FF" font-family="sans-serif" font-size="11" textLength="41">: string</text><text x="18" y="1058.804" fill="#D9B8FF" font-family="sans-serif" font-size="11" font-weight="bold" textLength="28">type</text><text x="46" y="1058.804" fill="#D9B8FF" font-family="sans-serif" font-size="11" textLength="41">: string</text><text x="18" y="1081.609" fill="#D9B8FF" font-family="sans-serif" font-size="11" font-weight="bold" textLength="40">status</text><text x="58" y="1081.609" fill="#D9B8FF" font-family="sans-serif" font-size="11" textLength="41">: string</text><text x="18" y="1104.414" fill="#D9B8FF" font-family="sans-serif" font-size="11" font-weight="bold" textLength="44">details</text><text x="62" y="1104.414" fill="#D9B8FF" font-family="sans-serif" font-size="11" textLength="154">: aws_ecs_key_value_pair[]</text></a><a xlink:actuate="onRequest" xlink:href="#d" xlink:show="new" xlink:title="#aws_ecs_key_value_pair" xlink:type="simple" target="_top"><rect id="d" width="245" height="93.398" x="76.5" y="1187.5" fill="#3D176E" rx="2.5" ry="2.5" style="stroke:#000d19;stroke-width:1.5"/><circle cx="91.5" cy="1207.395" r="11" fill="#E98DF7" style="stroke:#000d19;stroke-width:1"/><path d="M94.469 1213.035q-.578.297-1.219.438-.64.156-1.344.156-2.5 0-3.828-1.64-1.312-1.657-1.312-4.782t1.312-4.781q1.328-1.656 3.828-1.656.703 0 1.344.156.656.156 1.219.453v2.719q-.625-.578-1.219-.844-.594-.281-1.219-.281-1.344 0-2.031 1.078-.688 1.062-.688 3.156 0 2.094.688 3.172.688 1.062 2.031 1.062.625 0 1.219-.265.594-.281 1.219-.86v2.72Z"/><text x="110.5" y="1213.28" fill="#D9B8FF" font-family="Helvetica" font-size="17" textLength="203">aws_ecs_key_value_pair</text><path d="M77.5 1227.289h243" style="stroke:#000d19;stroke-width:1.5"/><text x="87.5" y="1246.499" fill="#D9B8FF" font-family="sans-serif" font-size="11" font-weight="bold" textLength="35">name</text><text x="122.5" y="1246.499" fill="#D9B8FF" font-family="sans-serif" font-size="11" textLength="41">: string</text><text x="87.5" y="1269.304" fill="#D9B8FF" font-family="sans-serif" font-size="11" font-weight="bold" textLength="35">value</text><text x="122.5" y="1269.304" fill="#D9B8FF" font-family="sans-serif" font-size="11" textLength="41">: string</text></a><a xlink:actuate="onRequest" xlink:href="#e" xlink:show="new" xlink:title="#aws_ecs_execute_command_log_configuration" xlink:type="simple" target="_top"><rect id="e" width="431" height="161.813" x="784.5" y="1352" fill="#3D176E" rx="2.5" ry="2.5" style="stroke:#000d19;stroke-width:1.5"/><circle cx="799.5" cy="1371.895" r="11" fill="#E98DF7" style="stroke:#000d19;stroke-width:1"/><path d="M802.469 1377.535q-.578.297-1.219.438-.64.156-1.344.156-2.5 0-3.828-1.64-1.312-1.657-1.312-4.782t1.312-4.781q1.328-1.656 3.828-1.656.703 0 1.344.156.656.156 1.219.453v2.719q-.625-.578-1.219-.844-.594-.281-1.219-.281-1.343 0-2.031 1.078-.688 1.062-.688 3.156 0 2.094.688 3.172.688 1.062 2.031 1.062.625 0 1.219-.265.594-.281 1.219-.86v2.72Z"/><text x="818.5" y="1377.78" fill="#D9B8FF" font-family="Helvetica" font-size="17" textLength="389">aws_ecs_execute_command_log_configuration</text><path d="M785.5 1391.789h429" style="stroke:#000d19;stroke-width:1.5"/><text x="795.5" y="1410.999" fill="#D9B8FF" font-family="sans-serif" font-size="11" font-weight="bold" textLength="190">cloud_watch_log_group_name</text><text x="985.5" y="1410.999" fill="#D9B8FF" font-family="sans-serif" font-size="11" textLength="41">: string</text><text x="795.5" y="1433.804" fill="#D9B8FF" font-family="sans-serif" font-size="11" font-weight="bold" textLength="212">cloud_watch_encryption_enabled</text><text x="1007.5" y="1433.804" fill="#D9B8FF" font-family="sans-serif" font-size="11" textLength="53">: boolean</text><text x="795.5" y="1456.609" fill="#D9B8FF" font-family="sans-serif" font-size="11" font-weight="bold" textLength="105">s3_bucket_name</text><text x="900.5" y="1456.609" fill="#D9B8FF" font-family="sans-serif" font-size="11" textLength="41">: string</text><text x="795.5" y="1479.414" fill="#D9B8FF" font-family="sans-serif" font-size="11" font-weight="bold" textLength="147">s3_encryption_enabled</text><text x="942.5" y="1479.414" fill="#D9B8FF" font-family="sans-serif" font-size="11" textLength="53">: boolean</text><text x="795.5" y="1502.218" fill="#D9B8FF" font-family="sans-serif" font-size="11" font-weight="bold" textLength="86">s3_key_prefix</text><text x="881.5" y="1502.218" fill="#D9B8FF" font-family="sans-serif" font-size="11" textLength="41">: string</text></a><a xlink:actuate="onRequest" xlink:href="#f" xlink:show="new" xlink:title="#aws_ecs_capacity_provider_strategy_item" xlink:type="simple" target="_top"><rect id="f" width="391" height="116.203" x="333.5" y="988.5" fill="#3D176E" rx="2.5" ry="2.5" style="stroke:#000d19;stroke-width:1.5"/><circle cx="348.5" cy="1008.394" r="11" fill="#E98DF7" style="stroke:#000d19;stroke-width:1"/><path d="M351.469 1014.035q-.578.297-1.219.438-.64.156-1.344.156-2.5 0-3.828-1.64-1.312-1.657-1.312-4.782t1.312-4.781q1.328-1.657 3.828-1.657.703 0 1.344.157.656.156 1.219.453v2.719q-.625-.578-1.219-.844-.594-.281-1.219-.281-1.344 0-2.031 1.078-.688 1.062-.688 3.156 0 2.094.688 3.172.688 1.062 2.031 1.062.625 0 1.219-.265.594-.282 1.219-.86v2.72Z"/><text x="367.5" y="1014.28" fill="#D9B8FF" font-family="Helvetica" font-size="17" textLength="349">aws_ecs_capacity_provider_strategy_item</text><path d="M334.5 1028.289h389" style="stroke:#000d19;stroke-width:1.5"/><text x="344.5" y="1047.499" fill="#D9B8FF" font-family="sans-serif" font-size="11" font-weight="bold" textLength="113">capacity_provider</text><text x="457.5" y="1047.499" fill="#D9B8FF" font-family="sans-serif" font-size="11" textLength="41">: string</text><text x="344.5" y="1070.304" fill="#D9B8FF" font-family="sans-serif" font-size="11" font-weight="bold" textLength="44">weight</text><text x="388.5" y="1070.304" fill="#D9B8FF" font-family="sans-serif" font-size="11" textLength="36">: int64</text><text x="344.5" y="1093.109" fill="#D9B8FF" font-family="sans-serif" font-size="11" font-weight="bold" textLength="31">base</text><text x="375.5" y="1093.109" fill="#D9B8FF" font-family="sans-serif" font-size="11" textLength="36">: int64</text></a><a xlink:actuate="onRequest" xlink:href="#g" xlink:show="new" xlink:title="#aws_ecs_cluster" xlink:type="simple" target="_top"><rect id="g" width="550" height="321.445" x="254" y="596" fill="#3D176E" rx="2.5" ry="2.5" style="stroke:#000d19;stroke-width:1.5"/><circle cx="453.25" cy="615.894" r="11" fill="#E98DF7" style="stroke:#000d19;stroke-width:1"/><path d="M456.219 621.535q-.578.297-1.219.438-.64.156-1.344.156-2.5 0-3.828-1.64-1.312-1.657-1.312-4.782t1.312-4.781q1.328-1.657 3.828-1.657.703 0 1.344.157.656.156 1.219.453v2.719q-.625-.578-1.219-.844-.594-.281-1.219-.281-1.344 0-2.031 1.078-.688 1.062-.688 3.156 0 2.094.688 3.172.688 1.062 2.031 1.062.625 0 1.219-.265.594-.282 1.219-.86v2.72Z"/><text x="478.75" y="621.78" fill="#D9B8FF" font-family="Helvetica" font-size="17" textLength="133">aws_ecs_cluster</text><path d="M255 635.789h548" style="stroke:#000d19;stroke-width:1.5"/><text x="265" y="655" fill="#D9B8FF" font-family="sans-serif" font-size="11" font-weight="bold" textLength="136">cluster_configuration</text><text x="401" y="655" fill="#D9B8FF" font-family="sans-serif" font-size="11" textLength="182">: aws_ecs_cluster_configuration</text><text x="265" y="677.804" fill="#D9B8FF" font-family="sans-serif" font-size="11" font-weight="bold" textLength="90">cluster_status</text><text x="355" y="677.804" fill="#D9B8FF" font-family="sans-serif" font-size="11" textLength="41">: string</text><text x="265" y="700.609" fill="#D9B8FF" font-family="sans-serif" font-size="11" font-weight="bold" textLength="293">cluster_registered_container_instances_count</text><text x="558" y="700.609" fill="#D9B8FF" font-family="sans-serif" font-size="11" textLength="36">: int64</text><text x="265" y="723.414" fill="#D9B8FF" font-family="sans-serif" font-size="11" font-weight="bold" textLength="181">cluster_running_tasks_count</text><text x="446" y="723.414" fill="#D9B8FF" font-family="sans-serif" font-size="11" textLength="36">: int64</text><text x="265" y="746.218" fill="#D9B8FF" font-family="sans-serif" font-size="11" font-weight="bold" textLength="184">cluster_pending_tasks_count</text><text x="449" y="746.218" fill="#D9B8FF" font-family="sans-serif" font-size="11" textLength="36">: int64</text><text x="265" y="769.023" fill="#D9B8FF" font-family="sans-serif" font-size="11" font-weight="bold" textLength="190">cluster_active_services_count</text><text x="455" y="769.023" fill="#D9B8FF" font-family="sans-serif" font-size="11" textLength="36">: int64</text><text x="265" y="791.828" fill="#D9B8FF" font-family="sans-serif" font-size="11" font-weight="bold" textLength="109">cluster_statistics</text><text x="374" y="791.828" fill="#D9B8FF" font-family="sans-serif" font-size="11" textLength="154">: aws_ecs_key_value_pair[]</text><text x="265" y="814.632" fill="#D9B8FF" font-family="sans-serif" font-size="11" font-weight="bold" textLength="102">cluster_settings</text><text x="367" y="814.632" fill="#D9B8FF" font-family="sans-serif" font-size="11" textLength="155">: aws_ecs_cluster_setting[]</text><text x="265" y="837.437" fill="#D9B8FF" font-family="sans-serif" font-size="11" font-weight="bold" textLength="170">cluster_capacity_providers</text><text x="435" y="837.437" fill="#D9B8FF" font-family="sans-serif" font-size="11" textLength="49">: string[]</text><text x="265" y="860.242" fill="#D9B8FF" font-family="sans-serif" font-size="11" font-weight="bold" textLength="274">cluster_default_capacity_provider_strategy</text><text x="539" y="860.242" fill="#D9B8FF" font-family="sans-serif" font-size="11" textLength="254">: aws_ecs_capacity_provider_strategy_item[]</text><text x="265" y="883.046" fill="#D9B8FF" font-family="sans-serif" font-size="11" font-weight="bold" textLength="130">cluster_attachments</text><text x="395" y="883.046" fill="#D9B8FF" font-family="sans-serif" font-size="11" textLength="135">: aws_ecs_attachment[]</text><text x="265" y="905.851" fill="#D9B8FF" font-family="sans-serif" font-size="11" font-weight="bold" textLength="176">cluster_attachments_status</text><text x="441" y="905.851" fill="#D9B8FF" font-family="sans-serif" font-size="11" textLength="41">: string</text></a><a xlink:actuate="onRequest" xlink:href="#h" xlink:show="new" xlink:title="#aws_ecs_cluster_configuration" xlink:type="simple" target="_top"><rect id="h" width="481" height="70.594" x="759.5" y="1011" fill="#3D176E" rx="2.5" ry="2.5" style="stroke:#000d19;stroke-width:1.5"/><circle cx="864.25" cy="1030.895" r="11" fill="#E98DF7" style="stroke:#000d19;stroke-width:1"/><path d="M867.219 1036.535q-.578.297-1.219.438-.64.156-1.344.156-2.5 0-3.828-1.64-1.312-1.657-1.312-4.782t1.312-4.781q1.328-1.656 3.828-1.656.703 0 1.344.156.656.156 1.219.453v2.719q-.625-.578-1.219-.844-.594-.281-1.219-.281-1.343 0-2.031 1.078-.688 1.062-.688 3.156 0 2.094.688 3.172.688 1.062 2.031 1.062.625 0 1.219-.265.594-.281 1.219-.86v2.72Z"/><text x="889.75" y="1036.78" fill="#D9B8FF" font-family="Helvetica" font-size="17" textLength="253">aws_ecs_cluster_configuration</text><path d="M760.5 1050.789h479" style="stroke:#000d19;stroke-width:1.5"/><text x="770.5" y="1069.999" fill="#D9B8FF" font-family="sans-serif" font-size="11" font-weight="bold" textLength="210">execute_command_configuration</text><text x="980.5" y="1069.999" fill="#D9B8FF" font-family="sans-serif" font-size="11" textLength="249">: aws_ecs_execute_command_configuration</text></a><a xlink:actuate="onRequest" xlink:href="#i" xlink:show="new" xlink:title="#aws_ecs_execute_command_configuration" xlink:type="simple" target="_top"><rect id="i" width="406" height="116.203" x="797" y="1176" fill="#3D176E" rx="2.5" ry="2.5" style="stroke:#000d19;stroke-width:1.5"/><circle cx="816.05" cy="1195.895" r="11" fill="#E98DF7" style="stroke:#000d19;stroke-width:1"/><path d="M819.019 1201.535q-.578.297-1.219.438-.64.156-1.344.156-2.5 0-3.828-1.64-1.312-1.657-1.312-4.782t1.312-4.781q1.328-1.656 3.828-1.656.703 0 1.344.156.656.156 1.219.453v2.719q-.625-.578-1.219-.844-.594-.281-1.219-.281-1.344 0-2.031 1.078-.688 1.062-.688 3.156 0 2.094.688 3.172.688 1.062 2.031 1.062.625 0 1.219-.265.594-.281 1.219-.86v2.72Z"/><text x="835.95" y="1201.78" fill="#D9B8FF" font-family="Helvetica" font-size="17" textLength="355">aws_ecs_execute_command_configuration</text><path d="M798 1215.789h404" style="stroke:#000d19;stroke-width:1.5"/><text x="808" y="1234.999" fill="#D9B8FF" font-family="sans-serif" font-size="11" font-weight="bold" textLength="71">kms_key_id</text><text x="879" y="1234.999" fill="#D9B8FF" font-family="sans-serif" font-size="11" textLength="41">: string</text><text x="808" y="1257.804" fill="#D9B8FF" font-family="sans-serif" font-size="11" font-weight="bold" textLength="48">logging</text><text x="856" y="1257.804" fill="#D9B8FF" font-family="sans-serif" font-size="11" textLength="41">: string</text><text x="808" y="1280.609" fill="#D9B8FF" font-family="sans-serif" font-size="11" font-weight="bold" textLength="112">log_configuration</text><text x="920" y="1280.609" fill="#D9B8FF" font-family="sans-serif" font-size="11" textLength="272">: aws_ecs_execute_command_log_configuration</text></a><a xlink:actuate="onRequest" xlink:href="#j" xlink:show="new" xlink:title="#aws_ecs_cluster_setting" xlink:type="simple" target="_top"><rect id="j" width="242" height="93.398" x="1276" y="1000" fill="#3D176E" rx="2.5" ry="2.5" style="stroke:#000d19;stroke-width:1.5"/><circle cx="1291" cy="1019.894" r="11" fill="#E98DF7" style="stroke:#000d19;stroke-width:1"/><path d="M1293.969 1025.535q-.578.297-1.219.438-.64.156-1.344.156-2.5 0-3.828-1.64-1.312-1.657-1.312-4.782t1.312-4.781q1.328-1.657 3.828-1.657.703 0 1.344.157.656.156 1.219.453v2.719q-.625-.578-1.219-.844-.594-.281-1.219-.281-1.343 0-2.031 1.078-.688 1.062-.688 3.156 0 2.094.688 3.172.688 1.062 2.031 1.062.625 0 1.219-.265.594-.282 1.219-.86v2.72Z"/><text x="1310" y="1025.78" fill="#D9B8FF" font-family="Helvetica" font-size="17" textLength="200">aws_ecs_cluster_setting</text><path d="M1277 1039.789h240" style="stroke:#000d19;stroke-width:1.5"/><text x="1287" y="1058.999" fill="#D9B8FF" font-family="sans-serif" font-size="11" font-weight="bold" textLength="35">name</text><text x="1322" y="1058.999" fill="#D9B8FF" font-family="sans-serif" font-size="11" textLength="41">: string</text><text x="1287" y="1081.804" fill="#D9B8FF" font-family="sans-serif" font-size="11" font-weight="bold" textLength="35">value</text><text x="1322" y="1081.804" fill="#D9B8FF" font-family="sans-serif" font-size="11" textLength="41">: string</text></a><path fill="none" d="M529 303.43V403.9m-7-100.64 7-20 7 20h-14zm-374.7 812.79c9.76 22.06 20.38 46.1 29.45 66.61" style="stroke:#ffaf37;stroke-width:2"/><path fill="#FFAF37" d="m178.78 1187.25.031-9.849-2.047 5.274-5.273-2.048 7.289 6.623z" style="stroke:#ffaf37;stroke-width:2"/><path fill="none" d="M529 495.48v100.28m-7-100.65 7-20 7 20h-14zm267.98 421.97c55.68 34.05 109.44 66.92 148.63 90.88" style="stroke:#ffaf37;stroke-width:2"/><path fill="#FFAF37" d="m943.31 1010.84-5.576-8.118 1.315 5.501-5.501 1.316 9.762 1.301z" style="stroke:#ffaf37;stroke-width:2"/><path fill="none" d="M362.25 917.26C345.66 936.61 329.86 956.72 316 977c-24.05 35.19-69.66 141.3-96.27 205.34" style="stroke:#ffaf37;stroke-width:2"/><path fill="#FFAF37" d="m217.69 1187.25 7.143-6.78-5.227 2.162-2.162-5.228.246 9.846z" style="stroke:#ffaf37;stroke-width:2"/><path fill="none" d="M804.41 828.8C942.43 867.45 1111.04 919.12 1258 977c15.54 6.12 31.72 13.3 47.31 20.67" style="stroke:#ffaf37;stroke-width:2"/><path fill="#FFAF37" d="m1310.13 999.96-6.415-7.473 1.898 5.329-5.329 1.898 9.846.246z" style="stroke:#ffaf37;stroke-width:2"/><path fill="none" d="M529 917.08v65.9" style="stroke:#ffaf37;stroke-width:2"/><path fill="#FFAF37" d="m529 988.2 4-9-4 4-4-4 4 9z" style="stroke:#ffaf37;stroke-width:2"/><path fill="none" d="M300.71 917.08c-28.43 19.88-56.29 39.35-81.38 56.89" style="stroke:#ffaf37;stroke-width:2"/><path fill="#FFAF37" d="m215.01 976.99 9.667-1.886-5.571-.982.981-5.571-5.077 8.439z" style="stroke:#ffaf37;stroke-width:2"/><path fill="none" d="M1000 1082.39v88.21" style="stroke:#ffaf37;stroke-width:2"/><path fill="#FFAF37" d="m1000 1175.66 4-9-4 4-4-4 4 9z" style="stroke:#ffaf37;stroke-width:2"/><path fill="none" d="M1000 1292.25v54.47" style="stroke:#ffaf37;stroke-width:2"/><path fill="#FFAF37" d="m1000 1351.9 4-9-4 4-4-4 4 9z" style="stroke:#ffaf37;stroke-width:2"/></svg>