<svg xmlns="http://www.w3.org/2000/svg" xmlns:xlink="http://www.w3.org/1999/xlink" width="3011" height="852" preserveAspectRatio="none" style="width:3011px;height:852px;background:#00000000"><a xlink:actuate="onRequest" xlink:href="#a" xlink:show="new" xlink:title="#aws_vpc_endpoint" xlink:type="simple" target="_top"><rect id="a" width="195" height="39.789" x="1925.5" y="507" fill="#3D176E" rx="2.5" ry="2.5" style="stroke:#000d19;stroke-width:1.5"/><circle cx="1940.5" cy="526.894" r="11" fill="#E98DF7" style="stroke:#000d19;stroke-width:1"/><path d="M1943.469 532.535q-.578.297-1.219.438-.64.156-1.344.156-2.5 0-3.828-1.64-1.312-1.657-1.312-4.782t1.312-4.781q1.328-1.657 3.828-1.657.703 0 1.344.157.656.156 1.219.453v2.719q-.625-.578-1.219-.844-.594-.281-1.219-.281-1.343 0-2.031 1.078-.688 1.062-.688 3.156 0 2.094.688 3.172.688 1.062 2.031 1.062.625 0 1.219-.265.594-.282 1.219-.86v2.72Z"/><text x="1959.5" y="532.78" fill="#D9B8FF" font-family="Helvetica" font-size="17" textLength="153">aws_vpc_endpoint</text></a><a xlink:actuate="onRequest" xlink:href="#b" xlink:show="new" xlink:title="#aws_lambda_function" xlink:type="simple" target="_top"><rect id="b" width="224" height="39.789" x="1372" y="507" fill="#3D176E" rx="2.5" ry="2.5" style="stroke:#000d19;stroke-width:1.5"/><circle cx="1387" cy="526.894" r="11" fill="#E98DF7" style="stroke:#000d19;stroke-width:1"/><path d="M1389.969 532.535q-.578.297-1.219.438-.64.156-1.344.156-2.5 0-3.828-1.64-1.312-1.657-1.312-4.782t1.312-4.781q1.328-1.657 3.828-1.657.703 0 1.344.157.656.156 1.219.453v2.719q-.625-.578-1.219-.844-.594-.281-1.219-.281-1.343 0-2.031 1.078-.688 1.062-.688 3.156 0 2.094.688 3.172.688 1.062 2.031 1.062.625 0 1.219-.265.594-.282 1.219-.86v2.72Z"/><text x="1406" y="532.78" fill="#D9B8FF" font-family="Helvetica" font-size="17" textLength="182">aws_lambda_function</text></a><a xlink:actuate="onRequest" xlink:href="#c" xlink:show="new" xlink:title="#aws_ec2_instance" xlink:type="simple" target="_top"><rect id="c" width="192" height="39.789" x="686" y="707" fill="#3D176E" rx="2.5" ry="2.5" style="stroke:#000d19;stroke-width:1.5"/><circle cx="701" cy="726.894" r="11" fill="#E98DF7" style="stroke:#000d19;stroke-width:1"/><path d="M703.969 732.535q-.578.297-1.219.438-.64.156-1.344.156-2.5 0-3.828-1.64-1.312-1.657-1.312-4.782t1.312-4.781q1.328-1.657 3.828-1.657.703 0 1.344.157.656.156 1.219.453v2.719q-.625-.578-1.219-.844-.594-.281-1.219-.281-1.343 0-2.031 1.078-.688 1.062-.688 3.156 0 2.094.688 3.172.688 1.062 2.031 1.062.625 0 1.219-.265.594-.282 1.219-.86v2.72Z"/><text x="720" y="732.78" fill="#D9B8FF" font-family="Helvetica" font-size="17" textLength="150">aws_ec2_instance</text></a><a xlink:actuate="onRequest" xlink:href="#d" xlink:show="new" xlink:title="#aws_alb_target_group" xlink:type="simple" target="_top"><rect id="d" width="226" height="39.789" x="574" y="607" fill="#3D176E" rx="2.5" ry="2.5" style="stroke:#000d19;stroke-width:1.5"/><circle cx="589" cy="626.894" r="11" fill="#E98DF7" style="stroke:#000d19;stroke-width:1"/><path d="M591.969 632.535q-.578.297-1.219.438-.64.156-1.344.156-2.5 0-3.828-1.64-1.312-1.657-1.312-4.782t1.312-4.781q1.328-1.657 3.828-1.657.703 0 1.344.157.656.156 1.219.453v2.719q-.625-.578-1.219-.844-.594-.281-1.219-.281-1.343 0-2.031 1.078-.688 1.062-.688 3.156 0 2.094.688 3.172.688 1.062 2.031 1.062.625 0 1.219-.265.594-.282 1.219-.86v2.72Z"/><text x="608" y="632.78" fill="#D9B8FF" font-family="Helvetica" font-size="17" textLength="184">aws_alb_target_group</text></a><a xlink:actuate="onRequest" xlink:href="#e" xlink:show="new" xlink:title="#aws_elb" xlink:type="simple" target="_top"><rect id="e" width="109" height="39.789" x="836.5" y="507" fill="#3D176E" rx="2.5" ry="2.5" style="stroke:#000d19;stroke-width:1.5"/><circle cx="851.5" cy="526.894" r="11" fill="#E98DF7" style="stroke:#000d19;stroke-width:1"/><path d="M854.469 532.535q-.578.297-1.219.438-.64.156-1.344.156-2.5 0-3.828-1.64-1.312-1.657-1.312-4.782t1.312-4.781q1.328-1.657 3.828-1.657.703 0 1.344.157.656.156 1.219.453v2.719q-.625-.578-1.219-.844-.594-.281-1.219-.281-1.343 0-2.031 1.078-.688 1.062-.688 3.156 0 2.094.688 3.172.688 1.062 2.031 1.062.625 0 1.219-.265.594-.282 1.219-.86v2.72Z"/><text x="870.5" y="532.78" fill="#D9B8FF" font-family="Helvetica" font-size="17" textLength="67">aws_elb</text></a><a xlink:actuate="onRequest" xlink:href="#f" xlink:show="new" xlink:title="#aws_redshift_cluster" xlink:type="simple" target="_top"><rect id="f" width="213" height="39.789" x="1123.5" y="507" fill="#3D176E" rx="2.5" ry="2.5" style="stroke:#000d19;stroke-width:1.5"/><circle cx="1138.5" cy="526.894" r="11" fill="#E98DF7" style="stroke:#000d19;stroke-width:1"/><path d="M1141.469 532.535q-.578.297-1.219.438-.64.156-1.344.156-2.5 0-3.828-1.64-1.312-1.657-1.312-4.782t1.312-4.781q1.328-1.657 3.828-1.657.703 0 1.344.157.656.156 1.219.453v2.719q-.625-.578-1.219-.844-.594-.281-1.219-.281-1.343 0-2.031 1.078-.688 1.062-.688 3.156 0 2.094.688 3.172.688 1.062 2.031 1.062.625 0 1.219-.265.594-.282 1.219-.86v2.72Z"/><text x="1157.5" y="532.78" fill="#D9B8FF" font-family="Helvetica" font-size="17" textLength="171">aws_redshift_cluster</text></a><a xlink:actuate="onRequest" xlink:href="#g" xlink:show="new" xlink:title="#aws_ec2_network_interface" xlink:type="simple" target="_top"><rect id="g" width="275" height="39.789" x="644.5" y="807" fill="#3D176E" rx="2.5" ry="2.5" style="stroke:#000d19;stroke-width:1.5"/><circle cx="659.5" cy="826.894" r="11" fill="#E98DF7" style="stroke:#000d19;stroke-width:1"/><path d="M662.469 832.535q-.578.297-1.219.438-.64.156-1.344.156-2.5 0-3.828-1.64-1.312-1.657-1.312-4.782t1.312-4.781q1.328-1.657 3.828-1.657.703 0 1.344.157.656.156 1.219.453v2.719q-.625-.578-1.219-.844-.594-.281-1.219-.281-1.343 0-2.031 1.078-.688 1.062-.688 3.156 0 2.094.688 3.172.688 1.062 2.031 1.062.625 0 1.219-.265.594-.282 1.219-.86v2.72Z"/><text x="678.5" y="832.78" fill="#D9B8FF" font-family="Helvetica" font-size="17" textLength="233">aws_ec2_network_interface</text></a><a xlink:actuate="onRequest" xlink:href="#h" xlink:show="new" xlink:title="#aws_ec2_nat_gateway" xlink:type="simple" target="_top"><rect id="h" width="231" height="39.789" x="831.5" y="107" fill="#3D176E" rx="2.5" ry="2.5" style="stroke:#000d19;stroke-width:1.5"/><circle cx="846.5" cy="126.894" r="11" fill="#E98DF7" style="stroke:#000d19;stroke-width:1"/><path d="M849.469 132.535q-.578.297-1.219.438-.64.156-1.344.156-2.5 0-3.828-1.64-1.312-1.657-1.312-4.782t1.312-4.781q1.328-1.657 3.828-1.657.703 0 1.344.157.656.156 1.219.453v2.719q-.625-.579-1.219-.844-.594-.281-1.219-.281-1.343 0-2.031 1.078-.688 1.062-.688 3.156 0 2.094.688 3.172.688 1.062 2.031 1.062.625 0 1.219-.265.594-.281 1.219-.86v2.72Z"/><text x="865.5" y="132.78" fill="#D9B8FF" font-family="Helvetica" font-size="17" textLength="189">aws_ec2_nat_gateway</text></a><a xlink:actuate="onRequest" xlink:href="#i" xlink:show="new" xlink:title="#aws_rds_instance" xlink:type="simple" target="_top"><rect id="i" width="188" height="39.789" x="1702" y="507" fill="#3D176E" rx="2.5" ry="2.5" style="stroke:#000d19;stroke-width:1.5"/><circle cx="1717" cy="526.894" r="11" fill="#E98DF7" style="stroke:#000d19;stroke-width:1"/><path d="M1719.969 532.535q-.578.297-1.219.438-.64.156-1.344.156-2.5 0-3.828-1.64-1.312-1.657-1.312-4.782t1.312-4.781q1.328-1.657 3.828-1.657.703 0 1.344.157.656.156 1.219.453v2.719q-.625-.578-1.219-.844-.594-.281-1.219-.281-1.343 0-2.031 1.078-.688 1.062-.688 3.156 0 2.094.688 3.172.688 1.062 2.031 1.062.625 0 1.219-.265.594-.282 1.219-.86v2.72Z"/><text x="1736" y="532.78" fill="#D9B8FF" font-family="Helvetica" font-size="17" textLength="146">aws_rds_instance</text></a><a xlink:actuate="onRequest" xlink:href="#j" xlink:show="new" xlink:title="#aws_vpc" xlink:type="simple" target="_top"><rect id="j" width="112" height="39.789" x="1242" y="207" fill="#3D176E" rx="2.5" ry="2.5" style="stroke:#000d19;stroke-width:1.5"/><circle cx="1257" cy="226.894" r="11" fill="#E98DF7" style="stroke:#000d19;stroke-width:1"/><path d="M1259.969 232.535q-.578.297-1.219.438-.64.156-1.344.156-2.5 0-3.828-1.64-1.312-1.657-1.312-4.782t1.312-4.781q1.328-1.656 3.828-1.656.703 0 1.344.156.656.156 1.219.453v2.719q-.625-.579-1.219-.844-.594-.281-1.219-.281-1.343 0-2.031 1.078-.688 1.062-.688 3.156 0 2.094.688 3.172.688 1.062 2.031 1.062.625 0 1.219-.265.594-.281 1.219-.86v2.72Z"/><text x="1276" y="232.78" fill="#D9B8FF" font-family="Helvetica" font-size="17" textLength="70">aws_vpc</text></a><a xlink:actuate="onRequest" xlink:href="#k" xlink:show="new" xlink:title="#aws_ec2_flow_log" xlink:type="simple" target="_top"><rect id="k" width="192" height="39.789" x="911" y="307" fill="#3D176E" rx="2.5" ry="2.5" style="stroke:#000d19;stroke-width:1.5"/><circle cx="926" cy="326.894" r="11" fill="#E98DF7" style="stroke:#000d19;stroke-width:1"/><path d="M928.969 332.535q-.578.297-1.219.438-.64.156-1.344.156-2.5 0-3.828-1.64-1.312-1.657-1.312-4.782t1.312-4.781q1.328-1.656 3.828-1.656.703 0 1.344.156.656.156 1.219.453v2.719q-.625-.579-1.219-.844-.594-.281-1.219-.281-1.343 0-2.031 1.078-.688 1.062-.688 3.156 0 2.094.688 3.172.688 1.062 2.031 1.062.625 0 1.219-.265.594-.281 1.219-.86v2.72Z"/><text x="945" y="332.78" fill="#D9B8FF" font-family="Helvetica" font-size="17" textLength="150">aws_ec2_flow_log</text></a><a xlink:actuate="onRequest" xlink:href="#l" xlink:show="new" xlink:title="#aws_vpc_peering_connection" xlink:type="simple" target="_top"><rect id="l" width="284" height="39.789" x="1894" y="307" fill="#3D176E" rx="2.5" ry="2.5" style="stroke:#000d19;stroke-width:1.5"/><circle cx="1909" cy="326.894" r="11" fill="#E98DF7" style="stroke:#000d19;stroke-width:1"/><path d="M1911.969 332.535q-.578.297-1.219.438-.64.156-1.344.156-2.5 0-3.828-1.64-1.312-1.657-1.312-4.782t1.312-4.781q1.328-1.656 3.828-1.656.703 0 1.344.156.656.156 1.219.453v2.719q-.625-.579-1.219-.844-.594-.281-1.219-.281-1.343 0-2.031 1.078-.688 1.062-.688 3.156 0 2.094.688 3.172.688 1.062 2.031 1.062.625 0 1.219-.265.594-.281 1.219-.86v2.72Z"/><text x="1928" y="332.78" fill="#D9B8FF" font-family="Helvetica" font-size="17" textLength="242">aws_vpc_peering_connection</text></a><a xlink:actuate="onRequest" xlink:href="#m" xlink:show="new" xlink:title="#aws_alb" xlink:type="simple" target="_top"><rect id="m" width="109" height="39.789" x="620.5" y="507" fill="#3D176E" rx="2.5" ry="2.5" style="stroke:#000d19;stroke-width:1.5"/><circle cx="635.5" cy="526.894" r="11" fill="#E98DF7" style="stroke:#000d19;stroke-width:1"/><path d="M638.469 532.535q-.578.297-1.219.438-.64.156-1.344.156-2.5 0-3.828-1.64-1.312-1.657-1.312-4.782t1.312-4.781q1.328-1.657 3.828-1.657.703 0 1.344.157.656.156 1.219.453v2.719q-.625-.578-1.219-.844-.594-.281-1.219-.281-1.343 0-2.031 1.078-.688 1.062-.688 3.156 0 2.094.688 3.172.688 1.062 2.031 1.062.625 0 1.219-.265.594-.282 1.219-.86v2.72Z"/><text x="654.5" y="532.78" fill="#D9B8FF" font-family="Helvetica" font-size="17" textLength="67">aws_alb</text></a><a xlink:actuate="onRequest" xlink:href="#n" xlink:show="new" xlink:title="#aws_ec2_network_acl" xlink:type="simple" target="_top"><rect id="n" width="224" height="39.789" x="1564" y="307" fill="#3D176E" rx="2.5" ry="2.5" style="stroke:#000d19;stroke-width:1.5"/><circle cx="1579" cy="326.894" r="11" fill="#E98DF7" style="stroke:#000d19;stroke-width:1"/><path d="M1581.969 332.535q-.578.297-1.219.438-.64.156-1.344.156-2.5 0-3.828-1.64-1.312-1.657-1.312-4.782t1.312-4.781q1.328-1.656 3.828-1.656.703 0 1.344.156.656.156 1.219.453v2.719q-.625-.579-1.219-.844-.594-.281-1.219-.281-1.343 0-2.031 1.078-.688 1.062-.688 3.156 0 2.094.688 3.172.688 1.062 2.031 1.062.625 0 1.219-.265.594-.281 1.219-.86v2.72Z"/><text x="1598" y="332.78" fill="#D9B8FF" font-family="Helvetica" font-size="17" textLength="182">aws_ec2_network_acl</text></a><a xlink:actuate="onRequest" xlink:href="#o" xlink:show="new" xlink:title="#aws_ec2_route_table" xlink:type="simple" target="_top"><rect id="o" width="218" height="39.789" x="2284" y="307" fill="#3D176E" rx="2.5" ry="2.5" style="stroke:#000d19;stroke-width:1.5"/><circle cx="2299" cy="326.894" r="11" fill="#E98DF7" style="stroke:#000d19;stroke-width:1"/><path d="M2301.969 332.535q-.578.297-1.219.438-.64.156-1.344.156-2.5 0-3.828-1.64-1.312-1.657-1.312-4.782t1.312-4.781q1.328-1.656 3.828-1.656.703 0 1.344.156.656.156 1.219.453v2.719q-.625-.579-1.219-.844-.594-.281-1.219-.281-1.343 0-2.031 1.078-.688 1.062-.688 3.156 0 2.094.688 3.172.688 1.062 2.031 1.062.625 0 1.219-.265.594-.281 1.219-.86v2.72Z"/><text x="2318" y="332.78" fill="#D9B8FF" font-family="Helvetica" font-size="17" textLength="176">aws_ec2_route_table</text></a><a xlink:actuate="onRequest" xlink:href="#p" xlink:show="new" xlink:title="#aws_ec2_security_group" xlink:type="simple" target="_top"><rect id="p" width="245" height="39.789" x="1422.5" y="407" fill="#3D176E" rx="2.5" ry="2.5" style="stroke:#000d19;stroke-width:1.5"/><circle cx="1437.5" cy="426.894" r="11" fill="#E98DF7" style="stroke:#000d19;stroke-width:1"/><path d="M1440.469 432.535q-.578.297-1.219.438-.64.156-1.344.156-2.5 0-3.828-1.64-1.312-1.657-1.312-4.782t1.312-4.781q1.328-1.656 3.828-1.656.703 0 1.344.156.656.156 1.219.453v2.719q-.625-.579-1.219-.844-.594-.281-1.219-.281-1.343 0-2.031 1.078-.688 1.062-.688 3.156 0 2.094.688 3.172.688 1.062 2.031 1.062.625 0 1.219-.265.594-.281 1.219-.86v2.72Z"/><text x="1456.5" y="432.78" fill="#D9B8FF" font-family="Helvetica" font-size="17" textLength="203">aws_ec2_security_group</text></a><a xlink:actuate="onRequest" xlink:href="#q" xlink:show="new" xlink:title="#aws_ec2_subnet" xlink:type="simple" target="_top"><rect id="q" width="179" height="39.789" x="1136.5" y="407" fill="#3D176E" rx="2.5" ry="2.5" style="stroke:#000d19;stroke-width:1.5"/><circle cx="1151.5" cy="426.894" r="11" fill="#E98DF7" style="stroke:#000d19;stroke-width:1"/><path d="M1154.469 432.535q-.578.297-1.219.438-.64.156-1.344.156-2.5 0-3.828-1.64-1.312-1.657-1.312-4.782t1.312-4.781q1.328-1.656 3.828-1.656.703 0 1.344.156.656.156 1.219.453v2.719q-.625-.579-1.219-.844-.594-.281-1.219-.281-1.343 0-2.031 1.078-.688 1.062-.688 3.156 0 2.094.688 3.172.688 1.062 2.031 1.062.625 0 1.219-.265.594-.281 1.219-.86v2.72Z"/><text x="1170.5" y="432.78" fill="#D9B8FF" font-family="Helvetica" font-size="17" textLength="137">aws_ec2_subnet</text></a><a xlink:actuate="onRequest" xlink:href="#r" xlink:show="new" xlink:title="#aws_ec2_internet_gateway" xlink:type="simple" target="_top"><rect id="r" width="271" height="39.789" x="2537.5" y="307" fill="#3D176E" rx="2.5" ry="2.5" style="stroke:#000d19;stroke-width:1.5"/><circle cx="2552.5" cy="326.894" r="11" fill="#E98DF7" style="stroke:#000d19;stroke-width:1"/><path d="M2555.469 332.535q-.578.297-1.219.438-.64.156-1.344.156-2.5 0-3.828-1.64-1.312-1.657-1.312-4.782t1.312-4.781q1.328-1.656 3.828-1.656.703 0 1.344.156.656.156 1.219.453v2.719q-.625-.579-1.219-.844-.594-.281-1.219-.281-1.343 0-2.031 1.078-.688 1.062-.688 3.156 0 2.094.688 3.172.688 1.062 2.031 1.062.625 0 1.219-.265.594-.281 1.219-.86v2.72Z"/><text x="2571.5" y="332.78" fill="#D9B8FF" font-family="Helvetica" font-size="17" textLength="229">aws_ec2_internet_gateway</text></a><a xlink:actuate="onRequest" xlink:href="#s" xlink:show="new" xlink:title="#aws_region" xlink:type="simple" target="_top"><rect id="s" width="137" height="39.789" x="1369.5" y="7" fill="#3D176E" rx="2.5" ry="2.5" style="stroke:#000d19;stroke-width:1.5"/><circle cx="1384.5" cy="26.895" r="11" fill="#E98DF7" style="stroke:#000d19;stroke-width:1"/><path d="M1387.469 32.535q-.578.297-1.219.438-.64.156-1.344.156-2.5 0-3.828-1.64-1.312-1.657-1.312-4.782t1.312-4.781q1.328-1.656 3.828-1.656.703 0 1.344.156.656.156 1.219.453v2.719q-.625-.578-1.219-.844-.594-.281-1.219-.281-1.343 0-2.031 1.078-.688 1.062-.688 3.156 0 2.094.688 3.172.688 1.062 2.031 1.062.625 0 1.219-.265.594-.281 1.219-.86v2.72Z"/><text x="1403.5" y="32.78" fill="#D9B8FF" font-family="Helvetica" font-size="17" textLength="95">aws_region</text></a><a xlink:actuate="onRequest" xlink:href="#t" xlink:show="new" xlink:title="#aws_service_quota" xlink:type="simple" target="_top"><rect id="t" width="199" height="39.789" x="343.5" y="107" fill="#3D176E" rx="2.5" ry="2.5" style="stroke:#000d19;stroke-width:1.5"/><circle cx="358.5" cy="126.894" r="11" fill="#E98DF7" style="stroke:#000d19;stroke-width:1"/><path d="M361.469 132.535q-.578.297-1.219.438-.64.156-1.344.156-2.5 0-3.828-1.64-1.312-1.657-1.312-4.782t1.312-4.781q1.328-1.657 3.828-1.657.703 0 1.344.157.656.156 1.219.453v2.719q-.625-.579-1.219-.844-.594-.281-1.219-.281-1.344 0-2.031 1.078-.688 1.062-.688 3.156 0 2.094.688 3.172.688 1.062 2.031 1.062.625 0 1.219-.265.594-.281 1.219-.86v2.72Z"/><text x="377.5" y="132.78" fill="#D9B8FF" font-family="Helvetica" font-size="17" textLength="157">aws_service_quota</text></a><path fill="none" d="M2000.93 547.31C1948.64 591.77 1811.31 701.08 1675 747c-135.09 45.51-534.09 66.34-750.14 74.51" style="stroke:#1a83af;stroke-width:2"/><path fill="#1A83AF" d="m919.79 821.7 9.142 3.663-4.145-3.849 3.848-4.145-8.845 4.331z" style="stroke:#1a83af;stroke-width:2"/><path fill="none" d="M782 747.36v54.3" style="stroke:#1a83af;stroke-width:2"/><path fill="#1A83AF" d="m782 806.68 4-9-4 4-4-4 4 9z" style="stroke:#1a83af;stroke-width:2"/><path fill="none" d="m705.77 647.36 53.88 55.59" style="stroke:#1a83af;stroke-width:2"/><path fill="#1A83AF" d="m763.27 706.68-3.387-9.248-.091 5.656-5.656-.091 9.134 3.683z" style="stroke:#1a83af;stroke-width:2"/><path fill="none" d="M880.35 547.35c-20.08 36.46-63.46 115.26-85.27 154.89" style="stroke:#1a83af;stroke-width:2"/><path fill="#1A83AF" d="m792.53 706.87 7.844-5.955-5.433 1.575-1.575-5.433-.836 9.813z" style="stroke:#1a83af;stroke-width:2"/><path fill="none" d="M831.25 133.65C609.81 151.34 148 224.39 148 526v102c0 83.37 69 84.72 145 119 109.76 49.5 245.73 68.49 346.41 75.53" style="stroke:#1a83af;stroke-width:2"/><path fill="#1A83AF" d="m644.48 822.88-8.704-4.608 3.716 4.265-4.265 3.716 9.253-3.373z" style="stroke:#1a83af;stroke-width:2"/><path fill="none" d="M932.68 147.27C903.95 188.45 845.99 286.22 894 347c29.12 36.87 149.58 58.37 237.03 69.4" style="stroke:#1a83af;stroke-width:2"/><path fill="#1A83AF" d="m1136.21 417.05-8.427-5.097 3.466 4.47-4.47 3.466 9.431-2.839z" style="stroke:#1a83af;stroke-width:2"/><path fill="none" d="M1015.09 147.01c64.28 17.95 159.8 44.62 221.72 61.91" style="stroke:#1a83af;stroke-width:2"/><path fill="#1A83AF" d="m1241.95 210.35-7.594-6.271 2.778 4.928-4.928 2.778 9.744-1.435z" style="stroke:#1a83af;stroke-width:2"/><path fill="none" d="M1241.89 246.9c-49.76 16.75-122.29 41.18-173.56 58.45" style="stroke:#1a83af;stroke-width:2"/><path fill="#1A83AF" d="m1063.43 307 9.806.913-5.068-2.511 2.511-5.069-7.249 6.667z" style="stroke:#1a83af;stroke-width:2"/><path fill="none" d="M1241.6 232.12C1138.63 240.63 925.39 263.14 867 307c-95.35 71.62-57 138.74-120 240-12.23 19.65-28.15 40.43-40.52 55.75" style="stroke:#1a83af;stroke-width:2"/><path fill="#1A83AF" d="m703.1 606.92 8.77-4.482-5.626.594-.594-5.625-2.55 9.513z" style="stroke:#1a83af;stroke-width:2"/><path fill="none" d="M1354.08 235.45c112.72 14.96 370.01 49.13 534.34 70.95" style="stroke:#1a83af;stroke-width:2"/><path fill="#1A83AF" d="m1893.74 307.11-8.396-5.148 3.44 4.49-4.492 3.44 9.448-2.782z" style="stroke:#1a83af;stroke-width:2"/><path fill="none" d="M1271.92 247.09c-71.99 52.72-273.25 200.07-350.34 256.52" style="stroke:#1a83af;stroke-width:2"/><path fill="#1A83AF" d="m917.12 506.87 9.622-2.101-5.591-.858.857-5.591-4.888 8.55z" style="stroke:#1a83af;stroke-width:2"/><path fill="none" d="M1241.83 229.3C1119.61 233.21 834.6 248.53 761 307c-61.75 49.05-79.27 148.67-84.16 194.69" style="stroke:#1a83af;stroke-width:2"/><path fill="#1A83AF" d="m676.33 506.77 4.88-8.554-4.38 3.58-3.58-4.381 3.08 9.355z" style="stroke:#1a83af;stroke-width:2"/><path fill="none" d="M1354.18 242.57c64.47 16.71 170.63 44.23 243.27 63.06" style="stroke:#1a83af;stroke-width:2"/><path fill="#1A83AF" d="m1602.62 306.98-7.702-6.139 2.863 4.88-4.879 2.862 9.718-1.603z" style="stroke:#1a83af;stroke-width:2"/><path fill="none" d="M1354.03 232.28c115.05 9.51 373.67 34.74 451.97 74.72 92.82 47.4 169.98 149.39 201.61 195.51" style="stroke:#1a83af;stroke-width:2"/><path fill="#1A83AF" d="m2010.52 506.79-1.726-9.697-1.074 5.554-5.554-1.074 8.354 5.217z" style="stroke:#1a83af;stroke-width:2"/><path fill="none" d="M1354.23 232.78c141.44 12.06 523.46 44.87 841.77 74.22 26.81 2.47 55.67 5.21 82.81 7.82" style="stroke:#1a83af;stroke-width:2"/><path fill="#1A83AF" d="m2283.86 315.31-8.582-4.832 3.604 4.36-4.36 3.604 9.338-3.132z" style="stroke:#1a83af;stroke-width:2"/><path fill="none" d="M1281.46 247.15c-21.01 24.02-58.73 66.16-93.46 99.85-29.17 28.3-38.9 32.69-69 60-119.73 108.64-258.84 242.98-313.37 295.97" style="stroke:#1a83af;stroke-width:2"/><path fill="#1A83AF" d="m801.85 706.64 9.241-3.405-5.656-.08.08-5.656-3.665 9.141z" style="stroke:#1a83af;stroke-width:2"/><path fill="none" d="M1241.88 231.22C1020.4 245.42 219 311.62 219 526v102c0 90.39 261.53 149.54 428.09 178.05" style="stroke:#1a83af;stroke-width:2"/><path fill="#1A83AF" d="m652.48 806.97-8.197-5.46 3.269 4.617-4.618 3.269 9.546-2.426z" style="stroke:#1a83af;stroke-width:2"/><path fill="none" d="M1337.04 247.19c48.86 23.89 135.2 65.71 209.96 99.81 60.85 27.76 83.38 21.41 138 60 38.55 27.24 74.05 69.6 94.07 95.75" style="stroke:#1a83af;stroke-width:2"/><path fill="#1A83AF" d="m1782.15 506.81-2.238-9.591-.778 5.603-5.603-.777 8.619 4.765z" style="stroke:#1a83af;stroke-width:2"/><path fill="none" d="M1304.82 247.02c14.68 39.49 51.87 132.3 100.18 199.98 14.96 20.96 35.65 41.42 52.1 56.27" style="stroke:#1a83af;stroke-width:2"/><path fill="#1A83AF" d="m1461.19 506.92-4.05-8.978.32 5.648-5.648.32 9.378 3.01z" style="stroke:#1a83af;stroke-width:2"/><path fill="none" d="M1322.13 247.35c46.05 36.91 146.2 117.19 195.01 156.32" style="stroke:#1a83af;stroke-width:2"/><path fill="#1A83AF" d="m1521.13 406.87-4.533-8.744.627 5.622-5.622.627 9.528 2.495z" style="stroke:#1a83af;stroke-width:2"/><path fill="none" d="M1241.88 230.48C1141.45 236.22 937.44 254.24 894 307c-80.11 97.29 121 166.48 245.73 198.67" style="stroke:#1a83af;stroke-width:2"/><path fill="#1A83AF" d="m1144.88 506.99-7.723-6.112 2.88 4.87-4.869 2.88 9.712-1.638z" style="stroke:#1a83af;stroke-width:2"/><path fill="none" d="M1290.97 247.35c-13.21 36.32-41.69 114.62-56.15 154.4" style="stroke:#1a83af;stroke-width:2"/><path fill="#1A83AF" d="m1232.96 406.87 6.842-7.084-5.129 2.387-2.387-5.129.674 9.826z" style="stroke:#1a83af;stroke-width:2"/><path fill="none" d="M1354.12 230.45c173.6 7.82 717.17 34.22 1165.88 76.55 4.03.38 8.11.78 12.24 1.2" style="stroke:#1a83af;stroke-width:2"/><path fill="#1A83AF" d="m2537.48 308.74-8.555-4.88 3.58 4.38-4.38 3.58 9.355-3.08z" style="stroke:#1a83af;stroke-width:2"/><path fill="none" d="M677.37 547.36c1.91 15.57 4.6 37.54 6.65 54.3" style="stroke:#1a83af;stroke-width:2"/><path fill="#1A83AF" d="m684.63 606.68 2.863-9.424-3.478 4.462-4.461-3.478 5.076 8.44z" style="stroke:#1a83af;stroke-width:2"/><path fill="none" d="M1588.7 347.01c-77.65 16.91-190.87 41.57-270.09 58.82" style="stroke:#1a83af;stroke-width:2"/><path fill="#1A83AF" d="m1313.44 406.96 9.648 1.98-4.764-3.051 3.05-4.764-7.934 5.835z" style="stroke:#1a83af;stroke-width:2"/><path fill="none" d="M2357.19 347.16c-69.3 37.09-221.3 118.43-293.96 157.31" style="stroke:#1a83af;stroke-width:2"/><path fill="#1A83AF" d="m2058.56 506.97 9.82-.749-5.419-1.623 1.624-5.42-6.025 7.792z" style="stroke:#1a83af;stroke-width:2"/><path fill="none" d="M1637.73 447.01c82.65 16.95 203.23 41.67 287.4 58.93" style="stroke:#1a83af;stroke-width:2"/><path fill="#1A83AF" d="m1930.12 506.96-8.018-5.719 3.119 4.72-4.72 3.119 9.619-2.12z" style="stroke:#1a83af;stroke-width:2"/><path fill="none" d="M1570.16 447.26c28.43 24.14 67.83 66.4 43.84 99.74-86.3 119.96-519.61 218.33-724.42 258.94" style="stroke:#1a83af;stroke-width:2"/><path fill="#1A83AF" d="m884.48 806.95 9.599 2.206-4.691-3.162 3.161-4.69-8.069 5.646z" style="stroke:#1a83af;stroke-width:2"/><path fill="none" d="M1532.95 447.36c-9.78 15.71-23.6 37.92-34.07 54.73" style="stroke:#1a83af;stroke-width:2"/><path fill="#1A83AF" d="m1496.03 506.68 8.154-5.524-5.51 1.28-1.28-5.51-1.364 9.754z" style="stroke:#1a83af;stroke-width:2"/><path fill="none" d="M1422.23 440.5C1277.78 455.4 1030.79 481.51 819 507c-27.7 3.33-58.35 7.33-84.22 10.8" style="stroke:#1a83af;stroke-width:2"/><path fill="#1A83AF" d="m729.67 518.49 9.448 2.783-4.491-3.44 3.44-4.491-8.397 5.148z" style="stroke:#1a83af;stroke-width:2"/><path fill="none" d="M1593.69 447.01c42.64 16.65 104.51 40.8 148.58 58.01" style="stroke:#1a83af;stroke-width:2"/><path fill="#1A83AF" d="m1747.01 506.87-6.934-6.994 2.275 5.179-5.18 2.275 9.839-.46z" style="stroke:#1a83af;stroke-width:2"/><path fill="none" d="M1422.37 446.38c-140.54 21.05-365.13 54.71-471.62 70.67" style="stroke:#1a83af;stroke-width:2"/><path fill="#1A83AF" d="m945.77 517.79 9.495 2.618-4.55-3.361 3.36-4.55-8.305 5.293z" style="stroke:#1a83af;stroke-width:2"/><path fill="none" d="M1483.89 447.01c-53.92 16.78-132.34 41.18-187.73 58.41" style="stroke:#1a83af;stroke-width:2"/><path fill="#1A83AF" d="m1291.21 506.96 9.782 1.144-5.008-2.63 2.63-5.009-7.404 6.495z" style="stroke:#1a83af;stroke-width:2"/><path fill="none" d="M1161.01 447.01c-60.98 17.84-151.41 44.3-210.54 61.59" style="stroke:#1a83af;stroke-width:2"/><path fill="#1A83AF" d="m945.56 510.04 9.76 1.32-4.96-2.72 2.72-4.96-7.52 6.36z" style="stroke:#1a83af;stroke-width:2"/><path fill="none" d="M1136.25 443.96C1023 464.1 831.39 498.19 734.66 515.39" style="stroke:#1a83af;stroke-width:2"/><path fill="#1A83AF" d="m729.56 516.3 9.567 2.34-4.646-3.227 3.227-4.646-8.148 5.533z" style="stroke:#1a83af;stroke-width:2"/><path fill="none" d="M1315.63 437.84c158.03 17.43 480.09 53.39 592.37 69.16 4.1.58 8.29 1.18 12.51 1.81" style="stroke:#1a83af;stroke-width:2"/><path fill="#1A83AF" d="m1925.49 509.55-8.32-5.27 3.373 4.54-4.54 3.375 9.487-2.645z" style="stroke:#1a83af;stroke-width:2"/><path fill="none" d="M1187.8 447.08c-25.39 14.04-58.26 34.98-81.8 59.92-49.34 52.28-33.71 85.86-81 140-47.72 54.64-70.5 57.1-129 100-27.06 19.84-58.43 41.48-81.41 57.09" style="stroke:#1a83af;stroke-width:2"/><path fill="#1A83AF" d="m810.4 806.93 9.697-1.726-5.554-1.074 1.074-5.554-5.217 8.354z" style="stroke:#1a83af;stroke-width:2"/><path fill="none" d="M1315.69 443.42c103.54 17.8 273.35 47 380.86 65.48" style="stroke:#1a83af;stroke-width:2"/><path fill="#1A83AF" d="m1701.62 509.77-8.181-5.483 3.255 4.626-4.626 3.256 9.552-2.399z" style="stroke:#1a83af;stroke-width:2"/><path fill="none" d="M1276.05 447.01c43.83 16.65 107.42 40.8 152.72 58.01" style="stroke:#1a83af;stroke-width:2"/><path fill="#1A83AF" d="m1433.65 506.87-6.979-6.95 2.309 5.165-5.165 2.308 9.835-.523z" style="stroke:#1a83af;stroke-width:2"/><path fill="none" d="M1226.79 447.36c.64 15.57 1.53 37.54 2.22 54.3" style="stroke:#1a83af;stroke-width:2"/><path fill="#1A83AF" d="m1229.21 506.68 3.637-9.153-3.837 4.157-4.157-3.837 4.357 8.833z" style="stroke:#1a83af;stroke-width:2"/><path fill="none" d="M1506.55 29.34C1808.37 36.14 3004 72.75 3004 226v102c0 177.74-626.56 197.85-878.21 198.76" style="stroke:#1a83af;stroke-width:2"/><path fill="#1A83AF" d="m2120.65 526.77 9.011 3.974-4.011-3.988 3.988-4.012-8.988 4.026z" style="stroke:#1a83af;stroke-width:2"/><path fill="none" d="M1453.25 47.09c41.88 52.44 158.57 198.55 204.16 255.64" style="stroke:#1a83af;stroke-width:2"/><path fill="#1A83AF" d="m1660.57 306.68-2.473-9.533-.64 5.62-5.62-.64 8.733 4.553z" style="stroke:#1a83af;stroke-width:2"/><path fill="none" d="M1369.3 27.76C1148.16 27.75 457.07 33.72 248 107c-87.38 30.63-171 26.41-171 119v102c0 273.93 408.62 361.45 603.68 387.62" style="stroke:#1a83af;stroke-width:2"/><path fill="#1A83AF" d="m685.82 716.3-8.396-5.148 3.44 4.49-4.492 3.44 9.448-2.782z" style="stroke:#1a83af;stroke-width:2"/><path fill="none" d="M1369.33 29.09C1114.06 33.57 228.61 52.9 115 107 50.25 137.84 6 154.28 6 226v402c0 129.16 408.71 175.13 632.9 190.63" style="stroke:#1a83af;stroke-width:2"/><path fill="#1A83AF" d="m644.16 818.99-8.704-4.608 3.716 4.265-4.265 3.716 9.253-3.373z" style="stroke:#1a83af;stroke-width:2"/><path fill="none" d="M1424.32 47.35c-25.89 36.61-81.95 115.9-109.86 155.37" style="stroke:#1a83af;stroke-width:2"/><path fill="#1A83AF" d="m1311.53 206.87 8.48-5.01-5.58.938-.937-5.58-1.963 9.652z" style="stroke:#1a83af;stroke-width:2"/><path fill="none" d="M1369.47 41.68c-83.68 16.7-225.91 45.09-321.98 64.26" style="stroke:#1a83af;stroke-width:2"/><path fill="#1A83AF" d="m1042.38 106.96 9.612 2.147-4.71-3.133 3.132-4.71-8.034 5.696z" style="stroke:#1a83af;stroke-width:2"/><path fill="none" d="M1369.5 32.88C1222.68 43.64 866.9 71.31 570 107c-7.19.86-14.61 1.82-22.07 2.82" style="stroke:#1a83af;stroke-width:2"/><path fill="#1A83AF" d="m542.76 110.52 9.455 2.756-4.5-3.427 3.427-4.5-8.382 5.171z" style="stroke:#1a83af;stroke-width:2"/><path fill="none" d="M1506.55 32.63C1728.99 49.97 2404.57 122.01 2196 347c-59.92 64.64-703.22 52.01-791 60-27.39 2.49-57.11 5.52-84.32 8.41" style="stroke:#1a83af;stroke-width:2"/><path fill="#1A83AF" d="m1315.63 415.95 9.372 3.026-4.4-3.555 3.555-4.4-8.527 4.929z" style="stroke:#1a83af;stroke-width:2"/><path fill="none" d="M1369.45 27.58C1138.19 26.87 397.15 30.61 326 107c-107.36 115.26-14.92 232.28 100 340 51.85 48.6 133.51 67.3 189.07 74.5" style="stroke:#1a83af;stroke-width:2"/><path fill="#1A83AF" d="m620.36 522.16-8.427-5.097 3.466 4.47-4.47 3.466 9.431-2.839z" style="stroke:#1a83af;stroke-width:2"/><path fill="none" d="M1506.82 30.66C1711.34 38.93 2313.1 66.18 2505 107c175.62 37.36 295.32 29.3 351 200 66.76 204.69-735.71 164.08-948 200-4.19.71-8.47 1.43-12.8 2.17" style="stroke:#1a83af;stroke-width:2"/><path fill="#1A83AF" d="m1890.11 510.03 9.546 2.426-4.617-3.269 3.268-4.617-8.197 5.46z" style="stroke:#1a83af;stroke-width:2"/><path fill="none" d="M1506.6 30.8c187.47 8.11 705.41 33.81 870.4 76.2 211.59 54.36 330.04 16.78 449 200 9.68 14.91 12.18 27.05 0 40-74.59 79.31-869.34 53.26-978 60-57.46 3.56-121.05 7.55-175.07 10.94" style="stroke:#1a83af;stroke-width:2"/><path fill="#1A83AF" d="m1667.73 418.27 9.234 3.426-4.244-3.74 3.74-4.244-8.73 4.558z" style="stroke:#1a83af;stroke-width:2"/><path fill="none" d="M1506.71 30.34c177.9 6.68 650.04 28.54 798.29 76.66 139.15 45.16 281.81 150.29 340.37 196.51" style="stroke:#1a83af;stroke-width:2"/><path fill="#1A83AF" d="m2649.44 306.74-4.552-8.734.64 5.621-5.621.64 9.533 2.473z" style="stroke:#1a83af;stroke-width:2"/><path fill="none" d="M1476.32 47.09c106.4 53.03 405.02 201.84 516.76 257.52" style="stroke:#1a83af;stroke-width:2"/><path fill="#1A83AF" d="m1997.62 306.87-6.27-7.595 1.795 5.365-5.364 1.795 9.839.435z" style="stroke:#1a83af;stroke-width:2"/><path fill="none" d="M1369.4 27.94C1134.26 28.36 370.78 35.31 290 107c-116.74 103.61-30 237.83 88 340 81.88 70.9 195.91 128.39 260.07 157.76" style="stroke:#1a83af;stroke-width:2"/><path fill="#1A83AF" d="m642.99 606.99-6.53-7.373 1.98 5.299-5.298 1.98 9.848.094z" style="stroke:#1a83af;stroke-width:2"/><path fill="none" d="M1369.28 31.66C1214.72 40.58 850.3 65.81 814 107c-103.12 117 15.89 325.54 61.05 395.43" style="stroke:#1a83af;stroke-width:2"/><path fill="#1A83AF" d="m877.92 506.84-1.564-9.724-1.167 5.535-5.535-1.166 8.266 5.355z" style="stroke:#1a83af;stroke-width:2"/><path fill="none" d="M1506.59 31.14C1692.06 40.12 2193.86 67.8 2257 107c73.92 45.9 114 148.39 129.01 195.04" style="stroke:#1a83af;stroke-width:2"/><path fill="#1A83AF" d="m2387.55 306.92 1.09-9.788-2.602 5.022-5.023-2.602 6.535 7.368z" style="stroke:#1a83af;stroke-width:2"/><path fill="none" d="M440.3 147.04C435.57 188.19 430.27 286.59 477 347c87.81 113.53 262.1 156.25 354.02 171.36" style="stroke:#1a83af;stroke-width:2"/><path fill="#1A83AF" d="m836.15 519.18-8.243-5.39 3.308 4.589-4.59 3.307 9.525-2.506z" style="stroke:#1a83af;stroke-width:2"/><path fill="none" d="M431.04 147.27C422.16 162.76 410.8 185.42 406 207c-13.52 60.74-18.9 80.72 0 140 16.56 51.93 28.16 66.3 71 100 40.81 32.1 96.36 52.74 138.23 64.85" style="stroke:#1a83af;stroke-width:2"/><path fill="#1A83AF" d="m620.27 513.28-7.56-6.313 2.751 4.943-4.942 2.751 9.751-1.381z" style="stroke:#1a83af;stroke-width:2"/><path fill="none" d="M542.75 139.43c178.6 20.47 547.94 62.81 693.94 79.54" style="stroke:#1a83af;stroke-width:2"/><path fill="#1A83AF" d="m1241.78 219.56-8.484-5.002 3.517 4.431-4.43 3.517 9.397-2.946z" style="stroke:#1a83af;stroke-width:2"/></svg>