<svg xmlns="http://www.w3.org/2000/svg" xmlns:xlink="http://www.w3.org/1999/xlink" width="2871" height="1955" preserveAspectRatio="none" style="width:2871px;height:1955px;background:#00000000"><a xlink:actuate="onRequest" xlink:href="#a" xlink:show="new" xlink:title="#aws_elasticache_cache_node" xlink:type="simple" target="_top"><rect id="a" width="282" height="230.227" x="7" y="1320" fill="#3D176E" rx="2.5" ry="2.5" style="stroke:#000d19;stroke-width:1.5"/><circle cx="22" cy="1339.895" r="11" fill="#E98DF7" style="stroke:#000d19;stroke-width:1"/><path d="M24.969 1345.535q-.578.297-1.219.438-.64.156-1.344.156-2.5 0-3.828-1.64-1.312-1.657-1.312-4.782t1.312-4.781q1.328-1.656 3.828-1.656.703 0 1.344.156.656.156 1.219.453v2.719q-.625-.578-1.219-.844-.594-.281-1.219-.281-1.343 0-2.031 1.078-.688 1.062-.688 3.156 0 2.094.688 3.172.688 1.062 2.031 1.062.625 0 1.219-.265.594-.281 1.219-.86v2.72Z"/><text x="41" y="1345.78" fill="#D9B8FF" font-family="Helvetica" font-size="17" textLength="240">aws_elasticache_cache_node</text><path d="M8 1359.789h280" style="stroke:#000d19;stroke-width:1.5"/><text x="18" y="1378.999" fill="#D9B8FF" font-family="sans-serif" font-size="11" font-weight="bold" textLength="94">cache_node_id</text><text x="112" y="1378.999" fill="#D9B8FF" font-family="sans-serif" font-size="11" textLength="41">: string</text><text x="18" y="1401.804" fill="#D9B8FF" font-family="sans-serif" font-size="11" font-weight="bold" textLength="122">cache_node_status</text><text x="140" y="1401.804" fill="#D9B8FF" font-family="sans-serif" font-size="11" textLength="41">: string</text><text x="18" y="1424.609" fill="#D9B8FF" font-family="sans-serif" font-size="11" font-weight="bold" textLength="157">cache_node_create_time</text><text x="175" y="1424.609" fill="#D9B8FF" font-family="sans-serif" font-size="11" textLength="58">: datetime</text><text x="18" y="1447.414" fill="#D9B8FF" font-family="sans-serif" font-size="11" font-weight="bold" textLength="57">endpoint</text><text x="75" y="1447.414" fill="#D9B8FF" font-family="sans-serif" font-size="11" textLength="156">: aws_elasticache_endpoint</text><text x="18" y="1470.218" fill="#D9B8FF" font-family="sans-serif" font-size="11" font-weight="bold" textLength="155">parameter_group_status</text><text x="173" y="1470.218" fill="#D9B8FF" font-family="sans-serif" font-size="11" textLength="41">: string</text><text x="18" y="1493.023" fill="#D9B8FF" font-family="sans-serif" font-size="11" font-weight="bold" textLength="143">source_cache_node_id</text><text x="161" y="1493.023" fill="#D9B8FF" font-family="sans-serif" font-size="11" textLength="41">: string</text><text x="18" y="1515.828" fill="#D9B8FF" font-family="sans-serif" font-size="11" font-weight="bold" textLength="173">customer_availability_zone</text><text x="191" y="1515.828" fill="#D9B8FF" font-family="sans-serif" font-size="11" textLength="41">: string</text><text x="18" y="1538.632" fill="#D9B8FF" font-family="sans-serif" font-size="11" font-weight="bold" textLength="141">customer_outpost_arn</text><text x="159" y="1538.632" fill="#D9B8FF" font-family="sans-serif" font-size="11" textLength="41">: string</text></a><a xlink:actuate="onRequest" xlink:href="#b" xlink:show="new" xlink:title="#aws_elasticache_endpoint" xlink:type="simple" target="_top"><rect id="b" width="259" height="93.398" x="115.5" y="1656" fill="#3D176E" rx="2.5" ry="2.5" style="stroke:#000d19;stroke-width:1.5"/><circle cx="130.5" cy="1675.895" r="11" fill="#E98DF7" style="stroke:#000d19;stroke-width:1"/><path d="M133.469 1681.535q-.578.297-1.219.438-.64.156-1.344.156-2.5 0-3.828-1.64-1.312-1.657-1.312-4.782t1.312-4.781q1.328-1.656 3.828-1.656.703 0 1.344.156.656.156 1.219.453v2.719q-.625-.578-1.219-.844-.594-.281-1.219-.281-1.344 0-2.031 1.078-.688 1.062-.688 3.156 0 2.094.688 3.172.688 1.062 2.031 1.062.625 0 1.219-.265.594-.281 1.219-.86v2.72Z"/><text x="149.5" y="1681.78" fill="#D9B8FF" font-family="Helvetica" font-size="17" textLength="217">aws_elasticache_endpoint</text><path d="M116.5 1695.789h257" style="stroke:#000d19;stroke-width:1.5"/><text x="126.5" y="1714.999" fill="#D9B8FF" font-family="sans-serif" font-size="11" font-weight="bold" textLength="51">address</text><text x="177.5" y="1714.999" fill="#D9B8FF" font-family="sans-serif" font-size="11" textLength="41">: string</text><text x="126.5" y="1737.804" fill="#D9B8FF" font-family="sans-serif" font-size="11" font-weight="bold" textLength="26">port</text><text x="152.5" y="1737.804" fill="#D9B8FF" font-family="sans-serif" font-size="11" textLength="36">: int64</text></a><a xlink:actuate="onRequest" xlink:href="#c" xlink:show="new" xlink:title="#aws_elasticache_cache_security_group_membership" xlink:type="simple" target="_top"><rect id="c" width="478" height="93.398" x="395" y="1388.5" fill="#3D176E" rx="2.5" ry="2.5" style="stroke:#000d19;stroke-width:1.5"/><circle cx="410" cy="1408.395" r="11" fill="#E98DF7" style="stroke:#000d19;stroke-width:1"/><path d="M412.969 1414.035q-.578.297-1.219.438-.64.156-1.344.156-2.5 0-3.828-1.64-1.312-1.657-1.312-4.782t1.312-4.781q1.328-1.656 3.828-1.656.703 0 1.344.156.656.156 1.219.453v2.719q-.625-.578-1.219-.844-.594-.281-1.219-.281-1.344 0-2.031 1.078-.688 1.062-.688 3.156 0 2.094.688 3.172.688 1.062 2.031 1.062.625 0 1.219-.265.594-.281 1.219-.86v2.72Z"/><text x="429" y="1414.28" fill="#D9B8FF" font-family="Helvetica" font-size="17" textLength="436">aws_elasticache_cache_security_group_membership</text><path d="M396 1428.289h476" style="stroke:#000d19;stroke-width:1.5"/><text x="406" y="1447.499" fill="#D9B8FF" font-family="sans-serif" font-size="11" font-weight="bold" textLength="179">cache_security_group_name</text><text x="585" y="1447.499" fill="#D9B8FF" font-family="sans-serif" font-size="11" textLength="41">: string</text><text x="406" y="1470.304" fill="#D9B8FF" font-family="sans-serif" font-size="11" font-weight="bold" textLength="40">status</text><text x="446" y="1470.304" fill="#D9B8FF" font-family="sans-serif" font-size="11" textLength="41">: string</text></a><a xlink:actuate="onRequest" xlink:href="#d" xlink:show="new" xlink:title="#resource" xlink:type="simple" target="_top"><rect id="d" width="195" height="275.836" x="1171.5" y="7" fill="#3D176E" rx="2.5" ry="2.5" style="stroke:#000d19;stroke-width:1.5"/><circle cx="1224.25" cy="26.895" r="11" fill="#E98DF7" style="stroke:#000d19;stroke-width:1"/><path d="M1227.219 32.535q-.578.297-1.219.438-.64.156-1.344.156-2.5 0-3.828-1.64-1.312-1.657-1.312-4.782t1.312-4.781q1.328-1.656 3.828-1.656.703 0 1.344.156.656.156 1.219.453v2.719q-.625-.578-1.219-.844-.594-.281-1.219-.281-1.343 0-2.031 1.078-.688 1.062-.688 3.156 0 2.094.688 3.172.688 1.062 2.031 1.062.625 0 1.219-.265.594-.281 1.219-.86v2.72Z"/><text x="1249.75" y="32.78" fill="#D9B8FF" font-family="Helvetica" font-size="17" textLength="71">resource</text><path d="M1172.5 46.789h193" style="stroke:#000d19;stroke-width:1.5"/><text x="1182.5" y="65.999" fill="#D9B8FF" font-family="sans-serif" font-size="11" font-weight="bold" textLength="12">id</text><text x="1194.5" y="65.999" fill="#D9B8FF" font-family="sans-serif" font-size="11" textLength="41">: string</text><text x="1182.5" y="88.804" fill="#D9B8FF" font-family="sans-serif" font-size="11" font-weight="bold" textLength="28">tags</text><text x="1210.5" y="88.804" fill="#D9B8FF" font-family="sans-serif" font-size="11" textLength="145">: dictionary[string, string]</text><text x="1182.5" y="111.609" fill="#D9B8FF" font-family="sans-serif" font-size="11" font-weight="bold" textLength="35">name</text><text x="1217.5" y="111.609" fill="#D9B8FF" font-family="sans-serif" font-size="11" textLength="41">: string</text><text x="1182.5" y="134.414" fill="#D9B8FF" font-family="sans-serif" font-size="11" font-weight="bold" textLength="35">ctime</text><text x="1217.5" y="134.414" fill="#D9B8FF" font-family="sans-serif" font-size="11" textLength="58">: datetime</text><text x="1182.5" y="157.218" fill="#D9B8FF" font-family="sans-serif" font-size="11" font-weight="bold" textLength="24">age</text><text x="1206.5" y="157.218" fill="#D9B8FF" font-family="sans-serif" font-size="11" textLength="55">: duration</text><text x="1182.5" y="180.023" fill="#D9B8FF" font-family="sans-serif" font-size="11" font-weight="bold" textLength="39">mtime</text><text x="1221.5" y="180.023" fill="#D9B8FF" font-family="sans-serif" font-size="11" textLength="58">: datetime</text><text x="1182.5" y="202.828" fill="#D9B8FF" font-family="sans-serif" font-size="11" font-weight="bold" textLength="75">last_update</text><text x="1257.5" y="202.828" fill="#D9B8FF" font-family="sans-serif" font-size="11" textLength="55">: duration</text><text x="1182.5" y="225.632" fill="#D9B8FF" font-family="sans-serif" font-size="11" font-weight="bold" textLength="36">atime</text><text x="1218.5" y="225.632" fill="#D9B8FF" font-family="sans-serif" font-size="11" textLength="58">: datetime</text><text x="1182.5" y="248.437" fill="#D9B8FF" font-family="sans-serif" font-size="11" font-weight="bold" textLength="74">last_access</text><text x="1256.5" y="248.437" fill="#D9B8FF" font-family="sans-serif" font-size="11" textLength="55">: duration</text><text x="1182.5" y="271.242" fill="#D9B8FF" font-family="sans-serif" font-size="11" font-weight="bold" textLength="27">kind</text><text x="1209.5" y="271.242" fill="#D9B8FF" font-family="sans-serif" font-size="11" textLength="41">: string</text></a><a xlink:actuate="onRequest" xlink:href="#e" xlink:show="new" xlink:title="#aws_resource" xlink:type="simple" target="_top"><rect id="e" width="155" height="70.594" x="1191.5" y="404" fill="#3D176E" rx="2.5" ry="2.5" style="stroke:#000d19;stroke-width:1.5"/><circle cx="1206.5" cy="423.894" r="11" fill="#E98DF7" style="stroke:#000d19;stroke-width:1"/><path d="M1209.469 429.535q-.578.297-1.219.438-.64.156-1.344.156-2.5 0-3.828-1.64-1.312-1.657-1.312-4.782t1.312-4.781q1.328-1.656 3.828-1.656.703 0 1.344.156.656.156 1.219.453v2.719q-.625-.579-1.219-.844-.594-.281-1.219-.281-1.343 0-2.031 1.078-.688 1.062-.688 3.156 0 2.094.688 3.172.688 1.062 2.031 1.062.625 0 1.219-.265.594-.281 1.219-.86v2.72Z"/><text x="1225.5" y="429.78" fill="#D9B8FF" font-family="Helvetica" font-size="17" textLength="113">aws_resource</text><path d="M1192.5 443.789h153" style="stroke:#000d19;stroke-width:1.5"/><text x="1202.5" y="463" fill="#D9B8FF" font-family="sans-serif" font-size="11" font-weight="bold" textLength="21">arn</text><text x="1223.5" y="463" fill="#D9B8FF" font-family="sans-serif" font-size="11" textLength="41">: string</text></a><a xlink:actuate="onRequest" xlink:href="#f" xlink:show="new" xlink:title="#aws_elasticache_destination_details" xlink:type="simple" target="_top"><rect id="f" width="343" height="93.398" x="1389.5" y="1855" fill="#3D176E" rx="2.5" ry="2.5" style="stroke:#000d19;stroke-width:1.5"/><circle cx="1404.5" cy="1874.895" r="11" fill="#E98DF7" style="stroke:#000d19;stroke-width:1"/><path d="M1407.469 1880.535q-.578.297-1.219.438-.64.156-1.344.156-2.5 0-3.828-1.64-1.312-1.657-1.312-4.782t1.312-4.781q1.328-1.656 3.828-1.656.703 0 1.344.156.656.156 1.219.453v2.719q-.625-.578-1.219-.844-.594-.281-1.219-.281-1.343 0-2.031 1.078-.688 1.062-.688 3.156 0 2.094.688 3.172.688 1.062 2.031 1.062.625 0 1.219-.265.594-.281 1.219-.86v2.72Z"/><text x="1423.5" y="1880.78" fill="#D9B8FF" font-family="Helvetica" font-size="17" textLength="301">aws_elasticache_destination_details</text><path d="M1390.5 1894.789h341" style="stroke:#000d19;stroke-width:1.5"/><text x="1400.5" y="1913.999" fill="#D9B8FF" font-family="sans-serif" font-size="11" font-weight="bold" textLength="163">cloud_watch_logs_details</text><text x="1563.5" y="1913.999" fill="#D9B8FF" font-family="sans-serif" font-size="11" textLength="41">: string</text><text x="1400.5" y="1936.804" fill="#D9B8FF" font-family="sans-serif" font-size="11" font-weight="bold" textLength="154">kinesis_firehose_details</text><text x="1554.5" y="1936.804" fill="#D9B8FF" font-family="sans-serif" font-size="11" textLength="41">: string</text></a><a xlink:actuate="onRequest" xlink:href="#g" xlink:show="new" xlink:title="#aws_elasticache_pending_log_delivery_configuration" xlink:type="simple" target="_top"><rect id="g" width="482" height="139.008" x="1560" y="1633" fill="#3D176E" rx="2.5" ry="2.5" style="stroke:#000d19;stroke-width:1.5"/><circle cx="1575" cy="1652.895" r="11" fill="#E98DF7" style="stroke:#000d19;stroke-width:1"/><path d="M1577.969 1658.535q-.578.297-1.219.438-.64.156-1.344.156-2.5 0-3.828-1.64-1.312-1.657-1.312-4.782t1.312-4.781q1.328-1.656 3.828-1.656.703 0 1.344.156.656.156 1.219.453v2.719q-.625-.578-1.219-.844-.594-.281-1.219-.281-1.343 0-2.031 1.078-.688 1.062-.688 3.156 0 2.094.688 3.172.688 1.062 2.031 1.062.625 0 1.219-.265.594-.281 1.219-.86v2.72Z"/><text x="1594" y="1658.78" fill="#D9B8FF" font-family="Helvetica" font-size="17" textLength="440">aws_elasticache_pending_log_delivery_configuration</text><path d="M1561 1672.789h480" style="stroke:#000d19;stroke-width:1.5"/><text x="1571" y="1691.999" fill="#D9B8FF" font-family="sans-serif" font-size="11" font-weight="bold" textLength="54">log_type</text><text x="1625" y="1691.999" fill="#D9B8FF" font-family="sans-serif" font-size="11" textLength="41">: string</text><text x="1571" y="1714.804" fill="#D9B8FF" font-family="sans-serif" font-size="11" font-weight="bold" textLength="107">destination_type</text><text x="1678" y="1714.804" fill="#D9B8FF" font-family="sans-serif" font-size="11" textLength="41">: string</text><text x="1571" y="1737.609" fill="#D9B8FF" font-family="sans-serif" font-size="11" font-weight="bold" textLength="123">destination_details</text><text x="1694" y="1737.609" fill="#D9B8FF" font-family="sans-serif" font-size="11" textLength="214">: aws_elasticache_destination_details</text><text x="1571" y="1760.414" fill="#D9B8FF" font-family="sans-serif" font-size="11" font-weight="bold" textLength="68">log_format</text><text x="1639" y="1760.414" fill="#D9B8FF" font-family="sans-serif" font-size="11" textLength="41">: string</text></a><a xlink:actuate="onRequest" xlink:href="#h" xlink:show="new" xlink:title="#aws_elasticache_cache_parameter_group_status" xlink:type="simple" target="_top"><rect id="h" width="446" height="116.203" x="908" y="1377" fill="#3D176E" rx="2.5" ry="2.5" style="stroke:#000d19;stroke-width:1.5"/><circle cx="923" cy="1396.895" r="11" fill="#E98DF7" style="stroke:#000d19;stroke-width:1"/><path d="M925.969 1402.535q-.578.297-1.219.438-.64.156-1.344.156-2.5 0-3.828-1.64-1.312-1.657-1.312-4.782t1.312-4.781q1.328-1.656 3.828-1.656.703 0 1.344.156.656.156 1.219.453v2.719q-.625-.578-1.219-.844-.594-.281-1.219-.281-1.343 0-2.031 1.078-.688 1.062-.688 3.156 0 2.094.688 3.172.688 1.062 2.031 1.062.625 0 1.219-.265.594-.281 1.219-.86v2.72Z"/><text x="942" y="1402.78" fill="#D9B8FF" font-family="Helvetica" font-size="17" textLength="404">aws_elasticache_cache_parameter_group_status</text><path d="M909 1416.789h444" style="stroke:#000d19;stroke-width:1.5"/><text x="919" y="1435.999" fill="#D9B8FF" font-family="sans-serif" font-size="11" font-weight="bold" textLength="194">cache_parameter_group_name</text><text x="1113" y="1435.999" fill="#D9B8FF" font-family="sans-serif" font-size="11" textLength="41">: string</text><text x="919" y="1458.804" fill="#D9B8FF" font-family="sans-serif" font-size="11" font-weight="bold" textLength="153">parameter_apply_status</text><text x="1072" y="1458.804" fill="#D9B8FF" font-family="sans-serif" font-size="11" textLength="41">: string</text><text x="919" y="1481.609" fill="#D9B8FF" font-family="sans-serif" font-size="11" font-weight="bold" textLength="168">cache_node_ids_to_reboot</text><text x="1087" y="1481.609" fill="#D9B8FF" font-family="sans-serif" font-size="11" textLength="49">: string[]</text></a><a xlink:actuate="onRequest" xlink:href="#i" xlink:show="new" xlink:title="#aws_elasticache_log_delivery_configuration" xlink:type="simple" target="_top"><rect id="i" width="406" height="184.617" x="1119" y="1610" fill="#3D176E" rx="2.5" ry="2.5" style="stroke:#000d19;stroke-width:1.5"/><circle cx="1134" cy="1629.895" r="11" fill="#E98DF7" style="stroke:#000d19;stroke-width:1"/><path d="M1136.969 1635.535q-.578.297-1.219.438-.64.156-1.344.156-2.5 0-3.828-1.64-1.312-1.657-1.312-4.782t1.312-4.781q1.328-1.656 3.828-1.656.703 0 1.344.156.656.156 1.219.453v2.719q-.625-.578-1.219-.844-.594-.281-1.219-.281-1.343 0-2.031 1.078-.688 1.062-.688 3.156 0 2.094.688 3.172.688 1.062 2.031 1.062.625 0 1.219-.265.594-.281 1.219-.86v2.72Z"/><text x="1153" y="1635.78" fill="#D9B8FF" font-family="Helvetica" font-size="17" textLength="364">aws_elasticache_log_delivery_configuration</text><path d="M1120 1649.789h404" style="stroke:#000d19;stroke-width:1.5"/><text x="1130" y="1668.999" fill="#D9B8FF" font-family="sans-serif" font-size="11" font-weight="bold" textLength="54">log_type</text><text x="1184" y="1668.999" fill="#D9B8FF" font-family="sans-serif" font-size="11" textLength="41">: string</text><text x="1130" y="1691.804" fill="#D9B8FF" font-family="sans-serif" font-size="11" font-weight="bold" textLength="107">destination_type</text><text x="1237" y="1691.804" fill="#D9B8FF" font-family="sans-serif" font-size="11" textLength="41">: string</text><text x="1130" y="1714.609" fill="#D9B8FF" font-family="sans-serif" font-size="11" font-weight="bold" textLength="123">destination_details</text><text x="1253" y="1714.609" fill="#D9B8FF" font-family="sans-serif" font-size="11" textLength="214">: aws_elasticache_destination_details</text><text x="1130" y="1737.414" fill="#D9B8FF" font-family="sans-serif" font-size="11" font-weight="bold" textLength="68">log_format</text><text x="1198" y="1737.414" fill="#D9B8FF" font-family="sans-serif" font-size="11" textLength="41">: string</text><text x="1130" y="1760.218" fill="#D9B8FF" font-family="sans-serif" font-size="11" font-weight="bold" textLength="40">status</text><text x="1170" y="1760.218" fill="#D9B8FF" font-family="sans-serif" font-size="11" textLength="41">: string</text><text x="1130" y="1783.023" fill="#D9B8FF" font-family="sans-serif" font-size="11" font-weight="bold" textLength="57">message</text><text x="1187" y="1783.023" fill="#D9B8FF" font-family="sans-serif" font-size="11" textLength="41">: string</text></a><a xlink:actuate="onRequest" xlink:href="#j" xlink:show="new" xlink:title="#aws_elasticache_cache_cluster" xlink:type="simple" target="_top"><rect id="j" width="533" height="663.516" x="1002.5" y="596" fill="#3D176E" rx="2.5" ry="2.5" style="stroke:#000d19;stroke-width:1.5"/><circle cx="1132.25" cy="615.894" r="11" fill="#E98DF7" style="stroke:#000d19;stroke-width:1"/><path d="M1135.219 621.535q-.578.297-1.219.438-.64.156-1.344.156-2.5 0-3.828-1.64-1.312-1.657-1.312-4.782t1.312-4.781q1.328-1.657 3.828-1.657.703 0 1.344.157.656.156 1.219.453v2.719q-.625-.578-1.219-.844-.594-.281-1.219-.281-1.343 0-2.031 1.078-.688 1.062-.688 3.156 0 2.094.688 3.172.688 1.062 2.031 1.062.625 0 1.219-.265.594-.282 1.219-.86v2.72Z"/><text x="1157.75" y="621.78" fill="#D9B8FF" font-family="Helvetica" font-size="17" textLength="255">aws_elasticache_cache_cluster</text><path d="M1003.5 635.789h531" style="stroke:#000d19;stroke-width:1.5"/><text x="1013.5" y="655" fill="#D9B8FF" font-family="sans-serif" font-size="11" font-weight="bold" textLength="199">cluster_configuration_endpoint</text><text x="1212.5" y="655" fill="#D9B8FF" font-family="sans-serif" font-size="11" textLength="156">: aws_elasticache_endpoint</text><text x="1013.5" y="677.804" fill="#D9B8FF" font-family="sans-serif" font-size="11" font-weight="bold" textLength="247">cluster_client_download_landing_page</text><text x="1260.5" y="677.804" fill="#D9B8FF" font-family="sans-serif" font-size="11" textLength="41">: string</text><text x="1013.5" y="700.609" fill="#D9B8FF" font-family="sans-serif" font-size="11" font-weight="bold" textLength="160">cluster_cache_node_type</text><text x="1173.5" y="700.609" fill="#D9B8FF" font-family="sans-serif" font-size="11" textLength="41">: string</text><text x="1013.5" y="723.414" fill="#D9B8FF" font-family="sans-serif" font-size="11" font-weight="bold" textLength="94">cluster_engine</text><text x="1107.5" y="723.414" fill="#D9B8FF" font-family="sans-serif" font-size="11" textLength="41">: string</text><text x="1013.5" y="746.218" fill="#D9B8FF" font-family="sans-serif" font-size="11" font-weight="bold" textLength="147">cluster_engine_version</text><text x="1160.5" y="746.218" fill="#D9B8FF" font-family="sans-serif" font-size="11" textLength="41">: string</text><text x="1013.5" y="769.023" fill="#D9B8FF" font-family="sans-serif" font-size="11" font-weight="bold" textLength="184">cluster_cache_cluster_status</text><text x="1197.5" y="769.023" fill="#D9B8FF" font-family="sans-serif" font-size="11" textLength="41">: string</text><text x="1013.5" y="791.828" fill="#D9B8FF" font-family="sans-serif" font-size="11" font-weight="bold" textLength="166">cluster_num_cache_nodes</text><text x="1179.5" y="791.828" fill="#D9B8FF" font-family="sans-serif" font-size="11" textLength="36">: int64</text><text x="1013.5" y="814.632" fill="#D9B8FF" font-family="sans-serif" font-size="11" font-weight="bold" textLength="224">cluster_preferred_availability_zone</text><text x="1237.5" y="814.632" fill="#D9B8FF" font-family="sans-serif" font-size="11" textLength="41">: string</text><text x="1013.5" y="837.437" fill="#D9B8FF" font-family="sans-serif" font-size="11" font-weight="bold" textLength="192">cluster_preferred_outpost_arn</text><text x="1205.5" y="837.437" fill="#D9B8FF" font-family="sans-serif" font-size="11" textLength="41">: string</text><text x="1013.5" y="860.242" fill="#D9B8FF" font-family="sans-serif" font-size="11" font-weight="bold" textLength="255">cluster_preferred_maintenance_window</text><text x="1268.5" y="860.242" fill="#D9B8FF" font-family="sans-serif" font-size="11" textLength="41">: string</text><text x="1013.5" y="883.046" fill="#D9B8FF" font-family="sans-serif" font-size="11" font-weight="bold" textLength="212">cluster_pending_modified_values</text><text x="1225.5" y="883.046" fill="#D9B8FF" font-family="sans-serif" font-size="11" textLength="250">: aws_elasticache_pending_modified_values</text><text x="1013.5" y="905.851" fill="#D9B8FF" font-family="sans-serif" font-size="11" font-weight="bold" textLength="216">cluster_notification_configuration</text><text x="1229.5" y="905.851" fill="#D9B8FF" font-family="sans-serif" font-size="11" textLength="249">: aws_elasticache_notification_configuration</text><text x="1013.5" y="928.656" fill="#D9B8FF" font-family="sans-serif" font-size="11" font-weight="bold" textLength="195">cluster_cache_security_groups</text><text x="1208.5" y="928.656" fill="#D9B8FF" font-family="sans-serif" font-size="11" textLength="316">: aws_elasticache_cache_security_group_membership[]</text><text x="1013.5" y="951.46" fill="#D9B8FF" font-family="sans-serif" font-size="11" font-weight="bold" textLength="203">cluster_cache_parameter_group</text><text x="1216.5" y="951.46" fill="#D9B8FF" font-family="sans-serif" font-size="11" textLength="287">: aws_elasticache_cache_parameter_group_status</text><text x="1013.5" y="974.265" fill="#D9B8FF" font-family="sans-serif" font-size="11" font-weight="bold" textLength="222">cluster_cache_subnet_group_name</text><text x="1235.5" y="974.265" fill="#D9B8FF" font-family="sans-serif" font-size="11" textLength="41">: string</text><text x="1013.5" y="997.07" fill="#D9B8FF" font-family="sans-serif" font-size="11" font-weight="bold" textLength="133">cluster_cache_nodes</text><text x="1146.5" y="997.07" fill="#D9B8FF" font-family="sans-serif" font-size="11" textLength="182">: aws_elasticache_cache_node[]</text><text x="1013.5" y="1019.875" fill="#D9B8FF" font-family="sans-serif" font-size="11" font-weight="bold" textLength="233">cluster_auto_minor_version_upgrade</text><text x="1246.5" y="1019.875" fill="#D9B8FF" font-family="sans-serif" font-size="11" textLength="53">: boolean</text><text x="1013.5" y="1042.679" fill="#D9B8FF" font-family="sans-serif" font-size="11" font-weight="bold" textLength="151">cluster_security_groups</text><text x="1164.5" y="1042.679" fill="#D9B8FF" font-family="sans-serif" font-size="11" textLength="277">: aws_elasticache_security_group_membership[]</text><text x="1013.5" y="1065.484" fill="#D9B8FF" font-family="sans-serif" font-size="11" font-weight="bold" textLength="180">cluster_replication_group_id</text><text x="1193.5" y="1065.484" fill="#D9B8FF" font-family="sans-serif" font-size="11" textLength="41">: string</text><text x="1013.5" y="1088.289" fill="#D9B8FF" font-family="sans-serif" font-size="11" font-weight="bold" textLength="208">cluster_snapshot_retention_limit</text><text x="1221.5" y="1088.289" fill="#D9B8FF" font-family="sans-serif" font-size="11" textLength="36">: int64</text><text x="1013.5" y="1111.093" fill="#D9B8FF" font-family="sans-serif" font-size="11" font-weight="bold" textLength="165">cluster_snapshot_window</text><text x="1178.5" y="1111.093" fill="#D9B8FF" font-family="sans-serif" font-size="11" textLength="41">: string</text><text x="1013.5" y="1133.898" fill="#D9B8FF" font-family="sans-serif" font-size="11" font-weight="bold" textLength="179">cluster_auth_token_enabled</text><text x="1192.5" y="1133.898" fill="#D9B8FF" font-family="sans-serif" font-size="11" textLength="53">: boolean</text><text x="1013.5" y="1156.703" fill="#D9B8FF" font-family="sans-serif" font-size="11" font-weight="bold" textLength="248">cluster_auth_token_last_modified_date</text><text x="1261.5" y="1156.703" fill="#D9B8FF" font-family="sans-serif" font-size="11" textLength="58">: datetime</text><text x="1013.5" y="1179.507" fill="#D9B8FF" font-family="sans-serif" font-size="11" font-weight="bold" textLength="224">cluster_transit_encryption_enabled</text><text x="1237.5" y="1179.507" fill="#D9B8FF" font-family="sans-serif" font-size="11" textLength="53">: boolean</text><text x="1013.5" y="1202.312" fill="#D9B8FF" font-family="sans-serif" font-size="11" font-weight="bold" textLength="226">cluster_at_rest_encryption_enabled</text><text x="1239.5" y="1202.312" fill="#D9B8FF" font-family="sans-serif" font-size="11" textLength="53">: boolean</text><text x="1013.5" y="1225.117" fill="#D9B8FF" font-family="sans-serif" font-size="11" font-weight="bold" textLength="303">cluster_replication_group_log_delivery_enabled</text><text x="1316.5" y="1225.117" fill="#D9B8FF" font-family="sans-serif" font-size="11" textLength="53">: boolean</text><text x="1013.5" y="1247.921" fill="#D9B8FF" font-family="sans-serif" font-size="11" font-weight="bold" textLength="226">cluster_log_delivery_configurations</text><text x="1239.5" y="1247.921" fill="#D9B8FF" font-family="sans-serif" font-size="11" textLength="262">: aws_elasticache_log_delivery_configuration[]</text></a><a xlink:actuate="onRequest" xlink:href="#k" xlink:show="new" xlink:title="#aws_elasticache_pending_modified_values" xlink:type="simple" target="_top"><rect id="k" width="511" height="184.617" x="1460.5" y="1342.5" fill="#3D176E" rx="2.5" ry="2.5" style="stroke:#000d19;stroke-width:1.5"/><circle cx="1529.25" cy="1362.395" r="11" fill="#E98DF7" style="stroke:#000d19;stroke-width:1"/><path d="M1532.219 1368.035q-.578.297-1.219.438-.64.156-1.344.156-2.5 0-3.828-1.64-1.312-1.657-1.312-4.782t1.312-4.781q1.328-1.656 3.828-1.656.703 0 1.344.156.656.156 1.219.453v2.719q-.625-.578-1.219-.844-.594-.281-1.219-.281-1.343 0-2.031 1.078-.688 1.062-.688 3.156 0 2.094.688 3.172.688 1.062 2.031 1.062.625 0 1.219-.265.594-.281 1.219-.86v2.72Z"/><text x="1554.75" y="1368.28" fill="#D9B8FF" font-family="Helvetica" font-size="17" textLength="355">aws_elasticache_pending_modified_values</text><path d="M1461.5 1382.289h509" style="stroke:#000d19;stroke-width:1.5"/><text x="1471.5" y="1401.499" fill="#D9B8FF" font-family="sans-serif" font-size="11" font-weight="bold" textLength="116">num_cache_nodes</text><text x="1587.5" y="1401.499" fill="#D9B8FF" font-family="sans-serif" font-size="11" textLength="36">: int64</text><text x="1471.5" y="1424.304" fill="#D9B8FF" font-family="sans-serif" font-size="11" font-weight="bold" textLength="173">cache_node_ids_to_remove</text><text x="1644.5" y="1424.304" fill="#D9B8FF" font-family="sans-serif" font-size="11" textLength="49">: string[]</text><text x="1471.5" y="1447.109" fill="#D9B8FF" font-family="sans-serif" font-size="11" font-weight="bold" textLength="97">engine_version</text><text x="1568.5" y="1447.109" fill="#D9B8FF" font-family="sans-serif" font-size="11" textLength="41">: string</text><text x="1471.5" y="1469.914" fill="#D9B8FF" font-family="sans-serif" font-size="11" font-weight="bold" textLength="110">cache_node_type</text><text x="1581.5" y="1469.914" fill="#D9B8FF" font-family="sans-serif" font-size="11" textLength="41">: string</text><text x="1471.5" y="1492.718" fill="#D9B8FF" font-family="sans-serif" font-size="11" font-weight="bold" textLength="117">auth_token_status</text><text x="1588.5" y="1492.718" fill="#D9B8FF" font-family="sans-serif" font-size="11" textLength="41">: string</text><text x="1471.5" y="1515.523" fill="#D9B8FF" font-family="sans-serif" font-size="11" font-weight="bold" textLength="176">log_delivery_configurations</text><text x="1647.5" y="1515.523" fill="#D9B8FF" font-family="sans-serif" font-size="11" textLength="313">: aws_elasticache_pending_log_delivery_configuration[]</text></a><a xlink:actuate="onRequest" xlink:href="#l" xlink:show="new" xlink:title="#aws_elasticache_security_group_membership" xlink:type="simple" target="_top"><rect id="l" width="422" height="93.398" x="2007" y="1388.5" fill="#3D176E" rx="2.5" ry="2.5" style="stroke:#000d19;stroke-width:1.5"/><circle cx="2022" cy="1408.395" r="11" fill="#E98DF7" style="stroke:#000d19;stroke-width:1"/><path d="M2024.969 1414.035q-.578.297-1.219.438-.64.156-1.344.156-2.5 0-3.828-1.64-1.312-1.657-1.312-4.782t1.312-4.781q1.328-1.656 3.828-1.656.703 0 1.344.156.656.156 1.219.453v2.719q-.625-.578-1.219-.844-.594-.281-1.219-.281-1.343 0-2.031 1.078-.688 1.062-.688 3.156 0 2.094.688 3.172.688 1.062 2.031 1.062.625 0 1.219-.265.594-.281 1.219-.86v2.72Z"/><text x="2041" y="1414.28" fill="#D9B8FF" font-family="Helvetica" font-size="17" textLength="380">aws_elasticache_security_group_membership</text><path d="M2008 1428.289h420" style="stroke:#000d19;stroke-width:1.5"/><text x="2018" y="1447.499" fill="#D9B8FF" font-family="sans-serif" font-size="11" font-weight="bold" textLength="112">security_group_id</text><text x="2130" y="1447.499" fill="#D9B8FF" font-family="sans-serif" font-size="11" textLength="41">: string</text><text x="2018" y="1470.304" fill="#D9B8FF" font-family="sans-serif" font-size="11" font-weight="bold" textLength="40">status</text><text x="2058" y="1470.304" fill="#D9B8FF" font-family="sans-serif" font-size="11" textLength="41">: string</text></a><a xlink:actuate="onRequest" xlink:href="#m" xlink:show="new" xlink:title="#aws_elasticache_notification_configuration" xlink:type="simple" target="_top"><rect id="m" width="400" height="93.398" x="2464" y="1388.5" fill="#3D176E" rx="2.5" ry="2.5" style="stroke:#000d19;stroke-width:1.5"/><circle cx="2479" cy="1408.395" r="11" fill="#E98DF7" style="stroke:#000d19;stroke-width:1"/><path d="M2481.969 1414.035q-.578.297-1.219.438-.64.156-1.344.156-2.5 0-3.828-1.64-1.312-1.657-1.312-4.782t1.312-4.781q1.328-1.656 3.828-1.656.703 0 1.344.156.656.156 1.219.453v2.719q-.625-.578-1.219-.844-.594-.281-1.219-.281-1.343 0-2.031 1.078-.688 1.062-.688 3.156 0 2.094.688 3.172.688 1.062 2.031 1.062.625 0 1.219-.265.594-.281 1.219-.86v2.72Z"/><text x="2498" y="1414.28" fill="#D9B8FF" font-family="Helvetica" font-size="17" textLength="358">aws_elasticache_notification_configuration</text><path d="M2465 1428.289h398" style="stroke:#000d19;stroke-width:1.5"/><text x="2475" y="1447.499" fill="#D9B8FF" font-family="sans-serif" font-size="11" font-weight="bold" textLength="59">topic_arn</text><text x="2534" y="1447.499" fill="#D9B8FF" font-family="sans-serif" font-size="11" textLength="41">: string</text><text x="2475" y="1470.304" fill="#D9B8FF" font-family="sans-serif" font-size="11" font-weight="bold" textLength="78">topic_status</text><text x="2553" y="1470.304" fill="#D9B8FF" font-family="sans-serif" font-size="11" textLength="41">: string</text></a><path fill="none" d="M189.7 1550.14c12.86 35.2 26.38 72.19 36.83 100.79" style="stroke:#ffaf37;stroke-width:2"/><path fill="#FFAF37" d="m228.31 1655.81.648-9.827-2.374 5.134-5.135-2.373 6.861 7.066z" style="stroke:#ffaf37;stroke-width:2"/><path fill="none" d="M1269 303.43V403.9m-7-100.64 7-20 7 20h-14zm455.4 1468.86c-31.98 26.25-67.77 55.63-97.03 79.65" style="stroke:#ffaf37;stroke-width:2"/><path fill="#FFAF37" d="m1616.47 1854.97 9.492-2.626-5.63-.55.55-5.63-4.412 8.806z" style="stroke:#ffaf37;stroke-width:2"/><path fill="none" d="M1433.1 1795.08c23.66 19.5 47.76 39.36 68.56 56.51" style="stroke:#ffaf37;stroke-width:2"/><path fill="#FFAF37" d="m1505.78 1854.98-4.411-8.806.549 5.63-5.63.55 9.492 2.626z" style="stroke:#ffaf37;stroke-width:2"/><path fill="none" d="M1269 495.41v100.54m-7-100.85 7-20 7 20h-14zm-259.63 487.78C803.81 1036.27 539.95 1137.38 377 1320c-71.23 79.82-35.21 129.18-71 230-12.11 34.11-27.31 71.88-39.51 101.17" style="stroke:#ffaf37;stroke-width:2"/><path fill="#FFAF37" d="m264.56 1655.8 7.161-6.761-5.233 2.148-2.148-5.233.22 9.846z" style="stroke:#ffaf37;stroke-width:2"/><path fill="none" d="M1535.8 1230.42c34.45 38.91 67.47 76.22 95.62 108.02" style="stroke:#ffaf37;stroke-width:2"/><path fill="#FFAF37" d="m1634.82 1342.29-2.972-9.39-.343 5.647-5.646-.343 8.961 4.086z" style="stroke:#ffaf37;stroke-width:2"/><path fill="none" d="M1535.57 1003.9c241.79 71.12 606.05 186.23 911.43 316.1 45.06 19.16 93.46 44.13 133.09 65.82" style="stroke:#ffaf37;stroke-width:2"/><path fill="#FFAF37" d="m2584.88 1388.44-5.945-7.853 1.568 5.436-5.435 1.567 9.812.85z" style="stroke:#ffaf37;stroke-width:2"/><path fill="none" d="M1002.46 1140.97c-113.31 90.11-235.51 187.3-306.83 244.02" style="stroke:#ffaf37;stroke-width:2"/><path fill="#FFAF37" d="m691.43 1388.33 9.533-2.473-5.62-.64.64-5.62-4.553 8.733z" style="stroke:#ffaf37;stroke-width:2"/><path fill="none" d="M1178.49 1260.21c-11.52 42.18-22.16 81.1-30.43 111.37" style="stroke:#ffaf37;stroke-width:2"/><path fill="#FFAF37" d="m1146.65 1376.75 6.229-7.629-4.912 2.805-2.806-4.912 1.489 9.736z" style="stroke:#ffaf37;stroke-width:2"/><path fill="none" d="M1002.43 1021.46C807.53 1093.08 539.34 1200.08 316 1320a666.16 666.16 0 0 0-22.14 12.46" style="stroke:#ffaf37;stroke-width:2"/><path fill="#FFAF37" d="m289.25 1335.18 9.784-1.124-5.476-1.415 1.414-5.477-5.722 8.016z" style="stroke:#ffaf37;stroke-width:2"/><path fill="none" d="M1535.56 1070.85c198.44 105.6 457.38 243.38 592.09 315.07" style="stroke:#ffaf37;stroke-width:2"/><path fill="#FFAF37" d="m2132.39 1388.45-6.074-7.753 1.658 5.409-5.409 1.658 9.825.686z" style="stroke:#ffaf37;stroke-width:2"/><path fill="none" d="M1362.89 1260.02c15.84 93.7 22.96 195.82 8.11 289.98-2.83 17.97-7.45 36.71-12.74 54.65" style="stroke:#ffaf37;stroke-width:2"/><path fill="#FFAF37" d="m1356.75 1609.68 6.407-7.48-4.977 2.689-2.689-4.977 1.259 9.768z" style="stroke:#ffaf37;stroke-width:2"/><path fill="none" d="M1745.37 1527.74c10.48 32.72 22.13 69.13 32.06 100.14" style="stroke:#ffaf37;stroke-width:2"/><path fill="#FFAF37" d="m1779.01 1632.8 1.055-9.792-2.585 5.032-5.032-2.585 6.562 7.345z" style="stroke:#ffaf37;stroke-width:2"/></svg>