<svg xmlns="http://www.w3.org/2000/svg" xmlns:xlink="http://www.w3.org/1999/xlink" width="1726" height="452" preserveAspectRatio="none" style="width:1726px;height:452px;background:#00000000"><a xlink:actuate="onRequest" xlink:href="#a" xlink:show="new" xlink:title="#aws_sagemaker_labeling_job" xlink:type="simple" target="_top"><rect id="a" width="285" height="39.789" x="94.86" y="207" fill="#3D176E" rx="2.5" ry="2.5" style="stroke:#000d19;stroke-width:1.5"/><circle cx="109.86" cy="226.894" r="11" fill="#E98DF7" style="stroke:#000d19;stroke-width:1"/><path d="M112.829 232.535q-.578.297-1.219.438-.64.156-1.344.156-2.5 0-3.828-1.64-1.312-1.657-1.312-4.782t1.312-4.781q1.328-1.656 3.828-1.656.703 0 1.344.156.656.156 1.219.453v2.719q-.625-.579-1.219-.844-.594-.281-1.219-.281-1.344 0-2.031 1.078-.688 1.062-.688 3.156 0 2.094.688 3.172.688 1.062 2.031 1.062.625 0 1.219-.265.594-.281 1.219-.86v2.72Z"/><text x="128.86" y="232.78" fill="#D9B8FF" font-family="Helvetica" font-size="17" textLength="243">aws_sagemaker_labeling_job</text></a><a xlink:actuate="onRequest" xlink:href="#b" xlink:show="new" xlink:title="#aws_s3_bucket" xlink:type="simple" target="_top"><rect id="b" width="168" height="39.789" x="616.36" y="407" fill="#3D176E" rx="2.5" ry="2.5" style="stroke:#000d19;stroke-width:1.5"/><circle cx="631.36" cy="426.894" r="11" fill="#E98DF7" style="stroke:#000d19;stroke-width:1"/><path d="M634.329 432.535q-.578.297-1.219.438-.64.156-1.344.156-2.5 0-3.828-1.64-1.312-1.657-1.312-4.782t1.312-4.781q1.328-1.656 3.828-1.656.703 0 1.344.156.656.156 1.219.453v2.719q-.625-.579-1.219-.844-.594-.281-1.219-.281-1.343 0-2.031 1.078-.688 1.062-.688 3.156 0 2.094.688 3.172.688 1.062 2.031 1.062.625 0 1.219-.265.594-.281 1.219-.86v2.72Z"/><text x="650.36" y="432.78" fill="#D9B8FF" font-family="Helvetica" font-size="17" textLength="126">aws_s3_bucket</text></a><a xlink:actuate="onRequest" xlink:href="#c" xlink:show="new" xlink:title="#aws_sagemaker_auto_ml_job" xlink:type="simple" target="_top"><rect id="c" width="288" height="39.789" x="768.36" y="107" fill="#3D176E" rx="2.5" ry="2.5" style="stroke:#000d19;stroke-width:1.5"/><circle cx="783.36" cy="126.894" r="11" fill="#E98DF7" style="stroke:#000d19;stroke-width:1"/><path d="M786.329 132.535q-.578.297-1.219.438-.64.156-1.344.156-2.5 0-3.828-1.64-1.312-1.657-1.312-4.782t1.312-4.781q1.328-1.657 3.828-1.657.703 0 1.344.157.656.156 1.219.453v2.719q-.625-.579-1.219-.844-.594-.281-1.219-.281-1.343 0-2.031 1.078-.688 1.062-.688 3.156 0 2.094.688 3.172.688 1.062 2.031 1.062.625 0 1.219-.265.594-.281 1.219-.86v2.72Z"/><text x="802.36" y="132.78" fill="#D9B8FF" font-family="Helvetica" font-size="17" textLength="246">aws_sagemaker_auto_ml_job</text></a><a xlink:actuate="onRequest" xlink:href="#d" xlink:show="new" xlink:title="#aws_sagemaker_training_job" xlink:type="simple" target="_top"><rect id="d" width="285" height="39.789" x="824.86" y="307" fill="#3D176E" rx="2.5" ry="2.5" style="stroke:#000d19;stroke-width:1.5"/><circle cx="839.86" cy="326.894" r="11" fill="#E98DF7" style="stroke:#000d19;stroke-width:1"/><path d="M842.829 332.535q-.578.297-1.219.438-.64.156-1.344.156-2.5 0-3.828-1.64-1.312-1.657-1.312-4.782t1.312-4.781q1.328-1.656 3.828-1.656.703 0 1.344.156.656.156 1.219.453v2.719q-.625-.579-1.219-.844-.594-.281-1.219-.281-1.343 0-2.031 1.078-.688 1.062-.688 3.156 0 2.094.688 3.172.688 1.062 2.031 1.062.625 0 1.219-.265.594-.281 1.219-.86v2.72Z"/><text x="858.86" y="332.78" fill="#D9B8FF" font-family="Helvetica" font-size="17" textLength="243">aws_sagemaker_training_job</text></a><a xlink:actuate="onRequest" xlink:href="#e" xlink:show="new" xlink:title="#aws_kms_key" xlink:type="simple" target="_top"><rect id="e" width="158" height="39.789" x="888.36" y="407" fill="#3D176E" rx="2.5" ry="2.5" style="stroke:#000d19;stroke-width:1.5"/><circle cx="903.36" cy="426.894" r="11" fill="#E98DF7" style="stroke:#000d19;stroke-width:1"/><path d="M906.329 432.535q-.578.297-1.219.438-.64.156-1.344.156-2.5 0-3.828-1.64-1.312-1.657-1.312-4.782t1.312-4.781q1.328-1.656 3.828-1.656.703 0 1.344.156.656.156 1.219.453v2.719q-.625-.579-1.219-.844-.594-.281-1.219-.281-1.343 0-2.031 1.078-.688 1.062-.688 3.156 0 2.094.688 3.172.688 1.062 2.031 1.062.625 0 1.219-.265.594-.281 1.219-.86v2.72Z"/><text x="922.36" y="432.78" fill="#D9B8FF" font-family="Helvetica" font-size="17" textLength="116">aws_kms_key</text></a><a xlink:actuate="onRequest" xlink:href="#f" xlink:show="new" xlink:title="#aws_sagemaker_processing_job" xlink:type="simple" target="_top"><rect id="f" width="306" height="39.789" x="1233.36" y="207" fill="#3D176E" rx="2.5" ry="2.5" style="stroke:#000d19;stroke-width:1.5"/><circle cx="1248.36" cy="226.894" r="11" fill="#E98DF7" style="stroke:#000d19;stroke-width:1"/><path d="M1251.329 232.535q-.578.297-1.219.438-.64.156-1.344.156-2.5 0-3.828-1.64-1.312-1.657-1.312-4.782t1.312-4.781q1.328-1.656 3.828-1.656.703 0 1.344.156.656.156 1.219.453v2.719q-.625-.579-1.219-.844-.594-.281-1.219-.281-1.344 0-2.031 1.078-.688 1.062-.688 3.156 0 2.094.688 3.172.688 1.062 2.031 1.062.625 0 1.219-.265.594-.281 1.219-.86v2.72Z"/><text x="1267.36" y="232.78" fill="#D9B8FF" font-family="Helvetica" font-size="17" textLength="264">aws_sagemaker_processing_job</text></a><a xlink:actuate="onRequest" xlink:href="#g" xlink:show="new" xlink:title="#aws_sagemaker_trial" xlink:type="simple" target="_top"><rect id="g" width="219" height="39.789" x="1446.86" y="107" fill="#3D176E" rx="2.5" ry="2.5" style="stroke:#000d19;stroke-width:1.5"/><circle cx="1461.86" cy="126.894" r="11" fill="#E98DF7" style="stroke:#000d19;stroke-width:1"/><path d="M1464.829 132.535q-.578.297-1.219.438-.64.156-1.344.156-2.5 0-3.828-1.64-1.312-1.657-1.312-4.782t1.312-4.781q1.328-1.657 3.828-1.657.703 0 1.344.157.656.156 1.219.453v2.719q-.625-.579-1.219-.844-.594-.281-1.219-.281-1.344 0-2.031 1.078-.688 1.062-.688 3.156 0 2.094.688 3.172.688 1.062 2.031 1.062.625 0 1.219-.265.594-.281 1.219-.86v2.72Z"/><text x="1480.86" y="132.78" fill="#D9B8FF" font-family="Helvetica" font-size="17" textLength="177">aws_sagemaker_trial</text></a><a xlink:actuate="onRequest" xlink:href="#h" xlink:show="new" xlink:title="#aws_sagemaker_hyper_parameter_tuning_job" xlink:type="simple" target="_top"><rect id="h" width="428" height="39.789" x="415.36" y="207" fill="#3D176E" rx="2.5" ry="2.5" style="stroke:#000d19;stroke-width:1.5"/><circle cx="430.36" cy="226.894" r="11" fill="#E98DF7" style="stroke:#000d19;stroke-width:1"/><path d="M433.329 232.535q-.578.297-1.219.438-.64.156-1.344.156-2.5 0-3.828-1.64-1.312-1.657-1.312-4.782t1.312-4.781q1.328-1.656 3.828-1.656.703 0 1.344.156.656.156 1.219.453v2.719q-.625-.579-1.219-.844-.594-.281-1.219-.281-1.344 0-2.031 1.078-.688 1.062-.688 3.156 0 2.094.688 3.172.688 1.062 2.031 1.062.625 0 1.219-.265.594-.281 1.219-.86v2.72Z"/><text x="449.36" y="232.78" fill="#D9B8FF" font-family="Helvetica" font-size="17" textLength="386">aws_sagemaker_hyper_parameter_tuning_job</text></a><a xlink:actuate="onRequest" xlink:href="#i" xlink:show="new" xlink:title="#aws_ec2_subnet" xlink:type="simple" target="_top"><rect id="i" width="179" height="39.789" x="483.86" y="7" fill="#3D176E" rx="2.5" ry="2.5" style="stroke:#000d19;stroke-width:1.5"/><circle cx="498.86" cy="26.895" r="11" fill="#E98DF7" style="stroke:#000d19;stroke-width:1"/><path d="M501.829 32.535q-.578.297-1.219.438-.64.156-1.344.156-2.5 0-3.828-1.64-1.312-1.657-1.312-4.782t1.312-4.781q1.328-1.656 3.828-1.656.703 0 1.344.156.656.156 1.219.453v2.719q-.625-.578-1.219-.844-.594-.281-1.219-.281-1.344 0-2.031 1.078-.688 1.062-.688 3.156 0 2.094.688 3.172.688 1.062 2.031 1.062.625 0 1.219-.265.594-.281 1.219-.86v2.72Z"/><text x="517.86" y="32.78" fill="#D9B8FF" font-family="Helvetica" font-size="17" textLength="137">aws_ec2_subnet</text></a><a xlink:actuate="onRequest" xlink:href="#j" xlink:show="new" xlink:title="#aws_sagemaker_algorithm" xlink:type="simple" target="_top"><rect id="j" width="267" height="39.789" x="75.86" y="407" fill="#3D176E" rx="2.5" ry="2.5" style="stroke:#000d19;stroke-width:1.5"/><circle cx="90.86" cy="426.894" r="11" fill="#E98DF7" style="stroke:#000d19;stroke-width:1"/><path d="M93.829 432.535q-.578.297-1.219.438-.64.156-1.344.156-2.5 0-3.828-1.64-1.312-1.657-1.312-4.782t1.312-4.781q1.328-1.656 3.828-1.656.703 0 1.344.156.656.156 1.219.453v2.719q-.625-.579-1.219-.844-.594-.281-1.219-.281-1.344 0-2.031 1.078-.688 1.062-.688 3.156 0 2.094.688 3.172.688 1.062 2.031 1.062.625 0 1.219-.265.594-.281 1.219-.86v2.72Z"/><text x="109.86" y="432.78" fill="#D9B8FF" font-family="Helvetica" font-size="17" textLength="225">aws_sagemaker_algorithm</text></a><a xlink:actuate="onRequest" xlink:href="#k" xlink:show="new" xlink:title="#aws_iam_role" xlink:type="simple" target="_top"><rect id="k" width="157" height="39.789" x="225.86" y="7" fill="#3D176E" rx="2.5" ry="2.5" style="stroke:#000d19;stroke-width:1.5"/><circle cx="240.86" cy="26.895" r="11" fill="#E98DF7" style="stroke:#000d19;stroke-width:1"/><path d="M243.829 32.535q-.578.297-1.219.438-.64.156-1.344.156-2.5 0-3.828-1.64-1.312-1.657-1.312-4.782t1.312-4.781q1.328-1.656 3.828-1.656.703 0 1.344.156.656.156 1.219.453v2.719q-.625-.578-1.219-.844-.594-.281-1.219-.281-1.343 0-2.031 1.078-.688 1.062-.688 3.156 0 2.094.688 3.172.688 1.062 2.031 1.062.625 0 1.219-.265.594-.281 1.219-.86v2.72Z"/><text x="259.86" y="32.78" fill="#D9B8FF" font-family="Helvetica" font-size="17" textLength="115">aws_iam_role</text></a><a xlink:actuate="onRequest" xlink:href="#l" xlink:show="new" xlink:title="#aws_ec2_security_group" xlink:type="simple" target="_top"><rect id="l" width="245" height="39.789" x="789.86" y="7" fill="#3D176E" rx="2.5" ry="2.5" style="stroke:#000d19;stroke-width:1.5"/><circle cx="804.86" cy="26.895" r="11" fill="#E98DF7" style="stroke:#000d19;stroke-width:1"/><path d="M807.829 32.535q-.578.297-1.219.438-.64.156-1.344.156-2.5 0-3.828-1.64-1.312-1.657-1.312-4.782t1.312-4.781q1.328-1.656 3.828-1.656.703 0 1.344.156.656.156 1.219.453v2.719q-.625-.578-1.219-.844-.594-.281-1.219-.281-1.343 0-2.031 1.078-.688 1.062-.688 3.156 0 2.094.688 3.172.688 1.062 2.031 1.062.625 0 1.219-.265.594-.281 1.219-.86v2.72Z"/><text x="823.86" y="32.78" fill="#D9B8FF" font-family="Helvetica" font-size="17" textLength="203">aws_ec2_security_group</text></a><a xlink:actuate="onRequest" xlink:href="#m" xlink:show="new" xlink:title="#aws_sagemaker_experiment" xlink:type="simple" target="_top"><rect id="m" width="282" height="39.789" x="1415.36" y="7" fill="#3D176E" rx="2.5" ry="2.5" style="stroke:#000d19;stroke-width:1.5"/><circle cx="1430.36" cy="26.895" r="11" fill="#E98DF7" style="stroke:#000d19;stroke-width:1"/><path d="M1433.329 32.535q-.578.297-1.219.438-.64.156-1.344.156-2.5 0-3.828-1.64-1.312-1.657-1.312-4.782t1.312-4.781q1.328-1.656 3.828-1.656.703 0 1.344.156.656.156 1.219.453v2.719q-.625-.578-1.219-.844-.594-.281-1.219-.281-1.344 0-2.031 1.078-.688 1.062-.688 3.156 0 2.094.688 3.172.688 1.062 2.031 1.062.625 0 1.219-.265.594-.281 1.219-.86v2.72Z"/><text x="1449.36" y="32.78" fill="#D9B8FF" font-family="Helvetica" font-size="17" textLength="240">aws_sagemaker_experiment</text></a><path fill="none" d="M378.97 247.01c127.09 17.06 312.87 42 441.54 59.28" style="stroke:#1a83af;stroke-width:2"/><path fill="#1A83AF" d="m825.82 307-8.382-5.172 3.427 4.5-4.5 3.428L825.82 307z" style="stroke:#1a83af;stroke-width:2"/><path fill="none" d="M307.68 247.07c137.91 37.41 442.71 120.08 584.46 158.53" style="stroke:#1a83af;stroke-width:2"/><path fill="#1A83AF" d="m897.12 406.95-7.634-6.223 2.81 4.91-4.91 2.809 9.734-1.496z" style="stroke:#1a83af;stroke-width:2"/><path fill="none" d="M259.17 247.07c30.93 26.12 90.25 72.86 148.19 99.93 65.23 30.47 144.31 50.92 203.87 63.37" style="stroke:#1a83af;stroke-width:2"/><path fill="#1A83AF" d="m616.2 411.4-8.002-5.741 3.106 4.728-4.728 3.106 9.624-2.093z" style="stroke:#1a83af;stroke-width:2"/><path fill="none" d="M941.82 147.27c18.62 14.05 41.08 34.93 51.54 59.73 13.24 31.42-.51 70.47-12.51 95.08" style="stroke:#1a83af;stroke-width:2"/><path fill="#1A83AF" d="m978.48 306.8 7.61-6.251-5.368 1.782-1.782-5.37-.46 9.839z" style="stroke:#1a83af;stroke-width:2"/><path fill="none" d="M953.65 147.21c52.44 27.07 140.14 81.97 173.71 159.79 7.04 16.32 9.38 24.9 0 40-17.31 27.85-47.66 46.17-77.3 58.09" style="stroke:#1a83af;stroke-width:2"/><path fill="#1A83AF" d="m1045.31 406.95 9.84.434-5.186-2.261 2.262-5.186-6.916 7.013z" style="stroke:#1a83af;stroke-width:2"/><path fill="none" d="M906.15 147.06c-8.38 24.31-24.72 67.12-45.79 99.94-2.78 4.33-96.46 108.46-139.16 155.87" style="stroke:#1a83af;stroke-width:2"/><path fill="#1A83AF" d="m717.72 406.73 8.994-4.014-5.65.298-.296-5.65-3.048 9.366z" style="stroke:#1a83af;stroke-width:2"/><path fill="none" d="M1004.31 147.01c81.96 16.95 201.53 41.67 285 58.93" style="stroke:#1a83af;stroke-width:2"/><path fill="#1A83AF" d="m1294.25 206.96-8.002-5.741 3.106 4.727-4.728 3.107 9.624-2.093z" style="stroke:#1a83af;stroke-width:2"/><path fill="none" d="M967.36 347.36v54.3" style="stroke:#1a83af;stroke-width:2"/><path fill="#1A83AF" d="m967.36 406.68 4-9-4 4-4-4 4 9z" style="stroke:#1a83af;stroke-width:2"/><path fill="none" d="M915.56 347.01c-45.45 16.68-111.43 40.9-158.33 58.12" style="stroke:#1a83af;stroke-width:2"/><path fill="#1A83AF" d="m752.46 406.87 9.826.664-5.13-2.382 2.382-5.13-7.078 6.848z" style="stroke:#1a83af;stroke-width:2"/><path fill="none" d="M824.78 346.43c-136.55 17.66-341.27 44.13-476.57 61.62" style="stroke:#1a83af;stroke-width:2"/><path fill="#1A83AF" d="m343.03 408.72 9.44 2.81-4.482-3.453 3.453-4.481-8.411 5.124z" style="stroke:#1a83af;stroke-width:2"/><path fill="none" d="M1377.78 247.39c-12.86 26.72-39.7 74.41-77.42 99.61-74.67 49.88-177.22 68.4-248.72 75.2" style="stroke:#1a83af;stroke-width:2"/><path fill="#1A83AF" d="m1046.54 422.67 9.329 3.16-4.35-3.618 3.617-4.35-8.596 4.808z" style="stroke:#1a83af;stroke-width:2"/><path fill="none" d="M1305.07 247.01c-72.16 16.88-177.3 41.47-251.04 58.72" style="stroke:#1a83af;stroke-width:2"/><path fill="#1A83AF" d="m1048.77 306.96 9.677 1.832-4.81-2.977 2.978-4.81-7.845 5.955z" style="stroke:#1a83af;stroke-width:2"/><path fill="none" d="M1352.26 247c-48.52 26.26-140.93 73.4-224.9 100-113.81 36.05-250.19 57.73-337.68 69.02" style="stroke:#1a83af;stroke-width:2"/><path fill="#1A83AF" d="m784.51 416.69 9.439 2.813-4.48-3.454 3.454-4.48-8.413 5.121z" style="stroke:#1a83af;stroke-width:2"/><path fill="none" d="M1563.46 147.14c8.28 25.99 17.98 72.34-6.1 99.86-28.76 32.87-276.79 56.77-441.97 69.22" style="stroke:#1a83af;stroke-width:2"/><path fill="#1A83AF" d="m1110.04 316.62 9.272 3.32-4.286-3.692 3.692-4.286-8.678 4.658z" style="stroke:#1a83af;stroke-width:2"/><path fill="none" d="M1523.18 147.13c-28.44 16.39-69.38 39.99-99.06 57.1" style="stroke:#1a83af;stroke-width:2"/><path fill="#1A83AF" d="m1419.45 206.92 9.794-1.037-5.464-1.464 1.463-5.464-5.793 7.965z" style="stroke:#1a83af;stroke-width:2"/><path fill="none" d="M655.5 247.06c34.11 24.48 96.01 67.67 151.86 99.94 37.07 21.42 80.74 42.74 113.09 57.82" style="stroke:#1a83af;stroke-width:2"/><path fill="#1A83AF" d="m925.14 407-6.491-7.407 1.952 5.309-5.309 1.952 9.848.146z" style="stroke:#1a83af;stroke-width:2"/><path fill="none" d="m694.93 247.01 201.8 58.51" style="stroke:#1a83af;stroke-width:2"/><path fill="#1A83AF" d="m901.68 306.96-7.525-6.354 2.724 4.958-4.958 2.724 9.759-1.328z" style="stroke:#1a83af;stroke-width:2"/><path fill="none" d="M636.29 247.35c13.03 36.32 41.11 114.62 55.37 154.4" style="stroke:#1a83af;stroke-width:2"/><path fill="#1A83AF" d="m693.5 406.87.736-9.821-2.42 5.113-5.113-2.42 6.797 7.128z" style="stroke:#1a83af;stroke-width:2"/><path fill="none" d="M600.33 47.09c34.46 24.15 96.24 66.6 151.03 99.91 47.25 28.73 65.68 25.62 109 60 36 28.57 70.15 69.91 89.81 95.58" style="stroke:#1a83af;stroke-width:2"/><path fill="#1A83AF" d="m953.44 306.88-2.277-9.582-.755 5.606-5.606-.755 8.638 4.731z" style="stroke:#1a83af;stroke-width:2"/><path fill="none" d="M540.83 47.16c-62.72 36.97-200.05 117.9-266.29 156.93" style="stroke:#1a83af;stroke-width:2"/><path fill="#1A83AF" d="m269.9 206.82 9.786-1.114-5.476-1.42 1.42-5.476-5.73 8.01z" style="stroke:#1a83af;stroke-width:2"/><path fill="none" d="M562.2 47.22c-12.45 24.09-29.08 66.31-14.84 99.78 9.85 23.17 30.19 42.84 48.15 56.76" style="stroke:#1a83af;stroke-width:2"/><path fill="#1A83AF" d="m599.54 206.82-4.746-8.63.765 5.605-5.605.765 9.586 2.26z" style="stroke:#1a83af;stroke-width:2"/><path fill="none" d="M663.05 37.26C798.58 51.83 1048.94 81.1 1135.36 107c80.1 24.01 166.85 70.09 214.49 97.33" style="stroke:#1a83af;stroke-width:2"/><path fill="#1A83AF" d="m1354.34 206.9-5.813-7.95 1.477 5.46-5.46 1.477 9.796 1.013z" style="stroke:#1a83af;stroke-width:2"/><path fill="none" d="M639.12 47.01c58.15 16.81 142.77 41.27 202.4 58.51" style="stroke:#1a83af;stroke-width:2"/><path fill="#1A83AF" d="m846.49 106.96-7.537-6.34 2.733 4.953-4.952 2.734 9.756-1.347z" style="stroke:#1a83af;stroke-width:2"/><path fill="none" d="M225.65 38.85C179.19 49.1 122.42 68.9 85.36 107c-32.64 33.55-25.58 53.79-33 100-2.82 17.55-6.27 23.36 0 40 25.43 67.56 89.22 126.24 127.21 156.72" style="stroke:#1a83af;stroke-width:2"/><path fill="#1A83AF" d="m183.61 406.94-4.552-8.734.64 5.621-5.621.64 9.533 2.473z" style="stroke:#1a83af;stroke-width:2"/><path fill="none" d="M297.81 47.35c-12.29 36.32-38.79 114.62-52.25 154.4" style="stroke:#1a83af;stroke-width:2"/><path fill="#1A83AF" d="m243.83 206.87 6.674-7.243-5.071 2.507-2.507-5.071.904 9.807z" style="stroke:#1a83af;stroke-width:2"/><path fill="none" d="M335.81 47.16c60.68 36.97 193.51 117.9 257.58 156.93" style="stroke:#1a83af;stroke-width:2"/><path fill="#1A83AF" d="m597.88 206.82-5.608-8.096 1.337 5.496-5.497 1.337 9.768 1.263z" style="stroke:#1a83af;stroke-width:2"/><path fill="none" d="M256.92 47.1C171.26 84.15 6 169.03 77.36 247c48.99 53.53 501.86 71.01 742.01 76.55" style="stroke:#1a83af;stroke-width:2"/><path fill="#1A83AF" d="m824.65 323.67-8.906-4.205 3.907 4.09-4.09 3.908 9.089-3.793z" style="stroke:#1a83af;stroke-width:2"/><path fill="none" d="M383.01 37.52c26.47 3.12 56.18 6.55 83.35 9.48 269.96 29.15 353.41-34.42 608 60 29.01 10.76 29.21 26.37 57 40 52.59 25.81 115.42 45.39 165.55 58.6" style="stroke:#1a83af;stroke-width:2"/><path fill="#1A83AF" d="m1302.03 206.94-7.69-6.154 2.854 4.884-4.885 2.854 9.721-1.584z" style="stroke:#1a83af;stroke-width:2"/><path fill="none" d="M382.91 40.66c103.06 16.61 285.05 45.95 406.46 65.52" style="stroke:#1a83af;stroke-width:2"/><path fill="#1A83AF" d="m794.38 106.98-8.245-5.387 3.31 4.588-4.589 3.31 9.524-2.511z" style="stroke:#1a83af;stroke-width:2"/><path fill="none" d="M847.33 47.07 307.29 205.49" style="stroke:#1a83af;stroke-width:2"/><path fill="#1A83AF" d="m302.3 206.95 9.764 1.293-4.968-2.706 2.707-4.968-7.503 6.381z" style="stroke:#1a83af;stroke-width:2"/><path fill="none" d="M863.65 47.09C830.5 61.2 786.46 82.23 751.36 107c-40.16 28.34-79.57 70.01-102.3 95.77" style="stroke:#1a83af;stroke-width:2"/><path fill="#1A83AF" d="m645.56 206.77 8.937-4.14-5.644.377-.377-5.644-2.916 9.407z" style="stroke:#1a83af;stroke-width:2"/><path fill="none" d="M992.11 47.13c31.24 11.82 63.92 30.55 82.25 59.87 42.55 68.1-36.78 155.58-80.68 196.29" style="stroke:#1a83af;stroke-width:2"/><path fill="#1A83AF" d="m989.81 306.84 9.34-3.123-5.65-.252.251-5.651-3.941 9.026z" style="stroke:#1a83af;stroke-width:2"/><path fill="none" d="M1034.91 35.76c74.22 9.1 168.51 28.79 242.45 71.24 41.28 23.7 75.78 68.36 94.31 95.72" style="stroke:#1a83af;stroke-width:2"/><path fill="#1A83AF" d="m1374.51 206.96-1.664-9.707-1.11 5.547-5.547-1.11 8.321 5.27z" style="stroke:#1a83af;stroke-width:2"/><path fill="none" d="M912.36 47.36v54.3" style="stroke:#1a83af;stroke-width:2"/><path fill="#1A83AF" d="m912.36 106.68 4-9-4 4-4-4 4 9z" style="stroke:#1a83af;stroke-width:2"/><path fill="none" d="M1610.69 47.05c26.99 12.55 57.09 31.92 72.67 59.95 36.28 65.3-26.54 105.91-93 140-80.38 41.22-317.71 62.18-475.15 71.83" style="stroke:#1a83af;stroke-width:2"/><path fill="#1A83AF" d="m1110.11 319.14 9.223 3.454-4.232-3.753 3.753-4.233-8.744 4.532z" style="stroke:#1a83af;stroke-width:2"/><path fill="none" d="M1556.36 47.36v54.3" style="stroke:#1a83af;stroke-width:2"/><path fill="#1A83AF" d="m1556.36 106.68 4-9-4 4-4-4 4 9z" style="stroke:#1a83af;stroke-width:2"/><path fill="none" d="M1510.7 47.05c-26.94 13.29-59.86 33.41-81.34 59.95-22.68 28.01-33.95 68.99-39.12 94.82" style="stroke:#1a83af;stroke-width:2"/><path fill="#1A83AF" d="m1389.28 206.77 5.624-8.085-4.682 3.175-3.175-4.683 2.233 9.593z" style="stroke:#1a83af;stroke-width:2"/></svg>