<svg xmlns="http://www.w3.org/2000/svg" xmlns:xlink="http://www.w3.org/1999/xlink" width="668" height="1031" preserveAspectRatio="none" style="width:668px;height:1031px;background:#00000000"><a xlink:actuate="onRequest" xlink:href="#a" xlink:show="new" xlink:title="#aws_resource" xlink:type="simple" target="_top"><rect id="a" width="155" height="70.594" x="175.5" y="404" fill="#3D176E" rx="2.5" ry="2.5" style="stroke:#000d19;stroke-width:1.5"/><circle cx="190.5" cy="423.894" r="11" fill="#E98DF7" style="stroke:#000d19;stroke-width:1"/><path d="M193.469 429.535q-.578.297-1.219.438-.64.156-1.344.156-2.5 0-3.828-1.64-1.312-1.657-1.312-4.782t1.312-4.781q1.328-1.656 3.828-1.656.703 0 1.344.156.656.156 1.219.453v2.719q-.625-.579-1.219-.844-.594-.281-1.219-.281-1.344 0-2.031 1.078-.688 1.062-.688 3.156 0 2.094.688 3.172.688 1.062 2.031 1.062.625 0 1.219-.265.594-.281 1.219-.86v2.72Z"/><text x="209.5" y="429.78" fill="#D9B8FF" font-family="Helvetica" font-size="17" textLength="113">aws_resource</text><path d="M176.5 443.789h153" style="stroke:#000d19;stroke-width:1.5"/><text x="186.5" y="463" fill="#D9B8FF" font-family="sans-serif" font-size="11" font-weight="bold" textLength="21">arn</text><text x="207.5" y="463" fill="#D9B8FF" font-family="sans-serif" font-size="11" textLength="41">: string</text></a><a xlink:actuate="onRequest" xlink:href="#b" xlink:show="new" xlink:title="#resource" xlink:type="simple" target="_top"><rect id="b" width="195" height="275.836" x="239.5" y="7" fill="#3D176E" rx="2.5" ry="2.5" style="stroke:#000d19;stroke-width:1.5"/><circle cx="292.25" cy="26.895" r="11" fill="#E98DF7" style="stroke:#000d19;stroke-width:1"/><path d="M295.219 32.535q-.578.297-1.219.438-.64.156-1.344.156-2.5 0-3.828-1.64-1.312-1.657-1.312-4.782t1.312-4.781q1.328-1.656 3.828-1.656.703 0 1.344.156.656.156 1.219.453v2.719q-.625-.578-1.219-.844-.594-.281-1.219-.281-1.344 0-2.031 1.078-.688 1.062-.688 3.156 0 2.094.688 3.172.688 1.062 2.031 1.062.625 0 1.219-.265.594-.281 1.219-.86v2.72Z"/><text x="317.75" y="32.78" fill="#D9B8FF" font-family="Helvetica" font-size="17" textLength="71">resource</text><path d="M240.5 46.789h193" style="stroke:#000d19;stroke-width:1.5"/><text x="250.5" y="65.999" fill="#D9B8FF" font-family="sans-serif" font-size="11" font-weight="bold" textLength="12">id</text><text x="262.5" y="65.999" fill="#D9B8FF" font-family="sans-serif" font-size="11" textLength="41">: string</text><text x="250.5" y="88.804" fill="#D9B8FF" font-family="sans-serif" font-size="11" font-weight="bold" textLength="28">tags</text><text x="278.5" y="88.804" fill="#D9B8FF" font-family="sans-serif" font-size="11" textLength="145">: dictionary[string, string]</text><text x="250.5" y="111.609" fill="#D9B8FF" font-family="sans-serif" font-size="11" font-weight="bold" textLength="35">name</text><text x="285.5" y="111.609" fill="#D9B8FF" font-family="sans-serif" font-size="11" textLength="41">: string</text><text x="250.5" y="134.414" fill="#D9B8FF" font-family="sans-serif" font-size="11" font-weight="bold" textLength="35">ctime</text><text x="285.5" y="134.414" fill="#D9B8FF" font-family="sans-serif" font-size="11" textLength="58">: datetime</text><text x="250.5" y="157.218" fill="#D9B8FF" font-family="sans-serif" font-size="11" font-weight="bold" textLength="24">age</text><text x="274.5" y="157.218" fill="#D9B8FF" font-family="sans-serif" font-size="11" textLength="55">: duration</text><text x="250.5" y="180.023" fill="#D9B8FF" font-family="sans-serif" font-size="11" font-weight="bold" textLength="39">mtime</text><text x="289.5" y="180.023" fill="#D9B8FF" font-family="sans-serif" font-size="11" textLength="58">: datetime</text><text x="250.5" y="202.828" fill="#D9B8FF" font-family="sans-serif" font-size="11" font-weight="bold" textLength="75">last_update</text><text x="325.5" y="202.828" fill="#D9B8FF" font-family="sans-serif" font-size="11" textLength="55">: duration</text><text x="250.5" y="225.632" fill="#D9B8FF" font-family="sans-serif" font-size="11" font-weight="bold" textLength="36">atime</text><text x="286.5" y="225.632" fill="#D9B8FF" font-family="sans-serif" font-size="11" textLength="58">: datetime</text><text x="250.5" y="248.437" fill="#D9B8FF" font-family="sans-serif" font-size="11" font-weight="bold" textLength="74">last_access</text><text x="324.5" y="248.437" fill="#D9B8FF" font-family="sans-serif" font-size="11" textLength="55">: duration</text><text x="250.5" y="271.242" fill="#D9B8FF" font-family="sans-serif" font-size="11" font-weight="bold" textLength="27">kind</text><text x="277.5" y="271.242" fill="#D9B8FF" font-family="sans-serif" font-size="11" textLength="41">: string</text></a><a xlink:actuate="onRequest" xlink:href="#c" xlink:show="new" xlink:title="#aws_ec2_nat_gateway" xlink:type="simple" target="_top"><rect id="c" width="391" height="207.422" x="141.5" y="596" fill="#3D176E" rx="2.5" ry="2.5" style="stroke:#000d19;stroke-width:1.5"/><circle cx="233.25" cy="615.894" r="11" fill="#E98DF7" style="stroke:#000d19;stroke-width:1"/><path d="M236.219 621.535q-.578.297-1.219.438-.64.156-1.344.156-2.5 0-3.828-1.64-1.312-1.657-1.312-4.782t1.312-4.781q1.328-1.657 3.828-1.657.703 0 1.344.157.656.156 1.219.453v2.719q-.625-.578-1.219-.844-.594-.281-1.219-.281-1.344 0-2.031 1.078-.688 1.062-.688 3.156 0 2.094.688 3.172.688 1.062 2.031 1.062.625 0 1.219-.265.594-.282 1.219-.86v2.72Z"/><text x="258.75" y="621.78" fill="#D9B8FF" font-family="Helvetica" font-size="17" textLength="189">aws_ec2_nat_gateway</text><path d="M142.5 635.789h389" style="stroke:#000d19;stroke-width:1.5"/><text x="152.5" y="655" fill="#D9B8FF" font-family="sans-serif" font-size="11" font-weight="bold" textLength="102">nat_delete_time</text><text x="254.5" y="655" fill="#D9B8FF" font-family="sans-serif" font-size="11" textLength="58">: datetime</text><text x="152.5" y="677.804" fill="#D9B8FF" font-family="sans-serif" font-size="11" font-weight="bold" textLength="106">nat_failure_code</text><text x="258.5" y="677.804" fill="#D9B8FF" font-family="sans-serif" font-size="11" textLength="41">: string</text><text x="152.5" y="700.609" fill="#D9B8FF" font-family="sans-serif" font-size="11" font-weight="bold" textLength="132">nat_failure_message</text><text x="284.5" y="700.609" fill="#D9B8FF" font-family="sans-serif" font-size="11" textLength="41">: string</text><text x="152.5" y="723.414" fill="#D9B8FF" font-family="sans-serif" font-size="11" font-weight="bold" textLength="154">nat_gateway_addresses</text><text x="306.5" y="723.414" fill="#D9B8FF" font-family="sans-serif" font-size="11" textLength="195">: aws_ec2_nat_gateway_address[]</text><text x="152.5" y="746.218" fill="#D9B8FF" font-family="sans-serif" font-size="11" font-weight="bold" textLength="176">nat_provisioned_bandwidth</text><text x="328.5" y="746.218" fill="#D9B8FF" font-family="sans-serif" font-size="11" textLength="193">: aws_ec2_provisioned_bandwidth</text><text x="152.5" y="769.023" fill="#D9B8FF" font-family="sans-serif" font-size="11" font-weight="bold" textLength="60">nat_state</text><text x="212.5" y="769.023" fill="#D9B8FF" font-family="sans-serif" font-size="11" textLength="41">: string</text><text x="152.5" y="791.828" fill="#D9B8FF" font-family="sans-serif" font-size="11" font-weight="bold" textLength="139">nat_connectivity_type</text><text x="291.5" y="791.828" fill="#D9B8FF" font-family="sans-serif" font-size="11" textLength="41">: string</text></a><a xlink:actuate="onRequest" xlink:href="#d" xlink:show="new" xlink:title="#aws_ec2_provisioned_bandwidth" xlink:type="simple" target="_top"><rect id="d" width="316" height="161.813" x="7" y="863" fill="#3D176E" rx="2.5" ry="2.5" style="stroke:#000d19;stroke-width:1.5"/><circle cx="22" cy="882.894" r="11" fill="#E98DF7" style="stroke:#000d19;stroke-width:1"/><path d="M24.969 888.535q-.578.297-1.219.438-.64.156-1.344.156-2.5 0-3.828-1.64-1.312-1.657-1.312-4.782t1.312-4.781q1.328-1.657 3.828-1.657.703 0 1.344.157.656.156 1.219.453v2.719q-.625-.578-1.219-.844-.594-.281-1.219-.281-1.343 0-2.031 1.078-.688 1.062-.688 3.156 0 2.094.688 3.172.688 1.062 2.031 1.062.625 0 1.219-.265.594-.282 1.219-.86v2.72Z"/><text x="41" y="888.78" fill="#D9B8FF" font-family="Helvetica" font-size="17" textLength="274">aws_ec2_provisioned_bandwidth</text><path d="M8 902.789h314" style="stroke:#000d19;stroke-width:1.5"/><text x="18" y="922" fill="#D9B8FF" font-family="sans-serif" font-size="11" font-weight="bold" textLength="93">provision_time</text><text x="111" y="922" fill="#D9B8FF" font-family="sans-serif" font-size="11" textLength="58">: datetime</text><text x="18" y="944.804" fill="#D9B8FF" font-family="sans-serif" font-size="11" font-weight="bold" textLength="75">provisioned</text><text x="93" y="944.804" fill="#D9B8FF" font-family="sans-serif" font-size="11" textLength="41">: string</text><text x="18" y="967.609" fill="#D9B8FF" font-family="sans-serif" font-size="11" font-weight="bold" textLength="83">request_time</text><text x="101" y="967.609" fill="#D9B8FF" font-family="sans-serif" font-size="11" textLength="58">: datetime</text><text x="18" y="990.414" fill="#D9B8FF" font-family="sans-serif" font-size="11" font-weight="bold" textLength="65">requested</text><text x="83" y="990.414" fill="#D9B8FF" font-family="sans-serif" font-size="11" textLength="41">: string</text><text x="18" y="1013.218" fill="#D9B8FF" font-family="sans-serif" font-size="11" font-weight="bold" textLength="40">status</text><text x="58" y="1013.218" fill="#D9B8FF" font-family="sans-serif" font-size="11" textLength="41">: string</text></a><a xlink:actuate="onRequest" xlink:href="#e" xlink:show="new" xlink:title="#gateway" xlink:type="simple" target="_top"><rect id="e" width="114" height="39.789" x="366" y="419.5" fill="#3D176E" rx="2.5" ry="2.5" style="stroke:#000d19;stroke-width:1.5"/><circle cx="381" cy="439.394" r="11" fill="#E98DF7" style="stroke:#000d19;stroke-width:1"/><path d="M383.969 445.035q-.578.297-1.219.438-.64.156-1.344.156-2.5 0-3.828-1.64-1.312-1.657-1.312-4.782t1.312-4.781q1.328-1.656 3.828-1.656.703 0 1.344.156.656.156 1.219.453v2.719q-.625-.579-1.219-.844-.594-.281-1.219-.281-1.344 0-2.031 1.078-.688 1.062-.688 3.156 0 2.094.688 3.172.688 1.062 2.031 1.062.625 0 1.219-.265.594-.281 1.219-.86v2.72Z"/><text x="400" y="445.28" fill="#D9B8FF" font-family="Helvetica" font-size="17" textLength="72">gateway</text></a><a xlink:actuate="onRequest" xlink:href="#f" xlink:show="new" xlink:title="#aws_ec2_nat_gateway_address" xlink:type="simple" target="_top"><rect id="f" width="303" height="139.008" x="358.5" y="874.5" fill="#3D176E" rx="2.5" ry="2.5" style="stroke:#000d19;stroke-width:1.5"/><circle cx="373.5" cy="894.394" r="11" fill="#E98DF7" style="stroke:#000d19;stroke-width:1"/><path d="M376.469 900.035q-.578.297-1.219.438-.64.156-1.344.156-2.5 0-3.828-1.64-1.312-1.657-1.312-4.782t1.312-4.781q1.328-1.657 3.828-1.657.703 0 1.344.157.656.156 1.219.453v2.719q-.625-.578-1.219-.844-.594-.281-1.219-.281-1.344 0-2.031 1.078-.688 1.062-.688 3.156 0 2.094.688 3.172.688 1.062 2.031 1.062.625 0 1.219-.265.594-.282 1.219-.86v2.72Z"/><text x="392.5" y="900.28" fill="#D9B8FF" font-family="Helvetica" font-size="17" textLength="261">aws_ec2_nat_gateway_address</text><path d="M359.5 914.289h301" style="stroke:#000d19;stroke-width:1.5"/><text x="369.5" y="933.5" fill="#D9B8FF" font-family="sans-serif" font-size="11" font-weight="bold" textLength="82">allocation_id</text><text x="451.5" y="933.5" fill="#D9B8FF" font-family="sans-serif" font-size="11" textLength="41">: string</text><text x="369.5" y="956.304" fill="#D9B8FF" font-family="sans-serif" font-size="11" font-weight="bold" textLength="134">network_interface_id</text><text x="503.5" y="956.304" fill="#D9B8FF" font-family="sans-serif" font-size="11" textLength="41">: string</text><text x="369.5" y="979.109" fill="#D9B8FF" font-family="sans-serif" font-size="11" font-weight="bold" textLength="63">private_ip</text><text x="432.5" y="979.109" fill="#D9B8FF" font-family="sans-serif" font-size="11" textLength="41">: string</text><text x="369.5" y="1001.914" fill="#D9B8FF" font-family="sans-serif" font-size="11" font-weight="bold" textLength="57">public_ip</text><text x="426.5" y="1001.914" fill="#D9B8FF" font-family="sans-serif" font-size="11" textLength="41">: string</text></a><path fill="none" d="M292.01 302.65c-10.97 38.2-21.66 75.44-29.07 101.25m22.39-103.35 12.25-17.29 1.21 21.15-13.46-3.86zm-14.77 193.88c9.58 29.42 21.75 66.82 33.06 101.55m-39.84-99.77.46-21.18 12.85 16.85-13.31 4.33zm146.3-16.94c-10.3 30.88-25.2 75.59-38.87 116.59m32.36-119.21 12.97-16.76.31 21.19-13.28-4.43zm6.8 326.69c16.06 22.51 32.73 45.89 47.74 66.93" style="stroke:#ffaf37;stroke-width:2"/><path fill="#FFAF37" d="m461.09 874.45-1.98-9.648-.928 5.58-5.58-.928 8.488 4.996z" style="stroke:#ffaf37;stroke-width:2"/><path fill="none" d="M264.06 803.34c-13 18.33-26.41 37.23-39 54.98" style="stroke:#ffaf37;stroke-width:2"/><path fill="#FFAF37" d="m221.88 862.8 8.48-5.01-5.58.938-.937-5.58-1.963 9.652z" style="stroke:#ffaf37;stroke-width:2"/><path fill="none" d="M383.04 302.58c13.72 46.68 27.03 91.95 34.3 116.66m-41.06-114.82 1.08-21.16 12.35 17.21-13.43 3.95z" style="stroke:#ffaf37;stroke-width:2"/></svg>