<svg xmlns="http://www.w3.org/2000/svg" xmlns:xlink="http://www.w3.org/1999/xlink" width="1379" height="1460" preserveAspectRatio="none" style="width:1379px;height:1460px;background:#00000000"><a xlink:actuate="onRequest" xlink:href="#a" xlink:show="new" xlink:title="#resource" xlink:type="simple" target="_top"><rect id="a" width="195" height="275.836" x="698" y="7" fill="#3D176E" rx="2.5" ry="2.5" style="stroke:#000d19;stroke-width:1.5"/><circle cx="750.75" cy="26.895" r="11" fill="#E98DF7" style="stroke:#000d19;stroke-width:1"/><path d="M753.719 32.535q-.578.297-1.219.438-.64.156-1.344.156-2.5 0-3.828-1.64-1.312-1.657-1.312-4.782t1.312-4.781q1.328-1.656 3.828-1.656.703 0 1.344.156.656.156 1.219.453v2.719q-.625-.578-1.219-.844-.594-.281-1.219-.281-1.343 0-2.031 1.078-.688 1.062-.688 3.156 0 2.094.688 3.172.688 1.062 2.031 1.062.625 0 1.219-.265.594-.281 1.219-.86v2.72Z"/><text x="776.25" y="32.78" fill="#D9B8FF" font-family="Helvetica" font-size="17" textLength="71">resource</text><path d="M699 46.789h193" style="stroke:#000d19;stroke-width:1.5"/><text x="709" y="65.999" fill="#D9B8FF" font-family="sans-serif" font-size="11" font-weight="bold" textLength="12">id</text><text x="721" y="65.999" fill="#D9B8FF" font-family="sans-serif" font-size="11" textLength="41">: string</text><text x="709" y="88.804" fill="#D9B8FF" font-family="sans-serif" font-size="11" font-weight="bold" textLength="28">tags</text><text x="737" y="88.804" fill="#D9B8FF" font-family="sans-serif" font-size="11" textLength="145">: dictionary[string, string]</text><text x="709" y="111.609" fill="#D9B8FF" font-family="sans-serif" font-size="11" font-weight="bold" textLength="35">name</text><text x="744" y="111.609" fill="#D9B8FF" font-family="sans-serif" font-size="11" textLength="41">: string</text><text x="709" y="134.414" fill="#D9B8FF" font-family="sans-serif" font-size="11" font-weight="bold" textLength="35">ctime</text><text x="744" y="134.414" fill="#D9B8FF" font-family="sans-serif" font-size="11" textLength="58">: datetime</text><text x="709" y="157.218" fill="#D9B8FF" font-family="sans-serif" font-size="11" font-weight="bold" textLength="24">age</text><text x="733" y="157.218" fill="#D9B8FF" font-family="sans-serif" font-size="11" textLength="55">: duration</text><text x="709" y="180.023" fill="#D9B8FF" font-family="sans-serif" font-size="11" font-weight="bold" textLength="39">mtime</text><text x="748" y="180.023" fill="#D9B8FF" font-family="sans-serif" font-size="11" textLength="58">: datetime</text><text x="709" y="202.828" fill="#D9B8FF" font-family="sans-serif" font-size="11" font-weight="bold" textLength="75">last_update</text><text x="784" y="202.828" fill="#D9B8FF" font-family="sans-serif" font-size="11" textLength="55">: duration</text><text x="709" y="225.632" fill="#D9B8FF" font-family="sans-serif" font-size="11" font-weight="bold" textLength="36">atime</text><text x="745" y="225.632" fill="#D9B8FF" font-family="sans-serif" font-size="11" textLength="58">: datetime</text><text x="709" y="248.437" fill="#D9B8FF" font-family="sans-serif" font-size="11" font-weight="bold" textLength="74">last_access</text><text x="783" y="248.437" fill="#D9B8FF" font-family="sans-serif" font-size="11" textLength="55">: duration</text><text x="709" y="271.242" fill="#D9B8FF" font-family="sans-serif" font-size="11" font-weight="bold" textLength="27">kind</text><text x="736" y="271.242" fill="#D9B8FF" font-family="sans-serif" font-size="11" textLength="41">: string</text></a><a xlink:actuate="onRequest" xlink:href="#b" xlink:show="new" xlink:title="#aws_resource" xlink:type="simple" target="_top"><rect id="b" width="155" height="70.594" x="718" y="404" fill="#3D176E" rx="2.5" ry="2.5" style="stroke:#000d19;stroke-width:1.5"/><circle cx="733" cy="423.894" r="11" fill="#E98DF7" style="stroke:#000d19;stroke-width:1"/><path d="M735.969 429.535q-.578.297-1.219.438-.64.156-1.344.156-2.5 0-3.828-1.64-1.312-1.657-1.312-4.782t1.312-4.781q1.328-1.656 3.828-1.656.703 0 1.344.156.656.156 1.219.453v2.719q-.625-.579-1.219-.844-.594-.281-1.219-.281-1.343 0-2.031 1.078-.688 1.062-.688 3.156 0 2.094.688 3.172.688 1.062 2.031 1.062.625 0 1.219-.265.594-.281 1.219-.86v2.72Z"/><text x="752" y="429.78" fill="#D9B8FF" font-family="Helvetica" font-size="17" textLength="113">aws_resource</text><path d="M719 443.789h153" style="stroke:#000d19;stroke-width:1.5"/><text x="729" y="463" fill="#D9B8FF" font-family="sans-serif" font-size="11" font-weight="bold" textLength="21">arn</text><text x="750" y="463" fill="#D9B8FF" font-family="sans-serif" font-size="11" textLength="41">: string</text></a><a xlink:actuate="onRequest" xlink:href="#c" xlink:show="new" xlink:title="#aws_ecs_version_info" xlink:type="simple" target="_top"><rect id="c" width="221" height="116.203" x="7" y="1103.5" fill="#3D176E" rx="2.5" ry="2.5" style="stroke:#000d19;stroke-width:1.5"/><circle cx="22" cy="1123.395" r="11" fill="#E98DF7" style="stroke:#000d19;stroke-width:1"/><path d="M24.969 1129.035q-.578.297-1.219.438-.64.156-1.344.156-2.5 0-3.828-1.64-1.312-1.657-1.312-4.782t1.312-4.781q1.328-1.656 3.828-1.656.703 0 1.344.156.656.156 1.219.453v2.719q-.625-.578-1.219-.844-.594-.281-1.219-.281-1.343 0-2.031 1.078-.688 1.062-.688 3.156 0 2.094.688 3.172.688 1.062 2.031 1.062.625 0 1.219-.265.594-.281 1.219-.86v2.72Z"/><text x="41" y="1129.28" fill="#D9B8FF" font-family="Helvetica" font-size="17" textLength="179">aws_ecs_version_info</text><path d="M8 1143.289h219" style="stroke:#000d19;stroke-width:1.5"/><text x="18" y="1162.499" fill="#D9B8FF" font-family="sans-serif" font-size="11" font-weight="bold" textLength="90">agent_version</text><text x="108" y="1162.499" fill="#D9B8FF" font-family="sans-serif" font-size="11" textLength="41">: string</text><text x="18" y="1185.304" fill="#D9B8FF" font-family="sans-serif" font-size="11" font-weight="bold" textLength="74">agent_hash</text><text x="92" y="1185.304" fill="#D9B8FF" font-family="sans-serif" font-size="11" textLength="41">: string</text><text x="18" y="1208.109" fill="#D9B8FF" font-family="sans-serif" font-size="11" font-weight="bold" textLength="96">docker_version</text><text x="114" y="1208.109" fill="#D9B8FF" font-family="sans-serif" font-size="11" textLength="41">: string</text></a><a xlink:actuate="onRequest" xlink:href="#d" xlink:show="new" xlink:title="#aws_ecs_container_instance_health_status" xlink:type="simple" target="_top"><rect id="d" width="400" height="93.398" x="263.5" y="1115" fill="#3D176E" rx="2.5" ry="2.5" style="stroke:#000d19;stroke-width:1.5"/><circle cx="278.5" cy="1134.895" r="11" fill="#E98DF7" style="stroke:#000d19;stroke-width:1"/><path d="M281.469 1140.535q-.578.297-1.219.438-.64.156-1.344.156-2.5 0-3.828-1.64-1.312-1.657-1.312-4.782t1.312-4.781q1.328-1.656 3.828-1.656.703 0 1.344.156.656.156 1.219.453v2.719q-.625-.578-1.219-.844-.594-.281-1.219-.281-1.344 0-2.031 1.078-.688 1.062-.688 3.156 0 2.094.688 3.172.688 1.062 2.031 1.062.625 0 1.219-.265.594-.281 1.219-.86v2.72Z"/><text x="297.5" y="1140.78" fill="#D9B8FF" font-family="Helvetica" font-size="17" textLength="358">aws_ecs_container_instance_health_status</text><path d="M264.5 1154.789h398" style="stroke:#000d19;stroke-width:1.5"/><text x="274.5" y="1173.999" fill="#D9B8FF" font-family="sans-serif" font-size="11" font-weight="bold" textLength="90">overall_status</text><text x="364.5" y="1173.999" fill="#D9B8FF" font-family="sans-serif" font-size="11" textLength="41">: string</text><text x="274.5" y="1196.804" fill="#D9B8FF" font-family="sans-serif" font-size="11" font-weight="bold" textLength="44">details</text><text x="318.5" y="1196.804" fill="#D9B8FF" font-family="sans-serif" font-size="11" textLength="237">: aws_ecs_instance_health_check_result[]</text></a><a xlink:actuate="onRequest" xlink:href="#e" xlink:show="new" xlink:title="#aws_ecs_instance_health_check_result" xlink:type="simple" target="_top"><rect id="e" width="365" height="139.008" x="281" y="1314" fill="#3D176E" rx="2.5" ry="2.5" style="stroke:#000d19;stroke-width:1.5"/><circle cx="296" cy="1333.895" r="11" fill="#E98DF7" style="stroke:#000d19;stroke-width:1"/><path d="M298.969 1339.535q-.578.297-1.219.438-.64.156-1.344.156-2.5 0-3.828-1.64-1.312-1.657-1.312-4.782t1.312-4.781q1.328-1.656 3.828-1.656.703 0 1.344.156.656.156 1.219.453v2.719q-.625-.578-1.219-.844-.594-.281-1.219-.281-1.344 0-2.031 1.078-.688 1.062-.688 3.156 0 2.094.688 3.172.688 1.062 2.031 1.062.625 0 1.219-.265.594-.281 1.219-.86v2.72Z"/><text x="315" y="1339.78" fill="#D9B8FF" font-family="Helvetica" font-size="17" textLength="323">aws_ecs_instance_health_check_result</text><path d="M282 1353.789h363" style="stroke:#000d19;stroke-width:1.5"/><text x="292" y="1372.999" fill="#D9B8FF" font-family="sans-serif" font-size="11" font-weight="bold" textLength="28">type</text><text x="320" y="1372.999" fill="#D9B8FF" font-family="sans-serif" font-size="11" textLength="41">: string</text><text x="292" y="1395.804" fill="#D9B8FF" font-family="sans-serif" font-size="11" font-weight="bold" textLength="40">status</text><text x="332" y="1395.804" fill="#D9B8FF" font-family="sans-serif" font-size="11" textLength="41">: string</text><text x="292" y="1418.609" fill="#D9B8FF" font-family="sans-serif" font-size="11" font-weight="bold" textLength="83">last_updated</text><text x="375" y="1418.609" fill="#D9B8FF" font-family="sans-serif" font-size="11" textLength="58">: datetime</text><text x="292" y="1441.414" fill="#D9B8FF" font-family="sans-serif" font-size="11" font-weight="bold" textLength="123">last_status_change</text><text x="415" y="1441.414" fill="#D9B8FF" font-family="sans-serif" font-size="11" textLength="58">: datetime</text></a><a xlink:actuate="onRequest" xlink:href="#f" xlink:show="new" xlink:title="#aws_ecs_key_value_pair" xlink:type="simple" target="_top"><rect id="f" width="245" height="93.398" x="915" y="1337" fill="#3D176E" rx="2.5" ry="2.5" style="stroke:#000d19;stroke-width:1.5"/><circle cx="930" cy="1356.895" r="11" fill="#E98DF7" style="stroke:#000d19;stroke-width:1"/><path d="M932.969 1362.535q-.578.297-1.219.438-.64.156-1.344.156-2.5 0-3.828-1.64-1.312-1.657-1.312-4.782t1.312-4.781q1.328-1.656 3.828-1.656.703 0 1.344.156.656.156 1.219.453v2.719q-.625-.578-1.219-.844-.594-.281-1.219-.281-1.343 0-2.031 1.078-.688 1.062-.688 3.156 0 2.094.688 3.172.688 1.062 2.031 1.062.625 0 1.219-.265.594-.281 1.219-.86v2.72Z"/><text x="949" y="1362.78" fill="#D9B8FF" font-family="Helvetica" font-size="17" textLength="203">aws_ecs_key_value_pair</text><path d="M916 1376.789h243" style="stroke:#000d19;stroke-width:1.5"/><text x="926" y="1395.999" fill="#D9B8FF" font-family="sans-serif" font-size="11" font-weight="bold" textLength="35">name</text><text x="961" y="1395.999" fill="#D9B8FF" font-family="sans-serif" font-size="11" textLength="41">: string</text><text x="926" y="1418.804" fill="#D9B8FF" font-family="sans-serif" font-size="11" font-weight="bold" textLength="35">value</text><text x="961" y="1418.804" fill="#D9B8FF" font-family="sans-serif" font-size="11" textLength="41">: string</text></a><a xlink:actuate="onRequest" xlink:href="#g" xlink:show="new" xlink:title="#aws_ecs_attribute" xlink:type="simple" target="_top"><rect id="g" width="193" height="139.008" x="699" y="1092" fill="#3D176E" rx="2.5" ry="2.5" style="stroke:#000d19;stroke-width:1.5"/><circle cx="714" cy="1111.895" r="11" fill="#E98DF7" style="stroke:#000d19;stroke-width:1"/><path d="M716.969 1117.535q-.578.297-1.219.438-.64.156-1.344.156-2.5 0-3.828-1.64-1.312-1.657-1.312-4.782t1.312-4.781q1.328-1.656 3.828-1.656.703 0 1.344.156.656.156 1.219.453v2.719q-.625-.578-1.219-.844-.594-.281-1.219-.281-1.343 0-2.031 1.078-.688 1.062-.688 3.156 0 2.094.688 3.172.688 1.062 2.031 1.062.625 0 1.219-.265.594-.281 1.219-.86v2.72Z"/><text x="733" y="1117.78" fill="#D9B8FF" font-family="Helvetica" font-size="17" textLength="151">aws_ecs_attribute</text><path d="M700 1131.789h191" style="stroke:#000d19;stroke-width:1.5"/><text x="710" y="1150.999" fill="#D9B8FF" font-family="sans-serif" font-size="11" font-weight="bold" textLength="35">name</text><text x="745" y="1150.999" fill="#D9B8FF" font-family="sans-serif" font-size="11" textLength="41">: string</text><text x="710" y="1173.804" fill="#D9B8FF" font-family="sans-serif" font-size="11" font-weight="bold" textLength="35">value</text><text x="745" y="1173.804" fill="#D9B8FF" font-family="sans-serif" font-size="11" textLength="41">: string</text><text x="710" y="1196.609" fill="#D9B8FF" font-family="sans-serif" font-size="11" font-weight="bold" textLength="73">target_type</text><text x="783" y="1196.609" fill="#D9B8FF" font-family="sans-serif" font-size="11" textLength="41">: string</text><text x="710" y="1219.414" fill="#D9B8FF" font-family="sans-serif" font-size="11" font-weight="bold" textLength="57">target_id</text><text x="767" y="1219.414" fill="#D9B8FF" font-family="sans-serif" font-size="11" textLength="41">: string</text></a><a xlink:actuate="onRequest" xlink:href="#h" xlink:show="new" xlink:title="#aws_ecs_attachment" xlink:type="simple" target="_top"><rect id="h" width="220" height="139.008" x="927.5" y="1092" fill="#3D176E" rx="2.5" ry="2.5" style="stroke:#000d19;stroke-width:1.5"/><circle cx="943.85" cy="1111.895" r="11" fill="#E98DF7" style="stroke:#000d19;stroke-width:1"/><path d="M946.819 1117.535q-.578.297-1.219.438-.64.156-1.344.156-2.5 0-3.828-1.64-1.312-1.657-1.312-4.782t1.312-4.781q1.328-1.656 3.828-1.656.703 0 1.344.156.656.156 1.219.453v2.719q-.625-.578-1.219-.844-.594-.281-1.219-.281-1.343 0-2.031 1.078-.688 1.062-.688 3.156 0 2.094.688 3.172.688 1.062 2.031 1.062.625 0 1.219-.265.594-.281 1.219-.86v2.72Z"/><text x="963.15" y="1117.78" fill="#D9B8FF" font-family="Helvetica" font-size="17" textLength="175">aws_ecs_attachment</text><path d="M928.5 1131.789h218" style="stroke:#000d19;stroke-width:1.5"/><text x="938.5" y="1150.999" fill="#D9B8FF" font-family="sans-serif" font-size="11" font-weight="bold" textLength="12">id</text><text x="950.5" y="1150.999" fill="#D9B8FF" font-family="sans-serif" font-size="11" textLength="41">: string</text><text x="938.5" y="1173.804" fill="#D9B8FF" font-family="sans-serif" font-size="11" font-weight="bold" textLength="28">type</text><text x="966.5" y="1173.804" fill="#D9B8FF" font-family="sans-serif" font-size="11" textLength="41">: string</text><text x="938.5" y="1196.609" fill="#D9B8FF" font-family="sans-serif" font-size="11" font-weight="bold" textLength="40">status</text><text x="978.5" y="1196.609" fill="#D9B8FF" font-family="sans-serif" font-size="11" textLength="41">: string</text><text x="938.5" y="1219.414" fill="#D9B8FF" font-family="sans-serif" font-size="11" font-weight="bold" textLength="44">details</text><text x="982.5" y="1219.414" fill="#D9B8FF" font-family="sans-serif" font-size="11" textLength="154">: aws_ecs_key_value_pair[]</text></a><a xlink:actuate="onRequest" xlink:href="#i" xlink:show="new" xlink:title="#aws_ecs_container_instance" xlink:type="simple" target="_top"><rect id="i" width="362" height="412.664" x="614.5" y="596" fill="#3D176E" rx="2.5" ry="2.5" style="stroke:#000d19;stroke-width:1.5"/><circle cx="668.75" cy="615.894" r="11" fill="#E98DF7" style="stroke:#000d19;stroke-width:1"/><path d="M671.719 621.535q-.578.297-1.219.438-.64.156-1.344.156-2.5 0-3.828-1.64-1.312-1.657-1.312-4.782t1.312-4.781q1.328-1.657 3.828-1.657.703 0 1.344.157.656.156 1.219.453v2.719q-.625-.578-1.219-.844-.594-.281-1.219-.281-1.343 0-2.031 1.078-.688 1.062-.688 3.156 0 2.094.688 3.172.688 1.062 2.031 1.062.625 0 1.219-.265.594-.282 1.219-.86v2.72Z"/><text x="694.25" y="621.78" fill="#D9B8FF" font-family="Helvetica" font-size="17" textLength="235">aws_ecs_container_instance</text><path d="M615.5 635.789h360" style="stroke:#000d19;stroke-width:1.5"/><text x="625.5" y="655" fill="#D9B8FF" font-family="sans-serif" font-size="11" font-weight="bold" textLength="102">ec2_instance_id</text><text x="727.5" y="655" fill="#D9B8FF" font-family="sans-serif" font-size="11" textLength="41">: string</text><text x="625.5" y="677.804" fill="#D9B8FF" font-family="sans-serif" font-size="11" font-weight="bold" textLength="154">capacity_provider_name</text><text x="779.5" y="677.804" fill="#D9B8FF" font-family="sans-serif" font-size="11" textLength="41">: string</text><text x="625.5" y="700.609" fill="#D9B8FF" font-family="sans-serif" font-size="11" font-weight="bold" textLength="47">version</text><text x="672.5" y="700.609" fill="#D9B8FF" font-family="sans-serif" font-size="11" textLength="36">: int64</text><text x="625.5" y="723.414" fill="#D9B8FF" font-family="sans-serif" font-size="11" font-weight="bold" textLength="78">version_info</text><text x="703.5" y="723.414" fill="#D9B8FF" font-family="sans-serif" font-size="11" textLength="132">: aws_ecs_version_info</text><text x="625.5" y="746.218" fill="#D9B8FF" font-family="sans-serif" font-size="11" font-weight="bold" textLength="133">remaining_resources</text><text x="758.5" y="746.218" fill="#D9B8FF" font-family="sans-serif" font-size="11" textLength="122">: aws_ecs_resource[]</text><text x="625.5" y="769.023" fill="#D9B8FF" font-family="sans-serif" font-size="11" font-weight="bold" textLength="135">registered_resources</text><text x="760.5" y="769.023" fill="#D9B8FF" font-family="sans-serif" font-size="11" textLength="122">: aws_ecs_resource[]</text><text x="625.5" y="791.828" fill="#D9B8FF" font-family="sans-serif" font-size="11" font-weight="bold" textLength="40">status</text><text x="665.5" y="791.828" fill="#D9B8FF" font-family="sans-serif" font-size="11" textLength="41">: string</text><text x="625.5" y="814.632" fill="#D9B8FF" font-family="sans-serif" font-size="11" font-weight="bold" textLength="90">status_reason</text><text x="715.5" y="814.632" fill="#D9B8FF" font-family="sans-serif" font-size="11" textLength="41">: string</text><text x="625.5" y="837.437" fill="#D9B8FF" font-family="sans-serif" font-size="11" font-weight="bold" textLength="110">agent_connected</text><text x="735.5" y="837.437" fill="#D9B8FF" font-family="sans-serif" font-size="11" textLength="53">: boolean</text><text x="625.5" y="860.242" fill="#D9B8FF" font-family="sans-serif" font-size="11" font-weight="bold" textLength="131">running_tasks_count</text><text x="756.5" y="860.242" fill="#D9B8FF" font-family="sans-serif" font-size="11" textLength="36">: int64</text><text x="625.5" y="883.046" fill="#D9B8FF" font-family="sans-serif" font-size="11" font-weight="bold" textLength="134">pending_tasks_count</text><text x="759.5" y="883.046" fill="#D9B8FF" font-family="sans-serif" font-size="11" textLength="36">: int64</text><text x="625.5" y="905.851" fill="#D9B8FF" font-family="sans-serif" font-size="11" font-weight="bold" textLength="134">agent_update_status</text><text x="759.5" y="905.851" fill="#D9B8FF" font-family="sans-serif" font-size="11" textLength="41">: string</text><text x="625.5" y="928.656" fill="#D9B8FF" font-family="sans-serif" font-size="11" font-weight="bold" textLength="63">attributes</text><text x="688.5" y="928.656" fill="#D9B8FF" font-family="sans-serif" font-size="11" textLength="119">: aws_ecs_attribute[]</text><text x="625.5" y="951.46" fill="#D9B8FF" font-family="sans-serif" font-size="11" font-weight="bold" textLength="80">attachments</text><text x="705.5" y="951.46" fill="#D9B8FF" font-family="sans-serif" font-size="11" textLength="135">: aws_ecs_attachment[]</text><text x="625.5" y="974.265" fill="#D9B8FF" font-family="sans-serif" font-size="11" font-weight="bold" textLength="87">health_status</text><text x="712.5" y="974.265" fill="#D9B8FF" font-family="sans-serif" font-size="11" textLength="253">: aws_ecs_container_instance_health_status</text><text x="625.5" y="997.07" fill="#D9B8FF" font-family="sans-serif" font-size="11" font-weight="bold" textLength="73">cluster_link</text><text x="698.5" y="997.07" fill="#D9B8FF" font-family="sans-serif" font-size="11" textLength="41">: string</text></a><a xlink:actuate="onRequest" xlink:href="#j" xlink:show="new" xlink:title="#aws_ecs_resource" xlink:type="simple" target="_top"><rect id="j" width="190" height="184.617" x="1182.5" y="1069" fill="#3D176E" rx="2.5" ry="2.5" style="stroke:#000d19;stroke-width:1.5"/><circle cx="1197.5" cy="1088.895" r="11" fill="#E98DF7" style="stroke:#000d19;stroke-width:1"/><path d="M1200.469 1094.535q-.578.297-1.219.438-.64.156-1.344.156-2.5 0-3.828-1.64-1.312-1.657-1.312-4.782t1.312-4.781q1.328-1.656 3.828-1.656.703 0 1.344.156.656.156 1.219.453v2.719q-.625-.578-1.219-.844-.594-.281-1.219-.281-1.343 0-2.031 1.078-.688 1.062-.688 3.156 0 2.094.688 3.172.688 1.062 2.031 1.062.625 0 1.219-.265.594-.281 1.219-.86v2.72Z"/><text x="1216.5" y="1094.78" fill="#D9B8FF" font-family="Helvetica" font-size="17" textLength="148">aws_ecs_resource</text><path d="M1183.5 1108.789h188" style="stroke:#000d19;stroke-width:1.5"/><text x="1193.5" y="1127.999" fill="#D9B8FF" font-family="sans-serif" font-size="11" font-weight="bold" textLength="35">name</text><text x="1228.5" y="1127.999" fill="#D9B8FF" font-family="sans-serif" font-size="11" textLength="41">: string</text><text x="1193.5" y="1150.804" fill="#D9B8FF" font-family="sans-serif" font-size="11" font-weight="bold" textLength="28">type</text><text x="1221.5" y="1150.804" fill="#D9B8FF" font-family="sans-serif" font-size="11" textLength="41">: string</text><text x="1193.5" y="1173.609" fill="#D9B8FF" font-family="sans-serif" font-size="11" font-weight="bold" textLength="85">double_value</text><text x="1278.5" y="1173.609" fill="#D9B8FF" font-family="sans-serif" font-size="11" textLength="46">: double</text><text x="1193.5" y="1196.414" fill="#D9B8FF" font-family="sans-serif" font-size="11" font-weight="bold" textLength="69">long_value</text><text x="1262.5" y="1196.414" fill="#D9B8FF" font-family="sans-serif" font-size="11" textLength="36">: int64</text><text x="1193.5" y="1219.218" fill="#D9B8FF" font-family="sans-serif" font-size="11" font-weight="bold" textLength="87">integer_value</text><text x="1280.5" y="1219.218" fill="#D9B8FF" font-family="sans-serif" font-size="11" textLength="36">: int64</text><text x="1193.5" y="1242.023" fill="#D9B8FF" font-family="sans-serif" font-size="11" font-weight="bold" textLength="104">string_set_value</text><text x="1297.5" y="1242.023" fill="#D9B8FF" font-family="sans-serif" font-size="11" textLength="49">: string[]</text></a><path fill="none" d="M795.5 303.43V403.9m-7-100.64 7-20 7 20h-14zm-325 904.82v100.6" style="stroke:#ffaf37;stroke-width:2"/><path fill="#FFAF37" d="m463.5 1313.98 4-9-4 4-4-4 4 9z" style="stroke:#ffaf37;stroke-width:2"/><path fill="none" d="M1037.5 1231.2v100.58" style="stroke:#ffaf37;stroke-width:2"/><path fill="#FFAF37" d="m1037.5 1336.88 4-9-4 4-4-4 4 9z" style="stroke:#ffaf37;stroke-width:2"/><path fill="none" d="M795.5 495.16v100.77m-7-100.82 7-20 7 20h-14zM614.37 881.48C505.12 930.82 364.52 998.43 245.5 1069c-16 9.49-32.55 20.4-48.21 31.31" style="stroke:#ffaf37;stroke-width:2"/><path fill="#FFAF37" d="m192.89 1103.39 9.663-1.902-5.572-.973.972-5.573-5.063 8.448z" style="stroke:#ffaf37;stroke-width:2"/><path fill="none" d="M976.88 930.23c60.57 43.23 128.05 92.37 188.62 138.77 4.2 3.21 8.46 6.52 12.75 9.88" style="stroke:#ffaf37;stroke-width:2"/><path fill="#FFAF37" d="m1182.2 1081.98-4.622-8.697.685 5.616-5.616.684 9.553 2.397z" style="stroke:#ffaf37;stroke-width:2"/><path fill="none" d="M795.5 1009.1v77.59" style="stroke:#ffaf37;stroke-width:2"/><path fill="#FFAF37" d="m795.5 1091.88 4-9-4 4-4-4 4 9z" style="stroke:#ffaf37;stroke-width:2"/><path fill="none" d="M934.87 1009.1c18.99 28.02 37.36 55.12 53.19 78.46" style="stroke:#ffaf37;stroke-width:2"/><path fill="#FFAF37" d="m990.98 1091.88-1.726-9.697-1.074 5.554-5.554-1.074 8.354 5.217z" style="stroke:#ffaf37;stroke-width:2"/><path fill="none" d="M614.44 998.19c-38.92 41.85-76.72 82.5-104.76 112.65" style="stroke:#ffaf37;stroke-width:2"/><path fill="#FFAF37" d="m505.96 1114.84 9.058-3.868-5.654.206-.205-5.653-3.199 9.315z" style="stroke:#ffaf37;stroke-width:2"/></svg>