<svg xmlns="http://www.w3.org/2000/svg" xmlns:xlink="http://www.w3.org/1999/xlink" width="1415" height="1731" preserveAspectRatio="none" style="width:1415px;height:1731px;background:#00000000"><a xlink:actuate="onRequest" xlink:href="#a" xlink:show="new" xlink:title="#resource" xlink:type="simple" target="_top"><rect id="a" width="195" height="275.836" x="525.3" y="7" fill="#3D176E" rx="2.5" ry="2.5" style="stroke:#000d19;stroke-width:1.5"/><circle cx="578.05" cy="26.895" r="11" fill="#E98DF7" style="stroke:#000d19;stroke-width:1"/><path d="M581.019 32.535q-.578.297-1.219.438-.64.156-1.344.156-2.5 0-3.828-1.64-1.312-1.657-1.312-4.782t1.312-4.781q1.328-1.656 3.828-1.656.703 0 1.344.156.656.156 1.219.453v2.719q-.625-.578-1.219-.844-.594-.281-1.219-.281-1.344 0-2.031 1.078-.688 1.062-.688 3.156 0 2.094.688 3.172.688 1.062 2.031 1.062.625 0 1.219-.265.594-.281 1.219-.86v2.72Z"/><text x="603.55" y="32.78" fill="#D9B8FF" font-family="Helvetica" font-size="17" textLength="71">resource</text><path d="M526.3 46.789h193" style="stroke:#000d19;stroke-width:1.5"/><text x="536.3" y="65.999" fill="#D9B8FF" font-family="sans-serif" font-size="11" font-weight="bold" textLength="12">id</text><text x="548.3" y="65.999" fill="#D9B8FF" font-family="sans-serif" font-size="11" textLength="41">: string</text><text x="536.3" y="88.804" fill="#D9B8FF" font-family="sans-serif" font-size="11" font-weight="bold" textLength="28">tags</text><text x="564.3" y="88.804" fill="#D9B8FF" font-family="sans-serif" font-size="11" textLength="145">: dictionary[string, string]</text><text x="536.3" y="111.609" fill="#D9B8FF" font-family="sans-serif" font-size="11" font-weight="bold" textLength="35">name</text><text x="571.3" y="111.609" fill="#D9B8FF" font-family="sans-serif" font-size="11" textLength="41">: string</text><text x="536.3" y="134.414" fill="#D9B8FF" font-family="sans-serif" font-size="11" font-weight="bold" textLength="35">ctime</text><text x="571.3" y="134.414" fill="#D9B8FF" font-family="sans-serif" font-size="11" textLength="58">: datetime</text><text x="536.3" y="157.218" fill="#D9B8FF" font-family="sans-serif" font-size="11" font-weight="bold" textLength="24">age</text><text x="560.3" y="157.218" fill="#D9B8FF" font-family="sans-serif" font-size="11" textLength="55">: duration</text><text x="536.3" y="180.023" fill="#D9B8FF" font-family="sans-serif" font-size="11" font-weight="bold" textLength="39">mtime</text><text x="575.3" y="180.023" fill="#D9B8FF" font-family="sans-serif" font-size="11" textLength="58">: datetime</text><text x="536.3" y="202.828" fill="#D9B8FF" font-family="sans-serif" font-size="11" font-weight="bold" textLength="75">last_update</text><text x="611.3" y="202.828" fill="#D9B8FF" font-family="sans-serif" font-size="11" textLength="55">: duration</text><text x="536.3" y="225.632" fill="#D9B8FF" font-family="sans-serif" font-size="11" font-weight="bold" textLength="36">atime</text><text x="572.3" y="225.632" fill="#D9B8FF" font-family="sans-serif" font-size="11" textLength="58">: datetime</text><text x="536.3" y="248.437" fill="#D9B8FF" font-family="sans-serif" font-size="11" font-weight="bold" textLength="74">last_access</text><text x="610.3" y="248.437" fill="#D9B8FF" font-family="sans-serif" font-size="11" textLength="55">: duration</text><text x="536.3" y="271.242" fill="#D9B8FF" font-family="sans-serif" font-size="11" font-weight="bold" textLength="27">kind</text><text x="563.3" y="271.242" fill="#D9B8FF" font-family="sans-serif" font-size="11" textLength="41">: string</text></a><a xlink:actuate="onRequest" xlink:href="#b" xlink:show="new" xlink:title="#aws_resource" xlink:type="simple" target="_top"><rect id="b" width="155" height="70.594" x="433.3" y="472" fill="#3D176E" rx="2.5" ry="2.5" style="stroke:#000d19;stroke-width:1.5"/><circle cx="448.3" cy="491.894" r="11" fill="#E98DF7" style="stroke:#000d19;stroke-width:1"/><path d="M451.269 497.535q-.578.297-1.219.438-.64.156-1.344.156-2.5 0-3.828-1.64-1.312-1.657-1.312-4.782t1.312-4.781q1.328-1.656 3.828-1.656.703 0 1.344.156.656.156 1.219.453v2.719q-.625-.579-1.219-.844-.594-.281-1.219-.281-1.344 0-2.031 1.078-.688 1.062-.688 3.156 0 2.094.688 3.172.688 1.062 2.031 1.062.625 0 1.219-.265.594-.281 1.219-.86v2.72Z"/><text x="467.3" y="497.78" fill="#D9B8FF" font-family="Helvetica" font-size="17" textLength="113">aws_resource</text><path d="M434.3 511.789h153" style="stroke:#000d19;stroke-width:1.5"/><text x="444.3" y="531" fill="#D9B8FF" font-family="sans-serif" font-size="11" font-weight="bold" textLength="21">arn</text><text x="465.3" y="531" fill="#D9B8FF" font-family="sans-serif" font-size="11" textLength="41">: string</text></a><a xlink:actuate="onRequest" xlink:href="#c" xlink:show="new" xlink:title="#aws_ec2_network_interface_association" xlink:type="simple" target="_top"><rect id="c" width="376" height="184.617" x="326.8" y="1540" fill="#3D176E" rx="2.5" ry="2.5" style="stroke:#000d19;stroke-width:1.5"/><circle cx="341.8" cy="1559.895" r="11" fill="#E98DF7" style="stroke:#000d19;stroke-width:1"/><path d="M344.769 1565.535q-.578.297-1.219.438-.64.156-1.344.156-2.5 0-3.828-1.64-1.312-1.657-1.312-4.782t1.312-4.781q1.328-1.656 3.828-1.656.703 0 1.344.156.656.156 1.219.453v2.719q-.625-.578-1.219-.844-.594-.281-1.219-.281-1.344 0-2.031 1.078-.688 1.062-.688 3.156 0 2.094.688 3.172.688 1.062 2.031 1.062.625 0 1.219-.265.594-.281 1.219-.86v2.72Z"/><text x="360.8" y="1565.78" fill="#D9B8FF" font-family="Helvetica" font-size="17" textLength="334">aws_ec2_network_interface_association</text><path d="M327.8 1579.789h374" style="stroke:#000d19;stroke-width:1.5"/><text x="337.8" y="1598.999" fill="#D9B8FF" font-family="sans-serif" font-size="11" font-weight="bold" textLength="82">allocation_id</text><text x="419.8" y="1598.999" fill="#D9B8FF" font-family="sans-serif" font-size="11" textLength="41">: string</text><text x="337.8" y="1621.804" fill="#D9B8FF" font-family="sans-serif" font-size="11" font-weight="bold" textLength="92">association_id</text><text x="429.8" y="1621.804" fill="#D9B8FF" font-family="sans-serif" font-size="11" textLength="41">: string</text><text x="337.8" y="1644.609" fill="#D9B8FF" font-family="sans-serif" font-size="11" font-weight="bold" textLength="109">public_dns_name</text><text x="446.8" y="1644.609" fill="#D9B8FF" font-family="sans-serif" font-size="11" textLength="41">: string</text><text x="337.8" y="1667.414" fill="#D9B8FF" font-family="sans-serif" font-size="11" font-weight="bold" textLength="57">public_ip</text><text x="394.8" y="1667.414" fill="#D9B8FF" font-family="sans-serif" font-size="11" textLength="41">: string</text><text x="337.8" y="1690.218" fill="#D9B8FF" font-family="sans-serif" font-size="11" font-weight="bold" textLength="126">customer_owned_ip</text><text x="463.8" y="1690.218" fill="#D9B8FF" font-family="sans-serif" font-size="11" textLength="41">: string</text><text x="337.8" y="1713.023" fill="#D9B8FF" font-family="sans-serif" font-size="11" font-weight="bold" textLength="60">carrier_ip</text><text x="397.8" y="1713.023" fill="#D9B8FF" font-family="sans-serif" font-size="11" textLength="41">: string</text></a><a xlink:actuate="onRequest" xlink:href="#d" xlink:show="new" xlink:title="#aws_ec2_network_interface" xlink:type="simple" target="_top"><rect id="d" width="468" height="481.078" x="388.8" y="732" fill="#3D176E" rx="2.5" ry="2.5" style="stroke:#000d19;stroke-width:1.5"/><circle cx="497.05" cy="751.894" r="11" fill="#E98DF7" style="stroke:#000d19;stroke-width:1"/><path d="M500.019 757.535q-.578.297-1.219.438-.64.156-1.344.156-2.5 0-3.828-1.64-1.312-1.657-1.312-4.782t1.312-4.781q1.328-1.657 3.828-1.657.703 0 1.344.157.656.156 1.219.453v2.719q-.625-.578-1.219-.844-.594-.281-1.219-.281-1.344 0-2.031 1.078-.688 1.062-.688 3.156 0 2.094.688 3.172.688 1.062 2.031 1.062.625 0 1.219-.265.594-.282 1.219-.86v2.72Z"/><text x="522.55" y="757.78" fill="#D9B8FF" font-family="Helvetica" font-size="17" textLength="233">aws_ec2_network_interface</text><path d="M389.8 771.789h466" style="stroke:#000d19;stroke-width:1.5"/><text x="399.8" y="791" fill="#D9B8FF" font-family="sans-serif" font-size="11" font-weight="bold" textLength="21">arn</text><text x="420.8" y="791" fill="#D9B8FF" font-family="sans-serif" font-size="11" textLength="41">: string</text><text x="399.8" y="813.804" fill="#D9B8FF" font-family="sans-serif" font-size="11" font-weight="bold" textLength="99">nic_association</text><text x="498.8" y="813.804" fill="#D9B8FF" font-family="sans-serif" font-size="11" textLength="235">: aws_ec2_network_interface_association</text><text x="399.8" y="836.609" fill="#D9B8FF" font-family="sans-serif" font-size="11" font-weight="bold" textLength="98">nic_attachment</text><text x="497.8" y="836.609" fill="#D9B8FF" font-family="sans-serif" font-size="11" textLength="234">: aws_ec2_network_interface_attachment</text><text x="399.8" y="859.414" fill="#D9B8FF" font-family="sans-serif" font-size="11" font-weight="bold" textLength="133">nic_availability_zone</text><text x="532.8" y="859.414" fill="#D9B8FF" font-family="sans-serif" font-size="11" textLength="41">: string</text><text x="399.8" y="882.218" fill="#D9B8FF" font-family="sans-serif" font-size="11" font-weight="bold" textLength="69">nic_groups</text><text x="468.8" y="882.218" fill="#D9B8FF" font-family="sans-serif" font-size="11" textLength="160">: aws_ec2_group_identifier[]</text><text x="399.8" y="905.023" fill="#D9B8FF" font-family="sans-serif" font-size="11" font-weight="bold" textLength="101">nic_outpost_arn</text><text x="500.8" y="905.023" fill="#D9B8FF" font-family="sans-serif" font-size="11" textLength="41">: string</text><text x="399.8" y="927.828" fill="#D9B8FF" font-family="sans-serif" font-size="11" font-weight="bold" textLength="140">nic_private_dns_name</text><text x="539.8" y="927.828" fill="#D9B8FF" font-family="sans-serif" font-size="11" textLength="41">: string</text><text x="399.8" y="950.632" fill="#D9B8FF" font-family="sans-serif" font-size="11" font-weight="bold" textLength="145">nic_private_ip_address</text><text x="544.8" y="950.632" fill="#D9B8FF" font-family="sans-serif" font-size="11" textLength="41">: string</text><text x="399.8" y="973.437" fill="#D9B8FF" font-family="sans-serif" font-size="11" font-weight="bold" textLength="160">nic_private_ip_addresses</text><text x="559.8" y="973.437" fill="#D9B8FF" font-family="sans-serif" font-size="11" textLength="286">: aws_ec2_network_interface_private_ip_address[]</text><text x="399.8" y="996.242" fill="#D9B8FF" font-family="sans-serif" font-size="11" font-weight="bold" textLength="110">nic_ipv4_prefixes</text><text x="509.8" y="996.242" fill="#D9B8FF" font-family="sans-serif" font-size="11" textLength="49">: string[]</text><text x="399.8" y="1019.046" fill="#D9B8FF" font-family="sans-serif" font-size="11" font-weight="bold" textLength="110">nic_ipv6_prefixes</text><text x="509.8" y="1019.046" fill="#D9B8FF" font-family="sans-serif" font-size="11" textLength="49">: string[]</text><text x="399.8" y="1041.851" fill="#D9B8FF" font-family="sans-serif" font-size="11" font-weight="bold" textLength="105">nic_requester_id</text><text x="504.8" y="1041.851" fill="#D9B8FF" font-family="sans-serif" font-size="11" textLength="41">: string</text><text x="399.8" y="1064.656" fill="#D9B8FF" font-family="sans-serif" font-size="11" font-weight="bold" textLength="152">nic_requester_managed</text><text x="551.8" y="1064.656" fill="#D9B8FF" font-family="sans-serif" font-size="11" textLength="53">: boolean</text><text x="399.8" y="1087.46" fill="#D9B8FF" font-family="sans-serif" font-size="11" font-weight="bold" textLength="145">nic_source_dest_check</text><text x="544.8" y="1087.46" fill="#D9B8FF" font-family="sans-serif" font-size="11" textLength="53">: boolean</text><text x="399.8" y="1110.265" fill="#D9B8FF" font-family="sans-serif" font-size="11" font-weight="bold" textLength="87">nic_subnet_id</text><text x="486.8" y="1110.265" fill="#D9B8FF" font-family="sans-serif" font-size="11" textLength="41">: string</text><text x="399.8" y="1133.07" fill="#D9B8FF" font-family="sans-serif" font-size="11" font-weight="bold" textLength="72">nic_tag_set</text><text x="471.8" y="1133.07" fill="#D9B8FF" font-family="sans-serif" font-size="11" textLength="89">: aws_ec2_tag[]</text><text x="399.8" y="1155.874" fill="#D9B8FF" font-family="sans-serif" font-size="11" font-weight="bold" textLength="152">nic_deny_all_igw_traffic</text><text x="551.8" y="1155.874" fill="#D9B8FF" font-family="sans-serif" font-size="11" textLength="53">: boolean</text><text x="399.8" y="1178.679" fill="#D9B8FF" font-family="sans-serif" font-size="11" font-weight="bold" textLength="98">nic_ipv6_native</text><text x="497.8" y="1178.679" fill="#D9B8FF" font-family="sans-serif" font-size="11" textLength="53">: boolean</text><text x="399.8" y="1201.484" fill="#D9B8FF" font-family="sans-serif" font-size="11" font-weight="bold" textLength="109">nic_ipv6_address</text><text x="508.8" y="1201.484" fill="#D9B8FF" font-family="sans-serif" font-size="11" textLength="41">: string</text></a><a xlink:actuate="onRequest" xlink:href="#e" xlink:show="new" xlink:title="#network_interface" xlink:type="simple" target="_top"><rect id="e" width="225" height="207.422" x="623.3" y="404" fill="#3D176E" rx="2.5" ry="2.5" style="stroke:#000d19;stroke-width:1.5"/><circle cx="651.8" cy="423.894" r="11" fill="#E98DF7" style="stroke:#000d19;stroke-width:1"/><path d="M654.769 429.535q-.578.297-1.219.438-.64.156-1.344.156-2.5 0-3.828-1.64-1.312-1.657-1.312-4.782t1.312-4.781q1.328-1.656 3.828-1.656.703 0 1.344.156.656.156 1.219.453v2.719q-.625-.579-1.219-.844-.594-.281-1.219-.281-1.344 0-2.031 1.078-.688 1.062-.688 3.156 0 2.094.688 3.172.688 1.062 2.031 1.062.625 0 1.219-.265.594-.281 1.219-.86v2.72Z"/><text x="673.8" y="429.78" fill="#D9B8FF" font-family="Helvetica" font-size="17" textLength="153">network_interface</text><path d="M624.3 443.789h223" style="stroke:#000d19;stroke-width:1.5"/><text x="634.3" y="463" fill="#D9B8FF" font-family="sans-serif" font-size="11" font-weight="bold" textLength="162">network_interface_status</text><text x="796.3" y="463" fill="#D9B8FF" font-family="sans-serif" font-size="11" textLength="41">: string</text><text x="634.3" y="485.804" fill="#D9B8FF" font-family="sans-serif" font-size="11" font-weight="bold" textLength="150">network_interface_type</text><text x="784.3" y="485.804" fill="#D9B8FF" font-family="sans-serif" font-size="11" textLength="41">: string</text><text x="634.3" y="508.609" fill="#D9B8FF" font-family="sans-serif" font-size="11" font-weight="bold" textLength="26">mac</text><text x="660.3" y="508.609" fill="#D9B8FF" font-family="sans-serif" font-size="11" textLength="41">: string</text><text x="634.3" y="531.414" fill="#D9B8FF" font-family="sans-serif" font-size="11" font-weight="bold" textLength="70">private_ips</text><text x="704.3" y="531.414" fill="#D9B8FF" font-family="sans-serif" font-size="11" textLength="49">: string[]</text><text x="634.3" y="554.218" fill="#D9B8FF" font-family="sans-serif" font-size="11" font-weight="bold" textLength="64">public_ips</text><text x="698.3" y="554.218" fill="#D9B8FF" font-family="sans-serif" font-size="11" textLength="49">: string[]</text><text x="634.3" y="577.023" fill="#D9B8FF" font-family="sans-serif" font-size="11" font-weight="bold" textLength="40">v6_ips</text><text x="674.3" y="577.023" fill="#D9B8FF" font-family="sans-serif" font-size="11" textLength="49">: string[]</text><text x="634.3" y="599.828" fill="#D9B8FF" font-family="sans-serif" font-size="11" font-weight="bold" textLength="72">description</text><text x="706.3" y="599.828" fill="#D9B8FF" font-family="sans-serif" font-size="11" textLength="41">: string</text></a><a xlink:actuate="onRequest" xlink:href="#f" xlink:show="new" xlink:title="#aws_ec2_network_interface_attachment" xlink:type="simple" target="_top"><rect id="f" width="382" height="207.422" x="77.8" y="1273" fill="#3D176E" rx="2.5" ry="2.5" style="stroke:#000d19;stroke-width:1.5"/><circle cx="92.8" cy="1292.895" r="11" fill="#E98DF7" style="stroke:#000d19;stroke-width:1"/><path d="M95.769 1298.535q-.578.297-1.219.438-.64.156-1.344.156-2.5 0-3.828-1.64-1.312-1.657-1.312-4.782t1.312-4.781q1.328-1.656 3.828-1.656.703 0 1.344.156.656.156 1.219.453v2.719q-.625-.578-1.219-.844-.594-.281-1.219-.281-1.344 0-2.031 1.078-.688 1.062-.688 3.156 0 2.094.688 3.172.688 1.062 2.031 1.062.625 0 1.219-.265.594-.281 1.219-.86v2.72Z"/><text x="111.8" y="1298.78" fill="#D9B8FF" font-family="Helvetica" font-size="17" textLength="340">aws_ec2_network_interface_attachment</text><path d="M78.8 1312.789h380" style="stroke:#000d19;stroke-width:1.5"/><text x="88.8" y="1331.999" fill="#D9B8FF" font-family="sans-serif" font-size="11" font-weight="bold" textLength="75">attach_time</text><text x="163.8" y="1331.999" fill="#D9B8FF" font-family="sans-serif" font-size="11" textLength="58">: datetime</text><text x="88.8" y="1354.804" fill="#D9B8FF" font-family="sans-serif" font-size="11" font-weight="bold" textLength="91">attachment_id</text><text x="179.8" y="1354.804" fill="#D9B8FF" font-family="sans-serif" font-size="11" textLength="41">: string</text><text x="88.8" y="1377.609" fill="#D9B8FF" font-family="sans-serif" font-size="11" font-weight="bold" textLength="143">delete_on_termination</text><text x="231.8" y="1377.609" fill="#D9B8FF" font-family="sans-serif" font-size="11" textLength="53">: boolean</text><text x="88.8" y="1400.414" fill="#D9B8FF" font-family="sans-serif" font-size="11" font-weight="bold" textLength="83">device_index</text><text x="171.8" y="1400.414" fill="#D9B8FF" font-family="sans-serif" font-size="11" textLength="36">: int64</text><text x="88.8" y="1423.218" fill="#D9B8FF" font-family="sans-serif" font-size="11" font-weight="bold" textLength="127">network_card_index</text><text x="215.8" y="1423.218" fill="#D9B8FF" font-family="sans-serif" font-size="11" textLength="36">: int64</text><text x="88.8" y="1446.023" fill="#D9B8FF" font-family="sans-serif" font-size="11" font-weight="bold" textLength="73">instance_id</text><text x="161.8" y="1446.023" fill="#D9B8FF" font-family="sans-serif" font-size="11" textLength="41">: string</text><text x="88.8" y="1468.828" fill="#D9B8FF" font-family="sans-serif" font-size="11" font-weight="bold" textLength="40">status</text><text x="128.8" y="1468.828" fill="#D9B8FF" font-family="sans-serif" font-size="11" textLength="41">: string</text></a><a xlink:actuate="onRequest" xlink:href="#g" xlink:show="new" xlink:title="#aws_ec2_group_identifier" xlink:type="simple" target="_top"><rect id="g" width="255" height="93.398" x="495.3" y="1330" fill="#3D176E" rx="2.5" ry="2.5" style="stroke:#000d19;stroke-width:1.5"/><circle cx="510.3" cy="1349.895" r="11" fill="#E98DF7" style="stroke:#000d19;stroke-width:1"/><path d="M513.269 1355.535q-.578.297-1.219.438-.64.156-1.344.156-2.5 0-3.828-1.64-1.312-1.657-1.312-4.782t1.312-4.781q1.328-1.656 3.828-1.656.703 0 1.344.156.656.156 1.219.453v2.719q-.625-.578-1.219-.844-.594-.281-1.219-.281-1.344 0-2.031 1.078-.688 1.062-.688 3.156 0 2.094.688 3.172.688 1.062 2.031 1.062.625 0 1.219-.265.594-.281 1.219-.86v2.72Z"/><text x="529.3" y="1355.78" fill="#D9B8FF" font-family="Helvetica" font-size="17" textLength="213">aws_ec2_group_identifier</text><path d="M496.3 1369.789h253" style="stroke:#000d19;stroke-width:1.5"/><text x="506.3" y="1388.999" fill="#D9B8FF" font-family="sans-serif" font-size="11" font-weight="bold" textLength="78">group_name</text><text x="584.3" y="1388.999" fill="#D9B8FF" font-family="sans-serif" font-size="11" textLength="41">: string</text><text x="506.3" y="1411.804" fill="#D9B8FF" font-family="sans-serif" font-size="11" font-weight="bold" textLength="55">group_id</text><text x="561.3" y="1411.804" fill="#D9B8FF" font-family="sans-serif" font-size="11" textLength="41">: string</text></a><a xlink:actuate="onRequest" xlink:href="#h" xlink:show="new" xlink:title="#aws_ec2_network_interface_private_ip_address" xlink:type="simple" target="_top"><rect id="h" width="439" height="139.008" x="785.3" y="1307" fill="#3D176E" rx="2.5" ry="2.5" style="stroke:#000d19;stroke-width:1.5"/><circle cx="800.3" cy="1326.895" r="11" fill="#E98DF7" style="stroke:#000d19;stroke-width:1"/><path d="M803.269 1332.535q-.578.297-1.219.438-.64.156-1.344.156-2.5 0-3.828-1.64-1.312-1.657-1.312-4.782t1.312-4.781q1.328-1.656 3.828-1.656.703 0 1.344.156.656.156 1.219.453v2.719q-.625-.578-1.219-.844-.594-.281-1.219-.281-1.344 0-2.031 1.078-.688 1.062-.688 3.156 0 2.094.688 3.172.688 1.062 2.031 1.062.625 0 1.219-.265.594-.281 1.219-.86v2.72Z"/><text x="819.3" y="1332.78" fill="#D9B8FF" font-family="Helvetica" font-size="17" textLength="397">aws_ec2_network_interface_private_ip_address</text><path d="M786.3 1346.789h437" style="stroke:#000d19;stroke-width:1.5"/><text x="796.3" y="1365.999" fill="#D9B8FF" font-family="sans-serif" font-size="11" font-weight="bold" textLength="74">association</text><text x="870.3" y="1365.999" fill="#D9B8FF" font-family="sans-serif" font-size="11" textLength="235">: aws_ec2_network_interface_association</text><text x="796.3" y="1388.804" fill="#D9B8FF" font-family="sans-serif" font-size="11" font-weight="bold" textLength="48">primary</text><text x="844.3" y="1388.804" fill="#D9B8FF" font-family="sans-serif" font-size="11" textLength="53">: boolean</text><text x="796.3" y="1411.609" fill="#D9B8FF" font-family="sans-serif" font-size="11" font-weight="bold" textLength="115">private_dns_name</text><text x="911.3" y="1411.609" fill="#D9B8FF" font-family="sans-serif" font-size="11" textLength="41">: string</text><text x="796.3" y="1434.414" fill="#D9B8FF" font-family="sans-serif" font-size="11" font-weight="bold" textLength="120">private_ip_address</text><text x="916.3" y="1434.414" fill="#D9B8FF" font-family="sans-serif" font-size="11" textLength="41">: string</text></a><a xlink:actuate="onRequest" xlink:href="#i" xlink:show="new" xlink:title="#aws_ec2_tag" xlink:type="simple" target="_top"><rect id="i" width="149" height="93.398" x="1259.3" y="1330" fill="#3D176E" rx="2.5" ry="2.5" style="stroke:#000d19;stroke-width:1.5"/><circle cx="1274.3" cy="1349.895" r="11" fill="#E98DF7" style="stroke:#000d19;stroke-width:1"/><path d="M1277.269 1355.535q-.578.297-1.219.438-.64.156-1.344.156-2.5 0-3.828-1.64-1.312-1.657-1.312-4.782t1.312-4.781q1.328-1.656 3.828-1.656.703 0 1.344.156.656.156 1.219.453v2.719q-.625-.578-1.219-.844-.594-.281-1.219-.281-1.343 0-2.031 1.078-.688 1.062-.688 3.156 0 2.094.688 3.172.688 1.062 2.031 1.062.625 0 1.219-.265.594-.281 1.219-.86v2.72Z"/><text x="1293.3" y="1355.78" fill="#D9B8FF" font-family="Helvetica" font-size="17" textLength="107">aws_ec2_tag</text><path d="M1260.3 1369.789h147" style="stroke:#000d19;stroke-width:1.5"/><text x="1270.3" y="1388.999" fill="#D9B8FF" font-family="sans-serif" font-size="11" font-weight="bold" textLength="22">key</text><text x="1292.3" y="1388.999" fill="#D9B8FF" font-family="sans-serif" font-size="11" textLength="41">: string</text><text x="1270.3" y="1411.804" fill="#D9B8FF" font-family="sans-serif" font-size="11" font-weight="bold" textLength="35">value</text><text x="1305.3" y="1411.804" fill="#D9B8FF" font-family="sans-serif" font-size="11" textLength="41">: string</text></a><path fill="none" d="M574.19 302.46c-19.58 63.04-40.39 130.03-52.62 169.4M567.6 300.08l12.62-17.02.75 21.18-13.37-4.16zM523.95 562.85c10.33 42.7 25.49 105.38 40.86 168.89M517.12 564.39l2.1-21.09 11.51 17.79-13.61 3.3zM705.97 630.75c-7.63 31.26-16.1 65.97-24.64 100.93M699.18 629.02l11.55-17.77 2.05 21.09-13.6-3.32zM388.48 1034.92c-120.7 44.82-257.2 119.09-328.68 238.08-47.37 78.86-53.8 132.37 0 207 59.68 82.77 166.5 121.01 261.65 138.39" style="stroke:#ffaf37;stroke-width:2"/><path fill="#FFAF37" d="m326.54 1619.3-8.148-5.533 3.227 4.646-4.646 3.227 9.567-2.34z" style="stroke:#ffaf37;stroke-width:2"/><path fill="none" d="M411.77 1213.15c-16.93 19.23-33.43 37.96-48.85 55.47" style="stroke:#ffaf37;stroke-width:2"/><path fill="#FFAF37" d="m359.44 1272.57 8.953-4.103-5.645.353-.354-5.645-2.954 9.395z" style="stroke:#ffaf37;stroke-width:2"/><path fill="none" d="M622.8 1213.15v111.52" style="stroke:#ffaf37;stroke-width:2"/><path fill="#FFAF37" d="m622.8 1329.71 4-9-4 4-4-4 4 9z" style="stroke:#ffaf37;stroke-width:2"/><path fill="none" d="M850.53 1213.15c30.92 32.53 60.5 63.66 85.34 89.8" style="stroke:#ffaf37;stroke-width:2"/><path fill="#FFAF37" d="m939.5 1306.77-3.293-9.282-.149 5.655-5.654-.149 9.096 3.776z" style="stroke:#ffaf37;stroke-width:2"/><path fill="none" d="M856.9 1061.17c121.28 51.55 268.04 123.91 384.9 211.83 19.9 14.97 38.83 34.72 54.29 52.88" style="stroke:#ffaf37;stroke-width:2"/><path fill="#FFAF37" d="m1299.54 1329.97-2.762-9.454-.468 5.638-5.638-.47 8.868 4.286z" style="stroke:#ffaf37;stroke-width:2"/><path fill="none" d="M671.87 302.53c10.76 34.32 21.88 69.81 31.77 101.37M665.07 304.24l.7-21.18 12.66 16.99-13.36 4.19zM872.53 1446.07c-54.29 28.14-118.01 61.17-176.52 91.5" style="stroke:#ffaf37;stroke-width:2"/><path fill="#FFAF37" d="m691.45 1539.93 9.83-.598-5.393-1.707 1.707-5.393-6.144 7.698z" style="stroke:#ffaf37;stroke-width:2"/></svg>