<svg xmlns="http://www.w3.org/2000/svg" xmlns:xlink="http://www.w3.org/1999/xlink" width="4124" height="1618" preserveAspectRatio="none" style="width:4124px;height:1618px;background:#00000000"><a xlink:actuate="onRequest" xlink:href="#a" xlink:show="new" xlink:title="#resource" xlink:type="simple" target="_top"><rect id="a" width="195" height="275.836" x="2041" y="7" fill="#3D176E" rx="2.5" ry="2.5" style="stroke:#000d19;stroke-width:1.5"/><circle cx="2093.75" cy="26.895" r="11" fill="#E98DF7" style="stroke:#000d19;stroke-width:1"/><path d="M2096.719 32.535q-.578.297-1.219.438-.64.156-1.344.156-2.5 0-3.828-1.64-1.312-1.657-1.312-4.782t1.312-4.781q1.328-1.656 3.828-1.656.703 0 1.344.156.656.156 1.219.453v2.719q-.625-.578-1.219-.844-.594-.281-1.219-.281-1.343 0-2.031 1.078-.688 1.062-.688 3.156 0 2.094.688 3.172.688 1.062 2.031 1.062.625 0 1.219-.265.594-.281 1.219-.86v2.72Z"/><text x="2119.25" y="32.78" fill="#D9B8FF" font-family="Helvetica" font-size="17" textLength="71">resource</text><path d="M2042 46.789h193" style="stroke:#000d19;stroke-width:1.5"/><text x="2052" y="65.999" fill="#D9B8FF" font-family="sans-serif" font-size="11" font-weight="bold" textLength="12">id</text><text x="2064" y="65.999" fill="#D9B8FF" font-family="sans-serif" font-size="11" textLength="41">: string</text><text x="2052" y="88.804" fill="#D9B8FF" font-family="sans-serif" font-size="11" font-weight="bold" textLength="28">tags</text><text x="2080" y="88.804" fill="#D9B8FF" font-family="sans-serif" font-size="11" textLength="145">: dictionary[string, string]</text><text x="2052" y="111.609" fill="#D9B8FF" font-family="sans-serif" font-size="11" font-weight="bold" textLength="35">name</text><text x="2087" y="111.609" fill="#D9B8FF" font-family="sans-serif" font-size="11" textLength="41">: string</text><text x="2052" y="134.414" fill="#D9B8FF" font-family="sans-serif" font-size="11" font-weight="bold" textLength="35">ctime</text><text x="2087" y="134.414" fill="#D9B8FF" font-family="sans-serif" font-size="11" textLength="58">: datetime</text><text x="2052" y="157.218" fill="#D9B8FF" font-family="sans-serif" font-size="11" font-weight="bold" textLength="24">age</text><text x="2076" y="157.218" fill="#D9B8FF" font-family="sans-serif" font-size="11" textLength="55">: duration</text><text x="2052" y="180.023" fill="#D9B8FF" font-family="sans-serif" font-size="11" font-weight="bold" textLength="39">mtime</text><text x="2091" y="180.023" fill="#D9B8FF" font-family="sans-serif" font-size="11" textLength="58">: datetime</text><text x="2052" y="202.828" fill="#D9B8FF" font-family="sans-serif" font-size="11" font-weight="bold" textLength="75">last_update</text><text x="2127" y="202.828" fill="#D9B8FF" font-family="sans-serif" font-size="11" textLength="55">: duration</text><text x="2052" y="225.632" fill="#D9B8FF" font-family="sans-serif" font-size="11" font-weight="bold" textLength="36">atime</text><text x="2088" y="225.632" fill="#D9B8FF" font-family="sans-serif" font-size="11" textLength="58">: datetime</text><text x="2052" y="248.437" fill="#D9B8FF" font-family="sans-serif" font-size="11" font-weight="bold" textLength="74">last_access</text><text x="2126" y="248.437" fill="#D9B8FF" font-family="sans-serif" font-size="11" textLength="55">: duration</text><text x="2052" y="271.242" fill="#D9B8FF" font-family="sans-serif" font-size="11" font-weight="bold" textLength="27">kind</text><text x="2079" y="271.242" fill="#D9B8FF" font-family="sans-serif" font-size="11" textLength="41">: string</text></a><a xlink:actuate="onRequest" xlink:href="#b" xlink:show="new" xlink:title="#aws_dynamo_db_stream_specification" xlink:type="simple" target="_top"><rect id="b" width="361" height="93.398" x="7" y="1217" fill="#3D176E" rx="2.5" ry="2.5" style="stroke:#000d19;stroke-width:1.5"/><circle cx="22" cy="1236.895" r="11" fill="#E98DF7" style="stroke:#000d19;stroke-width:1"/><path d="M24.969 1242.535q-.578.297-1.219.438-.64.156-1.344.156-2.5 0-3.828-1.64-1.312-1.657-1.312-4.782t1.312-4.781q1.328-1.656 3.828-1.656.703 0 1.344.156.656.156 1.219.453v2.719q-.625-.578-1.219-.844-.594-.281-1.219-.281-1.343 0-2.031 1.078-.688 1.062-.688 3.156 0 2.094.688 3.172.688 1.062 2.031 1.062.625 0 1.219-.265.594-.281 1.219-.86v2.72Z"/><text x="41" y="1242.78" fill="#D9B8FF" font-family="Helvetica" font-size="17" textLength="319">aws_dynamo_db_stream_specification</text><path d="M8 1256.789h359" style="stroke:#000d19;stroke-width:1.5"/><text x="18" y="1275.999" fill="#D9B8FF" font-family="sans-serif" font-size="11" font-weight="bold" textLength="102">stream_enabled</text><text x="120" y="1275.999" fill="#D9B8FF" font-family="sans-serif" font-size="11" textLength="53">: boolean</text><text x="18" y="1298.804" fill="#D9B8FF" font-family="sans-serif" font-size="11" font-weight="bold" textLength="114">stream_view_type</text><text x="132" y="1298.804" fill="#D9B8FF" font-family="sans-serif" font-size="11" textLength="41">: string</text></a><a xlink:actuate="onRequest" xlink:href="#c" xlink:show="new" xlink:title="#aws_resource" xlink:type="simple" target="_top"><rect id="c" width="155" height="70.594" x="2061" y="404" fill="#3D176E" rx="2.5" ry="2.5" style="stroke:#000d19;stroke-width:1.5"/><circle cx="2076" cy="423.894" r="11" fill="#E98DF7" style="stroke:#000d19;stroke-width:1"/><path d="M2078.969 429.535q-.578.297-1.219.438-.64.156-1.344.156-2.5 0-3.828-1.64-1.312-1.657-1.312-4.782t1.312-4.781q1.328-1.656 3.828-1.656.703 0 1.344.156.656.156 1.219.453v2.719q-.625-.579-1.219-.844-.594-.281-1.219-.281-1.343 0-2.031 1.078-.688 1.062-.688 3.156 0 2.094.688 3.172.688 1.062 2.031 1.062.625 0 1.219-.265.594-.281 1.219-.86v2.72Z"/><text x="2095" y="429.78" fill="#D9B8FF" font-family="Helvetica" font-size="17" textLength="113">aws_resource</text><path d="M2062 443.789h153" style="stroke:#000d19;stroke-width:1.5"/><text x="2072" y="463" fill="#D9B8FF" font-family="sans-serif" font-size="11" font-weight="bold" textLength="21">arn</text><text x="2093" y="463" fill="#D9B8FF" font-family="sans-serif" font-size="11" textLength="41">: string</text></a><a xlink:actuate="onRequest" xlink:href="#d" xlink:show="new" xlink:title="#aws_dynamo_db_restore_summary" xlink:type="simple" target="_top"><rect id="d" width="338" height="139.008" x="402.5" y="1194" fill="#3D176E" rx="2.5" ry="2.5" style="stroke:#000d19;stroke-width:1.5"/><circle cx="417.5" cy="1213.895" r="11" fill="#E98DF7" style="stroke:#000d19;stroke-width:1"/><path d="M420.469 1219.535q-.578.297-1.219.438-.64.156-1.344.156-2.5 0-3.828-1.64-1.312-1.657-1.312-4.782t1.312-4.781q1.328-1.656 3.828-1.656.703 0 1.344.156.656.156 1.219.453v2.719q-.625-.578-1.219-.844-.594-.281-1.219-.281-1.344 0-2.031 1.078-.688 1.062-.688 3.156 0 2.094.688 3.172.688 1.062 2.031 1.062.625 0 1.219-.265.594-.281 1.219-.86v2.72Z"/><text x="436.5" y="1219.78" fill="#D9B8FF" font-family="Helvetica" font-size="17" textLength="296">aws_dynamo_db_restore_summary</text><path d="M403.5 1233.789h336" style="stroke:#000d19;stroke-width:1.5"/><text x="413.5" y="1252.999" fill="#D9B8FF" font-family="sans-serif" font-size="11" font-weight="bold" textLength="122">source_backup_arn</text><text x="535.5" y="1252.999" fill="#D9B8FF" font-family="sans-serif" font-size="11" textLength="41">: string</text><text x="413.5" y="1275.804" fill="#D9B8FF" font-family="sans-serif" font-size="11" font-weight="bold" textLength="109">source_table_arn</text><text x="522.5" y="1275.804" fill="#D9B8FF" font-family="sans-serif" font-size="11" textLength="41">: string</text><text x="413.5" y="1298.609" fill="#D9B8FF" font-family="sans-serif" font-size="11" font-weight="bold" textLength="115">restore_date_time</text><text x="528.5" y="1298.609" fill="#D9B8FF" font-family="sans-serif" font-size="11" textLength="58">: datetime</text><text x="413.5" y="1321.414" fill="#D9B8FF" font-family="sans-serif" font-size="11" font-weight="bold" textLength="126">restore_in_progress</text><text x="539.5" y="1321.414" fill="#D9B8FF" font-family="sans-serif" font-size="11" textLength="53">: boolean</text></a><a xlink:actuate="onRequest" xlink:href="#e" xlink:show="new" xlink:title="#aws_dynamo_db_replica_global_secondary_index_description" xlink:type="simple" target="_top"><rect id="e" width="552" height="93.398" x="2791.5" y="1484.5" fill="#3D176E" rx="2.5" ry="2.5" style="stroke:#000d19;stroke-width:1.5"/><circle cx="2806.5" cy="1504.395" r="11" fill="#E98DF7" style="stroke:#000d19;stroke-width:1"/><path d="M2809.469 1510.035q-.578.297-1.219.438-.64.156-1.344.156-2.5 0-3.828-1.64-1.312-1.657-1.312-4.782t1.312-4.781q1.328-1.656 3.828-1.656.703 0 1.344.156.656.156 1.219.453v2.719q-.625-.578-1.219-.844-.594-.281-1.219-.281-1.343 0-2.031 1.078-.688 1.062-.688 3.156 0 2.094.688 3.172.688 1.062 2.031 1.062.625 0 1.219-.265.594-.281 1.219-.86v2.72Z"/><text x="2825.5" y="1510.28" fill="#D9B8FF" font-family="Helvetica" font-size="17" textLength="510">aws_dynamo_db_replica_global_secondary_index_description</text><path d="M2792.5 1524.289h550" style="stroke:#000d19;stroke-width:1.5"/><text x="2802.5" y="1543.499" fill="#D9B8FF" font-family="sans-serif" font-size="11" font-weight="bold" textLength="76">index_name</text><text x="2878.5" y="1543.499" fill="#D9B8FF" font-family="sans-serif" font-size="11" textLength="41">: string</text><text x="2802.5" y="1566.304" fill="#D9B8FF" font-family="sans-serif" font-size="11" font-weight="bold" textLength="211">provisioned_throughput_override</text><text x="3013.5" y="1566.304" fill="#D9B8FF" font-family="sans-serif" font-size="11" textLength="36">: int64</text></a><a xlink:actuate="onRequest" xlink:href="#f" xlink:show="new" xlink:title="#aws_dynamo_db_attribute_definition" xlink:type="simple" target="_top"><rect id="f" width="353" height="93.398" x="776" y="1217" fill="#3D176E" rx="2.5" ry="2.5" style="stroke:#000d19;stroke-width:1.5"/><circle cx="791" cy="1236.895" r="11" fill="#E98DF7" style="stroke:#000d19;stroke-width:1"/><path d="M793.969 1242.535q-.578.297-1.219.438-.64.156-1.344.156-2.5 0-3.828-1.64-1.312-1.657-1.312-4.782t1.312-4.781q1.328-1.656 3.828-1.656.703 0 1.344.156.656.156 1.219.453v2.719q-.625-.578-1.219-.844-.594-.281-1.219-.281-1.343 0-2.031 1.078-.688 1.062-.688 3.156 0 2.094.688 3.172.688 1.062 2.031 1.062.625 0 1.219-.265.594-.281 1.219-.86v2.72Z"/><text x="810" y="1242.78" fill="#D9B8FF" font-family="Helvetica" font-size="17" textLength="311">aws_dynamo_db_attribute_definition</text><path d="M777 1256.789h351" style="stroke:#000d19;stroke-width:1.5"/><text x="787" y="1275.999" fill="#D9B8FF" font-family="sans-serif" font-size="11" font-weight="bold" textLength="97">attribute_name</text><text x="884" y="1275.999" fill="#D9B8FF" font-family="sans-serif" font-size="11" textLength="41">: string</text><text x="787" y="1298.804" fill="#D9B8FF" font-family="sans-serif" font-size="11" font-weight="bold" textLength="90">attribute_type</text><text x="877" y="1298.804" fill="#D9B8FF" font-family="sans-serif" font-size="11" textLength="41">: string</text></a><a xlink:actuate="onRequest" xlink:href="#g" xlink:show="new" xlink:title="#aws_dynamo_db_table" xlink:type="simple" target="_top"><rect id="g" width="582" height="481.078" x="1847.5" y="596" fill="#3D176E" rx="2.5" ry="2.5" style="stroke:#000d19;stroke-width:1.5"/><circle cx="2034.25" cy="615.894" r="11" fill="#E98DF7" style="stroke:#000d19;stroke-width:1"/><path d="M2037.219 621.535q-.578.297-1.219.438-.64.156-1.344.156-2.5 0-3.828-1.64-1.312-1.657-1.312-4.782t1.312-4.781q1.328-1.657 3.828-1.657.703 0 1.344.157.656.156 1.219.453v2.719q-.625-.578-1.219-.844-.594-.281-1.219-.281-1.343 0-2.031 1.078-.688 1.062-.688 3.156 0 2.094.688 3.172.688 1.062 2.031 1.062.625 0 1.219-.265.594-.282 1.219-.86v2.72Z"/><text x="2059.75" y="621.78" fill="#D9B8FF" font-family="Helvetica" font-size="17" textLength="190">aws_dynamo_db_table</text><path d="M1848.5 635.789h580" style="stroke:#000d19;stroke-width:1.5"/><text x="1858.5" y="655" fill="#D9B8FF" font-family="sans-serif" font-size="11" font-weight="bold" textLength="21">arn</text><text x="1879.5" y="655" fill="#D9B8FF" font-family="sans-serif" font-size="11" textLength="41">: string</text><text x="1858.5" y="677.804" fill="#D9B8FF" font-family="sans-serif" font-size="11" font-weight="bold" textLength="203">dynamodb_attribute_definitions</text><text x="2061.5" y="677.804" fill="#D9B8FF" font-family="sans-serif" font-size="11" textLength="222">: aws_dynamo_db_attribute_definition[]</text><text x="1858.5" y="700.609" fill="#D9B8FF" font-family="sans-serif" font-size="11" font-weight="bold" textLength="149">dynamodb_key_schema</text><text x="2007.5" y="700.609" fill="#D9B8FF" font-family="sans-serif" font-size="11" textLength="238">: aws_dynamo_db_key_schema_element[]</text><text x="1858.5" y="723.414" fill="#D9B8FF" font-family="sans-serif" font-size="11" font-weight="bold" textLength="151">dynamodb_table_status</text><text x="2009.5" y="723.414" fill="#D9B8FF" font-family="sans-serif" font-size="11" textLength="41">: string</text><text x="1858.5" y="746.218" fill="#D9B8FF" font-family="sans-serif" font-size="11" font-weight="bold" textLength="224">dynamodb_provisioned_throughput</text><text x="2082.5" y="746.218" fill="#D9B8FF" font-family="sans-serif" font-size="11" textLength="311">: aws_dynamo_db_provisioned_throughput_description</text><text x="1858.5" y="769.023" fill="#D9B8FF" font-family="sans-serif" font-size="11" font-weight="bold" textLength="178">dynamodb_table_size_bytes</text><text x="2036.5" y="769.023" fill="#D9B8FF" font-family="sans-serif" font-size="11" textLength="36">: int64</text><text x="1858.5" y="791.828" fill="#D9B8FF" font-family="sans-serif" font-size="11" font-weight="bold" textLength="142">dynamodb_item_count</text><text x="2000.5" y="791.828" fill="#D9B8FF" font-family="sans-serif" font-size="11" textLength="36">: int64</text><text x="1858.5" y="814.632" fill="#D9B8FF" font-family="sans-serif" font-size="11" font-weight="bold" textLength="216">dynamodb_billing_mode_summary</text><text x="2074.5" y="814.632" fill="#D9B8FF" font-family="sans-serif" font-size="11" textLength="239">: aws_dynamo_db_billing_mode_summary</text><text x="1858.5" y="837.437" fill="#D9B8FF" font-family="sans-serif" font-size="11" font-weight="bold" textLength="231">dynamodb_local_secondary_indexes</text><text x="2089.5" y="837.437" fill="#D9B8FF" font-family="sans-serif" font-size="11" textLength="312">: aws_dynamo_db_local_secondary_index_description[]</text><text x="1858.5" y="860.242" fill="#D9B8FF" font-family="sans-serif" font-size="11" font-weight="bold" textLength="240">dynamodb_global_secondary_indexes</text><text x="2098.5" y="860.242" fill="#D9B8FF" font-family="sans-serif" font-size="11" textLength="320">: aws_dynamo_db_global_secondary_index_description[]</text><text x="1858.5" y="883.046" fill="#D9B8FF" font-family="sans-serif" font-size="11" font-weight="bold" textLength="205">dynamodb_stream_specification</text><text x="2063.5" y="883.046" fill="#D9B8FF" font-family="sans-serif" font-size="11" textLength="226">: aws_dynamo_db_stream_specification</text><text x="1858.5" y="905.851" fill="#D9B8FF" font-family="sans-serif" font-size="11" font-weight="bold" textLength="197">dynamodb_latest_stream_label</text><text x="2055.5" y="905.851" fill="#D9B8FF" font-family="sans-serif" font-size="11" textLength="41">: string</text><text x="1858.5" y="928.656" fill="#D9B8FF" font-family="sans-serif" font-size="11" font-weight="bold" textLength="186">dynamodb_latest_stream_arn</text><text x="2044.5" y="928.656" fill="#D9B8FF" font-family="sans-serif" font-size="11" textLength="41">: string</text><text x="1858.5" y="951.46" fill="#D9B8FF" font-family="sans-serif" font-size="11" font-weight="bold" textLength="204">dynamodb_global_table_version</text><text x="2062.5" y="951.46" fill="#D9B8FF" font-family="sans-serif" font-size="11" textLength="41">: string</text><text x="1858.5" y="974.265" fill="#D9B8FF" font-family="sans-serif" font-size="11" font-weight="bold" textLength="123">dynamodb_replicas</text><text x="1981.5" y="974.265" fill="#D9B8FF" font-family="sans-serif" font-size="11" textLength="223">: aws_dynamo_db_replica_description[]</text><text x="1858.5" y="997.07" fill="#D9B8FF" font-family="sans-serif" font-size="11" font-weight="bold" textLength="181">dynamodb_restore_summary</text><text x="2039.5" y="997.07" fill="#D9B8FF" font-family="sans-serif" font-size="11" textLength="210">: aws_dynamo_db_restore_summary</text><text x="1858.5" y="1019.875" fill="#D9B8FF" font-family="sans-serif" font-size="11" font-weight="bold" textLength="172">dynamodb_sse_description</text><text x="2030.5" y="1019.875" fill="#D9B8FF" font-family="sans-serif" font-size="11" textLength="198">: aws_dynamo_db_sse_description</text><text x="1858.5" y="1042.679" fill="#D9B8FF" font-family="sans-serif" font-size="11" font-weight="bold" textLength="186">dynamodb_archival_summary</text><text x="2044.5" y="1042.679" fill="#D9B8FF" font-family="sans-serif" font-size="11" textLength="212">: aws_dynamo_db_archival_summary</text><text x="1858.5" y="1065.484" fill="#D9B8FF" font-family="sans-serif" font-size="11" font-weight="bold" textLength="207">dynamodb_table_class_summary</text><text x="2065.5" y="1065.484" fill="#D9B8FF" font-family="sans-serif" font-size="11" textLength="232">: aws_dynamo_db_table_class_summary</text></a><a xlink:actuate="onRequest" xlink:href="#h" xlink:show="new" xlink:title="#aws_dynamo_db_key_schema_element" xlink:type="simple" target="_top"><rect id="h" width="372" height="93.398" x="1145.5" y="1484.5" fill="#3D176E" rx="2.5" ry="2.5" style="stroke:#000d19;stroke-width:1.5"/><circle cx="1160.5" cy="1504.395" r="11" fill="#E98DF7" style="stroke:#000d19;stroke-width:1"/><path d="M1163.469 1510.035q-.578.297-1.219.438-.64.156-1.344.156-2.5 0-3.828-1.64-1.312-1.657-1.312-4.782t1.312-4.781q1.328-1.656 3.828-1.656.703 0 1.344.156.656.156 1.219.453v2.719q-.625-.578-1.219-.844-.594-.281-1.219-.281-1.343 0-2.031 1.078-.688 1.062-.688 3.156 0 2.094.688 3.172.688 1.062 2.031 1.062.625 0 1.219-.265.594-.281 1.219-.86v2.72Z"/><text x="1179.5" y="1510.28" fill="#D9B8FF" font-family="Helvetica" font-size="17" textLength="330">aws_dynamo_db_key_schema_element</text><path d="M1146.5 1524.289h370" style="stroke:#000d19;stroke-width:1.5"/><text x="1156.5" y="1543.499" fill="#D9B8FF" font-family="sans-serif" font-size="11" font-weight="bold" textLength="97">attribute_name</text><text x="1253.5" y="1543.499" fill="#D9B8FF" font-family="sans-serif" font-size="11" textLength="41">: string</text><text x="1156.5" y="1566.304" fill="#D9B8FF" font-family="sans-serif" font-size="11" font-weight="bold" textLength="56">key_type</text><text x="1212.5" y="1566.304" fill="#D9B8FF" font-family="sans-serif" font-size="11" textLength="41">: string</text></a><a xlink:actuate="onRequest" xlink:href="#i" xlink:show="new" xlink:title="#aws_dynamo_db_table_class_summary" xlink:type="simple" target="_top"><rect id="i" width="369" height="93.398" x="2387" y="1484.5" fill="#3D176E" rx="2.5" ry="2.5" style="stroke:#000d19;stroke-width:1.5"/><circle cx="2402" cy="1504.395" r="11" fill="#E98DF7" style="stroke:#000d19;stroke-width:1"/><path d="M2404.969 1510.035q-.578.297-1.219.438-.64.156-1.344.156-2.5 0-3.828-1.64-1.312-1.657-1.312-4.782t1.312-4.781q1.328-1.656 3.828-1.656.703 0 1.344.156.656.156 1.219.453v2.719q-.625-.578-1.219-.844-.594-.281-1.219-.281-1.343 0-2.031 1.078-.688 1.062-.688 3.156 0 2.094.688 3.172.688 1.062 2.031 1.062.625 0 1.219-.265.594-.281 1.219-.86v2.72Z"/><text x="2421" y="1510.28" fill="#D9B8FF" font-family="Helvetica" font-size="17" textLength="327">aws_dynamo_db_table_class_summary</text><path d="M2388 1524.289h367" style="stroke:#000d19;stroke-width:1.5"/><text x="2398" y="1543.499" fill="#D9B8FF" font-family="sans-serif" font-size="11" font-weight="bold" textLength="72">table_class</text><text x="2470" y="1543.499" fill="#D9B8FF" font-family="sans-serif" font-size="11" textLength="41">: string</text><text x="2398" y="1566.304" fill="#D9B8FF" font-family="sans-serif" font-size="11" font-weight="bold" textLength="144">last_update_date_time</text><text x="2542" y="1566.304" fill="#D9B8FF" font-family="sans-serif" font-size="11" textLength="58">: datetime</text></a><a xlink:actuate="onRequest" xlink:href="#j" xlink:show="new" xlink:title="#aws_dynamo_db_provisioned_throughput_description" xlink:type="simple" target="_top"><rect id="j" width="490" height="161.813" x="1861.5" y="1450" fill="#3D176E" rx="2.5" ry="2.5" style="stroke:#000d19;stroke-width:1.5"/><circle cx="1876.5" cy="1469.895" r="11" fill="#E98DF7" style="stroke:#000d19;stroke-width:1"/><path d="M1879.469 1475.535q-.578.297-1.219.438-.64.156-1.344.156-2.5 0-3.828-1.64-1.312-1.657-1.312-4.782t1.312-4.781q1.328-1.656 3.828-1.656.703 0 1.344.156.656.156 1.219.453v2.719q-.625-.578-1.219-.844-.594-.281-1.219-.281-1.343 0-2.031 1.078-.688 1.062-.688 3.156 0 2.094.688 3.172.688 1.062 2.031 1.062.625 0 1.219-.265.594-.281 1.219-.86v2.72Z"/><text x="1895.5" y="1475.78" fill="#D9B8FF" font-family="Helvetica" font-size="17" textLength="448">aws_dynamo_db_provisioned_throughput_description</text><path d="M1862.5 1489.789h488" style="stroke:#000d19;stroke-width:1.5"/><text x="1872.5" y="1508.999" fill="#D9B8FF" font-family="sans-serif" font-size="11" font-weight="bold" textLength="154">last_increase_date_time</text><text x="2026.5" y="1508.999" fill="#D9B8FF" font-family="sans-serif" font-size="11" textLength="58">: datetime</text><text x="1872.5" y="1531.804" fill="#D9B8FF" font-family="sans-serif" font-size="11" font-weight="bold" textLength="158">last_decrease_date_time</text><text x="2030.5" y="1531.804" fill="#D9B8FF" font-family="sans-serif" font-size="11" textLength="58">: datetime</text><text x="1872.5" y="1554.609" fill="#D9B8FF" font-family="sans-serif" font-size="11" font-weight="bold" textLength="181">number_of_decreases_today</text><text x="2053.5" y="1554.609" fill="#D9B8FF" font-family="sans-serif" font-size="11" textLength="36">: int64</text><text x="1872.5" y="1577.414" fill="#D9B8FF" font-family="sans-serif" font-size="11" font-weight="bold" textLength="127">read_capacity_units</text><text x="1999.5" y="1577.414" fill="#D9B8FF" font-family="sans-serif" font-size="11" textLength="36">: int64</text><text x="1872.5" y="1600.218" fill="#D9B8FF" font-family="sans-serif" font-size="11" font-weight="bold" textLength="131">write_capacity_units</text><text x="2003.5" y="1600.218" fill="#D9B8FF" font-family="sans-serif" font-size="11" textLength="36">: int64</text></a><a xlink:actuate="onRequest" xlink:href="#k" xlink:show="new" xlink:title="#aws_dynamo_db_replica_description" xlink:type="simple" target="_top"><rect id="k" width="554" height="253.031" x="2411.5" y="1137" fill="#3D176E" rx="2.5" ry="2.5" style="stroke:#000d19;stroke-width:1.5"/><circle cx="2527.75" cy="1156.895" r="11" fill="#E98DF7" style="stroke:#000d19;stroke-width:1"/><path d="M2530.719 1162.535q-.578.297-1.219.438-.64.156-1.344.156-2.5 0-3.828-1.64-1.312-1.657-1.312-4.782t1.312-4.781q1.328-1.656 3.828-1.656.703 0 1.344.156.656.156 1.219.453v2.719q-.625-.578-1.219-.844-.594-.281-1.219-.281-1.343 0-2.031 1.078-.688 1.062-.688 3.156 0 2.094.688 3.172.688 1.062 2.031 1.062.625 0 1.219-.265.594-.281 1.219-.86v2.72Z"/><text x="2553.25" y="1162.78" fill="#D9B8FF" font-family="Helvetica" font-size="17" textLength="303">aws_dynamo_db_replica_description</text><path d="M2412.5 1176.789h552" style="stroke:#000d19;stroke-width:1.5"/><text x="2422.5" y="1195.999" fill="#D9B8FF" font-family="sans-serif" font-size="11" font-weight="bold" textLength="82">region_name</text><text x="2504.5" y="1195.999" fill="#D9B8FF" font-family="sans-serif" font-size="11" textLength="41">: string</text><text x="2422.5" y="1218.804" fill="#D9B8FF" font-family="sans-serif" font-size="11" font-weight="bold" textLength="90">replica_status</text><text x="2512.5" y="1218.804" fill="#D9B8FF" font-family="sans-serif" font-size="11" textLength="41">: string</text><text x="2422.5" y="1241.609" fill="#D9B8FF" font-family="sans-serif" font-size="11" font-weight="bold" textLength="168">replica_status_description</text><text x="2590.5" y="1241.609" fill="#D9B8FF" font-family="sans-serif" font-size="11" textLength="41">: string</text><text x="2422.5" y="1264.414" fill="#D9B8FF" font-family="sans-serif" font-size="11" font-weight="bold" textLength="207">replica_status_percent_progress</text><text x="2629.5" y="1264.414" fill="#D9B8FF" font-family="sans-serif" font-size="11" textLength="41">: string</text><text x="2422.5" y="1287.218" fill="#D9B8FF" font-family="sans-serif" font-size="11" font-weight="bold" textLength="121">kms_master_key_id</text><text x="2543.5" y="1287.218" fill="#D9B8FF" font-family="sans-serif" font-size="11" textLength="41">: string</text><text x="2422.5" y="1310.023" fill="#D9B8FF" font-family="sans-serif" font-size="11" font-weight="bold" textLength="211">provisioned_throughput_override</text><text x="2633.5" y="1310.023" fill="#D9B8FF" font-family="sans-serif" font-size="11" textLength="36">: int64</text><text x="2422.5" y="1332.828" fill="#D9B8FF" font-family="sans-serif" font-size="11" font-weight="bold" textLength="168">global_secondary_indexes</text><text x="2590.5" y="1332.828" fill="#D9B8FF" font-family="sans-serif" font-size="11" textLength="364">: aws_dynamo_db_replica_global_secondary_index_description[]</text><text x="2422.5" y="1355.632" fill="#D9B8FF" font-family="sans-serif" font-size="11" font-weight="bold" textLength="199">replica_inaccessible_date_time</text><text x="2621.5" y="1355.632" fill="#D9B8FF" font-family="sans-serif" font-size="11" textLength="58">: datetime</text><text x="2422.5" y="1378.437" fill="#D9B8FF" font-family="sans-serif" font-size="11" font-weight="bold" textLength="185">replica_table_class_summary</text><text x="2607.5" y="1378.437" fill="#D9B8FF" font-family="sans-serif" font-size="11" textLength="232">: aws_dynamo_db_table_class_summary</text></a><a xlink:actuate="onRequest" xlink:href="#l" xlink:show="new" xlink:title="#aws_dynamo_db_billing_mode_summary" xlink:type="simple" target="_top"><rect id="l" width="386" height="93.398" x="3000.5" y="1217" fill="#3D176E" rx="2.5" ry="2.5" style="stroke:#000d19;stroke-width:1.5"/><circle cx="3015.5" cy="1236.895" r="11" fill="#E98DF7" style="stroke:#000d19;stroke-width:1"/><path d="M3018.469 1242.535q-.578.297-1.219.438-.64.156-1.344.156-2.5 0-3.828-1.64-1.312-1.657-1.312-4.782t1.312-4.781q1.328-1.656 3.828-1.656.703 0 1.344.156.656.156 1.219.453v2.719q-.625-.578-1.219-.844-.594-.281-1.219-.281-1.343 0-2.031 1.078-.688 1.062-.688 3.156 0 2.094.688 3.172.688 1.062 2.031 1.062.625 0 1.219-.265.594-.281 1.219-.86v2.72Z"/><text x="3034.5" y="1242.78" fill="#D9B8FF" font-family="Helvetica" font-size="17" textLength="344">aws_dynamo_db_billing_mode_summary</text><path d="M3001.5 1256.789h384" style="stroke:#000d19;stroke-width:1.5"/><text x="3011.5" y="1275.999" fill="#D9B8FF" font-family="sans-serif" font-size="11" font-weight="bold" textLength="81">billing_mode</text><text x="3092.5" y="1275.999" fill="#D9B8FF" font-family="sans-serif" font-size="11" textLength="41">: string</text><text x="3011.5" y="1298.804" fill="#D9B8FF" font-family="sans-serif" font-size="11" font-weight="bold" textLength="274">last_update_to_pay_per_request_date_time</text><text x="3285.5" y="1298.804" fill="#D9B8FF" font-family="sans-serif" font-size="11" textLength="58">: datetime</text></a><a xlink:actuate="onRequest" xlink:href="#m" xlink:show="new" xlink:title="#aws_dynamo_db_projection" xlink:type="simple" target="_top"><rect id="m" width="273" height="93.398" x="1553" y="1484.5" fill="#3D176E" rx="2.5" ry="2.5" style="stroke:#000d19;stroke-width:1.5"/><circle cx="1568" cy="1504.395" r="11" fill="#E98DF7" style="stroke:#000d19;stroke-width:1"/><path d="M1570.969 1510.035q-.578.297-1.219.438-.64.156-1.344.156-2.5 0-3.828-1.64-1.312-1.657-1.312-4.782t1.312-4.781q1.328-1.656 3.828-1.656.703 0 1.344.156.656.156 1.219.453v2.719q-.625-.578-1.219-.844-.594-.281-1.219-.281-1.343 0-2.031 1.078-.688 1.062-.688 3.156 0 2.094.688 3.172.688 1.062 2.031 1.062.625 0 1.219-.265.594-.281 1.219-.86v2.72Z"/><text x="1587" y="1510.28" fill="#D9B8FF" font-family="Helvetica" font-size="17" textLength="231">aws_dynamo_db_projection</text><path d="M1554 1524.289h271" style="stroke:#000d19;stroke-width:1.5"/><text x="1564" y="1543.499" fill="#D9B8FF" font-family="sans-serif" font-size="11" font-weight="bold" textLength="99">projection_type</text><text x="1663" y="1543.499" fill="#D9B8FF" font-family="sans-serif" font-size="11" textLength="41">: string</text><text x="1564" y="1566.304" fill="#D9B8FF" font-family="sans-serif" font-size="11" font-weight="bold" textLength="121">non_key_attributes</text><text x="1685" y="1566.304" fill="#D9B8FF" font-family="sans-serif" font-size="11" textLength="49">: string[]</text></a><a xlink:actuate="onRequest" xlink:href="#n" xlink:show="new" xlink:title="#aws_dynamo_db_local_secondary_index_description" xlink:type="simple" target="_top"><rect id="n" width="476" height="184.617" x="1235.5" y="1171" fill="#3D176E" rx="2.5" ry="2.5" style="stroke:#000d19;stroke-width:1.5"/><circle cx="1250.5" cy="1190.895" r="11" fill="#E98DF7" style="stroke:#000d19;stroke-width:1"/><path d="M1253.469 1196.535q-.578.297-1.219.438-.64.156-1.344.156-2.5 0-3.828-1.64-1.312-1.657-1.312-4.782t1.312-4.781q1.328-1.656 3.828-1.656.703 0 1.344.156.656.156 1.219.453v2.719q-.625-.578-1.219-.844-.594-.281-1.219-.281-1.343 0-2.031 1.078-.688 1.062-.688 3.156 0 2.094.688 3.172.688 1.062 2.031 1.062.625 0 1.219-.265.594-.281 1.219-.86v2.72Z"/><text x="1269.5" y="1196.78" fill="#D9B8FF" font-family="Helvetica" font-size="17" textLength="434">aws_dynamo_db_local_secondary_index_description</text><path d="M1236.5 1210.789h474" style="stroke:#000d19;stroke-width:1.5"/><text x="1246.5" y="1229.999" fill="#D9B8FF" font-family="sans-serif" font-size="11" font-weight="bold" textLength="76">index_name</text><text x="1322.5" y="1229.999" fill="#D9B8FF" font-family="sans-serif" font-size="11" textLength="41">: string</text><text x="1246.5" y="1252.804" fill="#D9B8FF" font-family="sans-serif" font-size="11" font-weight="bold" textLength="77">key_schema</text><text x="1323.5" y="1252.804" fill="#D9B8FF" font-family="sans-serif" font-size="11" textLength="238">: aws_dynamo_db_key_schema_element[]</text><text x="1246.5" y="1275.609" fill="#D9B8FF" font-family="sans-serif" font-size="11" font-weight="bold" textLength="65">projection</text><text x="1311.5" y="1275.609" fill="#D9B8FF" font-family="sans-serif" font-size="11" textLength="164">: aws_dynamo_db_projection</text><text x="1246.5" y="1298.414" fill="#D9B8FF" font-family="sans-serif" font-size="11" font-weight="bold" textLength="108">index_size_bytes</text><text x="1354.5" y="1298.414" fill="#D9B8FF" font-family="sans-serif" font-size="11" textLength="36">: int64</text><text x="1246.5" y="1321.218" fill="#D9B8FF" font-family="sans-serif" font-size="11" font-weight="bold" textLength="70">item_count</text><text x="1316.5" y="1321.218" fill="#D9B8FF" font-family="sans-serif" font-size="11" textLength="36">: int64</text><text x="1246.5" y="1344.023" fill="#D9B8FF" font-family="sans-serif" font-size="11" font-weight="bold" textLength="62">index_arn</text><text x="1308.5" y="1344.023" fill="#D9B8FF" font-family="sans-serif" font-size="11" textLength="41">: string</text></a><a xlink:actuate="onRequest" xlink:href="#o" xlink:show="new" xlink:title="#aws_dynamo_db_archival_summary" xlink:type="simple" target="_top"><rect id="o" width="345" height="116.203" x="3422" y="1205.5" fill="#3D176E" rx="2.5" ry="2.5" style="stroke:#000d19;stroke-width:1.5"/><circle cx="3437" cy="1225.395" r="11" fill="#E98DF7" style="stroke:#000d19;stroke-width:1"/><path d="M3439.969 1231.035q-.578.297-1.219.438-.64.156-1.344.156-2.5 0-3.828-1.64-1.312-1.657-1.312-4.782t1.312-4.781q1.328-1.656 3.828-1.656.703 0 1.344.156.656.156 1.219.453v2.719q-.625-.578-1.219-.844-.594-.281-1.219-.281-1.343 0-2.031 1.078-.688 1.062-.688 3.156 0 2.094.688 3.172.688 1.062 2.031 1.062.625 0 1.219-.265.594-.281 1.219-.86v2.72Z"/><text x="3456" y="1231.28" fill="#D9B8FF" font-family="Helvetica" font-size="17" textLength="303">aws_dynamo_db_archival_summary</text><path d="M3423 1245.289h343" style="stroke:#000d19;stroke-width:1.5"/><text x="3433" y="1264.499" fill="#D9B8FF" font-family="sans-serif" font-size="11" font-weight="bold" textLength="120">archival_date_time</text><text x="3553" y="1264.499" fill="#D9B8FF" font-family="sans-serif" font-size="11" textLength="58">: datetime</text><text x="3433" y="1287.304" fill="#D9B8FF" font-family="sans-serif" font-size="11" font-weight="bold" textLength="101">archival_reason</text><text x="3534" y="1287.304" fill="#D9B8FF" font-family="sans-serif" font-size="11" textLength="41">: string</text><text x="3433" y="1310.109" fill="#D9B8FF" font-family="sans-serif" font-size="11" font-weight="bold" textLength="130">archival_backup_arn</text><text x="3563" y="1310.109" fill="#D9B8FF" font-family="sans-serif" font-size="11" textLength="41">: string</text></a><a xlink:actuate="onRequest" xlink:href="#p" xlink:show="new" xlink:title="#aws_dynamo_db_sse_description" xlink:type="simple" target="_top"><rect id="p" width="316" height="139.008" x="3801.5" y="1194" fill="#3D176E" rx="2.5" ry="2.5" style="stroke:#000d19;stroke-width:1.5"/><circle cx="3816.5" cy="1213.895" r="11" fill="#E98DF7" style="stroke:#000d19;stroke-width:1"/><path d="M3819.469 1219.535q-.578.297-1.219.438-.64.156-1.344.156-2.5 0-3.828-1.64-1.312-1.657-1.312-4.782t1.312-4.781q1.328-1.656 3.828-1.656.703 0 1.344.156.656.156 1.219.453v2.719q-.625-.578-1.219-.844-.594-.281-1.219-.281-1.343 0-2.031 1.078-.688 1.062-.688 3.156 0 2.094.688 3.172.688 1.062 2.031 1.062.625 0 1.219-.265.594-.281 1.219-.86v2.72Z"/><text x="3835.5" y="1219.78" fill="#D9B8FF" font-family="Helvetica" font-size="17" textLength="274">aws_dynamo_db_sse_description</text><path d="M3802.5 1233.789h314" style="stroke:#000d19;stroke-width:1.5"/><text x="3812.5" y="1252.999" fill="#D9B8FF" font-family="sans-serif" font-size="11" font-weight="bold" textLength="40">status</text><text x="3852.5" y="1252.999" fill="#D9B8FF" font-family="sans-serif" font-size="11" textLength="41">: string</text><text x="3812.5" y="1275.804" fill="#D9B8FF" font-family="sans-serif" font-size="11" font-weight="bold" textLength="56">sse_type</text><text x="3868.5" y="1275.804" fill="#D9B8FF" font-family="sans-serif" font-size="11" textLength="41">: string</text><text x="3812.5" y="1298.609" fill="#D9B8FF" font-family="sans-serif" font-size="11" font-weight="bold" textLength="130">kms_master_key_arn</text><text x="3942.5" y="1298.609" fill="#D9B8FF" font-family="sans-serif" font-size="11" textLength="41">: string</text><text x="3812.5" y="1321.414" fill="#D9B8FF" font-family="sans-serif" font-size="11" font-weight="bold" textLength="223">inaccessible_encryption_date_time</text><text x="4035.5" y="1321.414" fill="#D9B8FF" font-family="sans-serif" font-size="11" textLength="58">: datetime</text></a><a xlink:actuate="onRequest" xlink:href="#q" xlink:show="new" xlink:title="#aws_dynamo_db_global_secondary_index_description" xlink:type="simple" target="_top"><rect id="q" width="488" height="253.031" x="1746.5" y="1137" fill="#3D176E" rx="2.5" ry="2.5" style="stroke:#000d19;stroke-width:1.5"/><circle cx="1761.5" cy="1156.895" r="11" fill="#E98DF7" style="stroke:#000d19;stroke-width:1"/><path d="M1764.469 1162.535q-.578.297-1.219.438-.64.156-1.344.156-2.5 0-3.828-1.64-1.312-1.657-1.312-4.782t1.312-4.781q1.328-1.656 3.828-1.656.703 0 1.344.156.656.156 1.219.453v2.719q-.625-.578-1.219-.844-.594-.281-1.219-.281-1.343 0-2.031 1.078-.688 1.062-.688 3.156 0 2.094.688 3.172.688 1.062 2.031 1.062.625 0 1.219-.265.594-.281 1.219-.86v2.72Z"/><text x="1780.5" y="1162.78" fill="#D9B8FF" font-family="Helvetica" font-size="17" textLength="446">aws_dynamo_db_global_secondary_index_description</text><path d="M1747.5 1176.789h486" style="stroke:#000d19;stroke-width:1.5"/><text x="1757.5" y="1195.999" fill="#D9B8FF" font-family="sans-serif" font-size="11" font-weight="bold" textLength="76">index_name</text><text x="1833.5" y="1195.999" fill="#D9B8FF" font-family="sans-serif" font-size="11" textLength="41">: string</text><text x="1757.5" y="1218.804" fill="#D9B8FF" font-family="sans-serif" font-size="11" font-weight="bold" textLength="77">key_schema</text><text x="1834.5" y="1218.804" fill="#D9B8FF" font-family="sans-serif" font-size="11" textLength="238">: aws_dynamo_db_key_schema_element[]</text><text x="1757.5" y="1241.609" fill="#D9B8FF" font-family="sans-serif" font-size="11" font-weight="bold" textLength="65">projection</text><text x="1822.5" y="1241.609" fill="#D9B8FF" font-family="sans-serif" font-size="11" textLength="164">: aws_dynamo_db_projection</text><text x="1757.5" y="1264.414" fill="#D9B8FF" font-family="sans-serif" font-size="11" font-weight="bold" textLength="81">index_status</text><text x="1838.5" y="1264.414" fill="#D9B8FF" font-family="sans-serif" font-size="11" textLength="41">: string</text><text x="1757.5" y="1287.218" fill="#D9B8FF" font-family="sans-serif" font-size="11" font-weight="bold" textLength="67">backfilling</text><text x="1824.5" y="1287.218" fill="#D9B8FF" font-family="sans-serif" font-size="11" textLength="53">: boolean</text><text x="1757.5" y="1310.023" fill="#D9B8FF" font-family="sans-serif" font-size="11" font-weight="bold" textLength="152">provisioned_throughput</text><text x="1909.5" y="1310.023" fill="#D9B8FF" font-family="sans-serif" font-size="11" textLength="311">: aws_dynamo_db_provisioned_throughput_description</text><text x="1757.5" y="1332.828" fill="#D9B8FF" font-family="sans-serif" font-size="11" font-weight="bold" textLength="108">index_size_bytes</text><text x="1865.5" y="1332.828" fill="#D9B8FF" font-family="sans-serif" font-size="11" textLength="36">: int64</text><text x="1757.5" y="1355.632" fill="#D9B8FF" font-family="sans-serif" font-size="11" font-weight="bold" textLength="70">item_count</text><text x="1827.5" y="1355.632" fill="#D9B8FF" font-family="sans-serif" font-size="11" textLength="36">: int64</text><text x="1757.5" y="1378.437" fill="#D9B8FF" font-family="sans-serif" font-size="11" font-weight="bold" textLength="62">index_arn</text><text x="1819.5" y="1378.437" fill="#D9B8FF" font-family="sans-serif" font-size="11" textLength="41">: string</text></a><path fill="none" d="M2138.5 303.43V403.9M2131.5 303.26l7-20 7 20h-14zM2138.5 495.47v100.44M2131.5 495.21l7-20 7 20h-14zM1847.29 905.41c-199.22 51.46-466.78 130.54-690.79 231.59-46.99 21.2-96.3 51.29-134.67 76.7" style="stroke:#ffaf37;stroke-width:2"/><path fill="#FFAF37" d="m1017.2 1216.77 9.707-1.664-5.547-1.11 1.11-5.547-5.27 8.321z" style="stroke:#ffaf37;stroke-width:2"/><path fill="none" d="M1847.32 893.53c-240.53 52.89-554.29 139.49-629.82 243.47-66.08 90.98-37.68 147.06 0 253 12.11 34.06 36.45 65.85 59.54 90.49" style="stroke:#ffaf37;stroke-width:2"/><path fill="#FFAF37" d="m1280.73 1484.39-3.293-9.282-.148 5.655-5.655-.149 9.096 3.776z" style="stroke:#ffaf37;stroke-width:2"/><path fill="none" d="M2248.63 1077.3c30.24 99.46 44.62 214.36 2.87 312.7-8.64 20.36-21.86 39.21-36.87 56.04" style="stroke:#ffaf37;stroke-width:2"/><path fill="#FFAF37" d="m2211.2 1449.82 9.018-3.958-5.65.262-.263-5.65-3.105 9.346z" style="stroke:#ffaf37;stroke-width:2"/><path fill="none" d="M2429.69 924.92c165.58 53.58 374.94 127.95 553.81 212.08 47.28 22.24 97.61 52.08 137.15 77.09" style="stroke:#ffaf37;stroke-width:2"/><path fill="#FFAF37" d="m3124.92 1216.8-5.46-8.197 1.237 5.52-5.52 1.237 9.743 1.44z" style="stroke:#ffaf37;stroke-width:2"/><path fill="none" d="M1847.31 1023.6a3427640.1 3427640.1 0 0 1-225.94 144.39" style="stroke:#ffaf37;stroke-width:2"/><path fill="#FFAF37" d="m1617 1170.79 9.736-1.487-5.526-1.21 1.21-5.526-5.42 8.223z" style="stroke:#ffaf37;stroke-width:2"/><path fill="none" d="M2055.09 1077.02c-6.54 18.78-12.98 37.28-19.11 54.89" style="stroke:#ffaf37;stroke-width:2"/><path fill="#FFAF37" d="m2034.26 1136.85 6.739-7.182-5.094 2.46-2.46-5.093.815 9.815z" style="stroke:#ffaf37;stroke-width:2"/><path fill="none" d="M1847.46 851.92C1491.68 877.42 876.27 947.29 384.5 1137c-48.35 18.65-97.53 49.96-134.65 76.64" style="stroke:#ffaf37;stroke-width:2"/><path fill="#FFAF37" d="m245.38 1216.87 9.639-2.024-5.585-.902.902-5.585-4.956 8.511z" style="stroke:#ffaf37;stroke-width:2"/><path fill="none" d="M2429.61 1062.44c31.55 24.39 62.83 48.56 92.15 71.21" style="stroke:#ffaf37;stroke-width:2"/><path fill="#FFAF37" d="m2526.07 1136.99-4.677-8.668.72 5.611-5.61.72 9.567 2.337z" style="stroke:#ffaf37;stroke-width:2"/><path fill="none" d="M1847.4 868.34C1561.25 906.03 1116.61 984.58 758.5 1137c-32.92 14.01-66.19 34.04-95.37 53.99" style="stroke:#ffaf37;stroke-width:2"/><path fill="#FFAF37" d="m658.86 1193.94 9.683-1.803-5.563-1.03 1.03-5.562-5.15 8.395z" style="stroke:#ffaf37;stroke-width:2"/><path fill="none" d="M2429.78 851.87c337.84 25.28 905.81 94.77 1354.72 285.13 31.82 13.49 63.48 33.61 90.95 53.8" style="stroke:#ffaf37;stroke-width:2"/><path fill="#FFAF37" d="m3879.47 1193.78-4.834-8.58.822 5.596-5.597.822 9.609 2.162z" style="stroke:#ffaf37;stroke-width:2"/><path fill="none" d="M2429.55 876.57c262.72 42.13 655.81 122.47 974.95 260.43 39.24 16.96 79.24 41.99 112.34 65.24" style="stroke:#ffaf37;stroke-width:2"/><path fill="#FFAF37" d="m3521.26 1205.36-5.044-8.46.96 5.575-5.575.96 9.659 1.925z" style="stroke:#ffaf37;stroke-width:2"/><path fill="none" d="M2262.43 1077.36c9.7 20.08 19.17 40.15 28.07 59.64 50.4 110.45 29.96 156.02 103 253 26.93 35.76 65.12 67.41 99.23 91.53" style="stroke:#ffaf37;stroke-width:2"/><path fill="#FFAF37" d="m2496.87 1484.43-5.063-8.448.972 5.573-5.572.973 9.663 1.902z" style="stroke:#ffaf37;stroke-width:2"/><path fill="none" d="M2867.73 1390.06c46.19 32.35 93.19 65.28 130 91.06" style="stroke:#ffaf37;stroke-width:2"/><path fill="#FFAF37" d="m3002.16 1484.23-5.063-8.448.972 5.573-5.572.973 9.663 1.902z" style="stroke:#ffaf37;stroke-width:2"/><path fill="none" d="M2633.08 1390.25c-13.95 31.67-28.14 63.88-39.38 89.37" style="stroke:#ffaf37;stroke-width:2"/><path fill="#FFAF37" d="m2591.64 1484.31 7.307-6.604-5.279 2.034-2.034-5.279.006 9.849z" style="stroke:#ffaf37;stroke-width:2"/><path fill="none" d="M1424.43 1356.24c-22.17 41.46-47.51 88.83-66.12 123.63" style="stroke:#ffaf37;stroke-width:2"/><path fill="#FFAF37" d="m1355.85 1484.48 7.768-6.055-5.413 1.644-1.644-5.412-.711 9.823z" style="stroke:#ffaf37;stroke-width:2"/><path fill="none" d="M1548.14 1356.24c33.86 41.63 72.58 89.22 100.92 124.05" style="stroke:#ffaf37;stroke-width:2"/><path fill="#FFAF37" d="m1652.47 1484.48-2.55-9.513-.594 5.625-5.626-.594 8.77 4.482z" style="stroke:#ffaf37;stroke-width:2"/><path fill="none" d="M1746.24 1382.88c-5.95 2.44-11.87 4.82-17.74 7.12-83.62 32.82-108.24 30.25-193 60-28.42 9.97-58.77 21.43-87.14 32.5" style="stroke:#ffaf37;stroke-width:2"/><path fill="#FFAF37" d="m1443.45 1484.42 9.84.434-5.186-2.261 2.262-5.186-6.916 7.013z" style="stroke:#ffaf37;stroke-width:2"/><path fill="none" d="M1847.93 1390.25c-36.5 32.2-73.62 64.94-102.75 90.64" style="stroke:#ffaf37;stroke-width:2"/><path fill="#FFAF37" d="m1741.3 1484.31 9.396-2.952-5.646-.355.355-5.645-4.105 8.952z" style="stroke:#ffaf37;stroke-width:2"/><path fill="none" d="M2045.44 1390.25c8.09 18.5 16.25 37.18 23.86 54.6" style="stroke:#ffaf37;stroke-width:2"/><path fill="#FFAF37" d="m2071.43 1449.73.069-9.849-2.068 5.266-5.265-2.067 7.264 6.65z" style="stroke:#ffaf37;stroke-width:2"/></svg>