<svg xmlns="http://www.w3.org/2000/svg" xmlns:xlink="http://www.w3.org/1999/xlink" width="1881" height="2341" preserveAspectRatio="none" style="width:1881px;height:2341px;background:#00000000"><a xlink:actuate="onRequest" xlink:href="#a" xlink:show="new" xlink:title="#resource" xlink:type="simple" target="_top"><rect id="a" width="195" height="275.836" x="809" y="7" fill="#3D176E" rx="2.5" ry="2.5" style="stroke:#000d19;stroke-width:1.5"/><circle cx="861.75" cy="26.895" r="11" fill="#E98DF7" style="stroke:#000d19;stroke-width:1"/><path d="M864.719 32.535q-.578.297-1.219.438-.64.156-1.344.156-2.5 0-3.828-1.64-1.312-1.657-1.312-4.782t1.312-4.781q1.328-1.656 3.828-1.656.703 0 1.344.156.656.156 1.219.453v2.719q-.625-.578-1.219-.844-.594-.281-1.219-.281-1.343 0-2.031 1.078-.688 1.062-.688 3.156 0 2.094.688 3.172.688 1.062 2.031 1.062.625 0 1.219-.265.594-.281 1.219-.86v2.72Z"/><text x="887.25" y="32.78" fill="#D9B8FF" font-family="Helvetica" font-size="17" textLength="71">resource</text><path d="M810 46.789h193" style="stroke:#000d19;stroke-width:1.5"/><text x="820" y="65.999" fill="#D9B8FF" font-family="sans-serif" font-size="11" font-weight="bold" textLength="12">id</text><text x="832" y="65.999" fill="#D9B8FF" font-family="sans-serif" font-size="11" textLength="41">: string</text><text x="820" y="88.804" fill="#D9B8FF" font-family="sans-serif" font-size="11" font-weight="bold" textLength="28">tags</text><text x="848" y="88.804" fill="#D9B8FF" font-family="sans-serif" font-size="11" textLength="145">: dictionary[string, string]</text><text x="820" y="111.609" fill="#D9B8FF" font-family="sans-serif" font-size="11" font-weight="bold" textLength="35">name</text><text x="855" y="111.609" fill="#D9B8FF" font-family="sans-serif" font-size="11" textLength="41">: string</text><text x="820" y="134.414" fill="#D9B8FF" font-family="sans-serif" font-size="11" font-weight="bold" textLength="35">ctime</text><text x="855" y="134.414" fill="#D9B8FF" font-family="sans-serif" font-size="11" textLength="58">: datetime</text><text x="820" y="157.218" fill="#D9B8FF" font-family="sans-serif" font-size="11" font-weight="bold" textLength="24">age</text><text x="844" y="157.218" fill="#D9B8FF" font-family="sans-serif" font-size="11" textLength="55">: duration</text><text x="820" y="180.023" fill="#D9B8FF" font-family="sans-serif" font-size="11" font-weight="bold" textLength="39">mtime</text><text x="859" y="180.023" fill="#D9B8FF" font-family="sans-serif" font-size="11" textLength="58">: datetime</text><text x="820" y="202.828" fill="#D9B8FF" font-family="sans-serif" font-size="11" font-weight="bold" textLength="75">last_update</text><text x="895" y="202.828" fill="#D9B8FF" font-family="sans-serif" font-size="11" textLength="55">: duration</text><text x="820" y="225.632" fill="#D9B8FF" font-family="sans-serif" font-size="11" font-weight="bold" textLength="36">atime</text><text x="856" y="225.632" fill="#D9B8FF" font-family="sans-serif" font-size="11" textLength="58">: datetime</text><text x="820" y="248.437" fill="#D9B8FF" font-family="sans-serif" font-size="11" font-weight="bold" textLength="74">last_access</text><text x="894" y="248.437" fill="#D9B8FF" font-family="sans-serif" font-size="11" textLength="55">: duration</text><text x="820" y="271.242" fill="#D9B8FF" font-family="sans-serif" font-size="11" font-weight="bold" textLength="27">kind</text><text x="847" y="271.242" fill="#D9B8FF" font-family="sans-serif" font-size="11" textLength="41">: string</text></a><a xlink:actuate="onRequest" xlink:href="#b" xlink:show="new" xlink:title="#aws_resource" xlink:type="simple" target="_top"><rect id="b" width="155" height="70.594" x="829" y="404" fill="#3D176E" rx="2.5" ry="2.5" style="stroke:#000d19;stroke-width:1.5"/><circle cx="844" cy="423.894" r="11" fill="#E98DF7" style="stroke:#000d19;stroke-width:1"/><path d="M846.969 429.535q-.578.297-1.219.438-.64.156-1.344.156-2.5 0-3.828-1.64-1.312-1.657-1.312-4.782t1.312-4.781q1.328-1.656 3.828-1.656.703 0 1.344.156.656.156 1.219.453v2.719q-.625-.579-1.219-.844-.594-.281-1.219-.281-1.343 0-2.031 1.078-.688 1.062-.688 3.156 0 2.094.688 3.172.688 1.062 2.031 1.062.625 0 1.219-.265.594-.281 1.219-.86v2.72Z"/><text x="863" y="429.78" fill="#D9B8FF" font-family="Helvetica" font-size="17" textLength="113">aws_resource</text><path d="M830 443.789h153" style="stroke:#000d19;stroke-width:1.5"/><text x="840" y="463" fill="#D9B8FF" font-family="sans-serif" font-size="11" font-weight="bold" textLength="21">arn</text><text x="861" y="463" fill="#D9B8FF" font-family="sans-serif" font-size="11" textLength="41">: string</text></a><a xlink:actuate="onRequest" xlink:href="#c" xlink:show="new" xlink:title="#aws_ecs_task_override" xlink:type="simple" target="_top"><rect id="c" width="422" height="207.422" x="281.5" y="1570" fill="#3D176E" rx="2.5" ry="2.5" style="stroke:#000d19;stroke-width:1.5"/><circle cx="388.25" cy="1589.895" r="11" fill="#E98DF7" style="stroke:#000d19;stroke-width:1"/><path d="M391.219 1595.535q-.578.297-1.219.438-.64.156-1.344.156-2.5 0-3.828-1.64-1.312-1.657-1.312-4.782t1.312-4.781q1.328-1.656 3.828-1.656.703 0 1.344.156.656.156 1.219.453v2.719q-.625-.578-1.219-.844-.594-.281-1.219-.281-1.344 0-2.031 1.078-.688 1.062-.688 3.156 0 2.094.688 3.172.688 1.062 2.031 1.062.625 0 1.219-.265.594-.281 1.219-.86v2.72Z"/><text x="413.75" y="1595.78" fill="#D9B8FF" font-family="Helvetica" font-size="17" textLength="190">aws_ecs_task_override</text><path d="M282.5 1609.789h420" style="stroke:#000d19;stroke-width:1.5"/><text x="292.5" y="1628.999" fill="#D9B8FF" font-family="sans-serif" font-size="11" font-weight="bold" textLength="127">container_overrides</text><text x="419.5" y="1628.999" fill="#D9B8FF" font-family="sans-serif" font-size="11" textLength="177">: aws_ecs_container_override[]</text><text x="292.5" y="1651.804" fill="#D9B8FF" font-family="sans-serif" font-size="11" font-weight="bold" textLength="23">cpu</text><text x="315.5" y="1651.804" fill="#D9B8FF" font-family="sans-serif" font-size="11" textLength="41">: string</text><text x="292.5" y="1674.609" fill="#D9B8FF" font-family="sans-serif" font-size="11" font-weight="bold" textLength="206">inference_accelerator_overrides</text><text x="498.5" y="1674.609" fill="#D9B8FF" font-family="sans-serif" font-size="11" textLength="194">: aws_ecs_inference_accelerator[]</text><text x="292.5" y="1697.414" fill="#D9B8FF" font-family="sans-serif" font-size="11" font-weight="bold" textLength="121">execution_role_arn</text><text x="413.5" y="1697.414" fill="#D9B8FF" font-family="sans-serif" font-size="11" textLength="41">: string</text><text x="292.5" y="1720.218" fill="#D9B8FF" font-family="sans-serif" font-size="11" font-weight="bold" textLength="50">memory</text><text x="342.5" y="1720.218" fill="#D9B8FF" font-family="sans-serif" font-size="11" textLength="41">: string</text><text x="292.5" y="1743.023" fill="#D9B8FF" font-family="sans-serif" font-size="11" font-weight="bold" textLength="85">task_role_arn</text><text x="377.5" y="1743.023" fill="#D9B8FF" font-family="sans-serif" font-size="11" textLength="41">: string</text><text x="292.5" y="1765.828" fill="#D9B8FF" font-family="sans-serif" font-size="11" font-weight="bold" textLength="123">ephemeral_storage</text><text x="415.5" y="1765.828" fill="#D9B8FF" font-family="sans-serif" font-size="11" textLength="36">: int64</text></a><a xlink:actuate="onRequest" xlink:href="#d" xlink:show="new" xlink:title="#aws_ecs_container_override" xlink:type="simple" target="_top"><rect id="d" width="367" height="230.227" x="207" y="1951" fill="#3D176E" rx="2.5" ry="2.5" style="stroke:#000d19;stroke-width:1.5"/><circle cx="264.25" cy="1970.895" r="11" fill="#E98DF7" style="stroke:#000d19;stroke-width:1"/><path d="M267.219 1976.535q-.578.297-1.219.438-.64.156-1.344.156-2.5 0-3.828-1.64-1.312-1.657-1.312-4.782t1.312-4.781q1.328-1.656 3.828-1.656.703 0 1.344.156.656.156 1.219.453v2.719q-.625-.578-1.219-.844-.594-.281-1.219-.281-1.344 0-2.031 1.078-.688 1.062-.688 3.156 0 2.094.688 3.172.688 1.062 2.031 1.062.625 0 1.219-.265.594-.281 1.219-.86v2.72Z"/><text x="289.75" y="1976.78" fill="#D9B8FF" font-family="Helvetica" font-size="17" textLength="234">aws_ecs_container_override</text><path d="M208 1990.789h365" style="stroke:#000d19;stroke-width:1.5"/><text x="218" y="2009.999" fill="#D9B8FF" font-family="sans-serif" font-size="11" font-weight="bold" textLength="35">name</text><text x="253" y="2009.999" fill="#D9B8FF" font-family="sans-serif" font-size="11" textLength="41">: string</text><text x="218" y="2032.804" fill="#D9B8FF" font-family="sans-serif" font-size="11" font-weight="bold" textLength="61">command</text><text x="279" y="2032.804" fill="#D9B8FF" font-family="sans-serif" font-size="11" textLength="49">: string[]</text><text x="218" y="2055.609" fill="#D9B8FF" font-family="sans-serif" font-size="11" font-weight="bold" textLength="80">environment</text><text x="298" y="2055.609" fill="#D9B8FF" font-family="sans-serif" font-size="11" textLength="154">: aws_ecs_key_value_pair[]</text><text x="218" y="2078.414" fill="#D9B8FF" font-family="sans-serif" font-size="11" font-weight="bold" textLength="114">environment_files</text><text x="332" y="2078.414" fill="#D9B8FF" font-family="sans-serif" font-size="11" textLength="165">: aws_ecs_environment_file[]</text><text x="218" y="2101.218" fill="#D9B8FF" font-family="sans-serif" font-size="11" font-weight="bold" textLength="23">cpu</text><text x="241" y="2101.218" fill="#D9B8FF" font-family="sans-serif" font-size="11" textLength="36">: int64</text><text x="218" y="2124.023" fill="#D9B8FF" font-family="sans-serif" font-size="11" font-weight="bold" textLength="50">memory</text><text x="268" y="2124.023" fill="#D9B8FF" font-family="sans-serif" font-size="11" textLength="36">: int64</text><text x="218" y="2146.828" fill="#D9B8FF" font-family="sans-serif" font-size="11" font-weight="bold" textLength="129">memory_reservation</text><text x="347" y="2146.828" fill="#D9B8FF" font-family="sans-serif" font-size="11" textLength="36">: int64</text><text x="218" y="2169.632" fill="#D9B8FF" font-family="sans-serif" font-size="11" font-weight="bold" textLength="147">resource_requirements</text><text x="365" y="2169.632" fill="#D9B8FF" font-family="sans-serif" font-size="11" textLength="198">: aws_ecs_resource_requirement[]</text></a><a xlink:actuate="onRequest" xlink:href="#e" xlink:show="new" xlink:title="#aws_ecs_key_value_pair" xlink:type="simple" target="_top"><rect id="e" width="245" height="93.398" x="775" y="2241" fill="#3D176E" rx="2.5" ry="2.5" style="stroke:#000d19;stroke-width:1.5"/><circle cx="790" cy="2260.894" r="11" fill="#E98DF7" style="stroke:#000d19;stroke-width:1"/><path d="M792.969 2266.535q-.578.297-1.219.438-.64.156-1.344.156-2.5 0-3.828-1.64-1.312-1.657-1.312-4.782t1.312-4.781q1.328-1.657 3.828-1.657.703 0 1.344.157.656.156 1.219.453v2.719q-.625-.579-1.219-.844-.594-.281-1.219-.281-1.343 0-2.031 1.078-.688 1.062-.688 3.156 0 2.094.688 3.172.688 1.062 2.031 1.062.625 0 1.219-.265.594-.282 1.219-.86v2.72Z"/><text x="809" y="2266.78" fill="#D9B8FF" font-family="Helvetica" font-size="17" textLength="203">aws_ecs_key_value_pair</text><path d="M776 2280.789h243" style="stroke:#000d19;stroke-width:1.5"/><text x="786" y="2299.999" fill="#D9B8FF" font-family="sans-serif" font-size="11" font-weight="bold" textLength="35">name</text><text x="821" y="2299.999" fill="#D9B8FF" font-family="sans-serif" font-size="11" textLength="41">: string</text><text x="786" y="2322.804" fill="#D9B8FF" font-family="sans-serif" font-size="11" font-weight="bold" textLength="35">value</text><text x="821" y="2322.804" fill="#D9B8FF" font-family="sans-serif" font-size="11" textLength="41">: string</text></a><a xlink:actuate="onRequest" xlink:href="#f" xlink:show="new" xlink:title="#aws_ecs_environment_file" xlink:type="simple" target="_top"><rect id="f" width="263" height="93.398" x="7" y="2241" fill="#3D176E" rx="2.5" ry="2.5" style="stroke:#000d19;stroke-width:1.5"/><circle cx="22" cy="2260.894" r="11" fill="#E98DF7" style="stroke:#000d19;stroke-width:1"/><path d="M24.969 2266.535q-.578.297-1.219.438-.64.156-1.344.156-2.5 0-3.828-1.64-1.312-1.657-1.312-4.782t1.312-4.781q1.328-1.657 3.828-1.657.703 0 1.344.157.656.156 1.219.453v2.719q-.625-.579-1.219-.844-.594-.281-1.219-.281-1.343 0-2.031 1.078-.688 1.062-.688 3.156 0 2.094.688 3.172.688 1.062 2.031 1.062.625 0 1.219-.265.594-.282 1.219-.86v2.72Z"/><text x="41" y="2266.78" fill="#D9B8FF" font-family="Helvetica" font-size="17" textLength="221">aws_ecs_environment_file</text><path d="M8 2280.789h261" style="stroke:#000d19;stroke-width:1.5"/><text x="18" y="2299.999" fill="#D9B8FF" font-family="sans-serif" font-size="11" font-weight="bold" textLength="35">value</text><text x="53" y="2299.999" fill="#D9B8FF" font-family="sans-serif" font-size="11" textLength="41">: string</text><text x="18" y="2322.804" fill="#D9B8FF" font-family="sans-serif" font-size="11" font-weight="bold" textLength="28">type</text><text x="46" y="2322.804" fill="#D9B8FF" font-family="sans-serif" font-size="11" textLength="41">: string</text></a><a xlink:actuate="onRequest" xlink:href="#g" xlink:show="new" xlink:title="#aws_ecs_resource_requirement" xlink:type="simple" target="_top"><rect id="g" width="304" height="93.398" x="305.5" y="2241" fill="#3D176E" rx="2.5" ry="2.5" style="stroke:#000d19;stroke-width:1.5"/><circle cx="320.5" cy="2260.894" r="11" fill="#E98DF7" style="stroke:#000d19;stroke-width:1"/><path d="M323.469 2266.535q-.578.297-1.219.438-.64.156-1.344.156-2.5 0-3.828-1.64-1.312-1.657-1.312-4.782t1.312-4.781q1.328-1.657 3.828-1.657.703 0 1.344.157.656.156 1.219.453v2.719q-.625-.579-1.219-.844-.594-.281-1.219-.281-1.344 0-2.031 1.078-.688 1.062-.688 3.156 0 2.094.688 3.172.688 1.062 2.031 1.062.625 0 1.219-.265.594-.282 1.219-.86v2.72Z"/><text x="339.5" y="2266.78" fill="#D9B8FF" font-family="Helvetica" font-size="17" textLength="262">aws_ecs_resource_requirement</text><path d="M306.5 2280.789h302" style="stroke:#000d19;stroke-width:1.5"/><text x="316.5" y="2299.999" fill="#D9B8FF" font-family="sans-serif" font-size="11" font-weight="bold" textLength="35">value</text><text x="351.5" y="2299.999" fill="#D9B8FF" font-family="sans-serif" font-size="11" textLength="41">: string</text><text x="316.5" y="2322.804" fill="#D9B8FF" font-family="sans-serif" font-size="11" font-weight="bold" textLength="28">type</text><text x="344.5" y="2322.804" fill="#D9B8FF" font-family="sans-serif" font-size="11" textLength="41">: string</text></a><a xlink:actuate="onRequest" xlink:href="#h" xlink:show="new" xlink:title="#aws_ecs_inference_accelerator" xlink:type="simple" target="_top"><rect id="h" width="298" height="93.398" x="609.5" y="2019.5" fill="#3D176E" rx="2.5" ry="2.5" style="stroke:#000d19;stroke-width:1.5"/><circle cx="624.5" cy="2039.395" r="11" fill="#E98DF7" style="stroke:#000d19;stroke-width:1"/><path d="M627.469 2045.035q-.578.297-1.219.438-.64.156-1.344.156-2.5 0-3.828-1.64-1.312-1.657-1.312-4.782t1.312-4.781q1.328-1.656 3.828-1.656.703 0 1.344.156.656.156 1.219.453v2.719q-.625-.578-1.219-.844-.594-.281-1.219-.281-1.343 0-2.031 1.078-.688 1.062-.688 3.156 0 2.094.688 3.172.688 1.062 2.031 1.062.625 0 1.219-.265.594-.281 1.219-.86v2.72Z"/><text x="643.5" y="2045.28" fill="#D9B8FF" font-family="Helvetica" font-size="17" textLength="256">aws_ecs_inference_accelerator</text><path d="M610.5 2059.289h296" style="stroke:#000d19;stroke-width:1.5"/><text x="620.5" y="2078.499" fill="#D9B8FF" font-family="sans-serif" font-size="11" font-weight="bold" textLength="83">device_name</text><text x="703.5" y="2078.499" fill="#D9B8FF" font-family="sans-serif" font-size="11" textLength="41">: string</text><text x="620.5" y="2101.304" fill="#D9B8FF" font-family="sans-serif" font-size="11" font-weight="bold" textLength="76">device_type</text><text x="696.5" y="2101.304" fill="#D9B8FF" font-family="sans-serif" font-size="11" textLength="41">: string</text></a><a xlink:actuate="onRequest" xlink:href="#i" xlink:show="new" xlink:title="#aws_ecs_attribute" xlink:type="simple" target="_top"><rect id="i" width="193" height="139.008" x="810" y="1604" fill="#3D176E" rx="2.5" ry="2.5" style="stroke:#000d19;stroke-width:1.5"/><circle cx="825" cy="1623.895" r="11" fill="#E98DF7" style="stroke:#000d19;stroke-width:1"/><path d="M827.969 1629.535q-.578.297-1.219.438-.64.156-1.344.156-2.5 0-3.828-1.64-1.312-1.657-1.312-4.782t1.312-4.781q1.328-1.656 3.828-1.656.703 0 1.344.156.656.156 1.219.453v2.719q-.625-.578-1.219-.844-.594-.281-1.219-.281-1.343 0-2.031 1.078-.688 1.062-.688 3.156 0 2.094.688 3.172.688 1.062 2.031 1.062.625 0 1.219-.265.594-.281 1.219-.86v2.72Z"/><text x="844" y="1629.78" fill="#D9B8FF" font-family="Helvetica" font-size="17" textLength="151">aws_ecs_attribute</text><path d="M811 1643.789h191" style="stroke:#000d19;stroke-width:1.5"/><text x="821" y="1662.999" fill="#D9B8FF" font-family="sans-serif" font-size="11" font-weight="bold" textLength="35">name</text><text x="856" y="1662.999" fill="#D9B8FF" font-family="sans-serif" font-size="11" textLength="41">: string</text><text x="821" y="1685.804" fill="#D9B8FF" font-family="sans-serif" font-size="11" font-weight="bold" textLength="35">value</text><text x="856" y="1685.804" fill="#D9B8FF" font-family="sans-serif" font-size="11" textLength="41">: string</text><text x="821" y="1708.609" fill="#D9B8FF" font-family="sans-serif" font-size="11" font-weight="bold" textLength="73">target_type</text><text x="894" y="1708.609" fill="#D9B8FF" font-family="sans-serif" font-size="11" textLength="41">: string</text><text x="821" y="1731.414" fill="#D9B8FF" font-family="sans-serif" font-size="11" font-weight="bold" textLength="57">target_id</text><text x="878" y="1731.414" fill="#D9B8FF" font-family="sans-serif" font-size="11" textLength="41">: string</text></a><a xlink:actuate="onRequest" xlink:href="#j" xlink:show="new" xlink:title="#aws_ecs_attachment" xlink:type="simple" target="_top"><rect id="j" width="220" height="139.008" x="1038.5" y="1604" fill="#3D176E" rx="2.5" ry="2.5" style="stroke:#000d19;stroke-width:1.5"/><circle cx="1054.85" cy="1623.895" r="11" fill="#E98DF7" style="stroke:#000d19;stroke-width:1"/><path d="M1057.819 1629.535q-.578.297-1.219.438-.64.156-1.344.156-2.5 0-3.828-1.64-1.312-1.657-1.312-4.782t1.312-4.781q1.328-1.656 3.828-1.656.703 0 1.344.156.656.156 1.219.453v2.719q-.625-.578-1.219-.844-.594-.281-1.219-.281-1.344 0-2.031 1.078-.688 1.062-.688 3.156 0 2.094.688 3.172.688 1.062 2.031 1.062.625 0 1.219-.265.594-.281 1.219-.86v2.72Z"/><text x="1074.15" y="1629.78" fill="#D9B8FF" font-family="Helvetica" font-size="17" textLength="175">aws_ecs_attachment</text><path d="M1039.5 1643.789h218" style="stroke:#000d19;stroke-width:1.5"/><text x="1049.5" y="1662.999" fill="#D9B8FF" font-family="sans-serif" font-size="11" font-weight="bold" textLength="12">id</text><text x="1061.5" y="1662.999" fill="#D9B8FF" font-family="sans-serif" font-size="11" textLength="41">: string</text><text x="1049.5" y="1685.804" fill="#D9B8FF" font-family="sans-serif" font-size="11" font-weight="bold" textLength="28">type</text><text x="1077.5" y="1685.804" fill="#D9B8FF" font-family="sans-serif" font-size="11" textLength="41">: string</text><text x="1049.5" y="1708.609" fill="#D9B8FF" font-family="sans-serif" font-size="11" font-weight="bold" textLength="40">status</text><text x="1089.5" y="1708.609" fill="#D9B8FF" font-family="sans-serif" font-size="11" textLength="41">: string</text><text x="1049.5" y="1731.414" fill="#D9B8FF" font-family="sans-serif" font-size="11" font-weight="bold" textLength="44">details</text><text x="1093.5" y="1731.414" fill="#D9B8FF" font-family="sans-serif" font-size="11" textLength="154">: aws_ecs_key_value_pair[]</text></a><a xlink:actuate="onRequest" xlink:href="#k" xlink:show="new" xlink:title="#aws_ecs_network_interface" xlink:type="simple" target="_top"><rect id="k" width="272" height="116.203" x="1018.5" y="2008" fill="#3D176E" rx="2.5" ry="2.5" style="stroke:#000d19;stroke-width:1.5"/><circle cx="1033.5" cy="2027.895" r="11" fill="#E98DF7" style="stroke:#000d19;stroke-width:1"/><path d="M1036.469 2033.535q-.578.297-1.219.438-.64.156-1.344.156-2.5 0-3.828-1.64-1.312-1.657-1.312-4.782t1.312-4.781q1.328-1.656 3.828-1.656.703 0 1.344.156.656.156 1.219.453v2.719q-.625-.578-1.219-.844-.594-.281-1.219-.281-1.343 0-2.031 1.078-.688 1.062-.688 3.156 0 2.094.688 3.172.688 1.062 2.031 1.062.625 0 1.219-.265.594-.281 1.219-.86v2.72Z"/><text x="1052.5" y="2033.78" fill="#D9B8FF" font-family="Helvetica" font-size="17" textLength="230">aws_ecs_network_interface</text><path d="M1019.5 2047.789h270" style="stroke:#000d19;stroke-width:1.5"/><text x="1029.5" y="2066.999" fill="#D9B8FF" font-family="sans-serif" font-size="11" font-weight="bold" textLength="91">attachment_id</text><text x="1120.5" y="2066.999" fill="#D9B8FF" font-family="sans-serif" font-size="11" textLength="41">: string</text><text x="1029.5" y="2089.804" fill="#D9B8FF" font-family="sans-serif" font-size="11" font-weight="bold" textLength="135">private_ipv4_address</text><text x="1164.5" y="2089.804" fill="#D9B8FF" font-family="sans-serif" font-size="11" textLength="41">: string</text><text x="1029.5" y="2112.609" fill="#D9B8FF" font-family="sans-serif" font-size="11" font-weight="bold" textLength="84">ipv6_address</text><text x="1113.5" y="2112.609" fill="#D9B8FF" font-family="sans-serif" font-size="11" textLength="41">: string</text></a><a xlink:actuate="onRequest" xlink:href="#l" xlink:show="new" xlink:title="#aws_ecs_task" xlink:type="simple" target="_top"><rect id="l" width="396" height="800.344" x="708.5" y="596" fill="#3D176E" rx="2.5" ry="2.5" style="stroke:#000d19;stroke-width:1.5"/><circle cx="841.25" cy="615.894" r="11" fill="#E98DF7" style="stroke:#000d19;stroke-width:1"/><path d="M844.219 621.535q-.578.297-1.219.438-.64.156-1.344.156-2.5 0-3.828-1.64-1.312-1.657-1.312-4.782t1.312-4.781q1.328-1.657 3.828-1.657.703 0 1.344.157.656.156 1.219.453v2.719q-.625-.578-1.219-.844-.594-.281-1.219-.281-1.343 0-2.031 1.078-.688 1.062-.688 3.156 0 2.094.688 3.172.688 1.062 2.031 1.062.625 0 1.219-.265.594-.282 1.219-.86v2.72Z"/><text x="866.75" y="621.78" fill="#D9B8FF" font-family="Helvetica" font-size="17" textLength="112">aws_ecs_task</text><path d="M709.5 635.789h394" style="stroke:#000d19;stroke-width:1.5"/><text x="719.5" y="655" fill="#D9B8FF" font-family="sans-serif" font-size="11" font-weight="bold" textLength="113">task_attachments</text><text x="832.5" y="655" fill="#D9B8FF" font-family="sans-serif" font-size="11" textLength="135">: aws_ecs_attachment[]</text><text x="719.5" y="677.804" fill="#D9B8FF" font-family="sans-serif" font-size="11" font-weight="bold" textLength="96">task_attributes</text><text x="815.5" y="677.804" fill="#D9B8FF" font-family="sans-serif" font-size="11" textLength="119">: aws_ecs_attribute[]</text><text x="719.5" y="700.609" fill="#D9B8FF" font-family="sans-serif" font-size="11" font-weight="bold" textLength="141">task_availability_zone</text><text x="860.5" y="700.609" fill="#D9B8FF" font-family="sans-serif" font-size="11" textLength="41">: string</text><text x="719.5" y="723.414" fill="#D9B8FF" font-family="sans-serif" font-size="11" font-weight="bold" textLength="187">task_capacity_provider_name</text><text x="906.5" y="723.414" fill="#D9B8FF" font-family="sans-serif" font-size="11" textLength="41">: string</text><text x="719.5" y="746.218" fill="#D9B8FF" font-family="sans-serif" font-size="11" font-weight="bold" textLength="104">task_cluster_arn</text><text x="823.5" y="746.218" fill="#D9B8FF" font-family="sans-serif" font-size="11" textLength="41">: string</text><text x="719.5" y="769.023" fill="#D9B8FF" font-family="sans-serif" font-size="11" font-weight="bold" textLength="111">task_connectivity</text><text x="830.5" y="769.023" fill="#D9B8FF" font-family="sans-serif" font-size="11" textLength="41">: string</text><text x="719.5" y="791.828" fill="#D9B8FF" font-family="sans-serif" font-size="11" font-weight="bold" textLength="130">task_connectivity_at</text><text x="849.5" y="791.828" fill="#D9B8FF" font-family="sans-serif" font-size="11" textLength="58">: datetime</text><text x="719.5" y="814.632" fill="#D9B8FF" font-family="sans-serif" font-size="11" font-weight="bold" textLength="182">task_container_instance_arn</text><text x="901.5" y="814.632" fill="#D9B8FF" font-family="sans-serif" font-size="11" textLength="41">: string</text><text x="719.5" y="837.437" fill="#D9B8FF" font-family="sans-serif" font-size="11" font-weight="bold" textLength="101">task_containers</text><text x="820.5" y="837.437" fill="#D9B8FF" font-family="sans-serif" font-size="11" textLength="124">: aws_ecs_container[]</text><text x="719.5" y="860.242" fill="#D9B8FF" font-family="sans-serif" font-size="11" font-weight="bold" textLength="56">task_cpu</text><text x="775.5" y="860.242" fill="#D9B8FF" font-family="sans-serif" font-size="11" textLength="41">: string</text><text x="719.5" y="883.046" fill="#D9B8FF" font-family="sans-serif" font-size="11" font-weight="bold" textLength="127">task_desired_status</text><text x="846.5" y="883.046" fill="#D9B8FF" font-family="sans-serif" font-size="11" textLength="41">: string</text><text x="719.5" y="905.851" fill="#D9B8FF" font-family="sans-serif" font-size="11" font-weight="bold" textLength="201">task_enable_execute_command</text><text x="920.5" y="905.851" fill="#D9B8FF" font-family="sans-serif" font-size="11" textLength="53">: boolean</text><text x="719.5" y="928.656" fill="#D9B8FF" font-family="sans-serif" font-size="11" font-weight="bold" textLength="173">task_execution_stopped_at</text><text x="892.5" y="928.656" fill="#D9B8FF" font-family="sans-serif" font-size="11" textLength="58">: datetime</text><text x="719.5" y="951.46" fill="#D9B8FF" font-family="sans-serif" font-size="11" font-weight="bold" textLength="70">task_group</text><text x="789.5" y="951.46" fill="#D9B8FF" font-family="sans-serif" font-size="11" textLength="41">: string</text><text x="719.5" y="974.265" fill="#D9B8FF" font-family="sans-serif" font-size="11" font-weight="bold" textLength="120">task_health_status</text><text x="839.5" y="974.265" fill="#D9B8FF" font-family="sans-serif" font-size="11" textLength="41">: string</text><text x="719.5" y="997.07" fill="#D9B8FF" font-family="sans-serif" font-size="11" font-weight="bold" textLength="180">task_inference_accelerators</text><text x="899.5" y="997.07" fill="#D9B8FF" font-family="sans-serif" font-size="11" textLength="194">: aws_ecs_inference_accelerator[]</text><text x="719.5" y="1019.875" fill="#D9B8FF" font-family="sans-serif" font-size="11" font-weight="bold" textLength="103">task_last_status</text><text x="822.5" y="1019.875" fill="#D9B8FF" font-family="sans-serif" font-size="11" textLength="41">: string</text><text x="719.5" y="1042.679" fill="#D9B8FF" font-family="sans-serif" font-size="11" font-weight="bold" textLength="110">task_launch_type</text><text x="829.5" y="1042.679" fill="#D9B8FF" font-family="sans-serif" font-size="11" textLength="41">: string</text><text x="719.5" y="1065.484" fill="#D9B8FF" font-family="sans-serif" font-size="11" font-weight="bold" textLength="83">task_memory</text><text x="802.5" y="1065.484" fill="#D9B8FF" font-family="sans-serif" font-size="11" textLength="41">: string</text><text x="719.5" y="1088.289" fill="#D9B8FF" font-family="sans-serif" font-size="11" font-weight="bold" textLength="93">task_overrides</text><text x="812.5" y="1088.289" fill="#D9B8FF" font-family="sans-serif" font-size="11" textLength="140">: aws_ecs_task_override</text><text x="719.5" y="1111.093" fill="#D9B8FF" font-family="sans-serif" font-size="11" font-weight="bold" textLength="140">task_platform_version</text><text x="859.5" y="1111.093" fill="#D9B8FF" font-family="sans-serif" font-size="11" textLength="41">: string</text><text x="719.5" y="1133.898" fill="#D9B8FF" font-family="sans-serif" font-size="11" font-weight="bold" textLength="132">task_platform_family</text><text x="851.5" y="1133.898" fill="#D9B8FF" font-family="sans-serif" font-size="11" textLength="41">: string</text><text x="719.5" y="1156.703" fill="#D9B8FF" font-family="sans-serif" font-size="11" font-weight="bold" textLength="128">task_pull_started_at</text><text x="847.5" y="1156.703" fill="#D9B8FF" font-family="sans-serif" font-size="11" textLength="58">: datetime</text><text x="719.5" y="1179.507" fill="#D9B8FF" font-family="sans-serif" font-size="11" font-weight="bold" textLength="134">task_pull_stopped_at</text><text x="853.5" y="1179.507" fill="#D9B8FF" font-family="sans-serif" font-size="11" textLength="58">: datetime</text><text x="719.5" y="1202.312" fill="#D9B8FF" font-family="sans-serif" font-size="11" font-weight="bold" textLength="98">task_started_at</text><text x="817.5" y="1202.312" fill="#D9B8FF" font-family="sans-serif" font-size="11" textLength="58">: datetime</text><text x="719.5" y="1225.117" fill="#D9B8FF" font-family="sans-serif" font-size="11" font-weight="bold" textLength="100">task_started_by</text><text x="819.5" y="1225.117" fill="#D9B8FF" font-family="sans-serif" font-size="11" textLength="41">: string</text><text x="719.5" y="1247.921" fill="#D9B8FF" font-family="sans-serif" font-size="11" font-weight="bold" textLength="98">task_stop_code</text><text x="817.5" y="1247.921" fill="#D9B8FF" font-family="sans-serif" font-size="11" textLength="41">: string</text><text x="719.5" y="1270.726" fill="#D9B8FF" font-family="sans-serif" font-size="11" font-weight="bold" textLength="104">task_stopped_at</text><text x="823.5" y="1270.726" fill="#D9B8FF" font-family="sans-serif" font-size="11" textLength="58">: datetime</text><text x="719.5" y="1293.531" fill="#D9B8FF" font-family="sans-serif" font-size="11" font-weight="bold" textLength="135">task_stopped_reason</text><text x="854.5" y="1293.531" fill="#D9B8FF" font-family="sans-serif" font-size="11" textLength="41">: string</text><text x="719.5" y="1316.335" fill="#D9B8FF" font-family="sans-serif" font-size="11" font-weight="bold" textLength="108">task_stopping_at</text><text x="827.5" y="1316.335" fill="#D9B8FF" font-family="sans-serif" font-size="11" textLength="58">: datetime</text><text x="719.5" y="1339.14" fill="#D9B8FF" font-family="sans-serif" font-size="11" font-weight="bold" textLength="122">task_definition_arn</text><text x="841.5" y="1339.14" fill="#D9B8FF" font-family="sans-serif" font-size="11" textLength="41">: string</text><text x="719.5" y="1361.945" fill="#D9B8FF" font-family="sans-serif" font-size="11" font-weight="bold" textLength="80">task_version</text><text x="799.5" y="1361.945" fill="#D9B8FF" font-family="sans-serif" font-size="11" textLength="36">: int64</text><text x="719.5" y="1384.749" fill="#D9B8FF" font-family="sans-serif" font-size="11" font-weight="bold" textLength="156">task_ephemeral_storage</text><text x="875.5" y="1384.749" fill="#D9B8FF" font-family="sans-serif" font-size="11" textLength="36">: int64</text></a><a xlink:actuate="onRequest" xlink:href="#m" xlink:show="new" xlink:title="#aws_ecs_managed_agent" xlink:type="simple" target="_top"><rect id="m" width="254" height="139.008" x="1325.5" y="1996.5" fill="#3D176E" rx="2.5" ry="2.5" style="stroke:#000d19;stroke-width:1.5"/><circle cx="1340.5" cy="2016.395" r="11" fill="#E98DF7" style="stroke:#000d19;stroke-width:1"/><path d="M1343.469 2022.035q-.578.297-1.219.438-.64.156-1.344.156-2.5 0-3.828-1.64-1.312-1.657-1.312-4.782t1.312-4.781q1.328-1.656 3.828-1.656.703 0 1.344.156.656.156 1.219.453v2.719q-.625-.578-1.219-.844-.594-.281-1.219-.281-1.343 0-2.031 1.078-.688 1.062-.688 3.156 0 2.094.688 3.172.688 1.062 2.031 1.062.625 0 1.219-.265.594-.281 1.219-.86v2.72Z"/><text x="1359.5" y="2022.28" fill="#D9B8FF" font-family="Helvetica" font-size="17" textLength="212">aws_ecs_managed_agent</text><path d="M1326.5 2036.289h252" style="stroke:#000d19;stroke-width:1.5"/><text x="1336.5" y="2055.499" fill="#D9B8FF" font-family="sans-serif" font-size="11" font-weight="bold" textLength="95">last_started_at</text><text x="1431.5" y="2055.499" fill="#D9B8FF" font-family="sans-serif" font-size="11" textLength="58">: datetime</text><text x="1336.5" y="2078.304" fill="#D9B8FF" font-family="sans-serif" font-size="11" font-weight="bold" textLength="35">name</text><text x="1371.5" y="2078.304" fill="#D9B8FF" font-family="sans-serif" font-size="11" textLength="41">: string</text><text x="1336.5" y="2101.109" fill="#D9B8FF" font-family="sans-serif" font-size="11" font-weight="bold" textLength="44">reason</text><text x="1380.5" y="2101.109" fill="#D9B8FF" font-family="sans-serif" font-size="11" textLength="41">: string</text><text x="1336.5" y="2123.914" fill="#D9B8FF" font-family="sans-serif" font-size="11" font-weight="bold" textLength="70">last_status</text><text x="1406.5" y="2123.914" fill="#D9B8FF" font-family="sans-serif" font-size="11" textLength="41">: string</text></a><a xlink:actuate="onRequest" xlink:href="#n" xlink:show="new" xlink:title="#aws_ecs_network_binding" xlink:type="simple" target="_top"><rect id="n" width="260" height="139.008" x="1614.5" y="1996.5" fill="#3D176E" rx="2.5" ry="2.5" style="stroke:#000d19;stroke-width:1.5"/><circle cx="1629.5" cy="2016.395" r="11" fill="#E98DF7" style="stroke:#000d19;stroke-width:1"/><path d="M1632.469 2022.035q-.578.297-1.219.438-.64.156-1.344.156-2.5 0-3.828-1.64-1.312-1.657-1.312-4.782t1.312-4.781q1.328-1.656 3.828-1.656.703 0 1.344.156.656.156 1.219.453v2.719q-.625-.578-1.219-.844-.594-.281-1.219-.281-1.343 0-2.031 1.078-.688 1.062-.688 3.156 0 2.094.688 3.172.688 1.062 2.031 1.062.625 0 1.219-.265.594-.281 1.219-.86v2.72Z"/><text x="1648.5" y="2022.28" fill="#D9B8FF" font-family="Helvetica" font-size="17" textLength="218">aws_ecs_network_binding</text><path d="M1615.5 2036.289h258" style="stroke:#000d19;stroke-width:1.5"/><text x="1625.5" y="2055.499" fill="#D9B8FF" font-family="sans-serif" font-size="11" font-weight="bold" textLength="46">bind_ip</text><text x="1671.5" y="2055.499" fill="#D9B8FF" font-family="sans-serif" font-size="11" textLength="41">: string</text><text x="1625.5" y="2078.304" fill="#D9B8FF" font-family="sans-serif" font-size="11" font-weight="bold" textLength="93">container_port</text><text x="1718.5" y="2078.304" fill="#D9B8FF" font-family="sans-serif" font-size="11" textLength="36">: int64</text><text x="1625.5" y="2101.109" fill="#D9B8FF" font-family="sans-serif" font-size="11" font-weight="bold" textLength="60">host_port</text><text x="1685.5" y="2101.109" fill="#D9B8FF" font-family="sans-serif" font-size="11" textLength="36">: int64</text><text x="1625.5" y="2123.914" fill="#D9B8FF" font-family="sans-serif" font-size="11" font-weight="bold" textLength="53">protocol</text><text x="1678.5" y="2123.914" fill="#D9B8FF" font-family="sans-serif" font-size="11" textLength="41">: string</text></a><a xlink:actuate="onRequest" xlink:href="#o" xlink:show="new" xlink:title="#aws_ecs_container" xlink:type="simple" target="_top"><rect id="o" width="317" height="435.469" x="1294" y="1456" fill="#3D176E" rx="2.5" ry="2.5" style="stroke:#000d19;stroke-width:1.5"/><circle cx="1365.25" cy="1475.895" r="11" fill="#E98DF7" style="stroke:#000d19;stroke-width:1"/><path d="M1368.219 1481.535q-.578.297-1.219.438-.64.156-1.344.156-2.5 0-3.828-1.64-1.312-1.657-1.312-4.782t1.312-4.781q1.328-1.656 3.828-1.656.703 0 1.344.156.656.156 1.219.453v2.719q-.625-.578-1.219-.844-.594-.281-1.219-.281-1.343 0-2.031 1.078-.688 1.062-.688 3.156 0 2.094.688 3.172.688 1.062 2.031 1.062.625 0 1.219-.265.594-.281 1.219-.86v2.72Z"/><text x="1390.75" y="1481.78" fill="#D9B8FF" font-family="Helvetica" font-size="17" textLength="156">aws_ecs_container</text><path d="M1295 1495.789h315" style="stroke:#000d19;stroke-width:1.5"/><text x="1305" y="1514.999" fill="#D9B8FF" font-family="sans-serif" font-size="11" font-weight="bold" textLength="88">container_arn</text><text x="1393" y="1514.999" fill="#D9B8FF" font-family="sans-serif" font-size="11" textLength="41">: string</text><text x="1305" y="1537.804" fill="#D9B8FF" font-family="sans-serif" font-size="11" font-weight="bold" textLength="54">task_arn</text><text x="1359" y="1537.804" fill="#D9B8FF" font-family="sans-serif" font-size="11" textLength="41">: string</text><text x="1305" y="1560.609" fill="#D9B8FF" font-family="sans-serif" font-size="11" font-weight="bold" textLength="35">name</text><text x="1340" y="1560.609" fill="#D9B8FF" font-family="sans-serif" font-size="11" textLength="41">: string</text><text x="1305" y="1583.414" fill="#D9B8FF" font-family="sans-serif" font-size="11" font-weight="bold" textLength="39">image</text><text x="1344" y="1583.414" fill="#D9B8FF" font-family="sans-serif" font-size="11" textLength="41">: string</text><text x="1305" y="1606.218" fill="#D9B8FF" font-family="sans-serif" font-size="11" font-weight="bold" textLength="85">image_digest</text><text x="1390" y="1606.218" fill="#D9B8FF" font-family="sans-serif" font-size="11" textLength="41">: string</text><text x="1305" y="1629.023" fill="#D9B8FF" font-family="sans-serif" font-size="11" font-weight="bold" textLength="67">runtime_id</text><text x="1372" y="1629.023" fill="#D9B8FF" font-family="sans-serif" font-size="11" textLength="41">: string</text><text x="1305" y="1651.828" fill="#D9B8FF" font-family="sans-serif" font-size="11" font-weight="bold" textLength="70">last_status</text><text x="1375" y="1651.828" fill="#D9B8FF" font-family="sans-serif" font-size="11" textLength="41">: string</text><text x="1305" y="1674.632" fill="#D9B8FF" font-family="sans-serif" font-size="11" font-weight="bold" textLength="61">exit_code</text><text x="1366" y="1674.632" fill="#D9B8FF" font-family="sans-serif" font-size="11" textLength="36">: int64</text><text x="1305" y="1697.437" fill="#D9B8FF" font-family="sans-serif" font-size="11" font-weight="bold" textLength="44">reason</text><text x="1349" y="1697.437" fill="#D9B8FF" font-family="sans-serif" font-size="11" textLength="41">: string</text><text x="1305" y="1720.242" fill="#D9B8FF" font-family="sans-serif" font-size="11" font-weight="bold" textLength="113">network_bindings</text><text x="1418" y="1720.242" fill="#D9B8FF" font-family="sans-serif" font-size="11" textLength="163">: aws_ecs_network_binding[]</text><text x="1305" y="1743.046" fill="#D9B8FF" font-family="sans-serif" font-size="11" font-weight="bold" textLength="123">network_interfaces</text><text x="1428" y="1743.046" fill="#D9B8FF" font-family="sans-serif" font-size="11" textLength="172">: aws_ecs_network_interface[]</text><text x="1305" y="1765.851" fill="#D9B8FF" font-family="sans-serif" font-size="11" font-weight="bold" textLength="87">health_status</text><text x="1392" y="1765.851" fill="#D9B8FF" font-family="sans-serif" font-size="11" textLength="41">: string</text><text x="1305" y="1788.656" fill="#D9B8FF" font-family="sans-serif" font-size="11" font-weight="bold" textLength="109">managed_agents</text><text x="1414" y="1788.656" fill="#D9B8FF" font-family="sans-serif" font-size="11" textLength="162">: aws_ecs_managed_agent[]</text><text x="1305" y="1811.46" fill="#D9B8FF" font-family="sans-serif" font-size="11" font-weight="bold" textLength="23">cpu</text><text x="1328" y="1811.46" fill="#D9B8FF" font-family="sans-serif" font-size="11" textLength="41">: string</text><text x="1305" y="1834.265" fill="#D9B8FF" font-family="sans-serif" font-size="11" font-weight="bold" textLength="50">memory</text><text x="1355" y="1834.265" fill="#D9B8FF" font-family="sans-serif" font-size="11" textLength="41">: string</text><text x="1305" y="1857.07" fill="#D9B8FF" font-family="sans-serif" font-size="11" font-weight="bold" textLength="129">memory_reservation</text><text x="1434" y="1857.07" fill="#D9B8FF" font-family="sans-serif" font-size="11" textLength="41">: string</text><text x="1305" y="1879.874" fill="#D9B8FF" font-family="sans-serif" font-size="11" font-weight="bold" textLength="49">gpu_ids</text><text x="1354" y="1879.874" fill="#D9B8FF" font-family="sans-serif" font-size="11" textLength="49">: string[]</text></a><path fill="none" d="M906.5 303.43V403.9m-7-100.64 7-20 7 20h-14zM465.7 1777.1c-13.52 51.77-30 114.85-44.08 168.75" style="stroke:#ffaf37;stroke-width:2"/><path fill="#FFAF37" d="m420.35 1950.71 6.133-7.706-4.877 2.866-2.866-4.876 1.61 9.716z" style="stroke:#ffaf37;stroke-width:2"/><path fill="none" d="M562.39 1777.1c52.23 76.68 121.38 178.19 162.07 237.93" style="stroke:#ffaf37;stroke-width:2"/><path fill="#FFAF37" d="m727.34 2019.26-1.764-9.69-1.052 5.559-5.558-1.053 8.374 5.184z" style="stroke:#ffaf37;stroke-width:2"/><path fill="none" d="M574.09 2172.89c5.84 2.8 11.65 5.51 17.41 8.11 57.18 25.81 122.67 49.17 178.36 67.31" style="stroke:#ffaf37;stroke-width:2"/><path fill="#FFAF37" d="m774.88 2249.94-7.327-6.581 2.57 5.039-5.038 2.57 9.795-1.028z" style="stroke:#ffaf37;stroke-width:2"/><path fill="none" d="M259.33 2181.25c-22.76 19.83-45.29 39.45-64.62 56.29" style="stroke:#ffaf37;stroke-width:2"/><path fill="#FFAF37" d="m190.88 2240.87 9.413-2.896-5.643-.388.388-5.644-4.158 8.928z" style="stroke:#ffaf37;stroke-width:2"/><path fill="none" d="M425.37 2181.25c5.85 19.16 11.65 38.14 16.67 54.6" style="stroke:#ffaf37;stroke-width:2"/><path fill="#FFAF37" d="m443.57 2240.87 1.205-9.775-2.661 4.992-4.992-2.662 6.448 7.445z" style="stroke:#ffaf37;stroke-width:2"/><path fill="none" d="M1106.94 1743.13c-32.04 54.87-75.87 134.49-106.44 207.87-21.69 52.08-65.9 204.37-88.7 284.64" style="stroke:#ffaf37;stroke-width:2"/><path fill="#FFAF37" d="m910.33 2240.82 6.319-7.555-4.945 2.747-2.748-4.945 1.374 9.753z" style="stroke:#ffaf37;stroke-width:2"/><path fill="none" d="M906.5 495.31v100.62m-7-100.74 7-20 7 20h-14zm150.05 901.1c27.86 77.79 54.12 151.07 72.57 202.58" style="stroke:#ffaf37;stroke-width:2"/><path fill="#FFAF37" d="m1123.88 1603.78.727-9.822-2.415 5.116-5.116-2.415 6.804 7.121z" style="stroke:#ffaf37;stroke-width:2"/><path fill="none" d="M906.5 1396.29v202.27" style="stroke:#ffaf37;stroke-width:2"/><path fill="#FFAF37" d="m906.5 1603.78 4-9-4 4-4-4 4 9z" style="stroke:#ffaf37;stroke-width:2"/><path fill="none" d="M1104.78 1242.3c61.01 75.49 127.42 157.65 185.7 229.75" style="stroke:#ffaf37;stroke-width:2"/><path fill="#FFAF37" d="m1293.95 1476.35-2.55-9.513-.594 5.625-5.626-.594 8.77 4.482z" style="stroke:#ffaf37;stroke-width:2"/><path fill="none" d="M802.67 1396.02c-3.77 20.21-7.2 40.29-10.17 59.98-30.93 205.17-34.43 453.04-34.37 558.05" style="stroke:#ffaf37;stroke-width:2"/><path fill="#FFAF37" d="m758.14 2019.24 3.974-9.011-3.988 4.011-4.012-3.988 4.026 8.988z" style="stroke:#ffaf37;stroke-width:2"/><path fill="none" d="M708.29 1320.41c-54.27 88.54-109.34 178.4-150.26 245.18" style="stroke:#ffaf37;stroke-width:2"/><path fill="#FFAF37" d="m555.35 1569.95 8.118-5.576-5.501 1.315-1.316-5.502-1.301 9.763z" style="stroke:#ffaf37;stroke-width:2"/><path fill="none" d="M1611.1 1886.61c28.46 38.05 56.27 75.24 79.07 105.73" style="stroke:#ffaf37;stroke-width:2"/><path fill="#FFAF37" d="m1693.21 1996.4-2.2-9.6-.8 5.6-5.6-.8 8.6 4.8z" style="stroke:#ffaf37;stroke-width:2"/><path fill="none" d="M1293.9 1882.33c-33.92 44.45-67.18 88.04-92.7 121.48" style="stroke:#ffaf37;stroke-width:2"/><path fill="#FFAF37" d="m1198.12 2007.84 8.638-4.731-5.606.755-.755-5.606-2.277 9.582z" style="stroke:#ffaf37;stroke-width:2"/><path fill="none" d="M1452.5 1891.16v99.85" style="stroke:#ffaf37;stroke-width:2"/><path fill="#FFAF37" d="m1452.5 1996.36 4-9-4 4-4-4 4 9z" style="stroke:#ffaf37;stroke-width:2"/></svg>